ply
format ascii 1.0
comment Generated by PyMesh
element vertex 200
property float x
property float y
property float z
property float charge
property float ddc
property float hbond
property float hphob
property float rho
property float si
property float theta
property float nx
property float ny
property float nz
element face 335
property list uchar int vertex_indices
end_header
-13.456 -6.9735 4.6405 0.0106169 0 0 -0.288889 1e-08 0.669452 2.22045e-16 -0.0476966 -0.673293 0.737836
-13.8022 -6.02612 5.05288 -0.0323285 0.220709 0 -0.288889 1.0897 -0.344842 2.22045e-16 -0.0436382 -0.470329 0.881412
-14.219 -7.33175 3.72213 -0.132711 0.280079 0 -0.288889 1.24656 0.291035 2.19713 -0.304906 -0.795956 0.522959
-12.2754 -6.3125 4.96178 0.037571 0.0145679 -0.160366 -0.263116 1.39067 0.0607669 5.033 -0.0471689 -0.667561 0.743059
-14.8775 -6.392 4.7815 -0.0877703 -0.0551363 0 -0.288889 1.5423 0.139323 1.02674 -0.0701895 -0.726398 0.68368
-12.5632 -8.0855 3.22875 0.0449793 0.0944524 0 -0.288889 2.00666 0.492839 3.26361 -0.084792 -0.792755 0.603614
-11.6713 -7.65574 3.5117 0.0416587 0.0760629 0 -0.288889 2.21919 0.216586 3.82691 0.0991495 -0.684262 0.722465
-14.386 -5.0025 5.6365 0.057943 0.100785 0 -0.288889 2.4047 -0.0728844 0.204439 0.0248452 -0.484975 0.874175
-14.4952 -7.95725 2.686 -0.103135 -0.0452266 0 -0.25878 2.48797 -0.38172 2.4806 -0.120823 -0.588424 0.799474
-11.1847 -6.68075 4.23925 -0.0631667 0.111941 -0.288505 -0.246484 2.74982 -0.683221 4.417 -0.0615404 -0.835508 0.546021
-15.5855 -6.97237 3.164 -0.206872 0.0656645 0 -0.288889 2.76577 -0.749771 1.84928 -0.133444 -0.768976 0.625195
-11.1761 -5.69637 5.8395 0.153615 -0.147785 -0.385073 -0.155556 2.9264 -0.384973 5.12142 -0.38488 -0.784112 0.486863
-16.272 -6.41025 4.868 -0.196917 -0.262481 -0.260354 -0.537218 2.9396 0.0206288 1.22825 0.376086 -0.90874 0.180975
-10.6545 -6.58 5.099 -0.231375 -0.163689 -0.785561 -0.155556 3.03921 0.0986189 4.67075 -0.376602 -0.822101 0.426991
-12.6431 -4.67812 5.88588 -0.0220906 0.466667 0.162576 -0.25208 3.05299 -0.0594895 5.74948 -0.562668 0.507152 0.652841
-16.0704 -5.72713 5.64337 -0.140468 -0.20696 -0.360001 -0.537833 3.15719 -0.0838047 0.887085 0.544413 -0.522051 0.656565
-13.6023 -8.52875 2.33363 0.0297721 -0.0369654 0 -0.288889 3.44799 -0.301481 2.84289 0.035108 -0.659049 0.75128
-12.0726 -8.92737 2.13425 0.123345 -0.0499201 0 -0.288889 3.47205 -0.302842 3.2477 -0.233982 -0.619553 0.749271
-14.434 -3.972 5.968 -0.105477 0.438233 0 -0.288889 3.48827 0.249956 0.119574 0.435753 0.731254 0.524773
-13.5205 -4.28575 6.30813 -0.0468763 0.211546 0.712136 -0.0888889 3.71386 0.810863 6.10491 -0.0219807 -0.0487423 0.998569
-10.3134 -7.12587 3.87275 -0.00160485 -0.119765 0 -0.155556 3.72086 -0.618643 4.23309 -0.326932 -0.806915 0.491938
-10.3341 -8.12113 2.65438 -0.0294602 -0.0411774 -0.00627541 -0.193656 3.87439 -0.738405 3.87098 -0.224374 -0.661735 0.715376
-16.6373 -7.33638 3.0085 -0.150963 -0.084193 0 -0.155556 3.88959 -0.415263 1.83185 0.229484 -0.609191 0.759094
-15.8263 -4.70075 6.05 -0.0799593 -0.164504 0 -0.288889 3.93326 -0.469468 0.557321 0.445854 -0.386268 0.807472
-15.8403 -8.4775 2.45913 -0.184729 -0.144314 -0.0665696 -0.155556 3.94791 -0.532228 2.23228 0.0810591 -0.22859 0.970142
-16.6895 -6.5235 3.8545 -0.247934 -0.1627 -0.0845656 -0.266918 4.04156 -0.999905 1.55727 0.290408 -0.875042 0.387254
-11.1451 -5.506 7.06925 0.081587 -0.239128 0 -0.100888 4.17118 -0.259259 5.20347 -0.383129 -0.923164 -0.031305
-14.21 -9.5545 2.14062 0.252646 -0.158725 0.170616 -0.155556 4.19969 0.0372185 2.69528 0.329138 -0.270365 0.904749
-9.58838 -7.17572 5.35656 -0.0720867 -0.129206 0 -0.155556 4.28734 0.200363 4.53133 -0.517527 -0.689232 0.507076
-17.5072 -7.0805 4.16025 -0.244737 -0.219387 -0.0570109 -0.462858 4.51309 -0.31715 1.52904 0.551357 -0.826133 0.116228
-17.048 -7.02975 6.08975 -0.476217 -0.226389 0 -0.777778 4.51396 0.635334 1.11798 0.706083 -0.625624 0.331724
-9.86438 -5.89712 6.79975 0.11479 -0.0987728 0 -0.155556 4.56438 -0.210574 4.89193 -0.219346 -0.885478 0.409654
-12.842 -9.32 1.4325 0.140183 -0.0798113 0.265833 -0.234662 4.58496 -0.999898 3.01811 0.0538043 -0.417686 0.906997
-11.6453 -4.60388 4.67525 -0.111387 0.609348 -0.441202 -0.155556 4.62357 -0.624341 5.73713 -0.344569 0.936217 -0.0690706
-11.422 -3.9135 6.5525 0.0452527 0.47319 0.661268 -0.122222 4.64047 -0.403491 5.71889 -0.16872 0.857403 -0.486204
-11.2778 -9.7615 1.923 0.0607507 -0.107005 0 -0.353153 4.64342 -0.191157 3.41977 -0.130573 -0.245443 0.960577
-12.6186 -4.56244 4.20325 -0.116365 0.680029 0 -0.288889 4.73977 -0.571016 5.85562 0.34752 0.929517 0.123401
-16.9635 -5.543 7.033 -0.11205 -0.241602 0.573641 -0.0888889 4.8193 -0.596404 0.877374 0.878562 -0.357826 0.316369
-12.3745 -3.36175 7.0435 0.259066 0.4438 0.820334 -0.0888889 4.82642 -0.0846172 5.83842 0.00283395 0.46792 -0.883766
-13.621 -3.619 7.156 -0.00765367 -0.377999 0 -0.0888889 4.97424 0.26688 5.98371 -0.581425 -0.365319 -0.726971
-13.759 -3.865 4.518 -0.180889 0.552318 0 -0.288889 4.99656 0.457533 6.1579 0.378846 0.906421 0.186753
-12.4902 -5.07987 7.84025 0.2066 -0.307898 0 -0.0888889 5.05407 -0.109436 5.45592 -0.52891 -0.777561 -0.340077
-15.773 -3.4955 6.645 -0.114715 -0.268526 0 -0.151249 5.06253 -0.0697984 0.382948 0.923786 -0.380056 0.0466609
-17.1569 -8.38313 2.722 -0.173604 -0.0785174 0 -0.155556 5.09281 0.238235 2.02342 -0.185857 -0.384039 0.904418
-9.1585 -7.92775 4.10825 -0.00840667 -0.204082 0 -0.155556 5.14643 -0.467475 4.1874 -0.824761 -0.491524 0.279595
-16.4112 -4.2905 7.04475 -0.010762 -0.220449 0.812023 -0.0888889 5.15798 -0.628653 0.62439 0.838796 -0.44615 0.312044
-17.9305 -7.7 5.6845 -0.513793 -0.193232 0 -0.777778 5.19365 0.787553 1.31548 0.473958 -0.878643 0.0578875
-10.3611 -5.92944 7.93031 0.0380817 -0.210498 0 -0.0888889 5.41029 0.163354 5.06346 0.078183 -0.982644 -0.168221
-9.47269 -9.347 2.07006 0.115462 -0.132391 -0.104479 -0.155556 5.48256 -0.999883 3.74254 -0.585631 -0.194416 0.786917
-14.9028 -10.6087 2.47469 0.24692 -0.0940428 0.0932256 -0.155556 5.50465 0.999885 3.12673 0.230483 -0.404774 0.884893
-15.7994 -3.405 4.57062 -0.508533 0.398933 -0.441312 -0.288889 5.5226 -0.673185 0.13313 0.376037 0.897252 0.231375
-8.4545 -7.223 5.8615 -0.036253 0.0354605 0 -0.155556 5.52947 0.169479 4.47611 0.0630318 -0.565168 0.822565
-8.87138 -8.798 3.43712 -0.037866 -0.209074 0.16597 -0.323193 5.66614 -0.75587 3.99493 -0.92395 -0.306882 0.22834
-18.504 -7.66988 3.92006 -0.246476 -0.157338 0 -0.773431 5.69574 0.0743183 1.01831 0.180183 -0.982802 0.0404267
-18.2409 -8.0865 2.63013 -0.181489 0.0503664 0 -0.155556 5.69994 -0.122252 1.89054 -0.178788 -0.814894 0.551346
-10.554 -3.77 5.878 0.219659 0.409519 0.591795 -0.155556 5.74906 0.0822923 5.71355 -0.292152 0.949918 -0.110922
-12.6357 -10.976 1.2865 0.0285353 -0.0905427 0.194629 -0.313749 5.75954 0.048763 3.24068 -0.332237 -0.297189 0.895152
-11.3306 -3.17412 7.44688 0.137136 0.384784 0.103752 -0.0888889 5.8045 -0.73938 5.8171 0.104171 0.534159 -0.838941
-16.7653 -10.1103 2.37981 -0.480837 0.0614997 -0.958571 -0.155556 5.8262 0.578546 2.26821 -0.30756 -0.480808 0.821115
-10.8208 -10.8594 2.16681 0.0895403 -0.20102 0 -0.355556 5.85737 -0.0928604 3.33023 -0.413652 0.338139 0.845313
-8.65356 -8.44756 5.52819 0.36932 -0.182443 0 -0.866667 5.87509 0.117996 4.32909 -0.54031 0.131029 0.831202
-8.68256 -6.43162 6.51638 -0.0343693 -0.0170008 0 -0.155556 5.89205 0.146625 4.69878 -0.0584446 -0.72846 0.682591
-16.5045 -2.70075 6.00325 -0.242911 0.338858 0 -0.0888889 5.91815 -0.280207 0.349401 0.742702 0.574164 -0.344571
-17.0427 -5.50575 8.13175 0.139628 -0.241189 0.0189671 -0.0888889 5.92153 -0.731275 0.827714 0.914394 -0.404824 0.000975317
-17.37 -6.47 7.5005 -0.192306 -0.224479 -0.747237 -0.695038 5.93426 0.15415 0.984939 0.832502 -0.537503 0.13428
-12.6915 -2.2385 7.26463 0.0331868 0.350305 0.0298436 -0.0888889 6.01431 0.230133 5.83842 0.235183 0.158478 -0.958944
-13.7907 -2.59575 7.293 -0.043938 0.367599 0 -0.0888889 6.02048 -0.242704 5.98371 -0.0844454 0.0670477 -0.99417
-14.2536 -11.1819 1.20875 0.104943 0.0485415 0.516573 -0.155556 6.07552 -0.104086 3.12673 0.193527 -0.691729 0.695743
-13.884 -3.6015 3.3775 -0.36105 0.487665 0 -0.288889 6.17376 0.520409 6.1579 0.416628 0.904626 0.0898459
-10.1385 -3.37 7.203 0.128498 0.357992 0.766552 -0.123149 6.17863 -0.614324 5.8171 -0.168293 0.772069 -0.612851
-11.9806 -4.509 2.84575 -0.113418 0.482412 0.182902 -0.288889 6.24067 -0.951426 5.85562 -0.102244 0.924185 0.368005
-14.8453 -3.09875 7.2685 -0.106071 -0.346096 0 -0.0888889 6.24862 0.173275 0.382948 0.063646 -0.38891 -0.919075
-10.862 -4.18275 3.26312 0.0658053 0.386862 0.497328 -0.172978 6.29241 -0.99984 5.73713 -0.634458 0.720267 0.280495
-8.771 -5.32425 8.028 -0.0419467 0.0961263 0 -0.155556 6.30572 -0.086949 5.06346 0.343575 -0.856788 0.384539
-13.1315 -5.173 8.925 0.0186621 -0.262519 0 -0.0888889 6.31765 0.513889 5.45592 -0.755563 -0.598811 -0.265611
-18.4643 -7.255 7.23925 -0.370103 -0.146516 -0.530836 -0.632871 6.3519 -0.443081 0.984939 0.51067 -0.841295 0.17731
-16.0777 -3.76875 8.203 0.0361967 -0.201086 0 -0.0888889 6.47137 -0.514211 0.62439 0.711117 -0.702398 -0.0308115
-13.9991 -3.79312 8.62912 0.20013 -0.218729 0 -0.0888889 6.50505 -0.509045 5.98371 -0.539987 -0.798588 -0.265839
-16.8978 -2.712 4.73 -0.461127 0.334771 -0.314812 -0.178804 6.51986 -0.161105 0.13313 0.508377 0.854592 -0.105947
-9.57681 -10.5227 2.19225 0.299001 -0.202717 0 -0.355556 6.52631 -0.999884 3.74254 -0.438988 0.449204 0.778142
-10.1889 -3.48463 4.00612 0.107674 0.32886 -0.170617 -0.155556 6.57845 -0.107215 5.71355 -0.656422 0.716445 0.236254
-14.8431 -3.23612 3.4615 -0.496063 0.413229 -0.0170664 -0.288889 6.63576 0.283203 0.13313 0.386307 0.900109 0.20142
-15.9136 -1.95187 7.181 -0.292536 -0.299282 0 -0.0888889 6.70261 -0.591677 0.349401 0.618773 0.102756 -0.77882
-11.9108 -6.32387 8.77262 0.0522473 -0.256362 0 -0.0888889 6.71315 0.999847 5.45592 -0.348543 -0.871239 -0.345631
-15.898 -2.83406 3.49378 -0.792447 0.340411 -0.103414 -0.288889 6.74541 0.277896 0.13313 0.353092 0.894191 0.275223
-19.3487 -8.19125 5.2865 -0.36462 -0.158111 0 -0.777778 6.7464 0.64919 1.31548 0.123666 -0.9825 -0.139282
-19.2633 -7.63963 2.67156 -0.203143 0.107152 0 -0.777778 6.8165 -0.401501 1.89054 -0.292112 -0.938389 0.184654
-9.5725 -3.5915 5.43 0.176758 0.322901 0.0105221 -0.155556 6.84264 -0.63216 5.71355 -0.464457 0.867772 0.17678
-7.5365 -5.956 7.0925 -0.117358 0.0610905 0 -0.155556 6.91134 0.628585 4.69878 0.323885 -0.657443 0.680343
-19.3284 -7.98259 6.64594 -0.32721 -0.142985 0.000629393 -0.778167 6.91363 -0.0266087 1.31548 0.400781 -0.916003 0.0177111
-7.161 -7.0105 5.2475 -0.121971 0.0568496 0 -0.155556 6.97699 -0.99988 4.47611 0.205689 -0.463993 0.861628
-19.0576 -8.329 1.66288 -0.200937 0.0573526 0 -0.155556 6.98888 -0.464996 1.89054 -0.427405 -0.602682 0.673869
-10.9438 -11.9454 2.48863 0.045883 -0.147027 0 -0.355556 6.99671 0.342271 3.33023 -0.640905 -0.00138704 0.767619
-11.4115 -2.094 7.95725 0.110277 0.307271 0.411331 -0.0888889 7.00186 -0.791854 5.8171 0.229925 0.169724 -0.958294
-12.9971 -3.869 2.07931 -0.316411 0.379917 0 -0.288889 7.00587 -0.371696 5.85562 0.0785487 0.850069 0.520781
-15.888 -11.3448 1.581 -0.18442 0.0520714 -0.835422 -0.155556 7.02489 0.905977 3.12673 -0.248077 -0.804368 0.539861
-9.11263 -9.75525 4.6195 1 -0.311894 0 -0.866667 7.04465 -0.254098 3.99493 -0.933577 0.25571 -0.251092
-14.9088 -3.36075 8.43425 0.00988187 -0.186666 0 -0.0888889 7.05412 -0.527912 0.382948 0.0743413 -0.974183 -0.213168
-7.499 -8.635 5.097 0.33105 -0.165092 0.778693 -0.866667 7.12171 -0.999859 4.32909 0.0999293 0.324846 0.940473
-10.4118 -6.27056 9.62613 0.105906 -0.1685 0 -0.0888889 7.14082 0.377422 5.06346 0.23397 -0.959916 -0.154338
-18.558 -9.4 1.56025 -0.109215 0.0671593 0 -0.155556 7.1777 0.462526 2.02342 -0.479985 -0.553648 0.680506
-8.74325 -9.3785 6.50688 1 -0.260732 0 -0.866667 7.2288 0.368508 4.32909 -0.152172 0.78737 0.597405
-19.9748 -7.73325 4.382 -0.56974 0.15594 -0.194228 -0.777778 7.23868 -0.325348 1.01831 0.0252994 -0.972989 -0.22946
-16.6407 -1.46219 6.47369 -0.342837 0.268669 0 -0.0888889 7.25002 -0.446977 0.349401 0.652655 -0.0343063 -0.756878
-17.528 -10.2195 1.18 -0.252893 0.0723295 -0.588982 -0.155556 7.25209 -0.598223 2.26821 -0.490767 -0.645074 0.585685
-13.5662 -1.33525 7.15225 -0.2458 0.306776 0 -0.0888889 7.27668 0.857317 5.98371 -0.012148 0.0802792 -0.996698
-9.14775 -3.45275 6.4815 0.0884263 0.316593 0 -0.155556 7.31188 -0.999868 5.71355 -0.424299 0.87769 -0.222778
-17.1159 -5.79738 9.5235 0.256873 -0.196471 0 -0.160835 7.34539 0.0971588 0.827714 0.853315 -0.519417 -0.0453887
-8.89669 -10.5161 3.43131 0.516163 -0.255081 0 -0.773862 7.36712 -0.999879 3.99493 -0.913577 0.395687 0.0938591
-6.827 -6.381 6.055 -0.162172 0.0789777 0 -0.155556 7.37207 0.287709 4.47611 0.458249 -0.574756 0.677985
-12.9858 -12.0465 0.13025 -0.0243517 -0.0451352 0 -0.355556 7.37369 -0.70814 3.24068 -0.325269 -0.508098 0.797519
-17.4675 -6.8385 8.893 0.0557223 -0.183352 0 -0.0888889 7.37799 0.738786 0.984939 0.745376 -0.6652 0.0438689
-17.3774 -1.5455 5.76562 -0.288092 0.274986 0 -0.0888889 7.38546 -0.323729 0.349401 0.666004 0.274949 -0.693428
-10.0806 -11.4983 3.35013 0.109291 -0.22862 0.0646085 -0.666942 7.3924 0.114555 3.33023 -0.769016 0.42502 0.477465
-8.99281 -5.18831 9.17241 0.00358713 -0.171333 0 -0.0888889 7.40134 -0.347794 5.06346 0.596314 -0.785419 -0.165914
-14.9106 -1.80275 7.49563 -0.306126 0.312173 0 -0.0888889 7.40759 -0.551079 5.98371 -0.00256586 0.0953149 -0.995444
-13.5747 -4.53587 9.77962 0.055301 -0.203591 0 -0.0888889 7.47209 -0.568209 5.45592 -0.68619 -0.688193 -0.235655
-12.2655 -0.875687 7.56431 -0.164446 0.277224 0 -0.0888889 7.47326 0.0883847 5.83842 0.187454 0.110914 -0.975991
-9.00331 -2.76681 7.38263 0.089845 0.283886 0.0102143 -0.0910796 7.47661 -0.999848 5.8171 -0.523093 0.557668 -0.6445
-9.67912 -9.828 5.5365 1 -0.340133 0 -0.866667 7.59481 0.566714 4.32909 -0.844706 0.531658 -0.0617379
-15.8931 -3.66613 9.317 0.0168946 -0.189729 0.787115 -0.16315 7.60522 -0.999886 0.62439 0.474484 -0.829969 -0.293286
-12.9268 -5.85825 10.0618 0.066468 -0.200082 0 -0.0888889 7.6607 0.523431 5.45592 -0.698661 -0.694381 -0.17236
-16.623 -4.8675 9.69606 0.265922 -0.213151 0.0800778 -0.132375 7.66239 -0.580168 0.827714 0.79169 -0.538524 -0.288476
-14.464 -3.4355 2.01225 -0.463573 0.39163 0 -0.288889 7.66637 -0.785165 6.1579 0.443976 0.89279 0.0762327
-17.3153 -2.467 3.665 -0.483187 0.303757 0 -0.288889 7.68972 0.202569 0.13313 0.0957686 0.995402 0.00153593
-10.1895 -1.7585 7.98 0.158135 0.275942 0.777804 -0.092332 7.69931 -0.430465 5.8171 -0.0498677 0.218223 -0.974624
-18.038 -2.218 4.732 -0.394763 0.28519 0 -0.0888889 7.76248 -0.597494 0.13313 0.666539 0.597934 -0.445197
-7.71931 -4.28869 8.27731 -0.13222 0.130047 0 -0.0993076 7.80258 -0.0666502 5.06346 0.771305 -0.555214 0.311169
-12.061 -6.426 9.85625 0.0687357 -0.161056 0 -0.0888889 7.8119 0.594472 5.45592 -0.196044 -0.978588 -0.0627064
-18.6239 -7.34106 8.705 0.0570087 -0.132296 0 -0.0888889 7.82882 0.0479925 0.984939 0.53879 -0.830792 0.139607
-8.97525 -2.8485 4.96088 0.057925 0.22582 0 -0.155556 7.9051 -0.59546 5.71355 -0.757951 0.485499 0.435662
-11.0706 -3.27513 1.93788 -0.0187583 0.226577 0.497521 -0.198075 7.91215 -0.999863 5.85562 -0.447944 0.440279 0.778139
-10.317 -2.726 2.6115 0.071584 0.206038 0.580483 -0.155556 7.97875 -0.606003 5.73713 -0.812432 0.208543 0.544485
-15.9696 -11.7929 0.4935 -0.0880117 0.0132079 -0.578883 -0.4144 8.03244 -0.301055 3.12673 -0.123798 -0.712599 0.690563
-6.108 -7.0885 5.339 -0.215195 0.112758 -0.347611 -0.209033 8.03683 0.375755 4.47611 0.505765 -0.0733662 0.859546
-20.046 -7.609 1.613 -0.255855 0.033561 0 -0.603587 8.13335 -0.999889 1.89054 -0.121794 -0.818928 0.560824
-20.5355 -7.3585 2.45875 -0.197638 0.106962 0 -0.777778 8.13666 -0.725604 1.89054 0.0744875 -0.996569 0.0360829
-9.38138 -2.10737 3.8075 0.148901 0.166893 0.0249673 -0.155556 8.1873 -0.518457 5.71355 -0.834202 0.0522929 0.548974
-15.452 -0.5805 7.51525 -0.61469 -0.240039 -0.0869372 -0.423624 8.18769 -0.759473 0.349401 0.465199 -0.210351 -0.859851
-18.6789 -9.966 0.587 -0.0506543 0.041882 0 -0.155556 8.31004 -0.582681 2.26821 -0.359964 -0.585225 0.726593
-20.8832 -8.26775 5.65475 -0.328951 -0.138016 -0.121059 -0.777778 8.32632 -0.165529 1.31548 0.241635 -0.944963 -0.220583
-17.0605 -11.116 0.7535 -0.00555143 0.0486277 0.0020518 -0.155556 8.34944 -0.137062 2.26821 -0.383154 -0.585228 0.714633
-17.9579 -0.845375 5.33087 -0.264383 0.223735 0 0.677698 8.39351 -0.831184 0.349401 0.778267 -0.0837903 -0.622317
-6.721 -9.4495 5.7075 0.267663 -0.167089 -0.130503 -0.690547 8.40288 -0.36401 4.32909 0.0395619 0.537671 0.842226
-15.2399 -4.01038 10.1786 0.048477 -0.186749 0.0615469 -0.0972704 8.50196 -0.428873 0.827714 0.0501641 -0.892009 -0.449225
-12.1451 -2.76075 1.5005 -0.316161 0.193338 0 -0.0888889 8.51887 -0.235917 5.85562 -0.329884 0.338372 0.881295
-8.30062 -2.6835 6.06038 0.0301148 0.228567 0 -0.155556 8.52772 -0.908238 5.71355 -0.837671 0.537144 0.0989084
-11.1666 -13.36 1.94488 -0.206042 -0.12142 -0.177078 -0.559371 8.5285 -0.164661 3.33023 -0.642007 0.00878114 0.766649
-6.65863 -4.65394 6.68906 -0.195179 0.136203 0 -0.155556 8.53269 0.490303 4.69878 0.800897 -0.162584 0.576308
-12.3632 -13.6067 0.43875 -0.298596 -0.133353 -0.152735 -0.50512 8.53687 -0.892158 3.24068 -0.711883 0.16999 0.681414
-15.4955 -2.53737 1.771 -0.526947 0.264678 -0.0972404 -0.699224 8.53929 -0.0614897 0.13313 0.535996 0.683841 0.495046
-16.4995 -2.19513 1.8975 -0.497587 0.240425 -0.213413 -0.288889 8.56699 0.126766 0.13313 -0.0725445 0.834708 0.545894
-20.1338 -8.74375 7.88375 0.118923 -0.135589 0 -1 8.57502 0.766052 1.31548 0.446913 -0.885445 -0.127498
-15.5601 -12.8408 -0.15225 -0.247445 -0.0438852 0 -0.722702 8.58773 -0.2974 3.24068 0.105668 -0.414195 0.904033
-6.082 -5.856 5.234 -0.251662 0.122962 0 -0.155556 8.59873 -0.113728 4.47611 0.775231 -0.39143 0.495781
-8.00075 -10.0413 7.45125 0.626277 -0.177445 0.474991 -0.866667 8.60082 0.999899 4.32909 0.249761 0.506844 0.825063
-21.2822 -7.69037 3.86944 -0.210869 -0.134468 0 -0.777778 8.64362 -0.746784 1.01831 0.462464 -0.873277 -0.153346
-9.89112 -11.1829 4.57394 0.675667 -0.275623 0.170995 -0.866667 8.67033 0.169887 3.33023 -0.973998 0.114553 -0.195461
-8.5275 -1.687 7.64075 0.0827447 -0.223309 0 -0.120573 8.6845 -0.999906 5.8171 -0.541718 -0.0870591 -0.83604
-14.211 -3.36625 1.02675 -0.507997 0.286116 0 -0.308649 8.68618 -0.848007 6.1579 0.253913 0.76743 0.58871
-17.8043 -6.68175 10.2825 0.213745 -0.113357 0 -0.0888889 8.69894 0.461547 0.827714 0.530315 -0.818463 0.221099
-20.4631 -8.78963 0.798563 -0.236994 -0.0230537 -0.153739 -0.252353 8.70197 -0.575195 1.89054 0.0143915 -0.530912 0.847305
-9.55925 -1.01425 7.739 0.266503 -0.207678 0.164587 -0.155556 8.7039 -0.669957 5.8171 -0.23093 -0.474048 -0.849676
-13.8619 -12.8776 -0.485125 -0.192129 -0.0757001 -0.357776 -0.155556 8.72903 -0.748153 3.24068 -0.201733 -0.134953 0.970099
-11.0495 -1.1615 8.012 0.0769557 -0.243827 0.970118 -0.155402 8.7467 -0.608119 5.8171 0.0236771 -0.296033 -0.954884
-9.37288 -6.32125 10.879 -0.241774 -0.186072 0 -0.777778 8.7692 -0.0339969 5.06346 0.00891663 -0.765131 -0.643813
-9.34175 -10.4634 7.45062 0.734227 -0.168497 0.392256 -0.866667 8.78631 0.999891 4.32909 -0.586877 0.217069 0.780036
-7.252 -3.699 7.61825 -0.162745 0.146365 0 -0.11447 8.80282 -0.443783 5.06346 0.898046 -0.309276 0.312827
-9.71031 -13.0597 3.25262 0.0396917 -0.0988105 0 -0.833313 8.82614 -0.0726139 3.33023 -0.707084 -0.367682 0.604021
-11.309 0.07625 7.26963 -0.344533 -0.203559 -0.627789 -0.146431 8.85453 -0.0390163 5.83842 -0.445222 -0.429142 -0.785884
-14.4446 -4.32575 10.8495 -0.113263 -0.195054 -0.487567 -0.132564 8.86691 -0.99988 5.45592 -0.216204 -0.790347 -0.573243
-10.918 -6.34381 11.3474 0.0814103 -0.149809 0 -0.674742 8.93647 -0.585778 5.06346 -0.0343879 -0.954799 -0.295256
-14.2193 0.148031 7.53344 -0.511603 0.236192 0 -0.138524 8.9416 -0.276036 5.98371 0.311068 -0.0897668 -0.946139
-18.629 -2.28538 3.693 -0.43054 0.2716 -0.96614 -0.355556 8.9597 -0.264988 0.13313 0.563599 0.698339 -0.441224
-18.2237 -2.7 2.79775 -0.316864 0.2784 0 -0.557998 8.96706 -0.581088 0.13313 0.256086 0.963062 -0.083256
-18.5084 -11.1437 0.0408125 0.267317 -0.0575464 0 -0.468784 9.01649 -0.569059 2.26821 -0.193927 -0.270441 0.943003
-6.16512 -6.86163 4.35112 -0.245605 0.177996 0 -0.252573 9.05203 -0.807917 4.47611 0.916988 0.10264 0.385484
-21.3472 -8.6665 6.9135 -0.0288818 -0.129532 0 -1 9.06186 -0.410649 1.31548 0.279968 -0.926246 -0.252362
-7.1575 -10.2837 6.68875 0.765713 -0.183667 0 -0.866667 9.06375 -0.157604 4.32909 0.372848 0.619931 0.690413
-17.1415 0.1245 5.6115 -0.48849 -0.198722 0 0.933333 9.07907 -0.733885 0.349401 0.626886 -0.39203 -0.673295
-10.3815 -11.1511 5.97144 0.736243 -0.23647 0.611749 -0.866667 9.15465 0.999889 4.32909 -0.964915 0.0792666 0.250313
-13.6006 -5.50238 11.3686 0.099116 -0.207628 0 -0.0888889 9.17344 -0.327554 5.45592 -0.430903 -0.636383 -0.639796
-8.394 -5.65562 10.7829 -0.297909 -0.203709 0 -0.563909 9.18197 -0.183207 5.06346 0.495724 -0.389932 -0.776022
-12.3375 -6.3815 11.3695 0.125123 -0.1663 0 -0.0888889 9.18751 -0.0946285 5.45592 -0.259074 -0.89831 -0.354851
-7.9305 -1.6155 6.7105 0.0315926 -0.184584 0 -0.155556 9.18781 -0.999907 5.71355 -0.982613 0.016385 -0.184942
-19.3347 -7.254 9.89163 0.152654 -0.0917596 0.287924 -0.63516 9.21479 -0.651943 0.984939 0.48933 -0.816662 0.305973
-21.5387 -7.78562 2.19894 -0.28386 -0.0802281 -0.221223 -0.777778 9.25752 -0.999796 1.89054 0.458907 -0.820659 0.340475
-15.803 -4.925 11.1187 -0.006921 -0.188358 -0.811647 -0.177778 9.30544 -0.25577 0.827714 0.354256 -0.763653 -0.539757
-15.6175 0.50825 6.33125 -1 -0.189559 -0.769978 -0.777778 9.32214 0.0336001 0.349401 0.485357 -0.573782 -0.659699
-17.401 -6.03675 11.4762 0.108734 -0.116745 0 -0.16549 9.33326 -0.137755 0.827714 0.51537 -0.855702 0.0465509
-8.39175 -1.57913 5.40712 0.0130906 -0.141611 0 -0.155556 9.3717 -0.621954 5.71355 -0.907574 -0.13189 0.398641
-12.7895 0.915125 8.0455 -0.514913 0.213177 -0.189244 -0.101661 9.40021 -0.999852 5.83842 -0.111429 -0.0630831 -0.991768
-5.8845 -9.827 6.15375 -0.11962 -0.131546 -0.0195851 -0.288889 9.42336 -0.0303628 4.32909 -0.151958 0.40193 0.902973
-5.88919 -8.47812 5.37075 -0.39936 0.170802 -0.912138 -0.288889 9.44393 -0.22549 4.32909 0.147833 0.640262 0.753797
-18.442 -0.656 4.2455 -0.38601 -0.195183 0 0.933333 9.44763 -0.0778946 0.349401 0.772343 -0.329059 -0.543329
-7.4305 -3.96725 9.99225 -0.231811 0.141332 0 -0.0888889 9.54702 -0.0393035 5.06346 0.787945 -0.604228 -0.118537
-13.5571 -1.968 0.418312 -0.621907 0.144056 -0.147055 -0.68584 9.59167 -0.80963 5.85562 -0.159482 0.248965 0.955292
-9.3395 -0.7775 4.3755 0.199953 -0.128398 0.228185 -0.155556 9.634 -0.176279 5.71355 -0.872979 -0.289838 0.392303
-19.895 -10.299 0.14975 -0.0133258 -0.0606246 0 -1 9.64457 -0.645 2.26821 0.0840911 -0.22681 0.970302
-17.2847 -1.993 1.135 -0.648023 0.160795 0.254372 -0.00141171 9.68 -0.867344 0.13313 -0.357749 0.451536 0.817393
3 91 161 100
3 102 136 86
3 58 100 104
3 152 89 129
3 89 177 140
3 75 89 46
3 22 53 54
3 22 54 43
3 53 102 86
3 43 54 91
3 43 100 58
3 49 24 58
3 24 43 58
3 104 141 95
3 111 160 129
3 185 129 160
3 107 160 111
3 107 111 63
3 64 111 75
3 30 64 75
3 7 15 4
3 15 30 12
3 15 12 4
3 30 46 12
3 4 12 10
3 43 24 22
3 10 2 4
3 1 0 3
3 0 2 5
3 16 17 5
3 27 67 56
3 56 110 149
3 95 133 67
3 133 153 67
3 107 187 189
3 116 144 77
3 63 45 76
3 7 4 1
3 11 3 13
3 9 13 3
3 0 6 3
3 0 5 6
3 59 92 113
3 92 56 147
3 77 74 116
3 77 39 74
3 26 47 41
3 31 13 28
3 28 51 61
3 61 51 109
3 51 28 60
3 60 119 101
3 28 44 60
3 119 60 96
3 119 96 157
3 128 183 121
3 181 121 183
3 183 128 171
3 99 128 83
3 47 114 99
3 73 47 31
3 73 31 88
3 88 31 61
3 127 73 88
3 109 134 154
3 182 165 114
3 114 165 99
3 80 137 132
3 190 137 130
3 55 80 33
3 80 72 33
3 68 36 94
3 105 172 117
3 38 65 57
3 164 162 125
3 33 34 55
3 57 34 38
3 50 18 40
3 50 81 84
3 81 68 123
3 150 84 81
3 84 151 124
3 78 50 84
3 62 78 112
3 62 103 82
3 180 166 101
3 156 186 102
3 102 186 136
3 161 135 186
3 86 136 135
3 86 135 91
3 161 91 135
3 136 186 135
3 139 100 161
3 139 161 198
3 140 156 102
3 54 86 91
3 141 104 175
3 175 104 139
3 139 104 100
3 139 198 175
3 89 75 129
3 29 46 53
3 29 53 22
3 54 53 86
3 22 24 10
3 10 8 2
3 8 10 24
3 27 8 24
3 27 24 49
3 141 133 95
3 37 63 64
3 37 64 30
3 64 63 111
3 45 37 15
3 45 15 23
3 23 15 7
3 30 15 37
3 10 25 22
3 29 22 25
3 29 25 12
3 29 12 46
3 12 25 10
3 27 16 8
3 8 16 5
3 8 5 2
3 56 35 17
3 56 17 32
3 35 56 59
3 56 32 27
3 27 32 16
3 16 32 17
3 153 56 67
3 110 163 149
3 122 187 107
3 144 170 187
3 170 144 116
3 144 187 122
3 97 77 144
3 97 144 120
3 97 120 76
3 76 120 122
3 76 122 63
3 122 120 144
3 107 63 122
3 71 97 42
3 76 42 97
3 7 18 23
3 23 18 42
3 23 42 45
3 45 42 76
3 77 97 71
3 77 71 39
3 19 18 7
3 14 41 39
3 14 19 7
3 3 14 1
3 1 14 7
3 11 14 3
3 28 13 20
3 20 13 9
3 20 9 6
3 44 28 20
3 6 21 20
3 20 21 44
3 35 48 21
3 17 35 6
3 6 35 21
3 79 48 35
3 59 79 35
3 79 113 108
3 113 79 59
3 157 96 108
3 157 108 113
3 168 157 113
3 168 113 92
3 92 147 168
3 149 147 56
3 116 121 181
3 116 181 170
3 170 181 187
3 74 121 116
3 26 14 11
3 14 26 41
3 47 26 31
3 31 26 11
3 31 11 13
3 134 109 90
3 51 90 109
3 143 98 101
3 101 98 60
3 60 98 90
3 60 90 51
3 90 98 134
3 134 98 143
3 134 143 193
3 96 60 44
3 96 44 52
3 52 44 21
3 79 108 48
3 48 108 52
3 48 52 21
3 52 108 96
3 165 171 99
3 114 47 73
3 28 61 31
3 195 114 127
3 127 114 73
3 167 127 148
3 154 134 176
3 193 176 134
3 143 178 192
3 101 155 178
3 101 178 143
3 143 192 193
3 172 191 117
3 117 191 169
3 164 117 169
3 146 184 190
3 158 184 118
3 125 158 118
3 162 158 125
3 146 118 184
3 106 118 146
3 130 146 190
3 87 146 130
3 80 55 87
3 80 87 130
3 80 130 137
3 33 72 70
3 33 70 36
3 36 70 94
3 70 72 131
3 132 131 72
3 132 72 80
3 70 131 94
3 94 131 145
3 123 68 94
3 94 196 159
3 123 159 150
3 145 196 94
3 94 159 123
3 112 126 142
3 142 126 194
3 78 124 126
3 78 126 112
3 173 194 126
3 173 126 124
3 112 142 179
3 179 142 194
3 103 112 179
3 188 103 179
3 82 138 115
3 115 138 172
3 172 138 188
3 188 138 82
3 188 82 103
3 14 18 19
3 38 39 66
3 38 66 65
3 65 93 57
3 57 93 125
3 93 65 117
3 164 125 117
3 117 125 93
3 55 34 69
3 69 34 57
3 69 57 125
3 87 55 106
3 87 106 146
3 118 106 69
3 118 69 125
3 69 106 55
3 38 14 39
3 14 38 34
3 14 34 33
3 33 36 14
3 14 36 40
3 18 14 40
3 151 84 150
3 173 124 174
3 78 18 50
3 78 62 18
3 42 82 71
3 71 82 115
3 62 82 42
3 62 42 18
3 71 115 66
3 71 66 39
3 152 177 89
3 140 102 85
3 89 140 85
3 102 53 85
3 89 85 46
3 85 53 46
3 100 43 91
3 95 49 58
3 58 104 95
3 129 75 111
3 46 30 75
3 4 2 0
3 4 0 1
3 49 95 67
3 27 49 67
3 107 189 160
3 63 37 45
3 6 5 17
3 59 56 92
3 119 157 180
3 74 41 83
3 74 83 121
3 121 83 128
3 128 99 171
3 74 39 41
3 41 47 83
3 99 83 47
3 88 148 127
3 109 88 61
3 88 109 148
3 155 101 166
3 180 101 119
3 148 109 154
3 65 105 117
3 66 105 65
3 36 68 40
3 50 40 81
3 81 40 68
3 123 150 81
3 78 84 124
3 112 103 62
3 66 115 105
3 105 115 172
3 153 163 110
3 153 110 56
3 9 3 6
