ply
format ascii 1.0
comment Generated by PyMesh
element vertex 200
property float x
property float y
property float z
property float charge
property float ddc
property float hbond
property float hphob
property float rho
property float si
property float theta
property float nx
property float ny
property float nz
element face 345
property list uchar int vertex_indices
end_header
-16.9587 -9.418 13.788 0.235878 0 0 -0.866667 1e-08 0.382773 2.22045e-16 -0.698075 0.434666 -0.568996
-16.8458 -10.3915 13.2823 0.230086 -0.621898 0 -0.901769 1.10281 -0.277064 2.22045e-16 -0.0914488 0.806767 -0.58375
-16.891 -8.604 14.5685 0.296941 0.373421 0 -0.866667 1.12976 -0.637084 3.04312 -0.911108 0.276913 -0.30529
-17.4824 -9.63325 15.3156 0.240497 0.10795 0 -0.866667 1.62916 -0.876771 2.11449 -0.740196 0.487666 -0.462917
-15.4358 -9.10581 13.2952 0.96659 0.232862 0 -0.866667 1.63081 -0.179197 4.68199 -0.419749 0.28432 -0.861959
-16.4895 -7.686 14.14 0.249945 -0.286311 0 -0.866667 1.82863 0.0837004 3.53265 -0.666855 -0.076441 -0.741257
-18.3009 -10.4878 14.4353 0.217073 -0.360993 0 -1 1.83439 -0.36447 1.30984 -0.351694 0.898683 -0.262068
-17.0825 -7.7875 15.585 0.30018 -0.214132 0 -0.191002 2.44757 -0.858649 2.83559 -0.834138 -0.0571497 -0.548587
-18.04 -10.3495 12.4425 0.180204 -0.43727 0 -1 2.56333 0.790245 0.357493 -0.0188837 0.93446 -0.355567
-17.2897 -10.9758 11.8864 0.274118 -0.439797 0 -1 2.67983 0.0577259 0.0376279 0.307248 0.871201 -0.382894
-15.3629 -10.7626 12.8304 0.136983 0.179944 -0.394883 -0.790553 2.69683 -0.999862 5.50996 -0.332311 0.671036 -0.662782
-18.4521 -10.3144 15.4754 0.193447 -0.25267 0 -0.944124 2.82491 -0.902786 1.68433 -0.275903 0.864479 -0.420183
-15.4591 -7.77588 13.7755 0.861067 -0.230192 0.088854 -0.773651 2.92529 -0.734937 4.02205 -0.501152 0.0173468 -0.865186
-19.324 -10.4045 14.811 0.166069 -0.362125 0 -1 2.92747 -0.157377 1.3603 0.125617 0.949726 -0.286775
-16.3521 -11.4514 11.8585 -0.0251259 -0.308434 0 -0.892942 2.94518 -0.62583 6.00455 0.0602094 0.903033 -0.42533
-14.5334 -8.09988 12.9789 1 0.234978 0 -0.866667 3.01871 0.0769332 4.40125 -0.416646 -0.127902 -0.900026
-15.8385 -6.69825 13.663 0.586543 -0.357973 0.523724 -0.177778 3.10416 -0.999858 3.71894 -0.370887 -0.574621 -0.729557
-17.0045 -6.579 13.7055 0.209189 -0.447319 0.0484967 -0.177778 3.12457 0.0532711 3.41636 -0.372483 -0.798344 -0.473185
-19.2892 -10.6217 13.267 0.17298 -0.257581 0 -1 3.37048 0.330198 0.896335 -0.334676 0.910521 -0.242781
-17.8437 -7.97316 16.2629 0.254598 -0.24586 0 0.717809 3.48364 -0.731524 2.54371 -0.424628 -0.21275 -0.880016
-13.842 -9.499 12.3448 0.385083 0.258984 0.846334 -0.866667 3.52766 0.583064 4.92489 0.114291 0.198146 -0.973486
-18.8542 -9.37125 16.6077 0.147958 -0.209134 0 -0.866667 3.53179 -0.774815 2.02848 -0.0286449 0.379911 -0.924579
-14.5136 -10.6986 12.1084 0.0093171 0.185171 -0.611101 -0.794638 3.81339 0.104646 5.35598 -0.118791 0.560971 -0.819268
-19.343 -10.0887 16.0842 0.0367197 -0.297647 0 -0.959427 3.92731 -0.999899 1.7443 0.269278 0.796883 -0.540802
-18.9442 -11.0352 11.6637 0.331355 -0.167741 0 -1 3.93967 0.380992 0.481627 -0.371316 0.846535 -0.381449
-17.911 -6.2715 15.196 0.204766 -0.335406 0 1 4.09504 -0.999889 2.93225 -0.413333 -0.739608 -0.531165
-20.4439 -10.5723 14.3776 0.139374 -0.150603 0 -1 4.13997 0.0620823 1.26514 -0.1757 0.687899 -0.704219
-15.234 -11.3053 11.3237 -0.52401 -0.211343 -0.342352 -0.777778 4.19318 0.190645 5.6974 -0.100538 0.894178 -0.436278
-13.3403 -7.75063 12.6695 0.488417 0.278209 0 -0.477887 4.2998 0.309244 4.3885 -0.078355 -0.532924 -0.842527
-20.4977 -9.66825 15.1231 0.138002 -0.300337 -0.771219 -0.31148 4.34769 0.0933316 1.56139 0.461489 0.593141 -0.659705
-15.3011 -6.19775 12.604 0.50108 -0.300789 -0.194779 -0.177778 4.39287 -0.206937 3.87062 -0.272386 -0.641142 -0.717456
-16.9878 -6.00616 12.5084 0.16828 -0.442108 0 -0.177778 4.45177 -0.268516 3.51172 0.0390774 -0.970228 -0.23902
-17.642 -11.1625 10.057 0.112985 -0.191483 0 -1 4.55217 0.999901 0.0571894 0.0708431 0.739224 -0.669724
-16.3331 -11.9799 10.336 0.035176 0.218164 -0.599444 -0.798871 4.55691 0.0823546 6.00493 0.25465 0.623967 -0.738795
-20.1265 -9.2905 16.176 0.276374 -0.326679 -0.870462 -0.262424 4.87776 -0.889417 1.86212 0.611254 0.245662 -0.752342
-20.5223 -11.3789 13.7464 0.202422 -0.0687638 0 -1 4.89485 -0.702519 1.05822 -0.520897 0.660354 -0.540924
-18.6523 -6.01937 14.132 0.176105 -0.423925 0 0.0998822 4.91631 -0.501133 2.98465 0.0278223 -0.975824 -0.216778
-18.7805 -6.90188 15.6709 0.205645 -0.392507 0 1 5.02497 -0.444014 2.63964 0.146899 -0.741063 -0.655169
-20.0719 -11.826 12.3647 0.259031 -0.0621449 0 -1 5.06668 0.068851 0.774856 -0.660231 0.616466 -0.429027
-19.545 -7.992 16.6395 0.294261 -0.302698 -0.347605 0.404067 5.07469 -0.999927 2.32157 0.269309 -0.335886 -0.902581
-12.9963 -10.7945 12.6664 -0.0510023 0.232842 0.0462799 -0.793793 5.10784 -0.562432 5.12366 0.319079 0.427744 -0.845709
-12.4315 -8.2485 13.1453 0.53482 0.238005 0 -0.483678 5.13242 -0.394484 4.57149 0.145432 -0.269293 -0.952014
-14.9095 -11.794 10.3015 -0.38135 0.177816 -0.0268627 -0.777778 5.37175 0.773584 5.74744 0.13334 0.56375 -0.815111
-18.8921 -11.6245 10.3421 0.378147 -0.0480797 0 -1 5.38764 0.788944 0.391383 -0.543557 0.608633 -0.578024
-21.5238 -10.0594 14.7436 0.0140825 -0.210549 0 -0.302471 5.39025 -0.347971 1.47763 0.230592 0.180458 -0.95617
-12.997 -6.8425 12.0225 0.164346 0.243353 0 -0.0888889 5.46649 0.101263 4.3394 -0.0988507 -0.649519 -0.753892
-12.1716 -9.38762 13.3766 0.192425 0.199008 -0.0349964 -0.858767 5.4942 -0.999812 4.78225 0.174566 0.148977 -0.97331
-17.401 -6.03675 11.4762 0.108734 -0.452713 0 -0.16549 5.56403 -0.137755 3.62429 0.51537 -0.855702 0.0465509
-18.0872 -12.0767 9.72775 0.317003 0.130243 0 -1 5.62099 0.721577 0.127253 -0.144112 0.253934 -0.956425
-17.0565 -12.6155 9.80875 0.217744 0.205243 0 -1 5.65477 0.619101 6.19049 0.274633 0.11672 -0.954439
-21.2502 -8.50362 14.8431 -0.296657 -0.322461 -0.838733 -0.177778 5.76227 -0.200459 1.80224 0.671974 -0.133546 -0.728434
-21.4137 -11.8073 13.9376 0.0435247 -0.0309555 -0.314608 -1 5.77072 -0.144449 1.14049 -0.545339 0.442209 -0.712079
-20.0229 -7.55125 15.8363 0.178879 -0.358186 -0.317033 0.147612 5.82816 -0.207275 2.28877 0.562908 -0.387783 -0.729903
-18.333 -6.3345 12.108 0.091576 -0.497863 -0.120039 -0.0912609 5.89319 0.282037 3.3964 0.250826 -0.908366 0.3346
-15.6134 -13.1465 10.1267 -0.0775537 0.182319 -0.157177 -0.941284 5.94354 0.300933 5.94109 0.135047 0.00100278 -0.990839
-13.0511 -12.0589 11.1349 -0.266539 0.188651 0 -0.777778 6.03533 0.257586 5.12366 0.334992 0.609531 -0.718507
-19.1028 -6.053 12.8455 0.0926913 -0.44406 -0.218172 -0.149494 6.27982 -0.584342 3.3964 0.136644 -0.958058 0.251901
-11.4593 -7.06425 12.5245 0.36085 0.207473 0 -0.534173 6.30736 -0.845022 4.3394 -0.0430158 -0.6673 -0.743546
-15.803 -4.925 11.1187 -0.006921 -0.293562 -0.811647 -0.177778 6.41225 -0.25577 3.62429 0.354256 -0.763653 -0.539757
-21.164 -12.614 12.603 0.138973 0.0566601 0 -1 6.43431 0.670374 0.774856 -0.847744 0.221375 -0.481999
-11.7086 -11.227 12.6416 -0.43896 0.151054 -0.835421 -0.777778 6.46646 -0.400173 5.12366 0.155044 0.504703 -0.849256
-12.3375 -6.3815 11.3695 0.125123 -0.234082 0 -0.0888889 6.50277 -0.0946285 4.3394 -0.259074 -0.89831 -0.354851
-13.6006 -5.50238 11.3686 0.099116 -0.19177 0 -0.0888889 6.60679 -0.327554 4.3394 -0.430903 -0.636383 -0.639796
-20.324 -6.3865 14.3372 0.221022 -0.37918 0 1 6.6401 -0.999791 2.98465 0.499942 -0.811387 -0.302835
-19.4224 -12.7526 9.99325 0.243005 0.0469098 0 -1 6.68206 0.845049 0.391383 -0.537361 0.287897 -0.79269
-18.3202 -13.137 9.70988 0.36375 0.142244 0 -1 6.70673 0.60542 0.127253 -0.0848291 0.0187486 -0.996219
-17.3151 -13.7944 9.69925 0.0670877 0.158827 0 -1 6.71612 0.114218 6.19049 0.128148 0.0611198 -0.98987
-13.9409 -12.787 10.2555 -0.370037 0.190051 0 -0.777778 6.75968 0.999792 5.74744 0.321426 0.100952 -0.941538
-20.6022 -13.328 11.6995 0.196928 0.0900036 0.638818 -1 6.79287 0.109021 0.774856 -0.936276 0.084451 -0.340963
-20.213 -6.25775 13.0215 0.18907 -0.41247 0 -0.80846 6.84655 -0.856385 2.98465 0.370986 -0.88433 0.283425
-22.4034 -11.3806 14.4312 -0.278896 -0.117001 -0.752668 -1 6.95614 0.124264 1.14049 -0.279148 -0.00970253 -0.960199
-20.6695 -7.0855 15.0363 0.123762 -0.355849 -0.585066 -0.0157454 6.95732 -0.757273 2.28877 0.67072 -0.488536 -0.558093
-10.6558 -8.67522 13.3047 -0.123091 0.137787 0 -0.710011 6.96561 -0.612036 4.78225 -0.176408 -0.207952 -0.9621
-17.8043 -6.68175 10.2825 0.213745 -0.423766 0 -0.0888889 6.97951 0.461547 3.62429 0.530315 -0.818463 0.221099
-21.5989 -7.74388 13.9134 0.105045 -0.361167 -0.0787328 -0.922018 7.01252 -0.280303 1.80224 0.659801 -0.707421 -0.253412
-19.261 -6.84125 11.6965 -0.243992 -0.473138 0 -0.0888889 7.02779 0.277998 3.3964 0.368084 -0.864345 0.342669
-15.3027 -14.1698 10.387 -0.152064 0.182489 -0.207425 -0.777778 7.04419 -0.550768 5.94109 0.210353 -0.150234 -0.966013
-21.7095 -13.0495 13.7542 0.152812 0.0995452 0 -1 7.06075 0.262136 1.14049 -0.650328 -0.14921 -0.744856
-22.3465 -8.49375 14.0885 -0.068124 -0.281839 0 -0.177778 7.0932 -0.569041 1.80224 0.588423 -0.468957 -0.658663
-10.6073 -10.0638 12.9993 -0.544387 0.121131 -0.00833951 -0.777778 7.23965 0.238591 4.78225 -0.00148864 0.236394 -0.971656
-20.2196 -13.3044 10.6401 0.211921 0.0257511 0.264241 -1 7.34302 0.53074 0.774856 -0.761396 0.321536 -0.56293
-21.0245 -13.6438 12.84 0.182942 0.13485 0 -1 7.5002 0.235309 1.14049 -0.882519 -0.299105 -0.362899
-23.149 -9.1075 13.7925 0.056889 -0.177378 0 -0.177778 7.50022 0.219697 1.47763 -0.118113 -0.489313 -0.864073
-11.7505 -12.7638 11.138 -0.053411 0.18717 0 -0.777778 7.51467 0.999888 5.12366 0.546991 0.154282 -0.822799
-17.1159 -5.79738 9.5235 0.256873 -0.335513 0 -0.160835 7.55189 0.0971588 3.62429 0.853315 -0.519417 -0.0453887
-11.244 -12.127 12.0522 -0.109208 0.204249 0 -0.777778 7.63831 0.314558 5.12366 0.665982 0.292855 -0.686079
-10.486 -11.3888 12.7402 -0.537483 0.185045 -0.133567 -0.777778 7.70365 0.266172 5.12366 0.450092 -0.105326 -0.886749
-10.918 -6.34381 11.3474 0.0814103 -0.215757 0 -0.674742 7.78979 -0.585778 4.3394 -0.0343879 -0.954799 -0.295256
-16.2515 -14.8927 10.0135 0.14685 0.177369 0 -1 7.80611 -0.222322 5.94109 0.41567 0.0408365 -0.908598
-15.2399 -4.01038 10.1786 0.048477 -0.224828 0.0615469 -0.0972704 7.83963 -0.428873 3.62429 0.0501641 -0.892009 -0.449225
-19.252 -13.9431 9.88231 0.24191 0.103383 0 -1 7.8898 0.0174677 0.127253 -0.230642 0.0821338 -0.969566
-14.4446 -4.32575 10.8495 -0.113263 -0.203488 -0.487567 -0.132564 7.92117 -0.99988 4.3394 -0.216204 -0.790347 -0.573243
-13.0988 -13.906 10.6888 -0.210775 0.198971 0 -0.777778 7.93613 0.412374 5.74744 0.488421 -0.186139 -0.852524
-12.9268 -5.85825 10.0618 0.066468 -0.184618 0 -0.0888889 8.02957 0.523431 4.3394 -0.698661 -0.694381 -0.17236
-12.061 -6.426 9.85625 0.0687357 -0.227538 0 -0.0888889 8.04171 0.594472 4.3394 -0.196044 -0.978588 -0.0627064
-16.623 -4.8675 9.69606 0.265922 -0.290186 0.0800778 -0.132375 8.0553 -0.580168 3.62429 0.79169 -0.538524 -0.288476
-9.68125 -7.01875 11.9342 0.185112 0.141209 0 -0.777778 8.18139 -0.71361 4.3394 -0.393483 -0.648419 -0.651709
-13.9121 -14.6616 10.49 -0.52379 0.177502 0 -0.777778 8.25047 0.655903 5.94109 0.279298 -0.289262 -0.915598
-20.79 -7.24388 12.0931 0.140248 -0.410633 0 -0.610956 8.31872 -0.22274 3.3964 0.580424 -0.770568 0.263312
-9.599 -7.886 12.478 0.0152166 0.123201 0 -0.777778 8.34161 -0.714466 4.78225 -0.444608 -0.470896 -0.761958
-23.7349 -11.4009 14.8865 0.126947 -0.104119 0.0924512 -0.301224 8.36348 -0.348377 1.14049 -0.20439 -0.0241314 -0.978592
-22.7603 -12.7945 14.5735 -0.147878 0.101167 -0.0295089 -1 8.41739 -0.0751467 1.14049 -0.444675 -0.157526 -0.881731
-17.4675 -6.8385 8.893 0.0557223 -0.34227 0 -0.0888889 8.41781 0.738786 3.62429 0.745376 -0.6652 0.0438689
-20.7668 -14.7948 10.9923 0.247308 0.100392 0.194633 -1 8.42955 0.816357 0.774856 -0.989371 -0.0093741 -0.14511
-20.2013 -14.7099 12.4825 0.293527 0.176054 0 -1 8.43099 -0.319494 0.774856 -0.897953 -0.43703 0.0518187
-21.936 -7.92137 12.5278 0.265757 -0.3612 0 -1 8.44954 -0.340597 1.80224 0.511917 -0.808369 0.290657
-23.42 -10.2725 14.429 0.0938083 -0.117068 0 -0.177778 8.45992 0.153012 1.14049 -0.470196 -0.275288 -0.83853
-13.5747 -4.53587 9.77962 0.055301 -0.164705 0 -0.0888889 8.46681 -0.568209 4.3394 -0.68619 -0.688193 -0.235655
-11.4605 -13.5615 11.6944 -0.0795003 0.225282 0 -0.777778 8.52956 0.999811 5.12366 0.788617 -0.285382 -0.544646
-20.9441 -14.2774 14.1104 0.392027 0.153997 0 -1 8.55087 -0.459495 1.14049 -0.656228 -0.535194 -0.531913
-23.98 -8.416 14.069 0.0383617 0.125313 0 -0.177778 8.6161 -0.0189584 1.47763 -0.801276 -0.42702 -0.419059
-19.3347 -7.254 9.89163 0.152654 -0.382248 0.287924 -0.63516 8.6595 -0.651943 3.3964 0.48933 -0.816662 0.305973
-17.221 -15.7148 9.389 -0.0800823 0.127604 0 -1 8.66369 0.657691 6.19049 0.133318 0.00501467 -0.991061
-23.2985 -8.6565 12.6355 0.145161 -0.251044 0 -1 8.75098 0.171649 1.80224 -0.149108 -0.988821 -0.000164651
-8.998 -8.733 12.5118 -0.0739477 0.0976816 0 -0.777778 8.80418 -0.787732 4.78225 -0.600919 -0.349797 -0.718706
-24.1569 -9.28213 14.6067 0.0760867 -0.0880051 0 -0.177778 8.80762 0.0777232 1.47763 -0.65629 -0.196043 -0.728595
-20.3315 -7.74131 10.5953 0.199796 -0.395162 0.0211574 -0.577367 8.80788 -0.0744587 3.3964 0.524645 -0.768145 0.367016
-22.695 -13.8725 14.969 0.0611497 0.116525 0 -0.440453 8.82832 -0.541795 1.14049 -0.371655 -0.333765 -0.866299
-18.6239 -7.34106 8.705 0.0570087 -0.330763 0 -0.0888889 8.87554 0.0479925 3.62429 0.53879 -0.830792 0.139607
-14.7806 -15.9108 10.7155 0.0091696 0.199972 -0.03043 -0.793104 8.89123 0.290366 5.94109 0.538949 -0.461817 -0.704457
-8.95475 -10.2674 13.0433 -0.145372 0.131694 -0.348853 -0.777778 8.90528 -0.051276 4.78225 -0.123949 -0.443875 -0.887475
-15.8931 -3.66613 9.317 0.0168946 -0.234731 0.787115 -0.16315 8.97433 -0.999886 3.62429 0.474484 -0.829969 -0.293286
-17.0427 -5.50575 8.13175 0.139628 -0.274507 0.0189671 -0.0888889 8.97575 -0.731275 3.62429 0.914394 -0.404824 0.000975317
-10.7312 -12.692 13.1929 -0.33857 0.224289 0 -0.777778 9.01068 -0.782297 5.12366 0.79296 -0.188557 -0.579363
-19.9643 -14.9095 9.72375 0.159746 0.0578361 0 -1 9.10076 0.806655 0.127253 -0.551402 0.0766464 -0.830711
-23.8135 -12.9655 14.8745 0.151873 -0.122673 0.27264 -0.393071 9.12335 -0.0725685 1.14049 -0.0165388 -0.164178 -0.986292
-11.9108 -6.32387 8.77262 0.0522473 -0.175997 0 -0.0888889 9.14046 0.999847 4.3394 -0.348543 -0.871239 -0.345631
-13.1315 -5.173 8.925 0.0186621 -0.145202 0 -0.0888889 9.37262 0.513889 4.3394 -0.755563 -0.598811 -0.265611
-9.37288 -6.32125 10.879 -0.241774 0.157872 0 -0.777778 9.40451 -0.0339969 4.3394 0.00891663 -0.765131 -0.643813
-8.79925 -7.947 11.7245 -0.0488977 0.0997385 0 -0.777778 9.4421 0.277138 4.78225 -0.539989 -0.402606 -0.739134
-18.377 -16.4015 9.718 0.0589217 0.10722 0 -1 9.53125 0.246763 6.19049 -0.184434 -0.220216 -0.957856
-20.5179 -15.9096 11.1258 0.35212 0.128531 0 -1 9.57957 0.860416 0.774856 -0.938621 -0.344245 -0.0220189
-10.4118 -6.27056 9.62613 0.105906 0.205122 0 -0.0888889 9.58545 0.377422 4.3394 0.23397 -0.959916 -0.154338
-16.0744 -16.6863 9.843 0.216578 0.175031 0 -1 9.61648 0.773244 5.94109 0.565207 -0.335631 -0.753587
-24.8075 -12.0948 14.653 0.300281 -0.108776 0.715205 -0.177778 9.66213 0.221262 1.14049 0.152374 0.243081 -0.957963
-9.33337 -12.2767 14.1205 -0.278701 0.14968 -0.396131 -0.777778 9.70918 -0.650019 5.12366 0.303109 -0.244857 -0.920962
-11.0767 -13.8383 12.7755 -0.120711 0.21086 0 -0.777778 9.70969 0.126826 5.12366 0.819549 -0.0684307 -0.568909
-14.9088 -3.36075 8.43425 0.00988187 -0.196195 0 -0.0888889 9.73024 -0.527912 3.62429 0.0743413 -0.974183 -0.213168
-24.2743 -7.45813 13.5571 0.058323 0.129691 0 -1 9.74134 0.0498146 1.47763 -0.927345 -0.362319 -0.0935721
-8.79275 -11.3438 13.9897 -0.174024 0.147971 -0.196536 -0.888956 9.8085 -0.943984 5.12366 0.194507 -0.423554 -0.884742
-12.2097 -14.7964 12.0905 -0.172003 0.1964 0 -0.777778 9.81977 -0.077394 5.94109 0.467392 -0.461372 -0.754109
-24.6903 -10.3582 15.2692 0.354657 -0.0768228 0 -0.177778 9.82856 -0.506523 1.14049 -0.331744 0.0426787 -0.942404
-13.9991 -3.79312 8.62912 0.20013 -0.156703 0 -0.0888889 9.83655 -0.509045 4.3394 -0.539987 -0.798588 -0.265839
-17.37 -6.47 7.5005 -0.192306 -0.277743 -0.747237 -0.695038 9.86154 0.15415 3.62429 0.832502 -0.537503 0.13428
-20.1612 -15.324 14.3276 0.265798 0.122586 0.0100821 -0.594202 9.87582 -0.87813 1.14049 -0.659343 -0.395084 -0.639669
-24.5421 -7.63413 14.8821 -0.0393823 0.0805732 0 -0.177778 9.87642 -0.270768 1.47763 -0.897409 -0.127787 -0.422288
-16.0777 -3.76875 8.203 0.0361967 -0.234473 0 -0.0888889 9.98762 -0.514211 3.62429 0.711117 -0.702398 -0.0308115
-25.0569 -9.07125 15.4163 0.127213 -0.0465177 0 -0.177778 10.0364 -0.140422 1.47763 -0.546323 0.134883 -0.826643
-21.8455 -15.0938 14.9732 0.117286 0.105296 0 -0.155556 10.042 -0.353536 1.14049 -0.359799 -0.248848 -0.899233
-22.8943 -9.02575 11.4333 0.362197 -0.287216 0 -1 10.072 0.631109 1.80224 0.150304 -0.942415 0.298769
-16.9635 -5.543 7.033 -0.11205 -0.252352 0.573641 -0.0888889 10.078 -0.596404 3.62429 0.878562 -0.357826 0.316369
-19.8773 -15.9108 9.7025 0.197117 0.0953901 0 -1 10.1061 0.926023 0.127253 -0.574519 -0.335193 -0.746708
-10.1165 -13.3935 14.048 -0.266568 0.145889 0 -0.777778 10.276 -0.77602 5.12366 0.385576 0.0616912 -0.920611
-8.01056 -9.44756 11.6484 -0.0895143 0.10315 0 -0.777778 10.2979 0.576689 4.78225 -0.471068 -0.490435 -0.73319
-19.3857 -16.0071 13.5597 0.134442 0.110128 0.116609 -0.830473 10.304 -0.717768 0.774856 -0.890953 -0.26768 -0.36681
-18.4643 -7.255 7.23925 -0.370103 -0.269516 -0.530836 -0.632871 10.3525 -0.443081 3.62429 0.51067 -0.841295 0.17731
-17.0845 -17.4163 9.75125 0.224303 0.139676 0.0618687 -1 10.4087 0.999876 6.19049 0.00464454 -0.611645 -0.791119
-24.362 -7.525 11.982 0.235323 -0.153267 0 -1 10.4357 0.0892188 1.80224 -0.886754 -0.400919 0.230069
-7.6325 -10.8682 13.6713 0.036259 0.11649 0.490042 -0.995589 10.4876 -0.999878 4.78225 -0.285211 -0.591521 -0.75416
-20.1845 -8.6605 9.077 0.175931 -0.334673 0 -1 10.4936 0.901947 3.3964 0.476436 -0.824735 0.304665
-24.2787 -14.2273 15.3814 0.0961013 0.127331 -0.0270824 -0.164799 10.5029 0.0609397 1.14049 -0.187205 -0.581612 -0.791632
-21.7401 -8.90375 10.7118 0.347503 -0.327231 0 -1 10.5235 0.945378 3.3964 0.36967 -0.912761 0.173817
-19.3253 -16.6465 12.5305 0.13931 0.147539 0 -1 10.557 -0.2943 0.774856 -0.920531 -0.347953 0.177628
-8.394 -5.65562 10.7829 -0.297909 0.145587 0 -0.563909 10.5922 -0.183207 4.3394 0.495724 -0.389932 -0.776022
-21.3273 -8.8025 9.55481 0.264206 -0.298861 0 -1 10.5968 -0.0240967 3.3964 0.2227 -0.958482 0.178095
-7.29313 -10.458 12.7794 -0.092495 0.127205 0 -0.777778 10.5985 -0.223863 4.78225 -0.312423 -0.761019 -0.568543
-12.4902 -5.07987 7.84025 0.2066 -0.144636 0 -0.0888889 10.6362 -0.109436 4.3394 -0.52891 -0.777561 -0.340077
-16.4112 -4.2905 7.04475 -0.010762 -0.232038 0.812023 -0.0888889 10.7242 -0.628653 3.62429 0.838796 -0.44615 0.312044
-24.2651 -8.96638 10.8674 0.19289 -0.180036 0 -1 10.7897 0.768214 1.80224 -0.64891 -0.734414 0.198877
-14.7751 -16.7673 12.45 -0.0311044 0.189187 -0.00563068 -0.957004 10.8257 -0.99985 5.94109 0.518764 -0.437104 -0.734727
-24.4695 -6.49 14.027 -0.0499607 0.106778 0 -1 10.835 -0.664869 1.47763 -0.972331 -0.202944 -0.1157
-7.54637 -7.93881 11.1088 -0.25574 0.0687891 -0.0228609 -0.777778 10.8381 -0.0986617 4.78225 -0.344625 -0.0752006 -0.935723
-15.5204 -17.4001 11.7778 0.0933747 0.195897 0.00592891 -1 10.8645 -0.307753 5.94109 0.746641 -0.39578 -0.534683
-18.6355 -17.4405 10.5407 0.216114 0.137054 0.333194 -1 10.8815 0.414409 6.19049 -0.403905 -0.746356 -0.528973
-10.5662 -14.6614 13.4996 -0.0944873 0.154678 0 -0.777778 10.919 -0.607692 5.12366 0.587418 0.223629 -0.777773
-7.97237 -6.88225 11.0336 -0.167191 0.0966452 0 -0.777778 10.9211 0.191328 4.3394 -0.00398552 -0.120202 -0.992741
-14.8453 -3.09875 7.2685 -0.106071 -0.122142 0 -0.0888889 10.9268 0.173275 3.62429 0.063646 -0.38891 -0.919075
-10.3611 -5.92944 7.93031 0.0380817 -0.174621 0 -0.0888889 10.9478 0.163354 4.3394 0.078183 -0.982644 -0.168221
-8.76912 -13.3918 14.2046 0.0184744 0.0697816 0 -1 10.9617 -0.796202 5.12366 -0.175225 0.221379 -0.959316
-19.7464 -17.0767 10.7243 0.504503 0.138159 0.826967 -1 11.0351 0.999866 6.19049 -0.631306 -0.724487 -0.276715
-20.1338 -8.74375 7.88375 0.118923 -0.265525 0 -1 11.0941 0.766052 3.62429 0.446913 -0.885445 -0.127498
-25.9482 -10.5319 15.2934 0.119435 -0.0697201 0 -0.177778 11.0986 -0.207479 1.14049 -0.0906333 0.436551 -0.895103
-13.3985 -16.0914 12.4439 -0.165299 0.189544 -0.416346 -0.701951 11.1116 -0.33361 5.94109 0.338644 -0.620605 -0.707227
-7.59244 -11.8614 13.9519 0.163901 0.0655791 0.944132 -1 11.1162 -0.776902 5.12366 -0.370217 -0.0339792 -0.928324
-25.6367 -13.6027 14.3519 0.60449 -0.126241 -0.0889253 -0.177778 11.1241 0.742521 1.14049 0.157091 -0.424198 -0.89184
-19.3284 -7.98259 6.64594 -0.32721 -0.238675 0.000629393 -0.778167 11.1444 -0.0266087 3.62429 0.400781 -0.916003 0.0177111
-22.1509 -16.184 15.2255 -0.135481 0.0815248 -0.466169 -0.155556 11.2019 0.425204 1.14049 -0.4255 -0.171971 -0.888468
-26.1826 -11.346 14.5651 0.131163 -0.0942376 0 -0.177778 11.2303 0.334408 1.14049 0.187801 0.455244 -0.870336
-24.6031 -6.60281 12.3184 0.157184 -0.126364 0 -1 11.2821 0.0425916 1.80224 -0.963841 -0.218366 0.152733
-20.6803 -16.614 14.708 0.450913 0.0864372 0.0118448 -0.155556 11.3174 -0.0415301 1.14049 -0.473438 -0.201414 -0.85749
-13.621 -3.619 7.156 -0.00765367 -0.0858335 0 -0.0888889 11.3673 0.26688 4.3394 -0.581425 -0.365319 -0.726971
-23.4648 -9.215 10.282 0.315044 -0.220313 0 -1 11.3707 0.839958 1.80224 -0.116334 -0.992464 -0.0384874
-16.4518 -17.9608 11.0473 0.171789 0.157207 0 -1 11.4101 0.0744562 5.94109 0.361538 -0.527696 -0.768653
-17.048 -7.02975 6.08975 -0.476217 -0.244439 0 -0.777778 11.4131 0.635334 3.62429 0.706083 -0.625624 0.331724
-8.99281 -5.18831 9.17241 0.00358713 0.178373 0 -0.0888889 11.4268 -0.347794 4.3394 0.596314 -0.785419 -0.165914
-25.071 -6.36575 15.7308 -0.2382 0.072823 -0.294658 -1 11.4916 -0.033256 1.47763 -0.961125 -0.0348825 -0.2739
-25.3223 -7.353 16.2712 -0.112491 0.0196831 -0.533627 -0.177778 11.4942 -0.351625 1.47763 -0.751181 0.277511 -0.598928
-12.4464 -16.3261 12.8144 -0.071511 0.12042 0 -0.377196 11.5286 -0.513734 5.94109 -0.0102562 -0.234887 -0.971969
-15.773 -3.4955 6.645 -0.114715 -0.203161 0 -0.151249 11.5985 -0.0697984 3.62429 0.923786 -0.380056 0.0466609
-24.6623 -7.54462 10.8359 0.407607 -0.129154 0 -1 11.6207 0.314172 1.80224 -0.941904 -0.298514 0.153971
3 138 170 188
3 110 115 145
3 113 110 138
3 145 138 110
3 157 188 199
3 149 105 113
3 180 185 118
3 184 187 134
3 141 115 106
3 141 106 100
3 82 70 106
3 100 106 70
3 98 74 105
3 98 69 63
3 53 69 75
3 98 75 69
3 116 98 105
3 161 164 116
3 116 159 111
3 102 73 118
3 111 118 73
3 84 73 102
3 84 102 122
3 143 102 155
3 193 143 155
3 125 184 134
3 100 70 125
3 101 125 70
3 101 77 117
3 77 70 51
3 77 51 81
3 81 51 59
3 59 51 38
3 35 26 18
3 26 13 18
3 18 13 6
3 13 26 29
3 34 50 52
3 52 50 71
3 37 63 36
3 36 31 17
3 47 31 53
3 53 75 47
3 53 31 56
3 31 47 58
3 84 58 47
3 30 31 58
3 107 89 142
3 122 167 146
3 109 148 117
3 77 81 109
3 104 81 68
3 68 103 104
3 103 68 80
3 38 80 68
3 24 8 9
3 1 0 4
3 8 18 1
3 12 15 4
3 4 5 12
3 58 62 30
3 30 62 28
3 28 62 45
3 142 127 107
3 142 190 127
3 186 148 189
3 144 148 109
3 103 124 131
3 64 90 80
3 43 38 24
3 90 65 66
3 66 65 49
3 33 66 49
3 54 33 42
3 42 33 27
3 9 14 33
3 14 27 33
3 4 20 22
3 27 22 55
3 20 41 46
3 41 15 28
3 57 28 45
3 45 61 57
3 61 45 62
3 94 61 93
3 62 93 61
3 61 94 87
3 129 128 175
3 132 94 126
3 177 194 132
3 130 124 90
3 88 54 76
3 54 67 97
3 60 86 85
3 86 135 123
3 86 123 85
3 85 123 108
3 165 120 153
3 79 120 86
3 79 46 72
3 99 57 96
3 129 171 153
3 163 128 194
3 163 175 128
3 194 128 132
3 179 162 131
3 173 179 130
3 192 156 133
3 192 133 172
3 133 112 88
3 108 92 83
3 83 92 55
3 140 108 136
3 97 140 119
3 182 119 140
3 197 182 140
3 7 2 3
3 38 51 35
3 147 196 145
3 145 196 195
3 138 145 170
3 181 147 141
3 141 147 115
3 115 110 82
3 113 82 110
3 106 115 82
3 78 82 113
3 111 159 118
3 118 159 180
3 185 155 118
3 100 134 141
3 141 134 181
3 181 134 187
3 125 134 100
3 51 26 35
3 26 51 44
3 44 51 70
3 44 70 82
3 44 82 78
3 29 26 44
3 29 44 50
3 50 44 78
3 74 50 78
3 105 74 113
3 113 74 78
3 52 71 63
3 63 71 74
3 63 74 98
3 74 71 50
3 69 36 63
3 56 36 69
3 56 69 53
3 116 75 98
3 111 75 116
3 150 122 143
3 150 143 193
3 143 122 102
3 117 148 160
3 117 160 125
3 117 125 101
3 125 160 184
3 24 38 18
3 18 38 35
3 1 18 6
3 0 1 6
3 0 6 3
3 0 3 2
3 11 6 13
3 6 11 3
3 34 23 29
3 23 34 21
3 29 23 13
3 13 23 11
3 11 23 21
3 11 21 3
3 39 19 21
3 19 39 37
3 37 39 52
3 34 52 21
3 21 19 3
3 21 52 39
3 63 37 52
3 17 5 25
3 36 17 25
3 36 25 37
3 37 25 19
3 19 25 7
3 7 25 5
3 7 5 2
3 12 5 16
3 30 16 31
3 17 31 16
3 17 16 5
3 95 58 84
3 89 91 58
3 91 89 107
3 89 58 95
3 137 142 89
3 137 89 121
3 137 121 146
3 146 121 95
3 146 95 122
3 95 121 89
3 84 122 95
3 176 137 198
3 146 198 137
3 167 198 146
3 142 137 176
3 142 176 190
3 81 104 109
3 1 9 8
3 15 12 16
3 15 16 30
3 28 15 30
3 107 93 62
3 107 62 91
3 91 62 58
3 127 93 107
3 144 189 148
3 144 109 104
3 103 131 104
3 90 64 65
3 66 33 54
3 10 27 14
3 10 1 4
3 1 10 14
3 1 14 9
3 22 27 10
3 22 10 4
3 40 55 22
3 40 22 20
3 60 40 46
3 46 40 20
3 57 72 41
3 41 72 46
3 41 28 57
3 61 87 57
3 96 128 129
3 128 87 132
3 87 128 96
3 87 96 57
3 144 154 189
3 104 131 162
3 104 162 154
3 104 154 144
3 76 54 97
3 136 108 123
3 174 123 152
3 178 152 135
3 123 135 152
3 183 178 135
3 139 183 135
3 139 135 86
3 165 158 120
3 86 120 139
3 139 120 158
3 139 158 183
3 114 153 120
3 72 114 120
3 72 120 79
3 57 99 72
3 99 96 129
3 119 169 172
3 76 97 119
3 76 119 88
3 140 97 92
3 108 140 92
3 182 169 119
3 99 129 114
3 153 114 129
3 72 99 114
3 3 19 7
3 115 147 145
3 113 138 157
3 157 138 188
3 113 157 168
3 199 168 157
3 113 168 149
3 149 168 191
3 191 161 149
3 149 161 105
3 105 161 116
3 116 164 159
3 118 155 102
3 77 101 70
3 29 50 34
3 56 31 36
3 84 47 73
3 111 73 75
3 75 73 47
3 122 150 167
3 109 117 77
3 81 59 68
3 38 68 59
3 18 8 24
3 0 2 5
3 0 5 4
3 80 90 124
3 103 80 124
3 38 43 64
3 38 64 80
3 48 49 65
3 48 65 64
3 48 64 43
3 9 33 32
3 9 32 24
3 24 32 43
3 43 32 48
3 48 32 49
3 33 49 32
3 4 15 20
3 41 20 15
3 127 166 126
3 127 126 93
3 93 126 94
3 94 132 87
3 127 190 166
3 166 177 126
3 132 126 177
3 124 151 131
3 151 124 130
3 66 88 112
3 66 112 130
3 66 130 90
3 66 54 88
3 42 67 54
3 67 42 55
3 42 27 55
3 40 60 55
3 46 79 60
3 60 79 86
3 175 171 129
3 179 131 151
3 130 179 151
3 130 156 173
3 112 133 156
3 112 156 130
3 133 88 119
3 133 119 172
3 55 92 67
3 67 92 97
3 108 83 85
3 83 55 85
3 85 55 60
3 123 174 136
