ply
format ascii 1.0
comment Generated by PyMesh
element vertex 200
property float x
property float y
property float z
property float charge
property float ddc
property float hbond
property float hphob
property float rho
property float si
property float theta
property float nx
property float ny
property float nz
element face 329
property list uchar int vertex_indices
end_header
-12.3375 -6.3815 11.3695 0.125123 0 0 -0.0888889 1e-08 -0.0946285 2.22045e-16 -0.259074 -0.89831 -0.354851
-12.997 -6.8425 12.0225 0.164346 -0.309504 0 -0.0888889 1.03628 0.101263 2.22045e-16 -0.0988507 -0.649519 -0.753892
-10.918 -6.34381 11.3474 0.0814103 0.241859 0 -0.674742 1.42017 -0.585778 4.16044 -0.0343879 -0.954799 -0.295256
-12.9268 -5.85825 10.0618 0.066468 0.381844 0 -0.0888889 1.52681 0.523431 2.21207 -0.698661 -0.694381 -0.17236
-13.6006 -5.50238 11.3686 0.099116 0.181789 0 -0.0888889 1.53892 -0.327554 1.27198 -0.430903 -0.636383 -0.639796
-12.061 -6.426 9.85625 0.0687357 -0.319797 0 -0.0888889 1.53895 0.594472 2.90144 -0.196044 -0.978588 -0.0627064
-11.4593 -7.06425 12.5245 0.36085 -0.209227 0 -0.534173 1.60356 -0.845022 5.16737 -0.0430158 -0.6673 -0.743546
-13.3403 -7.75063 12.6695 0.488417 -0.214471 0 -0.477887 2.20297 0.309244 6.1525 -0.078355 -0.532924 -0.842527
-11.9108 -6.32387 8.77262 0.0522473 -0.080384 0 -0.0888889 2.63769 0.999847 2.83551 -0.348543 -0.871239 -0.345631
-13.1315 -5.173 8.925 0.0186621 0.214046 0 -0.0888889 2.86986 0.513889 2.28079 -0.755563 -0.598811 -0.265611
-9.68125 -7.01875 11.9342 0.185112 -0.0912811 0 -0.777778 2.94642 -0.71361 4.49837 -0.393483 -0.648419 -0.651709
-13.5747 -4.53587 9.77962 0.055301 0.197067 0 -0.0888889 3.02617 -0.568209 1.90234 -0.68619 -0.688193 -0.235655
-9.37288 -6.32125 10.879 -0.241774 0.0961528 0 -0.777778 3.03489 -0.0339969 4.03538 0.00891663 -0.765131 -0.643813
-14.4446 -4.32575 10.8495 -0.113263 0.0215127 -0.487567 -0.132564 3.07718 -0.99988 1.51318 -0.216204 -0.790347 -0.573243
-10.4118 -6.27056 9.62613 0.105906 0.2405 0 -0.0888889 3.21136 0.377422 3.4883 0.23397 -0.959916 -0.154338
-12.4315 -8.2485 13.1453 0.53482 -0.309452 0 -0.483678 3.25674 -0.394484 5.73246 0.145432 -0.269293 -0.952014
-14.5334 -8.09988 12.9789 1 -0.248735 0 -0.866667 3.48406 0.0769332 0.0200178 -0.416646 -0.127902 -0.900026
-10.6558 -8.67522 13.3047 -0.123091 -0.218612 0 -0.710011 3.56559 -0.612036 5.2072 -0.176408 -0.207952 -0.9621
-9.599 -7.886 12.478 0.0152166 -0.139241 0 -0.777778 3.63781 -0.714466 4.74836 -0.444608 -0.470896 -0.761958
-15.3011 -6.19775 12.604 0.50108 -0.0812017 -0.194779 -0.177778 3.75284 -0.206937 0.622064 -0.272386 -0.641142 -0.717456
-15.803 -4.925 11.1187 -0.006921 -0.160807 -0.811647 -0.177778 3.82942 -0.25577 1.16594 0.354256 -0.763653 -0.539757
-12.4902 -5.07987 7.84025 0.2066 -0.089415 0 -0.0888889 4.13343 -0.109436 2.57911 -0.52891 -0.777561 -0.340077
-15.2399 -4.01038 10.1786 0.048477 -0.0808801 0.0615469 -0.0972704 4.16441 -0.428873 1.52414 0.0501641 -0.892009 -0.449225
-8.394 -5.65562 10.7829 -0.297909 0.220574 0 -0.563909 4.22253 -0.183207 3.96859 0.495724 -0.389932 -0.776022
-8.79925 -7.947 11.7245 -0.0488977 -0.141143 0 -0.777778 4.24393 0.277138 4.50459 -0.539989 -0.402606 -0.739134
-10.3611 -5.92944 7.93031 0.0380817 -0.128156 0 -0.0888889 4.44508 0.163354 3.17423 0.078183 -0.982644 -0.168221
-12.1716 -9.38762 13.3766 0.192425 -0.316353 -0.0349964 -0.858767 4.44781 -0.999812 5.58367 0.174566 0.148977 -0.97331
-13.9991 -3.79312 8.62912 0.20013 -0.0944193 0 -0.0888889 4.45985 -0.509045 1.98442 -0.539987 -0.798588 -0.265839
-7.97237 -6.88225 11.0336 -0.167191 0.198147 0 -0.777778 4.55148 0.191328 4.16501 -0.00398552 -0.120202 -0.992741
-8.998 -8.733 12.5118 -0.0739477 -0.14493 0 -0.777778 4.67692 -0.787732 4.79347 -0.600919 -0.349797 -0.718706
-15.4591 -7.77588 13.7755 0.861067 -0.223404 0.088854 -0.773651 4.74757 -0.734937 0.178968 -0.501152 0.0173468 -0.865186
-15.4358 -9.10581 13.2952 0.96659 -0.255309 0 -0.866667 4.87196 -0.179197 6.2772 -0.419749 0.28432 -0.861959
-10.6073 -10.0638 12.9993 -0.544387 -0.266738 -0.00833951 -0.777778 4.98818 0.238591 5.29384 -0.00148864 0.236394 -0.971656
-15.8385 -6.69825 13.663 0.586543 -0.080721 0.523724 -0.177778 5.04155 -0.999858 0.452642 -0.370887 -0.574621 -0.729557
-8.99281 -5.18831 9.17241 0.00358713 0.219973 0 -0.0888889 5.05274 -0.347794 3.61411 0.596314 -0.785419 -0.165914
-13.842 -9.499 12.3448 0.385083 -0.324296 0.846334 -0.866667 5.16859 0.583064 5.96677 0.114291 0.198146 -0.973486
-13.621 -3.619 7.156 -0.00765367 0.114366 0 -0.0888889 5.27483 0.26688 2.25249 -0.581425 -0.365319 -0.726971
-15.8931 -3.66613 9.317 0.0168946 -0.154331 0.787115 -0.16315 5.29911 -0.999886 1.56855 0.474484 -0.829969 -0.293286
-16.9878 -6.00616 12.5084 0.16828 -0.090372 0 -0.177778 5.45308 -0.268516 0.759253 0.0390774 -0.970228 -0.23902
-16.623 -4.8675 9.69606 0.265922 -0.227589 0.0800778 -0.132375 5.47247 -0.580168 1.34525 0.79169 -0.538524 -0.288476
-14.9088 -3.36075 8.43425 0.00988187 -0.0964565 0 -0.0888889 5.48575 -0.527912 1.83136 0.0743413 -0.974183 -0.213168
-7.28 -5.491 11.3975 -0.283519 0.287653 -0.29028 -0.570924 5.50543 -0.0249235 4.10599 0.646185 0.350058 -0.678163
-7.54637 -7.93881 11.1088 -0.25574 -0.168863 -0.0228609 -0.777778 5.63995 -0.0986617 4.38153 -0.344625 -0.0752006 -0.935723
-9.86438 -5.89712 6.79975 0.11479 -0.179456 0 -0.155556 5.68037 -0.210574 3.11357 -0.219346 -0.885478 0.409654
-11.1451 -5.506 7.06925 0.081587 -0.114716 0 -0.100888 5.68418 -0.259259 2.92244 -0.383129 -0.923164 -0.031305
-7.484 -4.46 10.931 -0.311672 0.230882 0 -0.0888889 5.73235 -0.0841359 4.09544 0.864025 -0.387214 -0.321755
-17.401 -6.03675 11.4762 0.108734 -0.188069 0 -0.16549 5.80866 -0.137755 0.921525 0.51537 -0.855702 0.0465509
-16.4895 -7.686 14.14 0.249945 0.169721 0 -0.866667 5.84423 0.0837004 0.299465 -0.666855 -0.076441 -0.741257
-8.95475 -10.2674 13.0433 -0.145372 -0.0986363 -0.348853 -0.777778 5.91014 -0.051276 4.99569 -0.123949 -0.443875 -0.887475
-8.01056 -9.44756 11.6484 -0.0895143 -0.0838373 0 -0.777778 5.94084 0.576689 4.67105 -0.471068 -0.490435 -0.73319
-17.1159 -5.79738 9.5235 0.256873 -0.24003 0 -0.160835 6.07205 0.0971588 1.34525 0.853315 -0.519417 -0.0453887
-12.6431 -4.67812 5.88588 -0.0220906 -0.312529 0.162576 -0.25208 6.13452 -0.0594895 2.25249 -0.562668 0.507152 0.652841
-8.771 -5.32425 8.028 -0.0419467 -0.217063 0 -0.155556 6.14925 -0.086949 3.61411 0.343575 -0.856788 0.384539
-14.8453 -3.09875 7.2685 -0.106071 0.113365 0 -0.0888889 6.20613 0.173275 1.83136 0.063646 -0.38891 -0.919075
-17.0045 -6.579 13.7055 0.209189 0.0256958 0.0484967 -0.177778 6.21441 0.0532711 0.452642 -0.372483 -0.798344 -0.473185
-12.9963 -10.7945 12.6664 -0.0510023 -0.302079 0.0462799 -0.793793 6.22653 -0.562432 5.96677 0.319079 0.427744 -0.845709
-13.7907 -2.59575 7.293 -0.043938 0.176151 0 -0.0888889 6.32106 -0.242704 2.25249 -0.0844454 0.0670477 -0.99417
-10.486 -11.3888 12.7402 -0.537483 -0.192347 -0.133567 -0.777778 6.34372 0.266172 5.29384 0.450092 -0.105326 -0.886749
-6.354 -6.115 11.122 -0.412697 0.244183 -0.978299 -0.777778 6.34469 0.246731 4.10599 -0.0415489 0.60929 -0.791858
-16.0777 -3.76875 8.203 0.0361967 -0.195415 0 -0.0888889 6.43295 -0.514211 1.56855 0.711117 -0.702398 -0.0308115
-11.7086 -11.227 12.6416 -0.43896 -0.280802 -0.835421 -0.777778 6.482 -0.400173 5.29384 0.155044 0.504703 -0.849256
-16.9587 -9.418 13.788 0.235878 -0.220082 0 -0.866667 6.50277 0.382773 6.2772 -0.698075 0.434666 -0.568996
-12.3745 -3.36175 7.0435 0.259066 0.256979 0.820334 -0.0888889 6.55256 -0.0846172 2.25249 0.00283395 0.46792 -0.883766
-14.5136 -10.6986 12.1084 0.0093171 -0.288925 -0.611101 -0.794638 6.56357 0.104646 5.96677 -0.118791 0.560971 -0.819268
-15.3629 -10.7626 12.8304 0.136983 -0.270691 -0.394883 -0.790553 6.59425 -0.999862 6.2772 -0.332311 0.671036 -0.662782
-7.5055 -4.67975 12.1485 -0.334287 0.333386 0 -0.777778 6.6337 -0.147937 4.10599 0.960251 0.272999 0.0582141
-6.6155 -8.35525 10.6219 -0.427657 -0.13546 0 -0.777778 6.77 0.566945 4.38153 -0.386293 -0.101068 -0.916822
-16.8458 -10.3915 13.2823 0.230086 -0.257548 0 -0.901769 6.78017 -0.277064 6.2772 -0.0914488 0.806767 -0.58375
-7.4305 -3.96725 9.99225 -0.231811 0.200939 0 -0.0888889 6.79391 -0.0393035 4.09544 0.787945 -0.604228 -0.118537
-7.027 -3.47463 10.7847 -0.283751 0.239217 0 -0.0888889 6.82834 0.461161 4.09544 0.95162 -0.28808 0.10691
-7.71931 -4.28869 8.27731 -0.13222 0.226273 0 -0.0993076 6.8506 -0.0666502 3.61411 0.771305 -0.555214 0.311169
-18.333 -6.3345 12.108 0.091576 -0.165162 -0.120039 -0.0912609 6.8945 0.282037 0.921525 0.250826 -0.908366 0.3346
-11.1761 -5.69637 5.8395 0.153615 -0.179211 -0.385073 -0.155556 6.92897 -0.384973 2.92244 -0.38488 -0.784112 0.486863
-16.891 -8.604 14.5685 0.296941 0.216128 0 -0.866667 6.93397 -0.637084 0.299465 -0.911108 0.276913 -0.30529
-8.68256 -6.43162 6.51638 -0.0343693 -0.20151 0 -0.155556 7.00803 0.146625 3.11357 -0.0584446 -0.72846 0.682591
-13.5205 -4.28575 6.30813 -0.0468763 -0.306753 0.712136 -0.0888889 7.18432 0.810863 2.25249 -0.0219807 -0.0487423 0.998569
-6.13312 -5.95138 12.5459 -0.331803 0.300639 0 -0.777778 7.19247 0.194915 4.10599 0.612155 0.790273 0.0270841
-17.0427 -5.50575 8.13175 0.139628 -0.232006 0.0189671 -0.0888889 7.21332 -0.731275 1.34525 0.914394 -0.404824 0.000975317
-17.8043 -6.68175 10.2825 0.213745 -0.19315 0 -0.0888889 7.22414 0.461547 0.921525 0.530315 -0.818463 0.221099
-17.4675 -6.8385 8.893 0.0557223 -0.202081 0 -0.0888889 7.33897 0.738786 1.34525 0.745376 -0.6652 0.0438689
-8.79275 -11.3438 13.9897 -0.174024 -0.104403 -0.196536 -0.888956 7.35256 -0.943984 4.99569 0.194507 -0.423554 -0.884742
-15.773 -3.4955 6.645 -0.114715 -0.211004 0 -0.151249 7.39221 -0.0697984 1.83136 0.923786 -0.380056 0.0466609
-17.0825 -7.7875 15.585 0.30018 0.147265 0 -0.191002 7.40947 -0.858649 0.299465 -0.834138 -0.0571497 -0.548587
-12.6915 -2.2385 7.26463 0.0331868 0.2004 0.0298436 -0.0888889 7.47721 0.230133 2.25249 0.235183 0.158478 -0.958944
-7.6325 -10.8682 13.6713 0.036259 -0.046803 0.490042 -0.995589 7.49245 -0.999878 4.99569 -0.285211 -0.591521 -0.75416
-14.9106 -1.80275 7.49563 -0.306126 0.161536 0 -0.0888889 7.5235 -0.551079 2.25249 -0.00256586 0.0953149 -0.995444
-19.1028 -6.053 12.8455 0.0926913 -0.126664 -0.218172 -0.149494 7.59529 -0.584342 0.759253 0.136644 -0.958058 0.251901
-7.29313 -10.458 12.7794 -0.092495 -0.0141993 0 -0.777778 7.60335 -0.223863 4.67105 -0.312423 -0.761019 -0.568543
-11.244 -12.127 12.0522 -0.109208 -0.245546 0 -0.777778 7.6058 0.314558 5.29384 0.665982 0.292855 -0.686079
-13.5662 -1.33525 7.15225 -0.2458 0.155394 0 -0.0888889 7.60911 0.857317 2.25249 -0.012148 0.0802792 -0.996698
-9.58838 -7.17572 5.35656 -0.0720867 -0.161053 0 -0.155556 7.62813 0.200363 3.11357 -0.517527 -0.689232 0.507076
-10.6545 -6.58 5.099 -0.231375 -0.147673 -0.785561 -0.155556 7.67615 0.0986189 3.11357 -0.376602 -0.822101 0.426991
-11.3306 -3.17412 7.44688 0.137136 0.276714 0.103752 -0.0888889 7.68731 -0.73938 2.25249 0.104171 0.534159 -0.838941
-11.6453 -4.60388 4.67525 -0.111387 0.260235 -0.441202 -0.155556 7.70511 -0.624341 2.25249 -0.344569 0.936217 -0.0690706
-5.00675 -6.24775 11.2708 -0.844943 0.25354 0 -0.777778 7.70662 0.999873 4.10599 0.509801 0.844232 -0.165457
-11.422 -3.9135 6.5525 0.0452527 0.305028 0.661268 -0.122222 7.722 -0.403491 2.25249 -0.16872 0.857403 -0.486204
-10.7312 -12.692 13.1929 -0.33857 -0.179979 0 -0.777778 7.74493 -0.782297 5.29384 0.79296 -0.188557 -0.579363
-16.4112 -4.2905 7.04475 -0.010762 -0.225542 0.812023 -0.0888889 7.74634 -0.628653 1.56855 0.838796 -0.44615 0.312044
-15.9136 -1.95187 7.181 -0.292536 0.1823 0 -0.0888889 7.77593 -0.591677 1.83136 0.618773 0.102756 -0.77882
-18.6523 -6.01937 14.132 0.176105 -0.064294 0 0.0998822 7.77833 -0.501133 0.759253 0.0278223 -0.975824 -0.216778
-15.234 -11.3053 11.3237 -0.52401 -0.300643 -0.342352 -0.777778 7.78946 0.190645 5.96677 -0.100538 0.894178 -0.436278
-12.6186 -4.56244 4.20325 -0.116365 0.264053 0 -0.288889 7.8213 -0.571016 2.25249 0.34752 0.929517 0.123401
-7.5365 -5.956 7.0925 -0.117358 -0.208369 0 -0.155556 7.82205 0.628585 3.11357 0.323885 -0.657443 0.680343
-19.261 -6.84125 11.6965 -0.243992 -0.153308 0 -0.0888889 7.84713 0.277998 0.921525 0.368084 -0.864345 0.342669
-7.252 -3.699 7.61825 -0.162745 0.219531 0 -0.11447 7.85084 -0.443783 3.61411 0.898046 -0.309276 0.312827
-6.201 -9.53975 10.9015 -0.306467 -0.0506325 0 -0.777778 7.90066 0.628321 4.67105 -0.254556 -0.574097 -0.778212
-14.386 -5.0025 5.6365 0.057943 -0.234232 0 -0.288889 7.9248 -0.0728844 2.25249 0.0248452 -0.484975 0.874175
-8.0345 -3.90162 13.0639 -0.34589 0.304782 0 -0.403296 7.94643 -0.999898 4.10599 0.984298 0.122821 -0.126778
-5.416 -6.9125 10.082 -0.620177 0.192778 -0.0815572 -0.777778 7.95635 0.999904 4.10599 0.141799 0.437045 -0.888192
-17.911 -6.2715 15.196 0.204766 0.026711 0 1 7.98582 -0.999889 0.299465 -0.413333 -0.739608 -0.531165
-12.2754 -6.3125 4.96178 0.037571 -0.20148 -0.160366 -0.263116 8.04773 0.0607669 2.92244 -0.0471689 -0.667561 0.743059
-8.4545 -7.223 5.8615 -0.036253 -0.206779 0 -0.155556 8.06025 0.169479 3.11357 0.0630318 -0.565168 0.822565
-14.434 -3.972 5.968 -0.105477 -0.317051 0 -0.288889 8.06135 0.249956 1.83136 0.435753 0.731254 0.524773
-6.0475 -10.2502 11.8706 -0.425407 0.00777835 -0.0698766 -0.777778 8.07326 -0.0632294 4.67105 -0.220518 -0.792602 -0.568467
-13.759 -3.865 4.518 -0.180889 0.26425 0 -0.288889 8.0781 0.457533 2.25249 0.378846 0.906421 0.186753
-13.8022 -6.02612 5.05288 -0.0323285 -0.225011 0 -0.288889 8.09781 -0.344842 2.25249 -0.0436382 -0.470329 0.881412
-5.3985 -8.935 10.466 -0.507123 0.0934101 -0.0242467 -0.777778 8.12702 0.563827 4.38153 0.0789629 -0.355943 -0.931166
-17.4824 -9.63325 15.3156 0.240497 -0.192056 0 -0.866667 8.13192 -0.876771 0.299465 -0.740196 0.487666 -0.462917
-16.3521 -11.4514 11.8585 -0.0251259 -0.269544 0 -0.892942 8.14266 -0.62583 6.2772 0.0602094 0.903033 -0.42533
-13.0511 -12.0589 11.1349 -0.266539 -0.270936 0 -0.777778 8.21328 0.257586 5.96677 0.334992 0.609531 -0.718507
-18.04 -10.3495 12.4425 0.180204 -0.252106 0 -1 8.24069 0.790245 6.2772 -0.0188837 0.93446 -0.355567
-5.6815 -6.7075 13.118 -0.419483 0.277566 0 -0.777778 8.2427 -0.556046 4.10599 0.7286 0.643848 0.233669
-16.9635 -5.543 7.033 -0.11205 -0.231178 0.573641 -0.0888889 8.31555 -0.596404 1.34525 0.878562 -0.357826 0.316369
-6.9755 -2.03525 11.1763 -0.53962 0.207075 0 -0.0888889 8.32093 -0.424177 4.09544 0.903387 -0.378578 0.201422
-18.3009 -10.4878 14.4353 0.217073 -0.220814 0 -1 8.33715 -0.36447 6.2772 -0.351694 0.898683 -0.262068
-9.33337 -12.2767 14.1205 -0.278701 -0.123846 -0.396131 -0.777778 8.34925 -0.650019 4.99569 0.303109 -0.244857 -0.920962
-17.2897 -10.9758 11.8864 0.274118 -0.262865 0 -1 8.35719 0.0577259 6.2772 0.307248 0.871201 -0.382894
-17.37 -6.47 7.5005 -0.192306 -0.204158 -0.747237 -0.695038 8.4114 0.15415 1.34525 0.832502 -0.537503 0.13428
-17.8437 -7.97316 16.2629 0.254598 -0.0956847 0 0.717809 8.44554 -0.731524 0.299465 -0.424628 -0.21275 -0.880016
-5.0105 -7.93713 10.1431 -0.610397 0.128208 -0.265368 -0.777778 8.4963 0.819817 4.38153 0.313492 -0.138305 -0.939465
-7.59244 -11.8614 13.9519 0.163901 -0.115345 0.944132 -1 8.5253 -0.776902 4.99569 -0.370217 -0.0339792 -0.928324
-18.6239 -7.34106 8.705 0.0570087 -0.149407 0 -0.0888889 8.6138 0.0479925 0.921525 0.53879 -0.830792 0.139607
-6.53719 -2.45744 9.39231 -0.179417 0.187747 0 -0.0888889 8.62092 0.0662155 4.09544 0.847407 -0.482975 0.220538
-16.5045 -2.70075 6.00325 -0.242911 0.222079 0 -0.0888889 8.64862 -0.280207 1.83136 0.742702 0.574164 -0.344571
-11.1847 -6.68075 4.23925 -0.0631667 -0.150262 -0.288505 -0.246484 8.69126 -0.683221 3.11357 -0.0615404 -0.835508 0.546021
-15.8263 -4.70075 6.05 -0.0799593 -0.237334 0 -0.288889 8.73739 -0.469468 1.83136 0.445854 -0.386268 0.807472
-20.213 -6.25775 13.0215 0.18907 -0.126775 0 -0.80846 8.73785 -0.856385 0.921525 0.370986 -0.88433 0.283425
-6.73138 -5.40644 14.0201 -0.254694 0.276801 0 -0.777778 8.78549 -0.369888 4.10599 0.83643 0.505617 -0.211507
-6.65863 -4.65394 6.68906 -0.195179 0.218896 0 -0.155556 8.79508 0.490303 3.61411 0.800897 -0.162584 0.576308
-6.41062 -11.2571 12.966 -0.00894547 -0.0712022 0 -0.923287 8.80842 -0.0763923 4.67105 -0.359795 -0.377846 -0.8531
-7.6525 -2.56888 12.6812 -0.423353 0.224632 0 -0.283502 8.8157 -0.765651 4.09544 0.916298 -0.38812 0.0988016
-11.7505 -12.7638 11.138 -0.053411 -0.201028 0 -0.777778 8.82965 0.999888 5.29384 0.546991 0.154282 -0.822799
-10.554 -3.77 5.878 0.219659 0.286051 0.591795 -0.155556 8.83059 0.0822923 2.25249 -0.292152 0.949918 -0.110922
-15.452 -0.5805 7.51525 -0.61469 0.130321 -0.0869372 -0.423624 8.86044 -0.759473 2.25249 0.465199 -0.210351 -0.859851
-11.4115 -2.094 7.95725 0.110277 0.211954 0.411331 -0.0888889 8.88467 -0.791854 2.25249 0.229925 0.169724 -0.958294
-16.6407 -1.46219 6.47369 -0.342837 0.148808 0 -0.0888889 8.90231 -0.446977 1.83136 0.652655 -0.0343063 -0.756878
-19.3347 -7.254 9.89163 0.152654 -0.154175 0.287924 -0.63516 8.90414 -0.651943 0.921525 0.48933 -0.816662 0.305973
-10.1385 -3.37 7.203 0.128498 0.284589 0.766552 -0.123149 8.91976 -0.614324 2.25249 -0.168293 0.772069 -0.612851
-6.827 -6.381 6.055 -0.162172 -0.184823 0 -0.155556 8.92076 0.287709 3.11357 0.458249 -0.574756 0.677985
-12.2655 -0.875687 7.56431 -0.164446 0.167168 0 -0.0888889 8.93616 0.0883847 2.25249 0.187454 0.110914 -0.975991
-14.9095 -11.794 10.3015 -0.38135 -0.239837 -0.0268627 -0.777778 8.96803 0.773584 5.96677 0.13334 0.56375 -0.815111
-10.1165 -13.3935 14.048 -0.266568 -0.147242 0 -0.777778 9.01029 -0.77602 4.99569 0.385576 0.0616912 -0.920611
-11.0767 -13.8383 12.7755 -0.120711 -0.169558 0 -0.777778 9.01284 0.126826 5.29384 0.819549 -0.0684307 -0.568909
-10.3134 -7.12587 3.87275 -0.00160485 -0.13058 0 -0.155556 9.06108 -0.618643 3.11357 -0.326932 -0.806915 0.491938
-6.4365 -2.47325 8.14738 -0.191343 0.142436 0.101381 -0.270744 9.07733 -0.539866 3.61411 0.672468 -0.735167 0.0855358
-7.594 -3.0975 13.7507 -0.63226 0.202754 0 -0.777778 9.09201 -0.772884 4.10599 0.834951 -0.161957 -0.525953
-11.4605 -13.5615 11.6944 -0.0795003 -0.160923 0 -0.777778 9.10001 0.999811 5.29384 0.788617 -0.285382 -0.544646
-9.1585 -7.92775 4.10825 -0.00840667 -0.128735 0 -0.155556 9.14755 -0.467475 3.11357 -0.824761 -0.491524 0.279595
-6.71375 -2.89488 6.73688 -0.180739 0.181093 0.285931 -0.559582 9.15971 -0.999873 3.61411 0.760794 -0.448543 0.469043
-18.7805 -6.90188 15.6709 0.205645 -0.0545834 0 1 9.1601 -0.444014 0.299465 0.146899 -0.741063 -0.655169
-4.095 -7.37775 11.1405 -0.562967 0.194836 -0.669121 -0.777778 9.16441 0.779532 4.10599 0.872241 0.339314 -0.352223
-13.456 -6.9735 4.6405 0.0106169 -0.187721 0 -0.288889 9.18751 0.669452 2.92244 -0.0476966 -0.673293 0.737836
-8.65356 -8.44756 5.52819 0.36932 -0.232746 0 -0.866667 9.21587 0.117996 3.11357 -0.54031 0.131029 0.831202
-19.2892 -10.6217 13.267 0.17298 -0.209302 0 -1 9.23443 0.330198 6.2772 -0.334676 0.910521 -0.242781
-13.884 -3.6015 3.3775 -0.36105 0.225893 0 -0.288889 9.2553 0.520409 2.25249 0.416628 0.904626 0.0898459
-14.8775 -6.392 4.7815 -0.0877703 -0.17332 0 -0.288889 9.26562 0.139323 2.25249 -0.0701895 -0.726398 0.68368
-4.28263 -7.2965 12.172 -0.64511 0.235387 -0.0793083 -0.777778 9.26751 0.821072 4.10599 0.734921 0.593539 0.328029
-14.2193 0.148031 7.53344 -0.511603 0.129288 0 -0.138524 9.27404 -0.276036 2.25249 0.311068 -0.0897668 -0.946139
-18.4643 -7.255 7.23925 -0.370103 -0.138996 -0.530836 -0.632871 9.31431 -0.443081 1.34525 0.51067 -0.841295 0.17731
-11.9806 -4.509 2.84575 -0.113418 -0.224363 0.182902 -0.288889 9.3222 -0.951426 2.25249 -0.102244 0.924185 0.368005
-18.4521 -10.3144 15.4754 0.193447 -0.201511 0 -0.944124 9.32767 -0.902786 0.299465 -0.275903 0.864479 -0.420183
-10.862 -4.18275 3.26312 0.0658053 -0.208155 0.497328 -0.172978 9.37394 -0.99984 2.25249 -0.634458 0.720267 0.280495
-4.81225 -10.0763 11.088 -0.543703 0.0594272 -0.0406313 -0.777778 9.40109 0.999882 4.67105 0.171168 -0.65328 -0.737514
-16.3331 -11.9799 10.336 0.035176 -0.22133 -0.599444 -0.798871 9.41386 0.0823546 5.96677 0.25465 0.623967 -0.738795
-19.324 -10.4045 14.811 0.166069 -0.207537 0 -1 9.43023 -0.157377 6.2772 0.125617 0.949726 -0.286775
-20.79 -7.24388 12.0931 0.140248 -0.134205 0 -0.610956 9.47723 -0.22274 0.921525 0.580424 -0.770568 0.263312
-20.324 -6.3865 14.3372 0.221022 -0.0916713 0 1 9.50213 -0.999791 0.759253 0.499942 -0.811387 -0.302835
-7.161 -7.0105 5.2475 -0.121971 -0.186484 0 -0.155556 9.50776 -0.99988 3.11357 0.205689 -0.463993 0.861628
-10.1895 -1.7585 7.98 0.158135 0.18696 0.777804 -0.092332 9.58212 -0.430465 2.25249 -0.0498677 0.218223 -0.974624
-8.76912 -13.3918 14.2046 0.0184744 -0.134702 0 -1 9.6018 -0.796202 4.99569 -0.175225 0.221379 -0.959316
-18.9442 -11.0352 11.6637 0.331355 -0.206729 0 -1 9.61703 0.380992 6.2772 -0.371316 0.846535 -0.381449
-5.858 -6.63688 14.485 -0.254426 0.244771 0.138906 -0.777778 9.62286 -0.72137 4.10599 0.752469 0.608094 -0.253006
-20.3315 -7.74131 10.5953 0.199796 -0.144965 0.0211574 -0.577367 9.62722 -0.0744587 0.921525 0.524645 -0.768145 0.367016
-10.1889 -3.48463 4.00612 0.107674 -0.214305 -0.170617 -0.155556 9.65999 -0.107215 2.25249 -0.656422 0.716445 0.236254
-13.9409 -12.787 10.2555 -0.370037 -0.172771 0 -0.777778 9.66077 0.999792 5.96677 0.321426 0.100952 -0.941538
-14.8431 -3.23612 3.4615 -0.496063 0.221742 -0.0170664 -0.288889 9.71729 0.283203 2.25249 0.386307 0.900109 0.20142
-4.86281 -7.805 13.7131 -0.31191 0.230125 0 -0.777778 9.73565 0.0383045 4.10599 0.878513 0.429047 0.210082
-10.5662 -14.6614 13.4996 -0.0944873 -0.155467 0 -0.777778 9.74488 -0.607692 5.29384 0.587418 0.223629 -0.777773
-16.0704 -5.72713 5.64337 -0.140468 -0.211464 -0.360001 -0.537833 9.75847 -0.0838047 1.83136 0.544413 -0.522051 0.656565
-6.217 -0.75975 10.618 -0.70724 0.137941 -0.0534961 -0.0888889 9.90647 -0.892428 4.09544 0.708903 -0.697689 0.103375
-6.94863 -4.41663 14.5098 -0.37217 0.198792 0 -0.777778 9.91098 -0.446097 4.10599 0.792553 -0.0417099 -0.608375
-3.89375 -9.14125 11.4122 -0.694143 0.132464 -0.815247 -0.777778 9.91646 0.708917 4.38153 0.768732 -0.228927 -0.597197
-4.20625 -10.4231 11.9146 -0.654493 0.0880261 -0.1982 -0.777778 9.92314 0.790879 4.67105 0.539401 -0.735785 -0.409471
-9.5725 -3.5915 5.43 0.176758 0.257703 0.0105221 -0.155556 9.92417 -0.63216 2.25249 -0.464457 0.867772 0.17678
-17.3774 -1.5455 5.76562 -0.288092 0.16003 0 -0.0888889 9.92751 -0.323729 1.83136 0.666004 0.274949 -0.693428
-6.31825 -1.129 12.3624 -0.50054 0.0995837 -0.305577 -0.504196 9.95191 -0.537706 4.09544 0.516719 -0.806562 -0.287158
-17.048 -7.02975 6.08975 -0.476217 -0.182424 0 -0.777778 9.96292 0.635334 1.34525 0.706083 -0.625624 0.331724
-16.8978 -2.712 4.73 -0.461127 0.212411 -0.314812 -0.178804 9.98128 -0.161105 1.83136 0.508377 0.854592 -0.105947
-11.6713 -7.65574 3.5117 0.0416587 -0.162799 0 -0.288889 10.0015 0.216586 3.11357 0.0991495 -0.684262 0.722465
-18.8542 -9.37125 16.6077 0.147958 -0.144061 0 -0.866667 10.0346 -0.774815 0.299465 -0.0286449 0.379911 -0.924579
3 175 136 176
3 71 136 103
3 175 103 136
3 79 78 131
3 146 131 78
3 50 78 79
3 50 79 77
3 127 79 168
3 196 127 168
3 106 188 165
3 115 161 110
3 163 174 124
3 159 176 99
3 99 38 54
3 46 38 71
3 71 103 46
3 71 38 86
3 38 46 20
3 50 20 46
3 19 38 20
3 11 22 27
3 77 97 59
3 106 165 115
3 72 110 91
3 134 91 110
3 161 198 110
3 180 120 126
3 67 61 31
3 120 163 67
3 30 16 31
3 31 47 30
3 20 4 19
3 19 4 7
3 7 4 1
3 27 9 11
3 27 36 9
3 44 25 21
3 43 91 90
3 90 111 74
3 74 111 148
3 111 90 162
3 90 157 162
3 150 173 100
3 126 118 173
3 118 100 173
3 31 35 63
3 100 63 119
3 35 15 26
3 15 16 7
3 6 7 1
3 1 0 6
3 0 1 4
3 5 0 3
3 4 3 0
3 0 5 2
3 24 12 28
3 14 5 8
3 25 34 14
3 52 25 43
3 52 43 102
3 102 43 74
3 70 52 102
3 104 154 70
3 189 195 123
3 189 123 132
3 132 123 69
3 69 140 65
3 76 65 137
3 60 57 88
3 57 125 96
3 57 96 88
3 88 96 156
3 87 48 49
3 32 48 57
3 32 26 17
3 18 6 10
3 24 42 49
3 42 28 58
3 58 66 42
3 23 12 34
3 23 28 12
3 34 12 14
3 66 129 116
3 116 129 191
3 160 191 129
3 166 94 76
3 94 58 76
3 121 137 181
3 113 192 139
3 49 105 113
3 105 49 66
3 66 49 42
3 113 105 172
3 105 116 172
3 116 191 172
3 69 68 132
3 132 68 70
3 142 183 93
3 183 171 93
3 89 167 149
3 62 83 92
3 93 95 142
3 92 95 62
3 133 197 194
3 133 145 98
3 82 73 117
3 136 99 176
3 86 99 136
3 86 136 71
3 182 103 175
3 146 103 182
3 122 77 127
3 122 127 196
3 127 77 79
3 97 122 188
3 97 188 135
3 135 188 106
3 196 188 122
3 67 163 124
3 61 67 124
3 61 124 117
3 61 117 73
3 170 124 174
3 124 170 117
3 170 199 117
3 199 128 117
3 54 47 109
3 99 54 109
3 99 109 159
3 159 109 128
3 128 109 82
3 82 109 47
3 82 47 73
3 30 47 33
3 19 33 38
3 54 38 33
3 54 33 47
3 39 20 50
3 22 13 20
3 13 22 11
3 22 20 39
3 40 27 22
3 40 22 37
3 40 37 59
3 59 37 39
3 59 39 77
3 39 37 22
3 50 77 39
3 53 40 81
3 59 81 40
3 106 112 135
3 135 112 81
3 135 81 97
3 97 81 59
3 27 40 53
3 27 53 36
3 75 112 106
3 51 21 36
3 51 75 106
3 110 51 115
3 115 51 106
3 72 51 110
3 90 91 153
3 153 91 134
3 153 134 198
3 157 90 153
3 67 126 120
3 16 30 33
3 16 33 19
3 7 16 19
3 11 3 4
3 11 4 13
3 13 4 20
3 9 3 11
3 44 51 72
3 51 44 21
3 25 44 43
3 43 44 72
3 43 72 91
3 111 177 148
3 162 177 111
3 123 195 140
3 64 100 118
3 64 67 31
3 67 64 118
3 67 118 126
3 63 100 64
3 63 64 31
3 55 119 63
3 55 63 35
3 60 55 26
3 26 55 35
3 6 17 15
3 15 17 26
3 15 7 6
3 0 2 6
3 10 12 24
3 12 2 14
3 2 12 10
3 2 10 6
3 34 25 52
3 90 74 43
3 68 34 70
3 70 34 52
3 104 70 138
3 158 154 104
3 104 138 158
3 45 68 69
3 76 58 41
3 76 41 65
3 65 41 45
3 65 45 69
3 155 137 107
3 137 65 107
3 190 137 155
3 155 107 140
3 65 140 107
3 152 156 96
3 187 96 151
3 179 151 125
3 96 125 151
3 130 179 125
3 80 130 125
3 80 125 57
3 87 84 48
3 57 48 80
3 80 48 84
3 80 84 130
3 29 49 48
3 17 29 48
3 17 48 32
3 6 18 17
3 18 10 24
3 41 23 45
3 23 41 28
3 28 41 58
3 34 68 45
3 34 45 23
3 121 181 186
3 113 139 87
3 113 87 49
3 84 87 139
3 130 84 139
3 18 24 29
3 49 29 24
3 17 18 29
3 183 142 193
3 93 171 169
3 93 169 101
3 98 143 85
3 85 143 167
3 51 112 75
3 62 36 56
3 62 56 83
3 83 144 92
3 92 144 178
3 144 83 149
3 149 178 144
3 142 95 147
3 147 95 92
3 147 92 178
3 62 51 36
3 51 62 95
3 51 95 93
3 93 101 51
3 51 101 114
3 112 51 114
3 197 133 112
3 81 98 53
3 53 98 85
3 133 98 81
3 133 81 112
3 53 85 56
3 53 56 36
3 117 128 82
3 131 168 79
3 165 161 115
3 86 38 99
3 50 46 78
3 146 78 103
3 103 78 46
3 77 122 97
3 163 120 180
3 61 73 47
3 61 47 31
3 31 16 35
3 15 35 16
3 9 21 8
3 9 8 3
3 3 8 5
3 5 14 2
3 9 36 21
3 21 25 8
3 14 8 25
3 102 138 70
3 148 102 74
3 102 148 138
3 140 69 123
3 184 150 119
3 150 100 119
3 55 60 119
3 26 32 60
3 60 32 57
3 28 42 24
3 70 154 132
3 160 94 166
3 160 129 108
3 160 108 94
3 94 108 58
3 108 129 66
3 58 108 66
3 76 137 121
3 156 141 88
3 141 119 88
3 88 119 60
3 96 187 152
3 116 105 66
3 192 172 191
3 113 172 192
3 83 89 149
3 56 89 83
3 101 164 114
3 185 114 164
3 194 145 133
3 56 85 89
3 89 85 167
3 166 76 121
3 166 121 186
3 134 110 198
