ply
format ascii 1.0
comment Generated by PyMesh
element vertex 200
property float x
property float y
property float z
property float charge
property float ddc
property float hbond
property float hphob
property float rho
property float si
property float theta
property float nx
property float ny
property float nz
element face 341
property list uchar int vertex_indices
end_header
-9.89112 -11.1829 4.57394 0.675667 0 0.170995 -0.866667 1e-08 0.169887 2.22045e-16 -0.973998 0.114553 -0.195461
-10.0806 -11.4983 3.35013 0.109291 -0.432281 0.0646085 -0.666942 1.27792 0.114555 2.41565 -0.769016 0.42502 0.477465
-10.3815 -11.1511 5.97144 0.736243 0.0756961 0.611749 -0.866667 1.48138 0.999889 5.34739 -0.964915 0.0792666 0.250313
-9.11263 -9.75525 4.6195 1 0.281092 0 -0.866667 1.62675 -0.254098 0.556921 -0.933577 0.25571 -0.251092
-8.89669 -10.5161 3.43131 0.516163 0.222333 0 -0.773862 1.65503 -0.999879 1.39543 -0.913577 0.395687 0.0938591
-9.67912 -9.828 5.5365 1 0.330626 0 -0.866667 1.67548 0.566714 2.22045e-16 -0.844706 0.531658 -0.0617379
-9.807 -12.265 5.858 0.51646 0.365065 0.181031 -0.866667 1.68132 0.680889 4.6829 -0.824976 -0.551681 0.12273
-9.38725 -12.8335 4.848 0.261744 0.365468 0 -0.866667 1.74742 0.151053 4.07694 -0.81048 -0.573301 0.120201
-9.71031 -13.0597 3.25262 0.0396917 0.292219 0 -0.833313 2.30238 -0.0726139 3.14098 -0.707084 -0.367682 0.604021
-10.9438 -11.9454 2.48863 0.045883 -0.28951 0 -0.355556 2.57685 0.342271 2.49311 -0.640905 -0.00138704 0.767619
-10.8208 -10.8594 2.16681 0.0895403 -0.365885 0 -0.355556 2.81296 -0.0928604 2.13558 -0.413652 0.338139 0.845313
-9.25097 -12.0777 6.85331 0.759213 0.318216 0 -0.866667 2.83669 0.612397 4.94707 -0.607147 -0.474329 0.637483
-8.80281 -13.2723 5.667 0.38278 0.322682 0 -0.866667 2.84509 0.508581 4.4155 -0.639472 -0.706714 0.302706
-9.57681 -10.5227 2.19225 0.299001 -0.37362 0 -0.355556 2.87363 -0.999884 1.80505 -0.438988 0.449204 0.778142
-8.74325 -9.3785 6.50688 1 0.419186 0 -0.866667 3.09658 0.368508 6.02933 -0.152172 0.78737 0.597405
-8.87138 -8.798 3.43712 -0.037866 -0.127573 0.16597 -0.323193 3.16706 -0.75587 1.01669 -0.92395 -0.306882 0.22834
-8.65356 -8.44756 5.52819 0.36932 0.260916 0 -0.866667 3.28401 0.117996 0.185013 -0.54031 0.131029 0.831202
-9.34175 -10.4634 7.45062 0.734227 0.255119 0.392256 -0.866667 3.4158 0.999891 5.521 -0.586877 0.217069 0.780036
-8.28063 -14.0825 4.70181 0.174915 0.23121 0 -0.866667 3.42253 0.261098 4.07358 -0.708423 -0.671952 0.215911
-9.1585 -7.92775 4.10825 -0.00840667 -0.169468 0 -0.155556 3.52497 -0.467475 0.669932 -0.824761 -0.491524 0.279595
-9.47269 -9.347 2.07006 0.115462 -0.252314 -0.104479 -0.155556 3.53959 -0.999883 1.49617 -0.585631 -0.194416 0.786917
-9.34425 -14.1388 2.64025 -0.0461603 0.314153 -0.0753447 -0.839569 3.596 -0.391624 3.15207 -0.280639 -0.567381 0.774158
-8.60675 -14.0155 3.51813 0.0800663 0.246187 0 -0.866667 3.69032 -0.404599 3.53575 -0.657029 -0.67278 0.340119
-8.84525 -11.3252 7.58425 0.772837 0.372737 0.20351 -0.866667 3.96148 0.741024 5.24787 -0.155862 -0.143209 0.977342
-11.2778 -9.7615 1.923 0.0607507 -0.366896 0 -0.353153 4.02691 -0.191157 1.82861 -0.130573 -0.245443 0.960577
-11.1666 -13.36 1.94488 -0.206042 -0.194705 -0.177078 -0.559371 4.10864 -0.164661 2.69711 -0.642007 0.00878114 0.766649
-10.5295 -14.4611 2.446 -0.392247 -0.300154 -0.200748 -0.777778 4.11501 0.222943 2.96384 -0.158595 -0.177155 0.971321
-8.00075 -10.0413 7.45125 0.626277 0.409793 0.474991 -0.866667 4.4686 0.999899 5.6756 0.249761 0.506844 0.825063
-7.75362 -13.5154 6.91388 0.178504 0.336793 0 -0.866667 4.49269 0.891283 4.6966 -0.0419651 -0.687028 0.725418
-7.499 -8.635 5.097 0.33105 0.389376 0.778693 -0.866667 4.53063 -0.999859 6.2532 0.0999293 0.324846 0.940473
-8.4545 -7.223 5.8615 -0.036253 0.315028 0 -0.155556 4.56864 0.169479 0.297525 0.0630318 -0.565168 0.822565
-7.59062 -12.3855 7.4225 0.373997 0.355928 0 -0.866667 4.61868 0.694469 5.02762 0.0702084 -0.305577 0.949576
-8.72325 -14.8822 2.22825 -0.067733 0.226629 0 -0.866667 4.64863 -0.999887 3.15245 -0.367816 -0.397812 0.84051
-7.371 -14.4086 5.5775 0.113653 0.285116 0 -0.866667 4.67519 0.354953 4.33634 -0.213611 -0.732018 0.646931
-7.87456 -14.7936 3.23938 0.0651227 0.163918 0 -0.866667 4.79451 -0.999826 3.571 -0.721361 -0.578884 0.380172
-12.6357 -10.976 1.2865 0.0285353 -0.244809 0.194629 -0.313749 4.83346 0.048763 3.16129 -0.332237 -0.297189 0.895152
-9.58838 -7.17572 5.35656 -0.0720867 -0.229312 0 -0.155556 4.87175 0.200363 0.473182 -0.517527 -0.689232 0.507076
-7.1575 -10.2837 6.68875 0.765713 0.441277 0 -0.866667 4.93154 -0.157604 5.69592 0.372848 0.619931 0.690413
-10.3134 -7.12587 3.87275 -0.00160485 -0.272487 0 -0.155556 4.95054 -0.618643 0.829735 -0.326932 -0.806915 0.491938
-10.3341 -8.12113 2.65438 -0.0294602 -0.324629 -0.00627541 -0.193656 4.95881 -0.738405 1.17827 -0.224374 -0.661735 0.715376
-9.652 -15.5778 2.06512 -0.341683 -0.244672 -0.95041 -0.777778 5.17594 -0.296428 3.02405 -0.0938674 -0.16343 0.982079
-12.0726 -8.92737 2.13425 0.123345 -0.293892 0 -0.288889 5.19828 -0.302842 3.71517 -0.233982 -0.619553 0.749271
-7.36434 -15.4719 4.05644 0.0355127 0.132889 0 -0.866667 5.20761 0.157751 3.59987 -0.729507 -0.453399 0.512102
-6.721 -9.4495 5.7075 0.267663 0.352949 -0.130503 -0.690547 5.27225 -0.36401 5.95772 0.0395619 0.537671 0.842226
-7.161 -7.0105 5.2475 -0.121971 0.293981 0 -0.155556 5.37486 -0.99988 0.168791 0.205689 -0.463993 0.861628
-11.8285 -14.8422 2.27575 -0.596817 -0.168736 -0.796777 -0.777778 5.47942 0.999877 2.9185 -0.562395 0.0785847 0.823126
-8.68256 -6.43162 6.51638 -0.0343693 -0.250129 0 -0.155556 5.62085 0.146625 0.399919 -0.0584446 -0.72846 0.682591
-10.993 -15.9369 2.16075 -0.81503 0.225 0 -0.777778 5.68797 0.72301 2.97337 -0.135007 -0.419602 0.897612
-6.78912 -11.4445 7.18512 0.434837 0.394428 0 -0.866667 5.87734 0.521498 5.36519 0.426901 0.1304 0.894847
-11.1847 -6.68075 4.23925 -0.0631667 -0.2843 -0.288505 -0.246484 5.99535 -0.683221 0.450503 -0.0615404 -0.835508 0.546021
-7.83512 -15.8796 2.55012 -0.005453 -0.12035 0 -0.851249 6.02238 -0.99988 3.571 -0.678985 0.00739079 0.734115
-12.3632 -13.6067 0.43875 -0.298596 -0.113971 -0.152735 -0.50512 6.04801 -0.892158 2.69711 -0.711883 0.16999 0.681414
-10.6545 -6.58 5.099 -0.231375 -0.232738 -0.785561 -0.155556 6.11988 0.0986189 0.450503 -0.376602 -0.822101 0.426991
-6.14475 -12.4715 6.67188 0.321329 0.373281 0 -0.866667 6.25005 0.603308 5.36519 0.509545 -0.342573 0.789308
-5.8845 -9.827 6.15375 -0.11962 0.262097 -0.0195851 -0.288889 6.29273 -0.0303628 5.95772 -0.151958 0.40193 0.902973
-12.842 -9.32 1.4325 0.140183 -0.29129 0.265833 -0.234662 6.3112 -0.999898 3.71517 0.0538043 -0.417686 0.906997
-6.32175 -15.5035 4.7615 0.0603403 0.216566 0 -0.866667 6.39728 0.216985 3.59987 -0.155353 -0.47831 0.86434
-6.13163 -13.2419 5.89725 0.39204 0.361869 0 -0.866667 6.40709 -0.357331 4.33634 0.410335 -0.537717 0.736536
-6.827 -6.381 6.055 -0.162172 0.281768 0 -0.155556 6.41123 0.287709 0.168791 0.458249 -0.574756 0.677985
-6.108 -7.0885 5.339 -0.215195 0.294756 -0.347611 -0.209033 6.4347 0.375755 0.168791 0.505765 -0.0733662 0.859546
-12.9858 -12.0465 0.13025 -0.0243517 -0.1965 0 -0.355556 6.4476 -0.70814 3.16129 -0.325269 -0.508098 0.797519
-11.6713 -7.65574 3.5117 0.0416587 -0.348765 0 -0.288889 6.45221 0.216586 0.450503 0.0991495 -0.684262 0.722465
-14.2536 -11.1819 1.20875 0.104943 -0.271101 0.516573 -0.155556 6.46626 -0.104086 3.16129 0.193527 -0.691729 0.695743
-10.0239 -16.8423 1.71088 -0.222828 0.145129 -0.408629 -0.777778 6.54077 -0.173199 3.02405 -0.473723 -0.328313 0.817189
-5.88919 -8.47812 5.37075 -0.39936 0.290202 -0.912138 -0.288889 6.59471 -0.22549 5.95772 0.147833 0.640262 0.753797
-6.51888 -16.5816 4.089 0.0519687 0.153015 0 -0.777778 6.60306 -0.266048 3.59987 -0.392084 -0.0188769 0.919736
-12.4978 -15.0938 1.38925 -0.647353 -0.103979 -0.315268 -0.777778 6.61835 0.179498 2.9185 -0.729614 0.156261 0.665767
-12.5632 -8.0855 3.22875 0.0449793 -0.304222 0 -0.288889 6.66367 0.492839 3.71517 -0.084792 -0.792755 0.603614
-5.70138 -11.2166 6.52112 0.120924 0.336994 0 -0.866667 6.66898 0.0809855 5.36519 0.357475 0.087021 0.92986
-13.6023 -8.52875 2.33363 0.0297721 -0.271103 0 -0.288889 6.79159 -0.301481 3.71517 0.035108 -0.659049 0.75128
-7.54525 -16.9387 3.44025 -0.0783123 -0.10372 -0.611731 -0.777778 6.80883 -0.169148 3.59987 -0.681159 0.206113 0.702523
-9.86438 -5.89712 6.79975 0.11479 -0.214611 0 -0.155556 6.81952 -0.210574 0.399919 -0.219346 -0.885478 0.409654
-11.1015 -16.791 1.325 -0.445653 0.169402 0 -0.777778 6.88786 0.545085 2.97337 -0.309769 -0.687469 0.656833
-7.5365 -5.956 7.0925 -0.117358 0.252033 0 -0.155556 6.98891 0.628585 0.399919 0.323885 -0.657443 0.680343
-8.548 -16.9354 2.59675 -0.263726 -0.136262 0 -0.777778 7.00474 -0.265914 3.02405 -0.516542 0.358231 0.777725
-12.222 -16.1385 1.47275 -0.384497 -0.142242 -0.0114672 -0.777778 7.05424 0.558085 2.97337 -0.514624 -0.44663 0.731904
-5.01606 -13.8609 5.32062 0.0706267 0.22669 0 -0.866667 7.10659 -0.377712 4.33634 -0.0600732 -0.273306 0.96005
-14.21 -9.5545 2.14062 0.252646 -0.297144 0.170616 -0.155556 7.12007 0.0372185 3.16129 0.329138 -0.270365 0.904749
-12.2754 -6.3125 4.96178 0.037571 -0.242591 -0.160366 -0.263116 7.3545 0.0607669 0.450503 -0.0471689 -0.667561 0.743059
-11.1761 -5.69637 5.8395 0.153615 -0.186248 -0.385073 -0.155556 7.38527 -0.384973 0.450503 -0.38488 -0.784112 0.486863
-5.3855 -15.91 4.645 -0.0467453 0.165015 0 -0.866667 7.42459 -0.457791 3.59987 -0.298078 -0.272191 0.914911
-6.16512 -6.86163 4.35112 -0.245605 0.336407 0 -0.252573 7.44991 -0.807917 0.168791 0.916988 0.10264 0.385484
-4.847 -10.291 6.45038 0.037914 0.241261 0 -0.288889 7.46733 0.301707 5.95772 0.00957401 -0.100793 0.994861
-13.277 -15.264 0.7645 -0.525217 -0.116803 -0.750448 -0.777778 7.63148 0.276461 2.9185 -0.592958 0.165798 0.787979
-6.082 -5.856 5.234 -0.251662 0.280816 0 -0.155556 7.63789 -0.113728 0.168791 0.775231 -0.39143 0.495781
-5.1885 -14.8655 5.00425 -0.0202361 0.186762 0 -0.866667 7.72024 -0.470014 3.59987 -0.249824 -0.262052 0.932157
-13.7215 -14.402 -0.23675 -0.321801 -0.141171 -0.674917 -0.777778 7.76083 -0.999807 2.9185 -0.384527 0.366098 0.847414
-13.8619 -12.8776 -0.485125 -0.192129 -0.17305 -0.357776 -0.155556 7.80294 -0.748153 3.16129 -0.201733 -0.134953 0.970099
-4.7005 -8.899 6.39175 -0.253878 0.197828 -0.140137 -0.288889 7.81578 0.999869 5.95772 -0.161919 0.492993 0.854834
-9.33075 -17.7201 2.38775 -0.37033 -0.0636666 -0.655861 -0.777778 7.84811 0.120157 3.02405 -0.826645 0.164711 0.538079
-4.73318 -8.01982 5.00636 -0.573307 0.197756 -0.307206 -0.288889 7.89054 0.6786 5.95772 -0.183117 0.880376 0.437499
-4.78862 -12.2188 5.761 0.046972 0.269469 0 -0.19913 7.90312 -0.449076 5.36519 0.164276 -0.304236 0.938325
-14.4952 -7.95725 2.686 -0.103135 -0.211351 0 -0.25878 7.90875 -0.38172 3.71517 -0.120823 -0.588424 0.799474
-14.9028 -10.6087 2.47469 0.24692 -0.273026 0.0932256 -0.155556 8.00008 0.999885 3.16129 0.230483 -0.404774 0.884893
-12.0071 -16.9351 0.627688 -0.282936 0.148512 0 -0.777778 8.03986 0.361314 2.97337 -0.369568 -0.761527 0.532444
-10.3611 -5.92944 7.93031 0.0380817 -0.241627 0 -0.0888889 8.05481 0.163354 0.399919 0.078183 -0.982644 -0.168221
-7.77125 -18.1174 3.96012 -0.34568 0.124666 -0.43348 -0.777778 8.11676 0.386941 3.59987 -0.461783 0.0208661 0.886747
-10.761 -17.6825 0.514 -0.103993 0.117372 0 -0.777778 8.14023 -0.286992 2.97337 -0.529192 -0.588319 0.611422
-4.22738 -13.2555 5.60988 0.0421657 0.154709 0 0.101562 8.14206 -0.328295 4.33634 -0.427561 -0.0956582 0.898911
-15.888 -11.3448 1.581 -0.18442 -0.177325 -0.835422 -0.155556 8.15041 0.905977 3.16129 -0.248077 -0.804368 0.539861
-5.0845 -16.9285 4.6285 -0.00388733 0.137379 0 -0.782022 8.17432 -0.263381 3.59987 -0.337251 -0.0516141 0.939999
-11.1451 -5.506 7.06925 0.081587 -0.181939 0 -0.100888 8.18548 -0.259259 0.399919 -0.383129 -0.923164 -0.031305
-6.65863 -4.65394 6.68906 -0.195179 0.243954 0 -0.155556 8.2587 0.490303 0.168791 0.800897 -0.162584 0.576308
-9.54244 -18.4902 1.55037 -0.16166 0.0532946 -0.520619 -0.777778 8.26505 -0.314944 3.02405 -0.863531 -0.227399 0.450116
-6.4705 -18.222 4.652 0.0393597 0.133481 0 -0.777778 8.33806 0.706979 3.59987 -0.324443 -0.12887 0.937086
-3.87538 -14.3188 5.57725 -0.0440993 0.109489 0 0.933333 8.36225 -0.6635 4.33634 -0.612834 -0.0935184 0.784658
-15.9696 -11.7929 0.4935 -0.0880117 -0.172559 -0.578883 -0.4144 8.42318 -0.301055 3.16129 -0.123798 -0.712599 0.690563
-14.219 -7.33175 3.72213 -0.132711 -0.195116 0 -0.288889 8.54867 0.291035 3.71517 -0.304906 -0.795956 0.522959
-8.771 -5.32425 8.028 -0.0419467 -0.235406 0 -0.155556 8.56085 -0.086949 0.399919 0.343575 -0.856788 0.384539
-15.5601 -12.8408 -0.15225 -0.247445 -0.185722 0 -0.722702 8.5884 -0.2974 3.16129 0.105668 -0.414195 0.904033
-9.146 -18.2255 3.372 -0.402247 -0.0708643 -0.367413 -0.777778 8.6243 0.999889 3.02405 -0.784998 0.117893 0.608177
-13.2936 -16.5419 0.364812 -0.317426 -0.15264 0 -0.777778 8.64753 -0.0742171 2.97337 -0.225165 -0.518622 0.824822
-3.951 -11.0045 6.155 0.153228 0.233802 0.411994 -0.288889 8.65019 0.0596021 5.95772 0.173024 -0.163376 0.971273
-13.456 -6.9735 4.6405 0.0106169 -0.239141 0 -0.288889 8.67033 0.669452 0.450503 -0.0476966 -0.673293 0.737836
-4.95375 -7.62125 3.69175 -0.300145 0.217873 0 -0.288889 8.69906 -0.812133 5.95772 0.03356 0.682842 0.729795
-14.3853 -15.4355 0.226 -0.129791 -0.167281 -0.441248 -0.777778 8.87555 -0.0747912 2.9185 -0.0476324 0.315977 0.94757
-14.8038 -14.2679 -0.476375 0.00114367 -0.185199 -0.170806 -0.777778 8.87743 -0.999836 3.16129 0.167585 0.25905 0.951214
-13.8022 -6.02612 5.05288 -0.0323285 -0.200302 0 -0.288889 8.91059 -0.344842 0.450503 -0.0436382 -0.470329 0.881412
-3.4925 -9.73662 6.49538 0.159112 0.219778 0.523693 -0.288889 8.93159 0.698664 5.95772 0.274785 0.0171716 0.961352
-3.90125 -7.64819 4.49444 -0.319408 0.145606 0 0.25414 8.93566 -0.260382 5.95772 -0.37148 0.68324 0.628638
-3.81312 -8.3725 5.85162 -0.19945 0.18756 0 -0.288889 8.98042 0.321965 5.95772 -0.0531652 0.727358 0.684196
-5.05813 -18.3581 4.882 0.0466233 0.12385 0 -0.777778 9.03588 0.183834 3.59987 -0.285175 0.042256 0.957543
-7.71931 -4.28869 8.27731 -0.13222 0.22956 0 -0.0993076 9.04247 -0.0666502 0.399919 0.771305 -0.555214 0.311169
-4.0155 -15.5483 5.4625 -0.191928 0.127003 0 -0.866667 9.06045 0.121473 3.59987 -0.451521 -0.269503 0.850586
-5.22725 -5.95262 3.36162 -0.290222 0.203207 0 0.570476 9.08851 -0.790555 0.168791 0.181539 -0.193431 0.964172
-11.9365 -17.4435 -0.29875 -0.165537 0.130943 0 -0.777778 9.09899 -0.757873 2.97337 -0.352086 -0.635777 0.686893
-15.8403 -8.4775 2.45913 -0.184729 -0.200187 -0.0665696 -0.155556 9.09978 -0.532228 3.71517 0.0810591 -0.22859 0.970142
-12.6431 -4.67812 5.88588 -0.0220906 0.112622 0.162576 -0.25208 9.17163 -0.0594895 0.450503 -0.562668 0.507152 0.652841
-10.2875 -18.678 0.1155 0.0224967 0.0720225 0.0776585 -0.777778 9.31242 -0.722435 2.97337 -0.735328 -0.321227 0.596746
-6.894 -19.0485 3.8485 0.055297 0.132172 0 -0.777778 9.40088 -0.146767 3.59987 -0.267766 -0.419034 0.86759
-15.5855 -6.97237 3.164 -0.206872 -0.175816 0 -0.288889 9.45382 -0.749771 3.71517 -0.133444 -0.768976 0.625195
-3.8145 -17.367 4.925 0.0298796 0.131198 -0.398123 -0.815087 9.55022 -0.458783 3.59987 -0.209084 0.0147824 0.977786
-11.1145 -18.6728 -0.466125 0.0271403 -0.107139 0.266106 -0.777778 9.57769 -0.412093 2.97337 -0.412087 -0.29045 0.863611
-17.0605 -11.116 0.7535 -0.00555143 -0.127759 0.0020518 -0.155556 9.60363 -0.137062 3.16129 -0.383154 -0.585228 0.714633
-3.20537 -13.4785 6.67462 0.030704 0.112146 0 0.933333 9.63467 0.69745 4.33634 -0.537921 0.0456858 0.841756
-3.2485 -14.946 6.499 0.0673183 0.0973865 0 0.933333 9.6413 0.610913 4.33634 -0.605747 -0.183097 0.774303
-7.252 -3.699 7.61825 -0.162745 0.226515 0 -0.11447 9.71725 -0.443783 0.168791 0.898046 -0.309276 0.312827
-8.99281 -5.18831 9.17241 0.00358713 -0.238387 0 -0.0888889 9.73446 -0.347794 0.399919 0.596314 -0.785419 -0.165914
-2.969 -10.5732 5.882 0.076094 0.228812 0.871323 -0.288889 9.75693 -0.150684 5.95772 0.436682 -0.19055 0.879204
-9.19025 -19.9055 1.95575 -0.00195302 0.0603144 0 -0.777778 9.7788 0.60351 3.02405 -0.798463 -0.34662 0.492252
-10.4118 -6.27056 9.62613 0.105906 -0.227494 0 -0.0888889 9.78534 0.377422 0.399919 0.23397 -0.959916 -0.154338
-12.4902 -5.07987 7.84025 0.2066 -0.142924 0 -0.0888889 9.79337 -0.109436 0.399919 -0.52891 -0.777561 -0.340077
-5.70538 -19.3718 4.16556 0.102521 0.111795 0 -0.777778 9.80233 0.108068 3.59987 -0.379298 -0.499693 0.778743
-4.507 -5.223 3.805 -0.311422 0.16121 0 0.460967 9.85676 -0.999895 0.168791 -0.0883476 -0.753398 0.651602
-11.9108 -6.32387 8.77262 0.0522473 -0.180855 0 -0.0888889 9.86219 0.999847 0.399919 -0.348543 -0.871239 -0.345631
-16.7653 -10.1103 2.37981 -0.480837 -0.149339 -0.958571 -0.155556 9.86264 0.578546 3.16129 -0.30756 -0.480808 0.821115
-9.7635 -19.9498 0.82475 0.203867 0.058375 0.711939 -0.777778 9.90999 0.33897 3.02405 -0.82388 -0.459811 0.331355
-2.83288 -12.1978 6.21525 0.00690667 0.163102 0 0.933333 9.91103 0.0816939 5.36519 -0.138031 0.321809 0.936689
-8.32325 -19.708 3.28513 -0.22326 0.104176 0 -0.777778 9.93069 0.635472 3.59987 -0.512635 -0.545277 0.663233
-14.4928 -17.0419 0.545875 -0.00660917 -0.182059 0 -0.777778 9.95935 0.400819 2.97337 0.322027 -0.195194 0.92639
-5.74638 -3.5895 5.62288 -0.309303 0.185024 -0.640861 -0.777778 9.96187 -0.610421 0.168791 0.414054 -0.362659 0.834888
-6.71375 -2.89488 6.73688 -0.180739 0.201833 0.285931 -0.559582 10.0193 -0.999873 0.168791 0.760794 -0.448543 0.469043
-14.8775 -6.392 4.7815 -0.0877703 -0.18936 0 -0.288889 10.0784 0.139323 0.450503 -0.0701895 -0.726398 0.68368
-3.89775 -4.7585 5.049 -0.539587 0.130868 -0.0210641 -0.690158 10.0894 -0.137544 0.168791 -0.243902 -0.553949 0.796023
-16.6195 -13.8413 0.25625 0.0744757 -0.157199 0 -0.777778 10.1017 0.21688 3.16129 0.0305198 0.283387 0.95852
-2.69519 -8.20844 5.88494 -0.162261 0.129264 0 -0.14944 10.1108 0.0630964 5.95772 -0.341506 0.0724827 0.93708
-12.1039 -18.334 -0.824125 -0.00727283 -0.124625 0.012477 -0.777778 10.1464 -0.946448 2.97337 -0.203062 -0.141511 0.968886
-17.528 -10.2195 1.18 -0.252893 -0.113241 -0.588982 -0.155556 10.1794 -0.598223 3.16129 -0.490767 -0.645074 0.585685
-13.5205 -4.28575 6.30813 -0.0468763 -0.161592 0.712136 -0.0888889 10.2214 0.810863 0.450503 -0.0219807 -0.0487423 0.998569
-14.386 -5.0025 5.6365 0.057943 -0.175257 0 -0.288889 10.2256 -0.0728844 0.450503 0.0248452 -0.484975 0.874175
-17.6025 -12.3884 -0.0595 0.316843 -0.137804 0.185999 -0.727787 10.2471 -0.329982 3.16129 -0.0816145 -0.194588 0.977484
-4.018 -6.71575 3.4105 -0.253577 0.113922 0 0.622222 10.3702 -0.999936 5.95772 -0.512415 0.191549 0.837102
-13.4291 -17.8351 -0.796125 -0.00978263 -0.161459 0 -0.777778 10.3907 -0.999841 2.97337 0.228875 -0.447757 0.864367
-3.33588 -6.29109 4.57525 -0.23918 0.0708154 0 0.622222 10.408 -0.290659 5.95772 -0.748433 -0.107729 0.654402
-2.30363 -9.30188 5.6655 -0.0874373 0.191072 0.218577 -0.10442 10.4452 -0.432926 5.95772 0.272996 -0.184513 0.944155
-17.1569 -8.38313 2.722 -0.173604 -0.147575 0 -0.155556 10.4457 0.238235 3.71517 -0.185857 -0.384039 0.904418
-2.22219 -11.1875 5.52744 0.0135242 0.182613 0.162673 0.670611 10.4985 -0.706438 5.95772 0.14859 0.175342 0.97323
-6.30175 -19.9444 3.53238 0.182807 0.122278 0 -0.777778 10.5204 0.152117 3.59987 -0.228096 -0.556972 0.798595
-16.6373 -7.33638 3.0085 -0.150963 -0.190472 0 -0.155556 10.5776 -0.415263 3.71517 0.229484 -0.609191 0.759094
-2.89162 -16.6276 5.30275 0.1477 0.114443 0 0.933333 10.6268 -0.661675 3.59987 -0.37582 -0.379951 0.84522
-3.97412 -19.4165 5.44812 -0.49659 0.106308 -0.53927 -0.777778 10.6532 0.999864 3.59987 -0.293376 -0.273517 0.916034
-11.6453 -4.60388 4.67525 -0.111387 0.165203 -0.441202 -0.155556 10.7422 -0.624341 0.450503 -0.344569 0.936217 -0.0690706
-11.422 -3.9135 6.5525 0.0452527 0.171724 0.661268 -0.122222 10.7591 -0.403491 0.450503 -0.16872 0.857403 -0.486204
-7.4305 -3.96725 9.99225 -0.231811 0.203988 0 -0.0888889 10.811 -0.0393035 0.399919 0.787945 -0.604228 -0.118537
-2.42688 -15.7767 6.43394 0.187632 0.100905 0 0.933333 10.8115 -0.096815 3.59987 -0.502325 -0.423562 0.753833
-16.6895 -6.5235 3.8545 -0.247934 -0.192196 -0.0845656 -0.266918 10.8312 -0.999905 3.71517 0.290408 -0.875042 0.387254
-12.6186 -4.56244 4.20325 -0.116365 0.223892 0 -0.288889 10.8584 -0.571016 0.450503 0.34752 0.929517 0.123401
-2.05238 -13.2297 7.067 0.0243308 0.147143 0 0.933333 10.8778 0.75216 4.33634 -0.0732094 0.442392 0.893829
-12.3745 -3.36175 7.0435 0.259066 -0.174276 0.820334 -0.0888889 10.9451 -0.0846172 0.450503 0.00283395 0.46792 -0.883766
-10.5036 -20.1369 -0.600625 0.058206 0.149647 0.781005 -0.777778 10.9519 0.260129 2.97337 0.149665 -0.983519 -0.101446
-12.061 -6.426 9.85625 0.0687357 -0.17586 0 -0.0888889 10.9609 0.594472 0.399919 -0.196044 -0.978588 -0.0627064
-4.953 -20.1855 3.813 0.072079 0.11742 0 -0.777778 10.9653 0.1257 3.59987 -0.2254 -0.816646 0.531304
-13.1315 -5.173 8.925 0.0186621 -0.0982423 0 -0.0888889 11.0569 0.513889 0.399919 -0.755563 -0.598811 -0.265611
-13.621 -3.619 7.156 -0.00765367 -0.118645 0 -0.0888889 11.0929 0.26688 0.450503 -0.581425 -0.365319 -0.726971
-14.434 -3.972 5.968 -0.105477 0.188433 0 -0.288889 11.0985 0.249956 0.450503 0.435753 0.731254 0.524773
-13.759 -3.865 4.518 -0.180889 0.19562 0 -0.288889 11.1152 0.457533 0.450503 0.378846 0.906421 0.186753
-4.60238 -3.23388 5.77987 -0.540063 0.128246 -0.941475 -0.777778 11.1701 -0.56339 0.168791 -0.149299 -0.611932 0.776691
-8.90875 -20.9272 1.00675 0.140783 0.0931343 0 -0.777778 11.2014 0.999854 3.02405 -0.535978 -0.817124 0.212217
-16.592 -15.3796 1.00713 0.0287388 -0.163947 0 -0.777778 11.2171 0.472334 2.9185 0.163764 0.329992 0.92967
-18.5084 -11.1437 0.0408125 0.267317 -0.119715 0 -0.468784 11.2177 -0.569059 3.16129 -0.193927 -0.270441 0.943003
-6.4365 -2.47325 8.14738 -0.191343 0.182838 0.101381 -0.270744 11.2692 -0.539866 0.399919 0.672468 -0.735167 0.0855358
-2.52625 -18.525 5.34025 0.0582613 0.121306 -0.0924834 -0.777778 11.3315 0.216737 3.59987 -0.0516986 0.0264044 0.998314
-18.0786 -13.3655 -0.167875 0.33363 -0.133892 0 -0.951709 11.3394 -0.683495 3.16129 -0.00418875 0.0790882 0.996859
-7.308 -20.603 2.818 0.128695 0.110928 0 -0.777778 11.3625 0.586352 3.59987 -0.35892 -0.801035 0.479082
-16.272 -6.41025 4.868 -0.196917 -0.208403 -0.260354 -0.537218 11.375 0.0206288 0.450503 0.376086 -0.90874 0.180975
-9.37288 -6.32125 10.879 -0.241774 -0.188783 0 -0.777778 11.4137 -0.0339969 0.399919 0.00891663 -0.765131 -0.643813
-12.1984 -20.1607 -0.610219 0.267803 -0.125617 0 -0.777778 11.4242 0.366334 2.97337 0.023139 -0.257491 0.966004
-5.48675 -2.224 6.57375 -0.152923 -0.150991 0.617498 -1 11.4272 -0.999849 0.168791 0.223633 -0.842403 0.49025
-14.8401 -18.4291 0.006625 0.113002 -0.149408 0.73229 -0.777778 11.4877 0.373929 2.97337 0.176416 -0.660119 0.73015
-1.407 -8.689 5.998 -0.183793 0.126933 0 0.622222 11.4904 -0.327193 5.95772 -0.26029 -0.545375 0.796753
3 93 126 145
3 126 165 145
3 157 133 99
3 160 133 189
3 152 194 130
3 165 126 168
3 130 107 152
3 117 113 78
3 113 107 67
3 69 41 67
3 77 62 35
3 35 60 51
3 99 106 62
3 106 109 62
3 159 152 117
3 79 78 52
3 49 52 78
3 113 61 78
3 113 67 61
3 10 9 1
3 26 25 45
3 9 35 25
3 45 25 51
3 83 51 86
3 51 83 66
3 111 75 83
3 66 83 75
3 83 115 111
3 111 115 149
3 83 86 115
3 75 111 94
3 149 198 162
3 101 95 141
3 71 52 36
3 36 30 46
3 46 30 58
3 30 36 16
3 16 5 14
3 36 19 16
3 5 16 3
3 5 3 0
3 11 17 2
3 11 23 17
3 11 6 12
3 0 7 6
3 7 18 12
3 18 22 34
3 34 32 50
3 63 40 47
3 74 63 89
3 72 47 75
3 72 94 97
3 140 180 144
3 95 137 140
3 108 95 71
3 108 71 73
3 73 71 46
3 122 108 73
3 136 190 122
3 58 59 84
3 119 90 120
3 119 120 155
3 155 163 119
3 120 88 118
3 82 54 68
3 37 27 48
3 37 48 68
3 23 48 27
3 23 31 48
3 31 23 11
3 31 28 53
3 57 28 33
3 57 33 76
3 28 12 33
3 76 56 85
3 85 56 80
3 85 80 123
3 100 65 121
3 96 70 74
3 34 42 18
3 65 96 104
3 148 129 96
3 104 96 142
3 129 142 96
3 139 148 103
3 103 146 139
3 103 97 128
3 137 195 140
3 142 170 121
3 170 131 121
3 174 123 169
3 169 123 131
3 148 139 187
3 138 112 166
3 166 112 147
3 68 53 91
3 53 28 57
3 80 100 123
3 2 17 14
3 133 157 189
3 168 126 130
3 130 92 107
3 92 130 126
3 77 92 126
3 77 126 93
3 160 154 109
3 160 109 106
3 160 106 133
3 133 106 99
3 192 154 160
3 130 175 168
3 194 175 130
3 77 69 92
3 92 69 67
3 92 67 107
3 35 24 41
3 35 41 55
3 24 35 10
3 35 55 77
3 77 55 69
3 69 55 41
3 109 35 62
3 86 51 87
3 60 87 51
3 154 116 109
3 87 109 116
3 87 116 86
3 115 86 116
3 115 116 188
3 188 116 154
3 158 184 159
3 127 141 183
3 127 158 159
3 78 127 117
3 117 127 159
3 79 127 78
3 36 52 38
3 38 52 49
3 38 49 61
3 19 36 38
3 61 39 38
3 38 39 19
3 24 20 39
3 41 24 61
3 61 24 39
3 13 20 24
3 10 13 24
3 13 1 4
3 1 13 10
3 0 3 4
3 0 4 1
3 7 0 8
3 8 0 1
3 8 1 9
3 21 8 26
3 9 25 8
3 8 25 26
3 51 25 35
3 188 149 115
3 125 94 111
3 125 111 162
3 125 162 156
3 149 162 111
3 101 127 79
3 127 101 141
3 95 101 71
3 71 101 79
3 71 79 52
3 59 58 44
3 30 44 58
3 43 29 14
3 14 29 16
3 16 29 44
3 16 44 30
3 44 29 59
3 59 29 43
3 59 43 64
3 3 16 19
3 3 19 15
3 15 19 39
3 13 4 20
3 20 4 15
3 20 15 39
3 15 4 3
3 7 12 6
3 32 34 21
3 32 21 40
3 40 21 26
3 8 21 22
3 22 21 34
3 74 50 40
3 50 32 40
3 74 40 63
3 63 47 72
3 103 89 63
3 103 63 97
3 72 97 63
3 132 97 125
3 132 125 156
3 132 156 196
3 94 125 97
3 137 95 108
3 36 46 71
3 173 137 122
3 122 137 108
3 136 122 102
3 151 190 136
3 197 190 151
3 136 102 151
3 150 186 197
3 150 197 151
3 102 150 151
3 84 150 102
3 84 59 81
3 81 64 114
3 64 81 59
3 119 163 161
3 155 120 118
3 43 37 54
3 54 37 68
3 14 27 37
3 14 37 43
3 43 54 64
3 18 33 12
3 100 80 65
3 56 65 80
3 96 65 70
3 42 70 65
3 42 65 56
3 74 70 50
3 50 70 42
3 50 42 34
3 128 146 103
3 146 128 179
3 179 128 132
3 179 132 196
3 132 128 97
3 142 167 181
3 142 181 170
3 100 121 131
3 100 131 123
3 85 123 76
3 76 123 105
3 105 123 135
3 98 76 105
3 98 105 134
3 134 105 135
3 148 167 129
3 167 142 129
3 153 150 84
3 150 153 186
3 124 163 143
3 124 143 84
3 161 163 124
3 153 84 143
3 153 143 163
3 114 124 81
3 119 161 124
3 119 124 114
3 84 81 124
3 199 155 164
3 164 155 118
3 138 166 164
3 138 164 118
3 98 147 91
3 68 91 82
3 82 91 112
3 112 91 147
3 147 98 134
3 98 91 76
3 76 91 57
3 57 91 53
3 127 184 158
3 178 127 183
3 127 178 172
3 127 172 171
3 171 176 127
3 127 176 185
3 184 127 185
3 99 93 145
3 145 157 99
3 152 107 113
3 152 113 117
3 93 99 62
3 77 93 62
3 61 67 41
3 10 35 9
3 2 0 6
3 6 11 2
3 5 0 2
3 8 22 7
3 22 18 7
3 47 26 45
3 47 45 75
3 40 26 47
3 51 66 45
3 45 66 75
3 75 94 72
3 182 141 144
3 182 183 141
3 141 95 144
3 140 144 95
3 73 102 122
3 58 73 46
3 73 58 102
3 90 64 88
3 88 120 90
3 88 54 82
3 54 88 64
3 23 27 17
3 27 14 17
3 2 14 5
3 11 28 31
3 12 28 11
3 18 42 33
3 56 33 42
3 33 56 76
3 96 110 148
3 110 96 74
3 74 89 110
3 110 89 103
3 148 110 103
3 102 58 84
3 118 88 82
3 112 118 82
3 138 118 112
3 68 48 53
3 31 53 48
3 104 121 65
3 121 104 142
3 148 193 167
3 139 146 187
3 131 170 191
3 135 123 174
3 174 134 135
3 134 177 147
3 114 64 90
3 114 90 119
3 109 87 60
3 109 60 35
3 49 78 61
