ply
format ascii 1.0
comment Generated by PyMesh
element vertex 200
property float x
property float y
property float z
property float charge
property float ddc
property float hbond
property float hphob
property float rho
property float si
property float theta
property float nx
property float ny
property float nz
element face 341
property list uchar int vertex_indices
end_header
-15.4591 -7.77588 13.7755 0.861067 0 0.088854 -0.773651 1e-08 -0.734937 2.22045e-16 -0.501152 0.0173468 -0.865186
-16.4895 -7.686 14.14 0.249945 0.180405 0 -0.866667 1.09666 0.0837004 2.96124 -0.666855 -0.076441 -0.741257
-15.8385 -6.69825 13.663 0.586543 -0.344429 0.523724 -0.177778 1.14799 -0.999858 4.13 -0.370887 -0.574621 -0.729557
-14.5334 -8.09988 12.9789 1 0.162777 0 -0.866667 1.26351 0.0769332 2.22045e-16 -0.416646 -0.127902 -0.900026
-15.4358 -9.10581 13.2952 0.96659 -0.381902 0 -0.866667 1.41419 -0.179197 1.15748 -0.419749 0.28432 -0.861959
-16.891 -8.604 14.5685 0.296941 0.430814 0 -0.866667 2.1864 -0.637084 2.5064 -0.911108 0.276913 -0.30529
-17.0045 -6.579 13.7055 0.209189 -0.346054 0.0484967 -0.177778 2.32085 0.0532711 3.74539 -0.372483 -0.798344 -0.473185
-15.3011 -6.19775 12.604 0.50108 -0.255961 -0.194779 -0.177778 2.43671 -0.206937 4.83662 -0.272386 -0.641142 -0.717456
-13.3403 -7.75063 12.6695 0.488417 0.237832 0 -0.477887 2.5446 0.309244 5.8915 -0.078355 -0.532924 -0.842527
-17.0825 -7.7875 15.585 0.30018 0.168428 0 -0.191002 2.6619 -0.858649 2.83175 -0.834138 -0.0571497 -0.548587
-16.9878 -6.00616 12.5084 0.16828 -0.413705 0 -0.177778 2.91802 -0.268516 4.22662 0.0390774 -0.970228 -0.23902
-16.9587 -9.418 13.788 0.235878 -0.323245 0 -0.866667 2.92529 0.382773 1.97243 -0.698075 0.434666 -0.568996
-13.842 -9.499 12.3448 0.385083 0.29658 0.846334 -0.866667 2.94805 0.583064 0.48056 0.114291 0.198146 -0.973486
-15.3629 -10.7626 12.8304 0.136983 -0.300461 -0.394883 -0.790553 3.13649 -0.999862 1.17276 -0.332311 0.671036 -0.662782
-16.8458 -10.3915 13.2823 0.230086 -0.386445 0 -0.901769 3.3224 -0.277064 1.65934 -0.0914488 0.806767 -0.58375
-17.911 -6.2715 15.196 0.204766 -0.183769 0 1 3.36307 -0.999889 3.33329 -0.413333 -0.739608 -0.531165
-12.4315 -8.2485 13.1453 0.53482 0.230985 0 -0.483678 3.37722 -0.394484 6.16955 0.145432 -0.269293 -0.952014
-17.4824 -9.63325 15.3156 0.240497 -0.258614 0 -0.866667 3.589 -0.876771 2.41184 -0.740196 0.487666 -0.462917
-14.5136 -10.6986 12.1084 0.0093171 -0.259913 -0.611101 -0.794638 3.60415 0.104646 0.875373 -0.118791 0.560971 -0.819268
-17.8437 -7.97316 16.2629 0.254598 -0.04639 0 0.717809 3.69797 -0.731524 2.86824 -0.424628 -0.21275 -0.880016
-12.997 -6.8425 12.0225 0.164346 0.196635 0 -0.0888889 3.71129 0.101263 5.70676 -0.0988507 -0.649519 -0.753892
-17.401 -6.03675 11.4762 0.108734 -0.431653 0 -0.16549 4.03027 -0.137755 4.31514 0.51537 -0.855702 0.0465509
-18.6523 -6.01937 14.132 0.176105 -0.302991 0 0.0998822 4.11259 -0.501133 3.62003 0.0278223 -0.975824 -0.216778
-18.333 -6.3345 12.108 0.091576 -0.426776 -0.120039 -0.0912609 4.35943 0.282037 4.11396 0.250826 -0.908366 0.3346
-15.803 -4.925 11.1187 -0.006921 -0.277799 -0.811647 -0.177778 4.45609 -0.25577 4.75571 0.354256 -0.763653 -0.539757
-12.9963 -10.7945 12.6664 -0.0510023 0.271636 0.0462799 -0.793793 4.52822 -0.562432 0.518696 0.319079 0.427744 -0.845709
-18.7805 -6.90188 15.6709 0.205645 -0.224576 0 1 4.53735 -0.444014 3.22386 0.146899 -0.741063 -0.655169
-11.4593 -7.06425 12.5245 0.36085 0.159117 0 -0.534173 4.55217 -0.845022 5.92333 -0.0430158 -0.6673 -0.743546
-12.1716 -9.38762 13.3766 0.192425 0.229745 -0.0349964 -0.858767 4.56829 -0.999812 0.0952241 0.174566 0.148977 -0.97331
-13.6006 -5.50238 11.3686 0.099116 -0.118738 0 -0.0888889 4.65063 -0.327554 5.24662 -0.430903 -0.636383 -0.639796
-16.3521 -11.4514 11.8585 -0.0251259 -0.317421 0 -0.892942 4.68489 -0.62583 1.34456 0.0602094 0.903033 -0.42533
-15.234 -11.3053 11.3237 -0.52401 -0.294897 -0.342352 -0.777778 4.74313 0.190645 1.04339 -0.100538 0.894178 -0.436278
-12.3375 -6.3815 11.3695 0.125123 -0.203898 0 -0.0888889 4.74757 -0.0946285 5.59166 -0.259074 -0.89831 -0.354851
-18.3009 -10.4878 14.4353 0.217073 -0.318447 0 -1 4.75967 -0.36447 2.10492 -0.351694 0.898683 -0.262068
-18.04 -10.3495 12.4425 0.180204 -0.350376 0 -1 4.78293 0.790245 1.67665 -0.0188837 0.93446 -0.355567
-18.4521 -10.3144 15.4754 0.193447 -0.279223 0 -0.944124 4.78475 -0.902786 2.33047 -0.275903 0.864479 -0.420183
-17.2897 -10.9758 11.8864 0.274118 -0.353207 0 -1 4.89942 0.0577259 1.52392 0.307248 0.871201 -0.382894
-19.1028 -6.053 12.8455 0.0926913 -0.350899 -0.218172 -0.149494 5.06022 -0.584342 3.86798 0.136644 -0.958058 0.251901
-10.6558 -8.67522 13.3047 -0.123091 0.0851701 0 -0.710011 5.21042 -0.612036 0.0268688 -0.176408 -0.207952 -0.9621
-19.545 -7.992 16.6395 0.294261 -0.16851 -0.347605 0.404067 5.44056 -0.999927 2.94721 0.269309 -0.335886 -0.902581
-17.8043 -6.68175 10.2825 0.213745 -0.368273 0 -0.0888889 5.44575 0.461547 4.32849 0.530315 -0.818463 0.221099
-18.8542 -9.37125 16.6077 0.147958 -0.174662 0 -0.866667 5.45713 -0.774815 2.61097 -0.0286449 0.379911 -0.924579
-19.261 -6.84125 11.6965 -0.243992 -0.360495 0 -0.0888889 5.49403 0.277998 4.04798 0.368084 -0.864345 0.342669
-19.2892 -10.6217 13.267 0.17298 -0.268831 0 -1 5.77667 0.330198 1.95357 -0.334676 0.910521 -0.242781
-13.0511 -12.0589 11.1349 -0.266539 -0.220704 0 -0.777778 5.8261 0.257586 0.748203 0.334992 0.609531 -0.718507
-20.324 -6.3865 14.3372 0.221022 -0.256035 0 1 5.83638 -0.999791 3.43808 0.499942 -0.811387 -0.302835
-19.324 -10.4045 14.811 0.166069 -0.304649 0 -1 5.85275 -0.157377 2.20624 0.125617 0.949726 -0.286775
-15.2399 -4.01038 10.1786 0.048477 -0.18455 0.0615469 -0.0972704 5.88346 -0.428873 4.86535 0.0501641 -0.892009 -0.449225
-11.7086 -11.227 12.6416 -0.43896 0.196949 -0.835421 -0.777778 5.88684 -0.400173 0.388045 0.155044 0.504703 -0.849256
-19.343 -10.0887 16.0842 0.0367197 -0.265223 0 -0.959427 5.88714 -0.999899 2.45454 0.269278 0.796883 -0.540802
-14.9095 -11.794 10.3015 -0.38135 -0.197746 -0.0268627 -0.777778 5.9217 0.773584 1.01134 0.13334 0.56375 -0.815111
-20.0229 -7.55125 15.8363 0.178879 -0.226339 -0.317033 0.147612 5.94894 -0.207275 3.07961 0.562908 -0.387783 -0.729903
-14.4446 -4.32575 10.8495 -0.113263 -0.149035 -0.487567 -0.132564 5.965 -0.99988 4.99895 -0.216204 -0.790347 -0.573243
-17.1159 -5.79738 9.5235 0.256873 -0.326654 0 -0.160835 6.01814 0.0971588 4.32849 0.853315 -0.519417 -0.0453887
-10.918 -6.34381 11.3474 0.0814103 0.191381 0 -0.674742 6.0346 -0.585778 5.59166 -0.0343879 -0.954799 -0.295256
-20.213 -6.25775 13.0215 0.18907 -0.310342 0 -0.80846 6.04282 -0.856385 3.86798 0.370986 -0.88433 0.283425
-16.623 -4.8675 9.69606 0.265922 -0.286737 0.0800778 -0.132375 6.09914 -0.580168 4.75571 0.79169 -0.538524 -0.288476
-18.9442 -11.0352 11.6637 0.331355 -0.224529 0 -1 6.15926 0.380992 1.67665 -0.371316 0.846535 -0.381449
-12.9268 -5.85825 10.0618 0.066468 -0.161198 0 -0.0888889 6.16337 0.523431 5.24662 -0.698661 -0.694381 -0.17236
-12.061 -6.426 9.85625 0.0687357 -0.206451 0 -0.0888889 6.28652 0.594472 5.59166 -0.196044 -0.978588 -0.0627064
-16.3331 -11.9799 10.336 0.035176 -0.215086 -0.599444 -0.798871 6.29663 0.0823546 1.01134 0.25465 0.623967 -0.738795
-10.6073 -10.0638 12.9993 -0.544387 0.138376 -0.00833951 -0.777778 6.31374 0.238591 0.0268688 -0.00148864 0.236394 -0.971656
-9.68125 -7.01875 11.9342 0.185112 0.0768419 0 -0.777778 6.4262 -0.71361 5.92333 -0.393483 -0.648419 -0.651709
-13.5747 -4.53587 9.77962 0.055301 -0.133715 0 -0.0888889 6.51065 -0.568209 4.99895 -0.68619 -0.688193 -0.235655
-9.599 -7.886 12.478 0.0152166 0.044303 0 -0.777778 6.58641 -0.714466 0.0268688 -0.444608 -0.470896 -0.761958
-17.642 -11.1625 10.057 0.112985 -0.212572 0 -1 6.77177 0.999901 1.52392 0.0708431 0.739224 -0.669724
-20.1265 -9.2905 16.176 0.276374 -0.231627 -0.870462 -0.262424 6.8031 -0.889417 2.45454 0.611254 0.245662 -0.752342
-20.6695 -7.0855 15.0363 0.123762 -0.236506 -0.585066 -0.0157454 6.88362 -0.757273 3.43808 0.67072 -0.488536 -0.558093
-17.4675 -6.8385 8.893 0.0557223 -0.300315 0 -0.0888889 6.88406 0.738786 4.32849 0.745376 -0.6652 0.0438689
-15.8931 -3.66613 9.317 0.0168946 -0.213005 0.787115 -0.16315 7.01816 -0.999886 4.86535 0.474484 -0.829969 -0.293286
-8.998 -8.733 12.5118 -0.0739477 -0.0219101 0 -0.777778 7.04899 -0.787732 0.0268688 -0.600919 -0.349797 -0.718706
-11.244 -12.127 12.0522 -0.109208 0.212402 0 -0.777778 7.0587 0.314558 0.388045 0.665982 0.292855 -0.686079
-20.4439 -10.5723 14.3776 0.139374 -0.174331 0 -1 7.06526 0.0620823 2.20624 -0.1757 0.687899 -0.704219
-10.486 -11.3888 12.7402 -0.537483 0.163851 -0.133567 -0.777778 7.12404 0.266172 0.388045 0.450092 -0.105326 -0.886749
-20.79 -7.24388 12.0931 0.140248 -0.293087 0 -0.610956 7.12414 -0.22274 4.04798 0.580424 -0.770568 0.263312
-19.3347 -7.254 9.89163 0.152654 -0.295532 0.287924 -0.63516 7.12574 -0.651943 4.32849 0.48933 -0.816662 0.305973
-20.4977 -9.66825 15.1231 0.138002 -0.237949 -0.771219 -0.31148 7.27298 0.0933316 2.20624 0.461489 0.593141 -0.659705
-13.9409 -12.787 10.2555 -0.370037 0.15106 0 -0.777778 7.27358 0.999792 1.01134 0.321426 0.100952 -0.941538
-20.3315 -7.74131 10.5953 0.199796 -0.28822 0.0211574 -0.577367 7.27412 -0.0744587 4.04798 0.524645 -0.768145 0.367016
-20.5223 -11.3789 13.7464 0.202422 -0.149646 0 -1 7.30104 -0.702519 1.95357 -0.520897 0.660354 -0.540924
-11.7505 -12.7638 11.138 -0.053411 0.17363 0 -0.777778 7.30544 0.999888 0.748203 0.546991 0.154282 -0.822799
-18.6239 -7.34106 8.705 0.0570087 -0.260495 0 -0.0888889 7.34179 0.0479925 4.32849 0.53879 -0.830792 0.139607
-11.9108 -6.32387 8.77262 0.0522473 -0.128292 0 -0.0888889 7.38526 0.999847 5.59166 -0.348543 -0.871239 -0.345631
-17.0565 -12.6155 9.80875 0.217744 -0.142155 0 -1 7.39448 0.619101 1.01134 0.274633 0.11672 -0.954439
-17.0427 -5.50575 8.13175 0.139628 -0.26787 0.0189671 -0.0888889 7.44199 -0.731275 4.32849 0.914394 -0.404824 0.000975317
-15.6134 -13.1465 10.1267 -0.0775537 -0.116741 -0.157177 -0.941284 7.45639 0.300933 1.01134 0.135047 0.00100278 -0.990839
-20.0719 -11.826 12.3647 0.259031 -0.147797 0 -1 7.47287 0.068851 1.95357 -0.660231 0.616466 -0.429027
-13.1315 -5.173 8.925 0.0186621 -0.112629 0 -0.0888889 7.50642 0.513889 4.99895 -0.755563 -0.598811 -0.265611
-8.95475 -10.2674 13.0433 -0.145372 0.0702682 -0.348853 -0.777778 7.55497 -0.051276 0.0268688 -0.123949 -0.443875 -0.887475
-18.8921 -11.6245 10.3421 0.378147 -0.140368 0 -1 7.60723 0.788944 1.67665 -0.543557 0.608633 -0.578024
-9.37288 -6.32125 10.879 -0.241774 0.114983 0 -0.777778 7.64931 -0.0339969 5.59166 0.00891663 -0.765131 -0.643813
-8.79925 -7.947 11.7245 -0.0488977 0.0257597 0 -0.777778 7.6869 0.277138 0.0268688 -0.539989 -0.402606 -0.739134
-13.0988 -13.906 10.6888 -0.210775 0.144691 0 -0.777778 7.7269 0.412374 0.748203 0.488421 -0.186139 -0.852524
-21.5989 -7.74388 13.9134 0.105045 -0.23054 -0.0787328 -0.922018 7.74621 -0.280303 3.43808 0.659801 -0.707421 -0.253412
-14.9088 -3.36075 8.43425 0.00988187 -0.163353 0 -0.0888889 7.77407 -0.527912 4.86535 0.0743413 -0.974183 -0.213168
-21.2502 -8.50362 14.8431 -0.296657 -0.20847 -0.838733 -0.177778 7.79278 -0.200459 3.07961 0.671974 -0.133546 -0.728434
-10.4118 -6.27056 9.62613 0.105906 0.18677 0 -0.0888889 7.83025 0.377422 5.59166 0.23397 -0.959916 -0.154338
-18.0872 -12.0767 9.72775 0.317003 -0.102078 0 -1 7.84059 0.721577 1.52392 -0.144112 0.253934 -0.956425
-13.9991 -3.79312 8.62912 0.20013 -0.116206 0 -0.0888889 7.88038 -0.509045 4.86535 -0.539987 -0.798588 -0.265839
-16.0777 -3.76875 8.203 0.0361967 -0.225665 0 -0.0888889 8.03145 -0.514211 4.86535 0.711117 -0.702398 -0.0308115
-21.4137 -11.8073 13.9376 0.0435247 -0.0946402 -0.314608 -1 8.30836 -0.144449 1.95357 -0.545339 0.442209 -0.712079
-21.5238 -10.0594 14.7436 0.0140825 -0.138251 0 -0.302471 8.31554 -0.347971 2.20624 0.230592 0.180458 -0.95617
-11.4605 -13.5615 11.6944 -0.0795003 0.187051 0 -0.777778 8.32033 0.999811 0.748203 0.788617 -0.285382 -0.544646
-17.37 -6.47 7.5005 -0.192306 -0.254349 -0.747237 -0.695038 8.32778 0.15415 4.32849 0.832502 -0.537503 0.13428
-10.7312 -12.692 13.1929 -0.33857 0.200132 0 -0.777778 8.43106 -0.782297 0.388045 0.79296 -0.188557 -0.579363
-17.3151 -13.7944 9.69925 0.0670877 -0.102968 0 -1 8.45584 0.114218 1.01134 0.128148 0.0611198 -0.98987
-21.936 -7.92137 12.5278 0.265757 -0.247105 0 -1 8.52459 -0.340597 4.04798 0.511917 -0.808369 0.290657
-8.01056 -9.44756 11.6484 -0.0895143 0.0351981 0 -0.777778 8.54267 0.576689 0.0268688 -0.471068 -0.490435 -0.73319
-16.9635 -5.543 7.033 -0.11205 -0.25093 0.573641 -0.0888889 8.54422 -0.596404 4.32849 0.878562 -0.357826 0.316369
-15.3027 -14.1698 10.387 -0.152064 0.109489 -0.207425 -0.777778 8.55704 -0.550768 1.01134 0.210353 -0.150234 -0.966013
-18.3202 -13.137 9.70988 0.36375 -0.0784151 0 -1 8.76513 0.60542 1.01134 -0.0848291 0.0187486 -0.996219
-12.4902 -5.07987 7.84025 0.2066 -0.0991788 0 -0.0888889 8.76999 -0.109436 4.99895 -0.52891 -0.777561 -0.340077
-18.4643 -7.255 7.23925 -0.370103 -0.217484 -0.530836 -0.632871 8.81871 -0.443081 4.32849 0.51067 -0.841295 0.17731
-22.3465 -8.49375 14.0885 -0.068124 -0.170156 0 -0.177778 8.81947 -0.569041 3.43808 0.588423 -0.468957 -0.658663
-8.394 -5.65562 10.7829 -0.297909 0.13399 0 -0.563909 8.83696 -0.183207 5.59166 0.495724 -0.389932 -0.776022
-21.164 -12.614 12.603 0.138973 -0.0823013 0 -1 8.8405 0.670374 1.95357 -0.847744 0.221375 -0.481999
-13.9121 -14.6616 10.49 -0.52379 0.109038 0 -0.777778 8.85469 0.655903 0.748203 0.279298 -0.289262 -0.915598
-19.4224 -12.7526 9.99325 0.243005 -0.0704719 0 -1 8.90165 0.845049 1.67665 -0.537361 0.287897 -0.79269
-20.1845 -8.6605 9.077 0.175931 -0.241381 0 -1 8.95987 0.901947 4.32849 0.476436 -0.824735 0.304665
-14.8453 -3.09875 7.2685 -0.106071 0.0813368 0 -0.0888889 8.97059 0.173275 4.86535 0.063646 -0.38891 -0.919075
-8.79275 -11.3438 13.9897 -0.174024 0.103434 -0.196536 -0.888956 8.99739 -0.943984 0.388045 0.194507 -0.423554 -0.884742
-21.3273 -8.8025 9.55481 0.264206 -0.197791 0 -1 9.06308 -0.0240967 4.04798 0.2227 -0.958482 0.178095
-7.54637 -7.93881 11.1088 -0.25574 0.0360448 -0.0228609 -0.777778 9.08292 -0.0986617 0.0268688 -0.344625 -0.0752006 -0.935723
-21.7401 -8.90375 10.7118 0.347503 -0.212568 0 -1 9.10415 0.945378 4.04798 0.36967 -0.912761 0.173817
-9.33337 -12.2767 14.1205 -0.278701 0.114516 -0.396131 -0.777778 9.12957 -0.650019 0.388045 0.303109 -0.244857 -0.920962
-7.6325 -10.8682 13.6713 0.036259 0.0538142 0.490042 -0.995589 9.13728 -0.999878 0.0268688 -0.285211 -0.591521 -0.75416
-7.97237 -6.88225 11.0336 -0.167191 0.0747671 0 -0.777778 9.1659 0.191328 0.0268688 -0.00398552 -0.120202 -0.992741
-16.4112 -4.2905 7.04475 -0.010762 -0.235132 0.812023 -0.0888889 9.19048 -0.628653 4.86535 0.838796 -0.44615 0.312044
-10.3611 -5.92944 7.93031 0.0380817 -0.146346 0 -0.0888889 9.19265 0.163354 5.59166 0.078183 -0.982644 -0.168221
-20.6022 -13.328 11.6995 0.196928 -0.0854657 0.638818 -1 9.19906 0.109021 1.95357 -0.936276 0.084451 -0.340963
-7.29313 -10.458 12.7794 -0.092495 0.0722644 0 -0.777778 9.24818 -0.223863 0.0268688 -0.312423 -0.761019 -0.568543
-16.2515 -14.8927 10.0135 0.14685 -0.125961 0 -1 9.31897 -0.222322 1.01134 0.41567 0.0408365 -0.908598
-13.621 -3.619 7.156 -0.00765367 -0.0187445 0 -0.0888889 9.41118 0.26688 4.86535 -0.581425 -0.365319 -0.726971
-22.4034 -11.3806 14.4312 -0.278896 -0.0502151 -0.752668 -1 9.49378 0.124264 1.95357 -0.279148 -0.00970253 -0.960199
-11.0767 -13.8383 12.7755 -0.120711 0.186413 0 -0.777778 9.50046 0.126826 0.748203 0.819549 -0.0684307 -0.568909
-20.1338 -8.74375 7.88375 0.118923 -0.181001 0 -1 9.5603 0.766052 4.32849 0.446913 -0.885445 -0.127498
-21.7095 -13.0495 13.7542 0.152812 0.0163837 0 -1 9.59839 0.262136 1.95357 -0.650328 -0.14921 -0.744856
-12.2097 -14.7964 12.0905 -0.172003 0.13292 0 -0.777778 9.61053 -0.077394 0.748203 0.467392 -0.461372 -0.754109
-19.3284 -7.98259 6.64594 -0.32721 -0.176408 0.000629393 -0.778167 9.61062 -0.0266087 4.32849 0.400781 -0.916003 0.0177111
-15.773 -3.4955 6.645 -0.114715 -0.205674 0 -0.151249 9.64231 -0.0697984 4.86535 0.923786 -0.380056 0.0466609
-8.99281 -5.18831 9.17241 0.00358713 0.170935 0 -0.0888889 9.67163 -0.347794 5.59166 0.596314 -0.785419 -0.165914
-10.1165 -13.3935 14.048 -0.266568 0.128593 0 -0.777778 9.69643 -0.77602 0.388045 0.385576 0.0616912 -0.920611
-20.2196 -13.3044 10.6401 0.211921 -0.0799253 0.264241 -1 9.74922 0.53074 1.95357 -0.761396 0.321536 -0.56293
-23.149 -9.1075 13.7925 0.056889 -0.0659309 0 -0.177778 9.87223 0.219697 3.43808 -0.118113 -0.489313 -0.864073
-17.048 -7.02975 6.08975 -0.476217 -0.220636 0 -0.777778 9.87931 0.635334 4.32849 0.706083 -0.625624 0.331724
-21.0245 -13.6438 12.84 0.182942 0.0668438 0 -1 9.90639 0.235309 1.95357 -0.882519 -0.299105 -0.362899
-19.252 -13.9431 9.88231 0.24191 -0.0592983 0 -1 10.0092 0.0174677 1.01134 -0.230642 0.0821338 -0.969566
-23.2985 -8.6565 12.6355 0.145161 -0.146941 0 -1 10.0602 0.171649 3.43808 -0.149108 -0.988821 -0.000164651
-7.28 -5.491 11.3975 -0.283519 0.152419 -0.29028 -0.570924 10.1199 -0.0249235 5.59166 0.646185 0.350058 -0.678163
-13.7907 -2.59575 7.293 -0.043938 0.0703863 0 -0.0888889 10.1393 -0.242704 4.86535 -0.0844454 0.0670477 -0.99417
-7.59244 -11.8614 13.9519 0.163901 0.0343971 0.944132 -1 10.1701 -0.776902 0.388045 -0.370217 -0.0339792 -0.928324
-16.0704 -5.72713 5.64337 -0.140468 -0.219614 -0.360001 -0.537833 10.2063 -0.0838047 4.32849 0.544413 -0.522051 0.656565
-6.6155 -8.35525 10.6219 -0.427657 0.0264769 0 -0.777778 10.213 0.566945 0.0268688 -0.386293 -0.101068 -0.916822
-14.9106 -1.80275 7.49563 -0.306126 0.0778989 0 -0.0888889 10.288 -0.551079 4.86535 -0.00256586 0.0953149 -0.995444
-7.484 -4.46 10.931 -0.311672 0.165819 0 -0.0888889 10.3468 -0.0841359 5.59166 0.864025 -0.387214 -0.321755
-22.8943 -9.02575 11.4333 0.362197 -0.188037 0 -1 10.351 0.631109 4.04798 0.150304 -0.942415 0.298769
-11.1451 -5.506 7.06925 0.081587 -0.125992 0 -0.100888 10.3779 -0.259259 4.99895 -0.383129 -0.923164 -0.031305
-8.76912 -13.3918 14.2046 0.0184744 0.0705684 0 -1 10.3821 -0.796202 0.388045 -0.175225 0.221379 -0.959316
-14.7806 -15.9108 10.7155 0.0091696 0.129082 -0.03043 -0.793104 10.3928 0.290366 1.01134 0.538949 -0.461817 -0.704457
-17.221 -15.7148 9.389 -0.0800823 -0.082029 0 -1 10.4034 0.657691 1.01134 0.133318 0.00501467 -0.991061
-15.8263 -4.70075 6.05 -0.0799593 -0.228066 0 -0.288889 10.4152 -0.469468 4.86535 0.445854 -0.386268 0.807472
-9.86438 -5.89712 6.79975 0.11479 -0.154521 0 -0.155556 10.4279 -0.210574 5.59166 -0.219346 -0.885478 0.409654
-10.5662 -14.6614 13.4996 -0.0944873 0.146051 0 -0.777778 10.431 -0.607692 0.388045 0.587418 0.223629 -0.777773
-6.41062 -11.2571 12.966 -0.00894547 0.0259939 0 -0.923287 10.4533 -0.0763923 0.0268688 -0.359795 -0.377846 -0.8531
-6.201 -9.53975 10.9015 -0.306467 0.0464264 0 -0.777778 10.5025 0.628321 0.0268688 -0.254556 -0.574097 -0.778212
-17.9305 -7.7 5.6845 -0.513793 -0.175804 0 -0.777778 10.5217 0.787553 4.32849 0.473958 -0.878643 0.0578875
-15.9136 -1.95187 7.181 -0.292536 0.139049 0 -0.0888889 10.5404 -0.591677 4.86535 0.618773 0.102756 -0.77882
-6.0475 -10.2502 11.8706 -0.425407 0.0698056 -0.0698766 -0.777778 10.6751 -0.0632294 0.0268688 -0.220518 -0.792602 -0.568467
-21.5298 -9.17 7.988 0.0304505 -0.149492 0 -1 10.6851 0.691841 4.04798 0.129959 -0.990607 -0.042527
-12.3745 -3.36175 7.0435 0.259066 0.104732 0.820334 -0.0888889 10.6889 -0.0846172 4.86535 0.00283395 0.46792 -0.883766
-12.6431 -4.67812 5.88588 -0.0220906 -0.182131 0.162576 -0.25208 10.7711 -0.0594895 4.86535 -0.562668 0.507152 0.652841
-20.7668 -14.7948 10.9923 0.247308 -0.0879133 0.194633 -1 10.8357 0.816357 1.95357 -0.989371 -0.0093741 -0.14511
-20.2013 -14.7099 12.4825 0.293527 0.110021 0 -1 10.8372 -0.319494 1.95357 -0.897953 -0.43703 0.0518187
-8.771 -5.32425 8.028 -0.0419467 -0.176048 0 -0.155556 10.8452 -0.086949 5.59166 0.343575 -0.856788 0.384539
-16.5045 -2.70075 6.00325 -0.242911 0.170952 0 -0.0888889 10.8987 -0.280207 4.86535 0.742702 0.574164 -0.344571
-23.7349 -11.4009 14.8865 0.126947 -0.0495013 0.0924512 -0.301224 10.9011 -0.348377 1.95357 -0.20439 -0.0241314 -0.978592
-23.4648 -9.215 10.282 0.315044 -0.131042 0 -1 10.9086 0.839958 4.04798 -0.116334 -0.992464 -0.0384874
-22.7603 -12.7945 14.5735 -0.147878 -0.0182132 -0.0295089 -1 10.955 -0.0751467 1.95357 -0.444675 -0.157526 -0.881731
-6.354 -6.115 11.122 -0.412697 0.102699 -0.978299 -0.777778 10.9591 0.246731 0.0268688 -0.0415489 0.60929 -0.791858
-19.3487 -8.19125 5.2865 -0.36462 -0.129201 0 -0.777778 10.9861 0.64919 4.32849 0.123666 -0.9825 -0.139282
-23.98 -8.416 14.069 0.0383617 0.0570558 0 -0.177778 10.9881 -0.0189584 3.43808 -0.801276 -0.42702 -0.419059
-23.42 -10.2725 14.429 0.0938083 -0.0128256 0 -0.177778 10.9976 0.153012 1.95357 -0.470196 -0.275288 -0.83853
-9.321 -14.4572 13.7595 -0.0576607 0.0830031 0 -1 11.0557 -0.185821 0.388045 -0.0346642 0.281962 -0.958799
-23.27 -9.02525 9.075 0.108075 -0.125093 0 -1 11.0765 0.324712 4.04798 -0.0507863 -0.993967 -0.0972104
-20.9441 -14.2774 14.1104 0.392027 0.0484544 0 -1 11.0885 -0.459495 1.95357 -0.656228 -0.535194 -0.531913
-21.3472 -8.6665 6.9135 -0.0288818 -0.133873 0 -1 11.1158 -0.410649 4.32849 0.279968 -0.926246 -0.252362
-16.0744 -16.6863 9.843 0.216578 0.115767 0 -1 11.1293 0.773244 1.01134 0.565207 -0.335631 -0.753587
-24.1569 -9.28213 14.6067 0.0760867 0.0139569 0 -0.177778 11.1796 0.0777232 3.43808 -0.65629 -0.196043 -0.728595
-14.434 -3.972 5.968 -0.105477 -0.218865 0 -0.288889 11.2166 0.249956 4.86535 0.435753 0.731254 0.524773
-19.9643 -14.9095 9.72375 0.159746 -0.0333302 0 -1 11.2202 0.806655 1.95357 -0.551402 0.0766464 -0.830711
-7.5055 -4.67975 12.1485 -0.334287 0.208879 0 -0.777778 11.2481 -0.147937 5.59166 0.960251 0.272999 0.0582141
-16.272 -6.41025 4.868 -0.196917 -0.16705 -0.260354 -0.537218 11.2592 0.0206288 4.32849 0.376086 -0.90874 0.180975
-18.377 -16.4015 9.718 0.0589217 -0.0409799 0 -1 11.271 0.246763 1.01134 -0.184434 -0.220216 -0.957856
-12.6915 -2.2385 7.26463 0.0331868 0.100242 0.0298436 -0.0888889 11.2954 0.230133 4.86535 0.235183 0.158478 -0.958944
-12.4464 -16.3261 12.8144 -0.071511 0.0632402 0 -0.377196 11.3193 -0.513734 0.748203 -0.0102562 -0.234887 -0.971969
-22.695 -13.8725 14.969 0.0611497 -0.0235055 0 -0.440453 11.366 -0.541795 1.95357 -0.371655 -0.333765 -0.866299
-13.3985 -16.0914 12.4439 -0.165299 0.113238 -0.416346 -0.701951 11.4036 -0.33361 0.748203 0.338644 -0.620605 -0.707227
-7.4305 -3.96725 9.99225 -0.231811 0.160761 0 -0.0888889 11.4083 -0.0393035 5.59166 0.787945 -0.604228 -0.118537
-13.5662 -1.33525 7.15225 -0.2458 0.0701724 0 -0.0888889 11.4273 0.857317 4.86535 -0.012148 0.0802792 -0.996698
-7.027 -3.47463 10.7847 -0.283751 0.177359 0 -0.0888889 11.4428 0.461161 5.59166 0.95162 -0.28808 0.10691
3 183 121 123
3 155 106 147
3 135 138 81
3 112 138 165
3 143 133 181
3 175 181 133
3 74 93 106
3 74 55 45
3 23 55 42
3 74 42 55
3 78 74 106
3 123 121 78
3 78 118 75
3 68 40 81
3 75 81 40
3 53 40 68
3 53 68 84
3 103 68 112
3 144 103 112
3 151 144 191
3 144 165 191
3 177 136 195
3 136 133 100
3 136 100 145
3 145 100 115
3 115 100 86
3 79 72 43
3 72 46 43
3 43 46 33
3 46 72 76
3 66 95 51
3 51 95 67
3 26 45 22
3 22 10 6
3 21 10 23
3 23 42 21
3 23 10 37
3 10 21 24
3 53 24 21
3 7 10 24
3 63 47 98
3 84 127 99
3 136 145 184
3 172 145 129
3 129 171 172
3 171 129 142
3 86 142 129
3 57 34 36
3 14 11 4
3 34 43 14
3 0 3 4
3 4 1 0
3 24 29 7
3 7 29 8
3 8 29 20
3 98 87 63
3 98 132 87
3 156 128 111
3 117 146 142
3 89 86 57
3 146 110 105
3 105 110 83
3 60 105 83
3 85 60 50
3 50 60 31
3 36 30 60
3 30 31 60
3 4 12 18
3 31 18 44
3 12 16 28
3 16 3 8
3 27 8 20
3 20 32 27
3 32 20 29
3 59 32 58
3 29 58 32
3 32 59 54
3 91 90 126
3 96 59 82
3 128 140 96
3 173 128 161
3 192 189 146
3 131 85 109
3 85 77 116
3 48 73 71
3 73 124 104
3 73 104 71
3 71 104 102
3 130 88 107
3 61 88 73
3 61 28 38
3 64 27 62
3 91 122 107
3 122 126 178
3 178 152 122
3 114 90 140
3 114 126 90
3 140 90 96
3 186 159 131
3 102 92 80
3 80 92 44
3 137 102 134
3 107 164 167
3 164 107 152
3 152 107 122
3 116 137 158
3 196 158 137
3 194 196 137
3 9 5 17
3 86 100 79
3 187 180 143
3 147 143 180
3 181 187 143
3 113 143 147
3 75 118 81
3 81 118 135
3 138 112 81
3 100 72 79
3 72 100 101
3 101 100 133
3 101 133 143
3 101 143 113
3 76 72 101
3 76 101 95
3 95 101 113
3 93 95 113
3 106 93 147
3 147 93 113
3 51 67 45
3 45 67 93
3 45 93 74
3 93 67 95
3 55 22 45
3 37 22 55
3 37 55 23
3 78 42 74
3 75 42 78
3 108 84 103
3 108 103 144
3 103 84 68
3 127 108 151
3 127 151 160
3 144 151 108
3 57 86 43
3 43 86 79
3 14 43 33
3 11 14 33
3 11 33 17
3 11 17 5
3 35 33 46
3 33 35 17
3 66 49 76
3 49 66 41
3 76 49 46
3 46 49 35
3 35 49 41
3 35 41 17
3 39 19 41
3 19 39 26
3 26 39 51
3 66 51 41
3 41 19 17
3 41 51 39
3 45 26 51
3 6 1 15
3 22 6 15
3 22 15 26
3 26 15 19
3 19 15 9
3 9 15 1
3 9 1 5
3 0 1 2
3 7 2 10
3 6 10 2
3 6 2 1
3 56 24 53
3 47 52 24
3 52 47 63
3 47 24 56
3 94 98 47
3 94 47 69
3 94 69 99
3 99 69 56
3 99 56 84
3 56 69 47
3 53 84 56
3 119 94 139
3 99 139 94
3 160 188 139
3 160 139 127
3 127 139 99
3 98 94 119
3 98 119 132
3 170 111 132
3 145 172 184
3 14 36 34
3 3 0 2
3 3 2 7
3 8 3 7
3 63 58 29
3 63 29 52
3 52 29 24
3 87 58 63
3 170 156 111
3 128 156 161
3 146 117 110
3 105 60 85
3 13 31 30
3 13 14 4
3 14 13 30
3 14 30 36
3 18 31 13
3 18 13 4
3 25 44 18
3 25 18 12
3 48 25 28
3 28 25 12
3 27 38 16
3 16 38 28
3 16 8 27
3 32 54 27
3 62 90 91
3 90 54 96
3 54 90 62
3 54 62 27
3 140 128 173
3 154 197 199
3 190 148 154
3 190 154 199
3 109 85 116
3 134 102 104
3 162 104 141
3 162 141 182
3 182 141 157
3 157 141 124
3 104 124 141
3 150 157 124
3 120 150 124
3 120 124 73
3 130 125 88
3 73 88 120
3 120 88 125
3 120 125 150
3 70 107 88
3 38 70 88
3 38 88 61
3 27 64 38
3 64 62 91
3 148 114 154
3 114 148 126
3 126 148 178
3 140 197 154
3 140 154 114
3 109 116 158
3 109 158 131
3 137 116 92
3 102 137 92
3 167 163 130
3 167 130 107
3 125 130 163
3 150 125 163
3 64 91 70
3 107 70 91
3 38 64 70
3 169 132 149
3 169 149 193
3 169 170 132
3 139 166 119
3 119 166 153
3 174 166 139
3 174 139 188
3 119 153 149
3 119 149 132
3 17 19 9
3 123 176 183
3 176 123 155
3 155 123 106
3 135 118 168
3 135 168 185
3 121 168 118
3 135 185 138
3 138 179 165
3 106 123 78
3 78 121 118
3 81 112 68
3 165 144 112
3 136 177 133
3 76 95 66
3 37 10 22
3 53 21 40
3 75 40 42
3 42 40 21
3 84 108 127
3 184 195 136
3 145 115 129
3 86 129 115
3 43 34 57
3 11 5 1
3 11 1 4
3 142 146 189
3 171 142 189
3 86 89 117
3 86 117 142
3 97 83 110
3 97 110 117
3 97 117 89
3 36 60 65
3 36 65 57
3 57 65 89
3 89 65 97
3 97 65 83
3 60 83 65
3 4 3 12
3 16 12 3
3 87 111 82
3 87 82 58
3 58 82 59
3 59 96 54
3 87 132 111
3 111 128 82
3 96 82 128
3 105 131 159
3 105 159 192
3 105 192 146
3 105 85 131
3 50 77 85
3 77 50 44
3 50 31 44
3 25 48 44
3 28 61 48
3 48 61 73
3 126 122 91
3 186 131 158
3 44 92 77
3 77 92 116
3 102 80 71
3 80 44 71
3 71 44 48
3 104 162 134
3 149 198 193
3 149 153 198
