ply
format ascii 1.0
comment Generated by PyMesh
element vertex 200
property float x
property float y
property float z
property float charge
property float ddc
property float hbond
property float hphob
property float rho
property float si
property float theta
property float nx
property float ny
property float nz
element face 343
property list uchar int vertex_indices
end_header
-19.324 -10.4045 14.811 0.166069 0 0 -1 1e-08 -0.157377 2.22045e-16 0.125617 0.949726 -0.286775
-18.3009 -10.4878 14.4353 0.217073 -0.466111 0 -1 1.09308 -0.36447 3.59834 -0.351694 0.898683 -0.262068
-18.4521 -10.3144 15.4754 0.193447 0.305478 0 -0.944124 1.09989 -0.902786 2.8021 -0.275903 0.864479 -0.420183
-20.4439 -10.5723 14.3776 0.139374 0.105884 0 -1 1.2125 0.0620823 2.22045e-16 -0.1757 0.687899 -0.704219
-19.343 -10.0887 16.0842 0.0367197 0.277507 0 -0.959427 1.31192 -0.999899 1.94481 0.269278 0.796883 -0.540802
-20.4977 -9.66825 15.1231 0.138002 -0.390651 -0.771219 -0.31148 1.42023 0.0933316 0.855165 0.461489 0.593141 -0.659705
-19.2892 -10.6217 13.267 0.17298 -0.333024 0 -1 1.55959 0.330198 4.9475 -0.334676 0.910521 -0.242781
-20.5223 -11.3789 13.7464 0.202422 0.2523 0 -1 2.23972 -0.702519 5.81264 -0.520897 0.660354 -0.540924
-17.4824 -9.63325 15.3156 0.240497 -0.361434 0 -0.866667 2.29564 -0.876771 2.99544 -0.740196 0.487666 -0.462917
-18.8542 -9.37125 16.6077 0.147958 -0.214278 0 -0.866667 2.32568 -0.774815 2.16574 -0.0286449 0.379911 -0.924579
-20.1265 -9.2905 16.176 0.276374 -0.440327 -0.870462 -0.262424 2.43416 -0.889417 1.50331 0.611254 0.245662 -0.752342
-21.5238 -10.0594 14.7436 0.0140825 -0.317734 0 -0.302471 2.46279 -0.347971 0.495858 0.230592 0.180458 -0.95617
-21.2502 -8.50362 14.8431 -0.296657 -0.426799 -0.838733 -0.177778 2.8348 -0.200459 1.07901 0.671974 -0.133546 -0.728434
-21.4137 -11.8073 13.9376 0.0435247 0.212655 -0.314608 -1 2.84325 -0.144449 6.05516 -0.545339 0.442209 -0.712079
-16.9587 -9.418 13.788 0.235878 -0.256075 0 -0.866667 2.92747 0.382773 3.4678 -0.698075 0.434666 -0.568996
-16.8458 -10.3915 13.2823 0.230086 -0.033746 0 -0.901769 2.95211 -0.277064 3.85518 -0.0914488 0.806767 -0.58375
-18.04 -10.3495 12.4425 0.180204 -0.13386 0 -1 3.0809 0.790245 4.39526 -0.0188837 0.93446 -0.355567
-18.9442 -11.0352 11.6637 0.331355 -0.130253 0 -1 3.25092 0.380992 4.78918 -0.371316 0.846535 -0.381449
-20.0719 -11.826 12.3647 0.259031 0.220778 0 -1 3.25579 0.068851 5.31231 -0.660231 0.616466 -0.429027
-16.891 -8.604 14.5685 0.296941 -0.337939 0 -0.866667 3.69823 -0.637084 3.14216 -0.911108 0.276913 -0.30529
-19.545 -7.992 16.6395 0.294261 -0.382765 -0.347605 0.404067 3.86858 -0.999927 1.97382 0.269309 -0.335886 -0.902581
-22.4034 -11.3806 14.4312 -0.278896 0.258601 -0.752668 -1 4.02867 0.124264 0.103841 -0.279148 -0.00970253 -0.960199
-17.8437 -7.97316 16.2629 0.254598 -0.327677 0 0.717809 4.08484 -0.731524 2.46803 -0.424628 -0.21275 -0.880016
-21.5989 -7.74388 13.9134 0.105045 -0.464511 -0.0787328 -0.922018 4.08506 -0.280303 1.14928 0.659801 -0.707421 -0.253412
-21.7095 -13.0495 13.7542 0.152812 0.288325 0 -1 4.13329 0.262136 6.00441 -0.650328 -0.14921 -0.744856
-22.3465 -8.49375 14.0885 -0.068124 -0.379449 0 -0.177778 4.16574 -0.569041 0.886935 0.588423 -0.468957 -0.658663
-17.0825 -7.7875 15.585 0.30018 -0.315643 0 -0.191002 4.20333 -0.858649 2.77414 -0.834138 -0.0571497 -0.548587
-17.2897 -10.9758 11.8864 0.274118 0.134407 0 -1 4.20538 0.0577259 4.30171 0.307248 0.871201 -0.382894
-20.0229 -7.55125 15.8363 0.178879 -0.418694 -0.317033 0.147612 4.2093 -0.207275 1.68776 0.562908 -0.387783 -0.729903
-20.6695 -7.0855 15.0363 0.123762 -0.402865 -0.585066 -0.0157454 4.37934 -0.757273 1.4548 0.67072 -0.488536 -0.558093
-21.164 -12.614 12.603 0.138973 0.263404 0 -1 4.42258 0.670374 5.63875 -0.847744 0.221375 -0.481999
-15.3629 -10.7626 12.8304 0.136983 -0.0612538 -0.394883 -0.790553 4.54614 -0.999862 3.82268 -0.332311 0.671036 -0.662782
-15.4358 -9.10581 13.2952 0.96659 -0.140534 0 -0.866667 4.55827 -0.179197 3.49492 -0.419749 0.28432 -0.861959
-23.149 -9.1075 13.7925 0.056889 -0.301275 0 -0.177778 4.57276 0.219697 0.670734 -0.118113 -0.489313 -0.864073
-18.8921 -11.6245 10.3421 0.378147 -0.10729 0 -1 4.69888 0.788944 4.86661 -0.543557 0.608633 -0.578024
-16.4895 -7.686 14.14 0.249945 -0.25608 0 -0.866667 4.75609 0.0837004 3.04268 -0.666855 -0.076441 -0.741257
-16.3521 -11.4514 11.8585 -0.0251259 -0.0718793 0 -0.892942 4.79448 -0.62583 4.14299 0.0602094 0.903033 -0.42533
-20.6022 -13.328 11.6995 0.196928 0.25487 0.638818 -1 4.98198 0.109021 5.47123 -0.936276 0.084451 -0.340963
-21.0245 -13.6438 12.84 0.182942 0.326654 0 -1 5.01786 0.235309 5.72571 -0.882519 -0.299105 -0.362899
-17.642 -11.1625 10.057 0.112985 0.0279894 0 -1 5.32297 0.999901 4.58135 0.0708431 0.739224 -0.669724
-20.324 -6.3865 14.3372 0.221022 -0.407587 0 1 5.42658 -0.999791 1.61751 0.499942 -0.811387 -0.302835
-23.7349 -11.4009 14.8865 0.126947 0.187027 0.0924512 -0.301224 5.43601 -0.348377 0.213159 -0.20439 -0.0241314 -0.978592
-22.7603 -12.7945 14.5735 -0.147878 0.239549 -0.0295089 -1 5.48992 -0.0751467 6.20755 -0.444675 -0.157526 -0.881731
-18.7805 -6.90188 15.6709 0.205645 -0.412618 0 1 5.5151 -0.444014 2.08282 0.146899 -0.741063 -0.655169
-21.936 -7.92137 12.5278 0.265757 -0.448782 0 -1 5.52208 -0.340597 1.13406 0.511917 -0.808369 0.290657
-20.2196 -13.3044 10.6401 0.211921 0.158391 0.264241 -1 5.53213 0.53074 5.30355 -0.761396 0.321536 -0.56293
-23.42 -10.2725 14.429 0.0938083 0.270349 0 -0.177778 5.53246 0.153012 0.352067 -0.470196 -0.275288 -0.83853
-20.9441 -14.2774 14.1104 0.392027 0.332699 0 -1 5.62341 -0.459495 5.88662 -0.656228 -0.535194 -0.531913
-14.5136 -10.6986 12.1084 0.0093171 0.045297 -0.611101 -0.794638 5.66269 0.104646 3.81561 -0.118791 0.560971 -0.819268
-23.98 -8.416 14.069 0.0383617 0.274406 0 -0.177778 5.68864 -0.0189584 0.664049 -0.801276 -0.42702 -0.419059
-18.0872 -12.0767 9.72775 0.317003 0.105751 0 -1 5.80784 0.721577 4.79743 -0.144112 0.253934 -0.956425
-23.2985 -8.6565 12.6355 0.145161 -0.382897 0 -1 5.82352 0.171649 0.833748 -0.149108 -0.988821 -0.000164651
-15.4591 -7.77588 13.7755 0.861067 -0.182193 0.088854 -0.773651 5.85275 -0.734937 3.06424 -0.501152 0.0173468 -0.865186
-24.1569 -9.28213 14.6067 0.0760867 0.224082 0 -0.177778 5.88015 0.0777232 0.551396 -0.65629 -0.196043 -0.728595
-19.4224 -12.7526 9.99325 0.243005 0.124665 0 -1 5.88338 0.845049 5.15919 -0.537361 0.287897 -0.79269
-22.695 -13.8725 14.969 0.0611497 0.235899 0 -0.440453 5.90085 -0.541795 6.15719 -0.371655 -0.333765 -0.866299
-14.5334 -8.09988 12.9789 1 -0.172804 0 -0.866667 5.94617 0.0769332 3.31226 -0.416646 -0.127902 -0.900026
-17.911 -6.2715 15.196 0.204766 -0.349351 0 1 5.9742 -0.999889 2.38463 -0.413333 -0.739608 -0.531165
-15.8385 -6.69825 13.663 0.586543 -0.260354 0.523724 -0.177778 6.03162 -0.999858 3.06424 -0.370887 -0.574621 -0.729557
-15.234 -11.3053 11.3237 -0.52401 -0.0493107 -0.342352 -0.777778 6.04248 0.190645 3.81561 -0.100538 0.894178 -0.436278
-17.0045 -6.579 13.7055 0.209189 -0.344251 0.0484967 -0.177778 6.05203 0.0532711 3.04268 -0.372483 -0.798344 -0.473185
-20.79 -7.24388 12.0931 0.140248 -0.428372 0 -0.610956 6.13879 -0.22274 1.13406 0.580424 -0.770568 0.263312
-23.8135 -12.9655 14.8745 0.151873 0.187728 0.27264 -0.393071 6.19588 -0.0725685 6.20755 -0.0165388 -0.164178 -0.986292
-16.3331 -11.9799 10.336 0.035176 0.0637532 -0.599444 -0.798871 6.28553 0.0823546 4.58135 0.25465 0.623967 -0.738795
-20.2013 -14.7099 12.4825 0.293527 0.323895 0 -1 6.41143 -0.319494 5.72571 -0.897953 -0.43703 0.0518187
-13.842 -9.499 12.3448 0.385083 0.108511 0.846334 -0.866667 6.45513 0.583064 3.81561 0.114291 0.198146 -0.973486
-20.7668 -14.7948 10.9923 0.247308 0.216303 0.194633 -1 6.61866 0.816357 5.30355 -0.989371 -0.0093741 -0.14511
-24.8075 -12.0948 14.653 0.300281 -0.109323 0.715205 -0.177778 6.73466 0.221262 0.213159 0.152374 0.243081 -0.957963
-20.213 -6.25775 13.0215 0.18907 -0.42069 0 -0.80846 6.75322 -0.856385 1.61751 0.370986 -0.88433 0.283425
-24.2743 -7.45813 13.5571 0.058323 0.256471 0 -1 6.81388 0.0498146 0.664049 -0.927345 -0.362319 -0.0935721
-18.3202 -13.137 9.70988 0.36375 0.136753 0 -1 6.89358 0.60542 4.79743 -0.0848291 0.0187486 -0.996219
-24.6903 -10.3582 15.2692 0.354657 0.149128 0 -0.177778 6.90109 -0.506523 0.551396 -0.331744 0.0426787 -0.942404
-17.0565 -12.6155 9.80875 0.217744 0.131369 0 -1 6.90905 0.619101 4.79743 0.274633 0.11672 -0.954439
-19.252 -13.9431 9.88231 0.24191 0.123841 0 -1 6.91721 0.0174677 5.15919 -0.230642 0.0821338 -0.969566
-20.1612 -15.324 14.3276 0.265798 0.25643 0.0100821 -0.594202 6.94835 -0.87813 5.88662 -0.659343 -0.395084 -0.639669
-24.5421 -7.63413 14.8821 -0.0393823 0.2077 0 -0.177778 6.94896 -0.270768 0.664049 -0.897409 -0.127787 -0.422288
-25.0569 -9.07125 15.4163 0.127213 0.134079 0 -0.177778 7.10894 -0.140422 0.551396 -0.546323 0.134883 -0.826643
-21.8455 -15.0938 14.9732 0.117286 0.199937 0 -0.155556 7.11453 -0.353536 6.15719 -0.359799 -0.248848 -0.899233
-22.8943 -9.02575 11.4333 0.362197 -0.383166 0 -1 7.14451 0.631109 0.833748 0.150304 -0.942415 0.298769
-18.6523 -6.01937 14.132 0.176105 -0.3972 0 0.0998822 7.15038 -0.501133 2.38463 0.0278223 -0.975824 -0.216778
-14.9095 -11.794 10.3015 -0.38135 0.0489173 -0.0268627 -0.777778 7.22105 0.773584 3.81561 0.13334 0.56375 -0.815111
-13.3403 -7.75063 12.6695 0.488417 -0.187869 0 -0.477887 7.22726 0.309244 3.31226 -0.078355 -0.532924 -0.842527
-12.9963 -10.7945 12.6664 -0.0510023 0.0803911 0.0462799 -0.793793 7.28218 -0.562432 3.81561 0.319079 0.427744 -0.845709
-15.3011 -6.19775 12.604 0.50108 -0.225668 -0.194779 -0.177778 7.32034 -0.206937 3.31226 -0.272386 -0.641142 -0.717456
-16.9878 -6.00616 12.5084 0.16828 -0.323038 0 -0.177778 7.37924 -0.268516 3.04268 0.0390774 -0.970228 -0.23902
-19.9643 -14.9095 9.72375 0.159746 0.12349 0 -1 7.39794 0.806655 5.30355 -0.551402 0.0766464 -0.830711
-24.362 -7.525 11.982 0.235323 -0.258133 0 -1 7.50827 0.0892188 0.833748 -0.886754 -0.400919 0.230069
-24.2787 -14.2273 15.3814 0.0961013 0.213422 -0.0270824 -0.164799 7.57539 0.0609397 6.15719 -0.187205 -0.581612 -0.791632
-21.7401 -8.90375 10.7118 0.347503 -0.38279 0 -1 7.59603 0.945378 1.13406 0.36967 -0.912761 0.173817
-15.6134 -13.1465 10.1267 -0.0775537 0.128165 -0.157177 -0.941284 7.67216 0.300933 4.58135 0.135047 0.00100278 -0.990839
-20.5179 -15.9096 11.1258 0.35212 0.227836 0 -1 7.76868 0.860416 5.30355 -0.938621 -0.344245 -0.0220189
-19.261 -6.84125 11.6965 -0.243992 -0.411748 0 -0.0888889 7.76889 0.277998 1.13406 0.368084 -0.864345 0.342669
-20.3315 -7.74131 10.5953 0.199796 -0.378535 0.0211574 -0.577367 7.78228 -0.0744587 1.13406 0.524645 -0.768145 0.367016
-24.2651 -8.96638 10.8674 0.19289 -0.278856 0 -1 7.86227 0.768214 0.833748 -0.64891 -0.734414 0.198877
-13.0511 -12.0589 11.1349 -0.266539 0.0580969 0 -0.777778 7.88463 0.257586 3.81561 0.334992 0.609531 -0.718507
-19.1028 -6.053 12.8455 0.0926913 -0.407025 -0.218172 -0.149494 7.89578 -0.584342 1.61751 0.136644 -0.958058 0.251901
-24.4695 -6.49 14.027 -0.0499607 0.217817 0 -1 7.90758 -0.664869 0.664049 -0.972331 -0.202944 -0.1157
-12.4315 -8.2485 13.1453 0.53482 0.14577 0 -0.483678 8.05988 -0.394484 3.31226 0.145432 -0.269293 -0.952014
-17.3151 -13.7944 9.69925 0.0670877 0.122043 0 -1 8.09463 0.114218 4.79743 0.128148 0.0611198 -0.98987
-25.9482 -10.5319 15.2934 0.119435 0.0588256 0 -0.177778 8.17116 -0.207479 0.551396 -0.0906333 0.436551 -0.895103
-25.6367 -13.6027 14.3519 0.60449 0.17155 -0.0889253 -0.177778 8.19668 0.742521 0.213159 0.157091 -0.424198 -0.89184
-19.3857 -16.0071 13.5597 0.134442 0.233003 0.116609 -0.830473 8.23587 -0.717768 5.88662 -0.890953 -0.26768 -0.36681
-22.1509 -16.184 15.2255 -0.135481 0.156963 -0.466169 -0.155556 8.27447 0.425204 6.15719 -0.4255 -0.171971 -0.888468
-26.1826 -11.346 14.5651 0.131163 -0.0640917 0 -0.177778 8.30289 0.334408 0.213159 0.187801 0.455244 -0.870336
-24.6031 -6.60281 12.3184 0.157184 0.221947 0 -1 8.35468 0.0425916 0.664049 -0.963841 -0.218366 0.152733
-20.6803 -16.614 14.708 0.450913 0.165154 0.0118448 -0.155556 8.38997 -0.0415301 5.88662 -0.473438 -0.201414 -0.85749
-12.997 -6.8425 12.0225 0.164346 -0.18012 0 -0.0888889 8.39395 0.101263 3.31226 -0.0988507 -0.649519 -0.753892
-19.8773 -15.9108 9.7025 0.197117 0.159005 0 -1 8.40323 0.926023 5.30355 -0.574519 -0.335193 -0.746708
-12.1716 -9.38762 13.3766 0.192425 0.0976705 -0.0349964 -0.858767 8.42166 -0.999812 3.31226 0.174566 0.148977 -0.97331
-23.4648 -9.215 10.282 0.315044 -0.295737 0 -1 8.44327 0.839958 0.833748 -0.116334 -0.992464 -0.0384874
-17.401 -6.03675 11.4762 0.108734 -0.317411 0 -0.16549 8.49149 -0.137755 3.04268 0.51537 -0.855702 0.0465509
-19.3253 -16.6465 12.5305 0.13931 0.243741 0 -1 8.53749 -0.2943 5.72571 -0.920531 -0.347953 0.177628
-25.071 -6.36575 15.7308 -0.2382 0.175952 -0.294658 -1 8.56414 -0.033256 0.664049 -0.961125 -0.0348825 -0.2739
-25.3223 -7.353 16.2712 -0.112491 0.120389 -0.533627 -0.177778 8.56678 -0.351625 0.664049 -0.751181 0.277511 -0.598928
-13.9409 -12.787 10.2555 -0.370037 0.108496 0 -0.777778 8.60898 0.999792 3.81561 0.321426 0.100952 -0.941538
-11.7086 -11.227 12.6416 -0.43896 0.0480423 -0.835421 -0.777778 8.6408 -0.400173 3.81561 0.155044 0.504703 -0.849256
-24.6623 -7.54462 10.8359 0.407607 -0.21894 0 -1 8.69322 0.314172 0.833748 -0.941904 -0.298514 0.153971
-15.3027 -14.1698 10.387 -0.152064 0.140101 -0.207425 -0.777778 8.77281 -0.550768 4.58135 0.210353 -0.150234 -0.966013
-18.333 -6.3345 12.108 0.091576 -0.392882 -0.120039 -0.0912609 8.82066 0.282037 1.61751 0.250826 -0.908366 0.3346
-21.3273 -8.8025 9.55481 0.264206 -0.328913 0 -1 8.82862 -0.0240967 1.13406 0.2227 -0.958482 0.178095
-23.6983 -15.4121 15.7929 0.0480037 0.17631 0 -0.155556 8.95739 0.0976707 6.15719 -0.505832 -0.346783 -0.789858
-19.3347 -7.254 9.89163 0.152654 -0.329064 0.287924 -0.63516 9.09614 -0.651943 1.13406 0.48933 -0.816662 0.305973
-24.6496 -5.57312 13.2814 0.0897943 -0.211102 0 -1 9.103 -0.357939 0.664049 -0.915522 -0.399765 -0.0448003
-26.873 -9.08488 16.3076 -0.24996 0.0705905 -0.251729 -0.177778 9.13201 0.346423 0.551396 -0.542181 0.464401 -0.700266
-19.7464 -17.0767 10.7243 0.504503 0.206914 0.826967 -1 9.2242 0.999866 5.30355 -0.631306 -0.724487 -0.276715
-11.4593 -7.06425 12.5245 0.36085 -0.160317 0 -0.534173 9.23483 -0.845022 3.31226 -0.0430158 -0.6673 -0.743546
-24.3194 -8.68213 9.49525 0.312904 -0.227312 0 -1 9.26461 0.446673 0.833748 -0.684471 -0.726125 -0.0651303
-24.994 -5.30963 14.6462 -0.180587 0.188324 -0.692479 -1 9.3287 -0.0334196 0.664049 -0.963333 -0.239604 -0.120742
-15.803 -4.925 11.1187 -0.006921 -0.210362 -0.811647 -0.177778 9.33972 -0.25577 3.31226 0.354256 -0.763653 -0.539757
-11.7505 -12.7638 11.138 -0.053411 0.0998128 0 -0.777778 9.36397 0.999888 3.81561 0.546991 0.154282 -0.822799
-25.1311 -14.8569 16.837 -0.00252388 0.191896 -0.589244 -0.170628 9.37587 -0.311806 6.15719 -0.561717 -0.619481 -0.548377
-22.8726 -16.7812 15.842 -0.203905 0.173661 -0.523941 -0.155556 9.39589 0.298519 6.15719 -0.536079 -0.44307 -0.718546
-12.3375 -6.3815 11.3695 0.125123 -0.192203 0 -0.0888889 9.43023 -0.0946285 3.31226 -0.259074 -0.89831 -0.354851
-18.377 -16.4015 9.718 0.0589217 0.128628 0 -1 9.53185 0.246763 5.15919 -0.184434 -0.220216 -0.957856
-13.6006 -5.50238 11.3686 0.099116 -0.172661 0 -0.0888889 9.53426 -0.327554 3.31226 -0.430903 -0.636383 -0.639796
-16.2515 -14.8927 10.0135 0.14685 0.123252 0 -1 9.53474 -0.222322 4.79743 0.41567 0.0408365 -0.908598
-20.1845 -8.6605 9.077 0.175931 -0.31785 0 -1 9.56322 0.901947 1.13406 0.476436 -0.824735 0.304665
-27.443 -11.1007 14.2665 0.0553523 0.043631 0 -0.177778 9.62119 0.999909 0.213159 -0.248144 0.492462 -0.83421
-26.8141 -14.1469 15.035 -0.246588 0.185047 -0.846017 -0.177778 9.66265 0.790738 0.213159 -0.226286 -0.79144 -0.567819
-23.27 -9.02525 9.075 0.108075 -0.257933 0 -1 9.68052 0.324712 0.833748 -0.0507863 -0.993967 -0.0972104
-19.0355 -17.5035 11.8131 0.152427 0.200971 0.125576 -1 9.69208 0.0304059 5.72571 -0.792987 -0.558629 -0.243117
-25.0672 -5.18225 15.6625 -0.299425 0.172329 -0.00553489 -1 9.74962 0.0624215 0.664049 -0.999723 0.0152582 -0.0179421
-24.8995 -7.225 9.8345 0.408823 -0.178026 0.100114 -1 9.77082 0.252499 0.833748 -0.992452 -0.112955 0.0477527
-13.0988 -13.906 10.6888 -0.210775 0.134102 0 -0.777778 9.78544 0.412374 3.81561 0.488421 -0.186139 -0.852524
-27.2073 -12.3658 14.2268 0.0340617 0.120516 0 -0.177778 9.78762 0.656503 0.213159 -0.247566 -0.171873 -0.953505
-17.8043 -6.68175 10.2825 0.213745 -0.312944 0 -0.0888889 9.80526 0.461547 1.13406 0.530315 -0.818463 0.221099
-11.244 -12.127 12.0522 -0.109208 0.0995206 0 -0.777778 9.81266 0.314558 3.81561 0.665982 0.292855 -0.686079
-25.3781 -5.99813 16.916 -0.0399433 0.120497 0 -0.420696 9.84248 -0.396948 0.664049 -0.837572 0.234685 -0.493352
-10.486 -11.3888 12.7402 -0.537483 0.112304 -0.133567 -0.777778 9.878 0.266172 3.81561 0.450092 -0.105326 -0.886749
-25.0375 -6.1895 10.903 0.136225 0.171318 0 -1 9.89185 0.585142 0.664049 -0.998942 -0.0459705 0.00106772
-10.6558 -8.67522 13.3047 -0.123091 -0.112428 0 -0.710011 9.89308 -0.612036 3.31226 -0.176408 -0.207952 -0.9621
-21.7003 -17.7903 15.2955 -0.273078 0.198327 -0.653385 -0.155556 9.94425 0.673085 6.15719 -0.338865 -0.766095 -0.54614
-13.9121 -14.6616 10.49 -0.52379 0.138313 0 -0.777778 9.97909 0.655903 3.81561 0.279298 -0.289262 -0.915598
-27.7169 -10.416 15.7773 0.038209 0.0619313 0 -0.177778 10.0085 0.246792 0.551396 -0.561029 0.661907 -0.497118
-17.221 -15.7148 9.389 -0.0800823 0.106509 0 -1 10.0422 0.657691 4.79743 0.133318 0.00501467 -0.991061
-20.121 -18.161 15.2113 0.20162 0.214106 -0.357758 -0.598756 10.1102 0.240349 5.88662 -0.555218 -0.796159 -0.24055
-26.3605 -7.1855 17.4255 -0.144245 0.104517 -0.496914 -0.203284 10.1283 -0.0453567 0.664049 -0.79986 0.333164 -0.499225
-19.5499 -17.8784 14.2705 0.181288 0.171254 0 -1 10.1415 -0.34644 5.88662 -0.904105 -0.189099 -0.383192
-10.6073 -10.0638 12.9993 -0.544387 0.0676998 -0.00833951 -0.777778 10.1671 0.238591 3.81561 -0.00148864 0.236394 -0.971656
-26.7301 -14.3379 16.3348 -0.300498 0.205011 -0.798241 -0.177778 10.208 0.122828 6.15719 -0.224134 -0.942859 -0.246537
-11.4605 -13.5615 11.6944 -0.0795003 0.149446 0 -0.777778 10.3789 0.999811 3.81561 0.788617 -0.285382 -0.544646
-18.6355 -17.4405 10.5407 0.216114 0.186035 0.333194 -1 10.4075 0.414409 5.15919 -0.403905 -0.746356 -0.528973
-27.6816 -9.48 17.2225 -0.016872 0.112326 0 -0.177778 10.4154 0.294381 0.551396 -0.839213 0.537233 -0.0842804
-21.5298 -9.17 7.988 0.0304505 -0.255064 0 -1 10.4506 0.691841 1.13406 0.129959 -0.990607 -0.042527
-17.1159 -5.79738 9.5235 0.256873 -0.229157 0 -0.160835 10.4794 0.0971588 3.04268 0.853315 -0.519417 -0.0453887
-18.6239 -7.34106 8.705 0.0570087 -0.272583 0 -0.0888889 10.4821 0.0479925 1.13406 0.53879 -0.830792 0.139607
-27.0502 -8.16725 17.2865 -0.204241 0.101352 -0.581889 -0.177778 10.4854 0.633277 0.551396 -0.80342 0.523062 -0.28447
-25.93 -14.7115 17.6225 -0.0243793 0.187181 -0.81524 -0.177778 10.5056 -0.872975 6.15719 -0.337197 -0.789396 -0.512984
-24.9455 -4.472 12.149 0.089358 0.117349 0 -0.988469 10.5195 0.208074 0.664049 -0.869816 0.163171 -0.465613
-25.4662 -4.19425 14.3174 0.0128769 -0.2011 -0.170267 -0.905593 10.5838 -0.311806 0.664049 -0.738833 -0.651896 0.170754
-14.7806 -15.9108 10.7155 0.0091696 0.164728 -0.03043 -0.793104 10.6199 0.290366 4.79743 0.538949 -0.461817 -0.704457
-24.5791 -8.30962 8.16063 0.4171 -0.186586 0.110137 -1 10.6744 0.479351 0.833748 -0.825595 -0.561846 -0.052172
-10.918 -6.34381 11.3474 0.0814103 -0.174926 0 -0.674742 10.7173 -0.585778 3.31226 -0.0343879 -0.954799 -0.295256
-20.1338 -8.74375 7.88375 0.118923 -0.250292 0 -1 10.7604 0.766052 1.13406 0.446913 -0.885445 -0.127498
-15.2399 -4.01038 10.1786 0.048477 -0.186503 0.0615469 -0.0972704 10.7671 -0.428873 3.31226 0.0501641 -0.892009 -0.449225
-14.4446 -4.32575 10.8495 -0.113263 -0.176992 -0.487567 -0.132564 10.8486 -0.99988 3.31226 -0.216204 -0.790347 -0.573243
-24.8498 -4.58025 16.602 -0.132577 0.165476 0 -1 10.8864 -0.999891 0.664049 -0.979338 -0.130903 -0.154149
-18.4757 -18.5233 12.208 0.291693 0.143167 0 -1 10.9206 -0.447021 5.72571 -0.711973 -0.297761 -0.63595
-23.3092 -8.954 7.83125 0.126326 -0.223624 0 -1 10.9269 0.406413 0.833748 -0.269986 -0.961625 -0.0488332
-12.9268 -5.85825 10.0618 0.066468 -0.179515 0 -0.0888889 10.957 0.523431 3.31226 -0.698661 -0.694381 -0.17236
-22.3715 -18.0075 16.6774 -0.194313 0.199443 -0.123332 -0.155556 10.962 0.37083 6.15719 -0.178282 -0.902509 -0.392038
-12.061 -6.426 9.85625 0.0687357 -0.189754 0 -0.0888889 10.9692 0.594472 3.31226 -0.196044 -0.978588 -0.0627064
-16.623 -4.8675 9.69606 0.265922 -0.198949 0.0800778 -0.132375 10.9828 -0.580168 3.31226 0.79169 -0.538524 -0.288476
-24.3081 -16.9456 17.0079 0.0212302 0.1591 0 -0.155556 11.0067 0.728925 6.15719 -0.668279 -0.464985 -0.580682
-25.159 -7.1915 8.578 0.205926 0.145056 0.769499 -1 11.0543 0.822644 0.833748 -0.99791 0.0161028 -0.0625766
-17.9685 -18.186 11.2349 0.240915 0.170229 0.715229 -1 11.0844 0.0839666 5.72571 -0.42107 -0.684467 -0.595151
-25.2713 -3.80669 15.5155 -0.00328846 -0.19662 0 -0.963744 11.0869 -0.660675 0.664049 -0.774085 -0.592939 0.221848
-9.68125 -7.01875 11.9342 0.185112 -0.134983 0 -0.777778 11.1089 -0.71361 3.31226 -0.393483 -0.648419 -0.651709
-17.0845 -17.4163 9.75125 0.224303 0.153164 0.0618687 -1 11.1755 0.999876 5.15919 0.00464454 -0.611645 -0.791119
-10.7312 -12.692 13.1929 -0.33857 0.141281 0 -0.777778 11.185 -0.782297 3.81561 0.79296 -0.188557 -0.579363
-24.6723 -6.2505 8.82925 0.308316 -0.135636 0.0893703 -1 11.1892 -0.429831 0.833748 -0.958404 0.28176 0.0455346
-28.1464 -13.4074 15.1665 -0.0681823 0.161632 0 -0.177778 11.1921 0.878492 0.213159 -0.62013 -0.640603 -0.452844
-26.0491 -4.00919 13.2559 0.1678 -0.163768 0.254854 -0.829949 11.2018 0.326268 0.664049 -0.679656 -0.636671 -0.364305
-25.6378 -15.9764 18.1946 0.00492063 0.135259 -0.357057 -0.165787 11.207 -0.598647 6.15719 -0.421475 -0.41964 -0.803904
-28.5869 -11.8099 15.1442 0.0197417 0.103892 0 -0.177778 11.228 0.99985 0.213159 -0.844112 0.175393 -0.506668
-24.5348 -5.35962 9.98388 0.164762 0.119769 0 -1 11.2283 0.131616 0.664049 -0.895138 0.434021 -0.101751
-17.4675 -6.8385 8.893 0.0557223 -0.248439 0 -0.0888889 11.2436 0.738786 1.13406 0.745376 -0.6652 0.0438689
-20.1497 -17.8965 16.3142 0.295448 0.252596 -0.296341 -0.155556 11.2448 -0.0628917 5.88662 -0.0822094 -0.962594 0.258176
-19.2798 -18.357 13.0977 0.198775 0.160912 0 -1 11.2536 0.320299 5.88662 -0.919792 -0.196049 -0.339924
-9.599 -7.886 12.478 0.0152166 -0.124003 0 -0.777778 11.2691 -0.714466 3.31226 -0.444608 -0.470896 -0.761958
3 192 122 169
3 186 169 127
3 186 127 141
3 112 147 141
3 75 127 96
3 69 96 104
3 104 149 116
3 149 142 116
3 142 149 195
3 142 195 190
3 116 142 126
3 171 178 126
3 178 119 139
3 139 119 88
3 166 156 113
3 166 123 162
3 153 123 99
3 49 53 75
3 51 49 69
3 75 69 49
3 86 104 116
3 93 126 109
3 139 109 126
3 78 44 51
3 144 103 100
3 100 103 67
3 71 53 46
3 71 46 41
3 33 21 46
3 41 46 21
3 61 23 44
3 61 68 40
3 118 68 91
3 61 91 68
3 92 61 44
3 88 119 92
3 92 136 121
3 196 145 165
3 121 165 145
3 164 145 196
3 191 144 138
3 87 77 120
3 62 100 67
3 41 21 62
3 42 62 21
3 42 24 55
3 24 21 13
3 24 13 38
3 38 13 30
3 30 13 18
3 7 3 6
3 3 0 6
3 6 0 1
3 0 3 5
3 10 12 28
3 28 12 29
3 43 40 79
3 79 84 60
3 110 84 118
3 118 91 110
3 118 84 95
3 84 110 128
3 164 128 110
3 83 84 128
3 159 191 138
3 159 100 87
3 77 102 120
3 131 120 102
3 47 77 55
3 24 38 47
3 64 38 37
3 37 66 64
3 66 37 45
3 18 45 37
3 17 16 27
3 15 14 32
3 16 6 15
3 52 56 32
3 32 35 52
3 128 134 83
3 83 134 81
3 81 134 106
3 197 151 155
3 155 151 105
3 155 105 157
3 102 77 105
3 74 77 47
3 66 85 90
3 54 73 45
3 34 18 17
3 73 70 98
3 98 70 72
3 63 98 72
3 89 63 80
3 80 63 59
3 27 36 63
3 36 59 63
3 32 65 48
3 59 48 94
3 65 97 108
3 97 56 81
3 125 81 106
3 106 132 125
3 132 106 134
3 181 132 179
3 134 179 132
3 132 181 172
3 133 85 73
3 135 89 117
3 89 114 152
3 115 148 146
3 148 189 146
3 146 189 160
3 158 108 150
3 199 125 187
3 177 198 140
3 198 157 140
3 140 157 111
3 140 111 124
3 124 111 90
3 161 124 133
3 160 143 129
3 129 143 94
3 26 19 8
3 18 13 7
3 103 153 99
3 122 127 169
3 168 122 192
3 147 176 141
3 186 141 176
3 156 147 113
3 112 113 147
3 76 113 75
3 75 113 112
3 69 75 96
3 104 96 122
3 122 96 127
3 104 122 168
3 153 162 123
3 99 123 76
3 99 76 71
3 71 76 53
3 53 49 33
3 51 33 49
3 46 53 33
3 25 33 51
3 121 136 165
3 165 136 173
3 41 67 71
3 71 67 99
3 99 67 103
3 62 67 41
3 13 3 7
3 3 13 11
3 11 13 21
3 11 21 33
3 11 33 25
3 5 3 11
3 5 11 12
3 12 11 25
3 23 12 25
3 44 23 51
3 51 23 25
3 28 29 40
3 40 29 23
3 40 23 61
3 23 29 12
3 68 79 40
3 95 79 68
3 95 68 118
3 92 91 61
3 121 91 92
3 100 138 144
3 55 77 87
3 55 87 62
3 55 62 42
3 62 87 100
3 17 18 6
3 6 18 7
3 15 6 1
3 14 15 1
3 14 1 8
3 14 8 19
3 2 1 0
3 1 2 8
3 10 4 5
3 4 10 9
3 5 4 0
3 0 4 2
3 2 4 9
3 2 9 8
3 20 22 9
3 22 20 43
3 43 20 28
3 10 28 9
3 9 22 8
3 9 28 20
3 40 43 28
3 60 35 57
3 79 60 57
3 79 57 43
3 43 57 22
3 22 57 26
3 26 57 35
3 26 35 19
3 52 35 58
3 83 58 84
3 60 84 58
3 60 58 35
3 182 128 164
3 174 175 128
3 174 128 182
3 130 193 167
3 159 130 167
3 183 193 130
3 159 87 130
3 130 87 120
3 130 120 183
3 131 183 120
3 38 64 47
3 15 27 16
3 56 52 58
3 56 58 83
3 81 56 83
3 175 134 128
3 74 105 77
3 74 47 64
3 66 90 64
3 73 54 70
3 98 63 89
3 31 59 36
3 31 15 32
3 15 31 36
3 15 36 27
3 48 59 31
3 48 31 32
3 82 94 48
3 82 48 65
3 115 82 108
3 108 82 65
3 125 150 97
3 97 150 108
3 97 81 125
3 132 172 125
3 172 187 125
3 101 111 157
3 74 101 105
3 105 101 157
3 64 90 111
3 64 111 101
3 64 101 74
3 117 89 152
3 125 199 150
3 161 185 140
3 161 140 124
3 140 185 177
3 117 152 170
3 117 170 135
3 8 22 26
3 141 127 112
3 112 127 75
3 195 149 168
3 168 149 104
3 142 190 184
3 142 184 171
3 126 142 171
3 178 163 119
3 113 76 123
3 166 113 123
3 53 76 75
3 51 69 86
3 86 69 104
3 51 86 93
3 116 93 86
3 116 126 93
3 51 93 78
3 78 93 109
3 178 139 126
3 88 109 139
3 109 88 78
3 78 88 44
3 173 136 163
3 119 163 136
3 137 153 103
3 137 103 144
3 137 144 194
3 137 194 153
3 44 88 92
3 92 119 136
3 144 191 194
3 24 42 21
3 5 12 10
3 95 84 79
3 164 110 145
3 121 145 91
3 91 145 110
3 100 159 138
3 47 55 24
3 38 30 37
3 18 37 30
3 6 16 17
3 14 19 35
3 14 35 32
3 151 102 105
3 180 131 151
3 131 102 151
3 45 73 85
3 66 45 85
3 18 34 54
3 18 54 45
3 50 72 70
3 50 70 54
3 50 54 34
3 27 63 39
3 27 39 17
3 17 39 34
3 34 39 50
3 50 39 72
3 63 72 39
3 32 56 65
3 97 65 56
3 85 107 90
3 107 85 133
3 98 135 154
3 98 154 133
3 98 133 73
3 98 89 135
3 80 114 89
3 114 80 94
3 80 59 94
3 82 115 94
3 108 158 115
3 115 158 148
3 124 90 107
3 133 124 107
3 133 188 161
3 161 188 185
3 154 188 133
3 94 143 114
3 114 143 152
3 160 129 146
3 129 94 146
3 146 94 115
