ply
format ascii 1.0
comment Generated by PyMesh
element vertex 200
property float x
property float y
property float z
property float charge
property float ddc
property float hbond
property float hphob
property float rho
property float si
property float theta
property float nx
property float ny
property float nz
element face 329
property list uchar int vertex_indices
end_header
-10.6545 -6.58 5.099 -0.231375 0 -0.785561 -0.155556 1e-08 0.0986189 2.22045e-16 -0.376602 -0.822101 0.426991
-11.1847 -6.68075 4.23925 -0.0631667 -0.159298 -0.288505 -0.246484 1.0151 -0.683221 1.91409 -0.0615404 -0.835508 0.546021
-9.58838 -7.17572 5.35656 -0.0720867 -0.269977 0 -0.155556 1.24813 0.200363 4.01041 -0.517527 -0.689232 0.507076
-11.1761 -5.69637 5.8395 0.153615 0.166289 -0.385073 -0.155556 1.26539 -0.384973 2.22045e-16 -0.38488 -0.784112 0.486863
-10.3134 -7.12587 3.87275 -0.00160485 0.117472 0 -0.155556 1.38492 -0.618643 2.75967 -0.326932 -0.806915 0.491938
-12.2754 -6.3125 4.96178 0.037571 -0.147059 -0.160366 -0.263116 1.64855 0.0607669 0.990144 -0.0471689 -0.667561 0.743059
-9.86438 -5.89712 6.79975 0.11479 -0.10766 0 -0.155556 1.99579 -0.210574 5.24457 -0.219346 -0.885478 0.409654
-11.6713 -7.65574 3.5117 0.0416587 -0.157674 0 -0.288889 2.32534 0.216586 2.03728 0.0991495 -0.684262 0.722465
-8.4545 -7.223 5.8615 -0.036253 0.169913 0 -0.155556 2.49026 0.169479 4.20285 0.0630318 -0.565168 0.822565
-11.1451 -5.506 7.06925 0.081587 -0.290479 0 -0.100888 2.51017 -0.259259 5.90187 -0.383129 -0.923164 -0.031305
-9.1585 -7.92775 4.10825 -0.00840667 -0.335245 0 -0.155556 2.76755 -0.467475 3.3342 -0.824761 -0.491524 0.279595
-8.65356 -8.44756 5.52819 0.36932 -0.359879 0 -0.866667 2.83587 0.117996 3.81089 -0.54031 0.131029 0.831202
-8.68256 -6.43162 6.51638 -0.0343693 0.072837 0 -0.155556 2.89718 0.146625 4.62954 -0.0584446 -0.72846 0.682591
-10.3341 -8.12113 2.65438 -0.0294602 -0.0578929 -0.00627541 -0.193656 2.95826 -0.738405 2.6536 -0.224374 -0.661735 0.715376
-13.456 -6.9735 4.6405 0.0106169 -0.0824683 0 -0.288889 3.03921 0.669452 1.33468 -0.0476966 -0.673293 0.737836
-12.6431 -4.67812 5.88588 -0.0220906 0.466432 0.162576 -0.25208 3.05175 -0.0594895 0.360696 -0.562668 0.507152 0.652841
-13.8022 -6.02612 5.05288 -0.0323285 -0.140721 0 -0.288889 3.20464 -0.344842 1.00872 -0.0436382 -0.470329 0.881412
-10.3611 -5.92944 7.93031 0.0380817 -0.287383 0 -0.0888889 3.23108 0.163354 5.52827 0.078183 -0.982644 -0.168221
-12.5632 -8.0855 3.22875 0.0449793 -0.0394091 0 -0.288889 3.35502 0.492839 1.94964 -0.084792 -0.792755 0.603614
-8.771 -5.32425 8.028 -0.0419467 0.159985 0 -0.155556 3.73712 -0.086949 5.17334 0.343575 -0.856788 0.384539
-8.87138 -8.798 3.43712 -0.037866 -0.2836 0.16597 -0.323193 3.90341 -0.75587 3.11391 -0.92395 -0.306882 0.22834
-7.161 -7.0105 5.2475 -0.121971 0.164927 0 -0.155556 3.93777 -0.99988 4.27758 0.205689 -0.463993 0.861628
-7.499 -8.635 5.097 0.33105 -0.317248 0.778693 -0.866667 4.08249 -0.999859 3.97398 0.0999293 0.324846 0.940473
-13.5205 -4.28575 6.30813 -0.0468763 0.220648 0.712136 -0.0888889 4.10155 0.810863 0.514519 -0.0219807 -0.0487423 0.998569
-12.4902 -5.07987 7.84025 0.2066 -0.273055 0 -0.0888889 4.11807 -0.109436 6.06637 -0.52891 -0.777561 -0.340077
-8.74325 -9.3785 6.50688 1 -0.42666 0 -0.866667 4.18958 0.368508 3.76506 -0.152172 0.78737 0.597405
-12.0726 -8.92737 2.13425 0.123345 -0.0551871 0 -0.288889 4.24248 -0.302842 2.145 -0.233982 -0.619553 0.749271
-7.5365 -5.956 7.0925 -0.117358 0.14613 0 -0.155556 4.26524 0.628585 4.7751 0.323885 -0.657443 0.680343
-14.219 -7.33175 3.72213 -0.132711 0.0320811 0 -0.288889 4.28578 0.291035 1.5029 -0.304906 -0.795956 0.522959
-6.827 -6.381 6.055 -0.162172 0.176681 0 -0.155556 4.33286 0.287709 4.52912 0.458249 -0.574756 0.677985
-14.8775 -6.392 4.7815 -0.0877703 -0.0398338 0 -0.288889 4.37245 0.139323 1.17716 -0.0701895 -0.726398 0.68368
-9.11263 -9.75525 4.6195 1 -0.427097 0 -0.866667 4.49313 -0.254098 3.41099 -0.933577 0.25571 -0.251092
-14.386 -5.0025 5.6365 0.057943 -0.113761 0 -0.288889 4.51964 -0.0728844 0.814163 0.0248452 -0.484975 0.874175
-9.67912 -9.828 5.5365 1 -0.46745 0 -0.866667 4.5556 0.566714 3.57085 -0.844706 0.531658 -0.0617379
-9.47269 -9.347 2.07006 0.115462 -0.169263 -0.104479 -0.155556 4.56643 -0.999883 2.76016 -0.585631 -0.194416 0.786917
-11.6453 -4.60388 4.67525 -0.111387 0 -0.441202 -0.155556 4.62233 -0.624341 0.342908 -0.344569 0.936217 -0.0690706
-11.422 -3.9135 6.5525 0.0452527 0.625801 0.661268 -0.122222 4.63923 -0.403491 0.23507 -0.16872 0.857403 -0.486204
-12.6186 -4.56244 4.20325 -0.116365 0.627761 0 -0.288889 4.73853 -0.571016 0.40352 0.34752 0.929517 0.123401
-13.6023 -8.52875 2.33363 0.0297721 -0.0690003 0 -0.288889 4.79635 -0.301481 1.95817 0.035108 -0.659049 0.75128
-12.3745 -3.36175 7.0435 0.259066 0.470213 0.820334 -0.0888889 4.82518 -0.0846172 0.196586 0.00283395 0.46792 -0.883766
-8.99281 -5.18831 9.17241 0.00358713 -0.239362 0 -0.0888889 4.91073 -0.347794 5.30036 0.596314 -0.785419 -0.165914
-10.4118 -6.27056 9.62613 0.105906 -0.195177 0 -0.0888889 4.96161 0.377422 5.53161 0.23397 -0.959916 -0.154338
-13.621 -3.619 7.156 -0.00765367 0.307341 0 -0.0888889 4.973 0.26688 0.0743205 -0.581425 -0.365319 -0.726971
-14.434 -3.972 5.968 -0.105477 0.351001 0 -0.288889 4.97858 0.249956 0.686496 0.435753 0.731254 0.524773
-11.2778 -9.7615 1.923 0.0607507 -0.143186 0 -0.353153 4.98713 -0.191157 2.41215 -0.130573 -0.245443 0.960577
-13.759 -3.865 4.518 -0.180889 0.438937 0 -0.288889 4.99532 0.457533 0.511385 0.378846 0.906421 0.186753
-6.108 -7.0885 5.339 -0.215195 0.225812 -0.347611 -0.209033 4.99762 0.375755 4.35463 0.505765 -0.0733662 0.859546
-11.9108 -6.32387 8.77262 0.0522473 -0.245705 0 -0.0888889 5.03846 0.999847 5.74493 -0.348543 -0.871239 -0.345631
-7.71931 -4.28869 8.27731 -0.13222 0.212453 0 -0.0993076 5.23399 -0.0666502 5.05305 0.771305 -0.555214 0.311169
-12.842 -9.32 1.4325 0.140183 -0.106803 0.265833 -0.234662 5.3554 -0.999898 2.10405 0.0538043 -0.417686 0.906997
-6.721 -9.4495 5.7075 0.267663 -0.277219 -0.130503 -0.690547 5.36367 -0.36401 3.99953 0.0395619 0.537671 0.842226
-14.4952 -7.95725 2.686 -0.103135 -0.0613634 0 -0.25878 5.3659 -0.38172 1.71194 -0.120823 -0.588424 0.799474
-13.1315 -5.173 8.925 0.0186621 -0.217464 0 -0.0888889 5.38164 0.513889 5.98521 -0.755563 -0.598811 -0.265611
-6.082 -5.856 5.234 -0.251662 0.228345 0 -0.155556 5.55951 -0.113728 4.52702 0.775231 -0.39143 0.495781
-8.00075 -10.0413 7.45125 0.626277 -0.278799 0.474991 -0.866667 5.5616 0.999899 3.77882 0.249761 0.506844 0.825063
-8.89669 -10.5161 3.43131 0.516163 -0.315769 0 -0.773862 5.62171 -0.999879 3.13625 -0.913577 0.395687 0.0938591
-9.34175 -10.4634 7.45062 0.734227 -0.228853 0.392256 -0.866667 5.7471 0.999891 3.67886 -0.586877 0.217069 0.780036
-10.554 -3.77 5.878 0.219659 0.640244 0.591795 -0.155556 5.74782 0.0822923 0.16545 -0.292152 0.949918 -0.110922
-9.57681 -10.5227 2.19225 0.299001 -0.251677 0 -0.355556 5.75304 -0.999884 2.81208 -0.438988 0.449204 0.778142
-16.272 -6.41025 4.868 -0.196917 -0.128867 -0.260354 -0.537218 5.76975 0.0206288 1.21531 0.376086 -0.90874 0.180975
-11.3306 -3.17412 7.44688 0.137136 0.469395 0.103752 -0.0888889 5.80326 -0.73938 0.183703 0.104171 0.534159 -0.838941
-15.5855 -6.97237 3.164 -0.206872 -0.0146158 0 -0.288889 5.80498 -0.749771 1.39321 -0.133444 -0.768976 0.625195
-6.65863 -4.65394 6.68906 -0.195179 0.250106 0 -0.155556 5.88659 0.490303 4.76243 0.800897 -0.162584 0.576308
-16.0704 -5.72713 5.64337 -0.140468 -0.144031 -0.360001 -0.537833 5.98735 -0.0838047 1.03578 0.544413 -0.522051 0.656565
-14.21 -9.5545 2.14062 0.252646 -0.145232 0.170616 -0.155556 6.00412 0.0372185 1.95817 0.329138 -0.270365 0.904749
-6.16512 -6.86163 4.35112 -0.245605 0.315963 0 -0.252573 6.01282 -0.807917 4.35463 0.916988 0.10264 0.385484
-12.6915 -2.2385 7.26463 0.0331868 0.354691 0.0298436 -0.0888889 6.01307 0.230133 0.196586 0.235183 0.158478 -0.958944
-13.7907 -2.59575 7.293 -0.043938 0.326425 0 -0.0888889 6.01924 -0.242704 0.0743205 -0.0844454 0.0670477 -0.99417
-7.1575 -10.2837 6.68875 0.765713 -0.283905 0 -0.866667 6.02454 -0.157604 3.77882 0.372848 0.619931 0.690413
-15.8263 -4.70075 6.05 -0.0799593 -0.141125 0 -0.288889 6.0482 -0.469468 1.03578 0.445854 -0.386268 0.807472
-10.3815 -11.1511 5.97144 0.736243 -0.256624 0.611749 -0.866667 6.11544 0.999889 3.57085 -0.964915 0.0792666 0.250313
-9.89112 -11.1829 4.57394 0.675667 -0.302144 0.170995 -0.866667 6.11988 0.169887 3.41099 -0.973998 0.114553 -0.195461
-12.061 -6.426 9.85625 0.0687357 -0.138544 0 -0.0888889 6.13721 0.594472 5.74493 -0.196044 -0.978588 -0.0627064
-13.884 -3.6015 3.3775 -0.36105 0.394784 0 -0.288889 6.17252 0.520409 0.511385 0.416628 0.904626 0.0898459
-10.1385 -3.37 7.203 0.128498 0.507378 0.766552 -0.123149 6.17739 -0.614324 0.183703 -0.168293 0.772069 -0.612851
-10.8208 -10.8594 2.16681 0.0895403 -0.223955 0 -0.355556 6.20108 -0.0928604 2.41215 -0.413652 0.338139 0.845313
-7.252 -3.699 7.61825 -0.162745 0.240281 0 -0.11447 6.23422 -0.443783 5.05305 0.898046 -0.309276 0.312827
-11.9806 -4.509 2.84575 -0.113418 0.515604 0.182902 -0.288889 6.23943 -0.951426 0.40352 -0.102244 0.924185 0.368005
-10.862 -4.18275 3.26312 0.0658053 0.525223 0.497328 -0.172978 6.29117 -0.99984 0.342908 -0.634458 0.720267 0.280495
-14.8453 -3.09875 7.2685 -0.106071 -0.270413 0 -0.0888889 6.308 0.173275 0.0743205 0.063646 -0.38891 -0.919075
-5.8845 -9.827 6.15375 -0.11962 -0.208004 -0.0195851 -0.288889 6.38415 -0.0303628 3.99953 -0.151958 0.40193 0.902973
-5.88919 -8.47812 5.37075 -0.39936 0.286073 -0.912138 -0.288889 6.40472 -0.22549 3.99953 0.147833 0.640262 0.753797
-13.9991 -3.79312 8.62912 0.20013 -0.164856 0 -0.0888889 6.50381 -0.509045 0.0743205 -0.539987 -0.798588 -0.265839
-12.6357 -10.976 1.2865 0.0285353 -0.0944721 0.194629 -0.313749 6.52998 0.048763 2.10405 -0.332237 -0.297189 0.895152
-13.5747 -4.53587 9.77962 0.055301 -0.163892 0 -0.0888889 6.53608 -0.568209 5.98521 -0.68619 -0.688193 -0.235655
-15.773 -3.4955 6.645 -0.114715 -0.213149 0 -0.151249 6.55284 -0.0697984 0.686496 0.923786 -0.380056 0.0466609
-10.1889 -3.48463 4.00612 0.107674 0.483023 -0.170617 -0.155556 6.57721 -0.107215 0.16545 -0.656422 0.716445 0.236254
-9.37288 -6.32125 10.879 -0.241774 -0.212097 0 -0.777778 6.58998 -0.0339969 5.53161 0.00891663 -0.765131 -0.643813
-14.8431 -3.23612 3.4615 -0.496063 0.325025 -0.0170664 -0.288889 6.63452 0.283203 0.511385 0.386307 0.900109 0.20142
-8.394 -5.65562 10.7829 -0.297909 -0.256577 0 -0.563909 6.69136 -0.183207 5.30036 0.495724 -0.389932 -0.776022
-12.9268 -5.85825 10.0618 0.066468 -0.166439 0 -0.0888889 6.72469 0.523431 5.98521 -0.698661 -0.694381 -0.17236
-8.84525 -11.3252 7.58425 0.772837 -0.131286 0.20351 -0.866667 6.75063 0.741024 3.67886 -0.155862 -0.143209 0.977342
-10.918 -6.34381 11.3474 0.0814103 -0.147533 0 -0.674742 6.75726 -0.585778 5.53161 -0.0343879 -0.954799 -0.295256
-15.8403 -8.4775 2.45913 -0.184729 -0.118226 -0.0665696 -0.155556 6.82584 -0.532228 1.71194 0.0810591 -0.22859 0.970142
-9.5725 -3.5915 5.43 0.176758 0.537413 0.0105221 -0.155556 6.8414 -0.63216 0.16545 -0.464457 0.867772 0.17678
-16.6895 -6.5235 3.8545 -0.247934 -0.0884976 -0.0845656 -0.266918 6.87171 -0.999905 1.21531 0.290408 -0.875042 0.387254
-16.6373 -7.33638 3.0085 -0.150963 -0.0773207 0 -0.155556 6.9288 -0.415263 1.39321 0.229484 -0.609191 0.759094
-11.4115 -2.094 7.95725 0.110277 0.348098 0.411331 -0.0888889 7.00062 -0.791854 0.183703 0.229925 0.169724 -0.958294
-7.4305 -3.96725 9.99225 -0.231811 0.192382 0 -0.0888889 7.00253 -0.0393035 5.05305 0.787945 -0.604228 -0.118537
-12.9971 -3.869 2.07931 -0.316411 0.352903 0 -0.288889 7.00463 -0.371696 0.40352 0.0785487 0.850069 0.520781
-15.7994 -3.405 4.57062 -0.508533 0.298136 -0.441312 -0.288889 7.0129 -0.673185 0.686496 0.376037 0.897252 0.231375
-10.0806 -11.4983 3.35013 0.109291 -0.253955 0.0646085 -0.666942 7.16215 0.114555 3.13625 -0.769016 0.42502 0.477465
-16.4112 -4.2905 7.04475 -0.010762 -0.174086 0.812023 -0.0888889 7.27292 -0.628653 1.03578 0.838796 -0.44615 0.312044
-13.5662 -1.33525 7.15225 -0.2458 0.286748 0 -0.0888889 7.27544 0.857317 0.0743205 -0.012148 0.0802792 -0.996698
-14.9028 -10.6087 2.47469 0.24692 -0.100061 0.0932256 -0.155556 7.30908 0.999885 1.95817 0.230483 -0.404774 0.884893
-9.14775 -3.45275 6.4815 0.0884263 0.497559 0 -0.155556 7.31064 -0.999868 0.16545 -0.424299 0.87769 -0.222778
-7.484 -4.46 10.931 -0.311672 -0.209626 0 -0.0888889 7.33964 -0.0841359 5.30036 0.864025 -0.387214 -0.321755
-6.78912 -11.4445 7.18512 0.434837 -0.174815 0 -0.866667 7.33966 0.521498 3.77882 0.426901 0.1304 0.894847
-10.9438 -11.9454 2.48863 0.045883 -0.151839 0 -0.355556 7.34042 0.342271 2.41215 -0.640905 -0.00138704 0.767619
-17.5072 -7.0805 4.16025 -0.244737 -0.12918 -0.0570109 -0.462858 7.34324 -0.31715 1.21531 0.551357 -0.826133 0.116228
-17.048 -7.02975 6.08975 -0.476217 -0.147991 0 -0.777778 7.34412 0.635334 1.21531 0.706083 -0.625624 0.331724
-9.807 -12.265 5.858 0.51646 -0.140016 0.181031 -0.866667 7.37389 0.680889 3.57085 -0.824976 -0.551681 0.12273
-14.9106 -1.80275 7.49563 -0.306126 0.267142 0 -0.0888889 7.40635 -0.551079 0.0743205 -0.00256586 0.0953149 -0.995444
-16.5045 -2.70075 6.00325 -0.242911 0.268323 0 -0.0888889 7.40845 -0.280207 0.686496 0.742702 0.574164 -0.344571
-6.4365 -2.47325 8.14738 -0.191343 0.153086 0.101381 -0.270744 7.46071 -0.539866 5.05305 0.672468 -0.735167 0.0855358
-9.25097 -12.0777 6.85331 0.759213 -0.0851835 0 -0.866667 7.47075 0.612397 3.67886 -0.607147 -0.474329 0.637483
-12.2655 -0.875687 7.56431 -0.164446 0.287654 0 -0.0888889 7.47202 0.0883847 0.196586 0.187454 0.110914 -0.975991
-9.00331 -2.76681 7.38263 0.089845 0.39003 0.0102143 -0.0910796 7.47537 -0.999848 0.183703 -0.523093 0.557668 -0.6445
-14.9088 -3.36075 8.43425 0.00988187 -0.139393 0 -0.0888889 7.50452 -0.527912 0.0743205 0.0743413 -0.974183 -0.213168
-6.71375 -2.89488 6.73688 -0.180739 0.182212 0.285931 -0.559582 7.54309 -0.999873 4.76243 0.760794 -0.448543 0.469043
-4.847 -10.291 6.45038 0.037914 -0.116 0 -0.288889 7.55875 0.301707 3.99953 0.00957401 -0.100793 0.994861
-4.95375 -7.62125 3.69175 -0.300145 0.249135 0 -0.288889 7.58737 -0.812133 4.35463 0.03356 0.682842 0.729795
-5.22725 -5.95262 3.36162 -0.290222 0.13806 0 0.570476 7.62003 -0.790555 4.52702 0.181539 -0.193431 0.964172
-5.74638 -3.5895 5.62288 -0.309303 0.13557 -0.640861 -0.777778 7.64784 -0.610421 4.76243 0.414054 -0.362659 0.834888
-16.9635 -5.543 7.033 -0.11205 -0.178794 0.573641 -0.0888889 7.64945 -0.596404 1.03578 0.878562 -0.357826 0.316369
-14.464 -3.4355 2.01225 -0.463573 0.320219 0 -0.288889 7.66513 -0.785165 0.511385 0.443976 0.89279 0.0762327
-12.3375 -6.3815 11.3695 0.125123 -0.147621 0 -0.0888889 7.67615 -0.0946285 5.74493 -0.259074 -0.89831 -0.354851
-6.53719 -2.45744 9.39231 -0.179417 0.159528 0 -0.0888889 7.68227 0.0662155 5.05305 0.847407 -0.482975 0.220538
-10.1895 -1.7585 7.98 0.158135 0.33092 0.777804 -0.092332 7.69807 -0.430465 0.183703 -0.0498677 0.218223 -0.974624
-4.73318 -8.01982 5.00636 -0.573307 -0.273264 -0.307206 -0.288889 7.70055 0.6786 3.99953 -0.183117 0.880376 0.437499
-5.70138 -11.2166 6.52112 0.120924 -0.156389 0 -0.866667 7.76198 0.0809855 3.99953 0.357475 0.087021 0.92986
-15.898 -2.83406 3.49378 -0.792447 0.269673 -0.103414 -0.288889 7.7639 0.277896 0.511385 0.353092 0.894191 0.275223
-4.507 -5.223 3.805 -0.311422 0.0204458 0 0.460967 7.77838 -0.999895 4.52702 -0.0883476 -0.753398 0.651602
-9.38725 -12.8335 4.848 0.261744 -0.124723 0 -0.866667 7.8673 0.151053 3.41099 -0.81048 -0.573301 0.120201
-15.9136 -1.95187 7.181 -0.292536 -0.250033 0 -0.0888889 7.8778 -0.591677 0.0743205 0.618773 0.102756 -0.77882
-14.2536 -11.1819 1.20875 0.104943 -0.0597474 0.516573 -0.155556 7.87994 -0.104086 1.95817 0.193527 -0.691729 0.695743
-9.68125 -7.01875 11.9342 0.185112 -0.183195 0 -0.777778 7.89192 -0.71361 5.53161 -0.393483 -0.648419 -0.651709
-8.97525 -2.8485 4.96088 0.057925 0.339038 0 -0.155556 7.90386 -0.59546 0.16545 -0.757951 0.485499 0.435662
-4.7005 -8.899 6.39175 -0.253878 -0.199029 -0.140137 -0.288889 7.9072 0.999869 3.99953 -0.161919 0.492993 0.854834
-11.0706 -3.27513 1.93788 -0.0187583 0.273363 0.497521 -0.198075 7.91091 -0.999863 0.40352 -0.447944 0.440279 0.778139
-14.4446 -4.32575 10.8495 -0.113263 -0.1612 -0.487567 -0.132564 7.9309 -0.99988 5.98521 -0.216204 -0.790347 -0.573243
-7.28 -5.491 11.3975 -0.283519 -0.263054 -0.29028 -0.570924 7.97426 -0.0249235 5.30036 0.646185 0.350058 -0.678163
-10.317 -2.726 2.6115 0.071584 0.2521 0.580483 -0.155556 7.97751 -0.606003 0.342908 -0.812432 0.208543 0.544485
-16.8978 -2.712 4.73 -0.461127 0.260252 -0.314812 -0.178804 8.01017 -0.161105 0.686496 0.508377 0.854592 -0.105947
-3.89775 -4.7585 5.049 -0.539587 0.043346 -0.0210641 -0.690158 8.01098 -0.137544 4.52702 -0.243902 -0.553949 0.796023
-7.97237 -6.88225 11.0336 -0.167191 -0.265334 0 -0.777778 8.01243 0.191328 5.30036 -0.00398552 -0.120202 -0.992741
-7.027 -3.47463 10.7847 -0.283751 0.181388 0 -0.0888889 8.01912 0.461161 5.05305 0.95162 -0.28808 0.10691
-17.9305 -7.7 5.6845 -0.513793 -0.117942 0 -0.777778 8.0238 0.787553 1.21531 0.473958 -0.878643 0.0578875
-17.1569 -8.38313 2.722 -0.173604 -0.070028 0 -0.155556 8.13202 0.238235 1.39321 -0.185857 -0.384039 0.904418
-12.9858 -12.0465 0.13025 -0.0243517 -0.046235 0 -0.355556 8.14412 -0.70814 2.10405 -0.325269 -0.508098 0.797519
-16.0777 -3.76875 8.203 0.0361967 -0.162197 0 -0.0888889 8.1637 -0.514211 0.686496 0.711117 -0.702398 -0.0308115
-9.38138 -2.10737 3.8075 0.148901 0.216052 0.0249673 -0.155556 8.18606 -0.518457 0.16545 -0.834202 0.0522929 0.548974
-13.6006 -5.50238 11.3686 0.099116 -0.18017 0 -0.0888889 8.23743 -0.327554 5.98521 -0.430903 -0.636383 -0.639796
-11.4593 -7.06425 12.5245 0.36085 -0.180706 0 -0.534173 8.23969 -0.845022 5.53161 -0.0430158 -0.6673 -0.743546
-15.2399 -4.01038 10.1786 0.048477 -0.147843 0.0615469 -0.0972704 8.32723 -0.428873 5.98521 0.0501641 -0.892009 -0.449225
-7.59062 -12.3855 7.4225 0.373997 -0.0935037 0 -0.866667 8.40123 0.694469 3.67886 0.0702084 -0.305577 0.949576
-9.71031 -13.0597 3.25262 0.0396917 -0.0953391 0 -0.833313 8.42226 -0.0726139 3.13625 -0.707084 -0.367682 0.604021
-8.79925 -7.947 11.7245 -0.0488977 -0.203236 0 -0.777778 8.51014 0.277138 5.53161 -0.539989 -0.402606 -0.739134
-12.1451 -2.76075 1.5005 -0.316161 0.212435 0 -0.0888889 8.51762 -0.235917 0.40352 -0.329884 0.338372 0.881295
-18.504 -7.66988 3.92006 -0.246476 -0.0880231 0 -0.773431 8.52589 0.0743183 1.21531 0.180183 -0.982802 0.0404267
-8.30062 -2.6835 6.06038 0.0301148 0.331239 0 -0.155556 8.52648 -0.908238 0.16545 -0.837671 0.537144 0.0989084
-15.4955 -2.53737 1.771 -0.526947 0.230143 -0.0972404 -0.699224 8.5766 -0.0614897 0.511385 0.535996 0.683841 0.495046
-7.5055 -4.67975 12.1485 -0.334287 0.208474 0 -0.777778 8.577 -0.147937 5.30036 0.960251 0.272999 0.0582141
-6.14475 -12.4715 6.67188 0.321329 0.113165 0 -0.866667 8.65623 0.603308 3.77882 0.509545 -0.342573 0.789308
-8.5275 -1.687 7.64075 0.0827447 0.274816 0 -0.120573 8.68326 -0.999906 0.183703 -0.541718 -0.0870591 -0.83604
-14.211 -3.36625 1.02675 -0.507997 0.256205 0 -0.308649 8.68494 -0.848007 0.511385 0.253913 0.76743 0.58871
-9.55925 -1.01425 7.739 0.266503 -0.235943 0.164587 -0.155556 8.70266 -0.669957 0.183703 -0.23093 -0.474048 -0.849676
-16.7653 -10.1103 2.37981 -0.480837 -0.0511884 -0.958571 -0.155556 8.70412 0.578546 1.71194 -0.30756 -0.480808 0.821115
-12.997 -6.8425 12.0225 0.164346 -0.185793 0 -0.0888889 8.71243 0.101263 5.74493 -0.0988507 -0.649519 -0.753892
-18.2409 -8.0865 2.63013 -0.181489 -0.00773408 0 -0.155556 8.73915 -0.122252 1.39321 -0.178788 -0.814894 0.551346
-16.6407 -1.46219 6.47369 -0.342837 -0.220719 0 -0.0888889 8.74033 -0.446977 0.686496 0.652655 -0.0343063 -0.756878
-3.951 -11.0045 6.155 0.153228 0.100379 0.411994 -0.288889 8.74161 0.0596021 3.99953 0.173024 -0.163376 0.971273
-15.452 -0.5805 7.51525 -0.61469 -0.210957 -0.0869372 -0.423624 8.74329 -0.759473 0.0743205 0.465199 -0.210351 -0.859851
-11.0495 -1.1615 8.012 0.0769557 -0.265823 0.970118 -0.155402 8.74546 -0.608119 0.183703 0.0236771 -0.296033 -0.954884
-3.90125 -7.64819 4.49444 -0.319408 -0.214255 0 0.25414 8.74567 -0.260382 3.99953 -0.37148 0.68324 0.628638
-17.0427 -5.50575 8.13175 0.139628 -0.184584 0.0189671 -0.0888889 8.75169 -0.731275 1.03578 0.914394 -0.404824 0.000975317
-17.37 -6.47 7.5005 -0.192306 -0.162578 -0.747237 -0.695038 8.76441 0.15415 1.03578 0.832502 -0.537503 0.13428
-8.80281 -13.2723 5.667 0.38278 -0.075902 0 -0.866667 8.80899 0.508581 3.67886 -0.639472 -0.706714 0.302706
-15.888 -11.3448 1.581 -0.18442 0.00951151 -0.835422 -0.155556 8.82932 0.905977 1.95817 -0.248077 -0.804368 0.539861
-11.309 0.07625 7.26963 -0.344533 0.205377 -0.627789 -0.146431 8.85329 -0.0390163 0.196586 -0.445222 -0.429142 -0.785884
-4.60238 -3.23388 5.77987 -0.540063 0.0362693 -0.941475 -0.777778 8.85608 -0.56339 4.76243 -0.149299 -0.611932 0.776691
-15.8931 -3.66613 9.317 0.0168946 -0.152673 0.787115 -0.16315 8.86148 -0.999886 0.0743205 0.474484 -0.829969 -0.293286
-11.1666 -13.36 1.94488 -0.206042 -0.122224 -0.177078 -0.559371 8.87221 -0.164661 2.41215 -0.642007 0.00878114 0.766649
-17.3774 -1.5455 5.76562 -0.288092 0.222826 0 -0.0888889 8.87577 -0.323729 0.686496 0.666004 0.274949 -0.693428
-9.599 -7.886 12.478 0.0152166 -0.186524 0 -0.777778 8.91886 -0.714466 5.53161 -0.444608 -0.470896 -0.761958
-14.2193 0.148031 7.53344 -0.511603 0.22072 0 -0.138524 8.94036 -0.276036 0.0743205 0.311068 -0.0897668 -0.946139
-5.48675 -2.224 6.57375 -0.152923 0.0643773 0.617498 -1 8.951 -0.999849 4.76243 0.223633 -0.842403 0.49025
-5.19088 -1.72544 8.605 -0.0791627 0.065036 0.0605141 -1 8.98393 0.155321 5.05305 0.30926 -0.818922 0.483451
-3.81312 -8.3725 5.85162 -0.19945 -0.213019 0 -0.288889 8.99876 0.321965 3.99953 -0.0531652 0.727358 0.684196
-3.4925 -9.73662 6.49538 0.159112 0.125491 0.523693 -0.288889 9.023 0.698664 3.99953 0.274785 0.0171716 0.961352
-4.018 -6.71575 3.4105 -0.253577 -0.152611 0 0.622222 9.05078 -0.999936 4.52702 -0.512415 0.191549 0.837102
-6.354 -6.115 11.122 -0.412697 -0.265375 -0.978299 -0.777778 9.12437 0.246731 5.30036 -0.0415489 0.60929 -0.791858
-7.54637 -7.93881 11.1088 -0.25574 -0.244857 -0.0228609 -0.777778 9.15412 -0.0986617 5.30036 -0.344625 -0.0752006 -0.935723
-17.3153 -2.467 3.665 -0.483187 0.237911 0 -0.288889 9.18002 0.202569 0.686496 0.0957686 0.995402 0.00153593
-18.4643 -7.255 7.23925 -0.370103 -0.102199 -0.530836 -0.632871 9.18205 -0.443081 1.21531 0.51067 -0.841295 0.17731
-7.9305 -1.6155 6.7105 0.0315926 0.230636 0 -0.155556 9.18657 -0.999907 0.16545 -0.982613 0.016385 -0.184942
-5.8955 -1.05825 9.311 -0.110844 0.0952108 0 -1 9.22374 -0.862406 5.05305 0.571229 -0.575277 0.585452
-18.038 -2.218 4.732 -0.394763 0.225056 0 -0.0888889 9.25278 -0.597494 0.686496 0.666539 0.597934 -0.445197
-12.3632 -13.6067 0.43875 -0.298596 -0.12534 -0.152735 -0.50512 9.3073 -0.892158 2.10405 -0.711883 0.16999 0.681414
-4.78862 -12.2188 5.761 0.046972 -0.0846787 0 -0.19913 9.3161 -0.449076 3.99953 0.164276 -0.304236 0.938325
3 96 159 169
3 96 169 148
3 104 93 167
3 93 148 167
3 110 176 194
3 32 63 30
3 63 110 59
3 63 59 30
3 110 147 59
3 30 59 61
3 148 93 96
3 61 28 30
3 16 14 5
3 14 28 18
3 38 26 18
3 64 135 83
3 83 149 198
3 84 154 82
3 175 102 150
3 32 30 16
3 3 5 0
3 1 0 5
3 14 7 5
3 14 18 7
3 75 108 101
3 108 83 182
3 82 52 84
3 82 42 52
3 9 17 24
3 6 0 2
3 2 8 12
3 12 8 29
3 8 2 11
3 11 33 25
3 2 10 11
3 33 11 31
3 33 31 71
3 115 56 70
3 115 91 56
3 115 111 177
3 71 133 111
3 168 126 153
3 126 168 152
3 72 126 90
3 152 90 126
3 126 72 92
3 157 87 145
3 41 72 47
3 17 40 41
3 19 17 6
3 19 6 27
3 27 6 12
3 48 19 27
3 76 114 48
3 29 46 53
3 174 129 188
3 188 138 189
3 120 80 130
3 68 54 107
3 68 107 130
3 91 107 54
3 91 155 107
3 155 91 115
3 184 153 136
3 192 145 191
3 89 87 40
3 89 145 87
3 40 87 41
3 146 98 127
3 127 98 48
3 127 114 187
3 187 114 186
3 130 163 199
3 86 151 142
3 57 86 35
3 86 78 35
3 73 37 99
3 103 185 116
3 39 66 60
3 173 166 128
3 35 36 57
3 60 36 39
3 100 43 45
3 100 88 131
3 88 73 125
3 161 131 88
3 143 100 131
3 113 143 183
3 113 170 134
3 70 56 25
3 109 147 159
3 109 159 96
3 96 93 61
3 61 51 28
3 51 61 93
3 64 51 93
3 64 93 104
3 124 175 176
3 124 176 110
3 102 124 63
3 102 63 69
3 69 63 32
3 110 63 124
3 61 95 96
3 109 96 95
3 109 95 59
3 109 59 147
3 59 95 61
3 64 38 51
3 51 38 18
3 51 18 28
3 83 44 26
3 83 26 49
3 44 83 75
3 83 49 64
3 64 49 38
3 38 49 26
3 140 154 84
3 118 82 154
3 118 154 181
3 118 181 150
3 79 118 85
3 150 85 118
3 32 43 69
3 69 43 85
3 69 85 102
3 102 85 150
3 82 118 79
3 82 79 42
3 23 43 32
3 15 24 42
3 15 23 32
3 5 15 16
3 16 15 32
3 3 15 5
3 2 0 4
3 4 0 1
3 4 1 7
3 10 2 4
3 7 13 4
3 4 13 10
3 44 34 13
3 26 44 7
3 7 44 13
3 58 34 44
3 75 58 44
3 58 101 55
3 101 58 75
3 71 31 55
3 71 55 101
3 133 71 156
3 156 71 101
3 156 101 108
3 108 182 156
3 198 182 83
3 84 90 152
3 84 152 140
3 52 90 84
3 9 15 3
3 15 9 24
3 17 9 6
3 6 9 3
3 6 3 0
3 46 29 21
3 8 21 29
3 50 22 25
3 25 22 11
3 11 22 21
3 11 21 8
3 21 22 46
3 46 22 50
3 46 50 81
3 31 11 10
3 31 10 20
3 20 10 13
3 58 55 34
3 34 55 20
3 34 20 13
3 20 55 31
3 133 177 111
3 126 92 153
3 136 87 157
3 87 92 41
3 92 87 136
3 92 136 153
3 40 17 19
3 2 12 6
3 98 40 48
3 48 40 19
3 76 48 62
3 119 114 76
3 186 114 119
3 76 62 119
3 123 180 186
3 123 186 119
3 62 123 119
3 53 123 62
3 53 46 65
3 65 81 121
3 81 65 46
3 50 68 80
3 80 68 130
3 25 54 68
3 25 68 50
3 50 80 81
3 106 98 146
3 162 141 106
3 162 106 146
3 184 136 157
3 141 89 106
3 89 141 145
3 145 141 191
3 40 98 106
3 40 106 89
3 187 196 127
3 144 123 53
3 123 144 180
3 122 132 53
3 144 53 132
3 121 122 65
3 174 190 122
3 174 122 121
3 53 65 122
3 130 199 120
3 120 199 171
3 173 116 179
3 164 195 117
3 128 164 117
3 166 164 128
3 160 117 195
3 105 117 160
3 94 160 137
3 86 57 94
3 86 94 137
3 86 137 151
3 35 78 77
3 35 77 37
3 37 77 99
3 77 78 139
3 142 139 78
3 142 78 86
3 77 139 99
3 99 139 158
3 125 73 99
3 125 165 161
3 99 165 125
3 143 193 197
3 143 197 183
3 134 172 112
3 112 172 185
3 15 43 23
3 39 42 67
3 39 67 66
3 66 97 60
3 60 97 128
3 97 66 116
3 173 128 116
3 116 128 97
3 57 36 74
3 74 36 60
3 74 60 128
3 94 57 105
3 94 105 160
3 117 105 74
3 117 74 128
3 74 105 57
3 39 15 42
3 15 39 36
3 15 36 35
3 35 37 15
3 15 37 45
3 43 15 45
3 143 43 100
3 143 113 43
3 85 134 79
3 79 134 112
3 113 134 85
3 113 85 43
3 79 112 67
3 79 67 42
3 178 104 167
3 147 110 194
3 30 28 14
3 30 14 16
3 104 178 135
3 64 104 135
3 175 124 102
3 7 18 26
3 75 83 108
3 70 71 111
3 111 115 70
3 33 71 70
3 52 24 47
3 52 47 90
3 90 47 72
3 72 41 92
3 52 42 24
3 24 17 47
3 41 47 17
3 27 62 48
3 29 27 12
3 27 29 62
3 129 81 138
3 138 188 129
3 138 80 120
3 80 138 81
3 91 54 56
3 54 25 56
3 70 25 33
3 145 192 157
3 48 114 127
3 62 29 53
3 189 138 120
3 171 189 120
3 130 107 163
3 155 163 107
3 66 103 116
3 67 103 66
3 37 73 45
3 100 45 88
3 88 45 73
3 125 161 88
3 143 131 193
3 183 170 113
3 67 112 103
3 103 112 185
3 121 81 129
3 121 129 174
3 1 5 7
