ply
format ascii 1.0
comment Generated by PyMesh
element vertex 200
property float x
property float y
property float z
property float charge
property float ddc
property float hbond
property float hphob
property float rho
property float si
property float theta
property float nx
property float ny
property float nz
element face 343
property list uchar int vertex_indices
end_header
-10.0806 -11.4983 3.35013 0.109291 0 0.0646085 -0.666942 1e-08 0.114555 2.22045e-16 -0.769016 0.42502 0.477465
-9.89112 -11.1829 4.57394 0.675667 -0.609232 0.170995 -0.866667 1.27792 0.169887 3.70813 -0.973998 0.114553 -0.195461
-10.9438 -11.9454 2.48863 0.045883 -0.267657 0 -0.355556 1.29892 0.342271 0.713661 -0.640905 -0.00138704 0.767619
-10.8208 -10.8594 2.16681 0.0895403 -0.323732 0 -0.355556 1.53504 -0.0928604 2.22045e-16 -0.413652 0.338139 0.845313
-8.89669 -10.5161 3.43131 0.516163 0.328357 0 -0.773862 1.54044 -0.999879 4.64292 -0.913577 0.395687 0.0938591
-9.57681 -10.5227 2.19225 0.299001 0.301501 0 -0.355556 1.59571 -0.999884 5.63177 -0.438988 0.449204 0.778142
-9.71031 -13.0597 3.25262 0.0396917 0.373319 0 -0.833313 1.60767 -0.0726139 2.04344 -0.707084 -0.367682 0.604021
-11.2778 -9.7615 1.923 0.0607507 -0.358291 0 -0.353153 2.74899 -0.191157 5.97168 -0.130573 -0.245443 0.960577
-10.3815 -11.1511 5.97144 0.736243 -0.141068 0.611749 -0.866667 2.75931 0.999889 3.67272 -0.964915 0.0792666 0.250313
-9.47269 -9.347 2.07006 0.115462 -0.203233 -0.104479 -0.155556 2.78232 -0.999883 5.40794 -0.585631 -0.194416 0.786917
-11.1666 -13.36 1.94488 -0.206042 -0.132171 -0.177078 -0.559371 2.83072 -0.164661 1.14091 -0.642007 0.00878114 0.766649
-9.34425 -14.1388 2.64025 -0.0461603 0.342978 -0.0753447 -0.839569 2.90129 -0.391624 1.9403 -0.280639 -0.567381 0.774158
-9.11263 -9.75525 4.6195 1 -0.34624 0 -0.866667 2.90467 -0.254098 4.37145 -0.933577 0.25571 -0.251092
-9.67912 -9.828 5.5365 1 -0.248759 0 -0.866667 2.9534 0.566714 4.09987 -0.844706 0.531658 -0.0617379
-9.807 -12.265 5.858 0.51646 -0.336776 0.181031 -0.866667 2.95924 0.680889 3.28733 -0.824976 -0.551681 0.12273
-9.38725 -12.8335 4.848 0.261744 0.427621 0 -0.866667 3.02534 0.151053 2.88975 -0.81048 -0.573301 0.120201
-8.60675 -14.0155 3.51813 0.0800663 0.319217 0 -0.866667 3.09154 -0.404599 2.25652 -0.657029 -0.67278 0.340119
-8.87138 -8.798 3.43712 -0.037866 -0.214555 0.16597 -0.323193 3.25873 -0.75587 4.8982 -0.92395 -0.306882 0.22834
-10.5295 -14.4611 2.446 -0.392247 0.275829 -0.200748 -0.777778 3.4203 0.222943 1.57504 -0.158595 -0.177155 0.971321
-12.6357 -10.976 1.2865 0.0285353 -0.233983 0.194629 -0.313749 3.55553 0.048763 0.221009 -0.332237 -0.297189 0.895152
-12.0726 -8.92737 2.13425 0.123345 -0.29776 0 -0.288889 3.92036 -0.302842 5.95859 -0.233982 -0.619553 0.749271
-8.72325 -14.8822 2.22825 -0.067733 0.212025 0 -0.866667 3.95392 -0.999887 1.97317 -0.367816 -0.397812 0.84051
-9.25097 -12.0777 6.85331 0.759213 0.199779 0 -0.866667 4.11462 0.612397 3.36923 -0.607147 -0.474329 0.637483
-8.80281 -13.2723 5.667 0.38278 0.306732 0 -0.866667 4.12301 0.508581 2.95634 -0.639472 -0.706714 0.302706
-7.87456 -14.7936 3.23938 0.0651227 0.20793 0 -0.866667 4.19574 -0.999826 2.23708 -0.721361 -0.578884 0.380172
-8.28063 -14.0825 4.70181 0.174915 0.280677 0 -0.866667 4.32116 0.261098 2.61976 -0.708423 -0.671952 0.215911
-8.74325 -9.3785 6.50688 1 0.213533 0 -0.866667 4.37451 0.368508 4.11572 -0.152172 0.78737 0.597405
-10.3341 -8.12113 2.65438 -0.0294602 -0.308927 -0.00627541 -0.193656 4.39049 -0.738405 5.31633 -0.224374 -0.661735 0.715376
-9.1585 -7.92775 4.10825 -0.00840667 -0.203613 0 -0.155556 4.3946 -0.467475 4.81424 -0.824761 -0.491524 0.279595
-9.652 -15.5778 2.06512 -0.341683 0.212067 -0.95041 -0.777778 4.48123 -0.296428 1.74708 -0.0938674 -0.16343 0.982079
-11.8285 -14.8422 2.27575 -0.596817 -0.0984655 -0.796777 -0.777778 4.48737 0.999877 1.30594 -0.562395 0.0785847 0.823126
-8.65356 -8.44756 5.52819 0.36932 0.0972707 0 -0.866667 4.56193 0.117996 4.4221 -0.54031 0.131029 0.831202
-9.34175 -10.4634 7.45062 0.734227 0.0722087 0.392256 -0.866667 4.69373 0.999891 3.77089 -0.586877 0.217069 0.780036
-12.3632 -13.6067 0.43875 -0.298596 -0.0382454 -0.152735 -0.50512 4.77008 -0.892158 0.854975 -0.711883 0.16999 0.681414
-10.993 -15.9369 2.16075 -0.81503 0.210583 0 -0.777778 4.99325 0.72301 1.53946 -0.135007 -0.419602 0.897612
-12.842 -9.32 1.4325 0.140183 -0.280699 0.265833 -0.234662 5.03328 -0.999898 6.21317 0.0538043 -0.417686 0.906997
-12.9858 -12.0465 0.13025 -0.0243517 -0.20707 0 -0.355556 5.16967 -0.70814 0.393878 -0.325269 -0.508098 0.797519
-14.2536 -11.1819 1.20875 0.104943 -0.288966 0.516573 -0.155556 5.18833 -0.104086 0.0565843 0.193527 -0.691729 0.695743
-8.84525 -11.3252 7.58425 0.772837 0.193287 0.20351 -0.866667 5.2394 0.741024 3.55555 -0.155862 -0.143209 0.977342
-7.83512 -15.8796 2.55012 -0.005453 0.0612084 0 -0.851249 5.32766 -0.99988 2.12919 -0.678985 0.00739079 0.734115
-7.36434 -15.4719 4.05644 0.0355127 0.14013 0 -0.866667 5.37387 0.157751 2.414 -0.729507 -0.453399 0.512102
-12.5632 -8.0855 3.22875 0.0449793 -0.294603 0 -0.288889 5.38575 0.492839 5.69408 -0.084792 -0.792755 0.603614
-11.6713 -7.65574 3.5117 0.0416587 -0.309677 0 -0.288889 5.41601 0.216586 5.49938 0.0991495 -0.684262 0.722465
-13.6023 -8.52875 2.33363 0.0297721 -0.260943 0 -0.288889 5.51367 -0.301481 5.95705 0.035108 -0.659049 0.75128
-7.371 -14.4086 5.5775 0.113653 0.24682 0 -0.866667 5.62523 0.354953 2.74056 -0.213611 -0.732018 0.646931
-12.4978 -15.0938 1.38925 -0.647353 -0.0309358 -0.315268 -0.777778 5.62629 0.179498 1.16645 -0.729614 0.156261 0.665767
-8.00075 -10.0413 7.45125 0.626277 0.232402 0.474991 -0.866667 5.74653 0.999899 3.89991 0.249761 0.506844 0.825063
-7.75362 -13.5154 6.91388 0.178504 0.254166 0 -0.866667 5.77062 0.891283 3.06161 -0.0419651 -0.687028 0.725418
-7.499 -8.635 5.097 0.33105 0.232653 0.778693 -0.866667 5.80856 -0.999859 4.3708 0.0999293 0.324846 0.940473
-10.3134 -7.12587 3.87275 -0.00160485 -0.257534 0 -0.155556 5.82017 -0.618643 5.11593 -0.326932 -0.806915 0.491938
-14.21 -9.5545 2.14062 0.252646 -0.271407 0.170616 -0.155556 5.84215 0.0372185 6.26247 0.329138 -0.270365 0.904749
-10.0239 -16.8423 1.71088 -0.222828 0.123867 -0.408629 -0.777778 5.84605 -0.173199 1.67504 -0.473723 -0.328313 0.817189
-8.4545 -7.223 5.8615 -0.036253 -0.229876 0 -0.155556 5.84656 0.169479 4.5564 0.0630318 -0.565168 0.822565
-7.59062 -12.3855 7.4225 0.373997 0.225003 0 -0.866667 5.8966 0.694469 3.33148 0.0702084 -0.305577 0.949576
-9.58838 -7.17572 5.35656 -0.0720867 -0.19967 0 -0.155556 5.91401 0.200363 4.76188 -0.517527 -0.689232 0.507076
-12.222 -16.1385 1.47275 -0.384497 0.137639 -0.0114672 -0.777778 6.06219 0.558085 1.16645 -0.514624 -0.44663 0.731904
-11.1015 -16.791 1.325 -0.445653 0.18053 0 -0.777778 6.19314 0.545085 1.67504 -0.309769 -0.687469 0.656833
-7.1575 -10.2837 6.68875 0.765713 0.270877 0 -0.866667 6.20946 -0.157604 3.89991 0.372848 0.619931 0.690413
-8.548 -16.9354 2.59675 -0.263726 -0.0675772 0 -0.777778 6.31003 -0.265914 2.12919 -0.516542 0.358231 0.777725
-13.7215 -14.402 -0.23675 -0.321801 -0.0898232 -0.674917 -0.777778 6.48291 -0.999807 0.854975 -0.384527 0.366098 0.847414
-13.8619 -12.8776 -0.485125 -0.192129 -0.145993 -0.357776 -0.155556 6.52502 -0.748153 0.393878 -0.201733 -0.134953 0.970099
-6.721 -9.4495 5.7075 0.267663 0.20534 -0.130503 -0.690547 6.55018 -0.36401 4.3708 0.0395619 0.537671 0.842226
-14.4952 -7.95725 2.686 -0.103135 -0.190674 0 -0.25878 6.63083 -0.38172 5.95705 -0.120823 -0.588424 0.799474
-6.32175 -15.5035 4.7615 0.0603403 0.176673 0 -0.866667 6.63288 0.216985 2.414 -0.155353 -0.47831 0.86434
-13.277 -15.264 0.7645 -0.525217 -0.0568379 -0.750448 -0.777778 6.63942 0.276461 1.16645 -0.592958 0.165798 0.787979
-7.161 -7.0105 5.2475 -0.121971 0.221207 0 -0.155556 6.65279 -0.99988 4.5564 0.205689 -0.463993 0.861628
-14.9028 -10.6087 2.47469 0.24692 -0.251246 0.0932256 -0.155556 6.72216 0.999885 6.26247 0.230483 -0.404774 0.884893
-11.1847 -6.68075 4.23925 -0.0631667 -0.257136 -0.288505 -0.246484 6.72625 -0.683221 5.11593 -0.0615404 -0.835508 0.546021
-7.54525 -16.9387 3.44025 -0.0783123 0.0316709 -0.611731 -0.777778 6.74119 -0.169148 2.12919 -0.681159 0.206113 0.702523
-6.51888 -16.5816 4.089 0.0519687 0.0957368 0 -0.777778 6.76933 -0.266048 2.414 -0.392084 -0.0188769 0.919736
-15.888 -11.3448 1.581 -0.18442 -0.192146 -0.835422 -0.155556 6.87249 0.905977 0.0565843 -0.248077 -0.804368 0.539861
-8.68256 -6.43162 6.51638 -0.0343693 -0.19778 0 -0.155556 6.89878 0.146625 4.5564 -0.0584446 -0.72846 0.682591
-15.9696 -11.7929 0.4935 -0.0880117 -0.177479 -0.578883 -0.4144 7.14526 -0.301055 0.0565843 -0.123798 -0.712599 0.690563
-9.33075 -17.7201 2.38775 -0.37033 0.0104578 -0.655861 -0.777778 7.1534 0.120157 1.67504 -0.826645 0.164711 0.538079
-6.78912 -11.4445 7.18512 0.434837 0.252677 0 -0.866667 7.15527 0.521498 3.33148 0.426901 0.1304 0.894847
-10.6545 -6.58 5.099 -0.231375 -0.216206 -0.785561 -0.155556 7.16215 0.0986189 4.76188 -0.376602 -0.822101 0.426991
-12.0071 -16.9351 0.627688 -0.282936 0.168579 0 -0.777778 7.24324 0.361314 1.16645 -0.369568 -0.761527 0.532444
-14.219 -7.33175 3.72213 -0.132711 -0.19269 0 -0.288889 7.27075 0.291035 5.69408 -0.304906 -0.795956 0.522959
-15.5601 -12.8408 -0.15225 -0.247445 -0.174925 0 -0.722702 7.31047 -0.2974 0.0565843 0.105668 -0.414195 0.904033
-6.13163 -13.2419 5.89725 0.39204 0.287637 0 -0.866667 7.35712 -0.357331 2.74056 0.410335 -0.537717 0.736536
-13.456 -6.9735 4.6405 0.0106169 -0.20462 0 -0.288889 7.3924 0.669452 5.69408 -0.0476966 -0.673293 0.737836
-10.761 -17.6825 0.514 -0.103993 0.125418 0 -0.777778 7.44551 -0.286992 1.67504 -0.529192 -0.588319 0.611422
-12.2754 -6.3125 4.96178 0.037571 -0.201753 -0.160366 -0.263116 7.48289 0.0607669 5.49938 -0.0471689 -0.667561 0.743059
-6.14475 -12.4715 6.67188 0.321329 0.27593 0 -0.866667 7.52797 0.603308 3.33148 0.509545 -0.342573 0.789308
-9.54244 -18.4902 1.55037 -0.16166 0.0645058 -0.520619 -0.777778 7.57033 -0.314944 1.67504 -0.863531 -0.227399 0.450116
-5.8845 -9.827 6.15375 -0.11962 0.142457 -0.0195851 -0.288889 7.57066 -0.0303628 4.3708 -0.151958 0.40193 0.902973
-14.8038 -14.2679 -0.476375 0.00114367 -0.156685 -0.170806 -0.777778 7.5995 -0.999836 0.854975 0.167585 0.25905 0.951214
-13.2936 -16.5419 0.364812 -0.317426 0.146134 0 -0.777778 7.65548 -0.0742171 1.16645 -0.225165 -0.518622 0.824822
-5.3855 -15.91 4.645 -0.0467453 0.120506 0 -0.866667 7.6602 -0.457791 2.414 -0.298078 -0.272191 0.914911
-6.827 -6.381 6.055 -0.162172 0.225244 0 -0.155556 7.68916 0.287709 4.5564 0.458249 -0.574756 0.677985
-6.108 -7.0885 5.339 -0.215195 0.219471 -0.347611 -0.209033 7.71263 0.375755 4.3708 0.505765 -0.0733662 0.859546
-14.3853 -15.4355 0.226 -0.129791 -0.129059 -0.441248 -0.777778 7.7955 -0.0747912 1.16645 -0.0476324 0.315977 0.94757
-15.8403 -8.4775 2.45913 -0.184729 -0.163607 -0.0665696 -0.155556 7.82186 -0.532228 6.26247 0.0810591 -0.22859 0.970142
-9.86438 -5.89712 6.79975 0.11479 -0.191494 0 -0.155556 7.86178 -0.210574 4.76188 -0.219346 -0.885478 0.409654
-5.88919 -8.47812 5.37075 -0.39936 0.190192 -0.912138 -0.288889 7.87263 -0.22549 4.3708 0.147833 0.640262 0.753797
-9.146 -18.2255 3.372 -0.402247 0.0174691 -0.367413 -0.777778 7.92959 0.999889 1.67504 -0.784998 0.117893 0.608177
-5.70138 -11.2166 6.52112 0.120924 0.226224 0 -0.866667 7.9469 0.0809855 3.33148 0.357475 0.087021 0.92986
-5.1885 -14.8655 5.00425 -0.0202361 0.133827 0 -0.866667 7.95584 -0.470014 2.414 -0.249824 -0.262052 0.932157
-7.77125 -18.1174 3.96012 -0.34568 0.0732114 -0.43348 -0.777778 8.04912 0.386941 2.12919 -0.461783 0.0208661 0.886747
-5.01606 -13.8609 5.32062 0.0706267 0.165227 0 -0.866667 8.05663 -0.377712 2.74056 -0.0600732 -0.273306 0.96005
-15.5855 -6.97237 3.164 -0.206872 -0.168007 0 -0.288889 8.17589 -0.749771 5.95705 -0.133444 -0.768976 0.625195
-7.5365 -5.956 7.0925 -0.117358 -0.200397 0 -0.155556 8.26684 0.628585 4.5564 0.323885 -0.657443 0.680343
-11.9365 -17.4435 -0.29875 -0.165537 0.135477 0 -0.777778 8.30236 -0.757873 1.67504 -0.352086 -0.635777 0.686893
-17.0605 -11.116 0.7535 -0.00555143 -0.123866 0.0020518 -0.155556 8.32571 -0.137062 0.0565843 -0.383154 -0.585228 0.714633
-5.0845 -16.9285 4.6285 -0.00388733 0.0883763 0 -0.782022 8.34059 -0.263381 2.414 -0.337251 -0.0516141 0.939999
-11.1761 -5.69637 5.8395 0.153615 -0.17041 -0.385073 -0.155556 8.42754 -0.384973 4.76188 -0.38488 -0.784112 0.486863
-13.8022 -6.02612 5.05288 -0.0323285 -0.157634 0 -0.288889 8.4821 -0.344842 5.69408 -0.0436382 -0.470329 0.881412
-6.4705 -18.222 4.652 0.0393597 0.0909934 0 -0.777778 8.50433 0.706979 2.414 -0.324443 -0.12887 0.937086
-16.7653 -10.1103 2.37981 -0.480837 -0.130455 -0.958571 -0.155556 8.58472 0.578546 6.26247 -0.30756 -0.480808 0.821115
-10.2875 -18.678 0.1155 0.0224967 0.0697996 0.0776585 -0.777778 8.6177 -0.722435 1.67504 -0.735328 -0.321227 0.596746
-6.16512 -6.86163 4.35112 -0.245605 0.281337 0 -0.252573 8.72783 -0.807917 4.3708 0.916988 0.10264 0.385484
-4.847 -10.291 6.45038 0.037914 0.157536 0 -0.288889 8.74526 0.301707 4.3708 0.00957401 -0.100793 0.994861
-16.6195 -13.8413 0.25625 0.0744757 -0.121743 0 -0.777778 8.82382 0.21688 0.0565843 0.0305198 0.283387 0.95852
-14.8775 -6.392 4.7815 -0.0877703 -0.168503 0 -0.288889 8.83248 0.139323 5.69408 -0.0701895 -0.726398 0.68368
-11.1145 -18.6728 -0.466125 0.0271403 0.0871492 0.266106 -0.777778 8.88298 -0.412093 1.67504 -0.412087 -0.29045 0.863611
-17.528 -10.2195 1.18 -0.252893 -0.117329 -0.588982 -0.155556 8.90145 -0.598223 0.0565843 -0.490767 -0.645074 0.585685
-6.082 -5.856 5.234 -0.251662 0.236164 0 -0.155556 8.91582 -0.113728 4.5564 0.775231 -0.39143 0.495781
-14.4928 -17.0419 0.545875 -0.00660917 -0.164603 0 -0.777778 8.9673 0.400819 1.16645 0.322027 -0.195194 0.92639
-17.6025 -12.3884 -0.0595 0.316843 -0.112266 0.185999 -0.727787 8.96921 -0.329982 0.0565843 -0.0816145 -0.194588 0.977484
-4.78862 -12.2188 5.761 0.046972 0.198717 0 -0.19913 9.05093 -0.449076 3.33148 0.164276 -0.304236 0.938325
-9.19025 -19.9055 1.95575 -0.00195302 0.0669101 0 -0.777778 9.08409 0.60351 1.67504 -0.798463 -0.34662 0.492252
-4.22738 -13.2555 5.60988 0.0421657 0.0919198 0 0.101562 9.0921 -0.328295 2.74056 -0.427561 -0.0956582 0.898911
-4.7005 -8.899 6.39175 -0.253878 0.112648 -0.140137 -0.288889 9.09371 0.999869 4.3708 -0.161919 0.492993 0.854834
-10.3611 -5.92944 7.93031 0.0380817 -0.229847 0 -0.0888889 9.09707 0.163354 4.76188 0.078183 -0.982644 -0.168221
-17.1569 -8.38313 2.722 -0.173604 -0.120134 0 -0.155556 9.16776 0.238235 6.26247 -0.185857 -0.384039 0.904418
-4.73318 -8.01982 5.00636 -0.573307 0.138021 -0.307206 -0.288889 9.16846 0.6786 4.3708 -0.183117 0.880376 0.437499
-5.05813 -18.3581 4.882 0.0466233 0.0785129 0 -0.777778 9.20214 0.183834 2.414 -0.285175 0.042256 0.957543
-9.7635 -19.9498 0.82475 0.203867 0.0814902 0.711939 -0.777778 9.21527 0.33897 1.67504 -0.82388 -0.459811 0.331355
-11.1451 -5.506 7.06925 0.081587 -0.189828 0 -0.100888 9.22774 -0.259259 4.76188 -0.383129 -0.923164 -0.031305
-4.0155 -15.5483 5.4625 -0.191928 0.0885107 0 -0.866667 9.29606 0.121473 2.414 -0.451521 -0.269503 0.850586
-16.6373 -7.33638 3.0085 -0.150963 -0.172382 0 -0.155556 9.29971 -0.415263 6.26247 0.229484 -0.609191 0.759094
-3.87538 -14.3188 5.57725 -0.0440993 0.0604679 0 0.933333 9.31229 -0.6635 2.74056 -0.612834 -0.0935184 0.784658
-6.894 -19.0485 3.8485 0.055297 0.108516 0 -0.777778 9.33324 -0.146767 2.12919 -0.267766 -0.419034 0.86759
-12.1039 -18.334 -0.824125 -0.00727283 -0.0984128 0.012477 -0.777778 9.34975 -0.946448 1.67504 -0.203062 -0.141511 0.968886
-12.6431 -4.67812 5.88588 -0.0220906 0.0496647 0.162576 -0.25208 9.39609 -0.0594895 5.49938 -0.562668 0.507152 0.652841
-13.4291 -17.8351 -0.796125 -0.00978263 0.153035 0 -0.777778 9.39861 -0.999841 1.16645 0.228875 -0.447757 0.864367
-6.65863 -4.65394 6.68906 -0.195179 0.197349 0 -0.155556 9.53662 0.490303 4.5564 0.800897 -0.162584 0.576308
-16.6895 -6.5235 3.8545 -0.247934 -0.187914 -0.0845656 -0.266918 9.55324 -0.999905 5.95705 0.290408 -0.875042 0.387254
-8.771 -5.32425 8.028 -0.0419467 -0.201477 0 -0.155556 9.60312 -0.086949 4.76188 0.343575 -0.856788 0.384539
-8.32325 -19.708 3.28513 -0.22326 0.0985838 0 -0.777778 9.62731 0.635472 1.67504 -0.512635 -0.545277 0.663233
-3.8145 -17.367 4.925 0.0298796 0.086623 -0.398123 -0.815087 9.71648 -0.458783 2.414 -0.209084 0.0147824 0.977786
-14.386 -5.0025 5.6365 0.057943 -0.139553 0 -0.288889 9.7971 -0.0728844 5.69408 0.0248452 -0.484975 0.874175
-3.951 -11.0045 6.155 0.153228 0.166761 0.411994 -0.288889 9.92811 0.0596021 4.3708 0.173024 -0.163376 0.971273
-18.5084 -11.1437 0.0408125 0.267317 -0.0963308 0 -0.468784 9.93974 -0.569059 0.0565843 -0.193927 -0.270441 0.943003
-5.70538 -19.3718 4.16556 0.102521 0.095748 0 -0.777778 9.96859 0.108068 2.414 -0.379298 -0.499693 0.778743
-4.95375 -7.62125 3.69175 -0.300145 0.150445 0 -0.288889 9.97699 -0.812133 4.3708 0.03356 0.682842 0.729795
-18.0786 -13.3655 -0.167875 0.33363 -0.103183 0 -0.951709 10.0615 -0.683495 0.0565843 -0.00418875 0.0790882 0.996859
-16.272 -6.41025 4.868 -0.196917 -0.205404 -0.260354 -0.537218 10.0971 0.0206288 5.95705 0.376086 -0.90874 0.180975
-16.592 -15.3796 1.00713 0.0287388 -0.131079 0 -0.777778 10.137 0.472334 1.16645 0.163764 0.329992 0.92967
-3.4925 -9.73662 6.49538 0.159112 0.155506 0.523693 -0.288889 10.2095 0.698664 4.3708 0.274785 0.0171716 0.961352
-3.90125 -7.64819 4.49444 -0.319408 0.0859556 0 0.25414 10.2136 -0.260382 4.3708 -0.37148 0.68324 0.628638
-18.6789 -9.966 0.587 -0.0506543 -0.102232 0 -0.155556 10.2207 -0.582681 0.0565843 -0.359964 -0.585225 0.726593
-10.5036 -20.1369 -0.600625 0.058206 0.175711 0.781005 -0.777778 10.2572 0.260129 1.67504 0.149665 -0.983519 -0.101446
-3.81312 -8.3725 5.85162 -0.19945 0.122478 0 -0.288889 10.2583 0.321965 4.3708 -0.0531652 0.727358 0.684196
-18.558 -9.4 1.56025 -0.109215 -0.0953095 0 -0.155556 10.2715 0.462526 0.0565843 -0.479985 -0.553648 0.680506
-18.2409 -8.0865 2.63013 -0.181489 -0.136371 0 -0.155556 10.2954 -0.122252 6.26247 -0.178788 -0.814894 0.551346
-7.71931 -4.28869 8.27731 -0.13222 -0.195802 0 -0.0993076 10.3204 -0.0666502 4.5564 0.771305 -0.555214 0.311169
-5.22725 -5.95262 3.36162 -0.290222 0.155034 0 0.570476 10.3664 -0.790555 4.3708 0.181539 -0.193431 0.964172
-18.9918 -12.5283 0.088 0.486653 -0.107708 0.328718 -1 10.3733 0.507778 0.0565843 0.0881888 -0.0485262 0.994921
-17.8531 -14.8748 0.4215 -0.075275 -0.0694765 -0.265592 -0.777778 10.4416 -0.0549542 0.0565843 -0.290997 0.345615 0.892116
-13.5205 -4.28575 6.30813 -0.0468763 -0.10988 0.712136 -0.0888889 10.4459 0.810863 5.49938 -0.0219807 -0.0487423 0.998569
-16.0704 -5.72713 5.64337 -0.140468 -0.178621 -0.360001 -0.537833 10.4474 -0.0838047 5.69408 0.544413 -0.522051 0.656565
-6.30175 -19.9444 3.53238 0.182807 0.107814 0 -0.777778 10.4528 0.152117 2.12919 -0.228096 -0.556972 0.798595
-14.8401 -18.4291 0.006625 0.113002 0.146854 0.73229 -0.777778 10.4956 0.373929 1.16645 0.176416 -0.660119 0.73015
-8.90875 -20.9272 1.00675 0.140783 0.115173 0 -0.777778 10.5067 0.999854 1.67504 -0.535978 -0.817124 0.212217
-15.7332 -18.0243 0.6705 0.125726 0.128876 0.516629 -0.777778 10.5545 0.999887 1.16645 -0.0328294 -0.623416 0.781201
-3.20537 -13.4785 6.67462 0.030704 0.0541335 0 0.933333 10.5847 0.69745 2.74056 -0.537921 0.0456858 0.841756
-17.5072 -7.0805 4.16025 -0.244737 -0.203602 -0.0570109 -0.462858 10.5888 -0.31715 6.26247 0.551357 -0.826133 0.116228
-3.2485 -14.946 6.499 0.0673183 0.060524 0 0.933333 10.5913 0.610913 2.74056 -0.605747 -0.183097 0.774303
-12.1984 -20.1607 -0.610219 0.267803 0.106419 0 -0.777778 10.7294 0.366334 1.67504 0.023139 -0.257491 0.966004
-8.99281 -5.18831 9.17241 0.00358713 -0.215864 0 -0.0888889 10.7767 -0.347794 4.76188 0.596314 -0.785419 -0.165914
-3.97412 -19.4165 5.44812 -0.49659 0.0779307 -0.53927 -0.777778 10.8195 0.999864 2.414 -0.293376 -0.273517 0.916034
-10.4118 -6.27056 9.62613 0.105906 -0.210983 0 -0.0888889 10.8276 0.377422 4.76188 0.23397 -0.959916 -0.154338
-12.4902 -5.07987 7.84025 0.2066 -0.167214 0 -0.0888889 10.8356 -0.109436 4.76188 -0.52891 -0.777561 -0.340077
-2.89162 -16.6276 5.30275 0.1477 0.087628 0 0.933333 10.8624 -0.661675 2.414 -0.37582 -0.379951 0.84522
-14.434 -3.972 5.968 -0.105477 -0.14727 0 -0.288889 10.8807 0.249956 5.69408 0.435753 0.731254 0.524773
-11.9108 -6.32387 8.77262 0.0522473 -0.192889 0 -0.0888889 10.9045 0.999847 4.76188 -0.348543 -0.871239 -0.345631
-8.62788 -20.6373 -0.25675 0.094289 0.156201 0 -0.777778 10.9276 0.377374 1.67504 -0.323933 -0.794495 -0.513659
-2.83288 -12.1978 6.21525 0.00690667 0.0985057 0 0.933333 10.9441 0.0816939 3.33148 -0.138031 0.321809 0.936689
-11.6453 -4.60388 4.67525 -0.111387 0.146279 -0.441202 -0.155556 10.9667 -0.624341 5.49938 -0.344569 0.936217 -0.0690706
-13.9651 -19.3076 -0.856875 0.0230323 -0.0976105 0 -0.777778 10.9668 -0.19383 1.16645 -0.0841142 -0.234529 0.968463
-11.422 -3.9135 6.5525 0.0452527 0.1647 0.661268 -0.122222 10.9836 -0.403491 5.49938 -0.16872 0.857403 -0.486204
-7.252 -3.699 7.61825 -0.162745 0.19259 0 -0.11447 10.9952 -0.443783 4.5564 0.898046 -0.309276 0.312827
-2.969 -10.5732 5.882 0.076094 0.176759 0.871323 -0.288889 11.0349 -0.150684 4.3708 0.436682 -0.19055 0.879204
-7.308 -20.603 2.818 0.128695 0.117294 0 -0.777778 11.0591 0.586352 1.67504 -0.35892 -0.801035 0.479082
-16.5655 -17.2036 0.899375 -0.212634 -0.128282 -0.161303 -0.777778 11.0761 0.133714 1.16645 0.0662269 -0.459397 0.885759
-12.6186 -4.56244 4.20325 -0.116365 0.190434 0 -0.288889 11.0829 -0.571016 5.49938 0.34752 0.929517 0.123401
-4.953 -20.1855 3.813 0.072079 0.117709 0 -0.777778 11.1316 0.1257 2.414 -0.2254 -0.816646 0.531304
-4.507 -5.223 3.805 -0.311422 -0.144267 0 0.460967 11.1347 -0.999895 4.5564 -0.0883476 -0.753398 0.651602
-19.0096 -13.8686 0.02125 0.175048 -0.0780272 0 -0.777778 11.1365 0.311597 0.0565843 -0.192111 0.0336778 0.980795
-12.3745 -3.36175 7.0435 0.259066 -0.180671 0.820334 -0.0888889 11.1695 -0.0846172 5.49938 0.00283395 0.46792 -0.883766
-2.42688 -15.7767 6.43394 0.187632 0.0795395 0 0.933333 11.1721 -0.096815 2.414 -0.502325 -0.423562 0.753833
-5.74638 -3.5895 5.62288 -0.309303 0.14809 -0.640861 -0.777778 11.2398 -0.610421 4.5564 0.414054 -0.362659 0.834888
-6.71375 -2.89488 6.73688 -0.180739 0.172985 0.285931 -0.559582 11.2972 -0.999873 4.5564 0.760794 -0.448543 0.469043
-13.621 -3.619 7.156 -0.00765367 -0.151307 0 -0.0888889 11.3174 0.26688 5.49938 -0.581425 -0.365319 -0.726971
-15.8263 -4.70075 6.05 -0.0799593 -0.151629 0 -0.288889 11.3257 -0.469468 5.69408 0.445854 -0.386268 0.807472
-13.759 -3.865 4.518 -0.180889 0.165116 0 -0.288889 11.3397 0.457533 5.49938 0.378846 0.906421 0.186753
-19.0576 -8.329 1.66288 -0.200937 -0.094535 0 -0.155556 11.3443 -0.464996 6.26247 -0.427405 -0.602682 0.673869
-3.89775 -4.7585 5.049 -0.539587 -0.105969 -0.0210641 -0.690158 11.3673 -0.137544 4.5564 -0.243902 -0.553949 0.796023
-2.69519 -8.20844 5.88494 -0.162261 0.0726635 0 -0.14944 11.3887 0.0630964 4.3708 -0.341506 0.0724827 0.93708
3 108 154 115
3 130 155 124
3 124 155 197
3 124 154 108
3 66 92 108
3 92 124 108
3 115 103 70
3 118 103 143
3 143 158 118
3 141 161 113
3 161 147 113
3 113 147 100
3 124 92 130
3 100 77 113
3 106 80 82
3 80 77 41
3 43 20 41
3 50 37 19
3 19 36 33
3 70 72 37
3 72 78 37
3 112 159 148
3 159 112 189
3 141 113 106
3 105 82 75
3 67 75 82
3 80 42 82
3 80 41 42
3 3 2 0
3 18 10 30
3 2 19 10
3 30 10 33
3 64 33 59
3 33 64 45
3 87 55 64
3 45 64 55
3 64 91 87
3 87 91 117
3 64 59 91
3 148 185 117
3 55 87 76
3 117 163 135
3 135 163 180
3 128 123 173
3 93 75 54
3 54 52 71
3 71 52 89
3 52 54 31
3 31 13 26
3 54 28 31
3 13 31 12
3 13 12 1
3 22 32 8
3 22 38 32
3 22 14 23
3 1 15 14
3 15 25 23
3 25 16 24
3 24 21 39
3 51 29 34
3 58 51 73
3 56 34 55
3 56 76 81
3 123 170 172
3 138 123 93
3 138 93 101
3 101 93 71
3 156 138 101
3 89 90 116
3 150 125 153
3 150 153 199
3 153 122 149
3 111 85 96
3 57 46 74
3 57 74 96
3 38 74 46
3 38 53 74
3 53 38 22
3 53 47 83
3 79 47 44
3 79 44 99
3 47 23 44
3 99 63 97
3 97 63 88
3 97 88 129
3 104 69 126
3 98 68 58
3 24 40 25
3 69 98 107
3 139 132 98
3 107 98 144
3 132 144 98
3 120 139 84
3 84 127 120
3 84 81 109
3 127 152 177
3 144 171 126
3 171 140 126
3 191 129 174
3 174 129 140
3 139 120 164
3 127 177 164
3 96 83 119
3 83 47 79
3 88 104 129
3 8 32 26
3 103 115 143
3 143 115 151
3 151 115 154
3 130 92 100
3 100 62 77
3 62 100 92
3 50 62 92
3 50 92 66
3 118 112 78
3 118 78 72
3 118 72 103
3 103 72 70
3 146 112 118
3 146 118 158
3 112 146 189
3 189 146 158
3 195 161 141
3 100 137 130
3 167 130 137
3 167 137 147
3 147 137 100
3 50 43 62
3 62 43 41
3 62 41 77
3 19 7 20
3 19 20 35
3 7 19 3
3 19 35 50
3 50 35 43
3 43 35 20
3 78 19 37
3 59 33 60
3 36 60 33
3 112 86 78
3 60 78 86
3 60 86 59
3 91 59 86
3 91 86 148
3 148 86 112
3 141 175 195
3 160 175 141
3 134 173 194
3 134 160 141
3 82 134 106
3 106 134 141
3 105 134 82
3 54 75 49
3 49 75 67
3 49 67 42
3 28 54 49
3 42 27 49
3 49 27 28
3 7 9 27
3 20 7 42
3 42 7 27
3 5 9 7
3 3 5 7
3 5 0 4
3 0 5 3
3 1 12 4
3 1 4 0
3 15 1 6
3 6 1 0
3 6 0 2
3 11 6 18
3 2 10 6
3 6 10 18
3 33 10 19
3 148 117 91
3 102 76 87
3 102 87 135
3 102 135 133
3 133 135 180
3 117 135 87
3 128 134 105
3 134 128 173
3 123 128 93
3 93 128 105
3 93 105 75
3 90 89 65
3 52 65 89
3 61 48 26
3 26 48 31
3 31 48 65
3 31 65 52
3 65 48 90
3 90 48 61
3 90 61 94
3 12 31 28
3 12 28 17
3 17 28 27
3 5 4 9
3 9 4 17
3 9 17 27
3 17 4 12
3 15 23 14
3 21 24 11
3 21 11 29
3 29 11 18
3 6 11 16
3 16 11 24
3 58 39 29
3 39 21 29
3 58 29 51
3 51 34 56
3 84 73 51
3 84 51 81
3 56 81 51
3 114 81 102
3 114 102 133
3 114 133 169
3 76 102 81
3 180 169 133
3 170 123 138
3 54 71 93
3 156 170 138
3 182 156 136
3 182 136 193
3 136 192 193
3 116 192 136
3 116 90 110
3 110 94 145
3 94 110 90
3 199 153 149
3 61 57 85
3 85 57 96
3 26 46 57
3 26 57 61
3 61 85 94
3 25 44 23
3 104 88 69
3 63 69 88
3 98 69 68
3 40 68 69
3 40 69 63
3 58 68 39
3 39 68 40
3 39 40 24
3 109 127 84
3 127 109 152
3 152 109 114
3 152 114 169
3 114 109 81
3 144 162 187
3 144 187 171
3 104 126 140
3 104 140 129
3 97 129 99
3 99 129 131
3 131 129 168
3 121 99 131
3 121 131 166
3 166 131 168
3 139 162 132
3 162 144 132
3 198 192 116
3 157 188 116
3 198 116 188
3 145 157 110
3 150 157 145
3 116 110 157
3 121 178 119
3 96 119 111
3 111 119 142
3 142 119 178
3 178 121 166
3 121 119 99
3 99 119 79
3 79 119 83
3 134 175 160
3 190 134 194
3 134 190 181
3 134 181 179
3 179 186 134
3 134 186 196
3 175 134 196
3 154 124 197
3 70 66 108
3 108 115 70
3 113 77 80
3 113 80 106
3 66 70 37
3 50 66 37
3 42 41 20
3 3 19 2
3 163 117 165
3 117 185 165
3 8 1 14
3 14 22 8
3 13 1 8
3 6 16 15
3 16 25 15
3 34 18 30
3 34 30 55
3 29 18 34
3 33 45 30
3 30 45 55
3 55 76 56
3 173 123 176
3 172 176 123
3 101 136 156
3 89 101 71
3 101 89 136
3 125 94 122
3 122 153 125
3 122 85 111
3 85 122 94
3 38 46 32
3 46 26 32
3 8 26 13
3 22 47 53
3 23 47 22
3 25 40 44
3 63 44 40
3 44 63 99
3 98 95 139
3 95 98 58
3 58 73 95
3 95 73 84
3 139 95 84
3 136 89 116
3 149 122 111
3 142 149 111
3 183 149 142
3 96 74 83
3 53 83 74
3 107 126 69
3 126 107 144
3 139 184 162
3 120 127 164
3 168 129 191
3 191 166 168
3 145 94 125
3 145 125 150
3 78 60 36
3 78 36 19
3 67 82 42
