ply
format ascii 1.0
comment Generated by PyMesh
element vertex 188
property float x
property float y
property float z
property float nx
property float ny
property float nz
element face 319
property list uchar int vertex_indices
end_header
-18.7805 -6.90188 15.6709 0.146899 -0.741063 -0.655169
-17.911 -6.2715 15.196 -0.413333 -0.739608 -0.531165
-20.0229 -7.55125 15.8363 0.562908 -0.387783 -0.729903
-17.8437 -7.97316 16.2629 -0.424628 -0.21275 -0.880016
-19.545 -7.992 16.6395 0.269309 -0.335886 -0.902581
-18.6523 -6.01937 14.132 0.0278223 -0.975824 -0.216778
-20.324 -6.3865 14.3372 0.499942 -0.811387 -0.302835
-20.6695 -7.0855 15.0363 0.67072 -0.488536 -0.558093
-17.0825 -7.7875 15.585 -0.834138 -0.0571497 -0.548587
-17.0045 -6.579 13.7055 -0.372483 -0.798344 -0.473185
-19.1028 -6.053 12.8455 0.136644 -0.958058 0.251901
-20.1265 -9.2905 16.176 0.611254 0.245662 -0.752342
-18.8542 -9.37125 16.6077 -0.0286449 0.379911 -0.924579
-21.2502 -8.50362 14.8431 0.671974 -0.133546 -0.728434
-20.213 -6.25775 13.0215 0.370986 -0.88433 0.283425
-16.4895 -7.686 14.14 -0.666855 -0.076441 -0.741257
-17.4824 -9.63325 15.3156 -0.740196 0.487666 -0.462917
-16.891 -8.604 14.5685 -0.911108 0.276913 -0.30529
-21.5989 -7.74388 13.9134 0.659801 -0.707421 -0.253412
-16.9878 -6.00616 12.5084 0.0390774 -0.970228 -0.23902
-15.8385 -6.69825 13.663 -0.370887 -0.574621 -0.729557
-19.343 -10.0887 16.0842 0.269278 0.796883 -0.540802
-18.333 -6.3345 12.108 0.250826 -0.908366 0.3346
-20.4977 -9.66825 15.1231 0.461489 0.593141 -0.659705
-15.4591 -7.77588 13.7755 -0.501152 0.0173468 -0.865186
-20.79 -7.24388 12.0931 0.580424 -0.770568 0.263312
-22.3465 -8.49375 14.0885 0.588423 -0.468957 -0.658663
-18.4521 -10.3144 15.4754 -0.275903 0.864479 -0.420183
-21.5238 -10.0594 14.7436 0.230592 0.180458 -0.95617
-18.3009 -10.4878 14.4353 -0.351694 0.898683 -0.262068
-16.9587 -9.418 13.788 -0.698075 0.434666 -0.568996
-19.261 -6.84125 11.6965 0.368084 -0.864345 0.342669
-17.401 -6.03675 11.4762 0.51537 -0.855702 0.0465509
-15.4358 -9.10581 13.2952 -0.419749 0.28432 -0.861959
-15.3011 -6.19775 12.604 -0.272386 -0.641142 -0.717456
-21.936 -7.92137 12.5278 0.511917 -0.808369 0.290657
-19.324 -10.4045 14.811 0.125617 0.949726 -0.286775
-20.4439 -10.5723 14.3776 -0.1757 0.687899 -0.704219
-23.149 -9.1075 13.7925 -0.118113 -0.489313 -0.864073
-14.5334 -8.09988 12.9789 -0.416646 -0.127902 -0.900026
-16.8458 -10.3915 13.2823 -0.0914488 0.806767 -0.58375
-20.3315 -7.74131 10.5953 0.524645 -0.768145 0.367016
-15.803 -4.925 11.1187 0.354256 -0.763653 -0.539757
-23.2985 -8.6565 12.6355 -0.149108 -0.988821 -0.000164651
-22.4034 -11.3806 14.4312 -0.279148 -0.00970253 -0.960199
-19.2892 -10.6217 13.267 -0.334676 0.910521 -0.242781
-20.5223 -11.3789 13.7464 -0.520897 0.660354 -0.540924
-17.8043 -6.68175 10.2825 0.530315 -0.818463 0.221099
-23.98 -8.416 14.069 -0.801276 -0.42702 -0.419059
-21.4137 -11.8073 13.9376 -0.545339 0.442209 -0.712079
-24.1569 -9.28213 14.6067 -0.65629 -0.196043 -0.728595
-23.42 -10.2725 14.429 -0.470196 -0.275288 -0.83853
-19.3347 -7.254 9.89163 0.48933 -0.816662 0.305973
-13.3403 -7.75063 12.6695 -0.078355 -0.532924 -0.842527
-15.3629 -10.7626 12.8304 -0.332311 0.671036 -0.662782
-17.1159 -5.79738 9.5235 0.853315 -0.519417 -0.0453887
-22.8943 -9.02575 11.4333 0.150304 -0.942415 0.298769
-13.842 -9.499 12.3448 0.114291 0.198146 -0.973486
-21.7401 -8.90375 10.7118 0.36967 -0.912761 0.173817
-18.04 -10.3495 12.4425 -0.0188837 0.93446 -0.355567
-14.5136 -10.6986 12.1084 -0.118791 0.560971 -0.819268
-13.6006 -5.50238 11.3686 -0.430903 -0.636383 -0.639796
-15.2399 -4.01038 10.1786 0.0501641 -0.892009 -0.449225
-17.2897 -10.9758 11.8864 0.307248 0.871201 -0.382894
-14.4446 -4.32575 10.8495 -0.216204 -0.790347 -0.573243
-23.7349 -11.4009 14.8865 -0.20439 -0.0241314 -0.978592
-16.623 -4.8675 9.69606 0.79169 -0.538524 -0.288476
-24.2743 -7.45813 13.5571 -0.927345 -0.362319 -0.0935721
-12.4315 -8.2485 13.1453 0.145432 -0.269293 -0.952014
-22.7603 -12.7945 14.5735 -0.444675 -0.157526 -0.881731
-16.3521 -11.4514 11.8585 0.0602094 0.903033 -0.42533
-20.1845 -8.6605 9.077 0.476436 -0.824735 0.304665
-21.3273 -8.8025 9.55481 0.2227 -0.958482 0.178095
-24.362 -7.525 11.982 -0.886754 -0.400919 0.230069
-24.5421 -7.63413 14.8821 -0.897409 -0.127787 -0.422288
-21.7095 -13.0495 13.7542 -0.650328 -0.14921 -0.744856
-17.4675 -6.8385 8.893 0.745376 -0.6652 0.0438689
-20.0719 -11.826 12.3647 -0.660231 0.616466 -0.429027
-25.0569 -9.07125 15.4163 -0.546323 0.134883 -0.826643
-18.9442 -11.0352 11.6637 -0.371316 0.846535 -0.381449
-12.997 -6.8425 12.0225 -0.0988507 -0.649519 -0.753892
-24.6903 -10.3582 15.2692 -0.331744 0.0426787 -0.942404
-21.164 -12.614 12.603 -0.847744 0.221375 -0.481999
-24.2651 -8.96638 10.8674 -0.64891 -0.734414 0.198877
-18.6239 -7.34106 8.705 0.53879 -0.830792 0.139607
-23.4648 -9.215 10.282 -0.116334 -0.992464 -0.0384874
-23.8135 -12.9655 14.8745 -0.0165388 -0.164178 -0.986292
-17.0427 -5.50575 8.13175 0.914394 -0.404824 0.000975317
-15.234 -11.3053 11.3237 -0.100538 0.894178 -0.436278
-15.8931 -3.66613 9.317 0.474484 -0.829969 -0.293286
-12.9963 -10.7945 12.6664 0.319079 0.427744 -0.845709
-21.0245 -13.6438 12.84 -0.882519 -0.299105 -0.362899
-24.4695 -6.49 14.027 -0.972331 -0.202944 -0.1157
-24.6031 -6.60281 12.3184 -0.963841 -0.218366 0.152733
-22.695 -13.8725 14.969 -0.371655 -0.333765 -0.866299
-11.4593 -7.06425 12.5245 -0.0430158 -0.6673 -0.743546
-12.1716 -9.38762 13.3766 0.174566 0.148977 -0.97331
-13.5747 -4.53587 9.77962 -0.68619 -0.688193 -0.235655
-12.9268 -5.85825 10.0618 -0.698661 -0.694381 -0.17236
-12.3375 -6.3815 11.3695 -0.259074 -0.89831 -0.354851
-24.8075 -12.0948 14.653 0.152374 0.243081 -0.957963
-20.1338 -8.74375 7.88375 0.446913 -0.885445 -0.127498
-24.6623 -7.54462 10.8359 -0.941904 -0.298514 0.153971
-17.37 -6.47 7.5005 0.832502 -0.537503 0.13428
-14.9088 -3.36075 8.43425 0.0743413 -0.974183 -0.213168
-20.9441 -14.2774 14.1104 -0.656228 -0.535194 -0.531913
-17.642 -11.1625 10.057 0.0708431 0.739224 -0.669724
-16.3331 -11.9799 10.336 0.25465 0.623967 -0.738795
-25.9482 -10.5319 15.2934 -0.0906333 0.436551 -0.895103
-21.5298 -9.17 7.988 0.129959 -0.990607 -0.042527
-20.6022 -13.328 11.6995 -0.936276 0.084451 -0.340963
-25.071 -6.36575 15.7308 -0.961125 -0.0348825 -0.2739
-25.3223 -7.353 16.2712 -0.751181 0.277511 -0.598928
-18.8921 -11.6245 10.3421 -0.543557 0.608633 -0.578024
-13.9991 -3.79312 8.62912 -0.539987 -0.798588 -0.265839
-16.9635 -5.543 7.033 0.878562 -0.357826 0.316369
-10.6558 -8.67522 13.3047 -0.176408 -0.207952 -0.9621
-23.27 -9.02525 9.075 -0.0507863 -0.993967 -0.0972104
-24.3194 -8.68213 9.49525 -0.684471 -0.726125 -0.0651303
-16.0777 -3.76875 8.203 0.711117 -0.702398 -0.0308115
-13.0511 -12.0589 11.1349 0.334992 0.609531 -0.718507
-18.4643 -7.255 7.23925 0.51067 -0.841295 0.17731
-14.9095 -11.794 10.3015 0.13334 0.56375 -0.815111
-24.2787 -14.2273 15.3814 -0.187205 -0.581612 -0.791632
-24.6496 -5.57312 13.2814 -0.915522 -0.399765 -0.0448003
-12.061 -6.426 9.85625 -0.196044 -0.978588 -0.0627064
-26.873 -9.08488 16.3076 -0.542181 0.464401 -0.700266
-11.7086 -11.227 12.6416 0.155044 0.504703 -0.849256
-24.8995 -7.225 9.8345 -0.992452 -0.112955 0.0477527
-13.1315 -5.173 8.925 -0.755563 -0.598811 -0.265611
-20.2013 -14.7099 12.4825 -0.897953 -0.43703 0.0518187
-20.2196 -13.3044 10.6401 -0.761396 0.321536 -0.56293
-16.4112 -4.2905 7.04475 0.838796 -0.44615 0.312044
-24.994 -5.30963 14.6462 -0.963333 -0.239604 -0.120742
-21.8455 -15.0938 14.9732 -0.359799 -0.248848 -0.899233
-25.0375 -6.1895 10.903 -0.998942 -0.0459705 0.00106772
-10.918 -6.34381 11.3474 -0.0343879 -0.954799 -0.295256
-23.3092 -8.954 7.83125 -0.269986 -0.961625 -0.0488332
-25.6367 -13.6027 14.3519 0.157091 -0.424198 -0.89184
-18.0872 -12.0767 9.72775 -0.144112 0.253934 -0.956425
-19.3284 -7.98259 6.64594 0.400781 -0.916003 0.0177111
-17.0565 -12.6155 9.80875 0.274633 0.11672 -0.954439
-26.1826 -11.346 14.5651 0.187801 0.455244 -0.870336
-19.4224 -12.7526 9.99325 -0.537361 0.287897 -0.79269
-21.3472 -8.6665 6.9135 0.279968 -0.926246 -0.252362
-14.8453 -3.09875 7.2685 0.063646 -0.38891 -0.919075
-25.0672 -5.18225 15.6625 -0.999723 0.0152582 -0.0179421
-11.9108 -6.32387 8.77262 -0.348543 -0.871239 -0.345631
-10.6073 -10.0638 12.9993 -0.00148864 0.236394 -0.971656
-20.1612 -15.324 14.3276 -0.659343 -0.395084 -0.639669
-25.3781 -5.99813 16.916 -0.837572 0.234685 -0.493352
-9.68125 -7.01875 11.9342 -0.393483 -0.648419 -0.651709
-15.6134 -13.1465 10.1267 0.135047 0.00100278 -0.990839
-17.048 -7.02975 6.08975 0.706083 -0.625624 0.331724
-9.599 -7.886 12.478 -0.444608 -0.470896 -0.761958
-24.5791 -8.30962 8.16063 -0.825595 -0.561846 -0.052172
-13.621 -3.619 7.156 -0.581425 -0.365319 -0.726971
-24.9455 -4.472 12.149 -0.869816 0.163171 -0.465613
-26.3605 -7.1855 17.4255 -0.79986 0.333164 -0.499225
-13.9409 -12.787 10.2555 0.321426 0.100952 -0.941538
-20.7668 -14.7948 10.9923 -0.989371 -0.0093741 -0.14511
-11.7505 -12.7638 11.138 0.546991 0.154282 -0.822799
-22.7266 -9.01175 6.79588 -0.0582471 -0.99656 -0.0589609
-16.0704 -5.72713 5.64337 0.544413 -0.522051 0.656565
-11.244 -12.127 12.0522 0.665982 0.292855 -0.686079
-15.773 -3.4955 6.645 0.923786 -0.380056 0.0466609
-27.7169 -10.416 15.7773 -0.561029 0.661907 -0.497118
-23.6983 -15.4121 15.7929 -0.505832 -0.346783 -0.789858
-10.486 -11.3888 12.7402 0.450092 -0.105326 -0.886749
-27.6816 -9.48 17.2225 -0.839213 0.537233 -0.0842804
-12.4902 -5.07987 7.84025 -0.52891 -0.777561 -0.340077
-27.0502 -8.16725 17.2865 -0.80342 0.523062 -0.28447
-25.159 -7.1915 8.578 -0.99791 0.0161028 -0.0625766
-17.9305 -7.7 5.6845 0.473958 -0.878643 0.0578875
-8.998 -8.733 12.5118 -0.600919 -0.349797 -0.718706
-15.8263 -4.70075 6.05 0.445854 -0.386268 0.807472
-25.4662 -4.19425 14.3174 -0.738833 -0.651896 0.170754
-24.6723 -6.2505 8.82925 -0.958404 0.28176 0.0455346
-13.0988 -13.906 10.6888 0.488421 -0.186139 -0.852524
-22.1509 -16.184 15.2255 -0.4255 -0.171971 -0.888468
-18.3202 -13.137 9.70988 -0.0848291 0.0187486 -0.996219
-17.3151 -13.7944 9.69925 0.128148 0.0611198 -0.98987
-19.252 -13.9431 9.88231 -0.230642 0.0821338 -0.969566
-25.1311 -14.8569 16.837 -0.561717 -0.619481 -0.548377
-10.4118 -6.27056 9.62613 0.23397 -0.959916 -0.154338
-24.5348 -5.35962 9.98388 -0.895138 0.434021 -0.101751
-13.7907 -2.59575 7.293 -0.0844454 0.0670477 -0.99417
-24.8498 -4.58025 16.602 -0.979338 -0.130903 -0.154149
3 111 150 146
3 74 133 92
3 67 92 93
3 93 135 102
3 135 128 102
3 128 135 185
3 128 185 177
3 102 128 118
3 155 137 118
3 137 72 117
3 117 72 58
3 171 158 112
3 171 126 169
3 166 126 108
3 48 50 74
3 43 48 67
3 74 67 48
3 73 93 102
3 83 118 85
3 117 85 118
3 56 35 43
3 101 140 84
3 121 140 173
3 138 142 100
3 81 50 51
3 81 51 65
3 38 44 51
3 65 51 44
3 25 18 35
3 25 14 6
3 22 14 31
3 25 31 14
3 41 25 35
3 58 72 41
3 41 71 52
3 76 47 84
3 52 84 47
3 55 47 76
3 55 76 87
3 103 76 121
3 153 103 121
3 123 134 167
3 86 138 100
3 65 44 86
3 69 86 44
3 69 75 94
3 75 44 49
3 75 49 91
3 91 49 82
3 82 49 77
3 46 37 45
3 37 36 45
3 45 36 29
3 36 37 23
3 11 13 2
3 2 13 7
3 0 6 5
3 5 19 9
3 32 19 22
3 22 31 32
3 22 19 10
3 19 32 42
3 55 42 32
3 34 19 42
3 97 62 114
3 87 132 119
3 134 179 167
3 105 134 94
3 75 91 105
3 130 91 110
3 110 160 130
3 160 110 131
3 77 131 110
3 79 59 63
3 40 30 33
3 59 45 40
3 24 39 33
3 33 15 24
3 42 61 34
3 34 61 53
3 53 61 80
3 114 129 97
3 114 156 129
3 149 134 105
3 143 182 131
3 113 77 79
3 182 180 181
3 181 180 141
3 107 181 141
3 152 107 122
3 122 107 88
3 63 70 107
3 70 88 107
3 33 57 60
3 88 60 120
3 57 68 96
3 68 39 53
3 95 53 80
3 80 99 95
3 99 80 61
3 125 99 98
3 61 98 99
3 99 125 136
3 184 125 147
3 127 168 164
3 148 96 116
3 154 95 151
3 161 178 120
3 8 17 16
3 77 49 46
3 142 166 108
3 124 133 176
3 150 187 146
3 158 150 112
3 111 112 150
3 78 112 74
3 74 112 111
3 67 74 92
3 93 92 124
3 124 92 133
3 93 124 157
3 166 169 126
3 108 126 78
3 108 78 81
3 81 78 50
3 50 48 38
3 43 38 48
3 51 50 38
3 26 38 43
3 52 71 84
3 84 71 101
3 140 121 84
3 65 100 81
3 81 100 108
3 108 100 142
3 86 100 65
3 49 37 46
3 37 49 28
3 28 49 44
3 28 44 38
3 28 38 26
3 23 37 28
3 23 28 13
3 13 28 26
3 18 13 26
3 35 18 43
3 43 18 26
3 2 7 6
3 6 7 18
3 6 18 25
3 18 7 13
3 14 5 6
3 10 5 14
3 10 14 22
3 41 31 25
3 52 31 41
3 115 87 103
3 115 103 153
3 103 87 76
3 132 115 163
3 132 163 175
3 153 163 115
3 94 134 123
3 94 123 86
3 94 86 69
3 86 123 138
3 79 77 45
3 45 77 46
3 40 45 29
3 30 40 29
3 30 29 16
3 30 16 17
3 27 29 36
3 29 27 16
3 11 21 23
3 21 11 12
3 23 21 36
3 36 21 27
3 27 21 12
3 27 12 16
3 4 3 12
3 3 4 0
3 0 4 2
3 11 2 12
3 12 3 16
3 12 2 4
3 6 0 2
3 9 15 1
3 5 9 1
3 5 1 0
3 0 1 3
3 3 1 8
3 8 1 15
3 8 15 17
3 24 15 20
3 34 20 19
3 9 19 20
3 9 20 15
3 66 42 55
3 62 64 42
3 64 62 97
3 62 42 66
3 104 114 62
3 104 62 89
3 104 89 119
3 119 89 66
3 119 66 87
3 66 89 62
3 55 87 66
3 145 104 165
3 119 165 104
3 175 165 132
3 132 165 119
3 114 104 145
3 114 145 156
3 183 123 167
3 91 130 105
3 40 63 59
3 39 24 20
3 39 20 34
3 53 39 34
3 97 98 61
3 97 61 64
3 64 61 42
3 129 98 97
3 149 105 130
3 182 143 180
3 181 107 152
3 54 88 70
3 54 40 33
3 40 54 70
3 40 70 63
3 60 88 54
3 60 54 33
3 90 120 60
3 90 60 57
3 127 90 96
3 96 90 57
3 95 116 68
3 68 116 96
3 68 53 95
3 99 136 95
3 136 151 95
3 95 154 116
3 116 154 174
3 145 186 156
3 16 3 8
3 146 133 111
3 111 133 74
3 185 135 157
3 157 135 93
3 128 177 172
3 128 172 155
3 118 128 155
3 162 144 109
3 162 109 137
3 137 109 72
3 112 78 126
3 171 112 126
3 50 78 74
3 43 67 73
3 73 67 93
3 43 73 83
3 102 83 73
3 102 118 83
3 43 83 56
3 56 83 85
3 137 117 118
3 58 85 117
3 85 58 56
3 56 58 35
3 101 71 109
3 101 109 144
3 72 109 71
3 101 144 140
3 35 58 41
3 41 72 71
3 84 121 76
3 173 153 121
3 75 69 44
3 23 13 11
3 10 19 5
3 55 32 47
3 52 47 31
3 31 47 32
3 87 115 132
3 105 94 75
3 91 82 110
3 77 110 82
3 45 59 79
3 30 17 15
3 30 15 33
3 77 113 143
3 77 143 131
3 139 141 180
3 139 180 143
3 139 143 113
3 63 107 106
3 63 106 79
3 79 106 113
3 113 106 139
3 139 106 141
3 107 141 106
3 33 39 57
3 68 57 39
3 129 170 147
3 129 147 98
3 98 147 125
3 125 184 136
3 129 156 170
3 122 159 152
3 159 122 120
3 122 88 120
3 90 127 120
3 96 148 127
3 127 148 168
3 120 178 159
3 161 120 164
3 164 120 127
