ply
format ascii 1.0
comment Generated by PyMesh
element vertex 200
property float x
property float y
property float z
property float charge
property float ddc
property float hbond
property float hphob
property float rho
property float si
property float theta
property float nx
property float ny
property float nz
element face 339
property list uchar int vertex_indices
end_header
-17.8043 -6.68175 10.2825 0.213745 0 0 -0.0888889 1e-08 0.461547 2.22045e-16 0.530315 -0.818463 0.221099
-17.1159 -5.79738 9.5235 0.256873 0.270372 0 -0.160835 1.35355 0.0971588 0.929947 0.853315 -0.519417 -0.0453887
-17.401 -6.03675 11.4762 0.108734 -0.107734 0 -0.16549 1.41548 -0.137755 2.44795 0.51537 -0.855702 0.0465509
-17.4675 -6.8385 8.893 0.0557223 0.115309 0 -0.0888889 1.4383 0.738786 2.22045e-16 0.745376 -0.6652 0.0438689
-19.3347 -7.254 9.89163 0.152654 0.151058 0.287924 -0.63516 1.67999 -0.651943 4.68436 0.48933 -0.816662 0.305973
-18.6239 -7.34106 8.705 0.0570087 0.0613832 0 -0.0888889 1.89603 0.0479925 5.47011 0.53879 -0.830792 0.139607
-19.261 -6.84125 11.6965 -0.243992 0.181338 0 -0.0888889 2.03637 0.277998 3.67606 0.368084 -0.864345 0.342669
-16.623 -4.8675 9.69606 0.265922 0.214125 0.0800778 -0.132375 2.42004 -0.580168 1.10878 0.79169 -0.538524 -0.288476
-16.9878 -6.00616 12.5084 0.16828 -0.28793 0 -0.177778 2.52774 -0.268516 2.51015 0.0390774 -0.970228 -0.23902
-18.333 -6.3345 12.108 0.091576 0.241602 -0.120039 -0.0912609 2.58015 0.282037 3.0471 0.250826 -0.908366 0.3346
-17.0427 -5.50575 8.13175 0.139628 0.184488 0.0189671 -0.0888889 2.7774 -0.731275 0.468889 0.914394 -0.404824 0.000975317
-17.37 -6.47 7.5005 -0.192306 0.109965 -0.747237 -0.695038 2.88203 0.15415 0.0561957 0.832502 -0.537503 0.13428
-20.3315 -7.74131 10.5953 0.199796 0.104117 0.0211574 -0.577367 2.99385 -0.0744587 4.3443 0.524645 -0.768145 0.367016
-18.4643 -7.255 7.23925 -0.370103 -0.050197 -0.530836 -0.632871 3.37296 -0.443081 5.86623 0.51067 -0.841295 0.17731
-15.803 -4.925 11.1187 -0.006921 -0.249532 -0.811647 -0.177778 3.39473 -0.25577 1.74976 0.354256 -0.763653 -0.539757
-20.1845 -8.6605 9.077 0.175931 0.0787741 0 -1 3.51412 0.901947 4.89444 0.476436 -0.824735 0.304665
-20.79 -7.24388 12.0931 0.140248 0.0482915 0 -0.610956 3.66648 -0.22274 3.87767 0.580424 -0.770568 0.263312
-19.1028 -6.053 12.8455 0.0926913 0.186748 -0.218172 -0.149494 3.68276 -0.584342 3.14552 0.136644 -0.958058 0.251901
-20.213 -6.25775 13.0215 0.18907 0.0918473 0 -0.80846 3.76912 -0.856385 3.48888 0.370986 -0.88433 0.283425
-17.0045 -6.579 13.7055 0.209189 -0.328415 0.0484967 -0.177778 3.85494 0.0532711 2.62348 -0.372483 -0.798344 -0.473185
-15.8931 -3.66613 9.317 0.0168946 -0.11543 0.787115 -0.16315 3.87597 -0.999886 1.12602 0.474484 -0.829969 -0.293286
-16.9635 -5.543 7.033 -0.11205 0.148976 0.573641 -0.0888889 3.87964 -0.596404 0.288132 0.878562 -0.357826 0.316369
-20.1338 -8.74375 7.88375 0.118923 0.0798627 0 -1 4.11454 0.766052 5.17893 0.446913 -0.885445 -0.127498
-15.2399 -4.01038 10.1786 0.048477 -0.218031 0.0615469 -0.0972704 4.11723 -0.428873 1.41425 0.0501641 -0.892009 -0.449225
-19.3284 -7.98259 6.64594 -0.32721 0.0683236 0.000629393 -0.778167 4.16487 -0.0266087 5.61423 0.400781 -0.916003 0.0177111
-15.3011 -6.19775 12.604 0.50108 -0.355039 -0.194779 -0.177778 4.22797 -0.206937 2.19969 -0.272386 -0.641142 -0.717456
-15.8385 -6.69825 13.663 0.586543 -0.336121 0.523724 -0.177778 4.29776 -0.999858 2.45592 -0.370887 -0.574621 -0.729557
-16.0777 -3.76875 8.203 0.0361967 0.0423122 0 -0.0888889 4.35235 -0.514211 0.833358 0.711117 -0.702398 -0.0308115
-17.048 -7.02975 6.08975 -0.476217 -0.0663725 0 -0.777778 4.43355 0.635334 6.18439 0.706083 -0.625624 0.331724
-16.4112 -4.2905 7.04475 -0.010762 0.103334 0.812023 -0.0888889 4.52589 -0.628653 0.542816 0.838796 -0.44615 0.312044
-21.3273 -8.8025 9.55481 0.264206 0.109044 0 -1 4.7609 -0.0240967 4.65608 0.2227 -0.958482 0.178095
-21.7401 -8.90375 10.7118 0.347503 0.067349 0 -1 4.82388 0.945378 4.43072 0.36967 -0.912761 0.173817
-18.6523 -6.01937 14.132 0.176105 -0.177786 0 0.0998822 4.85299 -0.501133 3.01094 0.0278223 -0.975824 -0.216778
-14.4446 -4.32575 10.8495 -0.113263 -0.26104 -0.487567 -0.132564 4.90364 -0.99988 1.58582 -0.216204 -0.790347 -0.573243
-21.936 -7.92137 12.5278 0.265757 0.0467934 0 -1 5.06693 -0.340597 4.01881 0.511917 -0.808369 0.290657
-17.9305 -7.7 5.6845 -0.513793 0.0412809 0 -0.777778 5.07596 0.787553 5.91879 0.473958 -0.878643 0.0578875
-20.324 -6.3865 14.3372 0.221022 -0.0888806 0 1 5.09575 -0.999791 3.41285 0.499942 -0.811387 -0.302835
-16.4895 -7.686 14.14 0.249945 -0.403639 0 -0.866667 5.15088 0.0837004 2.67514 -0.666855 -0.076441 -0.741257
-14.9088 -3.36075 8.43425 0.00988187 -0.140115 0 -0.0888889 5.23293 -0.527912 1.05168 0.0743413 -0.974183 -0.213168
-21.5298 -9.17 7.988 0.0304505 0.112166 0 -1 5.31838 0.691841 4.97594 0.129959 -0.990607 -0.042527
-15.4591 -7.77588 13.7755 0.861067 -0.387031 0.088854 -0.773651 5.44575 -0.734937 2.54374 -0.501152 0.0173468 -0.865186
-19.3487 -8.19125 5.2865 -0.36462 0.110005 0 -0.777778 5.54038 0.64919 5.69659 0.123666 -0.9825 -0.139282
-16.0704 -5.72713 5.64337 -0.140468 -0.122035 -0.360001 -0.537833 5.54174 -0.0838047 0.236972 0.544413 -0.522051 0.656565
-15.773 -3.4955 6.645 -0.114715 0.0936861 0 -0.151249 5.62093 -0.0697984 0.64968 0.923786 -0.380056 0.0466609
-17.911 -6.2715 15.196 0.204766 -0.247293 0 1 5.62635 -0.999889 2.83 -0.413333 -0.739608 -0.531165
-21.3472 -8.6665 6.9135 -0.0288818 0.0986263 0 -1 5.67008 -0.410649 5.24666 0.279968 -0.926246 -0.252362
-13.6006 -5.50238 11.3686 0.099116 -0.288969 0 -0.0888889 5.68522 -0.327554 1.79161 -0.430903 -0.636383 -0.639796
-21.5989 -7.74388 13.9134 0.105045 -0.0671931 -0.0787328 -0.922018 5.72021 -0.280303 3.78644 0.659801 -0.707421 -0.253412
-15.8263 -4.70075 6.05 -0.0799593 -0.162747 0 -0.288889 5.75061 -0.469468 0.456012 0.445854 -0.386268 0.807472
-13.5747 -4.53587 9.77962 0.055301 -0.285285 0 -0.0888889 5.90838 -0.568209 1.43864 -0.68619 -0.688193 -0.235655
-16.272 -6.41025 4.868 -0.196917 -0.0533033 -0.260354 -0.537218 6.00792 0.0206288 0.236972 0.376086 -0.90874 0.180975
-20.8832 -8.26775 5.65475 -0.328951 0.0921849 -0.121059 -0.777778 6.03066 -0.165529 5.24666 0.241635 -0.944963 -0.220583
-13.9991 -3.79312 8.62912 0.20013 -0.242515 0 -0.0888889 6.11415 -0.509045 1.05168 -0.539987 -0.798588 -0.265839
-20.6695 -7.0855 15.0363 0.123762 -0.128813 -0.585066 -0.0157454 6.14299 -0.757273 3.41285 0.67072 -0.488536 -0.558093
-22.8943 -9.02575 11.4333 0.362197 0.0956176 0 -1 6.19049 0.631109 4.43072 0.150304 -0.942415 0.298769
-16.891 -8.604 14.5685 0.296941 -0.398441 0 -0.866667 6.24063 -0.637084 2.67514 -0.911108 0.276913 -0.30529
-14.5334 -8.09988 12.9789 1 -0.35426 0 -0.866667 6.31316 0.0769332 2.54374 -0.416646 -0.127902 -0.900026
-14.8453 -3.09875 7.2685 -0.106071 0.221434 0 -0.0888889 6.42945 0.173275 0.64968 0.063646 -0.38891 -0.919075
-23.2985 -8.6565 12.6355 0.145161 0.129512 0 -1 6.61884 0.171649 4.01881 -0.149108 -0.988821 -0.000164651
-23.4648 -9.215 10.282 0.315044 0.127516 0 -1 6.62837 0.839958 4.43072 -0.116334 -0.992464 -0.0384874
-18.7805 -6.90188 15.6709 0.205645 -0.163624 0 1 6.63161 -0.444014 2.83 0.146899 -0.741063 -0.655169
-17.0825 -7.7875 15.585 0.30018 -0.320765 0 -0.191002 6.71612 -0.858649 2.67514 -0.834138 -0.0571497 -0.548587
-13.3403 -7.75063 12.6695 0.488417 -0.232421 0 -0.477887 6.73007 0.309244 2.19969 -0.078355 -0.532924 -0.842527
-19.9748 -7.73325 4.382 -0.56974 0.112588 -0.194228 -0.777778 6.73197 -0.325348 5.69659 0.0252994 -0.972989 -0.22946
-23.27 -9.02525 9.075 0.108075 0.122455 0 -1 6.77433 0.324712 4.65608 -0.0507863 -0.993967 -0.0972104
-17.5072 -7.0805 4.16025 -0.244737 -0.0159166 -0.0570109 -0.462858 6.77487 -0.31715 5.91879 0.551357 -0.826133 0.116228
-22.3465 -8.49375 14.0885 -0.068124 -0.131874 0 -0.177778 6.79346 -0.569041 3.78644 0.588423 -0.468957 -0.658663
-15.4358 -9.10581 13.2952 0.96659 -0.390708 0 -0.866667 6.85995 -0.179197 2.54374 -0.419749 0.28432 -0.861959
-16.5045 -2.70075 6.00325 -0.242911 0.237236 0 -0.0888889 6.87734 -0.280207 0.64968 0.742702 0.574164 -0.344571
-18.504 -7.66988 3.92006 -0.246476 0.0773455 0 -0.773431 6.93151 0.0743183 5.69659 0.180183 -0.982802 0.0404267
-21.2502 -8.50362 14.8431 -0.296657 -0.174278 -0.838733 -0.177778 6.97046 -0.200459 3.78644 0.671974 -0.133546 -0.728434
-16.9587 -9.418 13.788 0.235878 -0.422784 0 -0.866667 6.97951 0.382773 2.67514 -0.698075 0.434666 -0.568996
-22.7266 -9.01175 6.79588 -0.199122 0.114683 0 -1 7.015 0.256502 5.24666 -0.0582471 -0.99656 -0.0589609
-20.0229 -7.55125 15.8363 0.178879 -0.151586 -0.317033 0.147612 7.01789 -0.207275 3.41285 0.562908 -0.387783 -0.729903
-13.1315 -5.173 8.925 0.0186621 -0.283256 0 -0.0888889 7.06282 0.513889 1.43864 -0.755563 -0.598811 -0.265611
-16.6895 -6.5235 3.8545 -0.247934 -0.0700266 -0.0845656 -0.266918 7.10988 -0.999905 0.236972 0.290408 -0.875042 0.387254
-23.3092 -8.954 7.83125 0.126326 0.144706 0 -1 7.11768 0.406413 4.97594 -0.269986 -0.961625 -0.0488332
-14.8775 -6.392 4.7815 -0.0877703 -0.146305 0 -0.288889 7.15664 0.139323 0.236972 -0.0701895 -0.726398 0.68368
-14.434 -3.972 5.968 -0.105477 0.257419 0 -0.288889 7.1952 0.249956 0.456012 0.435753 0.731254 0.524773
-12.9268 -5.85825 10.0618 0.066468 -0.274316 0 -0.0888889 7.19796 0.523431 1.43864 -0.698661 -0.694381 -0.17236
-22.384 -8.9035 5.78675 0.110245 0.0548234 0.189878 -0.931638 7.21949 0.265778 5.24666 0.320707 -0.94714 -0.00852864
-12.3375 -6.3815 11.3695 0.125123 -0.180345 0 -0.0888889 7.22414 -0.0946285 1.79161 -0.259074 -0.89831 -0.354851
-15.9136 -1.95187 7.181 -0.292536 0.207701 0 -0.0888889 7.26101 -0.591677 0.64968 0.618773 0.102756 -0.77882
-14.386 -5.0025 5.6365 0.057943 -0.17033 0 -0.288889 7.27917 -0.0728844 0.456012 0.0248452 -0.484975 0.874175
-12.997 -6.8425 12.0225 0.164346 -0.220708 0 -0.0888889 7.2939 0.101263 1.79161 -0.0988507 -0.649519 -0.753892
-22.078 -8.56275 4.7525 0.00291981 0.0383219 0.351184 -0.808636 7.55664 -0.266633 5.24666 0.570463 -0.803747 -0.169007
-13.7907 -2.59575 7.293 -0.043938 0.240193 0 -0.0888889 7.59812 -0.242704 0.64968 -0.0844454 0.0670477 -0.99417
-17.8437 -7.97316 16.2629 0.254598 -0.2523 0 0.717809 7.63594 -0.731524 2.83 -0.424628 -0.21275 -0.880016
-17.4824 -9.63325 15.3156 0.240497 -0.332543 0 -0.866667 7.64322 -0.876771 2.67514 -0.740196 0.487666 -0.462917
-13.621 -3.619 7.156 -0.00765367 -0.251299 0 -0.0888889 7.64495 0.26688 0.64968 -0.581425 -0.365319 -0.726971
-24.2651 -8.96638 10.8674 0.19289 0.186561 0 -1 7.65062 0.768214 4.43072 -0.64891 -0.734414 0.198877
-14.9106 -1.80275 7.49563 -0.306126 0.242491 0 -0.0888889 7.74682 -0.551079 0.64968 -0.00256586 0.0953149 -0.995444
-23.149 -9.1075 13.7925 0.056889 0.183073 0 -0.177778 7.84622 0.219697 3.78644 -0.118113 -0.489313 -0.864073
-12.4315 -8.2485 13.1453 0.53482 -0.200716 0 -0.483678 7.87032 -0.394484 2.54374 0.145432 -0.269293 -0.952014
-24.3194 -8.68213 9.49525 0.312904 0.19319 0 -1 7.90637 0.446673 4.43072 -0.684471 -0.726125 -0.0651303
-15.5855 -6.97237 3.164 -0.206872 -0.124183 0 -0.288889 7.92909 -0.749771 0.236972 -0.133444 -0.768976 0.625195
-21.2822 -7.69037 3.86944 -0.210869 0.0435229 0 -0.777778 7.94897 -0.746784 5.69659 0.462464 -0.873277 -0.153346
-13.842 -9.499 12.3448 0.385083 -0.290624 0.846334 -0.866667 7.9977 0.583064 2.54374 0.114291 0.198146 -0.973486
-19.545 -7.992 16.6395 0.294261 -0.171197 -0.347605 0.404067 8.05122 -0.999927 2.83 0.269309 -0.335886 -0.902581
-16.8458 -10.3915 13.2823 0.230086 -0.383056 0 -0.901769 8.08232 -0.277064 2.67514 -0.0914488 0.806767 -0.58375
-16.6407 -1.46219 6.47369 -0.342837 0.172059 0 -0.0888889 8.20922 -0.446977 0.64968 0.652655 -0.0343063 -0.756878
-16.8978 -2.712 4.73 -0.461127 0.238516 -0.314812 -0.178804 8.21 -0.161105 0.64968 0.508377 0.854592 -0.105947
-13.5205 -4.28575 6.30813 -0.0468763 -0.209653 0.712136 -0.0888889 8.21921 0.810863 0.456012 -0.0219807 -0.0487423 0.998569
-23.98 -8.416 14.069 0.0383617 0.209502 0 -0.177778 8.22421 -0.0189584 4.01881 -0.801276 -0.42702 -0.419059
-16.6373 -7.33638 3.0085 -0.150963 -0.106538 0 -0.155556 8.24072 -0.415263 5.91879 0.229484 -0.609191 0.759094
-12.061 -6.426 9.85625 0.0687357 -0.150425 0 -0.0888889 8.25352 0.594472 1.43864 -0.196044 -0.978588 -0.0627064
-24.362 -7.525 11.982 0.235323 0.229452 0 -1 8.30359 0.0892188 4.01881 -0.886754 -0.400919 0.230069
-18.2409 -8.0865 2.63013 -0.181489 -0.118994 0 -0.155556 8.31234 -0.122252 5.69659 -0.178788 -0.814894 0.551346
-13.8022 -6.02612 5.05288 -0.0323285 -0.162357 0 -0.288889 8.32445 -0.344842 0.236972 -0.0436382 -0.470329 0.881412
-12.4902 -5.07987 7.84025 0.2066 -0.204409 0 -0.0888889 8.3264 -0.109436 1.43864 -0.52891 -0.777561 -0.340077
-17.3774 -1.5455 5.76562 -0.288092 0.191538 0 -0.0888889 8.34466 -0.323729 0.64968 0.666004 0.274949 -0.693428
-20.4977 -9.66825 15.1231 0.138002 -0.249432 -0.771219 -0.31148 8.38504 0.0933316 3.78644 0.461489 0.593141 -0.659705
-19.2633 -7.63963 2.67156 -0.203143 0.120514 0 -0.777778 8.39308 -0.401501 5.69659 -0.292112 -0.938389 0.184654
-24.2743 -7.45813 13.5571 0.058323 0.222318 0 -1 8.41818 0.0498146 4.01881 -0.927345 -0.362319 -0.0935721
-23.6082 -9.08744 5.33644 0.150248 0.123006 0 -0.777778 8.53679 0.298718 5.24666 -0.315602 -0.883558 0.346006
-21.5238 -10.0594 14.7436 0.0140825 -0.219669 0 -0.302471 8.55325 -0.347971 3.78644 0.230592 0.180458 -0.95617
-24.5791 -8.30962 8.16063 0.4171 0.202945 0.110137 -1 8.57931 0.479351 4.97594 -0.825595 -0.561846 -0.052172
-15.3629 -10.7626 12.8304 0.136983 -0.350944 -0.394883 -0.790553 8.58224 -0.999862 2.54374 -0.332311 0.671036 -0.662782
-10.918 -6.34381 11.3474 0.0814103 -0.113901 0 -0.674742 8.64432 -0.585778 1.79161 -0.0343879 -0.954799 -0.295256
-13.456 -6.9735 4.6405 0.0106169 -0.131251 0 -0.288889 8.69894 0.669452 0.236972 -0.0476966 -0.673293 0.737836
-14.219 -7.33175 3.72213 -0.132711 -0.136776 0 -0.288889 8.71837 0.291035 0.236972 -0.304906 -0.795956 0.522959
-11.4593 -7.06425 12.5245 0.36085 -0.160798 0 -0.534173 8.73763 -0.845022 1.79161 -0.0430158 -0.6673 -0.743546
-15.452 -0.5805 7.51525 -0.61469 0.158189 -0.0869372 -0.423624 8.74609 -0.759473 0.64968 0.465199 -0.210351 -0.859851
-11.9108 -6.32387 8.77262 0.0522473 -0.177179 0 -0.0888889 8.74741 0.999847 1.43864 -0.348543 -0.871239 -0.345631
-12.6915 -2.2385 7.26463 0.0331868 0.19724 0.0298436 -0.0888889 8.75426 0.230133 0.64968 0.235183 0.158478 -0.958944
-20.5355 -7.3585 2.45875 -0.197638 0.0725392 0 -0.777778 8.77003 -0.725604 5.69659 0.0744875 -0.996569 0.0360829
-20.1265 -9.2905 16.176 0.276374 -0.193577 -0.870462 -0.262424 8.79303 -0.889417 3.78644 0.611254 0.245662 -0.752342
-13.759 -3.865 4.518 -0.180889 0.223816 0 -0.288889 8.79818 0.457533 0.456012 0.378846 0.906421 0.186753
-18.3009 -10.4878 14.4353 0.217073 -0.348318 0 -1 8.8139 -0.36447 2.67514 -0.351694 0.898683 -0.262068
-18.4521 -10.3144 15.4754 0.193447 -0.304517 0 -0.944124 8.83897 -0.902786 2.67514 -0.275903 0.864479 -0.420183
-13.5662 -1.33525 7.15225 -0.2458 0.203701 0 -0.0888889 8.88617 0.857317 0.64968 -0.012148 0.0802792 -0.996698
-12.3745 -3.36175 7.0435 0.259066 0.238209 0.820334 -0.0888889 8.92268 -0.0846172 0.64968 0.00283395 0.46792 -0.883766
-14.5136 -10.6986 12.1084 0.0093171 -0.323841 -0.611101 -0.794638 9.04991 0.104646 2.54374 -0.118791 0.560971 -0.819268
-12.1716 -9.38762 13.3766 0.192425 -0.212902 -0.0349964 -0.858767 9.06139 -0.999812 2.54374 0.174566 0.148977 -0.97331
-12.6431 -4.67812 5.88588 -0.0220906 -0.259264 0.162576 -0.25208 9.06945 -0.0594895 0.456012 -0.562668 0.507152 0.652841
-24.6623 -7.54462 10.8359 0.407607 0.236789 0 -1 9.12715 0.314172 4.43072 -0.941904 -0.298514 0.153971
-24.621 -8.069 6.5915 0.169666 0.18545 0.651074 -1 9.12791 0.379095 5.24666 -0.816496 -0.575508 0.0461055
-24.1569 -9.28213 14.6067 0.0760867 0.201423 0 -0.177778 9.15362 0.0777232 3.78644 -0.65629 -0.196043 -0.728595
-23.42 -10.2725 14.429 0.0938083 0.194686 0 -0.177778 9.20114 0.153012 3.78644 -0.470196 -0.275288 -0.83853
-23.2131 -9.617 4.12425 0.316998 0.0418171 0.452161 -0.777778 9.20957 0.788439 5.24666 0.320447 -0.946932 0.0251881
-15.7994 -3.405 4.57062 -0.508533 0.245781 -0.441312 -0.288889 9.22952 -0.673185 0.456012 0.376037 0.897252 0.231375
-18.8542 -9.37125 16.6077 0.147958 -0.240918 0 -0.866667 9.31426 -0.774815 2.83 -0.0286449 0.379911 -0.924579
-24.6031 -6.60281 12.3184 0.157184 0.237745 0 -1 9.3144 0.0425916 4.01881 -0.963841 -0.218366 0.152733
-17.9579 -0.845375 5.33087 -0.264383 0.131586 0 0.677698 9.35271 -0.831184 0.64968 0.778267 -0.0837903 -0.622317
-17.3153 -2.467 3.665 -0.483187 0.234995 0 -0.288889 9.37985 0.202569 0.64968 0.0957686 0.995402 0.00153593
-21.5387 -7.78562 2.19894 -0.28386 -0.0333758 -0.221223 -0.777778 9.41791 -0.999796 5.69659 0.458907 -0.820659 0.340475
-17.1569 -8.38313 2.722 -0.173604 -0.155481 0 -0.155556 9.43995 0.238235 5.69659 -0.185857 -0.384039 0.904418
-18.038 -2.218 4.732 -0.394763 0.20672 0 -0.0888889 9.45262 -0.597494 0.64968 0.666539 0.597934 -0.445197
-14.4952 -7.95725 2.686 -0.103135 -0.124311 0 -0.25878 9.47415 -0.38172 0.236972 -0.120823 -0.588424 0.799474
-24.5421 -7.63413 14.8821 -0.0393823 0.21151 0 -0.177778 9.48453 -0.270768 4.01881 -0.897409 -0.127787 -0.422288
-24.8995 -7.225 9.8345 0.408823 0.245609 0.100114 -1 9.51099 0.252499 4.43072 -0.992452 -0.112955 0.0477527
-24.4695 -6.49 14.027 -0.0499607 0.224036 0 -1 9.51188 -0.664869 4.01881 -0.972331 -0.202944 -0.1157
-18.04 -10.3495 12.4425 0.180204 -0.440994 0 -1 9.54284 0.790245 2.67514 -0.0188837 0.93446 -0.355567
-20.4439 -10.5723 14.3776 0.139374 -0.296681 0 -1 9.55806 0.0620823 3.78644 -0.1757 0.687899 -0.704219
-12.9963 -10.7945 12.6664 -0.0510023 -0.230358 0.0462799 -0.793793 9.57787 -0.562432 2.54374 0.319079 0.427744 -0.845709
-24.3805 -8.4235 5.5625 0.104751 0.170063 0 -0.777778 9.58004 -0.0931875 5.24666 -0.746378 -0.578982 0.328176
-24.6915 -7.5625 7.4935 0.248663 0.235457 0.322389 -1 9.58722 -0.0937854 4.97594 -0.984202 -0.106551 -0.141396
-19.0576 -8.329 1.66288 -0.200937 -0.137025 0 -0.155556 9.60129 -0.464996 5.69659 -0.427405 -0.602682 0.673869
-15.8403 -8.4775 2.45913 -0.184729 -0.14071 -0.0665696 -0.155556 9.61051 -0.532228 0.236972 0.0810591 -0.22859 0.970142
-17.2897 -10.9758 11.8864 0.274118 -0.377468 0 -1 9.65934 0.0577259 2.67514 0.307248 0.871201 -0.382894
-10.6558 -8.67522 13.3047 -0.123091 -0.180588 0 -0.710011 9.70352 -0.612036 1.79161 -0.176408 -0.207952 -0.9621
-20.046 -7.609 1.613 -0.255855 -0.0980969 0 -0.603587 9.70994 -0.999889 5.69659 -0.121794 -0.818928 0.560824
-15.898 -2.83406 3.49378 -0.792447 0.211183 -0.103414 -0.288889 9.8046 0.277896 0.64968 0.353092 0.894191 0.275223
-19.324 -10.4045 14.811 0.166069 -0.302771 0 -1 9.80526 -0.157377 3.78644 0.125617 0.949726 -0.286775
-14.2193 0.148031 7.53344 -0.511603 0.15728 0 -0.138524 9.81681 -0.276036 0.64968 0.311068 -0.0897668 -0.946139
-15.6175 0.50825 6.33125 -1 0.0939547 -0.769978 -0.777778 9.88054 0.0336001 0.64968 0.485357 -0.573782 -0.659699
-12.2754 -6.3125 4.96178 0.037571 -0.122298 -0.160366 -0.263116 9.88054 0.0607669 0.236972 -0.0471689 -0.667561 0.743059
-25.159 -7.1915 8.578 0.205926 0.239871 0.769499 -1 9.90621 0.822644 4.97594 -0.99791 0.0161028 -0.0625766
-19.343 -10.0887 16.0842 0.0367197 -0.250804 0 -0.959427 9.91527 -0.999899 3.78644 0.269278 0.796883 -0.540802
-16.3521 -11.4514 11.8585 -0.0251259 -0.352643 0 -0.892942 9.92469 -0.62583 2.54374 0.0602094 0.903033 -0.42533
-10.4118 -6.27056 9.62613 0.105906 -0.0682463 0 -0.0888889 9.92594 0.377422 1.43864 0.23397 -0.959916 -0.154338
-11.1451 -5.506 7.06925 0.081587 -0.137956 0 -0.100888 9.93429 -0.259259 1.43864 -0.383129 -0.923164 -0.031305
-13.884 -3.6015 3.3775 -0.36105 0.198247 0 -0.288889 9.97538 0.520409 0.456012 0.416628 0.904626 0.0898459
-17.1415 0.1245 5.6115 -0.48849 0.10393 0 0.933333 10.0383 -0.733885 0.64968 0.626886 -0.39203 -0.673295
-11.3306 -3.17412 7.44688 0.137136 0.214308 0.103752 -0.0888889 10.0574 -0.73938 0.64968 0.104171 0.534159 -0.838941
-11.422 -3.9135 6.5525 0.0452527 0.24138 0.661268 -0.122222 10.128 -0.403491 0.456012 -0.16872 0.857403 -0.486204
-9.68125 -7.01875 11.9342 0.185112 -0.153748 0 -0.777778 10.1706 -0.71361 1.79161 -0.393483 -0.648419 -0.651709
-22.4034 -11.3806 14.4312 -0.278896 -0.204529 -0.752668 -1 10.1709 0.124264 3.78644 -0.279148 -0.00970253 -0.960199
-12.6186 -4.56244 4.20325 -0.116365 0.20845 0 -0.288889 10.1715 -0.571016 0.456012 0.34752 0.929517 0.123401
-15.234 -11.3053 11.3237 -0.52401 -0.351493 -0.342352 -0.777778 10.1889 0.190645 2.54374 -0.100538 0.894178 -0.436278
-22.7065 -8.91387 2.63675 -0.172826 0.0192902 0 -0.777778 10.1951 -0.0757269 5.69659 0.480136 -0.869231 0.117929
-12.2655 -0.875687 7.56431 -0.164446 0.172248 0 -0.0888889 10.2132 0.0883847 0.64968 0.187454 0.110914 -0.975991
-11.4115 -2.094 7.95725 0.110277 0.179252 0.411331 -0.0888889 10.2168 -0.791854 0.64968 0.229925 0.169724 -0.958294
-24.7594 -9.37162 4.1245 0.135141 0.108799 0 -0.777778 10.2323 0.84082 5.24666 -0.40853 -0.884444 0.225528
-9.37288 -6.32125 10.879 -0.241774 -0.114517 0 -0.777778 10.259 -0.0339969 1.79161 0.00891663 -0.765131 -0.643813
-19.2892 -10.6217 13.267 0.17298 -0.381311 0 -1 10.35 0.330198 2.67514 -0.334676 0.910521 -0.242781
-25.0569 -9.07125 15.4163 0.127213 0.190144 0 -0.177778 10.3824 -0.140422 3.78644 -0.546323 0.134883 -0.826643
-14.8431 -3.23612 3.4615 -0.496063 0.206341 -0.0170664 -0.288889 10.4374 0.283203 0.456012 0.386307 0.900109 0.20142
-23.7349 -11.4009 14.8865 0.126947 -0.175268 0.0924512 -0.301224 10.4588 -0.348377 3.78644 -0.20439 -0.0241314 -0.978592
-21.4137 -11.8073 13.9376 0.0435247 -0.258192 -0.314608 -1 10.4812 -0.144449 3.78644 -0.545339 0.442209 -0.712079
-24.6903 -10.3582 15.2692 0.354657 -0.176466 0 -0.177778 10.5252 -0.506523 3.78644 -0.331744 0.0426787 -0.942404
-25.3088 -8.56675 4.445 0.166744 0.154699 0 -0.777778 10.5262 0.999828 5.24666 -0.794798 -0.433744 0.424456
-25.0375 -6.1895 10.903 0.136225 0.245358 0 -1 10.5349 0.585142 4.43072 -0.998942 -0.0459705 0.00106772
-10.3611 -5.92944 7.93031 0.0380817 -0.082771 0 -0.0888889 10.5548 0.163354 1.43864 0.078183 -0.982644 -0.168221
-18.442 -0.656 4.2455 -0.38601 0.0926928 0 0.933333 10.5561 -0.0778946 0.64968 0.772343 -0.329059 -0.543329
-24.7237 -6.64975 6.4585 0.206704 0.214161 0.622314 -1 10.5571 -0.69256 5.24666 -0.96535 -0.20611 0.160054
-20.5223 -11.3789 13.7464 0.202422 -0.302046 0 -1 10.5853 -0.702519 3.78644 -0.520897 0.660354 -0.540924
-13.6023 -8.52875 2.33363 0.0297721 -0.0968634 0 -0.288889 10.5913 -0.301481 0.236972 0.035108 -0.659049 0.75128
-12.5632 -8.0855 3.22875 0.0449793 -0.0982876 0 -0.288889 10.6034 0.492839 0.236972 -0.084792 -0.792755 0.603614
-11.6453 -4.60388 4.67525 -0.111387 0.229758 -0.441202 -0.155556 10.64 -0.624341 0.456012 -0.344569 0.936217 -0.0690706
3 156 195 136
3 167 156 116
3 156 136 116
3 114 155 191
3 114 183 139
3 113 151 142
3 142 192 135
3 192 150 135
3 135 150 94
3 116 76 94
3 76 30 64
3 64 30 31
3 45 72 80
3 72 76 136
3 72 114 80
3 139 80 114
3 80 139 85
3 63 125 112
3 103 137 149
3 58 103 113
3 149 113 103
3 106 142 135
3 90 94 59
3 64 59 94
3 54 34 58
3 22 24 5
3 24 45 51
3 51 45 80
3 13 24 35
3 104 69 107
3 104 107 146
3 69 63 112
3 146 107 157
3 190 137 138
3 190 138 188
3 92 177 138
3 188 138 177
3 16 47 34
3 16 18 36
3 9 18 6
3 16 6 18
3 12 16 34
3 31 30 12
3 12 15 4
3 3 0 5
3 4 5 0
3 1 0 3
3 1 3 10
3 11 3 13
3 28 11 13
3 83 42 77
3 42 28 50
3 42 50 77
3 28 35 50
3 77 50 95
3 146 158 104
3 95 120 77
3 108 119 166
3 119 120 198
3 196 153 185
3 153 163 185
3 185 163 128
3 163 153 111
3 126 70 73
3 73 70 53
3 60 36 32
3 32 8 19
3 2 8 9
3 9 6 2
3 9 8 17
3 8 2 14
3 1 14 2
3 25 8 14
3 49 23 52
3 10 29 27
3 83 77 108
3 99 71 67
3 152 185 99
3 40 56 67
3 67 37 40
3 14 46 25
3 25 46 62
3 62 46 84
3 52 74 49
3 52 89 74
3 171 193 109
3 67 97 132
3 97 93 133
3 93 56 62
3 121 62 84
3 84 81 121
3 81 84 46
3 105 81 79
3 46 79 81
3 81 105 118
3 170 105 123
3 130 164 181
3 131 124 174
3 174 175 131
3 140 78 127
3 140 187 162
3 101 140 162
3 68 101 110
3 68 100 82
3 61 55 88
3 76 116 136
3 114 72 136
3 155 114 136
3 96 139 180
3 96 180 145
3 96 145 63
3 63 145 125
3 112 125 161
3 112 161 157
3 125 145 161
3 113 149 151
3 51 85 96
3 96 85 139
3 51 96 63
3 107 112 157
3 190 186 137
3 137 103 92
3 58 92 103
3 138 137 92
3 66 92 58
3 4 15 5
3 5 15 22
3 24 13 5
3 65 35 69
3 65 69 104
3 107 69 112
3 104 158 95
3 95 148 120
3 148 95 158
3 189 153 196
3 153 189 115
3 115 189 177
3 115 177 92
3 115 92 66
3 111 153 115
3 111 115 70
3 70 115 66
3 47 70 66
3 34 47 58
3 58 47 66
3 73 53 36
3 36 53 47
3 36 47 16
3 47 53 70
3 18 32 36
3 17 32 18
3 17 18 9
3 12 6 16
3 4 6 12
3 21 10 11
3 21 11 28
3 11 10 3
3 29 21 42
3 29 42 48
3 48 42 83
3 28 42 21
3 95 75 104
3 65 104 75
3 65 75 50
3 65 50 35
3 50 75 95
3 148 197 198
3 148 198 120
3 99 185 128
3 71 99 128
3 71 128 88
3 71 88 55
3 129 128 163
3 128 129 88
3 126 168 111
3 168 126 141
3 111 168 163
3 163 168 129
3 129 168 141
3 129 141 88
3 98 87 141
3 87 98 60
3 60 98 73
3 126 73 141
3 141 87 88
3 141 73 98
3 36 60 73
3 19 37 44
3 32 19 44
3 32 44 60
3 60 44 87
3 87 44 61
3 61 44 37
3 61 37 55
3 40 37 26
3 25 26 8
3 19 8 26
3 19 26 37
3 7 14 1
3 23 33 14
3 33 23 49
3 23 14 7
3 38 52 23
3 38 23 20
3 38 20 27
3 27 20 7
3 27 7 10
3 7 20 23
3 1 10 7
3 57 38 43
3 27 43 38
3 83 78 48
3 48 78 43
3 48 43 29
3 29 43 27
3 52 38 57
3 52 57 89
3 102 78 83
3 134 109 89
3 134 102 83
3 166 134 108
3 108 134 83
3 99 159 152
3 56 40 26
3 56 26 25
3 62 56 25
3 49 79 46
3 49 46 33
3 33 46 14
3 74 79 49
3 134 171 109
3 117 179 169
3 117 99 67
3 99 117 169
3 99 169 159
3 132 179 117
3 132 117 67
3 154 132 97
3 133 154 97
3 121 160 93
3 93 160 133
3 93 62 121
3 81 118 121
3 184 118 170
3 118 184 176
3 118 176 121
3 110 147 143
3 143 147 194
3 101 144 147
3 101 147 110
3 110 143 173
3 173 143 194
3 100 110 173
3 165 100 173
3 82 122 91
3 91 122 164
3 164 122 165
3 165 122 82
3 165 82 100
3 134 78 102
3 131 89 86
3 131 86 124
3 124 182 174
3 182 124 181
3 131 134 89
3 134 131 175
3 134 175 199
3 199 178 134
3 134 178 127
3 78 134 127
3 101 78 140
3 101 68 78
3 43 82 57
3 57 82 91
3 68 82 43
3 68 43 78
3 57 91 86
3 57 86 89
3 88 87 61
3 191 183 114
3 150 167 116
3 94 150 116
3 72 45 39
3 72 39 76
3 76 39 30
3 137 186 149
3 58 113 106
3 106 113 142
3 58 106 90
3 135 90 106
3 135 94 90
3 58 90 54
3 54 90 59
3 76 64 94
3 31 59 64
3 59 31 54
3 54 31 34
3 22 15 39
3 22 39 45
3 30 39 15
3 22 45 24
3 51 80 85
3 51 63 41
3 24 51 41
3 63 69 41
3 24 41 35
3 41 69 35
3 34 31 12
3 12 30 15
3 5 13 3
3 35 28 13
3 77 120 119
3 77 119 108
3 111 70 126
3 17 8 32
3 1 2 0
3 4 0 6
3 6 0 2
3 10 21 29
3 71 55 37
3 71 37 67
3 67 56 97
3 93 97 56
3 74 109 123
3 74 123 79
3 79 123 105
3 105 170 118
3 74 89 109
3 109 193 123
3 170 123 193
3 124 130 181
3 86 130 124
3 178 172 127
3 140 127 187
3 187 127 172
3 101 162 144
3 110 100 68
3 86 91 130
3 130 91 164
