ply
format ascii 1.0
comment Generated by PyMesh
element vertex 180
property float x
property float y
property float z
property float nx
property float ny
property float nz
element face 309
property list uchar int vertex_indices
end_header
-17.221 -15.7148 9.389 0.133318 0.00501467 -0.991061
-18.377 -16.4015 9.718 -0.184434 -0.220216 -0.957856
-16.2515 -14.8927 10.0135 0.41567 0.0408365 -0.908598
-16.0744 -16.6863 9.843 0.565207 -0.335631 -0.753587
-17.0845 -17.4163 9.75125 0.00464454 -0.611645 -0.791119
-17.3151 -13.7944 9.69925 0.128148 0.0611198 -0.98987
-15.3027 -14.1698 10.387 0.210353 -0.150234 -0.966013
-18.6355 -17.4405 10.5407 -0.403905 -0.746356 -0.528973
-19.8773 -15.9108 9.7025 -0.574519 -0.335193 -0.746708
-18.3202 -13.137 9.70988 -0.0848291 0.0187486 -0.996219
-17.0565 -12.6155 9.80875 0.274633 0.11672 -0.954439
-19.7464 -17.0767 10.7243 -0.631306 -0.724487 -0.276715
-15.6134 -13.1465 10.1267 0.135047 0.00100278 -0.990839
-16.4518 -17.9608 11.0473 0.361538 -0.527696 -0.768653
-14.7806 -15.9108 10.7155 0.538949 -0.461817 -0.704457
-19.9643 -14.9095 9.72375 -0.551402 0.0766464 -0.830711
-17.9685 -18.186 11.2349 -0.42107 -0.684467 -0.595151
-15.5204 -17.4001 11.7778 0.746641 -0.39578 -0.534683
-19.252 -13.9431 9.88231 -0.230642 0.0821338 -0.969566
-19.0355 -17.5035 11.8131 -0.792987 -0.558629 -0.243117
-16.3331 -11.9799 10.336 0.25465 0.623967 -0.738795
-13.9121 -14.6616 10.49 0.279298 -0.289262 -0.915598
-18.0872 -12.0767 9.72775 -0.144112 0.253934 -0.956425
-19.4224 -12.7526 9.99325 -0.537361 0.287897 -0.79269
-20.5179 -15.9096 11.1258 -0.938621 -0.344245 -0.0220189
-15.7309 -18.8997 11.833 0.495304 0.103235 -0.862564
-16.6225 -19.2935 11.544 0.0681923 -0.229687 -0.970873
-17.642 -11.1625 10.057 0.0708431 0.739224 -0.669724
-18.4757 -18.5233 12.208 -0.711973 -0.297761 -0.63595
-14.9095 -11.794 10.3015 0.13334 0.56375 -0.815111
-14.9967 -17.985 12.6185 0.551546 -0.00227116 -0.834141
-14.7751 -16.7673 12.45 0.518764 -0.437104 -0.734727
-17.6385 -19.39 11.624 -0.342342 -0.247706 -0.906336
-13.9409 -12.787 10.2555 0.321426 0.100952 -0.941538
-20.7668 -14.7948 10.9923 -0.989371 -0.0093741 -0.14511
-19.3253 -16.6465 12.5305 -0.920531 -0.347953 0.177628
-13.0988 -13.906 10.6888 0.488421 -0.186139 -0.852524
-20.2196 -13.3044 10.6401 -0.761396 0.321536 -0.56293
-18.8921 -11.6245 10.3421 -0.543557 0.608633 -0.578024
-13.3985 -16.0914 12.4439 0.338644 -0.620605 -0.707227
-19.2798 -18.357 13.0977 -0.919792 -0.196049 -0.339924
-16.3521 -11.4514 11.8585 0.0602094 0.903033 -0.42533
-15.234 -11.3053 11.3237 -0.100538 0.894178 -0.436278
-19.0397 -19.3747 12.6708 -0.877248 0.00784915 -0.479974
-17.2897 -10.9758 11.8864 0.307248 0.871201 -0.382894
-14.399 -19.2179 12.522 0.252016 0.457675 -0.852655
-13.537 -16.9993 13.0068 0.0766716 -0.213076 -0.974023
-13.6392 -18.2104 13.0052 0.0598922 0.12674 -0.990126
-19.3857 -16.0071 13.5597 -0.890953 -0.26768 -0.36681
-20.2013 -14.7099 12.4825 -0.897953 -0.43703 0.0518187
-18.3305 -20.5438 12.0871 -0.39823 -0.422241 -0.814325
-16.4888 -20.8814 11.9667 -0.185236 -0.607896 -0.772107
-20.6022 -13.328 11.6995 -0.936276 0.084451 -0.340963
-12.2097 -14.7964 12.0905 0.467392 -0.461372 -0.754109
-13.0511 -12.0589 11.1349 0.334992 0.609531 -0.718507
-12.4464 -16.3261 12.8144 -0.0102562 -0.234887 -0.971969
-15.4234 -20.7494 11.6316 -0.0162033 -0.232831 -0.972382
-19.5499 -17.8784 14.2705 -0.904105 -0.189099 -0.383192
-18.9442 -11.0352 11.6637 -0.371316 0.846535 -0.381449
-14.5136 -10.6986 12.1084 -0.118791 0.560971 -0.819268
-20.0719 -11.826 12.3647 -0.660231 0.616466 -0.429027
-11.7505 -12.7638 11.138 0.546991 0.154282 -0.822799
-19.1986 -19.2754 14.274 -0.92557 -0.359042 0.12004
-11.4605 -13.5615 11.6944 0.788617 -0.285382 -0.544646
-15.3629 -10.7626 12.8304 -0.332311 0.671036 -0.662782
-18.04 -10.3495 12.4425 -0.0188837 0.93446 -0.355567
-19.409 -20.792 12.978 -0.883386 -0.374141 -0.282221
-13.4522 -20.3778 11.8142 -0.25051 0.0717346 -0.965453
-13.021 -19.0665 12.565 -0.422291 0.500225 -0.75594
-16.8458 -10.3915 13.2823 -0.0914488 0.806767 -0.58375
-20.1612 -15.324 14.3276 -0.659343 -0.395084 -0.639669
-15.6578 -21.8027 12.2808 -0.286073 -0.660013 -0.694654
-21.0245 -13.6438 12.84 -0.882519 -0.299105 -0.362899
-21.164 -12.614 12.603 -0.847744 0.221375 -0.481999
-20.121 -18.161 15.2113 -0.555218 -0.796159 -0.24055
-18.5475 -21.4718 13.2292 -0.517315 -0.82752 -0.218167
-18.991 -20.5486 14.2711 -0.904689 -0.282407 0.319035
-17.565 -21.621 12.901 -0.0619466 -0.872078 -0.48543
-11.8234 -17.5637 12.5243 -0.355289 0.377602 -0.855094
-11.0767 -13.8383 12.7755 0.819549 -0.0684307 -0.568909
-20.6803 -16.614 14.708 -0.473438 -0.201414 -0.85749
-20.9441 -14.2774 14.1104 -0.656228 -0.535194 -0.531913
-11.244 -12.127 12.0522 0.665982 0.292855 -0.686079
-13.842 -9.499 12.3448 0.114291 0.198146 -0.973486
-14.2817 -22.0046 12.2579 0.127493 -0.718397 -0.68385
-12.9963 -10.7945 12.6664 0.319079 0.427744 -0.845709
-19.2892 -10.6217 13.267 -0.334676 0.910521 -0.242781
-20.5223 -11.3789 13.7464 -0.520897 0.660354 -0.540924
-11.7086 -11.227 12.6416 0.155044 0.504703 -0.849256
-16.9587 -9.418 13.788 -0.698075 0.434666 -0.568996
-10.3792 -16.5362 12.591 0.210179 0.393611 -0.894928
-20.1497 -17.8965 16.3142 -0.0822094 -0.962594 0.258176
-12.1987 -18.6593 11.4368 -0.578644 0.560269 -0.59268
-21.7095 -13.0495 13.7542 -0.650328 -0.14921 -0.744856
-15.4358 -9.10581 13.2952 -0.419749 0.28432 -0.861959
-17.8506 -21.9183 14.0427 -0.469783 -0.865765 -0.172493
-21.4137 -11.8073 13.9376 -0.545339 0.442209 -0.712079
-10.7312 -12.692 13.1929 0.79296 -0.188557 -0.579363
-12.2453 -21.5086 12.2209 0.0460916 -0.974208 -0.220894
-12.15 -19.856 10.8355 -0.502772 0.0193313 -0.864203
-18.7972 -18.3533 16.0192 -0.319749 -0.725159 0.60984
-10.5662 -14.6614 13.4996 0.587418 0.223629 -0.777773
-17.8062 -20.0595 15.7515 -0.51637 -0.0773933 0.852861
-15.1538 -22.9007 13.666 -0.199354 -0.836523 -0.510379
-18.3845 -21.2685 15.405 -0.82531 -0.278568 0.491186
-21.7003 -17.7903 15.2955 -0.338865 -0.766095 -0.54614
-18.3009 -10.4878 14.4353 -0.351694 0.898683 -0.262068
-21.8455 -15.0938 14.9732 -0.359799 -0.248848 -0.899233
-20.4439 -10.5723 14.3776 -0.1757 0.687899 -0.704219
-14.0501 -22.4589 13.2975 0.409791 -0.823901 -0.391482
-10.486 -11.3888 12.7402 0.450092 -0.105326 -0.886749
-10.6109 -18 11.5407 -0.147874 0.641766 -0.752509
-22.1509 -16.184 15.2255 -0.4255 -0.171971 -0.888468
-16.891 -8.604 14.5685 -0.911108 0.276913 -0.30529
-11.2684 -21.2494 10.8208 -0.0814134 -0.656062 -0.750303
-14.5334 -8.09988 12.9789 -0.416646 -0.127902 -0.900026
-19.324 -10.4045 14.811 0.125617 0.949726 -0.286775
-12.8756 -21.8027 13.1226 0.488607 -0.867332 -0.0948549
-9.37206 -15.923 13.4043 0.234563 0.378624 -0.895335
-11.359 -19.0748 10.5434 -0.19191 0.390012 -0.90059
-17.7922 -18.65 16.1109 -0.174348 -0.44376 0.879022
-22.695 -13.8725 14.969 -0.371655 -0.333765 -0.866299
-12.1716 -9.38762 13.3766 0.174566 0.148977 -0.97331
-22.4034 -11.3806 14.4312 -0.279148 -0.00970253 -0.960199
-10.6073 -10.0638 12.9993 -0.00148864 0.236394 -0.971656
-21.097 -17.8819 17.3271 0.25498 -0.965425 -0.0542275
-9.4695 -17.6315 11.8567 0.180733 0.702411 -0.688443
-17.4824 -9.63325 15.3156 -0.740196 0.487666 -0.462917
-22.7603 -12.7945 14.5735 -0.444675 -0.157526 -0.881731
-19.4132 -17.3011 17.4401 -0.0488682 -0.997534 0.0503702
-17.794 -22.0595 15.6 -0.619956 -0.645783 0.445666
-10.1165 -13.3935 14.048 0.385576 0.0616912 -0.920611
-12.4315 -8.2485 13.1453 0.145432 -0.269293 -0.952014
-15.4591 -7.77588 13.7755 -0.501152 0.0173468 -0.865186
-18.4521 -10.3144 15.4754 -0.275903 0.864479 -0.420183
-16.4895 -7.686 14.14 -0.666855 -0.076441 -0.741257
-16.6554 -19.6135 15.8066 -0.160957 -0.247961 0.955305
-9.321 -14.4572 13.7595 -0.0346642 0.281962 -0.958799
-10.7965 -20.389 10.4455 -0.00565507 -0.196118 -0.980564
-17.215 -21.182 16.3 -0.382752 0.121236 0.915862
-17.5441 -17.9046 16.8259 -0.205879 -0.816139 0.539936
-20.4977 -9.66825 15.1231 0.461489 0.593141 -0.659705
-16.4114 -22.8342 14.3748 -0.460804 -0.846615 -0.266276
-21.5238 -10.0594 14.7436 0.230592 0.180458 -0.95617
-11.0785 -21.309 13.4175 -0.000949891 -0.958096 0.286445
-12.214 -21.1847 13.8802 0.382826 -0.908064 0.169896
-9.33337 -12.2767 14.1205 0.303109 -0.244857 -0.920962
-22.8726 -16.7812 15.842 -0.536079 -0.44307 -0.718546
-22.3715 -18.0075 16.6774 -0.178282 -0.902509 -0.392038
-14.1007 -23.507 14.7225 0.397593 -0.856383 -0.329436
-16.823 -22.581 15.611 -0.625915 -0.73766 0.253155
-15.4062 -23.62 15.2657 -0.273599 -0.946103 -0.173298
-17.0825 -7.7875 15.585 -0.834138 -0.0571497 -0.548587
-13.0658 -21.9484 14.481 0.708034 -0.684292 -0.174445
-13.3403 -7.75063 12.6695 -0.078355 -0.532924 -0.842527
-8.95125 -18.1496 11.0863 0.145961 0.642631 -0.752144
-19.343 -10.0887 16.0842 0.269278 0.796883 -0.540802
-7.77166 -16.6033 13.4164 0.151441 0.263649 -0.952657
-23.8135 -12.9655 14.8745 -0.0165388 -0.164178 -0.986292
-9.92775 -21.5767 12.0087 0.304406 -0.927461 -0.217147
-23.6983 -15.4121 15.7929 -0.505832 -0.346783 -0.789858
-8.95475 -10.2674 13.0433 -0.123949 -0.443875 -0.887475
-15.8385 -6.69825 13.663 -0.370887 -0.574621 -0.729557
-23.7349 -11.4009 14.8865 -0.20439 -0.0241314 -0.978592
-8.79275 -11.3438 13.9897 0.194507 -0.423554 -0.884742
-10.6558 -8.67522 13.3047 -0.176408 -0.207952 -0.9621
-9.34713 -19.444 10.7434 0.263114 -0.0912207 -0.960443
-8.76912 -13.3918 14.2046 -0.175225 0.221379 -0.959316
-23.42 -10.2725 14.429 -0.470196 -0.275288 -0.83853
-17.0045 -6.579 13.7055 -0.372483 -0.798344 -0.473185
-15.5013 -20.0995 15.9392 -0.381136 0.01076 0.924456
-10.7903 -20.8727 14.3119 -0.144194 -0.988364 -0.0484175
-20.5543 -17.7648 18.8069 0.29081 -0.876143 -0.384451
-8.08425 -17.6605 12.6152 0.419789 0.717991 -0.555218
-24.2787 -14.2273 15.3814 -0.187205 -0.581612 -0.791632
-21.9031 -18.5366 18.5519 0.0921503 -0.984216 -0.151084
-20.1265 -9.2905 16.176 0.611254 0.245662 -0.752342
-19.1235 -17.754 18.9455 -0.162961 -0.774521 -0.611196
-14.3577 -23.6195 15.7005 0.404654 -0.913664 0.0383844
-16.3092 -18.1705 16.6495 -0.247336 -0.843884 0.476114
3 163 168 123
3 174 107 160
3 163 123 158
3 128 158 123
3 128 93 121
3 93 123 96
3 93 96 72
3 72 96 73
3 73 96 60
3 87 108 86
3 108 116 86
3 86 116 106
3 116 108 141
3 107 112 160
3 147 160 112
3 81 107 121
3 93 72 81
3 49 72 52
3 52 34 49
3 34 52 37
3 60 37 52
3 58 65 44
3 69 89 94
3 65 86 69
3 133 115 94
3 94 135 133
3 148 125 175
3 91 105 74
3 91 74 100
3 100 74 62
3 74 105 80
3 74 80 57
3 62 57 40
3 112 107 80
3 70 107 81
3 34 15 24
3 23 18 37
3 38 60 58
3 18 9 5
3 5 9 10
3 20 5 10
3 12 20 29
3 29 20 42
3 44 41 20
3 41 42 20
3 94 83 59
3 42 59 54
3 83 132 122
3 132 115 154
3 100 102 120
3 62 102 100
3 40 43 62
3 76 62 43
3 1 15 18
3 2 12 6
3 12 33 21
3 88 110 82
3 110 146 97
3 110 97 82
3 82 97 63
3 124 161 110
3 124 122 165
3 130 150 139
3 95 142 150
3 104 76 95
3 75 95 76
3 28 43 40
3 28 40 19
3 40 57 19
3 19 57 35
3 19 35 11
3 11 35 24
3 7 11 1
3 28 16 32
3 28 32 43
3 32 16 13
3 32 13 26
3 13 4 3
3 13 3 17
3 3 0 2
3 63 36 61
3 61 36 54
3 53 63 79
3 79 101 90
3 137 157 118
3 118 157 90
3 151 150 142
3 84 103 71
3 103 51 71
3 51 95 77
3 77 95 75
3 71 51 56
3 26 56 51
3 67 92 99
3 21 53 14
3 39 14 53
3 55 39 53
3 53 90 55
3 55 90 78
3 92 78 111
3 111 90 126
3 111 155 166
3 166 119 111
3 149 103 109
3 144 145 98
3 117 153 109
3 117 84 98
3 84 67 98
3 138 99 119
3 92 68 78
3 78 68 47
3 152 113 127
3 60 96 87
3 96 108 87
3 108 96 143
3 143 96 123
3 141 108 143
3 121 107 174
3 121 174 158
3 121 158 128
3 58 60 86
3 86 60 87
3 69 86 106
3 89 69 106
3 89 106 127
3 89 127 113
3 134 106 116
3 106 134 127
3 176 156 141
3 141 156 116
3 116 156 134
3 152 135 113
3 133 135 162
3 169 162 135
3 72 49 81
3 69 44 65
3 115 133 162
3 129 125 91
3 57 62 74
3 70 80 107
3 70 81 49
3 34 24 49
3 18 23 9
3 5 20 12
3 64 42 41
3 64 69 94
3 69 64 41
3 69 41 44
3 59 42 64
3 59 64 94
3 85 54 59
3 85 59 83
3 88 85 122
3 122 85 83
3 132 165 122
3 175 125 172
3 177 172 129
3 129 172 125
3 140 100 120
3 100 129 91
3 129 100 140
3 179 140 136
3 136 140 120
3 120 102 136
3 76 104 102
3 76 102 62
3 48 35 57
3 70 48 80
3 80 48 57
3 49 24 35
3 49 35 48
3 49 48 70
3 6 12 21
3 79 63 97
3 101 97 131
3 101 131 137
3 137 131 167
3 167 131 146
3 97 146 131
3 164 146 110
3 110 161 164
3 165 161 124
3 136 139 170
3 7 16 19
3 7 19 11
3 19 16 28
3 56 26 25
3 25 26 13
3 17 25 13
3 45 25 30
3 30 25 17
3 31 30 17
3 14 31 17
3 6 21 14
3 6 14 2
3 53 21 36
3 63 53 36
3 101 118 90
3 137 118 101
3 126 90 157
3 126 157 173
3 126 173 155
3 84 109 103
3 47 68 45
3 67 45 68
3 67 68 92
3 30 47 45
3 46 78 47
3 39 46 31
3 39 31 14
3 30 31 47
3 47 31 46
3 55 78 46
3 55 46 39
3 111 126 155
3 117 98 145
3 117 145 153
3 144 171 145
3 93 128 123
3 81 121 93
3 72 73 52
3 60 52 73
3 86 65 58
3 89 113 135
3 89 135 94
3 105 112 80
3 91 125 105
3 148 105 125
3 148 147 105
3 147 112 105
3 37 18 15
3 34 37 15
3 60 38 23
3 60 23 37
3 22 10 9
3 22 9 23
3 22 23 38
3 44 20 27
3 44 27 58
3 58 27 38
3 38 27 22
3 22 27 10
3 20 10 27
3 94 115 83
3 132 83 115
3 15 8 24
3 8 15 1
3 5 2 0
3 5 0 1
3 5 1 18
3 5 12 2
3 29 33 12
3 33 29 54
3 29 42 54
3 85 88 54
3 122 124 88
3 88 124 110
3 95 130 104
3 130 95 150
3 102 104 139
3 130 139 104
3 102 139 136
3 50 75 66
3 50 66 43
3 76 66 75
3 66 76 43
3 11 24 8
3 1 11 8
3 1 4 7
3 7 4 16
3 16 4 13
3 0 3 4
3 0 4 1
3 3 2 14
3 3 14 17
3 54 36 33
3 33 36 21
3 63 61 82
3 61 54 82
3 82 54 88
3 97 101 79
3 142 95 103
3 103 95 51
3 50 43 32
3 50 51 77
3 50 77 75
3 51 50 32
3 26 51 32
3 67 56 25
3 67 25 45
3 79 90 53
3 78 90 111
3 103 149 151
3 142 103 151
3 153 149 109
3 117 109 84
3 84 56 67
3 56 84 71
3 138 114 99
3 99 114 67
3 67 114 98
3 98 159 144
3 138 119 166
3 92 111 119
3 119 99 92
3 114 138 166
3 114 166 159
3 159 98 114
3 151 149 178
