ply
format ascii 1.0
comment Generated by PyMesh
element vertex 189
property float x
property float y
property float z
property float nx
property float ny
property float nz
element face 327
property list uchar int vertex_indices
end_header
-17.3151 -13.7944 9.69925 0.128148 0.0611198 -0.98987
-18.3202 -13.137 9.70988 -0.0848291 0.0187486 -0.996219
-17.0565 -12.6155 9.80875 0.274633 0.11672 -0.954439
-16.2515 -14.8927 10.0135 0.41567 0.0408365 -0.908598
-15.6134 -13.1465 10.1267 0.135047 0.00100278 -0.990839
-17.221 -15.7148 9.389 0.133318 0.00501467 -0.991061
-19.252 -13.9431 9.88231 -0.230642 0.0821338 -0.969566
-16.3331 -11.9799 10.336 0.25465 0.623967 -0.738795
-18.0872 -12.0767 9.72775 -0.144112 0.253934 -0.956425
-19.4224 -12.7526 9.99325 -0.537361 0.287897 -0.79269
-17.642 -11.1625 10.057 0.0708431 0.739224 -0.669724
-15.3027 -14.1698 10.387 0.210353 -0.150234 -0.966013
-18.377 -16.4015 9.718 -0.184434 -0.220216 -0.957856
-19.9643 -14.9095 9.72375 -0.551402 0.0766464 -0.830711
-20.2196 -13.3044 10.6401 -0.761396 0.321536 -0.56293
-16.0744 -16.6863 9.843 0.565207 -0.335631 -0.753587
-18.8921 -11.6245 10.3421 -0.543557 0.608633 -0.578024
-14.9095 -11.794 10.3015 0.13334 0.56375 -0.815111
-14.7806 -15.9108 10.7155 0.538949 -0.461817 -0.704457
-13.9409 -12.787 10.2555 0.321426 0.100952 -0.941538
-17.0845 -17.4163 9.75125 0.00464454 -0.611645 -0.791119
-16.3521 -11.4514 11.8585 0.0602094 0.903033 -0.42533
-15.234 -11.3053 11.3237 -0.100538 0.894178 -0.436278
-18.6355 -17.4405 10.5407 -0.403905 -0.746356 -0.528973
-19.8773 -15.9108 9.7025 -0.574519 -0.335193 -0.746708
-13.9121 -14.6616 10.49 0.279298 -0.289262 -0.915598
-17.2897 -10.9758 11.8864 0.307248 0.871201 -0.382894
-20.6022 -13.328 11.6995 -0.936276 0.084451 -0.340963
-19.7464 -17.0767 10.7243 -0.631306 -0.724487 -0.276715
-20.7668 -14.7948 10.9923 -0.989371 -0.0093741 -0.14511
-18.9442 -11.0352 11.6637 -0.371316 0.846535 -0.381449
-20.5179 -15.9096 11.1258 -0.938621 -0.344245 -0.0220189
-14.5136 -10.6986 12.1084 -0.118791 0.560971 -0.819268
-20.0719 -11.826 12.3647 -0.660231 0.616466 -0.429027
-13.0511 -12.0589 11.1349 0.334992 0.609531 -0.718507
-13.0988 -13.906 10.6888 0.488421 -0.186139 -0.852524
-16.4518 -17.9608 11.0473 0.361538 -0.527696 -0.768653
-15.3629 -10.7626 12.8304 -0.332311 0.671036 -0.662782
-18.04 -10.3495 12.4425 -0.0188837 0.93446 -0.355567
-17.9685 -18.186 11.2349 -0.42107 -0.684467 -0.595151
-14.7751 -16.7673 12.45 0.518764 -0.437104 -0.734727
-15.5204 -17.4001 11.7778 0.746641 -0.39578 -0.534683
-19.0355 -17.5035 11.8131 -0.792987 -0.558629 -0.243117
-16.8458 -10.3915 13.2823 -0.0914488 0.806767 -0.58375
-13.3985 -16.0914 12.4439 0.338644 -0.620605 -0.707227
-21.0245 -13.6438 12.84 -0.882519 -0.299105 -0.362899
-21.164 -12.614 12.603 -0.847744 0.221375 -0.481999
-20.2013 -14.7099 12.4825 -0.897953 -0.43703 0.0518187
-13.842 -9.499 12.3448 0.114291 0.198146 -0.973486
-11.7505 -12.7638 11.138 0.546991 0.154282 -0.822799
-12.2097 -14.7964 12.0905 0.467392 -0.461372 -0.754109
-18.4757 -18.5233 12.208 -0.711973 -0.297761 -0.63595
-19.2892 -10.6217 13.267 -0.334676 0.910521 -0.242781
-19.3253 -16.6465 12.5305 -0.920531 -0.347953 0.177628
-20.5223 -11.3789 13.7464 -0.520897 0.660354 -0.540924
-15.7309 -18.8997 11.833 0.495304 0.103235 -0.862564
-16.6225 -19.2935 11.544 0.0681923 -0.229687 -0.970873
-14.9967 -17.985 12.6185 0.551546 -0.00227116 -0.834141
-12.9963 -10.7945 12.6664 0.319079 0.427744 -0.845709
-17.6385 -19.39 11.624 -0.342342 -0.247706 -0.906336
-16.9587 -9.418 13.788 -0.698075 0.434666 -0.568996
-12.4464 -16.3261 12.8144 -0.0102562 -0.234887 -0.971969
-13.537 -16.9993 13.0068 0.0766716 -0.213076 -0.974023
-11.4605 -13.5615 11.6944 0.788617 -0.285382 -0.544646
-21.7095 -13.0495 13.7542 -0.650328 -0.14921 -0.744856
-15.4358 -9.10581 13.2952 -0.419749 0.28432 -0.861959
-11.244 -12.127 12.0522 0.665982 0.292855 -0.686079
-19.2798 -18.357 13.0977 -0.919792 -0.196049 -0.339924
-21.4137 -11.8073 13.9376 -0.545339 0.442209 -0.712079
-20.9441 -14.2774 14.1104 -0.656228 -0.535194 -0.531913
-11.7086 -11.227 12.6416 0.155044 0.504703 -0.849256
-13.6392 -18.2104 13.0052 0.0598922 0.12674 -0.990126
-18.3009 -10.4878 14.4353 -0.351694 0.898683 -0.262068
-20.4439 -10.5723 14.3776 -0.1757 0.687899 -0.704219
-19.0397 -19.3747 12.6708 -0.877248 0.00784915 -0.479974
-19.3857 -16.0071 13.5597 -0.890953 -0.26768 -0.36681
-16.891 -8.604 14.5685 -0.911108 0.276913 -0.30529
-14.399 -19.2179 12.522 0.252016 0.457675 -0.852655
-19.5499 -17.8784 14.2705 -0.904105 -0.189099 -0.383192
-20.1612 -15.324 14.3276 -0.659343 -0.395084 -0.639669
-14.5334 -8.09988 12.9789 -0.416646 -0.127902 -0.900026
-19.324 -10.4045 14.811 0.125617 0.949726 -0.286775
-18.3305 -20.5438 12.0871 -0.39823 -0.422241 -0.814325
-11.0767 -13.8383 12.7755 0.819549 -0.0684307 -0.568909
-11.8234 -17.5637 12.5243 -0.355289 0.377602 -0.855094
-16.4888 -20.8814 11.9667 -0.185236 -0.607896 -0.772107
-22.4034 -11.3806 14.4312 -0.279148 -0.00970253 -0.960199
-10.486 -11.3888 12.7402 0.450092 -0.105326 -0.886749
-17.4824 -9.63325 15.3156 -0.740196 0.487666 -0.462917
-22.7603 -12.7945 14.5735 -0.444675 -0.157526 -0.881731
-12.1716 -9.38762 13.3766 0.174566 0.148977 -0.97331
-10.7312 -12.692 13.1929 0.79296 -0.188557 -0.579363
-12.4315 -8.2485 13.1453 0.145432 -0.269293 -0.952014
-15.4591 -7.77588 13.7755 -0.501152 0.0173468 -0.865186
-15.4234 -20.7494 11.6316 -0.0162033 -0.232831 -0.972382
-13.021 -19.0665 12.565 -0.422291 0.500225 -0.75594
-18.4521 -10.3144 15.4754 -0.275903 0.864479 -0.420183
-16.4895 -7.686 14.14 -0.666855 -0.076441 -0.741257
-19.1986 -19.2754 14.274 -0.92557 -0.359042 0.12004
-21.8455 -15.0938 14.9732 -0.359799 -0.248848 -0.899233
-20.4977 -9.66825 15.1231 0.461489 0.593141 -0.659705
-22.695 -13.8725 14.969 -0.371655 -0.333765 -0.866299
-21.5238 -10.0594 14.7436 0.230592 0.180458 -0.95617
-10.3792 -16.5362 12.591 0.210179 0.393611 -0.894928
-10.6073 -10.0638 12.9993 -0.00148864 0.236394 -0.971656
-19.409 -20.792 12.978 -0.883386 -0.374141 -0.282221
-17.0825 -7.7875 15.585 -0.834138 -0.0571497 -0.548587
-20.121 -18.161 15.2113 -0.555218 -0.796159 -0.24055
-13.4522 -20.3778 11.8142 -0.25051 0.0717346 -0.965453
-10.5662 -14.6614 13.4996 0.587418 0.223629 -0.777773
-13.3403 -7.75063 12.6695 -0.078355 -0.532924 -0.842527
-19.343 -10.0887 16.0842 0.269278 0.796883 -0.540802
-23.8135 -12.9655 14.8745 -0.0165388 -0.164178 -0.986292
-20.6803 -16.614 14.708 -0.473438 -0.201414 -0.85749
-15.6578 -21.8027 12.2808 -0.286073 -0.660013 -0.694654
-18.5475 -21.4718 13.2292 -0.517315 -0.82752 -0.218167
-15.8385 -6.69825 13.663 -0.370887 -0.574621 -0.729557
-18.991 -20.5486 14.2711 -0.904689 -0.282407 0.319035
-17.565 -21.621 12.901 -0.0619466 -0.872078 -0.48543
-23.7349 -11.4009 14.8865 -0.20439 -0.0241314 -0.978592
-10.1165 -13.3935 14.048 0.385576 0.0616912 -0.920611
-12.1987 -18.6593 11.4368 -0.578644 0.560269 -0.59268
-23.42 -10.2725 14.429 -0.470196 -0.275288 -0.83853
-10.6109 -18 11.5407 -0.147874 0.641766 -0.752509
-22.1509 -16.184 15.2255 -0.4255 -0.171971 -0.888468
-17.0045 -6.579 13.7055 -0.372483 -0.798344 -0.473185
-20.1265 -9.2905 16.176 0.611254 0.245662 -0.752342
-10.6558 -8.67522 13.3047 -0.176408 -0.207952 -0.9621
-18.8542 -9.37125 16.6077 -0.0286449 0.379911 -0.924579
-11.4593 -7.06425 12.5245 -0.0430158 -0.6673 -0.743546
-9.33337 -12.2767 14.1205 0.303109 -0.244857 -0.920962
-21.2502 -8.50362 14.8431 0.671974 -0.133546 -0.728434
-15.3011 -6.19775 12.604 -0.272386 -0.641142 -0.717456
-17.8437 -7.97316 16.2629 -0.424628 -0.21275 -0.880016
-8.95475 -10.2674 13.0433 -0.123949 -0.443875 -0.887475
-9.37206 -15.923 13.4043 0.234563 0.378624 -0.895335
-14.2817 -22.0046 12.2579 0.127493 -0.718397 -0.68385
-20.1497 -17.8965 16.3142 -0.0822094 -0.962594 0.258176
-8.79275 -11.3438 13.9897 0.194507 -0.423554 -0.884742
-9.4695 -17.6315 11.8567 0.180733 0.702411 -0.688443
-24.2787 -14.2273 15.3814 -0.187205 -0.581612 -0.791632
-12.997 -6.8425 12.0225 -0.0988507 -0.649519 -0.753892
-18.7972 -18.3533 16.0192 -0.319749 -0.725159 0.60984
-9.321 -14.4572 13.7595 -0.0346642 0.281962 -0.958799
-23.6983 -15.4121 15.7929 -0.505832 -0.346783 -0.789858
-22.3465 -8.49375 14.0885 0.588423 -0.468957 -0.658663
-17.8062 -20.0595 15.7515 -0.51637 -0.0773933 0.852861
-23.149 -9.1075 13.7925 -0.118113 -0.489313 -0.864073
-17.8506 -21.9183 14.0427 -0.469783 -0.865765 -0.172493
-21.7003 -17.7903 15.2955 -0.338865 -0.766095 -0.54614
-17.911 -6.2715 15.196 -0.413333 -0.739608 -0.531165
-24.8075 -12.0948 14.653 0.152374 0.243081 -0.957963
-22.8726 -16.7812 15.842 -0.536079 -0.44307 -0.718546
-12.2453 -21.5086 12.2209 0.0460916 -0.974208 -0.220894
-12.15 -19.856 10.8355 -0.502772 0.0193313 -0.864203
-24.1569 -9.28213 14.6067 -0.65629 -0.196043 -0.728595
-11.359 -19.0748 10.5434 -0.19191 0.390012 -0.90059
-8.76912 -13.3918 14.2046 -0.175225 0.221379 -0.959316
-18.3845 -21.2685 15.405 -0.82531 -0.278568 0.491186
-24.6903 -10.3582 15.2692 -0.331744 0.0426787 -0.942404
-16.9878 -6.00616 12.5084 0.0390774 -0.970228 -0.23902
-15.1538 -22.9007 13.666 -0.199354 -0.836523 -0.510379
-21.5989 -7.74388 13.9134 0.659801 -0.707421 -0.253412
-14.0501 -22.4589 13.2975 0.409791 -0.823901 -0.391482
-25.6367 -13.6027 14.3519 0.157091 -0.424198 -0.89184
-8.95125 -18.1496 11.0863 0.145961 0.642631 -0.752144
-12.3375 -6.3815 11.3695 -0.259074 -0.89831 -0.354851
-7.77166 -16.6033 13.4164 0.151441 0.263649 -0.952657
-10.918 -6.34381 11.3474 -0.0343879 -0.954799 -0.295256
-9.599 -7.886 12.478 -0.444608 -0.470896 -0.761958
-19.545 -7.992 16.6395 0.269309 -0.335886 -0.902581
-17.7922 -18.65 16.1109 -0.174348 -0.44376 0.879022
-18.6523 -6.01937 14.132 0.0278223 -0.975824 -0.216778
-21.097 -17.8819 17.3271 0.25498 -0.965425 -0.0542275
-20.0229 -7.55125 15.8363 0.562908 -0.387783 -0.729903
-20.6695 -7.0855 15.0363 0.67072 -0.488536 -0.558093
-7.6325 -10.8682 13.6713 -0.285211 -0.591521 -0.75416
-7.59244 -11.8614 13.9519 -0.370217 -0.0339792 -0.928324
-18.7805 -6.90188 15.6709 0.146899 -0.741063 -0.655169
-19.4132 -17.3011 17.4401 -0.0488682 -0.997534 0.0503702
-11.2684 -21.2494 10.8208 -0.0814134 -0.656062 -0.750303
-9.34713 -19.444 10.7434 0.263114 -0.0912207 -0.960443
-8.998 -8.733 12.5118 -0.600919 -0.349797 -0.718706
-23.98 -8.416 14.069 -0.801276 -0.42702 -0.419059
-7.29313 -10.458 12.7794 -0.312423 -0.761019 -0.568543
-12.8756 -21.8027 13.1226 0.488607 -0.867332 -0.0948549
-16.6554 -19.6135 15.8066 -0.160957 -0.247961 0.955305
-9.68125 -7.01875 11.9342 -0.393483 -0.648419 -0.651709
-13.6006 -5.50238 11.3686 -0.430903 -0.636383 -0.639796
3 159 155 122
3 159 122 119
3 147 86 122
3 119 122 86
3 140 99 144
3 112 164 151
3 119 86 112
3 89 112 86
3 89 64 101
3 64 86 68
3 64 68 45
3 45 68 46
3 46 68 33
3 54 73 52
3 73 81 52
3 52 81 72
3 81 73 100
3 126 131 174
3 174 131 175
3 172 160 125
3 99 124 144
3 152 144 124
3 69 99 101
3 64 45 69
3 47 45 27
3 27 29 47
3 29 27 14
3 33 14 27
3 30 38 26
3 43 60 65
3 38 52 43
3 93 80 65
3 65 97 93
3 132 188 110
3 110 188 141
3 137 149 107
3 137 107 142
3 142 107 98
3 107 149 113
3 107 113 78
3 98 78 67
3 124 99 113
3 79 99 69
3 29 13 31
3 9 6 14
3 16 33 30
3 6 1 0
3 0 1 2
3 7 0 2
3 4 7 17
3 17 7 22
3 26 21 7
3 21 22 7
3 65 48 32
3 22 32 34
3 48 92 90
3 92 80 110
3 129 110 141
3 141 166 129
3 166 141 188
3 142 146 171
3 98 146 142
3 67 74 98
3 117 98 74
3 12 13 6
3 3 4 11
3 4 19 25
3 70 87 66
3 87 130 91
3 87 91 66
3 66 91 63
3 104 134 87
3 104 90 127
3 169 129 187
3 158 117 148
3 115 148 117
3 51 74 67
3 51 67 42
3 67 78 42
3 42 78 53
3 42 53 28
3 28 53 31
3 23 28 12
3 51 39 59
3 51 59 74
3 59 39 36
3 59 36 56
3 36 20 15
3 36 15 41
3 15 5 3
3 63 35 49
3 49 35 34
3 50 63 83
3 83 109 103
3 143 167 135
3 135 167 103
3 136 161 114
3 161 85 114
3 85 148 118
3 118 148 115
3 114 85 94
3 56 94 85
3 108 121 154
3 25 50 18
3 44 18 50
3 61 44 50
3 50 103 61
3 61 103 84
3 121 84 123
3 123 103 139
3 123 165 181
3 181 156 123
3 185 136 153
3 136 108 153
3 121 95 84
3 84 95 71
3 106 76 88
3 33 68 54
3 155 183 147
3 122 155 147
3 119 151 159
3 112 151 119
3 68 73 54
3 73 68 102
3 102 68 86
3 102 86 147
3 102 147 145
3 100 73 102
3 100 102 131
3 131 102 145
3 162 131 145
3 162 175 131
3 101 99 140
3 101 140 112
3 101 112 89
3 112 140 164
3 30 33 52
3 52 33 54
3 43 52 72
3 60 43 72
3 60 72 88
3 60 88 76
3 96 72 81
3 72 96 88
3 126 111 100
3 111 126 128
3 100 111 81
3 81 111 96
3 96 111 128
3 96 128 88
3 170 133 128
3 133 170 178
3 178 170 174
3 126 174 128
3 128 133 88
3 128 174 170
3 125 97 150
3 172 125 150
3 172 150 178
3 178 150 133
3 133 150 106
3 106 150 97
3 106 97 76
3 93 97 116
3 132 116 160
3 125 160 116
3 125 116 97
3 45 47 69
3 43 26 38
3 80 93 116
3 80 116 132
3 110 80 132
3 179 173 137
3 78 98 107
3 79 113 99
3 79 69 47
3 29 31 47
3 6 9 1
3 0 7 4
3 37 22 21
3 37 43 65
3 43 37 21
3 43 21 26
3 32 22 37
3 32 37 65
3 58 34 32
3 58 32 48
3 70 58 90
3 90 58 48
3 129 127 92
3 92 127 90
3 92 110 129
3 166 168 129
3 168 187 129
3 142 179 137
3 171 146 186
3 117 158 146
3 117 146 98
3 75 53 78
3 79 75 113
3 113 75 78
3 47 31 53
3 47 53 75
3 47 75 79
3 11 4 25
3 83 63 91
3 109 91 120
3 109 120 143
3 143 120 157
3 157 120 130
3 91 130 120
3 177 157 130
3 138 177 130
3 138 130 87
3 184 176 134
3 87 134 138
3 138 134 176
3 138 176 177
3 127 182 134
3 127 134 104
3 129 169 127
3 23 39 42
3 23 42 28
3 42 39 51
3 94 56 55
3 55 56 36
3 41 55 36
3 77 55 57
3 57 55 41
3 40 57 41
3 18 40 41
3 11 25 18
3 11 18 3
3 50 25 35
3 63 50 35
3 109 135 103
3 143 135 109
3 139 103 167
3 136 163 161
3 71 95 77
3 108 77 95
3 108 95 121
3 57 71 77
3 62 84 71
3 44 62 40
3 44 40 18
3 57 40 71
3 71 40 62
3 61 84 62
3 61 62 44
3 123 139 165
3 127 169 182
3 88 133 106
3 64 89 86
3 100 131 126
3 69 101 64
3 45 46 27
3 33 27 46
3 52 38 30
3 60 76 97
3 60 97 65
3 149 124 113
3 137 173 149
3 152 124 149
3 14 6 13
3 29 14 13
3 33 16 9
3 33 9 14
3 8 2 1
3 8 1 9
3 8 9 16
3 26 7 10
3 26 10 30
3 30 10 16
3 16 10 8
3 8 10 2
3 7 2 10
3 65 80 48
3 92 48 80
3 13 24 31
3 24 13 12
3 0 3 5
3 0 5 12
3 0 12 6
3 0 4 3
3 17 19 4
3 19 17 34
3 17 22 34
3 58 70 34
3 90 104 70
3 70 104 87
3 82 115 105
3 82 105 74
3 117 105 115
3 105 117 74
3 28 31 24
3 12 28 24
3 12 20 23
3 23 20 39
3 39 20 36
3 5 15 20
3 5 20 12
3 15 3 18
3 15 18 41
3 34 35 19
3 19 35 25
3 63 49 66
3 49 34 66
3 66 34 70
3 91 109 83
3 161 148 85
3 82 74 59
3 82 85 118
3 82 118 115
3 85 82 59
3 56 85 59
3 108 94 55
3 108 55 77
3 83 103 50
3 84 103 123
3 185 163 136
3 136 94 108
3 94 136 114
3 154 180 108
3 108 180 153
3 121 123 156
3 156 154 121
