ply
format ascii 1.0
comment Generated by PyMesh
element vertex 200
property float x
property float y
property float z
property float charge
property float ddc
property float hbond
property float hphob
property float rho
property float si
property float theta
property float nx
property float ny
property float nz
element face 351
property list uchar int vertex_indices
end_header
-15.234 -11.3053 11.3237 -0.52401 0 -0.342352 -0.777778 1e-08 0.190645 2.22045e-16 -0.100538 0.894178 -0.436278
-14.9095 -11.794 10.3015 -0.38135 0.213379 -0.0268627 -0.777778 1.17857 0.773584 2.22045e-16 0.13334 0.56375 -0.815111
-14.5136 -10.6986 12.1084 0.0093171 -0.254968 -0.611101 -0.794638 1.22589 0.104646 4.60333 -0.118791 0.560971 -0.819268
-16.3521 -11.4514 11.8585 -0.0251259 0.2233 0 -0.892942 1.248 -0.62583 2.32487 0.0602094 0.903033 -0.42533
-15.3629 -10.7626 12.8304 0.136983 0.255731 -0.394883 -0.790553 1.60664 -0.999862 2.08029 -0.332311 0.671036 -0.662782
-16.3331 -11.9799 10.336 0.035176 -0.145873 -0.599444 -0.798871 1.62439 0.0823546 2.5876 0.25465 0.623967 -0.738795
-17.2897 -10.9758 11.8864 0.274118 -0.177294 0 -1 2.2997 0.0577259 2.41502 0.307248 0.871201 -0.382894
-13.0511 -12.0589 11.1349 -0.266539 0.131685 0 -0.777778 2.31703 0.257586 5.63729 0.334992 0.609531 -0.718507
-13.9409 -12.787 10.2555 -0.370037 0.335641 0 -0.777778 2.5665 0.999792 6.0881 0.321426 0.100952 -0.941538
-13.842 -9.499 12.3448 0.385083 -0.254961 0.846334 -0.866667 2.62087 0.583064 4.44873 0.114291 0.198146 -0.973486
-15.6134 -13.1465 10.1267 -0.0775537 0.36884 -0.157177 -0.941284 2.71326 0.300933 0.401548 0.135047 0.00100278 -0.990839
-17.0565 -12.6155 9.80875 0.217744 0.268904 0 -1 2.72225 0.619101 3.16114 0.274633 0.11672 -0.954439
-12.9963 -10.7945 12.6664 -0.0510023 0.168432 0.0462799 -0.793793 2.84539 -0.562432 5.0229 0.319079 0.427744 -0.845709
-16.8458 -10.3915 13.2823 0.230086 0.069484 0 -0.901769 3.09037 -0.277064 2.2362 -0.0914488 0.806767 -0.58375
-17.642 -11.1625 10.057 0.112985 0.00583552 0 -1 3.19258 0.999901 2.80366 0.0708431 0.739224 -0.669724
-15.4358 -9.10581 13.2952 0.96659 -0.238616 0 -0.866667 3.32893 -0.179197 1.83562 -0.419749 0.28432 -0.861959
-18.04 -10.3495 12.4425 0.180204 0.115334 0 -1 3.42417 0.790245 2.40775 -0.0188837 0.93446 -0.355567
-17.3151 -13.7944 9.69925 0.0670877 0.211298 0 -1 3.7836 0.114218 0.895895 0.128148 0.0611198 -0.98987
-11.7505 -12.7638 11.138 -0.053411 0.206309 0 -0.777778 3.79637 0.999888 5.67183 0.546991 0.154282 -0.822799
-15.3027 -14.1698 10.387 -0.152064 0.318952 -0.207425 -0.777778 3.81391 -0.550768 0.326091 0.210353 -0.150234 -0.966013
-18.0872 -12.0767 9.72775 0.317003 0.183824 0 -1 3.8881 0.721577 2.93976 -0.144112 0.253934 -0.956425
-18.9442 -11.0352 11.6637 0.331355 0.141986 0 -1 3.97017 0.380992 2.56228 -0.371316 0.846535 -0.381449
-13.0988 -13.906 10.6888 -0.210775 0.304637 0 -0.777778 4.03246 0.412374 6.03251 0.488421 -0.186139 -0.852524
-18.3202 -13.137 9.70988 0.36375 0.208508 0 -1 4.0929 0.60542 1.28847 -0.0848291 0.0187486 -0.996219
-16.9587 -9.418 13.788 0.235878 0.235369 0 -0.866667 4.19318 0.382773 2.08896 -0.698075 0.434666 -0.568996
-11.7086 -11.227 12.6416 -0.43896 0.0855787 -0.835421 -0.777778 4.20401 -0.400173 5.26074 0.155044 0.504703 -0.849256
-14.5334 -8.09988 12.9789 1 -0.281043 0 -0.866667 4.30541 0.0769332 1.53239 -0.416646 -0.127902 -0.900026
-11.244 -12.127 12.0522 -0.109208 0.181427 0 -0.777778 4.34476 0.314558 5.44705 0.665982 0.292855 -0.686079
-13.9121 -14.6616 10.49 -0.52379 0.294584 0 -0.777778 4.45593 0.655903 6.25058 0.279298 -0.289262 -0.915598
-18.8921 -11.6245 10.3421 0.378147 0.167196 0 -1 4.55547 0.788944 2.73171 -0.543557 0.608633 -0.578024
-16.2515 -14.8927 10.0135 0.14685 0.209308 0 -1 4.57584 -0.222322 0.503742 0.41567 0.0408365 -0.908598
-12.1716 -9.38762 13.3766 0.192425 -0.165187 -0.0349964 -0.858767 4.58741 -0.999812 4.82797 0.174566 0.148977 -0.97331
-12.4315 -8.2485 13.1453 0.53482 -0.234754 0 -0.483678 4.66882 -0.394484 4.5743 0.145432 -0.269293 -0.952014
-15.4591 -7.77588 13.7755 0.861067 -0.221275 0.088854 -0.773651 4.74313 -0.734937 3.69584 -0.501152 0.0173468 -0.865186
-11.4605 -13.5615 11.6944 -0.0795003 0.286645 0 -0.777778 4.81126 0.999811 5.73351 0.788617 -0.285382 -0.544646
-19.2892 -10.6217 13.267 0.17298 0.132391 0 -1 4.94549 0.330198 2.67847 -0.334676 0.910521 -0.242781
-18.3009 -10.4878 14.4353 0.217073 0.134501 0 -1 4.9494 -0.36447 2.94732 -0.351694 0.898683 -0.262068
-16.4895 -7.686 14.14 0.249945 -0.233626 0 -0.866667 5.28848 0.0837004 1.87266 -0.666855 -0.076441 -0.741257
-19.4224 -12.7526 9.99325 0.243005 0.167627 0 -1 5.29411 0.845049 2.82161 -0.537361 0.287897 -0.79269
-16.891 -8.604 14.5685 0.296941 0.252569 0 -0.866667 5.32294 -0.637084 2.03898 -0.911108 0.276913 -0.30529
-19.252 -13.9431 9.88231 0.24191 0.158663 0 -1 5.337 0.0174677 3.09363 -0.230642 0.0821338 -0.969566
-10.486 -11.3888 12.7402 -0.537483 0.194335 -0.133567 -0.777778 5.4412 0.266172 5.33014 0.450092 -0.105326 -0.886749
-20.0719 -11.826 12.3647 0.259031 0.156276 0 -1 5.51564 0.068851 2.63817 -0.660231 0.616466 -0.429027
-13.3403 -7.75063 12.6695 0.488417 -0.307197 0 -0.477887 5.5865 0.309244 1.22999 -0.078355 -0.532924 -0.842527
-14.7806 -15.9108 10.7155 0.0091696 0.278457 -0.03043 -0.793104 5.66096 0.290366 0.151354 0.538949 -0.461817 -0.704457
-10.7312 -12.692 13.1929 -0.33857 0.234104 0 -0.777778 5.71712 -0.782297 5.44188 0.79296 -0.188557 -0.579363
-17.221 -15.7148 9.389 -0.0800823 0.157092 0 -1 5.73118 0.657691 3.96508 0.133318 0.00501467 -0.991061
-17.4824 -9.63325 15.3156 0.240497 0.179289 0 -0.866667 5.82234 -0.876771 3.16334 -0.740196 0.487666 -0.462917
-10.6073 -10.0638 12.9993 -0.544387 -0.11942 -0.00833951 -0.777778 5.8453 0.238591 5.12149 -0.00148864 0.236394 -0.971656
-15.8385 -6.69825 13.663 0.586543 -0.268734 0.523724 -0.177778 5.89112 -0.999858 1.70075 -0.370887 -0.574621 -0.729557
-12.2097 -14.7964 12.0905 -0.172003 0.272964 0 -0.777778 5.91609 -0.077394 5.81425 0.467392 -0.461372 -0.754109
-11.0767 -13.8383 12.7755 -0.120711 0.219014 0 -0.777778 5.99139 0.126826 5.72617 0.819549 -0.0684307 -0.568909
-18.4521 -10.3144 15.4754 0.193447 0.0815244 0 -0.944124 6.01464 -0.902786 2.94732 -0.275903 0.864479 -0.420183
-19.324 -10.4045 14.811 0.166069 0.077992 0 -1 6.04248 -0.157377 2.94732 0.125617 0.949726 -0.286775
-10.6558 -8.67522 13.3047 -0.123091 -0.183516 0 -0.710011 6.26381 -0.612036 5.12149 -0.176408 -0.207952 -0.9621
-11.4593 -7.06425 12.5245 0.36085 -0.245427 0 -0.534173 6.322 -0.845022 4.5743 -0.0430158 -0.6673 -0.743546
-16.0744 -16.6863 9.843 0.216578 0.212002 0 -1 6.38621 0.773244 3.96508 0.565207 -0.335631 -0.753587
-15.3011 -6.19775 12.604 0.50108 -0.272298 -0.194779 -0.177778 6.3906 -0.206937 1.70075 -0.272386 -0.641142 -0.717456
-20.2196 -13.3044 10.6401 0.211921 0.173751 0.264241 -1 6.45962 0.53074 2.82161 -0.761396 0.321536 -0.56293
-20.5223 -11.3789 13.7464 0.202422 0.104832 0 -1 6.46986 -0.702519 2.63817 -0.520897 0.660354 -0.540924
-19.9643 -14.9095 9.72375 0.159746 0.151483 0 -1 6.54796 0.806655 3.09363 -0.551402 0.0766464 -0.830711
-20.4439 -10.5723 14.3776 0.139374 0.0424848 0 -1 6.54836 0.0620823 2.67847 -0.1757 0.687899 -0.704219
-17.0045 -6.579 13.7055 0.209189 -0.290448 0.0484967 -0.177778 6.58442 0.0532711 1.70075 -0.372483 -0.798344 -0.473185
-18.377 -16.4015 9.718 0.0589217 0.168891 0 -1 6.59873 0.246763 3.96508 -0.184434 -0.220216 -0.957856
-17.0825 -7.7875 15.585 0.30018 0.208945 0 -0.191002 6.64075 -0.858649 2.03898 -0.834138 -0.0571497 -0.548587
-12.997 -6.8425 12.0225 0.164346 -0.280286 0 -0.0888889 6.75319 0.101263 1.22999 -0.0988507 -0.649519 -0.753892
-21.164 -12.614 12.603 0.138973 0.173104 0 -1 6.88327 0.670374 2.63817 -0.847744 0.221375 -0.481999
-10.1165 -13.3935 14.048 -0.266568 0.129984 0 -0.777778 6.98249 -0.77602 5.44188 0.385576 0.0616912 -0.920611
-19.343 -10.0887 16.0842 0.0367197 -0.0367039 0 -0.959427 7.11704 -0.999899 2.94732 0.269278 0.796883 -0.540802
-10.5662 -14.6614 13.4996 -0.0944873 0.121523 0 -0.777778 7.20069 -0.607692 5.72617 0.587418 0.223629 -0.777773
-20.6022 -13.328 11.6995 0.196928 0.217085 0.638818 -1 7.24183 0.109021 2.63817 -0.936276 0.084451 -0.340963
-8.95475 -10.2674 13.0433 -0.145372 -0.186735 -0.348853 -0.777778 7.36321 -0.051276 5.12149 -0.123949 -0.443875 -0.887475
-9.33337 -12.2767 14.1205 -0.278701 0.159768 -0.396131 -0.777778 7.44537 -0.650019 5.44188 0.303109 -0.244857 -0.920962
-20.4977 -9.66825 15.1231 0.138002 -0.0628588 -0.771219 -0.31148 7.46271 0.0933316 2.94732 0.461489 0.593141 -0.659705
-17.0845 -17.4163 9.75125 0.224303 0.208272 0.0618687 -1 7.47616 0.999876 3.96508 0.00464454 -0.611645 -0.791119
-21.4137 -11.8073 13.9376 0.0435247 0.102679 -0.314608 -1 7.47717 -0.144449 2.63817 -0.545339 0.442209 -0.712079
-18.8542 -9.37125 16.6077 0.147958 -0.0697623 0 -0.866667 7.54216 -0.774815 3.16334 -0.0286449 0.379911 -0.924579
-8.79275 -11.3438 13.9897 -0.174024 0.172345 -0.196536 -0.888956 7.54605 -0.943984 5.33014 0.194507 -0.423554 -0.884742
-19.8773 -15.9108 9.7025 0.197117 0.18783 0 -1 7.55326 0.926023 3.09363 -0.574519 -0.335193 -0.746708
-17.911 -6.2715 15.196 0.204766 -0.227983 0 1 7.55489 -0.999889 1.87266 -0.413333 -0.739608 -0.531165
-14.7751 -16.7673 12.45 -0.0311044 0.227121 -0.00563068 -0.957004 7.59541 -0.99985 0.151354 0.518764 -0.437104 -0.734727
-12.4464 -16.3261 12.8144 -0.071511 0.174742 0 -0.377196 7.6249 -0.513734 5.81425 -0.0102562 -0.234887 -0.971969
-15.5204 -17.4001 11.7778 0.0933747 0.218312 0.00592891 -1 7.63423 -0.307753 0.151354 0.746641 -0.39578 -0.534683
-16.9878 -6.00616 12.5084 0.16828 -0.310292 0 -0.177778 7.66114 -0.268516 1.70075 0.0390774 -0.970228 -0.23902
-17.8437 -7.97316 16.2629 0.254598 -0.169908 0 0.717809 7.67682 -0.731524 3.16334 -0.424628 -0.21275 -0.880016
-13.3985 -16.0914 12.4439 -0.165299 0.266285 -0.416346 -0.701951 7.70918 -0.33361 5.81425 0.338644 -0.620605 -0.707227
-12.3375 -6.3815 11.3695 0.125123 -0.298965 0 -0.0888889 7.78946 -0.0946285 1.22999 -0.259074 -0.89831 -0.354851
-21.5238 -10.0594 14.7436 0.0140825 -0.0911381 0 -0.302471 7.79864 -0.347971 2.67847 0.230592 0.180458 -0.95617
-10.918 -6.34381 11.3474 0.0814103 -0.265495 0 -0.674742 7.80443 -0.585778 4.5743 -0.0343879 -0.954799 -0.295256
-9.599 -7.886 12.478 0.0152166 -0.198633 0 -0.777778 7.82045 -0.714466 5.12149 -0.444608 -0.470896 -0.761958
-18.6355 -17.4405 10.5407 0.216114 0.223128 0.333194 -1 7.94898 0.414409 3.96508 -0.403905 -0.746356 -0.528973
-21.0245 -13.6438 12.84 0.182942 0.225297 0 -1 7.94916 0.235309 2.63817 -0.882519 -0.299105 -0.362899
-20.7668 -14.7948 10.9923 0.247308 0.213938 0.194633 -1 8.05341 0.816357 3.09363 -0.989371 -0.0093741 -0.14511
-8.998 -8.733 12.5118 -0.0739477 -0.188338 0 -0.777778 8.10238 -0.787732 5.12149 -0.600919 -0.349797 -0.718706
-16.4518 -17.9608 11.0473 0.171789 0.194165 0 -1 8.17984 0.0744562 0.151354 0.361538 -0.527696 -0.768653
-9.68125 -7.01875 11.9342 0.185112 -0.209241 0 -0.777778 8.19603 -0.71361 4.5743 -0.393483 -0.648419 -0.651709
-13.6006 -5.50238 11.3686 0.099116 -0.244556 0 -0.0888889 8.197 -0.327554 1.22999 -0.430903 -0.636383 -0.639796
-20.1265 -9.2905 16.176 0.276374 -0.103776 -0.870462 -0.262424 8.23928 -0.889417 3.16334 0.611254 0.245662 -0.752342
-8.76912 -13.3918 14.2046 0.0184744 -0.088939 0 -1 8.33894 -0.796202 5.44188 -0.175225 0.221379 -0.959316
-9.321 -14.4572 13.7595 -0.0576607 0.0794159 0 -1 8.34172 -0.185821 5.72617 -0.0346642 0.281962 -0.958799
-20.5179 -15.9096 11.1258 0.35212 0.230878 0 -1 8.35695 0.860416 3.09363 -0.938621 -0.344245 -0.0220189
-18.6523 -6.01937 14.132 0.176105 -0.258472 0 0.0998822 8.37616 -0.501133 1.70075 0.0278223 -0.975824 -0.216778
-15.803 -4.925 11.1187 -0.006921 -0.240957 -0.811647 -0.177778 8.40998 -0.25577 1.70075 0.354256 -0.763653 -0.539757
-19.7464 -17.0767 10.7243 0.504503 0.228129 0.826967 -1 8.42734 0.999866 3.96508 -0.631306 -0.724487 -0.276715
-10.3792 -16.5362 12.591 -0.00271645 0.0620796 0 -0.155556 8.49061 0.132906 5.81425 0.210179 0.393611 -0.894928
-22.4034 -11.3806 14.4312 -0.278896 0.113801 -0.752668 -1 8.66259 0.124264 2.63817 -0.279148 -0.00970253 -0.960199
-18.7805 -6.90188 15.6709 0.205645 -0.209309 0 1 8.72917 -0.444014 1.87266 0.146899 -0.741063 -0.655169
-21.7095 -13.0495 13.7542 0.152812 0.162038 0 -1 8.76721 0.262136 2.63817 -0.650328 -0.14921 -0.744856
-17.401 -6.03675 11.4762 0.108734 -0.317379 0 -0.16549 8.7734 -0.137755 1.70075 0.51537 -0.855702 0.0465509
-14.9967 -17.985 12.6185 0.0984017 0.133631 0 -1 8.78451 -0.818762 0.151354 0.551546 -0.00227116 -0.834141
-13.537 -16.9993 13.0068 -0.0490217 0.164117 0 -0.155556 8.78636 -0.721346 5.81425 0.0766716 -0.213076 -0.974023
-7.6325 -10.8682 13.6713 0.036259 -0.174595 0.490042 -0.995589 8.83978 -0.999878 5.12149 -0.285211 -0.591521 -0.75416
-7.59244 -11.8614 13.9519 0.163901 -0.115948 0.944132 -1 8.85375 -0.776902 5.33014 -0.370217 -0.0339792 -0.928324
-21.2502 -8.50362 14.8431 -0.296657 -0.142542 -0.838733 -0.177778 8.87728 -0.200459 2.94732 0.671974 -0.133546 -0.728434
-20.2013 -14.7099 12.4825 0.293527 0.275327 0 -1 8.87995 -0.319494 2.63817 -0.897953 -0.43703 0.0518187
-8.79925 -7.947 11.7245 -0.0488977 -0.179772 0 -0.777778 8.92094 0.277138 5.12149 -0.539989 -0.402606 -0.739134
-9.37206 -15.923 13.4043 -0.00471173 0.0606769 0 -0.155556 8.94043 -0.611472 5.72617 0.234563 0.378624 -0.895335
-11.8234 -17.5637 12.5243 -0.045019 0.0829063 0 -0.155556 9.04051 -0.320271 5.81425 -0.355289 0.377602 -0.855094
-7.29313 -10.458 12.7794 -0.092495 -0.19233 0 -0.777778 9.05642 -0.223863 5.12149 -0.312423 -0.761019 -0.568543
-19.545 -7.992 16.6395 0.294261 -0.148669 -0.347605 0.404067 9.08507 -0.999927 3.16334 0.269309 -0.335886 -0.902581
-18.333 -6.3345 12.108 0.091576 -0.328401 -0.120039 -0.0912609 9.10256 0.282037 1.70075 0.250826 -0.908366 0.3346
-15.7309 -18.8997 11.833 0.126668 0.104887 0.870851 -1 9.14954 0.121056 0.151354 0.495304 0.103235 -0.862564
-17.9685 -18.186 11.2349 0.240915 0.204951 0.715229 -1 9.16659 0.0839666 3.96508 -0.42107 -0.684467 -0.595151
-8.01056 -9.44756 11.6484 -0.0895143 -0.181578 0 -0.777778 9.23655 0.576689 5.12149 -0.471068 -0.490435 -0.73319
-19.0355 -17.5035 11.8131 0.152427 0.222546 0.125576 -1 9.28426 0.0304059 3.96508 -0.792987 -0.558629 -0.243117
-12.9268 -5.85825 10.0618 0.066468 -0.2822 0 -0.0888889 9.31627 0.523431 1.22999 -0.698661 -0.694381 -0.17236
-12.061 -6.426 9.85625 0.0687357 -0.307772 0 -0.0888889 9.32841 0.594472 1.22999 -0.196044 -0.978588 -0.0627064
-20.9441 -14.2774 14.1104 0.392027 0.211249 0 -1 9.37107 -0.459495 2.63817 -0.656228 -0.535194 -0.531913
-9.37288 -6.32125 10.879 -0.241774 -0.19675 0 -0.777778 9.41914 -0.0339969 4.5743 0.00891663 -0.765131 -0.643813
-13.6392 -18.2104 13.0052 -0.108585 0.0969584 0 -0.155556 9.51402 -0.964705 0.151354 0.0598922 0.12674 -0.990126
-10.4118 -6.27056 9.62613 0.105906 -0.249436 0 -0.0888889 9.60008 0.377422 4.5743 0.23397 -0.959916 -0.154338
-16.6225 -19.2935 11.544 0.193745 0.126778 0.187711 -1 9.6123 0.237949 0.151354 0.0681923 -0.229687 -0.970873
-22.3465 -8.49375 14.0885 -0.068124 -0.162815 0 -0.177778 9.68471 -0.569041 2.67847 0.588423 -0.468957 -0.658663
-14.4446 -4.32575 10.8495 -0.113263 -0.222863 -0.487567 -0.132564 9.73527 -0.99988 1.22999 -0.216204 -0.790347 -0.573243
-19.1028 -6.053 12.8455 0.0926913 -0.289045 -0.218172 -0.149494 9.73968 -0.584342 1.70075 0.136644 -0.958058 0.251901
-15.2399 -4.01038 10.1786 0.048477 -0.224145 0.0615469 -0.0972704 9.83736 -0.428873 1.70075 0.0501641 -0.892009 -0.449225
-20.0229 -7.55125 15.8363 0.178879 -0.163883 -0.317033 0.147612 9.83854 -0.207275 3.16334 0.562908 -0.387783 -0.729903
-23.149 -9.1075 13.7925 0.056889 -0.148098 0 -0.177778 9.90862 0.219697 2.67847 -0.118113 -0.489313 -0.864073
-7.55944 -13.8655 13.1842 0.266273 -0.0977142 0 -1 9.99089 0.409996 5.44188 -0.389567 0.13203 -0.911485
-16.623 -4.8675 9.69606 0.265922 -0.224313 0.0800778 -0.132375 10.053 -0.580168 1.70075 0.79169 -0.538524 -0.288476
-13.5747 -4.53587 9.77962 0.055301 -0.235203 0 -0.0888889 10.057 -0.568209 1.22999 -0.68619 -0.688193 -0.235655
-23.7349 -11.4009 14.8865 0.126947 0.0956664 0.0924512 -0.301224 10.0699 -0.348377 2.63817 -0.20439 -0.0241314 -0.978592
-9.4695 -17.6315 11.8567 -0.192175 0.014398 -0.748996 -0.155556 10.0926 0.0678335 5.81425 0.180733 0.702411 -0.688443
-20.324 -6.3865 14.3372 0.221022 -0.215457 0 1 10.1 -0.999791 1.70075 0.499942 -0.811387 -0.302835
-22.7603 -12.7945 14.5735 -0.147878 0.128098 -0.0295089 -1 10.1238 -0.0751467 2.63817 -0.444675 -0.157526 -0.881731
-17.6385 -19.39 11.624 0.31816 0.131272 0 -1 10.125 0.302058 3.96508 -0.342342 -0.247706 -0.906336
-21.5989 -7.74388 13.9134 0.105045 -0.209689 -0.0787328 -0.922018 10.1275 -0.280303 2.94732 0.659801 -0.707421 -0.253412
-14.399 -19.2179 12.522 0.15471 0.0491008 0.0363823 -1 10.158 -0.717412 0.151354 0.252016 0.457675 -0.852655
-23.42 -10.2725 14.429 0.0938083 0.13307 0 -0.177778 10.1664 0.153012 2.63817 -0.470196 -0.275288 -0.83853
-17.8043 -6.68175 10.2825 0.213745 -0.344165 0 -0.0888889 10.1889 0.461547 1.70075 0.530315 -0.818463 0.221099
-19.261 -6.84125 11.6965 -0.243992 -0.319112 0 -0.0888889 10.2372 0.277998 1.70075 0.368084 -0.864345 0.342669
-6.41062 -11.2571 12.966 -0.00894547 -0.136243 0 -0.923287 10.2615 -0.0763923 5.12149 -0.359795 -0.377846 -0.8531
-20.213 -6.25775 13.0215 0.18907 -0.261927 0 -0.80846 10.3064 -0.856385 1.70075 0.370986 -0.88433 0.283425
-10.6109 -18 11.5407 -0.0282375 -0.0321569 0 -0.155556 10.3071 0.192749 5.81425 -0.147874 0.641766 -0.752509
-18.4757 -18.5233 12.208 0.291693 0.16428 0 -1 10.3146 -0.447021 3.96508 -0.711973 -0.297761 -0.63595
-7.54637 -7.93881 11.1088 -0.25574 -0.114902 -0.0228609 -0.777778 10.317 -0.0986617 5.12149 -0.344625 -0.0752006 -0.935723
-19.3253 -16.6465 12.5305 0.13931 0.248533 0 -1 10.3312 -0.2943 3.09363 -0.920531 -0.347953 0.177628
-20.6695 -7.0855 15.0363 0.123762 -0.176441 -0.585066 -0.0157454 10.4218 -0.757273 3.16334 0.67072 -0.488536 -0.558093
-11.9108 -6.32387 8.77262 0.0522473 -0.261684 0 -0.0888889 10.4272 0.999847 1.22999 -0.348543 -0.871239 -0.345631
-7.97237 -6.88225 11.0336 -0.167191 -0.10993 0 -0.777778 10.4358 0.191328 5.12149 -0.00398552 -0.120202 -0.992741
-22.695 -13.8725 14.969 0.0611497 0.136783 0 -0.440453 10.5348 -0.541795 2.63817 -0.371655 -0.333765 -0.866299
-8.394 -5.65562 10.7829 -0.297909 -0.137495 0 -0.563909 10.6068 -0.183207 4.5743 0.495724 -0.389932 -0.776022
-6.0475 -10.2502 11.8706 -0.425407 -0.169732 -0.0698766 -0.777778 10.6123 -0.0632294 5.12149 -0.220518 -0.792602 -0.568467
-12.1987 -18.6593 11.4368 0.0191901 -0.0854346 0 -0.155556 10.6292 0.681015 5.81425 -0.578644 0.560269 -0.59268
-17.1159 -5.79738 9.5235 0.256873 -0.264567 0 -0.160835 10.6526 0.0971588 1.70075 0.853315 -0.519417 -0.0453887
-13.021 -19.0665 12.565 0.00253635 0.0687511 0 -0.155556 10.6581 -0.576032 0.151354 -0.422291 0.500225 -0.75594
-13.1315 -5.173 8.925 0.0186621 -0.235758 0 -0.0888889 10.6593 0.513889 1.22999 -0.755563 -0.598811 -0.265611
-7.77166 -16.6033 13.4164 0.197133 0.0611662 0 -1 10.6795 -0.326918 5.72617 0.151441 0.263649 -0.952657
-20.1612 -15.324 14.3276 0.265798 0.193124 0.0100821 -0.594202 10.696 -0.87813 2.63817 -0.659343 -0.395084 -0.639669
-19.3857 -16.0071 13.5597 0.134442 0.214757 0.116609 -0.830473 10.753 -0.717768 2.63817 -0.890953 -0.26768 -0.36681
-23.8135 -12.9655 14.8745 0.151873 0.10338 0.27264 -0.393071 10.8298 -0.0725685 2.63817 -0.0165388 -0.164178 -0.986292
-19.2798 -18.357 13.0977 0.198775 0.168982 0 -1 10.8458 0.320299 3.96508 -0.919792 -0.196049 -0.339924
-21.8455 -15.0938 14.9732 0.117286 0.131856 0 -0.155556 10.8622 -0.353536 2.63817 -0.359799 -0.248848 -0.899233
-15.8931 -3.66613 9.317 0.0168946 -0.210801 0.787115 -0.16315 10.9721 -0.999886 1.70075 0.474484 -0.829969 -0.293286
-23.98 -8.416 14.069 0.0383617 0.154415 0 -0.177778 11.0245 -0.0189584 2.67847 -0.801276 -0.42702 -0.419059
-15.4234 -20.7494 11.6316 0.424127 0.109556 0.238232 -1 11.0354 0.648493 0.151354 -0.0162033 -0.232831 -0.972382
-8.95125 -18.1496 11.0863 -0.359967 0.017353 -0.953657 -0.155556 11.1559 0.908926 5.81425 0.145961 0.642631 -0.752144
-23.2985 -8.6565 12.6355 0.145161 -0.217931 0 -1 11.1594 0.171649 2.67847 -0.149108 -0.988821 -0.000164651
-6.201 -9.53975 10.9015 -0.306467 -0.148543 0 -0.777778 11.1964 0.628321 5.12149 -0.254556 -0.574097 -0.778212
-24.1569 -9.28213 14.6067 0.0760867 0.122953 0 -0.177778 11.216 0.0777232 2.63817 -0.65629 -0.196043 -0.728595
-16.4888 -20.8814 11.9667 0.309839 0.143229 0 -1 11.2609 -0.18446 0.151354 -0.185236 -0.607896 -0.772107
-6.6155 -8.35525 10.6219 -0.427657 -0.109456 0 -0.777778 11.2842 0.566945 5.12149 -0.386293 -0.101068 -0.916822
-10.3611 -5.92944 7.93031 0.0380817 -0.224759 0 -0.0888889 11.3306 0.163354 1.22999 0.078183 -0.982644 -0.168221
-24.8075 -12.0948 14.653 0.300281 -0.058479 0.715205 -0.177778 11.3686 0.221262 2.63817 0.152374 0.243081 -0.957963
-19.0397 -19.3747 12.6708 0.342933 0.13488 0 -1 11.4358 0.335111 3.96508 -0.877248 0.00784915 -0.479974
-8.99281 -5.18831 9.17241 0.00358713 -0.188399 0 -0.0888889 11.4415 -0.347794 4.5743 0.596314 -0.785419 -0.165914
-13.9991 -3.79312 8.62912 0.20013 -0.211754 0 -0.0888889 11.4907 -0.509045 1.22999 -0.539987 -0.798588 -0.265839
-5.16437 -11.2731 12.8599 -0.11533 0.143526 -0.622713 -0.820324 11.5124 0.254253 5.12149 0.572192 -0.61838 -0.538705
-24.6903 -10.3582 15.2692 0.354657 0.0837742 0 -0.177778 11.535 -0.506523 2.63817 -0.331744 0.0426787 -0.942404
-6.82316 -15.2248 13.015 0.244402 0.114992 0 -1 11.546 0.455681 5.44188 -0.0483189 -0.285896 -0.957042
-18.3305 -20.5438 12.0871 0.392983 0.130159 0 -1 11.5478 0.754835 3.96508 -0.39823 -0.422241 -0.814325
-21.936 -7.92137 12.5278 0.265757 -0.246813 0 -1 11.5646 -0.340597 2.94732 0.511917 -0.808369 0.290657
-17.4675 -6.8385 8.893 0.0557223 -0.309212 0 -0.0888889 11.6272 0.738786 1.70075 0.745376 -0.6652 0.0438689
-8.08425 -17.6605 12.6152 0.231115 0.0378189 -0.421347 -0.155556 11.6722 -0.189626 5.81425 0.419789 0.717991 -0.555218
-14.9088 -3.36075 8.43425 0.00988187 -0.210452 0 -0.0888889 11.728 -0.527912 1.70075 0.0743413 -0.974183 -0.213168
-5.92256 -12.6699 12.8638 0.204103 0.0802867 0 -1 11.7597 0.222485 5.12149 0.345216 0.0905652 -0.934144
-20.79 -7.24388 12.0931 0.140248 -0.267036 0 -0.610956 11.7786 -0.22274 1.70075 0.580424 -0.770568 0.263312
-17.0427 -5.50575 8.13175 0.139628 -0.229417 0.0189671 -0.0888889 11.7939 -0.731275 1.70075 0.914394 -0.404824 0.000975317
-13.4522 -20.3778 11.8142 0.145498 0.0875907 0 -0.852567 11.8142 0.168876 0.151354 -0.25051 0.0717346 -0.965453
-19.5499 -17.8784 14.2705 0.181288 0.164475 0 -1 11.8228 -0.34644 3.96508 -0.904105 -0.189099 -0.383192
3 188 179 148
3 188 148 141
3 137 105 148
3 141 148 105
3 196 146 191
3 196 152 143
3 120 152 150
3 196 150 152
3 164 149 192
3 164 192 197
3 141 105 170
3 144 170 105
3 144 107 160
3 107 105 75
3 107 75 91
3 91 75 66
3 66 75 42
3 59 61 35
3 61 53 35
3 35 53 36
3 53 61 73
3 97 113 136
3 136 113 157
3 106 143 101
3 101 83 62
3 108 83 120
3 120 150 108
3 120 83 134
3 83 108 102
3 164 102 108
3 57 83 102
3 140 135 186
3 127 172 160
3 107 91 127
3 114 91 70
3 70 92 114
3 92 70 58
3 42 58 70
3 21 16 6
3 13 24 15
3 16 35 13
3 33 26 15
3 15 37 33
3 102 96 57
3 57 96 43
3 43 96 65
3 186 166 140
3 168 172 127
3 92 60 100
3 38 40 58
3 29 42 21
3 40 23 17
3 17 23 11
3 5 17 11
3 10 5 1
3 1 5 0
3 6 3 5
3 3 0 5
3 15 9 2
3 0 2 7
3 9 32 31
3 32 26 43
3 55 43 65
3 65 86 55
3 86 65 96
3 126 86 125
3 96 125 86
3 86 126 88
3 115 128 159
3 130 126 158
3 182 185 130
3 63 60 40
3 30 10 19
3 10 8 28
3 25 41 27
3 41 72 45
3 41 45 27
3 27 45 34
3 138 99 98
3 118 71 123
3 48 71 41
3 48 31 54
3 89 55 95
3 115 155 123
3 161 128 185
3 161 159 128
3 185 128 130
3 154 184 171
3 154 171 124
3 171 199 124
3 124 199 156
3 124 156 103
3 103 156 100
3 90 103 63
3 154 122 145
3 154 145 184
3 145 122 94
3 145 94 131
3 94 74 56
3 94 56 82
3 56 46 30
3 34 22 18
3 18 22 7
3 50 34 51
3 51 69 104
3 99 167 116
3 116 167 104
3 195 138 151
3 123 178 162
3 178 123 181
3 181 123 155
3 131 175 180
3 28 50 44
3 85 44 50
3 81 85 50
3 50 104 81
3 81 104 117
3 163 117 153
3 153 104 142
3 163 165 117
3 117 165 129
3 64 39 47
3 42 75 59
3 179 174 137
3 177 137 174
3 148 179 137
3 132 137 177
3 141 183 188
3 170 183 141
3 75 61 59
3 61 75 87
3 87 75 105
3 87 105 137
3 87 137 132
3 73 61 87
3 73 87 113
3 113 87 132
3 146 113 132
3 191 146 177
3 177 146 132
3 136 157 143
3 143 157 146
3 143 146 196
3 146 157 113
3 152 101 143
3 134 101 152
3 134 152 120
3 160 170 144
3 21 42 35
3 35 42 59
3 13 35 36
3 24 13 36
3 24 36 47
3 24 47 39
3 52 36 53
3 36 52 47
3 97 68 73
3 68 97 76
3 73 68 53
3 53 68 52
3 52 68 76
3 52 76 47
3 119 84 76
3 84 119 106
3 106 119 136
3 97 136 76
3 76 84 47
3 76 136 119
3 143 106 136
3 62 37 79
3 101 62 79
3 101 79 106
3 106 79 84
3 84 79 64
3 64 79 37
3 64 37 39
3 33 37 49
3 57 49 83
3 62 83 49
3 62 49 37
3 139 102 164
3 135 133 102
3 133 135 140
3 135 102 139
3 194 186 135
3 194 135 173
3 139 173 135
3 164 197 139
3 91 114 127
3 13 6 16
3 26 33 49
3 26 49 57
3 43 26 57
3 140 125 96
3 140 96 133
3 133 96 102
3 166 125 140
3 168 127 114
3 92 100 114
3 40 38 23
3 17 5 10
3 4 0 3
3 4 13 15
3 13 4 3
3 13 3 6
3 2 0 4
3 2 4 15
3 12 7 2
3 12 2 9
3 25 12 31
3 31 12 9
3 55 54 32
3 32 54 31
3 32 43 55
3 86 88 55
3 95 128 115
3 128 88 130
3 88 128 95
3 88 95 55
3 169 156 199
3 114 100 156
3 114 156 169
3 114 169 168
3 19 10 28
3 51 34 45
3 69 45 67
3 69 67 99
3 99 67 98
3 98 67 72
3 45 72 67
3 112 98 72
3 138 98 112
3 77 112 72
3 77 72 41
3 118 111 71
3 41 71 77
3 77 71 111
3 77 111 112
3 93 123 71
3 54 93 71
3 54 71 48
3 55 89 54
3 89 95 115
3 90 122 124
3 90 124 103
3 124 122 154
3 175 131 121
3 121 131 94
3 82 121 94
3 147 121 109
3 109 121 82
3 80 109 82
3 44 80 82
3 19 28 44
3 19 44 30
3 50 28 22
3 34 50 22
3 69 116 104
3 99 116 69
3 142 104 167
3 142 167 193
3 142 193 176
3 162 151 118
3 162 118 123
3 195 151 187
3 111 118 151
3 112 111 151
3 138 112 151
3 129 165 147
3 198 147 165
3 198 165 163
3 109 129 147
3 110 117 129
3 85 110 80
3 85 80 44
3 109 80 129
3 129 80 110
3 81 117 110
3 81 110 85
3 153 142 176
3 89 115 93
3 123 93 115
3 54 89 93
3 47 84 64
3 107 144 105
3 73 113 97
3 134 83 101
3 164 108 149
3 150 149 108
3 127 160 107
3 91 66 70
3 42 70 66
3 35 16 21
3 24 39 37
3 24 37 15
3 58 40 60
3 92 58 60
3 42 29 38
3 42 38 58
3 20 11 23
3 20 23 38
3 20 38 29
3 6 5 14
3 6 14 21
3 21 14 29
3 29 14 20
3 20 14 11
3 5 11 14
3 15 26 9
3 32 9 26
3 166 158 125
3 125 158 126
3 126 130 88
3 130 158 182
3 60 78 100
3 78 60 63
3 17 30 46
3 17 46 63
3 17 63 40
3 17 10 30
3 1 8 10
3 8 1 7
3 1 0 7
3 12 25 7
3 31 48 25
3 25 48 41
3 159 155 115
3 103 100 78
3 63 103 78
3 63 74 90
3 90 74 122
3 122 74 94
3 46 56 74
3 46 74 63
3 56 30 44
3 56 44 82
3 7 22 8
3 8 22 28
3 34 18 27
3 18 7 27
3 27 7 25
3 45 69 51
3 99 138 167
3 167 138 189
3 190 184 145
3 180 190 145
3 131 180 145
3 198 175 121
3 198 121 147
3 51 104 50
3 117 104 153
