ply
format ascii 1.0
comment Generated by PyMesh
element vertex 200
property float x
property float y
property float z
property float charge
property float ddc
property float hbond
property float hphob
property float rho
property float si
property float theta
property float nx
property float ny
property float nz
element face 326
property list uchar int vertex_indices
end_header
-13.3403 -7.75063 12.6695 0.488417 0 0 -0.477887 1e-08 0.309244 2.22045e-16 -0.078355 -0.532924 -0.842527
-12.4315 -8.2485 13.1453 0.53482 0.28321 0 -0.483678 1.14025 -0.394484 3.41817 0.145432 -0.269293 -0.952014
-12.997 -6.8425 12.0225 0.164346 -0.182255 0 -0.0888889 1.16669 0.101263 1.62946 -0.0988507 -0.649519 -0.753892
-14.5334 -8.09988 12.9789 1 0.371881 0 -0.866667 1.28109 0.0769332 5.21451 -0.416646 -0.127902 -0.900026
-11.4593 -7.06425 12.5245 0.36085 -0.118534 0 -0.534173 2.00756 -0.845022 2.45167 -0.0430158 -0.6673 -0.743546
-12.3375 -6.3815 11.3695 0.125123 -0.323429 0 -0.0888889 2.20297 -0.0946285 1.66826 -0.259074 -0.89831 -0.354851
-12.1716 -9.38762 13.3766 0.192425 -0.321461 -0.0349964 -0.858767 2.33132 -0.999812 3.53394 0.174566 0.148977 -0.97331
-15.3011 -6.19775 12.604 0.50108 0.116699 -0.194779 -0.177778 2.50209 -0.206937 2.22045e-16 -0.272386 -0.641142 -0.717456
-15.4591 -7.77588 13.7755 0.861067 0.268058 0.088854 -0.773651 2.5446 -0.734937 5.47694 -0.501152 0.0173468 -0.865186
-13.6006 -5.50238 11.3686 0.099116 -0.169923 0 -0.0888889 2.6105 -0.327554 1.00388 -0.430903 -0.636383 -0.639796
-15.4358 -9.10581 13.2952 0.96659 0.321622 0 -0.866667 2.66899 -0.179197 5.04867 -0.419749 0.28432 -0.861959
-13.842 -9.499 12.3448 0.385083 -0.384656 0.846334 -0.866667 2.96562 0.583064 4.34366 0.114291 0.198146 -0.973486
-10.6558 -8.67522 13.3047 -0.123091 -0.100873 0 -0.710011 2.97345 -0.612036 3.07684 -0.176408 -0.207952 -0.9621
-15.8385 -6.69825 13.663 0.586543 0.114504 0.523724 -0.177778 3.31477 -0.999858 5.85859 -0.370887 -0.574621 -0.729557
-10.918 -6.34381 11.3474 0.0814103 -0.243683 0 -0.674742 3.48999 -0.585778 2.11726 -0.0343879 -0.954799 -0.295256
-16.4895 -7.686 14.14 0.249945 0.20505 0 -0.866667 3.64126 0.0837004 5.57214 -0.666855 -0.076441 -0.741257
-12.9268 -5.85825 10.0618 0.066468 -0.29382 0 -0.0888889 3.72977 0.523431 1.35122 -0.698661 -0.694381 -0.17236
-12.061 -6.426 9.85625 0.0687357 -0.285988 0 -0.0888889 3.74191 0.594472 1.63705 -0.196044 -0.978588 -0.0627064
-9.68125 -7.01875 11.9342 0.185112 -0.108827 0 -0.777778 3.88159 -0.71361 2.48299 -0.393483 -0.648419 -0.651709
-9.599 -7.886 12.478 0.0152166 -0.0989757 0 -0.777778 4.04181 -0.714466 2.72833 -0.444608 -0.470896 -0.761958
-10.6073 -10.0638 12.9993 -0.544387 -0.201228 -0.00833951 -0.777778 4.07677 0.238591 3.36745 -0.00148864 0.236394 -0.971656
-12.9963 -10.7945 12.6664 -0.0510023 -0.323883 0.0462799 -0.793793 4.11004 -0.562432 3.9676 0.319079 0.427744 -0.845709
-14.4446 -4.32575 10.8495 -0.113263 -0.112604 -0.487567 -0.132564 4.14877 -0.99988 0.824091 -0.216204 -0.790347 -0.573243
-16.9878 -6.00616 12.5084 0.16828 -0.201824 0 -0.177778 4.20233 -0.268516 6.20881 0.0390774 -0.970228 -0.23902
-16.9587 -9.418 13.788 0.235878 0.274416 0 -0.866667 4.2998 0.382773 5.1881 -0.698075 0.434666 -0.568996
-14.5136 -10.6986 12.1084 0.0093171 -0.322116 -0.611101 -0.794638 4.3606 0.104646 4.39268 -0.118791 0.560971 -0.819268
-11.7086 -11.227 12.6416 -0.43896 -0.263149 -0.835421 -0.777778 4.36551 -0.400173 3.72892 0.155044 0.504703 -0.849256
-15.3629 -10.7626 12.8304 0.136983 -0.327748 -0.394883 -0.790553 4.39129 -0.999862 4.66554 -0.332311 0.671036 -0.662782
-13.5747 -4.53587 9.77962 0.055301 -0.207682 0 -0.0888889 4.47052 -0.568209 1.06519 -0.68619 -0.688193 -0.235655
-17.0045 -6.579 13.7055 0.209189 0.147473 0.0484967 -0.177778 4.48762 0.0532711 5.88043 -0.372483 -0.798344 -0.473185
-15.803 -4.925 11.1187 -0.006921 -0.154812 -0.811647 -0.177778 4.52148 -0.25577 0.444817 0.354256 -0.763653 -0.539757
-16.8458 -10.3915 13.2823 0.230086 -0.296634 0 -0.901769 4.5772 -0.277064 4.95008 -0.0914488 0.806767 -0.58375
-16.891 -8.604 14.5685 0.296941 0.303671 0 -0.866667 4.73101 -0.637084 5.44684 -0.911108 0.276913 -0.30529
-8.998 -8.733 12.5118 -0.0739477 -0.122925 0 -0.777778 4.81202 -0.787732 2.87164 -0.600919 -0.349797 -0.718706
-11.9108 -6.32387 8.77262 0.0522473 -0.161679 0 -0.0888889 4.84066 0.999847 1.57386 -0.348543 -0.871239 -0.345631
-13.1315 -5.173 8.925 0.0186621 -0.199975 0 -0.0888889 5.07283 0.513889 1.27053 -0.755563 -0.598811 -0.265611
-9.37288 -6.32125 10.879 -0.241774 -0.0838964 0 -0.777778 5.10471 -0.0339969 2.25473 0.00891663 -0.765131 -0.643813
-8.79925 -7.947 11.7245 -0.0488977 -0.102191 0 -0.777778 5.1423 0.277138 2.6409 -0.539989 -0.402606 -0.739134
-17.0825 -7.7875 15.585 0.30018 0.1924 0 -0.191002 5.2065 -0.858649 5.52051 -0.834138 -0.0571497 -0.548587
-15.2399 -4.01038 10.1786 0.048477 -0.125573 0.0615469 -0.0972704 5.236 -0.428873 0.70271 0.0501641 -0.892009 -0.449225
-10.4118 -6.27056 9.62613 0.105906 -0.207282 0 -0.0888889 5.28565 0.377422 1.9427 0.23397 -0.959916 -0.154338
-17.401 -6.03675 11.4762 0.108734 -0.255637 0 -0.16549 5.31458 -0.137755 0.0766064 0.51537 -0.855702 0.0465509
-8.95475 -10.2674 13.0433 -0.145372 -0.00922451 -0.348853 -0.777778 5.318 -0.051276 3.70983 -0.123949 -0.443875 -0.887475
-10.486 -11.3888 12.7402 -0.537483 0.141782 -0.133567 -0.777778 5.43231 0.266172 3.73191 0.450092 -0.105326 -0.886749
-11.244 -12.127 12.0522 -0.109208 -0.223844 0 -0.777778 5.53736 0.314558 3.98653 0.665982 0.292855 -0.686079
-15.234 -11.3053 11.3237 -0.52401 -0.338604 -0.342352 -0.777778 5.5865 0.190645 4.34151 -0.100538 0.894178 -0.436278
-18.333 -6.3345 12.108 0.091576 -0.25476 -0.120039 -0.0912609 5.64375 0.282037 6.25173 0.250826 -0.908366 0.3346
-13.9991 -3.79312 8.62912 0.20013 -0.144539 0 -0.0888889 5.9042 -0.509045 1.01738 -0.539987 -0.798588 -0.265839
-17.911 -6.2715 15.196 0.204766 0.0995627 0 1 5.90767 -0.999889 5.77334 -0.413333 -0.739608 -0.531165
-17.4824 -9.63325 15.3156 0.240497 0.234073 0 -0.866667 5.92896 -0.876771 5.27122 -0.740196 0.487666 -0.462917
-16.3521 -11.4514 11.8585 -0.0251259 -0.301156 0 -0.892942 5.93969 -0.62583 4.57272 0.0602094 0.903033 -0.42533
-18.04 -10.3495 12.4425 0.180204 -0.279802 0 -1 6.03773 0.790245 4.95008 -0.0188837 0.93446 -0.355567
-13.0511 -12.0589 11.1349 -0.266539 -0.256591 0 -0.777778 6.09679 0.257586 3.9676 0.334992 0.609531 -0.718507
-18.3009 -10.4878 14.4353 0.217073 -0.257264 0 -1 6.13418 -0.36447 5.27122 -0.351694 0.898683 -0.262068
-17.2897 -10.9758 11.8864 0.274118 -0.288408 0 -1 6.15422 0.0577259 4.57272 0.307248 0.871201 -0.382894
-16.623 -4.8675 9.69606 0.265922 -0.200963 0.0800778 -0.132375 6.16453 -0.580168 0.444817 0.79169 -0.538524 -0.288476
-17.8437 -7.97316 16.2629 0.254598 0.0735691 0 0.717809 6.24258 -0.731524 5.52051 -0.424628 -0.21275 -0.880016
-18.6523 -6.01937 14.132 0.176105 -0.144714 0 0.0998822 6.27936 -0.501133 5.77334 0.0278223 -0.975824 -0.216778
-8.394 -5.65562 10.7829 -0.297909 0.105634 0 -0.563909 6.29235 -0.183207 2.25473 0.495724 -0.389932 -0.776022
-8.01056 -9.44756 11.6484 -0.0895143 -0.0713588 0 -0.777778 6.3057 0.576689 2.87164 -0.471068 -0.490435 -0.73319
-12.4902 -5.07987 7.84025 0.2066 -0.135138 0 -0.0888889 6.3364 -0.109436 1.27053 -0.52891 -0.777561 -0.340077
-19.1028 -6.053 12.8455 0.0926913 -0.207531 -0.218172 -0.149494 6.34454 -0.584342 6.25173 0.136644 -0.958058 0.251901
-15.8931 -3.66613 9.317 0.0168946 -0.15095 0.787115 -0.16315 6.37069 -0.999886 0.70271 0.474484 -0.829969 -0.293286
-7.54637 -7.93881 11.1088 -0.25574 -0.0794863 -0.0228609 -0.777778 6.53831 -0.0986617 2.6409 -0.344625 -0.0752006 -0.935723
-7.97237 -6.88225 11.0336 -0.167191 0.0676015 0 -0.777778 6.6213 0.191328 2.6409 -0.00398552 -0.120202 -0.992741
-10.3611 -5.92944 7.93031 0.0380817 -0.150627 0 -0.0888889 6.64804 0.163354 1.9427 0.078183 -0.982644 -0.168221
-17.8043 -6.68175 10.2825 0.213745 -0.252474 0 -0.0888889 6.73007 0.461547 0.0766064 0.530315 -0.818463 0.221099
-8.79275 -11.3438 13.9897 -0.174024 0.0488843 -0.196536 -0.888956 6.76042 -0.943984 3.70983 0.194507 -0.423554 -0.884742
-11.7505 -12.7638 11.138 -0.053411 -0.163922 0 -0.777778 6.76122 0.999888 3.98653 0.546991 0.154282 -0.822799
-17.1159 -5.79738 9.5235 0.256873 -0.237902 0 -0.160835 6.76411 0.0971588 0.0766064 0.853315 -0.519417 -0.0453887
-14.9095 -11.794 10.3015 -0.38135 -0.215422 -0.0268627 -0.777778 6.76507 0.773584 4.34151 0.13334 0.56375 -0.815111
-19.261 -6.84125 11.6965 -0.243992 -0.223874 0 -0.0888889 6.77835 0.277998 6.25173 0.368084 -0.864345 0.342669
-10.7312 -12.692 13.1929 -0.33857 0.173808 0 -0.777778 6.83352 -0.782297 3.98653 0.79296 -0.188557 -0.579363
-7.6325 -10.8682 13.6713 0.036259 -0.0389857 0.490042 -0.995589 6.90031 -0.999878 3.70983 -0.285211 -0.591521 -0.75416
-14.9088 -3.36075 8.43425 0.00988187 -0.134243 0 -0.0888889 6.9301 -0.527912 1.01738 0.0743413 -0.974183 -0.213168
-7.29313 -10.458 12.7794 -0.092495 -0.0715366 0 -0.777778 7.01121 -0.223863 3.70983 -0.312423 -0.761019 -0.568543
-19.2892 -10.6217 13.267 0.17298 -0.232553 0 -1 7.03147 0.330198 4.95008 -0.334676 0.910521 -0.242781
-11.4605 -13.5615 11.6944 -0.0795003 0.155047 0 -0.777778 7.03158 0.999811 3.98653 0.788617 -0.285382 -0.544646
-18.7805 -6.90188 15.6709 0.205645 -0.0668855 0 1 7.08195 -0.444014 5.77334 0.146899 -0.741063 -0.655169
-18.4521 -10.3144 15.4754 0.193447 -0.223972 0 -0.944124 7.12471 -0.902786 5.27122 -0.275903 0.864479 -0.420183
-8.99281 -5.18831 9.17241 0.00358713 0.168657 0 -0.0888889 7.12702 -0.347794 1.9427 0.596314 -0.785419 -0.165914
-16.3331 -11.9799 10.336 0.035176 -0.204183 -0.599444 -0.798871 7.21089 0.0823546 4.57272 0.25465 0.623967 -0.738795
-19.324 -10.4045 14.811 0.166069 -0.226027 0 -1 7.22726 -0.157377 5.27122 0.125617 0.949726 -0.286775
-18.9442 -11.0352 11.6637 0.331355 -0.218825 0 -1 7.41406 0.380992 4.57272 -0.371316 0.846535 -0.381449
-13.621 -3.619 7.156 -0.00765367 -0.0759429 0 -0.0888889 7.43501 0.26688 1.01738 -0.581425 -0.365319 -0.726971
-9.33337 -12.2767 14.1205 -0.278701 0.0738295 -0.396131 -0.777778 7.43784 -0.650019 3.73191 0.303109 -0.244857 -0.920962
-20.213 -6.25775 13.0215 0.18907 -0.186442 0 -0.80846 7.4871 -0.856385 6.25173 0.370986 -0.88433 0.283425
-16.0777 -3.76875 8.203 0.0361967 -0.180367 0 -0.0888889 7.50454 -0.514211 0.70271 0.711117 -0.702398 -0.0308115
-13.9409 -12.787 10.2555 -0.370037 -0.126702 0 -0.777778 7.54428 0.999792 4.34151 0.321426 0.100952 -0.941538
-7.28 -5.491 11.3975 -0.283519 0.170527 -0.29028 -0.570924 7.57525 -0.0249235 2.25473 0.646185 0.350058 -0.678163
-14.8453 -3.09875 7.2685 -0.106071 0.0250696 0 -0.0888889 7.65048 0.173275 1.01738 0.063646 -0.38891 -0.919075
-6.6155 -8.35525 10.6219 -0.427657 -0.0677661 0 -0.777778 7.66837 0.566945 2.6409 -0.386293 -0.101068 -0.916822
-7.484 -4.46 10.931 -0.311672 0.159619 0 -0.0888889 7.80217 -0.0841359 2.25473 0.864025 -0.387214 -0.321755
-18.8542 -9.37125 16.6077 0.147958 -0.123249 0 -0.866667 7.83159 -0.774815 5.27122 -0.0286449 0.379911 -0.924579
-9.86438 -5.89712 6.79975 0.11479 -0.191664 0 -0.155556 7.88333 -0.210574 1.9427 -0.219346 -0.885478 0.409654
-11.1451 -5.506 7.06925 0.081587 -0.155611 0 -0.100888 7.88715 -0.259259 1.27053 -0.383129 -0.923164 -0.031305
-17.0427 -5.50575 8.13175 0.139628 -0.21296 0.0189671 -0.0888889 7.90538 -0.731275 0.444817 0.914394 -0.404824 0.000975317
-7.59244 -11.8614 13.9519 0.163901 -0.0730369 0.944132 -1 7.93316 -0.776902 3.70983 -0.370217 -0.0339792 -0.928324
-19.545 -7.992 16.6395 0.294261 -0.0525793 -0.347605 0.404067 7.98516 -0.999927 5.52051 0.269309 -0.335886 -0.902581
-13.0988 -13.906 10.6888 -0.210775 -0.100164 0 -0.777778 7.9976 0.412374 3.98653 0.488421 -0.186139 -0.852524
-20.324 -6.3865 14.3372 0.221022 -0.121639 0 1 8.00316 -0.999791 5.77334 0.499942 -0.811387 -0.302835
-17.642 -11.1625 10.057 0.112985 -0.204292 0 -1 8.02656 0.999901 4.57272 0.0708431 0.739224 -0.669724
-17.4675 -6.8385 8.893 0.0557223 -0.221827 0 -0.0888889 8.03103 0.738786 0.0766064 0.745376 -0.6652 0.0438689
-10.1165 -13.3935 14.048 -0.266568 -0.108292 0 -0.777778 8.09889 -0.77602 3.98653 0.385576 0.0616912 -0.920611
-11.0767 -13.8383 12.7755 -0.120711 0.160639 0 -0.777778 8.10143 0.126826 3.98653 0.819549 -0.0684307 -0.568909
-6.41062 -11.2571 12.966 -0.00894547 -0.0368491 0 -0.923287 8.21629 -0.0763923 3.70983 -0.359795 -0.377846 -0.8531
-19.343 -10.0887 16.0842 0.0367197 -0.187038 0 -0.959427 8.22711 -0.999899 5.27122 0.269278 0.796883 -0.540802
-6.201 -9.53975 10.9015 -0.306467 -0.0282932 0 -0.777778 8.26551 0.628321 2.87164 -0.254556 -0.574097 -0.778212
-15.6134 -13.1465 10.1267 -0.0775537 -0.0845413 -0.157177 -0.941284 8.29976 0.300933 4.34151 0.135047 0.00100278 -0.990839
-8.771 -5.32425 8.028 -0.0419467 -0.199453 0 -0.155556 8.30063 -0.086949 1.9427 0.343575 -0.856788 0.384539
-17.0565 -12.6155 9.80875 0.217744 -0.103633 0 -1 8.30875 0.619101 4.57272 0.274633 0.11672 -0.954439
-12.6431 -4.67812 5.88588 -0.0220906 -0.250904 0.162576 -0.25208 8.33749 -0.0594895 1.27053 -0.562668 0.507152 0.652841
-20.79 -7.24388 12.0931 0.140248 -0.180868 0 -0.610956 8.40845 -0.22274 6.25173 0.580424 -0.770568 0.263312
-19.3347 -7.254 9.89163 0.152654 -0.205239 0.287924 -0.63516 8.41006 -0.651943 6.25173 0.48933 -0.816662 0.305973
-6.354 -6.115 11.122 -0.412697 0.148317 -0.978299 -0.777778 8.41451 0.246731 2.6409 -0.0415489 0.60929 -0.791858
-6.0475 -10.2502 11.8706 -0.425407 -0.0593537 -0.0698766 -0.777778 8.43812 -0.0632294 3.70983 -0.220518 -0.792602 -0.568467
-20.4439 -10.5723 14.3776 0.139374 -0.150469 0 -1 8.43977 0.0620823 5.27122 -0.1757 0.687899 -0.704219
-13.7907 -2.59575 7.293 -0.043938 0.0743816 0 -0.0888889 8.48124 -0.242704 1.01738 -0.0844454 0.0670477 -0.99417
-20.0229 -7.55125 15.8363 0.178879 -0.0913561 -0.317033 0.147612 8.49355 -0.207275 5.77334 0.562908 -0.387783 -0.729903
-12.2097 -14.7964 12.0905 -0.172003 0.0798736 0 -0.777778 8.5293 -0.077394 3.98653 0.467392 -0.461372 -0.754109
-20.5223 -11.3789 13.7464 0.202422 0.155101 0 -1 8.55584 -0.702519 4.95008 -0.520897 0.660354 -0.540924
-20.3315 -7.74131 10.5953 0.199796 -0.194338 0.0211574 -0.577367 8.55843 -0.0744587 6.25173 0.524645 -0.768145 0.367016
-18.6239 -7.34106 8.705 0.0570087 -0.188322 0 -0.0888889 8.6261 0.0479925 0.0766064 0.53879 -0.830792 0.139607
-20.4977 -9.66825 15.1231 0.138002 -0.156545 -0.771219 -0.31148 8.64749 0.0933316 5.27122 0.461489 0.593141 -0.659705
-8.76912 -13.3918 14.2046 0.0184744 -0.0951983 0 -1 8.6904 -0.796202 3.73191 -0.175225 0.221379 -0.959316
-7.5055 -4.67975 12.1485 -0.334287 0.240801 0 -0.777778 8.70352 -0.147937 2.25473 0.960251 0.272999 0.0582141
-12.3745 -3.36175 7.0435 0.259066 0.131616 0.820334 -0.0888889 8.71274 -0.0846172 1.01738 0.00283395 0.46792 -0.883766
-20.0719 -11.826 12.3647 0.259031 0.166254 0 -1 8.72767 0.068851 4.95008 -0.660231 0.616466 -0.429027
-16.4112 -4.2905 7.04475 -0.010762 -0.207126 0.812023 -0.0888889 8.81792 -0.628653 0.70271 0.838796 -0.44615 0.312044
-10.5662 -14.6614 13.4996 -0.0944873 -0.130649 0 -0.777778 8.83348 -0.607692 3.98653 0.587418 0.223629 -0.777773
-15.773 -3.4955 6.645 -0.114715 -0.17698 0 -0.151249 8.83656 -0.0697984 1.01738 0.923786 -0.380056 0.0466609
-18.8921 -11.6245 10.3421 0.378147 -0.169206 0 -1 8.86203 0.788944 4.57272 -0.543557 0.608633 -0.578024
-7.4305 -3.96725 9.99225 -0.231811 0.155408 0 -0.0888889 8.86373 -0.0393035 2.25473 0.787945 -0.604228 -0.118537
-7.027 -3.47463 10.7847 -0.283751 0.183934 0 -0.0888889 8.89816 0.461161 2.25473 0.95162 -0.28808 0.10691
-7.71931 -4.28869 8.27731 -0.13222 0.185268 0 -0.0993076 8.92489 -0.0666502 1.9427 0.771305 -0.555214 0.311169
-14.9106 -1.80275 7.49563 -0.306126 0.0733524 0 -0.0888889 8.96785 -0.551079 1.01738 -0.00256586 0.0953149 -0.995444
-16.9635 -5.543 7.033 -0.11205 -0.218411 0.573641 -0.0888889 9.00761 -0.596404 0.444817 0.878562 -0.357826 0.316369
-5.3985 -8.935 10.466 -0.507123 0.0258456 -0.0242467 -0.777778 9.02538 0.563827 2.6409 0.0789629 -0.355943 -0.931166
-20.6695 -7.0855 15.0363 0.123762 -0.106783 -0.585066 -0.0157454 9.0504 -0.757273 5.77334 0.67072 -0.488536 -0.558093
-18.0872 -12.0767 9.72775 0.317003 -0.104102 0 -1 9.09538 0.721577 4.57272 -0.144112 0.253934 -0.956425
-17.37 -6.47 7.5005 -0.192306 -0.205121 -0.747237 -0.695038 9.10345 0.15415 0.0766064 0.832502 -0.537503 0.13428
-13.9121 -14.6616 10.49 -0.52379 -0.0573029 0 -0.777778 9.12539 0.655903 3.98653 0.279298 -0.289262 -0.915598
-11.1761 -5.69637 5.8395 0.153615 -0.191486 -0.385073 -0.155556 9.13193 -0.384973 1.27053 -0.38488 -0.784112 0.486863
-20.1265 -9.2905 16.176 0.276374 -0.130125 -0.870462 -0.262424 9.17756 -0.889417 5.27122 0.611254 0.245662 -0.752342
-8.68256 -6.43162 6.51638 -0.0343693 -0.201634 0 -0.155556 9.21099 0.146625 1.9427 -0.0584446 -0.72846 0.682591
-15.9136 -1.95187 7.181 -0.292536 0.109734 0 -0.0888889 9.22028 -0.591677 1.01738 0.618773 0.102756 -0.77882
-6.13312 -5.95138 12.5459 -0.331803 0.229613 0 -0.777778 9.26229 0.194915 2.25473 0.612155 0.790273 0.0270841
-17.3151 -13.7944 9.69925 0.0670877 -0.0755247 0 -1 9.3701 0.114218 4.57272 0.128148 0.0611198 -0.98987
-13.5205 -4.28575 6.30813 -0.0468763 -0.265375 0.712136 -0.0888889 9.38729 0.810863 1.27053 -0.0219807 -0.0487423 0.998569
-5.0105 -7.93713 10.1431 -0.610397 0.0609277 -0.265368 -0.777778 9.39466 0.819817 2.6409 0.313492 -0.138305 -0.939465
-15.3027 -14.1698 10.387 -0.152064 -0.063823 -0.207425 -0.777778 9.40041 -0.550768 4.34151 0.210353 -0.150234 -0.966013
-9.321 -14.4572 13.7595 -0.0576607 -0.0967422 0 -1 9.45812 -0.185821 3.98653 -0.0346642 0.281962 -0.958799
-5.16437 -11.2731 12.8599 -0.11533 0.0850852 -0.622713 -0.820324 9.46715 0.254253 3.70983 0.572192 -0.61838 -0.538705
-21.4137 -11.8073 13.9376 0.0435247 0.113592 -0.314608 -1 9.56315 -0.144449 4.95008 -0.545339 0.442209 -0.712079
-5.416 -6.9125 10.082 -0.620177 0.112377 -0.0815572 -0.777778 9.62075 0.999904 2.6409 0.141799 0.437045 -0.888192
-12.6915 -2.2385 7.26463 0.0331868 0.0926304 0.0298436 -0.0888889 9.63739 0.230133 1.01738 0.235183 0.158478 -0.958944
-18.3202 -13.137 9.70988 0.36375 -0.0642778 0 -1 9.6794 0.60542 4.57272 -0.0848291 0.0187486 -0.996219
-21.5238 -10.0594 14.7436 0.0140825 -0.0839508 0 -0.302471 9.69005 -0.347971 5.27122 0.230592 0.180458 -0.95617
-5.92256 -12.6699 12.8638 0.204103 0.0805259 0 -1 9.7145 0.222485 3.70983 0.345216 0.0905652 -0.934144
-4.81225 -10.0763 11.088 -0.543703 0.0385156 -0.0406313 -0.777778 9.76595 0.999882 3.70983 0.171168 -0.65328 -0.737514
-13.5662 -1.33525 7.15225 -0.2458 0.0678065 0 -0.0888889 9.76929 0.857317 1.01738 -0.012148 0.0802792 -0.996698
-5.00675 -6.24775 11.2708 -0.844943 0.188074 0 -0.777778 9.77644 0.999873 2.6409 0.509801 0.844232 -0.165457
-21.936 -7.92137 12.5278 0.265757 -0.157507 0 -1 9.8089 -0.340597 6.25173 0.511917 -0.808369 0.290657
-9.58838 -7.17572 5.35656 -0.0720867 -0.177475 0 -0.155556 9.8311 0.200363 1.9427 -0.517527 -0.689232 0.507076
-11.3306 -3.17412 7.44688 0.137136 0.142288 0.103752 -0.0888889 9.84748 -0.73938 1.01738 0.104171 0.534159 -0.838941
-10.6545 -6.58 5.099 -0.231375 -0.169694 -0.785561 -0.155556 9.87912 0.0986189 1.9427 -0.376602 -0.822101 0.426991
-11.6453 -4.60388 4.67525 -0.111387 -0.18784 -0.441202 -0.155556 9.90807 -0.624341 1.27053 -0.344569 0.936217 -0.0690706
-21.5989 -7.74388 13.9134 0.105045 -0.120022 -0.0787328 -0.922018 9.91299 -0.280303 6.25173 0.659801 -0.707421 -0.253412
-11.422 -3.9135 6.5525 0.0452527 0.186075 0.661268 -0.122222 9.91805 -0.403491 1.01738 -0.16872 0.857403 -0.486204
-7.252 -3.699 7.61825 -0.162745 0.174943 0 -0.11447 9.92512 -0.443783 1.9427 0.898046 -0.309276 0.312827
-7.5365 -5.956 7.0925 -0.117358 -0.19648 0 -0.155556 9.97343 0.628585 1.9427 0.323885 -0.657443 0.680343
-18.4643 -7.255 7.23925 -0.370103 -0.169276 -0.530836 -0.632871 10.0064 -0.443081 0.0766064 0.51067 -0.841295 0.17731
-8.0345 -3.90162 13.0639 -0.34589 0.219337 0 -0.403296 10.0163 -0.999898 2.25473 0.984298 0.122821 -0.126778
-12.6186 -4.56244 4.20325 -0.116365 -0.195955 0 -0.288889 10.0243 -0.571016 1.27053 0.34752 0.929517 0.123401
-15.8263 -4.70075 6.05 -0.0799593 -0.229666 0 -0.288889 10.0426 -0.469468 1.01738 0.445854 -0.386268 0.807472
-21.2502 -8.50362 14.8431 -0.296657 -0.103062 -0.838733 -0.177778 10.0621 -0.200459 5.77334 0.671974 -0.133546 -0.728434
-7.55944 -13.8655 13.1842 0.266273 -0.0803456 0 -1 10.0795 0.409996 3.70983 -0.389567 0.13203 -0.911485
-16.5045 -2.70075 6.00325 -0.242911 0.161216 0 -0.0888889 10.093 -0.280207 1.01738 0.742702 0.574164 -0.344571
-21.164 -12.614 12.603 0.138973 0.119494 0 -1 10.0953 0.670374 4.95008 -0.847744 0.221375 -0.481999
-14.386 -5.0025 5.6365 0.057943 -0.229999 0 -0.288889 10.1278 -0.0728844 1.27053 0.0248452 -0.484975 0.874175
-19.4224 -12.7526 9.99325 0.243005 -0.106722 0 -1 10.1565 0.845049 4.57272 -0.537361 0.287897 -0.79269
-16.2515 -14.8927 10.0135 0.14685 -0.0887663 0 -1 10.1623 -0.222322 4.34151 0.41567 0.0408365 -0.908598
-12.4464 -16.3261 12.8144 -0.071511 -0.0314636 0 -0.377196 10.2381 -0.513734 3.98653 -0.0102562 -0.234887 -0.971969
-20.1845 -8.6605 9.077 0.175931 -0.174128 0 -1 10.2442 0.901947 6.25173 0.476436 -0.824735 0.304665
-12.2754 -6.3125 4.96178 0.037571 -0.206032 -0.160366 -0.263116 10.2507 0.0607669 1.27053 -0.0471689 -0.667561 0.743059
-8.4545 -7.223 5.8615 -0.036253 -0.203322 0 -0.155556 10.2632 0.169479 1.9427 0.0630318 -0.565168 0.822565
-14.434 -3.972 5.968 -0.105477 -0.247299 0 -0.288889 10.2643 0.249956 1.01738 0.435753 0.731254 0.524773
-13.759 -3.865 4.518 -0.180889 -0.199647 0 -0.288889 10.2811 0.457533 1.27053 0.378846 0.906421 0.186753
-4.20625 -10.4231 11.9146 -0.654493 0.086547 -0.1982 -0.777778 10.288 0.790879 3.70983 0.539401 -0.735785 -0.409471
-13.8022 -6.02612 5.05288 -0.0323285 -0.224627 0 -0.288889 10.3008 -0.344842 1.27053 -0.0436382 -0.470329 0.881412
-15.452 -0.5805 7.51525 -0.61469 0.067895 -0.0869372 -0.423624 10.3048 -0.759473 1.01738 0.465199 -0.210351 -0.859851
-5.6815 -6.7075 13.118 -0.419483 0.229369 0 -0.777778 10.3125 -0.556046 2.25473 0.7286 0.643848 0.233669
-13.3985 -16.0914 12.4439 -0.165299 0.058007 -0.416346 -0.701951 10.3224 -0.33361 3.98653 0.338644 -0.620605 -0.707227
-16.6407 -1.46219 6.47369 -0.342837 -0.0926057 0 -0.0888889 10.3467 -0.446977 1.01738 0.652655 -0.0343063 -0.756878
-21.3273 -8.8025 9.55481 0.264206 -0.13902 0 -1 10.3474 -0.0240967 6.25173 0.2227 -0.958482 0.178095
-21.7401 -8.90375 10.7118 0.347503 -0.140962 0 -1 10.3885 0.945378 6.25173 0.36967 -0.912761 0.173817
-6.9755 -2.03525 11.1763 -0.53962 0.169165 0 -0.0888889 10.3908 -0.424177 2.25473 0.903387 -0.378578 0.201422
-20.6022 -13.328 11.6995 0.196928 0.124418 0.638818 -1 10.4539 0.109021 4.95008 -0.936276 0.084451 -0.340963
-9.37206 -15.923 13.4043 -0.00471173 -0.100277 0 -0.155556 10.5732 -0.611472 3.98653 0.234563 0.378624 -0.895335
-17.048 -7.02975 6.08975 -0.476217 -0.191697 0 -0.777778 10.655 0.635334 0.0766064 0.706083 -0.625624 0.331724
3 112 167 162
3 112 86 100
3 46 86 71
3 112 71 86
3 121 112 162
3 195 194 121
3 121 183 113
3 102 66 122
3 113 122 66
3 69 66 102
3 69 102 96
3 140 102 171
3 199 140 171
3 178 153 127
3 120 116 76
3 116 82 76
3 76 82 53
3 82 116 123
3 143 175 118
3 118 175 138
3 78 100 57
3 57 23 29
3 41 23 46
3 46 71 41
3 46 23 61
3 23 41 30
3 69 30 41
3 7 23 30
3 28 39 47
3 96 128 87
3 142 184 165
3 83 51 54
3 31 24 10
3 51 76 31
3 8 3 10
3 10 15 8
3 30 9 7
3 7 9 0
3 0 9 2
3 47 35 28
3 47 84 35
3 95 65 60
3 94 165 163
3 163 185 144
3 131 127 83
3 147 156 110
3 81 147 110
3 108 81 70
3 70 81 45
3 54 50 81
3 50 45 81
3 10 11 25
3 45 25 52
3 11 1 6
3 1 3 0
3 4 0 2
3 2 5 4
3 5 2 9
3 17 5 16
3 9 16 5
3 5 17 14
3 37 36 64
3 40 17 34
3 65 80 40
3 109 65 94
3 109 94 170
3 170 94 144
3 134 109 170
3 181 108 150
3 108 88 141
3 26 43 44
3 43 85 72
3 43 72 44
3 44 72 77
3 176 151 124
3 75 42 59
3 20 42 43
3 20 6 12
3 19 4 18
3 37 63 59
3 63 64 114
3 114 91 63
3 58 36 80
3 58 64 36
3 80 36 40
3 91 149 137
3 161 114 146
3 77 99 68
3 68 99 52
3 119 77 104
3 105 188 152
3 115 188 105
3 158 176 105
3 59 107 115
3 107 59 91
3 91 59 63
3 115 107 159
3 107 137 159
3 182 192 119
3 126 155 164
3 164 168 126
3 177 193 145
3 38 32 49
3 127 153 120
3 113 183 122
3 153 116 120
3 116 153 157
3 123 116 157
3 123 157 175
3 118 138 100
3 100 138 167
3 100 167 112
3 167 138 175
3 86 57 100
3 61 57 86
3 61 86 46
3 121 71 112
3 113 71 121
3 136 96 140
3 136 140 199
3 140 96 102
3 83 127 76
3 76 127 120
3 31 76 53
3 24 31 53
3 24 53 49
3 24 49 32
3 79 53 82
3 53 79 49
3 143 106 123
3 106 143 93
3 123 106 82
3 82 106 79
3 79 106 93
3 79 93 49
3 98 56 93
3 56 98 78
3 78 98 118
3 143 118 93
3 93 56 49
3 93 118 98
3 100 78 118
3 29 15 48
3 57 29 48
3 57 48 78
3 78 48 56
3 56 48 38
3 38 48 15
3 38 15 32
3 8 15 13
3 7 13 23
3 29 23 13
3 29 13 15
3 55 30 69
3 39 22 30
3 22 39 28
3 39 30 55
3 74 47 39
3 74 39 62
3 74 62 87
3 87 62 55
3 87 55 96
3 55 62 39
3 69 96 55
3 90 74 130
3 87 130 74
3 179 186 174
3 174 186 130
3 174 130 128
3 128 130 87
3 47 74 90
3 47 90 84
3 148 186 179
3 111 60 84
3 111 148 179
3 184 111 189
3 189 111 179
3 142 111 184
3 31 54 51
3 3 8 13
3 3 13 7
3 0 3 7
3 28 16 9
3 28 9 22
3 22 9 30
3 35 16 28
3 95 111 142
3 111 95 60
3 65 95 94
3 94 95 142
3 94 142 165
3 147 81 108
3 27 45 50
3 27 31 10
3 31 27 50
3 31 50 54
3 25 45 27
3 25 27 10
3 21 52 25
3 21 25 11
3 26 21 6
3 6 21 11
3 4 12 1
3 1 12 6
3 1 0 4
3 5 14 4
3 18 36 37
3 36 14 40
3 14 36 18
3 14 18 4
3 80 65 109
3 163 144 94
3 132 80 134
3 134 80 109
3 92 132 133
3 146 114 89
3 146 89 125
3 125 89 92
3 125 92 133
3 150 108 141
3 104 77 72
3 129 72 103
3 129 103 151
3 151 103 124
3 124 103 85
3 72 85 103
3 97 124 85
3 176 124 97
3 67 97 85
3 67 85 43
3 75 73 42
3 43 42 67
3 67 42 73
3 67 73 97
3 33 59 42
3 12 33 42
3 12 42 20
3 4 19 12
3 19 18 37
3 89 58 92
3 58 89 64
3 64 89 114
3 80 132 92
3 80 92 58
3 119 141 99
3 77 119 99
3 151 198 129
3 115 105 75
3 115 75 59
3 158 105 152
3 73 75 105
3 97 73 105
3 176 97 105
3 19 37 33
3 59 33 37
3 12 19 33
3 145 190 135
3 111 186 148
3 126 84 117
3 126 117 155
3 126 111 84
3 111 126 168
3 111 168 166
3 166 173 111
3 111 173 187
3 186 111 187
3 130 145 90
3 90 145 135
3 177 145 130
3 177 130 186
3 90 135 117
3 90 117 84
3 49 56 38
3 162 195 121
3 121 194 183
3 122 171 102
3 123 175 143
3 61 23 57
3 69 41 66
3 113 66 71
3 71 66 41
3 96 136 128
3 127 197 178
3 76 51 83
3 24 32 15
3 24 15 10
3 127 131 180
3 139 110 156
3 139 156 180
3 139 180 131
3 54 81 101
3 54 101 83
3 83 101 131
3 131 101 139
3 139 101 110
3 81 110 101
3 10 3 11
3 1 11 3
3 35 60 34
3 35 34 16
3 16 34 17
3 17 40 14
3 35 84 60
3 60 65 34
3 40 34 65
3 147 108 181
3 70 88 108
3 88 70 52
3 70 45 52
3 21 26 52
3 6 20 26
3 26 20 43
3 64 63 37
3 161 154 114
3 154 149 91
3 114 154 91
3 52 99 88
3 88 99 141
3 77 68 44
3 68 52 44
3 44 52 26
3 72 129 104
3 137 107 91
3 115 159 188
3 117 160 155
3 117 135 160
