ply
format ascii 1.0
comment Generated by PyMesh
element vertex 200
property float x
property float y
property float z
property float charge
property float ddc
property float hbond
property float hphob
property float rho
property float si
property float theta
property float nx
property float ny
property float nz
element face 338
property list uchar int vertex_indices
end_header
-21.2502 -8.50362 14.8431 -0.296657 0 -0.838733 -0.177778 1e-08 -0.200459 2.22045e-16 0.671974 -0.133546 -0.728434
-21.5989 -7.74388 13.9134 0.105045 -0.592863 -0.0787328 -0.922018 1.25026 -0.280303 3.79849 0.659801 -0.707421 -0.253412
-22.3465 -8.49375 14.0885 -0.068124 -0.218919 0 -0.177778 1.33094 -0.569041 2.9211 0.588423 -0.468957 -0.658663
-20.4977 -9.66825 15.1231 0.138002 -0.583811 -0.771219 -0.31148 1.41457 0.0933316 0.725901 0.461489 0.593141 -0.659705
-20.6695 -7.0855 15.0363 0.123762 -0.246144 -0.585066 -0.0157454 1.54454 -0.757273 4.85444 0.67072 -0.488536 -0.558093
-21.5238 -10.0594 14.7436 0.0140825 -0.340866 0 -0.302471 1.58279 -0.347971 1.47019 0.230592 0.180458 -0.95617
-20.0229 -7.55125 15.8363 0.178879 -0.10099 -0.317033 0.147612 1.84383 -0.207275 5.37486 0.562908 -0.387783 -0.729903
-20.1265 -9.2905 16.176 0.276374 -0.243225 -0.870462 -0.262424 1.91272 -0.889417 2.22045e-16 0.611254 0.245662 -0.752342
-23.149 -9.1075 13.7925 0.056889 0.327081 0 -0.177778 2.3837 0.219697 2.63592 -0.118113 -0.489313 -0.864073
-20.4439 -10.5723 14.3776 0.139374 -0.515642 0 -1 2.58759 0.0620823 0.962358 -0.1757 0.687899 -0.704219
-20.324 -6.3865 14.3372 0.221022 -0.328986 0 1 2.59178 -0.999791 4.74559 0.499942 -0.811387 -0.302835
-21.936 -7.92137 12.5278 0.265757 -0.49981 0 -1 2.68728 -0.340597 3.71429 0.511917 -0.808369 0.290657
-19.324 -10.4045 14.811 0.166069 -0.496895 0 -1 2.8348 -0.157377 0.522756 0.125617 0.949726 -0.286775
-19.545 -7.992 16.6395 0.294261 -0.131981 -0.347605 0.404067 2.87717 -0.999927 5.59625 0.269309 -0.335886 -0.902581
-19.343 -10.0887 16.0842 0.0367197 -0.390983 0 -0.959427 2.97465 -0.999899 0.170858 0.269278 0.796883 -0.540802
-23.2985 -8.6565 12.6355 0.145161 0.437821 0 -1 3.07564 0.171649 3.12555 -0.149108 -0.988821 -0.000164651
-22.4034 -11.3806 14.4312 -0.278896 0.281797 -0.752668 -1 3.20046 0.124264 1.73378 -0.279148 -0.00970253 -0.960199
-18.7805 -6.90188 15.6709 0.205645 -0.224265 0 1 3.25543 -0.444014 5.37491 0.146899 -0.741063 -0.655169
-18.8542 -9.37125 16.6077 0.147958 -0.273519 0 -0.866667 3.25869 -0.774815 6.10352 -0.0286449 0.379911 -0.924579
-20.79 -7.24388 12.0931 0.140248 -0.391773 0 -0.610956 3.30399 -0.22274 4.15277 0.580424 -0.770568 0.263312
-23.98 -8.416 14.069 0.0383617 0.504201 0 -0.177778 3.49958 -0.0189584 2.7607 -0.801276 -0.42702 -0.419059
-21.4137 -11.8073 13.9376 0.0435247 -0.376376 -0.314608 -1 3.51071 -0.144449 1.36552 -0.545339 0.442209 -0.712079
-20.5223 -11.3789 13.7464 0.202422 -0.447838 0 -1 3.6148 -0.702519 1.09021 -0.520897 0.660354 -0.540924
-24.1569 -9.28213 14.6067 0.0760867 0.40446 0 -0.177778 3.69109 0.0777232 2.49436 -0.65629 -0.196043 -0.728595
-23.42 -10.2725 14.429 0.0938083 0.365785 0 -0.177778 3.73862 0.153012 2.24195 -0.470196 -0.275288 -0.83853
-20.213 -6.25775 13.0215 0.18907 -0.41884 0 -0.80846 3.91842 -0.856385 4.58786 0.370986 -0.88433 0.283425
-18.3009 -10.4878 14.4353 0.217073 -0.429625 0 -1 3.92788 -0.36447 0.348229 -0.351694 0.898683 -0.262068
-18.4521 -10.3144 15.4754 0.193447 -0.41797 0 -0.944124 3.93469 -0.902786 0.210124 -0.275903 0.864479 -0.420183
-19.2892 -10.6217 13.267 0.17298 -0.469057 0 -1 4.19047 0.330198 0.758684 -0.334676 0.910521 -0.242781
-18.6523 -6.01937 14.132 0.176105 -0.2994 0 0.0998822 4.31558 -0.501133 5.03777 0.0278223 -0.975824 -0.216778
-22.8943 -9.02575 11.4333 0.362197 -0.361043 0 -1 4.39663 0.631109 3.40319 0.150304 -0.942415 0.298769
-17.911 -6.2715 15.196 0.204766 -0.28268 0 1 4.42971 -0.999889 5.40178 -0.413333 -0.739608 -0.531165
-23.7349 -11.4009 14.8865 0.126947 0.212302 0.0924512 -0.301224 4.60779 -0.348377 2.00122 -0.20439 -0.0241314 -0.978592
-17.8437 -7.97316 16.2629 0.254598 -0.265628 0 0.717809 4.61975 -0.731524 5.79002 -0.424628 -0.21275 -0.880016
-24.2743 -7.45813 13.5571 0.058323 0.479837 0 -1 4.62482 0.0498146 2.8977 -0.927345 -0.362319 -0.0935721
-22.7603 -12.7945 14.5735 -0.147878 0.22211 -0.0295089 -1 4.66563 -0.0751467 1.71087 -0.444675 -0.157526 -0.881731
-24.5421 -7.63413 14.8821 -0.0393823 0.443466 0 -0.177778 4.7599 -0.270768 2.70119 -0.897409 -0.127787 -0.422288
-24.362 -7.525 11.982 0.235323 0.411803 0 -1 4.76039 0.0892188 3.10262 -0.886754 -0.400919 0.230069
-21.7401 -8.90375 10.7118 0.347503 -0.290085 0 -1 4.76123 0.945378 3.67905 0.36967 -0.912761 0.173817
-21.7095 -13.0495 13.7542 0.152812 0.25882 0 -1 4.80075 0.262136 1.48063 -0.650328 -0.14921 -0.744856
-25.0569 -9.07125 15.4163 0.127213 0.29884 0 -0.177778 4.91988 -0.140422 2.46245 -0.546323 0.134883 -0.826643
-19.261 -6.84125 11.6965 -0.243992 -0.3256 0 -0.0888889 4.93409 0.277998 4.37409 0.368084 -0.864345 0.342669
-20.3315 -7.74131 10.5953 0.199796 -0.292546 0.0211574 -0.577367 4.94748 -0.0744587 4.07093 0.524645 -0.768145 0.367016
-19.1028 -6.053 12.8455 0.0926913 -0.35465 -0.218172 -0.149494 5.06098 -0.584342 4.77447 0.136644 -0.958058 0.251901
-24.6903 -10.3582 15.2692 0.354657 0.239486 0 -0.177778 5.06272 -0.506523 2.28468 -0.331744 0.0426787 -0.942404
-21.164 -12.614 12.603 0.138973 -0.322424 0 -1 5.09004 0.670374 1.26037 -0.847744 0.221375 -0.481999
-24.2651 -8.96638 10.8674 0.19289 0.329861 0 -1 5.1144 0.768214 3.30509 -0.64891 -0.734414 0.198877
-17.4824 -9.63325 15.3156 0.240497 -0.383023 0 -0.866667 5.13044 -0.876771 6.27264 -0.740196 0.487666 -0.462917
-20.0719 -11.826 12.3647 0.259031 -0.353629 0 -1 5.13528 0.068851 1.0171 -0.660231 0.616466 -0.429027
-23.8135 -12.9655 14.8745 0.151873 0.118681 0.27264 -0.393071 5.36767 -0.0725685 1.85113 -0.0165388 -0.164178 -0.986292
-17.0825 -7.7875 15.585 0.30018 -0.332476 0 -0.191002 5.65582 -0.858649 5.86926 -0.834138 -0.0571497 -0.548587
-21.0245 -13.6438 12.84 0.182942 0.27376 0 -1 5.68533 0.235309 1.42492 -0.882519 -0.299105 -0.362899
-23.4648 -9.215 10.282 0.315044 -0.250372 0 -1 5.69539 0.839958 3.3996 -0.116334 -0.992464 -0.0384874
-18.04 -10.3495 12.4425 0.180204 -0.308589 0 -1 5.71178 0.790245 0.629489 -0.0188837 0.93446 -0.355567
-24.4695 -6.49 14.027 -0.0499607 0.432507 0 -1 5.71852 -0.664869 2.83017 -0.972331 -0.202944 -0.1157
-16.9587 -9.418 13.788 0.235878 -0.318277 0 -0.866667 5.76227 0.382773 0.0361535 -0.698075 0.434666 -0.568996
-24.6031 -6.60281 12.3184 0.157184 0.390322 0 -1 5.7712 0.0425916 3.02391 -0.963841 -0.218366 0.152733
-16.8458 -10.3915 13.2823 0.230086 -0.244389 0 -0.901769 5.78691 -0.277064 0.305159 -0.0914488 0.806767 -0.58375
-22.695 -13.8725 14.969 0.0611497 0.169753 0 -0.440453 5.81575 -0.541795 1.67747 -0.371655 -0.333765 -0.866299
-18.9442 -11.0352 11.6637 0.331355 -0.315388 0 -1 5.88179 0.380992 0.787874 -0.371316 0.846535 -0.381449
-24.8075 -12.0948 14.653 0.300281 0.125512 0.715205 -0.177778 5.90644 0.221262 2.00745 0.152374 0.243081 -0.957963
-24.6623 -7.54462 10.8359 0.407607 0.333187 0 -1 5.94535 0.314172 3.19678 -0.941904 -0.298514 0.153971
-21.3273 -8.8025 9.55481 0.264206 -0.240451 0 -1 5.99382 -0.0240967 3.81421 0.2227 -0.958482 0.178095
-18.333 -6.3345 12.108 0.091576 -0.299968 -0.120039 -0.0912609 6.01001 0.282037 4.77447 0.250826 -0.908366 0.3346
-17.0045 -6.579 13.7055 0.209189 -0.239484 0.0484967 -0.177778 6.10732 0.0532711 5.40178 -0.372483 -0.798344 -0.473185
-19.3347 -7.254 9.89163 0.152654 -0.231018 0.287924 -0.63516 6.26134 -0.651943 4.07093 0.48933 -0.816662 0.305973
-20.9441 -14.2774 14.1104 0.392027 0.220991 0 -1 6.29087 -0.459495 1.42492 -0.656228 -0.535194 -0.531913
-25.9482 -10.5319 15.2934 0.119435 0.180515 0 -0.177778 6.33278 -0.207479 2.28468 -0.0906333 0.436551 -0.895103
-20.6022 -13.328 11.6995 0.196928 -0.275303 0.638818 -1 6.37134 0.109021 1.42492 -0.936276 0.084451 -0.340963
-25.071 -6.36575 15.7308 -0.2382 0.362927 -0.294658 -1 6.37508 -0.033256 2.70119 -0.961125 -0.0348825 -0.2739
-25.3223 -7.353 16.2712 -0.112491 0.317259 -0.533627 -0.177778 6.37772 -0.351625 2.70119 -0.751181 0.277511 -0.598928
-24.3194 -8.68213 9.49525 0.312904 0.24873 0 -1 6.51673 0.446673 3.3996 -0.684471 -0.726125 -0.0651303
-16.891 -8.604 14.5685 0.296941 -0.37303 0 -0.866667 6.53303 -0.637084 0.0361535 -0.911108 0.276913 -0.30529
-16.9878 -6.00616 12.5084 0.16828 -0.196921 0 -0.177778 6.64083 -0.268516 4.77447 0.0390774 -0.970228 -0.23902
-16.4895 -7.686 14.14 0.249945 -0.253687 0 -0.866667 6.69612 0.0837004 5.86926 -0.666855 -0.076441 -0.741257
-20.1845 -8.6605 9.077 0.175931 -0.215408 0 -1 6.72842 0.901947 3.81421 0.476436 -0.824735 0.304665
-24.2787 -14.2273 15.3814 0.0961013 0.128445 -0.0270824 -0.164799 6.80485 0.0609397 1.85113 -0.187205 -0.581612 -0.791632
-17.2897 -10.9758 11.8864 0.274118 -0.215403 0 -1 6.83626 0.0577259 0.629489 0.307248 0.871201 -0.382894
-24.6496 -5.57312 13.2814 0.0897943 0.351276 0 -1 6.91394 -0.357939 2.83017 -0.915522 -0.399765 -0.0448003
-23.27 -9.02525 9.075 0.108075 -0.19801 0 -1 6.93265 0.324712 3.3996 -0.0507863 -0.993967 -0.0972104
-26.873 -9.08488 16.3076 -0.24996 0.222684 -0.251729 -0.177778 6.94296 0.346423 2.46245 -0.542181 0.464401 -0.700266
-17.8043 -6.68175 10.2825 0.213745 -0.197589 0 -0.0888889 6.97046 0.461547 4.37409 0.530315 -0.818463 0.221099
-17.401 -6.03675 11.4762 0.108734 -0.186995 0 -0.16549 6.97256 -0.137755 4.37409 0.51537 -0.855702 0.0465509
-24.8995 -7.225 9.8345 0.408823 0.280226 0.100114 -1 7.02295 0.252499 3.19678 -0.992452 -0.112955 0.0477527
-20.2013 -14.7099 12.4825 0.293527 -0.253547 0 -1 7.07889 -0.319494 1.42492 -0.897953 -0.43703 0.0518187
-24.994 -5.30963 14.6462 -0.180587 0.339017 -0.692479 -1 7.13964 -0.0334196 2.83017 -0.963333 -0.239604 -0.120742
-15.8385 -6.69825 13.663 0.586543 -0.172111 0.523724 -0.177778 7.28017 -0.999858 5.86926 -0.370887 -0.574621 -0.729557
-21.8455 -15.0938 14.9732 0.117286 0.140264 0 -0.155556 7.30345 -0.353536 1.67747 -0.359799 -0.248848 -0.899233
-25.0375 -6.1895 10.903 0.136225 0.296931 0 -1 7.30837 0.585142 3.19678 -0.998942 -0.0459705 0.00106772
-18.8921 -11.6245 10.3421 0.378147 -0.234149 0 -1 7.32976 0.788944 0.787874 -0.543557 0.608633 -0.578024
-25.6367 -13.6027 14.3519 0.60449 0.0690532 -0.0889253 -0.177778 7.36847 0.742521 2.00745 0.157091 -0.424198 -0.89184
-15.3629 -10.7626 12.8304 0.136983 -0.1913 -0.394883 -0.790553 7.38094 -0.999862 0.305159 -0.332311 0.671036 -0.662782
-15.4358 -9.10581 13.2952 0.96659 -0.182482 0 -0.866667 7.39307 -0.179197 0.0361535 -0.419749 0.28432 -0.861959
-20.2196 -13.3044 10.6401 0.211921 -0.223965 0.264241 -1 7.41162 0.53074 1.0171 -0.761396 0.321536 -0.56293
-26.1826 -11.346 14.5651 0.131163 0.135254 0 -0.177778 7.44998 0.334408 2.00745 0.187801 0.455244 -0.870336
-25.0672 -5.18225 15.6625 -0.299425 0.343635 -0.00553489 -1 7.56056 0.0624215 2.83017 -0.999723 0.0152582 -0.0179421
-20.1612 -15.324 14.3276 0.265798 0.179781 0.0100821 -0.594202 7.61582 -0.87813 1.42492 -0.659343 -0.395084 -0.639669
-21.5298 -9.17 7.988 0.0304505 -0.169219 0 -1 7.61585 0.691841 3.81421 0.129959 -0.990607 -0.042527
-16.3521 -11.4514 11.8585 -0.0251259 -0.198624 0 -0.892942 7.62928 -0.62583 0.305159 0.0602094 0.903033 -0.42533
-18.6239 -7.34106 8.705 0.0570087 -0.165653 0 -0.0888889 7.64731 0.0479925 4.07093 0.53879 -0.830792 0.139607
-25.3781 -5.99813 16.916 -0.0399433 0.285762 0 -0.420696 7.65342 -0.396948 2.70119 -0.837572 0.234685 -0.493352
-19.4224 -12.7526 9.99325 0.243005 -0.18042 0 -1 7.76287 0.845049 1.0171 -0.537361 0.287897 -0.79269
-15.4591 -7.77588 13.7755 0.861067 -0.183805 0.088854 -0.773651 7.79278 -0.734937 5.86926 -0.501152 0.0173468 -0.865186
-20.1338 -8.74375 7.88375 0.118923 -0.135526 0 -1 7.92564 0.766052 3.81421 0.446913 -0.885445 -0.127498
-24.5791 -8.30962 8.16063 0.4171 0.216077 0.110137 -1 7.92649 0.479351 3.3996 -0.825595 -0.561846 -0.052172
-24.9455 -4.472 12.149 0.089358 0.249022 0 -0.988469 7.93598 0.208074 3.02391 -0.869816 0.163171 -0.465613
-26.3605 -7.1855 17.4255 -0.144245 0.255039 -0.496914 -0.203284 7.93923 -0.0453567 2.70119 -0.79986 0.333164 -0.499225
-17.642 -11.1625 10.057 0.112985 -0.16483 0 -1 7.95385 0.999901 0.787874 0.0708431 0.739224 -0.669724
-20.7668 -14.7948 10.9923 0.247308 -0.229464 0.194633 -1 8.00802 0.816357 1.42492 -0.989371 -0.0093741 -0.14511
-27.7169 -10.416 15.7773 0.038209 0.213937 0 -0.177778 8.17014 0.246792 2.28468 -0.561029 0.661907 -0.497118
-23.3092 -8.954 7.83125 0.126326 -0.183891 0 -1 8.17905 0.406413 3.3996 -0.269986 -0.961625 -0.0488332
-23.6983 -15.4121 15.7929 0.0480037 0.145642 0 -0.155556 8.18686 0.0976707 1.85113 -0.505832 -0.346783 -0.789858
-27.6816 -9.48 17.2225 -0.016872 0.25172 0 -0.177778 8.22631 0.294381 2.46245 -0.839213 0.537233 -0.0842804
-27.0502 -8.16725 17.2865 -0.204241 0.25945 -0.581889 -0.177778 8.29636 0.633277 2.46245 -0.80342 0.523062 -0.28447
-25.159 -7.1915 8.578 0.205926 0.232066 0.769499 -1 8.3064 0.822644 3.19678 -0.99791 0.0161028 -0.0625766
-17.1159 -5.79738 9.5235 0.256873 -0.118858 0 -0.160835 8.32401 0.0971588 4.37409 0.853315 -0.519417 -0.0453887
-15.3011 -6.19775 12.604 0.50108 -0.139149 -0.194779 -0.177778 8.34107 -0.206937 4.77447 -0.272386 -0.641142 -0.717456
-25.4662 -4.19425 14.3174 0.0128769 0.277684 -0.170267 -0.905593 8.39469 -0.311806 2.83017 -0.738833 -0.651896 0.170754
-17.4675 -6.8385 8.893 0.0557223 -0.134259 0 -0.0888889 8.40877 0.738786 4.37409 0.745376 -0.6652 0.0438689
-18.0872 -12.0767 9.72775 0.317003 -0.123273 0 -1 8.43871 0.721577 0.787874 -0.144112 0.253934 -0.956425
-24.6723 -6.2505 8.82925 0.308316 0.248564 0.0893703 -1 8.44133 -0.429831 3.19678 -0.958404 0.28176 0.0455346
-22.1509 -16.184 15.2255 -0.135481 0.128241 -0.466169 -0.155556 8.46339 0.425204 1.67747 -0.4255 -0.171971 -0.888468
-14.5136 -10.6986 12.1084 0.0093171 -0.135953 -0.611101 -0.794638 8.49749 0.104646 0.305159 -0.118791 0.560971 -0.819268
-25.1311 -14.8569 16.837 -0.00252388 0.158382 -0.589244 -0.170628 8.60534 -0.311806 1.85113 -0.561717 -0.619481 -0.548377
-24.5348 -5.35962 9.98388 0.164762 0.261602 0 -1 8.64485 0.131616 3.19678 -0.895138 0.434021 -0.101751
-24.8498 -4.58025 16.602 -0.132577 0.298365 0 -1 8.69736 -0.999891 2.83017 -0.979338 -0.130903 -0.154149
-15.803 -4.925 11.1187 -0.006921 -0.0854712 -0.811647 -0.177778 8.76308 -0.25577 4.37409 0.354256 -0.763653 -0.539757
-27.443 -11.1007 14.2665 0.0553523 0.159679 0 -0.177778 8.76829 0.999909 2.00745 -0.248144 0.492462 -0.83421
-14.5334 -8.09988 12.9789 1 -0.141514 0 -0.866667 8.78097 0.0769332 0.0361535 -0.416646 -0.127902 -0.900026
-19.252 -13.9431 9.88231 0.24191 -0.113245 0 -1 8.7967 0.0174677 1.0171 -0.230642 0.0821338 -0.969566
-21.3472 -8.6665 6.9135 -0.0288818 -0.118562 0 -1 8.81643 -0.410649 3.81421 0.279968 -0.926246 -0.252362
-26.8141 -14.1469 15.035 -0.246588 0.126645 -0.846017 -0.177778 8.83443 0.790738 2.00745 -0.226286 -0.79144 -0.567819
-15.234 -11.3053 11.3237 -0.52401 -0.178612 -0.342352 -0.777778 8.87728 0.190645 0.305159 -0.100538 0.894178 -0.436278
-25.2713 -3.80669 15.5155 -0.00328846 0.277109 0 -0.963744 8.89788 -0.660675 2.83017 -0.774085 -0.592939 0.221848
-19.3857 -16.0071 13.5597 0.134442 -0.193562 0.116609 -0.830473 8.90333 -0.717768 1.42492 -0.890953 -0.26768 -0.36681
-16.3331 -11.9799 10.336 0.035176 -0.119031 -0.599444 -0.798871 8.91641 0.0823546 0.629489 0.25465 0.623967 -0.738795
-20.5179 -15.9096 11.1258 0.35212 -0.203746 0 -1 8.91741 0.860416 1.42492 -0.938621 -0.344245 -0.0220189
-24.6915 -7.5625 7.4935 0.248663 0.206112 0.322389 -1 8.9344 -0.0937854 3.19678 -0.984202 -0.106551 -0.141396
-27.2073 -12.3658 14.2268 0.0340617 0.115877 0 -0.177778 8.93472 0.656503 2.00745 -0.247566 -0.171873 -0.953505
-18.3202 -13.137 9.70988 0.36375 -0.0953199 0 -1 8.96408 0.60542 0.787874 -0.0848291 0.0187486 -0.996219
-26.0491 -4.00919 13.2559 0.1678 0.204291 0.254854 -0.829949 9.01278 0.326268 2.83017 -0.679656 -0.636671 -0.364305
-23.995 -3.911 12.06 0.104104 0.198099 0 -1 9.04327 -0.604812 3.02391 -0.406309 0.484181 -0.774908
-20.6803 -16.614 14.708 0.450913 -0.127602 0.0118448 -0.155556 9.05744 -0.0415301 1.67747 -0.473438 -0.201414 -0.85749
-18.4643 -7.255 7.23925 -0.370103 -0.141673 -0.530836 -0.632871 9.12423 -0.443081 4.07093 0.51067 -0.841295 0.17731
-26.7423 -8.0535 18.2563 -0.258019 0.278836 0 -0.177778 9.19996 -0.246819 2.46245 -0.961133 0.272729 0.042919
-26.7127 -6.13825 18.033 0.046367 0.233201 0 -0.355556 9.20012 0.633016 2.70119 -0.92016 0.108062 -0.376334
-19.3253 -16.6465 12.5305 0.13931 -0.205087 0 -1 9.20495 -0.2943 1.42492 -0.920531 -0.347953 0.177628
-25.3465 -4.50325 17.4735 0.07559 0.226976 0 -0.355556 9.24919 -0.595128 2.70119 -0.83856 -0.0972335 -0.536062
-19.9643 -14.9095 9.72375 0.159746 -0.138754 0 -1 9.27742 0.806655 1.0171 -0.551402 0.0766464 -0.830711
-13.842 -9.499 12.3448 0.385083 -0.0804321 0.846334 -0.866667 9.28993 0.583064 0.0361535 0.114291 0.198146 -0.973486
-25.378 -3.21106 12.4735 0.127782 0.108938 0 -0.821518 9.30796 -0.0415662 3.02391 -0.194296 -0.179996 -0.964288
-22.7266 -9.01175 6.79588 -0.199122 -0.151558 0 -1 9.31247 0.256502 3.81421 -0.0582471 -0.99656 -0.0589609
-16.623 -4.8675 9.69606 0.265922 -0.0826551 0.0800778 -0.132375 9.3905 -0.580168 4.37409 0.79169 -0.538524 -0.288476
-26.7301 -14.3379 16.3348 -0.300498 0.148075 -0.798241 -0.177778 9.43745 0.122828 1.85113 -0.224134 -0.942859 -0.246537
-24.7005 -6.20725 7.77287 0.262546 0.220177 0.0845715 -0.698524 9.49897 -0.223395 3.19678 -0.993191 -0.0561366 0.102083
-24.621 -8.069 6.5915 0.169666 -0.185652 0.651074 -1 9.51451 0.379095 3.3996 -0.816496 -0.575508 0.0461055
-17.0565 -12.6155 9.80875 0.217744 -0.0602114 0 -1 9.53993 0.619101 0.787874 0.274633 0.11672 -0.954439
-22.8726 -16.7812 15.842 -0.203905 0.132424 -0.523941 -0.155556 9.5848 0.298519 1.67747 -0.536079 -0.44307 -0.718546
-19.3284 -7.98259 6.64594 -0.32721 -0.129003 0.000629393 -0.778167 9.58703 -0.0266087 3.81421 0.400781 -0.916003 0.0177111
-25.93 -14.7115 17.6225 -0.0243793 0.133844 -0.81524 -0.177778 9.73511 -0.872975 1.85113 -0.337197 -0.789396 -0.512984
-17.0427 -5.50575 8.13175 0.139628 -0.105556 0.0189671 -0.0888889 9.74787 -0.731275 4.37409 0.914394 -0.404824 0.000975317
-28.612 -10.6962 17.5285 0.0490673 0.210845 -0.180453 -0.177778 9.78785 0.426431 2.46245 -0.829612 0.540805 -0.138833
-23.843 -4.437 9.9255 0.143258 0.27786 0 -0.677778 9.79951 -0.22975 3.19678 -0.820186 0.460213 0.33985
-17.37 -6.47 7.5005 -0.192306 -0.11969 -0.747237 -0.695038 9.8525 0.15415 4.37409 0.832502 -0.537503 0.13428
-24.4319 -4.8465 8.7625 0.221181 0.245942 0 -0.69704 9.86732 -0.261914 3.19678 -0.925946 0.155936 0.343958
-23.4335 -4.26737 10.9566 0.191643 0.274462 0 -0.630524 9.87243 -0.646653 3.02391 -0.706484 0.691227 -0.151939
-28.5869 -11.8099 15.1442 0.0197417 0.184838 0 -0.177778 9.93102 0.99985 2.00745 -0.844112 0.175393 -0.506668
-27.7686 -9.90925 18.9561 0.134143 0.225342 0.357384 -0.745949 10.0144 -0.114955 2.46245 -0.884117 0.464767 -0.048256
-14.9095 -11.794 10.3015 -0.38135 -0.105019 -0.0268627 -0.777778 10.0559 0.773584 0.305159 0.13334 0.56375 -0.815111
-13.3403 -7.75063 12.6695 0.488417 -0.0870136 0 -0.477887 10.0621 0.309244 0.0361535 -0.078355 -0.532924 -0.842527
-27.0502 -8.927 18.9067 0.068491 0.243432 -0.0515736 -0.592613 10.1081 -0.650387 2.46245 -0.843192 0.524165 -0.119495
-12.9963 -10.7945 12.6664 -0.0510023 -0.0779092 0.0462799 -0.793793 10.117 -0.562432 0.305159 0.319079 0.427744 -0.845709
-26.472 -4.66059 18.6796 0.200551 0.203946 0 -0.355556 10.1224 0.113477 2.70119 -0.875272 0.19433 -0.442871
-21.7003 -17.7903 15.2955 -0.273078 0.116698 -0.653385 -0.155556 10.1332 0.673085 1.67747 -0.338865 -0.766095 -0.54614
-17.3151 -13.7944 9.69925 0.0670877 -0.0656314 0 -1 10.1651 0.114218 0.787874 0.128148 0.0611198 -0.98987
-23.7764 -2.84488 12.409 0.0289287 0.152823 0 -0.494404 10.1862 -0.90501 3.02391 -0.396047 0.107518 -0.911914
-15.2399 -4.01038 10.1786 0.048477 -0.103923 0.0615469 -0.0972704 10.1905 -0.428873 4.37409 0.0501641 -0.892009 -0.449225
-27.1044 -3.502 13.4146 0.188455 0.169479 0.634199 -0.777778 10.1943 0.433604 2.83017 -0.421853 -0.882188 -0.209246
-20.8832 -8.26775 5.65475 -0.328951 -0.10708 -0.121059 -0.777778 10.216 -0.165529 3.81421 0.241635 -0.944963 -0.220583
-24.3081 -16.9456 17.0079 0.0212302 0.138006 0 -0.155556 10.2362 0.728925 1.85113 -0.668279 -0.464985 -0.580682
-14.4446 -4.32575 10.8495 -0.113263 -0.111346 -0.487567 -0.132564 10.272 -0.99988 4.37409 -0.216204 -0.790347 -0.573243
-19.8773 -15.9108 9.7025 0.197117 -0.125487 0 -1 10.2827 0.926023 1.42492 -0.574519 -0.335193 -0.746708
-15.6134 -13.1465 10.1267 -0.0775537 -0.0593419 -0.157177 -0.941284 10.303 0.300933 0.629489 0.135047 0.00100278 -0.990839
-24.7237 -6.64975 6.4585 0.206704 -0.194708 0.622314 -1 10.3148 -0.69256 3.19678 -0.96535 -0.20611 0.160054
-19.0355 -17.5035 11.8131 0.152427 -0.154301 0.125576 -1 10.3595 0.0304059 1.42492 -0.792987 -0.558629 -0.243117
-28.1464 -13.4074 15.1665 -0.0681823 0.153937 0 -0.177778 10.3639 0.878492 2.00745 -0.62013 -0.640603 -0.452844
-22.384 -8.9035 5.78675 0.110245 -0.120852 0.189878 -0.931638 10.3658 0.265778 3.81421 0.320707 -0.94714 -0.00852864
-19.7464 -17.0767 10.7243 0.504503 0.145282 0.826967 -1 10.3729 0.999866 1.42492 -0.631306 -0.724487 -0.276715
-22.8888 -3.4195 11.4747 0.183954 0.246552 0 -0.403064 10.3878 -0.999888 3.02391 -0.835758 0.35541 -0.41856
-28.8633 -11.8597 17.0815 -0.086151 0.187298 -0.00700699 -0.177778 10.4283 -0.355334 2.28468 -0.859523 0.388904 -0.331622
-26.8886 -5.983 19.2396 0.126252 0.218216 0 -0.355556 10.4293 0.345909 2.70119 -0.973094 0.0204961 -0.229493
-25.6378 -15.9764 18.1946 0.00492063 0.108168 -0.357057 -0.165787 10.4365 -0.598647 1.85113 -0.421475 -0.41964 -0.803904
-26.7205 -8.09869 19.5376 0.054108 0.224818 0 -1 10.4822 -0.999865 2.46245 -0.908031 0.274936 -0.316053
-25.8703 -3.0485 16.7773 0.054559 0.214782 0 -0.542731 10.4872 -0.423043 2.83017 -0.785778 -0.615975 -0.0559192
-13.6006 -5.50238 11.3686 0.099116 -0.122255 0 -0.0888889 10.555 -0.327554 4.77447 -0.430903 -0.636383 -0.639796
-27.7246 -13.8735 16.5856 -0.100864 0.16317 0 -0.177778 10.5633 0.133132 1.85113 -0.542237 -0.819914 -0.183632
-26.643 -6.971 19.17 0.0965097 0.235869 0 -0.355556 10.6112 -0.783997 2.46245 -0.981291 -0.0817124 -0.174332
-24.3805 -8.4235 5.5625 0.104751 -0.180195 0 -0.777778 10.6291 -0.0931875 3.3996 -0.746378 -0.578982 0.328176
-13.0511 -12.0589 11.1349 -0.266539 -0.0887535 0 -0.777778 10.7194 0.257586 0.305159 0.334992 0.609531 -0.718507
-20.121 -18.161 15.2113 0.20162 0.141608 -0.357758 -0.598756 10.7777 0.240349 1.67747 -0.555218 -0.796159 -0.24055
3 137 183 155
3 177 140 117
3 140 78 117
3 105 140 150
3 105 150 141
3 120 154 114
3 114 137 104
3 137 155 104
3 145 172 100
3 147 100 172
3 133 117 85
3 133 85 95
3 69 100 95
3 36 85 54
3 34 54 56
3 56 88 61
3 88 83 61
3 83 88 124
3 83 124 120
3 61 83 71
3 104 110 71
3 110 62 79
3 79 62 38
3 130 151 186
3 151 110 155
3 172 145 190
3 144 196 145
3 144 145 106
3 106 113 144
3 100 106 145
3 113 106 70
3 144 113 112
3 113 80 112
3 109 80 67
3 20 23 36
3 15 20 34
3 36 34 20
3 37 56 61
3 46 71 52
3 79 52 71
3 30 11 15
3 103 158 99
3 158 130 178
3 178 130 186
3 138 94 90
3 90 94 60
3 44 23 24
3 44 24 32
3 8 16 24
3 32 24 16
3 19 1 11
3 19 25 10
3 63 25 41
3 19 41 25
3 42 19 11
3 38 62 42
3 42 75 65
3 118 81 99
3 65 99 81
3 115 81 118
3 115 118 160
3 163 118 143
3 185 138 131
3 76 87 111
3 49 90 60
3 32 16 49
3 35 49 16
3 35 39 58
3 39 16 21
3 39 21 51
3 51 21 45
3 45 21 48
3 22 9 28
3 9 12 28
3 28 12 26
3 12 9 3
3 7 0 6
3 6 0 4
3 17 10 29
3 29 73 64
3 82 73 63
3 63 41 82
3 63 73 43
3 73 82 126
3 115 126 82
3 116 73 126
3 153 195 185
3 153 185 131
3 153 90 76
3 87 121 111
3 157 111 121
3 66 87 58
3 39 51 66
3 84 51 68
3 68 108 84
3 108 68 93
3 48 93 68
3 59 53 77
3 57 55 92
3 53 28 57
3 102 128 92
3 92 74 102
3 126 194 116
3 116 194 169
3 199 173 142
3 121 87 142
3 96 87 66
3 108 148 136
3 101 129 93
3 89 48 59
3 129 139 174
3 174 139 156
3 135 174 156
3 182 135 168
3 168 135 132
3 77 98 135
3 98 132 135
3 92 149 122
3 132 122 198
3 184 146 187
3 187 146 136
3 50 72 47
3 48 21 22
3 94 109 67
3 124 165 162
3 165 124 105
3 165 105 141
3 117 133 177
3 78 85 117
3 105 78 140
3 162 164 124
3 154 120 164
3 164 120 124
3 137 114 154
3 137 154 183
3 110 104 155
3 100 147 125
3 100 125 95
3 133 125 193
3 133 95 125
3 147 193 125
3 106 100 70
3 69 70 100
3 40 70 36
3 36 70 69
3 34 36 54
3 56 54 78
3 78 54 85
3 56 78 105
3 170 192 144
3 144 192 196
3 112 167 170
3 112 170 144
3 109 112 80
3 67 80 40
3 67 40 44
3 44 40 23
3 23 20 8
3 15 8 20
3 24 23 8
3 2 8 15
3 65 75 99
3 99 75 103
3 158 143 99
3 189 161 109
3 32 60 44
3 44 60 67
3 67 60 94
3 49 60 32
3 21 9 22
3 9 21 5
3 5 21 16
3 5 16 8
3 5 8 2
3 3 9 5
3 3 5 0
3 0 5 2
3 1 0 2
3 11 1 15
3 15 1 2
3 6 4 10
3 10 4 1
3 10 1 19
3 1 4 0
3 25 29 10
3 43 29 25
3 43 25 63
3 42 41 19
3 65 41 42
3 163 160 118
3 90 131 138
3 58 87 76
3 58 76 49
3 58 49 35
3 49 76 90
3 59 48 28
3 28 48 22
3 57 28 26
3 55 57 26
3 55 26 47
3 55 47 72
3 27 26 12
3 26 27 47
3 7 14 3
3 14 7 18
3 3 14 12
3 12 14 27
3 27 14 18
3 27 18 47
3 13 33 18
3 33 13 17
3 17 13 6
3 7 6 18
3 18 33 47
3 18 6 13
3 10 17 6
3 64 74 31
3 29 64 31
3 29 31 17
3 17 31 33
3 33 31 50
3 50 31 74
3 50 74 72
3 102 74 86
3 116 86 73
3 64 73 86
3 64 86 74
3 152 126 115
3 176 180 126
3 176 126 152
3 115 160 152
3 123 191 159
3 153 123 159
3 179 191 123
3 153 76 123
3 123 76 111
3 123 111 179
3 157 179 111
3 51 84 66
3 57 77 53
3 128 102 86
3 128 86 116
3 169 128 116
3 180 194 126
3 96 142 87
3 96 66 84
3 108 136 84
3 129 101 139
3 174 135 182
3 91 132 98
3 91 57 92
3 57 91 98
3 57 98 77
3 122 132 91
3 122 91 92
3 171 198 122
3 171 122 149
3 96 134 142
3 84 136 146
3 84 146 134
3 84 134 96
3 47 33 50
3 141 175 188
3 141 188 165
3 150 175 141
3 177 150 140
3 95 85 69
3 69 85 36
3 124 88 105
3 105 88 56
3 83 120 114
3 83 114 104
3 71 83 104
3 151 130 97
3 151 97 110
3 110 97 62
3 190 145 196
3 70 40 80
3 113 70 80
3 23 40 36
3 15 34 37
3 37 34 56
3 15 37 46
3 61 46 37
3 61 71 46
3 15 46 30
3 30 46 52
3 110 79 71
3 38 52 79
3 52 38 30
3 30 38 11
3 103 75 97
3 103 97 130
3 62 97 75
3 103 130 158
3 112 109 161
3 112 161 167
3 127 109 94
3 127 94 138
3 127 138 166
3 127 166 109
3 11 38 42
3 42 62 75
3 99 143 118
3 138 185 166
3 189 109 166
3 39 35 16
3 3 0 7
3 43 73 29
3 115 82 81
3 65 81 41
3 41 81 82
3 90 153 131
3 66 58 39
3 51 45 68
3 48 68 45
3 28 53 59
3 55 72 74
3 55 74 92
3 173 121 142
3 157 121 173
3 93 129 148
3 108 93 148
3 48 89 101
3 48 101 93
3 119 156 139
3 119 139 101
3 119 101 89
3 77 135 107
3 77 107 59
3 59 107 89
3 89 107 119
3 119 107 156
3 135 156 107
3 92 128 149
3 148 181 136
3 168 132 198
3 187 136 181
