ply
format ascii 1.0
comment Generated by PyMesh
element vertex 184
property float x
property float y
property float z
property float nx
property float ny
property float nz
element face 319
property list uchar int vertex_indices
end_header
-16.0744 -16.6863 9.843 0.565207 -0.335631 -0.753587
-17.0845 -17.4163 9.75125 0.00464454 -0.611645 -0.791119
-17.221 -15.7148 9.389 0.133318 0.00501467 -0.991061
-14.7806 -15.9108 10.7155 0.538949 -0.461817 -0.704457
-16.4518 -17.9608 11.0473 0.361538 -0.527696 -0.768653
-16.2515 -14.8927 10.0135 0.41567 0.0408365 -0.908598
-15.5204 -17.4001 11.7778 0.746641 -0.39578 -0.534683
-18.377 -16.4015 9.718 -0.184434 -0.220216 -0.957856
-18.6355 -17.4405 10.5407 -0.403905 -0.746356 -0.528973
-15.3027 -14.1698 10.387 0.210353 -0.150234 -0.966013
-17.9685 -18.186 11.2349 -0.42107 -0.684467 -0.595151
-15.7309 -18.8997 11.833 0.495304 0.103235 -0.862564
-16.6225 -19.2935 11.544 0.0681923 -0.229687 -0.970873
-13.9121 -14.6616 10.49 0.279298 -0.289262 -0.915598
-14.9967 -17.985 12.6185 0.551546 -0.00227116 -0.834141
-14.7751 -16.7673 12.45 0.518764 -0.437104 -0.734727
-17.3151 -13.7944 9.69925 0.128148 0.0611198 -0.98987
-15.6134 -13.1465 10.1267 0.135047 0.00100278 -0.990839
-17.6385 -19.39 11.624 -0.342342 -0.247706 -0.906336
-13.3985 -16.0914 12.4439 0.338644 -0.620605 -0.707227
-19.7464 -17.0767 10.7243 -0.631306 -0.724487 -0.276715
-18.4757 -18.5233 12.208 -0.711973 -0.297761 -0.63595
-19.0355 -17.5035 11.8131 -0.792987 -0.558629 -0.243117
-13.0988 -13.906 10.6888 0.488421 -0.186139 -0.852524
-19.8773 -15.9108 9.7025 -0.574519 -0.335193 -0.746708
-18.3202 -13.137 9.70988 -0.0848291 0.0187486 -0.996219
-17.0565 -12.6155 9.80875 0.274633 0.11672 -0.954439
-14.399 -19.2179 12.522 0.252016 0.457675 -0.852655
-13.537 -16.9993 13.0068 0.0766716 -0.213076 -0.974023
-13.6392 -18.2104 13.0052 0.0598922 0.12674 -0.990126
-12.2097 -14.7964 12.0905 0.467392 -0.461372 -0.754109
-16.4888 -20.8814 11.9667 -0.185236 -0.607896 -0.772107
-12.4464 -16.3261 12.8144 -0.0102562 -0.234887 -0.971969
-16.3331 -11.9799 10.336 0.25465 0.623967 -0.738795
-19.9643 -14.9095 9.72375 -0.551402 0.0766464 -0.830711
-15.4234 -20.7494 11.6316 -0.0162033 -0.232831 -0.972382
-18.3305 -20.5438 12.0871 -0.39823 -0.422241 -0.814325
-13.9409 -12.787 10.2555 0.321426 0.100952 -0.941538
-14.9095 -11.794 10.3015 0.13334 0.56375 -0.815111
-19.252 -13.9431 9.88231 -0.230642 0.0821338 -0.969566
-19.0397 -19.3747 12.6708 -0.877248 0.00784915 -0.479974
-19.3253 -16.6465 12.5305 -0.920531 -0.347953 0.177628
-19.2798 -18.357 13.0977 -0.919792 -0.196049 -0.339924
-20.5179 -15.9096 11.1258 -0.938621 -0.344245 -0.0220189
-18.0872 -12.0767 9.72775 -0.144112 0.253934 -0.956425
-19.4224 -12.7526 9.99325 -0.537361 0.287897 -0.79269
-13.021 -19.0665 12.565 -0.422291 0.500225 -0.75594
-13.4522 -20.3778 11.8142 -0.25051 0.0717346 -0.965453
-15.6578 -21.8027 12.2808 -0.286073 -0.660013 -0.694654
-17.642 -11.1625 10.057 0.0708431 0.739224 -0.669724
-11.7505 -12.7638 11.138 0.546991 0.154282 -0.822799
-13.0511 -12.0589 11.1349 0.334992 0.609531 -0.718507
-11.4605 -13.5615 11.6944 0.788617 -0.285382 -0.544646
-15.234 -11.3053 11.3237 -0.100538 0.894178 -0.436278
-11.8234 -17.5637 12.5243 -0.355289 0.377602 -0.855094
-17.565 -21.621 12.901 -0.0619466 -0.872078 -0.48543
-11.0767 -13.8383 12.7755 0.819549 -0.0684307 -0.568909
-20.7668 -14.7948 10.9923 -0.989371 -0.0093741 -0.14511
-19.409 -20.792 12.978 -0.883386 -0.374141 -0.282221
-18.5475 -21.4718 13.2292 -0.517315 -0.82752 -0.218167
-16.3521 -11.4514 11.8585 0.0602094 0.903033 -0.42533
-19.3857 -16.0071 13.5597 -0.890953 -0.26768 -0.36681
-20.2196 -13.3044 10.6401 -0.761396 0.321536 -0.56293
-18.8921 -11.6245 10.3421 -0.543557 0.608633 -0.578024
-19.5499 -17.8784 14.2705 -0.904105 -0.189099 -0.383192
-14.2817 -22.0046 12.2579 0.127493 -0.718397 -0.68385
-19.1986 -19.2754 14.274 -0.92557 -0.359042 0.12004
-10.3792 -16.5362 12.591 0.210179 0.393611 -0.894928
-17.2897 -10.9758 11.8864 0.307248 0.871201 -0.382894
-12.1987 -18.6593 11.4368 -0.578644 0.560269 -0.59268
-18.991 -20.5486 14.2711 -0.904689 -0.282407 0.319035
-11.244 -12.127 12.0522 0.665982 0.292855 -0.686079
-20.2013 -14.7099 12.4825 -0.897953 -0.43703 0.0518187
-17.8506 -21.9183 14.0427 -0.469783 -0.865765 -0.172493
-14.5136 -10.6986 12.1084 -0.118791 0.560971 -0.819268
-12.2453 -21.5086 12.2209 0.0460916 -0.974208 -0.220894
-12.15 -19.856 10.8355 -0.502772 0.0193313 -0.864203
-10.5662 -14.6614 13.4996 0.587418 0.223629 -0.777773
-10.7312 -12.692 13.1929 0.79296 -0.188557 -0.579363
-15.1538 -22.9007 13.666 -0.199354 -0.836523 -0.510379
-20.6022 -13.328 11.6995 -0.936276 0.084451 -0.340963
-20.121 -18.161 15.2113 -0.555218 -0.796159 -0.24055
-20.1612 -15.324 14.3276 -0.659343 -0.395084 -0.639669
-15.3629 -10.7626 12.8304 -0.332311 0.671036 -0.662782
-10.6109 -18 11.5407 -0.147874 0.641766 -0.752509
-14.0501 -22.4589 13.2975 0.409791 -0.823901 -0.391482
-18.9442 -11.0352 11.6637 -0.371316 0.846535 -0.381449
-18.04 -10.3495 12.4425 -0.0188837 0.93446 -0.355567
-12.9963 -10.7945 12.6664 0.319079 0.427744 -0.845709
-20.0719 -11.826 12.3647 -0.660231 0.616466 -0.429027
-11.2684 -21.2494 10.8208 -0.0814134 -0.656062 -0.750303
-11.7086 -11.227 12.6416 0.155044 0.504703 -0.849256
-16.8458 -10.3915 13.2823 -0.0914488 0.806767 -0.58375
-20.6803 -16.614 14.708 -0.473438 -0.201414 -0.85749
-9.37206 -15.923 13.4043 0.234563 0.378624 -0.895335
-12.8756 -21.8027 13.1226 0.488607 -0.867332 -0.0948549
-11.359 -19.0748 10.5434 -0.19191 0.390012 -0.90059
-9.4695 -17.6315 11.8567 0.180733 0.702411 -0.688443
-10.486 -11.3888 12.7402 0.450092 -0.105326 -0.886749
-21.0245 -13.6438 12.84 -0.882519 -0.299105 -0.362899
-18.3845 -21.2685 15.405 -0.82531 -0.278568 0.491186
-9.321 -14.4572 13.7595 -0.0346642 0.281962 -0.958799
-13.842 -9.499 12.3448 0.114291 0.198146 -0.973486
-18.7972 -18.3533 16.0192 -0.319749 -0.725159 0.60984
-10.1165 -13.3935 14.048 0.385576 0.0616912 -0.920611
-20.1497 -17.8965 16.3142 -0.0822094 -0.962594 0.258176
-21.164 -12.614 12.603 -0.847744 0.221375 -0.481999
-17.794 -22.0595 15.6 -0.619956 -0.645783 0.445666
-10.7965 -20.389 10.4455 -0.00565507 -0.196118 -0.980564
-17.8062 -20.0595 15.7515 -0.51637 -0.0773933 0.852861
-16.4114 -22.8342 14.3748 -0.460804 -0.846615 -0.266276
-20.9441 -14.2774 14.1104 -0.656228 -0.535194 -0.531913
-11.0785 -21.309 13.4175 -0.000949891 -0.958096 0.286445
-12.214 -21.1847 13.8802 0.382826 -0.908064 0.169896
-14.1007 -23.507 14.7225 0.397593 -0.856383 -0.329436
-9.33337 -12.2767 14.1205 0.303109 -0.244857 -0.920962
-16.823 -22.581 15.611 -0.625915 -0.73766 0.253155
-21.7003 -17.7903 15.2955 -0.338865 -0.766095 -0.54614
-15.4062 -23.62 15.2657 -0.273599 -0.946103 -0.173298
-16.9587 -9.418 13.788 -0.698075 0.434666 -0.568996
-13.0658 -21.9484 14.481 0.708034 -0.684292 -0.174445
-15.4358 -9.10581 13.2952 -0.419749 0.28432 -0.861959
-8.95125 -18.1496 11.0863 0.145961 0.642631 -0.752144
-19.2892 -10.6217 13.267 -0.334676 0.910521 -0.242781
-21.8455 -15.0938 14.9732 -0.359799 -0.248848 -0.899233
-7.77166 -16.6033 13.4164 0.151441 0.263649 -0.952657
-20.5223 -11.3789 13.7464 -0.520897 0.660354 -0.540924
-9.92775 -21.5767 12.0087 0.304406 -0.927461 -0.217147
-17.7922 -18.65 16.1109 -0.174348 -0.44376 0.879022
-10.6073 -10.0638 12.9993 -0.00148864 0.236394 -0.971656
-12.1716 -9.38762 13.3766 0.174566 0.148977 -0.97331
-9.34713 -19.444 10.7434 0.263114 -0.0912207 -0.960443
-22.1509 -16.184 15.2255 -0.4255 -0.171971 -0.888468
-21.7095 -13.0495 13.7542 -0.650328 -0.14921 -0.744856
-8.76912 -13.3918 14.2046 -0.175225 0.221379 -0.959316
-8.08425 -17.6605 12.6152 0.419789 0.717991 -0.555218
-17.215 -21.182 16.3 -0.382752 0.121236 0.915862
-10.7903 -20.8727 14.3119 -0.144194 -0.988364 -0.0484175
-18.3009 -10.4878 14.4353 -0.351694 0.898683 -0.262068
-16.6554 -19.6135 15.8066 -0.160957 -0.247961 0.955305
-21.097 -17.8819 17.3271 0.25498 -0.965425 -0.0542275
-14.3577 -23.6195 15.7005 0.404654 -0.913664 0.0383844
-21.4137 -11.8073 13.9376 -0.545339 0.442209 -0.712079
-19.4132 -17.3011 17.4401 -0.0488682 -0.997534 0.0503702
-17.5441 -17.9046 16.8259 -0.205879 -0.816139 0.539936
-8.79275 -11.3438 13.9897 0.194507 -0.423554 -0.884742
-12.129 -21.0035 15.1278 0.465048 -0.843741 -0.268014
-9.7665 -21.2835 13.5645 -0.0318685 -0.997 -0.0705309
-8.95475 -10.2674 13.0433 -0.123949 -0.443875 -0.887475
-14.5334 -8.09988 12.9789 -0.416646 -0.127902 -0.900026
-16.891 -8.604 14.5685 -0.911108 0.276913 -0.30529
-15.8895 -23.399 16.3105 -0.590506 -0.757679 0.277896
-7.55944 -13.8655 13.1842 -0.389567 0.13203 -0.911485
-20.4439 -10.5723 14.3776 -0.1757 0.687899 -0.704219
-12.4315 -8.2485 13.1453 0.145432 -0.269293 -0.952014
-22.3715 -18.0075 16.6774 -0.178282 -0.902509 -0.392038
-13.0319 -22.6828 15.7329 0.543954 -0.772636 -0.327334
-15.4591 -7.77588 13.7755 -0.501152 0.0173468 -0.865186
-9.009 -20.835 12.228 0.414787 -0.888101 -0.19806
-22.8726 -16.7812 15.842 -0.536079 -0.44307 -0.718546
-17.4824 -9.63325 15.3156 -0.740196 0.487666 -0.462917
-22.695 -13.8725 14.969 -0.371655 -0.333765 -0.866299
-7.59244 -11.8614 13.9519 -0.370217 -0.0339792 -0.928324
-19.324 -10.4045 14.811 0.125617 0.949726 -0.286775
-6.20128 -16.4832 13.6584 0.0392404 0.0375975 -0.998522
-18.4521 -10.3144 15.4754 -0.275903 0.864479 -0.420183
-16.4895 -7.686 14.14 -0.666855 -0.076441 -0.741257
-14.6874 -23.7639 16.9551 -0.0919805 -0.964851 -0.246175
-7.0245 -18.0271 13.1255 0.266852 0.546398 -0.793876
-9.8345 -21.2999 14.709 -0.392954 -0.867323 -0.305512
-10.6558 -8.67522 13.3047 -0.176408 -0.207952 -0.9621
-22.7603 -12.7945 14.5735 -0.444675 -0.157526 -0.881731
-6.82316 -15.2248 13.015 -0.0483189 -0.285896 -0.957042
-22.4034 -11.3806 14.4312 -0.279148 -0.00970253 -0.960199
-15.5013 -20.0995 15.9392 -0.381136 0.01076 0.924456
-7.24412 -18.9782 11.4218 0.321097 0.304796 -0.896658
-7.98125 -19.9753 11.368 0.28014 -0.643636 -0.712218
-11.4226 -21.4034 15.9689 0.0938141 -0.735907 -0.670552
-13.8085 -22.95 16.688 0.469375 -0.872448 -0.136092
-8.6195 -21.6087 13.5505 -0.487854 -0.69735 -0.525073
-16.3092 -18.1705 16.6495 -0.247336 -0.843884 0.476114
-23.6983 -15.4121 15.7929 -0.505832 -0.346783 -0.789858
-7.6325 -10.8682 13.6713 -0.285211 -0.591521 -0.75416
-13.3403 -7.75063 12.6695 -0.078355 -0.532924 -0.842527
3 171 133 161
3 133 173 142
3 133 142 99
3 99 142 106
3 106 142 89
3 126 153 123
3 153 163 123
3 123 163 138
3 124 132 181
3 159 181 132
3 111 124 161
3 133 99 111
3 72 99 80
3 80 57 72
3 57 80 62
3 89 62 80
3 86 87 68
3 92 119 121
3 87 123 92
3 157 149 121
3 121 166 157
3 105 117 81
3 105 81 103
3 103 81 66
3 81 117 93
3 81 93 64
3 66 64 42
3 132 124 93
3 82 124 111
3 57 34 43
3 45 39 62
3 63 89 86
3 39 25 16
3 16 25 26
3 33 16 26
3 17 33 38
3 38 33 53
3 68 60 33
3 60 53 33
3 121 102 74
3 53 74 51
3 102 154 130
3 154 149 183
3 103 109 128
3 66 109 103
3 42 40 66
3 70 66 40
3 7 34 39
3 5 17 9
3 17 37 13
3 91 98 71
3 98 115 78
3 98 78 71
3 71 78 52
3 152 101 134
3 129 148 98
3 129 130 170
3 107 116 136
3 73 110 116
3 100 70 73
3 59 73 70
3 21 40 42
3 21 42 22
3 42 64 22
3 22 64 41
3 22 41 20
3 20 41 43
3 8 20 7
3 21 10 18
3 21 18 40
3 18 10 4
3 18 4 12
3 4 1 0
3 4 0 6
3 0 2 5
3 52 23 50
3 50 23 51
3 30 52 56
3 56 77 67
3 101 125 94
3 94 125 67
3 122 135 175
3 118 116 110
3 65 79 48
3 79 31 48
3 31 73 55
3 55 73 59
3 48 31 35
3 12 35 31
3 47 69 76
3 13 30 3
3 19 3 30
3 32 19 30
3 30 67 32
3 32 67 54
3 69 54 84
3 84 67 97
3 84 122 131
3 131 96 84
3 131 176 127
3 114 79 85
3 112 113 75
3 95 120 85
3 95 65 75
3 65 47 75
3 147 112 127
3 108 76 96
3 69 46 54
3 54 46 29
3 89 142 126
3 142 153 126
3 86 89 123
3 123 89 126
3 92 123 138
3 119 92 138
3 119 138 160
3 119 160 150
3 165 138 163
3 138 165 160
3 99 72 111
3 92 68 87
3 143 140 105
3 64 66 81
3 82 93 124
3 82 111 72
3 57 43 72
3 39 45 25
3 16 33 17
3 83 53 60
3 83 92 121
3 92 83 60
3 92 60 68
3 74 53 83
3 74 83 121
3 88 51 74
3 88 74 102
3 91 88 130
3 130 88 102
3 154 170 130
3 144 103 128
3 103 143 105
3 143 103 144
3 180 144 139
3 139 144 128
3 128 109 139
3 70 100 109
3 70 109 66
3 61 41 64
3 82 61 93
3 93 61 64
3 72 43 41
3 72 41 61
3 72 61 82
3 9 17 13
3 56 52 78
3 77 78 104
3 77 104 101
3 101 104 134
3 134 104 115
3 78 115 104
3 162 134 115
3 152 134 162
3 145 162 115
3 145 115 98
3 98 148 145
3 145 148 182
3 145 182 162
3 170 148 129
3 139 136 174
3 8 10 22
3 8 22 20
3 22 10 21
3 35 12 11
3 11 12 4
3 6 11 4
3 27 11 14
3 14 11 6
3 15 14 6
3 3 15 6
3 9 13 3
3 9 3 5
3 30 13 23
3 52 30 23
3 77 94 67
3 101 94 77
3 97 67 125
3 97 125 135
3 97 135 122
3 168 135 125
3 168 125 164
3 164 125 172
3 65 85 79
3 29 46 27
3 47 27 46
3 47 46 69
3 14 29 27
3 28 54 29
3 19 28 15
3 19 15 3
3 14 15 29
3 29 15 28
3 32 54 28
3 32 28 19
3 84 97 122
3 158 127 176
3 156 178 141
3 141 178 167
3 113 146 120
3 177 156 146
3 156 120 146
3 95 75 113
3 95 113 120
3 137 112 147
3 169 137 147
3 158 147 127
3 169 147 179
3 112 137 113
3 113 137 146
3 146 137 177
3 133 171 173
3 111 161 133
3 99 106 80
3 89 80 106
3 123 87 86
3 119 150 166
3 119 166 121
3 117 132 93
3 105 140 117
3 155 117 140
3 155 159 117
3 159 132 117
3 62 39 34
3 57 62 34
3 89 63 45
3 89 45 62
3 44 26 25
3 44 25 45
3 44 45 63
3 68 33 49
3 68 49 86
3 86 49 63
3 63 49 44
3 44 49 26
3 33 26 49
3 121 149 102
3 154 102 149
3 34 24 43
3 24 34 7
3 16 5 2
3 16 2 7
3 16 7 39
3 16 17 5
3 38 37 17
3 37 38 51
3 38 53 51
3 88 91 51
3 130 129 91
3 91 129 98
3 73 107 100
3 107 73 116
3 109 100 136
3 107 136 100
3 109 136 139
3 36 59 58
3 36 58 40
3 70 58 59
3 58 70 40
3 20 43 24
3 7 20 24
3 7 1 8
3 8 1 10
3 10 1 4
3 2 0 1
3 2 1 7
3 0 5 3
3 0 3 6
3 51 23 37
3 37 23 13
3 52 50 71
3 50 51 71
3 71 51 91
3 78 77 56
3 101 152 125
3 125 152 172
3 167 151 118
3 118 151 116
3 110 73 79
3 79 73 31
3 36 40 18
3 36 31 55
3 36 55 59
3 31 36 18
3 12 31 18
3 47 35 11
3 47 11 27
3 56 67 30
3 54 67 84
3 122 175 131
3 176 131 175
3 79 114 118
3 110 79 118
3 120 114 85
3 114 156 141
3 156 114 120
3 95 85 65
3 65 35 47
3 35 65 48
3 108 90 76
3 76 90 47
3 47 90 75
3 75 127 112
3 108 96 131
3 69 84 96
3 96 76 69
3 90 108 131
3 90 131 127
3 127 75 90
3 118 114 141
3 118 141 167
