ply
format ascii 1.0
comment Generated by PyMesh
element vertex 200
property float x
property float y
property float z
property float charge
property float ddc
property float hbond
property float hphob
property float rho
property float si
property float theta
property float nx
property float ny
property float nz
element face 336
property list uchar int vertex_indices
end_header
-23.4648 -9.215 10.282 0.315044 0 0 -1 1e-08 0.839958 2.22045e-16 -0.116334 -0.992464 -0.0384874
-24.2651 -8.96638 10.8674 0.19289 0.401967 0 -1 1.02225 0.768214 2.22045e-16 -0.64891 -0.734414 0.198877
-23.27 -9.02525 9.075 0.108075 0.261967 0 -1 1.23726 0.324712 2.45609 -0.0507863 -0.993967 -0.0972104
-24.3194 -8.68213 9.49525 0.312904 0.355011 0 -1 1.27799 0.446673 1.39556 -0.684471 -0.726125 -0.0651303
-22.8943 -9.02575 11.4333 0.362197 0.39549 0 -1 1.29876 0.631109 4.91933 0.150304 -0.942415 0.298769
-21.7401 -8.90375 10.7118 0.347503 0.383606 0 -1 1.80449 0.945378 4.02857 0.36967 -0.912761 0.173817
-23.3092 -8.954 7.83125 0.126326 0.0568779 0 -1 2.48366 0.406413 2.31011 -0.269986 -0.961625 -0.0488332
-24.6623 -7.54462 10.8359 0.407607 0.424185 0 -1 2.49878 0.314172 0.435303 -0.941904 -0.298514 0.153971
-23.2985 -8.6565 12.6355 0.145161 -0.0788934 0 -1 2.61975 0.171649 5.3843 -0.149108 -0.988821 -0.000164651
-24.5791 -8.30962 8.16063 0.4171 0.254537 0.110137 -1 2.68775 0.479351 1.68799 -0.825595 -0.561846 -0.052172
-24.362 -7.525 11.982 0.235323 0.31351 0 -1 2.84688 0.0892188 6.16846 -0.886754 -0.400919 0.230069
-24.8995 -7.225 9.8345 0.408823 0.430356 0.100114 -1 2.88262 0.252499 0.874683 -0.992452 -0.112955 0.0477527
-21.3273 -8.8025 9.55481 0.264206 0.238321 0 -1 3.03708 -0.0240967 3.4685 0.2227 -0.958482 0.178095
-21.936 -7.92137 12.5278 0.265757 0.287225 0 -1 3.12521 -0.340597 4.75169 0.511917 -0.808369 0.290657
-20.3315 -7.74131 10.5953 0.199796 0.260201 0.0211574 -0.577367 3.63452 -0.0744587 3.94446 0.524645 -0.768145 0.367016
-22.7266 -9.01175 6.79588 -0.199122 0.0836295 0 -1 3.67309 0.256502 2.44826 -0.0582471 -0.99656 -0.0589609
-24.6915 -7.5625 7.4935 0.248663 0.316137 0.322389 -1 3.69566 -0.0937854 1.604 -0.984202 -0.106551 -0.141396
-24.6031 -6.60281 12.3184 0.157184 0.278755 0 -1 3.85769 0.0425916 0.041518 -0.963841 -0.218366 0.152733
-23.149 -9.1075 13.7925 0.056889 -0.303277 0 -0.177778 3.87051 0.219697 5.39546 -0.118113 -0.489313 -0.864073
-25.0375 -6.1895 10.903 0.136225 0.326683 0 -1 3.90649 0.585142 0.509186 -0.998942 -0.0459705 0.00106772
-25.159 -7.1915 8.578 0.205926 0.37807 0.769499 -1 4.01466 0.822644 1.27458 -0.99791 0.0161028 -0.0625766
-23.98 -8.416 14.069 0.0383617 -0.222717 0 -0.177778 4.22511 -0.0189584 5.63031 -0.801276 -0.42702 -0.419059
-24.621 -8.069 6.5915 0.169666 0.154574 0.651074 -1 4.27578 0.379095 1.88878 -0.816496 -0.575508 0.0461055
-21.5298 -9.17 7.988 0.0304505 0.15502 0 -1 4.28296 0.691841 2.93894 0.129959 -0.990607 -0.042527
-20.1845 -8.6605 9.077 0.175931 0.23498 0 -1 4.28386 0.901947 3.44352 0.476436 -0.824735 0.304665
-24.6723 -6.2505 8.82925 0.308316 0.394161 0.0893703 -1 4.301 -0.429831 1.08171 -0.958404 0.28176 0.0455346
-22.3465 -8.49375 14.0885 -0.068124 -0.313134 0 -0.177778 4.36445 -0.569041 5.18761 0.588423 -0.468957 -0.658663
-24.2743 -7.45813 13.5571 0.058323 0.226905 0 -1 4.41909 0.0498146 5.90863 -0.927345 -0.362319 -0.0935721
-20.79 -7.24388 12.0931 0.140248 0.245949 0 -0.610956 4.52567 -0.22274 4.4332 0.580424 -0.770568 0.263312
-21.5989 -7.74388 13.9134 0.105045 0.244022 -0.0787328 -0.922018 4.56223 -0.280303 4.90603 0.659801 -0.707421 -0.253412
-22.384 -8.9035 5.78675 0.110245 0.138769 0.189878 -0.931638 4.74428 0.265778 2.48425 0.320707 -0.94714 -0.00852864
-24.5348 -5.35962 9.98388 0.164762 0.375684 0 -1 4.78918 0.131616 0.760535 -0.895138 0.434021 -0.101751
-19.3347 -7.254 9.89163 0.152654 0.184209 0.287924 -0.63516 4.94838 -0.651943 3.82039 0.48933 -0.816662 0.305973
-24.7237 -6.64975 6.4585 0.206704 0.206771 0.622314 -1 5.07602 -0.69256 1.61142 -0.96535 -0.20611 0.160054
-24.7005 -6.20725 7.77287 0.262546 0.272177 0.0845715 -0.698524 5.07944 -0.223395 1.31373 -0.993191 -0.0561366 0.102083
-21.3472 -8.6665 6.9135 -0.0288818 0.170272 0 -1 5.0999 -0.410649 2.79475 0.279968 -0.926246 -0.252362
-24.1569 -9.28213 14.6067 0.0760867 -0.263855 0 -0.177778 5.1779 0.0777232 5.58486 -0.65629 -0.196043 -0.728595
-23.42 -10.2725 14.429 0.0938083 -0.268615 0 -0.177778 5.22542 0.153012 5.47041 -0.470196 -0.275288 -0.83853
-24.6496 -5.57312 13.2814 0.0897943 0.168706 0 -1 5.26829 -0.357939 0.0210842 -0.915522 -0.399765 -0.0448003
-23.6082 -9.08744 5.33644 0.150248 -0.0545937 0 -0.777778 5.37982 0.298718 2.24435 -0.315602 -0.883558 0.346006
-24.3805 -8.4235 5.5625 0.104751 -0.126466 0 -0.777778 5.39038 -0.0931875 1.99464 -0.746378 -0.578982 0.328176
-19.261 -6.84125 11.6965 -0.243992 0.146301 0 -0.0888889 5.41461 0.277998 4.16452 0.368084 -0.864345 0.342669
-20.1338 -8.74375 7.88375 0.118923 0.192049 0 -1 5.48109 0.766052 3.1546 0.446913 -0.885445 -0.127498
-24.5421 -7.63413 14.8821 -0.0393823 0.225461 0 -0.177778 5.48544 -0.270768 5.83383 -0.897409 -0.127787 -0.422288
-24.4695 -6.49 14.027 -0.0499607 0.213257 0 -1 5.51279 -0.664869 6.05554 -0.972331 -0.202944 -0.1157
-21.2502 -8.50362 14.8431 -0.296657 0.295741 -0.838733 -0.177778 5.69539 -0.200459 4.98633 0.671974 -0.133546 -0.728434
-24.4319 -4.8465 8.7625 0.221181 0.272084 0 -0.69704 5.727 -0.261914 1.00387 -0.925946 0.155936 0.343958
-22.078 -8.56275 4.7525 0.00291981 0.162455 0.351184 -0.808636 5.87539 -0.266633 2.38229 0.570463 -0.803747 -0.169007
-23.843 -4.437 9.9255 0.143258 0.315245 0 -0.677778 5.94383 -0.22975 0.786309 -0.820186 0.460213 0.33985
-21.5238 -10.0594 14.7436 0.0140825 -0.329359 0 -0.302471 5.98048 -0.347971 5.15053 0.230592 0.180458 -0.95617
-20.213 -6.25775 13.0215 0.18907 0.138635 0 -0.80846 5.99784 -0.856385 4.54486 0.370986 -0.88433 0.283425
-24.9455 -4.472 12.149 0.089358 0.2553 0 -0.988469 6.02247 0.208074 0.0210842 -0.869816 0.163171 -0.465613
-20.6695 -7.0855 15.0363 0.123762 0.213464 -0.585066 -0.0157454 6.16165 -0.757273 4.98633 0.67072 -0.488536 -0.558093
-25.111 -6.972 5.09363 0.158238 0.142789 0.100685 -0.811127 6.19596 -0.41889 1.61142 -0.838639 -0.3688 0.400838
-25.267 -5.68925 6.26125 0.171167 0.137132 0 -0.364204 6.19702 -0.327172 1.61142 -0.82037 -0.434493 0.371765
-18.6239 -7.34106 8.705 0.0570087 0.159268 0 -0.0888889 6.33435 0.0479925 3.82039 0.53879 -0.830792 0.139607
-22.4034 -11.3806 14.4312 -0.278896 -0.292059 -0.752668 -1 6.34656 0.124264 5.47041 -0.279148 -0.00970253 -0.960199
-20.8832 -8.26775 5.65475 -0.328951 0.117914 -0.121059 -0.777778 6.37952 -0.165529 2.79475 0.241635 -0.944963 -0.220583
-25.0569 -9.07125 15.4163 0.127213 -0.266067 0 -0.177778 6.40669 -0.140422 5.58486 -0.546323 0.134883 -0.826643
-20.324 -6.3865 14.3372 0.221022 0.155736 0 1 6.47206 -0.999791 4.54486 0.499942 -0.811387 -0.302835
-23.7349 -11.4009 14.8865 0.126947 -0.276211 0.0924512 -0.301224 6.4831 -0.348377 5.47041 -0.20439 -0.0241314 -0.978592
-18.333 -6.3345 12.108 0.091576 0.100797 -0.120039 -0.0912609 6.54921 0.282037 4.16452 0.250826 -0.908366 0.3346
-24.6903 -10.3582 15.2692 0.354657 -0.270637 0 -0.177778 6.54952 -0.506523 5.58486 -0.331744 0.0426787 -0.942404
-23.4335 -4.26737 10.9566 0.191643 0.340189 0 -0.630524 6.62004 -0.646653 0.786309 -0.706484 0.691227 -0.151939
-17.8043 -6.68175 10.2825 0.213745 0.139744 0 -0.0888889 6.62837 0.461547 3.82039 0.530315 -0.818463 0.221099
-24.994 -5.30963 14.6462 -0.180587 0.161762 -0.692479 -1 6.70032 -0.0334196 0.0210842 -0.963333 -0.239604 -0.120742
-23.2131 -9.617 4.12425 0.316998 0.103441 0.452161 -0.777778 6.73435 0.788439 2.24435 0.320447 -0.946932 0.0251881
-25.3088 -8.56675 4.445 0.166744 -0.126639 0 -0.777778 6.8502 0.999828 1.99464 -0.794798 -0.433744 0.424456
-25.3714 -4.37937 7.70013 0.198169 0.147076 0 -0.355556 7.02791 0.165953 1.00387 -0.792611 -0.364866 0.488508
-24.7594 -9.37162 4.1245 0.135141 -0.0286982 0 -0.777778 7.07535 0.84082 2.24435 -0.40853 -0.884444 0.225528
-25.071 -6.36575 15.7308 -0.2382 0.184343 -0.294658 -1 7.10062 -0.033256 5.83383 -0.961125 -0.0348825 -0.2739
-25.3223 -7.353 16.2712 -0.112491 0.224136 -0.533627 -0.177778 7.10326 -0.351625 5.83383 -0.751181 0.277511 -0.598928
-20.4977 -9.66825 15.1231 0.138002 -0.329479 -0.771219 -0.31148 7.10996 0.0933316 5.15053 0.461489 0.593141 -0.659705
-23.995 -3.911 12.06 0.104104 0.297108 0 -1 7.12976 -0.604812 0.786309 -0.406309 0.484181 -0.774908
-19.1028 -6.053 12.8455 0.0926913 0.0809753 -0.218172 -0.149494 7.1404 -0.584342 4.54486 0.136644 -0.958058 0.251901
-19.3284 -7.98259 6.64594 -0.32721 0.127601 0.000629393 -0.778167 7.14248 -0.0266087 3.1546 0.400781 -0.916003 0.0177111
-24.5766 -3.49787 8.32775 0.192407 0.206656 0 -0.355556 7.15134 -0.149576 1.00387 -0.611706 0.0681538 0.788144
-25.4662 -4.19425 14.3174 0.0128769 0.0774201 -0.170267 -0.905593 7.17654 -0.311806 0.0210842 -0.738833 -0.651896 0.170754
-25.6532 -4.77025 6.39075 0.106808 0.126273 0 -0.355556 7.20224 -0.628938 1.61142 -0.781544 -0.421795 0.45965
-20.4439 -10.5723 14.3776 0.139374 -0.345222 0 -1 7.23076 0.0620823 5.15053 -0.1757 0.687899 -0.704219
-20.0229 -7.55125 15.8363 0.178879 0.195828 -0.317033 0.147612 7.29082 -0.207275 4.98633 0.562908 -0.387783 -0.729903
-21.2822 -7.69037 3.86944 -0.210869 0.117596 0 -0.777778 7.34989 -0.746784 2.38229 0.462464 -0.873277 -0.153346
-26.0491 -4.00919 13.2559 0.1678 0.100162 0.254854 -0.829949 7.36713 0.326268 0.0210842 -0.679656 -0.636671 -0.364305
-25.378 -3.21106 12.4735 0.127782 0.195257 0 -0.821518 7.39445 -0.0415662 0.0210842 -0.194296 -0.179996 -0.964288
-17.401 -6.03675 11.4762 0.108734 0.120403 0 -0.16549 7.45308 -0.137755 4.16452 0.51537 -0.855702 0.0465509
-21.4137 -11.8073 13.9376 0.0435247 -0.327772 -0.314608 -1 7.53198 -0.144449 5.15053 -0.545339 0.442209 -0.712079
-20.1265 -9.2905 16.176 0.276374 -0.254628 -0.870462 -0.262424 7.60811 -0.889417 4.98633 0.611254 0.245662 -0.752342
-17.4675 -6.8385 8.893 0.0557223 0.166419 0 -0.0888889 7.60917 0.738786 3.82039 0.745376 -0.6652 0.0438689
-25.7173 -7.50325 3.85775 0.172599 0.129069 0 -0.777778 7.67151 0.0297892 1.99464 -0.887634 -0.296258 0.352614
-25.0672 -5.18225 15.6625 -0.299425 0.1712 -0.00553489 -1 7.72718 0.0624215 0.0210842 -0.999723 0.0152582 -0.0179421
-22.8167 -2.98175 10.0634 0.0986047 0.220088 0 -0.355556 7.72991 -0.895164 0.786309 -0.915491 0.280718 0.288224
-22.8888 -3.4195 11.4747 0.183954 0.250258 0 -0.403064 7.75318 -0.999888 0.786309 -0.835758 0.35541 -0.41856
-24.8075 -12.0948 14.653 0.300281 -0.304896 0.715205 -0.177778 7.78175 0.221262 5.47041 0.152374 0.243081 -0.957963
-26.2375 -5.837 5.0115 0.077343 0.107696 0 -0.777778 7.78622 0.886181 1.61142 -0.735778 -0.482889 0.474815
-18.4643 -7.255 7.23925 -0.370103 0.135801 -0.530836 -0.632871 7.81127 -0.443081 3.82039 0.51067 -0.841295 0.17731
-22.7603 -12.7945 14.5735 -0.147878 -0.222286 -0.0295089 -1 7.81174 -0.0751467 5.47041 -0.444675 -0.157526 -0.881731
-25.9482 -10.5319 15.2934 0.119435 -0.297214 0 -0.177778 7.81959 -0.207479 5.58486 -0.0906333 0.436551 -0.895103
-26.2623 -6.21075 4.06891 0.130202 0.0888367 0 -0.777778 7.91499 -0.020967 1.61142 -0.793958 -0.536046 0.286854
-18.6523 -6.01937 14.132 0.176105 0.0658258 0 0.0998822 7.92808 -0.501133 4.54486 0.0278223 -0.975824 -0.216778
-19.3487 -8.19125 5.2865 -0.36462 0.0753592 0 -0.777778 7.95944 0.64919 2.79475 0.123666 -0.9825 -0.139282
-17.1159 -5.79738 9.5235 0.256873 0.172525 0 -0.160835 7.98192 0.0971588 3.82039 0.853315 -0.519417 -0.0453887
-16.9878 -6.00616 12.5084 0.16828 0.0634369 0 -0.177778 7.99063 -0.268516 4.16452 0.0390774 -0.970228 -0.23902
-19.9748 -7.73325 4.382 -0.56974 0.0660687 -0.194228 -0.777778 8.03202 -0.325348 2.38229 0.0252994 -0.972989 -0.22946
-23.8135 -12.9655 14.8745 0.151873 -0.228549 0.27264 -0.393071 8.04972 -0.0725685 5.47041 -0.0165388 -0.164178 -0.986292
-20.5223 -11.3789 13.7464 0.202422 -0.344579 0 -1 8.25797 -0.702519 5.15053 -0.520897 0.660354 -0.540924
-24.227 -9.4145 2.994 0.047374 0.0506684 0 -0.777778 8.26617 0.34692 2.24435 -0.120998 -0.964993 -0.232697
-23.7764 -2.84488 12.409 0.0289287 0.215771 0 -0.494404 8.27265 -0.90501 0.786309 -0.396047 0.107518 -0.911914
-21.7095 -13.0495 13.7542 0.152812 -0.218967 0 -1 8.2766 0.262136 5.15053 -0.650328 -0.14921 -0.744856
-19.545 -7.992 16.6395 0.294261 -0.171507 -0.347605 0.404067 8.32415 -0.999927 4.98633 0.269309 -0.335886 -0.902581
-25.3781 -5.99813 16.916 -0.0399433 0.185502 0 -0.420696 8.37896 -0.396948 5.83383 -0.837572 0.234685 -0.493352
-23.8344 -2.51431 8.38663 0.114414 0.190984 0 -0.355556 8.38492 -0.807222 1.00387 -0.512094 0.125935 0.849647
-26.873 -9.08488 16.3076 -0.24996 -0.235182 -0.251729 -0.177778 8.42976 0.346423 5.58486 -0.542181 0.464401 -0.700266
-19.324 -10.4045 14.811 0.166069 -0.316833 0 -1 8.44327 -0.157377 5.15053 0.125617 0.949726 -0.286775
-25.2713 -3.80669 15.5155 -0.00328846 0.0768112 0 -0.963744 8.45076 -0.660675 0.0210842 -0.774085 -0.592939 0.221848
-22.7065 -8.91387 2.63675 -0.172826 0.104089 0 -0.777778 8.45589 -0.0757269 2.24435 0.480136 -0.869231 0.117929
-26.4513 -3.4425 7.49687 -0.0312765 -0.0643314 -0.0594821 -0.584776 8.47194 0.053273 1.00387 -0.324878 -0.795039 0.512218
-25.3158 -9.06675 2.8685 0.221705 0.0672988 0.714971 -0.777778 8.4825 0.999895 2.24435 -0.668098 -0.713388 -0.211478
-25.7915 -8.07225 2.954 0.184798 0.106188 0.603457 -0.777778 8.49356 0.457091 1.99464 -0.89443 -0.413676 -0.169906
-26.421 -3.76775 6.08075 -0.181744 0.0749738 0 -0.429669 8.50248 -0.866226 1.61142 -0.601749 -0.649449 0.464881
-27.1044 -3.502 13.4146 0.188455 -0.0424965 0.634199 -0.777778 8.54869 0.433604 0.0210842 -0.421853 -0.882188 -0.209246
-18.7805 -6.90188 15.6709 0.205645 -0.119209 0 1 8.57605 -0.444014 4.98633 0.146899 -0.741063 -0.655169
-25.771 -2.6315 8.22 -0.00352127 0.155276 0 -0.355556 8.6308 -0.0370758 1.00387 0.121709 -0.342023 0.931776
-26.3605 -7.1855 17.4255 -0.144245 0.186399 -0.496914 -0.203284 8.66477 -0.0453567 5.83383 -0.79986 0.333164 -0.499225
-19.343 -10.0887 16.0842 0.0367197 -0.270641 0 -0.959427 8.67004 -0.999899 5.15053 0.269278 0.796883 -0.540802
-19.2892 -10.6217 13.267 0.17298 -0.35403 0 -1 8.83364 0.330198 5.15053 -0.334676 0.910521 -0.242781
-17.9305 -7.7 5.6845 -0.513793 0.107845 0 -0.777778 8.86246 0.787553 3.1546 0.473958 -0.878643 0.0578875
-24.8498 -4.58025 16.602 -0.132577 0.135303 0 -1 8.86399 -0.999891 0.0210842 -0.979338 -0.130903 -0.154149
-26.1826 -11.346 14.5651 0.131163 -0.321218 0 -0.177778 8.93679 0.334408 5.58486 0.187801 0.455244 -0.870336
-18.8542 -9.37125 16.6077 0.147958 -0.215758 0 -0.866667 8.95408 -0.774815 4.98633 -0.0286449 0.379911 -0.924579
-22.695 -13.8725 14.969 0.0611497 -0.16994 0 -0.440453 8.96185 -0.541795 5.47041 -0.371655 -0.333765 -0.866299
-26.8739 -4.8575 4.7825 0.0113174 0.073474 0 -0.777778 8.97654 -0.183309 1.61142 -0.661011 -0.627216 0.411904
-22.7955 -2.1505 11.361 -0.0281379 0.152181 -0.051607 -0.155556 9.03068 -0.925936 0.786309 -0.923324 -0.149384 -0.353775
-21.5387 -7.78562 2.19894 -0.28386 -0.0979461 -0.221223 -0.777778 9.04265 -0.999796 2.38229 0.458907 -0.820659 0.340475
-16.623 -4.8675 9.69606 0.265922 0.152185 0.0800778 -0.132375 9.04841 -0.580168 3.82039 0.79169 -0.538524 -0.288476
-17.37 -6.47 7.5005 -0.192306 0.168451 -0.747237 -0.695038 9.0529 0.15415 3.82039 0.832502 -0.537503 0.13428
-22.8571 -1.65262 10.4342 -0.325242 0.122756 -0.967248 -0.155556 9.11038 -0.645004 0.786309 -0.958489 -0.282275 -0.0402467
-21.164 -12.614 12.603 0.138973 -0.297136 0 -1 9.11131 0.670374 5.15053 -0.847744 0.221375 -0.481999
-17.0427 -5.50575 8.13175 0.139628 0.174329 0.0189671 -0.0888889 9.20171 -0.731275 3.82039 0.914394 -0.404824 0.000975317
-17.911 -6.2715 15.196 0.204766 -0.0820836 0 1 9.24914 -0.999889 4.54486 -0.413333 -0.739608 -0.531165
-27.0502 -8.16725 17.2865 -0.204241 0.200314 -0.581889 -0.177778 9.26647 0.633277 5.83383 -0.80342 0.523062 -0.28447
-17.0045 -6.579 13.7055 0.209189 -0.0743652 0.0484967 -0.177778 9.31783 0.0532711 4.54486 -0.372483 -0.798344 -0.473185
-26.5806 -2.00069 11.5182 0.084578 -0.1114 0 -0.777778 9.34991 -0.0606051 0.0210842 0.330497 -0.797281 -0.505089
-26.4072 -6.72694 2.53187 0.049287 0.0973443 0 -0.777778 9.35572 0.467096 1.99464 -0.881701 -0.408595 -0.235912
-23.5872 -1.7065 12.3177 -0.197716 0.137798 0.128378 -0.351862 9.43025 -0.999899 0.786309 -0.521959 -0.344013 -0.780521
-15.803 -4.925 11.1187 -0.006921 0.105721 -0.811647 -0.177778 9.43232 -0.25577 4.16452 0.354256 -0.763653 -0.539757
-24.6891 -1.28988 12.2978 0.00698653 0.130951 0 0.0375996 9.44296 -0.999857 0.0210842 0.0992013 -0.544032 -0.83318
-24.2787 -14.2273 15.3814 0.0961013 -0.132817 -0.0270824 -0.164799 9.48691 0.0609397 5.47041 -0.187205 -0.581612 -0.791632
-25.6367 -13.6027 14.3519 0.60449 -0.188827 -0.0889253 -0.177778 9.52875 0.742521 5.47041 0.157091 -0.424198 -0.89184
-18.3009 -10.4878 14.4353 0.217073 -0.278041 0 -1 9.53635 -0.36447 5.15053 -0.351694 0.898683 -0.262068
-18.4521 -10.3144 15.4754 0.193447 -0.25732 0 -0.944124 9.54315 -0.902786 5.15053 -0.275903 0.864479 -0.420183
-23.0417 -1.39988 9.19188 -0.050556 0.114561 -0.1075 -0.331047 9.54993 -0.999848 0.786309 -0.87395 -0.298848 0.383277
-21.0245 -13.6438 12.84 0.182942 -0.170853 0 -1 9.5643 0.235309 5.15053 -0.882519 -0.299105 -0.362899
-18.504 -7.66988 3.92006 -0.246476 0.0607742 0 -0.773431 9.57496 0.0743183 2.38229 0.180183 -0.982802 0.0404267
-28.0129 -3.00813 13.4704 0.145439 -0.0335394 0.314404 -0.799109 9.58425 -0.0829807 0.0210842 -0.0416823 -0.993364 0.10719
-20.0719 -11.826 12.3647 0.259031 -0.352691 0 -1 9.59954 0.068851 5.15053 -0.660231 0.616466 -0.429027
-17.048 -7.02975 6.08975 -0.476217 0.137912 0 -0.777778 9.6492 0.635334 3.1546 0.706083 -0.625624 0.331724
-27.7169 -10.416 15.7773 0.038209 -0.24479 0 -0.177778 9.65695 0.246792 5.58486 -0.561029 0.661907 -0.497118
-27.0275 -5.6225 2.59675 0.149114 0.0994811 0.324241 -0.777778 9.67534 0.427224 1.61142 -0.769205 -0.401399 -0.497195
-15.3011 -6.19775 12.604 0.50108 -0.0951719 -0.194779 -0.177778 9.69086 -0.206937 4.16452 -0.272386 -0.641142 -0.717456
-27.5141 -3.282 6.2295 -0.095784 -0.0315948 -0.0876613 -0.152954 9.70787 -0.950701 1.00387 -0.107774 -0.965118 0.238605
-27.6816 -9.48 17.2225 -0.016872 0.194574 0 -0.177778 9.71312 0.294381 5.58486 -0.839213 0.537233 -0.0842804
-15.8385 -6.69825 13.663 0.586543 -0.10268 0.523724 -0.177778 9.76065 -0.999858 4.16452 -0.370887 -0.574621 -0.729557
-20.9441 -14.2774 14.1104 0.392027 -0.119143 0 -1 9.76672 -0.459495 5.15053 -0.656228 -0.535194 -0.531913
-24.572 -1.348 8.107 -0.0765207 0.129538 0 -0.355556 9.79294 -0.999878 1.00387 -0.00163046 -0.373821 0.927499
-23.2655 -9.39038 1.48475 -0.467647 -0.0254126 -0.308077 -0.777778 9.82214 0.175924 2.24435 -0.314259 -0.900027 0.30198
-25.3465 -4.50325 17.4735 0.07559 0.133258 0 -0.355556 9.87005 -0.595128 5.83383 -0.83856 -0.0972335 -0.536062
-19.2633 -7.63963 2.67156 -0.203143 -0.0118467 0 -0.777778 9.88691 -0.401501 2.38229 -0.292112 -0.938389 0.184654
-26.7423 -8.0535 18.2563 -0.258019 0.158507 0 -0.177778 9.92549 -0.246819 5.83383 -0.961133 0.272729 0.042919
-26.7127 -6.13825 18.033 0.046367 0.145069 0 -0.355556 9.92566 0.633016 5.83383 -0.92016 0.108062 -0.376334
-22.128 -9.477 1.406 -0.456907 -0.101336 -0.0859736 -0.777778 9.9278 0.234808 2.24435 0.336244 -0.67461 0.657146
-26.777 -2.2425 8.9855 -0.0534813 -0.109453 -0.300604 -0.866667 9.95343 -0.148351 1.00387 0.424086 -0.769499 0.477517
-25.8703 -3.0485 16.7773 0.054559 0.0636631 0 -0.542731 10.04 -0.423043 0.0210842 -0.785778 -0.615975 -0.0559192
-25.5995 -1.2515 8.48175 -0.0260405 0.132339 0 -0.773373 10.0458 -0.643362 1.00387 0.564756 -0.531497 0.631318
-27.0665 -2.9835 14.8308 -0.0730057 0.0312221 0 -0.777778 10.0573 -0.489105 0.0210842 -0.430626 -0.850137 0.303033
-17.8437 -7.97316 16.2629 0.254598 -0.146333 0 0.717809 10.0667 -0.731524 4.98633 -0.424628 -0.21275 -0.880016
-20.5355 -7.3585 2.45875 -0.197638 0.046324 0 -0.777778 10.0701 -0.725604 2.38229 0.0744875 -0.996569 0.0360829
-23.7225 -0.84625 8.624 -0.0931393 0.100501 0 -0.355556 10.0735 -0.819747 1.00387 -0.356159 -0.479363 0.802099
-24.7044 -8.22563 1.5635 -0.123674 0.0690858 -0.116219 -0.777778 10.1511 -0.200646 2.24435 -0.674102 -0.663057 -0.325486
-25.5053 -7.089 1.631 -0.06375 0.109632 0 -0.777778 10.1666 -0.0422834 1.99464 -0.834443 -0.289304 -0.46905
-16.9635 -5.543 7.033 -0.11205 0.165947 0.573641 -0.0888889 10.1679 -0.596404 3.82039 0.878562 -0.357826 0.316369
-27.443 -11.1007 14.2665 0.0553523 -0.287415 0 -0.177778 10.2551 0.999909 5.58486 -0.248144 0.492462 -0.83421
-18.04 -10.3495 12.4425 0.180204 0.328296 0 -1 10.3549 0.790245 5.15053 -0.0188837 0.93446 -0.355567
-27.721 -2.41325 12.0805 0.171726 -0.0704921 0.119966 -0.833327 10.3777 -0.377343 0.0210842 0.0643332 -0.932844 -0.354491
-20.6022 -13.328 11.6995 0.196928 -0.244771 0.638818 -1 10.3926 0.109021 5.15053 -0.936276 0.084451 -0.340963
-28.1996 -3.33375 8.30525 -0.484367 -0.060132 -0.0609951 -0.866667 10.4012 0.655964 1.00387 0.0435009 -0.922303 0.384011
-23.4822 -0.8485 11.2477 -0.140254 0.0764573 -0.358846 0.3028 10.4139 -0.695913 0.786309 -0.610932 -0.671343 -0.419597
-23.33 -0.489 10.0609 -0.161078 0.0564212 -0.405663 0.4251 10.4207 -0.999879 0.786309 -0.728458 -0.684917 0.0154175
-27.2073 -12.3658 14.2268 0.0340617 -0.206053 0 -0.177778 10.4215 0.656503 5.58486 -0.247566 -0.171873 -0.953505
-27.9175 -4.64825 3.01575 0.282177 0.0488529 0.231541 -0.777778 10.423 0.174794 1.61142 -0.60996 -0.756793 -0.234974
-21.8455 -15.0938 14.9732 0.117286 -0.156597 0 -0.155556 10.4495 -0.353536 5.47041 -0.359799 -0.248848 -0.899233
-26.912 -2.693 15.8534 -0.161405 0.0407499 0 -0.777778 10.4623 0.162787 0.0210842 -0.486376 -0.787135 0.379285
-15.8931 -3.66613 9.317 0.0168946 0.0935498 0.787115 -0.16315 10.5043 -0.999886 3.82039 0.474484 -0.829969 -0.293286
-18.9442 -11.0352 11.6637 0.331355 -0.365574 0 -1 10.525 0.380992 5.15053 -0.371316 0.846535 -0.381449
-17.5072 -7.0805 4.16025 -0.244737 0.0994809 -0.0570109 -0.462858 10.5614 -0.31715 3.1546 0.551357 -0.826133 0.116228
-28.3351 -4.31456 4.43325 0.00451723 -0.0361798 -0.182321 -0.268251 10.574 -0.0617674 1.61142 -0.134332 -0.925225 0.354843
-16.4895 -7.686 14.14 0.249945 -0.153751 0 -0.866667 10.6138 0.0837004 4.54486 -0.666855 -0.076441 -0.741257
-20.046 -7.609 1.613 -0.255855 -0.0561536 0 -0.603587 10.6559 -0.999889 2.38229 -0.121794 -0.818928 0.560824
-26.2145 -5.40075 1.97487 0.160242 0.126061 0.00189103 -0.777778 10.7227 0.0215471 1.99464 -0.637151 -0.145551 -0.756871
-17.4824 -9.63325 15.3156 0.240497 -0.203202 0 -0.866667 10.7389 -0.876771 5.15053 -0.740196 0.487666 -0.462917
-15.2399 -4.01038 10.1786 0.048477 0.0665746 0.0615469 -0.0972704 10.7456 -0.428873 4.16452 0.0501641 -0.892009 -0.449225
3 118 194 130
3 188 157 97
3 97 157 142
3 157 197 142
3 153 182 119
3 119 141 83
3 83 141 145
3 121 184 115
3 76 115 68
3 184 159 115
3 93 54 78
3 54 93 53
3 54 53 33
3 16 33 22
3 97 93 130
3 97 142 88
3 67 88 117
3 88 142 117
3 142 197 178
3 117 177 116
3 119 82 77
3 82 38 77
3 51 82 83
3 51 83 73
3 76 68 46
3 68 54 34
3 25 34 20
3 20 16 9
3 16 22 9
3 39 40 67
3 40 22 53
3 40 53 67
3 39 69 66
3 69 105 66
3 66 105 114
3 114 105 164
3 116 177 105
3 105 177 164
3 164 169 114
3 169 132 114
3 113 171 190
3 113 173 119
3 113 77 65
3 113 65 89
3 70 109 89
3 43 65 44
3 27 44 17
3 17 19 7
3 19 11 7
3 11 19 31
3 11 31 25
3 7 11 3
3 9 6 3
3 6 12 2
3 2 12 5
3 35 15 30
3 15 6 22
3 15 39 30
3 66 30 39
3 30 66 47
3 102 175 166
3 167 168 122
3 122 139 167
3 109 122 168
3 139 122 71
3 167 139 160
3 139 111 160
3 156 111 96
3 21 36 43
3 8 21 27
3 43 27 21
3 10 17 7
3 1 3 0
3 2 0 3
3 4 13 8
3 42 75 55
3 75 35 57
3 57 35 30
3 94 75 125
3 152 102 166
3 187 127 147
3 147 127 92
3 62 36 37
3 62 37 60
3 18 56 37
3 60 37 56
3 28 29 13
3 28 50 59
3 61 50 41
3 28 41 50
3 14 28 13
3 5 12 14
3 14 24 32
3 87 64 55
3 32 55 64
3 100 64 87
3 100 87 137
3 134 87 94
3 155 134 94
3 103 147 92
3 60 56 103
3 95 103 56
3 95 107 129
3 107 56 85
3 107 85 151
3 151 85 136
3 136 85 154
3 104 79 124
3 79 112 124
3 124 112 148
3 112 79 72
3 86 45 80
3 80 45 52
3 120 59 98
3 98 101 140
3 84 101 61
3 61 41 84
3 61 101 74
3 101 84 144
3 100 144 84
3 158 101 144
3 162 189 129
3 107 151 162
3 154 85 104
3 127 156 96
3 31 63 48
3 76 48 90
3 63 31 51
3 63 51 73
3 188 130 194
3 159 194 118
3 118 130 93
3 188 97 130
3 141 119 182
3 110 176 163
3 121 163 172
3 110 163 121
3 110 121 76
3 170 121 172
3 115 76 121
3 184 121 170
3 78 68 118
3 78 118 93
3 118 115 159
3 68 115 118
3 54 68 78
3 53 22 33
3 88 53 97
3 97 53 93
3 177 117 178
3 142 178 117
3 153 119 173
3 77 113 119
3 38 65 77
3 51 38 82
3 186 135 185
3 150 135 186
3 110 150 176
3 90 135 150
3 90 150 110
3 48 76 46
3 48 46 31
3 34 25 46
3 34 46 68
3 46 25 31
3 16 20 34
3 16 34 33
3 33 34 54
3 6 9 22
3 39 15 22
3 40 39 22
3 88 67 53
3 81 66 114
3 81 114 132
3 81 132 102
3 102 132 175
3 166 175 196
3 175 132 196
3 109 165 126
3 109 126 89
3 113 126 171
3 113 89 126
3 165 171 126
3 122 109 71
3 70 71 109
3 58 71 43
3 43 71 70
3 27 43 44
3 17 44 38
3 38 44 65
3 17 38 51
3 57 47 81
3 81 47 66
3 57 81 102
3 156 160 111
3 96 111 58
3 96 58 62
3 62 58 36
3 36 21 18
3 8 18 21
3 37 36 18
3 26 18 8
3 32 24 55
3 55 24 42
3 75 94 55
3 193 125 152
3 60 92 62
3 62 92 96
3 96 92 127
3 103 92 60
3 85 79 104
3 79 85 49
3 49 85 56
3 49 56 18
3 49 18 26
3 72 79 49
3 72 49 45
3 45 49 26
3 29 45 26
3 13 29 8
3 8 29 26
3 80 52 59
3 59 52 29
3 59 29 28
3 29 52 45
3 50 98 59
3 74 98 50
3 74 50 61
3 14 41 28
3 32 41 14
3 179 137 134
3 179 134 155
3 134 137 87
3 129 189 146
3 129 146 103
3 129 103 95
3 103 146 147
3 192 154 124
3 124 154 104
3 149 148 112
3 148 149 198
3 86 123 72
3 123 86 128
3 72 123 112
3 112 123 149
3 149 123 128
3 149 128 198
3 108 174 128
3 174 108 120
3 120 108 80
3 86 80 128
3 128 174 198
3 128 80 108
3 59 120 80
3 140 195 138
3 98 140 138
3 98 138 120
3 120 138 174
3 158 161 101
3 140 101 161
3 140 161 195
3 133 144 100
3 199 144 133
3 133 191 199
3 100 137 133
3 63 90 48
3 90 63 91
3 131 91 106
3 73 106 91
3 73 91 63
3 106 83 145
3 83 106 73
3 143 131 106
3 145 143 106
3 131 143 185
3 131 185 135
3 145 185 143
3 91 131 90
3 135 90 131
3 119 83 82
3 67 69 39
3 69 67 116
3 116 105 69
3 67 117 116
3 190 173 113
3 89 65 70
3 70 65 43
3 31 19 51
3 51 19 17
3 90 110 76
3 11 25 20
3 11 20 9
3 3 11 9
3 15 35 23
3 15 23 6
3 6 23 12
3 71 58 111
3 139 71 111
3 36 58 43
3 8 27 10
3 10 27 17
3 8 10 1
3 7 1 10
3 7 3 1
3 8 1 4
3 4 1 0
3 6 2 3
3 5 0 2
3 0 5 4
3 4 5 13
3 42 24 23
3 42 23 35
3 12 23 24
3 42 35 75
3 57 30 47
3 57 102 99
3 75 57 99
3 102 152 99
3 75 99 125
3 99 152 125
3 180 156 127
3 180 127 187
3 13 5 14
3 14 12 24
3 55 94 87
3 125 155 94
3 107 95 56
3 72 45 86
3 74 101 98
3 100 84 64
3 32 64 41
3 41 64 84
3 162 129 107
3 151 136 183
3 154 183 136
3 124 181 192
