ply
format ascii 1.0
comment Generated by PyMesh
element vertex 200
property float x
property float y
property float z
property float charge
property float ddc
property float hbond
property float hphob
property float rho
property float si
property float theta
property float nx
property float ny
property float nz
element face 320
property list uchar int vertex_indices
end_header
-11.9108 -6.32387 8.77262 0.0522473 0 0 -0.0888889 1e-08 0.999847 2.22045e-16 -0.348543 -0.871239 -0.345631
-12.061 -6.426 9.85625 0.0687357 0.215247 0 -0.0888889 1.09875 0.594472 1.20904 -0.196044 -0.978588 -0.0627064
-12.4902 -5.07987 7.84025 0.2066 0.151229 0 -0.0888889 1.65908 -0.109436 3.80595 -0.52891 -0.777561 -0.340077
-13.1315 -5.173 8.925 0.0186621 0.306823 0 -0.0888889 1.68459 0.513889 2.87778 -0.755563 -0.598811 -0.265611
-12.9268 -5.85825 10.0618 0.066468 0.245945 0 -0.0888889 1.70618 0.523431 1.95668 -0.698661 -0.694381 -0.17236
-10.4118 -6.27056 9.62613 0.105906 0.339145 0 -0.0888889 1.72578 0.377422 2.22045e-16 0.23397 -0.959916 -0.154338
-10.3611 -5.92944 7.93031 0.0380817 0.239674 0 -0.0888889 1.80738 0.163354 5.22663 0.078183 -0.982644 -0.168221
-12.3375 -6.3815 11.3695 0.125123 -0.0561813 0 -0.0888889 2.63769 -0.0946285 1.36005 -0.259074 -0.89831 -0.354851
-13.5747 -4.53587 9.77962 0.055301 0.154351 0 -0.0888889 2.83903 -0.568209 2.48635 -0.68619 -0.688193 -0.235655
-10.918 -6.34381 11.3474 0.0814103 0.115421 0 -0.674742 2.97937 -0.585778 0.748429 -0.0343879 -0.954799 -0.295256
-9.86438 -5.89712 6.79975 0.11479 -0.228238 0 -0.155556 3.04267 -0.210574 5.04592 -0.219346 -0.885478 0.409654
-11.1451 -5.506 7.06925 0.081587 -0.101537 0 -0.100888 3.04649 -0.259259 4.62187 -0.383129 -0.923164 -0.031305
-13.6006 -5.50238 11.3686 0.099116 -0.155025 0 -0.0888889 3.21892 -0.327554 1.82885 -0.430903 -0.636383 -0.639796
-13.9991 -3.79312 8.62912 0.20013 0.0693285 0 -0.0888889 3.34119 -0.509045 2.9087 -0.539987 -0.798588 -0.265839
-9.37288 -6.32125 10.879 -0.241774 0.169641 0 -0.777778 3.35416 -0.0339969 0.262212 0.00891663 -0.765131 -0.643813
-8.771 -5.32425 8.028 -0.0419467 0.274155 0 -0.155556 3.51156 -0.086949 5.54393 0.343575 -0.856788 0.384539
-8.99281 -5.18831 9.17241 0.00358713 0.301141 0 -0.0888889 3.56716 -0.347794 5.88325 0.596314 -0.785419 -0.165914
-13.621 -3.619 7.156 -0.00765367 0.215249 0 -0.0888889 3.62912 0.26688 3.41009 -0.581425 -0.365319 -0.726971
-12.6431 -4.67812 5.88588 -0.0220906 0.495386 0.162576 -0.25208 3.66017 -0.0594895 3.9976 -0.562668 0.507152 0.652841
-12.997 -6.8425 12.0225 0.164346 -0.181975 0 -0.0888889 3.67397 0.101263 1.43389 -0.0988507 -0.649519 -0.753892
-14.4446 -4.32575 10.8495 -0.113263 -0.0993934 -0.487567 -0.132564 4.23385 -0.99988 2.23138 -0.216204 -0.790347 -0.573243
-11.4593 -7.06425 12.5245 0.36085 -0.165998 0 -0.534173 4.24125 -0.845022 1.06194 -0.0430158 -0.6673 -0.743546
-11.1761 -5.69637 5.8395 0.153615 -0.237325 -0.385073 -0.155556 4.29127 -0.384973 4.53762 -0.38488 -0.784112 0.486863
-14.9088 -3.36075 8.43425 0.00988187 -0.100148 0 -0.0888889 4.36709 -0.527912 2.89142 0.0743413 -0.974183 -0.213168
-8.68256 -6.43162 6.51638 -0.0343693 -0.247946 0 -0.155556 4.37033 0.146625 5.1267 -0.0584446 -0.72846 0.682591
-9.68125 -7.01875 11.9342 0.185112 -0.125944 0 -0.777778 4.50561 -0.71361 0.585633 -0.393483 -0.648419 -0.651709
-8.394 -5.65562 10.7829 -0.297909 0.274297 0 -0.563909 4.5418 -0.183207 0.0252201 0.495724 -0.389932 -0.776022
-15.2399 -4.01038 10.1786 0.048477 -0.104666 0.0615469 -0.0972704 4.63018 -0.428873 2.48689 0.0501641 -0.892009 -0.449225
-13.7907 -2.59575 7.293 -0.043938 0.285421 0 -0.0888889 4.67535 -0.242704 3.31534 -0.0844454 0.0670477 -0.99417
-13.5205 -4.28575 6.30813 -0.0468763 -0.429409 0.712136 -0.0888889 4.70997 0.810863 3.96514 -0.0219807 -0.0487423 0.998569
-13.3403 -7.75063 12.6695 0.488417 -0.173872 0 -0.477887 4.84066 0.309244 1.35298 -0.078355 -0.532924 -0.842527
-7.97237 -6.88225 11.0336 -0.167191 -0.250521 0 -0.777778 4.87075 0.191328 0.181228 -0.00398552 -0.120202 -0.992741
-12.3745 -3.36175 7.0435 0.259066 0.451259 0.820334 -0.0888889 4.90685 -0.0846172 3.56717 0.00283395 0.46792 -0.883766
-14.8453 -3.09875 7.2685 -0.106071 0.206375 0 -0.0888889 4.96412 0.173275 3.1762 0.063646 -0.38891 -0.919075
-9.58838 -7.17572 5.35656 -0.0720867 -0.187893 0 -0.155556 4.99044 0.200363 4.93906 -0.517527 -0.689232 0.507076
-7.71931 -4.28869 8.27731 -0.13222 0.275456 0 -0.0993076 5.00842 -0.0666502 5.69915 0.771305 -0.555214 0.311169
-10.6545 -6.58 5.099 -0.231375 -0.171581 -0.785561 -0.155556 5.03846 0.0986189 4.71818 -0.376602 -0.822101 0.426991
-7.5365 -5.956 7.0925 -0.117358 0.246763 0 -0.155556 5.18436 0.628585 5.38467 0.323885 -0.657443 0.680343
-11.6453 -4.60388 4.67525 -0.111387 0.416256 -0.441202 -0.155556 5.23075 -0.624341 4.05561 -0.344569 0.936217 -0.0690706
-11.422 -3.9135 6.5525 0.0452527 0.541252 0.661268 -0.122222 5.24765 -0.403491 3.77055 -0.16872 0.857403 -0.486204
-8.79925 -7.947 11.7245 -0.0488977 -0.161799 0 -0.777778 5.27431 0.277138 0.506746 -0.539989 -0.402606 -0.739134
-12.6186 -4.56244 4.20325 -0.116365 0.403563 0 -0.288889 5.34695 -0.571016 4.07291 0.34752 0.929517 0.123401
-8.4545 -7.223 5.8615 -0.036253 -0.256838 0 -0.155556 5.42255 0.169479 5.08484 0.0630318 -0.565168 0.822565
-15.3011 -6.19775 12.604 0.50108 -0.108928 -0.194779 -0.177778 5.43284 -0.206937 1.85053 -0.272386 -0.641142 -0.717456
-14.386 -5.0025 5.6365 0.057943 -0.2953 0 -0.288889 5.45045 -0.0728844 3.92417 0.0248452 -0.484975 0.874175
-15.803 -4.925 11.1187 -0.006921 -0.163146 -0.811647 -0.177778 5.50941 -0.25577 2.20804 0.354256 -0.763653 -0.539757
-9.599 -7.886 12.478 0.0152166 -0.149554 0 -0.777778 5.53255 -0.714466 0.640034 -0.444608 -0.470896 -0.761958
-12.2754 -6.3125 4.96178 0.037571 -0.274112 -0.160366 -0.263116 5.57338 0.0607669 4.41006 -0.0471689 -0.667561 0.743059
-14.434 -3.972 5.968 -0.105477 0.442808 0 -0.288889 5.587 0.249956 3.7985 0.435753 0.731254 0.524773
-13.759 -3.865 4.518 -0.180889 0.380778 0 -0.288889 5.60374 0.457533 3.97015 0.378846 0.906421 0.186753
-13.8022 -6.02612 5.05288 -0.0323285 -0.295384 0 -0.288889 5.62346 -0.344842 4.21366 -0.0436382 -0.470329 0.881412
-16.0777 -3.76875 8.203 0.0361967 -0.222305 0 -0.0888889 5.62656 -0.514211 2.87313 0.711117 -0.702398 -0.0308115
-7.4305 -3.96725 9.99225 -0.231811 0.226177 0 -0.0888889 5.71283 -0.0393035 5.9883 0.787945 -0.604228 -0.118537
-15.8931 -3.66613 9.317 0.0168946 -0.171033 0.787115 -0.16315 5.72406 -0.999886 2.66848 0.474484 -0.829969 -0.293286
-7.28 -5.491 11.3975 -0.283519 0.308542 -0.29028 -0.570924 5.8247 -0.0249235 0.0030365 0.646185 0.350058 -0.678163
-12.6915 -2.2385 7.26463 0.0331868 0.319733 0.0298436 -0.0888889 5.8315 0.230133 3.42977 0.235183 0.158478 -0.958944
-12.4315 -8.2485 13.1453 0.53482 -0.224544 0 -0.483678 5.89444 -0.394484 1.19935 0.145432 -0.269293 -0.952014
-13.5662 -1.33525 7.15225 -0.2458 0.235029 0 -0.0888889 5.9634 0.857317 3.29068 -0.012148 0.0802792 -0.996698
-7.484 -4.46 10.931 -0.311672 0.250423 0 -0.0888889 5.99606 -0.0841359 6.21667 0.864025 -0.387214 -0.321755
-7.252 -3.699 7.61825 -0.162745 0.271202 0 -0.11447 6.00866 -0.443783 5.69915 0.898046 -0.309276 0.312827
-7.54637 -7.93881 11.1088 -0.25574 -0.209348 -0.0228609 -0.777778 6.01244 -0.0986617 0.181228 -0.344625 -0.0752006 -0.935723
-11.3306 -3.17412 7.44688 0.137136 0.469674 0.103752 -0.0888889 6.0416 -0.73938 3.56717 0.104171 0.534159 -0.838941
-11.1847 -6.68075 4.23925 -0.0631667 -0.180851 -0.288505 -0.246484 6.05356 -0.683221 4.71818 -0.0615404 -0.835508 0.546021
-14.9106 -1.80275 7.49563 -0.306126 0.234299 0 -0.0888889 6.06247 -0.551079 3.1762 -0.00256586 0.0953149 -0.995444
-14.5334 -8.09988 12.9789 1 -0.195501 0 -0.866667 6.12175 0.0769332 1.35298 -0.416646 -0.127902 -0.900026
-15.773 -3.4955 6.645 -0.114715 -0.267621 0 -0.151249 6.1502 -0.0697984 3.1762 0.923786 -0.380056 0.0466609
-10.6558 -8.67522 13.3047 -0.123091 -0.194905 0 -0.710011 6.20328 -0.612036 0.640034 -0.176408 -0.207952 -0.9621
-6.827 -6.381 6.055 -0.162172 0.218518 0 -0.155556 6.28306 0.287709 5.38467 0.458249 -0.574756 0.677985
-16.623 -4.8675 9.69606 0.265922 -0.238281 0.0800778 -0.132375 6.32737 -0.580168 2.66848 0.79169 -0.538524 -0.288476
-10.554 -3.77 5.878 0.219659 0.455596 0.591795 -0.155556 6.35624 0.0822923 3.77055 -0.292152 0.949918 -0.110922
-8.998 -8.733 12.5118 -0.0739477 -0.147408 0 -0.777778 6.40442 -0.787732 0.640034 -0.600919 -0.349797 -0.718706
-10.3134 -7.12587 3.87275 -0.00160485 -0.140612 0 -0.155556 6.42338 -0.618643 4.71818 -0.326932 -0.806915 0.491938
-9.1585 -7.92775 4.10825 -0.00840667 -0.144911 0 -0.155556 6.50985 -0.467475 4.93906 -0.824761 -0.491524 0.279595
-15.9136 -1.95187 7.181 -0.292536 0.244267 0 -0.0888889 6.53392 -0.591677 3.1762 0.618773 0.102756 -0.77882
-8.65356 -8.44756 5.52819 0.36932 -0.296596 0 -0.866667 6.57818 0.117996 5.08484 -0.54031 0.131029 0.831202
-6.354 -6.115 11.122 -0.412697 0.272652 -0.978299 -0.777778 6.66396 0.246731 0.0030365 -0.0415489 0.60929 -0.791858
-13.456 -6.9735 4.6405 0.0106169 -0.233912 0 -0.288889 6.71315 0.669452 4.21366 -0.0476966 -0.673293 0.737836
-15.8385 -6.69825 13.663 0.586543 -0.0952718 0.523724 -0.177778 6.72155 -0.999858 1.85053 -0.370887 -0.574621 -0.729557
-7.027 -3.47463 10.7847 -0.283751 0.246026 0 -0.0888889 6.72943 0.461161 5.9883 0.95162 -0.28808 0.10691
-13.884 -3.6015 3.3775 -0.36105 0.313581 0 -0.288889 6.78094 0.520409 3.97015 0.416628 0.904626 0.0898459
-10.1385 -3.37 7.203 0.128498 0.457682 0.766552 -0.123149 6.78581 -0.614324 3.77055 -0.168293 0.772069 -0.612851
-14.8775 -6.392 4.7815 -0.0877703 -0.196033 0 -0.288889 6.79127 0.139323 4.21366 -0.0701895 -0.726398 0.68368
-6.65863 -4.65394 6.68906 -0.195179 0.269669 0 -0.155556 6.80571 0.490303 5.38467 0.800897 -0.162584 0.576308
-11.9806 -4.509 2.84575 -0.113418 0.313764 0.182902 -0.288889 6.84785 -0.951426 4.07291 -0.102244 0.924185 0.368005
-7.161 -7.0105 5.2475 -0.121971 -0.219008 0 -0.155556 6.87007 -0.99988 5.08484 0.205689 -0.463993 0.861628
-10.862 -4.18275 3.26312 0.0658053 0.288775 0.497328 -0.172978 6.89959 -0.99984 4.05561 -0.634458 0.720267 0.280495
-16.4112 -4.2905 7.04475 -0.010762 -0.264225 0.812023 -0.0888889 6.93995 -0.628653 2.87313 0.838796 -0.44615 0.312044
-7.5055 -4.67975 12.1485 -0.334287 0.308255 0 -0.777778 6.95297 -0.147937 0.0030365 0.960251 0.272999 0.0582141
-8.01056 -9.44756 11.6484 -0.0895143 -0.115177 0 -0.777778 6.97122 0.576689 0.506746 -0.471068 -0.490435 -0.73319
-15.8263 -4.70075 6.05 -0.0799593 -0.27945 0 -0.288889 6.97901 -0.469468 3.92417 0.445854 -0.386268 0.807472
-12.1716 -9.38762 13.3766 0.192425 -0.251278 -0.0349964 -0.858767 7.08551 -0.999812 1.19935 0.174566 0.148977 -0.97331
-16.9878 -6.00616 12.5084 0.16828 -0.0614085 0 -0.177778 7.13307 -0.268516 1.85053 0.0390774 -0.970228 -0.23902
-6.6155 -8.35525 10.6219 -0.427657 -0.177522 0 -0.777778 7.14249 0.566945 0.181228 -0.386293 -0.101068 -0.916822
-10.1889 -3.48463 4.00612 0.107674 0.296295 -0.170617 -0.155556 7.18563 -0.107215 4.05561 -0.656422 0.716445 0.236254
-6.4365 -2.47325 8.14738 -0.191343 0.160572 0.101381 -0.270744 7.23514 -0.539866 5.69915 0.672468 -0.735167 0.0855358
-11.4115 -2.094 7.95725 0.110277 0.327589 0.411331 -0.0888889 7.23896 -0.791854 3.42977 0.229925 0.169724 -0.958294
-14.8431 -3.23612 3.4615 -0.496063 0.293689 -0.0170664 -0.288889 7.24294 0.283203 3.97015 0.386307 0.900109 0.20142
-16.0704 -5.72713 5.64337 -0.140468 -0.251186 -0.360001 -0.537833 7.28412 -0.0838047 3.92417 0.544413 -0.522051 0.656565
-12.2655 -0.875687 7.56431 -0.164446 0.244792 0 -0.0888889 7.29045 0.0883847 3.29068 0.187454 0.110914 -0.975991
-6.71375 -2.89488 6.73688 -0.180739 0.211891 0.285931 -0.559582 7.31752 -0.999873 5.69915 0.760794 -0.448543 0.469043
-11.6713 -7.65574 3.5117 0.0416587 -0.198417 0 -0.288889 7.3638 0.216586 4.41006 0.0991495 -0.684262 0.722465
-15.4591 -7.77588 13.7755 0.861067 -0.179644 0.088854 -0.773651 7.38526 -0.734937 1.85053 -0.501152 0.0173468 -0.865186
-17.1159 -5.79738 9.5235 0.256873 -0.240855 0 -0.160835 7.39386 0.0971588 2.20804 0.853315 -0.519417 -0.0453887
-15.452 -0.5805 7.51525 -0.61469 0.180492 -0.0869372 -0.423624 7.3994 -0.759473 3.1762 0.465199 -0.210351 -0.859851
-16.5045 -2.70075 6.00325 -0.242911 0.284595 0 -0.0888889 7.40661 -0.280207 3.7985 0.742702 0.574164 -0.344571
-9.5725 -3.5915 5.43 0.176758 0.372332 0.0105221 -0.155556 7.44982 -0.63216 3.77055 -0.464457 0.867772 0.17678
-6.53719 -2.45744 9.39231 -0.179417 0.202184 0 -0.0888889 7.45671 0.0662155 5.9883 0.847407 -0.482975 0.220538
-17.401 -6.03675 11.4762 0.108734 -0.147768 0 -0.16549 7.48866 -0.137755 2.20804 0.51537 -0.855702 0.0465509
-15.4358 -9.10581 13.2952 0.96659 -0.211976 0 -0.866667 7.50965 -0.179197 1.35298 -0.419749 0.28432 -0.861959
-6.082 -5.856 5.234 -0.251662 0.209632 0 -0.155556 7.50972 -0.113728 5.38467 0.775231 -0.39143 0.495781
-6.13312 -5.95138 12.5459 -0.331803 0.284696 0 -0.777778 7.51174 0.194915 0.0030365 0.612155 0.790273 0.0270841
-6.108 -7.0885 5.339 -0.215195 0.238377 -0.347611 -0.209033 7.52007 0.375755 5.08484 0.505765 -0.0733662 0.859546
-12.9971 -3.869 2.07931 -0.316411 0.271869 0 -0.288889 7.61305 -0.371696 4.07291 0.0785487 0.850069 0.520781
-17.0427 -5.50575 8.13175 0.139628 -0.262739 0.0189671 -0.0888889 7.6149 -0.731275 2.87313 0.914394 -0.404824 0.000975317
-15.7994 -3.405 4.57062 -0.508533 0.311172 -0.441312 -0.288889 7.62132 -0.673185 3.7985 0.376037 0.897252 0.231375
-10.6073 -10.0638 12.9993 -0.544387 -0.242567 -0.00833951 -0.777778 7.62588 0.238591 1.19935 -0.00148864 0.236394 -0.971656
-14.2193 0.148031 7.53344 -0.511603 0.181595 0 -0.138524 7.62833 -0.276036 3.29068 0.311068 -0.0897668 -0.946139
-8.87138 -8.798 3.43712 -0.037866 -0.144383 0.16597 -0.323193 7.64572 -0.75587 4.93906 -0.92395 -0.306882 0.22834
-16.6407 -1.46219 6.47369 -0.342837 0.199031 0 -0.0888889 7.6603 -0.446977 3.1762 0.652655 -0.0343063 -0.756878
-13.842 -9.499 12.3448 0.385083 -0.273201 0.846334 -0.866667 7.80628 0.583064 1.19935 0.114291 0.198146 -0.973486
-7.499 -8.635 5.097 0.33105 -0.284433 0.778693 -0.866667 7.8248 -0.999859 5.08484 0.0999293 0.324846 0.940473
-17.0045 -6.579 13.7055 0.209189 -0.0373836 0.0484967 -0.177778 7.8944 0.0532711 1.85053 -0.372483 -0.798344 -0.473185
-9.14775 -3.45275 6.4815 0.0884263 0.389217 0 -0.155556 7.91906 -0.999868 3.77055 -0.424299 0.87769 -0.222778
-8.74325 -9.3785 6.50688 1 -0.383728 0 -0.866667 7.93189 0.368508 5.08484 -0.152172 0.78737 0.597405
-10.1895 -1.7585 7.98 0.158135 0.279328 0.777804 -0.092332 7.93641 -0.430465 3.42977 -0.0498677 0.218223 -0.974624
-14.219 -7.33175 3.72213 -0.132711 -0.135809 0 -0.288889 7.95972 0.291035 4.21366 -0.304906 -0.795956 0.522959
-10.3341 -8.12113 2.65438 -0.0294602 -0.150476 -0.00627541 -0.193656 7.99672 -0.738405 4.71818 -0.224374 -0.661735 0.715376
-16.4895 -7.686 14.14 0.249945 -0.142991 0 -0.866667 7.99708 0.0837004 1.85053 -0.666855 -0.076441 -0.741257
-5.00675 -6.24775 11.2708 -0.844943 0.265787 0 -0.777778 8.02589 0.999873 0.0030365 0.509801 0.844232 -0.165457
-8.95475 -10.2674 13.0433 -0.145372 -0.127559 -0.348853 -0.777778 8.02884 -0.051276 0.640034 -0.123949 -0.443875 -0.887475
-9.00331 -2.76681 7.38263 0.089845 0.319592 0.0102143 -0.0910796 8.08379 -0.999848 3.77055 -0.523093 0.557668 -0.6445
-16.272 -6.41025 4.868 -0.196917 -0.141918 -0.260354 -0.537218 8.18857 0.0206288 4.21366 0.376086 -0.90874 0.180975
-6.9755 -2.03525 11.1763 -0.53962 0.204359 0 -0.0888889 8.22202 -0.424177 5.9883 0.903387 -0.378578 0.201422
-9.11263 -9.75525 4.6195 1 -0.215151 0 -0.866667 8.23544 -0.254098 5.08484 -0.933577 0.25571 -0.251092
-8.0345 -3.90162 13.0639 -0.34589 0.268821 0 -0.403296 8.26571 -0.999898 0.0030365 0.984298 0.122821 -0.126778
-14.464 -3.4355 2.01225 -0.463573 0.255859 0 -0.288889 8.27355 -0.785165 3.97015 0.443976 0.89279 0.0762327
-5.416 -6.9125 10.082 -0.620177 0.236596 -0.0815572 -0.777778 8.27562 0.999904 0.0030365 0.141799 0.437045 -0.888192
-9.67912 -9.828 5.5365 1 -0.291569 0 -0.866667 8.2979 0.566714 5.08484 -0.844706 0.531658 -0.0617379
-16.9635 -5.543 7.033 -0.11205 -0.268403 0.573641 -0.0888889 8.30887 -0.596404 2.87313 0.878562 -0.357826 0.316369
-15.898 -2.83406 3.49378 -0.792447 0.267331 -0.103414 -0.288889 8.37232 0.277896 3.97015 0.353092 0.894191 0.275223
-12.5632 -8.0855 3.22875 0.0449793 -0.151105 0 -0.288889 8.39348 0.492839 4.21366 -0.084792 -0.792755 0.603614
-6.201 -9.53975 10.9015 -0.306467 -0.0936647 0 -0.777778 8.42819 0.628321 0.181228 -0.254556 -0.574097 -0.778212
-5.3985 -8.935 10.466 -0.507123 0.136521 -0.0242467 -0.777778 8.49951 0.563827 0.181228 0.0789629 -0.355943 -0.931166
-8.97525 -2.8485 4.96088 0.057925 0.269903 0 -0.155556 8.51228 -0.59546 3.77055 -0.757951 0.485499 0.435662
-11.0706 -3.27513 1.93788 -0.0187583 -0.224452 0.497521 -0.198075 8.51933 -0.999863 4.07291 -0.447944 0.440279 0.778139
-6.16512 -6.86163 4.35112 -0.245605 0.238147 0 -0.252573 8.53527 -0.807917 5.08484 0.916988 0.10264 0.385484
-5.6815 -6.7075 13.118 -0.419483 0.255699 0 -0.777778 8.56197 -0.556046 0.0030365 0.7286 0.643848 0.233669
-5.74638 -3.5895 5.62288 -0.309303 0.190755 -0.640861 -0.777778 8.56695 -0.610421 5.38467 0.414054 -0.362659 0.834888
-18.333 -6.3345 12.108 0.091576 -0.113681 -0.120039 -0.0912609 8.57449 0.282037 1.85053 0.250826 -0.908366 0.3346
-10.317 -2.726 2.6115 0.071584 -0.19708 0.580483 -0.155556 8.58594 -0.606003 4.05561 -0.812432 0.208543 0.544485
-11.0495 -1.1615 8.012 0.0769557 0.191974 0.970118 -0.155402 8.61739 -0.608119 3.29068 0.0236771 -0.296033 -0.954884
-16.8978 -2.712 4.73 -0.461127 0.266524 -0.314812 -0.178804 8.61859 -0.161105 3.7985 0.508377 0.854592 -0.105947
-7.29313 -10.458 12.7794 -0.092495 -0.0497643 0 -0.777778 8.64897 -0.223863 0.506746 -0.312423 -0.761019 -0.568543
-15.5855 -6.97237 3.164 -0.206872 -0.132959 0 -0.288889 8.64987 -0.749771 4.21366 -0.133444 -0.768976 0.625195
-17.4675 -6.8385 8.893 0.0557223 -0.20606 0 -0.0888889 8.66078 0.738786 2.20804 0.745376 -0.6652 0.0438689
-11.309 0.07625 7.26963 -0.344533 0.11188 -0.627789 -0.146431 8.67173 -0.0390163 3.29068 -0.445222 -0.429142 -0.785884
-17.3774 -1.5455 5.76562 -0.288092 0.20649 0 -0.0888889 8.6855 -0.323729 3.1762 0.666004 0.274949 -0.693428
-5.48675 -2.224 6.57375 -0.152923 0.116301 0.617498 -1 8.72544 -0.999849 5.69915 0.223633 -0.842403 0.49025
-17.8043 -6.68175 10.2825 0.213745 -0.162378 0 -0.0888889 8.74741 0.461547 2.20804 0.530315 -0.818463 0.221099
-5.19088 -1.72544 8.605 -0.0791627 0.119633 0.0605141 -1 8.75837 0.155321 5.9883 0.30926 -0.818922 0.483451
-9.38138 -2.10737 3.8075 0.148901 -0.19086 0.0249673 -0.155556 8.79448 -0.518457 4.05561 -0.834202 0.0522929 0.548974
-17.37 -6.47 7.5005 -0.192306 -0.229591 -0.747237 -0.695038 8.81297 0.15415 2.87313 0.832502 -0.537503 0.13428
-12.9963 -10.7945 12.6664 -0.0510023 -0.267607 0.0462799 -0.793793 8.86422 -0.562432 1.19935 0.319079 0.427744 -0.845709
-5.0105 -7.93713 10.1431 -0.610397 0.171046 -0.265368 -0.777778 8.86878 0.819817 0.0030365 0.313492 -0.138305 -0.939465
-14.2961 1.2665 6.91937 -0.935613 0.151168 -0.103115 -0.777778 8.90659 -0.0801709 3.29068 0.772764 -0.433906 -0.463208
-7.6525 -2.56888 12.6812 -0.423353 0.203634 0 -0.283502 8.92222 -0.765651 5.9883 0.916298 -0.38812 0.0988016
-5.88919 -8.47812 5.37075 -0.39936 -0.26262 -0.912138 -0.288889 8.92717 -0.22549 5.08484 0.147833 0.640262 0.753797
-9.55925 -1.01425 7.739 0.266503 0.129259 0.164587 -0.155556 8.941 -0.669957 3.42977 -0.23093 -0.474048 -0.849676
-17.048 -7.02975 6.08975 -0.476217 -0.209959 0 -0.777778 8.97284 0.635334 3.92417 0.706083 -0.625624 0.331724
-10.486 -11.3888 12.7402 -0.537483 -0.198014 -0.133567 -0.777778 8.98141 0.266172 1.19935 0.450092 -0.105326 -0.886749
-5.8955 -1.05825 9.311 -0.110844 0.158865 0 -1 8.99817 -0.862406 5.9883 0.571229 -0.575277 0.585452
-15.6175 0.50825 6.33125 -1 0.121577 -0.769978 -0.777778 9.01638 0.0336001 3.29068 0.485357 -0.573782 -0.659699
-16.891 -8.604 14.5685 0.296941 0.165152 0 -0.866667 9.08682 -0.637084 1.85053 -0.911108 0.276913 -0.30529
-6.0475 -10.2502 11.8706 -0.425407 -0.0486637 -0.0698766 -0.777778 9.10364 -0.0632294 0.506746 -0.220518 -0.792602 -0.568467
-6.73138 -5.40644 14.0201 -0.254694 0.248011 0 -0.777778 9.10476 -0.369888 0.0030365 0.83643 0.505617 -0.211507
-6.721 -9.4495 5.7075 0.267663 -0.271556 -0.130503 -0.690547 9.10598 -0.36401 5.08484 0.0395619 0.537671 0.842226
-11.7086 -11.227 12.6416 -0.43896 -0.259369 -0.835421 -0.777778 9.11969 -0.400173 1.19935 0.155044 0.504703 -0.849256
-12.1451 -2.76075 1.5005 -0.316161 -0.206591 0 -0.0888889 9.12605 -0.235917 4.07291 -0.329884 0.338372 0.881295
-8.30062 -2.6835 6.06038 0.0301148 0.269728 0 -0.155556 9.13491 -0.908238 3.77055 -0.837671 0.537144 0.0989084
-16.9587 -9.418 13.788 0.235878 -0.184271 0 -0.866667 9.14046 0.382773 1.35298 -0.698075 0.434666 -0.568996
-15.4955 -2.53737 1.771 -0.526947 -0.224587 -0.0972404 -0.699224 9.18502 -0.0614897 3.97015 0.535996 0.683841 0.495046
-14.4952 -7.95725 2.686 -0.103135 -0.162222 0 -0.25878 9.20113 -0.38172 4.21366 -0.120823 -0.588424 0.799474
-14.5136 -10.6986 12.1084 0.0093171 -0.262649 -0.611101 -0.794638 9.20126 0.104646 1.19935 -0.118791 0.560971 -0.819268
-12.7895 0.915125 8.0455 -0.514913 0.15822 -0.189244 -0.101661 9.2174 -0.999852 3.29068 -0.111429 -0.0630831 -0.991768
-15.3629 -10.7626 12.8304 0.136983 -0.236165 -0.394883 -0.790553 9.23195 -0.999862 1.35298 -0.332311 0.671036 -0.662782
-9.47269 -9.347 2.07006 0.115462 -0.163911 -0.104479 -0.155556 9.23689 -0.999883 4.93906 -0.585631 -0.194416 0.786917
-19.1028 -6.053 12.8455 0.0926913 -0.0828326 -0.218172 -0.149494 9.27528 -0.584342 1.85053 0.136644 -0.958058 0.251901
-12.0726 -8.92737 2.13425 0.123345 -0.144553 0 -0.288889 9.28094 -0.302842 4.41006 -0.233982 -0.619553 0.749271
-16.6895 -6.5235 3.8545 -0.247934 -0.129499 -0.0845656 -0.266918 9.29053 -0.999905 4.21366 0.290408 -0.875042 0.387254
-8.5275 -1.687 7.64075 0.0827447 0.177462 0 -0.120573 9.29169 -0.999906 3.77055 -0.541718 -0.0870591 -0.83604
-14.211 -3.36625 1.02675 -0.507997 -0.227919 0 -0.308649 9.29336 -0.848007 3.97015 0.253913 0.76743 0.58871
-8.00075 -10.0413 7.45125 0.626277 -0.335833 0.474991 -0.866667 9.30391 0.999899 5.08484 0.249761 0.506844 0.825063
-8.89669 -10.5161 3.43131 0.516163 -0.196719 0 -0.773862 9.36401 -0.999879 5.08484 -0.913577 0.395687 0.0938591
-7.594 -3.0975 13.7507 -0.63226 0.19435 0 -0.777778 9.41128 -0.772884 0.0030365 0.834951 -0.161957 -0.525953
-16.8458 -10.3915 13.2823 0.230086 -0.226129 0 -0.901769 9.41786 -0.277064 1.35298 -0.0914488 0.806767 -0.58375
-18.6523 -6.01937 14.132 0.176105 -0.0438364 0 0.0998822 9.45833 -0.501133 1.85053 0.0278223 -0.975824 -0.216778
-8.79275 -11.3438 13.9897 -0.174024 -0.123588 -0.196536 -0.888956 9.47125 -0.943984 0.640034 0.194507 -0.423554 -0.884742
-4.095 -7.37775 11.1405 -0.562967 0.212154 -0.669121 -0.777778 9.48368 0.779532 0.0030365 0.872241 0.339314 -0.352223
-9.34175 -10.4634 7.45062 0.734227 -0.304098 0.392256 -0.866667 9.4894 0.999891 5.08484 -0.586877 0.217069 0.780036
-19.261 -6.84125 11.6965 -0.243992 -0.1157 0 -0.0888889 9.52712 0.277998 2.20804 0.368084 -0.864345 0.342669
3 102 158 154
3 102 154 113
3 44 97 81
3 97 168 131
3 97 131 81
3 81 131 153
3 153 125 81
3 50 76 47
3 76 125 140
3 195 91 121
3 107 91 148
3 148 199 107
3 148 91 186
3 91 107 45
3 102 45 107
3 43 91 45
3 8 27 13
3 113 86 51
3 44 81 50
3 22 47 36
3 62 36 47
3 76 100 47
3 76 140 100
3 194 179 108
3 101 64 108
3 108 127 101
3 45 12 43
3 43 12 30
3 30 12 19
3 13 3 8
3 13 17 3
3 11 6 2
3 10 36 34
3 34 42 24
3 24 42 67
3 42 34 74
3 74 137 123
3 34 72 74
3 137 74 133
3 108 119 182
3 119 56 90
3 56 64 30
3 21 30 19
3 19 7 21
3 7 19 12
3 1 7 4
3 12 4 7
3 7 1 9
3 40 14 31
3 5 1 0
3 6 16 5
3 15 6 10
3 15 10 37
3 37 10 24
3 35 15 37
3 59 94 35
3 67 111 109
3 106 132 78
3 78 165 87
3 110 87 174
3 152 129 88
3 115 129 169
3 115 90 66
3 46 21 25
3 40 60 88
3 60 31 75
3 75 92 60
3 26 14 16
3 26 31 14
3 16 14 5
3 92 163 142
3 128 75 110
3 88 141 173
3 141 88 92
3 92 88 60
3 78 52 106
3 106 52 35
3 106 94 159
3 159 94 157
3 93 160 149
3 69 93 38
3 93 85 38
3 79 41 112
3 171 164 116
3 57 116 98
3 32 55 61
3 150 167 124
3 38 39 69
3 61 39 32
3 114 48 49
3 114 96 139
3 96 79 135
3 180 139 96
3 151 114 139
3 104 151 156
3 104 118 73
3 153 181 125
3 138 113 161
3 138 161 168
3 161 113 154
3 86 138 97
3 86 97 89
3 89 97 44
3 168 97 138
3 131 188 153
3 181 140 125
3 101 127 77
3 43 77 91
3 121 91 77
3 121 77 127
3 68 45 102
3 27 20 45
3 20 27 8
3 27 45 68
3 23 13 27
3 23 27 53
3 23 53 51
3 51 53 68
3 51 68 113
3 68 53 27
3 102 113 68
3 33 23 65
3 51 65 23
3 44 48 89
3 89 48 65
3 89 65 86
3 86 65 51
3 13 23 33
3 13 33 17
3 29 48 44
3 18 2 17
3 18 29 44
3 47 18 50
3 50 18 44
3 22 18 47
3 34 36 71
3 71 36 62
3 71 62 100
3 72 34 71
3 100 126 71
3 71 126 72
3 64 101 77
3 64 77 43
3 30 64 43
3 8 4 12
3 8 12 20
3 20 12 45
3 3 4 8
3 11 18 22
3 18 11 2
3 6 11 10
3 10 11 22
3 10 22 36
3 111 67 84
3 42 84 67
3 175 120 123
3 123 120 74
3 74 120 84
3 74 84 42
3 84 120 111
3 111 120 175
3 111 175 166
3 133 74 72
3 133 72 117
3 117 72 126
3 185 192 117
3 185 117 126
3 117 192 133
3 184 194 108
3 182 184 108
3 162 182 119
3 176 162 90
3 90 162 119
3 21 66 56
3 56 66 90
3 56 30 21
3 7 9 21
3 25 14 40
3 14 9 5
3 9 14 25
3 9 25 21
3 16 6 15
3 34 24 10
3 52 16 35
3 35 16 15
3 59 35 82
3 99 94 59
3 157 94 99
3 59 82 99
3 147 157 99
3 82 147 99
3 109 147 82
3 109 111 145
3 166 145 111
3 58 52 78
3 110 75 54
3 110 54 87
3 87 54 58
3 87 58 78
3 193 174 134
3 174 87 134
3 193 134 165
3 87 165 134
3 169 129 196
3 70 88 129
3 66 70 129
3 66 129 115
3 21 46 66
3 46 25 40
3 54 26 58
3 26 54 31
3 31 54 75
3 16 52 58
3 16 58 26
3 173 152 88
3 159 170 106
3 46 40 70
3 88 70 40
3 66 46 70
3 116 183 98
3 98 183 155
3 150 98 155
3 124 189 130
3 167 189 124
3 122 130 178
3 105 178 143
3 93 69 105
3 93 105 143
3 93 143 160
3 38 85 83
3 38 83 41
3 41 83 112
3 83 85 144
3 149 144 85
3 149 85 93
3 83 144 112
3 112 144 177
3 135 79 112
3 135 190 180
3 112 190 135
3 73 103 63
3 63 103 116
3 116 103 171
3 171 103 73
3 171 73 118
3 18 48 29
3 32 17 28
3 32 28 55
3 55 95 61
3 61 95 124
3 95 55 98
3 150 124 98
3 98 124 95
3 69 39 80
3 80 39 61
3 80 61 124
3 105 69 122
3 105 122 178
3 130 122 80
3 130 80 124
3 80 122 69
3 32 18 17
3 18 32 39
3 18 39 38
3 38 41 18
3 18 41 49
3 48 18 49
3 151 48 114
3 151 104 48
3 65 73 33
3 33 73 63
3 104 73 65
3 104 65 48
3 33 63 28
3 33 28 17
3 81 125 76
3 81 76 50
3 186 91 195
3 102 107 158
3 199 158 107
3 113 138 86
3 100 140 187
3 179 172 127
3 179 127 108
3 108 64 119
3 56 119 64
3 3 2 0
3 3 0 4
3 4 0 1
3 1 5 9
3 3 17 2
3 2 6 0
3 5 0 6
3 37 82 35
3 67 37 24
3 37 67 82
3 191 123 198
3 165 78 132
3 90 115 176
3 176 115 169
3 31 60 40
3 35 94 106
3 82 67 109
3 197 163 136
3 197 136 128
3 128 136 75
3 136 163 92
3 75 136 92
3 110 174 146
3 142 141 92
3 55 57 98
3 28 57 55
3 41 79 49
3 114 49 96
3 96 49 79
3 135 180 96
3 156 118 104
3 28 63 57
3 57 63 116
3 62 47 100
