ply
format ascii 1.0
comment Generated by PyMesh
element vertex 200
property float x
property float y
property float z
property float charge
property float ddc
property float hbond
property float hphob
property float rho
property float si
property float theta
property float nx
property float ny
property float nz
element face 330
property list uchar int vertex_indices
end_header
-18.4643 -7.255 7.23925 -0.370103 0 -0.530836 -0.632871 1e-08 -0.443081 2.22045e-16 0.51067 -0.841295 0.17731
-19.3284 -7.98259 6.64594 -0.32721 0.271852 0.000629393 -0.778167 1.27596 -0.0266087 2.22045e-16 0.400781 -0.916003 0.0177111
-17.37 -6.47 7.5005 -0.192306 0.191163 -0.747237 -0.695038 1.37185 0.15415 2.95726 0.832502 -0.537503 0.13428
-18.6239 -7.34106 8.705 0.0570087 0.106036 0 -0.0888889 1.47692 0.0479925 4.56323 0.53879 -0.830792 0.139607
-17.9305 -7.7 5.6845 -0.513793 0.150609 0 -0.777778 1.703 0.787553 1.17635 0.473958 -0.878643 0.0578875
-17.048 -7.02975 6.08975 -0.476217 -0.114021 0 -0.777778 1.83793 0.635334 1.94817 0.706083 -0.625624 0.331724
-17.4675 -6.8385 8.893 0.0557223 -0.0800793 0 -0.0888889 1.97534 0.738786 3.79846 0.745376 -0.6652 0.0438689
-16.9635 -5.543 7.033 -0.11205 0.20239 0.573641 -0.0888889 2.4868 -0.596404 2.70079 0.878562 -0.357826 0.316369
-17.0427 -5.50575 8.13175 0.139628 0.183339 0.0189671 -0.0888889 2.56992 -0.731275 3.16515 0.914394 -0.404824 0.000975317
-19.3487 -8.19125 5.2865 -0.36462 0.283065 0 -0.777778 2.65147 0.64919 0.525114 0.123666 -0.9825 -0.139282
-19.3347 -7.254 9.89163 0.152654 0.0862336 0.287924 -0.63516 2.86289 -0.651943 4.61475 0.48933 -0.816662 0.305973
-20.1338 -8.74375 7.88375 0.118923 0.166484 0 -1 2.93735 0.766052 5.5415 0.446913 -0.885445 -0.127498
-20.8832 -8.26775 5.65475 -0.328951 0.196766 -0.121059 -0.777778 3.14175 -0.165529 0.0855056 0.241635 -0.944963 -0.220583
-17.1159 -5.79738 9.5235 0.256873 0.116671 0 -0.160835 3.24226 0.0971588 3.63213 0.853315 -0.519417 -0.0453887
-17.8043 -6.68175 10.2825 0.213745 0.0528739 0 -0.0888889 3.37296 0.461547 4.07213 0.530315 -0.818463 0.221099
-17.5072 -7.0805 4.16025 -0.244737 0.0461042 -0.0570109 -0.462858 3.40191 -0.31715 1.36333 0.551357 -0.826133 0.116228
-16.272 -6.41025 4.868 -0.196917 -0.100227 -0.260354 -0.537218 3.4123 0.0206288 1.86062 0.376086 -0.90874 0.180975
-21.3472 -8.6665 6.9135 -0.0288818 0.183457 0 -1 3.42419 -0.410649 5.94804 0.279968 -0.926246 -0.252362
-16.0704 -5.72713 5.64337 -0.140468 -0.170006 -0.360001 -0.537833 3.52665 -0.0838047 2.19777 0.544413 -0.522051 0.656565
-20.1845 -8.6605 9.077 0.175931 0.0874353 0 -1 3.55413 0.901947 5.16799 0.476436 -0.824735 0.304665
-18.504 -7.66988 3.92006 -0.246476 0.165487 0 -0.773431 3.55855 0.0743183 1.01554 0.180183 -0.982802 0.0404267
-19.9748 -7.73325 4.382 -0.56974 0.239228 -0.194228 -0.777778 3.84306 -0.325348 0.555212 0.0252994 -0.972989 -0.22946
-16.4112 -4.2905 7.04475 -0.010762 0.10298 0.812023 -0.0888889 3.85572 -0.628653 2.72595 0.838796 -0.44615 0.312044
-20.3315 -7.74131 10.5953 0.199796 0.0649409 0.0211574 -0.577367 4.17675 -0.0744587 4.78835 0.524645 -0.768145 0.367016
-16.623 -4.8675 9.69606 0.265922 -0.129834 0.0800778 -0.132375 4.30875 -0.580168 3.4399 0.79169 -0.538524 -0.288476
-21.5298 -9.17 7.988 0.0304505 0.168666 0 -1 4.40069 0.691841 5.62814 0.129959 -0.990607 -0.042527
-16.6895 -6.5235 3.8545 -0.247934 -0.117568 -0.0845656 -0.266918 4.43746 -0.999905 1.60553 0.290408 -0.875042 0.387254
-16.0777 -3.76875 8.203 0.0361967 0.0457504 0 -0.0888889 4.55826 -0.514211 2.98564 0.711117 -0.702398 -0.0308115
-15.8263 -4.70075 6.05 -0.0799593 -0.198748 0 -0.288889 4.65731 -0.469468 2.40922 0.445854 -0.386268 0.807472
-22.078 -8.56275 4.7525 0.00291981 0.0756977 0.351184 -0.808636 4.66773 -0.266633 0.0504758 0.570463 -0.803747 -0.169007
-19.261 -6.84125 11.6965 -0.243992 0.0812567 0 -0.0888889 4.71582 0.277998 4.38849 0.368084 -0.864345 0.342669
-22.384 -8.9035 5.78675 0.110245 0.0966699 0.189878 -0.931638 4.77699 0.265778 6.13414 0.320707 -0.94714 -0.00852864
-17.401 -6.03675 11.4762 0.108734 -0.0484841 0 -0.16549 4.78844 -0.137755 3.98964 0.51537 -0.855702 0.0465509
-21.3273 -8.8025 9.55481 0.264206 0.123275 0 -1 4.80091 -0.0240967 5.23147 0.2227 -0.958482 0.178095
-14.8775 -6.392 4.7815 -0.0877703 -0.203029 0 -0.288889 4.8096 0.139323 1.97571 -0.0701895 -0.726398 0.68368
-22.7266 -9.01175 6.79588 -0.199122 0.171743 0 -1 4.85099 0.256502 6.07743 -0.0582471 -0.99656 -0.0589609
-16.6373 -7.33638 3.0085 -0.150963 -0.162699 0 -0.155556 4.86777 -0.415263 1.41332 0.229484 -0.609191 0.759094
-18.2409 -8.0865 2.63013 -0.181489 -0.198404 0 -0.155556 4.93939 -0.122252 1.05429 -0.178788 -0.814894 0.551346
-15.773 -3.4955 6.645 -0.114715 0.0976131 0 -0.151249 4.95077 -0.0697984 2.67158 0.923786 -0.380056 0.0466609
-19.2633 -7.63963 2.67156 -0.203143 0.209463 0 -0.777778 5.02013 -0.401501 0.870924 -0.292112 -0.938389 0.184654
-21.2822 -7.69037 3.86944 -0.210869 0.0893893 0 -0.777778 5.06006 -0.746784 0.351471 0.462464 -0.873277 -0.153346
-15.5855 -6.97237 3.164 -0.206872 -0.184436 0 -0.288889 5.33346 -0.749771 1.64362 -0.133444 -0.768976 0.625195
-14.386 -5.0025 5.6365 0.057943 -0.200779 0 -0.288889 5.36032 -0.0728844 2.24607 0.0248452 -0.484975 0.874175
-15.803 -4.925 11.1187 -0.006921 -0.145297 -0.811647 -0.177778 5.4849 -0.25577 3.62994 0.354256 -0.763653 -0.539757
-15.8931 -3.66613 9.317 0.0168946 -0.101997 0.787115 -0.16315 5.6921 -0.999886 3.19758 0.474484 -0.829969 -0.293286
-14.9088 -3.36075 8.43425 0.00988187 -0.135807 0 -0.0888889 5.81773 -0.527912 3.02383 0.0743413 -0.974183 -0.213168
-20.79 -7.24388 12.0931 0.140248 0.0254647 0 -0.610956 5.82024 -0.22274 4.65094 0.580424 -0.770568 0.263312
-18.333 -6.3345 12.108 0.091576 0.0966105 -0.120039 -0.0912609 5.85042 0.282037 4.18224 0.250826 -0.908366 0.3346
-20.5355 -7.3585 2.45875 -0.197638 0.125438 0 -0.777778 5.88112 -0.725604 0.715796 0.0744875 -0.996569 0.0360829
-16.9878 -6.00616 12.5084 0.16828 -0.137978 0 -0.177778 5.90069 -0.268516 3.98516 0.0390774 -0.970228 -0.23902
-13.8022 -6.02612 5.05288 -0.0323285 -0.197055 0 -0.288889 5.97741 -0.344842 2.04218 -0.0436382 -0.470329 0.881412
-15.2399 -4.01038 10.1786 0.048477 -0.161015 0.0615469 -0.0972704 6.00594 -0.428873 3.19758 0.0501641 -0.892009 -0.449225
-21.7401 -8.90375 10.7118 0.347503 0.0676594 0 -1 6.00678 0.945378 5.23147 0.36967 -0.912761 0.173817
-23.3092 -8.954 7.83125 0.126326 0.189627 0 -1 6.04042 0.406413 6.07743 -0.269986 -0.961625 -0.0488332
-17.1569 -8.38313 2.722 -0.173604 -0.244272 0 -0.155556 6.06699 0.238235 1.05429 -0.185857 -0.384039 0.904418
-23.6082 -9.08744 5.33644 0.150248 0.173826 0 -0.777778 6.09429 0.298718 6.13414 -0.315602 -0.883558 0.346006
-14.8453 -3.09875 7.2685 -0.106071 0.232081 0 -0.0888889 6.13685 0.173275 2.67158 0.063646 -0.38891 -0.919075
-16.5045 -2.70075 6.00325 -0.242911 0.274742 0 -0.0888889 6.20717 -0.280207 2.67158 0.742702 0.574164 -0.344571
-19.0576 -8.329 1.66288 -0.200937 -0.212098 0 -0.155556 6.22833 -0.464996 0.870924 -0.427405 -0.602682 0.673869
-14.434 -3.972 5.968 -0.105477 0.285348 0 -0.288889 6.23094 0.249956 2.24607 0.435753 0.731254 0.524773
-20.046 -7.609 1.613 -0.255855 -0.150958 0 -0.603587 6.33698 -0.999889 0.715796 -0.121794 -0.818928 0.560824
-23.2131 -9.617 4.12425 0.316998 0.0687205 0.452161 -0.777778 6.33944 0.788439 0.0504758 0.320447 -0.946932 0.0251881
-13.456 -6.9735 4.6405 0.0106169 -0.162339 0 -0.288889 6.3519 0.669452 2.04218 -0.0476966 -0.673293 0.737836
-15.8403 -8.4775 2.45913 -0.184729 -0.200091 -0.0665696 -0.155556 6.36415 -0.532228 1.41332 0.0810591 -0.22859 0.970142
-14.219 -7.33175 3.72213 -0.132711 -0.18751 0 -0.288889 6.37133 0.291035 1.64362 -0.304906 -0.795956 0.522959
-20.213 -6.25775 13.0215 0.18907 0.0570657 0 -0.80846 6.44857 -0.856385 4.65094 0.370986 -0.88433 0.283425
-21.5387 -7.78562 2.19894 -0.28386 -0.0481154 -0.221223 -0.777778 6.529 -0.999796 0.715796 0.458907 -0.820659 0.340475
-15.9136 -1.95187 7.181 -0.292536 0.21359 0 -0.0888889 6.59084 -0.591677 2.67158 0.618773 0.102756 -0.77882
-13.5205 -4.28575 6.30813 -0.0468763 -0.21932 0.712136 -0.0888889 6.66948 0.810863 2.24607 -0.0219807 -0.0487423 0.998569
-21.936 -7.92137 12.5278 0.265757 0.0333973 0 -1 6.69497 -0.340597 4.65094 0.511917 -0.808369 0.290657
-23.27 -9.02525 9.075 0.108075 0.146902 0 -1 6.81434 0.324712 5.23147 -0.0507863 -0.993967 -0.0972104
-13.9991 -3.79312 8.62912 0.20013 -0.219097 0 -0.0888889 6.84363 -0.509045 3.02383 -0.539987 -0.798588 -0.265839
-14.4952 -7.95725 2.686 -0.103135 -0.167927 0 -0.25878 6.87853 -0.38172 1.64362 -0.120823 -0.588424 0.799474
-19.1028 -6.053 12.8455 0.0926913 0.100083 -0.218172 -0.149494 6.95302 -0.584342 4.18224 0.136644 -0.958058 0.251901
-24.621 -8.069 6.5915 0.169666 0.238578 0.651074 -1 6.97686 0.379095 6.07743 -0.816496 -0.575508 0.0461055
-14.4446 -4.32575 10.8495 -0.113263 -0.186003 -0.487567 -0.132564 6.99381 -0.99988 3.62994 -0.216204 -0.790347 -0.573243
-24.3805 -8.4235 5.5625 0.104751 0.227747 0 -0.777778 7.13754 -0.0931875 6.13414 -0.746378 -0.578982 0.328176
-12.6431 -4.67812 5.88588 -0.0220906 -0.278318 0.162576 -0.25208 7.1506 -0.0594895 2.24607 -0.562668 0.507152 0.652841
-17.0045 -6.579 13.7055 0.209189 -0.181946 0.0484967 -0.177778 7.2279 0.0532711 3.98516 -0.372483 -0.798344 -0.473185
-13.7907 -2.59575 7.293 -0.043938 0.24076 0 -0.0888889 7.30552 -0.242704 2.67158 -0.0844454 0.0670477 -0.99417
-22.7065 -8.91387 2.63675 -0.172826 0.0353636 0 -0.777778 7.30619 -0.0757269 0.351471 0.480136 -0.869231 0.117929
-22.8943 -9.02575 11.4333 0.362197 0.0895338 0 -1 7.37339 0.631109 5.23147 0.150304 -0.942415 0.298769
-18.558 -9.4 1.56025 -0.109215 -0.208727 0 -0.155556 7.41458 0.462526 0.870924 -0.479985 -0.553648 0.680506
-14.9106 -1.80275 7.49563 -0.306126 0.24073 0 -0.0888889 7.45422 -0.551079 2.67158 -0.00256586 0.0953149 -0.995444
-13.621 -3.619 7.156 -0.00765367 -0.259051 0 -0.0888889 7.47185 0.26688 2.67158 -0.581425 -0.365319 -0.726971
-24.5791 -8.30962 8.16063 0.4171 0.240826 0.110137 -1 7.50205 0.479351 6.07743 -0.825595 -0.561846 -0.052172
-15.3011 -6.19775 12.604 0.50108 -0.20308 -0.194779 -0.177778 7.50428 -0.206937 3.98516 -0.272386 -0.641142 -0.717456
-12.2754 -6.3125 4.96178 0.037571 -0.138167 -0.160366 -0.263116 7.5335 0.0607669 2.04218 -0.0471689 -0.667561 0.743059
-16.6407 -1.46219 6.47369 -0.342837 0.188198 0 -0.0888889 7.53905 -0.446977 2.67158 0.652655 -0.0343063 -0.756878
-16.8978 -2.712 4.73 -0.461127 0.298379 -0.314812 -0.178804 7.53983 -0.161105 2.67158 0.508377 0.854592 -0.105947
-15.8385 -6.69825 13.663 0.586543 -0.196803 0.523724 -0.177778 7.67072 -0.999858 3.98516 -0.370887 -0.574621 -0.729557
-17.3774 -1.5455 5.76562 -0.288092 0.220207 0 -0.0888889 7.67449 -0.323729 2.67158 0.666004 0.274949 -0.693428
-20.324 -6.3865 14.3372 0.221022 -0.0669024 0 1 7.7752 -0.999791 4.65094 0.499942 -0.811387 -0.302835
-13.6006 -5.50238 11.3686 0.099116 -0.204872 0 -0.0888889 7.77539 -0.327554 3.62994 -0.430903 -0.636383 -0.639796
-24.7594 -9.37162 4.1245 0.135141 0.147451 0 -0.777778 7.78982 0.84082 6.13414 -0.40853 -0.884444 0.225528
-13.5747 -4.53587 9.77962 0.055301 -0.228469 0 -0.0888889 7.79709 -0.568209 3.02383 -0.68619 -0.688193 -0.235655
-23.4648 -9.215 10.282 0.315044 0.1364 0 -1 7.81127 0.839958 5.23147 -0.116334 -0.992464 -0.0384874
-20.4631 -8.78963 0.798563 -0.236994 -0.139696 -0.153739 -0.252353 7.83069 -0.575195 0.715796 0.0143915 -0.530912 0.847305
-13.759 -3.865 4.518 -0.180889 0.259857 0 -0.288889 7.83393 0.457533 2.24607 0.378846 0.906421 0.186753
-16.7653 -10.1103 2.37981 -0.480837 -0.20389 -0.958571 -0.155556 7.87075 0.578546 1.05429 -0.30756 -0.480808 0.821115
-24.227 -9.4145 2.994 0.047374 0.120893 0 -0.777778 7.87126 0.34692 0.0504758 -0.120998 -0.964993 -0.232697
-21.5989 -7.74388 13.9134 0.105045 -0.0558223 -0.0787328 -0.922018 7.87397 -0.280303 4.65094 0.659801 -0.707421 -0.253412
-24.3194 -8.68213 9.49525 0.312904 0.211873 0 -1 7.99569 0.446673 6.07743 -0.684471 -0.726125 -0.0651303
-13.6023 -8.52875 2.33363 0.0297721 -0.123175 0 -0.288889 7.99569 -0.301481 1.64362 0.035108 -0.659049 0.75128
-24.6915 -7.5625 7.4935 0.248663 0.286157 0.322389 -1 8.01373 -0.0937854 6.07743 -0.984202 -0.106551 -0.141396
-15.452 -0.5805 7.51525 -0.61469 0.158489 -0.0869372 -0.423624 8.07592 -0.759473 2.67158 0.465199 -0.210351 -0.859851
-25.3088 -8.56675 4.445 0.166744 0.201053 0 -0.777778 8.08372 0.999828 6.13414 -0.794798 -0.433744 0.424456
-18.6523 -6.01937 14.132 0.176105 -0.110518 0 0.0998822 8.22595 -0.501133 3.98516 0.0278223 -0.975824 -0.216778
-23.2985 -8.6565 12.6355 0.145161 0.117004 0 -1 8.24687 0.171649 4.65094 -0.149108 -0.988821 -0.000164651
-12.5632 -8.0855 3.22875 0.0449793 -0.121144 0 -0.288889 8.25634 0.492839 2.04218 -0.084792 -0.792755 0.603614
-15.7994 -3.405 4.57062 -0.508533 0.307541 -0.441312 -0.288889 8.26526 -0.673185 2.24607 0.376037 0.897252 0.231375
-14.21 -9.5545 2.14062 0.252646 -0.133642 0.170616 -0.155556 8.34386 0.0372185 1.64362 0.329138 -0.270365 0.904749
-24.7237 -6.64975 6.4585 0.206704 0.26975 0.622314 -1 8.40602 -0.69256 6.07743 -0.96535 -0.20611 0.160054
-12.6915 -2.2385 7.26463 0.0331868 0.195059 0.0298436 -0.0888889 8.46166 0.230133 2.67158 0.235183 0.158478 -0.958944
-22.128 -9.477 1.406 -0.456907 -0.0826148 -0.0859736 -0.777778 8.48777 0.234808 0.715796 0.336244 -0.67461 0.657146
-13.1315 -5.173 8.925 0.0186621 -0.248713 0 -0.0888889 8.50023 0.513889 3.02383 -0.755563 -0.598811 -0.265611
-16.4895 -7.686 14.14 0.249945 -0.241005 0 -0.866667 8.52384 0.0837004 3.98516 -0.666855 -0.076441 -0.741257
-18.6789 -9.966 0.587 -0.0506543 -0.163841 0 -0.155556 8.54691 -0.582681 0.870924 -0.359964 -0.585225 0.726593
-11.6713 -7.65574 3.5117 0.0416587 -0.102777 0 -0.288889 8.57108 0.216586 2.04218 0.0991495 -0.684262 0.722465
-13.5662 -1.33525 7.15225 -0.2458 0.203677 0 -0.0888889 8.59357 0.857317 2.67158 -0.012148 0.0802792 -0.996698
-23.2655 -9.39038 1.48475 -0.467647 0.128219 -0.308077 -0.777778 8.67244 0.175924 0.351471 -0.314259 -0.900027 0.30198
-17.9579 -0.845375 5.33087 -0.264383 0.152486 0 0.677698 8.68254 -0.831184 2.67158 0.778267 -0.0837903 -0.622317
-14.9028 -10.6087 2.47469 0.24692 -0.13271 0.0932256 -0.155556 8.69249 0.999885 1.41332 0.230483 -0.404774 0.884893
-17.3153 -2.467 3.665 -0.483187 0.300108 0 -0.288889 8.70969 0.202569 2.67158 0.0957686 0.995402 0.00153593
-11.6453 -4.60388 4.67525 -0.111387 0.253142 -0.441202 -0.155556 8.72119 -0.624341 2.24607 -0.344569 0.936217 -0.0690706
-11.422 -3.9135 6.5525 0.0452527 0.243663 0.661268 -0.122222 8.73809 -0.403491 2.24607 -0.16872 0.857403 -0.486204
-12.3745 -3.36175 7.0435 0.259066 0.238057 0.820334 -0.0888889 8.74958 -0.0846172 2.24607 0.00283395 0.46792 -0.883766
-18.038 -2.218 4.732 -0.394763 0.259144 0 -0.0888889 8.78245 -0.597494 2.67158 0.666539 0.597934 -0.445197
-17.528 -10.2195 1.18 -0.252893 -0.180793 -0.588982 -0.155556 8.78464 -0.598223 0.870924 -0.490767 -0.645074 0.585685
-15.4591 -7.77588 13.7755 0.861067 -0.23858 0.088854 -0.773651 8.81871 -0.734937 3.98516 -0.501152 0.0173468 -0.865186
-20.6695 -7.0855 15.0363 0.123762 -0.0934391 -0.585066 -0.0157454 8.82244 -0.757273 4.65094 0.67072 -0.488536 -0.558093
-25.111 -6.972 5.09363 0.158238 0.223443 0.100685 -0.811127 8.82878 -0.41889 6.07743 -0.838639 -0.3688 0.400838
-25.159 -7.1915 8.578 0.205926 0.268541 0.769499 -1 8.82896 0.822644 6.07743 -0.99791 0.0161028 -0.0625766
-24.2651 -8.96638 10.8674 0.19289 0.185744 0 -1 8.83352 0.768214 5.23147 -0.64891 -0.734414 0.198877
-12.6186 -4.56244 4.20325 -0.116365 0.237916 0 -0.288889 8.83738 -0.571016 2.24607 0.34752 0.929517 0.123401
-11.1847 -6.68075 4.23925 -0.0631667 -0.104608 -0.288505 -0.246484 8.89265 -0.683221 2.04218 -0.0615404 -0.835508 0.546021
-11.1761 -5.69637 5.8395 0.153615 -0.144651 -0.385073 -0.155556 8.93696 -0.384973 2.04218 -0.38488 -0.784112 0.486863
-22.3465 -8.49375 14.0885 -0.068124 -0.108138 0 -0.177778 8.94723 -0.569041 4.65094 0.588423 -0.468957 -0.658663
-17.911 -6.2715 15.196 0.204766 -0.158788 0 1 8.99931 -0.999889 3.98516 -0.413333 -0.739608 -0.531165
-13.884 -3.6015 3.3775 -0.36105 0.236288 0 -0.288889 9.01112 0.520409 2.24607 0.416628 0.904626 0.0898459
-25.3158 -9.06675 2.8685 0.221705 0.165643 0.714971 -0.777778 9.02111 0.999895 0.0504758 -0.668098 -0.713388 -0.211478
-21.2502 -8.50362 14.8431 -0.296657 -0.130698 -0.838733 -0.177778 9.12423 -0.200459 4.65094 0.671974 -0.133546 -0.728434
-15.898 -2.83406 3.49378 -0.792447 0.262116 -0.103414 -0.288889 9.13443 0.277896 2.67158 0.353092 0.894191 0.275223
-12.4902 -5.07987 7.84025 0.2066 -0.202047 0 -0.0888889 9.15169 -0.109436 2.24607 -0.52891 -0.777561 -0.340077
-10.6545 -6.58 5.099 -0.231375 -0.132288 -0.785561 -0.155556 9.18205 0.0986189 2.04218 -0.376602 -0.822101 0.426991
-15.6175 0.50825 6.33125 -1 0.102385 -0.769978 -0.777778 9.21037 0.0336001 2.67158 0.485357 -0.573782 -0.659699
-11.1451 -5.506 7.06925 0.081587 -0.143136 0 -0.100888 9.23141 -0.259259 2.24607 -0.383129 -0.923164 -0.031305
-12.9268 -5.85825 10.0618 0.066468 -0.219662 0 -0.0888889 9.28813 0.523431 3.62994 -0.698661 -0.694381 -0.17236
-12.3375 -6.3815 11.3695 0.125123 -0.143239 0 -0.0888889 9.31431 -0.0946285 3.62994 -0.259074 -0.89831 -0.354851
-25.7173 -7.50325 3.85775 0.172599 0.202401 0 -0.777778 9.36542 0.0297892 6.13414 -0.887634 -0.296258 0.352614
-17.1415 0.1245 5.6115 -0.48849 0.117278 0 0.933333 9.3681 -0.733885 2.67158 0.626886 -0.39203 -0.673295
-12.997 -6.8425 12.0225 0.164346 -0.163527 0 -0.0888889 9.38407 0.101263 3.62994 -0.0988507 -0.649519 -0.753892
-24.7005 -6.20725 7.77287 0.262546 0.281762 0.0845715 -0.698524 9.39751 -0.223395 6.07743 -0.993191 -0.0561366 0.102083
-12.842 -9.32 1.4325 0.140183 -0.121581 0.265833 -0.234662 9.41561 -0.999898 1.64362 0.0538043 -0.417686 0.906997
-14.8431 -3.23612 3.4615 -0.496063 0.251205 -0.0170664 -0.288889 9.47312 0.283203 2.24607 0.386307 0.900109 0.20142
-23.149 -9.1075 13.7925 0.056889 -0.158258 0 -0.177778 9.49763 0.219697 4.65094 -0.118113 -0.489313 -0.864073
-14.2193 0.148031 7.53344 -0.511603 0.155224 0 -0.138524 9.50793 -0.276036 2.67158 0.311068 -0.0897668 -0.946139
-24.8995 -7.225 9.8345 0.408823 0.254968 0.100114 -1 9.52218 0.252499 6.07743 -0.992452 -0.112955 0.0477527
-25.267 -5.68925 6.26125 0.171167 0.216469 0 -0.364204 9.52702 -0.327172 6.07743 -0.82037 -0.434493 0.371765
-19.895 -10.299 0.14975 -0.0133258 -0.142417 0 -1 9.56905 -0.645 0.715796 0.0840911 -0.22681 0.970302
-15.888 -11.3448 1.581 -0.18442 -0.132758 -0.835422 -0.155556 9.58299 0.905977 1.05429 -0.248077 -0.804368 0.539861
-12.0726 -8.92737 2.13425 0.123345 -0.129132 0 -0.288889 9.589 -0.302842 1.64362 -0.233982 -0.619553 0.749271
-14.5334 -8.09988 12.9789 1 -0.232184 0 -0.866667 9.58947 0.0769332 3.98516 -0.416646 -0.127902 -0.900026
-21.667 -10.1655 0.646 -0.164258 -0.123812 -0.0936901 -0.911144 9.61212 -0.0723985 0.715796 0.0178682 -0.511618 0.859027
-16.891 -8.604 14.5685 0.296941 -0.252771 0 -0.866667 9.61358 -0.637084 3.98516 -0.911108 0.276913 -0.30529
-20.0229 -7.55125 15.8363 0.178879 -0.109608 -0.317033 0.147612 9.69734 -0.207275 4.65094 0.562908 -0.387783 -0.729903
-25.7915 -8.07225 2.954 0.184798 0.190103 0.603457 -0.777778 9.72707 0.457091 6.13414 -0.89443 -0.413676 -0.169906
-24.6623 -7.54462 10.8359 0.407607 0.231531 0 -1 9.78701 0.314172 6.07743 -0.941904 -0.298514 0.153971
-24.7044 -8.22563 1.5635 -0.123674 0.167392 -0.116219 -0.777778 9.79158 -0.200646 0.0504758 -0.674102 -0.663057 -0.325486
-10.554 -3.77 5.878 0.219659 0.223225 0.591795 -0.155556 9.84668 0.0822923 2.24607 -0.292152 0.949918 -0.110922
-23.98 -8.416 14.069 0.0383617 0.180832 0 -0.177778 9.85224 -0.0189584 4.65094 -0.801276 -0.42702 -0.419059
-18.5084 -11.1437 0.0408125 0.267317 -0.152691 0 -0.468784 9.85625 -0.569059 0.870924 -0.193927 -0.270441 0.943003
-18.7805 -6.90188 15.6709 0.205645 -0.113915 0 1 9.87919 -0.444014 3.98516 0.146899 -0.741063 -0.655169
-17.0605 -11.116 0.7535 -0.00555143 -0.15526 0.0020518 -0.155556 9.88198 -0.137062 0.870924 -0.383154 -0.585228 0.714633
-11.3306 -3.17412 7.44688 0.137136 0.207572 0.103752 -0.0888889 9.88433 -0.73938 2.24607 0.104171 0.534159 -0.838941
-18.442 -0.656 4.2455 -0.38601 0.112847 0 0.933333 9.88597 -0.0778946 2.67158 0.772343 -0.329059 -0.543329
-24.6723 -6.2505 8.82925 0.308316 0.295141 0.0893703 -1 9.91776 -0.429831 6.07743 -0.958404 0.28176 0.0455346
-12.2655 -0.875687 7.56431 -0.164446 0.167549 0 -0.0888889 9.92062 0.0883847 2.67158 0.187454 0.110914 -0.975991
-11.4115 -2.094 7.95725 0.110277 0.171011 0.411331 -0.0888889 9.9242 -0.791854 2.67158 0.229925 0.169724 -0.958294
-24.362 -7.525 11.982 0.235323 0.209205 0 -1 9.93163 0.0892188 4.65094 -0.886754 -0.400919 0.230069
-10.3134 -7.12587 3.87275 -0.00160485 -0.118464 0 -0.155556 9.93746 -0.618643 2.04218 -0.326932 -0.806915 0.491938
-18.629 -2.28538 3.693 -0.43054 0.25473 -0.96614 -0.355556 9.97967 -0.264988 2.67158 0.563599 0.698339 -0.441224
-18.2237 -2.7 2.79775 -0.316864 0.276634 0 -0.557998 9.98703 -0.581088 2.67158 0.256086 0.963062 -0.083256
-13.3403 -7.75063 12.6695 0.488417 -0.168404 0 -0.477887 10.0064 0.309244 3.98516 -0.078355 -0.532924 -0.842527
-24.1042 -8.69825 0.670375 -0.62408 0.164037 -0.520307 -0.777778 10.031 -0.423934 0.351471 -0.773691 -0.608125 0.177729
-24.2743 -7.45813 13.5571 0.058323 0.19219 0 -1 10.0462 0.0498146 4.65094 -0.927345 -0.362319 -0.0935721
-17.0825 -7.7875 15.585 0.30018 -0.210769 0 -0.191002 10.0891 -0.858649 3.98516 -0.834138 -0.0571497 -0.548587
-11.9108 -6.32387 8.77262 0.0522473 -0.167214 0 -0.0888889 10.1848 0.999847 3.02383 -0.348543 -0.871239 -0.345631
-14.2536 -11.1819 1.20875 0.104943 -0.0855451 0.516573 -0.155556 10.2197 -0.104086 1.64362 0.193527 -0.691729 0.695743
-10.3341 -8.12113 2.65438 -0.0294602 -0.111812 -0.00627541 -0.193656 10.2263 -0.738405 2.04218 -0.224374 -0.661735 0.715376
-15.4358 -9.10581 13.2952 0.96659 -0.256616 0 -0.866667 10.2329 -0.179197 3.98516 -0.419749 0.28432 -0.861959
-10.1385 -3.37 7.203 0.128498 0.205063 0.766552 -0.123149 10.2762 -0.614324 2.24607 -0.168293 0.772069 -0.612851
-16.4155 0.842 5.672 -0.826827 0.0996438 -0.272971 -0.613053 10.2979 -0.583469 2.67158 0.421635 -0.634287 -0.648
-14.7745 1.172 6.015 -0.90079 0.0699668 -0.772533 -0.777778 10.329 0.598509 2.67158 0.5622 -0.672952 -0.480693
-11.9806 -4.509 2.84575 -0.113418 0.221361 0.182902 -0.288889 10.3383 -0.951426 2.24607 -0.102244 0.924185 0.368005
-12.061 -6.426 9.85625 0.0687357 -0.13173 0 -0.0888889 10.3437 0.594472 3.62994 -0.196044 -0.978588 -0.0627064
-16.9587 -9.418 13.788 0.235878 -0.273968 0 -0.866667 10.3525 0.382773 3.98516 -0.698075 0.434666 -0.568996
-10.862 -4.18275 3.26312 0.0658053 -0.214101 0.497328 -0.172978 10.39 -0.99984 2.24607 -0.634458 0.720267 0.280495
-26.2375 -5.837 5.0115 0.077343 0.177055 0 -0.777778 10.43 0.886181 6.07743 -0.735778 -0.482889 0.474815
-9.58838 -7.17572 5.35656 -0.0720867 -0.135487 0 -0.155556 10.4302 0.200363 2.04218 -0.517527 -0.689232 0.507076
3 158 198 131
3 158 131 112
3 104 112 74
3 106 149 166
3 166 168 140
3 176 152 132
3 132 104 85
3 104 74 85
3 55 76 106
3 76 74 131
3 76 131 106
3 55 94 61
3 94 100 61
3 61 100 80
3 80 100 120
3 140 168 100
3 100 168 120
3 120 168 184
3 120 114 80
3 114 66 80
3 66 114 97
3 58 97 82
3 167 157 102
3 85 53 102
3 53 33 70
3 70 33 52
3 17 35 31
3 35 53 74
3 35 55 31
3 61 31 55
3 31 61 29
3 21 48 39
3 99 82 128
3 108 170 185
3 133 102 96
3 70 96 102
3 81 69 108
3 11 1 3
3 1 17 12
3 12 17 31
3 0 1 4
3 36 20 37
3 36 37 54
3 20 21 39
3 54 37 58
3 54 82 99
3 122 63 99
3 63 54 99
3 128 173 160
3 46 101 69
3 46 65 92
3 47 65 30
3 46 30 65
3 23 46 69
3 52 33 23
3 23 19 10
3 6 14 3
3 10 3 14
3 13 14 6
3 13 6 8
3 2 6 0
3 5 2 0
3 42 18 34
3 18 5 16
3 18 16 34
3 5 4 16
3 34 16 41
3 54 63 36
3 41 64 34
3 50 62 87
3 62 64 109
3 103 161 109
3 165 141 130
3 172 92 107
3 107 49 78
3 32 49 47
3 47 30 32
3 47 49 73
3 49 32 43
3 13 43 32
3 86 49 43
3 95 51 71
3 8 22 27
3 42 34 50
3 136 87 144
3 135 144 87
3 62 118 87
3 62 109 118
3 129 162 190
3 190 116 129
3 43 93 86
3 86 93 183
3 183 93 151
3 71 115 95
3 71 84 115
3 148 151 93
3 195 148 147
3 93 147 148
3 119 156 177
3 126 113 174
3 124 125 169
3 174 125 126
3 110 59 98
3 110 154 142
3 89 110 142
3 57 89 91
3 57 88 67
3 131 74 112
3 104 132 152
3 104 152 112
3 112 152 158
3 53 85 74
3 55 35 74
3 76 55 74
3 149 106 131
3 40 61 80
3 40 80 66
3 40 66 21
3 21 66 48
3 97 60 66
3 39 48 60
3 39 60 58
3 97 58 60
3 48 66 60
3 117 82 97
3 117 97 159
3 163 159 97
3 163 97 114
3 12 29 40
3 40 29 61
3 12 40 21
3 37 39 58
3 173 128 171
3 171 128 117
3 117 128 82
3 117 159 171
3 108 155 170
3 137 155 108
3 10 19 3
3 3 19 11
3 1 0 3
3 15 4 20
3 15 20 36
3 37 20 39
3 36 63 41
3 41 72 64
3 72 41 63
3 111 72 63
3 111 63 122
3 101 141 137
3 69 101 108
3 108 101 137
3 165 130 92
3 92 130 101
3 92 101 46
3 101 130 141
3 65 107 92
3 73 107 65
3 73 65 47
3 23 30 46
3 10 30 23
3 7 8 2
3 7 2 5
3 2 8 6
3 22 7 18
3 22 18 28
3 28 18 42
3 5 18 7
3 41 26 36
3 15 36 26
3 15 26 16
3 15 16 4
3 16 26 41
3 111 103 72
3 72 103 109
3 72 109 64
3 111 153 103
3 103 153 161
3 92 172 165
3 78 116 138
3 107 78 138
3 107 138 172
3 186 138 116
3 186 116 164
3 129 116 90
3 86 90 49
3 78 49 90
3 78 90 116
3 24 43 13
3 51 75 43
3 75 51 95
3 51 43 24
3 45 71 51
3 45 51 44
3 45 44 27
3 27 44 24
3 27 24 8
3 24 44 51
3 13 8 24
3 56 45 38
3 27 38 45
3 42 59 28
3 28 59 38
3 28 38 22
3 22 38 27
3 71 45 56
3 71 56 84
3 68 59 42
3 77 143 84
3 77 68 42
3 87 77 50
3 50 77 42
3 136 77 87
3 199 144 180
3 180 144 135
3 180 135 118
3 118 189 180
3 162 129 90
3 162 90 86
3 183 162 86
3 95 147 93
3 95 93 75
3 75 93 43
3 115 147 95
3 146 77 136
3 77 146 143
3 124 197 194
3 124 194 134
3 91 127 121
3 121 127 175
3 89 123 127
3 89 127 91
3 181 175 127
3 181 127 123
3 91 121 150
3 150 121 175
3 88 91 150
3 145 88 150
3 145 150 192
3 67 105 83
3 83 105 156
3 156 105 145
3 145 105 67
3 145 67 88
3 77 59 68
3 126 84 79
3 126 79 113
3 113 178 174
3 178 113 177
3 169 125 191
3 191 125 174
3 126 77 84
3 77 126 125
3 77 125 124
3 124 134 77
3 77 134 98
3 59 77 98
3 181 123 182
3 89 59 110
3 89 57 59
3 38 67 56
3 56 67 83
3 57 67 38
3 57 38 59
3 56 83 79
3 56 79 84
3 106 94 55
3 94 106 140
3 140 100 94
3 106 166 140
3 120 163 114
3 157 176 132
3 157 132 85
3 102 157 85
3 35 17 25
3 35 25 53
3 53 25 33
3 108 185 179
3 108 179 133
3 167 133 179
3 167 102 133
3 108 133 81
3 81 133 96
3 53 70 102
3 52 96 70
3 96 52 81
3 81 52 69
3 11 19 25
3 11 25 17
3 33 25 19
3 11 17 1
3 12 31 29
3 12 21 9
3 1 12 9
3 21 20 9
3 1 9 4
3 9 20 4
3 82 54 58
3 160 122 99
3 99 128 160
3 69 52 23
3 23 33 19
3 3 0 6
3 4 5 0
3 34 64 62
3 34 62 50
3 122 160 188
3 111 122 188
3 73 49 107
3 13 32 14
3 10 14 30
3 30 14 32
3 8 7 22
3 118 109 161
3 196 164 116
3 196 116 190
3 115 143 187
3 115 187 147
3 147 187 195
3 115 84 143
3 113 119 177
3 79 119 113
3 134 139 98
3 110 98 154
3 154 98 139
3 89 142 123
3 91 88 57
3 79 83 119
3 119 83 156
3 135 87 118
