ply
format ascii 1.0
comment Generated by PyMesh
element vertex 200
property float x
property float y
property float z
property float charge
property float ddc
property float hbond
property float hphob
property float rho
property float si
property float theta
property float nx
property float ny
property float nz
element face 336
property list uchar int vertex_indices
end_header
-20.1338 -8.74375 7.88375 0.118923 0 0 -1 1e-08 0.766052 2.22045e-16 0.446913 -0.885445 -0.127498
-20.1845 -8.6605 9.077 0.175931 0.26083 0 -1 1.19722 0.901947 2.5482 0.476436 -0.824735 0.304665
-21.5298 -9.17 7.988 0.0304505 0.174455 0 -1 1.46334 0.691841 3.88484 0.129959 -0.990607 -0.042527
-21.3472 -8.6665 6.9135 -0.0288818 0.191071 0 -1 1.55554 -0.410649 4.8194 0.279968 -0.926246 -0.252362
-19.3284 -7.98259 6.64594 -0.32721 0.0238762 0.000629393 -0.778167 1.66139 -0.0266087 2.22045e-16 0.400781 -0.916003 0.0177111
-18.6239 -7.34106 8.705 0.0570087 0.101895 0 -0.0888889 2.21851 0.0479925 1.26209 0.53879 -0.830792 0.139607
-21.3273 -8.8025 9.55481 0.264206 0.100751 0 -1 2.444 -0.0240967 3.0613 0.2227 -0.958482 0.178095
-18.4643 -7.255 7.23925 -0.370103 0.0958328 -0.530836 -0.632871 2.93735 -0.443081 0.536683 0.51067 -0.841295 0.17731
-20.8832 -8.26775 5.65475 -0.328951 0.117584 -0.121059 -0.777778 2.95509 -0.165529 5.43258 0.241635 -0.944963 -0.220583
-20.3315 -7.74131 10.5953 0.199796 0.139517 0.0211574 -0.577367 2.97817 -0.0744587 2.41514 0.524645 -0.768145 0.367016
-22.7266 -9.01175 6.79588 -0.199122 0.155575 0 -1 2.98234 0.256502 4.31191 -0.0582471 -0.99656 -0.0589609
-19.3347 -7.254 9.89163 0.152654 0.122268 0.287924 -0.63516 3.03135 -0.651943 1.89353 0.48933 -0.816662 0.305973
-19.3487 -8.19125 5.2865 -0.36462 0.10897 0 -0.777778 3.0369 0.64919 5.96141 0.123666 -0.9825 -0.139282
-22.384 -8.9035 5.78675 0.110245 0.020615 0.189878 -0.931638 3.10495 0.265778 4.7865 0.320707 -0.94714 -0.00852864
-23.3092 -8.954 7.83125 0.126326 0.201818 0 -1 3.26265 0.406413 3.91196 -0.269986 -0.961625 -0.0488332
-17.9305 -7.7 5.6845 -0.513793 0.0371171 0 -0.777778 3.38137 0.787553 0.0948411 0.473958 -0.878643 0.0578875
-17.4675 -6.8385 8.893 0.0557223 0.134839 0 -0.0888889 3.49333 0.738786 1.15946 0.745376 -0.6652 0.0438689
-21.7401 -8.90375 10.7118 0.347503 0.0438885 0 -1 3.67659 0.945378 2.97971 0.36967 -0.912761 0.173817
-17.8043 -6.68175 10.2825 0.213745 0.0697279 0 -0.0888889 4.11454 0.461547 1.53625 0.530315 -0.818463 0.221099
-19.9748 -7.73325 4.382 -0.56974 0.118409 -0.194228 -0.777778 4.22849 -0.325348 5.74334 0.0252994 -0.972989 -0.22946
-22.078 -8.56275 4.7525 0.00291981 0.084797 0.351184 -0.808636 4.23607 -0.266633 5.12666 0.570463 -0.803747 -0.169007
-17.37 -6.47 7.5005 -0.192306 0.171629 -0.747237 -0.695038 4.3092 0.15415 0.733648 0.832502 -0.537503 0.13428
-23.6082 -9.08744 5.33644 0.150248 0.174073 0 -0.777778 4.42225 0.298718 4.54596 -0.315602 -0.883558 0.346006
-23.27 -9.02525 9.075 0.108075 0.131131 0 -1 4.45744 0.324712 3.54089 -0.0507863 -0.993967 -0.0972104
-17.048 -7.02975 6.08975 -0.476217 0.137812 0 -0.777778 4.56132 0.635334 0.361945 0.706083 -0.625624 0.331724
-20.79 -7.24388 12.0931 0.140248 0.0781801 0 -0.610956 4.62166 -0.22274 2.38928 0.580424 -0.770568 0.263312
-24.5791 -8.30962 8.16063 0.4171 0.279421 0.110137 -1 4.72428 0.479351 3.88922 -0.825595 -0.561846 -0.052172
-18.504 -7.66988 3.92006 -0.246476 -0.0438726 0 -0.773431 4.72583 0.0743183 6.06007 0.180183 -0.982802 0.0404267
-19.261 -6.84125 11.6965 -0.243992 0.0730063 0 -0.0888889 4.75826 0.277998 2.05361 0.368084 -0.864345 0.342669
-17.1159 -5.79738 9.5235 0.256873 0.141756 0 -0.160835 4.76025 0.0971588 1.28846 0.853315 -0.519417 -0.0453887
-21.2822 -7.69037 3.86944 -0.210869 0.0502171 0 -0.777778 4.8734 -0.746784 5.42895 0.462464 -0.873277 -0.153346
-22.8943 -9.02575 11.4333 0.362197 0.0762644 0 -1 5.04321 0.631109 3.20031 0.150304 -0.942415 0.298769
-17.5072 -7.0805 4.16025 -0.244737 0.0470324 -0.0570109 -0.462858 5.08028 -0.31715 0.140082 0.551357 -0.826133 0.116228
-17.0427 -5.50575 8.13175 0.139628 0.169407 0.0189671 -0.0888889 5.08587 -0.731275 0.956246 0.914394 -0.404824 0.000975317
-23.2131 -9.617 4.12425 0.316998 0.0100336 0.452161 -0.777778 5.09503 0.788439 4.84189 0.320447 -0.946932 0.0251881
-24.621 -8.069 6.5915 0.169666 0.261756 0.651074 -1 5.10821 0.379095 4.14802 -0.816496 -0.575508 0.0461055
-24.3194 -8.68213 9.49525 0.312904 0.239637 0 -1 5.22818 0.446673 3.6252 -0.684471 -0.726125 -0.0651303
-16.9635 -5.543 7.033 -0.11205 0.178587 0.573641 -0.0888889 5.42415 -0.596404 0.702409 0.878562 -0.357826 0.316369
-24.3805 -8.4235 5.5625 0.104751 0.248205 0 -0.777778 5.4655 -0.0931875 4.39614 -0.746378 -0.578982 0.328176
-23.4648 -9.215 10.282 0.315044 0.119063 0 -1 5.48109 0.839958 3.38537 -0.116334 -0.992464 -0.0384874
-21.936 -7.92137 12.5278 0.265757 0.0635168 0 -1 5.49638 -0.340597 4.31434 0.511917 -0.808369 0.290657
-17.401 -6.03675 11.4762 0.108734 0.0317291 0 -0.16549 5.53003 -0.137755 1.64915 0.51537 -0.855702 0.0465509
-16.272 -6.41025 4.868 -0.196917 -0.0277878 -0.260354 -0.537218 5.63542 0.0206288 0.242269 0.376086 -0.90874 0.180975
-24.6915 -7.5625 7.4935 0.248663 0.336823 0.322389 -1 5.73219 -0.0937854 3.99556 -0.984202 -0.106551 -0.141396
-16.623 -4.8675 9.69606 0.265922 0.119388 0.0800778 -0.132375 5.82674 -0.580168 1.21268 0.79169 -0.538524 -0.288476
-18.333 -6.3345 12.108 0.091576 0.0626118 -0.120039 -0.0912609 5.89285 0.282037 1.94505 0.250826 -0.908366 0.3346
-25.159 -7.1915 8.578 0.205926 0.313459 0.769499 -1 6.05118 0.822644 3.99556 -0.99791 0.0161028 -0.0625766
-19.2633 -7.63963 2.67156 -0.203143 -0.125238 0 -0.777778 6.08337 -0.401501 6.06007 -0.292112 -0.938389 0.184654
-20.213 -6.25775 13.0215 0.18907 0.0447764 0 -0.80846 6.09384 -0.856385 2.38928 0.370986 -0.88433 0.283425
-18.2409 -8.0865 2.63013 -0.181489 -0.135477 0 -0.155556 6.10667 -0.122252 6.06007 -0.178788 -0.814894 0.551346
-16.6895 -6.5235 3.8545 -0.247934 -0.0639384 -0.0845656 -0.266918 6.11583 -0.999905 0.140082 0.290408 -0.875042 0.387254
-24.7594 -9.37162 4.1245 0.135141 0.133493 0 -0.777778 6.11778 0.84082 4.84189 -0.40853 -0.884444 0.225528
-16.0704 -5.72713 5.64337 -0.140468 0.138565 -0.360001 -0.537833 6.25004 -0.0838047 0.242269 0.544413 -0.522051 0.656565
-20.5355 -7.3585 2.45875 -0.197638 0.0533582 0 -0.777778 6.26655 -0.725604 5.74334 0.0744875 -0.996569 0.0360829
-23.2985 -8.6565 12.6355 0.145161 0.0910579 0 -1 6.36419 0.171649 3.20031 -0.149108 -0.988821 -0.000164651
-25.3088 -8.56675 4.445 0.166744 0.212745 0 -0.777778 6.41168 0.999828 4.39614 -0.794798 -0.433744 0.424456
-24.2651 -8.96638 10.8674 0.19289 0.205336 0 -1 6.50333 0.768214 3.38537 -0.64891 -0.734414 0.198877
-24.7237 -6.64975 6.4585 0.206704 0.290165 0.622314 -1 6.53737 -0.69256 3.99556 -0.96535 -0.20611 0.160054
-16.6373 -7.33638 3.0085 -0.150963 -0.130864 0 -0.155556 6.54614 -0.415263 0.140082 0.229484 -0.609191 0.759094
-21.5387 -7.78562 2.19894 -0.28386 -0.0573128 -0.221223 -0.777778 6.56616 -0.999796 5.42895 0.458907 -0.820659 0.340475
-24.227 -9.4145 2.994 0.047374 0.0866791 0 -0.777778 6.62684 0.34692 4.84189 -0.120998 -0.964993 -0.232697
-16.9878 -6.00616 12.5084 0.16828 -0.0685532 0 -0.177778 6.64228 -0.268516 1.64915 0.0390774 -0.970228 -0.23902
-21.5989 -7.74388 13.9134 0.105045 -0.0741126 -0.0787328 -0.922018 6.67539 -0.280303 4.31434 0.659801 -0.707421 -0.253412
-24.8995 -7.225 9.8345 0.408823 0.295345 0.100114 -1 6.7444 0.252499 3.6252 -0.992452 -0.112955 0.0477527
-16.4112 -4.2905 7.04475 -0.010762 0.124784 0.812023 -0.0888889 6.79307 -0.628653 0.702409 0.838796 -0.44615 0.312044
-22.7065 -8.91387 2.63675 -0.172826 -0.026493 0 -0.777778 6.81656 -0.0757269 4.84189 0.480136 -0.869231 0.117929
-19.1028 -6.053 12.8455 0.0926913 0.0556568 -0.218172 -0.149494 6.99546 -0.584342 1.94505 0.136644 -0.958058 0.251901
-15.803 -4.925 11.1187 -0.006921 -0.0899798 -0.811647 -0.177778 7.00289 -0.25577 1.21268 0.354256 -0.763653 -0.539757
-24.6623 -7.54462 10.8359 0.407607 0.263284 0 -1 7.0195 0.314172 3.6252 -0.941904 -0.298514 0.153971
-25.111 -6.972 5.09363 0.158238 0.2309 0.100685 -0.811127 7.0284 -0.41889 4.39614 -0.838639 -0.3688 0.400838
-14.8775 -6.392 4.7815 -0.0877703 -0.123902 0 -0.288889 7.03272 0.139323 0.242269 -0.0701895 -0.726398 0.68368
-20.324 -6.3865 14.3372 0.221022 -0.0552016 0 1 7.06875 -0.999791 2.38928 0.499942 -0.811387 -0.302835
-16.0777 -3.76875 8.203 0.0361967 0.0649934 0 -0.0888889 7.0742 -0.514211 1.21268 0.711117 -0.702398 -0.0308115
-24.7005 -6.20725 7.77287 0.262546 0.30961 0.0845715 -0.698524 7.11596 -0.223395 3.99556 -0.993191 -0.0561366 0.102083
-24.6723 -6.2505 8.82925 0.308316 0.341084 0.0893703 -1 7.13998 -0.429831 3.99556 -0.958404 0.28176 0.0455346
-17.1569 -8.38313 2.722 -0.173604 -0.195656 0 -0.155556 7.23427 0.238235 6.06007 -0.185857 -0.384039 0.904418
-20.046 -7.609 1.613 -0.255855 -0.114273 0 -0.603587 7.27534 -0.999889 6.06007 -0.121794 -0.818928 0.560824
-15.8931 -3.66613 9.317 0.0168946 0.0527384 0.787115 -0.16315 7.28267 -0.999886 1.21268 0.474484 -0.829969 -0.293286
-19.0576 -8.329 1.66288 -0.200937 -0.169446 0 -0.155556 7.32232 -0.464996 6.06007 -0.427405 -0.602682 0.673869
-15.8263 -4.70075 6.05 -0.0799593 0.153642 0 -0.288889 7.3807 -0.469468 0.242269 0.445854 -0.386268 0.807472
-15.5855 -6.97237 3.164 -0.206872 -0.116688 0 -0.288889 7.49318 -0.749771 0.242269 -0.133444 -0.768976 0.625195
-15.2399 -4.01038 10.1786 0.048477 -0.0803201 0.0615469 -0.0972704 7.52394 -0.428873 1.21268 0.0501641 -0.892009 -0.449225
-25.3158 -9.06675 2.8685 0.221705 0.150254 0.714971 -0.777778 7.52493 0.999895 4.84189 -0.668098 -0.713388 -0.211478
-23.149 -9.1075 13.7925 0.056889 -0.167059 0 -0.177778 7.61495 0.219697 3.20031 -0.118113 -0.489313 -0.864073
-25.267 -5.68925 6.26125 0.171167 0.214907 0 -0.364204 7.65837 -0.327172 3.99556 -0.82037 -0.434493 0.371765
-25.7173 -7.50325 3.85775 0.172599 0.206048 0 -0.777778 7.69338 0.0297892 4.39614 -0.887634 -0.296258 0.352614
-22.3465 -8.49375 14.0885 -0.068124 -0.130376 0 -0.177778 7.74864 -0.569041 4.31434 0.588423 -0.468957 -0.658663
-15.773 -3.4955 6.645 -0.114715 0.112908 0 -0.151249 7.88811 -0.0697984 0.702409 0.923786 -0.380056 0.0466609
-21.2502 -8.50362 14.8431 -0.296657 -0.162026 -0.838733 -0.177778 7.92564 -0.200459 4.31434 0.671974 -0.133546 -0.728434
-17.0045 -6.579 13.7055 0.209189 -0.130083 0.0484967 -0.177778 7.96949 0.0532711 1.64915 -0.372483 -0.798344 -0.473185
-23.98 -8.416 14.069 0.0383617 0.18503 0 -0.177778 7.96956 -0.0189584 3.20031 -0.801276 -0.42702 -0.419059
-18.6523 -6.01937 14.132 0.176105 -0.0605957 0 0.0998822 8.02407 -0.501133 1.94505 0.0278223 -0.975824 -0.216778
-15.8403 -8.4775 2.45913 -0.184729 -0.174136 -0.0665696 -0.155556 8.04252 -0.532228 0.140082 0.0810591 -0.22859 0.970142
-24.362 -7.525 11.982 0.235323 0.228601 0 -1 8.04894 0.0892188 3.38537 -0.886754 -0.400919 0.230069
-25.7915 -8.07225 2.954 0.184798 0.182814 0.603457 -0.777778 8.05503 0.457091 4.39614 -0.89443 -0.413676 -0.169906
-14.386 -5.0025 5.6365 0.057943 -0.140213 0 -0.288889 8.0837 -0.0728844 0.242269 0.0248452 -0.484975 0.874175
-20.6695 -7.0855 15.0363 0.123762 -0.108289 -0.585066 -0.0157454 8.11599 -0.757273 4.31434 0.67072 -0.488536 -0.558093
-24.2743 -7.45813 13.5571 0.058323 0.198647 0 -1 8.16353 0.0498146 3.20031 -0.927345 -0.362319 -0.0935721
-23.2655 -9.39038 1.48475 -0.467647 0.102457 -0.308077 -0.777778 8.18282 0.175924 4.84189 -0.314259 -0.900027 0.30198
-13.8022 -6.02612 5.05288 -0.0323285 -0.140857 0 -0.288889 8.20054 -0.344842 0.242269 -0.0436382 -0.470329 0.881412
-25.0375 -6.1895 10.903 0.136225 0.25824 0 -1 8.23872 0.585142 3.6252 -0.998942 -0.0459705 0.00106772
-22.128 -9.477 1.406 -0.456907 -0.0991539 -0.0859736 -0.777778 8.28848 0.234808 4.84189 0.336244 -0.67461 0.657146
-14.9088 -3.36075 8.43425 0.00988187 -0.0510388 0 -0.0888889 8.33368 -0.527912 1.21268 0.0743413 -0.974183 -0.213168
-15.3011 -6.19775 12.604 0.50108 -0.142151 -0.194779 -0.177778 8.34252 -0.206937 1.64915 -0.272386 -0.641142 -0.717456
-15.8385 -6.69825 13.663 0.586543 -0.149348 0.523724 -0.177778 8.4123 -0.999858 1.64915 -0.370887 -0.574621 -0.729557
-18.558 -9.4 1.56025 -0.109215 -0.17264 0 -0.155556 8.50856 0.462526 6.06007 -0.479985 -0.553648 0.680506
-14.4446 -4.32575 10.8495 -0.113263 -0.109324 -0.487567 -0.132564 8.5118 -0.99988 1.21268 -0.216204 -0.790347 -0.573243
-24.7044 -8.22563 1.5635 -0.123674 0.144832 -0.116219 -0.777778 8.54717 -0.200646 4.84189 -0.674102 -0.663057 -0.325486
-24.4319 -4.8465 8.7625 0.221181 0.292529 0 -0.69704 8.56598 -0.261914 3.99556 -0.925946 0.155936 0.343958
-13.456 -6.9735 4.6405 0.0106169 -0.112382 0 -0.288889 8.57502 0.669452 0.242269 -0.0476966 -0.673293 0.737836
-14.219 -7.33175 3.72213 -0.132711 -0.11433 0 -0.288889 8.59446 0.291035 0.242269 -0.304906 -0.795956 0.522959
-20.4631 -8.78963 0.798563 -0.236994 -0.137263 -0.153739 -0.252353 8.59741 -0.575195 5.42895 0.0143915 -0.530912 0.847305
-24.5348 -5.35962 9.98388 0.164762 0.313821 0 -1 8.60482 0.131616 3.6252 -0.895138 0.434021 -0.101751
-26.2375 -5.837 5.0115 0.077343 0.172789 0 -0.777778 8.62964 0.886181 4.39614 -0.735778 -0.482889 0.474815
-25.6532 -4.77025 6.39075 0.106808 0.190477 0 -0.355556 8.6636 -0.628938 3.99556 -0.781544 -0.421795 0.45965
-26.2623 -6.21075 4.06891 0.130202 0.163609 0 -0.777778 8.74742 -0.020967 4.39614 -0.793958 -0.536046 0.286854
-24.6031 -6.60281 12.3184 0.157184 0.227583 0 -1 8.77687 0.0425916 3.6252 -0.963841 -0.218366 0.152733
-24.1569 -9.28213 14.6067 0.0760867 -0.187275 0 -0.177778 8.92235 0.0777232 3.20031 -0.65629 -0.196043 -0.728595
-14.434 -3.972 5.968 -0.105477 0.225897 0 -0.288889 8.95432 0.249956 0.242269 0.435753 0.731254 0.524773
-23.42 -10.2725 14.429 0.0938083 -0.183568 0 -0.177778 8.96987 0.153012 3.20031 -0.470196 -0.275288 -0.83853
-20.0229 -7.55125 15.8363 0.178879 -0.118806 -0.317033 0.147612 8.99088 -0.207275 4.31434 0.562908 -0.387783 -0.729903
-16.7653 -10.1103 2.37981 -0.480837 -0.171438 -0.958571 -0.155556 9.03804 0.578546 6.06007 -0.30756 -0.480808 0.821115
-14.4952 -7.95725 2.686 -0.103135 -0.125974 0 -0.25878 9.03825 -0.38172 0.242269 -0.120823 -0.588424 0.799474
-25.3714 -4.37937 7.70013 0.198169 0.200567 0 -0.355556 9.06443 0.165953 3.99556 -0.792611 -0.364866 0.488508
-14.8453 -3.09875 7.2685 -0.106071 0.146303 0 -0.0888889 9.07419 0.173275 0.702409 0.063646 -0.38891 -0.919075
-16.5045 -2.70075 6.00325 -0.242911 0.218688 0 -0.0888889 9.14452 -0.280207 0.702409 0.742702 0.574164 -0.344571
-18.7805 -6.90188 15.6709 0.205645 -0.0918802 0 1 9.17273 -0.444014 1.94505 0.146899 -0.741063 -0.655169
-24.5421 -7.63413 14.8821 -0.0393823 0.187452 0 -0.177778 9.22988 -0.270768 3.20031 -0.897409 -0.127787 -0.422288
-24.4695 -6.49 14.027 -0.0499607 0.194984 0 -1 9.25723 -0.664869 3.20031 -0.972331 -0.202944 -0.1157
-16.4895 -7.686 14.14 0.249945 -0.211456 0 -0.866667 9.26543 0.0837004 1.64915 -0.666855 -0.076441 -0.741257
-13.6006 -5.50238 11.3686 0.099116 -0.134004 0 -0.0888889 9.29339 -0.327554 1.21268 -0.430903 -0.636383 -0.639796
-13.5747 -4.53587 9.77962 0.055301 -0.138739 0 -0.0888889 9.31509 -0.568209 1.21268 -0.68619 -0.688193 -0.235655
-20.4977 -9.66825 15.1231 0.138002 -0.229284 -0.771219 -0.31148 9.34022 0.0933316 4.31434 0.461489 0.593141 -0.659705
-17.911 -6.2715 15.196 0.204766 -0.122068 0 1 9.34513 -0.999889 1.94505 -0.413333 -0.739608 -0.531165
-13.9991 -3.79312 8.62912 0.20013 -0.121632 0 -0.0888889 9.35958 -0.509045 1.21268 -0.539987 -0.798588 -0.265839
-26.4072 -6.72694 2.53187 0.049287 0.162433 0 -0.777778 9.3776 0.467096 4.39614 -0.881701 -0.408595 -0.235912
-13.5205 -4.28575 6.30813 -0.0468763 0.16783 0.712136 -0.0888889 9.39287 0.810863 0.242269 -0.0219807 -0.0487423 0.998569
-21.667 -10.1655 0.646 -0.164258 -0.131435 -0.0936901 -0.911144 9.41282 -0.0723985 4.84189 0.0178682 -0.511618 0.859027
-21.5238 -10.0594 14.7436 0.0140825 -0.209575 0 -0.302471 9.50843 -0.347971 4.31434 0.230592 0.180458 -0.95617
-15.9136 -1.95187 7.181 -0.292536 0.166553 0 -0.0888889 9.52819 -0.591677 0.702409 0.618773 0.102756 -0.77882
-24.1042 -8.69825 0.670375 -0.62408 0.144962 -0.520307 -0.777778 9.54137 -0.423934 4.84189 -0.773691 -0.608125 0.177729
-15.4591 -7.77588 13.7755 0.861067 -0.20662 0.088854 -0.773651 9.5603 -0.734937 1.64915 -0.501152 0.0173468 -0.865186
-18.6789 -9.966 0.587 -0.0506543 -0.140918 0 -0.155556 9.6409 -0.582681 6.06007 -0.359964 -0.585225 0.726593
-25.5053 -7.089 1.631 -0.06375 0.172505 0 -0.777778 9.72806 -0.0422834 4.39614 -0.834443 -0.289304 -0.46905
-12.2754 -6.3125 4.96178 0.037571 -0.098913 -0.160366 -0.263116 9.75663 0.0607669 0.242269 -0.0471689 -0.667561 0.743059
-23.843 -4.437 9.9255 0.143258 0.306891 0 -0.677778 9.75947 -0.22975 3.99556 -0.820186 0.460213 0.33985
-26.8739 -4.8575 4.7825 0.0113174 0.135694 0 -0.777778 9.81996 -0.183309 4.39614 -0.661011 -0.627216 0.411904
-20.1265 -9.2905 16.176 0.276374 -0.172584 -0.870462 -0.262424 9.83837 -0.889417 4.31434 0.611254 0.245662 -0.752342
-12.6431 -4.67812 5.88588 -0.0220906 -0.207952 0.162576 -0.25208 9.87399 -0.0594895 0.242269 -0.562668 0.507152 0.652841
-17.528 -10.2195 1.18 -0.252893 -0.144304 -0.588982 -0.155556 9.87862 -0.598223 6.06007 -0.490767 -0.645074 0.585685
-26.421 -3.76775 6.08075 -0.181744 0.133488 0 -0.429669 9.96384 -0.866226 3.99556 -0.601749 -0.649449 0.464881
-24.5766 -3.49787 8.32775 0.192407 0.230656 0 -0.355556 9.99032 -0.149576 3.99556 -0.611706 0.0681538 0.788144
-23.6753 -10.2151 -0.09725 -0.00448773 -0.157357 -0.0584994 -0.985769 10.0133 -0.0737001 4.84189 -0.577366 -0.232158 0.782784
-14.21 -9.5545 2.14062 0.252646 -0.132028 0.170616 -0.155556 10.0222 0.0372185 0.140082 0.329138 -0.270365 0.904749
-19.545 -7.992 16.6395 0.294261 -0.126208 -0.347605 0.404067 10.0242 -0.999927 4.31434 0.269309 -0.335886 -0.902581
-22.4034 -11.3806 14.4312 -0.278896 -0.202217 -0.752668 -1 10.091 0.124264 3.20031 -0.279148 -0.00970253 -0.960199
-25.342 -7.4045 0.389375 -0.519827 0.155571 -0.384317 -0.777778 10.1154 0.538512 4.84189 -0.938434 -0.340071 -0.060777
-25.0569 -9.07125 15.4163 0.127213 -0.182619 0 -0.177778 10.1511 -0.140422 3.20031 -0.546323 0.134883 -0.826643
-13.6023 -8.52875 2.33363 0.0297721 -0.0976219 0 -0.288889 10.1554 -0.301481 0.242269 0.035108 -0.659049 0.75128
-24.6496 -5.57312 13.2814 0.0897943 0.180001 0 -1 10.1875 -0.357939 3.6252 -0.915522 -0.399765 -0.0448003
-23.7349 -11.4009 14.8865 0.126947 -0.177151 0.0924512 -0.301224 10.2275 -0.348377 3.20031 -0.20439 -0.0241314 -0.978592
-13.7907 -2.59575 7.293 -0.043938 0.169433 0 -0.0888889 10.2429 -0.242704 0.702409 -0.0844454 0.0670477 -0.99417
-24.6903 -10.3582 15.2692 0.354657 -0.174878 0 -0.177778 10.294 -0.506523 3.20031 -0.331744 0.0426787 -0.942404
-19.895 -10.299 0.14975 -0.0133258 -0.152809 0 -1 10.3358 -0.645 5.42895 0.0840911 -0.22681 0.970302
-16.891 -8.604 14.5685 0.296941 -0.240812 0 -0.866667 10.3552 -0.637084 1.64915 -0.911108 0.276913 -0.30529
-24.9455 -4.472 12.149 0.089358 0.223273 0 -0.988469 10.3626 0.208074 3.6252 -0.869816 0.163171 -0.465613
-14.9028 -10.6087 2.47469 0.24692 -0.130386 0.0932256 -0.155556 10.3709 0.999885 0.140082 0.230483 -0.404774 0.884893
-14.9106 -1.80275 7.49563 -0.306126 0.172228 0 -0.0888889 10.3916 -0.551079 0.702409 -0.00256586 0.0953149 -0.995444
-13.621 -3.619 7.156 -0.00765367 -0.160966 0 -0.0888889 10.4092 0.26688 0.702409 -0.581425 -0.365319 -0.726971
-14.5334 -8.09988 12.9789 1 -0.191844 0 -0.866667 10.4277 0.0769332 1.64915 -0.416646 -0.127902 -0.900026
-23.4335 -4.26737 10.9566 0.191643 0.307337 0 -0.630524 10.4357 -0.646653 3.6252 -0.706484 0.691227 -0.151939
-13.1315 -5.173 8.925 0.0186621 -0.152242 0 -0.0888889 10.4695 0.513889 1.21268 -0.755563 -0.598811 -0.265611
-16.6407 -1.46219 6.47369 -0.342837 0.149702 0 -0.0888889 10.4764 -0.446977 0.702409 0.652655 -0.0343063 -0.756878
-16.8978 -2.712 4.73 -0.461127 0.238227 -0.314812 -0.178804 10.4772 -0.161105 0.702409 0.508377 0.854592 -0.105947
-12.5632 -8.0855 3.22875 0.0449793 -0.0831605 0 -0.288889 10.4795 0.492839 0.242269 -0.084792 -0.792755 0.603614
-27.0275 -5.6225 2.59675 0.149114 0.147302 0.324241 -0.777778 10.5078 0.427224 4.39614 -0.769205 -0.401399 -0.497195
-26.4513 -3.4425 7.49687 -0.0312765 0.103258 -0.0594821 -0.584776 10.5085 0.053273 3.99556 -0.324878 -0.795039 0.512218
-20.4439 -10.5723 14.3776 0.139374 -0.275155 0 -1 10.5132 0.0620823 4.31434 -0.1757 0.687899 -0.704219
-13.759 -3.865 4.518 -0.180889 0.211713 0 -0.288889 10.5573 0.457533 0.242269 0.378846 0.906421 0.186753
-17.3774 -1.5455 5.76562 -0.288092 0.179879 0 -0.0888889 10.6118 -0.323729 0.702409 0.666004 0.274949 -0.693428
-21.0012 -11.2153 0.45375 -0.00720033 -0.145843 0 -1 10.6707 0.658371 4.84189 -0.0598258 -0.357091 0.932152
-24.994 -5.30963 14.6462 -0.180587 0.167188 -0.692479 -1 10.6896 -0.0334196 3.20031 -0.963333 -0.239604 -0.120742
-17.8437 -7.97316 16.2629 0.254598 -0.161023 0 0.717809 10.7141 -0.731524 1.94505 -0.424628 -0.21275 -0.880016
-15.888 -11.3448 1.581 -0.18442 -0.100479 -0.835422 -0.155556 10.7503 0.905977 6.06007 -0.248077 -0.804368 0.539861
-19.324 -10.4045 14.811 0.166069 -0.268027 0 -1 10.7604 -0.157377 4.31434 0.125617 0.949726 -0.286775
-24.3555 -8.9385 -0.529 -0.422953 0.151308 -0.317248 -0.891033 10.7901 0.0380182 4.84189 -0.925401 -0.343478 0.160172
-11.6713 -7.65574 3.5117 0.0416587 -0.0813709 0 -0.288889 10.7942 0.216586 0.242269 0.0991495 -0.684262 0.722465
-12.9268 -5.85825 10.0618 0.066468 -0.137645 0 -0.0888889 10.8061 0.523431 1.21268 -0.698661 -0.694381 -0.17236
-26.2145 -5.40075 1.97487 0.160242 0.164387 0.00189103 -0.777778 10.8289 0.0215471 4.39614 -0.637151 -0.145551 -0.756871
-17.0825 -7.7875 15.585 0.30018 -0.191131 0 -0.191002 10.8307 -0.858649 1.64915 -0.834138 -0.0571497 -0.548587
-12.3375 -6.3815 11.3695 0.125123 -0.0830804 0 -0.0888889 10.8323 -0.0946285 1.21268 -0.259074 -0.89831 -0.354851
-13.3403 -7.75063 12.6695 0.488417 -0.126464 0 -0.477887 10.8446 0.309244 1.64915 -0.078355 -0.532924 -0.842527
-25.071 -6.36575 15.7308 -0.2382 0.170309 -0.294658 -1 10.8451 -0.033256 3.20031 -0.961125 -0.0348825 -0.2739
-25.3223 -7.353 16.2712 -0.112491 0.176914 -0.533627 -0.177778 10.8477 -0.351625 3.20031 -0.751181 0.277511 -0.598928
-19.343 -10.0887 16.0842 0.0367197 -0.218253 0 -0.959427 10.9003 -0.999899 4.31434 0.269278 0.796883 -0.540802
-12.997 -6.8425 12.0225 0.164346 -0.112842 0 -0.0888889 10.9021 0.101263 1.21268 -0.0988507 -0.649519 -0.753892
-18.5084 -11.1437 0.0408125 0.267317 -0.150278 0 -0.468784 10.9502 -0.569059 6.06007 -0.193927 -0.270441 0.943003
-15.4358 -9.10581 13.2952 0.96659 -0.236984 0 -0.866667 10.9745 -0.179197 1.64915 -0.419749 0.28432 -0.861959
-17.0605 -11.116 0.7535 -0.00555143 -0.131901 0.0020518 -0.155556 10.976 -0.137062 6.06007 -0.383154 -0.585228 0.714633
-15.7994 -3.405 4.57062 -0.508533 0.240791 -0.441312 -0.288889 10.9886 -0.673185 0.242269 0.376037 0.897252 0.231375
3 115 175 135
3 175 188 135
3 151 176 123
3 113 84 114
3 84 113 69
3 84 69 57
3 43 57 35
3 115 113 146
3 115 135 85
3 55 85 94
3 85 135 94
3 135 188 143
3 156 140 107
3 94 107 82
3 151 123 108
3 123 84 73
3 74 73 46
3 46 43 26
3 43 35 26
3 22 38 55
3 38 35 69
3 38 69 55
3 22 51 34
3 51 60 34
3 34 60 65
3 65 60 98
3 82 107 60
3 60 107 98
3 98 107 140
3 98 101 65
3 101 59 65
3 59 101 111
3 78 111 105
3 163 137 180
3 137 98 152
3 98 140 152
3 127 181 128
3 97 128 116
3 116 100 68
3 100 63 68
3 63 100 112
3 63 112 74
3 68 63 36
3 26 14 36
3 14 6 23
3 23 6 17
3 3 10 13
3 10 14 35
3 10 22 13
3 34 13 22
3 13 34 20
3 19 53 47
3 121 105 149
3 90 117 127
3 54 90 97
3 127 97 90
3 93 116 68
3 56 36 39
3 23 39 36
3 31 40 54
3 0 4 5
3 4 3 8
3 8 3 13
3 7 4 15
3 58 27 49
3 58 49 75
3 27 19 47
3 75 49 78
3 75 105 121
3 166 92 121
3 92 75 121
3 149 198 183
3 162 117 119
3 162 119 160
3 83 155 119
3 160 119 155
3 25 62 40
3 25 48 71
3 45 48 28
3 25 28 48
3 9 25 40
3 17 6 9
3 9 1 11
3 16 18 5
3 11 5 18
3 29 18 16
3 29 16 33
3 21 16 7
3 24 21 7
3 95 52 70
3 52 24 42
3 52 42 70
3 24 15 42
3 70 42 80
3 75 92 58
3 80 110 70
3 99 109 144
3 109 110 174
3 184 177 132
3 147 88 120
3 120 88 96
3 126 71 91
3 91 61 89
3 41 61 45
3 45 28 41
3 45 61 66
3 61 41 67
3 29 67 41
3 103 61 67
3 131 81 134
3 33 64 72
3 95 70 99
3 109 186 144
3 109 174 186
3 141 169 197
3 197 129 141
3 67 130 103
3 103 130 191
3 191 130 195
3 134 171 131
3 134 168 171
3 190 195 130
3 130 187 190
3 199 118 178
3 125 173 179
3 125 172 139
3 112 170 145
3 170 112 165
3 150 146 113
3 114 123 150
3 114 150 113
3 123 176 150
3 84 123 114
3 69 35 57
3 85 69 115
3 115 69 113
3 107 94 143
3 107 143 156
3 135 143 94
3 152 140 185
3 145 151 108
3 145 108 112
3 73 74 108
3 73 108 123
3 108 74 112
3 43 46 73
3 43 73 57
3 57 73 84
3 14 26 35
3 22 10 35
3 38 22 35
3 85 55 69
3 30 34 65
3 30 65 59
3 30 59 19
3 19 59 53
3 111 76 59
3 47 53 76
3 47 76 78
3 111 78 76
3 53 59 76
3 142 105 111
3 142 111 163
3 137 163 111
3 137 111 101
3 157 193 127
3 127 193 192
3 97 127 128
3 116 128 159
3 159 128 181
3 116 159 165
3 8 20 30
3 30 20 34
3 8 30 19
3 49 47 78
3 198 149 196
3 196 149 142
3 142 149 105
3 142 163 196
3 162 157 117
3 117 90 83
3 54 83 90
3 119 117 83
3 86 83 54
3 11 1 5
3 5 1 0
3 4 7 5
3 32 15 27
3 32 27 58
3 49 27 47
3 58 92 80
3 80 122 110
3 122 80 92
3 153 122 92
3 153 92 166
3 138 155 83
3 138 83 86
3 132 177 138
3 132 138 88
3 88 138 86
3 62 88 86
3 40 62 54
3 54 62 86
3 120 96 71
3 71 96 62
3 71 62 25
3 62 96 88
3 48 91 71
3 66 91 48
3 66 48 45
3 9 28 25
3 11 28 9
3 37 33 21
3 37 21 24
3 21 33 16
3 64 37 52
3 64 52 79
3 79 52 95
3 24 52 37
3 80 50 58
3 32 58 50
3 32 50 42
3 32 42 15
3 42 50 80
3 153 158 122
3 122 158 174
3 122 174 110
3 147 194 132
3 132 194 184
3 182 154 126
3 126 154 120
3 71 126 120
3 89 129 133
3 91 89 133
3 91 133 126
3 126 133 182
3 182 133 189
3 189 133 129
3 189 129 164
3 141 129 104
3 103 104 61
3 89 61 104
3 89 104 129
3 44 67 29
3 81 106 67
3 106 81 131
3 81 67 44
3 102 134 81
3 102 81 77
3 102 77 72
3 72 77 44
3 72 44 33
3 44 77 81
3 29 33 44
3 124 102 87
3 72 87 102
3 95 118 79
3 79 118 87
3 79 87 64
3 64 87 72
3 134 102 124
3 134 124 168
3 136 118 95
3 148 136 95
3 144 148 99
3 99 148 95
3 169 141 104
3 169 104 103
3 191 169 103
3 131 187 130
3 131 130 106
3 106 130 67
3 171 187 131
3 148 118 136
3 118 148 178
3 173 118 199
3 173 125 118
3 87 139 124
3 124 139 167
3 125 139 87
3 125 87 118
3 124 167 161
3 124 161 168
3 140 156 185
3 55 51 22
3 51 55 82
3 82 60 51
3 55 94 82
3 98 137 101
3 192 181 127
3 112 100 165
3 165 100 116
3 63 74 46
3 63 46 26
3 36 63 26
3 10 3 2
3 10 2 14
3 14 2 6
3 117 157 127
3 54 97 93
3 93 97 116
3 54 93 56
3 68 56 93
3 68 36 56
3 54 56 31
3 31 56 39
3 14 23 36
3 17 39 23
3 39 17 31
3 31 17 40
3 0 1 2
3 0 2 3
3 6 2 1
3 0 3 4
3 8 13 20
3 8 19 12
3 4 8 12
3 19 27 12
3 4 12 15
3 12 27 15
3 105 75 78
3 183 166 121
3 121 149 183
3 40 17 9
3 9 6 1
3 5 7 16
3 15 24 7
3 70 110 109
3 70 109 99
3 132 88 147
3 66 61 91
3 29 41 18
3 11 18 28
3 28 18 41
3 33 37 64
3 179 172 125
