ply
format ascii 1.0
comment Generated by PyMesh
element vertex 179
property float x
property float y
property float z
property float nx
property float ny
property float nz
element face 305
property list uchar int vertex_indices
end_header
-19.9643 -14.9095 9.72375 -0.551402 0.0766464 -0.830711
-19.8773 -15.9108 9.7025 -0.574519 -0.335193 -0.746708
-19.252 -13.9431 9.88231 -0.230642 0.0821338 -0.969566
-20.7668 -14.7948 10.9923 -0.989371 -0.0093741 -0.14511
-20.5179 -15.9096 11.1258 -0.938621 -0.344245 -0.0220189
-20.2196 -13.3044 10.6401 -0.761396 0.321536 -0.56293
-18.377 -16.4015 9.718 -0.184434 -0.220216 -0.957856
-19.4224 -12.7526 9.99325 -0.537361 0.287897 -0.79269
-18.3202 -13.137 9.70988 -0.0848291 0.0187486 -0.996219
-19.7464 -17.0767 10.7243 -0.631306 -0.724487 -0.276715
-20.6022 -13.328 11.6995 -0.936276 0.084451 -0.340963
-20.2013 -14.7099 12.4825 -0.897953 -0.43703 0.0518187
-17.3151 -13.7944 9.69925 0.128148 0.0611198 -0.98987
-18.6355 -17.4405 10.5407 -0.403905 -0.746356 -0.528973
-18.0872 -12.0767 9.72775 -0.144112 0.253934 -0.956425
-17.221 -15.7148 9.389 0.133318 0.00501467 -0.991061
-18.8921 -11.6245 10.3421 -0.543557 0.608633 -0.578024
-19.3253 -16.6465 12.5305 -0.920531 -0.347953 0.177628
-17.0845 -17.4163 9.75125 0.00464454 -0.611645 -0.791119
-17.0565 -12.6155 9.80875 0.274633 0.11672 -0.954439
-19.0355 -17.5035 11.8131 -0.792987 -0.558629 -0.243117
-20.0719 -11.826 12.3647 -0.660231 0.616466 -0.429027
-21.0245 -13.6438 12.84 -0.882519 -0.299105 -0.362899
-21.164 -12.614 12.603 -0.847744 0.221375 -0.481999
-17.642 -11.1625 10.057 0.0708431 0.739224 -0.669724
-16.2515 -14.8927 10.0135 0.41567 0.0408365 -0.908598
-17.9685 -18.186 11.2349 -0.42107 -0.684467 -0.595151
-16.3331 -11.9799 10.336 0.25465 0.623967 -0.738795
-20.9441 -14.2774 14.1104 -0.656228 -0.535194 -0.531913
-19.3857 -16.0071 13.5597 -0.890953 -0.26768 -0.36681
-15.6134 -13.1465 10.1267 0.135047 0.00100278 -0.990839
-20.1612 -15.324 14.3276 -0.659343 -0.395084 -0.639669
-16.0744 -16.6863 9.843 0.565207 -0.335631 -0.753587
-18.4757 -18.5233 12.208 -0.711973 -0.297761 -0.63595
-18.9442 -11.0352 11.6637 -0.371316 0.846535 -0.381449
-16.4518 -17.9608 11.0473 0.361538 -0.527696 -0.768653
-19.2798 -18.357 13.0977 -0.919792 -0.196049 -0.339924
-21.7095 -13.0495 13.7542 -0.650328 -0.14921 -0.744856
-20.5223 -11.3789 13.7464 -0.520897 0.660354 -0.540924
-19.2892 -10.6217 13.267 -0.334676 0.910521 -0.242781
-21.4137 -11.8073 13.9376 -0.545339 0.442209 -0.712079
-19.5499 -17.8784 14.2705 -0.904105 -0.189099 -0.383192
-15.3027 -14.1698 10.387 0.210353 -0.150234 -0.966013
-17.6385 -19.39 11.624 -0.342342 -0.247706 -0.906336
-19.0397 -19.3747 12.6708 -0.877248 0.00784915 -0.479974
-14.9095 -11.794 10.3015 0.13334 0.56375 -0.815111
-21.8455 -15.0938 14.9732 -0.359799 -0.248848 -0.899233
-17.2897 -10.9758 11.8864 0.307248 0.871201 -0.382894
-20.6803 -16.614 14.708 -0.473438 -0.201414 -0.85749
-16.3521 -11.4514 11.8585 0.0602094 0.903033 -0.42533
-18.04 -10.3495 12.4425 -0.0188837 0.93446 -0.355567
-15.234 -11.3053 11.3237 -0.100538 0.894178 -0.436278
-14.7806 -15.9108 10.7155 0.538949 -0.461817 -0.704457
-15.5204 -17.4001 11.7778 0.746641 -0.39578 -0.534683
-20.4439 -10.5723 14.3776 -0.1757 0.687899 -0.704219
-13.9409 -12.787 10.2555 0.321426 0.100952 -0.941538
-15.7309 -18.8997 11.833 0.495304 0.103235 -0.862564
-16.6225 -19.2935 11.544 0.0681923 -0.229687 -0.970873
-22.7603 -12.7945 14.5735 -0.444675 -0.157526 -0.881731
-22.695 -13.8725 14.969 -0.371655 -0.333765 -0.866299
-19.1986 -19.2754 14.274 -0.92557 -0.359042 0.12004
-22.4034 -11.3806 14.4312 -0.279148 -0.00970253 -0.960199
-20.121 -18.161 15.2113 -0.555218 -0.796159 -0.24055
-13.9121 -14.6616 10.49 0.279298 -0.289262 -0.915598
-18.3009 -10.4878 14.4353 -0.351694 0.898683 -0.262068
-19.324 -10.4045 14.811 0.125617 0.949726 -0.286775
-18.3305 -20.5438 12.0871 -0.39823 -0.422241 -0.814325
-22.1509 -16.184 15.2255 -0.4255 -0.171971 -0.888468
-14.5136 -10.6986 12.1084 -0.118791 0.560971 -0.819268
-19.409 -20.792 12.978 -0.883386 -0.374141 -0.282221
-21.5238 -10.0594 14.7436 0.230592 0.180458 -0.95617
-14.9967 -17.985 12.6185 0.551546 -0.00227116 -0.834141
-14.7751 -16.7673 12.45 0.518764 -0.437104 -0.734727
-20.4977 -9.66825 15.1231 0.461489 0.593141 -0.659705
-16.4888 -20.8814 11.9667 -0.185236 -0.607896 -0.772107
-16.8458 -10.3915 13.2823 -0.0914488 0.806767 -0.58375
-23.8135 -12.9655 14.8745 -0.0165388 -0.164178 -0.986292
-15.3629 -10.7626 12.8304 -0.332311 0.671036 -0.662782
-21.7003 -17.7903 15.2955 -0.338865 -0.766095 -0.54614
-13.0511 -12.0589 11.1349 0.334992 0.609531 -0.718507
-20.1497 -17.8965 16.3142 -0.0822094 -0.962594 0.258176
-13.0988 -13.906 10.6888 0.488421 -0.186139 -0.852524
-18.991 -20.5486 14.2711 -0.904689 -0.282407 0.319035
-14.399 -19.2179 12.522 0.252016 0.457675 -0.852655
-18.4521 -10.3144 15.4754 -0.275903 0.864479 -0.420183
-23.7349 -11.4009 14.8865 -0.20439 -0.0241314 -0.978592
-23.6983 -15.4121 15.7929 -0.505832 -0.346783 -0.789858
-23.42 -10.2725 14.429 -0.470196 -0.275288 -0.83853
-24.2787 -14.2273 15.3814 -0.187205 -0.581612 -0.791632
-18.7972 -18.3533 16.0192 -0.319749 -0.725159 0.60984
-15.4234 -20.7494 11.6316 -0.0162033 -0.232831 -0.972382
-19.343 -10.0887 16.0842 0.269278 0.796883 -0.540802
-22.8726 -16.7812 15.842 -0.536079 -0.44307 -0.718546
-17.4824 -9.63325 15.3156 -0.740196 0.487666 -0.462917
-13.3985 -16.0914 12.4439 0.338644 -0.620605 -0.707227
-18.5475 -21.4718 13.2292 -0.517315 -0.82752 -0.218167
-17.565 -21.621 12.901 -0.0619466 -0.872078 -0.48543
-20.1265 -9.2905 16.176 0.611254 0.245662 -0.752342
-16.9587 -9.418 13.788 -0.698075 0.434666 -0.568996
-17.8062 -20.0595 15.7515 -0.51637 -0.0773933 0.852861
-13.842 -9.499 12.3448 0.114291 0.198146 -0.973486
-13.537 -16.9993 13.0068 0.0766716 -0.213076 -0.974023
-15.6578 -21.8027 12.2808 -0.286073 -0.660013 -0.694654
-13.6392 -18.2104 13.0052 0.0598922 0.12674 -0.990126
-21.2502 -8.50362 14.8431 0.671974 -0.133546 -0.728434
-24.8075 -12.0948 14.653 0.152374 0.243081 -0.957963
-12.9963 -10.7945 12.6664 0.319079 0.427744 -0.845709
-13.4522 -20.3778 11.8142 -0.25051 0.0717346 -0.965453
-23.149 -9.1075 13.7925 -0.118113 -0.489313 -0.864073
-21.097 -17.8819 17.3271 0.25498 -0.965425 -0.0542275
-22.3465 -8.49375 14.0885 0.588423 -0.468957 -0.658663
-11.7505 -12.7638 11.138 0.546991 0.154282 -0.822799
-19.4132 -17.3011 17.4401 -0.0488682 -0.997534 0.0503702
-12.2097 -14.7964 12.0905 0.467392 -0.461372 -0.754109
-17.7922 -18.65 16.1109 -0.174348 -0.44376 0.879022
-22.3715 -18.0075 16.6774 -0.178282 -0.902509 -0.392038
-13.021 -19.0665 12.565 -0.422291 0.500225 -0.75594
-18.8542 -9.37125 16.6077 -0.0286449 0.379911 -0.924579
-18.3845 -21.2685 15.405 -0.82531 -0.278568 0.491186
-24.1569 -9.28213 14.6067 -0.65629 -0.196043 -0.728595
-15.4358 -9.10581 13.2952 -0.419749 0.28432 -0.861959
-24.6903 -10.3582 15.2692 -0.331744 0.0426787 -0.942404
-12.4464 -16.3261 12.8144 -0.0102562 -0.234887 -0.971969
-25.6367 -13.6027 14.3519 0.157091 -0.424198 -0.89184
-17.8506 -21.9183 14.0427 -0.469783 -0.865765 -0.172493
-11.4605 -13.5615 11.6944 0.788617 -0.285382 -0.544646
-17.5441 -17.9046 16.8259 -0.205879 -0.816139 0.539936
-11.244 -12.127 12.0522 0.665982 0.292855 -0.686079
-16.891 -8.604 14.5685 -0.911108 0.276913 -0.30529
-25.1311 -14.8569 16.837 -0.561717 -0.619481 -0.548377
-11.7086 -11.227 12.6416 0.155044 0.504703 -0.849256
-16.6554 -19.6135 15.8066 -0.160957 -0.247961 0.955305
-14.2817 -22.0046 12.2579 0.127493 -0.718397 -0.68385
-21.5989 -7.74388 13.9134 0.659801 -0.707421 -0.253412
-24.3081 -16.9456 17.0079 -0.668279 -0.464985 -0.580682
-17.215 -21.182 16.3 -0.382752 0.121236 0.915862
-23.98 -8.416 14.069 -0.801276 -0.42702 -0.419059
-23.6791 -17.8656 17.2634 -0.533953 -0.708084 -0.462072
-17.794 -22.0595 15.6 -0.619956 -0.645783 0.445666
-17.0825 -7.7875 15.585 -0.834138 -0.0571497 -0.548587
-23.2985 -8.6565 12.6355 -0.149108 -0.988821 -0.000164651
-17.8437 -7.97316 16.2629 -0.424628 -0.21275 -0.880016
-20.0229 -7.55125 15.8363 0.562908 -0.387783 -0.729903
-20.6695 -7.0855 15.0363 0.67072 -0.488536 -0.558093
-14.5334 -8.09988 12.9789 -0.416646 -0.127902 -0.900026
-26.1826 -11.346 14.5651 0.187801 0.455244 -0.870336
-15.1538 -22.9007 13.666 -0.199354 -0.836523 -0.510379
-16.4895 -7.686 14.14 -0.666855 -0.076441 -0.741257
-25.0569 -9.07125 15.4163 -0.546323 0.134883 -0.826643
-11.8234 -17.5637 12.5243 -0.355289 0.377602 -0.855094
-12.1716 -9.38762 13.3766 0.174566 0.148977 -0.97331
-12.1987 -18.6593 11.4368 -0.578644 0.560269 -0.59268
-20.5543 -17.7648 18.8069 0.29081 -0.876143 -0.384451
-25.9482 -10.5319 15.2934 -0.0906333 0.436551 -0.895103
-21.9031 -18.5366 18.5519 0.0921503 -0.984216 -0.151084
-12.2453 -21.5086 12.2209 0.0460916 -0.974208 -0.220894
-12.15 -19.856 10.8355 -0.502772 0.0193313 -0.864203
-12.4315 -8.2485 13.1453 0.145432 -0.269293 -0.952014
-15.4591 -7.77588 13.7755 -0.501152 0.0173468 -0.865186
-26.7301 -14.3379 16.3348 -0.224134 -0.942859 -0.246537
-19.545 -7.992 16.6395 0.269309 -0.335886 -0.902581
-19.1235 -17.754 18.9455 -0.162961 -0.774521 -0.611196
-11.0767 -13.8383 12.7755 0.819549 -0.0684307 -0.568909
-16.3092 -18.1705 16.6495 -0.247336 -0.843884 0.476114
-26.8141 -14.1469 15.035 -0.226286 -0.79144 -0.567819
-25.93 -14.7115 17.6225 -0.337197 -0.789396 -0.512984
-10.486 -11.3888 12.7402 0.450092 -0.105326 -0.886749
-24.5421 -7.63413 14.8821 -0.897409 -0.127787 -0.422288
-23.2646 -18.4062 18.2847 -0.396844 -0.917554 -0.0246953
-10.7312 -12.692 13.1929 0.79296 -0.188557 -0.579363
-14.0501 -22.4589 13.2975 0.409791 -0.823901 -0.391482
-15.5013 -20.0995 15.9392 -0.381136 0.01076 0.924456
-24.8548 -16.8934 18.0691 -0.595434 -0.769929 -0.229493
-24.2743 -7.45813 13.5571 -0.927345 -0.362319 -0.0935721
-17.3512 -17.908 18.412 -0.120747 -0.962404 -0.243306
-16.4114 -22.8342 14.3748 -0.460804 -0.846615 -0.266276
-16.823 -22.581 15.611 -0.625915 -0.73766 0.253155
-20.324 -6.3865 14.3372 0.499942 -0.811387 -0.302835
-21.936 -7.92137 12.5278 0.511917 -0.808369 0.290657
3 136 119 167
3 140 136 173
3 167 173 136
3 123 145 105
3 121 119 87
3 121 87 85
3 108 61 87
3 85 87 61
3 88 46 86
3 76 123 105
3 85 61 76
3 58 76 61
3 58 37 59
3 37 61 40
3 37 40 22
3 22 40 23
3 23 40 21
3 38 54 39
3 54 65 39
3 39 65 64
3 65 54 73
3 97 104 142
3 142 104 143
3 159 123 88
3 46 67 86
3 92 86 67
3 28 46 59
3 37 22 28
3 11 22 10
3 10 3 11
3 3 10 5
3 21 5 10
3 34 50 47
3 75 98 120
3 50 39 75
3 158 144 120
3 120 147 158
3 134 92 137
3 115 137 92
3 115 109 154
3 80 78 62
3 80 62 89
3 89 62 60
3 62 78 48
3 62 48 41
3 60 41 36
3 67 46 48
3 31 46 28
3 3 0 4
3 7 2 5
3 16 21 34
3 2 8 12
3 12 8 19
3 27 12 19
3 30 27 45
3 45 27 51
3 47 49 27
3 49 51 27
3 120 100 68
3 51 68 79
3 100 157 150
3 89 99 114
3 60 99 89
3 36 44 60
3 82 60 44
3 6 0 2
3 25 30 42
3 30 55 63
3 130 166 127
3 166 169 127
3 127 169 125
3 163 174 126
3 138 176 135
3 124 175 176
3 118 82 124
3 95 124 82
3 33 44 36
3 33 36 20
3 36 41 20
3 20 41 17
3 20 17 9
3 9 17 4
3 13 9 6
3 33 26 43
3 33 43 44
3 43 26 35
3 43 35 57
3 35 18 32
3 35 32 53
3 32 15 25
3 125 81 111
3 111 81 79
3 113 125 162
3 132 146 102
3 146 74 102
3 74 124 96
3 96 124 95
3 102 74 90
3 57 90 74
3 107 151 156
3 63 113 52
3 94 52 113
3 122 94 113
3 132 107 155
3 151 116 149
3 149 116 103
3 139 128 93
3 21 40 38
3 153 148 121
3 121 148 119
3 119 136 108
3 140 108 136
3 87 119 108
3 110 108 140
3 85 105 121
3 121 105 153
3 153 105 145
3 76 105 85
3 40 54 38
3 54 40 70
3 70 40 61
3 70 61 108
3 70 108 110
3 73 54 70
3 73 70 104
3 104 70 110
3 133 104 110
3 178 133 140
3 140 133 110
3 142 143 177
3 177 143 133
3 133 143 104
3 59 46 88
3 59 88 76
3 59 76 58
3 76 88 123
3 34 21 39
3 39 21 38
3 75 39 64
3 98 75 64
3 98 64 93
3 98 93 128
3 84 64 65
3 64 84 93
3 97 91 73
3 91 97 117
3 73 91 65
3 65 91 84
3 84 91 117
3 84 117 93
3 160 141 117
3 97 142 117
3 117 141 93
3 117 142 160
3 139 147 128
3 159 129 165
3 159 88 129
3 129 88 86
3 129 86 134
3 92 134 86
3 22 11 28
3 75 47 50
3 112 109 80
3 41 60 62
3 31 48 46
3 31 28 11
3 3 4 11
3 2 7 8
3 12 27 30
3 77 51 49
3 77 75 120
3 75 77 49
3 75 49 47
3 68 51 77
3 68 77 120
3 106 79 68
3 106 68 100
3 130 106 150
3 150 106 100
3 154 109 152
3 161 152 112
3 112 152 109
3 126 174 112
3 126 89 114
3 89 112 80
3 112 89 126
3 163 126 131
3 131 126 114
3 114 99 131
3 82 118 99
3 82 99 60
3 29 17 41
3 31 29 48
3 48 29 41
3 11 4 17
3 11 17 29
3 11 29 31
3 42 30 63
3 162 125 169
3 131 135 171
3 13 26 20
3 13 20 9
3 20 26 33
3 90 57 56
3 56 57 35
3 53 56 35
3 83 56 71
3 71 56 53
3 72 71 53
3 52 72 53
3 42 63 52
3 42 52 25
3 113 63 81
3 125 113 81
3 132 170 146
3 103 116 83
3 107 83 116
3 107 116 151
3 71 103 83
3 101 149 103
3 94 101 72
3 94 72 52
3 71 72 103
3 103 72 101
3 122 149 101
3 122 101 94
3 93 141 139
3 119 148 167
3 37 58 61
3 73 104 97
3 123 159 164
3 28 59 37
3 22 23 10
3 21 10 23
3 39 50 34
3 98 128 147
3 98 147 120
3 172 134 137
3 78 67 48
3 80 109 78
3 115 78 109
3 115 92 78
3 92 67 78
3 5 2 0
3 3 5 0
3 21 16 7
3 21 7 5
3 14 19 8
3 14 8 7
3 14 7 16
3 47 27 24
3 47 24 34
3 34 24 16
3 16 24 14
3 14 24 19
3 27 19 24
3 120 144 100
3 157 100 144
3 137 115 168
3 137 168 172
3 115 154 168
3 0 1 4
3 1 0 6
3 12 25 15
3 12 15 6
3 12 6 2
3 12 30 25
3 45 55 30
3 55 45 79
3 45 51 79
3 106 130 79
3 124 138 118
3 138 124 176
3 99 118 135
3 138 135 118
3 99 135 131
3 66 95 69
3 66 69 44
3 82 69 95
3 69 82 44
3 9 4 1
3 6 9 1
3 6 18 13
3 13 18 26
3 26 18 35
3 15 32 18
3 15 18 6
3 32 25 52
3 32 52 53
3 79 81 55
3 55 81 63
3 125 111 127
3 111 79 127
3 127 79 130
3 175 124 146
3 146 124 74
3 66 44 43
3 66 74 96
3 66 96 95
3 74 66 43
3 57 74 43
3 107 90 56
3 107 56 83
3 132 90 107
3 90 132 102
