ply
format ascii 1.0
comment Generated by PyMesh
element vertex 186
property float x
property float y
property float z
property float nx
property float ny
property float nz
element face 321
property list uchar int vertex_indices
end_header
-19.252 -13.9431 9.88231 -0.230642 0.0821338 -0.969566
-19.4224 -12.7526 9.99325 -0.537361 0.287897 -0.79269
-19.9643 -14.9095 9.72375 -0.551402 0.0766464 -0.830711
-18.3202 -13.137 9.70988 -0.0848291 0.0187486 -0.996219
-20.2196 -13.3044 10.6401 -0.761396 0.321536 -0.56293
-17.3151 -13.7944 9.69925 0.128148 0.0611198 -0.98987
-19.8773 -15.9108 9.7025 -0.574519 -0.335193 -0.746708
-18.0872 -12.0767 9.72775 -0.144112 0.253934 -0.956425
-18.8921 -11.6245 10.3421 -0.543557 0.608633 -0.578024
-20.6022 -13.328 11.6995 -0.936276 0.084451 -0.340963
-18.377 -16.4015 9.718 -0.184434 -0.220216 -0.957856
-17.0565 -12.6155 9.80875 0.274633 0.11672 -0.954439
-20.7668 -14.7948 10.9923 -0.989371 -0.0093741 -0.14511
-20.5179 -15.9096 11.1258 -0.938621 -0.344245 -0.0220189
-17.642 -11.1625 10.057 0.0708431 0.739224 -0.669724
-16.2515 -14.8927 10.0135 0.41567 0.0408365 -0.908598
-20.0719 -11.826 12.3647 -0.660231 0.616466 -0.429027
-16.3331 -11.9799 10.336 0.25465 0.623967 -0.738795
-21.0245 -13.6438 12.84 -0.882519 -0.299105 -0.362899
-19.7464 -17.0767 10.7243 -0.631306 -0.724487 -0.276715
-21.164 -12.614 12.603 -0.847744 0.221375 -0.481999
-15.6134 -13.1465 10.1267 0.135047 0.00100278 -0.990839
-17.221 -15.7148 9.389 0.133318 0.00501467 -0.991061
-18.9442 -11.0352 11.6637 -0.371316 0.846535 -0.381449
-18.6355 -17.4405 10.5407 -0.403905 -0.746356 -0.528973
-20.2013 -14.7099 12.4825 -0.897953 -0.43703 0.0518187
-17.0845 -17.4163 9.75125 0.00464454 -0.611645 -0.791119
-15.3027 -14.1698 10.387 0.210353 -0.150234 -0.966013
-19.3253 -16.6465 12.5305 -0.920531 -0.347953 0.177628
-21.7095 -13.0495 13.7542 -0.650328 -0.14921 -0.744856
-19.0355 -17.5035 11.8131 -0.792987 -0.558629 -0.243117
-14.9095 -11.794 10.3015 0.13334 0.56375 -0.815111
-20.5223 -11.3789 13.7464 -0.520897 0.660354 -0.540924
-17.9685 -18.186 11.2349 -0.42107 -0.684467 -0.595151
-20.9441 -14.2774 14.1104 -0.656228 -0.535194 -0.531913
-17.2897 -10.9758 11.8864 0.307248 0.871201 -0.382894
-16.0744 -16.6863 9.843 0.565207 -0.335631 -0.753587
-16.3521 -11.4514 11.8585 0.0602094 0.903033 -0.42533
-18.04 -10.3495 12.4425 -0.0188837 0.93446 -0.355567
-15.234 -11.3053 11.3237 -0.100538 0.894178 -0.436278
-19.2892 -10.6217 13.267 -0.334676 0.910521 -0.242781
-21.4137 -11.8073 13.9376 -0.545339 0.442209 -0.712079
-14.7806 -15.9108 10.7155 0.538949 -0.461817 -0.704457
-13.9409 -12.787 10.2555 0.321426 0.100952 -0.941538
-16.4518 -17.9608 11.0473 0.361538 -0.527696 -0.768653
-19.3857 -16.0071 13.5597 -0.890953 -0.26768 -0.36681
-20.1612 -15.324 14.3276 -0.659343 -0.395084 -0.639669
-13.9121 -14.6616 10.49 0.279298 -0.289262 -0.915598
-20.4439 -10.5723 14.3776 -0.1757 0.687899 -0.704219
-18.4757 -18.5233 12.208 -0.711973 -0.297761 -0.63595
-22.7603 -12.7945 14.5735 -0.444675 -0.157526 -0.881731
-17.6385 -19.39 11.624 -0.342342 -0.247706 -0.906336
-22.4034 -11.3806 14.4312 -0.279148 -0.00970253 -0.960199
-14.5136 -10.6986 12.1084 -0.118791 0.560971 -0.819268
-21.8455 -15.0938 14.9732 -0.359799 -0.248848 -0.899233
-19.2798 -18.357 13.0977 -0.919792 -0.196049 -0.339924
-16.8458 -10.3915 13.2823 -0.0914488 0.806767 -0.58375
-22.695 -13.8725 14.969 -0.371655 -0.333765 -0.866299
-15.3629 -10.7626 12.8304 -0.332311 0.671036 -0.662782
-18.3009 -10.4878 14.4353 -0.351694 0.898683 -0.262068
-19.324 -10.4045 14.811 0.125617 0.949726 -0.286775
-13.0511 -12.0589 11.1349 0.334992 0.609531 -0.718507
-13.0988 -13.906 10.6888 0.488421 -0.186139 -0.852524
-15.5204 -17.4001 11.7778 0.746641 -0.39578 -0.534683
-19.5499 -17.8784 14.2705 -0.904105 -0.189099 -0.383192
-15.7309 -18.8997 11.833 0.495304 0.103235 -0.862564
-16.6225 -19.2935 11.544 0.0681923 -0.229687 -0.970873
-21.5238 -10.0594 14.7436 0.230592 0.180458 -0.95617
-14.7751 -16.7673 12.45 0.518764 -0.437104 -0.734727
-20.4977 -9.66825 15.1231 0.461489 0.593141 -0.659705
-19.0397 -19.3747 12.6708 -0.877248 0.00784915 -0.479974
-23.8135 -12.9655 14.8745 -0.0165388 -0.164178 -0.986292
-20.6803 -16.614 14.708 -0.473438 -0.201414 -0.85749
-13.3985 -16.0914 12.4439 0.338644 -0.620605 -0.707227
-22.1509 -16.184 15.2255 -0.4255 -0.171971 -0.888468
-16.9587 -9.418 13.788 -0.698075 0.434666 -0.568996
-18.3305 -20.5438 12.0871 -0.39823 -0.422241 -0.814325
-13.842 -9.499 12.3448 0.114291 0.198146 -0.973486
-18.4521 -10.3144 15.4754 -0.275903 0.864479 -0.420183
-23.7349 -11.4009 14.8865 -0.20439 -0.0241314 -0.978592
-23.42 -10.2725 14.429 -0.470196 -0.275288 -0.83853
-12.9963 -10.7945 12.6664 0.319079 0.427744 -0.845709
-19.1986 -19.2754 14.274 -0.92557 -0.359042 0.12004
-19.343 -10.0887 16.0842 0.269278 0.796883 -0.540802
-14.9967 -17.985 12.6185 0.551546 -0.00227116 -0.834141
-20.121 -18.161 15.2113 -0.555218 -0.796159 -0.24055
-17.4824 -9.63325 15.3156 -0.740196 0.487666 -0.462917
-16.4888 -20.8814 11.9667 -0.185236 -0.607896 -0.772107
-11.7505 -12.7638 11.138 0.546991 0.154282 -0.822799
-12.2097 -14.7964 12.0905 0.467392 -0.461372 -0.754109
-24.2787 -14.2273 15.3814 -0.187205 -0.581612 -0.791632
-20.1265 -9.2905 16.176 0.611254 0.245662 -0.752342
-15.4358 -9.10581 13.2952 -0.419749 0.28432 -0.861959
-12.4464 -16.3261 12.8144 -0.0102562 -0.234887 -0.971969
-13.537 -16.9993 13.0068 0.0766716 -0.213076 -0.974023
-23.6983 -15.4121 15.7929 -0.505832 -0.346783 -0.789858
-14.399 -19.2179 12.522 0.252016 0.457675 -0.852655
-21.2502 -8.50362 14.8431 0.671974 -0.133546 -0.728434
-24.8075 -12.0948 14.653 0.152374 0.243081 -0.957963
-19.409 -20.792 12.978 -0.883386 -0.374141 -0.282221
-11.4605 -13.5615 11.6944 0.788617 -0.285382 -0.544646
-22.8726 -16.7812 15.842 -0.536079 -0.44307 -0.718546
-11.244 -12.127 12.0522 0.665982 0.292855 -0.686079
-16.891 -8.604 14.5685 -0.911108 0.276913 -0.30529
-23.149 -9.1075 13.7925 -0.118113 -0.489313 -0.864073
-15.4234 -20.7494 11.6316 -0.0162033 -0.232831 -0.972382
-11.7086 -11.227 12.6416 0.155044 0.504703 -0.849256
-22.3465 -8.49375 14.0885 0.588423 -0.468957 -0.658663
-21.7003 -17.7903 15.2955 -0.338865 -0.766095 -0.54614
-18.8542 -9.37125 16.6077 -0.0286449 0.379911 -0.924579
-13.6392 -18.2104 13.0052 0.0598922 0.12674 -0.990126
-24.1569 -9.28213 14.6067 -0.65629 -0.196043 -0.728595
-18.5475 -21.4718 13.2292 -0.517315 -0.82752 -0.218167
-20.1497 -17.8965 16.3142 -0.0822094 -0.962594 0.258176
-24.6903 -10.3582 15.2692 -0.331744 0.0426787 -0.942404
-18.991 -20.5486 14.2711 -0.904689 -0.282407 0.319035
-17.565 -21.621 12.901 -0.0619466 -0.872078 -0.48543
-25.6367 -13.6027 14.3519 0.157091 -0.424198 -0.89184
-14.5334 -8.09988 12.9789 -0.416646 -0.127902 -0.900026
-15.6578 -21.8027 12.2808 -0.286073 -0.660013 -0.694654
-16.4895 -7.686 14.14 -0.666855 -0.076441 -0.741257
-18.7972 -18.3533 16.0192 -0.319749 -0.725159 0.60984
-12.1716 -9.38762 13.3766 0.174566 0.148977 -0.97331
-13.4522 -20.3778 11.8142 -0.25051 0.0717346 -0.965453
-12.4315 -8.2485 13.1453 0.145432 -0.269293 -0.952014
-15.4591 -7.77588 13.7755 -0.501152 0.0173468 -0.865186
-21.5989 -7.74388 13.9134 0.659801 -0.707421 -0.253412
-11.0767 -13.8383 12.7755 0.819549 -0.0684307 -0.568909
-11.8234 -17.5637 12.5243 -0.355289 0.377602 -0.855094
-13.021 -19.0665 12.565 -0.422291 0.500225 -0.75594
-23.98 -8.416 14.069 -0.801276 -0.42702 -0.419059
-10.486 -11.3888 12.7402 0.450092 -0.105326 -0.886749
-17.0825 -7.7875 15.585 -0.834138 -0.0571497 -0.548587
-23.2985 -8.6565 12.6355 -0.149108 -0.988821 -0.000164651
-25.1311 -14.8569 16.837 -0.561717 -0.619481 -0.548377
-17.8437 -7.97316 16.2629 -0.424628 -0.21275 -0.880016
-20.0229 -7.55125 15.8363 0.562908 -0.387783 -0.729903
-20.6695 -7.0855 15.0363 0.67072 -0.488536 -0.558093
-17.8062 -20.0595 15.7515 -0.51637 -0.0773933 0.852861
-10.7312 -12.692 13.1929 0.79296 -0.188557 -0.579363
-26.1826 -11.346 14.5651 0.187801 0.455244 -0.870336
-22.3715 -18.0075 16.6774 -0.178282 -0.902509 -0.392038
-25.0569 -9.07125 15.4163 -0.546323 0.134883 -0.826643
-17.8506 -21.9183 14.0427 -0.469783 -0.865765 -0.172493
-25.9482 -10.5319 15.2934 -0.0906333 0.436551 -0.895103
-24.3081 -16.9456 17.0079 -0.668279 -0.464985 -0.580682
-19.545 -7.992 16.6395 0.269309 -0.335886 -0.902581
-10.3792 -16.5362 12.591 0.210179 0.393611 -0.894928
-21.097 -17.8819 17.3271 0.25498 -0.965425 -0.0542275
-10.6073 -10.0638 12.9993 -0.00148864 0.236394 -0.971656
-19.4132 -17.3011 17.4401 -0.0488682 -0.997534 0.0503702
-17.7922 -18.65 16.1109 -0.174348 -0.44376 0.879022
-18.3845 -21.2685 15.405 -0.82531 -0.278568 0.491186
-14.2817 -22.0046 12.2579 0.127493 -0.718397 -0.68385
-13.3403 -7.75063 12.6695 -0.078355 -0.532924 -0.842527
-23.6791 -17.8656 17.2634 -0.533953 -0.708084 -0.462072
-26.8141 -14.1469 15.035 -0.226286 -0.79144 -0.567819
-15.8385 -6.69825 13.663 -0.370887 -0.574621 -0.729557
-17.0045 -6.579 13.7055 -0.372483 -0.798344 -0.473185
-24.5421 -7.63413 14.8821 -0.897409 -0.127787 -0.422288
-26.7301 -14.3379 16.3348 -0.224134 -0.942859 -0.246537
-24.2743 -7.45813 13.5571 -0.927345 -0.362319 -0.0935721
-10.5662 -14.6614 13.4996 0.587418 0.223629 -0.777773
-15.1538 -22.9007 13.666 -0.199354 -0.836523 -0.510379
-20.324 -6.3865 14.3372 0.499942 -0.811387 -0.302835
-17.5441 -17.9046 16.8259 -0.205879 -0.816139 0.539936
-25.93 -14.7115 17.6225 -0.337197 -0.789396 -0.512984
-21.936 -7.92137 12.5278 0.511917 -0.808369 0.290657
-27.2073 -12.3658 14.2268 -0.247566 -0.171873 -0.953505
-12.1987 -18.6593 11.4368 -0.578644 0.560269 -0.59268
-10.6558 -8.67522 13.3047 -0.176408 -0.207952 -0.9621
-22.8943 -9.02575 11.4333 0.150304 -0.942415 0.298769
-16.6554 -19.6135 15.8066 -0.160957 -0.247961 0.955305
-12.2453 -21.5086 12.2209 0.0460916 -0.974208 -0.220894
-12.15 -19.856 10.8355 -0.502772 0.0193313 -0.864203
-10.1165 -13.3935 14.048 0.385576 0.0616912 -0.920611
-11.4593 -7.06425 12.5245 -0.0430158 -0.6673 -0.743546
-15.3011 -6.19775 12.604 -0.272386 -0.641142 -0.717456
-10.6109 -18 11.5407 -0.147874 0.641766 -0.752509
-18.7805 -6.90188 15.6709 0.146899 -0.741063 -0.655169
-27.443 -11.1007 14.2665 -0.248144 0.492462 -0.83421
-17.215 -21.182 16.3 -0.382752 0.121236 0.915862
-17.794 -22.0595 15.6 -0.619956 -0.645783 0.445666
-24.362 -7.525 11.982 -0.886754 -0.400919 0.230069
-24.8548 -16.8934 18.0691 -0.595434 -0.769929 -0.229493
-17.911 -6.2715 15.196 -0.413333 -0.739608 -0.531165
3 130 111 159
3 133 130 161
3 159 161 130
3 171 167 133
3 168 140 117
3 117 140 98
3 114 111 80
3 114 80 79
3 104 52 80
3 79 80 52
3 90 54 95
3 71 117 98
3 79 52 71
3 50 71 52
3 50 29 57
3 29 52 41
3 29 41 18
3 18 41 20
3 20 41 16
3 32 48 40
3 48 60 40
3 40 60 59
3 60 48 69
3 91 97 136
3 136 97 137
3 160 117 90
3 54 74 95
3 101 95 74
3 34 54 57
3 29 18 34
3 25 18 9
3 9 12 25
3 12 9 4
3 16 4 9
3 23 38 35
3 56 75 92
3 38 40 56
3 125 118 92
3 92 120 125
3 145 101 155
3 141 155 101
3 113 108 85
3 113 85 121
3 121 85 82
3 85 108 72
3 85 72 64
3 82 64 55
3 74 54 72
3 46 54 34
3 12 2 13
3 1 0 4
3 8 16 23
3 0 3 5
3 5 3 11
3 17 5 11
3 21 17 31
3 31 17 39
3 35 37 17
3 37 39 17
3 92 77 53
3 39 53 61
3 77 124 122
3 124 118 154
3 121 138 151
3 82 138 121
3 55 70 82
3 115 82 70
3 10 2 0
3 15 21 27
3 21 43 47
3 106 131 102
3 131 139 102
3 102 139 100
3 149 122 170
3 152 115 143
3 112 143 115
3 49 70 55
3 49 55 30
3 55 64 30
3 30 64 28
3 30 28 19
3 19 28 13
3 24 19 10
3 49 33 51
3 49 51 70
3 51 33 44
3 51 44 66
3 44 26 36
3 44 36 63
3 36 22 15
3 100 62 88
3 88 62 61
3 89 100 127
3 127 162 147
3 153 163 119
3 163 87 119
3 87 143 116
3 116 143 112
3 119 87 105
3 66 105 87
3 123 169 174
3 47 89 42
3 73 42 89
3 93 73 89
3 89 147 93
3 93 147 128
3 169 128 178
3 153 123 173
3 169 129 128
3 128 129 110
3 132 103 86
3 16 41 32
3 144 142 114
3 114 142 111
3 111 130 104
3 133 104 130
3 80 111 104
3 107 104 133
3 79 98 114
3 114 98 144
3 144 98 140
3 71 98 79
3 41 48 32
3 48 41 67
3 67 41 52
3 67 52 104
3 67 104 107
3 69 48 67
3 69 67 97
3 97 67 107
3 126 97 107
3 167 126 133
3 133 126 107
3 136 137 164
3 164 137 126
3 126 137 97
3 117 156 168
3 57 54 90
3 57 90 71
3 57 71 50
3 71 90 117
3 23 16 40
3 40 16 32
3 56 40 59
3 75 56 59
3 75 59 86
3 75 86 103
3 78 59 60
3 59 78 86
3 91 83 69
3 83 91 109
3 69 83 60
3 60 83 78
3 78 83 109
3 78 109 86
3 146 135 109
3 135 146 179
3 179 146 136
3 91 136 109
3 109 135 86
3 109 136 146
3 164 179 136
3 158 120 185
3 179 185 135
3 135 185 132
3 132 185 120
3 132 120 103
3 125 120 157
3 158 157 120
3 160 134 166
3 160 90 134
3 134 90 95
3 134 95 145
3 101 145 95
3 18 25 34
3 56 35 38
3 118 125 157
3 118 157 177
3 154 118 177
3 150 148 113
3 64 82 85
3 46 72 54
3 46 34 25
3 12 13 25
3 0 1 3
3 5 17 21
3 58 39 37
3 58 56 92
3 56 58 37
3 56 37 35
3 53 39 58
3 53 58 92
3 81 61 53
3 81 53 77
3 106 81 122
3 122 81 77
3 176 170 124
3 124 170 122
3 124 154 176
3 165 121 151
3 121 150 113
3 150 121 165
3 172 165 151
3 151 138 172
3 115 152 138
3 115 138 82
3 45 28 64
3 46 45 72
3 72 45 64
3 25 13 28
3 25 28 45
3 25 45 46
3 27 21 47
3 127 100 139
3 162 139 175
3 24 33 30
3 24 30 19
3 30 33 49
3 105 66 65
3 65 66 44
3 63 65 44
3 96 65 84
3 84 65 63
3 68 84 63
3 42 68 63
3 27 47 42
3 27 42 15
3 89 47 62
3 100 89 62
3 110 129 96
3 123 96 129
3 123 129 169
3 84 110 96
3 94 128 110
3 73 94 68
3 73 68 42
3 84 68 110
3 110 68 94
3 93 128 94
3 93 94 73
3 86 135 132
3 111 142 159
3 133 161 183
3 180 140 168
3 29 50 52
3 69 97 91
3 117 160 156
3 34 57 29
3 18 20 9
3 16 9 20
3 40 38 23
3 75 103 120
3 75 120 92
3 184 145 155
3 108 74 72
3 113 148 108
3 141 108 148
3 141 101 108
3 101 74 108
3 4 0 2
3 12 4 2
3 16 8 1
3 16 1 4
3 7 11 3
3 7 3 1
3 7 1 8
3 35 17 14
3 35 14 23
3 23 14 8
3 8 14 7
3 7 14 11
3 17 11 14
3 92 118 77
3 124 77 118
3 2 6 13
3 6 2 10
3 5 15 22
3 5 22 10
3 5 10 0
3 5 21 15
3 31 43 21
3 43 31 61
3 31 39 61
3 81 106 61
3 122 149 106
3 106 149 131
3 143 182 152
3 138 152 181
3 182 181 152
3 138 181 172
3 76 112 99
3 76 99 70
3 115 99 112
3 99 115 70
3 19 13 6
3 10 19 6
3 10 26 24
3 24 26 33
3 33 26 44
3 22 36 26
3 22 26 10
3 36 15 42
3 36 42 63
3 61 62 43
3 43 62 47
3 100 88 102
3 88 61 102
3 102 61 106
3 139 162 127
3 163 143 87
3 76 70 51
3 76 87 116
3 76 116 112
3 87 76 51
3 66 87 51
3 123 105 65
3 123 65 96
3 127 147 89
3 128 147 178
3 153 105 123
3 105 153 119
