ply
format ascii 1.0
comment Generated by PyMesh
element vertex 189
property float x
property float y
property float z
property float nx
property float ny
property float nz
element face 322
property list uchar int vertex_indices
end_header
-18.377 -16.4015 9.718 -0.184434 -0.220216 -0.957856
-18.6355 -17.4405 10.5407 -0.403905 -0.746356 -0.528973
-17.221 -15.7148 9.389 0.133318 0.00501467 -0.991061
-19.8773 -15.9108 9.7025 -0.574519 -0.335193 -0.746708
-17.0845 -17.4163 9.75125 0.00464454 -0.611645 -0.791119
-19.7464 -17.0767 10.7243 -0.631306 -0.724487 -0.276715
-19.9643 -14.9095 9.72375 -0.551402 0.0766464 -0.830711
-17.9685 -18.186 11.2349 -0.42107 -0.684467 -0.595151
-19.252 -13.9431 9.88231 -0.230642 0.0821338 -0.969566
-19.0355 -17.5035 11.8131 -0.792987 -0.558629 -0.243117
-16.2515 -14.8927 10.0135 0.41567 0.0408365 -0.908598
-17.3151 -13.7944 9.69925 0.128148 0.0611198 -0.98987
-16.0744 -16.6863 9.843 0.565207 -0.335631 -0.753587
-20.5179 -15.9096 11.1258 -0.938621 -0.344245 -0.0220189
-16.4518 -17.9608 11.0473 0.361538 -0.527696 -0.768653
-20.7668 -14.7948 10.9923 -0.989371 -0.0093741 -0.14511
-18.4757 -18.5233 12.208 -0.711973 -0.297761 -0.63595
-19.3253 -16.6465 12.5305 -0.920531 -0.347953 0.177628
-19.4224 -12.7526 9.99325 -0.537361 0.287897 -0.79269
-18.3202 -13.137 9.70988 -0.0848291 0.0187486 -0.996219
-17.6385 -19.39 11.624 -0.342342 -0.247706 -0.906336
-20.2196 -13.3044 10.6401 -0.761396 0.321536 -0.56293
-17.0565 -12.6155 9.80875 0.274633 0.11672 -0.954439
-15.3027 -14.1698 10.387 0.210353 -0.150234 -0.966013
-19.2798 -18.357 13.0977 -0.919792 -0.196049 -0.339924
-15.5204 -17.4001 11.7778 0.746641 -0.39578 -0.534683
-15.7309 -18.8997 11.833 0.495304 0.103235 -0.862564
-16.6225 -19.2935 11.544 0.0681923 -0.229687 -0.970873
-14.7806 -15.9108 10.7155 0.538949 -0.461817 -0.704457
-15.6134 -13.1465 10.1267 0.135047 0.00100278 -0.990839
-19.0397 -19.3747 12.6708 -0.877248 0.00784915 -0.479974
-18.0872 -12.0767 9.72775 -0.144112 0.253934 -0.956425
-19.3857 -16.0071 13.5597 -0.890953 -0.26768 -0.36681
-16.3331 -11.9799 10.336 0.25465 0.623967 -0.738795
-20.2013 -14.7099 12.4825 -0.897953 -0.43703 0.0518187
-18.8921 -11.6245 10.3421 -0.543557 0.608633 -0.578024
-20.6022 -13.328 11.6995 -0.936276 0.084451 -0.340963
-19.5499 -17.8784 14.2705 -0.904105 -0.189099 -0.383192
-18.3305 -20.5438 12.0871 -0.39823 -0.422241 -0.814325
-13.9121 -14.6616 10.49 0.279298 -0.289262 -0.915598
-17.642 -11.1625 10.057 0.0708431 0.739224 -0.669724
-14.9967 -17.985 12.6185 0.551546 -0.00227116 -0.834141
-14.7751 -16.7673 12.45 0.518764 -0.437104 -0.734727
-19.1986 -19.2754 14.274 -0.92557 -0.359042 0.12004
-16.4888 -20.8814 11.9667 -0.185236 -0.607896 -0.772107
-14.399 -19.2179 12.522 0.252016 0.457675 -0.852655
-14.9095 -11.794 10.3015 0.13334 0.56375 -0.815111
-20.1612 -15.324 14.3276 -0.659343 -0.395084 -0.639669
-20.0719 -11.826 12.3647 -0.660231 0.616466 -0.429027
-19.409 -20.792 12.978 -0.883386 -0.374141 -0.282221
-20.121 -18.161 15.2113 -0.555218 -0.796159 -0.24055
-21.0245 -13.6438 12.84 -0.882519 -0.299105 -0.362899
-13.9409 -12.787 10.2555 0.321426 0.100952 -0.941538
-21.164 -12.614 12.603 -0.847744 0.221375 -0.481999
-15.4234 -20.7494 11.6316 -0.0162033 -0.232831 -0.972382
-18.9442 -11.0352 11.6637 -0.371316 0.846535 -0.381449
-16.3521 -11.4514 11.8585 0.0602094 0.903033 -0.42533
-15.234 -11.3053 11.3237 -0.100538 0.894178 -0.436278
-13.0988 -13.906 10.6888 0.488421 -0.186139 -0.852524
-20.6803 -16.614 14.708 -0.473438 -0.201414 -0.85749
-18.5475 -21.4718 13.2292 -0.517315 -0.82752 -0.218167
-20.9441 -14.2774 14.1104 -0.656228 -0.535194 -0.531913
-18.991 -20.5486 14.2711 -0.904689 -0.282407 0.319035
-17.565 -21.621 12.901 -0.0619466 -0.872078 -0.48543
-13.3985 -16.0914 12.4439 0.338644 -0.620605 -0.707227
-17.2897 -10.9758 11.8864 0.307248 0.871201 -0.382894
-13.537 -16.9993 13.0068 0.0766716 -0.213076 -0.974023
-15.6578 -21.8027 12.2808 -0.286073 -0.660013 -0.694654
-13.6392 -18.2104 13.0052 0.0598922 0.12674 -0.990126
-13.4522 -20.3778 11.8142 -0.25051 0.0717346 -0.965453
-20.1497 -17.8965 16.3142 -0.0822094 -0.962594 0.258176
-13.021 -19.0665 12.565 -0.422291 0.500225 -0.75594
-21.7095 -13.0495 13.7542 -0.650328 -0.14921 -0.744856
-18.7972 -18.3533 16.0192 -0.319749 -0.725159 0.60984
-12.2097 -14.7964 12.0905 0.467392 -0.461372 -0.754109
-20.5223 -11.3789 13.7464 -0.520897 0.660354 -0.540924
-14.5136 -10.6986 12.1084 -0.118791 0.560971 -0.819268
-13.0511 -12.0589 11.1349 0.334992 0.609531 -0.718507
-12.4464 -16.3261 12.8144 -0.0102562 -0.234887 -0.971969
-17.8062 -20.0595 15.7515 -0.51637 -0.0773933 0.852861
-18.04 -10.3495 12.4425 -0.0188837 0.93446 -0.355567
-17.8506 -21.9183 14.0427 -0.469783 -0.865765 -0.172493
-19.2892 -10.6217 13.267 -0.334676 0.910521 -0.242781
-21.7003 -17.7903 15.2955 -0.338865 -0.766095 -0.54614
-21.4137 -11.8073 13.9376 -0.545339 0.442209 -0.712079
-21.8455 -15.0938 14.9732 -0.359799 -0.248848 -0.899233
-15.3629 -10.7626 12.8304 -0.332311 0.671036 -0.662782
-18.3845 -21.2685 15.405 -0.82531 -0.278568 0.491186
-14.2817 -22.0046 12.2579 0.127493 -0.718397 -0.68385
-22.1509 -16.184 15.2255 -0.4255 -0.171971 -0.888468
-16.8458 -10.3915 13.2823 -0.0914488 0.806767 -0.58375
-11.7505 -12.7638 11.138 0.546991 0.154282 -0.822799
-11.4605 -13.5615 11.6944 0.788617 -0.285382 -0.544646
-15.1538 -22.9007 13.666 -0.199354 -0.836523 -0.510379
-17.7922 -18.65 16.1109 -0.174348 -0.44376 0.879022
-22.695 -13.8725 14.969 -0.371655 -0.333765 -0.866299
-20.4439 -10.5723 14.3776 -0.1757 0.687899 -0.704219
-21.097 -17.8819 17.3271 0.25498 -0.965425 -0.0542275
-11.8234 -17.5637 12.5243 -0.355289 0.377602 -0.855094
-19.4132 -17.3011 17.4401 -0.0488682 -0.997534 0.0503702
-12.1987 -18.6593 11.4368 -0.578644 0.560269 -0.59268
-22.7603 -12.7945 14.5735 -0.444675 -0.157526 -0.881731
-12.2453 -21.5086 12.2209 0.0460916 -0.974208 -0.220894
-12.15 -19.856 10.8355 -0.502772 0.0193313 -0.864203
-16.6554 -19.6135 15.8066 -0.160957 -0.247961 0.955305
-22.4034 -11.3806 14.4312 -0.279148 -0.00970253 -0.960199
-13.842 -9.499 12.3448 0.114291 0.198146 -0.973486
-17.215 -21.182 16.3 -0.382752 0.121236 0.915862
-17.794 -22.0595 15.6 -0.619956 -0.645783 0.445666
-17.5441 -17.9046 16.8259 -0.205879 -0.816139 0.539936
-11.0767 -13.8383 12.7755 0.819549 -0.0684307 -0.568909
-12.9963 -10.7945 12.6664 0.319079 0.427744 -0.845709
-14.0501 -22.4589 13.2975 0.409791 -0.823901 -0.391482
-18.3009 -10.4878 14.4353 -0.351694 0.898683 -0.262068
-22.8726 -16.7812 15.842 -0.536079 -0.44307 -0.718546
-16.9587 -9.418 13.788 -0.698075 0.434666 -0.568996
-19.324 -10.4045 14.811 0.125617 0.949726 -0.286775
-22.3715 -18.0075 16.6774 -0.178282 -0.902509 -0.392038
-16.4114 -22.8342 14.3748 -0.460804 -0.846615 -0.266276
-11.244 -12.127 12.0522 0.665982 0.292855 -0.686079
-15.4358 -9.10581 13.2952 -0.419749 0.28432 -0.861959
-11.2684 -21.2494 10.8208 -0.0814134 -0.656062 -0.750303
-21.5238 -10.0594 14.7436 0.230592 0.180458 -0.95617
-16.823 -22.581 15.611 -0.625915 -0.73766 0.253155
-12.8756 -21.8027 13.1226 0.488607 -0.867332 -0.0948549
-10.3792 -16.5362 12.591 0.210179 0.393611 -0.894928
-20.4977 -9.66825 15.1231 0.461489 0.593141 -0.659705
-11.7086 -11.227 12.6416 0.155044 0.504703 -0.849256
-23.6983 -15.4121 15.7929 -0.505832 -0.346783 -0.789858
-23.8135 -12.9655 14.8745 -0.0165388 -0.164178 -0.986292
-11.359 -19.0748 10.5434 -0.19191 0.390012 -0.90059
-14.1007 -23.507 14.7225 0.397593 -0.856383 -0.329436
-15.5013 -20.0995 15.9392 -0.381136 0.01076 0.924456
-20.5543 -17.7648 18.8069 0.29081 -0.876143 -0.384451
-24.2787 -14.2273 15.3814 -0.187205 -0.581612 -0.791632
-21.9031 -18.5366 18.5519 0.0921503 -0.984216 -0.151084
-10.7312 -12.692 13.1929 0.79296 -0.188557 -0.579363
-15.4062 -23.62 15.2657 -0.273599 -0.946103 -0.173298
-10.7965 -20.389 10.4455 -0.00565507 -0.196118 -0.980564
-10.6109 -18 11.5407 -0.147874 0.641766 -0.752509
-19.1235 -17.754 18.9455 -0.162961 -0.774521 -0.611196
-18.4521 -10.3144 15.4754 -0.275903 0.864479 -0.420183
-23.7349 -11.4009 14.8865 -0.20439 -0.0241314 -0.978592
-16.3092 -18.1705 16.6495 -0.247336 -0.843884 0.476114
-10.5662 -14.6614 13.4996 0.587418 0.223629 -0.777773
-16.891 -8.604 14.5685 -0.911108 0.276913 -0.30529
-23.42 -10.2725 14.429 -0.470196 -0.275288 -0.83853
-11.0785 -21.309 13.4175 -0.000949891 -0.958096 0.286445
-12.214 -21.1847 13.8802 0.382826 -0.908064 0.169896
-15.363 -18.9333 16.6355 -0.588624 -0.620424 0.518262
-19.343 -10.0887 16.0842 0.269278 0.796883 -0.540802
-14.5334 -8.09988 12.9789 -0.416646 -0.127902 -0.900026
-17.3512 -17.908 18.412 -0.120747 -0.962404 -0.243306
-10.486 -11.3888 12.7402 0.450092 -0.105326 -0.886749
-23.6791 -17.8656 17.2634 -0.533953 -0.708084 -0.462072
-17.4824 -9.63325 15.3156 -0.740196 0.487666 -0.462917
-13.0658 -21.9484 14.481 0.708034 -0.684292 -0.174445
-20.1265 -9.2905 16.176 0.611254 0.245662 -0.752342
-12.1716 -9.38762 13.3766 0.174566 0.148977 -0.97331
-12.4315 -8.2485 13.1453 0.145432 -0.269293 -0.952014
-15.4591 -7.77588 13.7755 -0.501152 0.0173468 -0.865186
-9.92775 -21.5767 12.0087 0.304406 -0.927461 -0.217147
-15.8895 -23.399 16.3105 -0.590506 -0.757679 0.277896
-16.4895 -7.686 14.14 -0.666855 -0.076441 -0.741257
-24.3081 -16.9456 17.0079 -0.668279 -0.464985 -0.580682
-14.3577 -23.6195 15.7005 0.404654 -0.913664 0.0383844
-21.2502 -8.50362 14.8431 0.671974 -0.133546 -0.728434
-23.2646 -18.4062 18.2847 -0.396844 -0.917554 -0.0246953
-9.37206 -15.923 13.4043 0.234563 0.378624 -0.895335
-24.8075 -12.0948 14.653 0.152374 0.243081 -0.957963
-14.7135 -19.809 16.6893 -0.80551 -0.317828 0.500139
-17.9299 -18.5216 19.233 -0.185673 -0.642737 -0.743246
-21.6583 -18.8302 19.5923 -0.0679129 -0.831533 -0.551308
-9.4695 -17.6315 11.8567 0.180733 0.702411 -0.688443
-23.149 -9.1075 13.7925 -0.118113 -0.489313 -0.864073
-10.6073 -10.0638 12.9993 -0.00148864 0.236394 -0.971656
-14.875 -21.1975 16.6943 -0.527029 0.491685 0.693172
-10.7903 -20.8727 14.3119 -0.144194 -0.988364 -0.0484175
-10.1165 -13.3935 14.048 0.385576 0.0616912 -0.920611
-22.3465 -8.49375 14.0885 0.588423 -0.468957 -0.658663
-16.3137 -17.9454 17.8433 -0.389684 -0.917404 -0.0807278
-15.5297 -22.2153 17.8867 -0.983886 0.140412 0.110688
-18.8542 -9.37125 16.6077 -0.0286449 0.379911 -0.924579
-9.321 -14.4572 13.7595 -0.0346642 0.281962 -0.958799
-24.1569 -9.28213 14.6067 -0.65629 -0.196043 -0.728595
-25.1311 -14.8569 16.837 -0.561717 -0.619481 -0.548377
-17.0825 -7.7875 15.585 -0.834138 -0.0571497 -0.548587
-12.129 -21.0035 15.1278 0.465048 -0.843741 -0.268014
-20.309 -18.7854 19.9111 -0.0254096 -0.527394 -0.849241
3 174 105 146
3 142 146 105
3 134 85 128
3 142 105 129
3 101 129 105
3 101 72 95
3 72 105 84
3 72 84 51
3 51 84 53
3 53 84 48
3 75 96 82
3 96 116 82
3 82 116 113
3 116 96 126
3 85 89 128
3 114 128 89
3 61 85 95
3 72 51 61
3 34 51 36
3 36 15 34
3 15 36 21
3 48 21 36
3 55 80 65
3 90 115 120
3 80 82 90
3 160 151 120
3 120 163 160
3 164 114 154
3 117 154 114
3 117 97 135
3 70 83 50
3 70 50 73
3 73 50 43
3 50 83 59
3 50 59 37
3 43 37 24
3 89 85 59
3 47 85 61
3 15 6 13
3 18 8 21
3 35 48 55
3 8 19 11
3 11 19 22
3 33 11 22
3 29 33 46
3 46 33 57
3 65 56 33
3 56 57 33
3 120 106 76
3 57 76 77
3 106 159 158
3 188 133 140
3 99 171 140
3 73 79 94
3 43 79 73
3 24 30 43
3 62 43 30
3 0 6 8
3 10 29 23
3 29 52 39
3 127 153 119
3 153 136 119
3 119 136 92
3 143 152 109
3 176 107 181
3 108 123 107
3 181 107 123
3 81 118 123
3 87 62 81
3 60 81 62
3 16 30 24
3 16 24 9
3 24 37 9
3 9 37 17
3 9 17 5
3 5 17 13
3 1 5 0
3 16 7 20
3 16 20 30
3 20 7 14
3 20 14 27
3 14 4 12
3 14 12 25
3 12 2 10
3 92 58 91
3 91 58 77
3 74 92 110
3 110 144 125
3 137 123 118
3 88 93 67
3 93 44 67
3 44 81 63
3 63 81 60
3 67 44 54
3 27 54 44
3 69 100 103
3 39 74 28
3 64 28 74
3 78 64 74
3 74 125 78
3 78 125 98
3 100 98 139
3 139 125 173
3 131 93 112
3 147 148 102
3 124 156 112
3 124 88 102
3 88 69 102
3 138 103 130
3 100 71 98
3 98 71 68
3 186 145 155
3 48 84 75
3 146 184 174
3 129 169 142
3 84 96 75
3 96 84 122
3 122 84 105
3 122 105 174
3 122 174 179
3 126 96 122
3 126 122 166
3 166 122 179
3 95 85 134
3 95 134 129
3 95 129 101
3 55 48 82
3 82 48 75
3 90 82 113
3 115 90 113
3 115 113 155
3 115 155 145
3 141 113 116
3 113 141 155
3 157 150 126
3 150 157 182
3 126 150 116
3 116 150 141
3 141 150 182
3 141 182 155
3 186 163 145
3 185 134 128
3 185 128 164
3 114 164 128
3 51 34 61
3 90 65 80
3 99 97 70
3 37 43 50
3 47 59 85
3 47 61 34
3 15 13 34
3 8 18 19
3 11 33 29
3 86 57 56
3 86 90 120
3 90 86 56
3 90 56 65
3 76 57 86
3 76 86 120
3 111 77 76
3 111 76 106
3 127 111 158
3 158 111 106
3 133 188 172
3 133 172 135
3 135 97 133
3 140 133 99
3 99 133 97
3 109 152 99
3 109 73 94
3 73 99 70
3 99 73 109
3 143 109 104
3 104 109 94
3 94 79 104
3 62 87 79
3 62 79 43
3 32 17 37
3 47 32 59
3 59 32 37
3 34 13 17
3 34 17 32
3 34 32 47
3 23 29 39
3 110 92 136
3 144 136 178
3 144 178 183
3 180 152 143
3 149 180 143
3 149 143 104
3 132 149 104
3 170 132 176
3 107 176 132
3 104 107 132
3 132 170 149
3 1 7 9
3 1 9 5
3 9 7 16
3 54 27 26
3 26 27 14
3 25 26 14
3 45 26 41
3 41 26 25
3 42 41 25
3 28 42 25
3 23 39 28
3 23 28 10
3 74 39 58
3 92 74 58
3 144 168 125
3 183 168 144
3 88 112 93
3 68 71 45
3 69 45 71
3 69 71 100
3 41 68 45
3 66 98 68
3 64 66 42
3 64 42 28
3 41 42 68
3 68 42 66
3 78 98 66
3 78 66 64
3 148 187 156
3 124 102 148
3 124 148 156
3 147 177 148
3 148 177 187
3 72 101 105
3 126 166 157
3 61 95 72
3 51 53 36
3 48 36 53
3 82 80 55
3 115 145 163
3 115 163 120
3 83 89 59
3 70 97 83
3 117 83 97
3 117 114 83
3 114 89 83
3 21 8 6
3 15 21 6
3 48 35 18
3 48 18 21
3 31 22 19
3 31 19 18
3 31 18 35
3 65 33 40
3 65 40 55
3 55 40 35
3 35 40 31
3 31 40 22
3 33 22 40
3 120 151 106
3 159 106 151
3 154 117 167
3 117 135 167
3 171 99 152
3 6 3 13
3 3 6 0
3 11 10 2
3 11 2 0
3 11 0 8
3 11 29 10
3 46 52 29
3 52 46 77
3 46 57 77
3 111 127 77
3 158 175 127
3 127 175 153
3 81 108 87
3 108 81 123
3 79 87 107
3 108 107 87
3 79 107 104
3 38 60 49
3 38 49 30
3 62 49 60
3 49 62 30
3 5 13 3
3 0 5 3
3 0 4 1
3 1 4 7
3 7 4 14
3 2 12 4
3 2 4 0
3 12 10 28
3 12 28 25
3 77 58 52
3 52 58 39
3 92 91 119
3 91 77 119
3 119 77 127
3 136 144 110
3 181 123 162
3 137 162 123
3 118 81 93
3 93 81 44
3 38 30 20
3 38 44 63
3 38 63 60
3 44 38 20
3 27 44 20
3 69 54 26
3 69 26 45
3 110 125 74
3 98 125 139
3 93 131 137
3 118 93 137
3 156 131 112
3 124 112 88
3 88 54 69
3 54 88 67
3 138 121 103
3 103 121 69
3 69 121 102
3 102 161 147
3 100 139 130
3 130 103 100
3 161 102 121
3 137 131 165
