ply
format ascii 1.0
comment Generated by PyMesh
element vertex 200
property float x
property float y
property float z
property float charge
property float ddc
property float hbond
property float hphob
property float rho
property float si
property float theta
property float nx
property float ny
property float nz
element face 330
property list uchar int vertex_indices
end_header
-10.918 -6.34381 11.3474 0.0814103 0 0 -0.674742 1e-08 -0.585778 2.22045e-16 -0.0343879 -0.954799 -0.295256
-12.3375 -6.3815 11.3695 0.125123 0.145002 0 -0.0888889 1.42017 -0.0946285 2.22045e-16 -0.259074 -0.89831 -0.354851
-11.4593 -7.06425 12.5245 0.36085 -0.223401 0 -0.534173 1.48243 -0.845022 5.25755 -0.0430158 -0.6673 -0.743546
-9.68125 -7.01875 11.9342 0.185112 -0.261213 0 -0.777778 1.52625 -0.71361 3.88312 -0.393483 -0.648419 -0.651709
-9.37288 -6.32125 10.879 -0.241774 0.135491 0 -0.777778 1.61471 -0.0339969 2.94581 0.00891663 -0.765131 -0.643813
-10.4118 -6.27056 9.62613 0.105906 -0.268979 0 -0.0888889 1.79565 0.377422 1.91009 0.23397 -0.959916 -0.154338
-12.061 -6.426 9.85625 0.0687357 -0.238193 0 -0.0888889 1.88062 0.594472 0.908157 -0.196044 -0.978588 -0.0627064
-12.997 -6.8425 12.0225 0.164346 -0.153757 0 -0.0888889 2.45645 0.101263 5.91683 -0.0988507 -0.649519 -0.753892
-9.599 -7.886 12.478 0.0152166 -0.254282 0 -0.777778 2.55319 -0.714466 4.19381 -0.444608 -0.470896 -0.761958
-8.394 -5.65562 10.7829 -0.297909 0.306126 0 -0.563909 2.80236 -0.183207 2.88661 0.495724 -0.389932 -0.776022
-8.79925 -7.947 11.7245 -0.0488977 -0.255405 0 -0.777778 2.82376 0.277138 3.79585 -0.539989 -0.402606 -0.739134
-12.9268 -5.85825 10.0618 0.066468 0.285361 0 -0.0888889 2.93618 0.523431 0.613021 -0.698661 -0.694381 -0.17236
-13.6006 -5.50238 11.3686 0.099116 0.152416 0 -0.0888889 2.95909 -0.327554 0.140125 -0.430903 -0.636383 -0.639796
-11.9108 -6.32387 8.77262 0.0522473 -0.102322 0 -0.0888889 2.97937 0.999847 1.21088 -0.348543 -0.871239 -0.345631
-7.97237 -6.88225 11.0336 -0.167191 0.301536 0 -0.777778 3.13131 0.191328 3.28584 -0.00398552 -0.120202 -0.992741
-12.4315 -8.2485 13.1453 0.53482 -0.2637 0 -0.483678 3.13561 -0.394484 5.26419 0.145432 -0.269293 -0.952014
-10.6558 -8.67522 13.3047 -0.123091 -0.267098 0 -0.710011 3.44446 -0.612036 4.70655 -0.176408 -0.207952 -0.9621
-13.3403 -7.75063 12.6695 0.488417 -0.157851 0 -0.477887 3.48999 0.309244 5.62097 -0.078355 -0.532924 -0.842527
-10.3611 -5.92944 7.93031 0.0380817 -0.110308 0 -0.0888889 3.52619 0.163354 1.7503 0.078183 -0.982644 -0.168221
-8.998 -8.733 12.5118 -0.0739477 -0.229977 0 -0.777778 3.5923 -0.787732 4.15042 -0.600919 -0.349797 -0.718706
-8.99281 -5.18831 9.17241 0.00358713 0.247803 0 -0.0888889 3.63703 -0.347794 2.34114 0.596314 -0.785419 -0.165914
-7.28 -5.491 11.3975 -0.283519 0.386069 -0.29028 -0.570924 4.08526 -0.0249235 3.03055 0.646185 0.350058 -0.678163
-7.54637 -7.93881 11.1088 -0.25574 -0.251983 -0.0228609 -0.777778 4.21978 -0.0986617 3.59665 -0.344625 -0.0752006 -0.935723
-13.1315 -5.173 8.925 0.0186621 0.212 0 -0.0888889 4.27923 0.513889 0.837902 -0.755563 -0.598811 -0.265611
-7.484 -4.46 10.931 -0.311672 0.277509 0 -0.0888889 4.31218 -0.0841359 2.80989 0.864025 -0.387214 -0.321755
-12.1716 -9.38762 13.3766 0.192425 -0.300153 -0.0349964 -0.858767 4.32668 -0.999812 5.02641 0.174566 0.148977 -0.97331
-13.5747 -4.53587 9.77962 0.055301 0.184267 0 -0.0888889 4.43554 -0.568209 0.56801 -0.68619 -0.688193 -0.235655
-14.4446 -4.32575 10.8495 -0.113263 0.0393903 -0.487567 -0.132564 4.49736 -0.99988 0.296436 -0.216204 -0.790347 -0.573243
-8.01056 -9.44756 11.6484 -0.0895143 -0.136269 0 -0.777778 4.52067 0.576689 3.95674 -0.471068 -0.490435 -0.73319
-12.4902 -5.07987 7.84025 0.2066 0.113298 0 -0.0888889 4.63845 -0.109436 1.17773 -0.52891 -0.777561 -0.340077
-9.86438 -5.89712 6.79975 0.11479 -0.192768 0 -0.155556 4.76148 -0.210574 1.7422 -0.219346 -0.885478 0.409654
-11.1451 -5.506 7.06925 0.081587 -0.123034 0 -0.100888 4.76529 -0.259259 1.55204 -0.383129 -0.923164 -0.031305
-14.5334 -8.09988 12.9789 1 -0.208157 0 -0.866667 4.77108 0.0769332 5.5977 -0.416646 -0.127902 -0.900026
-8.771 -5.32425 8.028 -0.0419467 -0.239939 0 -0.155556 4.81064 -0.086949 2.1262 0.343575 -0.856788 0.384539
-10.6073 -10.0638 12.9993 -0.544387 -0.296391 -0.00833951 -0.777778 4.86705 0.238591 4.70643 -0.00148864 0.236394 -0.971656
-6.354 -6.115 11.122 -0.412697 0.329839 -0.978299 -0.777778 4.92452 0.246731 3.2152 -0.0415489 0.60929 -0.791858
-15.3011 -6.19775 12.604 0.50108 0.079865 -0.194779 -0.177778 5.17301 -0.206937 6.01812 -0.272386 -0.641142 -0.717456
-13.842 -9.499 12.3448 0.385083 -0.269836 0.846334 -0.866667 5.18356 0.583064 5.28614 0.114291 0.198146 -0.973486
-7.5055 -4.67975 12.1485 -0.334287 0.425816 0 -0.777778 5.21352 -0.147937 3.03514 0.960251 0.272999 0.0582141
-8.95475 -10.2674 13.0433 -0.145372 -0.124019 -0.348853 -0.777778 5.21672 -0.051276 4.32569 -0.123949 -0.443875 -0.887475
-15.803 -4.925 11.1187 -0.006921 -0.0928535 -0.811647 -0.177778 5.24959 -0.25577 0.0942751 0.354256 -0.763653 -0.539757
-6.6155 -8.35525 10.6219 -0.427657 -0.192097 0 -0.777778 5.34983 0.566945 3.56274 -0.386293 -0.101068 -0.916822
-7.4305 -3.96725 9.99225 -0.231811 0.225645 0 -0.0888889 5.37374 -0.0393035 2.6258 0.787945 -0.604228 -0.118537
-7.027 -3.47463 10.7847 -0.283751 0.275829 0 -0.0888889 5.40817 0.461161 2.79044 0.95162 -0.28808 0.10691
-7.71931 -4.28869 8.27731 -0.13222 0.250643 0 -0.0993076 5.43489 -0.0666502 2.3101 0.771305 -0.555214 0.311169
-15.2399 -4.01038 10.1786 0.048477 -0.0318025 0.0615469 -0.0972704 5.58459 -0.428873 0.347866 0.0501641 -0.892009 -0.449225
-6.13312 -5.95138 12.5459 -0.331803 0.3794 0 -0.777778 5.7723 0.194915 3.09841 0.612155 0.790273 0.0270841
-13.9991 -3.79312 8.62912 0.20013 0.10206 0 -0.0888889 5.86922 -0.509045 0.690793 -0.539987 -0.798588 -0.265839
-11.1761 -5.69637 5.8395 0.153615 -0.183134 -0.385073 -0.155556 6.01007 -0.384973 1.55204 -0.38488 -0.784112 0.486863
-15.4591 -7.77588 13.7755 0.861067 0.194759 0.088854 -0.773651 6.0346 -0.734937 5.5977 -0.501152 0.0173468 -0.865186
-8.68256 -6.43162 6.51638 -0.0343693 -0.221349 0 -0.155556 6.08914 0.146625 1.7422 -0.0584446 -0.72846 0.682591
-12.9963 -10.7945 12.6664 -0.0510023 -0.277018 0.0462799 -0.793793 6.1054 -0.562432 5.28614 0.319079 0.427744 -0.845709
-15.4358 -9.10581 13.2952 0.96659 -0.221854 0 -0.866667 6.15898 -0.179197 5.5977 -0.419749 0.28432 -0.861959
-7.29313 -10.458 12.7794 -0.092495 -0.0437372 0 -0.777778 6.19843 -0.223863 3.95674 -0.312423 -0.761019 -0.568543
-10.486 -11.3888 12.7402 -0.537483 -0.194907 -0.133567 -0.777778 6.22259 0.266172 4.70643 0.450092 -0.105326 -0.886749
-5.00675 -6.24775 11.2708 -0.844943 0.312297 0 -0.777778 6.28645 0.999873 3.2152 0.509801 0.844232 -0.165457
-11.7086 -11.227 12.6416 -0.43896 -0.282122 -0.835421 -0.777778 6.36087 -0.400173 4.70643 0.155044 0.504703 -0.849256
-7.252 -3.699 7.61825 -0.162745 0.238587 0 -0.11447 6.43513 -0.443783 2.3101 0.898046 -0.309276 0.312827
-15.8385 -6.69825 13.663 0.586543 0.0852565 0.523724 -0.177778 6.46173 -0.999858 6.01812 -0.370887 -0.574621 -0.729557
-6.201 -9.53975 10.9015 -0.306467 -0.0769905 0 -0.777778 6.48048 0.628321 3.56274 -0.254556 -0.574097 -0.778212
-7.5365 -5.956 7.0925 -0.117358 -0.231363 0 -0.155556 6.48344 0.628585 2.1262 0.323885 -0.657443 0.680343
-8.0345 -3.90162 13.0639 -0.34589 0.364962 0 -0.403296 6.52626 -0.999898 3.03514 0.984298 0.122821 -0.126778
-5.416 -6.9125 10.082 -0.620177 0.244389 -0.0815572 -0.777778 6.53618 0.999904 3.2152 0.141799 0.437045 -0.888192
-14.5136 -10.6986 12.1084 0.0093171 -0.257367 -0.611101 -0.794638 6.57854 0.104646 5.28614 -0.118791 0.560971 -0.819268
-13.621 -3.619 7.156 -0.00765367 0.129023 0 -0.0888889 6.60849 0.26688 0.690793 -0.581425 -0.365319 -0.726971
-12.6431 -4.67812 5.88588 -0.0220906 -0.309053 0.162576 -0.25208 6.63953 -0.0594895 1.17773 -0.562668 0.507152 0.652841
-6.0475 -10.2502 11.8706 -0.425407 -0.0256574 -0.0698766 -0.777778 6.65309 -0.0632294 3.95674 -0.220518 -0.792602 -0.568467
-8.79275 -11.3438 13.9897 -0.174024 -0.11035 -0.196536 -0.888956 6.65913 -0.943984 4.32569 0.194507 -0.423554 -0.884742
-5.3985 -8.935 10.466 -0.507123 0.113911 -0.0242467 -0.777778 6.70685 0.563827 3.56274 0.0789629 -0.355943 -0.931166
-9.58838 -7.17572 5.35656 -0.0720867 -0.176183 0 -0.155556 6.70924 0.200363 1.7422 -0.517527 -0.689232 0.507076
-15.8931 -3.66613 9.317 0.0168946 -0.101789 0.787115 -0.16315 6.71928 -0.999886 0.347866 0.474484 -0.829969 -0.293286
-10.6545 -6.58 5.099 -0.231375 -0.152532 -0.785561 -0.155556 6.75726 0.0986189 1.7422 -0.376602 -0.822101 0.426991
-7.6325 -10.8682 13.6713 0.036259 -0.0701489 0.490042 -0.995589 6.79903 -0.999878 4.32569 -0.285211 -0.591521 -0.75416
-5.6815 -6.7075 13.118 -0.419483 0.337514 0 -0.777778 6.82253 -0.556046 3.09841 0.7286 0.643848 0.233669
-16.9878 -6.00616 12.5084 0.16828 -0.0491209 0 -0.177778 6.87325 -0.268516 6.01812 0.0390774 -0.970228 -0.23902
-16.623 -4.8675 9.69606 0.265922 -0.159236 0.0800778 -0.132375 6.89264 -0.580168 0.0942751 0.79169 -0.538524 -0.288476
-14.9088 -3.36075 8.43425 0.00988187 -0.0595332 0 -0.0888889 6.89512 -0.527912 0.690793 0.0743413 -0.974183 -0.213168
-6.9755 -2.03525 11.1763 -0.53962 0.224942 0 -0.0888889 6.90076 -0.424177 2.79044 0.903387 -0.378578 0.201422
-5.0105 -7.93713 10.1431 -0.610397 0.153035 -0.265368 -0.777778 7.07612 0.819817 3.56274 0.313492 -0.138305 -0.939465
-16.4895 -7.686 14.14 0.249945 0.157417 0 -0.866667 7.13126 0.0837004 5.5977 -0.666855 -0.076441 -0.741257
-8.4545 -7.223 5.8615 -0.036253 -0.222797 0 -0.155556 7.14136 0.169479 1.7422 0.0630318 -0.565168 0.822565
-6.53719 -2.45744 9.39231 -0.179417 0.201856 0 -0.0888889 7.20075 0.0662155 2.79044 0.847407 -0.482975 0.220538
-17.401 -6.03675 11.4762 0.108734 -0.125918 0 -0.16549 7.22883 -0.137755 0.0942751 0.51537 -0.855702 0.0465509
-6.73138 -5.40644 14.0201 -0.254694 0.333701 0 -0.777778 7.36532 -0.369888 3.09841 0.83643 0.505617 -0.211507
-6.65863 -4.65394 6.68906 -0.195179 0.239324 0 -0.155556 7.37937 0.490303 2.3101 0.800897 -0.162584 0.576308
-7.6525 -2.56888 12.6812 -0.423353 0.24586 0 -0.283502 7.39553 -0.765651 3.03514 0.916298 -0.38812 0.0988016
-6.41062 -11.2571 12.966 -0.00894547 -0.0965945 0 -0.923287 7.4035 -0.0763923 3.95674 -0.359795 -0.377846 -0.8531
-11.244 -12.127 12.0522 -0.109208 -0.241065 0 -0.777778 7.48467 0.314558 4.70643 0.665982 0.292855 -0.686079
-17.1159 -5.79738 9.5235 0.256873 -0.171209 0 -0.160835 7.49223 0.0971588 0.0942751 0.853315 -0.519417 -0.0453887
-12.2754 -6.3125 4.96178 0.037571 -0.191046 -0.160366 -0.263116 7.54581 0.0607669 1.55204 -0.0471689 -0.667561 0.743059
-14.8453 -3.09875 7.2685 -0.106071 0.10209 0 -0.0888889 7.6155 0.173275 0.690793 0.063646 -0.38891 -0.919075
-10.7312 -12.692 13.1929 -0.33857 -0.170654 0 -0.777778 7.6238 -0.782297 4.70643 0.79296 -0.188557 -0.579363
-17.0045 -6.579 13.7055 0.209189 0.0424928 0.0484967 -0.177778 7.63458 0.0532711 6.01812 -0.372483 -0.798344 -0.473185
-13.7907 -2.59575 7.293 -0.043938 0.170862 0 -0.0888889 7.65472 -0.242704 0.690793 -0.0844454 0.0670477 -0.99417
-6.4365 -2.47325 8.14738 -0.191343 0.144643 0.101381 -0.270744 7.66162 -0.539866 2.3101 0.672468 -0.735167 0.0855358
-7.594 -3.0975 13.7507 -0.63226 0.224629 0 -0.777778 7.67184 -0.772884 3.03514 0.834951 -0.161957 -0.525953
-13.5205 -4.28575 6.30813 -0.0468763 -0.281418 0.712136 -0.0888889 7.68933 0.810863 1.17773 -0.0219807 -0.0487423 0.998569
-15.3629 -10.7626 12.8304 0.136983 -0.243011 -0.394883 -0.790553 7.69509 -0.999862 5.28614 -0.332311 0.671036 -0.662782
-6.71375 -2.89488 6.73688 -0.180739 0.190098 0.285931 -0.559582 7.744 -0.999873 2.3101 0.760794 -0.448543 0.469043
-4.095 -7.37775 11.1405 -0.562967 0.225655 -0.669121 -0.777778 7.74424 0.779532 3.2152 0.872241 0.339314 -0.352223
-9.33337 -12.2767 14.1205 -0.278701 -0.12782 -0.396131 -0.777778 7.74526 -0.650019 4.32569 0.303109 -0.244857 -0.920962
-11.1847 -6.68075 4.23925 -0.0631667 -0.14522 -0.288505 -0.246484 7.77236 -0.683221 1.7422 -0.0615404 -0.835508 0.546021
-16.9587 -9.418 13.788 0.235878 0.198986 0 -0.866667 7.78979 0.382773 5.5977 -0.698075 0.434666 -0.568996
-15.234 -11.3053 11.3237 -0.52401 -0.267977 -0.342352 -0.777778 7.80443 0.190645 5.28614 -0.100538 0.894178 -0.436278
-6.827 -6.381 6.055 -0.162172 -0.198228 0 -0.155556 7.81024 0.287709 2.1262 0.458249 -0.574756 0.677985
-7.59244 -11.8614 13.9519 0.163901 -0.141027 0.944132 -1 7.83188 -0.776902 4.32569 -0.370217 -0.0339792 -0.928324
-4.28263 -7.2965 12.172 -0.64511 0.277068 -0.0793083 -0.777778 7.84734 0.821072 3.09841 0.734921 0.593539 0.328029
-16.0777 -3.76875 8.203 0.0361967 -0.144395 0 -0.0888889 7.85313 -0.514211 0.347866 0.711117 -0.702398 -0.0308115
-12.3745 -3.36175 7.0435 0.259066 0.257066 0.820334 -0.0888889 7.88622 -0.0846172 0.690793 0.00283395 0.46792 -0.883766
-4.81225 -10.0763 11.088 -0.543703 0.0599695 -0.0406313 -0.777778 7.98092 0.999882 3.56274 0.171168 -0.65328 -0.737514
-16.8458 -10.3915 13.2823 0.230086 -0.225575 0 -0.901769 8.06719 -0.277064 5.5977 -0.0914488 0.806767 -0.58375
-13.0511 -12.0589 11.1349 -0.266539 -0.255257 0 -0.777778 8.09215 0.257586 5.28614 0.334992 0.609531 -0.718507
-10.3134 -7.12587 3.87275 -0.00160485 -0.133369 0 -0.155556 8.14219 -0.618643 1.7422 -0.326932 -0.806915 0.491938
-5.858 -6.63688 14.485 -0.254426 0.288864 0.138906 -0.777778 8.20268 -0.72137 3.09841 0.752469 0.608094 -0.253006
-11.6453 -4.60388 4.67525 -0.111387 0.269249 -0.441202 -0.155556 8.21012 -0.624341 1.17773 -0.344569 0.936217 -0.0690706
-16.891 -8.604 14.5685 0.296941 0.197405 0 -0.866667 8.221 -0.637084 5.5977 -0.911108 0.276913 -0.30529
-11.422 -3.9135 6.5525 0.0452527 0.319667 0.661268 -0.122222 8.22702 -0.403491 1.17773 -0.16872 0.857403 -0.486204
-9.1585 -7.92775 4.10825 -0.00840667 -0.146676 0 -0.155556 8.22866 -0.467475 1.7422 -0.824761 -0.491524 0.279595
-8.65356 -8.44756 5.52819 0.36932 -0.259517 0 -0.866667 8.29698 0.117996 1.7422 -0.54031 0.131029 0.831202
-18.333 -6.3345 12.108 0.091576 -0.120158 -0.120039 -0.0912609 8.31467 0.282037 6.01812 0.250826 -0.908366 0.3346
-4.86281 -7.805 13.7131 -0.31191 0.265582 0 -0.777778 8.31548 0.0383045 3.09841 0.878513 0.429047 0.210082
-12.6186 -4.56244 4.20325 -0.116365 -0.258126 0 -0.288889 8.32631 -0.571016 1.17773 0.34752 0.929517 0.123401
-14.386 -5.0025 5.6365 0.057943 -0.208295 0 -0.288889 8.42982 -0.0728844 1.17773 0.0248452 -0.484975 0.874175
-6.217 -0.75975 10.618 -0.70724 0.138872 -0.0534961 -0.0888889 8.48629 -0.892428 2.79044 0.708903 -0.697689 0.103375
-6.94863 -4.41663 14.5098 -0.37217 0.225624 0 -0.777778 8.49081 -0.446097 3.09841 0.792553 -0.0417099 -0.608375
-3.89375 -9.14125 11.4122 -0.694143 0.143753 -0.815247 -0.777778 8.49629 0.708917 3.56274 0.768732 -0.228927 -0.597197
-4.20625 -10.4231 11.9146 -0.654493 0.08397 -0.1982 -0.777778 8.50296 0.790879 3.56274 0.539401 -0.735785 -0.409471
-6.31825 -1.129 12.3624 -0.50054 0.0931851 -0.305577 -0.504196 8.53174 -0.537706 2.79044 0.516719 -0.806562 -0.287158
-14.434 -3.972 5.968 -0.105477 -0.287176 0 -0.288889 8.56636 0.249956 1.17773 0.435753 0.731254 0.524773
-13.759 -3.865 4.518 -0.180889 0.250964 0 -0.288889 8.58311 0.457533 1.17773 0.378846 0.906421 0.186753
-7.161 -7.0105 5.2475 -0.121971 -0.200288 0 -0.155556 8.58887 -0.99988 1.7422 0.205689 -0.463993 0.861628
-13.8022 -6.02612 5.05288 -0.0323285 -0.20572 0 -0.288889 8.60282 -0.344842 1.17773 -0.0436382 -0.470329 0.881412
-17.0427 -5.50575 8.13175 0.139628 -0.175112 0.0189671 -0.0888889 8.6335 -0.731275 0.0942751 0.914394 -0.404824 0.000975317
-17.8043 -6.68175 10.2825 0.213745 -0.136421 0 -0.0888889 8.64432 0.461547 0.0942751 0.530315 -0.818463 0.221099
-5.16437 -11.2731 12.8599 -0.11533 0.093507 -0.622713 -0.820324 8.65436 0.254253 3.95674 0.572192 -0.61838 -0.538705
-17.0825 -7.7875 15.585 0.30018 0.143386 0 -0.191002 8.6965 -0.858649 5.5977 -0.834138 -0.0571497 -0.548587
-11.7505 -12.7638 11.138 -0.053411 -0.19409 0 -0.777778 8.70852 0.999888 4.70643 0.546991 0.154282 -0.822799
-5.8955 -1.05825 9.311 -0.110844 0.171765 0 -1 8.74221 -0.862406 2.79044 0.571229 -0.575277 0.585452
-17.4675 -6.8385 8.893 0.0557223 -0.14571 0 -0.0888889 8.75915 0.738786 0.0942751 0.745376 -0.6652 0.0438689
-15.773 -3.4955 6.645 -0.114715 -0.171284 0 -0.151249 8.80158 -0.0697984 0.690793 0.923786 -0.380056 0.0466609
-12.6915 -2.2385 7.26463 0.0331868 0.19472 0.0298436 -0.0888889 8.81087 0.230133 0.690793 0.235183 0.158478 -0.958944
-6.76875 -1.91075 13.6375 -0.712007 0.122205 -0.517155 -0.755873 8.85452 -0.71572 3.03514 0.618822 -0.549659 -0.56119
-10.1165 -13.3935 14.048 -0.266568 -0.149667 0 -0.777778 8.88916 -0.77602 4.32569 0.385576 0.0616912 -0.920611
-11.0767 -13.8383 12.7755 -0.120711 -0.160385 0 -0.777778 8.89171 0.126826 4.70643 0.819549 -0.0684307 -0.568909
-5.92256 -12.6699 12.8638 0.204103 -0.140051 0 -1 8.90172 0.222485 3.95674 0.345216 0.0905652 -0.934144
-5.19088 -1.72544 8.605 -0.0791627 0.134448 0.0605141 -1 8.92361 0.155321 2.79044 0.30926 -0.818922 0.483451
-14.9106 -1.80275 7.49563 -0.306126 0.152527 0 -0.0888889 8.93287 -0.551079 0.690793 -0.00256586 0.0953149 -0.995444
-13.456 -6.9735 4.6405 0.0106169 -0.172412 0 -0.288889 8.93647 0.669452 1.55204 -0.0476966 -0.673293 0.737836
-13.5662 -1.33525 7.15225 -0.2458 0.153202 0 -0.0888889 8.94277 0.857317 0.690793 -0.012148 0.0802792 -0.996698
-11.4605 -13.5615 11.6944 -0.0795003 -0.147264 0 -0.777778 8.97888 0.999811 4.70643 0.788617 -0.285382 -0.544646
-14.9095 -11.794 10.3015 -0.38135 -0.217574 -0.0268627 -0.777778 8.983 0.773584 5.28614 0.13334 0.56375 -0.815111
-8.76912 -13.3918 14.2046 0.0184744 -0.15045 0 -1 8.99782 -0.796202 4.32569 -0.175225 0.221379 -0.959316
-19.1028 -6.053 12.8455 0.0926913 -0.0939403 -0.218172 -0.149494 9.01546 -0.584342 6.01812 0.136644 -0.958058 0.251901
-11.3306 -3.17412 7.44688 0.137136 0.289511 0.103752 -0.0888889 9.02096 -0.73938 0.690793 0.104171 0.534159 -0.838941
-6.082 -5.856 5.234 -0.251662 -0.179476 0 -0.155556 9.0369 -0.113728 2.3101 0.775231 -0.39143 0.495781
-6.108 -7.0885 5.339 -0.215195 -0.216968 -0.347611 -0.209033 9.04725 0.375755 2.1262 0.505765 -0.0733662 0.859546
-16.3521 -11.4514 11.8585 -0.0251259 -0.237991 0 -0.892942 9.05243 -0.62583 5.28614 0.0602094 0.903033 -0.42533
-11.6713 -7.65574 3.5117 0.0416587 -0.155349 0 -0.288889 9.0826 0.216586 1.7422 0.0991495 -0.684262 0.722465
-5.74638 -3.5895 5.62288 -0.309303 -0.183918 -0.640861 -0.777778 9.14061 -0.610421 2.3101 0.414054 -0.362659 0.834888
-5.48675 -2.224 6.57375 -0.152923 -0.123857 0.617498 -1 9.15191 -0.999849 2.3101 0.223633 -0.842403 0.49025
-16.4112 -4.2905 7.04475 -0.010762 -0.179485 0.812023 -0.0888889 9.16651 -0.628653 0.347866 0.838796 -0.44615 0.312044
-15.9136 -1.95187 7.181 -0.292536 0.158558 0 -0.0888889 9.1853 -0.591677 0.690793 0.618773 0.102756 -0.77882
-18.6523 -6.01937 14.132 0.176105 -0.0388267 0 0.0998822 9.19851 -0.501133 6.01812 0.0278223 -0.975824 -0.216778
-19.261 -6.84125 11.6965 -0.243992 -0.114087 0 -0.0888889 9.2673 0.277998 0.0942751 0.368084 -0.864345 0.342669
-10.554 -3.77 5.878 0.219659 0.308011 0.591795 -0.155556 9.33561 0.0822923 1.17773 -0.292152 0.949918 -0.110922
-8.87138 -8.798 3.43712 -0.037866 -0.143452 0.16597 -0.323193 9.36452 -0.75587 1.7422 -0.92395 -0.306882 0.22834
-6.0355 -4.96313 15.8713 -0.397147 0.206355 0 -0.777778 9.39207 -0.666755 3.09841 0.68187 0.279109 -0.676129
-17.911 -6.2715 15.196 0.204766 0.042294 0 1 9.39767 -0.999889 6.01812 -0.413333 -0.739608 -0.531165
-17.4824 -9.63325 15.3156 0.240497 0.179377 0 -0.866667 9.41895 -0.876771 5.5977 -0.740196 0.487666 -0.462917
-16.3331 -11.9799 10.336 0.035176 -0.19723 -0.599444 -0.798871 9.42882 0.0823546 5.28614 0.25465 0.623967 -0.738795
-4.782 -8.97525 13.9567 -0.3973 0.235006 -0.0442308 -0.777778 9.51354 -0.48569 3.09841 0.892171 0.133907 0.431392
-18.04 -10.3495 12.4425 0.180204 -0.219373 0 -1 9.52772 0.790245 5.5977 -0.0188837 0.93446 -0.355567
-13.9409 -12.787 10.2555 -0.370037 -0.159889 0 -0.777778 9.53964 0.999792 5.28614 0.321426 0.100952 -0.941538
-7.499 -8.635 5.097 0.33105 -0.249979 0.778693 -0.866667 9.5436 -0.999859 1.7422 0.0999293 0.324846 0.940473
-4.79388 -7.0095 15.3379 -0.026347 0.193789 0.683138 -0.777778 9.61641 -0.122304 3.09841 0.742227 0.268831 -0.613865
-10.5662 -14.6614 13.4996 -0.0944873 -0.153975 0 -0.777778 9.62375 -0.607692 4.70643 0.587418 0.223629 -0.777773
-18.3009 -10.4878 14.4353 0.217073 -0.199447 0 -1 9.62418 -0.36447 5.5977 -0.351694 0.898683 -0.262068
-17.2897 -10.9758 11.8864 0.274118 -0.226641 0 -1 9.64421 0.0577259 5.5977 0.307248 0.871201 -0.382894
-8.74325 -9.3785 6.50688 1 -0.323704 0 -0.866667 9.65069 0.368508 1.7422 -0.152172 0.78737 0.597405
-3.66775 -8.9935 12.555 -0.645863 0.203659 -0.101118 -0.777778 9.67056 0.916838 3.09841 0.968187 0.0534049 0.244462
-5.28363 -0.318625 10.0125 -0.286481 0.102861 0 -0.835993 9.68312 -0.999888 2.79044 0.125463 -0.932358 0.339069
-10.3341 -8.12113 2.65438 -0.0294602 -0.13782 -0.00627541 -0.193656 9.71552 -0.738405 1.7422 -0.224374 -0.661735 0.715376
-5.27772 -0.589125 12.1313 -0.286137 0.0467944 0 -0.711111 9.72655 -0.699783 2.79044 0.160806 -0.959352 -0.231916
-17.8437 -7.97316 16.2629 0.254598 -0.0957738 0 0.717809 9.73257 -0.731524 5.5977 -0.424628 -0.21275 -0.880016
-16.9635 -5.543 7.033 -0.11205 -0.183059 0.573641 -0.0888889 9.73573 -0.596404 0.0942751 0.878562 -0.357826 0.316369
-13.884 -3.6015 3.3775 -0.36105 0.216535 0 -0.288889 9.76031 0.520409 1.17773 0.416628 0.904626 0.0898459
-10.1385 -3.37 7.203 0.128498 0.318886 0.766552 -0.123149 9.76517 -0.614324 1.17773 -0.168293 0.772069 -0.612851
-14.8775 -6.392 4.7815 -0.0877703 -0.153813 0 -0.288889 9.77064 0.139323 1.17773 -0.0701895 -0.726398 0.68368
-11.9806 -4.509 2.84575 -0.113418 -0.226542 0.182902 -0.288889 9.82722 -0.951426 1.17773 -0.102244 0.924185 0.368005
-17.37 -6.47 7.5005 -0.192306 -0.15588 -0.747237 -0.695038 9.83157 0.15415 0.0942751 0.832502 -0.537503 0.13428
-10.862 -4.18275 3.26312 0.0658053 -0.220037 0.497328 -0.172978 9.87896 -0.99984 1.17773 -0.634458 0.720267 0.280495
-4.26525 -10.2299 13.3005 -0.37479 0.175379 -0.437558 -0.777778 9.90351 0.365124 3.09841 0.934209 -0.27339 0.229152
-9.11263 -9.75525 4.6195 1 -0.182555 0 -0.866667 9.95424 -0.254098 1.7422 -0.933577 0.25571 -0.251092
-15.8263 -4.70075 6.05 -0.0799593 -0.200665 0 -0.288889 9.95838 -0.469468 0.690793 0.445854 -0.386268 0.807472
-7.55944 -13.8655 13.1842 0.266273 -0.133037 0 -1 9.97824 0.409996 4.32569 -0.389567 0.13203 -0.911485
-5.99206 -3.52731 15.2483 -0.828863 0.149722 -0.0642379 -0.777778 9.99124 -0.181413 3.09841 0.69358 -0.242762 -0.678243
-13.0988 -13.906 10.6888 -0.210775 -0.123331 0 -0.777778 9.99296 0.412374 5.28614 0.488421 -0.186139 -0.852524
-9.67912 -9.828 5.5365 1 -0.237965 0 -0.866667 10.0167 0.566714 1.7422 -0.844706 0.531658 -0.0617379
-18.6239 -7.34106 8.705 0.0570087 -0.109445 0 -0.0888889 10.034 0.0479925 0.0942751 0.53879 -0.830792 0.139607
-4.67125 -11.1221 14.1609 -0.084816 0.157574 0 -1 10.0538 -0.198241 3.95674 0.909046 -0.0300485 -0.415611
3 138 133 198
3 88 133 138
3 88 138 132
3 131 147 89
3 162 74 92
3 82 74 119
3 119 163 82
3 119 74 152
3 74 82 40
3 88 40 82
3 36 74 40
3 26 45 47
3 132 160 107
3 122 187 131
3 48 89 71
3 101 71 89
3 147 157 89
3 110 102 52
3 49 32 52
3 52 79 49
3 40 12 36
3 36 12 17
3 17 12 7
3 47 23 26
3 47 64 23
3 31 18 29
3 30 71 69
3 69 80 50
3 50 80 104
3 80 69 118
3 118 197 178
3 69 117 118
3 197 118 192
3 150 169 103
3 177 156 169
3 156 103 169
3 52 37 63
3 103 63 111
3 37 15 25
3 15 32 17
3 2 17 7
3 7 1 2
3 1 7 12
3 6 1 11
3 12 11 1
3 1 6 0
3 10 4 14
3 5 6 13
3 18 20 5
3 33 18 30
3 33 30 60
3 60 30 50
3 44 33 60
3 57 94 44
3 104 155 154
3 123 127 77
3 123 77 81
3 81 77 43
3 43 85 38
3 46 38 83
3 141 195 124
3 195 166 124
3 56 54 87
3 54 100 91
3 54 91 87
3 87 91 149
3 53 39 28
3 34 39 54
3 34 25 16
3 8 2 3
3 10 22 28
3 22 14 35
3 35 41 22
3 9 4 20
3 9 14 4
3 20 4 5
3 41 78 68
3 68 78 125
3 99 125 78
3 106 55 46
3 55 35 46
3 73 83 113
3 149 196 136
3 136 196 111
3 86 126 134
3 66 126 86
3 144 194 86
3 28 59 66
3 59 28 41
3 41 28 22
3 66 59 109
3 59 68 109
3 68 125 109
3 126 191 134
3 43 42 81
3 81 42 44
3 81 94 145
3 145 94 159
3 179 120 170
3 179 106 120
3 106 179 99
3 125 99 179
3 108 140 153
3 114 116 164
3 153 116 108
3 135 115 168
3 184 132 189
3 189 132 138
3 102 110 176
3 102 176 168
3 102 168 115
3 92 79 167
3 162 92 167
3 183 167 135
3 135 167 79
3 135 79 115
3 49 79 58
3 36 58 74
3 92 74 58
3 92 58 79
3 75 40 88
3 45 27 40
3 27 45 26
3 45 40 75
3 76 47 45
3 76 45 70
3 76 70 107
3 107 70 75
3 107 75 132
3 75 70 45
3 88 132 75
3 90 76 139
3 107 139 76
3 122 128 193
3 193 128 139
3 193 139 160
3 160 139 107
3 47 76 90
3 47 90 64
3 96 128 122
3 65 29 64
3 65 96 122
3 89 65 131
3 131 65 122
3 48 65 89
3 69 71 112
3 112 71 101
3 112 101 157
3 117 69 112
3 157 181 112
3 112 181 117
3 110 177 171
3 32 49 58
3 32 58 36
3 17 32 36
3 26 11 12
3 26 12 27
3 27 12 40
3 23 11 26
3 31 65 48
3 65 31 29
3 18 31 30
3 30 31 48
3 30 48 71
3 155 104 130
3 80 130 104
3 178 173 118
3 118 173 130
3 118 130 80
3 130 173 155
3 192 118 117
3 192 117 165
3 165 117 181
3 77 127 85
3 85 127 141
3 95 85 141
3 97 103 156
3 97 110 52
3 110 97 156
3 110 156 177
3 63 103 97
3 63 97 52
3 51 111 63
3 51 63 37
3 56 51 25
3 25 51 37
3 2 16 15
3 15 16 25
3 15 17 2
3 1 0 2
3 3 4 10
3 4 0 5
3 0 4 3
3 0 3 2
3 20 18 33
3 69 50 30
3 42 20 44
3 44 20 33
3 57 44 84
3 98 94 57
3 159 94 98
3 57 84 98
3 158 159 98
3 84 158 98
3 154 158 84
3 137 145 180
3 137 180 123
3 123 180 182
3 127 123 182
3 137 123 81
3 24 42 43
3 46 35 21
3 46 21 38
3 38 21 24
3 38 24 43
3 95 83 61
3 83 38 61
3 124 83 95
3 124 95 141
3 95 61 85
3 38 85 61
3 166 113 83
3 174 113 166
3 124 166 83
3 143 149 91
3 175 91 142
3 151 142 100
3 91 100 142
3 105 151 100
3 194 151 105
3 67 105 100
3 67 100 54
3 53 72 39
3 54 39 67
3 67 39 72
3 67 72 105
3 19 28 39
3 16 19 39
3 16 39 34
3 2 8 16
3 8 3 10
3 21 9 24
3 9 21 14
3 14 21 35
3 20 42 24
3 20 24 9
3 120 113 174
3 73 113 120
3 66 86 53
3 66 53 28
3 144 86 134
3 72 53 86
3 105 72 86
3 194 105 86
3 199 134 191
3 134 199 144
3 145 137 81
3 8 10 19
3 28 19 10
3 16 8 19
3 114 190 188
3 114 188 121
3 65 128 96
3 108 64 93
3 108 93 140
3 164 116 186
3 186 116 153
3 108 65 64
3 65 108 116
3 65 116 114
3 114 121 65
3 65 121 129
3 128 65 129
3 139 161 90
3 90 161 146
3 90 146 93
3 90 93 64
3 168 183 135
3 187 147 131
3 152 74 162
3 88 82 133
3 163 133 82
3 132 184 160
3 102 115 79
3 102 79 52
3 52 32 37
3 15 37 32
3 23 29 13
3 23 13 11
3 11 13 6
3 6 5 0
3 23 64 29
3 29 18 13
3 5 13 18
3 60 84 44
3 104 60 50
3 60 104 84
3 85 43 77
3 172 150 111
3 150 103 111
3 51 56 111
3 25 34 56
3 56 34 54
3 14 22 10
3 44 94 81
3 84 104 154
3 99 55 106
3 99 78 62
3 99 62 55
3 55 62 35
3 62 78 41
3 35 62 41
3 46 83 73
3 111 196 172
3 149 136 87
3 136 111 87
3 87 111 56
3 91 175 143
3 68 59 41
3 179 126 125
3 126 109 125
3 179 170 191
3 179 191 126
3 66 109 126
3 93 148 140
3 121 185 129
3 93 146 148
3 106 46 73
3 106 73 120
3 101 89 157
