ply
format ascii 1.0
comment Generated by PyMesh
element vertex 200
property float x
property float y
property float z
property float charge
property float ddc
property float hbond
property float hphob
property float rho
property float si
property float theta
property float nx
property float ny
property float nz
element face 348
property list uchar int vertex_indices
end_header
-17.2897 -10.9758 11.8864 0.274118 0 0 -1 1e-08 0.0577259 2.22045e-16 0.307248 0.871201 -0.382894
-16.3521 -11.4514 11.8585 -0.0251259 0.104915 0 -0.892942 1.0517 -0.62583 3.45816 0.0602094 0.903033 -0.42533
-18.04 -10.3495 12.4425 0.180204 0.159995 0 -1 1.12448 0.790245 0.851618 -0.0188837 0.93446 -0.355567
-16.8458 -10.3915 13.2823 0.230086 -0.086292 0 -0.901769 1.57702 -0.277064 1.89351 -0.0914488 0.806767 -0.58375
-18.9442 -11.0352 11.6637 0.331355 0.244336 0 -1 1.67048 0.380992 2.22045e-16 -0.371316 0.846535 -0.381449
-17.642 -11.1625 10.057 0.112985 0.108379 0 -1 1.87235 0.999901 5.0478 0.0708431 0.739224 -0.669724
-16.3331 -11.9799 10.336 0.035176 0.193744 -0.599444 -0.798871 2.08015 0.0823546 4.33345 0.25465 0.623967 -0.738795
-15.234 -11.3053 11.3237 -0.52401 -0.0667151 -0.342352 -0.777778 2.2997 0.190645 3.62586 -0.100538 0.894178 -0.436278
-15.3629 -10.7626 12.8304 0.136983 -0.195009 -0.394883 -0.790553 2.6001 -0.999862 2.80395 -0.332311 0.671036 -0.662782
-19.2892 -10.6217 13.267 0.17298 0.181472 0 -1 2.64579 0.330198 0.643141 -0.334676 0.910521 -0.242781
-16.9587 -9.418 13.788 0.235878 -0.334672 0 -0.866667 2.67983 0.382773 1.87551 -0.698075 0.434666 -0.568996
-18.0872 -12.0767 9.72775 0.317003 0.299642 0 -1 2.94116 0.721577 5.23575 -0.144112 0.253934 -0.956425
-18.8921 -11.6245 10.3421 0.378147 0.264913 0 -1 3.11845 0.788944 5.61817 -0.543557 0.608633 -0.578024
-17.0565 -12.6155 9.80875 0.217744 0.338644 0 -1 3.17801 0.619101 4.77713 0.274633 0.11672 -0.954439
-20.0719 -11.826 12.3647 0.259031 0.244677 0 -1 3.21595 0.068851 0.0556812 -0.660231 0.616466 -0.429027
-18.3009 -10.4878 14.4353 0.217073 0.160363 0 -1 3.43605 -0.36447 1.21851 -0.351694 0.898683 -0.262068
-15.6134 -13.1465 10.1267 -0.0775537 0.302948 -0.157177 -0.941284 3.46678 0.300933 4.32893 0.135047 0.00100278 -0.990839
-14.9095 -11.794 10.3015 -0.38135 0.14678 -0.0268627 -0.777778 3.47826 0.773584 3.94484 0.13334 0.56375 -0.815111
-15.4358 -9.10581 13.2952 0.96659 -0.267326 0 -0.866667 3.48523 -0.179197 2.38128 -0.419749 0.28432 -0.861959
-14.5136 -10.6986 12.1084 0.0093171 -0.159118 -0.611101 -0.794638 3.52559 0.104646 3.14652 -0.118791 0.560971 -0.819268
-16.891 -8.604 14.5685 0.296941 -0.308746 0 -0.866667 3.80959 -0.637084 1.86629 -0.911108 0.276913 -0.30529
-18.3202 -13.137 9.70988 0.36375 0.300411 0 -1 4.02691 0.60542 5.14333 -0.0848291 0.0187486 -0.996219
-20.5223 -11.3789 13.7464 0.202422 0.152196 0 -1 4.17016 -0.702519 0.416667 -0.520897 0.660354 -0.540924
-19.324 -10.4045 14.811 0.166069 0.0748091 0 -1 4.20538 -0.157377 0.971044 0.125617 0.949726 -0.286775
-17.3151 -13.7944 9.69925 0.0670877 0.261836 0 -1 4.23936 0.114218 4.83394 0.128148 0.0611198 -0.98987
-20.4439 -10.5723 14.3776 0.139374 0.0785738 0 -1 4.24866 0.0620823 0.66252 -0.1757 0.687899 -0.704219
-17.4824 -9.63325 15.3156 0.240497 0.228273 0 -0.866667 4.30898 -0.876771 1.51955 -0.740196 0.487666 -0.462917
-19.4224 -12.7526 9.99325 0.243005 0.250052 0 -1 4.41287 0.845049 5.5294 -0.537361 0.287897 -0.79269
-18.4521 -10.3144 15.4754 0.193447 0.079716 0 -0.944124 4.50129 -0.902786 1.24342 -0.275903 0.864479 -0.420183
-16.4895 -7.686 14.14 0.249945 -0.289588 0 -0.866667 4.50845 0.0837004 2.08208 -0.666855 -0.076441 -0.741257
-15.3027 -14.1698 10.387 -0.152064 0.276893 -0.207425 -0.777778 4.56743 -0.550768 4.34127 0.210353 -0.150234 -0.966013
-21.164 -12.614 12.603 0.138973 0.25117 0 -1 4.58358 0.670374 6.2823 -0.847744 0.221375 -0.481999
-13.0511 -12.0589 11.1349 -0.266539 0.102188 0 -0.777778 4.61672 0.257586 3.59808 0.334992 0.609531 -0.718507
-13.9409 -12.787 10.2555 -0.370037 0.222408 0 -0.777778 4.8662 0.999792 3.95728 0.321426 0.100952 -0.941538
-14.5334 -8.09988 12.9789 1 -0.276548 0 -0.866667 4.87313 0.0769332 2.50677 -0.416646 -0.127902 -0.900026
-15.4591 -7.77588 13.7755 0.861067 -0.25251 0.088854 -0.773651 4.89942 -0.734937 2.31679 -0.501152 0.0173468 -0.865186
-13.842 -9.499 12.3448 0.385083 -0.214183 0.846334 -0.866667 4.92057 0.583064 2.90672 0.114291 0.198146 -0.973486
-20.6022 -13.328 11.6995 0.196928 0.30425 0.638818 -1 4.94213 0.109021 6.02625 -0.936276 0.084451 -0.340963
-17.0825 -7.7875 15.585 0.30018 -0.255324 0 -0.191002 5.12739 -0.858649 1.79217 -0.834138 -0.0571497 -0.548587
-12.9963 -10.7945 12.6664 -0.0510023 0.142432 0.0462799 -0.793793 5.14508 -0.562432 3.189 0.319079 0.427744 -0.845709
-21.4137 -11.8073 13.9376 0.0435247 0.154737 -0.314608 -1 5.17747 -0.144449 0.336104 -0.545339 0.442209 -0.712079
-19.252 -13.9431 9.88231 0.24191 0.228151 0 -1 5.27101 0.0174677 5.36678 -0.230642 0.0821338 -0.969566
-16.2515 -14.8927 10.0135 0.14685 0.222081 0 -1 5.32936 -0.222322 4.61542 0.41567 0.0408365 -0.908598
-20.4977 -9.66825 15.1231 0.138002 -0.113733 -0.771219 -0.31148 5.42168 0.0933316 0.824083 0.461489 0.593141 -0.659705
-20.2196 -13.3044 10.6401 0.211921 0.239313 0.264241 -1 5.49229 0.53074 5.75192 -0.761396 0.321536 -0.56293
-21.5238 -10.0594 14.7436 0.0140825 -0.161198 0 -0.302471 5.49895 -0.347971 0.641852 0.230592 0.180458 -0.95617
-19.343 -10.0887 16.0842 0.0367197 -0.0553539 0 -0.959427 5.5173 -0.999899 1.10166 0.269278 0.796883 -0.540802
-21.0245 -13.6438 12.84 0.182942 0.313844 0 -1 5.64946 0.235309 6.18096 -0.882519 -0.299105 -0.362899
-13.9121 -14.6616 10.49 -0.52379 0.239504 0 -0.777778 5.77371 0.655903 4.1157 0.279298 -0.289262 -0.915598
-15.8385 -6.69825 13.663 0.586543 -0.308686 0.523724 -0.177778 5.78398 -0.999858 2.38036 -0.370887 -0.574621 -0.729557
-17.0045 -6.579 13.7055 0.209189 -0.356785 0.0484967 -0.177778 5.80439 0.0532711 2.10358 -0.372483 -0.798344 -0.473185
-18.8542 -9.37125 16.6077 0.147958 -0.120679 0 -0.866667 6.02881 -0.774815 1.10166 -0.0286449 0.379911 -0.924579
-11.7505 -12.7638 11.138 -0.053411 0.159201 0 -0.777778 6.09607 0.999888 3.59808 0.546991 0.154282 -0.822799
-13.3403 -7.75063 12.6695 0.488417 -0.277461 0 -0.477887 6.15422 0.309244 2.50677 -0.078355 -0.532924 -0.842527
-17.8437 -7.97316 16.2629 0.254598 -0.227293 0 0.717809 6.16347 -0.731524 1.79217 -0.424628 -0.21275 -0.880016
-17.221 -15.7148 9.389 -0.0800823 0.183604 0 -1 6.18694 0.657691 4.61542 0.133318 0.00501467 -0.991061
-13.0988 -13.906 10.6888 -0.210775 0.227499 0 -0.777778 6.33216 0.412374 4.1157 0.488421 -0.186139 -0.852524
-22.4034 -11.3806 14.4312 -0.278896 0.177777 -0.752668 -1 6.3629 0.124264 0.336104 -0.279148 -0.00970253 -0.960199
-14.7806 -15.9108 10.7155 0.0091696 0.253101 -0.03043 -0.793104 6.41448 0.290366 4.1157 0.538949 -0.461817 -0.704457
-21.7095 -13.0495 13.7542 0.152812 0.234912 0 -1 6.46751 0.262136 6.18096 -0.650328 -0.14921 -0.744856
-19.9643 -14.9095 9.72375 0.159746 0.194162 0 -1 6.48197 0.806655 5.36678 -0.551402 0.0766464 -0.830711
-11.7086 -11.227 12.6416 -0.43896 0.0897609 -0.835421 -0.777778 6.5037 -0.400173 3.189 0.155044 0.504703 -0.849256
-20.7668 -14.7948 10.9923 0.247308 0.262634 0.194633 -1 6.57881 0.816357 5.75192 -0.989371 -0.0093741 -0.14511
-20.2013 -14.7099 12.4825 0.293527 0.352396 0 -1 6.58026 -0.319494 6.18096 -0.897953 -0.43703 0.0518187
-20.1265 -9.2905 16.176 0.276374 -0.16391 -0.870462 -0.262424 6.60028 -0.889417 1.10166 0.611254 0.245662 -0.752342
-11.244 -12.127 12.0522 -0.109208 0.14277 0 -0.777778 6.64445 0.314558 3.59808 0.665982 0.292855 -0.686079
-17.911 -6.2715 15.196 0.204766 -0.285766 0 1 6.77486 -0.999889 1.79217 -0.413333 -0.739608 -0.531165
-21.2502 -8.50362 14.8431 -0.296657 -0.218642 -0.838733 -0.177778 6.83626 -0.200459 0.824083 0.671974 -0.133546 -0.728434
-12.1716 -9.38762 13.3766 0.192425 -0.15442 -0.0349964 -0.858767 6.8871 -0.999812 3.189 0.174566 0.148977 -0.97331
-15.3011 -6.19775 12.604 0.50108 -0.294559 -0.194779 -0.177778 6.95832 -0.206937 2.38036 -0.272386 -0.641142 -0.717456
-12.4315 -8.2485 13.1453 0.53482 -0.212818 0 -0.483678 6.96851 -0.394484 2.90672 0.145432 -0.269293 -0.952014
-18.377 -16.4015 9.718 0.0589217 0.198868 0 -1 7.05449 0.246763 5.36678 -0.184434 -0.220216 -0.957856
-20.9441 -14.2774 14.1104 0.392027 0.286024 0 -1 7.07137 -0.459495 6.18096 -0.656228 -0.535194 -0.531913
-11.4605 -13.5615 11.6944 -0.0795003 0.216402 0 -0.777778 7.11096 0.999811 3.59808 0.788617 -0.285382 -0.544646
-16.9878 -6.00616 12.5084 0.16828 -0.368379 0 -0.177778 7.1316 -0.268516 2.10358 0.0390774 -0.970228 -0.23902
-16.0744 -16.6863 9.843 0.216578 0.215904 0 -1 7.13973 0.773244 4.61542 0.565207 -0.335631 -0.753587
-12.997 -6.8425 12.0225 0.164346 -0.256659 0 -0.0888889 7.32091 0.101263 2.50677 -0.0988507 -0.649519 -0.753892
-22.3465 -8.49375 14.0885 -0.068124 -0.240122 0 -0.177778 7.38501 -0.569041 0.641852 0.588423 -0.468957 -0.658663
-19.8773 -15.9108 9.7025 0.197117 0.225573 0 -1 7.48727 0.926023 5.36678 -0.574519 -0.335193 -0.746708
-19.545 -7.992 16.6395 0.294261 -0.211679 -0.347605 0.404067 7.57171 -0.999927 1.10166 0.269309 -0.335886 -0.902581
-18.6523 -6.01937 14.132 0.176105 -0.331085 0 0.0998822 7.59613 -0.501133 2.10358 0.0278223 -0.975824 -0.216778
-23.149 -9.1075 13.7925 0.056889 -0.217049 0 -0.177778 7.60892 0.219697 0.641852 -0.118113 -0.489313 -0.864073
-18.7805 -6.90188 15.6709 0.205645 -0.279661 0 1 7.7048 -0.444014 1.79217 0.146899 -0.741063 -0.655169
-20.5179 -15.9096 11.1258 0.35212 0.270944 0 -1 7.72883 0.860416 5.75192 -0.938621 -0.344245 -0.0220189
-10.486 -11.3888 12.7402 -0.537483 0.163075 -0.133567 -0.777778 7.7409 0.266172 3.189 0.450092 -0.105326 -0.886749
-23.7349 -11.4009 14.8865 0.126947 0.14319 0.0924512 -0.301224 7.77023 -0.348377 0.336104 -0.20439 -0.0241314 -0.978592
-22.7603 -12.7945 14.5735 -0.147878 0.184377 -0.0295089 -1 7.82415 -0.0751467 6.18096 -0.444675 -0.157526 -0.881731
-23.42 -10.2725 14.429 0.0938083 0.190855 0 -0.177778 7.86668 0.153012 0.336104 -0.470196 -0.275288 -0.83853
-17.0845 -17.4163 9.75125 0.224303 0.220195 0.0618687 -1 7.93192 0.999876 4.61542 0.00464454 -0.611645 -0.791119
-10.7312 -12.692 13.1929 -0.33857 0.189084 0 -0.777778 8.01682 -0.782297 3.59808 0.79296 -0.188557 -0.579363
-21.5989 -7.74388 13.9134 0.105045 -0.297578 -0.0787328 -0.922018 8.08651 -0.280303 0.824083 0.659801 -0.707421 -0.253412
-12.2097 -14.7964 12.0905 -0.172003 0.222453 0 -0.777778 8.11421 -0.077394 4.1157 0.467392 -0.461372 -0.754109
-10.6073 -10.0638 12.9993 -0.544387 -0.112808 -0.00833951 -0.777778 8.145 0.238591 3.189 -0.00148864 0.236394 -0.971656
-11.4593 -7.06425 12.5245 0.36085 -0.218831 0 -0.534173 8.16178 -0.845022 2.50677 -0.0430158 -0.6673 -0.743546
-22.695 -13.8725 14.969 0.0611497 0.189472 0 -0.440453 8.23507 -0.541795 6.18096 -0.371655 -0.333765 -0.866299
-17.401 -6.03675 11.4762 0.108734 -0.377403 0 -0.16549 8.24385 -0.137755 2.10358 0.51537 -0.855702 0.0465509
-11.0767 -13.8383 12.7755 -0.120711 0.178031 0 -0.777778 8.29108 0.126826 3.59808 0.819549 -0.0684307 -0.568909
-20.0229 -7.55125 15.8363 0.178879 -0.233505 -0.317033 0.147612 8.32518 -0.207275 1.10166 0.562908 -0.387783 -0.729903
-14.7751 -16.7673 12.45 -0.0311044 0.221886 -0.00563068 -0.957004 8.34893 -0.99985 4.1157 0.518764 -0.437104 -0.734727
-12.3375 -6.3815 11.3695 0.125123 -0.263315 0 -0.0888889 8.35719 -0.0946285 2.50677 -0.259074 -0.89831 -0.354851
-20.6695 -7.0855 15.0363 0.123762 -0.248017 -0.585066 -0.0157454 8.3808 -0.757273 0.824083 0.67072 -0.488536 -0.558093
-15.5204 -17.4001 11.7778 0.0933747 0.217798 0.00592891 -1 8.38775 -0.307753 4.1157 0.746641 -0.39578 -0.534683
-20.1612 -15.324 14.3276 0.265798 0.248085 0.0100821 -0.594202 8.39632 -0.87813 6.18096 -0.659343 -0.395084 -0.639669
-18.6355 -17.4405 10.5407 0.216114 0.245932 0.333194 -1 8.40474 0.414409 5.36678 -0.403905 -0.746356 -0.528973
-19.3857 -16.0071 13.5597 0.134442 0.254588 0.116609 -0.830473 8.4533 -0.717768 6.18096 -0.890953 -0.26768 -0.36681
-23.8135 -12.9655 14.8745 0.151873 0.15115 0.27264 -0.393071 8.53011 -0.0725685 0.336104 -0.0165388 -0.164178 -0.986292
-21.8455 -15.0938 14.9732 0.117286 0.178866 0 -0.155556 8.5625 -0.353536 6.18096 -0.359799 -0.248848 -0.899233
-10.6558 -8.67522 13.3047 -0.123091 -0.163477 0 -0.710011 8.56351 -0.612036 3.189 -0.176408 -0.207952 -0.9621
-18.333 -6.3345 12.108 0.091576 -0.4144 -0.120039 -0.0912609 8.57302 0.282037 2.10358 0.250826 -0.908366 0.3346
-13.3985 -16.0914 12.4439 -0.165299 0.236419 -0.416346 -0.701951 8.63488 -0.33361 4.1157 0.338644 -0.620605 -0.707227
-19.3253 -16.6465 12.5305 0.13931 0.276444 0 -1 8.70631 -0.2943 6.18096 -0.920531 -0.347953 0.177628
-23.98 -8.416 14.069 0.0383617 0.203568 0 -0.177778 8.7248 -0.0189584 0.641852 -0.801276 -0.42702 -0.419059
-13.6006 -5.50238 11.3686 0.099116 -0.236167 0 -0.0888889 8.76472 -0.327554 2.38036 -0.430903 -0.636383 -0.639796
-23.2985 -8.6565 12.6355 0.145161 -0.296626 0 -1 8.85968 0.171649 0.641852 -0.149108 -0.988821 -0.000164651
-19.7464 -17.0767 10.7243 0.504503 0.258272 0.826967 -1 8.8831 0.999866 5.36678 -0.631306 -0.724487 -0.276715
-24.1569 -9.28213 14.6067 0.0760867 0.167179 0 -0.177778 8.91631 0.0777232 0.641852 -0.65629 -0.196043 -0.728595
-16.4518 -17.9608 11.0473 0.171789 0.204695 0 -1 8.93336 0.0744562 4.61542 0.361538 -0.527696 -0.768653
-19.1028 -6.053 12.8455 0.0926913 -0.37021 -0.218172 -0.149494 8.95965 -0.584342 2.10358 0.136644 -0.958058 0.251901
-15.803 -4.925 11.1187 -0.006921 -0.263844 -0.811647 -0.177778 8.9777 -0.25577 2.38036 0.354256 -0.763653 -0.539757
-24.8075 -12.0948 14.653 0.300281 -0.0951907 0.715205 -0.177778 9.06888 0.221262 0.336104 0.152374 0.243081 -0.957963
-24.6903 -10.3582 15.2692 0.354657 0.120461 0 -0.177778 9.23532 -0.506523 0.336104 -0.331744 0.0426787 -0.942404
-10.1165 -13.3935 14.048 -0.266568 0.122869 0 -0.777778 9.28219 -0.77602 3.59808 0.385576 0.0616912 -0.920611
-20.324 -6.3865 14.3372 0.221022 -0.290683 0 1 9.31993 -0.999791 2.10358 0.499942 -0.811387 -0.302835
-10.5662 -14.6614 13.4996 -0.0944873 0.114094 0 -0.777778 9.50039 -0.607692 3.59808 0.587418 0.223629 -0.777773
-21.936 -7.92137 12.5278 0.265757 -0.342285 0 -1 9.52353 -0.340597 0.824083 0.511917 -0.808369 0.290657
-20.213 -6.25775 13.0215 0.18907 -0.343974 0 -0.80846 9.52637 -0.856385 2.10358 0.370986 -0.88433 0.283425
-14.9967 -17.985 12.6185 0.0984017 0.143405 0 -1 9.53803 -0.818762 4.1157 0.551546 -0.00227116 -0.834141
-17.9685 -18.186 11.2349 0.240915 0.220603 0.715229 -1 9.62235 0.0839666 4.61542 -0.42107 -0.684467 -0.595151
-10.918 -6.34381 11.3474 0.0814103 -0.231256 0 -0.674742 9.64421 -0.585778 2.50677 -0.0343879 -0.954799 -0.295256
-17.8043 -6.68175 10.2825 0.213745 -0.412237 0 -0.0888889 9.65934 0.461547 2.10358 0.530315 -0.818463 0.221099
-8.95475 -10.2674 13.0433 -0.145372 -0.161116 -0.348853 -0.777778 9.66291 -0.051276 3.189 -0.123949 -0.443875 -0.887475
-12.4464 -16.3261 12.8144 -0.071511 0.162762 0 -0.377196 9.68314 -0.513734 4.1157 -0.0102562 -0.234887 -0.971969
-19.261 -6.84125 11.6965 -0.243992 -0.426564 0 -0.0888889 9.70762 0.277998 2.10358 0.368084 -0.864345 0.342669
-13.537 -16.9993 13.0068 -0.0490217 0.162349 0 -0.155556 9.71206 -0.721346 4.1157 0.0766716 -0.213076 -0.974023
-22.1509 -16.184 15.2255 -0.135481 0.149982 -0.466169 -0.155556 9.72244 0.425204 6.18096 -0.4255 -0.171971 -0.888468
-19.0355 -17.5035 11.8131 0.152427 0.244523 0.125576 -1 9.74002 0.0304059 6.18096 -0.792987 -0.558629 -0.243117
-9.33337 -12.2767 14.1205 -0.278701 0.144591 -0.396131 -0.777778 9.74507 -0.650019 3.189 0.303109 -0.244857 -0.920962
-20.6803 -16.614 14.708 0.450913 0.169728 0.0118448 -0.155556 9.83794 -0.0415301 6.18096 -0.473438 -0.201414 -0.85749
-8.79275 -11.3438 13.9897 -0.174024 0.153559 -0.196536 -0.888956 9.84574 -0.943984 3.189 0.194507 -0.423554 -0.884742
-24.2743 -7.45813 13.5571 0.058323 0.199746 0 -1 9.85004 0.0498146 0.641852 -0.927345 -0.362319 -0.0935721
-12.9268 -5.85825 10.0618 0.066468 -0.249943 0 -0.0888889 9.88399 0.523431 2.50677 -0.698661 -0.694381 -0.17236
-12.061 -6.426 9.85625 0.0687357 -0.2634 0 -0.0888889 9.89613 0.594472 2.50677 -0.196044 -0.978588 -0.0627064
-15.7309 -18.8997 11.833 0.126668 0.11883 0.870851 -1 9.90306 0.121056 4.61542 0.495304 0.103235 -0.862564
-24.2787 -14.2273 15.3814 0.0961013 0.17476 -0.0270824 -0.164799 9.90961 0.0609397 6.18096 -0.187205 -0.581612 -0.791632
-24.5421 -7.63413 14.8821 -0.0393823 0.157754 0 -0.177778 9.98512 -0.270768 0.641852 -0.897409 -0.127787 -0.422288
-9.68125 -7.01875 11.9342 0.185112 -0.182597 0 -0.777778 10.0358 -0.71361 2.50677 -0.393483 -0.648419 -0.651709
-9.599 -7.886 12.478 0.0152166 -0.171716 0 -0.777778 10.1201 -0.714466 3.189 -0.444608 -0.470896 -0.761958
-20.79 -7.24388 12.0931 0.140248 -0.369265 0 -0.610956 10.1402 -0.22274 0.824083 0.580424 -0.770568 0.263312
-25.0569 -9.07125 15.4163 0.127213 0.110528 0 -0.177778 10.1451 -0.140422 0.641852 -0.546323 0.134883 -0.826643
-22.8943 -9.02575 11.4333 0.362197 -0.332635 0 -1 10.1807 0.631109 0.641852 0.150304 -0.942415 0.298769
-17.1159 -5.79738 9.5235 0.256873 -0.294853 0 -0.160835 10.2317 0.0971588 2.10358 0.853315 -0.519417 -0.0453887
-13.6392 -18.2104 13.0052 -0.108585 0.1067 0 -0.155556 10.2675 -0.964705 4.1157 0.0598922 0.12674 -0.990126
-14.4446 -4.32575 10.8495 -0.113263 -0.227823 -0.487567 -0.132564 10.303 -0.99988 2.38036 -0.216204 -0.790347 -0.573243
-16.6225 -19.2935 11.544 0.193745 0.1413 0.187711 -1 10.3658 0.237949 4.61542 0.0681923 -0.229687 -0.970873
-8.998 -8.733 12.5118 -0.0739477 -0.159087 0 -0.777778 10.4021 -0.787732 3.189 -0.600919 -0.349797 -0.718706
-15.2399 -4.01038 10.1786 0.048477 -0.234737 0.0615469 -0.0972704 10.4051 -0.428873 2.38036 0.0501641 -0.892009 -0.449225
-19.5499 -17.8784 14.2705 0.181288 0.182939 0 -1 10.4618 -0.34644 6.18096 -0.904105 -0.189099 -0.383192
-25.9482 -10.5319 15.2934 0.119435 -0.0619273 0 -0.177778 10.5054 -0.207479 0.336104 -0.0906333 0.436551 -0.895103
-25.6367 -13.6027 14.3519 0.60449 0.147772 -0.0889253 -0.177778 10.5309 0.742521 0.336104 0.157091 -0.424198 -0.89184
-24.362 -7.525 11.982 0.235323 0.218232 0 -1 10.5444 0.0892188 0.641852 -0.886754 -0.400919 0.230069
-23.6983 -15.4121 15.7929 0.0480037 0.153718 0 -0.155556 10.6134 0.0976707 6.18096 -0.505832 -0.346783 -0.789858
-16.623 -4.8675 9.69606 0.265922 -0.247359 0.0800778 -0.132375 10.6208 -0.580168 2.38036 0.79169 -0.538524 -0.288476
-13.5747 -4.53587 9.77962 0.055301 -0.222535 0 -0.0888889 10.6247 -0.568209 2.38036 -0.68619 -0.688193 -0.235655
-26.1826 -11.346 14.5651 0.131163 -0.0606912 0 -0.177778 10.6371 0.334408 0.336104 0.187801 0.455244 -0.870336
-8.76912 -13.3918 14.2046 0.0184744 -0.0872512 0 -1 10.6386 -0.796202 3.189 -0.175225 0.221379 -0.959316
-9.321 -14.4572 13.7595 -0.0576607 0.0818921 0 -1 10.6414 -0.185821 3.59808 -0.0346642 0.281962 -0.958799
-10.3792 -16.5362 12.591 -0.00271645 0.0708984 0 -0.155556 10.6887 0.132906 4.1157 0.210179 0.393611 -0.894928
-18.4757 -18.5233 12.208 0.291693 0.179133 0 -1 10.7704 -0.447021 6.18096 -0.711973 -0.297761 -0.63595
-22.8726 -16.7812 15.842 -0.203905 0.158995 -0.523941 -0.155556 10.8439 0.298519 6.18096 -0.536079 -0.44307 -0.718546
-17.6385 -19.39 11.624 0.31816 0.145441 0 -1 10.8785 0.302058 4.61542 -0.342342 -0.247706 -0.906336
-24.2651 -8.96638 10.8674 0.19289 0.254583 0 -1 10.8984 0.768214 0.641852 -0.64891 -0.734414 0.198877
-14.399 -19.2179 12.522 0.15471 0.0656383 0.0363823 -1 10.9116 -0.717412 4.1157 0.252016 0.457675 -0.852655
-24.4695 -6.49 14.027 -0.0499607 0.172033 0 -1 10.9437 -0.664869 0.641852 -0.972331 -0.202944 -0.1157
-11.9108 -6.32387 8.77262 0.0522473 -0.228546 0 -0.0888889 10.9949 0.999847 2.50677 -0.348543 -0.871239 -0.345631
-17.4675 -6.8385 8.893 0.0557223 -0.34813 0 -0.0888889 11.0976 0.738786 2.10358 0.745376 -0.6652 0.0438689
-11.8234 -17.5637 12.5243 -0.045019 0.0809295 0 -0.155556 11.0987 -0.320271 4.1157 -0.355289 0.377602 -0.855094
-7.6325 -10.8682 13.6713 0.036259 -0.152597 0.490042 -0.995589 11.1395 -0.999878 3.189 -0.285211 -0.591521 -0.75416
-7.59244 -11.8614 13.9519 0.163901 -0.106001 0.944132 -1 11.1534 -0.776902 3.189 -0.370217 -0.0339792 -0.928324
-8.79925 -7.947 11.7245 -0.0488977 -0.154685 0 -0.777778 11.2206 0.277138 3.189 -0.539989 -0.402606 -0.739134
-13.1315 -5.173 8.925 0.0186621 -0.215538 0 -0.0888889 11.227 0.513889 2.50677 -0.755563 -0.598811 -0.265611
-9.37206 -15.923 13.4043 -0.00471173 0.0687219 0 -0.155556 11.2401 -0.611472 4.1157 0.234563 0.378624 -0.895335
-9.37288 -6.32125 10.879 -0.241774 -0.176165 0 -0.777778 11.2589 -0.0339969 2.50677 0.00891663 -0.765131 -0.643813
-19.2798 -18.357 13.0977 0.198775 0.183288 0 -1 11.3015 0.320299 6.18096 -0.919792 -0.196049 -0.339924
-19.3347 -7.254 9.89163 0.152654 -0.410041 0.287924 -0.63516 11.3393 -0.651943 2.10358 0.48933 -0.816662 0.305973
-7.29313 -10.458 12.7794 -0.092495 -0.164367 0 -0.777778 11.3561 -0.223863 3.189 -0.312423 -0.761019 -0.568543
-24.6031 -6.60281 12.3184 0.157184 0.187502 0 -1 11.3908 0.0425916 0.641852 -0.963841 -0.218366 0.152733
-21.7003 -17.7903 15.2955 -0.273078 0.188736 -0.653385 -0.155556 11.3922 0.673085 6.18096 -0.338865 -0.766095 -0.54614
-13.021 -19.0665 12.565 0.00253635 0.0668801 0 -0.155556 11.4116 -0.576032 4.1157 -0.422291 0.500225 -0.75594
-10.4118 -6.27056 9.62613 0.105906 -0.216059 0 -0.0888889 11.4399 0.377422 2.50677 0.23397 -0.959916 -0.154338
-23.4648 -9.215 10.282 0.315044 -0.289261 0 -1 11.4794 0.839958 0.641852 -0.116334 -0.992464 -0.0384874
-20.3315 -7.74131 10.5953 0.199796 -0.41485 0.0211574 -0.577367 11.4877 -0.0744587 2.10358 0.524645 -0.768145 0.367016
-8.01056 -9.44756 11.6484 -0.0895143 -0.154036 0 -0.777778 11.5362 0.576689 3.189 -0.471068 -0.490435 -0.73319
-15.8931 -3.66613 9.317 0.0168946 -0.223908 0.787115 -0.16315 11.5398 -0.999886 2.38036 0.474484 -0.829969 -0.293286
-21.7401 -8.90375 10.7118 0.347503 -0.382784 0 -1 11.5473 0.945378 0.641852 0.36967 -0.912761 0.173817
-18.6239 -7.34106 8.705 0.0570087 -0.376124 0 -0.0888889 11.5554 0.0479925 2.10358 0.53879 -0.830792 0.139607
-20.121 -18.161 15.2113 0.20162 0.210525 -0.357758 -0.598756 11.5582 0.240349 6.18096 -0.555218 -0.796159 -0.24055
-25.071 -6.36575 15.7308 -0.2382 0.136725 -0.294658 -1 11.6003 -0.033256 0.641852 -0.961125 -0.0348825 -0.2739
-25.3223 -7.353 16.2712 -0.112491 0.0979415 -0.533627 -0.177778 11.6029 -0.351625 0.641852 -0.751181 0.277511 -0.598928
-17.0427 -5.50575 8.13175 0.139628 -0.246061 0.0189671 -0.0888889 11.6556 -0.731275 2.10358 0.914394 -0.404824 0.000975317
-25.1311 -14.8569 16.837 -0.00252388 0.157717 -0.589244 -0.170628 11.7101 -0.311806 6.18096 -0.561717 -0.619481 -0.548377
3 139 172 185
3 111 115 144
3 113 111 139
3 144 139 111
3 149 124 113
3 158 163 119
3 120 115 87
3 120 87 85
3 81 57 87
3 85 87 57
3 147 90 124
3 147 125 122
3 108 125 132
3 147 132 125
3 190 147 124
3 174 129 194
3 183 194 129
3 150 129 174
3 150 174 198
3 143 106 160
3 105 158 119
3 85 57 105
3 86 105 57
3 86 59 94
3 59 57 40
3 59 40 47
3 47 40 31
3 31 40 14
3 22 25 9
3 25 23 9
3 9 23 15
3 23 25 43
3 64 67 97
3 97 67 100
3 82 122 80
3 80 74 50
3 95 74 108
3 108 132 95
3 108 74 117
3 74 95 118
3 150 118 95
3 69 74 118
3 106 134 160
3 168 160 134
3 72 106 94
3 59 47 72
3 63 47 37
3 37 62 63
3 62 37 44
3 14 44 37
3 4 2 0
3 3 10 18
3 2 9 3
3 35 34 18
3 18 29 35
3 118 112 69
3 69 112 53
3 53 112 76
3 195 186 137
3 195 137 156
3 134 106 137
3 102 106 72
3 62 60 83
3 27 41 44
3 12 14 4
3 41 21 24
3 24 21 13
3 6 24 13
3 16 6 17
3 17 6 7
3 0 1 6
3 1 7 6
3 18 36 19
3 7 19 32
3 36 70 68
3 70 34 53
3 93 53 76
3 76 99 93
3 99 76 112
3 141 99 140
3 112 140 99
3 99 141 128
3 188 141 173
3 71 60 41
3 42 16 30
3 16 33 48
3 61 84 65
3 84 136 89
3 84 89 65
3 65 89 73
3 184 130 191
3 92 130 84
3 92 68 107
3 146 93 145
3 167 182 135
3 182 156 135
3 135 156 110
3 135 110 114
3 114 110 83
3 103 114 71
3 167 127 169
3 169 127 116
3 169 116 153
3 116 88 75
3 116 75 101
3 75 55 42
3 73 56 52
3 52 56 32
3 91 73 96
3 96 123 166
3 48 91 58
3 109 58 91
3 131 109 91
3 91 166 131
3 131 166 175
3 175 187 151
3 38 20 26
3 14 40 22
3 148 197 144
3 144 197 196
3 139 144 172
3 157 148 120
3 120 148 115
3 115 111 81
3 113 81 111
3 87 115 81
3 77 81 113
3 85 119 120
3 120 119 157
3 157 119 163
3 105 119 85
3 40 25 22
3 25 40 45
3 45 40 57
3 45 57 81
3 45 81 77
3 43 25 45
3 43 45 67
3 67 45 77
3 90 67 77
3 124 90 113
3 113 90 77
3 97 100 122
3 122 100 90
3 122 90 147
3 90 100 67
3 125 80 122
3 117 80 125
3 117 125 108
3 190 132 147
3 183 132 190
3 94 106 143
3 94 143 105
3 94 105 86
3 105 143 158
3 4 14 9
3 9 14 22
3 3 9 15
3 10 3 15
3 10 15 26
3 10 26 20
3 28 15 23
3 15 28 26
3 64 46 43
3 46 64 51
3 43 46 23
3 23 46 28
3 28 46 51
3 28 51 26
3 79 54 51
3 54 79 82
3 82 79 97
3 64 97 51
3 51 54 26
3 51 97 79
3 122 82 97
3 50 29 66
3 80 50 66
3 80 66 82
3 82 66 54
3 54 66 38
3 38 66 29
3 38 29 20
3 35 29 49
3 69 49 74
3 50 74 49
3 50 49 29
3 161 118 150
3 155 152 118
3 152 155 162
3 155 118 161
3 161 192 155
3 150 198 161
3 199 143 160
3 47 63 72
3 3 0 2
3 34 35 49
3 34 49 69
3 53 34 69
3 162 140 112
3 162 112 152
3 152 112 118
3 179 140 162
3 102 137 106
3 102 72 63
3 62 83 63
3 41 27 21
3 24 6 16
3 8 7 1
3 8 3 18
3 3 8 1
3 3 1 0
3 19 7 8
3 19 8 18
3 39 32 19
3 39 19 36
3 61 39 68
3 68 39 36
3 93 107 70
3 70 107 68
3 70 53 93
3 99 128 93
3 145 181 178
3 181 128 188
3 128 181 145
3 128 145 93
3 104 110 156
3 102 104 137
3 137 104 156
3 63 83 110
3 63 110 104
3 63 104 102
3 30 16 48
3 96 73 89
3 123 89 121
3 123 121 165
3 165 121 164
3 164 121 136
3 89 136 121
3 177 164 136
3 138 177 136
3 138 136 84
3 184 176 130
3 84 130 138
3 138 130 176
3 138 176 177
3 154 191 130
3 107 154 130
3 107 130 92
3 93 146 107
3 146 145 178
3 103 127 135
3 103 135 114
3 135 127 167
3 142 153 116
3 101 142 116
3 171 142 126
3 126 142 101
3 98 126 101
3 58 98 101
3 30 48 58
3 30 58 42
3 91 48 56
3 73 91 56
3 123 180 166
3 165 180 123
3 151 187 171
3 126 151 171
3 133 175 151
3 109 133 98
3 109 98 58
3 126 98 151
3 151 98 133
3 131 175 133
3 131 133 109
3 146 178 154
3 191 154 178
3 107 146 154
3 26 54 38
3 115 148 144
3 113 139 159
3 159 139 185
3 113 159 170
3 113 170 149
3 149 170 189
3 189 193 149
3 149 193 124
3 124 193 190
3 59 86 57
3 43 67 64
3 117 74 80
3 150 95 129
3 183 129 132
3 132 129 95
3 72 94 59
3 47 31 37
3 14 37 31
3 9 2 4
3 10 20 29
3 10 29 18
3 186 134 137
3 168 134 186
3 44 41 60
3 62 44 60
3 14 12 27
3 14 27 44
3 11 13 21
3 11 21 27
3 11 27 12
3 0 6 5
3 0 5 4
3 4 5 12
3 12 5 11
3 11 5 13
3 6 13 5
3 18 34 36
3 70 36 34
3 179 173 140
3 140 173 141
3 141 188 128
3 60 78 83
3 78 60 71
3 24 42 55
3 24 55 71
3 24 71 41
3 24 16 42
3 17 33 16
3 33 17 32
3 17 7 32
3 39 61 32
3 68 92 61
3 61 92 84
3 114 83 78
3 71 114 78
3 71 88 103
3 103 88 127
3 127 88 116
3 55 75 88
3 55 88 71
3 75 42 58
3 75 58 101
3 32 56 33
3 33 56 48
3 73 52 65
3 52 32 65
3 65 32 61
3 89 123 96
3 96 166 91
