ply
format ascii 1.0
comment Generated by PyMesh
element vertex 200
property float x
property float y
property float z
property float charge
property float ddc
property float hbond
property float hphob
property float rho
property float si
property float theta
property float nx
property float ny
property float nz
element face 337
property list uchar int vertex_indices
end_header
-20.79 -7.24388 12.0931 0.140248 0 0 -0.610956 1e-08 -0.22274 2.22045e-16 0.580424 -0.770568 0.263312
-21.936 -7.92137 12.5278 0.265757 0.104534 0 -1 1.40045 -0.340597 0.820515 0.511917 -0.808369 0.290657
-20.213 -6.25775 13.0215 0.18907 0.142762 0 -0.80846 1.47218 -0.856385 4.66892 0.370986 -0.88433 0.283425
-19.261 -6.84125 11.6965 -0.243992 -0.154215 0 -0.0888889 1.63011 0.277998 3.62309 0.368084 -0.864345 0.342669
-20.3315 -7.74131 10.5953 0.199796 -0.139961 0.0211574 -0.577367 1.64349 -0.0744587 2.58462 0.524645 -0.768145 0.367016
-21.5989 -7.74388 13.9134 0.105045 -0.215778 -0.0787328 -0.922018 2.05373 -0.280303 2.22045e-16 0.659801 -0.707421 -0.253412
-20.324 -6.3865 14.3372 0.221022 -0.18481 0 1 2.44709 -0.999791 5.31772 0.499942 -0.811387 -0.302835
-19.1028 -6.053 12.8455 0.0926913 -0.19082 -0.218172 -0.149494 2.61474 -0.584342 4.4299 0.136644 -0.958058 0.251901
-18.333 -6.3345 12.108 0.091576 -0.129368 -0.120039 -0.0912609 2.7647 0.282037 3.99361 0.250826 -0.908366 0.3346
-23.2985 -8.6565 12.6355 0.145161 0.2411 0 -1 2.95236 0.171649 0.7847 -0.149108 -0.988821 -0.000164651
-19.3347 -7.254 9.89163 0.152654 -0.0619267 0.287924 -0.63516 2.95735 -0.651943 2.95811 0.48933 -0.816662 0.305973
-22.3465 -8.49375 14.0885 -0.068124 -0.3151 0 -0.177778 3.12698 -0.569041 0.189018 0.588423 -0.468957 -0.658663
-22.8943 -9.02575 11.4333 0.362197 0.147093 0 -1 3.22691 0.631109 1.25013 0.150304 -0.942415 0.298769
-21.2502 -8.50362 14.8431 -0.296657 -0.370671 -0.838733 -0.177778 3.30399 -0.200459 6.08417 0.671974 -0.133546 -0.728434
-18.6523 -6.01937 14.132 0.176105 -0.197531 0 0.0998822 3.40242 -0.501133 4.80265 0.0278223 -0.975824 -0.216778
-20.1845 -8.6605 9.077 0.175931 -0.0486039 0 -1 3.42443 0.901947 2.48519 0.476436 -0.824735 0.304665
-21.3273 -8.8025 9.55481 0.264206 0.107918 0 -1 3.43245 -0.0240967 2.13504 0.2227 -0.958482 0.178095
-21.7401 -8.90375 10.7118 0.347503 0.0738061 0 -1 3.47352 0.945378 1.75577 0.36967 -0.912761 0.173817
-20.6695 -7.0855 15.0363 0.123762 -0.271619 -0.585066 -0.0157454 3.49433 -0.757273 5.64958 0.67072 -0.488536 -0.558093
-17.8043 -6.68175 10.2825 0.213745 -0.0214853 0 -0.0888889 3.66648 0.461547 3.44066 0.530315 -0.818463 0.221099
-17.401 -6.03675 11.4762 0.108734 0.0283035 0 -0.16549 3.66857 -0.137755 3.82988 0.51537 -0.855702 0.0465509
-23.149 -9.1075 13.7925 0.056889 -0.361595 0 -0.177778 4.17975 0.219697 0.426041 -0.118113 -0.489313 -0.864073
-16.9878 -6.00616 12.5084 0.16828 -0.157945 0 -0.177778 4.20612 -0.268516 4.11882 0.0390774 -0.970228 -0.23902
-18.6239 -7.34106 8.705 0.0570087 0.00443078 0 -0.0888889 4.34332 0.0479925 2.98669 0.53879 -0.830792 0.139607
-20.0229 -7.55125 15.8363 0.178879 -0.257577 -0.317033 0.147612 4.36922 -0.207275 5.54978 0.562908 -0.387783 -0.729903
-23.4648 -9.215 10.282 0.315044 0.18111 0 -1 4.52567 0.839958 1.48608 -0.116334 -0.992464 -0.0384874
-18.7805 -6.90188 15.6709 0.205645 -0.216843 0 1 4.55108 -0.444014 5.16989 0.146899 -0.741063 -0.655169
-23.98 -8.416 14.069 0.0383617 0.381503 0 -0.177778 4.55773 -0.0189584 0.578798 -0.801276 -0.42702 -0.419059
-20.1338 -8.74375 7.88375 0.118923 0.0642349 0 -1 4.62166 0.766052 2.62641 0.446913 -0.885445 -0.127498
-24.362 -7.525 11.982 0.235323 0.412887 0 -1 4.63712 0.0892188 0.962714 -0.886754 -0.400919 0.230069
-24.2651 -8.96638 10.8674 0.19289 0.289967 0 -1 4.71111 0.768214 1.25538 -0.64891 -0.734414 0.198877
-20.4977 -9.66825 15.1231 0.138002 -0.42264 -0.771219 -0.31148 4.71856 0.0933316 6.01745 0.461489 0.593141 -0.659705
-17.911 -6.2715 15.196 0.204766 -0.267643 0 1 4.72347 -0.999889 4.87744 -0.413333 -0.739608 -0.531165
-24.2743 -7.45813 13.5571 0.058323 0.40872 0 -1 4.7517 0.0498146 0.760781 -0.927345 -0.362319 -0.0935721
-21.5238 -10.0594 14.7436 0.0140825 -0.388939 0 -0.302471 4.88677 -0.347971 6.23396 0.230592 0.180458 -0.95617
-17.1159 -5.79738 9.5235 0.256873 0.105466 0 -0.160835 5.02002 0.0971588 3.50475 0.853315 -0.519417 -0.0453887
-21.5298 -9.17 7.988 0.0304505 0.10103 0 -1 5.05447 0.691841 2.24274 0.129959 -0.990607 -0.042527
-17.4675 -6.8385 8.893 0.0557223 0.0645602 0 -0.0888889 5.10478 0.738786 3.26076 0.745376 -0.6652 0.0438689
-17.0045 -6.579 13.7055 0.209189 -0.262018 0.0484967 -0.177778 5.19416 0.0532711 4.47416 -0.372483 -0.798344 -0.473185
-20.1265 -9.2905 16.176 0.276374 -0.305876 -0.870462 -0.262424 5.21671 -0.889417 5.81231 0.611254 0.245662 -0.752342
-19.545 -7.992 16.6395 0.294261 -0.249781 -0.347605 0.404067 5.40256 -0.999927 5.43717 0.269309 -0.335886 -0.902581
-23.27 -9.02525 9.075 0.108075 0.150183 0 -1 5.44588 0.324712 1.74886 -0.0507863 -0.993967 -0.0972104
-24.1569 -9.28213 14.6067 0.0760867 0.343674 0 -0.177778 5.48714 0.0777232 0.440285 -0.65629 -0.196043 -0.728595
-23.42 -10.2725 14.429 0.0938083 -0.325314 0 -0.177778 5.53466 0.153012 0.340274 -0.470196 -0.275288 -0.83853
-15.803 -4.925 11.1187 -0.006921 0.127555 -0.811647 -0.177778 5.64782 -0.25577 3.81089 0.354256 -0.763653 -0.539757
-24.6031 -6.60281 12.3184 0.157184 0.416357 0 -1 5.64792 0.0425916 0.95722 -0.963841 -0.218366 0.152733
-24.3194 -8.68213 9.49525 0.312904 0.267343 0 -1 5.80366 0.446673 1.5206 -0.684471 -0.726125 -0.0651303
-24.5421 -7.63413 14.8821 -0.0393823 0.360026 0 -0.177778 5.81805 -0.270768 0.608681 -0.897409 -0.127787 -0.422288
-18.4643 -7.255 7.23925 -0.370103 -0.00609185 -0.530836 -0.632871 5.82024 -0.443081 2.93089 0.51067 -0.841295 0.17731
-24.6623 -7.54462 10.8359 0.407607 0.382853 0 -1 5.82207 0.314172 1.16541 -0.941904 -0.298514 0.153971
-24.4695 -6.49 14.027 -0.0499607 0.390014 0 -1 5.84541 -0.664869 0.79566 -0.972331 -0.202944 -0.1157
-20.4439 -10.5723 14.3776 0.139374 -0.464752 0 -1 5.89158 0.0620823 6.10637 -0.1757 0.687899 -0.704219
-15.3011 -6.19775 12.604 0.50108 -0.212627 -0.194779 -0.177778 5.90636 -0.206937 4.11518 -0.272386 -0.641142 -0.717456
-15.8385 -6.69825 13.663 0.586543 -0.24533 0.523724 -0.177778 5.97615 -0.999858 4.45709 -0.370887 -0.574621 -0.729557
-23.3092 -8.954 7.83125 0.126326 0.158103 0 -1 6.06333 0.406413 1.74886 -0.269986 -0.961625 -0.0488332
-16.623 -4.8675 9.69606 0.265922 0.11055 0.0800778 -0.132375 6.08651 -0.580168 3.50475 0.79169 -0.538524 -0.288476
-17.8437 -7.97316 16.2629 0.254598 -0.297197 0 0.717809 6.09241 -0.731524 5.16989 -0.424628 -0.21275 -0.880016
-19.324 -10.4045 14.811 0.166069 -0.426102 0 -1 6.13879 -0.157377 6.10637 0.125617 0.949726 -0.286775
-21.3472 -8.6665 6.9135 -0.0288818 0.0884138 0 -1 6.17719 -0.410649 2.24274 0.279968 -0.926246 -0.252362
-19.343 -10.0887 16.0842 0.0367197 -0.350769 0 -0.959427 6.27863 -0.999899 5.81231 0.269278 0.796883 -0.540802
-19.3284 -7.98259 6.64594 -0.32721 0.0344549 0.000629393 -0.778167 6.28304 -0.0266087 2.93089 0.400781 -0.916003 0.0177111
-17.0427 -5.50575 8.13175 0.139628 0.105002 0.0189671 -0.0888889 6.44388 -0.731275 3.50475 0.914394 -0.404824 0.000975317
-16.4895 -7.686 14.14 0.249945 -0.349278 0 -0.866667 6.4901 0.0837004 4.45709 -0.666855 -0.076441 -0.741257
-17.0825 -7.7875 15.585 0.30018 -0.334885 0 -0.191002 6.49435 -0.858649 4.87744 -0.834138 -0.0571497 -0.548587
-22.4034 -11.3806 14.4312 -0.278896 -0.318893 -0.752668 -1 6.50444 0.124264 0.340274 -0.279148 -0.00970253 -0.960199
-17.37 -6.47 7.5005 -0.192306 0.0744871 -0.747237 -0.695038 6.54851 0.15415 2.93089 0.832502 -0.537503 0.13428
-18.8542 -9.37125 16.6077 0.147958 -0.320342 0 -0.866667 6.56268 -0.774815 5.81231 -0.0286449 0.379911 -0.924579
-25.0569 -9.07125 15.4163 0.127213 0.305632 0 -0.177778 6.71593 -0.140422 0.440285 -0.546323 0.134883 -0.826643
-22.7266 -9.01175 6.79588 -0.199122 0.108056 0 -1 6.75109 0.256502 2.24274 -0.0582471 -0.99656 -0.0589609
-23.7349 -11.4009 14.8865 0.126947 -0.270153 0.0924512 -0.301224 6.79234 -0.348377 0.340274 -0.20439 -0.0241314 -0.978592
-21.4137 -11.8073 13.9376 0.0435247 -0.37839 -0.314608 -1 6.8147 -0.144449 6.10637 -0.545339 0.442209 -0.712079
-24.6903 -10.3582 15.2692 0.354657 -0.277679 0 -0.177778 6.85876 -0.506523 0.440285 -0.331744 0.0426787 -0.942404
-24.8995 -7.225 9.8345 0.408823 0.359273 0.100114 -1 6.89967 0.252499 1.16541 -0.992452 -0.112955 0.0477527
-20.5223 -11.3789 13.7464 0.202422 -0.437744 0 -1 6.91879 -0.702519 6.10637 -0.520897 0.660354 -0.540924
-24.6496 -5.57312 13.2814 0.0897943 0.347328 0 -1 7.04082 -0.357939 0.79566 -0.915522 -0.399765 -0.0448003
-15.2399 -4.01038 10.1786 0.048477 -0.114098 0.0615469 -0.0972704 7.07519 -0.428873 3.81089 0.0501641 -0.892009 -0.449225
-15.4591 -7.77588 13.7755 0.861067 -0.298584 0.088854 -0.773651 7.12414 -0.734937 4.45709 -0.501152 0.0173468 -0.865186
-14.4446 -4.32575 10.8495 -0.113263 -0.145921 -0.487567 -0.132564 7.15673 -0.99988 3.81089 -0.216204 -0.790347 -0.573243
-25.0375 -6.1895 10.903 0.136225 0.380069 0 -1 7.18509 0.585142 1.16541 -0.998942 -0.0459705 0.00106772
-24.5791 -8.30962 8.16063 0.4171 0.250348 0.110137 -1 7.21342 0.479351 1.5206 -0.825595 -0.561846 -0.052172
-18.3009 -10.4878 14.4353 0.217073 -0.421949 0 -1 7.23187 -0.36447 6.10637 -0.351694 0.898683 -0.262068
-18.4521 -10.3144 15.4754 0.193447 -0.383015 0 -0.944124 7.23868 -0.902786 5.81231 -0.275903 0.864479 -0.420183
-24.994 -5.30963 14.6462 -0.180587 0.307736 -0.692479 -1 7.27781 -0.0334196 0.79566 -0.963333 -0.239604 -0.120742
-25.071 -6.36575 15.7308 -0.2382 0.306211 -0.294658 -1 7.43323 -0.033256 0.608681 -0.961125 -0.0348825 -0.2739
-25.3223 -7.353 16.2712 -0.112491 0.300442 -0.533627 -0.177778 7.43587 -0.351625 0.608681 -0.751181 0.277511 -0.598928
-19.2892 -10.6217 13.267 0.17298 -0.512449 0 -1 7.49445 0.330198 6.10637 -0.334676 0.910521 -0.242781
-17.9305 -7.7 5.6845 -0.513793 0.0157927 0 -0.777778 7.52325 0.787553 2.93089 0.473958 -0.878643 0.0578875
-15.8931 -3.66613 9.317 0.0168946 0.066592 0.787115 -0.16315 7.54244 -0.999886 3.50475 0.474484 -0.829969 -0.293286
-16.9635 -5.543 7.033 -0.11205 0.0943759 0.573641 -0.0888889 7.54611 -0.596404 2.93089 0.878562 -0.357826 0.316369
-20.8832 -8.26775 5.65475 -0.328951 0.0731435 -0.121059 -0.777778 7.57675 -0.165529 2.24274 0.241635 -0.944963 -0.220583
-16.891 -8.604 14.5685 0.296941 -0.38919 0 -0.866667 7.57984 -0.637084 4.45709 -0.911108 0.276913 -0.30529
-17.048 -7.02975 6.08975 -0.476217 -0.0472468 0 -0.777778 7.65818 0.635334 2.93089 0.706083 -0.625624 0.331724
-19.3487 -8.19125 5.2865 -0.36462 0.0732134 0 -0.777778 7.65856 0.64919 2.93089 0.123666 -0.9825 -0.139282
-22.384 -8.9035 5.78675 0.110245 0.0416114 0.189878 -0.931638 7.72661 0.265778 2.24274 0.320707 -0.94714 -0.00852864
-24.9455 -4.472 12.149 0.089358 0.364991 0 -0.988469 7.8127 0.208074 0.95722 -0.869816 0.163171 -0.465613
-13.6006 -5.50238 11.3686 0.099116 -0.168835 0 -0.0888889 7.93831 -0.327554 4.11518 -0.430903 -0.636383 -0.639796
-22.7603 -12.7945 14.5735 -0.147878 -0.245596 -0.0295089 -1 7.96962 -0.0751467 0.340274 -0.444675 -0.157526 -0.881731
-14.5334 -8.09988 12.9789 1 -0.247421 0 -0.866667 7.99155 0.0769332 4.45709 -0.416646 -0.127902 -0.900026
-16.0777 -3.76875 8.203 0.0361967 0.0414928 0 -0.0888889 8.01883 -0.514211 3.50475 0.711117 -0.702398 -0.0308115
-17.4824 -9.63325 15.3156 0.240497 -0.371527 0 -0.866667 8.03761 -0.876771 5.81231 -0.740196 0.487666 -0.462917
-24.621 -8.069 6.5915 0.169666 0.202921 0.651074 -1 8.07356 0.379095 1.5206 -0.816496 -0.575508 0.0461055
-24.8075 -12.0948 14.653 0.300281 -0.233994 0.715205 -0.177778 8.09099 0.221262 0.340274 0.152374 0.243081 -0.957963
-21.7095 -13.0495 13.7542 0.152812 -0.266655 0 -1 8.10474 0.262136 6.10637 -0.650328 -0.14921 -0.744856
-25.9482 -10.5319 15.2934 0.119435 -0.2547 0 -0.177778 8.12883 -0.207479 0.440285 -0.0906333 0.436551 -0.895103
-25.159 -7.1915 8.578 0.205926 0.313623 0.769499 -1 8.18312 0.822644 1.16541 -0.99791 0.0161028 -0.0625766
-16.4112 -4.2905 7.04475 -0.010762 0.0723192 0.812023 -0.0888889 8.19237 -0.628653 3.50475 0.838796 -0.44615 0.312044
-24.6915 -7.5625 7.4935 0.248663 0.281776 0.322389 -1 8.22133 -0.0937854 1.5206 -0.984202 -0.106551 -0.141396
-25.0672 -5.18225 15.6625 -0.299425 0.295464 -0.00553489 -1 8.30467 0.0624215 0.79566 -0.999723 0.0152582 -0.0179421
-24.6723 -6.2505 8.82925 0.308316 0.360163 0.0893703 -1 8.31805 -0.429831 1.16541 -0.958404 0.28176 0.0455346
-16.9587 -9.418 13.788 0.235878 -0.403648 0 -0.866667 8.31872 0.382773 4.45709 -0.698075 0.434666 -0.568996
-23.8135 -12.9655 14.8745 0.151873 -0.202471 0.27264 -0.393071 8.35896 -0.0725685 0.340274 -0.0165388 -0.164178 -0.986292
-21.164 -12.614 12.603 0.138973 -0.341192 0 -1 8.39403 0.670374 6.10637 -0.847744 0.221375 -0.481999
-13.3403 -7.75063 12.6695 0.488417 -0.160127 0 -0.477887 8.40845 0.309244 4.11518 -0.078355 -0.532924 -0.842527
-20.0719 -11.826 12.3647 0.259031 -0.422521 0 -1 8.43927 0.068851 6.10637 -0.660231 0.616466 -0.429027
-15.4358 -9.10581 13.2952 0.96659 -0.307363 0 -0.866667 8.44965 -0.179197 4.45709 -0.419749 0.28432 -0.861959
-23.6082 -9.08744 5.33644 0.150248 0.114539 0 -0.777778 8.45782 0.298718 2.24274 -0.315602 -0.883558 0.346006
-24.5348 -5.35962 9.98388 0.164762 0.409744 0 -1 8.52157 0.131616 1.16541 -0.895138 0.434021 -0.101751
-25.4662 -4.19425 14.3174 0.0128769 0.212593 -0.170267 -0.905593 8.53286 -0.311806 0.79566 -0.738833 -0.651896 0.170754
-13.5747 -4.53587 9.77962 0.055301 -0.158976 0 -0.0888889 8.55155 -0.568209 3.81089 -0.68619 -0.688193 -0.235655
-25.3781 -5.99813 16.916 -0.0399433 0.273021 0 -0.420696 8.71157 -0.396948 0.608681 -0.837572 0.234685 -0.493352
-26.873 -9.08488 16.3076 -0.24996 0.247242 -0.251729 -0.177778 8.739 0.346423 0.440285 -0.542181 0.464401 -0.700266
-19.9748 -7.73325 4.382 -0.56974 0.0824307 -0.194228 -0.777778 8.85014 -0.325348 2.93089 0.0252994 -0.972989 -0.22946
-22.078 -8.56275 4.7525 0.00291981 0.0425502 0.351184 -0.808636 8.85772 -0.266633 2.24274 0.570463 -0.803747 -0.169007
-14.9088 -3.36075 8.43425 0.00988187 -0.0747017 0 -0.0888889 8.89941 -0.527912 3.81089 0.0743413 -0.974183 -0.213168
-23.995 -3.911 12.06 0.104104 0.402709 0 -1 8.91999 -0.604812 0.95722 -0.406309 0.484181 -0.774908
-21.0245 -13.6438 12.84 0.182942 -0.246811 0 -1 8.98931 0.235309 6.10637 -0.882519 -0.299105 -0.362899
-26.3605 -7.1855 17.4255 -0.144245 0.244186 -0.496914 -0.203284 8.99739 -0.0453567 0.608681 -0.79986 0.333164 -0.499225
-18.04 -10.3495 12.4425 0.180204 -0.461545 0 -1 9.01577 0.790245 6.10637 -0.0188837 0.93446 -0.355567
-25.2713 -3.80669 15.5155 -0.00328846 0.200492 0 -0.963744 9.03605 -0.660675 0.79566 -0.774085 -0.592939 0.221848
-13.9991 -3.79312 8.62912 0.20013 -0.136607 0 -0.0888889 9.07211 -0.509045 3.81089 -0.539987 -0.798588 -0.265839
-16.8458 -10.3915 13.2823 0.230086 -0.367049 0 -0.901769 9.0909 -0.277064 6.10637 -0.0914488 0.806767 -0.58375
-22.695 -13.8725 14.969 0.0611497 -0.193324 0 -0.440453 9.11973 -0.541795 0.340274 -0.371655 -0.333765 -0.866299
-26.0491 -4.00919 13.2559 0.1678 0.210791 0.254854 -0.829949 9.13966 0.326268 0.79566 -0.679656 -0.636671 -0.364305
-25.378 -3.21106 12.4735 0.127782 0.241658 0 -0.821518 9.18468 -0.0415662 0.95722 -0.194296 -0.179996 -0.964288
-18.9442 -11.0352 11.6637 0.331355 -0.467223 0 -1 9.18578 0.380992 6.10637 -0.371316 0.846535 -0.381449
-24.3805 -8.4235 5.5625 0.104751 0.173603 0 -0.777778 9.18817 -0.0931875 1.5206 -0.746378 -0.578982 0.328176
-16.0704 -5.72713 5.64337 -0.140468 -0.0736611 -0.360001 -0.537833 9.20822 -0.0838047 2.93089 0.544413 -0.522051 0.656565
-17.5072 -7.0805 4.16025 -0.244737 0.00501099 -0.0570109 -0.462858 9.22216 -0.31715 2.93089 0.551357 -0.826133 0.116228
-16.272 -6.41025 4.868 -0.196917 -0.0196155 -0.260354 -0.537218 9.23254 0.0206288 2.93089 0.376086 -0.90874 0.180975
-26.1826 -11.346 14.5651 0.131163 -0.23298 0 -0.177778 9.24603 0.334408 0.440285 0.187801 0.455244 -0.870336
-15.773 -3.4955 6.645 -0.114715 0.0741938 0 -0.151249 9.28741 -0.0697984 3.50475 0.923786 -0.380056 0.0466609
-18.504 -7.66988 3.92006 -0.246476 0.0457726 0 -0.773431 9.34749 0.0743183 2.93089 0.180183 -0.982802 0.0404267
-24.7005 -6.20725 7.77287 0.262546 0.288629 0.0845715 -0.698524 9.37569 -0.223395 1.16541 -0.993191 -0.0561366 0.102083
-15.8263 -4.70075 6.05 -0.0799593 -0.0977007 0 -0.288889 9.41709 -0.469468 3.50475 0.445854 -0.386268 0.807472
-24.8498 -4.58025 16.602 -0.132577 0.254963 0 -1 9.44148 -0.999891 0.79566 -0.979338 -0.130903 -0.154149
-12.9268 -5.85825 10.0618 0.066468 -0.154506 0 -0.0888889 9.45105 0.523431 4.11518 -0.698661 -0.694381 -0.17236
-12.3375 -6.3815 11.3695 0.125123 -0.109447 0 -0.0888889 9.47723 -0.0946285 4.11518 -0.259074 -0.89831 -0.354851
-21.2822 -7.69037 3.86944 -0.210869 0.0375325 0 -0.777778 9.49505 -0.746784 2.24274 0.462464 -0.873277 -0.153346
-24.7237 -6.64975 6.4585 0.206704 0.234693 0.622314 -1 9.50272 -0.69256 1.5206 -0.96535 -0.20611 0.160054
-12.997 -6.8425 12.0225 0.164346 -0.142577 0 -0.0888889 9.54699 0.101263 4.11518 -0.0988507 -0.649519 -0.753892
-12.4315 -8.2485 13.1453 0.53482 -0.15266 0 -0.483678 9.5487 -0.394484 4.11518 0.145432 -0.269293 -0.952014
-20.9441 -14.2774 14.1104 0.392027 -0.190755 0 -1 9.59486 -0.459495 6.10637 -0.656228 -0.535194 -0.531913
-27.0502 -8.16725 17.2865 -0.204241 0.238266 -0.581889 -0.177778 9.59908 0.633277 0.608681 -0.80342 0.523062 -0.28447
-20.6022 -13.328 11.6995 0.196928 -0.294426 0.638818 -1 9.67533 0.109021 6.10637 -0.936276 0.084451 -0.340963
-13.842 -9.499 12.3448 0.385083 -0.216332 0.846334 -0.866667 9.67608 0.583064 4.45709 0.114291 0.198146 -0.973486
-23.843 -4.437 9.9255 0.143258 0.401614 0 -0.677778 9.67623 -0.22975 1.16541 -0.820186 0.460213 0.33985
-13.1315 -5.173 8.925 0.0186621 -0.159985 0 -0.0888889 9.70599 0.513889 3.81089 -0.755563 -0.598811 -0.265611
-23.2131 -9.617 4.12425 0.316998 0.0302596 0.452161 -0.777778 9.71668 0.788439 2.24274 0.320447 -0.946932 0.0251881
-24.4319 -4.8465 8.7625 0.221181 0.322537 0 -0.69704 9.74404 -0.261914 1.16541 -0.925946 0.155936 0.343958
-23.4335 -4.26737 10.9566 0.191643 0.479787 0 -0.630524 9.74915 -0.646653 0.95722 -0.706484 0.691227 -0.151939
-24.2787 -14.2273 15.3814 0.0961013 -0.142435 -0.0270824 -0.164799 9.79614 0.0609397 0.340274 -0.187205 -0.581612 -0.791632
-25.6367 -13.6027 14.3519 0.60449 -0.141792 -0.0889253 -0.177778 9.83799 0.742521 0.340274 0.157091 -0.424198 -0.89184
-27.7169 -10.416 15.7773 0.038209 0.231727 0 -0.177778 9.96619 0.246792 0.440285 -0.561029 0.661907 -0.497118
-25.111 -6.972 5.09363 0.158238 0.177889 0.100685 -0.811127 9.99375 -0.41889 1.5206 -0.838639 -0.3688 0.400838
-27.6816 -9.48 17.2225 -0.016872 0.21978 0 -0.177778 10.0224 0.294381 0.440285 -0.839213 0.537233 -0.0842804
-23.7764 -2.84488 12.409 0.0289287 0.317831 0 -0.494404 10.0629 -0.90501 0.95722 -0.396047 0.107518 -0.911914
-14.8453 -3.09875 7.2685 -0.106071 0.143143 0 -0.0888889 10.0959 0.173275 3.81089 0.063646 -0.38891 -0.919075
-17.2897 -10.9758 11.8864 0.274118 -0.352121 0 -1 10.1402 0.0577259 6.10637 0.307248 0.871201 -0.382894
-24.7594 -9.37162 4.1245 0.135141 0.102453 0 -0.777778 10.1533 0.84082 2.24274 -0.40853 -0.884444 0.225528
-15.3629 -10.7626 12.8304 0.136983 -0.294275 -0.394883 -0.790553 10.1719 -0.999862 4.45709 -0.332311 0.671036 -0.662782
-16.6895 -6.5235 3.8545 -0.247934 -0.0365156 -0.0845656 -0.266918 10.2577 -0.999905 2.93089 0.290408 -0.875042 0.387254
-26.7423 -8.0535 18.2563 -0.258019 0.215927 0 -0.177778 10.2581 -0.246819 0.608681 -0.961133 0.272729 0.042919
-26.7127 -6.13825 18.033 0.046367 0.213354 0 -0.355556 10.2583 0.633016 0.608681 -0.92016 0.108062 -0.376334
-22.8888 -3.4195 11.4747 0.183954 0.430449 0 -0.403064 10.2645 -0.999888 0.95722 -0.835758 0.35541 -0.41856
-25.3465 -4.50325 17.4735 0.07559 0.224185 0 -0.355556 10.3073 -0.595128 0.608681 -0.83856 -0.0972335 -0.536062
-27.1044 -3.502 13.4146 0.188455 0.135807 0.634199 -0.777778 10.3212 0.433604 0.79566 -0.421853 -0.882188 -0.209246
-20.2013 -14.7099 12.4825 0.293527 -0.197543 0 -1 10.3829 -0.319494 6.10637 -0.897953 -0.43703 0.0518187
-11.4593 -7.06425 12.5245 0.36085 -0.114609 0 -0.534173 10.416 -0.845022 4.11518 -0.0430158 -0.6673 -0.743546
-25.3088 -8.56675 4.445 0.166744 0.156738 0 -0.777778 10.4472 0.999828 2.24274 -0.794798 -0.433744 0.424456
-12.061 -6.426 9.85625 0.0687357 -0.084446 0 -0.0888889 10.5066 0.594472 4.11518 -0.196044 -0.978588 -0.0627064
-16.5045 -2.70075 6.00325 -0.242911 0.173284 0 -0.0888889 10.5438 -0.280207 3.50475 0.742702 0.574164 -0.344571
-27.443 -11.1007 14.2665 0.0553523 -0.22845 0 -0.177778 10.5643 0.999909 0.440285 -0.248144 0.492462 -0.83421
-13.621 -3.619 7.156 -0.00765367 -0.157768 0 -0.0888889 10.6029 0.26688 3.81089 -0.581425 -0.365319 -0.726971
-21.8455 -15.0938 14.9732 0.117286 -0.17705 0 -0.155556 10.6074 -0.353536 0.340274 -0.359799 -0.248848 -0.899233
-25.267 -5.68925 6.26125 0.171167 0.189263 0 -0.364204 10.6237 -0.327172 1.5206 -0.82037 -0.434493 0.371765
-25.8703 -3.0485 16.7773 0.054559 0.166365 0 -0.542731 10.6253 -0.423043 0.79566 -0.785778 -0.615975 -0.0559192
-14.8775 -6.392 4.7815 -0.0877703 -0.0856309 0 -0.288889 10.6298 0.139323 2.93089 -0.0701895 -0.726398 0.68368
-18.8921 -11.6245 10.3421 0.378147 -0.381426 0 -1 10.6337 0.788944 6.10637 -0.543557 0.608633 -0.578024
-14.5136 -10.6986 12.1084 0.0093171 -0.253847 -0.611101 -0.794638 10.6396 0.104646 4.45709 -0.118791 0.560971 -0.819268
-16.6373 -7.33638 3.0085 -0.150963 -0.0717188 0 -0.155556 10.688 -0.415263 2.93089 0.229484 -0.609191 0.759094
-19.2633 -7.63963 2.67156 -0.203143 -0.0862522 0 -0.777778 10.705 -0.401501 2.93089 -0.292112 -0.938389 0.184654
-20.2196 -13.3044 10.6401 0.211921 -0.299143 0.264241 -1 10.7156 0.53074 6.10637 -0.761396 0.321536 -0.56293
-18.2409 -8.0865 2.63013 -0.181489 -0.0824942 0 -0.155556 10.7283 -0.122252 2.93089 -0.178788 -0.814894 0.551346
-27.2073 -12.3658 14.2268 0.0340617 0.176967 0 -0.177778 10.7308 0.656503 0.440285 -0.247566 -0.171873 -0.953505
-12.1716 -9.38762 13.3766 0.192425 -0.170999 -0.0349964 -0.858767 10.7398 -0.999812 4.11518 0.174566 0.148977 -0.97331
-14.434 -3.972 5.968 -0.105477 0.171719 0 -0.288889 10.8617 0.249956 3.50475 0.435753 0.731254 0.524773
-20.5355 -7.3585 2.45875 -0.197638 0.0508746 0 -0.777778 10.8882 -0.725604 2.93089 0.0744875 -0.996569 0.0360829
-10.918 -6.34381 11.3474 0.0814103 -0.0727336 0 -0.674742 10.8974 -0.585778 4.11518 -0.0343879 -0.954799 -0.295256
-20.1612 -15.324 14.3276 0.265798 -0.177193 0.0100821 -0.594202 10.9198 -0.87813 6.10637 -0.659343 -0.395084 -0.639669
-15.9136 -1.95187 7.181 -0.292536 0.151965 0 -0.0888889 10.9275 -0.591677 3.50475 0.618773 0.102756 -0.77882
3 184 163 148
3 106 148 100
3 175 132 117
3 132 74 117
3 94 132 133
3 94 133 124
3 108 142 104
3 104 106 79
3 106 100 79
3 115 135 178
3 135 100 163
3 135 163 178
3 115 168 157
3 128 117 82
3 128 82 107
3 83 119 107
3 47 82 50
3 33 50 45
3 45 78 49
3 78 72 49
3 72 78 116
3 72 116 108
3 49 72 46
3 79 54 46
3 54 16 41
3 41 16 17
3 58 68 93
3 68 54 100
3 68 115 93
3 157 93 115
3 93 157 122
3 121 196 190
3 171 172 126
3 126 152 171
3 119 126 172
3 152 126 84
3 171 152 164
3 152 120 164
3 162 120 103
3 27 42 47
3 9 27 33
3 47 33 27
3 29 45 49
3 30 46 25
3 41 25 46
3 12 1 9
3 28 60 23
3 60 58 89
3 89 58 93
3 48 60 86
3 189 141 192
3 141 121 190
3 193 139 161
3 161 139 101
3 71 42 43
3 71 43 69
3 21 64 43
3 69 43 64
3 0 5 1
3 0 2 6
3 8 2 3
3 0 3 2
3 4 0 1
3 17 16 4
3 4 15 10
3 37 19 23
3 10 23 19
3 35 19 37
3 35 37 61
3 65 37 48
3 91 65 48
3 136 91 138
3 136 138 186
3 91 86 138
3 110 161 101
3 69 64 110
3 96 110 64
3 96 102 131
3 102 64 70
3 102 70 125
3 125 70 111
3 111 70 113
3 73 51 85
3 51 57 85
3 85 57 80
3 57 51 31
3 39 13 24
3 24 13 18
3 26 6 14
3 14 22 38
3 20 22 8
3 8 3 20
3 8 22 7
3 22 20 44
3 35 44 20
3 52 22 44
3 118 75 129
3 61 105 98
3 151 183 131
3 102 125 151
3 176 125 153
3 113 191 153
3 134 127 167
3 130 109 114
3 127 85 130
3 76 97 114
3 114 62 76
3 44 95 52
3 52 95 112
3 112 95 149
3 129 156 118
3 129 182 156
3 198 183 151
3 187 113 134
3 114 154 188
3 154 150 194
3 150 97 112
3 177 112 149
3 149 146 177
3 146 149 95
3 179 146 145
3 95 145 146
3 146 179 197
3 63 90 99
3 113 70 73
3 139 162 103
3 116 159 155
3 159 116 94
3 159 94 124
3 163 100 148
3 117 128 175
3 74 82 117
3 94 74 132
3 155 158 116
3 142 108 158
3 158 108 116
3 106 104 142
3 106 142 148
3 148 142 184
3 54 79 100
3 115 68 100
3 135 115 100
3 119 174 144
3 119 144 107
3 128 144 185
3 128 107 144
3 174 185 144
3 126 119 84
3 83 84 119
3 67 84 47
3 47 84 83
3 33 47 50
3 45 50 74
3 74 50 82
3 45 74 94
3 89 122 147
3 147 122 157
3 89 147 121
3 162 164 120
3 103 120 67
3 103 67 71
3 71 67 42
3 42 27 21
3 9 21 27
3 43 42 21
3 11 21 9
3 10 15 23
3 23 15 28
3 60 48 23
3 137 86 141
3 137 141 189
3 192 141 190
3 69 101 71
3 71 101 103
3 103 101 139
3 110 101 69
3 70 51 73
3 51 70 34
3 34 70 64
3 34 64 21
3 34 21 11
3 31 51 34
3 31 34 13
3 13 34 11
3 5 13 11
3 1 5 9
3 9 5 11
3 24 18 6
3 6 18 5
3 6 5 0
3 5 18 13
3 2 14 6
3 7 14 2
3 7 2 8
3 4 3 0
3 10 3 4
3 88 61 65
3 88 65 91
3 65 61 37
3 105 88 136
3 105 136 143
3 91 136 88
3 137 189 170
3 137 170 138
3 137 138 86
3 131 183 160
3 131 160 110
3 131 110 96
3 110 160 161
3 134 113 85
3 85 113 73
3 130 85 80
3 109 130 80
3 109 80 99
3 109 99 90
3 81 80 57
3 80 81 99
3 39 59 31
3 59 39 66
3 31 59 57
3 57 59 81
3 81 59 66
3 81 66 99
3 40 56 66
3 56 40 26
3 26 40 24
3 39 24 66
3 66 56 99
3 66 24 40
3 6 26 24
3 38 62 32
3 14 38 32
3 14 32 26
3 26 32 56
3 56 32 63
3 63 32 62
3 63 62 90
3 76 62 53
3 52 53 22
3 38 22 53
3 38 53 62
3 55 44 35
3 75 77 44
3 77 75 118
3 75 44 55
3 123 129 75
3 123 75 87
3 123 87 98
3 98 87 55
3 98 55 61
3 55 87 75
3 35 61 55
3 166 123 140
3 98 140 123
3 143 195 140
3 143 140 105
3 105 140 98
3 129 123 166
3 129 166 182
3 125 176 151
3 130 167 127
3 97 76 53
3 97 53 52
3 112 97 52
3 118 145 95
3 118 95 77
3 77 95 44
3 156 145 118
3 198 151 176
3 169 130 114
3 188 169 114
3 150 112 177
3 146 197 177
3 140 199 166
3 180 199 140
3 180 140 195
3 99 56 63
3 124 165 173
3 124 173 159
3 133 165 124
3 175 133 132
3 178 168 115
3 107 82 83
3 83 82 47
3 116 78 94
3 94 78 45
3 72 108 104
3 72 104 79
3 46 72 79
3 68 58 36
3 68 36 54
3 54 36 16
3 84 67 120
3 152 84 120
3 42 67 47
3 9 33 29
3 29 33 45
3 9 29 30
3 49 30 29
3 49 46 30
3 9 30 12
3 12 30 25
3 54 41 46
3 17 25 41
3 25 17 12
3 12 17 1
3 28 15 36
3 28 36 58
3 16 36 15
3 28 58 60
3 89 93 122
3 89 121 92
3 60 89 92
3 121 141 92
3 60 92 86
3 92 141 86
3 181 162 139
3 181 139 193
3 1 17 4
3 4 16 15
3 23 48 37
3 86 91 48
3 102 96 64
3 31 13 39
3 7 22 14
3 35 20 19
3 10 19 3
3 3 19 20
3 61 88 105
3 151 131 102
3 125 111 153
3 113 153 111
3 85 127 134
3 109 90 62
3 109 62 114
3 114 97 154
3 150 154 97
