ply
format ascii 1.0
comment Generated by PyMesh
element vertex 200
property float x
property float y
property float z
property float charge
property float ddc
property float hbond
property float hphob
property float rho
property float si
property float theta
property float nx
property float ny
property float nz
element face 328
property list uchar int vertex_indices
end_header
-16.623 -4.8675 9.69606 0.265922 0 0.0800778 -0.132375 1e-08 -0.580168 2.22045e-16 0.79169 -0.538524 -0.288476
-17.1159 -5.79738 9.5235 0.256873 -0.300505 0 -0.160835 1.06649 0.0971588 1.88857 0.853315 -0.519417 -0.0453887
-15.8931 -3.66613 9.317 0.0168946 -0.163148 0.787115 -0.16315 1.45593 -0.999886 4.71784 0.474484 -0.829969 -0.293286
-15.803 -4.925 11.1187 -0.006921 -0.291568 -0.811647 -0.177778 1.64305 -0.25577 2.22045e-16 0.354256 -0.763653 -0.539757
-15.2399 -4.01038 10.1786 0.048477 -0.402769 0.0615469 -0.0972704 1.69719 -0.428873 5.41465 0.0501641 -0.892009 -0.449225
-17.0427 -5.50575 8.13175 0.139628 -0.261742 0.0189671 -0.0888889 1.74086 -0.731275 2.97547 0.914394 -0.404824 0.000975317
-16.0777 -3.76875 8.203 0.0361967 -0.0785156 0 -0.0888889 1.93231 -0.514211 4.09439 0.711117 -0.702398 -0.0308115
-17.4675 -6.8385 8.893 0.0557223 -0.105224 0 -0.0888889 2.33341 0.738786 2.24804 0.745376 -0.6652 0.0438689
-17.8043 -6.68175 10.2825 0.213745 0.18466 0 -0.0888889 2.42004 0.461547 1.64591 0.530315 -0.818463 0.221099
-14.4446 -4.32575 10.8495 -0.113263 -0.380927 -0.487567 -0.132564 2.78442 -0.99988 5.68359 -0.216204 -0.790347 -0.573243
-14.9088 -3.36075 8.43425 0.00988187 -0.240326 0 -0.0888889 2.81289 -0.527912 4.59945 0.0743413 -0.974183 -0.213168
-16.9635 -5.543 7.033 -0.11205 -0.236524 0.573641 -0.0888889 2.84309 -0.596404 3.18736 0.878562 -0.357826 0.316369
-17.37 -6.47 7.5005 -0.192306 -0.143193 -0.747237 -0.695038 2.93893 0.15415 2.81105 0.832502 -0.537503 0.13428
-17.401 -6.03675 11.4762 0.108734 0.123179 0 -0.16549 3.05436 -0.137755 1.00331 0.51537 -0.855702 0.0465509
-16.4112 -4.2905 7.04475 -0.010762 -0.216998 0.812023 -0.0888889 3.2457 -0.628653 3.69574 0.838796 -0.44615 0.312044
-13.5747 -4.53587 9.77962 0.055301 -0.437559 0 -0.0888889 3.48834 -0.568209 5.34657 -0.68619 -0.688193 -0.235655
-15.773 -3.4955 6.645 -0.114715 0.144026 0 -0.151249 3.54317 -0.0697984 4.00147 0.923786 -0.380056 0.0466609
-18.6239 -7.34106 8.705 0.0570087 0.101837 0 -0.0888889 3.60823 0.0479925 2.1213 0.53879 -0.830792 0.139607
-15.3011 -6.19775 12.604 0.50108 -0.312612 -0.194779 -0.177778 3.66243 -0.206937 0.192938 -0.272386 -0.641142 -0.717456
-13.9991 -3.79312 8.62912 0.20013 -0.395742 0 -0.0888889 3.69411 -0.509045 4.9017 -0.539987 -0.798588 -0.265839
-16.9878 -6.00616 12.5084 0.16828 0.2161 0 -0.177778 3.76529 -0.268516 0.690932 0.0390774 -0.970228 -0.23902
-13.6006 -5.50238 11.3686 0.099116 -0.338097 0 -0.0888889 3.93355 -0.327554 5.84916 -0.430903 -0.636383 -0.639796
-14.8453 -3.09875 7.2685 -0.106071 0.291715 0 -0.0888889 4.00941 0.173275 4.39938 0.063646 -0.38891 -0.919075
-19.3347 -7.254 9.89163 0.152654 0.139858 0.287924 -0.63516 4.10003 -0.651943 1.78438 0.48933 -0.816662 0.305973
-18.333 -6.3345 12.108 0.091576 0.201346 -0.120039 -0.0912609 4.21903 0.282037 1.04043 0.250826 -0.908366 0.3346
-18.4643 -7.255 7.23925 -0.370103 -0.0992226 -0.530836 -0.632871 4.30875 -0.443081 2.55596 0.51067 -0.841295 0.17731
-19.261 -6.84125 11.6965 -0.243992 0.154832 0 -0.0888889 4.45641 0.277998 1.33491 0.368084 -0.864345 0.342669
-15.8263 -4.70075 6.05 -0.0799593 -0.282703 0 -0.288889 4.47042 -0.469468 3.69081 0.445854 -0.386268 0.807472
-17.048 -7.02975 6.08975 -0.476217 -0.121479 0 -0.777778 4.49045 0.635334 2.96767 0.706083 -0.625624 0.331724
-16.0704 -5.72713 5.64337 -0.140468 -0.205242 -0.360001 -0.537833 4.50519 -0.0838047 3.39859 0.544413 -0.522051 0.656565
-13.1315 -5.173 8.925 0.0186621 -0.395472 0 -0.0888889 4.64278 0.513889 5.19804 -0.755563 -0.598811 -0.265611
-16.5045 -2.70075 6.00325 -0.242911 0.310024 0 -0.0888889 4.79958 -0.280207 4.0303 0.742702 0.574164 -0.344571
-15.8385 -6.69825 13.663 0.586543 -0.265893 0.523724 -0.177778 4.95115 -0.999858 0.394686 -0.370887 -0.574621 -0.729557
-12.9268 -5.85825 10.0618 0.066468 -0.351874 0 -0.0888889 4.98771 0.523431 5.52012 -0.698661 -0.694381 -0.17236
-17.0045 -6.579 13.7055 0.209189 -0.245039 0.0484967 -0.177778 5.0925 0.0532711 0.600173 -0.372483 -0.798344 -0.473185
-14.434 -3.972 5.968 -0.105477 -0.37118 0 -0.288889 5.11744 0.249956 3.89972 0.435753 0.731254 0.524773
-13.7907 -2.59575 7.293 -0.043938 0.314806 0 -0.0888889 5.17808 -0.242704 4.51482 -0.0844454 0.0670477 -0.99417
-15.9136 -1.95187 7.181 -0.292536 0.265963 0 -0.0888889 5.18325 -0.591677 4.22332 0.618773 0.102756 -0.77882
-13.621 -3.619 7.156 -0.00765367 -0.340892 0 -0.0888889 5.22491 0.26688 4.66854 -0.581425 -0.365319 -0.726971
-19.1028 -6.053 12.8455 0.0926913 0.16744 -0.218172 -0.149494 5.32163 -0.584342 0.979477 0.136644 -0.958058 0.251901
-14.9106 -1.80275 7.49563 -0.306126 0.324986 0 -0.0888889 5.32678 -0.551079 4.40429 -0.00256586 0.0953149 -0.995444
-20.3315 -7.74131 10.5953 0.199796 0.115004 0.0211574 -0.577367 5.41389 -0.0744587 1.63409 0.524645 -0.768145 0.367016
-12.3375 -6.3815 11.3695 0.125123 -0.19515 0 -0.0888889 5.47247 -0.0946285 5.86472 -0.259074 -0.89831 -0.354851
-12.997 -6.8425 12.0225 0.164346 -0.202262 0 -0.0888889 5.54222 0.101263 6.02961 -0.0988507 -0.649519 -0.753892
-16.272 -6.41025 4.868 -0.196917 -0.0936386 -0.260354 -0.537218 5.55804 0.0206288 3.24873 0.376086 -0.90874 0.180975
-19.3284 -7.98259 6.64594 -0.32721 0.0700127 0.000629393 -0.778167 5.58471 -0.0266087 2.47496 0.400781 -0.916003 0.0177111
-17.9305 -7.7 5.6845 -0.513793 -0.0628443 0 -0.777778 5.67039 0.787553 2.79831 0.473958 -0.878643 0.0578875
-20.1845 -8.6605 9.077 0.175931 0.0974028 0 -1 5.68544 0.901947 1.96903 0.476436 -0.824735 0.304665
-14.5334 -8.09988 12.9789 1 -0.283445 0 -0.866667 5.74762 0.0769332 0.104635 -0.416646 -0.127902 -0.900026
-20.1338 -8.74375 7.88375 0.118923 0.0462827 0 -1 5.82674 0.766052 2.15734 0.446913 -0.885445 -0.127498
-12.4902 -5.07987 7.84025 0.2066 -0.263596 0 -0.0888889 5.90636 -0.109436 4.96875 -0.52891 -0.777561 -0.340077
-14.386 -5.0025 5.6365 0.057943 -0.267776 0 -0.288889 5.99898 -0.0728844 3.72821 0.0248452 -0.484975 0.874175
-12.061 -6.426 9.85625 0.0687357 -0.184219 0 -0.0888889 6.04326 0.594472 5.52012 -0.196044 -0.978588 -0.0627064
-20.79 -7.24388 12.0931 0.140248 0.0814717 0 -0.610956 6.08651 -0.22274 1.33491 0.580424 -0.770568 0.263312
-18.6523 -6.01937 14.132 0.176105 0.133829 0 0.0998822 6.09055 -0.501133 0.979477 0.0278223 -0.975824 -0.216778
-15.4591 -7.77588 13.7755 0.861067 -0.300734 0.088854 -0.773651 6.09914 -0.734937 0.394686 -0.501152 0.0173468 -0.865186
-14.8775 -6.392 4.7815 -0.0877703 -0.205431 0 -0.288889 6.12009 0.139323 3.24873 -0.0701895 -0.726398 0.68368
-16.6407 -1.46219 6.47369 -0.342837 0.196061 0 -0.0888889 6.13146 -0.446977 4.22332 0.652655 -0.0343063 -0.756878
-16.8978 -2.712 4.73 -0.461127 0.295345 -0.314812 -0.178804 6.13224 -0.161105 4.0303 0.508377 0.854592 -0.105947
-13.5205 -4.28575 6.30813 -0.0468763 -0.326717 0.712136 -0.0888889 6.14145 0.810863 3.89972 -0.0219807 -0.0487423 0.998569
-13.3403 -7.75063 12.6695 0.488417 -0.19249 0 -0.477887 6.16453 0.309244 6.02961 -0.078355 -0.532924 -0.842527
-20.213 -6.25775 13.0215 0.18907 0.108228 0 -0.80846 6.18915 -0.856385 0.979477 0.370986 -0.88433 0.283425
-16.4895 -7.686 14.14 0.249945 -0.301072 0 -0.866667 6.22668 0.0837004 0.394686 -0.666855 -0.076441 -0.741257
-17.3774 -1.5455 5.76562 -0.288092 0.219669 0 -0.0888889 6.2669 -0.323729 4.0303 0.666004 0.274949 -0.693428
-11.9108 -6.32387 8.77262 0.0522473 -0.204534 0 -0.0888889 6.32737 0.999847 4.96875 -0.348543 -0.871239 -0.345631
-12.6915 -2.2385 7.26463 0.0331868 0.238448 0.0298436 -0.0888889 6.33422 0.230133 4.51482 0.235183 0.158478 -0.958944
-13.5662 -1.33525 7.15225 -0.2458 0.252445 0 -0.0888889 6.46613 0.857317 4.51482 -0.012148 0.0802792 -0.996698
-12.3745 -3.36175 7.0435 0.259066 0.295819 0.820334 -0.0888889 6.50264 -0.0846172 4.66854 0.00283395 0.46792 -0.883766
-16.6895 -6.5235 3.8545 -0.247934 -0.11129 -0.0845656 -0.266918 6.66 -0.999905 3.24873 0.290408 -0.875042 0.387254
-15.452 -0.5805 7.51525 -0.61469 0.180172 -0.0869372 -0.423624 6.66371 -0.759473 4.40429 0.465199 -0.210351 -0.859851
-13.759 -3.865 4.518 -0.180889 0.284049 0 -0.288889 6.72042 0.457533 3.89972 0.378846 0.906421 0.186753
-17.911 -6.2715 15.196 0.204766 0.193668 0 1 6.86391 -0.999889 0.600173 -0.413333 -0.739608 -0.531165
-10.918 -6.34381 11.3474 0.0814103 -0.11965 0 -0.674742 6.89264 -0.585778 5.86472 -0.0343879 -0.954799 -0.295256
-21.3273 -8.8025 9.55481 0.264206 0.0967515 0 -1 6.93222 -0.0240967 1.96903 0.2227 -0.958482 0.178095
-19.3487 -8.19125 5.2865 -0.36462 0.0947785 0 -0.777778 6.96022 0.64919 2.47496 0.123666 -0.9825 -0.139282
-12.6431 -4.67812 5.88588 -0.0220906 -0.34898 0.162576 -0.25208 7.04427 -0.0594895 3.72821 -0.562668 0.507152 0.652841
-11.4593 -7.06425 12.5245 0.36085 -0.144373 0 -0.534173 7.07603 -0.845022 5.86472 -0.0430158 -0.6673 -0.743546
-17.5072 -7.0805 4.16025 -0.244737 -0.0519013 -0.0570109 -0.462858 7.13153 -0.31715 3.24873 0.551357 -0.826133 0.116228
-15.4358 -9.10581 13.2952 0.96659 -0.288025 0 -0.866667 7.13552 -0.179197 0.104635 -0.419749 0.28432 -0.861959
-15.7994 -3.405 4.57062 -0.508533 0.316361 -0.441312 -0.288889 7.15176 -0.673185 3.89972 0.376037 0.897252 0.231375
-21.7401 -8.90375 10.7118 0.347503 0.0721362 0 -1 7.24392 0.945378 1.63409 0.36967 -0.912761 0.173817
-17.9579 -0.845375 5.33087 -0.264383 0.132766 0 0.677698 7.27495 -0.831184 4.0303 0.778267 -0.0837903 -0.622317
-13.8022 -6.02612 5.05288 -0.0323285 -0.231609 0 -0.288889 7.2879 -0.344842 3.72821 -0.0436382 -0.470329 0.881412
-21.5298 -9.17 7.988 0.0304505 0.0880285 0 -1 7.29009 0.691841 2.15734 0.129959 -0.990607 -0.042527
-17.3153 -2.467 3.665 -0.483187 0.280204 0 -0.288889 7.30209 0.202569 4.0303 0.0957686 0.995402 0.00153593
-12.4315 -8.2485 13.1453 0.53482 -0.16367 0 -0.483678 7.30478 -0.394484 0.104635 0.145432 -0.269293 -0.952014
-16.891 -8.604 14.5685 0.296941 -0.304305 0 -0.866667 7.31642 -0.637084 0.394686 -0.911108 0.276913 -0.30529
-18.038 -2.218 4.732 -0.394763 0.235338 0 -0.0888889 7.37486 -0.597494 4.0303 0.666539 0.597934 -0.445197
-21.3472 -8.6665 6.9135 -0.0288818 0.0639456 0 -1 7.38228 -0.410649 2.15734 0.279968 -0.926246 -0.252362
-14.2193 0.148031 7.53344 -0.511603 0.179417 0 -0.138524 7.39677 -0.276036 4.40429 0.311068 -0.0897668 -0.946139
-13.842 -9.499 12.3448 0.385083 -0.2242 0.846334 -0.866667 7.43216 0.583064 0.104635 0.114291 0.198146 -0.973486
-20.8832 -8.26775 5.65475 -0.328951 0.0683232 -0.121059 -0.777778 7.4505 -0.165529 2.47496 0.241635 -0.944963 -0.220583
-15.5855 -6.97237 3.164 -0.206872 -0.160839 0 -0.288889 7.47921 -0.749771 3.24873 -0.133444 -0.768976 0.625195
-21.936 -7.92137 12.5278 0.265757 0.0716001 0 -1 7.48697 -0.340597 1.63409 0.511917 -0.808369 0.290657
-11.1451 -5.506 7.06925 0.081587 -0.173736 0 -0.100888 7.51425 -0.259259 4.96875 -0.383129 -0.923164 -0.031305
-20.324 -6.3865 14.3372 0.221022 0.0355451 0 1 7.51579 -0.999791 0.979477 0.499942 -0.811387 -0.302835
-18.504 -7.66988 3.92006 -0.246476 0.0853646 0 -0.773431 7.52594 0.0743183 2.79831 0.180183 -0.982802 0.0404267
-11.3306 -3.17412 7.44688 0.137136 0.257026 0.103752 -0.0888889 7.63739 -0.73938 4.66854 0.104171 0.534159 -0.838941
-13.456 -6.9735 4.6405 0.0106169 -0.181125 0 -0.288889 7.66239 0.669452 3.72821 -0.0476966 -0.673293 0.737836
-14.219 -7.33175 3.72213 -0.132711 -0.171387 0 -0.288889 7.68182 0.291035 3.24873 -0.304906 -0.795956 0.522959
-11.422 -3.9135 6.5525 0.0452527 -0.296436 0.661268 -0.122222 7.70795 -0.403491 4.66854 -0.16872 0.857403 -0.486204
-10.4118 -6.27056 9.62613 0.105906 -0.0744691 0 -0.0888889 7.71568 0.377422 5.52012 0.23397 -0.959916 -0.154338
-15.898 -2.83406 3.49378 -0.792447 0.261588 -0.103414 -0.288889 7.72684 0.277896 4.0303 0.353092 0.894191 0.275223
-17.0825 -7.7875 15.585 0.30018 -0.254987 0 -0.191002 7.79192 -0.858649 0.394686 -0.834138 -0.0571497 -0.548587
-12.2655 -0.875687 7.56431 -0.164446 0.200991 0 -0.0888889 7.79318 0.0883847 4.51482 0.187454 0.110914 -0.975991
-11.4115 -2.094 7.95725 0.110277 0.207555 0.411331 -0.0888889 7.79676 -0.791854 4.51482 0.229925 0.169724 -0.958294
-15.6175 0.50825 6.33125 -1 0.0851321 -0.769978 -0.777778 7.80278 0.0336001 4.22332 0.485357 -0.573782 -0.659699
-16.6373 -7.33638 3.0085 -0.150963 -0.143924 0 -0.155556 7.8344 -0.415263 3.24873 0.229484 -0.609191 0.759094
-18.7805 -6.90188 15.6709 0.205645 -0.10552 0 1 7.86916 -0.444014 0.600173 0.146899 -0.741063 -0.655169
-13.884 -3.6015 3.3775 -0.36105 0.239911 0 -0.288889 7.89762 0.520409 3.89972 0.416628 0.904626 0.0898459
-17.1415 0.1245 5.6115 -0.48849 0.0950004 0 0.933333 7.96051 -0.733885 4.22332 0.626886 -0.39203 -0.673295
-16.9587 -9.418 13.788 0.235878 -0.299298 0 -0.866667 8.0553 0.382773 0.104635 -0.698075 0.434666 -0.568996
-12.6186 -4.56244 4.20325 -0.116365 -0.252856 0 -0.288889 8.09374 -0.571016 3.89972 0.34752 0.929517 0.123401
-10.3611 -5.92944 7.93031 0.0380817 -0.0947612 0 -0.0888889 8.13475 0.163354 4.96875 0.078183 -0.982644 -0.168221
-21.5989 -7.74388 13.9134 0.105045 -0.0130158 -0.0787328 -0.922018 8.14025 -0.280303 1.33491 0.659801 -0.707421 -0.253412
-19.9748 -7.73325 4.382 -0.56974 0.0974892 -0.194228 -0.777778 8.15181 -0.325348 2.47496 0.0252994 -0.972989 -0.22946
-14.8431 -3.23612 3.4615 -0.496063 0.254362 -0.0170664 -0.288889 8.35962 0.283203 3.89972 0.386307 0.900109 0.20142
-9.68125 -7.01875 11.9342 0.185112 -0.152195 0 -0.777778 8.41889 -0.71361 5.86472 -0.393483 -0.648419 -0.651709
-18.442 -0.656 4.2455 -0.38601 0.0799125 0 0.933333 8.47838 -0.0778946 4.0303 0.772343 -0.329059 -0.543329
-12.1716 -9.38762 13.3766 0.192425 -0.176107 -0.0349964 -0.858767 8.49585 -0.999812 0.104635 0.174566 0.148977 -0.97331
-9.37288 -6.32125 10.879 -0.241774 -0.107155 0 -0.777778 8.50735 -0.0339969 5.86472 0.00891663 -0.765131 -0.643813
-20.6695 -7.0855 15.0363 0.123762 -0.0659083 -0.585066 -0.0157454 8.56303 -0.757273 0.979477 0.67072 -0.488536 -0.558093
-18.629 -2.28538 3.693 -0.43054 0.214431 -0.96614 -0.355556 8.57208 -0.264988 4.0303 0.563599 0.698339 -0.441224
-18.2237 -2.7 2.79775 -0.316864 0.236221 0 -0.557998 8.57943 -0.581088 4.0303 0.256086 0.963062 -0.083256
-22.8943 -9.02575 11.4333 0.362197 0.0925422 0 -1 8.61053 0.631109 1.63409 0.150304 -0.942415 0.298769
-11.6453 -4.60388 4.67525 -0.111387 -0.275901 -0.441202 -0.155556 8.61485 -0.624341 3.72821 -0.344569 0.936217 -0.0690706
-14.2961 1.2665 6.91937 -0.935613 0.0620375 -0.103115 -0.777778 8.67504 -0.0801709 4.40429 0.772764 -0.433906 -0.463208
-17.4824 -9.63325 15.3156 0.240497 -0.253399 0 -0.866667 8.71901 -0.876771 0.394686 -0.740196 0.487666 -0.462917
-11.1761 -5.69637 5.8395 0.153615 -0.182499 -0.385073 -0.155556 8.75904 -0.384973 4.96875 -0.38488 -0.784112 0.486863
-22.7266 -9.01175 6.79588 -0.199122 0.0964237 0 -1 8.80909 0.256502 2.15734 -0.0582471 -0.99656 -0.0589609
-10.554 -3.77 5.878 0.219659 -0.266903 0.591795 -0.155556 8.81654 0.0822923 4.66854 -0.292152 0.949918 -0.110922
-14.5136 -10.6986 12.1084 0.0093171 -0.247482 -0.611101 -0.794638 8.82714 0.104646 0.104635 -0.118791 0.560971 -0.819268
-17.8437 -7.97316 16.2629 0.254598 -0.189469 0 0.717809 8.82799 -0.731524 0.600173 -0.424628 -0.21275 -0.880016
-12.2754 -6.3125 4.96178 0.037571 -0.17456 -0.160366 -0.263116 8.84399 0.0607669 3.72821 -0.0471689 -0.667561 0.743059
-15.3629 -10.7626 12.8304 0.136983 -0.263491 -0.394883 -0.790553 8.85782 -0.999862 0.104635 -0.332311 0.671036 -0.662782
-10.1385 -3.37 7.203 0.128498 -0.249999 0.766552 -0.123149 8.86985 -0.614324 4.66854 -0.168293 0.772069 -0.612851
-9.86438 -5.89712 6.79975 0.11479 -0.142197 0 -0.155556 8.88021 -0.210574 4.96875 -0.219346 -0.885478 0.409654
-16.4155 0.842 5.672 -0.826827 0.0779309 -0.272971 -0.613053 8.89035 -0.583469 4.22332 0.421635 -0.634287 -0.648
-18.2409 -8.0865 2.63013 -0.181489 -0.138867 0 -0.155556 8.90678 -0.122252 2.79831 -0.178788 -0.814894 0.551346
-14.7745 1.172 6.015 -0.90079 0.0456677 -0.772533 -0.777778 8.92136 0.598509 4.22332 0.5622 -0.672952 -0.480693
-14.4952 -7.95725 2.686 -0.103135 -0.156812 0 -0.25878 8.92323 -0.38172 3.24873 -0.120823 -0.588424 0.799474
-22.384 -8.9035 5.78675 0.110245 0.0525642 0.189878 -0.931638 8.93169 0.265778 2.15734 0.320707 -0.94714 -0.00852864
-23.27 -9.02525 9.075 0.108075 0.0956252 0 -1 8.94565 0.324712 1.96903 -0.0507863 -0.993967 -0.0972104
-22.078 -8.56275 4.7525 0.00291981 0.0127886 0.351184 -0.808636 8.97649 -0.266633 2.47496 0.570463 -0.803747 -0.169007
-19.2633 -7.63963 2.67156 -0.203143 0.128499 0 -0.777778 8.98752 -0.401501 2.79831 -0.292112 -0.938389 0.184654
-12.9963 -10.7945 12.6664 -0.0510023 -0.18402 0.0462799 -0.793793 9.01233 -0.562432 0.104635 0.319079 0.427744 -0.845709
-17.1569 -8.38313 2.722 -0.173604 -0.179579 0 -0.155556 9.03763 0.238235 3.24873 -0.185857 -0.384039 0.904418
-10.6558 -8.67522 13.3047 -0.123091 -0.159365 0 -0.710011 9.03806 -0.612036 5.86472 -0.176408 -0.207952 -0.9621
-23.2985 -8.6565 12.6355 0.145161 0.10423 0 -1 9.03888 0.171649 1.63409 -0.149108 -0.988821 -0.000164651
-16.8458 -10.3915 13.2823 0.230086 -0.267923 0 -0.901769 9.04373 -0.277064 0.104635 -0.0914488 0.806767 -0.58375
-23.4648 -9.215 10.282 0.315044 0.100939 0 -1 9.04841 0.839958 1.63409 -0.116334 -0.992464 -0.0384874
-10.1895 -1.7585 7.98 0.158135 0.195475 0.777804 -0.092332 9.06418 -0.430465 4.51482 -0.0498677 0.218223 -0.974624
-23.3092 -8.954 7.83125 0.126326 0.11881 0 -1 9.08939 0.406413 2.15734 -0.269986 -0.961625 -0.0488332
-12.7895 0.915125 8.0455 -0.514913 0.184036 -0.189244 -0.101661 9.09823 -0.999852 4.40429 -0.111429 -0.0630831 -0.991768
-9.599 -7.886 12.478 0.0152166 -0.157017 0 -0.777778 9.11027 -0.714466 5.86472 -0.444608 -0.470896 -0.761958
-11.0495 -1.1615 8.012 0.0769557 0.159653 0.970118 -0.155402 9.12012 -0.608119 4.51482 0.0236771 -0.296033 -0.954884
-15.8403 -8.4775 2.45913 -0.184729 -0.168709 -0.0665696 -0.155556 9.16063 -0.532228 3.24873 0.0810591 -0.22859 0.970142
-11.309 0.07625 7.26963 -0.344533 -0.169686 -0.627789 -0.146431 9.17445 -0.0390163 4.51482 -0.445222 -0.429142 -0.785884
-22.3465 -8.49375 14.0885 -0.068124 -0.0699875 0 -0.177778 9.2135 -0.569041 1.33491 0.588423 -0.468957 -0.658663
-16.4995 -2.19513 1.8975 -0.497587 0.227221 -0.213413 -0.288889 9.26767 0.126766 4.0303 -0.0725445 0.834708 0.545894
-20.0229 -7.55125 15.8363 0.178879 -0.0891672 -0.317033 0.147612 9.28076 -0.207275 0.600173 0.562908 -0.387783 -0.729903
-18.1395 -2.62175 1.78925 -0.626913 0.217128 0 -0.777778 9.35677 -0.99981 4.0303 0.1538 0.952266 0.263693
-21.2822 -7.69037 3.86944 -0.210869 0.0293173 0 -0.777778 9.36881 -0.746784 2.47496 0.462464 -0.873277 -0.153346
-14.464 -3.4355 2.01225 -0.463573 0.205036 0 -0.288889 9.39023 -0.785165 3.89972 0.443976 0.89279 0.0762327
-21.2502 -8.50362 14.8431 -0.296657 -0.10567 -0.838733 -0.177778 9.3905 -0.200459 1.33491 0.671974 -0.133546 -0.728434
-13.5849 2.12063 7.54625 -0.608083 0.0912931 -0.82019 -0.267396 9.46892 -0.418004 4.40429 0.587813 -0.31231 -0.746283
-12.9971 -3.869 2.07931 -0.316411 -0.214705 0 -0.288889 9.49244 -0.371696 3.89972 0.0785487 0.850069 0.520781
-19.545 -7.992 16.6395 0.294261 -0.113164 -0.347605 0.404067 9.51568 -0.999927 0.600173 0.269309 -0.335886 -0.902581
-15.4955 -2.53737 1.771 -0.526947 -0.188686 -0.0972404 -0.699224 9.52072 -0.0614897 4.0303 0.535996 0.683841 0.495046
-8.99281 -5.18831 9.17241 0.00358713 -0.00962446 0 -0.0888889 9.55705 -0.347794 4.96875 0.596314 -0.785419 -0.165914
-12.5632 -8.0855 3.22875 0.0449793 -0.128873 0 -0.288889 9.56683 0.492839 3.72821 -0.084792 -0.792755 0.603614
-11.9806 -4.509 2.84575 -0.113418 -0.229745 0.182902 -0.288889 9.59464 -0.951426 3.89972 -0.102244 0.924185 0.368005
-8.394 -5.65562 10.7829 -0.297909 -0.086337 0 -0.563909 9.695 -0.183207 5.86472 0.495724 -0.389932 -0.776022
-8.79925 -7.947 11.7245 -0.0488977 -0.157888 0 -0.777778 9.7164 0.277138 5.86472 -0.539989 -0.402606 -0.739134
-19.5327 -2.13875 2.987 -0.269776 0.177168 -0.111249 -0.666909 9.7282 -0.999894 4.0303 0.74422 0.641047 -0.187604
-14.119 2.291 6.5045 -0.609667 0.0662042 -0.00537169 -0.777778 9.79445 -0.303705 4.40429 0.893511 -0.284554 -0.347371
-19.5257 -0.95775 3.54225 -0.437133 0.100676 -0.211042 0.118813 9.80504 -0.999873 4.0303 0.763865 -0.112709 -0.635458
-8.771 -5.32425 8.028 -0.0419467 -0.0799549 0 -0.155556 9.83893 -0.086949 4.96875 0.343575 -0.856788 0.384539
-11.6713 -7.65574 3.5117 0.0416587 -0.124868 0 -0.288889 9.88157 0.216586 3.72821 0.0991495 -0.684262 0.722465
-18.3009 -10.4878 14.4353 0.217073 -0.255083 0 -1 9.88969 -0.36447 0.104635 -0.351694 0.898683 -0.262068
-9.5725 -3.5915 5.43 0.176758 -0.238263 0.0105221 -0.155556 9.91012 -0.63216 4.66854 -0.464457 0.867772 0.17678
-18.4521 -10.3144 15.4754 0.193447 -0.229491 0 -0.944124 9.91476 -0.902786 0.394686 -0.275903 0.864479 -0.420183
-7.97237 -6.88225 11.0336 -0.167191 -0.136236 0 -0.777778 10.0239 0.191328 5.86472 -0.00398552 -0.120202 -0.992741
-10.6545 -6.58 5.099 -0.231375 -0.154215 -0.785561 -0.155556 10.0244 0.0986189 4.96875 -0.376602 -0.822101 0.426991
-13.6023 -8.52875 2.33363 0.0297721 -0.126625 0 -0.288889 10.0404 -0.301481 3.24873 0.035108 -0.659049 0.75128
-15.234 -11.3053 11.3237 -0.52401 -0.268066 -0.342352 -0.777778 10.053 0.190645 0.104635 -0.100538 0.894178 -0.436278
-9.55925 -1.01425 7.739 0.266503 -0.138679 0.164587 -0.155556 10.0688 -0.669957 4.51482 -0.23093 -0.474048 -0.849676
-24.2651 -8.96638 10.8674 0.19289 0.154547 0 -1 10.0707 0.768214 1.63409 -0.64891 -0.734414 0.198877
-9.14775 -3.45275 6.4815 0.0884263 -0.235304 0 -0.155556 10.0983 -0.999868 4.66854 -0.424299 0.87769 -0.222778
-16.7445 1.74738 4.26594 -0.710977 0.0389298 -0.0199222 0.835424 10.1057 -0.647466 4.22332 0.543931 -0.690168 -0.477291
-15.6895 1.9815 4.54825 -1 0.0558021 -0.76715 -0.777778 10.1168 0.281535 4.22332 0.36679 -0.748484 -0.552482
-24.3194 -8.68213 9.49525 0.312904 0.156141 0 -1 10.127 0.446673 1.96903 -0.684471 -0.726125 -0.0651303
-8.998 -8.733 12.5118 -0.0739477 -0.158271 0 -0.777778 10.1494 -0.787732 5.86472 -0.600919 -0.349797 -0.718706
-9.00331 -2.76681 7.38263 0.089845 -0.220342 0.0102143 -0.0910796 10.1678 -0.999848 4.66854 -0.523093 0.557668 -0.6445
-20.5355 -7.3585 2.45875 -0.197638 0.0773797 0 -0.777778 10.1899 -0.725604 2.47496 0.0744875 -0.996569 0.0360829
-19.0576 -8.329 1.66288 -0.200937 -0.151498 0 -0.155556 10.1957 -0.464996 2.79831 -0.427405 -0.602682 0.673869
-11.1847 -6.68075 4.23925 -0.0631667 -0.128087 -0.288505 -0.246484 10.2031 -0.683221 3.72821 -0.0615404 -0.835508 0.546021
-8.68256 -6.43162 6.51638 -0.0343693 -0.127402 0 -0.155556 10.2079 0.146625 4.96875 -0.0584446 -0.72846 0.682591
-10.6073 -10.0638 12.9993 -0.544387 -0.165433 -0.00833951 -0.777778 10.2413 0.238591 5.86472 -0.00148864 0.236394 -0.971656
-23.6082 -9.08744 5.33644 0.150248 0.119481 0 -0.777778 10.249 0.298718 2.15734 -0.315602 -0.883558 0.346006
3 152 73 142
3 142 73 80
3 88 129 141
3 129 199 141
3 115 194 144
3 187 191 150
3 142 150 191
3 124 93 148
3 49 45 17
3 45 88 91
3 91 88 141
3 25 45 46
3 107 96 138
3 107 138 146
3 96 115 144
3 146 138 195
3 53 114 93
3 53 61 95
3 24 61 26
3 53 26 61
3 41 53 93
3 80 73 41
3 41 47 23
3 7 8 17
3 23 17 8
3 1 8 7
3 1 7 5
3 12 7 25
3 28 12 25
3 51 29 56
3 29 28 44
3 29 44 56
3 28 46 44
3 56 44 92
3 146 156 107
3 92 99 56
3 82 98 133
3 98 99 170
3 160 164 121
3 108 95 54
3 54 20 34
3 13 20 24
3 24 26 13
3 24 20 39
3 20 13 3
3 1 3 13
3 18 20 3
3 15 4 19
3 5 14 6
3 51 56 82
3 128 133 183
3 196 183 133
3 98 178 133
3 98 170 178
3 149 111 78
3 55 48 78
3 78 62 55
3 3 21 18
3 18 21 60
3 60 21 43
3 19 30 15
3 19 38 30
3 94 113 50
3 78 90 131
3 90 85 119
3 85 48 60
3 76 60 43
3 43 42 76
3 42 43 21
3 52 42 33
3 21 33 42
3 42 52 72
3 173 120 182
3 101 52 64
3 113 169 101
3 177 113 136
3 198 119 147
3 154 76 117
3 172 120 169
3 172 182 120
3 169 120 101
3 109 112 166
3 106 126 89
3 66 89 104
3 67 65 97
3 155 186 151
3 125 100 130
3 97 100 67
3 79 35 70
3 79 116 102
3 116 109 163
3 168 102 116
3 102 159 84
3 58 79 102
3 31 58 63
3 31 57 37
3 103 86 127
3 91 143 162
3 91 162 115
3 138 144 195
3 23 47 17
3 17 47 49
3 45 25 17
3 77 46 96
3 77 96 107
3 138 96 144
3 107 156 92
3 92 140 99
3 140 92 156
3 114 164 158
3 93 114 148
3 148 114 158
3 160 121 95
3 95 121 114
3 95 114 53
3 114 121 164
3 61 54 95
3 39 54 61
3 39 61 24
3 41 26 53
3 23 26 41
3 11 5 12
3 11 12 28
3 12 5 7
3 14 11 29
3 14 29 27
3 27 29 51
3 28 29 11
3 92 68 107
3 77 107 68
3 77 68 44
3 77 44 46
3 44 68 92
3 140 184 170
3 140 170 99
3 111 149 179
3 111 179 127
3 111 127 86
3 179 181 127
3 132 167 108
3 108 167 160
3 95 108 160
3 34 62 71
3 54 34 71
3 54 71 108
3 108 71 132
3 132 71 103
3 103 71 62
3 103 62 86
3 55 62 32
3 18 32 20
3 34 20 32
3 34 32 62
3 0 3 1
3 4 9 3
3 9 4 15
3 4 3 0
3 10 19 4
3 10 4 2
3 10 2 6
3 6 2 0
3 6 0 5
3 0 2 4
3 1 5 0
3 22 10 16
3 6 16 10
3 51 35 27
3 27 35 16
3 27 16 14
3 14 16 6
3 19 10 22
3 19 22 38
3 59 35 51
3 75 50 38
3 75 59 51
3 133 75 82
3 82 75 51
3 128 75 133
3 48 55 32
3 48 32 18
3 60 48 18
3 15 33 21
3 15 21 9
3 9 21 3
3 30 33 15
3 94 75 128
3 75 94 50
3 113 94 136
3 136 94 128
3 136 128 183
3 134 149 78
3 131 185 134
3 131 134 78
3 145 131 90
3 119 145 90
3 76 147 85
3 85 147 119
3 85 60 76
3 42 72 76
3 117 120 173
3 120 72 101
3 72 120 117
3 72 117 76
3 169 113 177
3 76 154 147
3 154 117 173
3 154 173 192
3 147 154 192
3 137 110 189
3 137 189 106
3 106 189 190
3 126 175 165
3 165 153 89
3 89 153 104
3 104 153 157
3 165 89 126
3 155 104 157
3 125 171 112
3 112 171 166
3 163 109 166
3 63 87 81
3 81 87 118
3 58 84 87
3 58 87 63
3 122 118 87
3 122 87 84
3 63 81 110
3 110 81 118
3 57 63 110
3 106 57 110
3 106 110 137
3 37 69 40
3 40 69 89
3 89 69 106
3 106 69 37
3 106 37 57
3 75 35 59
3 67 38 36
3 67 36 65
3 65 105 97
3 97 105 151
3 105 65 104
3 155 151 104
3 104 151 105
3 130 100 135
3 135 100 97
3 135 97 151
3 180 130 188
3 193 188 135
3 193 135 151
3 135 188 130
3 67 75 38
3 75 67 100
3 75 100 125
3 125 112 75
3 75 112 70
3 35 75 70
3 159 102 168
3 161 84 159
3 122 176 118
3 122 84 123
3 174 176 122
3 161 174 122
3 161 122 123
3 84 161 123
3 58 35 79
3 58 31 35
3 16 37 22
3 22 37 40
3 31 37 16
3 31 16 35
3 22 40 36
3 22 36 38
3 127 132 103
3 129 88 83
3 129 83 152
3 152 83 73
3 148 187 124
3 124 187 150
3 152 142 191
3 80 150 142
3 150 80 124
3 124 80 93
3 49 47 83
3 49 83 88
3 73 83 47
3 49 88 45
3 91 141 143
3 91 115 74
3 45 91 74
3 115 96 74
3 45 74 46
3 74 96 46
3 93 80 41
3 41 73 47
3 17 25 7
3 46 28 25
3 56 99 98
3 56 98 82
3 39 20 54
3 1 13 8
3 23 8 26
3 26 8 13
3 5 11 14
3 111 86 62
3 111 62 78
3 78 48 90
3 85 90 48
3 30 50 64
3 30 64 33
3 33 64 52
3 52 101 72
3 30 38 50
3 50 113 64
3 101 64 113
3 189 110 118
3 106 139 126
3 65 66 104
3 36 66 65
3 112 109 70
3 79 70 116
3 116 70 109
3 163 168 116
3 58 102 84
3 63 57 31
3 36 40 66
3 66 40 89
3 196 133 178
