ply
format ascii 1.0
comment Generated by PyMesh
element vertex 193
property float x
property float y
property float z
property float nx
property float ny
property float nz
element face 329
property list uchar int vertex_indices
end_header
-17.4824 -9.63325 15.3156 -0.740196 0.487666 -0.462917
-18.4521 -10.3144 15.4754 -0.275903 0.864479 -0.420183
-16.891 -8.604 14.5685 -0.911108 0.276913 -0.30529
-18.3009 -10.4878 14.4353 -0.351694 0.898683 -0.262068
-16.9587 -9.418 13.788 -0.698075 0.434666 -0.568996
-18.8542 -9.37125 16.6077 -0.0286449 0.379911 -0.924579
-17.0825 -7.7875 15.585 -0.834138 -0.0571497 -0.548587
-17.8437 -7.97316 16.2629 -0.424628 -0.21275 -0.880016
-19.324 -10.4045 14.811 0.125617 0.949726 -0.286775
-19.343 -10.0887 16.0842 0.269278 0.796883 -0.540802
-16.4895 -7.686 14.14 -0.666855 -0.076441 -0.741257
-16.8458 -10.3915 13.2823 -0.0914488 0.806767 -0.58375
-19.2892 -10.6217 13.267 -0.334676 0.910521 -0.242781
-20.1265 -9.2905 16.176 0.611254 0.245662 -0.752342
-15.4358 -9.10581 13.2952 -0.419749 0.28432 -0.861959
-19.545 -7.992 16.6395 0.269309 -0.335886 -0.902581
-18.7805 -6.90188 15.6709 0.146899 -0.741063 -0.655169
-20.4439 -10.5723 14.3776 -0.1757 0.687899 -0.704219
-15.4591 -7.77588 13.7755 -0.501152 0.0173468 -0.865186
-17.911 -6.2715 15.196 -0.413333 -0.739608 -0.531165
-20.4977 -9.66825 15.1231 0.461489 0.593141 -0.659705
-15.8385 -6.69825 13.663 -0.370887 -0.574621 -0.729557
-17.0045 -6.579 13.7055 -0.372483 -0.798344 -0.473185
-18.04 -10.3495 12.4425 -0.0188837 0.93446 -0.355567
-20.0229 -7.55125 15.8363 0.562908 -0.387783 -0.729903
-17.2897 -10.9758 11.8864 0.307248 0.871201 -0.382894
-15.3629 -10.7626 12.8304 -0.332311 0.671036 -0.662782
-20.5223 -11.3789 13.7464 -0.520897 0.660354 -0.540924
-16.3521 -11.4514 11.8585 0.0602094 0.903033 -0.42533
-14.5334 -8.09988 12.9789 -0.416646 -0.127902 -0.900026
-18.9442 -11.0352 11.6637 -0.371316 0.846535 -0.381449
-20.0719 -11.826 12.3647 -0.660231 0.616466 -0.429027
-21.5238 -10.0594 14.7436 0.230592 0.180458 -0.95617
-18.6523 -6.01937 14.132 0.0278223 -0.975824 -0.216778
-15.3011 -6.19775 12.604 -0.272386 -0.641142 -0.717456
-16.9878 -6.00616 12.5084 0.0390774 -0.970228 -0.23902
-21.2502 -8.50362 14.8431 0.671974 -0.133546 -0.728434
-21.4137 -11.8073 13.9376 -0.545339 0.442209 -0.712079
-13.842 -9.499 12.3448 0.114291 0.198146 -0.973486
-20.6695 -7.0855 15.0363 0.67072 -0.488536 -0.558093
-14.5136 -10.6986 12.1084 -0.118791 0.560971 -0.819268
-20.324 -6.3865 14.3372 0.499942 -0.811387 -0.302835
-15.234 -11.3053 11.3237 -0.100538 0.894178 -0.436278
-13.3403 -7.75063 12.6695 -0.078355 -0.532924 -0.842527
-21.164 -12.614 12.603 -0.847744 0.221375 -0.481999
-18.8921 -11.6245 10.3421 -0.543557 0.608633 -0.578024
-17.642 -11.1625 10.057 0.0708431 0.739224 -0.669724
-16.3331 -11.9799 10.336 0.25465 0.623967 -0.738795
-17.401 -6.03675 11.4762 0.51537 -0.855702 0.0465509
-22.4034 -11.3806 14.4312 -0.279148 -0.00970253 -0.960199
-19.1028 -6.053 12.8455 0.136644 -0.958058 0.251901
-21.5989 -7.74388 13.9134 0.659801 -0.707421 -0.253412
-21.7095 -13.0495 13.7542 -0.650328 -0.14921 -0.744856
-20.6022 -13.328 11.6995 -0.936276 0.084451 -0.340963
-22.3465 -8.49375 14.0885 0.588423 -0.468957 -0.658663
-18.333 -6.3345 12.108 0.250826 -0.908366 0.3346
-12.9963 -10.7945 12.6664 0.319079 0.427744 -0.845709
-12.4315 -8.2485 13.1453 0.145432 -0.269293 -0.952014
-23.149 -9.1075 13.7925 -0.118113 -0.489313 -0.864073
-20.213 -6.25775 13.0215 0.370986 -0.88433 0.283425
-20.2196 -13.3044 10.6401 -0.761396 0.321536 -0.56293
-14.9095 -11.794 10.3015 0.13334 0.56375 -0.815111
-15.803 -4.925 11.1187 0.354256 -0.763653 -0.539757
-12.997 -6.8425 12.0225 -0.0988507 -0.649519 -0.753892
-12.1716 -9.38762 13.3766 0.174566 0.148977 -0.97331
-21.0245 -13.6438 12.84 -0.882519 -0.299105 -0.362899
-18.0872 -12.0767 9.72775 -0.144112 0.253934 -0.956425
-13.6006 -5.50238 11.3686 -0.430903 -0.636383 -0.639796
-17.0565 -12.6155 9.80875 0.274633 0.11672 -0.954439
-19.4224 -12.7526 9.99325 -0.537361 0.287897 -0.79269
-15.6134 -13.1465 10.1267 0.135047 0.00100278 -0.990839
-17.8043 -6.68175 10.2825 0.530315 -0.818463 0.221099
-13.0511 -12.0589 11.1349 0.334992 0.609531 -0.718507
-19.261 -6.84125 11.6965 0.368084 -0.864345 0.342669
-23.7349 -11.4009 14.8865 -0.20439 -0.0241314 -0.978592
-22.7603 -12.7945 14.5735 -0.444675 -0.157526 -0.881731
-21.936 -7.92137 12.5278 0.511917 -0.808369 0.290657
-23.42 -10.2725 14.429 -0.470196 -0.275288 -0.83853
-20.9441 -14.2774 14.1104 -0.656228 -0.535194 -0.531913
-11.4593 -7.06425 12.5245 -0.0430158 -0.6673 -0.743546
-23.98 -8.416 14.069 -0.801276 -0.42702 -0.419059
-20.79 -7.24388 12.0931 0.580424 -0.770568 0.263312
-20.7668 -14.7948 10.9923 -0.989371 -0.0093741 -0.14511
-20.2013 -14.7099 12.4825 -0.897953 -0.43703 0.0518187
-11.7086 -11.227 12.6416 0.155044 0.504703 -0.849256
-23.2985 -8.6565 12.6355 -0.149108 -0.988821 -0.000164651
-12.3375 -6.3815 11.3695 -0.259074 -0.89831 -0.354851
-24.1569 -9.28213 14.6067 -0.65629 -0.196043 -0.728595
-22.695 -13.8725 14.969 -0.371655 -0.333765 -0.866299
-17.1159 -5.79738 9.5235 0.853315 -0.519417 -0.0453887
-18.3202 -13.137 9.70988 -0.0848291 0.0187486 -0.996219
-17.3151 -13.7944 9.69925 0.128148 0.0611198 -0.98987
-19.252 -13.9431 9.88231 -0.230642 0.0821338 -0.969566
-13.9409 -12.787 10.2555 0.321426 0.100952 -0.941538
-23.8135 -12.9655 14.8745 -0.0165388 -0.164178 -0.986292
-15.2399 -4.01038 10.1786 0.0501641 -0.892009 -0.449225
-14.4446 -4.32575 10.8495 -0.216204 -0.790347 -0.573243
-10.6558 -8.67522 13.3047 -0.176408 -0.207952 -0.9621
-15.3027 -14.1698 10.387 0.210353 -0.150234 -0.966013
-16.623 -4.8675 9.69606 0.79169 -0.538524 -0.288476
-12.9268 -5.85825 10.0618 -0.698661 -0.694381 -0.17236
-19.9643 -14.9095 9.72375 -0.551402 0.0766464 -0.830711
-10.6073 -10.0638 12.9993 -0.00148864 0.236394 -0.971656
-24.8075 -12.0948 14.653 0.152374 0.243081 -0.957963
-17.4675 -6.8385 8.893 0.745376 -0.6652 0.0438689
-24.2743 -7.45813 13.5571 -0.927345 -0.362319 -0.0935721
-13.5747 -4.53587 9.77962 -0.68619 -0.688193 -0.235655
-11.7505 -12.7638 11.138 0.546991 0.154282 -0.822799
-24.6903 -10.3582 15.2692 -0.331744 0.0426787 -0.942404
-20.5179 -15.9096 11.1258 -0.938621 -0.344245 -0.0220189
-20.1612 -15.324 14.3276 -0.659343 -0.395084 -0.639669
-24.5421 -7.63413 14.8821 -0.897409 -0.127787 -0.422288
-11.244 -12.127 12.0522 0.665982 0.292855 -0.686079
-19.3347 -7.254 9.89163 0.48933 -0.816662 0.305973
-10.486 -11.3888 12.7402 0.450092 -0.105326 -0.886749
-25.0569 -9.07125 15.4163 -0.546323 0.134883 -0.826643
-21.8455 -15.0938 14.9732 -0.359799 -0.248848 -0.899233
-10.918 -6.34381 11.3474 -0.0343879 -0.954799 -0.295256
-16.2515 -14.8927 10.0135 0.41567 0.0408365 -0.908598
-22.8943 -9.02575 11.4333 0.150304 -0.942415 0.298769
-20.3315 -7.74131 10.5953 0.524645 -0.768145 0.367016
-18.6239 -7.34106 8.705 0.53879 -0.830792 0.139607
-13.0988 -13.906 10.6888 0.488421 -0.186139 -0.852524
-15.8931 -3.66613 9.317 0.474484 -0.829969 -0.293286
-17.0427 -5.50575 8.13175 0.914394 -0.404824 0.000975317
-12.061 -6.426 9.85625 -0.196044 -0.978588 -0.0627064
-24.362 -7.525 11.982 -0.886754 -0.400919 0.230069
-9.68125 -7.01875 11.9342 -0.393483 -0.648419 -0.651709
-19.8773 -15.9108 9.7025 -0.574519 -0.335193 -0.746708
-24.2787 -14.2273 15.3814 -0.187205 -0.581612 -0.791632
-13.9121 -14.6616 10.49 0.279298 -0.289262 -0.915598
-21.7401 -8.90375 10.7118 0.36967 -0.912761 0.173817
-19.3857 -16.0071 13.5597 -0.890953 -0.26768 -0.36681
-9.599 -7.886 12.478 -0.444608 -0.470896 -0.761958
-13.1315 -5.173 8.925 -0.755563 -0.598811 -0.265611
-24.2651 -8.96638 10.8674 -0.64891 -0.734414 0.198877
-11.4605 -13.5615 11.6944 0.788617 -0.285382 -0.544646
-19.3253 -16.6465 12.5305 -0.920531 -0.347953 0.177628
-24.4695 -6.49 14.027 -0.972331 -0.202944 -0.1157
-17.221 -15.7148 9.389 0.133318 0.00501467 -0.991061
-14.9088 -3.36075 8.43425 0.0743413 -0.974183 -0.213168
-8.998 -8.733 12.5118 -0.600919 -0.349797 -0.718706
-25.9482 -10.5319 15.2934 -0.0906333 0.436551 -0.895103
-11.9108 -6.32387 8.77262 -0.348543 -0.871239 -0.345631
-25.6367 -13.6027 14.3519 0.157091 -0.424198 -0.89184
-13.9991 -3.79312 8.62912 -0.539987 -0.798588 -0.265839
-14.7806 -15.9108 10.7155 0.538949 -0.461817 -0.704457
-17.37 -6.47 7.5005 0.832502 -0.537503 0.13428
-8.95475 -10.2674 13.0433 -0.123949 -0.443875 -0.887475
-22.1509 -16.184 15.2255 -0.4255 -0.171971 -0.888468
-26.1826 -11.346 14.5651 0.187801 0.455244 -0.870336
-10.7312 -12.692 13.1929 0.79296 -0.188557 -0.579363
-24.6031 -6.60281 12.3184 -0.963841 -0.218366 0.152733
-16.0777 -3.76875 8.203 0.711117 -0.702398 -0.0308115
-19.7464 -17.0767 10.7243 -0.631306 -0.724487 -0.276715
-20.6803 -16.614 14.708 -0.473438 -0.201414 -0.85749
-23.4648 -9.215 10.282 -0.116334 -0.992464 -0.0384874
-16.9635 -5.543 7.033 0.878562 -0.357826 0.316369
-25.071 -6.36575 15.7308 -0.961125 -0.0348825 -0.2739
-25.3223 -7.353 16.2712 -0.751181 0.277511 -0.598928
-18.377 -16.4015 9.718 -0.184434 -0.220216 -0.957856
-24.6623 -7.54462 10.8359 -0.941904 -0.298514 0.153971
-18.4643 -7.255 7.23925 0.51067 -0.841295 0.17731
-9.37288 -6.32125 10.879 0.00891663 -0.765131 -0.643813
-8.79925 -7.947 11.7245 -0.539989 -0.402606 -0.739134
-21.3273 -8.8025 9.55481 0.2227 -0.958482 0.178095
-20.1845 -8.6605 9.077 0.476436 -0.824735 0.304665
-10.4118 -6.27056 9.62613 0.23397 -0.959916 -0.154338
-16.0744 -16.6863 9.843 0.565207 -0.335631 -0.753587
-23.6983 -15.4121 15.7929 -0.505832 -0.346783 -0.789858
-9.33337 -12.2767 14.1205 0.303109 -0.244857 -0.920962
-11.0767 -13.8383 12.7755 0.819549 -0.0684307 -0.568909
-19.0355 -17.5035 11.8131 -0.792987 -0.558629 -0.243117
-16.4112 -4.2905 7.04475 0.838796 -0.44615 0.312044
-12.4902 -5.07987 7.84025 -0.52891 -0.777561 -0.340077
-24.6496 -5.57312 13.2814 -0.915522 -0.399765 -0.0448003
-26.873 -9.08488 16.3076 -0.542181 0.464401 -0.700266
-8.79275 -11.3438 13.9897 0.194507 -0.423554 -0.884742
-12.2097 -14.7964 12.0905 0.467392 -0.461372 -0.754109
-24.3194 -8.68213 9.49525 -0.684471 -0.726125 -0.0651303
-14.8453 -3.09875 7.2685 0.063646 -0.38891 -0.919075
-24.994 -5.30963 14.6462 -0.963333 -0.239604 -0.120742
-25.1311 -14.8569 16.837 -0.561717 -0.619481 -0.548377
-22.8726 -16.7812 15.842 -0.536079 -0.44307 -0.718546
-20.1338 -8.74375 7.88375 0.446913 -0.885445 -0.127498
-19.3284 -7.98259 6.64594 0.400781 -0.916003 0.0177111
-18.6355 -17.4405 10.5407 -0.403905 -0.746356 -0.528973
-10.1165 -13.3935 14.048 0.385576 0.0616912 -0.920611
-27.443 -11.1007 14.2665 -0.248144 0.492462 -0.83421
-8.01056 -9.44756 11.6484 -0.471068 -0.490435 -0.73319
-19.5499 -17.8784 14.2705 -0.904105 -0.189099 -0.383192
-26.8141 -14.1469 15.035 -0.226286 -0.79144 -0.567819
-23.27 -9.02525 9.075 -0.0507863 -0.993967 -0.0972104
3 111 181 138
3 105 138 152
3 192 165 131
3 80 87 111
3 85 80 105
3 111 105 80
3 126 152 161
3 135 179 156
3 192 156 179
3 119 76 85
3 184 185 121
3 144 150 103
3 108 87 77
3 108 77 74
3 58 49 77
3 74 77 49
3 81 51 76
3 81 59 41
3 55 59 73
3 81 73 59
3 120 81 76
3 131 165 120
3 120 166 113
3 104 71 121
3 113 121 71
3 89 71 104
3 89 104 124
3 147 104 162
3 129 116 169
3 94 144 103
3 74 49 94
3 75 94 49
3 75 52 88
3 52 49 37
3 52 37 65
3 65 37 44
3 44 37 31
3 27 17 12
3 17 8 12
3 12 8 3
3 8 17 20
3 13 36 24
3 24 36 39
3 16 41 33
3 33 35 22
3 48 35 55
3 55 73 48
3 55 35 50
3 35 48 62
3 89 62 48
3 34 35 62
3 106 95 145
3 124 173 153
3 116 149 169
3 183 169 149
3 78 116 88
3 52 65 78
3 83 65 53
3 53 82 83
3 82 53 60
3 31 60 53
3 30 23 25
3 11 4 14
3 23 12 11
3 18 29 14
3 14 10 18
3 62 67 34
3 34 67 43
3 43 67 63
3 145 134 106
3 149 116 155
3 110 116 78
3 82 101 109
3 69 92 60
3 45 31 30
3 92 90 91
3 91 90 68
3 47 91 68
3 70 47 61
3 61 47 42
3 25 28 47
3 28 42 47
3 14 38 40
3 42 40 72
3 38 57 64
3 57 29 43
3 79 43 63
3 63 86 79
3 86 63 67
3 125 86 100
3 67 100 86
3 86 125 117
3 167 125 143
3 160 101 92
3 118 70 98
3 70 93 130
3 84 114 112
3 114 170 151
3 114 151 112
3 112 151 136
3 102 148 114
3 102 64 97
3 133 79 127
3 172 190 137
3 172 137 154
3 154 137 109
3 186 154 160
3 168 139 118
3 136 122 107
3 107 122 72
3 178 136 171
3 130 178 146
3 6 2 0
3 31 37 27
3 115 159 111
3 111 159 158
3 105 111 138
3 152 138 175
3 175 138 181
3 142 176 115
3 142 115 108
3 108 115 87
3 87 80 58
3 85 58 80
3 77 87 58
3 54 58 85
3 113 166 121
3 121 166 184
3 185 162 121
3 74 103 108
3 108 103 142
3 142 103 150
3 94 103 74
3 37 17 27
3 17 37 32
3 32 37 49
3 32 49 58
3 32 58 54
3 20 17 32
3 20 32 36
3 36 32 54
3 51 36 54
3 76 51 85
3 85 51 54
3 24 39 41
3 41 39 51
3 41 51 81
3 51 39 36
3 59 33 41
3 50 33 59
3 50 59 55
3 120 73 81
3 113 73 120
3 157 124 147
3 147 124 104
3 88 116 129
3 88 129 94
3 88 94 75
3 94 129 144
3 30 31 12
3 12 31 27
3 11 12 3
3 4 11 3
3 4 3 0
3 4 0 2
3 1 3 8
3 3 1 0
3 13 9 20
3 9 13 5
3 20 9 8
3 8 9 1
3 1 9 5
3 1 5 0
3 15 7 5
3 7 15 16
3 16 15 24
3 13 24 5
3 5 7 0
3 5 24 15
3 41 16 24
3 22 10 19
3 33 22 19
3 33 19 16
3 16 19 7
3 7 19 6
3 6 19 10
3 6 10 2
3 18 10 21
3 34 21 35
3 22 35 21
3 22 21 10
3 99 62 89
3 95 96 62
3 96 95 106
3 95 62 99
3 140 145 95
3 140 95 123
3 140 123 153
3 153 123 99
3 153 99 124
3 99 123 95
3 89 124 99
3 145 140 180
3 182 129 169
3 65 83 78
3 11 25 23
3 29 18 21
3 29 21 34
3 43 29 34
3 106 100 67
3 106 67 96
3 96 67 62
3 134 100 106
3 110 155 116
3 110 78 83
3 82 109 83
3 92 69 90
3 91 47 70
3 26 42 28
3 26 11 14
3 11 26 28
3 11 28 25
3 40 42 26
3 40 26 14
3 56 72 40
3 56 40 38
3 84 56 64
3 64 56 38
3 79 97 57
3 57 97 64
3 57 43 79
3 86 117 79
3 127 163 164
3 163 117 167
3 117 163 127
3 117 127 79
3 132 137 190
3 110 132 155
3 155 132 190
3 83 109 137
3 83 137 132
3 83 132 110
3 98 70 130
3 171 136 151
3 151 170 187
3 177 170 114
3 114 148 177
3 141 189 148
3 97 141 148
3 97 148 102
3 79 133 97
3 133 127 164
3 186 172 154
3 98 130 146
3 98 146 118
3 178 130 122
3 136 178 122
3 133 164 141
3 189 141 164
3 97 133 141
3 0 7 6
3 158 181 111
3 159 115 176
3 87 115 111
3 85 105 126
3 126 105 152
3 85 126 135
3 161 135 126
3 161 179 135
3 85 135 119
3 119 135 156
3 131 156 192
3 156 131 119
3 119 131 76
3 76 131 120
3 120 165 166
3 121 162 104
3 52 75 49
3 20 36 13
3 50 35 33
3 89 48 71
3 113 71 73
3 73 71 48
3 124 157 173
3 78 88 52
3 65 44 53
3 31 53 44
3 12 23 30
3 4 2 10
3 4 10 14
3 60 92 101
3 82 60 101
3 31 45 69
3 31 69 60
3 66 68 90
3 66 90 69
3 66 69 45
3 25 47 46
3 25 46 30
3 30 46 45
3 45 46 66
3 66 46 68
3 47 68 46
3 14 29 38
3 57 38 29
3 134 174 143
3 134 143 100
3 100 143 125
3 125 167 117
3 101 128 109
3 128 101 160
3 91 118 139
3 91 139 160
3 91 160 92
3 91 70 118
3 61 93 70
3 93 61 72
3 61 42 72
3 56 84 72
3 64 102 84
3 84 102 114
3 154 109 128
3 160 154 128
3 168 118 146
3 72 122 93
3 93 122 130
3 136 107 112
3 107 72 112
3 112 72 84
