ply
format ascii 1.0
comment Generated by PyMesh
element vertex 200
property float x
property float y
property float z
property float charge
property float ddc
property float hbond
property float hphob
property float rho
property float si
property float theta
property float nx
property float ny
property float nz
element face 338
property list uchar int vertex_indices
end_header
-22.3465 -8.49375 14.0885 -0.068124 0 0 -0.177778 1e-08 -0.569041 2.22045e-16 0.588423 -0.468957 -0.658663
-23.149 -9.1075 13.7925 0.056889 0.118707 0 -0.177778 1.05276 0.219697 2.22045e-16 -0.118113 -0.489313 -0.864073
-21.5989 -7.74388 13.9134 0.105045 0 -0.0787328 -0.922018 1.07325 -0.280303 2.6906 0.659801 -0.707421 -0.253412
-21.2502 -8.50362 14.8431 -0.296657 0.600889 -0.838733 -0.177778 1.33094 -0.200459 3.65028 0.671974 -0.133546 -0.728434
-23.2985 -8.6565 12.6355 0.145161 -0.551956 0 -1 1.74471 0.171649 0.954621 -0.149108 -0.988821 -0.000164651
-21.5238 -10.0594 14.7436 0.0140825 -0.407417 0 -0.302471 1.88607 -0.347971 4.54116 0.230592 0.180458 -0.95617
-23.98 -8.416 14.069 0.0383617 0.554401 0 -0.177778 2.16864 -0.0189584 0.267861 -0.801276 -0.42702 -0.419059
-24.1569 -9.28213 14.6067 0.0760867 0.364447 0 -0.177778 2.36016 0.0777232 6.14694 -0.65629 -0.196043 -0.728595
-23.42 -10.2725 14.429 0.0938083 0.253769 0 -0.177778 2.40768 0.153012 5.77235 -0.470196 -0.275288 -0.83853
-21.936 -7.92137 12.5278 0.265757 0 0 -1 2.51027 -0.340597 1.89029 0.511917 -0.808369 0.290657
-20.6695 -7.0855 15.0363 0.123762 0.308472 -0.585066 -0.0157454 2.67268 -0.757273 3.12817 0.67072 -0.488536 -0.558093
-20.4977 -9.66825 15.1231 0.138002 0.512107 -0.771219 -0.31148 2.74551 0.0933316 4.11301 0.461489 0.593141 -0.659705
-20.324 -6.3865 14.3372 0.221022 0.268457 0 1 2.98308 -0.999791 2.89806 0.499942 -0.811387 -0.302835
-22.8943 -9.02575 11.4333 0.362197 -0.440985 0 -1 3.06569 0.631109 1.35809 0.150304 -0.942415 0.298769
-20.79 -7.24388 12.0931 0.140248 -0.450481 0 -0.610956 3.12698 -0.22274 2.30112 0.580424 -0.770568 0.263312
-20.4439 -10.5723 14.3776 0.139374 -0.440634 0 -1 3.13635 0.0620823 4.38971 -0.1757 0.687899 -0.704219
-20.0229 -7.55125 15.8363 0.178879 0.196423 -0.317033 0.147612 3.17477 -0.207275 3.34025 0.562908 -0.387783 -0.729903
-20.1265 -9.2905 16.176 0.276374 0.318915 -0.870462 -0.262424 3.24366 -0.889417 3.79229 0.611254 0.245662 -0.752342
-24.2743 -7.45813 13.5571 0.058323 0.532464 0 -1 3.29388 0.0498146 0.512525 -0.927345 -0.362319 -0.0935721
-24.5421 -7.63413 14.8821 -0.0393823 0.42903 0 -0.177778 3.42896 -0.270768 0.201697 -0.897409 -0.127787 -0.422288
-24.362 -7.525 11.982 0.235323 0.453477 0 -1 3.42946 0.0892188 0.875323 -0.886754 -0.400919 0.230069
-22.4034 -11.3806 14.4312 -0.278896 -0.209451 -0.752668 -1 3.50374 0.124264 5.13566 -0.279148 -0.00970253 -0.960199
-25.0569 -9.07125 15.4163 0.127213 0.281517 0 -0.177778 3.58895 -0.140422 6.15041 -0.546323 0.134883 -0.826643
-23.7349 -11.4009 14.8865 0.126947 -0.171861 0.0924512 -0.301224 3.66536 -0.348377 5.54463 -0.20439 -0.0241314 -0.978592
-24.6903 -10.3582 15.2692 0.354657 -0.209948 0 -0.177778 3.73178 -0.506523 5.91641 -0.331744 0.0426787 -0.942404
-24.2651 -8.96638 10.8674 0.19289 -0.327399 0 -1 3.78346 0.768214 1.19872 -0.64891 -0.734414 0.198877
-21.4137 -11.8073 13.9376 0.0435247 -0.327538 -0.314608 -1 3.814 -0.144449 4.79916 -0.545339 0.442209 -0.712079
-20.5223 -11.3789 13.7464 0.202422 -0.390865 0 -1 4.16356 -0.702519 4.56127 -0.520897 0.660354 -0.540924
-19.324 -10.4045 14.811 0.166069 -0.43751 0 -1 4.16574 -0.157377 4.13313 0.125617 0.949726 -0.286775
-19.545 -7.992 16.6395 0.294261 0.0914683 -0.347605 0.404067 4.2081 -0.999927 3.40606 0.269309 -0.335886 -0.902581
-19.343 -10.0887 16.0842 0.0367197 0.35476 0 -0.959427 4.30558 -0.999899 3.91099 0.269278 0.796883 -0.540802
-20.213 -6.25775 13.0215 0.18907 -0.377636 0 -0.80846 4.30972 -0.856385 2.62313 0.370986 -0.88433 0.283425
-23.4648 -9.215 10.282 0.315044 -0.229901 0 -1 4.36445 0.839958 1.37871 -0.116334 -0.992464 -0.0384874
-24.4695 -6.49 14.027 -0.0499607 0.42946 0 -1 4.38759 -0.664869 0.459766 -0.972331 -0.202944 -0.1157
-21.7401 -8.90375 10.7118 0.347503 -0.331182 0 -1 4.4323 0.945378 1.68392 0.36967 -0.912761 0.173817
-24.6031 -6.60281 12.3184 0.157184 0.412428 0 -1 4.44026 0.0425916 0.739263 -0.963841 -0.218366 0.152733
-18.7805 -6.90188 15.6709 0.205645 0.0743153 0 1 4.58636 -0.444014 3.23232 0.146899 -0.741063 -0.655169
-18.8542 -9.37125 16.6077 0.147958 -0.210525 0 -0.866667 4.58963 -0.774815 3.71501 -0.0286449 0.379911 -0.924579
-24.6623 -7.54462 10.8359 0.407607 0.337889 0 -1 4.61441 0.314172 1.00697 -0.941904 -0.298514 0.153971
-18.6523 -6.01937 14.132 0.176105 -0.171211 0 0.0998822 4.70688 -0.501133 2.9136 0.0278223 -0.975824 -0.216778
-19.2892 -10.6217 13.267 0.17298 -0.420496 0 -1 4.73922 0.330198 4.35315 -0.334676 0.910521 -0.242781
-19.261 -6.84125 11.6965 -0.243992 -0.302601 0 -0.0888889 4.75709 0.277998 2.34722 0.368084 -0.864345 0.342669
-20.3315 -7.74131 10.5953 0.199796 -0.326403 0.0211574 -0.577367 4.77047 -0.0744587 2.07268 0.524645 -0.768145 0.367016
-24.8075 -12.0948 14.653 0.300281 -0.183901 0.715205 -0.177778 4.96401 0.221262 5.62664 0.152374 0.243081 -0.957963
-22.7603 -12.7945 14.5735 -0.147878 -0.134232 -0.0295089 -1 4.96891 -0.0751467 5.21955 -0.444675 -0.157526 -0.881731
-25.9482 -10.5319 15.2934 0.119435 -0.228026 0 -0.177778 5.00185 -0.207479 5.92858 -0.0906333 0.436551 -0.895103
-25.071 -6.36575 15.7308 -0.2382 0.318772 -0.294658 -1 5.04415 -0.033256 0.172884 -0.961125 -0.0348825 -0.2739
-25.3223 -7.353 16.2712 -0.112491 0.293224 -0.533627 -0.177778 5.04678 -0.351625 0.0751376 -0.751181 0.277511 -0.598928
-21.7095 -13.0495 13.7542 0.152812 -0.164692 0 -1 5.10403 0.262136 4.92946 -0.650328 -0.14921 -0.744856
-24.3194 -8.68213 9.49525 0.312904 -0.209192 0 -1 5.1858 0.446673 1.27469 -0.684471 -0.726125 -0.0651303
-23.8135 -12.9655 14.8745 0.151873 -0.0847177 0.27264 -0.393071 5.23198 -0.0725685 5.42352 -0.0165388 -0.164178 -0.986292
-18.3009 -10.4878 14.4353 0.217073 -0.351425 0 -1 5.25882 -0.36447 4.07528 -0.351694 0.898683 -0.262068
-18.4521 -10.3144 15.4754 0.193447 -0.330243 0 -0.944124 5.26562 -0.902786 3.97377 -0.275903 0.864479 -0.420183
-21.164 -12.614 12.603 0.138973 -0.262433 0 -1 5.39332 0.670374 4.74093 -0.847744 0.221375 -0.481999
-19.1028 -6.053 12.8455 0.0926913 -0.277552 -0.218172 -0.149494 5.45228 -0.584342 2.79219 0.136644 -0.958058 0.251901
-24.6496 -5.57312 13.2814 0.0897943 0.31958 0 -1 5.583 -0.357939 0.555924 -0.915522 -0.399765 -0.0448003
-23.27 -9.02525 9.075 0.108075 -0.170081 0 -1 5.60171 0.324712 1.44191 -0.0507863 -0.993967 -0.0972104
-26.873 -9.08488 16.3076 -0.24996 0.226151 -0.251729 -0.177778 5.61202 0.346423 6.09793 -0.542181 0.464401 -0.700266
-21.3273 -8.8025 9.55481 0.264206 -0.241514 0 -1 5.6649 -0.0240967 1.77986 0.2227 -0.958482 0.178095
-20.0719 -11.826 12.3647 0.259031 -0.317199 0 -1 5.68404 0.068851 4.55933 -0.660231 0.616466 -0.429027
-24.8995 -7.225 9.8345 0.408823 0.272304 0.100114 -1 5.69201 0.252499 1.07927 -0.992452 -0.112955 0.0477527
-17.911 -6.2715 15.196 0.204766 -0.107846 0 1 5.76065 -0.999889 3.17688 -0.413333 -0.739608 -0.531165
-24.994 -5.30963 14.6462 -0.180587 0.295494 -0.692479 -1 5.8087 -0.0334196 0.3834 -0.963333 -0.239604 -0.120742
-18.333 -6.3345 12.108 0.091576 -0.253186 -0.120039 -0.0912609 5.89169 0.282037 4.99981 0.250826 -0.908366 0.3346
-17.8437 -7.97316 16.2629 0.254598 -0.106 0 0.717809 5.95069 -0.731524 3.49529 -0.424628 -0.21275 -0.880016
-25.0375 -6.1895 10.903 0.136225 0.29223 0 -1 5.97743 0.585142 0.887925 -0.998942 -0.0459705 0.00106772
-21.0245 -13.6438 12.84 0.182942 -0.187966 0 -1 5.98861 0.235309 4.82487 -0.882519 -0.299105 -0.362899
-19.3347 -7.254 9.89163 0.152654 -0.240862 0.287924 -0.63516 6.08434 -0.651943 2.07268 0.48933 -0.816662 0.305973
-22.695 -13.8725 14.969 0.0611497 -0.0769858 0 -0.440453 6.11903 -0.541795 5.21955 -0.371655 -0.333765 -0.866299
-26.1826 -11.346 14.5651 0.131163 -0.211431 0 -0.177778 6.11904 0.334408 5.92858 0.187801 0.455244 -0.870336
-25.0672 -5.18225 15.6625 -0.299425 0.307626 -0.00553489 -1 6.22962 0.0624215 0.3834 -0.999723 0.0152582 -0.0179421
-18.04 -10.3495 12.4425 0.180204 -0.31258 0 -1 6.26054 0.790245 4.35315 -0.0188837 0.93446 -0.355567
-25.3781 -5.99813 16.916 -0.0399433 0.245655 0 -0.420696 6.32249 -0.396948 0.172884 -0.837572 0.234685 -0.493352
-18.9442 -11.0352 11.6637 0.331355 -0.308078 0 -1 6.43055 0.380992 4.55933 -0.371316 0.846535 -0.381449
-17.4824 -9.63325 15.3156 0.240497 -0.256364 0 -0.866667 6.46138 -0.876771 3.97377 -0.740196 0.487666 -0.462917
-17.0045 -6.579 13.7055 0.209189 -0.101764 0.0484967 -0.177778 6.49862 0.0532711 3.17688 -0.372483 -0.798344 -0.473185
-20.1845 -8.6605 9.077 0.175931 -0.233533 0 -1 6.55142 0.901947 1.77986 0.476436 -0.824735 0.304665
-20.9441 -14.2774 14.1104 0.392027 -0.120844 0 -1 6.59415 -0.459495 4.82487 -0.656228 -0.535194 -0.531913
-24.5791 -8.30962 8.16063 0.4171 -0.179427 0.110137 -1 6.59555 0.479351 1.27469 -0.825595 -0.561846 -0.052172
-24.9455 -4.472 12.149 0.089358 0.227524 0 -0.988469 6.60505 0.208074 0.555924 -0.869816 0.163171 -0.465613
-26.3605 -7.1855 17.4255 -0.144245 0.228358 -0.496914 -0.203284 6.6083 -0.0453567 0.0751376 -0.79986 0.333164 -0.499225
-24.2787 -14.2273 15.3814 0.0961013 0.0309191 -0.0270824 -0.164799 6.66916 0.0609397 5.42352 -0.187205 -0.581612 -0.791632
-20.6022 -13.328 11.6995 0.196928 -0.216479 0.638818 -1 6.67462 0.109021 4.82487 -0.936276 0.084451 -0.340963
-25.6367 -13.6027 14.3519 0.60449 -0.0341548 -0.0889253 -0.177778 6.711 0.742521 5.62664 0.157091 -0.424198 -0.89184
-17.8043 -6.68175 10.2825 0.213745 -0.197189 0 -0.0888889 6.79346 0.461547 2.34722 0.530315 -0.818463 0.221099
-17.401 -6.03675 11.4762 0.108734 0.176236 0 -0.16549 6.79556 -0.137755 4.99981 0.51537 -0.855702 0.0465509
-27.7169 -10.416 15.7773 0.038209 0.230046 0 -0.177778 6.83921 0.246792 6.09793 -0.561029 0.661907 -0.497118
-23.3092 -8.954 7.83125 0.126326 -0.147223 0 -1 6.84811 0.406413 1.44191 -0.269986 -0.961625 -0.0488332
-27.6816 -9.48 17.2225 -0.016872 0.248708 0 -0.177778 6.89537 0.294381 6.09793 -0.839213 0.537233 -0.0842804
-27.0502 -8.16725 17.2865 -0.204241 0.252949 -0.581889 -0.177778 6.96542 0.633277 6.09793 -0.80342 0.523062 -0.28447
-25.159 -7.1915 8.578 0.205926 0.217941 0.769499 -1 6.97546 0.822644 1.07927 -0.99791 0.0161028 -0.0625766
-17.0825 -7.7875 15.585 0.30018 -0.181605 0 -0.191002 6.98676 -0.858649 3.49529 -0.834138 -0.0571497 -0.548587
-16.9878 -6.00616 12.5084 0.16828 -0.121088 0 -0.177778 7.03214 -0.268516 4.99981 0.0390774 -0.970228 -0.23902
-25.4662 -4.19425 14.3174 0.0128769 0.235767 -0.170267 -0.905593 7.06376 -0.311806 0.3834 -0.738833 -0.651896 0.170754
-16.9587 -9.418 13.788 0.235878 -0.224011 0 -0.866667 7.0932 0.382773 4.07528 -0.698075 0.434666 -0.568996
-24.6723 -6.2505 8.82925 0.308316 0.249325 0.0893703 -1 7.11039 -0.429831 1.07927 -0.958404 0.28176 0.0455346
-16.8458 -10.3915 13.2823 0.230086 -0.234045 0 -0.901769 7.11785 -0.277064 4.07528 -0.0914488 0.806767 -0.58375
-21.5298 -9.17 7.988 0.0304505 -0.149595 0 -1 7.28692 0.691841 1.77986 0.129959 -0.990607 -0.042527
-24.5348 -5.35962 9.98388 0.164762 0.269592 0 -1 7.31392 0.131616 0.887925 -0.895138 0.434021 -0.101751
-24.8498 -4.58025 16.602 -0.132577 0.238403 0 -1 7.36643 -0.999891 0.3834 -0.979338 -0.130903 -0.154149
-20.2013 -14.7099 12.4825 0.293527 -0.186971 0 -1 7.38218 -0.319494 4.82487 -0.897953 -0.43703 0.0518187
-17.2897 -10.9758 11.8864 0.274118 -0.250925 0 -1 7.38501 0.0577259 4.35315 0.307248 0.871201 -0.382894
-27.443 -11.1007 14.2665 0.0553523 -0.185338 0 -0.177778 7.43735 0.999909 5.92858 -0.248144 0.492462 -0.83421
-18.6239 -7.34106 8.705 0.0570087 -0.174365 0 -0.0888889 7.4703 0.0479925 2.07268 0.53879 -0.830792 0.139607
-25.2713 -3.80669 15.5155 -0.00328846 0.229889 0 -0.963744 7.56694 -0.660675 0.3834 -0.774085 -0.592939 0.221848
-24.6915 -7.5625 7.4935 0.248663 -0.180999 0.322389 -1 7.60346 -0.0937854 1.27469 -0.984202 -0.106551 -0.141396
-27.2073 -12.3658 14.2268 0.0340617 -0.0732029 0 -0.177778 7.60378 0.656503 5.92858 -0.247566 -0.171873 -0.953505
-21.8455 -15.0938 14.9732 0.117286 -0.0691884 0 -0.155556 7.60673 -0.353536 5.21955 -0.359799 -0.248848 -0.899233
-15.8385 -6.69825 13.663 0.586543 -0.056495 0.523724 -0.177778 7.67147 -0.999858 3.17688 -0.370887 -0.574621 -0.729557
-26.0491 -4.00919 13.2559 0.1678 0.141283 0.254854 -0.829949 7.68184 0.326268 0.555924 -0.679656 -0.636671 -0.364305
-23.995 -3.911 12.06 0.104104 0.208961 0 -1 7.71234 -0.604812 0.555924 -0.406309 0.484181 -0.774908
-20.1338 -8.74375 7.88375 0.118923 -0.138471 0 -1 7.74864 0.766052 1.77986 0.446913 -0.885445 -0.127498
-16.4895 -7.686 14.14 0.249945 -0.137564 0 -0.866667 7.79456 0.0837004 3.17688 -0.666855 -0.076441 -0.741257
-20.2196 -13.3044 10.6401 0.211921 -0.187518 0.264241 -1 7.80124 0.53074 4.55933 -0.761396 0.321536 -0.56293
-16.891 -8.604 14.5685 0.296941 -0.243146 0 -0.866667 7.86397 -0.637084 3.49529 -0.911108 0.276913 -0.30529
-26.7423 -8.0535 18.2563 -0.258019 0.252632 0 -0.177778 7.86902 -0.246819 6.09793 -0.961133 0.272729 0.042919
-26.7127 -6.13825 18.033 0.046367 0.191393 0 -0.355556 7.86918 0.633016 0.0751376 -0.92016 0.108062 -0.376334
-18.8921 -11.6245 10.3421 0.378147 -0.216673 0 -1 7.87852 0.788944 4.55933 -0.543557 0.608633 -0.578024
-25.3465 -4.50325 17.4735 0.07559 0.164273 0 -0.355556 7.91825 -0.595128 0.172884 -0.83856 -0.0972335 -0.536062
-20.1612 -15.324 14.3276 0.265798 -0.097319 0.0100821 -0.594202 7.9191 -0.87813 4.82487 -0.659343 -0.395084 -0.639669
-25.378 -3.21106 12.4735 0.127782 0.0674905 0 -0.821518 7.97703 -0.0415662 0.555924 -0.194296 -0.179996 -0.964288
-22.7266 -9.01175 6.79588 -0.199122 -0.123795 0 -1 8.03755 0.256502 1.44191 -0.0582471 -0.99656 -0.0589609
-23.6983 -15.4121 15.7929 0.0480037 -0.0741794 0 -0.155556 8.05117 0.0976707 5.42352 -0.505832 -0.346783 -0.789858
-17.1159 -5.79738 9.5235 0.256873 0.157335 0 -0.160835 8.14701 0.0971588 4.99981 0.853315 -0.519417 -0.0453887
-24.7005 -6.20725 7.77287 0.262546 -0.203479 0.0845715 -0.698524 8.16803 -0.223395 1.07927 -0.993191 -0.0561366 0.102083
-26.8141 -14.1469 15.035 -0.246588 0.0592384 -0.846017 -0.177778 8.17697 0.790738 5.62664 -0.226286 -0.79144 -0.567819
-24.621 -8.069 6.5915 0.169666 -0.153129 0.651074 -1 8.18358 0.379095 1.27469 -0.816496 -0.575508 0.0461055
-17.4675 -6.8385 8.893 0.0557223 -0.159612 0 -0.0888889 8.23176 0.738786 2.34722 0.745376 -0.6652 0.0438689
-20.7668 -14.7948 10.9923 0.247308 -0.182899 0.194633 -1 8.31131 0.816357 4.82487 -0.989371 -0.0093741 -0.14511
-19.4224 -12.7526 9.99325 0.243005 -0.149491 0 -1 8.31163 0.845049 4.55933 -0.537361 0.287897 -0.79269
-16.3521 -11.4514 11.8585 -0.0251259 -0.213485 0 -0.892942 8.43671 -0.62583 4.35315 0.0602094 0.903033 -0.42533
-28.612 -10.6962 17.5285 0.0490673 0.204549 -0.180453 -0.177778 8.45692 0.426431 6.09793 -0.829612 0.540805 -0.138833
-23.843 -4.437 9.9255 0.143258 0.291365 0 -0.677778 8.46857 -0.22975 0.887925 -0.820186 0.460213 0.33985
-25.1311 -14.8569 16.837 -0.00252388 0.0846241 -0.589244 -0.170628 8.46965 -0.311806 5.42352 -0.561717 -0.619481 -0.548377
-21.3472 -8.6665 6.9135 -0.0288818 -0.104811 0 -1 8.4875 -0.410649 1.77986 0.279968 -0.926246 -0.252362
-17.642 -11.1625 10.057 0.112985 -0.191842 0 -1 8.5026 0.999901 4.55933 0.0708431 0.739224 -0.669724
-24.4319 -4.8465 8.7625 0.221181 -0.243772 0 -0.69704 8.53638 -0.261914 0.887925 -0.925946 0.155936 0.343958
-23.4335 -4.26737 10.9566 0.191643 0.293359 0 -0.630524 8.5415 -0.646653 0.887925 -0.706484 0.691227 -0.151939
-28.5869 -11.8099 15.1442 0.0197417 0.161176 0 -0.177778 8.60008 0.99985 6.09793 -0.844112 0.175393 -0.506668
-27.7686 -9.90925 18.9561 0.134143 0.209139 0.357384 -0.745949 8.68344 -0.114955 6.09793 -0.884117 0.464767 -0.048256
-15.3629 -10.7626 12.8304 0.136983 -0.17017 -0.394883 -0.790553 8.71187 -0.999862 4.07528 -0.332311 0.671036 -0.662782
-15.4358 -9.10581 13.2952 0.96659 -0.132219 0 -0.866667 8.72401 -0.179197 4.07528 -0.419749 0.28432 -0.861959
-15.3011 -6.19775 12.604 0.50108 -0.0409429 -0.194779 -0.177778 8.73237 -0.206937 4.99981 -0.272386 -0.641142 -0.717456
-22.1509 -16.184 15.2255 -0.135481 -0.0720474 -0.466169 -0.155556 8.76667 0.425204 5.21955 -0.4255 -0.171971 -0.888468
-15.803 -4.925 11.1187 -0.006921 0.064826 -0.811647 -0.177778 8.7748 -0.25577 4.99981 0.354256 -0.763653 -0.539757
-27.0502 -8.927 18.9067 0.068491 0.227431 -0.0515736 -0.592613 8.77713 -0.650387 6.09793 -0.843192 0.524165 -0.119495
-26.472 -4.66059 18.6796 0.200551 0.165938 0 -0.355556 8.79148 0.113477 0.172884 -0.875272 0.19433 -0.442871
-15.4591 -7.77588 13.7755 0.861067 -0.107661 0.088854 -0.773651 8.81947 -0.734937 3.17688 -0.501152 0.0173468 -0.865186
-23.7764 -2.84488 12.409 0.0289287 0.125302 0 -0.494404 8.85523 -0.90501 0.555924 -0.396047 0.107518 -0.911914
-27.1044 -3.502 13.4146 0.188455 0.119663 0.634199 -0.777778 8.86341 0.433604 0.3834 -0.421853 -0.882188 -0.209246
-18.4643 -7.255 7.23925 -0.370103 -0.148171 -0.530836 -0.632871 8.94723 -0.443081 2.07268 0.51067 -0.841295 0.17731
-24.7237 -6.64975 6.4585 0.206704 -0.173841 0.622314 -1 8.98382 -0.69256 1.27469 -0.96535 -0.20611 0.160054
-18.0872 -12.0767 9.72775 0.317003 -0.115284 0 -1 8.98747 0.721577 4.55933 -0.144112 0.253934 -0.956425
-22.8888 -3.4195 11.4747 0.183954 0.225348 0 -0.403064 9.05689 -0.999888 0.555924 -0.835758 0.35541 -0.41856
-26.7301 -14.3379 16.3348 -0.300498 0.0980648 -0.798241 -0.177778 9.09175 0.122828 5.42352 -0.224134 -0.942859 -0.246537
-28.8633 -11.8597 17.0815 -0.086151 0.171766 -0.00700699 -0.177778 9.0974 -0.355334 6.09793 -0.859523 0.388904 -0.331622
-26.8886 -5.983 19.2396 0.126252 0.174223 0 -0.355556 9.09838 0.345909 0.0751376 -0.973094 0.0204961 -0.229493
-22.384 -8.9035 5.78675 0.110245 -0.118174 0.189878 -0.931638 9.10873 0.265778 1.44191 0.320707 -0.94714 -0.00852864
-26.7205 -8.09869 19.5376 0.054108 0.189219 0 -1 9.1513 -0.999865 6.09793 -0.908031 0.274936 -0.316053
-25.8703 -3.0485 16.7773 0.054559 0.157861 0 -0.542731 9.15622 -0.423043 0.3834 -0.785778 -0.615975 -0.0559192
-19.252 -13.9431 9.88231 0.24191 -0.0893945 0 -1 9.18632 0.0174677 4.55933 -0.230642 0.0821338 -0.969566
-19.3857 -16.0071 13.5597 0.134442 -0.128484 0.116609 -0.830473 9.20661 -0.717768 4.82487 -0.890953 -0.26768 -0.36681
-16.623 -4.8675 9.69606 0.265922 0.120246 0.0800778 -0.132375 9.2135 -0.580168 4.99981 0.79169 -0.538524 -0.288476
-20.5179 -15.9096 11.1258 0.35212 -0.153312 0 -1 9.2207 0.860416 4.82487 -0.938621 -0.344245 -0.0220189
-26.643 -6.971 19.17 0.0965097 0.185584 0 -0.355556 9.28025 -0.783997 6.09793 -0.981291 -0.0817124 -0.174332
-28.1464 -13.4074 15.1665 -0.0681823 0.0954103 0 -0.177778 9.29194 0.878492 5.92858 -0.62013 -0.640603 -0.452844
-24.3805 -8.4235 5.5625 0.104751 -0.157873 0 -0.777778 9.29819 -0.0931875 1.27469 -0.746378 -0.578982 0.328176
-20.6803 -16.614 14.708 0.450913 -0.0694692 0.0118448 -0.155556 9.36072 -0.0415301 4.82487 -0.473438 -0.201414 -0.85749
-19.3284 -7.98259 6.64594 -0.32721 -0.126952 0.000629393 -0.778167 9.41003 -0.0266087 1.77986 0.400781 -0.916003 0.0177111
-16.3331 -11.9799 10.336 0.035176 -0.151727 -0.599444 -0.798871 9.46517 0.0823546 4.35315 0.25465 0.623967 -0.738795
-28.2985 -10.719 18.493 0.110757 0.22659 -0.110422 -0.177778 9.47134 -0.562955 6.09793 -0.716423 0.663962 0.214225
-19.3253 -16.6465 12.5305 0.13931 -0.156442 0 -1 9.50823 -0.2943 4.82487 -0.920531 -0.347953 0.177628
-18.3202 -13.137 9.70988 0.36375 -0.0776989 0 -1 9.51284 0.60542 4.55933 -0.0848291 0.0187486 -0.996219
-17.0427 -5.50575 8.13175 0.139628 0.147393 0.0189671 -0.0888889 9.57087 -0.731275 4.99981 0.914394 -0.404824 0.000975317
-26.912 -2.693 15.8534 -0.161405 0.175741 0 -0.777778 9.5785 0.162787 0.3834 -0.486376 -0.787135 0.379285
-25.93 -14.7115 17.6225 -0.0243793 0.0659411 -0.81524 -0.177778 9.59942 -0.872975 5.42352 -0.337197 -0.789396 -0.512984
-26.2337 -3.4185 18.4307 0.229832 0.156854 0 -0.355556 9.61532 0.101967 0.172884 -0.965307 -0.110425 -0.236622
-22.8726 -16.7812 15.842 -0.203905 -0.0650389 -0.523941 -0.155556 9.65074 0.298519 5.42352 -0.536079 -0.44307 -0.718546
-27.0665 -2.9835 14.8308 -0.0730057 0.17254 0 -0.777778 9.65721 -0.489105 0.3834 -0.430626 -0.850137 0.303033
-19.9643 -14.9095 9.72375 0.159746 -0.101472 0 -1 9.66704 0.806655 4.55933 -0.551402 0.0766464 -0.830711
-17.37 -6.47 7.5005 -0.192306 -0.151353 -0.747237 -0.695038 9.67549 0.15415 2.34722 0.832502 -0.537503 0.13428
-15.234 -11.3053 11.3237 -0.52401 -0.18374 -0.342352 -0.777778 9.68471 0.190645 4.35315 -0.100538 0.894178 -0.436278
-14.5334 -8.09988 12.9789 1 -0.074044 0 -0.866667 9.70515 0.0769332 3.17688 -0.416646 -0.127902 -0.900026
-23.6082 -9.08744 5.33644 0.150248 -0.14367 0 -0.777778 9.74427 0.298718 1.44191 -0.315602 -0.883558 0.346006
-29.2895 -11.3285 18.4905 -0.215759 0.195961 -0.492141 -0.177778 9.79268 0.738926 6.09793 -0.74384 0.657439 0.120321
-14.5136 -10.6986 12.1084 0.0093171 -0.13231 -0.611101 -0.794638 9.82843 0.104646 4.07528 -0.118791 0.560971 -0.819268
-25.267 -5.68925 6.26125 0.171167 -0.166143 0 -0.364204 9.86339 -0.327172 1.07927 -0.82037 -0.434493 0.371765
-20.8832 -8.26775 5.65475 -0.328951 -0.0911742 -0.121059 -0.777778 9.88706 -0.165529 1.77986 0.241635 -0.944963 -0.220583
-28.0129 -3.00813 13.4704 0.145439 -0.132846 0.314404 -0.799109 9.89897 -0.0829807 0.3834 -0.0416823 -0.993364 0.10719
-26.5806 -2.00069 11.5182 0.084578 -0.0661794 0 -0.777778 9.93249 -0.0606051 0.555924 0.330497 -0.797281 -0.505089
-24.5766 -3.49787 8.32775 0.192407 -0.231781 0 -0.355556 9.96073 -0.149576 0.887925 -0.611706 0.0681538 0.788144
-23.5872 -1.7065 12.3177 -0.197716 0.0778963 0.128378 -0.351862 10.0128 -0.999899 0.555924 -0.521959 -0.344013 -0.780521
-24.6891 -1.28988 12.2978 0.00698653 -0.0136612 0 0.0375996 10.0255 -0.999857 0.555924 0.0992013 -0.544032 -0.83318
-25.3714 -4.37937 7.70013 0.198169 -0.190042 0 -0.355556 10.0295 0.165953 0.887925 -0.792611 -0.364866 0.488508
-17.0565 -12.6155 9.80875 0.217744 -0.0910771 0 -1 10.0887 0.619101 4.55933 0.274633 0.11672 -0.954439
-24.3081 -16.9456 17.0079 0.0212302 0.0780888 0 -0.155556 10.1005 0.728925 5.42352 -0.668279 -0.464985 -0.580682
-25.111 -6.972 5.09363 0.158238 -0.157829 0.100685 -0.811127 10.1038 -0.41889 1.27469 -0.838639 -0.3688 0.400838
-28.2625 -11.0336 19.8349 0.0880753 0.198953 0.108719 -0.39164 10.1935 -0.0472213 6.09793 -0.871266 0.346526 0.347585
-26.504 -2.24012 16.9511 0.0449657 0.183471 0 -0.509533 10.198 -0.0546609 0.3834 -0.793311 -0.455957 0.403436
-15.2399 -4.01038 10.1786 0.048477 -0.0570638 0.0615469 -0.0972704 10.2022 -0.428873 4.99981 0.0501641 -0.892009 -0.449225
3 149 189 120
3 120 189 192
3 186 196 151
3 105 151 126
3 198 159 176
3 149 109 93
3 109 55 93
3 79 109 120
3 79 120 110
3 190 193 136
3 193 186 124
3 95 124 90
3 90 105 78
3 105 126 78
3 166 126 196
3 146 176 118
3 116 146 72
3 118 72 146
3 118 176 159
3 104 159 174
3 104 178 149
3 104 93 62
3 104 62 70
3 46 72 70
3 19 62 33
3 18 33 35
3 35 65 38
3 65 60 38
3 60 65 98
3 60 98 95
3 38 60 49
3 78 87 49
3 87 58 56
3 56 58 34
3 134 121 157
3 121 87 126
3 121 183 157
3 146 116 156
3 115 164 116
3 115 116 80
3 80 89 115
3 72 80 116
3 89 80 47
3 115 89 88
3 89 57 88
3 86 57 45
3 6 7 19
3 4 6 18
3 19 18 6
3 20 35 38
3 25 49 32
3 56 32 49
3 13 9 4
3 111 168 103
3 168 134 187
3 187 134 157
3 139 131 170
3 170 131 184
3 106 69 83
3 83 69 43
3 24 7 8
3 24 8 23
3 1 21 8
3 23 8 21
3 14 2 9
3 14 31 12
3 63 31 41
3 14 41 31
3 42 14 9
3 34 58 42
3 42 76 67
3 127 84 103
3 67 103 84
3 123 84 127
3 123 127 173
3 180 127 150
3 165 106 125
3 81 107 122
3 50 83 43
3 23 21 50
3 44 50 21
3 44 48 68
3 48 21 26
3 48 26 66
3 66 26 53
3 53 26 59
3 27 15 40
3 15 28 40
3 40 28 51
3 28 15 11
3 17 3 16
3 16 3 10
3 36 12 39
3 39 92 75
3 85 92 63
3 63 41 85
3 63 92 54
3 92 85 144
3 123 144 85
3 142 92 144
3 154 165 125
3 154 83 81
3 107 143 122
3 177 122 143
3 77 107 68
3 48 66 77
3 100 66 82
3 82 128 100
3 128 82 113
3 59 113 82
3 73 71 101
3 96 94 141
3 71 40 96
3 147 182 141
3 141 112 147
3 143 107 167
3 119 107 77
3 128 179 163
3 129 160 113
3 117 59 73
3 101 130 169
3 130 181 169
3 91 114 74
3 59 26 27
3 69 86 45
3 98 137 132
3 137 98 79
3 137 79 110
3 196 126 151
3 159 198 174
3 188 149 178
3 93 104 149
3 55 62 93
3 79 55 109
3 132 190 136
3 132 136 98
3 124 95 136
3 124 136 193
3 136 95 98
3 105 90 124
3 105 124 151
3 151 124 186
3 87 78 126
3 183 121 126
3 166 183 126
3 72 118 99
3 72 99 70
3 104 99 159
3 104 70 99
3 118 159 99
3 80 72 47
3 46 47 72
3 22 47 19
3 19 47 46
3 18 19 33
3 35 33 55
3 55 33 62
3 35 55 79
3 145 158 115
3 115 158 164
3 88 139 145
3 88 145 115
3 86 88 57
3 45 57 22
3 45 22 24
3 24 22 7
3 7 6 1
3 4 1 6
3 8 7 1
3 0 1 4
3 67 76 103
3 103 76 111
3 168 150 103
3 170 197 139
3 197 170 184
3 155 131 86
3 23 43 24
3 24 43 45
3 45 43 69
3 50 43 23
3 26 15 27
3 15 26 5
3 5 26 21
3 5 21 1
3 5 1 0
3 11 15 5
3 11 5 3
3 3 5 0
3 2 3 0
3 9 2 4
3 4 2 0
3 16 10 12
3 12 10 2
3 12 2 14
3 2 10 3
3 31 39 12
3 54 39 31
3 54 31 63
3 42 41 14
3 67 41 42
3 180 173 127
3 83 125 106
3 68 107 81
3 68 81 50
3 68 50 44
3 50 81 83
3 73 59 40
3 40 59 27
3 96 40 51
3 94 96 51
3 94 51 74
3 94 74 114
3 52 51 28
3 51 52 74
3 17 30 11
3 30 17 37
3 11 30 28
3 28 30 52
3 52 30 37
3 52 37 74
3 29 64 37
3 64 29 36
3 36 29 16
3 17 16 37
3 37 64 74
3 37 16 29
3 12 36 16
3 75 112 61
3 39 75 61
3 39 61 36
3 36 61 64
3 64 61 91
3 91 61 112
3 91 112 114
3 147 112 108
3 142 108 92
3 75 92 108
3 75 108 112
3 162 144 123
3 199 144 162
3 123 173 162
3 154 133 175
3 154 81 133
3 133 81 122
3 133 122 195
3 177 195 122
3 66 100 77
3 96 101 71
3 182 147 108
3 182 108 142
3 119 167 107
3 119 77 100
3 128 163 100
3 160 129 172
3 140 181 130
3 140 96 141
3 96 140 130
3 96 130 101
3 185 181 140
3 185 140 141
3 119 161 167
3 100 163 171
3 100 171 161
3 100 161 119
3 74 64 91
3 110 148 153
3 110 153 137
3 148 120 192
3 120 148 110
3 192 191 148
3 149 120 109
3 174 178 104
3 70 62 46
3 46 62 19
3 98 65 79
3 79 65 35
3 60 95 90
3 60 90 78
3 49 60 78
3 121 134 97
3 121 97 87
3 87 97 58
3 156 116 164
3 47 22 57
3 89 47 57
3 7 22 19
3 4 18 20
3 20 18 35
3 4 20 25
3 38 25 20
3 38 49 25
3 4 25 13
3 13 25 32
3 87 56 49
3 34 32 56
3 32 34 13
3 13 34 9
3 111 76 97
3 111 97 134
3 58 97 76
3 111 134 168
3 88 86 131
3 88 131 139
3 102 86 69
3 102 69 106
3 102 106 138
3 102 138 86
3 9 34 42
3 42 58 76
3 103 150 127
3 106 165 138
3 155 86 138
3 48 44 21
3 11 3 17
3 54 92 39
3 123 85 84
3 67 84 41
3 41 84 85
3 83 154 125
3 77 68 48
3 66 53 82
3 59 82 53
3 40 71 73
3 94 114 112
3 94 112 141
3 113 160 179
3 128 113 179
3 59 117 129
3 59 129 113
3 152 194 172
3 152 172 129
3 152 129 117
3 101 169 135
3 101 135 73
3 73 135 117
3 117 135 152
3 152 135 194
3 169 194 135
