ply
format ascii 1.0
comment Generated by PyMesh
element vertex 200
property float x
property float y
property float z
property float charge
property float ddc
property float hbond
property float hphob
property float rho
property float si
property float theta
property float nx
property float ny
property float nz
element face 342
property list uchar int vertex_indices
end_header
-18.9442 -11.0352 11.6637 0.331355 0 0 -1 1e-08 0.380992 2.22045e-16 -0.371316 0.846535 -0.381449
-18.04 -10.3495 12.4425 0.180204 0.189375 0 -1 1.37633 0.790245 2.22045e-16 -0.0188837 0.93446 -0.355567
-18.8921 -11.6245 10.3421 0.378147 0.279463 0 -1 1.44797 0.788944 2.30214 -0.543557 0.608633 -0.578024
-20.0719 -11.826 12.3647 0.259031 0.313104 0 -1 1.54547 0.068851 3.87443 -0.660231 0.616466 -0.429027
-17.2897 -10.9758 11.8864 0.274118 0.330996 0 -1 1.67048 0.0577259 0.61218 0.307248 0.871201 -0.382894
-19.2892 -10.6217 13.267 0.17298 0.148941 0 -1 1.69132 0.330198 5.07502 -0.334676 0.910521 -0.242781
-17.642 -11.1625 10.057 0.112985 0.186303 0 -1 2.07206 0.999901 1.58971 0.0708431 0.739224 -0.669724
-18.0872 -12.0767 9.72775 0.317003 0.329372 0 -1 2.55692 0.721577 2.05095 -0.144112 0.253934 -0.956425
-16.3521 -11.4514 11.8585 -0.0251259 0.116396 0 -0.892942 2.72217 -0.62583 0.702922 0.0602094 0.903033 -0.42533
-19.4224 -12.7526 9.99325 0.243005 0.292783 0 -1 2.74239 0.845049 2.63212 -0.537361 0.287897 -0.79269
-16.8458 -10.3915 13.2823 0.230086 0.0705788 0 -0.901769 2.83686 -0.277064 0.00614982 -0.0914488 0.806767 -0.58375
-21.164 -12.614 12.603 0.138973 0.30403 0 -1 2.9131 0.670374 3.76954 -0.847744 0.221375 -0.481999
-20.5223 -11.3789 13.7464 0.202422 0.132128 0 -1 3.06595 -0.702519 4.47435 -0.520897 0.660354 -0.540924
-18.3009 -10.4878 14.4353 0.217073 0.0827079 0 -1 3.22742 -0.36447 5.56035 -0.351694 0.898683 -0.262068
-19.324 -10.4045 14.811 0.166069 0.129543 0 -1 3.25092 -0.157377 5.20537 0.125617 0.949726 -0.286775
-20.6022 -13.328 11.6995 0.196928 0.368984 0.638818 -1 3.27165 0.109021 3.4012 -0.936276 0.084451 -0.340963
-20.4439 -10.5723 14.3776 0.139374 -0.0937435 0 -1 3.2942 0.0620823 4.79707 -0.1757 0.687899 -0.704219
-21.4137 -11.8073 13.9376 0.0435247 0.164393 -0.314608 -1 3.61303 -0.144449 4.27028 -0.545339 0.442209 -0.712079
-16.3331 -11.9799 10.336 0.035176 0.19717 -0.599444 -0.798871 3.64024 0.0823546 1.31389 0.25465 0.623967 -0.738795
-18.3202 -13.137 9.70988 0.36375 0.339707 0 -1 3.64267 0.60542 2.20442 -0.0848291 0.0187486 -0.996219
-17.0565 -12.6155 9.80875 0.217744 0.33072 0 -1 3.65813 0.619101 1.74296 0.274633 0.11672 -0.954439
-20.2196 -13.3044 10.6401 0.211921 0.268126 0.264241 -1 3.82181 0.53074 3.02897 -0.761396 0.321536 -0.56293
-16.9587 -9.418 13.788 0.235878 -0.188771 0 -0.866667 3.93967 0.382773 6.11498 -0.698075 0.434666 -0.568996
-19.252 -13.9431 9.88231 0.24191 0.268103 0 -1 3.95013 0.0174677 2.56392 -0.230642 0.0821338 -0.969566
-15.234 -11.3053 11.3237 -0.52401 0.0396773 -0.342352 -0.777778 3.97017 0.190645 0.923249 -0.100538 0.894178 -0.436278
-21.0245 -13.6438 12.84 0.182942 0.373716 0 -1 3.97899 0.235309 3.67022 -0.882519 -0.299105 -0.362899
-15.3629 -10.7626 12.8304 0.136983 -0.0744649 -0.394883 -0.790553 4.27058 -0.999862 0.420597 -0.332311 0.671036 -0.662782
-18.4521 -10.3144 15.4754 0.193447 0.0158625 0 -0.944124 4.29266 -0.902786 5.45025 -0.275903 0.864479 -0.420183
-20.4977 -9.66825 15.1231 0.138002 -0.191115 -0.771219 -0.31148 4.46722 0.0933316 4.92935 0.461489 0.593141 -0.659705
-21.5238 -10.0594 14.7436 0.0140825 -0.230501 0 -0.302471 4.54448 -0.347971 4.67708 0.230592 0.180458 -0.95617
-19.343 -10.0887 16.0842 0.0367197 -0.113707 0 -0.959427 4.56283 -0.999899 5.25442 0.269278 0.796883 -0.540802
-17.4824 -9.63325 15.3156 0.240497 -0.148286 0 -0.866667 4.70225 -0.876771 5.71251 -0.740196 0.487666 -0.462917
-15.4358 -9.10581 13.2952 0.96659 -0.165021 0 -0.866667 4.74507 -0.179197 0.133442 -0.419749 0.28432 -0.861959
-22.4034 -11.3806 14.4312 -0.278896 -0.223311 -0.752668 -1 4.79845 0.124264 4.31894 -0.279148 -0.00970253 -0.960199
-17.3151 -13.7944 9.69925 0.0670877 0.270127 0 -1 4.84371 0.114218 1.98191 0.128148 0.0611198 -0.98987
-21.7095 -13.0495 13.7542 0.152812 0.278453 0 -1 4.90306 0.262136 4.01093 -0.650328 -0.14921 -0.744856
-20.7668 -14.7948 10.9923 0.247308 0.280385 0.194633 -1 4.90833 0.816357 3.07176 -0.989371 -0.0093741 -0.14511
-20.2013 -14.7099 12.4825 0.293527 0.387332 0 -1 4.90978 -0.319494 3.45146 -0.897953 -0.43703 0.0518187
-15.6134 -13.1465 10.1267 -0.0775537 0.251761 -0.157177 -0.941284 5.02687 0.300933 1.48876 0.135047 0.00100278 -0.990839
-16.891 -8.604 14.5685 0.296941 -0.20863 0 -0.866667 5.06943 -0.637084 6.0248 -0.911108 0.276913 -0.30529
-14.9095 -11.794 10.3015 -0.38135 0.135084 -0.0268627 -0.777778 5.07634 0.773584 1.15611 0.13334 0.56375 -0.815111
-19.9643 -14.9095 9.72375 0.159746 0.204528 0 -1 5.1611 0.806655 2.74854 -0.551402 0.0766464 -0.830711
-14.5136 -10.6986 12.1084 0.0093171 0.105483 -0.611101 -0.794638 5.19607 0.104646 0.747944 -0.118791 0.560971 -0.819268
-20.9441 -14.2774 14.1104 0.392027 0.320055 0 -1 5.4009 -0.459495 3.75127 -0.656228 -0.535194 -0.531913
-18.8542 -9.37125 16.6077 0.147958 -0.132029 0 -0.866667 5.57659 -0.774815 5.37825 -0.0286449 0.379911 -0.924579
-20.1265 -9.2905 16.176 0.276374 -0.217161 -0.870462 -0.262424 5.64581 -0.889417 5.07575 0.611254 0.245662 -0.752342
-16.4895 -7.686 14.14 0.249945 -0.218698 0 -0.866667 5.76829 0.0837004 6.14672 -0.666855 -0.076441 -0.741257
-21.2502 -8.50362 14.8431 -0.296657 -0.292362 -0.838733 -0.177778 5.88179 -0.200459 4.83854 0.671974 -0.133546 -0.728434
-20.5179 -15.9096 11.1258 0.35212 0.282513 0 -1 6.05836 0.860416 3.07176 -0.938621 -0.344245 -0.0220189
-15.3027 -14.1698 10.387 -0.152064 0.24238 -0.207425 -0.777778 6.12752 -0.550768 1.48876 0.210353 -0.150234 -0.966013
-14.5334 -8.09988 12.9789 1 -0.198686 0 -0.866667 6.13297 0.0769332 0.133442 -0.416646 -0.127902 -0.900026
-15.4591 -7.77588 13.7755 0.861067 -0.183965 0.088854 -0.773651 6.15926 -0.734937 6.14672 -0.501152 0.0173468 -0.865186
-19.8773 -15.9108 9.7025 0.197117 0.236789 0 -1 6.16639 0.926023 2.74854 -0.574519 -0.335193 -0.746708
-23.7349 -11.4009 14.8865 0.126947 -0.175221 0.0924512 -0.301224 6.20578 -0.348377 4.31894 -0.20439 -0.0241314 -0.978592
-22.7603 -12.7945 14.5735 -0.147878 0.217035 -0.0295089 -1 6.2597 -0.0751467 4.01093 -0.444675 -0.157526 -0.881731
-13.0511 -12.0589 11.1349 -0.266539 0.11174 0 -0.777778 6.2872 0.257586 1.15611 0.334992 0.609531 -0.718507
-23.42 -10.2725 14.429 0.0938083 -0.227231 0 -0.177778 6.30223 0.153012 4.31894 -0.470196 -0.275288 -0.83853
-17.0825 -7.7875 15.585 0.30018 -0.200849 0 -0.191002 6.38724 -0.858649 6.0248 -0.834138 -0.0571497 -0.548587
-16.2515 -14.8927 10.0135 0.14685 0.226815 0 -1 6.40457 -0.222322 1.98191 0.41567 0.0408365 -0.908598
-22.3465 -8.49375 14.0885 -0.068124 -0.320898 0 -0.177778 6.43055 -0.569041 4.83854 0.588423 -0.468957 -0.658663
-13.9409 -12.787 10.2555 -0.370037 0.191258 0 -0.777778 6.46427 0.999792 1.15611 0.321426 0.100952 -0.941538
-18.377 -16.4015 9.718 0.0589217 0.205552 0 -1 6.56477 0.246763 2.74854 -0.184434 -0.220216 -0.957856
-13.842 -9.499 12.3448 0.385083 0.167158 0.846334 -0.866667 6.59105 0.583064 0.747944 0.114291 0.198146 -0.973486
-17.8437 -7.97316 16.2629 0.254598 -0.205144 0 0.717809 6.64745 -0.731524 5.37825 -0.424628 -0.21275 -0.880016
-23.149 -9.1075 13.7925 0.056889 -0.27548 0 -0.177778 6.65445 0.219697 4.67708 -0.118113 -0.489313 -0.864073
-22.695 -13.8725 14.969 0.0611497 0.218655 0 -0.440453 6.67062 -0.541795 4.01093 -0.371655 -0.333765 -0.866299
-20.1612 -15.324 14.3276 0.265798 0.255371 0.0100821 -0.594202 6.72584 -0.87813 3.75127 -0.659343 -0.395084 -0.639669
-19.3857 -16.0071 13.5597 0.134442 0.243247 0.116609 -0.830473 6.78282 -0.717768 3.45146 -0.890953 -0.26768 -0.36681
-17.221 -15.7148 9.389 -0.0800823 0.193737 0 -1 6.79129 0.657691 1.98191 0.133318 0.00501467 -0.991061
-12.9963 -10.7945 12.6664 -0.0510023 0.131789 0.0462799 -0.793793 6.81556 -0.562432 0.747944 0.319079 0.427744 -0.845709
-21.8455 -15.0938 14.9732 0.117286 0.19835 0 -0.155556 6.89202 -0.353536 3.75127 -0.359799 -0.248848 -0.899233
-23.8135 -12.9655 14.8745 0.151873 -0.189011 0.27264 -0.393071 6.96566 -0.0725685 4.31894 -0.0165388 -0.164178 -0.986292
-19.3253 -16.6465 12.5305 0.13931 0.267597 0 -1 7.03583 -0.2943 3.45146 -0.920531 -0.347953 0.177628
-15.8385 -6.69825 13.663 0.586543 -0.255476 0.523724 -0.177778 7.04382 -0.999858 6.14672 -0.370887 -0.574621 -0.729557
-17.0045 -6.579 13.7055 0.209189 -0.313889 0.0484967 -0.177778 7.06424 0.0532711 6.14672 -0.372483 -0.798344 -0.473185
-19.545 -7.992 16.6395 0.294261 -0.232312 -0.347605 0.404067 7.1195 -0.999927 5.37825 0.269309 -0.335886 -0.902581
-21.5989 -7.74388 13.9134 0.105045 -0.378219 -0.0787328 -0.922018 7.13205 -0.280303 4.83854 0.659801 -0.707421 -0.253412
-13.9121 -14.6616 10.49 -0.52379 0.210676 0 -0.777778 7.3338 0.655903 1.48876 0.279298 -0.289262 -0.915598
-13.3403 -7.75063 12.6695 0.488417 -0.219472 0 -0.477887 7.41406 0.309244 0.133442 -0.078355 -0.532924 -0.842527
-20.0229 -7.55125 15.8363 0.178879 -0.270402 -0.317033 0.147612 7.42095 -0.207275 5.07575 0.562908 -0.387783 -0.729903
-20.6695 -7.0855 15.0363 0.123762 -0.296288 -0.585066 -0.0157454 7.42633 -0.757273 4.83854 0.67072 -0.488536 -0.558093
-24.8075 -12.0948 14.653 0.300281 -0.130996 0.715205 -0.177778 7.50443 0.221262 4.31894 0.152374 0.243081 -0.957963
-19.7464 -17.0767 10.7243 0.504503 0.26511 0.826967 -1 7.51388 0.999866 2.74854 -0.631306 -0.724487 -0.276715
-24.1569 -9.28213 14.6067 0.0760867 0.185474 0 -0.177778 7.5494 0.0777232 4.31894 -0.65629 -0.196043 -0.728595
-24.6903 -10.3582 15.2692 0.354657 -0.13815 0 -0.177778 7.67087 -0.506523 4.31894 -0.331744 0.0426787 -0.942404
-11.7505 -12.7638 11.138 -0.053411 0.149438 0 -0.777778 7.76654 0.999888 1.15611 0.546991 0.154282 -0.822799
-23.98 -8.416 14.069 0.0383617 0.226629 0 -0.177778 7.77033 -0.0189584 4.67708 -0.801276 -0.42702 -0.419059
-23.2985 -8.6565 12.6355 0.145161 -0.375871 0 -1 7.90521 0.171649 4.83854 -0.149108 -0.988821 -0.000164651
-18.6355 -17.4405 10.5407 0.216114 0.24683 0.333194 -1 7.91502 0.414409 2.74854 -0.403905 -0.746356 -0.528973
-13.0988 -13.906 10.6888 -0.210775 0.201017 0 -0.777778 7.93023 0.412374 1.15611 0.488421 -0.186139 -0.852524
-14.7806 -15.9108 10.7155 0.0091696 0.238228 -0.03043 -0.793104 7.97456 0.290366 1.48876 0.538949 -0.461817 -0.704457
-17.911 -6.2715 15.196 0.204766 -0.266011 0 1 8.0347 -0.999889 6.14672 -0.413333 -0.739608 -0.531165
-22.1509 -16.184 15.2255 -0.135481 0.159452 -0.466169 -0.155556 8.05196 0.425204 3.75127 -0.4255 -0.171971 -0.888468
-20.6803 -16.614 14.708 0.450913 0.174007 0.0118448 -0.155556 8.16746 -0.0415301 3.75127 -0.473438 -0.201414 -0.85749
-11.7086 -11.227 12.6416 -0.43896 0.0887626 -0.835421 -0.777778 8.17418 -0.400173 0.747944 0.155044 0.504703 -0.849256
-18.7805 -6.90188 15.6709 0.205645 -0.286267 0 1 8.18878 -0.444014 5.07575 0.146899 -0.741063 -0.655169
-19.0355 -17.5035 11.8131 0.152427 0.236636 0.125576 -1 8.19043 0.0304059 3.45146 -0.792987 -0.558629 -0.243117
-17.0845 -17.4163 9.75125 0.224303 0.219408 0.0618687 -1 8.20839 0.999876 1.98191 0.00464454 -0.611645 -0.791119
-16.0744 -16.6863 9.843 0.216578 0.221618 0 -1 8.21494 0.773244 1.98191 0.565207 -0.335631 -0.753587
-15.3011 -6.19775 12.604 0.50108 -0.246907 -0.194779 -0.177778 8.21816 -0.206937 6.14672 -0.272386 -0.641142 -0.717456
-12.4315 -8.2485 13.1453 0.53482 -0.176777 0 -0.483678 8.24668 -0.394484 0.747944 0.145432 -0.269293 -0.952014
-11.244 -12.127 12.0522 -0.109208 0.139352 0 -0.777778 8.31493 0.314558 1.15611 0.665982 0.292855 -0.686079
-24.2787 -14.2273 15.3814 0.0961013 0.202878 -0.0270824 -0.164799 8.34516 0.0609397 4.01093 -0.187205 -0.581612 -0.791632
-16.9878 -6.00616 12.5084 0.16828 -0.339877 0 -0.177778 8.39144 -0.268516 6.14672 0.0390774 -0.970228 -0.23902
-20.324 -6.3865 14.3372 0.221022 -0.329853 0 1 8.47357 -0.999791 4.83854 0.499942 -0.811387 -0.302835
-12.1716 -9.38762 13.3766 0.192425 0.133556 -0.0349964 -0.858767 8.55758 -0.999812 0.747944 0.174566 0.148977 -0.97331
-21.936 -7.92137 12.5278 0.265757 -0.447987 0 -1 8.56907 -0.340597 4.83854 0.511917 -0.808369 0.290657
-12.997 -6.8425 12.0225 0.164346 -0.210535 0 -0.0888889 8.58075 0.101263 0.133442 -0.0988507 -0.649519 -0.753892
-25.0569 -9.07125 15.4163 0.127213 -0.11536 0 -0.177778 8.77819 -0.140422 4.31894 -0.546323 0.134883 -0.826643
-11.4605 -13.5615 11.6944 -0.0795003 0.194181 0 -0.777778 8.78144 0.999811 1.15611 0.788617 -0.285382 -0.544646
-19.5499 -17.8784 14.2705 0.181288 0.168423 0 -1 8.7913 -0.34644 3.45146 -0.904105 -0.189099 -0.383192
-18.6523 -6.01937 14.132 0.176105 -0.33282 0 0.0998822 8.85598 -0.501133 6.14672 0.0278223 -0.975824 -0.216778
-24.2743 -7.45813 13.5571 0.058323 0.215821 0 -1 8.89557 0.0498146 4.67708 -0.927345 -0.362319 -0.0935721
-25.9482 -10.5319 15.2934 0.119435 -0.0775823 0 -0.177778 8.94094 -0.207479 4.31894 -0.0906333 0.436551 -0.895103
-23.6983 -15.4121 15.7929 0.0480037 0.165431 0 -0.155556 8.9429 0.0976707 3.75127 -0.505832 -0.346783 -0.789858
-25.6367 -13.6027 14.3519 0.60449 0.182978 -0.0889253 -0.177778 8.96645 0.742521 4.31894 0.157091 -0.424198 -0.89184
-24.5421 -7.63413 14.8821 -0.0393823 0.161768 0 -0.177778 9.03065 -0.270768 4.31894 -0.897409 -0.127787 -0.422288
-26.1826 -11.346 14.5651 0.131163 -0.0906389 0 -0.177778 9.07266 0.334408 4.31894 0.187801 0.455244 -0.870336
-17.9685 -18.186 11.2349 0.240915 0.214583 0.715229 -1 9.13263 0.0839666 3.45146 -0.42107 -0.684467 -0.595151
-22.8726 -16.7812 15.842 -0.203905 0.166433 -0.523941 -0.155556 9.17338 0.298519 3.75127 -0.536079 -0.44307 -0.718546
-20.79 -7.24388 12.0931 0.140248 -0.462017 0 -0.610956 9.18578 -0.22274 4.83854 0.580424 -0.770568 0.263312
-22.8943 -9.02575 11.4333 0.362197 -0.44814 0 -1 9.2262 0.631109 4.83854 0.150304 -0.942415 0.298769
-10.486 -11.3888 12.7402 -0.537483 0.146559 -0.133567 -0.777778 9.41138 0.266172 0.747944 0.450092 -0.105326 -0.886749
-18.4757 -18.5233 12.208 0.291693 0.166655 0 -1 9.41897 -0.447021 3.45146 -0.711973 -0.297761 -0.63595
-11.4593 -7.06425 12.5245 0.36085 -0.182629 0 -0.534173 9.42162 -0.845022 0.133442 -0.0430158 -0.6673 -0.743546
-17.401 -6.03675 11.4762 0.108734 -0.369736 0 -0.16549 9.50369 -0.137755 6.14672 0.51537 -0.855702 0.0465509
-24.362 -7.525 11.982 0.235323 0.243367 0 -1 9.58996 0.0892188 4.83854 -0.886754 -0.400919 0.230069
-12.3375 -6.3815 11.3695 0.125123 -0.216779 0 -0.0888889 9.61703 -0.0946285 0.133442 -0.259074 -0.89831 -0.354851
-12.2097 -14.7964 12.0905 -0.172003 0.196419 0 -0.777778 9.6743 -0.077394 1.48876 0.467392 -0.461372 -0.754109
-10.7312 -12.692 13.1929 -0.33857 0.172454 0 -0.777778 9.68729 -0.782297 1.15611 0.79296 -0.188557 -0.579363
-21.7003 -17.7903 15.2955 -0.273078 0.199025 -0.653385 -0.155556 9.72174 0.673085 3.75127 -0.338865 -0.766095 -0.54614
-16.4518 -17.9608 11.0473 0.171789 0.207602 0 -1 9.74999 0.0744562 1.98191 0.361538 -0.527696 -0.768653
-19.2798 -18.357 13.0977 0.198775 0.168112 0 -1 9.75195 0.320299 3.45146 -0.919792 -0.196049 -0.339924
-20.213 -6.25775 13.0215 0.18907 -0.387579 0 -0.80846 9.80021 -0.856385 4.83854 0.370986 -0.88433 0.283425
-10.6073 -10.0638 12.9993 -0.544387 0.0975703 -0.00833951 -0.777778 9.81547 0.238591 0.747944 -0.00148864 0.236394 -0.971656
-18.333 -6.3345 12.108 0.091576 -0.41896 -0.120039 -0.0912609 9.83286 0.282037 6.14672 0.250826 -0.908366 0.3346
-20.121 -18.161 15.2113 0.20162 0.210344 -0.357758 -0.598756 9.88774 0.240349 3.75127 -0.555218 -0.796159 -0.24055
-14.7751 -16.7673 12.45 -0.0311044 0.212844 -0.00563068 -0.957004 9.90902 -0.99985 1.48876 0.518764 -0.437104 -0.734727
-24.2651 -8.96638 10.8674 0.19289 -0.306737 0 -1 9.94397 0.768214 4.83854 -0.64891 -0.734414 0.198877
-15.5204 -17.4001 11.7778 0.0933747 0.220037 0.00592891 -1 9.94783 -0.307753 1.48876 0.746641 -0.39578 -0.534683
-11.0767 -13.8383 12.7755 -0.120711 0.166808 0 -0.777778 9.96156 0.126826 1.15611 0.819549 -0.0684307 -0.568909
-24.4695 -6.49 14.027 -0.0499607 0.176713 0 -1 9.98927 -0.664869 4.67708 -0.972331 -0.202944 -0.1157
-13.6006 -5.50238 11.3686 0.099116 -0.196096 0 -0.0888889 10.0246 -0.327554 6.14672 -0.430903 -0.636383 -0.639796
-10.6558 -8.67522 13.3047 -0.123091 -0.133386 0 -0.710011 10.0799 -0.612036 0.747944 -0.176408 -0.207952 -0.9621
-25.1311 -14.8569 16.837 -0.00252388 0.168929 -0.589244 -0.170628 10.1456 -0.311806 4.01093 -0.561717 -0.619481 -0.548377
-13.3985 -16.0914 12.4439 -0.165299 0.211891 -0.416346 -0.701951 10.195 -0.33361 1.48876 0.338644 -0.620605 -0.707227
-19.1028 -6.053 12.8455 0.0926913 -0.387043 -0.218172 -0.149494 10.2195 -0.584342 6.14672 0.136644 -0.958058 0.251901
-19.1986 -19.2754 14.274 0.354793 0.174669 0 -1 10.2318 0.124039 3.45146 -0.92557 -0.359042 0.12004
-15.803 -4.925 11.1187 -0.006921 -0.249786 -0.811647 -0.177778 10.2375 -0.25577 6.14672 0.354256 -0.763653 -0.539757
-27.443 -11.1007 14.2665 0.0553523 -0.0576657 0 -0.177778 10.391 0.999909 4.31894 -0.248144 0.492462 -0.83421
-26.8141 -14.1469 15.035 -0.246588 0.180627 -0.846017 -0.177778 10.4324 0.790738 4.31894 -0.226286 -0.79144 -0.567819
-24.6031 -6.60281 12.3184 0.157184 0.198578 0 -1 10.4364 0.0425916 4.83854 -0.963841 -0.218366 0.152733
-17.6385 -19.39 11.624 0.31816 0.140414 0 -1 10.4403 0.302058 3.45146 -0.342342 -0.247706 -0.906336
-23.4648 -9.215 10.282 0.315044 -0.374442 0 -1 10.525 0.839958 4.83854 -0.116334 -0.992464 -0.0384874
-19.0397 -19.3747 12.6708 0.342933 0.125901 0 -1 10.5402 0.335111 3.45146 -0.877248 0.00784915 -0.479974
-27.2073 -12.3658 14.2268 0.0340617 0.12935 0 -0.177778 10.5574 0.656503 4.31894 -0.247566 -0.171873 -0.953505
-21.7401 -8.90375 10.7118 0.347503 -0.541678 0 -1 10.5928 0.945378 4.83854 0.36967 -0.912761 0.173817
-25.071 -6.36575 15.7308 -0.2382 0.133092 -0.294658 -1 10.6458 -0.033256 4.31894 -0.961125 -0.0348825 -0.2739
-25.3223 -7.353 16.2712 -0.112491 0.0897992 -0.533627 -0.177778 10.6485 -0.351625 4.31894 -0.751181 0.277511 -0.598928
-22.3715 -18.0075 16.6774 -0.194313 0.189922 -0.123332 -0.155556 10.7395 0.37083 3.75127 -0.178282 -0.902509 -0.392038
-24.6623 -7.54462 10.8359 0.407607 0.219851 0 -1 10.7749 0.314172 4.83854 -0.941904 -0.298514 0.153971
-27.7169 -10.416 15.7773 0.038209 0.038601 0 -0.177778 10.7783 0.246792 4.31894 -0.561029 0.661907 -0.497118
-26.873 -9.08488 16.3076 -0.24996 0.0578662 -0.251729 -0.177778 10.8013 0.346423 4.31894 -0.542181 0.464401 -0.700266
-19.261 -6.84125 11.6965 -0.243992 -0.473566 0 -0.0888889 10.8159 0.277998 4.83854 0.368084 -0.864345 0.342669
-20.3315 -7.74131 10.5953 0.199796 -0.529475 0.0211574 -0.577367 10.8293 -0.0744587 4.83854 0.524645 -0.768145 0.367016
-10.918 -6.34381 11.3474 0.0814103 -0.196237 0 -0.674742 10.9041 -0.585778 0.133442 -0.0343879 -0.954799 -0.295256
-17.8043 -6.68175 10.2825 0.213745 -0.416982 0 -0.0888889 10.9192 0.461547 6.14672 0.530315 -0.818463 0.221099
-10.1165 -13.3935 14.048 -0.266568 0.116847 0 -0.777778 10.9527 -0.77602 1.15611 0.385576 0.0616912 -0.920611
-26.7301 -14.3379 16.3348 -0.300498 0.187074 -0.798241 -0.177778 10.9778 0.122828 4.01093 -0.224134 -0.942859 -0.246537
-24.3081 -16.9456 17.0079 0.0212302 0.144586 0 -0.155556 10.9922 0.728925 3.75127 -0.668279 -0.464985 -0.580682
-20.1497 -17.8965 16.3142 0.295448 0.233969 -0.296341 -0.155556 11.0223 -0.0628917 3.75127 -0.0822094 -0.962594 0.258176
-14.9967 -17.985 12.6185 0.0984017 0.151468 0 -1 11.0981 -0.818762 1.48876 0.551546 -0.00227116 -0.834141
-23.6791 -17.8656 17.2634 0.00368843 0.158331 0 -0.155556 11.1347 0.999812 3.75127 -0.533953 -0.708084 -0.462072
-12.9268 -5.85825 10.0618 0.066468 -0.202418 0 -0.0888889 11.1438 0.523431 6.14672 -0.698661 -0.694381 -0.17236
-12.061 -6.426 9.85625 0.0687357 -0.22106 0 -0.0888889 11.156 0.594472 0.133442 -0.196044 -0.978588 -0.0627064
-15.7309 -18.8997 11.833 0.126668 0.131761 0.870851 -1 11.1707 0.121056 1.48876 0.495304 0.103235 -0.862564
-10.5662 -14.6614 13.4996 -0.0944873 0.116258 0 -0.777778 11.1709 -0.607692 1.15611 0.587418 0.223629 -0.777773
-16.6225 -19.2935 11.544 0.193745 0.14346 0.187711 -1 11.1824 0.237949 1.98191 0.0681923 -0.229687 -0.970873
-24.6496 -5.57312 13.2814 0.0897943 -0.184023 0 -1 11.1847 -0.357939 4.67708 -0.915522 -0.399765 -0.0448003
-12.4464 -16.3261 12.8144 -0.071511 0.144085 0 -0.377196 11.2432 -0.513734 1.48876 -0.0102562 -0.234887 -0.971969
-13.537 -16.9993 13.0068 -0.0490217 0.149443 0 -0.155556 11.2721 -0.721346 1.48876 0.0766716 -0.213076 -0.974023
-25.93 -14.7115 17.6225 -0.0243793 0.166206 -0.81524 -0.177778 11.2754 -0.872975 4.01093 -0.337197 -0.789396 -0.512984
-9.68125 -7.01875 11.9342 0.185112 -0.150344 0 -0.777778 11.2957 -0.71361 0.133442 -0.393483 -0.648419 -0.651709
-8.95475 -10.2674 13.0433 -0.145372 0.135057 -0.348853 -0.777778 11.3334 -0.051276 0.747944 -0.123949 -0.443875 -0.887475
-24.3194 -8.68213 9.49525 0.312904 -0.269776 0 -1 11.3463 0.446673 4.83854 -0.684471 -0.726125 -0.0651303
-24.994 -5.30963 14.6462 -0.180587 0.153102 -0.692479 -1 11.4104 -0.0334196 4.31894 -0.963333 -0.239604 -0.120742
-9.33337 -12.2767 14.1205 -0.278701 0.130401 -0.396131 -0.777778 11.4155 -0.650019 0.747944 0.303109 -0.244857 -0.920962
-18.7972 -18.3533 16.0192 0.131348 0.224371 0 -1 11.4505 -0.0714446 3.75127 -0.319749 -0.725159 0.60984
-9.599 -7.886 12.478 0.0152166 -0.138419 0 -0.777778 11.4559 -0.714466 0.747944 -0.444608 -0.470896 -0.761958
-17.1159 -5.79738 9.5235 0.256873 -0.303126 0 -0.160835 11.4916 0.0971588 6.14672 0.853315 -0.519417 -0.0453887
-8.79275 -11.3438 13.9897 -0.174024 0.135246 -0.196536 -0.888956 11.5162 -0.943984 0.747944 0.194507 -0.423554 -0.884742
-18.991 -20.5486 14.2711 0.34881 0.155314 0 -1 11.5218 0.301148 3.45146 -0.904689 -0.282407 0.319035
-14.4446 -4.32575 10.8495 -0.113263 -0.202573 -0.487567 -0.132564 11.5628 -0.99988 6.14672 -0.216204 -0.790347 -0.573243
-15.2399 -4.01038 10.1786 0.048477 -0.218681 0.0615469 -0.0972704 11.6649 -0.428873 6.14672 0.0501641 -0.892009 -0.449225
-23.27 -9.02525 9.075 0.108075 -0.348456 0 -1 11.7622 0.324712 4.83854 -0.0507863 -0.993967 -0.0972104
-21.3273 -8.8025 9.55481 0.264206 -0.508288 0 -1 11.8254 -0.0240967 4.83854 0.2227 -0.958482 0.178095
-13.6392 -18.2104 13.0052 -0.108585 0.104328 0 -0.155556 11.8276 -0.964705 1.48876 0.0598922 0.12674 -0.990126
-25.0672 -5.18225 15.6625 -0.299425 0.129875 -0.00553489 -1 11.8313 0.0624215 4.31894 -0.999723 0.0152582 -0.0179421
-21.097 -17.8819 17.3271 -0.149848 0.210791 -0.138866 -0.155556 11.843 -0.154056 3.75127 0.25498 -0.965425 -0.0542275
-24.8995 -7.225 9.8345 0.408823 0.181825 0.100114 -1 11.8525 0.252499 4.83854 -0.992452 -0.112955 0.0477527
3 116 185 141
3 112 141 151
3 160 199 184
3 194 195 156
3 161 162 113
3 86 83 116
3 87 86 112
3 116 112 86
3 126 151 160
3 138 184 153
3 194 153 184
3 121 106 87
3 155 117 115
3 115 117 81
3 84 83 56
3 84 56 53
3 64 33 56
3 53 56 33
3 120 76 106
3 120 133 104
3 135 133 163
3 120 163 133
3 164 120 106
3 156 195 164
3 102 70 114
3 71 115 81
3 53 33 71
3 54 71 33
3 54 35 65
3 35 33 17
3 35 17 25
3 25 17 11
3 11 17 3
3 12 16 5
3 16 14 5
3 5 14 13
3 14 16 28
3 45 47 79
3 79 47 80
3 95 104 111
3 111 103 74
3 125 103 135
3 135 163 125
3 135 103 146
3 103 125 148
3 189 148 125
3 99 103 148
3 168 115 102
3 70 92 114
3 119 114 92
3 43 70 65
3 35 25 43
3 37 25 15
3 15 36 37
3 36 15 21
3 3 21 15
3 0 1 4
3 10 22 32
3 1 5 10
3 51 50 32
3 32 46 51
3 148 142 99
3 99 142 78
3 78 142 107
3 169 119 172
3 159 172 119
3 170 130 136
3 170 136 187
3 187 136 147
3 136 130 93
3 136 93 110
3 147 110 132
3 92 70 93
3 66 70 43
3 36 41 48
3 9 23 21
3 2 3 0
3 23 19 34
3 34 19 20
3 18 34 20
3 38 18 40
3 40 18 24
3 4 8 18
3 8 24 18
3 32 62 42
3 24 42 55
3 62 100 105
3 100 50 78
3 124 78 107
3 107 127 124
3 127 107 142
3 174 127 173
3 142 173 127
3 127 174 165
3 132 154 147
3 191 147 154
3 61 41 23
3 58 38 49
3 38 60 77
3 94 122 101
3 122 186 129
3 122 129 101
3 101 129 109
3 134 183 122
3 134 105 143
3 188 124 182
3 123 154 132
3 123 132 96
3 132 110 96
3 96 110 72
3 96 72 82
3 82 72 48
3 88 82 61
3 123 118 152
3 123 152 154
3 152 118 131
3 152 131 177
3 131 97 98
3 131 98 139
3 98 68 58
3 109 89 85
3 85 89 55
3 128 109 140
3 77 128 90
3 145 90 128
3 179 145 128
3 57 39 31
3 3 17 12
3 117 161 113
3 108 158 116
3 116 158 157
3 112 116 141
3 151 141 178
3 178 141 185
3 113 162 108
3 113 108 84
3 84 108 83
3 83 86 64
3 87 64 86
3 56 83 64
3 59 64 87
3 53 81 84
3 84 81 113
3 113 81 117
3 71 81 53
3 17 16 12
3 16 17 29
3 29 17 33
3 29 33 64
3 29 64 59
3 28 16 29
3 28 29 47
3 47 29 59
3 76 47 59
3 106 76 87
3 87 76 59
3 79 80 104
3 104 80 76
3 104 76 120
3 76 80 47
3 133 111 104
3 146 111 133
3 146 133 135
3 164 163 120
3 115 150 155
3 65 70 102
3 65 102 71
3 65 71 54
3 71 102 115
3 0 3 5
3 5 3 12
3 10 5 13
3 22 10 13
3 22 13 31
3 22 31 39
3 27 13 14
3 13 27 31
3 45 30 28
3 30 45 44
3 28 30 14
3 14 30 27
3 27 30 44
3 27 44 31
3 75 63 44
3 63 75 95
3 95 75 79
3 45 79 44
3 44 63 31
3 44 79 75
3 104 95 79
3 74 46 91
3 111 74 91
3 111 91 95
3 95 91 63
3 63 91 57
3 57 91 46
3 57 46 39
3 51 46 73
3 99 73 103
3 74 103 73
3 74 73 46
3 193 192 148
3 168 144 181
3 168 102 144
3 144 102 114
3 144 114 169
3 119 169 114
3 25 37 43
3 10 4 1
3 50 51 73
3 50 73 99
3 78 50 99
3 192 142 148
3 110 147 136
3 66 93 70
3 66 43 37
3 36 48 37
3 23 9 19
3 34 18 38
3 26 24 8
3 26 10 32
3 10 26 8
3 10 8 4
3 42 24 26
3 42 26 32
3 69 55 42
3 69 42 62
3 94 69 105
3 105 69 62
3 124 143 100
3 100 143 105
3 100 78 124
3 127 165 124
3 165 182 124
3 67 72 110
3 66 67 93
3 93 67 110
3 37 48 72
3 37 72 67
3 37 67 66
3 49 38 77
3 140 109 129
3 176 129 167
3 129 186 167
3 190 186 122
3 122 183 190
3 143 183 134
3 124 188 143
3 88 118 96
3 88 96 82
3 96 118 123
3 175 177 131
3 139 175 131
3 171 175 139
3 137 171 139
3 90 137 139
3 49 77 90
3 49 90 58
3 128 77 89
3 109 128 89
3 145 180 137
3 145 137 90
3 171 137 196
3 196 137 180
3 179 180 145
3 31 63 57
3 197 185 157
3 157 185 116
3 158 108 162
3 83 108 116
3 87 112 126
3 126 112 151
3 87 126 138
3 160 138 126
3 160 184 138
3 87 138 121
3 121 138 153
3 156 153 194
3 153 156 121
3 121 156 106
3 149 161 117
3 149 117 155
3 106 156 164
3 35 54 33
3 28 47 45
3 146 103 111
3 189 125 166
3 163 166 125
3 115 168 150
3 43 65 35
3 25 11 15
3 3 15 11
3 5 1 0
3 22 39 46
3 22 46 32
3 130 92 93
3 170 198 130
3 159 130 198
3 159 119 130
3 119 92 130
3 21 23 41
3 36 21 41
3 3 2 9
3 3 9 21
3 7 20 19
3 7 19 9
3 7 9 2
3 4 18 6
3 4 6 0
3 0 6 2
3 2 6 7
3 7 6 20
3 18 20 6
3 32 50 62
3 100 62 50
3 41 52 48
3 52 41 61
3 34 58 68
3 34 68 61
3 34 61 23
3 34 38 58
3 40 60 38
3 60 40 55
3 40 24 55
3 69 94 55
3 105 134 94
3 94 134 122
3 82 48 52
3 61 82 52
3 61 97 88
3 88 97 118
3 118 97 131
3 68 98 97
3 68 97 61
3 98 58 90
3 98 90 139
3 55 89 60
3 60 89 77
3 109 85 101
3 85 55 101
3 101 55 94
3 129 176 140
