ply
format ascii 1.0
comment Generated by PyMesh
element vertex 200
property float x
property float y
property float z
property float charge
property float ddc
property float hbond
property float hphob
property float rho
property float si
property float theta
property float nx
property float ny
property float nz
element face 348
property list uchar int vertex_indices
end_header
-15.3629 -10.7626 12.8304 0.136983 0 -0.394883 -0.790553 1e-08 -0.999862 2.22045e-16 -0.332311 0.671036 -0.662782
-14.5136 -10.6986 12.1084 0.0093171 0.207053 -0.611101 -0.794638 1.11655 0.104646 5.32978 -0.118791 0.560971 -0.819268
-16.3521 -11.4514 11.8585 -0.0251259 -0.246673 0 -0.892942 1.5484 -0.62583 0.844486 0.0602094 0.903033 -0.42533
-16.8458 -10.3915 13.2823 0.230086 -0.0904415 0 -0.901769 1.59403 -0.277064 2.10286 -0.0914488 0.806767 -0.58375
-15.234 -11.3053 11.3237 -0.52401 -0.184058 -0.342352 -0.777778 1.60664 0.190645 2.22045e-16 -0.100538 0.894178 -0.436278
-15.4358 -9.10581 13.2952 0.96659 -0.31338 0 -0.866667 1.7223 -0.179197 3.39095 -0.419749 0.28432 -0.861959
-13.842 -9.499 12.3448 0.385083 0.331605 0.846334 -0.866667 2.51153 0.583064 4.49508 0.114291 0.198146 -0.973486
-17.2897 -10.9758 11.8864 0.274118 -0.268702 0 -1 2.6001 0.0577259 1.25363 0.307248 0.871201 -0.382894
-16.9587 -9.418 13.788 0.235878 0.263399 0 -0.866667 2.69683 0.382773 2.58625 -0.698075 0.434666 -0.568996
-12.9963 -10.7945 12.6664 -0.0510023 0.254878 0.0462799 -0.793793 2.73605 -0.562432 5.03037 0.319079 0.427744 -0.845709
-14.9095 -11.794 10.3015 -0.38135 0.137002 -0.0268627 -0.777778 2.7852 0.773584 6.23527 0.13334 0.56375 -0.815111
-18.04 -10.3495 12.4425 0.180204 -0.148635 0 -1 3.05455 0.790245 1.6061 -0.0188837 0.93446 -0.355567
-14.5334 -8.09988 12.9789 1 -0.327966 0 -0.866667 3.1102 0.0769332 3.79567 -0.416646 -0.127902 -0.900026
-15.4591 -7.77588 13.7755 0.861067 -0.256279 0.088854 -0.773651 3.13649 -0.734937 3.45811 -0.501152 0.0173468 -0.865186
-16.3331 -11.9799 10.336 0.035176 -0.152511 -0.599444 -0.798871 3.16013 0.0823546 0.443645 0.25465 0.623967 -0.738795
-13.0511 -12.0589 11.1349 -0.266539 0.167387 0 -0.777778 3.33849 0.257586 5.64897 0.334992 0.609531 -0.718507
-18.3009 -10.4878 14.4353 0.217073 0.141063 0 -1 3.45306 -0.36447 2.17395 -0.351694 0.898683 -0.262068
-16.4895 -7.686 14.14 0.249945 -0.267039 0 -0.866667 3.68185 0.0837004 3.12613 -0.666855 -0.076441 -0.741257
-16.891 -8.604 14.5685 0.296941 0.294835 0 -0.866667 3.82659 -0.637084 2.78968 -0.911108 0.276913 -0.30529
-19.2892 -10.6217 13.267 0.17298 0.12369 0 -1 4.04829 0.330198 1.7843 -0.334676 0.910521 -0.242781
-11.7086 -11.227 12.6416 -0.43896 0.118663 -0.835421 -0.777778 4.09466 -0.400173 5.11065 0.155044 0.504703 -0.849256
-13.9409 -12.787 10.2555 -0.370037 0.23636 0 -0.777778 4.17313 0.999792 6.01706 0.321426 0.100952 -0.941538
-17.0565 -12.6155 9.80875 0.217744 0.206142 0 -1 4.25799 0.619101 0.55996 0.274633 0.11672 -0.954439
-18.9442 -11.0352 11.6637 0.331355 0.0969599 0 -1 4.27058 0.380992 1.38536 -0.371316 0.846535 -0.381449
-15.8385 -6.69825 13.663 0.586543 -0.314937 0.523724 -0.177778 4.28448 -0.999858 3.39523 -0.370887 -0.574621 -0.729557
-15.6134 -13.1465 10.1267 -0.0775537 0.235768 -0.157177 -0.941284 4.3199 0.300933 0.165378 0.135047 0.00100278 -0.990839
-17.4824 -9.63325 15.3156 0.240497 0.186503 0 -0.866667 4.32599 -0.876771 2.51946 -0.740196 0.487666 -0.462917
-13.3403 -7.75063 12.6695 0.488417 -0.350669 0 -0.477887 4.39129 0.309244 4.03182 -0.078355 -0.532924 -0.842527
-17.642 -11.1625 10.057 0.112985 -0.0685527 0 -1 4.47245 0.999901 0.860447 0.0708431 0.739224 -0.669724
-12.1716 -9.38762 13.3766 0.192425 0.210564 -0.0349964 -0.858767 4.47807 -0.999812 4.65501 0.174566 0.148977 -0.97331
-18.4521 -10.3144 15.4754 0.193447 0.0733623 0 -0.944124 4.5183 -0.902786 2.29088 -0.275903 0.864479 -0.420183
-19.324 -10.4045 14.811 0.166069 -0.120349 0 -1 4.54614 -0.157377 2.07265 0.125617 0.949726 -0.286775
-12.4315 -8.2485 13.1453 0.53482 -0.279497 0 -0.483678 4.55947 -0.394484 4.36153 0.145432 -0.269293 -0.952014
-11.7505 -12.7638 11.138 -0.053411 0.20933 0 -0.777778 4.81784 0.999888 5.57792 0.546991 0.154282 -0.822799
-17.0045 -6.579 13.7055 0.209189 -0.337999 0.0484967 -0.177778 4.97779 0.0532711 3.22797 -0.372483 -0.798344 -0.473185
-17.0825 -7.7875 15.585 0.30018 -0.233511 0 -0.191002 5.1444 -0.858649 2.85723 -0.834138 -0.0571497 -0.548587
-15.3011 -6.19775 12.604 0.50108 -0.299722 -0.194779 -0.177778 5.19539 -0.206937 3.63779 -0.272386 -0.641142 -0.717456
-13.0988 -13.906 10.6888 -0.210775 0.258158 0 -0.777778 5.2393 0.412374 5.79981 0.488421 -0.186139 -0.852524
-11.244 -12.127 12.0522 -0.109208 0.214748 0 -0.777778 5.26652 0.314558 5.34888 0.665982 0.292855 -0.686079
-17.3151 -13.7944 9.69925 0.0670877 0.167184 0 -1 5.31934 0.114218 0.450647 0.128148 0.0611198 -0.98987
-10.486 -11.3888 12.7402 -0.537483 0.21612 -0.133567 -0.777778 5.33186 0.266172 5.13238 0.450092 -0.105326 -0.886749
-15.3027 -14.1698 10.387 -0.152064 0.239019 -0.207425 -0.777778 5.42055 -0.550768 0.110529 0.210353 -0.150234 -0.966013
-18.0872 -12.0767 9.72775 0.317003 0.127798 0 -1 5.42384 0.721577 0.843586 -0.144112 0.253934 -0.956425
-12.997 -6.8425 12.0225 0.164346 -0.296595 0 -0.0888889 5.55798 0.101263 4.02139 -0.0988507 -0.649519 -0.753892
-20.5223 -11.3789 13.7464 0.202422 0.0705571 0 -1 5.57267 -0.702519 1.7325 -0.520897 0.660354 -0.540924
-19.343 -10.0887 16.0842 0.0367197 -0.0903685 0 -0.959427 5.6207 -0.999899 2.23358 0.269278 0.796883 -0.540802
-18.3202 -13.137 9.70988 0.36375 0.159716 0 -1 5.62864 0.60542 0.688963 -0.0848291 0.0187486 -0.996219
-20.4439 -10.5723 14.3776 0.139374 -0.00991568 0 -1 5.65117 0.0620823 1.89558 -0.1757 0.687899 -0.704219
-18.8921 -11.6245 10.3421 0.378147 0.089726 0 -1 5.71855 0.788944 1.07463 -0.543557 0.608633 -0.578024
-10.6073 -10.0638 12.9993 -0.544387 0.125105 -0.00833951 -0.777778 5.73596 0.238591 4.88353 -0.00148864 0.236394 -0.971656
-20.0719 -11.826 12.3647 0.259031 0.113341 0 -1 5.7445 0.068851 1.4916 -0.660231 0.616466 -0.429027
-11.4605 -13.5615 11.6944 -0.0795003 0.284112 0 -0.777778 5.83273 0.999811 5.58594 0.788617 -0.285382 -0.544646
-17.911 -6.2715 15.196 0.204766 -0.262221 0 1 5.94825 -0.999889 3.04195 -0.413333 -0.739608 -0.531165
-20.4977 -9.66825 15.1231 0.138002 -0.113672 -0.771219 -0.31148 5.96636 0.0933316 1.92656 0.461489 0.593141 -0.659705
-18.8542 -9.37125 16.6077 0.147958 -0.0854365 0 -0.866667 6.04582 -0.774815 2.23358 -0.0286449 0.379911 -0.924579
-16.9878 -6.00616 12.5084 0.16828 -0.349639 0 -0.177778 6.05451 -0.268516 3.22797 0.0390774 -0.970228 -0.23902
-13.9121 -14.6616 10.49 -0.52379 0.238631 0 -0.777778 6.06256 0.655903 5.79981 0.279298 -0.289262 -0.915598
-10.6558 -8.67522 13.3047 -0.123091 -0.189182 0 -0.710011 6.15447 -0.612036 4.88353 -0.176408 -0.207952 -0.9621
-17.8437 -7.97316 16.2629 0.254598 -0.195786 0 0.717809 6.18047 -0.731524 2.85723 -0.424628 -0.21275 -0.880016
-16.2515 -14.8927 10.0135 0.14685 0.184386 0 -1 6.18248 -0.222322 0.110529 0.41567 0.0408365 -0.908598
-11.4593 -7.06425 12.5245 0.36085 -0.25999 0 -0.534173 6.21266 -0.845022 4.02139 -0.0430158 -0.6673 -0.743546
-21.4137 -11.8073 13.9376 0.0435247 0.0748288 -0.314608 -1 6.57998 -0.144449 1.7325 -0.545339 0.442209 -0.712079
-12.3375 -6.3815 11.3695 0.125123 -0.299678 0 -0.0888889 6.59425 -0.0946285 4.02139 -0.259074 -0.89831 -0.354851
-10.7312 -12.692 13.1929 -0.33857 0.265267 0 -0.777778 6.63889 -0.782297 5.34888 0.79296 -0.188557 -0.579363
-20.1265 -9.2905 16.176 0.276374 -0.154175 -0.870462 -0.262424 6.74294 -0.889417 2.23358 0.611254 0.245662 -0.752342
-18.6523 -6.01937 14.132 0.176105 -0.299228 0 0.0998822 6.76953 -0.501133 3.04195 0.0278223 -0.975824 -0.216778
-19.4224 -12.7526 9.99325 0.243005 0.108757 0 -1 6.82985 0.845049 0.688963 -0.537361 0.287897 -0.79269
-19.252 -13.9431 9.88231 0.24191 0.122304 0 -1 6.87274 0.0174677 0.688963 -0.230642 0.0821338 -0.969566
-21.5238 -10.0594 14.7436 0.0140825 -0.113822 0 -0.302471 6.90145 -0.347971 1.92656 0.230592 0.180458 -0.95617
-13.6006 -5.50238 11.3686 0.099116 -0.241377 0 -0.0888889 7.00179 -0.327554 4.02139 -0.430903 -0.636383 -0.639796
-11.0767 -13.8383 12.7755 -0.120711 0.241991 0 -0.777778 7.01286 0.126826 5.58594 0.819549 -0.0684307 -0.568909
-21.164 -12.614 12.603 0.138973 0.140975 0 -1 7.11213 0.670374 1.4916 -0.847744 0.221375 -0.481999
-18.7805 -6.90188 15.6709 0.205645 -0.254953 0 1 7.12254 -0.444014 3.04195 0.146899 -0.741063 -0.655169
-12.2097 -14.7964 12.0905 -0.172003 0.261383 0 -0.777778 7.12293 -0.077394 5.58594 0.467392 -0.461372 -0.754109
-17.401 -6.03675 11.4762 0.108734 -0.350722 0 -0.16549 7.16676 -0.137755 3.22797 0.51537 -0.855702 0.0465509
-15.803 -4.925 11.1187 -0.006921 -0.259864 -0.811647 -0.177778 7.21477 -0.25577 3.63779 0.354256 -0.763653 -0.539757
-8.95475 -10.2674 13.0433 -0.145372 0.185093 -0.348853 -0.777778 7.25387 -0.051276 4.88353 -0.123949 -0.443875 -0.887475
-17.221 -15.7148 9.389 -0.0800823 0.134374 0 -1 7.26692 0.657691 0.450647 0.133318 0.00501467 -0.991061
-14.7806 -15.9108 10.7155 0.0091696 0.247638 -0.03043 -0.793104 7.2676 0.290366 0.110529 0.538949 -0.461817 -0.704457
-9.33337 -12.2767 14.1205 -0.278701 0.174986 -0.396131 -0.777778 7.33739 -0.650019 5.13238 0.303109 -0.244857 -0.920962
-21.2502 -8.50362 14.8431 -0.296657 -0.182526 -0.838733 -0.177778 7.38094 -0.200459 1.92656 0.671974 -0.133546 -0.728434
-8.79275 -11.3438 13.9897 -0.174024 0.183082 -0.196536 -0.888956 7.4367 -0.943984 5.13238 0.194507 -0.423554 -0.884742
-20.6022 -13.328 11.6995 0.196928 0.175946 0.638818 -1 7.47068 0.109021 1.4916 -0.936276 0.084451 -0.340963
-18.333 -6.3345 12.108 0.091576 -0.364695 -0.120039 -0.0912609 7.49593 0.282037 3.22797 0.250826 -0.908366 0.3346
-19.545 -7.992 16.6395 0.294261 -0.186422 -0.347605 0.404067 7.58872 -0.999927 2.23358 0.269309 -0.335886 -0.902581
-10.918 -6.34381 11.3474 0.0814103 -0.267934 0 -0.674742 7.69509 -0.585778 4.02139 -0.0343879 -0.954799 -0.295256
-9.599 -7.886 12.478 0.0152166 -0.190481 0 -0.777778 7.71111 -0.714466 4.88353 -0.444608 -0.470896 -0.761958
-22.4034 -11.3806 14.4312 -0.278896 0.110053 -0.752668 -1 7.7654 0.124264 1.7325 -0.279148 -0.00970253 -0.960199
-21.7095 -13.0495 13.7542 0.152812 0.146443 0 -1 7.87002 0.262136 1.7325 -0.650328 -0.14921 -0.744856
-10.1165 -13.3935 14.048 -0.266568 0.151046 0 -0.777778 7.90425 -0.77602 5.34888 0.385576 0.0616912 -0.920611
-16.0744 -16.6863 9.843 0.216578 0.194334 0 -1 7.99285 0.773244 0.110529 0.565207 -0.335631 -0.753587
-8.998 -8.733 12.5118 -0.0739477 -0.172896 0 -0.777778 7.99304 -0.787732 4.88353 -0.600919 -0.349797 -0.718706
-20.2196 -13.3044 10.6401 0.211921 0.12162 0.264241 -1 7.99536 0.53074 1.4916 -0.761396 0.321536 -0.56293
-19.9643 -14.9095 9.72375 0.159746 0.110605 0 -1 8.0837 0.806655 0.688963 -0.551402 0.0766464 -0.830711
-9.68125 -7.01875 11.9342 0.185112 -0.202548 0 -0.777778 8.08669 -0.71361 4.02139 -0.393483 -0.648419 -0.651709
-12.9268 -5.85825 10.0618 0.066468 -0.259224 0 -0.0888889 8.12106 0.523431 4.02139 -0.698661 -0.694381 -0.17236
-19.1028 -6.053 12.8455 0.0926913 -0.32295 -0.218172 -0.149494 8.13304 -0.584342 3.04195 0.136644 -0.958058 0.251901
-12.061 -6.426 9.85625 0.0687357 -0.291023 0 -0.0888889 8.1332 0.594472 4.02139 -0.196044 -0.978588 -0.0627064
-18.377 -16.4015 9.718 0.0589217 0.139038 0 -1 8.13447 0.246763 0.450647 -0.184434 -0.220216 -0.957856
-21.0245 -13.6438 12.84 0.182942 0.201506 0 -1 8.17802 0.235309 1.4916 -0.882519 -0.299105 -0.362899
-10.5662 -14.6614 13.4996 -0.0944873 0.147986 0 -0.777778 8.22216 -0.607692 5.58594 0.587418 0.223629 -0.777773
-20.0229 -7.55125 15.8363 0.178879 -0.208649 -0.317033 0.147612 8.34219 -0.207275 3.04195 0.562908 -0.387783 -0.729903
-20.324 -6.3865 14.3372 0.221022 -0.253082 0 1 8.49332 -0.999791 3.04195 0.499942 -0.811387 -0.302835
-14.4446 -4.32575 10.8495 -0.113263 -0.223368 -0.487567 -0.132564 8.54005 -0.99988 4.02139 -0.216204 -0.790347 -0.573243
-17.8043 -6.68175 10.2825 0.213745 -0.35498 0 -0.0888889 8.58224 0.461547 3.22797 0.530315 -0.818463 0.221099
-8.76912 -13.3918 14.2046 0.0184744 0.0805252 0 -1 8.58995 -0.796202 5.13238 -0.175225 0.221379 -0.959316
-19.261 -6.84125 11.6965 -0.243992 -0.347133 0 -0.0888889 8.63052 0.277998 3.22797 0.368084 -0.864345 0.342669
-21.5989 -7.74388 13.9134 0.105045 -0.243685 -0.0787328 -0.922018 8.63119 -0.280303 1.92656 0.659801 -0.707421 -0.253412
-15.2399 -4.01038 10.1786 0.048477 -0.226963 0.0615469 -0.0972704 8.64215 -0.428873 3.63779 0.0501641 -0.892009 -0.449225
-20.213 -6.25775 13.0215 0.18907 -0.293977 0 -0.80846 8.69977 -0.856385 3.04195 0.370986 -0.88433 0.283425
-22.3465 -8.49375 14.0885 -0.068124 -0.190268 0 -0.177778 8.71187 -0.569041 1.92656 0.588423 -0.468957 -0.658663
-7.6325 -10.8682 13.6713 0.036259 0.170182 0.490042 -0.995589 8.73044 -0.999878 4.88353 -0.285211 -0.591521 -0.75416
-7.59244 -11.8614 13.9519 0.163901 -0.10414 0.944132 -1 8.74441 -0.776902 5.13238 -0.370217 -0.0339792 -0.928324
-8.79925 -7.947 11.7245 -0.0488977 -0.164183 0 -0.777778 8.8116 0.277138 4.88353 -0.539989 -0.402606 -0.739134
-12.4464 -16.3261 12.8144 -0.071511 0.16246 0 -0.377196 8.83175 -0.513734 5.58594 -0.0102562 -0.234887 -0.971969
-16.623 -4.8675 9.69606 0.265922 -0.240721 0.0800778 -0.132375 8.85782 -0.580168 3.63779 0.79169 -0.538524 -0.288476
-13.5747 -4.53587 9.77962 0.055301 -0.218193 0 -0.0888889 8.86181 -0.568209 4.02139 -0.68619 -0.688193 -0.235655
-13.3985 -16.0914 12.4439 -0.165299 0.253124 -0.416346 -0.701951 8.91602 -0.33361 5.58594 0.338644 -0.620605 -0.707227
-20.6695 -7.0855 15.0363 0.123762 -0.217436 -0.585066 -0.0157454 8.92548 -0.757273 1.92656 0.67072 -0.488536 -0.558093
-7.29313 -10.458 12.7794 -0.092495 -0.185119 0 -0.777778 8.94708 -0.223863 4.88353 -0.312423 -0.761019 -0.568543
-23.149 -9.1075 13.7925 0.056889 -0.153556 0 -0.177778 9.01142 0.219697 1.92656 -0.118113 -0.489313 -0.864073
-17.0845 -17.4163 9.75125 0.224303 0.179805 0.0618687 -1 9.0119 0.999876 0.450647 0.00464454 -0.611645 -0.791119
-19.8773 -15.9108 9.7025 0.197117 0.150763 0 -1 9.089 0.926023 0.688963 -0.574519 -0.335193 -0.746708
-20.7668 -14.7948 10.9923 0.247308 0.173569 0.194633 -1 9.10736 0.816357 1.4916 -0.989371 -0.0093741 -0.14511
-20.2013 -14.7099 12.4825 0.293527 0.246974 0 -1 9.10881 -0.319494 1.4916 -0.897953 -0.43703 0.0518187
-8.01056 -9.44756 11.6484 -0.0895143 -0.165564 0 -0.777778 9.12721 0.576689 4.88353 -0.471068 -0.490435 -0.73319
-17.1159 -5.79738 9.5235 0.256873 -0.278237 0 -0.160835 9.15463 0.0971588 3.63779 0.853315 -0.519417 -0.0453887
-23.7349 -11.4009 14.8865 0.126947 0.0938933 0.0924512 -0.301224 9.17274 -0.348377 1.7325 -0.20439 -0.0241314 -0.978592
-14.7751 -16.7673 12.45 -0.0311044 0.224208 -0.00563068 -0.957004 9.20205 -0.99985 0.110529 0.518764 -0.437104 -0.734727
-22.7603 -12.7945 14.5735 -0.147878 0.120352 -0.0295089 -1 9.22665 -0.0751467 1.7325 -0.444675 -0.157526 -0.881731
-11.9108 -6.32387 8.77262 0.0522473 -0.236036 0 -0.0888889 9.23195 0.999847 4.02139 -0.348543 -0.871239 -0.345631
-15.5204 -17.4001 11.7778 0.0933747 0.216812 0.00592891 -1 9.24087 -0.307753 0.110529 0.746641 -0.39578 -0.534683
-9.321 -14.4572 13.7595 -0.0576607 0.0768692 0 -1 9.26348 -0.185821 5.58594 -0.0346642 0.281962 -0.958799
-23.42 -10.2725 14.429 0.0938083 0.128359 0 -0.177778 9.26918 0.153012 1.7325 -0.470196 -0.275288 -0.83853
-9.37288 -6.32125 10.879 -0.241774 -0.194769 0 -0.777778 9.3098 -0.0339969 4.02139 0.00891663 -0.765131 -0.643813
-20.9441 -14.2774 14.1104 0.392027 0.201632 0 -1 9.36013 -0.459495 1.7325 -0.656228 -0.535194 -0.531913
-13.1315 -5.173 8.925 0.0186621 -0.208946 0 -0.0888889 9.46411 0.513889 4.02139 -0.755563 -0.598811 -0.265611
-18.6355 -17.4405 10.5407 0.216114 0.192092 0.333194 -1 9.48472 0.414409 0.450647 -0.403905 -0.746356 -0.528973
-10.4118 -6.27056 9.62613 0.105906 -0.243841 0 -0.0888889 9.49074 0.377422 4.02139 0.23397 -0.959916 -0.154338
-22.695 -13.8725 14.969 0.0611497 0.132733 0 -0.440453 9.63758 -0.541795 1.7325 -0.371655 -0.333765 -0.866299
-10.3792 -16.5362 12.591 -0.00271645 0.0730969 0 -0.155556 9.69745 0.132906 5.58594 0.210179 0.393611 -0.894928
-15.8931 -3.66613 9.317 0.0168946 -0.217483 0.787115 -0.16315 9.77684 -0.999886 3.63779 0.474484 -0.829969 -0.293286
-16.4518 -17.9608 11.0473 0.171789 0.182337 0 -1 9.78648 0.0744562 0.110529 0.361538 -0.527696 -0.768653
-20.5179 -15.9096 11.1258 0.35212 0.195467 0 -1 9.89269 0.860416 0.688963 -0.938621 -0.344245 -0.0220189
-23.8135 -12.9655 14.8745 0.151873 0.106807 0.27264 -0.393071 9.93261 -0.0725685 1.7325 -0.0165388 -0.164178 -0.986292
-9.37206 -15.923 13.4043 -0.00471173 0.0736483 0 -0.155556 9.9619 -0.611472 5.58594 0.234563 0.378624 -0.895335
-19.7464 -17.0767 10.7243 0.504503 0.196734 0.826967 -1 9.96308 0.999866 0.450647 -0.631306 -0.724487 -0.276715
-13.537 -16.9993 13.0068 -0.0490217 0.156702 0 -0.155556 9.9932 -0.721346 5.58594 0.0766716 -0.213076 -0.974023
-17.4675 -6.8385 8.893 0.0557223 -0.304931 0 -0.0888889 10.0205 0.738786 3.22797 0.745376 -0.6652 0.0438689
-21.936 -7.92137 12.5278 0.265757 -0.269796 0 -1 10.0682 -0.340597 1.92656 0.511917 -0.808369 0.290657
-23.98 -8.416 14.069 0.0383617 0.147879 0 -0.177778 10.1273 -0.0189584 1.92656 -0.801276 -0.42702 -0.419059
-6.41062 -11.2571 12.966 -0.00894547 -0.126356 0 -0.923287 10.1522 -0.0763923 4.88353 -0.359795 -0.377846 -0.8531
-20.79 -7.24388 12.0931 0.140248 -0.294366 0 -0.610956 10.1719 -0.22274 1.92656 0.580424 -0.770568 0.263312
-7.54637 -7.93881 11.1088 -0.25574 -0.101385 -0.0228609 -0.777778 10.2076 -0.0986617 4.88353 -0.344625 -0.0752006 -0.935723
-7.55944 -13.8655 13.1842 0.266273 0.0803958 0 -1 10.2419 0.409996 5.13238 -0.389567 0.13203 -0.911485
-11.8234 -17.5637 12.5243 -0.045019 0.0565107 0 -0.155556 10.2474 -0.320271 5.58594 -0.355289 0.377602 -0.855094
-23.2985 -8.6565 12.6355 0.145161 -0.223861 0 -1 10.2622 0.171649 1.92656 -0.149108 -0.988821 -0.000164651
-19.3347 -7.254 9.89163 0.152654 -0.320143 0.287924 -0.63516 10.2622 -0.651943 3.22797 0.48933 -0.816662 0.305973
-13.9991 -3.79312 8.62912 0.20013 -0.195887 0 -0.0888889 10.2955 -0.509045 4.02139 -0.539987 -0.798588 -0.265839
-24.1569 -9.28213 14.6067 0.0760867 0.11438 0 -0.177778 10.3188 0.0777232 1.92656 -0.65629 -0.196043 -0.728595
-7.97237 -6.88225 11.0336 -0.167191 -0.107963 0 -0.777778 10.3265 0.191328 4.02139 -0.00398552 -0.120202 -0.992741
-14.9967 -17.985 12.6185 0.0984017 0.144052 0 -1 10.3911 -0.818762 0.110529 0.551546 -0.00227116 -0.834141
-20.3315 -7.74131 10.5953 0.199796 -0.312378 0.0211574 -0.577367 10.4106 -0.0744587 3.22797 0.524645 -0.768145 0.367016
-24.8075 -12.0948 14.653 0.300281 -0.0671236 0.715205 -0.177778 10.4714 0.221262 1.7325 0.152374 0.243081 -0.957963
-18.6239 -7.34106 8.705 0.0570087 -0.301583 0 -0.0888889 10.4783 0.0479925 3.22797 0.53879 -0.830792 0.139607
-8.394 -5.65562 10.7829 -0.297909 0.147087 0 -0.563909 10.4974 -0.183207 4.02139 0.495724 -0.389932 -0.776022
-6.0475 -10.2502 11.8706 -0.425407 -0.162167 -0.0698766 -0.777778 10.5029 -0.0632294 4.88353 -0.220518 -0.792602 -0.568467
-14.9088 -3.36075 8.43425 0.00988187 -0.205998 0 -0.0888889 10.5328 -0.527912 3.63779 0.0743413 -0.974183 -0.213168
-17.0427 -5.50575 8.13175 0.139628 -0.235371 0.0189671 -0.0888889 10.5785 -0.731275 3.63779 0.914394 -0.404824 0.000975317
-24.6903 -10.3582 15.2692 0.354657 0.077917 0 -0.177778 10.6378 -0.506523 1.7325 -0.331744 0.0426787 -0.942404
-20.1612 -15.324 14.3276 0.265798 0.179688 0.0100821 -0.594202 10.6851 -0.87813 1.7325 -0.659343 -0.395084 -0.639669
-17.9685 -18.186 11.2349 0.240915 0.178368 0.715229 -1 10.7023 0.0839666 0.450647 -0.42107 -0.684467 -0.595151
-12.4902 -5.07987 7.84025 0.2066 -0.194936 0 -0.0888889 10.7277 -0.109436 4.02139 -0.52891 -0.777561 -0.340077
-15.7309 -18.8997 11.833 0.126668 0.114024 0.870851 -1 10.7562 0.121056 0.110529 0.495304 0.103235 -0.862564
-16.0777 -3.76875 8.203 0.0361967 -0.213452 0 -0.0888889 10.7901 -0.514211 3.63779 0.711117 -0.702398 -0.0308115
-19.0355 -17.5035 11.8131 0.152427 0.191801 0.125576 -1 10.82 0.0304059 0.450647 -0.792987 -0.558629 -0.243117
-21.8455 -15.0938 14.9732 0.117286 0.125846 0 -0.155556 10.8513 -0.353536 1.7325 -0.359799 -0.248848 -0.899233
-19.3857 -16.0071 13.5597 0.134442 0.189318 0.116609 -0.830473 10.9819 -0.717768 1.4916 -0.890953 -0.26768 -0.36681
-10.3611 -5.92944 7.93031 0.0380817 -0.211146 0 -0.0888889 11.0393 0.163354 4.02139 0.078183 -0.982644 -0.168221
-6.201 -9.53975 10.9015 -0.306467 -0.13829 0 -0.777778 11.087 0.628321 4.88353 -0.254556 -0.574097 -0.778212
-13.6392 -18.2104 13.0052 -0.108585 0.09412 0 -0.155556 11.1207 -0.964705 5.58594 0.0598922 0.12674 -0.990126
-6.6155 -8.35525 10.6219 -0.427657 -0.0950935 0 -0.777778 11.1749 0.566945 4.88353 -0.386293 -0.101068 -0.916822
-16.6225 -19.2935 11.544 0.193745 0.118254 0.187711 -1 11.2189 0.237949 0.110529 0.0681923 -0.229687 -0.970873
-19.3253 -16.6465 12.5305 0.13931 0.218935 0 -1 11.2349 -0.2943 1.4916 -0.920531 -0.347953 0.177628
-24.2743 -7.45813 13.5571 0.058323 0.151059 0 -1 11.2525 0.0498146 1.92656 -0.927345 -0.362319 -0.0935721
-9.4695 -17.6315 11.8567 -0.192175 0.0393726 -0.748996 -0.155556 11.2995 0.0678335 5.58594 0.180733 0.702411 -0.688443
-24.2787 -14.2273 15.3814 0.0961013 0.132547 -0.0270824 -0.164799 11.3121 0.0609397 1.7325 -0.187205 -0.581612 -0.791632
-8.99281 -5.18831 9.17241 0.00358713 -0.191775 0 -0.0888889 11.3321 -0.347794 4.02139 0.596314 -0.785419 -0.165914
-24.5421 -7.63413 14.8821 -0.0393823 0.11529 0 -0.177778 11.3876 -0.270768 1.92656 -0.897409 -0.127787 -0.422288
-5.16437 -11.2731 12.8599 -0.11533 0.151077 -0.622713 -0.820324 11.403 0.254253 4.88353 0.572192 -0.61838 -0.538705
-17.37 -6.47 7.5005 -0.192306 -0.252832 -0.747237 -0.695038 11.4643 0.15415 3.63779 0.832502 -0.537503 0.13428
-10.6109 -18 11.5407 -0.0282375 0.0140304 0 -0.155556 11.5139 0.192749 5.58594 -0.147874 0.641766 -0.752509
-25.0569 -9.07125 15.4163 0.127213 0.0702089 0 -0.177778 11.5476 -0.140422 1.92656 -0.546323 0.134883 -0.826643
-22.8943 -9.02575 11.4333 0.362197 -0.248735 0 -1 11.5832 0.631109 1.92656 0.150304 -0.942415 0.298769
-5.92256 -12.6699 12.8638 0.204103 0.0896554 0 -1 11.6504 0.222485 4.88353 0.345216 0.0905652 -0.934144
-16.9635 -5.543 7.033 -0.11205 -0.226379 0.573641 -0.0888889 11.6807 -0.596404 3.63779 0.878562 -0.357826 0.316369
-7.77166 -16.6033 13.4164 0.197133 0.0660562 0 -1 11.7009 -0.326918 5.58594 0.151441 0.263649 -0.952657
-14.8453 -3.09875 7.2685 -0.106071 -0.123024 0 -0.0888889 11.7293 0.173275 3.63779 0.063646 -0.38891 -0.919075
-17.6385 -19.39 11.624 0.31816 0.112741 0 -1 11.7316 0.302058 0.450647 -0.342342 -0.247706 -0.906336
-14.399 -19.2179 12.522 0.15471 0.0631709 0.0363823 -1 11.7647 -0.717412 0.110529 0.252016 0.457675 -0.852655
3 150 159 188
3 156 150 184
3 188 184 150
3 193 149 156
3 169 159 133
3 169 133 127
3 120 87 133
3 127 133 87
3 152 107 149
3 152 109 102
3 83 109 106
3 152 106 109
3 162 152 149
3 148 104 164
3 157 164 104
3 126 104 148
3 126 148 168
3 127 87 144
3 129 144 87
3 129 88 139
3 88 87 61
3 88 61 99
3 99 61 71
3 71 61 50
3 44 47 19
3 47 31 19
3 19 31 16
3 31 47 53
3 64 80 101
3 101 80 118
3 72 102 65
3 65 55 34
3 74 55 83
3 83 106 74
3 83 55 96
3 55 74 75
3 126 75 74
3 36 55 75
3 116 108 158
3 135 176 139
3 88 99 135
3 124 99 82
3 82 123 124
3 123 82 92
3 50 92 82
3 23 11 7
3 3 8 5
3 11 19 3
3 13 12 5
3 5 17 13
3 75 69 36
3 36 69 27
3 27 69 43
3 158 136 116
3 170 176 135
3 123 93 143
3 66 67 92
3 48 50 23
3 67 46 39
3 39 46 22
3 14 39 22
3 25 14 10
3 10 14 4
3 7 2 14
3 2 4 14
3 5 6 1
3 4 1 15
3 6 32 29
3 32 12 27
3 60 27 43
3 43 62 60
3 62 43 69
3 97 62 95
3 69 95 62
3 62 97 85
3 113 134 160
3 138 97 130
3 178 187 138
3 98 93 67
3 59 25 41
3 25 21 56
3 20 40 38
3 40 79 63
3 40 63 38
3 38 63 51
3 154 132 105
3 119 76 125
3 49 76 40
3 49 29 57
3 86 60 94
3 113 153 125
3 165 134 187
3 165 160 134
3 187 134 138
3 175 183 146
3 146 183 143
3 137 146 98
3 198 171 142
3 198 142 182
3 142 121 90
3 142 90 131
3 90 77 59
3 51 37 33
3 33 37 15
3 73 51 70
3 70 100 140
3 132 196 145
3 145 196 140
3 194 154 151
3 125 179 166
3 179 125 181
3 181 125 153
3 56 73 78
3 117 78 73
3 114 117 73
3 73 140 114
3 114 140 155
3 191 140 185
3 35 18 26
3 50 61 44
3 169 192 159
3 159 150 120
3 156 120 150
3 133 159 120
3 110 120 156
3 127 163 169
3 144 163 127
3 61 47 44
3 47 61 68
3 68 61 87
3 68 87 120
3 68 120 110
3 53 47 68
3 53 68 80
3 80 68 110
3 107 80 110
3 149 107 156
3 156 107 110
3 101 118 102
3 102 118 107
3 102 107 152
3 107 118 80
3 109 65 102
3 96 65 109
3 96 109 83
3 162 106 152
3 157 106 162
3 195 168 190
3 190 168 148
3 139 176 186
3 139 186 144
3 139 144 129
3 23 50 19
3 19 50 44
3 3 19 16
3 8 3 16
3 8 16 26
3 8 26 18
3 30 16 31
3 16 30 26
3 64 45 53
3 45 64 54
3 53 45 31
3 31 45 30
3 30 45 54
3 30 54 26
3 84 58 54
3 58 84 72
3 72 84 101
3 64 101 54
3 54 58 26
3 54 101 84
3 102 72 101
3 34 17 52
3 65 34 52
3 65 52 72
3 72 52 58
3 58 52 35
3 35 52 17
3 35 17 18
3 13 17 24
3 36 24 55
3 34 55 24
3 34 24 17
3 115 75 126
3 108 103 75
3 103 108 116
3 108 75 115
3 167 158 108
3 167 108 141
3 167 141 174
3 174 141 115
3 174 115 168
3 115 141 108
3 126 168 115
3 158 167 197
3 99 124 135
3 3 7 11
3 12 13 24
3 12 24 36
3 27 12 36
3 116 95 69
3 116 69 103
3 103 69 75
3 136 95 116
3 170 135 124
3 123 143 124
3 67 66 46
3 39 14 25
3 0 4 2
3 0 3 5
3 3 0 2
3 3 2 7
3 1 4 0
3 1 0 5
3 9 15 1
3 9 1 6
3 20 9 29
3 29 9 6
3 60 57 32
3 32 57 29
3 32 27 60
3 62 85 60
3 94 134 113
3 134 85 138
3 85 134 94
3 85 94 60
3 124 143 183
3 124 183 177
3 124 177 170
3 41 25 56
3 70 51 63
3 100 63 89
3 100 89 132
3 132 89 105
3 105 89 79
3 63 79 89
3 112 105 79
3 154 105 112
3 81 112 79
3 81 79 40
3 119 111 76
3 40 76 81
3 81 76 111
3 81 111 112
3 91 125 76
3 57 91 76
3 57 76 49
3 60 86 57
3 86 94 113
3 137 171 175
3 137 175 146
3 173 182 142
3 131 173 142
3 199 173 161
3 161 173 131
3 128 161 131
3 78 128 131
3 41 56 78
3 41 78 59
3 73 56 37
3 51 73 37
3 100 145 140
3 132 145 100
3 185 140 196
3 166 151 119
3 166 119 125
3 194 151 189
3 111 119 151
3 112 111 151
3 154 112 151
3 161 180 199
3 147 155 180
3 117 147 128
3 117 128 78
3 161 128 180
3 180 128 147
3 114 155 147
3 114 147 117
3 86 113 91
3 125 91 113
3 57 86 91
3 26 58 35
3 159 192 188
3 88 129 87
3 53 80 64
3 96 55 65
3 126 74 104
3 157 104 106
3 106 104 74
3 135 139 88
3 99 71 82
3 50 82 71
3 19 11 23
3 8 18 17
3 8 17 5
3 92 67 93
3 123 92 93
3 50 48 66
3 50 66 92
3 42 22 46
3 42 46 66
3 42 66 48
3 7 14 28
3 7 28 23
3 23 28 48
3 48 28 42
3 42 28 22
3 14 22 28
3 5 12 6
3 32 6 12
3 136 172 130
3 136 130 95
3 95 130 97
3 97 138 85
3 172 178 130
3 138 130 178
3 93 122 143
3 122 93 98
3 39 59 77
3 39 77 98
3 39 98 67
3 39 25 59
3 10 21 25
3 21 10 15
3 10 4 15
3 9 20 15
3 29 49 20
3 20 49 40
3 160 153 113
3 146 143 122
3 98 146 122
3 98 121 137
3 137 121 171
3 171 121 142
3 77 90 121
3 77 121 98
3 90 59 78
3 90 78 131
3 15 37 21
3 21 37 56
3 51 33 38
3 33 15 38
3 38 15 20
3 63 100 70
3 132 154 196
3 70 140 73
3 155 140 191
