ply
format ascii 1.0
comment Generated by PyMesh
element vertex 200
property float x
property float y
property float z
property float charge
property float ddc
property float hbond
property float hphob
property float rho
property float si
property float theta
property float nx
property float ny
property float nz
element face 346
property list uchar int vertex_indices
end_header
-12.9963 -10.7945 12.6664 -0.0510023 0 0.0462799 -0.793793 1e-08 -0.562432 2.22045e-16 0.319079 0.427744 -0.845709
-11.7086 -11.227 12.6416 -0.43896 -0.0692445 -0.835421 -0.777778 1.35862 -0.400173 4.91562 0.155044 0.504703 -0.849256
-13.842 -9.499 12.3448 0.385083 -0.154513 0.846334 -0.866667 1.58018 0.583064 2.33675 0.114291 0.198146 -0.973486
-14.5136 -10.6986 12.1084 0.0093171 0.20209 -0.611101 -0.794638 1.61949 0.104646 1.33671 -0.118791 0.560971 -0.819268
-12.1716 -9.38762 13.3766 0.192425 -0.160074 -0.0349964 -0.858767 1.77871 -0.999812 3.58337 0.174566 0.148977 -0.97331
-13.0511 -12.0589 11.1349 -0.266539 -0.153385 0 -0.777778 1.98676 0.257586 2.22045e-16 0.334992 0.609531 -0.718507
-11.244 -12.127 12.0522 -0.109208 0.242078 0 -0.777778 2.53047 0.314558 5.31224 0.665982 0.292855 -0.686079
-10.486 -11.3888 12.7402 -0.537483 0.231481 -0.133567 -0.777778 2.59581 0.266172 4.83295 0.450092 -0.105326 -0.886749
-15.3629 -10.7626 12.8304 0.136983 0.254698 -0.394883 -0.790553 2.73605 -0.999862 1.48332 -0.332311 0.671036 -0.662782
-15.234 -11.3053 11.3237 -0.52401 0.266606 -0.342352 -0.777778 2.84539 0.190645 0.94929 -0.100538 0.894178 -0.436278
-12.4315 -8.2485 13.1453 0.53482 -0.261683 0 -0.483678 2.96978 -0.394484 3.17373 0.145432 -0.269293 -0.952014
-10.6073 -10.0638 12.9993 -0.544387 -0.104705 -0.00833951 -0.777778 2.99991 0.238591 4.30431 -0.00148864 0.236394 -0.971656
-14.5334 -8.09988 12.9789 1 -0.257434 0 -0.866667 3.26471 0.0769332 2.49032 -0.416646 -0.127902 -0.900026
-13.9409 -12.787 10.2555 -0.370037 0.1098 0 -0.777778 3.43424 0.999792 0.167362 0.321426 0.100952 -0.941538
-10.6558 -8.67522 13.3047 -0.123091 -0.223895 0 -0.710011 3.45512 -0.612036 3.81478 -0.176408 -0.207952 -0.9621
-11.7505 -12.7638 11.138 -0.053411 0.168061 0 -0.777778 3.4661 0.999888 5.77084 0.546991 0.154282 -0.822799
-15.4358 -9.10581 13.2952 0.96659 0.199377 0 -0.866667 3.47703 -0.179197 2.05019 -0.419749 0.28432 -0.861959
-13.0988 -13.906 10.6888 -0.210775 0.186489 0 -0.777778 3.88756 0.412374 6.12019 0.488421 -0.186139 -0.852524
-10.7312 -12.692 13.1929 -0.33857 0.308854 0 -0.777778 3.90284 -0.782297 5.15978 0.79296 -0.188557 -0.579363
-14.9095 -11.794 10.3015 -0.38135 -0.0515431 -0.0268627 -0.777778 4.02395 0.773584 0.574593 0.13334 0.56375 -0.815111
-11.4605 -13.5615 11.6944 -0.0795003 0.302709 0 -0.777778 4.02469 0.999811 5.62029 0.788617 -0.285382 -0.544646
-16.3521 -11.4514 11.8585 -0.0251259 -0.193132 0 -0.892942 4.09339 -0.62583 1.14964 0.0602094 0.903033 -0.42533
-13.3403 -7.75063 12.6695 0.488417 -0.322208 0 -0.477887 4.11004 0.309244 2.91018 -0.078355 -0.532924 -0.842527
-16.8458 -10.3915 13.2823 0.230086 0.142158 0 -0.901769 4.33007 -0.277064 1.60569 -0.0914488 0.806767 -0.58375
-16.3331 -11.9799 10.336 0.035176 -0.0631253 -0.599444 -0.798871 4.46978 0.0823546 0.8157 0.25465 0.623967 -0.738795
-8.95475 -10.2674 13.0433 -0.145372 -0.223162 -0.348853 -0.777778 4.51783 -0.051276 4.36944 -0.123949 -0.443875 -0.887475
-15.4591 -7.77588 13.7755 0.861067 0.19319 0.088854 -0.773651 4.52822 -0.734937 2.31408 -0.501152 0.0173468 -0.865186
-9.33337 -12.2767 14.1205 -0.278701 0.161614 -0.396131 -0.777778 4.60134 -0.650019 4.85824 0.303109 -0.244857 -0.920962
-11.4593 -7.06425 12.5245 0.36085 -0.277163 0 -0.534173 4.62296 -0.845022 3.36533 -0.0430158 -0.6673 -0.743546
-8.79275 -11.3438 13.9897 -0.174024 0.190378 -0.196536 -0.888956 4.70066 -0.943984 4.64264 0.194507 -0.423554 -0.884742
-9.599 -7.886 12.478 0.0152166 -0.243587 0 -0.777778 5.01176 -0.714466 3.90866 -0.444608 -0.470896 -0.761958
-13.9121 -14.6616 10.49 -0.52379 0.158854 0 -0.777778 5.01535 0.655903 6.26232 0.279298 -0.289262 -0.915598
-16.9587 -9.418 13.788 0.235878 0.212925 0 -0.866667 5.10784 0.382773 1.84191 -0.698075 0.434666 -0.568996
-17.2897 -10.9758 11.8864 0.274118 -0.158587 0 -1 5.14508 0.0577259 1.24851 0.307248 0.871201 -0.382894
-15.6134 -13.1465 10.1267 -0.0775537 0.0998867 -0.157177 -0.941284 5.14979 0.300933 0.495513 0.135047 0.00100278 -0.990839
-10.1165 -13.3935 14.048 -0.266568 0.102304 0 -0.777778 5.16821 -0.77602 5.09265 0.385576 0.0616912 -0.920611
-11.0767 -13.8383 12.7755 -0.120711 0.243375 0 -0.777778 5.17075 0.126826 5.43404 0.819549 -0.0684307 -0.568909
-12.997 -6.8425 12.0225 0.164346 -0.277802 0 -0.0888889 5.27672 0.101263 3.04172 -0.0988507 -0.649519 -0.753892
-8.998 -8.733 12.5118 -0.0739477 -0.245041 0 -0.777778 5.29369 -0.787732 4.00321 -0.600919 -0.349797 -0.718706
-15.8385 -6.69825 13.663 0.586543 -0.225045 0.523724 -0.177778 5.29839 -0.999858 2.37804 -0.370887 -0.574621 -0.729557
-15.3011 -6.19775 12.604 0.50108 -0.226243 -0.194779 -0.177778 5.3499 -0.206937 2.59279 -0.272386 -0.641142 -0.717456
-16.4895 -7.686 14.14 0.249945 0.20069 0 -0.866667 5.43658 0.0837004 2.16867 -0.666855 -0.076441 -0.741257
-12.2097 -14.7964 12.0905 -0.172003 0.228726 0 -0.777778 5.52241 -0.077394 5.75802 0.467392 -0.461372 -0.754109
-17.0565 -12.6155 9.80875 0.217744 0.0621935 0 -1 5.56764 0.619101 0.795334 0.274633 0.11672 -0.954439
-18.04 -10.3495 12.4425 0.180204 0.150907 0 -1 5.7906 0.790245 1.41824 -0.0188837 0.93446 -0.355567
-8.76912 -13.3918 14.2046 0.0184744 -0.0776824 0 -1 5.8539 -0.796202 4.91817 -0.175225 0.221379 -0.959316
-10.5662 -14.6614 13.4996 -0.0944873 0.102744 0 -0.777778 5.90279 -0.607692 5.28244 0.587418 0.223629 -0.777773
-7.6325 -10.8682 13.6713 0.036259 -0.204918 0.490042 -0.995589 5.99439 -0.999878 4.4873 -0.285211 -0.591521 -0.75416
-7.59244 -11.8614 13.9519 0.163901 -0.12489 0.944132 -1 6.00836 -0.776902 4.4873 -0.370217 -0.0339792 -0.928324
-17.642 -11.1625 10.057 0.112985 -0.0747663 0 -1 6.03797 0.999901 0.8157 0.0708431 0.739224 -0.669724
-9.68125 -7.01875 11.9342 0.185112 -0.24263 0 -0.777778 6.0387 -0.71361 3.90866 -0.393483 -0.648419 -0.651709
-10.918 -6.34381 11.3474 0.0814103 -0.297554 0 -0.674742 6.1054 -0.585778 3.36533 -0.0343879 -0.954799 -0.295256
-8.79925 -7.947 11.7245 -0.0488977 -0.212718 0 -0.777778 6.11225 0.277138 3.90866 -0.539989 -0.402606 -0.739134
-18.3009 -10.4878 14.4353 0.217073 0.168826 0 -1 6.18911 -0.36447 1.84191 -0.351694 0.898683 -0.262068
-7.29313 -10.458 12.7794 -0.092495 -0.230418 0 -0.777778 6.21103 -0.223863 4.4873 -0.312423 -0.761019 -0.568543
-12.3375 -6.3815 11.3695 0.125123 -0.320094 0 -0.0888889 6.22653 -0.0946285 3.04172 -0.259074 -0.89831 -0.354851
-16.891 -8.604 14.5685 0.296941 0.254655 0 -0.866667 6.2376 -0.637084 2.16867 -0.911108 0.276913 -0.30529
-15.3027 -14.1698 10.387 -0.152064 0.123519 -0.207425 -0.777778 6.25044 -0.550768 0.495513 0.210353 -0.150234 -0.966013
-8.01056 -9.44756 11.6484 -0.0895143 -0.213712 0 -0.777778 6.39116 0.576689 4.00321 -0.471068 -0.490435 -0.73319
-17.0045 -6.579 13.7055 0.209189 -0.236639 0.0484967 -0.177778 6.47124 0.0532711 2.37804 -0.372483 -0.798344 -0.473185
-9.321 -14.4572 13.7595 -0.0576607 -0.0481961 0 -1 6.52744 -0.185821 4.91817 -0.0346642 0.281962 -0.958799
-14.7806 -15.9108 10.7155 0.0091696 0.169451 -0.03043 -0.793104 6.55342 0.290366 6.26232 0.538949 -0.461817 -0.704457
-17.3151 -13.7944 9.69925 0.0670877 0.0622481 0 -1 6.62899 0.114218 0.795334 0.128148 0.0611198 -0.98987
-13.6006 -5.50238 11.3686 0.099116 -0.226464 0 -0.0888889 6.72054 -0.327554 3.04172 -0.430903 -0.636383 -0.639796
-18.0872 -12.0767 9.72775 0.317003 0.0599393 0 -1 6.73349 0.721577 0.795334 -0.144112 0.253934 -0.956425
-17.4824 -9.63325 15.3156 0.240497 0.188587 0 -0.866667 6.737 -0.876771 1.84191 -0.740196 0.487666 -0.462917
-19.2892 -10.6217 13.267 0.17298 0.151058 0 -1 6.78434 0.330198 1.41824 -0.334676 0.910521 -0.242781
-18.9442 -11.0352 11.6637 0.331355 0.141701 0 -1 6.81556 0.380992 1.41824 -0.371316 0.846535 -0.381449
-18.3202 -13.137 9.70988 0.36375 0.0746775 0 -1 6.93829 0.60542 0.795334 -0.0848291 0.0187486 -0.996219
-17.0825 -7.7875 15.585 0.30018 0.198629 0 -0.191002 7.00182 -0.858649 2.16867 -0.834138 -0.0571497 -0.548587
-16.2515 -14.8927 10.0135 0.14685 0.0774123 0 -1 7.01236 -0.222322 0.495513 0.41567 0.0408365 -0.908598
-16.9878 -6.00616 12.5084 0.16828 -0.247334 0 -0.177778 7.05013 -0.268516 2.59279 0.0390774 -0.970228 -0.23902
-12.4464 -16.3261 12.8144 -0.071511 0.123195 0 -0.377196 7.23123 -0.513734 5.75802 -0.0102562 -0.234887 -0.971969
-18.4521 -10.3144 15.4754 0.193447 0.127449 0 -0.944124 7.25435 -0.902786 1.84191 -0.275903 0.864479 -0.420183
-19.324 -10.4045 14.811 0.166069 0.120095 0 -1 7.28218 -0.157377 1.84191 0.125617 0.949726 -0.286775
-13.3985 -16.0914 12.4439 -0.165299 0.201584 -0.416346 -0.701951 7.3155 -0.33361 5.75802 0.338644 -0.620605 -0.707227
-9.37288 -6.32125 10.879 -0.241774 -0.202821 0 -0.777778 7.34064 -0.0339969 3.90866 0.00891663 -0.765131 -0.643813
-15.803 -4.925 11.1187 -0.006921 -0.186913 -0.811647 -0.177778 7.36928 -0.25577 2.59279 0.354256 -0.763653 -0.539757
-18.8921 -11.6245 10.3421 0.378147 0.125162 0 -1 7.40086 0.788944 0.795334 -0.543557 0.608633 -0.578024
-6.41062 -11.2571 12.966 -0.00894547 -0.145092 0 -0.923287 7.41611 -0.0763923 4.4873 -0.359795 -0.377846 -0.8531
-7.55944 -13.8655 13.1842 0.266273 -0.100382 0 -1 7.50585 0.409996 4.91817 -0.389567 0.13203 -0.911485
-7.54637 -7.93881 11.1088 -0.25574 -0.112733 -0.0228609 -0.777778 7.50827 -0.0986617 3.90866 -0.344625 -0.0752006 -0.935723
-7.97237 -6.88225 11.0336 -0.167191 -0.0878523 0 -0.777778 7.6271 0.191328 3.90866 -0.00398552 -0.120202 -0.992741
-9.37206 -15.923 13.4043 -0.00471173 0.0124798 0 -0.155556 7.64253 -0.611472 5.28244 0.234563 0.378624 -0.895335
-17.911 -6.2715 15.196 0.204766 -0.188688 0 1 7.70299 -0.999889 2.16867 -0.413333 -0.739608 -0.531165
-12.9268 -5.85825 10.0618 0.066468 -0.28404 0 -0.0888889 7.75333 0.523431 3.04172 -0.698661 -0.694381 -0.17236
-12.061 -6.426 9.85625 0.0687357 -0.315869 0 -0.0888889 7.76547 0.594472 3.04172 -0.196044 -0.978588 -0.0627064
-6.0475 -10.2502 11.8706 -0.425407 -0.187454 -0.0698766 -0.777778 7.76689 -0.0632294 4.4873 -0.220518 -0.792602 -0.568467
-10.4118 -6.27056 9.62613 0.105906 -0.259759 0 -0.0888889 7.90105 0.377422 3.36533 0.23397 -0.959916 -0.154338
-10.3792 -16.5362 12.591 -0.00271645 0.00797646 0 -0.155556 7.96346 0.132906 5.28244 0.210179 0.393611 -0.894928
-17.8437 -7.97316 16.2629 0.254598 0.130338 0 0.717809 8.03789 -0.731524 2.16867 -0.424628 -0.21275 -0.880016
-19.4224 -12.7526 9.99325 0.243005 0.100281 0 -1 8.1395 0.845049 0.795334 -0.537361 0.287897 -0.79269
-17.401 -6.03675 11.4762 0.108734 -0.246047 0 -0.16549 8.16239 -0.137755 2.59279 0.51537 -0.855702 0.0465509
-19.252 -13.9431 9.88231 0.24191 0.0702875 0 -1 8.18238 0.0174677 0.795334 -0.230642 0.0821338 -0.969566
-14.4446 -4.32575 10.8495 -0.113263 -0.190669 -0.487567 -0.132564 8.2588 -0.99988 3.04172 -0.216204 -0.790347 -0.573243
-18.6523 -6.01937 14.132 0.176105 -0.206451 0 0.0998822 8.26298 -0.501133 2.37804 0.0278223 -0.975824 -0.216778
-16.0744 -16.6863 9.843 0.216578 0.119876 0 -1 8.29599 0.773244 6.26232 0.565207 -0.335631 -0.753587
-20.5223 -11.3789 13.7464 0.202422 0.10612 0 -1 8.30871 -0.702519 1.41824 -0.520897 0.660354 -0.540924
-6.201 -9.53975 10.9015 -0.306467 -0.152495 0 -0.777778 8.35097 0.628321 4.00321 -0.254556 -0.574097 -0.778212
-19.343 -10.0887 16.0842 0.0367197 0.0722384 0 -0.959427 8.35674 -0.999899 1.84191 0.269278 0.796883 -0.540802
-20.0719 -11.826 12.3647 0.259031 0.135341 0 -1 8.36103 0.068851 1.41824 -0.660231 0.616466 -0.429027
-20.4439 -10.5723 14.3776 0.139374 0.0619528 0 -1 8.38721 0.0620823 1.41824 -0.1757 0.687899 -0.704219
-13.537 -16.9993 13.0068 -0.0490217 0.103648 0 -0.155556 8.39268 -0.721346 5.75802 0.0766716 -0.213076 -0.974023
-17.221 -15.7148 9.389 -0.0800823 0.0591439 0 -1 8.42862 0.657691 0.795334 0.133318 0.00501467 -0.991061
-6.6155 -8.35525 10.6219 -0.427657 -0.106941 0 -0.777778 8.43885 0.566945 4.00321 -0.386293 -0.101068 -0.916822
-14.7751 -16.7673 12.45 -0.0311044 0.150806 -0.00563068 -0.957004 8.48787 -0.99985 5.75802 0.518764 -0.437104 -0.734727
-18.333 -6.3345 12.108 0.091576 -0.259466 -0.120039 -0.0912609 8.49155 0.282037 2.59279 0.250826 -0.908366 0.3346
-15.5204 -17.4001 11.7778 0.0933747 0.149102 0.00592891 -1 8.52669 -0.307753 6.26232 0.746641 -0.39578 -0.534683
-8.394 -5.65562 10.7829 -0.297909 -0.123405 0 -0.563909 8.52829 -0.183207 3.90866 0.495724 -0.389932 -0.776022
-13.5747 -4.53587 9.77962 0.055301 -0.22358 0 -0.0888889 8.58056 -0.568209 3.04172 -0.68619 -0.688193 -0.235655
-18.8542 -9.37125 16.6077 0.147958 0.0283525 0 -0.866667 8.63963 -0.774815 1.84191 -0.0286449 0.379911 -0.924579
-11.8234 -17.5637 12.5243 -0.045019 -0.0766648 0 -0.155556 8.64683 -0.320271 5.75802 -0.355289 0.377602 -0.855094
-5.16437 -11.2731 12.8599 -0.11533 0.149043 -0.622713 -0.820324 8.66697 0.254253 4.4873 0.572192 -0.61838 -0.538705
-20.4977 -9.66825 15.1231 0.138002 -0.0515364 -0.771219 -0.31148 8.70241 0.0933316 1.41824 0.461489 0.593141 -0.659705
-15.2399 -4.01038 10.1786 0.048477 -0.183826 0.0615469 -0.0972704 8.79666 -0.428873 2.59279 0.0501641 -0.892009 -0.449225
-11.9108 -6.32387 8.77262 0.0522473 -0.248094 0 -0.0888889 8.86422 0.999847 3.04172 -0.348543 -0.871239 -0.345631
-18.7805 -6.90188 15.6709 0.205645 -0.156278 0 1 8.87727 -0.444014 2.16867 0.146899 -0.741063 -0.655169
-5.92256 -12.6699 12.8638 0.204103 0.0515853 0 -1 8.91432 0.222485 4.4873 0.345216 0.0905652 -0.934144
-16.623 -4.8675 9.69606 0.265922 -0.171171 0.0800778 -0.132375 9.01233 -0.580168 2.59279 0.79169 -0.538524 -0.288476
-6.82316 -15.2248 13.015 0.244402 0.0976543 0 -1 9.06098 0.455681 4.91817 -0.0483189 -0.285896 -0.957042
-13.1315 -5.173 8.925 0.0186621 -0.223857 0 -0.0888889 9.09639 0.513889 3.04172 -0.755563 -0.598811 -0.265611
-19.1028 -6.053 12.8455 0.0926913 -0.231699 -0.218172 -0.149494 9.19234 -0.584342 2.59279 0.136644 -0.958058 0.251901
-7.77166 -16.6033 13.4164 0.197133 0.0216969 0 -1 9.1965 -0.326918 5.28244 0.151441 0.263649 -0.952657
-7.28 -5.491 11.3975 -0.283519 0.066818 -0.29028 -0.570924 9.22315 -0.0249235 3.90866 0.646185 0.350058 -0.678163
-4.81225 -10.0763 11.088 -0.543703 -0.129778 -0.0406313 -0.777778 9.23949 0.999882 4.4873 0.171168 -0.65328 -0.737514
-20.2196 -13.3044 10.6401 0.211921 0.125283 0.264241 -1 9.30501 0.53074 0.795334 -0.761396 0.321536 -0.56293
-21.4137 -11.8073 13.9376 0.0435247 0.0858727 -0.314608 -1 9.31603 -0.144449 1.41824 -0.545339 0.442209 -0.712079
-19.9643 -14.9095 9.72375 0.159746 0.0929611 0 -1 9.39335 0.806655 0.795334 -0.551402 0.0766464 -0.830711
-6.354 -6.115 11.122 -0.412697 -0.0361128 -0.978299 -0.777778 9.42031 0.246731 3.90866 -0.0415489 0.60929 -0.791858
-8.99281 -5.18831 9.17241 0.00358713 -0.190511 0 -0.0888889 9.42401 -0.347794 3.90866 0.596314 -0.785419 -0.165914
-18.377 -16.4015 9.718 0.0589217 0.0884756 0 -1 9.44412 0.246763 0.795334 -0.184434 -0.220216 -0.957856
-5.3985 -8.935 10.466 -0.507123 -0.096435 -0.0242467 -0.777778 9.44614 0.563827 4.00321 0.0789629 -0.355943 -0.931166
-20.1265 -9.2905 16.176 0.276374 -0.0613506 -0.870462 -0.262424 9.47898 -0.889417 1.84191 0.611254 0.245662 -0.752342
-17.0845 -17.4163 9.75125 0.224303 0.126447 0.0618687 -1 9.54564 0.999876 6.26232 0.00464454 -0.611645 -0.791119
-9.4695 -17.6315 11.8567 -0.192175 -0.0448032 -0.748996 -0.155556 9.56546 0.0678335 5.28244 0.180733 0.702411 -0.688443
-17.8043 -6.68175 10.2825 0.213745 -0.252098 0 -0.0888889 9.57787 0.461547 2.59279 0.530315 -0.818463 0.221099
-13.6392 -18.2104 13.0052 -0.108585 0.0442014 0 -0.155556 9.60809 -0.964705 5.75802 0.0598922 0.12674 -0.990126
-17.1159 -5.79738 9.5235 0.256873 -0.19984 0 -0.160835 9.61192 0.0971588 2.59279 0.853315 -0.519417 -0.0453887
-4.20625 -10.4231 11.9146 -0.654493 0.148043 -0.1982 -0.777778 9.61677 0.790879 4.4873 0.539401 -0.735785 -0.409471
-19.261 -6.84125 11.6965 -0.243992 -0.240012 0 -0.0888889 9.62615 0.277998 2.59279 0.368084 -0.864345 0.342669
-10.3611 -5.92944 7.93031 0.0380817 -0.217193 0 -0.0888889 9.63158 0.163354 3.36533 0.078183 -0.982644 -0.168221
-21.5238 -10.0594 14.7436 0.0140825 -0.0292127 0 -0.302471 9.6375 -0.347971 1.41824 0.230592 0.180458 -0.95617
-14.9967 -17.985 12.6185 0.0984017 0.0769169 0 -1 9.67697 -0.818762 5.75802 0.551546 -0.00227116 -0.834141
-5.46138 -14.2715 12.5935 0.332672 0.0641668 0 -1 9.72297 0.999856 4.91817 0.129986 -0.101002 -0.986358
-21.164 -12.614 12.603 0.138973 0.133072 0 -1 9.72866 0.670374 1.41824 -0.847744 0.221375 -0.481999
-10.6109 -18 11.5407 -0.0282375 -0.0533818 0 -0.155556 9.77991 0.192749 5.28244 -0.147874 0.641766 -0.752509
-19.545 -7.992 16.6395 0.294261 -0.0936886 -0.347605 0.404067 9.78048 -0.999927 2.16867 0.269309 -0.335886 -0.902581
-16.4518 -17.9608 11.0473 0.171789 0.120253 0 -1 9.83647 0.0744562 6.26232 0.361538 -0.527696 -0.768653
-15.8931 -3.66613 9.317 0.0168946 -0.169242 0.787115 -0.16315 9.93135 -0.999886 2.59279 0.474484 -0.829969 -0.293286
-20.324 -6.3865 14.3372 0.221022 -0.161328 0 1 9.98678 -0.999791 2.37804 0.499942 -0.811387 -0.302835
-13.9991 -3.79312 8.62912 0.20013 -0.189486 0 -0.0888889 10.0142 -0.509045 3.04172 -0.539987 -0.798588 -0.265839
-7.484 -4.46 10.931 -0.311672 -0.14101 0 -0.0888889 10.0381 -0.0841359 3.90866 0.864025 -0.387214 -0.321755
-15.7309 -18.8997 11.833 0.126668 0.0531836 0.870851 -1 10.042 0.121056 6.26232 0.495304 0.103235 -0.862564
-4.67125 -11.1221 14.1609 -0.084816 0.116859 0 -1 10.0665 -0.198241 4.4873 0.909046 -0.0300485 -0.415611
-20.6022 -13.328 11.6995 0.196928 0.15843 0.638818 -1 10.0872 0.109021 1.41824 -0.936276 0.084451 -0.340963
-4.26525 -10.2299 13.3005 -0.37479 0.173787 -0.437558 -0.777778 10.1129 0.365124 4.4873 0.934209 -0.27339 0.229152
-21.2502 -8.50362 14.8431 -0.296657 -0.0867649 -0.838733 -0.177778 10.117 -0.200459 1.41824 0.671974 -0.133546 -0.728434
-5.0105 -7.93713 10.1431 -0.610397 -0.0655787 -0.265368 -0.777778 10.1651 0.819817 4.00321 0.313492 -0.138305 -0.939465
-20.213 -6.25775 13.0215 0.18907 -0.20722 0 -0.80846 10.1932 -0.856385 2.37804 0.370986 -0.88433 0.283425
-12.1987 -18.6593 11.4368 0.0191901 -0.102042 0 -0.155556 10.2355 0.681015 5.75802 -0.578644 0.560269 -0.59268
-20.0229 -7.55125 15.8363 0.178879 -0.109362 -0.317033 0.147612 10.2889 -0.207275 2.16867 0.562908 -0.387783 -0.729903
-7.5055 -4.67975 12.1485 -0.334287 0.151196 0 -0.777778 10.3514 -0.147937 3.90866 0.960251 0.272999 0.0582141
-12.4902 -5.07987 7.84025 0.2066 -0.199082 0 -0.0888889 10.36 -0.109436 3.04172 -0.52891 -0.777561 -0.340077
-5.416 -6.9125 10.082 -0.620177 -0.00348203 -0.0815572 -0.777778 10.3912 0.999904 4.00321 0.141799 0.437045 -0.888192
-19.8773 -15.9108 9.7025 0.197117 0.117966 0 -1 10.3986 0.926023 0.795334 -0.574519 -0.335193 -0.746708
-22.4034 -11.3806 14.4312 -0.278896 0.0652138 -0.752668 -1 10.5014 0.124264 1.41824 -0.279148 -0.00970253 -0.960199
-8.08425 -17.6605 12.6152 0.231115 -0.0608455 -0.421347 -0.155556 10.5593 -0.189626 5.28244 0.419789 0.717991 -0.555218
-13.021 -19.0665 12.565 0.00253635 -0.0738685 0 -0.155556 10.5689 -0.576032 5.75802 -0.422291 0.500225 -0.75594
-3.89375 -9.14125 11.4122 -0.694143 0.0998912 -0.815247 -0.777778 10.5897 0.708917 4.4873 0.768732 -0.228927 -0.597197
-8.771 -5.32425 8.028 -0.0419467 -0.21796 0 -0.155556 10.5976 -0.086949 3.90866 0.343575 -0.856788 0.384539
-6.20128 -16.4832 13.6584 0.185512 0.0469955 0 -1 10.6051 -0.694678 4.91817 0.0392404 0.0375975 -0.998522
-21.7095 -13.0495 13.7542 0.152812 0.111265 0 -1 10.6061 0.262136 1.41824 -0.650328 -0.14921 -0.744856
-8.95125 -18.1496 11.0863 -0.359967 -0.030687 -0.953657 -0.155556 10.6287 0.908926 5.28244 0.145961 0.642631 -0.752144
-14.9088 -3.36075 8.43425 0.00988187 -0.177342 0 -0.0888889 10.6873 -0.527912 2.59279 0.0743413 -0.974183 -0.213168
-17.0427 -5.50575 8.13175 0.139628 -0.177063 0.0189671 -0.0888889 10.7532 -0.731275 2.59279 0.914394 -0.404824 0.000975317
-5.00675 -6.24775 11.2708 -0.844943 0.0974919 0 -0.777778 10.7822 0.999873 3.90866 0.509801 0.844232 -0.165457
-18.6355 -17.4405 10.5407 0.216114 0.150478 0.333194 -1 10.7944 0.414409 0.795334 -0.403905 -0.746356 -0.528973
-21.0245 -13.6438 12.84 0.182942 0.16189 0 -1 10.7945 0.235309 1.41824 -0.882519 -0.299105 -0.362899
-4.43138 -13.0231 13.9761 0.298318 0.0727679 0 -1 10.8079 0.0671408 4.4873 0.735903 0.227425 -0.637749
-7.0245 -18.0271 13.1255 0.0846827 -0.0198444 0.0913562 -0.59152 10.8305 -0.667915 5.28244 0.266852 0.546398 -0.793876
-9.86438 -5.89712 6.79975 0.11479 -0.228145 0 -0.155556 10.8669 -0.210574 3.36533 -0.219346 -0.885478 0.409654
-6.13312 -5.95138 12.5459 -0.331803 0.129078 0 -0.777778 10.8705 0.194915 3.90866 0.612155 0.790273 0.0270841
-11.1451 -5.506 7.06925 0.081587 -0.213217 0 -0.100888 10.8707 -0.259259 3.36533 -0.383129 -0.923164 -0.031305
-17.4675 -6.8385 8.893 0.0557223 -0.218795 0 -0.0888889 10.8788 0.738786 2.59279 0.745376 -0.6652 0.0438689
-4.48763 -14.1641 13.214 0.295722 0.0868337 0 -1 10.8826 0.99986 4.91817 0.780816 -0.0118624 -0.624648
-20.7668 -14.7948 10.9923 0.247308 0.162174 0.194633 -1 10.8988 0.816357 0.795334 -0.989371 -0.0093741 -0.14511
-16.0777 -3.76875 8.203 0.0361967 -0.17078 0 -0.0888889 10.9446 -0.514211 2.59279 0.711117 -0.702398 -0.0308115
-14.399 -19.2179 12.522 0.15471 -0.0115712 0.0363823 -1 10.9593 -0.717412 5.75802 0.252016 0.457675 -0.852655
-20.6695 -7.0855 15.0363 0.123762 -0.123385 -0.585066 -0.0157454 11.034 -0.757273 2.37804 0.67072 -0.488536 -0.558093
-4.95762 -15.7276 13.4773 0.166499 0.0779264 0 -1 11.0476 0.199226 4.91817 0.533207 -0.215537 -0.818067
-16.6225 -19.2935 11.544 0.193745 0.0712997 0.187711 -1 11.0586 0.237949 6.26232 0.0681923 -0.229687 -0.970873
-7.4305 -3.96725 9.99225 -0.231811 -0.154877 0 -0.0888889 11.0997 -0.0393035 3.90866 0.787945 -0.604228 -0.118537
-7.027 -3.47463 10.7847 -0.283751 -0.150925 0 -0.0888889 11.1341 0.461161 3.90866 0.95162 -0.28808 0.10691
-20.5179 -15.9096 11.1258 0.35212 0.173673 0 -1 11.2023 0.860416 0.795334 -0.938621 -0.344245 -0.0220189
-7.71931 -4.28869 8.27731 -0.13222 -0.175756 0 -0.0993076 11.2219 -0.0666502 3.90866 0.771305 -0.555214 0.311169
-20.79 -7.24388 12.0931 0.140248 -0.19919 0 -0.610956 11.2563 -0.22274 2.59279 0.580424 -0.770568 0.263312
-19.3347 -7.254 9.89163 0.152654 -0.22539 0.287924 -0.63516 11.2579 -0.651943 2.59279 0.48933 -0.816662 0.305973
-19.7464 -17.0767 10.7243 0.504503 0.161992 0.826967 -1 11.2727 0.999866 0.795334 -0.631306 -0.724487 -0.276715
-3.66775 -8.9935 12.555 -0.645863 0.151221 -0.101118 -0.777778 11.2732 0.916838 4.4873 0.968187 0.0534049 0.244462
-21.5989 -7.74388 13.9134 0.105045 -0.150508 -0.0787328 -0.922018 11.3672 -0.280303 2.37804 0.659801 -0.707421 -0.253412
3 195 158 149
3 106 158 139
3 195 139 158
3 137 135 183
3 137 183 174
3 171 165 126
3 171 126 177
3 177 126 144
3 144 126 100
3 97 101 66
3 101 74 66
3 66 74 53
3 74 101 113
3 132 156 160
3 160 156 188
3 116 149 95
3 95 71 59
3 92 71 106
3 106 139 92
3 106 71 121
3 71 92 77
3 137 77 92
3 40 71 77
3 109 114 150
3 185 154 125
3 100 125 154
3 67 44 33
3 23 32 16
3 44 66 23
3 26 12 16
3 16 41 26
3 77 63 40
3 40 63 22
3 22 63 37
3 150 120 109
3 182 140 162
3 185 127 193
3 91 93 125
3 78 100 67
3 93 68 62
3 62 68 43
3 24 62 43
3 34 24 19
3 19 24 9
3 33 21 24
3 21 9 24
3 16 2 3
3 9 3 5
3 2 10 4
3 10 12 22
3 28 22 37
3 37 55 28
3 55 37 63
3 86 55 85
3 63 85 55
3 55 86 51
3 52 76 82
3 88 86 115
3 140 129 88
3 169 140 180
3 130 127 93
3 70 34 57
3 34 13 31
3 1 7 6
3 7 27 18
3 7 18 6
3 6 18 20
3 80 60 45
3 54 25 58
3 11 25 7
3 11 4 14
3 30 28 50
3 52 81 58
3 81 82 128
3 128 104 81
3 108 76 129
3 108 82 76
3 129 76 88
3 104 157 131
3 131 157 168
3 175 128 181
3 176 197 130
3 147 133 96
3 147 96 107
3 96 103 70
3 20 17 15
3 15 17 5
3 42 20 36
3 36 46 89
3 60 122 83
3 83 122 89
3 79 138 112
3 87 138 79
3 117 80 79
3 58 98 87
3 98 58 104
3 104 58 81
3 87 98 124
3 98 131 124
3 131 168 124
3 138 155 112
3 31 42 61
3 75 61 42
3 72 75 42
3 42 89 72
3 72 89 111
3 159 111 145
3 145 89 134
3 189 170 119
3 159 167 111
3 111 167 136
3 69 56 65
3 100 126 97
3 126 101 97
3 101 126 141
3 141 126 165
3 113 101 141
3 113 141 156
3 160 188 149
3 149 188 199
3 149 199 195
3 199 188 156
3 158 95 149
3 121 95 158
3 121 158 106
3 67 100 66
3 66 100 97
3 23 66 53
3 32 23 53
3 32 53 65
3 32 65 56
3 73 53 74
3 53 73 65
3 132 99 113
3 99 132 110
3 113 99 74
3 74 99 73
3 73 99 110
3 73 110 65
3 146 90 110
3 90 146 116
3 116 146 160
3 132 160 110
3 110 90 65
3 110 160 146
3 149 116 160
3 59 41 84
3 95 59 84
3 95 84 116
3 116 84 90
3 90 84 69
3 69 84 41
3 69 41 56
3 26 41 39
3 40 39 71
3 59 71 39
3 59 39 41
3 118 77 137
3 114 94 77
3 94 114 109
3 114 77 118
3 173 150 114
3 173 114 148
3 173 148 186
3 186 148 118
3 186 118 174
3 118 148 114
3 137 174 118
3 23 33 44
3 12 26 39
3 12 39 40
3 22 12 40
3 109 85 63
3 109 63 94
3 94 63 77
3 120 85 109
3 140 182 180
3 93 91 68
3 62 24 34
3 8 9 21
3 8 23 16
3 23 8 21
3 23 21 33
3 3 9 8
3 3 8 16
3 0 5 3
3 0 3 2
3 1 0 4
3 4 0 2
3 28 14 10
3 10 14 4
3 10 22 28
3 55 51 28
3 50 76 52
3 76 51 88
3 51 76 50
3 51 50 28
3 129 140 169
3 191 129 194
3 194 129 169
3 151 191 192
3 181 128 123
3 181 123 161
3 161 123 151
3 161 151 192
3 57 34 31
3 36 20 18
3 46 18 35
3 46 35 60
3 60 35 45
3 45 35 27
3 18 27 35
3 48 45 27
3 80 45 48
3 29 48 27
3 29 27 7
3 54 47 25
3 7 25 29
3 29 25 47
3 29 47 48
3 38 58 25
3 14 38 25
3 14 25 11
3 28 30 14
3 30 50 52
3 123 108 151
3 108 123 82
3 82 123 128
3 129 191 151
3 129 151 108
3 152 190 147
3 107 152 147
3 187 152 142
3 142 152 107
3 105 142 107
3 61 105 107
3 57 31 61
3 57 61 70
3 42 31 17
3 20 42 17
3 46 83 89
3 60 83 46
3 134 89 122
3 134 122 166
3 134 166 172
3 179 166 122
3 179 122 170
3 170 122 119
3 87 79 54
3 87 54 58
3 117 79 112
3 47 54 79
3 48 47 79
3 80 48 79
3 178 117 153
3 153 112 155
3 112 153 117
3 136 167 187
3 142 136 187
3 102 111 136
3 75 102 105
3 75 105 61
3 142 105 136
3 136 105 102
3 72 111 102
3 72 102 75
3 145 134 172
3 30 52 38
3 58 38 52
3 14 30 38
3 65 90 69
3 113 156 132
3 121 71 95
3 137 92 135
3 196 135 139
3 139 135 92
3 177 144 154
3 100 154 144
3 66 44 67
3 32 56 41
3 32 41 16
3 125 93 127
3 185 125 127
3 100 78 91
3 100 91 125
3 64 43 68
3 64 68 91
3 64 91 78
3 33 24 49
3 33 49 67
3 67 49 78
3 78 49 64
3 64 49 43
3 24 43 49
3 16 12 2
3 10 2 12
3 120 162 115
3 120 115 85
3 85 115 86
3 86 88 51
3 162 140 115
3 88 115 140
3 127 164 193
3 164 127 130
3 62 70 103
3 62 103 130
3 62 130 93
3 62 34 70
3 19 13 34
3 13 19 5
3 19 9 5
3 0 1 5
3 4 11 1
3 1 11 7
3 82 81 52
3 175 163 128
3 163 157 104
3 128 163 104
3 197 193 164
3 130 197 164
3 130 133 176
3 103 96 133
3 103 133 130
3 96 70 61
3 96 61 107
3 5 17 13
3 13 17 31
3 20 15 6
3 15 5 6
3 6 5 1
3 18 46 36
3 60 80 122
3 122 80 119
3 131 98 104
3 198 138 168
3 138 124 168
3 198 155 138
3 87 124 138
3 36 89 42
3 111 89 145
3 119 143 189
3 189 143 184
3 143 117 184
3 117 143 80
3 80 143 119
3 184 117 178
