ply
format ascii 1.0
comment Generated by PyMesh
element vertex 200
property float x
property float y
property float z
property float charge
property float ddc
property float hbond
property float hphob
property float rho
property float si
property float theta
property float nx
property float ny
property float nz
element face 338
property list uchar int vertex_indices
end_header
-20.3315 -7.74131 10.5953 0.199796 0 0.0211574 -0.577367 1e-08 -0.0744587 2.22045e-16 0.524645 -0.768145 0.367016
-19.3347 -7.254 9.89163 0.152654 0.0526073 0.287924 -0.63516 1.31386 -0.651943 4.10427 0.48933 -0.816662 0.305973
-20.79 -7.24388 12.0931 0.140248 -0.101147 0 -0.610956 1.64349 -0.22274 2.22045e-16 0.580424 -0.770568 0.263312
-19.261 -6.84125 11.6965 -0.243992 -0.0531311 0 -0.0888889 1.78009 0.277998 5.38782 0.368084 -0.864345 0.342669
-20.1845 -8.6605 9.077 0.175931 -0.0307714 0 -1 1.78094 0.901947 3.04263 0.476436 -0.824735 0.304665
-21.3273 -8.8025 9.55481 0.264206 0.145124 0 -1 1.78896 -0.0240967 2.31365 0.2227 -0.958482 0.178095
-21.7401 -8.90375 10.7118 0.347503 0.0757756 0 -1 1.83003 0.945378 1.60011 0.36967 -0.912761 0.173817
-21.936 -7.92137 12.5278 0.265757 -0.0349256 0 -1 2.51821 -0.340597 0.631794 0.511917 -0.808369 0.290657
-18.6239 -7.34106 8.705 0.0570087 0.0675507 0 -0.0888889 2.69983 0.0479925 3.87382 0.53879 -0.830792 0.139607
-18.333 -6.3345 12.108 0.091576 -0.0703687 -0.120039 -0.0912609 2.91469 0.282037 5.2769 0.250826 -0.908366 0.3346
-20.1338 -8.74375 7.88375 0.118923 0.140924 0 -1 2.97817 0.766052 3.15659 0.446913 -0.885445 -0.127498
-17.8043 -6.68175 10.2825 0.213745 0.0417609 0 -0.0888889 2.99385 0.461547 4.52371 0.530315 -0.818463 0.221099
-20.213 -6.25775 13.0215 0.18907 -0.0257609 0 -0.80846 3.11567 -0.856385 5.88758 0.370986 -0.88433 0.283425
-22.8943 -9.02575 11.4333 0.362197 0.100883 0 -1 3.19664 0.631109 1.28548 0.150304 -0.942415 0.298769
-21.5298 -9.17 7.988 0.0304505 0.145349 0 -1 3.41098 0.691841 2.6875 0.129959 -0.990607 -0.042527
-23.4648 -9.215 10.282 0.315044 0.188022 0 -1 3.63452 0.839958 1.60596 -0.116334 -0.992464 -0.0384874
-21.5989 -7.74388 13.9134 0.105045 -0.167737 -0.0787328 -0.922018 3.69722 -0.280303 0.35036 0.659801 -0.707421 -0.253412
-23.27 -9.02525 9.075 0.108075 0.178254 0 -1 3.80239 0.324712 1.97981 -0.0507863 -0.993967 -0.0972104
-17.401 -6.03675 11.4762 0.108734 0.0701115 0 -0.16549 3.81856 -0.137755 4.93036 0.51537 -0.855702 0.0465509
-17.4675 -6.8385 8.893 0.0557223 0.124926 0 -0.0888889 3.97465 0.738786 4.15521 0.745376 -0.6652 0.0438689
-19.1028 -6.053 12.8455 0.0926913 -0.104149 -0.218172 -0.149494 4.01729 -0.584342 5.57598 0.136644 -0.958058 0.251901
-23.2985 -8.6565 12.6355 0.145161 0.178707 0 -1 4.07012 0.171649 0.936165 -0.149108 -0.988821 -0.000164651
-20.324 -6.3865 14.3372 0.221022 -0.147575 0 1 4.09058 -0.999791 6.12437 0.499942 -0.811387 -0.302835
-18.4643 -7.255 7.23925 -0.370103 0.0326088 -0.530836 -0.632871 4.17675 -0.443081 3.7458 0.51067 -0.841295 0.17731
-17.1159 -5.79738 9.5235 0.256873 0.159924 0 -0.160835 4.3474 0.0971588 4.45294 0.853315 -0.519417 -0.0453887
-16.9878 -6.00616 12.5084 0.16828 -0.15724 0 -0.177778 4.35611 -0.268516 5.12594 0.0390774 -0.970228 -0.23902
-23.3092 -8.954 7.83125 0.126326 0.185763 0 -1 4.41984 0.406413 2.26854 -0.269986 -0.961625 -0.0488332
-21.3472 -8.6665 6.9135 -0.0288818 0.142372 0 -1 4.5337 -0.410649 2.89116 0.279968 -0.926246 -0.252362
-19.3284 -7.98259 6.64594 -0.32721 0.066522 0.000629393 -0.778167 4.63955 -0.0266087 3.44141 0.400781 -0.916003 0.0177111
-24.2651 -8.96638 10.8674 0.19289 0.265527 0 -1 4.65676 0.768214 1.44068 -0.64891 -0.734414 0.198877
-22.3465 -8.49375 14.0885 -0.068124 -0.249975 0 -0.177778 4.77047 -0.569041 0.548268 0.588423 -0.468957 -0.658663
-24.3194 -8.68213 9.49525 0.312904 0.278388 0 -1 4.91251 0.446673 1.79842 -0.684471 -0.726125 -0.0651303
-21.2502 -8.50362 14.8431 -0.296657 -0.285834 -0.838733 -0.177778 4.94748 -0.200459 0.327448 0.671974 -0.133546 -0.728434
-18.6523 -6.01937 14.132 0.176105 -0.153177 0 0.0998822 5.04591 -0.501133 5.72821 0.0278223 -0.975824 -0.216778
-22.7266 -9.01175 6.79588 -0.199122 0.132226 0 -1 5.1076 0.256502 2.53112 -0.0582471 -0.99656 -0.0589609
-20.6695 -7.0855 15.0363 0.123762 -0.209537 -0.585066 -0.0157454 5.13782 -0.757273 0.0379505 0.67072 -0.488536 -0.558093
-23.149 -9.1075 13.7925 0.056889 -0.295636 0 -0.177778 5.32088 0.219697 0.771629 -0.118113 -0.489313 -0.864073
-16.623 -4.8675 9.69606 0.265922 0.154923 0.0800778 -0.132375 5.41389 -0.580168 4.46947 0.79169 -0.538524 -0.288476
-17.37 -6.47 7.5005 -0.192306 0.117862 -0.747237 -0.695038 5.41838 0.15415 4.00046 0.832502 -0.537503 0.13428
-17.0427 -5.50575 8.13175 0.139628 0.152198 0.0189671 -0.0888889 5.56719 -0.731275 4.21277 0.914394 -0.404824 0.000975317
-23.98 -8.416 14.069 0.0383617 0.292237 0 -0.177778 5.67549 -0.0189584 0.86369 -0.801276 -0.42702 -0.419059
-17.0045 -6.579 13.7055 0.209189 -0.235609 0.0484967 -0.177778 5.68331 0.0532711 5.32723 -0.372483 -0.798344 -0.473185
-24.362 -7.525 11.982 0.235323 0.328261 0 -1 5.75487 0.0892188 1.16958 -0.886754 -0.400919 0.230069
-15.803 -4.925 11.1187 -0.006921 -0.15463 -0.811647 -0.177778 5.7978 -0.25577 4.79833 0.354256 -0.763653 -0.539757
-24.2743 -7.45813 13.5571 0.058323 0.303354 0 -1 5.86946 0.0498146 0.992489 -0.927345 -0.362319 -0.0935721
-17.9305 -7.7 5.6845 -0.513793 0.0413255 0 -0.777778 5.87975 0.787553 3.5732 0.473958 -0.878643 0.0578875
-24.5791 -8.30962 8.16063 0.4171 0.271599 0.110137 -1 5.88147 0.479351 2.04582 -0.825595 -0.561846 -0.052172
-20.8832 -8.26775 5.65475 -0.328951 0.108987 -0.121059 -0.777778 5.93326 -0.165529 4.1147 0.241635 -0.944963 -0.220583
-20.0229 -7.55125 15.8363 0.178879 -0.213028 -0.317033 0.147612 6.01271 -0.207275 0.0379505 0.562908 -0.387783 -0.729903
-17.048 -7.02975 6.08975 -0.476217 0.0634188 0 -0.777778 6.01468 0.635334 3.5732 0.706083 -0.625624 0.331724
-19.3487 -8.19125 5.2865 -0.36462 0.0994916 0 -0.777778 6.01506 0.64919 3.44141 0.123666 -0.9825 -0.139282
-15.3011 -6.19775 12.604 0.50108 -0.220619 -0.194779 -0.177778 6.05634 -0.206937 5.12594 -0.272386 -0.641142 -0.717456
-22.384 -8.9035 5.78675 0.110245 0.0605907 0.189878 -0.931638 6.08312 0.265778 2.53112 0.320707 -0.94714 -0.00852864
-15.8385 -6.69825 13.663 0.586543 -0.238857 0.523724 -0.177778 6.12613 -0.999858 5.32723 -0.370887 -0.574621 -0.729557
-24.6623 -7.54462 10.8359 0.407607 0.34382 0 -1 6.1333 0.314172 1.16958 -0.941904 -0.298514 0.153971
-18.7805 -6.90188 15.6709 0.205645 -0.183413 0 1 6.19457 -0.444014 5.72821 0.146899 -0.741063 -0.655169
-20.4977 -9.66825 15.1231 0.138002 -0.350518 -0.771219 -0.31148 6.36205 0.0933316 0.327448 0.461489 0.593141 -0.659705
-17.911 -6.2715 15.196 0.204766 -0.218626 0 1 6.36696 -0.999889 5.72821 -0.413333 -0.739608 -0.531165
-24.621 -8.069 6.5915 0.169666 0.222232 0.651074 -1 6.43007 0.379095 2.04582 -0.816496 -0.575508 0.0461055
-24.8995 -7.225 9.8345 0.408823 0.349317 0.100114 -1 6.51714 0.252499 1.79842 -0.992452 -0.112955 0.0477527
-21.5238 -10.0594 14.7436 0.0140825 -0.331708 0 -0.302471 6.53026 -0.347971 0.327448 0.230592 0.180458 -0.95617
-16.9635 -5.543 7.033 -0.11205 0.123777 0.573641 -0.0888889 6.53334 -0.596404 4.21277 0.878562 -0.357826 0.316369
-24.1569 -9.28213 14.6067 0.0760867 0.282797 0 -0.177778 6.62828 0.0777232 0.86369 -0.65629 -0.196043 -0.728595
-23.42 -10.2725 14.429 0.0938083 -0.280451 0 -0.177778 6.6758 0.153012 0.771629 -0.470196 -0.275288 -0.83853
-24.6031 -6.60281 12.3184 0.157184 0.325522 0 -1 6.76568 0.0425916 1.16958 -0.963841 -0.218366 0.152733
-23.6082 -9.08744 5.33644 0.150248 0.119376 0 -0.777778 6.81432 0.298718 2.53112 -0.315602 -0.883558 0.346006
-20.1265 -9.2905 16.176 0.276374 -0.261985 -0.870462 -0.262424 6.8602 -0.889417 0.327448 0.611254 0.245662 -0.752342
-15.8931 -3.66613 9.317 0.0168946 0.0932779 0.787115 -0.16315 6.86982 -0.999886 4.46947 0.474484 -0.829969 -0.293286
-24.6915 -7.5625 7.4935 0.248663 0.310244 0.322389 -1 6.88938 -0.0937854 2.04582 -0.984202 -0.106551 -0.141396
-24.5421 -7.63413 14.8821 -0.0393823 0.278612 0 -0.177778 6.93581 -0.270768 0.86369 -0.897409 -0.127787 -0.422288
-24.4695 -6.49 14.027 -0.0499607 0.290407 0 -1 6.96316 -0.664869 0.992489 -0.972331 -0.202944 -0.1157
-16.4895 -7.686 14.14 0.249945 -0.323939 0 -0.866667 6.97925 0.0837004 5.32723 -0.666855 -0.076441 -0.741257
-19.545 -7.992 16.6395 0.294261 -0.213408 -0.347605 0.404067 7.04605 -0.999927 0.0379505 0.269309 -0.335886 -0.902581
-15.2399 -4.01038 10.1786 0.048477 -0.130628 0.0615469 -0.0972704 7.11108 -0.428873 4.79833 0.0501641 -0.892009 -0.449225
-19.9748 -7.73325 4.382 -0.56974 0.106989 -0.194228 -0.777778 7.20665 -0.325348 4.1147 0.0252994 -0.972989 -0.22946
-25.159 -7.1915 8.578 0.205926 0.325724 0.769499 -1 7.20837 0.822644 2.04582 -0.99791 0.0161028 -0.0625766
-22.078 -8.56275 4.7525 0.00291981 0.0764655 0.351184 -0.808636 7.21423 -0.266633 4.1147 0.570463 -0.803747 -0.169007
-15.4591 -7.77588 13.7755 0.861067 -0.295301 0.088854 -0.773651 7.27412 -0.734937 5.32723 -0.501152 0.0173468 -0.865186
-14.4446 -4.32575 10.8495 -0.113263 -0.158082 -0.487567 -0.132564 7.30671 -0.99988 4.79833 -0.216204 -0.790347 -0.573243
-16.4112 -4.2905 7.04475 -0.010762 0.0907617 0.812023 -0.0888889 7.31567 -0.628653 4.21277 0.838796 -0.44615 0.312044
-16.0777 -3.76875 8.203 0.0361967 0.0700196 0 -0.0888889 7.3462 -0.514211 4.46947 0.711117 -0.702398 -0.0308115
-20.4439 -10.5723 14.3776 0.139374 -0.408306 0 -1 7.53507 0.0620823 0.327448 -0.1757 0.687899 -0.704219
-25.0375 -6.1895 10.903 0.136225 0.336772 0 -1 7.541 0.585142 1.16958 -0.998942 -0.0459705 0.00106772
-24.3805 -8.4235 5.5625 0.104751 0.187338 0 -0.777778 7.54468 -0.0931875 2.04582 -0.746378 -0.578982 0.328176
-17.5072 -7.0805 4.16025 -0.244737 0.0284652 -0.0570109 -0.462858 7.57867 -0.31715 3.5732 0.551357 -0.826133 0.116228
-16.272 -6.41025 4.868 -0.196917 0.017967 -0.260354 -0.537218 7.58905 0.0206288 3.5732 0.376086 -0.90874 0.180975
-16.0704 -5.72713 5.64337 -0.140468 -0.0751564 -0.360001 -0.537833 7.7034 -0.0838047 4.21277 0.544413 -0.522051 0.656565
-18.504 -7.66988 3.92006 -0.246476 0.05407 0 -0.773431 7.704 0.0743183 3.5732 0.180183 -0.982802 0.0404267
-17.8437 -7.97316 16.2629 0.254598 -0.255289 0 0.717809 7.7359 -0.731524 5.72821 -0.424628 -0.21275 -0.880016
-19.324 -10.4045 14.811 0.166069 -0.37675 0 -1 7.78228 -0.157377 0.327448 0.125617 0.949726 -0.286775
-22.4034 -11.3806 14.4312 -0.278896 -0.292789 -0.752668 -1 7.79694 0.124264 0.771629 -0.279148 -0.00970253 -0.960199
-21.2822 -7.69037 3.86944 -0.210869 0.0638942 0 -0.777778 7.85156 -0.746784 4.1147 0.462464 -0.873277 -0.153346
-25.0569 -9.07125 15.4163 0.127213 -0.258817 0 -0.177778 7.85707 -0.140422 0.86369 -0.546323 0.134883 -0.826643
-24.7237 -6.64975 6.4585 0.206704 0.252849 0.622314 -1 7.85923 -0.69256 2.04582 -0.96535 -0.20611 0.160054
-19.343 -10.0887 16.0842 0.0367197 -0.305996 0 -0.959427 7.92212 -0.999899 0.327448 0.269278 0.796883 -0.540802
-23.7349 -11.4009 14.8865 0.126947 -0.248754 0.0924512 -0.301224 7.93348 -0.348377 0.771629 -0.20439 -0.0241314 -0.978592
-24.6723 -6.2505 8.82925 0.308316 0.369135 0.0893703 -1 7.93552 -0.429831 2.04582 -0.958404 0.28176 0.0455346
-24.6903 -10.3582 15.2692 0.354657 -0.24618 0 -0.177778 7.9999 -0.506523 0.86369 -0.331744 0.0426787 -0.942404
-16.891 -8.604 14.5685 0.296941 -0.348322 0 -0.866667 8.069 -0.637084 5.32723 -0.911108 0.276913 -0.30529
-23.2131 -9.617 4.12425 0.316998 0.0402619 0.452161 -0.777778 8.07319 0.788439 2.53112 0.320447 -0.946932 0.0251881
-13.6006 -5.50238 11.3686 0.099116 -0.179883 0 -0.0888889 8.0883 -0.327554 4.79833 -0.430903 -0.636383 -0.639796
-17.0825 -7.7875 15.585 0.30018 -0.287938 0 -0.191002 8.13784 -0.858649 5.32723 -0.834138 -0.0571497 -0.548587
-14.5334 -8.09988 12.9789 1 -0.259227 0 -0.866667 8.14153 0.0769332 5.32723 -0.416646 -0.127902 -0.900026
-24.6496 -5.57312 13.2814 0.0897943 0.264837 0 -1 8.15858 -0.357939 0.992489 -0.915522 -0.399765 -0.0448003
-18.8542 -9.37125 16.6077 0.147958 -0.279033 0 -0.866667 8.20617 -0.774815 0.327448 -0.0286449 0.379911 -0.924579
-14.9088 -3.36075 8.43425 0.00988187 -0.0854867 0 -0.0888889 8.22678 -0.527912 4.46947 0.0743413 -0.974183 -0.213168
-24.7005 -6.20725 7.77287 0.262546 0.303943 0.0845715 -0.698524 8.27315 -0.223395 2.04582 -0.993191 -0.0561366 0.102083
-25.111 -6.972 5.09363 0.158238 0.187101 0.100685 -0.811127 8.35026 -0.41889 2.04582 -0.838639 -0.3688 0.400838
-24.994 -5.30963 14.6462 -0.180587 0.238276 -0.692479 -1 8.39557 -0.0334196 0.992489 -0.963333 -0.239604 -0.120742
-15.773 -3.4955 6.645 -0.114715 0.0973311 0 -0.151249 8.41072 -0.0697984 4.21277 0.923786 -0.380056 0.0466609
-24.5348 -5.35962 9.98388 0.164762 0.388677 0 -1 8.4237 0.131616 1.79842 -0.895138 0.434021 -0.101751
-21.4137 -11.8073 13.9376 0.0435247 -0.354635 -0.314608 -1 8.45819 -0.144449 0.327448 -0.545339 0.442209 -0.712079
-24.7594 -9.37162 4.1245 0.135141 0.105967 0 -0.777778 8.50985 0.84082 2.53112 -0.40853 -0.884444 0.225528
-15.8263 -4.70075 6.05 -0.0799593 -0.0995951 0 -0.288889 8.54039 -0.469468 4.21277 0.445854 -0.386268 0.807472
-25.071 -6.36575 15.7308 -0.2382 0.240543 -0.294658 -1 8.55099 -0.033256 0.86369 -0.961125 -0.0348825 -0.2739
-25.3223 -7.353 16.2712 -0.112491 0.246032 -0.533627 -0.177778 8.55363 -0.351625 0.86369 -0.751181 0.277511 -0.598928
-13.3403 -7.75063 12.6695 0.488417 -0.175019 0 -0.477887 8.55843 0.309244 5.12594 -0.078355 -0.532924 -0.842527
-20.5223 -11.3789 13.7464 0.202422 -0.409345 0 -1 8.56228 -0.702519 0.327448 -0.520897 0.660354 -0.540924
-16.6895 -6.5235 3.8545 -0.247934 -0.0236825 -0.0845656 -0.266918 8.61422 -0.999905 3.5732 0.290408 -0.875042 0.387254
-15.4358 -9.10581 13.2952 0.96659 -0.317348 0 -0.866667 8.68832 -0.179197 5.32723 -0.419749 0.28432 -0.861959
-13.5747 -4.53587 9.77962 0.055301 -0.165843 0 -0.0888889 8.70153 -0.568209 4.79833 -0.68619 -0.688193 -0.235655
-25.3088 -8.56675 4.445 0.166744 0.164741 0 -0.777778 8.80375 0.999828 2.53112 -0.794798 -0.433744 0.424456
-16.9587 -9.418 13.788 0.235878 -0.388103 0 -0.866667 8.80788 0.382773 5.32723 -0.698075 0.434666 -0.568996
-18.3009 -10.4878 14.4353 0.217073 -0.388689 0 -1 8.87536 -0.36447 0.327448 -0.351694 0.898683 -0.262068
-18.4521 -10.3144 15.4754 0.193447 -0.341174 0 -0.944124 8.88217 -0.902786 0.327448 -0.275903 0.864479 -0.420183
-24.9455 -4.472 12.149 0.089358 0.309807 0 -0.988469 8.93046 0.208074 1.16958 -0.869816 0.163171 -0.465613
-25.267 -5.68925 6.26125 0.171167 0.193224 0 -0.364204 8.98023 -0.327172 2.04582 -0.82037 -0.434493 0.371765
-14.8775 -6.392 4.7815 -0.0877703 -0.0818391 0 -0.288889 8.98635 0.139323 3.5732 -0.0701895 -0.726398 0.68368
-16.6373 -7.33638 3.0085 -0.150963 -0.0683597 0 -0.155556 9.04452 -0.415263 3.5732 0.229484 -0.609191 0.759094
-19.2633 -7.63963 2.67156 -0.203143 0.0926544 0 -0.777778 9.06154 -0.401501 3.5732 -0.292112 -0.938389 0.184654
-18.2409 -8.0865 2.63013 -0.181489 -0.0818992 0 -0.155556 9.08484 -0.122252 3.5732 -0.178788 -0.814894 0.551346
-13.9991 -3.79312 8.62912 0.20013 -0.145269 0 -0.0888889 9.108 -0.509045 4.79833 -0.539987 -0.798588 -0.265839
-19.2892 -10.6217 13.267 0.17298 -0.491121 0 -1 9.13794 0.330198 0.327448 -0.334676 0.910521 -0.242781
-24.8075 -12.0948 14.653 0.300281 -0.225414 0.715205 -0.177778 9.23213 0.221262 0.771629 0.152374 0.243081 -0.957963
-20.5355 -7.3585 2.45875 -0.197638 0.0564426 0 -0.777778 9.24472 -0.725604 4.1147 0.0744875 -0.996569 0.0360829
-22.7603 -12.7945 14.5735 -0.147878 -0.235148 -0.0295089 -1 9.26211 -0.0751467 0.771629 -0.444675 -0.157526 -0.881731
-25.9482 -10.5319 15.2934 0.119435 -0.232727 0 -0.177778 9.26997 -0.207479 0.86369 -0.0906333 0.436551 -0.895103
-24.4319 -4.8465 8.7625 0.221181 0.317872 0 -0.69704 9.36152 -0.261914 2.04582 -0.925946 0.155936 0.343958
-25.0672 -5.18225 15.6625 -0.299425 0.230812 -0.00553489 -1 9.42243 0.0624215 0.992489 -0.999723 0.0152582 -0.0179421
-14.8453 -3.09875 7.2685 -0.106071 0.169104 0 -0.0888889 9.4233 0.173275 4.46947 0.063646 -0.38891 -0.919075
-17.4824 -9.63325 15.3156 0.240497 -0.331788 0 -0.866667 9.47159 -0.876771 5.32723 -0.740196 0.487666 -0.462917
-23.8135 -12.9655 14.8745 0.151873 -0.19897 0.27264 -0.393071 9.5001 -0.0725685 0.771629 -0.0165388 -0.164178 -0.986292
-15.5855 -6.97237 3.164 -0.206872 -0.0760541 0 -0.288889 9.51022 -0.749771 3.5732 -0.133444 -0.768976 0.625195
-14.386 -5.0025 5.6365 0.057943 -0.0989755 0 -0.288889 9.53707 -0.0728844 4.21277 0.0248452 -0.484975 0.874175
-21.5387 -7.78562 2.19894 -0.28386 -0.00857897 -0.221223 -0.777778 9.54432 -0.999796 4.1147 0.458907 -0.820659 0.340475
-23.843 -4.437 9.9255 0.143258 0.373997 0 -0.677778 9.57835 -0.22975 1.79842 -0.820186 0.460213 0.33985
-12.9268 -5.85825 10.0618 0.066468 -0.161053 0 -0.0888889 9.60104 0.523431 4.79833 -0.698661 -0.694381 -0.17236
-24.227 -9.4145 2.994 0.047374 0.0880226 0 -0.777778 9.60501 0.34692 2.53112 -0.120998 -0.964993 -0.232697
-12.3375 -6.3815 11.3695 0.125123 -0.115823 0 -0.0888889 9.62722 -0.0946285 4.79833 -0.259074 -0.89831 -0.354851
-25.4662 -4.19425 14.3174 0.0128769 0.164997 -0.170267 -0.905593 9.65062 -0.311806 0.992489 -0.738833 -0.651896 0.170754
-16.5045 -2.70075 6.00325 -0.242911 0.20316 0 -0.0888889 9.66713 -0.280207 4.21277 0.742702 0.574164 -0.344571
-12.997 -6.8425 12.0225 0.164346 -0.157112 0 -0.0888889 9.69697 0.101263 4.79833 -0.0988507 -0.649519 -0.753892
-12.4315 -8.2485 13.1453 0.53482 -0.167677 0 -0.483678 9.69869 -0.394484 5.32723 0.145432 -0.269293 -0.952014
-21.7095 -13.0495 13.7542 0.152812 -0.261116 0 -1 9.72698 0.262136 0.771629 -0.650328 -0.14921 -0.744856
-22.7065 -8.91387 2.63675 -0.172826 0.0199978 0 -0.777778 9.79473 -0.0757269 4.1147 0.480136 -0.869231 0.117929
-25.7173 -7.50325 3.85775 0.172599 0.16689 0 -0.777778 9.8258 0.0297892 2.53112 -0.887634 -0.296258 0.352614
-13.842 -9.499 12.3448 0.385083 -0.240124 0.846334 -0.866667 9.82607 0.583064 5.32723 0.114291 0.198146 -0.973486
-25.3781 -5.99813 16.916 -0.0399433 0.223197 0 -0.420696 9.82933 -0.396948 0.86369 -0.837572 0.234685 -0.493352
-13.1315 -5.173 8.925 0.0186621 -0.170833 0 -0.0888889 9.85597 0.513889 4.79833 -0.755563 -0.598811 -0.265611
-26.873 -9.08488 16.3076 -0.24996 0.217698 -0.251729 -0.177778 9.88014 0.346423 0.86369 -0.542181 0.464401 -0.700266
-16.8458 -10.3915 13.2823 0.230086 -0.3787 0 -0.901769 9.91069 -0.277064 5.32723 -0.0914488 0.806767 -0.58375
-25.3158 -9.06675 2.8685 0.221705 0.131137 0.714971 -0.777778 9.917 0.999895 2.53112 -0.668098 -0.713388 -0.211478
-26.2375 -5.837 5.0115 0.077343 0.149312 0 -0.777778 9.9515 0.886181 2.04582 -0.735778 -0.482889 0.474815
-14.434 -3.972 5.968 -0.105477 0.191238 0 -0.288889 9.98498 0.249956 4.21277 0.435753 0.731254 0.524773
-25.6532 -4.77025 6.39075 0.106808 0.176428 0 -0.355556 9.98546 -0.628938 2.04582 -0.781544 -0.421795 0.45965
-21.164 -12.614 12.603 0.138973 -0.345097 0 -1 10.0375 0.670374 0.327448 -0.847744 0.221375 -0.481999
-23.995 -3.911 12.06 0.104104 0.345836 0 -1 10.0378 -0.604812 1.16958 -0.406309 0.484181 -0.774908
-15.9136 -1.95187 7.181 -0.292536 0.178845 0 -0.0888889 10.0508 -0.591677 4.21277 0.618773 0.102756 -0.77882
-26.2623 -6.21075 4.06891 0.130202 0.142151 0 -0.777778 10.0693 -0.020967 2.04582 -0.793958 -0.536046 0.286854
-20.0719 -11.826 12.3647 0.259031 -0.441269 0 -1 10.0828 0.068851 0.327448 -0.660231 0.616466 -0.429027
-26.3605 -7.1855 17.4255 -0.144245 0.206396 -0.496914 -0.203284 10.1151 -0.0453567 0.86369 -0.79986 0.333164 -0.499225
-25.2713 -3.80669 15.5155 -0.00328846 0.155036 0 -0.963744 10.1538 -0.660675 0.992489 -0.774085 -0.592939 0.221848
-13.8022 -6.02612 5.05288 -0.0323285 -0.0985931 0 -0.288889 10.1542 -0.344842 3.5732 -0.0436382 -0.470329 0.881412
-17.1569 -8.38313 2.722 -0.173604 -0.117505 0 -0.155556 10.2124 0.238235 3.5732 -0.185857 -0.384039 0.904418
-25.3714 -4.37937 7.70013 0.198169 0.199666 0 -0.355556 10.2216 0.165953 2.04582 -0.792611 -0.364866 0.488508
-20.046 -7.609 1.613 -0.255855 -0.0697995 0 -0.603587 10.2535 -0.999889 3.5732 -0.121794 -0.818928 0.560824
-23.4335 -4.26737 10.9566 0.191643 0.421939 0 -0.630524 10.2546 -0.646653 1.16958 -0.706484 0.691227 -0.151939
-26.0491 -4.00919 13.2559 0.1678 0.178494 0.254854 -0.829949 10.2574 0.326268 0.992489 -0.679656 -0.636671 -0.364305
-19.0576 -8.329 1.66288 -0.200937 -0.108785 0 -0.155556 10.3005 -0.464996 3.5732 -0.427405 -0.602682 0.673869
-25.378 -3.21106 12.4735 0.127782 0.220232 0 -0.821518 10.3024 -0.0415662 1.16958 -0.194296 -0.179996 -0.964288
-26.1826 -11.346 14.5651 0.131163 -0.221852 0 -0.177778 10.3872 0.334408 0.86369 0.187801 0.455244 -0.870336
-15.3629 -10.7626 12.8304 0.136983 -0.313251 -0.394883 -0.790553 10.4106 -0.999862 5.32723 -0.332311 0.671036 -0.662782
-22.695 -13.8725 14.969 0.0611497 -0.189585 0 -0.440453 10.4122 -0.541795 0.771629 -0.371655 -0.333765 -0.866299
-25.7915 -8.07225 2.954 0.184798 0.156803 0.603457 -0.777778 10.4471 0.457091 2.53112 -0.89443 -0.413676 -0.169906
-13.456 -6.9735 4.6405 0.0106169 -0.0757878 0 -0.288889 10.5286 0.669452 3.5732 -0.0476966 -0.673293 0.737836
-15.8403 -8.4775 2.45913 -0.184729 -0.107047 -0.0665696 -0.155556 10.5409 -0.532228 3.5732 0.0810591 -0.22859 0.970142
-14.219 -7.33175 3.72213 -0.132711 -0.0851298 0 -0.288889 10.5481 0.291035 3.5732 -0.304906 -0.795956 0.522959
-24.8498 -4.58025 16.602 -0.132577 0.202265 0 -1 10.5592 -0.999891 0.992489 -0.979338 -0.130903 -0.154149
-11.4593 -7.06425 12.5245 0.36085 -0.125855 0 -0.534173 10.566 -0.845022 4.79833 -0.0430158 -0.6673 -0.743546
-13.7907 -2.59575 7.293 -0.043938 0.185027 0 -0.0888889 10.592 -0.242704 4.46947 -0.0844454 0.0670477 -0.99417
-21.0245 -13.6438 12.84 0.182942 -0.247118 0 -1 10.6328 0.235309 0.327448 -0.882519 -0.299105 -0.362899
-13.621 -3.619 7.156 -0.00765367 -0.17614 0 -0.0888889 10.6388 0.26688 4.79833 -0.581425 -0.365319 -0.726971
-12.061 -6.426 9.85625 0.0687357 -0.0869527 0 -0.0888889 10.6566 0.594472 4.79833 -0.196044 -0.978588 -0.0627064
-18.04 -10.3495 12.4425 0.180204 -0.496487 0 -1 10.6593 0.790245 5.32723 -0.0188837 0.93446 -0.355567
-27.0502 -8.16725 17.2865 -0.204241 0.204194 -0.581889 -0.177778 10.7168 0.633277 0.86369 -0.80342 0.523062 -0.28447
-14.9106 -1.80275 7.49563 -0.306126 0.191445 0 -0.0888889 10.7407 -0.551079 4.46947 -0.00256586 0.0953149 -0.995444
-24.5766 -3.49787 8.32775 0.192407 0.231767 0 -0.355556 10.7859 -0.149576 2.04582 -0.611706 0.0681538 0.788144
-18.9442 -11.0352 11.6637 0.331355 -0.53514 0 -1 10.8293 0.380992 0.327448 -0.371316 0.846535 -0.381449
-13.5205 -4.28575 6.30813 -0.0468763 -0.134009 0.712136 -0.0888889 10.8462 0.810863 4.21277 -0.0219807 -0.0487423 0.998569
-14.5136 -10.6986 12.1084 0.0093171 -0.280078 -0.611101 -0.794638 10.8783 0.104646 5.32723 -0.118791 0.560971 -0.819268
3 162 126 164
3 126 162 107
3 126 107 93
3 68 93 58
3 121 155 183
3 177 103 149
3 125 177 179
3 125 179 166
3 196 174 137
3 174 126 106
3 96 106 75
3 75 68 46
3 68 58 46
3 65 83 121
3 83 58 107
3 83 107 121
3 65 112 99
3 112 147 99
3 99 147 154
3 171 149 108
3 171 108 138
3 114 157 138
3 69 108 70
3 44 70 64
3 64 82 54
3 82 59 54
3 59 82 110
3 59 110 96
3 54 59 31
3 46 26 31
3 26 5 17
3 17 5 6
3 27 34 52
3 34 26 58
3 34 65 52
3 99 52 65
3 52 99 76
3 74 134 129
3 194 170 115
3 40 62 69
3 21 40 44
3 69 44 40
3 42 64 54
3 29 31 15
3 17 15 31
3 13 7 21
3 10 28 8
3 28 27 47
3 47 27 52
3 23 28 45
3 128 87 130
3 128 130 173
3 87 74 129
3 173 130 178
3 97 62 63
3 97 63 95
3 36 90 63
3 95 63 90
3 2 16 7
3 2 12 22
3 9 12 3
3 2 3 12
3 0 2 7
3 6 5 0
3 0 4 1
3 19 11 8
3 1 8 11
3 24 11 19
3 24 19 39
3 38 19 23
3 49 38 23
3 143 86 127
3 86 49 85
3 86 85 127
3 49 45 85
3 127 85 142
3 173 185 128
3 142 186 127
3 95 90 141
3 135 141 90
3 135 153 182
3 153 90 111
3 153 111 190
3 190 111 165
3 165 111 169
3 117 81 132
3 81 89 132
3 132 89 123
3 89 81 56
3 66 32 48
3 48 32 35
3 55 22 33
3 33 25 41
3 18 25 9
3 9 3 18
3 9 25 20
3 25 18 43
3 24 43 18
3 51 25 43
3 120 73 131
3 39 79 80
3 143 127 172
3 160 122 119
3 193 132 160
3 77 102 119
3 119 71 77
3 43 100 51
3 51 100 116
3 116 100 151
3 131 158 120
3 131 191 158
3 119 156 199
3 152 102 116
3 188 116 151
3 151 148 188
3 148 151 100
3 192 148 146
3 100 146 148
3 101 98 140
3 169 111 117
3 110 176 145
3 176 110 125
3 176 125 166
3 126 174 164
3 107 58 93
3 155 107 168
3 168 107 162
3 103 108 149
3 125 103 177
3 145 196 137
3 145 137 110
3 106 96 137
3 106 137 174
3 137 96 110
3 68 75 106
3 68 106 93
3 93 106 126
3 26 46 58
3 65 34 58
3 83 65 58
3 155 121 107
3 91 99 154
3 91 154 144
3 91 144 74
3 74 144 134
3 129 134 175
3 129 175 178
3 134 144 175
3 157 187 138
3 171 138 187
3 170 157 115
3 114 115 157
3 92 115 69
3 69 115 114
3 44 69 70
3 64 70 103
3 103 70 108
3 64 103 125
3 47 76 91
3 91 76 99
3 47 91 74
3 130 129 178
3 136 159 92
3 136 92 97
3 97 92 62
3 62 40 36
3 21 36 40
3 63 62 36
3 30 36 21
3 1 4 8
3 8 4 10
3 28 23 8
3 84 45 87
3 84 87 128
3 130 87 129
3 128 185 142
3 95 133 97
3 97 133 136
3 136 133 180
3 141 133 95
3 111 81 117
3 81 111 60
3 60 111 90
3 60 90 36
3 60 36 30
3 56 81 60
3 56 60 32
3 32 60 30
3 16 32 30
3 7 16 21
3 21 16 30
3 48 35 22
3 22 35 16
3 22 16 2
3 16 35 32
3 12 33 22
3 20 33 12
3 20 12 9
3 0 3 2
3 1 3 0
3 61 39 38
3 61 38 49
3 38 39 19
3 79 61 86
3 79 86 113
3 113 86 143
3 49 86 61
3 142 118 128
3 84 128 118
3 84 118 85
3 84 85 45
3 85 118 142
3 182 141 135
3 197 169 132
3 132 169 117
3 160 132 123
3 122 160 123
3 122 123 140
3 122 140 98
3 124 123 89
3 123 124 140
3 66 94 56
3 94 66 104
3 56 94 89
3 89 94 124
3 124 94 104
3 124 104 140
3 72 88 104
3 88 72 55
3 55 72 48
3 66 48 104
3 104 88 140
3 104 48 72
3 22 55 48
3 41 71 57
3 33 41 57
3 33 57 55
3 55 57 88
3 88 57 101
3 101 57 71
3 101 71 98
3 77 71 53
3 51 53 25
3 41 25 53
3 41 53 71
3 37 43 24
3 73 78 43
3 78 73 120
3 73 43 37
3 105 131 73
3 105 73 67
3 105 67 80
3 80 67 37
3 80 37 39
3 37 67 73
3 24 39 37
3 139 105 109
3 80 109 105
3 143 163 113
3 113 163 109
3 113 109 79
3 79 109 80
3 131 105 139
3 131 139 191
3 198 163 143
3 102 77 53
3 102 53 51
3 116 102 51
3 120 146 100
3 120 100 78
3 78 100 43
3 158 146 120
3 181 160 119
3 199 181 119
3 152 116 188
3 109 167 139
3 139 167 195
3 150 167 109
3 150 109 163
3 139 195 189
3 139 189 191
3 140 88 101
3 121 112 65
3 112 121 161
3 161 147 112
3 121 183 161
3 138 108 114
3 114 108 69
3 110 82 125
3 125 82 64
3 59 96 75
3 59 75 46
3 31 59 46
3 34 27 14
3 34 14 26
3 26 14 5
3 115 92 159
3 194 115 159
3 62 92 69
3 21 44 42
3 42 44 64
3 21 42 29
3 54 29 42
3 54 31 29
3 21 29 13
3 13 29 15
3 26 17 31
3 6 15 17
3 15 6 13
3 13 6 7
3 10 4 14
3 10 14 27
3 5 14 4
3 10 27 28
3 47 52 76
3 47 74 50
3 28 47 50
3 74 87 50
3 28 50 45
3 50 87 45
3 7 6 0
3 0 5 4
3 8 23 19
3 45 49 23
3 127 186 184
3 127 184 172
3 153 135 90
3 56 32 66
3 20 25 33
3 24 18 11
3 1 11 3
3 3 11 18
3 39 61 79
3 132 193 197
3 122 98 71
3 122 71 119
3 119 102 156
3 152 156 102
