ply
format ascii 1.0
comment Generated by PyMesh
element vertex 191
property float x
property float y
property float z
property float nx
property float ny
property float nz
element face 329
property list uchar int vertex_indices
end_header
-17.911 -6.2715 15.196 -0.413333 -0.739608 -0.531165
-18.7805 -6.90188 15.6709 0.146899 -0.741063 -0.655169
-18.6523 -6.01937 14.132 0.0278223 -0.975824 -0.216778
-17.0825 -7.7875 15.585 -0.834138 -0.0571497 -0.548587
-17.0045 -6.579 13.7055 -0.372483 -0.798344 -0.473185
-17.8437 -7.97316 16.2629 -0.424628 -0.21275 -0.880016
-16.4895 -7.686 14.14 -0.666855 -0.076441 -0.741257
-20.0229 -7.55125 15.8363 0.562908 -0.387783 -0.729903
-19.1028 -6.053 12.8455 0.136644 -0.958058 0.251901
-19.545 -7.992 16.6395 0.269309 -0.335886 -0.902581
-15.8385 -6.69825 13.663 -0.370887 -0.574621 -0.729557
-20.324 -6.3865 14.3372 0.499942 -0.811387 -0.302835
-16.891 -8.604 14.5685 -0.911108 0.276913 -0.30529
-16.9878 -6.00616 12.5084 0.0390774 -0.970228 -0.23902
-20.213 -6.25775 13.0215 0.370986 -0.88433 0.283425
-15.4591 -7.77588 13.7755 -0.501152 0.0173468 -0.865186
-17.4824 -9.63325 15.3156 -0.740196 0.487666 -0.462917
-20.6695 -7.0855 15.0363 0.67072 -0.488536 -0.558093
-18.8542 -9.37125 16.6077 -0.0286449 0.379911 -0.924579
-18.333 -6.3345 12.108 0.250826 -0.908366 0.3346
-16.9587 -9.418 13.788 -0.698075 0.434666 -0.568996
-17.401 -6.03675 11.4762 0.51537 -0.855702 0.0465509
-15.4358 -9.10581 13.2952 -0.419749 0.28432 -0.861959
-15.3011 -6.19775 12.604 -0.272386 -0.641142 -0.717456
-20.1265 -9.2905 16.176 0.611254 0.245662 -0.752342
-21.2502 -8.50362 14.8431 0.671974 -0.133546 -0.728434
-14.5334 -8.09988 12.9789 -0.416646 -0.127902 -0.900026
-20.79 -7.24388 12.0931 0.580424 -0.770568 0.263312
-19.343 -10.0887 16.0842 0.269278 0.796883 -0.540802
-18.4521 -10.3144 15.4754 -0.275903 0.864479 -0.420183
-19.261 -6.84125 11.6965 0.368084 -0.864345 0.342669
-21.5989 -7.74388 13.9134 0.659801 -0.707421 -0.253412
-18.3009 -10.4878 14.4353 -0.351694 0.898683 -0.262068
-16.8458 -10.3915 13.2823 -0.0914488 0.806767 -0.58375
-15.803 -4.925 11.1187 0.354256 -0.763653 -0.539757
-20.4977 -9.66825 15.1231 0.461489 0.593141 -0.659705
-17.8043 -6.68175 10.2825 0.530315 -0.818463 0.221099
-22.3465 -8.49375 14.0885 0.588423 -0.468957 -0.658663
-13.3403 -7.75063 12.6695 -0.078355 -0.532924 -0.842527
-15.3629 -10.7626 12.8304 -0.332311 0.671036 -0.662782
-19.324 -10.4045 14.811 0.125617 0.949726 -0.286775
-21.5238 -10.0594 14.7436 0.230592 0.180458 -0.95617
-13.842 -9.499 12.3448 0.114291 0.198146 -0.973486
-21.936 -7.92137 12.5278 0.511917 -0.808369 0.290657
-17.1159 -5.79738 9.5235 0.853315 -0.519417 -0.0453887
-20.3315 -7.74131 10.5953 0.524645 -0.768145 0.367016
-14.5136 -10.6986 12.1084 -0.118791 0.560971 -0.819268
-13.6006 -5.50238 11.3686 -0.430903 -0.636383 -0.639796
-15.2399 -4.01038 10.1786 0.0501641 -0.892009 -0.449225
-18.04 -10.3495 12.4425 -0.0188837 0.93446 -0.355567
-19.2892 -10.6217 13.267 -0.334676 0.910521 -0.242781
-20.4439 -10.5723 14.3776 -0.1757 0.687899 -0.704219
-14.4446 -4.32575 10.8495 -0.216204 -0.790347 -0.573243
-12.4315 -8.2485 13.1453 0.145432 -0.269293 -0.952014
-19.3347 -7.254 9.89163 0.48933 -0.816662 0.305973
-17.2897 -10.9758 11.8864 0.307248 0.871201 -0.382894
-23.149 -9.1075 13.7925 -0.118113 -0.489313 -0.864073
-16.623 -4.8675 9.69606 0.79169 -0.538524 -0.288476
-16.3521 -11.4514 11.8585 0.0602094 0.903033 -0.42533
-17.4675 -6.8385 8.893 0.745376 -0.6652 0.0438689
-12.997 -6.8425 12.0225 -0.0988507 -0.649519 -0.753892
-23.2985 -8.6565 12.6355 -0.149108 -0.988821 -0.000164651
-18.6239 -7.34106 8.705 0.53879 -0.830792 0.139607
-15.234 -11.3053 11.3237 -0.100538 0.894178 -0.436278
-17.0427 -5.50575 8.13175 0.914394 -0.404824 0.000975317
-22.4034 -11.3806 14.4312 -0.279148 -0.00970253 -0.960199
-12.9963 -10.7945 12.6664 0.319079 0.427744 -0.845709
-20.5223 -11.3789 13.7464 -0.520897 0.660354 -0.540924
-15.8931 -3.66613 9.317 0.474484 -0.829969 -0.293286
-11.4593 -7.06425 12.5245 -0.0430158 -0.6673 -0.743546
-23.98 -8.416 14.069 -0.801276 -0.42702 -0.419059
-12.1716 -9.38762 13.3766 0.174566 0.148977 -0.97331
-21.4137 -11.8073 13.9376 -0.545339 0.442209 -0.712079
-22.8943 -9.02575 11.4333 0.150304 -0.942415 0.298769
-12.9268 -5.85825 10.0618 -0.698661 -0.694381 -0.17236
-12.3375 -6.3815 11.3695 -0.259074 -0.89831 -0.354851
-18.9442 -11.0352 11.6637 -0.371316 0.846535 -0.381449
-24.1569 -9.28213 14.6067 -0.65629 -0.196043 -0.728595
-13.5747 -4.53587 9.77962 -0.68619 -0.688193 -0.235655
-20.1845 -8.6605 9.077 0.476436 -0.824735 0.304665
-21.3273 -8.8025 9.55481 0.2227 -0.958482 0.178095
-23.42 -10.2725 14.429 -0.470196 -0.275288 -0.83853
-21.7401 -8.90375 10.7118 0.36967 -0.912761 0.173817
-20.0719 -11.826 12.3647 -0.660231 0.616466 -0.429027
-17.37 -6.47 7.5005 0.832502 -0.537503 0.13428
-14.9088 -3.36075 8.43425 0.0743413 -0.974183 -0.213168
-10.6558 -8.67522 13.3047 -0.176408 -0.207952 -0.9621
-13.0511 -12.0589 11.1349 0.334992 0.609531 -0.718507
-13.9991 -3.79312 8.62912 -0.539987 -0.798588 -0.265839
-17.642 -11.1625 10.057 0.0708431 0.739224 -0.669724
-16.3331 -11.9799 10.336 0.25465 0.623967 -0.738795
-16.9635 -5.543 7.033 0.878562 -0.357826 0.316369
-14.9095 -11.794 10.3015 0.13334 0.56375 -0.815111
-16.0777 -3.76875 8.203 0.711117 -0.702398 -0.0308115
-24.362 -7.525 11.982 -0.886754 -0.400919 0.230069
-18.4643 -7.255 7.23925 0.51067 -0.841295 0.17731
-12.061 -6.426 9.85625 -0.196044 -0.978588 -0.0627064
-23.7349 -11.4009 14.8865 -0.20439 -0.0241314 -0.978592
-24.2743 -7.45813 13.5571 -0.927345 -0.362319 -0.0935721
-11.7086 -11.227 12.6416 0.155044 0.504703 -0.849256
-22.7603 -12.7945 14.5735 -0.444675 -0.157526 -0.881731
-24.5421 -7.63413 14.8821 -0.897409 -0.127787 -0.422288
-21.7095 -13.0495 13.7542 -0.650328 -0.14921 -0.744856
-23.4648 -9.215 10.282 -0.116334 -0.992464 -0.0384874
-13.1315 -5.173 8.925 -0.755563 -0.598811 -0.265611
-24.2651 -8.96638 10.8674 -0.64891 -0.734414 0.198877
-20.1338 -8.74375 7.88375 0.446913 -0.885445 -0.127498
-25.0569 -9.07125 15.4163 -0.546323 0.134883 -0.826643
-16.4112 -4.2905 7.04475 0.838796 -0.44615 0.312044
-10.918 -6.34381 11.3474 -0.0343879 -0.954799 -0.295256
-18.8921 -11.6245 10.3421 -0.543557 0.608633 -0.578024
-24.6903 -10.3582 15.2692 -0.331744 0.0426787 -0.942404
-21.164 -12.614 12.603 -0.847744 0.221375 -0.481999
-11.9108 -6.32387 8.77262 -0.348543 -0.871239 -0.345631
-10.6073 -10.0638 12.9993 -0.00148864 0.236394 -0.971656
-18.0872 -12.0767 9.72775 -0.144112 0.253934 -0.956425
-14.8453 -3.09875 7.2685 0.063646 -0.38891 -0.919075
-17.0565 -12.6155 9.80875 0.274633 0.11672 -0.954439
-21.5298 -9.17 7.988 0.129959 -0.990607 -0.042527
-9.68125 -7.01875 11.9342 -0.393483 -0.648419 -0.651709
-19.3284 -7.98259 6.64594 0.400781 -0.916003 0.0177111
-23.8135 -12.9655 14.8745 -0.0165388 -0.164178 -0.986292
-9.599 -7.886 12.478 -0.444608 -0.470896 -0.761958
-24.6031 -6.60281 12.3184 -0.963841 -0.218366 0.152733
-15.6134 -13.1465 10.1267 0.135047 0.00100278 -0.990839
-17.048 -7.02975 6.08975 0.706083 -0.625624 0.331724
-13.9409 -12.787 10.2555 0.321426 0.100952 -0.941538
-20.6022 -13.328 11.6995 -0.936276 0.084451 -0.340963
-21.0245 -13.6438 12.84 -0.882519 -0.299105 -0.362899
-11.7505 -12.7638 11.138 0.546991 0.154282 -0.822799
-24.6623 -7.54462 10.8359 -0.941904 -0.298514 0.153971
-24.4695 -6.49 14.027 -0.972331 -0.202944 -0.1157
-23.27 -9.02525 9.075 -0.0507863 -0.993967 -0.0972104
-13.621 -3.619 7.156 -0.581425 -0.365319 -0.726971
-11.244 -12.127 12.0522 0.665982 0.292855 -0.686079
-22.695 -13.8725 14.969 -0.371655 -0.333765 -0.866299
-10.486 -11.3888 12.7402 0.450092 -0.105326 -0.886749
-24.8075 -12.0948 14.653 0.152374 0.243081 -0.957963
-16.0704 -5.72713 5.64337 0.544413 -0.522051 0.656565
-15.773 -3.4955 6.645 0.923786 -0.380056 0.0466609
-8.998 -8.733 12.5118 -0.600919 -0.349797 -0.718706
-24.3194 -8.68213 9.49525 -0.684471 -0.726125 -0.0651303
-13.0988 -13.906 10.6888 0.488421 -0.186139 -0.852524
-12.4902 -5.07987 7.84025 -0.52891 -0.777561 -0.340077
-15.8263 -4.70075 6.05 0.445854 -0.386268 0.807472
-20.2196 -13.3044 10.6401 -0.761396 0.321536 -0.56293
-10.4118 -6.27056 9.62613 0.23397 -0.959916 -0.154338
-17.9305 -7.7 5.6845 0.473958 -0.878643 0.0578875
-20.9441 -14.2774 14.1104 -0.656228 -0.535194 -0.531913
-25.9482 -10.5319 15.2934 -0.0906333 0.436551 -0.895103
-19.4224 -12.7526 9.99325 -0.537361 0.287897 -0.79269
-23.3092 -8.954 7.83125 -0.269986 -0.961625 -0.0488332
-18.3202 -13.137 9.70988 -0.0848291 0.0187486 -0.996219
-25.071 -6.36575 15.7308 -0.961125 -0.0348825 -0.2739
-25.3223 -7.353 16.2712 -0.751181 0.277511 -0.598928
-17.3151 -13.7944 9.69925 0.128148 0.0611198 -0.98987
-21.3472 -8.6665 6.9135 0.279968 -0.926246 -0.252362
-13.7907 -2.59575 7.293 -0.0844454 0.0670477 -0.99417
-8.95475 -10.2674 13.0433 -0.123949 -0.443875 -0.887475
-9.37288 -6.32125 10.879 0.00891663 -0.765131 -0.643813
-8.79925 -7.947 11.7245 -0.539989 -0.402606 -0.739134
-14.9106 -1.80275 7.49563 -0.00256586 0.0953149 -0.995444
-11.4605 -13.5615 11.6944 0.788617 -0.285382 -0.544646
-15.3027 -14.1698 10.387 0.210353 -0.150234 -0.966013
-19.3487 -8.19125 5.2865 0.123666 -0.9825 -0.139282
-24.8995 -7.225 9.8345 -0.992452 -0.112955 0.0477527
-24.2787 -14.2273 15.3814 -0.187205 -0.581612 -0.791632
-15.9136 -1.95187 7.181 0.618773 0.102756 -0.77882
-24.6496 -5.57312 13.2814 -0.915522 -0.399765 -0.0448003
-26.873 -9.08488 16.3076 -0.542181 0.464401 -0.700266
-16.272 -6.41025 4.868 0.376086 -0.90874 0.180975
-12.3745 -3.36175 7.0435 0.00283395 0.46792 -0.883766
-10.3611 -5.92944 7.93031 0.078183 -0.982644 -0.168221
-22.7266 -9.01175 6.79588 -0.0582471 -0.99656 -0.0589609
-25.0375 -6.1895 10.903 -0.998942 -0.0459705 0.00106772
-20.2013 -14.7099 12.4825 -0.897953 -0.43703 0.0518187
-24.994 -5.30963 14.6462 -0.963333 -0.239604 -0.120742
-10.7312 -12.692 13.1929 0.79296 -0.188557 -0.579363
-20.8832 -8.26775 5.65475 0.241635 -0.944963 -0.220583
-16.5045 -2.70075 6.00325 0.742702 0.574164 -0.344571
-13.9121 -14.6616 10.49 0.279298 -0.289262 -0.915598
-21.8455 -15.0938 14.9732 -0.359799 -0.248848 -0.899233
-20.7668 -14.7948 10.9923 -0.989371 -0.0093741 -0.14511
-25.6367 -13.6027 14.3519 0.157091 -0.424198 -0.89184
-26.1826 -11.346 14.5651 0.187801 0.455244 -0.870336
-16.2515 -14.8927 10.0135 0.41567 0.0408365 -0.908598
-8.01056 -9.44756 11.6484 -0.471068 -0.490435 -0.73319
-24.5791 -8.30962 8.16063 -0.825595 -0.561846 -0.052172
-14.434 -3.972 5.968 0.435753 0.731254 0.524773
-19.252 -13.9431 9.88231 -0.230642 0.0821338 -0.969566
-25.0672 -5.18225 15.6625 -0.999723 0.0152582 -0.0179421
3 101 176 131
3 98 131 123
3 123 174 130
3 174 165 130
3 130 165 141
3 187 151 141
3 151 80 132
3 132 80 82
3 70 77 101
3 61 70 98
3 101 98 70
3 94 123 130
3 105 141 103
3 132 103 141
3 73 43 61
3 106 120 62
3 120 156 178
3 95 120 147
3 183 184 137
3 111 77 81
3 111 81 97
3 56 65 81
3 97 81 65
3 27 31 43
3 27 14 11
3 19 14 30
3 27 30 14
3 45 27 43
3 82 80 45
3 45 79 54
3 59 36 62
3 54 62 36
3 44 36 59
3 44 59 64
3 84 59 95
3 125 84 95
3 138 125 170
3 125 147 170
3 121 183 137
3 97 65 121
3 100 121 65
3 100 102 135
3 102 65 72
3 102 72 128
3 128 72 112
3 112 72 83
3 67 51 50
3 51 40 50
3 50 40 32
3 40 51 35
3 24 25 7
3 7 25 17
3 1 11 2
3 2 13 4
3 21 13 19
3 19 30 21
3 19 13 8
3 13 21 34
3 44 34 21
3 23 13 34
3 78 48 88
3 64 108 93
3 148 181 135
3 102 128 148
3 175 128 127
3 127 182 175
3 182 127 145
3 83 145 127
3 76 49 55
3 33 20 22
3 49 50 33
3 15 26 22
3 22 6 15
3 34 47 23
3 23 47 38
3 38 47 60
3 88 104 78
3 88 133 104
3 150 189 145
3 110 83 76
3 189 152 155
3 155 152 117
3 90 155 117
3 124 90 92
3 92 90 63
3 55 58 90
3 58 63 90
3 22 42 46
3 63 46 87
3 42 53 71
3 53 26 38
3 69 38 60
3 60 75 69
3 75 60 47
3 96 75 74
3 47 74 75
3 75 96 109
3 146 96 113
3 185 124 163
3 124 126 180
3 99 136 134
3 136 177 134
3 134 177 162
3 114 158 136
3 114 71 86
3 122 69 119
3 162 142 129
3 129 142 87
3 3 12 16
3 83 72 67
3 107 154 101
3 101 154 153
3 98 101 131
3 123 131 168
3 168 131 176
3 149 169 107
3 149 107 111
3 111 107 77
3 77 70 56
3 61 56 70
3 81 77 56
3 37 56 61
3 54 79 62
3 62 79 106
3 120 95 62
3 97 137 111
3 111 137 149
3 149 137 184
3 121 137 97
3 72 51 67
3 51 72 41
3 41 72 65
3 41 65 56
3 41 56 37
3 35 51 41
3 35 41 25
3 25 41 37
3 31 25 37
3 43 31 61
3 61 31 37
3 7 17 11
3 11 17 31
3 11 31 27
3 31 17 25
3 14 2 11
3 8 2 14
3 8 14 19
3 45 30 27
3 54 30 45
3 91 64 84
3 91 84 125
3 84 64 59
3 108 91 138
3 108 138 144
3 125 138 91
3 135 181 166
3 135 166 121
3 135 121 100
3 121 166 183
3 76 83 50
3 50 83 67
3 33 50 32
3 20 33 32
3 20 32 16
3 20 16 12
3 29 32 40
3 32 29 16
3 24 28 35
3 28 24 18
3 35 28 40
3 40 28 29
3 29 28 18
3 29 18 16
3 9 5 18
3 5 9 1
3 1 9 7
3 24 7 18
3 18 5 16
3 18 7 9
3 11 1 7
3 4 6 0
3 2 4 0
3 2 0 1
3 1 0 5
3 5 0 3
3 3 0 6
3 3 6 12
3 15 6 10
3 23 10 13
3 4 13 10
3 4 10 6
3 57 34 44
3 48 52 34
3 52 48 78
3 48 34 57
3 85 88 48
3 85 48 68
3 85 68 93
3 93 68 57
3 93 57 64
3 57 68 48
3 44 64 57
3 116 85 139
3 93 139 85
3 144 188 139
3 144 139 108
3 108 139 93
3 88 85 116
3 88 116 133
3 128 175 148
3 33 55 49
3 26 15 10
3 26 10 23
3 38 26 23
3 78 74 47
3 78 47 52
3 52 47 34
3 104 74 78
3 189 150 152
3 155 90 124
3 39 63 58
3 39 33 22
3 33 39 58
3 33 58 55
3 46 63 39
3 46 39 22
3 66 87 46
3 66 46 42
3 99 66 71
3 71 66 42
3 69 86 53
3 53 86 71
3 53 38 69
3 75 109 69
3 119 159 160
3 159 109 146
3 109 159 119
3 109 119 69
3 163 124 180
3 140 186 158
3 86 140 158
3 86 158 114
3 69 122 86
3 122 119 160
3 122 160 140
3 186 140 160
3 86 122 140
3 171 133 157
3 139 167 116
3 116 167 161
3 179 167 139
3 179 139 188
3 116 161 157
3 116 157 133
3 16 5 3
3 190 176 153
3 153 176 101
3 141 165 187
3 173 156 118
3 173 118 151
3 151 118 80
3 154 107 169
3 77 107 101
3 61 98 94
3 94 98 123
3 61 94 105
3 130 105 94
3 130 141 105
3 61 105 73
3 73 105 103
3 151 132 141
3 82 103 132
3 103 82 73
3 73 82 43
3 106 79 118
3 106 118 156
3 80 118 79
3 106 156 120
3 120 178 164
3 120 164 147
3 43 82 45
3 45 80 79
3 62 95 59
3 147 125 95
3 102 100 65
3 35 25 24
3 8 13 2
3 44 21 36
3 54 36 30
3 30 36 21
3 64 91 108
3 148 135 102
3 128 112 127
3 83 127 112
3 50 49 76
3 20 12 6
3 20 6 22
3 83 110 150
3 83 150 145
3 115 117 152
3 115 152 150
3 115 150 110
3 55 90 89
3 55 89 76
3 76 89 110
3 110 89 115
3 115 89 117
3 90 117 89
3 22 26 42
3 53 42 26
3 104 143 113
3 104 113 74
3 74 113 96
3 96 146 109
3 104 133 143
3 143 172 113
3 146 113 172
3 155 124 185
3 92 126 124
3 126 92 87
3 92 63 87
3 66 99 87
3 71 114 99
3 99 114 136
3 87 142 126
3 126 142 180
3 162 129 134
3 129 87 134
3 134 87 99
