ply
format ascii 1.0
comment Generated by PyMesh
element vertex 200
property float x
property float y
property float z
property float charge
property float ddc
property float hbond
property float hphob
property float rho
property float si
property float theta
property float nx
property float ny
property float nz
element face 341
property list uchar int vertex_indices
end_header
-19.343 -10.0887 16.0842 0.0367197 0 0 -0.959427 1e-08 -0.999899 2.22045e-16 0.269278 0.796883 -0.540802
-18.8542 -9.37125 16.6077 0.147958 -0.480391 0 -0.866667 1.01376 -0.774815 1.45261 -0.0286449 0.379911 -0.924579
-18.4521 -10.3144 15.4754 0.193447 -0.336679 0 -0.944124 1.1024 -0.902786 3.02048 -0.275903 0.864479 -0.420183
-20.1265 -9.2905 16.176 0.276374 0 -0.870462 -0.262424 1.12224 -0.889417 2.22045e-16 0.611254 0.245662 -0.752342
-19.324 -10.4045 14.811 0.166069 -0.312242 0 -1 1.31192 -0.157377 4.08326 0.125617 0.949726 -0.286775
-20.4977 -9.66825 15.1231 0.138002 -0.311056 -0.771219 -0.31148 1.56007 0.0933316 5.29694 0.461489 0.593141 -0.659705
-18.3009 -10.4878 14.4353 0.217073 -0.269547 0 -1 2.16764 -0.36447 3.36423 -0.351694 0.898683 -0.262068
-17.4824 -9.63325 15.3156 0.240497 -0.39778 0 -0.866667 2.29815 -0.876771 2.51004 -0.740196 0.487666 -0.462917
-20.4439 -10.5723 14.3776 0.139374 0.102848 0 -1 2.52442 0.0620823 4.68271 -0.1757 0.687899 -0.704219
-19.545 -7.992 16.6395 0.294261 -0.535846 -0.347605 0.404067 2.55666 -0.999927 0.986049 0.269309 -0.335886 -0.902581
-21.5238 -10.0594 14.7436 0.0140825 0.275927 0 -0.302471 2.72192 -0.347971 5.28074 0.230592 0.180458 -0.95617
-17.8437 -7.97316 16.2629 0.254598 -0.424275 0 0.717809 2.77292 -0.731524 1.68939 -0.424628 -0.21275 -0.880016
-19.2892 -10.6217 13.267 0.17298 -0.18907 0 -1 2.87151 0.330198 4.0054 -0.334676 0.910521 -0.242781
-20.0229 -7.55125 15.8363 0.178879 -0.487744 -0.317033 0.147612 2.89738 -0.207275 0.561361 0.562908 -0.387783 -0.729903
-21.2502 -8.50362 14.8431 -0.296657 -0.405404 -0.838733 -0.177778 2.97465 -0.200459 5.98217 0.671974 -0.133546 -0.728434
-20.5223 -11.3789 13.7464 0.202422 0.188834 0 -1 3.55163 -0.702519 4.53429 -0.520897 0.660354 -0.540924
-16.891 -8.604 14.5685 0.296941 -0.338311 0 -0.866667 3.70074 -0.637084 2.43342 -0.911108 0.276913 -0.30529
-17.0825 -7.7875 15.585 0.30018 -0.363382 0 -0.191002 3.809 -0.858649 2.00831 -0.834138 -0.0571497 -0.548587
-16.9587 -9.418 13.788 0.235878 -0.23309 0 -0.866667 3.92731 0.382773 2.81244 -0.698075 0.434666 -0.568996
-20.6695 -7.0855 15.0363 0.123762 -0.413244 -0.585066 -0.0157454 4.02655 -0.757273 0.278727 0.67072 -0.488536 -0.558093
-16.8458 -10.3915 13.2823 0.230086 -0.0319882 0 -0.901769 4.02667 -0.277064 3.17704 -0.0914488 0.806767 -0.58375
-21.4137 -11.8073 13.9376 0.0435247 0.188866 -0.314608 -1 4.15517 -0.144449 4.7683 -0.545339 0.442209 -0.712079
-18.7805 -6.90188 15.6709 0.205645 -0.465368 0 1 4.20318 -0.444014 1.12209 0.146899 -0.741063 -0.655169
-21.5989 -7.74388 13.9134 0.105045 -0.42427 -0.0787328 -0.922018 4.2249 -0.280303 6.16879 0.659801 -0.707421 -0.253412
-22.3465 -8.49375 14.0885 -0.068124 -0.346962 0 -0.177778 4.30558 -0.569041 5.8577 0.588423 -0.468957 -0.658663
-22.4034 -11.3806 14.4312 -0.278896 0.24072 -0.752668 -1 4.33959 0.124264 5.0864 -0.279148 -0.00970253 -0.960199
-18.04 -10.3495 12.4425 0.180204 -0.0842846 0 -1 4.39282 0.790245 3.62016 -0.0188837 0.93446 -0.355567
-18.9442 -11.0352 11.6637 0.331355 -0.102591 0 -1 4.56283 0.380992 3.86855 -0.371316 0.846535 -0.381449
-20.0719 -11.826 12.3647 0.259031 0.172445 0 -1 4.56771 0.068851 4.23474 -0.660231 0.616466 -0.429027
-17.911 -6.2715 15.196 0.204766 -0.37684 0 1 4.78251 -0.999889 1.48759 -0.413333 -0.739608 -0.531165
-16.4895 -7.686 14.14 0.249945 -0.259075 0 -0.866667 4.79048 0.0837004 2.25204 -0.666855 -0.076441 -0.741257
-20.324 -6.3865 14.3372 0.221022 -0.401367 0 1 4.81951 -0.999791 0.500916 0.499942 -0.811387 -0.302835
-23.149 -9.1075 13.7925 0.056889 0.282865 0 -0.177778 4.83189 0.219697 5.65471 -0.118113 -0.489313 -0.864073
-21.7095 -13.0495 13.7542 0.152812 0.255768 0 -1 5.44521 0.262136 4.77513 -0.650328 -0.14921 -0.744856
-17.2897 -10.9758 11.8864 0.274118 -0.0847798 0 -1 5.5173 0.0577259 3.41481 0.307248 0.871201 -0.382894
-15.4358 -9.10581 13.2952 0.96659 -0.140287 0 -0.866667 5.55812 -0.179197 2.77631 -0.419749 0.28432 -0.861959
-15.3629 -10.7626 12.8304 0.136983 -0.069051 -0.394883 -0.790553 5.6207 -0.999862 3.18939 -0.332311 0.671036 -0.662782
-21.936 -7.92137 12.5278 0.265757 -0.387054 0 -1 5.66192 -0.340597 6.16972 0.511917 -0.808369 0.290657
-21.164 -12.614 12.603 0.138973 0.220716 0 -1 5.7345 0.670374 4.48645 -0.847744 0.221375 -0.481999
-23.7349 -11.4009 14.8865 0.126947 0.188203 0.0924512 -0.301224 5.74693 -0.348377 5.12278 -0.20439 -0.0241314 -0.978592
-22.7603 -12.7945 14.5735 -0.147878 0.230339 -0.0295089 -1 5.80477 -0.0751467 4.98086 -0.444675 -0.157526 -0.881731
-23.42 -10.2725 14.429 0.0938083 0.265409 0 -0.177778 5.84338 0.153012 5.37815 -0.470196 -0.275288 -0.83853
-16.3521 -11.4514 11.8585 -0.0251259 -0.0475079 0 -0.892942 5.86904 -0.62583 3.28217 0.0602094 0.903033 -0.42533
-15.4591 -7.77588 13.7755 0.861067 -0.184999 0.088854 -0.773651 5.88714 -0.734937 2.3993 -0.501152 0.0173468 -0.865186
-23.98 -8.416 14.069 0.0383617 0.274787 0 -0.177778 5.94777 -0.0189584 5.72641 -0.801276 -0.42702 -0.419059
-18.6523 -6.01937 14.132 0.176105 -0.393482 0 0.0998822 5.98179 -0.501133 1.12247 0.0278223 -0.975824 -0.216778
-18.8921 -11.6245 10.3421 0.378147 -0.0973561 0 -1 6.0108 0.788944 3.86855 -0.543557 0.608633 -0.578024
-23.2985 -8.6565 12.6355 0.145161 -0.345266 0 -1 6.05029 0.171649 5.65471 -0.149108 -0.988821 -0.000164651
-15.8385 -6.69825 13.663 0.586543 -0.257449 0.523724 -0.177778 6.06602 -0.999858 2.3993 -0.370887 -0.574621 -0.729557
-17.0045 -6.579 13.7055 0.209189 -0.335312 0.0484967 -0.177778 6.08643 0.0532711 2.25204 -0.372483 -0.798344 -0.473185
-24.1569 -9.28213 14.6067 0.0760867 0.23102 0 -0.177778 6.13929 0.0777232 5.72641 -0.65629 -0.196043 -0.728595
-20.213 -6.25775 13.0215 0.18907 -0.387021 0 -0.80846 6.14615 -0.856385 0.500916 0.370986 -0.88433 0.283425
-20.79 -7.24388 12.0931 0.140248 -0.366673 0 -0.610956 6.27863 -0.22274 6.16972 0.580424 -0.770568 0.263312
-20.6022 -13.328 11.6995 0.196928 0.215605 0.638818 -1 6.2939 0.109021 4.48645 -0.936276 0.084451 -0.340963
-21.0245 -13.6438 12.84 0.182942 0.278608 0 -1 6.32978 0.235309 4.48645 -0.882519 -0.299105 -0.362899
-23.8135 -12.9655 14.8745 0.151873 0.183159 0.27264 -0.393071 6.50681 -0.0725685 4.98086 -0.0165388 -0.164178 -0.986292
-17.642 -11.1625 10.057 0.112985 0.011903 0 -1 6.63489 0.999901 3.41481 0.0708431 0.739224 -0.669724
-14.5136 -10.6986 12.1084 0.0093171 0.0487955 -0.611101 -0.794638 6.73725 0.104646 3.18939 -0.118791 0.560971 -0.819268
-20.2196 -13.3044 10.6401 0.211921 0.140402 0.264241 -1 6.84405 0.53074 4.23474 -0.761396 0.321536 -0.56293
-20.9441 -14.2774 14.1104 0.392027 0.300071 0 -1 6.93533 -0.459495 4.77513 -0.656228 -0.535194 -0.531913
-14.5334 -8.09988 12.9789 1 -0.169843 0 -0.866667 6.94602 0.0769332 2.3993 -0.416646 -0.127902 -0.900026
-22.695 -13.8725 14.969 0.0611497 0.230115 0 -0.440453 6.95489 -0.541795 4.98086 -0.371655 -0.333765 -0.866299
-24.8075 -12.0948 14.653 0.300281 0.105744 0.715205 -0.177778 7.04558 0.221262 5.12278 0.152374 0.243081 -0.957963
-24.2743 -7.45813 13.5571 0.058323 0.255648 0 -1 7.07302 0.0498146 5.72641 -0.927345 -0.362319 -0.0935721
-15.234 -11.3053 11.3237 -0.52401 -0.0406446 -0.342352 -0.777778 7.11704 0.190645 3.28217 -0.100538 0.894178 -0.436278
-18.0872 -12.0767 9.72775 0.317003 0.0925291 0 -1 7.11975 0.721577 3.86855 -0.144112 0.253934 -0.956425
-19.4224 -12.7526 9.99325 0.243005 0.112329 0 -1 7.1953 0.845049 4.23474 -0.537361 0.287897 -0.79269
-24.5421 -7.63413 14.8821 -0.0393823 0.220538 0 -0.177778 7.20809 -0.270768 5.72641 -0.897409 -0.127787 -0.422288
-24.6903 -10.3582 15.2692 0.354657 0.158923 0 -0.177778 7.21202 -0.506523 5.12278 -0.331744 0.0426787 -0.942404
-19.1028 -6.053 12.8455 0.0926913 -0.376072 -0.218172 -0.149494 7.28871 -0.584342 1.12247 0.136644 -0.958058 0.251901
-15.3011 -6.19775 12.604 0.50108 -0.218467 -0.194779 -0.177778 7.35473 -0.206937 2.3993 -0.272386 -0.641142 -0.717456
-25.0569 -9.07125 15.4163 0.127213 0.148298 0 -0.177778 7.36808 -0.140422 5.72641 -0.546323 0.134883 -0.826643
-22.8943 -9.02575 11.4333 0.362197 -0.329071 0 -1 7.37128 0.631109 6.16972 0.150304 -0.942415 0.298769
-16.9878 -6.00616 12.5084 0.16828 -0.301925 0 -0.177778 7.41363 -0.268516 1.12247 0.0390774 -0.970228 -0.23902
-13.842 -9.499 12.3448 0.385083 0.100692 0.846334 -0.866667 7.45497 0.583064 2.77631 0.114291 0.198146 -0.973486
-16.3331 -11.9799 10.336 0.035176 0.0447742 -0.599444 -0.798871 7.48077 0.0823546 3.28217 0.25465 0.623967 -0.738795
-20.2013 -14.7099 12.4825 0.293527 0.280491 0 -1 7.72335 -0.319494 4.48645 -0.897953 -0.43703 0.0518187
-24.362 -7.525 11.982 0.235323 -0.245553 0 -1 7.73504 0.0892188 5.72641 -0.886754 -0.400919 0.230069
-21.7401 -8.90375 10.7118 0.347503 -0.317088 0 -1 7.73588 0.945378 6.16972 0.36967 -0.912761 0.173817
-19.261 -6.84125 11.6965 -0.243992 -0.355248 0 -0.0888889 7.87889 0.277998 6.16972 0.368084 -0.864345 0.342669
-20.3315 -7.74131 10.5953 0.199796 -0.315329 0.0211574 -0.577367 7.92212 -0.0744587 6.16972 0.524645 -0.768145 0.367016
-20.7668 -14.7948 10.9923 0.247308 0.192181 0.194633 -1 7.93058 0.816357 4.48645 -0.989371 -0.0093741 -0.14511
-24.2787 -14.2273 15.3814 0.0961013 0.212304 -0.0270824 -0.164799 7.94399 0.0609397 4.98086 -0.187205 -0.581612 -0.791632
-24.2651 -8.96638 10.8674 0.19289 -0.25397 0 -1 8.08904 0.768214 5.65471 -0.64891 -0.734414 0.198877
-24.4695 -6.49 14.027 -0.0499607 0.224264 0 -1 8.16672 -0.664869 5.72641 -0.972331 -0.202944 -0.1157
-18.3202 -13.137 9.70988 0.36375 0.117519 0 -1 8.2055 0.60542 3.86855 -0.0848291 0.0187486 -0.996219
-17.0565 -12.6155 9.80875 0.217744 0.108339 0 -1 8.22097 0.619101 3.28217 0.274633 0.11672 -0.954439
-13.3403 -7.75063 12.6695 0.488417 -0.181445 0 -0.477887 8.22711 0.309244 2.3993 -0.078355 -0.532924 -0.842527
-19.252 -13.9431 9.88231 0.24191 0.109826 0 -1 8.22913 0.0174677 4.23474 -0.230642 0.0821338 -0.969566
-18.333 -6.3345 12.108 0.091576 -0.35153 -0.120039 -0.0912609 8.23775 0.282037 1.12247 0.250826 -0.908366 0.3346
-20.1612 -15.324 14.3276 0.265798 0.240882 0.0100821 -0.594202 8.26027 -0.87813 4.77513 -0.659343 -0.395084 -0.639669
-14.9095 -11.794 10.3015 -0.38135 0.040034 -0.0268627 -0.777778 8.29561 0.773584 3.28217 0.13334 0.56375 -0.815111
-12.9963 -10.7945 12.6664 -0.0510023 0.0699336 0.0462799 -0.793793 8.35674 -0.562432 3.18939 0.319079 0.427744 -0.845709
-21.8455 -15.0938 14.9732 0.117286 0.195645 0 -0.155556 8.42645 -0.353536 4.98086 -0.359799 -0.248848 -0.899233
-25.9482 -10.5319 15.2934 0.119435 0.0651543 0 -0.177778 8.48208 -0.207479 5.12278 -0.0906333 0.436551 -0.895103
-25.6367 -13.6027 14.3519 0.60449 0.166014 -0.0889253 -0.177778 8.5076 0.742521 5.12278 0.157091 -0.424198 -0.89184
-17.401 -6.03675 11.4762 0.108734 -0.285133 0 -0.16549 8.52588 -0.137755 1.12247 0.51537 -0.855702 0.0465509
-26.1826 -11.346 14.5651 0.131163 -0.0605169 0 -0.177778 8.61381 0.334408 5.12278 0.187801 0.455244 -0.870336
-24.6031 -6.60281 12.3184 0.157184 -0.217368 0 -1 8.61381 0.0425916 5.72641 -0.963841 -0.218366 0.152733
-23.4648 -9.215 10.282 0.315044 -0.260289 0 -1 8.67004 0.839958 6.16972 -0.116334 -0.992464 -0.0384874
-19.9643 -14.9095 9.72375 0.159746 0.114171 0 -1 8.70986 0.806655 4.23474 -0.551402 0.0766464 -0.830711
-25.071 -6.36575 15.7308 -0.2382 0.192004 -0.294658 -1 8.82328 -0.033256 5.72641 -0.961125 -0.0348825 -0.2739
-25.3223 -7.353 16.2712 -0.112491 0.138084 -0.533627 -0.177778 8.82592 -0.351625 5.72641 -0.751181 0.277511 -0.598928
-15.6134 -13.1465 10.1267 -0.0775537 0.111737 -0.157177 -0.941284 8.8674 0.300933 3.28217 0.135047 0.00100278 -0.990839
-24.6623 -7.54462 10.8359 0.407607 -0.20724 0 -1 8.91999 0.314172 5.72641 -0.941904 -0.298514 0.153971
-13.0511 -12.0589 11.1349 -0.266539 0.0450574 0 -0.777778 8.95919 0.257586 3.18939 0.334992 0.609531 -0.718507
-21.3273 -8.8025 9.55481 0.264206 -0.276989 0 -1 8.96847 -0.0240967 6.16972 0.2227 -0.958482 0.178095
-12.4315 -8.2485 13.1453 0.53482 0.141637 0 -0.483678 9.05972 -0.394484 2.3993 0.145432 -0.269293 -0.952014
-20.5179 -15.9096 11.1258 0.35212 0.205297 0 -1 9.0806 0.860416 4.48645 -0.938621 -0.344245 -0.0220189
-19.3347 -7.254 9.89163 0.152654 -0.28008 0.287924 -0.63516 9.23598 -0.651943 6.16972 0.48933 -0.816662 0.305973
-23.6983 -15.4121 15.7929 0.0480037 0.180218 0 -0.155556 9.326 0.0976707 4.98086 -0.505832 -0.346783 -0.789858
-24.6496 -5.57312 13.2814 0.0897943 -0.213808 0 -1 9.36214 -0.357939 5.72641 -0.915522 -0.399765 -0.0448003
-15.803 -4.925 11.1187 -0.006921 -0.197175 -0.811647 -0.177778 9.37411 -0.25577 1.12247 0.354256 -0.763653 -0.539757
-26.873 -9.08488 16.3076 -0.24996 0.0835756 -0.251729 -0.177778 9.39115 0.346423 5.72641 -0.542181 0.464401 -0.700266
-12.997 -6.8425 12.0225 0.164346 -0.174232 0 -0.0888889 9.3938 0.101263 2.3993 -0.0988507 -0.649519 -0.753892
-17.3151 -13.7944 9.69925 0.0670877 0.104676 0 -1 9.40655 0.114218 3.28217 0.128148 0.0611198 -0.98987
-12.1716 -9.38762 13.3766 0.192425 0.0942982 -0.0349964 -0.858767 9.4215 -0.999812 2.77631 0.174566 0.148977 -0.97331
-24.3194 -8.68213 9.49525 0.312904 -0.208537 0 -1 9.49138 0.446673 6.16972 -0.684471 -0.726125 -0.0651303
-19.3857 -16.0071 13.5597 0.134442 0.217813 0.116609 -0.830473 9.54779 -0.717768 4.77513 -0.890953 -0.26768 -0.36681
-13.6006 -5.50238 11.3686 0.099116 -0.168907 0 -0.0888889 9.56865 -0.327554 2.3993 -0.430903 -0.636383 -0.639796
-22.1509 -16.184 15.2255 -0.135481 0.157979 -0.466169 -0.155556 9.58639 0.425204 4.98086 -0.4255 -0.171971 -0.888468
-24.994 -5.30963 14.6462 -0.180587 0.198333 -0.692479 -1 9.58783 -0.0334196 5.72641 -0.963333 -0.239604 -0.120742
-13.9409 -12.787 10.2555 -0.370037 0.0951941 0 -0.777778 9.68354 0.999792 3.28217 0.321426 0.100952 -0.941538
-20.6803 -16.614 14.708 0.450913 0.162943 0.0118448 -0.155556 9.70189 -0.0415301 4.77513 -0.473438 -0.201414 -0.85749
-20.1845 -8.6605 9.077 0.175931 -0.26531 0 -1 9.70306 0.901947 6.16972 0.476436 -0.824735 0.304665
-19.8773 -15.9108 9.7025 0.197117 0.145129 0 -1 9.71515 0.926023 4.23474 -0.574519 -0.335193 -0.746708
-11.7086 -11.227 12.6416 -0.43896 0.0437696 -0.835421 -0.777778 9.71536 -0.400173 3.18939 0.155044 0.504703 -0.849256
-25.1311 -14.8569 16.837 -0.00252388 0.199835 -0.589244 -0.170628 9.74448 -0.311806 4.98086 -0.561717 -0.619481 -0.548377
-19.3253 -16.6465 12.5305 0.13931 0.223623 0 -1 9.8494 -0.2943 4.48645 -0.920531 -0.347953 0.177628
-23.27 -9.02525 9.075 0.108075 -0.227845 0 -1 9.90729 0.324712 6.16972 -0.0507863 -0.993967 -0.0972104
-17.8043 -6.68175 10.2825 0.213745 -0.272315 0 -0.0888889 9.91527 0.461547 1.12247 0.530315 -0.818463 0.221099
-27.443 -11.1007 14.2665 0.0553523 0.0512045 0 -0.177778 9.93212 0.999909 5.12278 -0.248144 0.492462 -0.83421
-15.3027 -14.1698 10.387 -0.152064 0.123417 -0.207425 -0.777778 9.96805 -0.550768 3.28217 0.210353 -0.150234 -0.966013
-26.8141 -14.1469 15.035 -0.246588 0.184633 -0.846017 -0.177778 9.97357 0.790738 5.12278 -0.226286 -0.79144 -0.567819
-24.8995 -7.225 9.8345 0.408823 -0.169917 0.100114 -1 9.99759 0.252499 5.72641 -0.992452 -0.112955 0.0477527
-25.0672 -5.18225 15.6625 -0.299425 0.186098 -0.00553489 -1 10.0088 0.0624215 5.72641 -0.999723 0.0152582 -0.0179421
-27.2073 -12.3658 14.2268 0.0340617 0.122384 0 -0.177778 10.0985 0.656503 5.12278 -0.247566 -0.171873 -0.953505
-25.3781 -5.99813 16.916 -0.0399433 0.138129 0 -0.420696 10.1016 -0.396948 5.72641 -0.837572 0.234685 -0.493352
-25.0375 -6.1895 10.903 0.136225 0.16765 0 -1 10.151 0.585142 5.72641 -0.998942 -0.0459705 0.00106772
-11.4593 -7.06425 12.5245 0.36085 -0.157486 0 -0.534173 10.2347 -0.845022 2.3993 -0.0430158 -0.6673 -0.743546
-27.7169 -10.416 15.7773 0.038209 0.0713577 0 -0.177778 10.3194 0.246792 5.12278 -0.561029 0.661907 -0.497118
-26.3605 -7.1855 17.4255 -0.144245 0.120759 -0.496914 -0.203284 10.3874 -0.0453567 5.72641 -0.79986 0.333164 -0.499225
-12.3375 -6.3815 11.3695 0.125123 -0.185877 0 -0.0888889 10.4301 -0.0946285 2.3993 -0.259074 -0.89831 -0.354851
-11.7505 -12.7638 11.138 -0.053411 0.0887155 0 -0.777778 10.4385 0.999888 3.18939 0.546991 0.154282 -0.822799
-17.1159 -5.79738 9.5235 0.256873 -0.202556 0 -0.160835 10.5138 0.0971588 1.12247 0.853315 -0.519417 -0.0453887
-19.7464 -17.0767 10.7243 0.504503 0.18905 0.826967 -1 10.5361 0.999866 4.48645 -0.631306 -0.724487 -0.276715
-26.7301 -14.3379 16.3348 -0.300498 0.207987 -0.798241 -0.177778 10.5766 0.122828 4.98086 -0.224134 -0.942859 -0.246537
-21.5298 -9.17 7.988 0.0304505 -0.220814 0 -1 10.5905 0.691841 6.16972 0.129959 -0.990607 -0.042527
-18.6239 -7.34106 8.705 0.0570087 -0.234822 0 -0.0888889 10.622 0.0479925 6.16972 0.53879 -0.830792 0.139607
-27.6816 -9.48 17.2225 -0.016872 0.123277 0 -0.177778 10.6745 0.294381 5.72641 -0.839213 0.537233 -0.0842804
-22.8726 -16.7812 15.842 -0.203905 0.176199 -0.523941 -0.155556 10.7078 0.298519 4.98086 -0.536079 -0.44307 -0.718546
-16.2515 -14.8927 10.0135 0.14685 0.105331 0 -1 10.73 -0.222322 3.28217 0.41567 0.0408365 -0.908598
-27.0502 -8.16725 17.2865 -0.204241 0.114635 -0.581889 -0.177778 10.7445 0.633277 5.72641 -0.80342 0.523062 -0.28447
-24.9455 -4.472 12.149 0.089358 0.122336 0 -0.988469 10.7786 0.208074 5.72641 -0.869816 0.163171 -0.465613
-15.2399 -4.01038 10.1786 0.048477 -0.177778 0.0615469 -0.0972704 10.8015 -0.428873 1.12247 0.0501641 -0.892009 -0.449225
-25.4662 -4.19425 14.3174 0.0128769 -0.20729 -0.170267 -0.905593 10.8429 -0.311806 5.72641 -0.738833 -0.651896 0.170754
-18.377 -16.4015 9.718 0.0589217 0.117537 0 -1 10.8438 0.246763 4.23474 -0.184434 -0.220216 -0.957856
-13.0988 -13.906 10.6888 -0.210775 0.120016 0 -0.777778 10.86 0.412374 3.18939 0.488421 -0.186139 -0.852524
-25.93 -14.7115 17.6225 -0.0243793 0.195699 -0.81524 -0.177778 10.8743 -0.872975 4.98086 -0.337197 -0.789396 -0.512984
-14.4446 -4.32575 10.8495 -0.113263 -0.171652 -0.487567 -0.132564 10.883 -0.99988 1.12247 -0.216204 -0.790347 -0.573243
-11.244 -12.127 12.0522 -0.109208 0.0876386 0 -0.777778 10.8872 0.314558 3.18939 0.665982 0.292855 -0.686079
-10.6558 -8.67522 13.3047 -0.123091 -0.113572 0 -0.710011 10.8929 -0.612036 2.3993 -0.176408 -0.207952 -0.9621
-20.1338 -8.74375 7.88375 0.118923 -0.214074 0 -1 10.9003 0.766052 6.16972 0.446913 -0.885445 -0.127498
-24.5791 -8.30962 8.16063 0.4171 -0.173706 0.110137 -1 10.9011 0.479351 6.16972 -0.825595 -0.561846 -0.052172
-10.486 -11.3888 12.7402 -0.537483 0.105863 -0.133567 -0.777778 10.9526 0.266172 3.18939 0.450092 -0.105326 -0.886749
-19.0355 -17.5035 11.8131 0.152427 0.187164 0.125576 -1 11.004 0.0304059 4.48645 -0.792987 -0.558629 -0.243117
-16.623 -4.8675 9.69606 0.265922 -0.180038 0.0800778 -0.132375 11.0172 -0.580168 1.12247 0.79169 -0.538524 -0.288476
-12.9268 -5.85825 10.0618 0.066468 -0.173379 0 -0.0888889 11.0814 0.523431 2.3993 -0.698661 -0.694381 -0.17236
-24.8498 -4.58025 16.602 -0.132577 0.182344 0 -1 11.1456 -0.999891 5.72641 -0.979338 -0.130903 -0.154149
-23.3092 -8.954 7.83125 0.126326 -0.200613 0 -1 11.1537 0.406413 6.16972 -0.269986 -0.961625 -0.0488332
-10.6073 -10.0638 12.9993 -0.544387 0.0680883 -0.00833951 -0.777778 11.167 0.238591 2.77631 -0.00148864 0.236394 -0.971656
-13.9121 -14.6616 10.49 -0.52379 0.124866 0 -0.777778 11.1743 0.655903 3.28217 0.279298 -0.289262 -0.915598
-21.7003 -17.7903 15.2955 -0.273078 0.195088 -0.653385 -0.155556 11.2562 0.673085 4.98086 -0.338865 -0.766095 -0.54614
-25.159 -7.1915 8.578 0.205926 0.139442 0.769499 -1 11.281 0.822644 5.72641 -0.99791 0.0161028 -0.0625766
-25.2713 -3.80669 15.5155 -0.00328846 -0.207074 0 -0.963744 11.3461 -0.660675 5.72641 -0.774085 -0.592939 0.221848
-17.4675 -6.8385 8.893 0.0557223 -0.215862 0 -0.0888889 11.3536 0.738786 1.12247 0.745376 -0.6652 0.0438689
-17.221 -15.7148 9.389 -0.0800823 0.0947548 0 -1 11.3541 0.657691 3.28217 0.133318 0.00501467 -0.991061
-24.3081 -16.9456 17.0079 0.0212302 0.165704 0 -0.155556 11.3753 0.728925 4.98086 -0.668279 -0.464985 -0.580682
-24.6723 -6.2505 8.82925 0.308316 -0.131012 0.0893703 -1 11.416 -0.429831 5.72641 -0.958404 0.28176 0.0455346
-20.121 -18.161 15.2113 0.20162 0.209959 -0.357758 -0.598756 11.4222 0.240349 4.77513 -0.555218 -0.796159 -0.24055
-13.5747 -4.53587 9.77962 0.055301 -0.163472 0 -0.0888889 11.4287 -0.568209 2.3993 -0.68619 -0.688193 -0.235655
-11.4605 -13.5615 11.6944 -0.0795003 0.136037 0 -0.777778 11.4534 0.999811 3.18939 0.788617 -0.285382 -0.544646
-19.5499 -17.8784 14.2705 0.181288 0.168734 0 -1 11.4534 -0.34644 4.77513 -0.904105 -0.189099 -0.383192
-26.0491 -4.00919 13.2559 0.1678 -0.16779 0.254854 -0.829949 11.461 0.326268 5.72641 -0.679656 -0.636671 -0.364305
-24.5348 -5.35962 9.98388 0.164762 0.118741 0 -1 11.4875 0.131616 5.72641 -0.895138 0.434021 -0.101751
-28.1464 -13.4074 15.1665 -0.0681823 0.164701 0 -0.177778 11.503 0.878492 5.12278 -0.62013 -0.640603 -0.452844
-28.5869 -11.8099 15.1442 0.0197417 0.111089 0 -0.177778 11.5389 0.99985 5.12278 -0.844112 0.175393 -0.506668
-25.6378 -15.9764 18.1946 0.00492063 0.143959 -0.357057 -0.165787 11.5756 -0.598647 4.98086 -0.421475 -0.41964 -0.803904
-26.7423 -8.0535 18.2563 -0.258019 0.161272 0 -0.177778 11.6482 -0.246819 5.72641 -0.961133 0.272729 0.042919
-26.7127 -6.13825 18.033 0.046367 0.136495 0 -0.355556 11.6483 0.633016 5.72641 -0.92016 0.108062 -0.376334
-25.3465 -4.50325 17.4735 0.07559 0.146511 0 -0.355556 11.6974 -0.595128 5.72641 -0.83856 -0.0972335 -0.536062
-27.7246 -13.8735 16.5856 -0.100864 0.189359 0 -0.177778 11.7025 0.133132 4.98086 -0.542237 -0.819914 -0.183632
-10.918 -6.34381 11.3474 0.0814103 -0.169771 0 -0.674742 11.7171 -0.585778 2.3993 -0.0343879 -0.954799 -0.295256
-18.6355 -17.4405 10.5407 0.216114 0.170717 0.333194 -1 11.7194 0.414409 4.48645 -0.403905 -0.746356 -0.528973
-21.3472 -8.6665 6.9135 -0.0288818 -0.185469 0 -1 11.7911 -0.410649 6.16972 0.279968 -0.926246 -0.252362
-14.7806 -15.9108 10.7155 0.0091696 0.146929 -0.03043 -0.793104 11.8151 0.290366 3.28217 0.538949 -0.461817 -0.704457
-23.995 -3.911 12.06 0.104104 0.060154 0 -1 11.8859 -0.604812 5.72641 -0.406309 0.484181 -0.774908
-24.6915 -7.5625 7.4935 0.248663 -0.135754 0.322389 -1 11.909 -0.0937854 6.16972 -0.984202 -0.106551 -0.141396
-15.8931 -3.66613 9.317 0.0168946 -0.171082 0.787115 -0.16315 11.9362 -0.999886 1.12247 0.474484 -0.829969 -0.293286
-17.0427 -5.50575 8.13175 0.139628 -0.170608 0.0189671 -0.0888889 11.9376 -0.731275 1.12247 0.914394 -0.404824 0.000975317
3 183 111 155
3 173 197 163
3 174 155 121
3 174 121 135
3 101 137 135
3 67 121 84
3 63 84 98
3 98 138 104
3 138 134 104
3 134 138 184
3 134 184 178
3 104 134 117
3 163 169 117
3 169 106 129
3 129 106 78
3 188 189 141
3 141 152 188
3 137 141 189
3 152 141 102
3 188 152 149
3 152 113 149
3 140 113 94
3 44 50 67
3 47 44 63
3 67 63 44
3 77 98 104
3 83 117 99
3 129 99 117
3 72 37 47
3 136 97 95
3 95 97 62
3 68 50 41
3 68 41 39
3 32 25 41
3 39 41 25
3 52 23 37
3 52 51 31
3 89 51 79
3 52 79 51
3 80 52 37
3 78 106 80
3 80 124 109
3 175 130 148
3 109 148 130
3 144 130 175
3 144 175 199
3 185 136 133
3 82 93 110
3 55 95 62
3 39 25 55
3 40 55 25
3 40 33 61
3 33 25 21
3 33 21 54
3 54 21 38
3 38 21 28
3 15 8 12
3 8 4 12
3 12 4 6
3 4 8 5
3 3 14 13
3 13 14 19
3 22 31 45
3 45 73 49
3 96 73 89
3 89 79 96
3 89 73 69
3 73 96 112
3 144 112 96
3 70 73 112
3 146 191 185
3 146 185 133
3 146 95 82
3 93 120 110
3 150 110 120
3 59 93 61
3 33 54 59
3 76 54 53
3 53 81 76
3 81 53 58
3 28 58 53
3 27 26 34
3 20 18 35
3 26 12 20
3 43 60 35
3 35 30 43
3 112 119 70
3 70 119 87
3 87 119 114
3 179 172 123
3 179 123 182
3 120 93 123
3 90 93 59
3 81 100 108
3 66 88 58
3 46 28 27
3 88 85 115
3 115 85 86
3 75 115 86
3 103 75 91
3 91 75 64
3 34 42 75
3 42 64 75
3 35 74 57
3 64 57 105
3 74 107 116
3 107 60 87
3 139 87 114
3 114 142 139
3 142 114 119
3 119 167 142
3 156 100 88
3 151 103 132
3 103 122 171
3 126 164 160
3 170 116 161
3 165 182 128
3 165 128 145
3 145 128 108
3 193 145 156
3 181 157 143
3 143 157 105
3 17 16 7
3 28 21 15
3 97 140 94
3 111 121 155
3 153 111 183
3 137 190 168
3 137 168 135
3 174 135 168
3 141 137 102
3 101 102 137
3 71 102 67
3 67 102 101
3 63 67 84
3 98 84 111
3 111 84 121
3 98 111 153
3 140 149 113
3 94 113 71
3 94 71 68
3 68 71 50
3 50 44 32
3 47 32 44
3 41 50 32
3 24 32 47
3 109 124 148
3 148 124 162
3 39 62 68
3 68 62 94
3 94 62 97
3 55 62 39
3 21 8 15
3 8 21 10
3 10 21 25
3 10 25 32
3 10 32 24
3 5 8 10
3 5 10 14
3 14 10 24
3 23 14 24
3 37 23 47
3 47 23 24
3 13 19 31
3 31 19 23
3 31 23 52
3 23 19 14
3 51 45 31
3 69 45 51
3 69 51 89
3 80 79 52
3 109 79 80
3 95 133 136
3 61 93 82
3 61 82 55
3 61 55 40
3 55 82 95
3 27 28 12
3 12 28 15
3 20 12 6
3 18 20 6
3 18 6 7
3 18 7 16
3 2 6 4
3 6 2 7
3 3 0 5
3 0 3 1
3 5 0 4
3 4 0 2
3 2 0 1
3 2 1 7
3 9 11 1
3 11 9 22
3 22 9 13
3 3 13 1
3 1 11 7
3 1 13 9
3 31 22 13
3 49 30 29
3 45 49 29
3 45 29 22
3 22 29 11
3 11 29 17
3 17 29 30
3 17 30 16
3 43 30 48
3 70 48 73
3 49 73 48
3 49 48 30
3 166 112 144
3 154 159 112
3 159 154 180
3 154 112 166
3 166 198 154
3 144 199 166
3 127 187 158
3 146 127 158
3 177 187 127
3 146 82 127
3 127 82 110
3 127 110 177
3 150 177 110
3 54 76 59
3 20 34 26
3 60 43 48
3 60 48 70
3 87 60 70
3 180 167 119
3 180 119 159
3 159 119 112
3 90 123 93
3 90 59 76
3 81 108 76
3 88 66 85
3 115 75 103
3 36 64 42
3 36 20 35
3 20 36 42
3 20 42 34
3 57 64 36
3 57 36 35
3 92 105 57
3 92 57 74
3 126 92 116
3 116 92 74
3 139 161 107
3 107 161 116
3 107 87 139
3 142 192 139
3 118 128 182
3 90 118 123
3 123 118 182
3 76 108 128
3 76 128 118
3 76 118 90
3 132 103 171
3 193 165 145
3 132 171 195
3 132 195 151
3 7 11 17
3 135 121 101
3 101 121 67
3 184 138 153
3 153 138 98
3 134 178 173
3 134 173 163
3 117 134 163
3 169 147 106
3 102 71 113
3 152 102 113
3 50 71 67
3 47 63 77
3 77 63 98
3 47 77 83
3 104 83 77
3 104 117 83
3 47 83 72
3 72 83 99
3 169 129 117
3 78 99 129
3 99 78 72
3 72 78 37
3 162 124 147
3 162 147 194
3 106 147 124
3 131 140 97
3 131 97 136
3 131 136 186
3 131 186 140
3 37 78 80
3 80 106 124
3 136 185 186
3 33 40 25
3 5 14 3
3 69 73 45
3 144 96 130
3 109 130 79
3 79 130 96
3 95 146 133
3 59 61 33
3 54 38 53
3 28 53 38
3 12 26 27
3 18 16 30
3 18 30 35
3 172 120 123
3 150 120 172
3 58 88 100
3 81 58 100
3 28 46 66
3 28 66 58
3 65 86 85
3 65 85 66
3 65 66 46
3 34 75 56
3 34 56 27
3 27 56 46
3 46 56 65
3 65 56 86
3 75 86 56
3 35 60 74
3 107 74 60
3 100 125 108
3 125 100 156
3 115 151 176
3 115 176 156
3 115 156 88
3 115 103 151
3 91 122 103
3 122 91 105
3 91 64 105
3 92 126 105
3 116 170 126
3 126 170 164
3 145 108 125
3 156 145 125
3 105 157 122
3 122 157 171
3 181 143 160
3 143 105 160
3 160 105 126
