ply
format ascii 1.0
comment Generated by PyMesh
element vertex 200
property float x
property float y
property float z
property float charge
property float ddc
property float hbond
property float hphob
property float rho
property float si
property float theta
property float nx
property float ny
property float nz
element face 336
property list uchar int vertex_indices
end_header
-10.8208 -10.8594 2.16681 0.0895403 0 0 -0.355556 1e-08 -0.0928604 2.22045e-16 -0.413652 0.338139 0.845313
-10.9438 -11.9454 2.48863 0.045883 -0.159008 0 -0.355556 1.13934 0.342271 2.22045e-16 -0.640905 -0.00138704 0.767619
-11.2778 -9.7615 1.923 0.0607507 -0.359079 0 -0.353153 1.21395 -0.191157 3.30765 -0.130573 -0.245443 0.960577
-9.57681 -10.5227 2.19225 0.299001 0.373423 0 -0.355556 1.289 -0.999884 1.82836 -0.438988 0.449204 0.778142
-10.0806 -11.4983 3.35013 0.109291 -0.42655 0.0646085 -0.666942 1.53504 0.114555 0.8806 -0.769016 0.42502 0.477465
-12.6357 -10.976 1.2865 0.0285353 -0.158889 0.194629 -0.313749 2.0205 0.048763 4.5117 -0.332237 -0.297189 0.895152
-12.0726 -8.92737 2.13425 0.123345 -0.288323 0 -0.288889 2.38532 -0.302842 3.46334 -0.233982 -0.619553 0.749271
-9.47269 -9.347 2.07006 0.115462 -0.105612 -0.104479 -0.155556 2.47561 -0.999883 2.30141 -0.585631 -0.194416 0.786917
-11.1666 -13.36 1.94488 -0.206042 0.0725858 -0.177078 -0.559371 2.67113 -0.164661 5.8959 -0.642007 0.00878114 0.766649
-8.89669 -10.5161 3.43131 0.516163 -0.419266 0 -0.773862 2.70246 -0.999879 1.52097 -0.913577 0.395687 0.0938591
-9.89112 -11.1829 4.57394 0.675667 -0.452544 0.170995 -0.866667 2.81296 0.169887 1.14707 -0.973998 0.114553 -0.195461
-9.71031 -13.0597 3.25262 0.0396917 0.180931 0 -0.833313 2.96878 -0.0726139 0.365197 -0.707084 -0.367682 0.604021
-10.3341 -8.12113 2.65438 -0.0294602 -0.252272 -0.00627541 -0.193656 3.24282 -0.738405 2.63135 -0.224374 -0.661735 0.715376
-12.842 -9.32 1.4325 0.140183 -0.255877 0.265833 -0.234662 3.49824 -0.999898 3.89113 0.0538043 -0.417686 0.906997
-12.9858 -12.0465 0.13025 -0.0243517 0.162731 0 -0.355556 3.63464 -0.70814 4.86988 -0.325269 -0.508098 0.797519
-14.2536 -11.1819 1.20875 0.104943 -0.272667 0.516573 -0.155556 3.6533 -0.104086 4.37971 0.193527 -0.691729 0.695743
-12.5632 -8.0855 3.22875 0.0449793 -0.265213 0 -0.288889 3.85071 0.492839 3.26758 -0.084792 -0.792755 0.603614
-11.6713 -7.65574 3.5117 0.0416587 -0.252053 0 -0.288889 3.88098 0.216586 3.00676 0.0991495 -0.684262 0.722465
-13.6023 -8.52875 2.33363 0.0297721 -0.230427 0 -0.288889 3.97863 -0.301481 3.63846 0.035108 -0.659049 0.75128
-10.5295 -14.4611 2.446 -0.392247 0.1056 -0.200748 -0.777778 4.03841 0.222943 6.16224 -0.158595 -0.177155 0.971321
-8.87138 -8.798 3.43712 -0.037866 -0.265257 0.16597 -0.323193 4.06678 -0.75587 2.06422 -0.92395 -0.306882 0.22834
-9.11263 -9.75525 4.6195 1 -0.387872 0 -0.866667 4.12981 -0.254098 1.65761 -0.933577 0.25571 -0.251092
-9.34425 -14.1388 2.64025 -0.0461603 0.163902 -0.0753447 -0.839569 4.2624 -0.391624 0.180966 -0.280639 -0.567381 0.774158
-10.3815 -11.1511 5.97144 0.736243 -0.204495 0.611749 -0.866667 4.29434 0.999889 1.24496 -0.964915 0.0792666 0.250313
-14.21 -9.5545 2.14062 0.252646 -0.236713 0.170616 -0.155556 4.30711 0.0372185 3.98728 0.329138 -0.270365 0.904749
-11.8285 -14.8422 2.27575 -0.596817 -0.0315656 -0.796777 -0.777778 4.32779 0.999877 5.85464 -0.562395 0.0785847 0.823126
-8.60675 -14.0155 3.51813 0.0800663 0.209661 0 -0.866667 4.45265 -0.404599 0.371619 -0.657029 -0.67278 0.340119
-9.67912 -9.828 5.5365 1 -0.307402 0 -0.866667 4.48844 0.566714 1.51436 -0.844706 0.531658 -0.0617379
-9.807 -12.265 5.858 0.51646 -0.239184 0.181031 -0.866667 4.49428 0.680889 1.00153 -0.824976 -0.551681 0.12273
-9.38725 -12.8335 4.848 0.261744 -0.271564 0 -0.866667 4.56038 0.151053 0.757051 -0.81048 -0.573301 0.120201
-12.3632 -13.6067 0.43875 -0.298596 0.096328 -0.152735 -0.50512 4.6105 -0.892158 5.34861 -0.711883 0.16999 0.681414
-10.3134 -7.12587 3.87275 -0.00160485 -0.214794 0 -0.155556 4.81616 -0.618643 2.58894 -0.326932 -0.806915 0.491938
-13.8619 -12.8776 -0.485125 -0.192129 -0.0727767 -0.357776 -0.155556 4.98998 -0.748153 4.98577 -0.201733 -0.134953 0.970099
-14.4952 -7.95725 2.686 -0.103135 -0.144913 0 -0.25878 5.09579 -0.38172 3.59562 -0.120823 -0.588424 0.799474
-9.1585 -7.92775 4.10825 -0.00840667 -0.212176 0 -0.155556 5.12249 -0.467475 2.20316 -0.824761 -0.491524 0.279595
-14.9028 -10.6087 2.47469 0.24692 -0.199729 0.0932256 -0.155556 5.18712 0.999885 4.12784 0.230483 -0.404774 0.884893
-11.1847 -6.68075 4.23925 -0.0631667 -0.20893 -0.288505 -0.246484 5.19121 -0.683221 2.76234 -0.0615404 -0.835508 0.546021
-8.72325 -14.8822 2.22825 -0.067733 0.0878872 0 -0.866667 5.31503 -0.999887 0.147187 -0.367816 -0.397812 0.84051
-15.888 -11.3448 1.581 -0.18442 -0.172765 -0.835422 -0.155556 5.33745 0.905977 4.20371 -0.248077 -0.804368 0.539861
-12.4978 -15.0938 1.38925 -0.647353 -0.0777428 -0.315268 -0.777778 5.46671 0.179498 5.63795 -0.729614 0.156261 0.665767
-9.652 -15.5778 2.06512 -0.341683 0.0901413 -0.95041 -0.777778 5.50881 -0.296428 6.22525 -0.0938674 -0.16343 0.982079
-7.87456 -14.7936 3.23938 0.0651227 0.154527 0 -0.866667 5.55685 -0.999826 0.308188 -0.721361 -0.578884 0.380172
-15.9696 -11.7929 0.4935 -0.0880117 -0.146482 -0.578883 -0.4144 5.61022 -0.301055 4.4518 -0.123798 -0.712599 0.690563
-10.993 -15.9369 2.16075 -0.81503 0.10566 0 -0.777778 5.61136 0.72301 6.01884 -0.135007 -0.419602 0.897612
-9.25097 -12.0777 6.85331 0.759213 -0.102714 0 -0.866667 5.64965 0.612397 1.06973 -0.607147 -0.474329 0.637483
-8.80281 -13.2723 5.667 0.38278 -0.191795 0 -0.866667 5.65805 0.508581 0.787446 -0.639472 -0.706714 0.302706
-8.28063 -14.0825 4.70181 0.174915 0.19658 0 -0.866667 5.68227 0.261098 0.570449 -0.708423 -0.671952 0.215911
-14.219 -7.33175 3.72213 -0.132711 -0.169346 0 -0.288889 5.73571 0.291035 3.41878 -0.304906 -0.795956 0.522959
-15.5601 -12.8408 -0.15225 -0.247445 -0.127247 0 -0.722702 5.77544 -0.2974 4.71964 0.105668 -0.414195 0.904033
-8.65356 -8.44756 5.52819 0.36932 0.0349598 0 -0.866667 5.78707 0.117996 1.90384 -0.54031 0.131029 0.831202
-13.456 -6.9735 4.6405 0.0106169 -0.150972 0 -0.288889 5.85737 0.669452 3.11602 -0.0476966 -0.673293 0.737836
-12.222 -16.1385 1.47275 -0.384497 0.0815023 -0.0114672 -0.777778 5.9026 0.558085 5.74612 -0.514624 -0.44663 0.731904
-8.74325 -9.3785 6.50688 1 0.182315 0 -0.866667 5.90954 0.368508 1.66919 -0.152172 0.78737 0.597405
-12.2754 -6.3125 4.96178 0.037571 -0.143889 -0.160366 -0.263116 5.94785 0.0607669 2.87337 -0.0471689 -0.667561 0.743059
-10.6545 -6.58 5.099 -0.231375 -0.177915 -0.785561 -0.155556 6.20108 0.0986189 2.76234 -0.376602 -0.822101 0.426991
-9.34175 -10.4634 7.45062 0.734227 -0.049211 0.392256 -0.866667 6.22876 0.999891 1.66919 -0.586877 0.217069 0.780036
-15.8403 -8.4775 2.45913 -0.184729 -0.111171 -0.0665696 -0.155556 6.28682 -0.532228 3.59562 0.0810591 -0.22859 0.970142
-13.7215 -14.402 -0.23675 -0.321801 -0.0777021 -0.674917 -0.777778 6.32333 -0.999807 4.98577 -0.384527 0.366098 0.847414
-9.58838 -7.17572 5.35656 -0.0720867 -0.151506 0 -0.155556 6.46838 0.200363 2.20316 -0.517527 -0.689232 0.507076
-13.277 -15.264 0.7645 -0.525217 -0.0433122 -0.750448 -0.777778 6.47984 0.276461 5.63795 -0.592958 0.165798 0.787979
-15.5855 -6.97237 3.164 -0.206872 -0.138981 0 -0.288889 6.64085 -0.749771 3.41878 -0.133444 -0.768976 0.625195
-14.8038 -14.2679 -0.476375 0.00114367 -0.122884 -0.170806 -0.777778 6.66933 -0.999836 4.71964 0.167585 0.25905 0.951214
-7.83512 -15.8796 2.55012 -0.005453 -0.0396819 0 -0.851249 6.68877 -0.99988 0.308188 -0.678985 0.00739079 0.734115
-7.36434 -15.4719 4.05644 0.0355127 0.100528 0 -0.866667 6.73498 0.157751 0.308188 -0.729507 -0.453399 0.512102
-8.84525 -11.3252 7.58425 0.772837 0.0646908 0.20351 -0.866667 6.77444 0.741024 1.06973 -0.155862 -0.143209 0.977342
-17.0605 -11.116 0.7535 -0.00555143 -0.0930991 0.0020518 -0.155556 6.79067 -0.137062 4.4518 -0.383154 -0.585228 0.714633
-11.1015 -16.791 1.325 -0.445653 0.120704 0 -0.777778 6.81125 0.545085 6.01884 -0.309769 -0.687469 0.656833
-10.0239 -16.8423 1.71088 -0.222828 0.0517338 -0.408629 -0.777778 6.87364 -0.173199 6.22525 -0.473723 -0.328313 0.817189
-13.8022 -6.02612 5.05288 -0.0323285 -0.0998182 0 -0.288889 6.94706 -0.344842 3.11602 -0.0436382 -0.470329 0.881412
-7.371 -14.4086 5.5775 0.113653 0.132492 0 -0.866667 6.98634 0.354953 0.570449 -0.213611 -0.732018 0.646931
-7.499 -8.635 5.097 0.33105 0.139073 0.778693 -0.866667 7.03369 -0.999859 1.90384 0.0999293 0.324846 0.940473
-16.7653 -10.1103 2.37981 -0.480837 -0.0831931 -0.958571 -0.155556 7.04968 0.578546 4.20371 -0.30756 -0.480808 0.821115
-8.4545 -7.223 5.8615 -0.036253 -0.136828 0 -0.155556 7.0717 0.169479 1.90384 0.0630318 -0.565168 0.822565
-12.0071 -16.9351 0.627688 -0.282936 0.12914 0 -0.777778 7.08366 0.361314 5.74612 -0.369568 -0.761527 0.532444
-8.00075 -10.0413 7.45125 0.626277 0.150789 0.474991 -0.866667 7.28156 0.999899 1.66919 0.249761 0.506844 0.825063
-16.6195 -13.8413 0.25625 0.0744757 -0.0899717 0 -0.777778 7.28878 0.21688 4.71964 0.0305198 0.283387 0.95852
-14.8775 -6.392 4.7815 -0.0877703 -0.12829 0 -0.288889 7.29745 0.139323 3.11602 -0.0701895 -0.726398 0.68368
-7.75362 -13.5154 6.91388 0.178504 0.130941 0 -0.866667 7.30566 0.891283 0.787446 -0.0419651 -0.687028 0.725418
-8.548 -16.9354 2.59675 -0.263726 -0.0600312 0 -0.777778 7.33762 -0.265914 6.22525 -0.516542 0.358231 0.777725
-17.528 -10.2195 1.18 -0.252893 0.100812 -0.588982 -0.155556 7.36642 -0.598223 4.20371 -0.490767 -0.645074 0.585685
-7.59062 -12.3855 7.4225 0.373997 0.100086 0 -0.866667 7.43164 0.694469 1.06973 0.0702084 -0.305577 0.949576
-17.6025 -12.3884 -0.0595 0.316843 -0.0629105 0.185999 -0.727787 7.43417 -0.329982 4.4518 -0.0816145 -0.194588 0.977484
-11.1761 -5.69637 5.8395 0.153615 -0.13573 -0.385073 -0.155556 7.46647 -0.384973 2.87337 -0.38488 -0.784112 0.486863
-13.2936 -16.5419 0.364812 -0.317426 0.0879196 0 -0.777778 7.4959 -0.0742171 5.74612 -0.225165 -0.518622 0.824822
-17.1569 -8.38313 2.722 -0.173604 -0.0699045 0 -0.155556 7.63272 0.238235 3.59562 -0.185857 -0.384039 0.904418
-14.3853 -15.4355 0.226 -0.129791 -0.0920613 -0.441248 -0.777778 7.63592 -0.0747912 5.63795 -0.0476324 0.315977 0.94757
-7.1575 -10.2837 6.68875 0.765713 0.186626 0 -0.866667 7.7445 -0.157604 1.66919 0.372848 0.619931 0.690413
-16.6373 -7.33638 3.0085 -0.150963 -0.136952 0 -0.155556 7.76467 -0.415263 3.41878 0.229484 -0.609191 0.759094
-12.6431 -4.67812 5.88588 -0.0220906 0.0772306 0.162576 -0.25208 7.86106 -0.0594895 2.87337 -0.562668 0.507152 0.652841
-7.161 -7.0105 5.2475 -0.121971 0.134763 0 -0.155556 7.87792 -0.99988 1.90384 0.205689 -0.463993 0.861628
-6.32175 -15.5035 4.7615 0.0603403 0.0816513 0 -0.866667 7.99399 0.216985 0.308188 -0.155353 -0.47831 0.86434
-16.6895 -6.5235 3.8545 -0.247934 -0.167671 -0.0845656 -0.266918 8.0182 -0.999905 3.41878 0.290408 -0.875042 0.387254
-10.761 -17.6825 0.514 -0.103993 0.0890557 0 -0.777778 8.06362 -0.286992 6.01884 -0.529192 -0.588319 0.611422
-6.721 -9.4495 5.7075 0.267663 0.137834 -0.130503 -0.690547 8.08521 -0.36401 1.66919 0.0395619 0.537671 0.842226
-7.54525 -16.9387 3.44025 -0.0783123 -0.0482562 -0.611731 -0.777778 8.1023 -0.169148 0.308188 -0.681159 0.206113 0.702523
-8.68256 -6.43162 6.51638 -0.0343693 -0.129723 0 -0.155556 8.11743 0.146625 1.90384 -0.0584446 -0.72846 0.682591
-6.51888 -16.5816 4.089 0.0519687 0.0151352 0 -0.777778 8.13044 -0.266048 0.308188 -0.392084 -0.0188769 0.919736
-11.9365 -17.4435 -0.29875 -0.165537 0.0923496 0 -0.777778 8.14278 -0.757873 5.74612 -0.352086 -0.635777 0.686893
-9.33075 -17.7201 2.38775 -0.37033 -0.0720237 -0.655861 -0.777778 8.18098 0.120157 6.22525 -0.826645 0.164711 0.538079
-9.86438 -5.89712 6.79975 0.11479 -0.148409 0 -0.155556 8.19687 -0.210574 2.76234 -0.219346 -0.885478 0.409654
-14.386 -5.0025 5.6365 0.057943 -0.0905122 0 -0.288889 8.26207 -0.0728844 3.11602 0.0248452 -0.484975 0.874175
-18.5084 -11.1437 0.0408125 0.267317 -0.0496708 0 -0.468784 8.40471 -0.569059 4.4518 -0.193927 -0.270441 0.943003
-18.0786 -13.3655 -0.167875 0.33363 -0.0640885 0 -0.951709 8.52648 -0.683495 4.4518 -0.00418875 0.0790882 0.996859
-16.272 -6.41025 4.868 -0.196917 -0.188518 -0.260354 -0.537218 8.56202 0.0206288 3.11602 0.376086 -0.90874 0.180975
-9.54244 -18.4902 1.55037 -0.16166 0.0769566 -0.520619 -0.777778 8.59792 -0.314944 6.22525 -0.863531 -0.227399 0.450116
-18.6789 -9.966 0.587 -0.0506543 -0.0741245 0 -0.155556 8.68569 -0.582681 4.20371 -0.359964 -0.585225 0.726593
-6.78912 -11.4445 7.18512 0.434837 0.144208 0 -0.866667 8.6903 0.521498 1.06973 0.426901 0.1304 0.894847
-11.1451 -5.506 7.06925 0.081587 -0.176223 0 -0.100888 8.71125 -0.259259 2.87337 -0.383129 -0.923164 -0.031305
-6.13163 -13.2419 5.89725 0.39204 0.162719 0 -0.866667 8.71823 -0.357331 0.570449 0.410335 -0.537717 0.736536
-18.558 -9.4 1.56025 -0.109215 -0.0716999 0 -0.155556 8.73648 0.462526 4.20371 -0.479985 -0.553648 0.680506
-18.2409 -8.0865 2.63013 -0.181489 -0.114921 0 -0.155556 8.76032 -0.122252 3.59562 -0.178788 -0.814894 0.551346
-14.4928 -17.0419 0.545875 -0.00660917 -0.113299 0 -0.777778 8.80772 0.400819 5.74612 0.322027 -0.195194 0.92639
-18.9918 -12.5283 0.088 0.486653 -0.0692018 0.328718 -1 8.83827 0.507778 4.4518 0.0881888 -0.0485262 0.994921
-17.8531 -14.8748 0.4215 -0.075275 -0.0504986 -0.265592 -0.777778 8.90656 -0.0549542 4.71964 -0.290997 0.345615 0.892116
-13.5205 -4.28575 6.30813 -0.0468763 -0.05942 0.712136 -0.0888889 8.91086 0.810863 2.87337 -0.0219807 -0.0487423 0.998569
-16.0704 -5.72713 5.64337 -0.140468 -0.144241 -0.360001 -0.537833 8.91234 -0.0838047 3.11602 0.544413 -0.522051 0.656565
-6.827 -6.381 6.055 -0.162172 0.156274 0 -0.155556 8.9143 0.287709 1.90384 0.458249 -0.574756 0.677985
-6.108 -7.0885 5.339 -0.215195 0.146639 -0.347611 -0.209033 8.93777 0.375755 1.90384 0.505765 -0.0733662 0.859546
-9.146 -18.2255 3.372 -0.402247 -0.0543895 -0.367413 -0.777778 8.95718 0.999889 6.22525 -0.784998 0.117893 0.608177
-16.592 -15.3796 1.00713 0.0287388 -0.100565 0 -0.777778 9.00078 0.472334 4.71964 0.163764 0.329992 0.92967
-5.3855 -15.91 4.645 -0.0467453 0.0410969 0 -0.866667 9.02131 -0.457791 0.308188 -0.298078 -0.272191 0.914911
-17.5072 -7.0805 4.16025 -0.244737 -0.191442 -0.0570109 -0.462858 9.05375 -0.31715 3.41878 0.551357 -0.826133 0.116228
-6.14475 -12.4715 6.67188 0.321329 0.157816 0 -0.866667 9.06301 0.603308 1.06973 0.509545 -0.342573 0.789308
-5.8845 -9.827 6.15375 -0.11962 0.0845398 -0.0195851 -0.288889 9.10569 -0.0303628 1.66919 -0.151958 0.40193 0.902973
-12.1039 -18.334 -0.824125 -0.00727283 0.0403746 0.012477 -0.777778 9.19017 -0.946448 5.74612 -0.203062 -0.141511 0.968886
-10.2875 -18.678 0.1155 0.0224967 0.0584457 0.0776585 -0.777778 9.23581 -0.722435 6.01884 -0.735328 -0.321227 0.596746
-13.4291 -17.8351 -0.796125 -0.00978263 0.104637 0 -0.777778 9.23903 -0.999841 5.74612 0.228875 -0.447757 0.864367
-7.77125 -18.1174 3.96012 -0.34568 -0.0066947 -0.43348 -0.777778 9.30211 0.386941 6.22525 -0.461783 0.0208661 0.886747
-5.1885 -14.8655 5.00425 -0.0202361 0.0466142 0 -0.866667 9.31695 -0.470014 0.308188 -0.249824 -0.262052 0.932157
-14.434 -3.972 5.968 -0.105477 0.143622 0 -0.288889 9.34564 0.249956 3.11602 0.435753 0.731254 0.524773
-5.88919 -8.47812 5.37075 -0.39936 0.146158 -0.912138 -0.288889 9.40767 -0.22549 1.66919 0.147833 0.640262 0.753797
-5.01606 -13.8609 5.32062 0.0706267 0.070173 0 -0.866667 9.41774 -0.377712 0.570449 -0.0600732 -0.273306 0.96005
-11.6453 -4.60388 4.67525 -0.111387 0.198609 -0.441202 -0.155556 9.43164 -0.624341 2.87337 -0.344569 0.936217 -0.0690706
-10.3611 -5.92944 7.93031 0.0380817 -0.200891 0 -0.0888889 9.43216 0.163354 2.87337 0.078183 -0.982644 -0.168221
-11.422 -3.9135 6.5525 0.0452527 0.20003 0.661268 -0.122222 9.44854 -0.403491 2.87337 -0.16872 0.857403 -0.486204
-5.70138 -11.2166 6.52112 0.120924 0.127624 0 -0.866667 9.48194 0.0809855 1.66919 0.357475 0.087021 0.92986
-7.5365 -5.956 7.0925 -0.117358 -0.136976 0 -0.155556 9.48549 0.628585 1.90384 0.323885 -0.657443 0.680343
-11.1145 -18.6728 -0.466125 0.0271403 0.0341848 0.266106 -0.777778 9.50109 -0.412093 5.74612 -0.412087 -0.29045 0.863611
-12.6186 -4.56244 4.20325 -0.116365 0.21457 0 -0.288889 9.54784 -0.571016 2.87337 0.34752 0.929517 0.123401
-19.0096 -13.8686 0.02125 0.175048 -0.0361531 0 -0.777778 9.60149 0.311597 4.71964 -0.192111 0.0336778 0.980795
-12.3745 -3.36175 7.0435 0.259066 -0.207827 0.820334 -0.0888889 9.63449 -0.0846172 2.87337 0.00283395 0.46792 -0.883766
-5.0845 -16.9285 4.6285 -0.00388733 0.019904 0 -0.782022 9.7017 -0.263381 0.308188 -0.337251 -0.0516141 0.939999
-13.621 -3.619 7.156 -0.00765367 -0.177312 0 -0.0888889 9.78232 0.26688 2.87337 -0.581425 -0.365319 -0.726971
-15.8263 -4.70075 6.05 -0.0799593 -0.114233 0 -0.288889 9.79063 -0.469468 3.11602 0.445854 -0.386268 0.807472
-13.759 -3.865 4.518 -0.180889 0.181802 0 -0.288889 9.80464 0.457533 2.87337 0.378846 0.906421 0.186753
-19.0576 -8.329 1.66288 -0.200937 -0.0716025 0 -0.155556 9.80926 -0.464996 4.20371 -0.427405 -0.602682 0.673869
-12.4902 -5.07987 7.84025 0.2066 -0.17269 0 -0.0888889 9.86214 -0.109436 2.87337 -0.52891 -0.777561 -0.340077
-6.4705 -18.222 4.652 0.0393597 0.0237117 0 -0.777778 9.86544 0.706979 0.308188 -0.324443 -0.12887 0.937086
-18.504 -7.66988 3.92006 -0.246476 -0.169125 0 -0.773431 9.86865 0.0743183 3.41878 0.180183 -0.982802 0.0404267
-19.2633 -7.63963 2.67156 -0.203143 -0.128528 0 -0.777778 9.87688 -0.401501 3.59562 -0.292112 -0.938389 0.184654
-8.771 -5.32425 8.028 -0.0419467 -0.153707 0 -0.155556 9.9382 -0.086949 2.76234 0.343575 -0.856788 0.384539
-6.16512 -6.86163 4.35112 -0.245605 0.229611 0 -0.252573 9.95297 -0.807917 1.90384 0.916988 0.10264 0.385484
-20.0648 -12.04 0.08525 0.23307 -0.048382 0.554833 -1 10.0172 0.204728 4.4518 -0.0741971 -0.181869 0.980519
-19.895 -10.299 0.14975 -0.0133258 -0.0666589 0 -1 10.0202 -0.645 4.4518 0.0840911 -0.22681 0.970302
-9.19025 -19.9055 1.95575 -0.00195302 0.063675 0 -0.777778 10.1117 0.60351 6.22525 -0.798463 -0.34662 0.492252
-17.048 -7.02975 6.08975 -0.476217 -0.174382 0 -0.777778 10.1364 0.635334 3.11602 0.706083 -0.625624 0.331724
-6.082 -5.856 5.234 -0.251662 0.18203 0 -0.155556 10.141 -0.113728 1.90384 0.775231 -0.39143 0.495781
-9.7635 -19.9498 0.82475 0.203867 0.0832602 0.711939 -0.777778 10.2429 0.33897 6.22525 -0.82388 -0.459811 0.331355
-4.847 -10.291 6.45038 0.037914 0.0710357 0 -0.288889 10.2803 0.301707 1.66919 0.00957401 -0.100793 0.994861
-17.2265 -16.4592 1.47 -0.40204 -0.0737504 -0.138704 -0.777778 10.3358 0.736253 4.71964 0.120941 -0.0978356 0.987827
-14.8401 -18.4291 0.006625 0.113002 0.105931 0.73229 -0.777778 10.336 0.373929 5.74612 0.176416 -0.660119 0.73015
-15.7332 -18.0243 0.6705 0.125726 0.0866274 0.516629 -0.777778 10.3949 0.999887 5.74612 -0.0328294 -0.623416 0.781201
-4.78862 -12.2188 5.761 0.046972 0.100519 0 -0.19913 10.412 -0.449076 0.570449 0.164276 -0.304236 0.938325
-4.22738 -13.2555 5.60988 0.0421657 0.0132733 0 0.101562 10.4532 -0.328295 0.570449 -0.427561 -0.0956582 0.898911
-19.121 -15.7817 0.018 -0.180074 0.0152028 -0.96583 -0.777778 10.5168 0.0919491 4.71964 -0.616096 -0.0402292 0.786643
-10.554 -3.77 5.878 0.219659 0.174125 0.591795 -0.155556 10.5571 0.0822923 2.87337 -0.292152 0.949918 -0.110922
-5.05813 -18.3581 4.882 0.0466233 0.0237505 0 -0.777778 10.5633 0.183834 0.308188 -0.285175 0.042256 0.957543
-16.9635 -5.543 7.033 -0.11205 -0.160172 0.573641 -0.0888889 10.5744 -0.596404 3.11602 0.878562 -0.357826 0.316369
-6.894 -19.0485 3.8485 0.055297 0.049569 0 -0.777778 10.5862 -0.146767 6.22525 -0.267766 -0.419034 0.86759
-11.3306 -3.17412 7.44688 0.137136 -0.202731 0.103752 -0.0888889 10.6126 -0.73938 2.87337 0.104171 0.534159 -0.838941
-4.7005 -8.899 6.39175 -0.253878 0.0794105 -0.140137 -0.288889 10.6287 0.999869 1.66919 -0.161919 0.492993 0.854834
-8.32325 -19.708 3.28513 -0.22326 0.0609626 0 -0.777778 10.6549 0.635472 6.22525 -0.512635 -0.545277 0.663233
-4.0155 -15.5483 5.4625 -0.191928 0.0284786 0 -0.866667 10.6572 0.121473 0.308188 -0.451521 -0.269503 0.850586
-3.87538 -14.3188 5.57725 -0.0440993 -0.0194229 0 0.933333 10.6734 -0.6635 0.570449 -0.612834 -0.0935184 0.784658
-4.73318 -8.01982 5.00636 -0.573307 0.143419 -0.307206 -0.288889 10.7035 0.6786 1.66919 -0.183117 0.880376 0.437499
-19.917 -14.384 -0.433 0.053752 0.00843655 0 -0.777778 10.7396 0.0986702 4.71964 -0.564847 -0.0225143 0.824889
-17.9305 -7.7 5.6845 -0.513793 -0.1788 0 -0.777778 10.7527 0.787553 3.11602 0.473958 -0.878643 0.0578875
-18.2162 -16.4829 1.25238 -0.695783 -0.00596318 -0.0344053 -0.777778 10.7527 0.999872 4.71964 -0.448204 -0.0448252 0.892807
-6.65863 -4.65394 6.68906 -0.195179 0.152745 0 -0.155556 10.7618 0.490303 1.90384 0.800897 -0.162584 0.576308
-13.9651 -19.3076 -0.856875 0.0230323 0.0496117 0 -0.777778 10.8072 -0.19383 5.74612 -0.0841142 -0.234529 0.968463
-12.6915 -2.2385 7.26463 0.0331868 -0.193995 0.0298436 -0.0888889 10.8224 0.230133 2.87337 0.235183 0.158478 -0.958944
-16.5655 -17.2036 0.899375 -0.212634 -0.082171 -0.161303 -0.777778 10.8282 0.133714 5.74612 0.0662269 -0.459397 0.885759
-13.7907 -2.59575 7.293 -0.043938 -0.187879 0 -0.0888889 10.8286 -0.242704 2.87337 -0.0844454 0.0670477 -0.99417
-20.4631 -8.78963 0.798563 -0.236994 -0.072314 -0.153739 -0.252353 10.8332 -0.575195 4.20371 0.0143915 -0.530912 0.847305
-10.5036 -20.1369 -0.600625 0.058206 0.156024 0.781005 -0.777778 10.8753 0.260129 6.01884 0.149665 -0.983519 -0.101446
-15.773 -3.4955 6.645 -0.114715 -0.168749 0 -0.151249 10.9199 -0.0697984 3.11602 0.923786 -0.380056 0.0466609
-16.4112 -4.2905 7.04475 -0.010762 -0.151889 0.812023 -0.0888889 10.948 -0.628653 3.11602 0.838796 -0.44615 0.312044
-13.884 -3.6015 3.3775 -0.36105 0.189896 0 -0.288889 10.9818 0.520409 2.87337 0.416628 0.904626 0.0898459
-10.1385 -3.37 7.203 0.128498 0.189179 0.766552 -0.123149 10.9867 -0.614324 2.87337 -0.168293 0.772069 -0.612851
-12.1984 -20.1607 -0.610219 0.267803 0.0587282 0 -0.777778 11.0318 0.366334 5.74612 0.023139 -0.257491 0.966004
-20.046 -7.609 1.613 -0.255855 -0.0952649 0 -0.603587 11.0331 -0.999889 4.20371 -0.121794 -0.818928 0.560824
-11.9806 -4.509 2.84575 -0.113418 0.175406 0.182902 -0.288889 11.0487 -0.951426 2.87337 -0.102244 0.924185 0.368005
-20.18 -13.0195 -0.2195 0.215173 0.0302644 0.542841 -1 11.0494 0.270779 4.71964 -0.488176 -0.314478 0.814118
-3.8145 -17.367 4.925 0.0298796 0.0306832 -0.398123 -0.815087 11.0776 -0.458783 0.308188 -0.209084 0.0147824 0.977786
-10.862 -4.18275 3.26312 0.0658053 0.141448 0.497328 -0.172978 11.1005 -0.99984 2.87337 -0.634458 0.720267 0.280495
-8.99281 -5.18831 9.17241 0.00358713 -0.183384 0 -0.0888889 11.1118 -0.347794 2.76234 0.596314 -0.785419 -0.165914
-14.8453 -3.09875 7.2685 -0.106071 -0.188651 0 -0.0888889 11.1173 0.173275 2.87337 0.063646 -0.38891 -0.919075
-13.1315 -5.173 8.925 0.0186621 -0.142543 0 -0.0888889 11.1257 0.513889 2.87337 -0.755563 -0.598811 -0.265611
-10.4118 -6.27056 9.62613 0.105906 -0.178904 0 -0.0888889 11.1627 0.377422 2.87337 0.23397 -0.959916 -0.154338
-20.5355 -7.3585 2.45875 -0.197638 -0.135877 0 -0.777778 11.197 -0.725604 3.59562 0.0744875 -0.996569 0.0360829
3 145 183 109
3 71 109 79
3 87 148 110
3 87 110 84
3 84 110 145
3 84 109 71
3 35 56 71
3 56 84 71
3 79 65 38
3 81 65 101
3 101 112 81
3 139 192 175
3 100 115 76
3 115 155 103
3 115 103 76
3 155 176 103
3 76 103 60
3 84 56 87
3 60 47 76
3 68 50 53
3 50 47 16
3 18 6 16
3 24 15 5
3 5 14 30
3 38 42 15
3 42 48 15
3 75 113 119
3 113 75 139
3 113 139 164
3 113 164 177
3 119 159 181
3 100 76 68
3 82 53 54
3 36 54 53
3 50 17 53
3 50 16 17
3 0 1 4
3 19 8 25
3 1 5 8
3 25 8 30
3 59 30 57
3 30 59 39
3 83 51 59
3 39 59 51
3 59 85 83
3 83 85 111
3 59 57 85
3 119 181 111
3 51 83 73
3 111 160 126
3 126 160 179
3 107 133 146
3 99 54 58
3 58 72 95
3 95 72 116
3 72 58 49
3 49 27 52
3 58 34 49
3 27 49 21
3 27 21 10
3 44 55 23
3 44 64 55
3 44 28 45
3 10 29 28
3 29 46 45
3 46 26 41
3 41 37 62
3 67 40 43
3 78 67 98
3 66 43 51
3 66 73 92
3 133 195 198
3 150 133 99
3 150 99 136
3 136 99 95
3 116 117 156
3 158 123 135
3 86 74 106
3 86 106 135
3 64 106 74
3 64 80 106
3 80 64 44
3 80 77 122
3 108 77 69
3 108 69 131
3 77 45 69
3 131 90 128
3 128 90 120
3 128 120 172
3 141 96 166
3 127 94 78
3 41 63 46
3 96 127 147
3 171 168 127
3 154 171 104
3 104 157 154
3 104 92 125
3 135 122 162
3 122 77 108
3 120 141 172
3 140 180 169
3 132 134 165
3 169 134 140
3 23 55 52
3 149 199 190
3 149 190 145
3 183 145 190
3 105 109 183
3 105 183 153
3 110 149 145
3 65 79 101
3 101 79 105
3 105 79 109
3 152 112 101
3 152 101 153
3 105 153 101
3 121 176 148
3 121 148 87
3 110 148 149
3 87 56 60
3 60 33 47
3 33 60 56
3 24 33 56
3 24 56 35
3 81 75 48
3 81 48 42
3 81 42 65
3 65 42 38
3 102 75 81
3 102 81 112
3 75 102 139
3 139 102 112
3 186 167 115
3 186 115 143
3 143 115 100
3 155 115 167
3 60 91 87
3 121 87 91
3 121 91 103
3 121 103 176
3 103 91 60
3 24 18 33
3 33 18 16
3 33 16 47
3 5 2 6
3 5 6 13
3 2 5 0
3 5 13 24
3 24 13 18
3 18 13 6
3 48 5 15
3 57 30 32
3 14 32 30
3 75 61 48
3 32 48 61
3 32 61 57
3 85 57 61
3 85 61 119
3 119 61 75
3 100 129 143
3 143 129 185
3 143 185 186
3 114 129 100
3 88 146 142
3 88 114 100
3 53 88 68
3 68 88 100
3 82 88 53
3 58 54 31
3 31 54 36
3 31 36 17
3 34 58 31
3 17 12 31
3 31 12 34
3 2 7 12
3 6 2 17
3 17 2 12
3 3 7 2
3 0 3 2
3 3 4 9
3 4 3 0
3 10 21 9
3 10 9 4
3 29 10 11
3 11 10 4
3 11 4 1
3 22 11 19
3 1 8 11
3 11 8 19
3 30 8 5
3 119 111 85
3 97 73 83
3 97 83 126
3 97 126 124
3 124 126 179
3 111 126 83
3 107 88 82
3 88 107 146
3 133 107 99
3 99 107 82
3 99 82 54
3 117 116 89
3 72 89 116
3 93 70 52
3 52 70 49
3 49 70 89
3 49 89 72
3 89 70 117
3 117 70 93
3 117 93 130
3 21 49 34
3 21 34 20
3 20 34 12
3 3 9 7
3 7 9 20
3 7 20 12
3 20 9 21
3 29 45 28
3 37 41 22
3 37 22 40
3 40 22 19
3 11 22 26
3 26 22 41
3 78 62 40
3 62 37 40
3 78 40 67
3 67 43 66
3 104 98 67
3 104 67 92
3 66 92 67
3 137 92 97
3 137 97 124
3 137 124 189
3 73 97 92
3 179 189 124
3 195 133 150
3 58 95 99
3 156 117 151
3 130 151 117
3 93 86 123
3 123 86 135
3 52 74 86
3 52 86 93
3 93 123 130
3 46 69 45
3 141 120 96
3 90 96 120
3 127 96 94
3 63 94 96
3 63 96 90
3 78 94 62
3 62 94 63
3 62 63 41
3 125 157 104
3 157 125 184
3 184 125 137
3 184 137 189
3 137 125 92
3 141 166 193
3 141 193 172
3 128 172 131
3 131 172 173
3 163 131 173
3 135 162 158
3 163 162 131
3 131 162 108
3 108 162 122
3 132 194 191
3 132 191 138
3 88 129 114
3 140 142 182
3 140 182 180
3 165 134 188
3 188 134 169
3 140 88 142
3 88 140 134
3 88 134 132
3 132 138 88
3 88 138 144
3 129 88 144
3 196 182 142
3 109 84 145
3 38 35 71
3 71 79 38
3 192 139 152
3 152 139 112
3 76 47 50
3 76 50 68
3 35 38 15
3 24 35 15
3 175 164 139
3 177 181 159
3 159 119 177
3 119 113 177
3 17 16 6
3 0 5 1
3 160 111 161
3 111 181 161
3 23 10 28
3 28 44 23
3 27 10 23
3 11 26 29
3 26 46 29
3 43 19 25
3 43 25 51
3 40 19 43
3 30 39 25
3 25 39 51
3 51 73 66
3 197 142 146
3 116 136 95
3 136 116 178
3 174 130 170
3 170 123 158
3 123 170 130
3 64 74 55
3 74 52 55
3 23 52 27
3 44 77 80
3 45 77 44
3 46 63 69
3 90 69 63
3 69 90 131
3 127 118 171
3 118 127 78
3 78 98 118
3 118 98 104
3 171 118 104
3 178 116 156
3 135 106 122
3 80 122 106
3 147 166 96
3 138 187 144
3 48 32 14
3 48 14 5
3 36 53 17
