ply
format ascii 1.0
comment Generated by PyMesh
element vertex 200
property float x
property float y
property float z
property float charge
property float ddc
property float hbond
property float hphob
property float rho
property float si
property float theta
property float nx
property float ny
property float nz
element face 337
property list uchar int vertex_indices
end_header
-20.324 -6.3865 14.3372 0.221022 0 0 1 1e-08 -0.999791 2.22045e-16 0.499942 -0.811387 -0.302835
-20.6695 -7.0855 15.0363 0.123762 -0.50035 -0.585066 -0.0157454 1.04724 -0.757273 4.31113 0.67072 -0.488536 -0.558093
-20.213 -6.25775 13.0215 0.18907 -0.403598 0 -0.80846 1.32664 -0.856385 0.783547 0.370986 -0.88433 0.283425
-18.6523 -6.01937 14.132 0.176105 -0.26306 0 0.0998822 1.7238 -0.501133 1.92439 0.0278223 -0.975824 -0.216778
-21.5989 -7.74388 13.9134 0.105045 -0.127913 -0.0787328 -0.922018 1.90983 -0.280303 5.10042 0.659801 -0.707421 -0.253412
-20.0229 -7.55125 15.8363 0.178879 -0.353885 -0.317033 0.147612 1.92214 -0.207275 3.66336 0.562908 -0.387783 -0.729903
-18.7805 -6.90188 15.6709 0.205645 -0.252558 0 1 2.10399 -0.444014 2.819 0.146899 -0.741063 -0.655169
-20.79 -7.24388 12.0931 0.140248 -0.214971 0 -0.610956 2.44709 -0.22274 2.22045e-16 0.580424 -0.770568 0.263312
-19.1028 -6.053 12.8455 0.0926913 -0.307889 -0.218172 -0.149494 2.4692 -0.584342 1.27285 0.136644 -0.958058 0.251901
-21.2502 -8.50362 14.8431 -0.296657 -0.377076 -0.838733 -0.177778 2.59178 -0.200459 4.50224 0.671974 -0.133546 -0.728434
-19.545 -7.992 16.6395 0.294261 -0.295175 -0.347605 0.404067 2.95547 -0.999927 3.33568 0.269309 -0.335886 -0.902581
-22.3465 -8.49375 14.0885 -0.068124 -0.197541 0 -0.177778 2.98308 -0.569041 4.91173 0.588423 -0.468957 -0.658663
-17.911 -6.2715 15.196 0.204766 -0.362599 0 1 3.04485 -0.999889 2.42274 -0.413333 -0.739608 -0.531165
-19.261 -6.84125 11.6965 -0.243992 -0.205878 0 -0.0888889 3.05938 0.277998 0.662757 0.368084 -0.864345 0.342669
-21.936 -7.92137 12.5278 0.265757 -0.187435 0 -1 3.34685 -0.340597 5.69193 0.511917 -0.808369 0.290657
-18.333 -6.3345 12.108 0.091576 -0.206737 -0.120039 -0.0912609 3.41823 0.282037 1.13071 0.250826 -0.908366 0.3346
-17.0045 -6.579 13.7055 0.209189 -0.256636 0.0484967 -0.177778 3.51554 0.0532711 2.01282 -0.372483 -0.798344 -0.473185
-17.8437 -7.97316 16.2629 0.254598 -0.35989 0 0.717809 3.64532 -0.731524 2.94978 -0.424628 -0.21275 -0.880016
-20.1265 -9.2905 16.176 0.276374 -0.354147 -0.870462 -0.262424 3.69727 -0.889417 3.8855 0.611254 0.245662 -0.752342
-20.4977 -9.66825 15.1231 0.138002 -0.44517 -0.771219 -0.31148 4.00635 0.0933316 4.15283 0.461489 0.593141 -0.659705
-23.149 -9.1075 13.7925 0.056889 0.233572 0 -0.177778 4.03585 0.219697 4.9762 -0.118113 -0.489313 -0.864073
-16.9878 -6.00616 12.5084 0.16828 -0.115174 0 -0.177778 4.04905 -0.268516 1.58019 0.0390774 -0.970228 -0.23902
-20.3315 -7.74131 10.5953 0.199796 -0.1555 0.0211574 -0.577367 4.09058 -0.0744587 0.199718 0.524645 -0.768145 0.367016
-21.5238 -10.0594 14.7436 0.0140825 -0.328528 0 -0.302471 4.17456 -0.347971 4.41646 0.230592 0.180458 -0.95617
-18.8542 -9.37125 16.6077 0.147958 -0.370303 0 -0.866667 4.21851 -0.774815 3.47321 -0.0286449 0.379911 -0.924579
-23.2985 -8.6565 12.6355 0.145161 0.163686 0 -1 4.22382 0.171649 5.36713 -0.149108 -0.988821 -0.000164651
-17.401 -6.03675 11.4762 0.108734 -0.0716708 0 -0.16549 4.5829 -0.137755 1.25945 0.51537 -0.855702 0.0465509
-17.0825 -7.7875 15.585 0.30018 -0.414408 0 -0.191002 4.68139 -0.858649 2.71007 -0.834138 -0.0571497 -0.548587
-15.8385 -6.69825 13.663 0.586543 -0.22101 0.523724 -0.177778 4.68839 -0.999858 2.04322 -0.370887 -0.574621 -0.729557
-16.4895 -7.686 14.14 0.249945 -0.359826 0 -0.866667 4.81148 0.0837004 2.37143 -0.666855 -0.076441 -0.741257
-19.343 -10.0887 16.0842 0.0367197 -0.400745 0 -0.959427 4.81951 -0.999899 3.69285 0.269278 0.796883 -0.540802
-19.3347 -7.254 9.89163 0.152654 -0.118791 0.287924 -0.63516 4.91231 -0.651943 0.472042 0.48933 -0.816662 0.305973
-17.8043 -6.68175 10.2825 0.213745 -0.0982916 0 -0.0888889 5.09575 0.461547 0.912462 0.530315 -0.818463 0.221099
-23.98 -8.416 14.069 0.0383617 0.321169 0 -0.177778 5.15173 -0.0189584 5.08348 -0.801276 -0.42702 -0.419059
-22.8943 -9.02575 11.4333 0.362197 -0.134764 0 -1 5.1733 0.631109 5.68365 0.150304 -0.942415 0.298769
-20.4439 -10.5723 14.3776 0.139374 -0.413123 0 -1 5.17937 0.0620823 4.1324 -0.1757 0.687899 -0.704219
-24.1569 -9.28213 14.6067 0.0760867 0.287991 0 -0.177778 5.34324 0.0777232 4.94573 -0.65629 -0.196043 -0.728595
-23.42 -10.2725 14.429 0.0938083 0.251256 0 -0.177778 5.39076 0.153012 4.98256 -0.470196 -0.275288 -0.83853
-21.7401 -8.90375 10.7118 0.347503 -0.0930867 0 -1 5.42081 0.945378 5.9371 0.36967 -0.912761 0.173817
-19.324 -10.4045 14.811 0.166069 -0.440024 0 -1 5.42658 -0.157377 3.79359 0.125617 0.949726 -0.286775
-17.4824 -9.63325 15.3156 0.240497 -0.410115 0 -0.866667 5.59052 -0.876771 3.09577 -0.740196 0.487666 -0.462917
-18.4521 -10.3144 15.4754 0.193447 -0.417444 0 -0.944124 5.74603 -0.902786 3.4727 -0.275903 0.864479 -0.420183
-15.3011 -6.19775 12.604 0.50108 -0.16937 -0.194779 -0.177778 5.74929 -0.206937 1.80768 -0.272386 -0.641142 -0.717456
-22.4034 -11.3806 14.4312 -0.278896 -0.246274 -0.752668 -1 5.79224 0.124264 4.47898 -0.279148 -0.00970253 -0.960199
-15.4591 -7.77588 13.7755 0.861067 -0.282872 0.088854 -0.773651 5.83638 -0.734937 2.27642 -0.501152 0.0173468 -0.865186
-20.1845 -8.6605 9.077 0.175931 -0.0956866 0 -1 5.87152 0.901947 0.163536 0.476436 -0.824735 0.304665
-21.3273 -8.8025 9.55481 0.264206 -0.0910822 0 -1 5.87954 -0.0240967 6.21095 0.2227 -0.958482 0.178095
-16.891 -8.604 14.5685 0.296941 -0.434806 0 -0.866667 5.90122 -0.637084 2.73587 -0.911108 0.276913 -0.30529
-24.362 -7.525 11.982 0.235323 0.311779 0 -1 5.90857 0.0892188 5.40549 -0.886754 -0.400919 0.230069
-24.2743 -7.45813 13.5571 0.058323 0.35567 0 -1 6.02316 0.0498146 5.08348 -0.927345 -0.362319 -0.0935721
-21.4137 -11.8073 13.9376 0.0435247 -0.307873 -0.314608 -1 6.10249 -0.144449 4.47898 -0.545339 0.442209 -0.712079
-15.803 -4.925 11.1187 -0.006921 0.0572129 -0.811647 -0.177778 6.1713 -0.25577 1.25945 0.354256 -0.763653 -0.539757
-20.5223 -11.3789 13.7464 0.202422 -0.363541 0 -1 6.20658 -0.702519 4.1324 -0.520897 0.660354 -0.540924
-24.2651 -8.96638 10.8674 0.19289 0.205554 0 -1 6.26257 0.768214 5.68365 -0.64891 -0.734414 0.198877
-18.6239 -7.34106 8.705 0.0570087 -0.0655301 0 -0.0888889 6.29828 0.0479925 0.472042 0.53879 -0.830792 0.139607
-24.5421 -7.63413 14.8821 -0.0393823 0.35014 0 -0.177778 6.41205 -0.270768 5.08348 -0.897409 -0.127787 -0.422288
-17.1159 -5.79738 9.5235 0.256873 0.0944944 0 -0.160835 6.4493 0.0971588 0.912462 0.853315 -0.519417 -0.0453887
-23.4648 -9.215 10.282 0.315044 0.107636 0 -1 6.47206 0.839958 5.68365 -0.116334 -0.992464 -0.0384874
-18.3009 -10.4878 14.4353 0.217073 -0.422237 0 -1 6.51966 -0.36447 3.4727 -0.351694 0.898683 -0.262068
-17.4675 -6.8385 8.893 0.0557223 -0.0719663 0 -0.0888889 6.53406 0.738786 0.912462 0.745376 -0.6652 0.0438689
-25.0569 -9.07125 15.4163 0.127213 0.275426 0 -0.177778 6.57203 -0.140422 4.94573 -0.546323 0.134883 -0.826643
-16.9587 -9.418 13.788 0.235878 -0.386595 0 -0.866667 6.6401 0.382773 2.73587 -0.698075 0.434666 -0.568996
-23.7349 -11.4009 14.8865 0.126947 -0.21239 0.0924512 -0.301224 6.64844 -0.348377 4.98256 -0.20439 -0.0241314 -0.978592
-24.6903 -10.3582 15.2692 0.354657 0.232013 0 -0.177778 6.71486 -0.506523 4.94573 -0.331744 0.0426787 -0.942404
-14.5334 -8.09988 12.9789 1 -0.21254 0 -0.866667 6.72207 0.0769332 2.27642 -0.416646 -0.127902 -0.900026
-15.4358 -9.10581 13.2952 0.96659 -0.275354 0 -0.866667 6.77103 -0.179197 2.27642 -0.419749 0.28432 -0.861959
-19.2892 -10.6217 13.267 0.17298 -0.431024 0 -1 6.78225 0.330198 3.79359 -0.334676 0.910521 -0.242781
-24.6031 -6.60281 12.3184 0.157184 0.340126 0 -1 6.91938 0.0425916 5.40549 -0.963841 -0.218366 0.152733
-20.1338 -8.74375 7.88375 0.118923 -0.0176488 0 -1 7.06875 0.766052 0.163536 0.446913 -0.885445 -0.127498
-24.6623 -7.54462 10.8359 0.407607 0.27427 0 -1 7.09352 0.314172 5.40549 -0.941904 -0.298514 0.153971
-24.4695 -6.49 14.027 -0.0499607 0.380144 0 -1 7.11686 -0.664869 5.08348 -0.972331 -0.202944 -0.1157
-22.7603 -12.7945 14.5735 -0.147878 -0.190915 -0.0295089 -1 7.25741 -0.0751467 4.47898 -0.444675 -0.157526 -0.881731
-21.7095 -13.0495 13.7542 0.152812 -0.206335 0 -1 7.39253 0.262136 4.47898 -0.650328 -0.14921 -0.744856
-21.5298 -9.17 7.988 0.0304505 -0.0586764 0 -1 7.50156 0.691841 6.21095 0.129959 -0.990607 -0.042527
-16.623 -4.8675 9.69606 0.265922 0.0744846 0.0800778 -0.132375 7.51579 -0.580168 0.912462 0.79169 -0.538524 -0.288476
-15.2399 -4.01038 10.1786 0.048477 -0.066355 0.0615469 -0.0972704 7.59867 -0.428873 1.25945 0.0501641 -0.892009 -0.449225
-23.27 -9.02525 9.075 0.108075 0.0839865 0 -1 7.66457 0.324712 6.21095 -0.0507863 -0.993967 -0.0972104
-24.3194 -8.68213 9.49525 0.312904 0.17479 0 -1 7.66491 0.446673 5.68365 -0.684471 -0.726125 -0.0651303
-14.4446 -4.32575 10.8495 -0.113263 -0.106172 -0.487567 -0.132564 7.68021 -0.99988 1.25945 -0.216204 -0.790347 -0.573243
-21.164 -12.614 12.603 0.138973 -0.262521 0 -1 7.68182 0.670374 4.47898 -0.847744 0.221375 -0.481999
-20.0719 -11.826 12.3647 0.259031 -0.320897 0 -1 7.72706 0.068851 4.1324 -0.660231 0.616466 -0.429027
-16.8458 -10.3915 13.2823 0.230086 -0.329519 0 -0.901769 7.74291 -0.277064 2.73587 -0.0914488 0.806767 -0.58375
-18.4643 -7.255 7.23925 -0.370103 -0.0572642 -0.530836 -0.632871 7.7752 -0.443081 0.472042 0.51067 -0.841295 0.17731
-17.0427 -5.50575 8.13175 0.139628 0.0961964 0.0189671 -0.0888889 7.87316 -0.731275 0.912462 0.914394 -0.404824 0.000975317
-24.8075 -12.0948 14.653 0.300281 -0.185048 0.715205 -0.177778 7.94709 0.221262 4.98256 0.152374 0.243081 -0.957963
-23.8135 -12.9655 14.8745 0.151873 -0.150108 0.27264 -0.393071 7.95945 -0.0725685 4.47898 -0.0165388 -0.164178 -0.986292
-13.6006 -5.50238 11.3686 0.099116 -0.135336 0 -0.0888889 7.96321 -0.327554 1.80768 -0.430903 -0.636383 -0.639796
-17.37 -6.47 7.5005 -0.192306 -0.0825124 -0.747237 -0.695038 7.97778 0.15415 0.912462 0.832502 -0.537503 0.13428
-25.9482 -10.5319 15.2934 0.119435 -0.219364 0 -0.177778 7.98493 -0.207479 4.94573 -0.0906333 0.436551 -0.895103
-13.3403 -7.75063 12.6695 0.488417 -0.118874 0 -0.477887 8.00316 0.309244 1.80768 -0.078355 -0.532924 -0.842527
-25.071 -6.36575 15.7308 -0.2382 0.332009 -0.294658 -1 8.02723 -0.033256 5.08348 -0.961125 -0.0348825 -0.2739
-25.3223 -7.353 16.2712 -0.112491 0.311515 -0.533627 -0.177778 8.02987 -0.351625 5.08348 -0.751181 0.277511 -0.598928
-24.8995 -7.225 9.8345 0.408823 0.256166 0.100114 -1 8.17112 0.252499 5.40549 -0.992452 -0.112955 0.0477527
-21.0245 -13.6438 12.84 0.182942 -0.196153 0 -1 8.27711 0.235309 4.47898 -0.882519 -0.299105 -0.362899
-18.04 -10.3495 12.4425 0.180204 -0.374479 0 -1 8.30356 0.790245 3.79359 -0.0188837 0.93446 -0.355567
-24.6496 -5.57312 13.2814 0.0897943 0.32359 0 -1 8.31228 -0.357939 5.40549 -0.915522 -0.399765 -0.0448003
-13.842 -9.499 12.3448 0.385083 -0.177734 0.846334 -0.866667 8.4066 0.583064 2.27642 0.114291 0.198146 -0.973486
-22.695 -13.8725 14.969 0.0611497 -0.147733 0 -0.440453 8.40753 -0.541795 4.47898 -0.371655 -0.333765 -0.866299
-25.0375 -6.1895 10.903 0.136225 0.289202 0 -1 8.45655 0.585142 5.40549 -0.998942 -0.0459705 0.00106772
-18.9442 -11.0352 11.6637 0.331355 -0.342725 0 -1 8.47357 0.380992 3.79359 -0.371316 0.846535 -0.381449
-15.3629 -10.7626 12.8304 0.136983 -0.260739 -0.394883 -0.790553 8.49332 -0.999862 2.27642 -0.332311 0.671036 -0.662782
-23.3092 -8.954 7.83125 0.126326 0.100784 0 -1 8.51042 0.406413 6.21095 -0.269986 -0.961625 -0.0488332
-24.994 -5.30963 14.6462 -0.180587 0.324296 -0.692479 -1 8.54927 -0.0334196 5.08348 -0.963333 -0.239604 -0.120742
-19.3284 -7.98259 6.64594 -0.32721 -0.0348059 0.000629393 -0.778167 8.56711 -0.0266087 0.163536 0.400781 -0.916003 0.0177111
-26.873 -9.08488 16.3076 -0.24996 0.233758 -0.251729 -0.177778 8.5951 0.346423 4.94573 -0.542181 0.464401 -0.700266
-21.3472 -8.6665 6.9135 -0.0288818 0.025272 0 -1 8.62428 -0.410649 0.163536 0.279968 -0.926246 -0.252362
-15.8931 -3.66613 9.317 0.0168946 0.00776333 0.787115 -0.16315 8.73337 -0.999886 0.912462 0.474484 -0.829969 -0.293286
-12.4315 -8.2485 13.1453 0.53482 -0.118513 0 -0.483678 8.83577 -0.394484 2.27642 0.145432 -0.269293 -0.952014
-20.9441 -14.2774 14.1104 0.392027 -0.151406 0 -1 8.88265 -0.459495 4.47898 -0.656228 -0.535194 -0.531913
-14.5136 -10.6986 12.1084 0.0093171 -0.215742 -0.611101 -0.794638 8.96099 0.104646 2.27642 -0.118791 0.560971 -0.819268
-20.6022 -13.328 11.6995 0.196928 -0.227017 0.638818 -1 8.96312 0.109021 4.47898 -0.936276 0.084451 -0.340963
-16.9635 -5.543 7.033 -0.11205 -0.105668 0.573641 -0.0888889 8.97539 -0.596404 0.912462 0.878562 -0.357826 0.316369
-24.5791 -8.30962 8.16063 0.4171 0.172405 0.110137 -1 9.07467 0.479351 5.68365 -0.825595 -0.561846 -0.052172
-13.5747 -4.53587 9.77962 0.055301 -0.139037 0 -0.0888889 9.07503 -0.568209 1.80768 -0.68619 -0.688193 -0.235655
-24.9455 -4.472 12.149 0.089358 0.309617 0 -0.988469 9.08416 0.208074 5.40549 -0.869816 0.163171 -0.465613
-26.1826 -11.346 14.5651 0.131163 -0.19222 0 -0.177778 9.10213 0.334408 4.94573 0.187801 0.455244 -0.870336
-12.997 -6.8425 12.0225 0.164346 -0.10214 0 -0.0888889 9.16985 0.101263 1.80768 -0.0988507 -0.649519 -0.753892
-22.7266 -9.01175 6.79588 -0.199122 0.0685485 0 -1 9.19818 0.256502 6.21095 -0.0582471 -0.99656 -0.0589609
-25.0672 -5.18225 15.6625 -0.299425 0.338408 -0.00553489 -1 9.21271 0.0624215 5.08348 -0.999723 0.0152582 -0.0179421
-25.3781 -5.99813 16.916 -0.0399433 0.301302 0 -0.420696 9.30557 -0.396948 5.08348 -0.837572 0.234685 -0.493352
-17.2897 -10.9758 11.8864 0.274118 -0.288254 0 -1 9.31993 0.0577259 2.73587 0.307248 0.871201 -0.382894
-24.2787 -14.2273 15.3814 0.0961013 0.100975 -0.0270824 -0.164799 9.39663 0.0609397 4.47898 -0.187205 -0.581612 -0.791632
-16.0777 -3.76875 8.203 0.0361967 0.0454044 0 -0.0888889 9.4481 -0.514211 0.912462 0.711117 -0.702398 -0.0308115
-25.159 -7.1915 8.578 0.205926 0.22602 0.769499 -1 9.45458 0.822644 5.40549 -0.99791 0.0161028 -0.0625766
-12.9268 -5.85825 10.0618 0.066468 -0.137238 0 -0.0888889 9.47595 0.523431 1.80768 -0.698661 -0.694381 -0.17236
-17.9305 -7.7 5.6845 -0.513793 -0.0333106 0 -0.777778 9.4782 0.787553 0.472042 0.473958 -0.878643 0.0578875
-14.9088 -3.36075 8.43425 0.00988187 -0.0477341 0 -0.0888889 9.48928 -0.527912 0.912462 0.0743413 -0.974183 -0.213168
-12.3375 -6.3815 11.3695 0.125123 -0.0859686 0 -0.0888889 9.50213 -0.0946285 1.80768 -0.259074 -0.89831 -0.354851
-17.048 -7.02975 6.08975 -0.476217 -0.0746012 0 -0.777778 9.52931 0.635334 0.912462 0.706083 -0.625624 0.331724
-16.3521 -11.4514 11.8585 -0.0251259 -0.262443 0 -0.892942 9.58528 -0.62583 2.73587 0.0602094 0.903033 -0.42533
-24.6723 -6.2505 8.82925 0.308316 0.262341 0.0893703 -1 9.5895 -0.429831 5.40549 -0.958404 0.28176 0.0455346
-26.3605 -7.1855 17.4255 -0.144245 0.256479 -0.496914 -0.203284 9.59138 -0.0453567 5.08348 -0.79986 0.333164 -0.499225
-13.9991 -3.79312 8.62912 0.20013 -0.112849 0 -0.0888889 9.59559 -0.509045 1.25945 -0.539987 -0.798588 -0.265839
-16.4112 -4.2905 7.04475 -0.010762 -0.0917809 0.812023 -0.0888889 9.62164 -0.628653 0.912462 0.838796 -0.44615 0.312044
-20.2013 -14.7099 12.4825 0.293527 -0.170419 0 -1 9.67067 -0.319494 4.47898 -0.897953 -0.43703 0.0518187
-25.6367 -13.6027 14.3519 0.60449 -0.0932322 -0.0889253 -0.177778 9.69409 0.742521 4.47898 0.157091 -0.424198 -0.89184
-24.5348 -5.35962 9.98388 0.164762 0.305405 0 -1 9.79303 0.131616 5.40549 -0.895138 0.434021 -0.101751
-25.4662 -4.19425 14.3174 0.0128769 0.23024 -0.170267 -0.905593 9.80432 -0.311806 5.40549 -0.738833 -0.651896 0.170754
-27.7169 -10.416 15.7773 0.038209 0.216069 0 -0.177778 9.82229 0.246792 4.94573 -0.561029 0.661907 -0.497118
-27.6816 -9.48 17.2225 -0.016872 0.225182 0 -0.177778 9.87846 0.294381 4.94573 -0.839213 0.537233 -0.0842804
-21.8455 -15.0938 14.9732 0.117286 -0.136915 0 -0.155556 9.89523 -0.353536 4.47898 -0.359799 -0.248848 -0.899233
-18.8921 -11.6245 10.3421 0.378147 -0.267832 0 -1 9.92154 0.788944 3.79359 -0.543557 0.608633 -0.578024
-19.3487 -8.19125 5.2865 -0.36462 -0.0407621 0 -0.777778 9.94262 0.64919 0.163536 0.123666 -0.9825 -0.139282
-27.0502 -8.16725 17.2865 -0.204241 0.247477 -0.581889 -0.177778 9.9485 0.633277 4.94573 -0.80342 0.523062 -0.28447
-12.9963 -10.7945 12.6664 -0.0510023 -0.163215 0.0462799 -0.793793 9.98678 -0.562432 2.27642 0.319079 0.427744 -0.845709
-20.2196 -13.3044 10.6401 0.211921 -0.22006 0.264241 -1 10.0034 0.53074 4.1324 -0.761396 0.321536 -0.56293
-11.4593 -7.06425 12.5245 0.36085 -0.0810724 0 -0.534173 10.0107 -0.845022 1.80768 -0.0430158 -0.6673 -0.743546
-20.8832 -8.26775 5.65475 -0.328951 0.0271134 -0.121059 -0.777778 10.0238 -0.165529 0.163536 0.241635 -0.944963 -0.220583
-12.1716 -9.38762 13.3766 0.192425 -0.145586 -0.0349964 -0.858767 10.0268 -0.999812 2.27642 0.174566 0.148977 -0.97331
-24.6915 -7.5625 7.4935 0.248663 0.198879 0.322389 -1 10.0826 -0.0937854 5.40549 -0.984202 -0.106551 -0.141396
-15.234 -11.3053 11.3237 -0.52401 -0.239867 -0.342352 -0.777778 10.1 0.190645 2.27642 -0.100538 0.894178 -0.436278
-22.384 -8.9035 5.78675 0.110245 -0.0317431 0.189878 -0.931638 10.1737 0.265778 0.163536 0.320707 -0.94714 -0.00852864
-23.995 -3.911 12.06 0.104104 0.337585 0 -1 10.1915 -0.604812 5.40549 -0.406309 0.484181 -0.774908
-20.1612 -15.324 14.3276 0.265798 -0.142681 0.0100821 -0.594202 10.2076 -0.87813 4.47898 -0.659343 -0.395084 -0.639669
-13.1315 -5.173 8.925 0.0186621 -0.13709 0 -0.0888889 10.2295 0.513889 1.80768 -0.755563 -0.598811 -0.265611
-25.2713 -3.80669 15.5155 -0.00328846 0.236214 0 -0.963744 10.3075 -0.660675 5.08348 -0.774085 -0.592939 0.221848
-24.8498 -4.58025 16.602 -0.132577 0.30062 0 -1 10.3495 -0.999891 5.08348 -0.979338 -0.130903 -0.154149
-19.4224 -12.7526 9.99325 0.243005 -0.207939 0 -1 10.3546 0.845049 4.1324 -0.537361 0.287897 -0.79269
-26.0491 -4.00919 13.2559 0.1678 0.185841 0.254854 -0.829949 10.4111 0.326268 5.40549 -0.679656 -0.636671 -0.364305
-27.443 -11.1007 14.2665 0.0553523 0.191147 0 -0.177778 10.4204 0.999909 4.94573 -0.248144 0.492462 -0.83421
-25.378 -3.21106 12.4735 0.127782 0.189535 0 -0.821518 10.4561 -0.0415662 5.40549 -0.194296 -0.179996 -0.964288
-24.621 -8.069 6.5915 0.169666 0.148725 0.651074 -1 10.5206 0.379095 6.21095 -0.816496 -0.575508 0.0461055
-12.061 -6.426 9.85625 0.0687357 -0.0739538 0 -0.0888889 10.5315 0.594472 1.80768 -0.196044 -0.978588 -0.0627064
-17.642 -11.1625 10.057 0.112985 -0.243654 0 -1 10.5456 0.999901 3.79359 0.0708431 0.739224 -0.669724
-27.2073 -12.3658 14.2268 0.0340617 0.133105 0 -0.177778 10.5869 0.656503 4.94573 -0.247566 -0.171873 -0.953505
-20.7668 -14.7948 10.9923 0.247308 -0.185689 0.194633 -1 10.5998 0.816357 4.47898 -0.989371 -0.0093741 -0.14511
-16.0704 -5.72713 5.64337 -0.140468 -0.0991303 -0.360001 -0.537833 10.6375 -0.0838047 0.912462 0.544413 -0.522051 0.656565
-24.7005 -6.20725 7.77287 0.262546 0.214834 0.0845715 -0.698524 10.6471 -0.223395 5.40549 -0.993191 -0.0561366 0.102083
-10.6558 -8.67522 13.3047 -0.123091 -0.115949 0 -0.710011 10.669 -0.612036 2.27642 -0.176408 -0.207952 -0.9621
-14.8453 -3.09875 7.2685 -0.106071 0.0956976 0 -0.0888889 10.6858 0.173275 0.912462 0.063646 -0.38891 -0.919075
-15.773 -3.4955 6.645 -0.114715 0.0766827 0 -0.151249 10.7167 -0.0697984 0.912462 0.923786 -0.380056 0.0466609
-23.6983 -15.4121 15.7929 0.0480037 -0.125418 0 -0.155556 10.7786 0.0976707 4.47898 -0.505832 -0.346783 -0.789858
-15.8263 -4.70075 6.05 -0.0799593 -0.119988 0 -0.288889 10.8464 -0.469468 0.912462 0.445854 -0.386268 0.807472
-26.7423 -8.0535 18.2563 -0.258019 0.238548 0 -0.177778 10.8521 -0.246819 4.94573 -0.961133 0.272729 0.042919
-26.7127 -6.13825 18.033 0.046367 0.228761 0 -0.355556 10.8523 0.633016 5.08348 -0.92016 0.108062 -0.376334
-25.3465 -4.50325 17.4735 0.07559 0.246755 0 -0.355556 10.9013 -0.595128 5.08348 -0.83856 -0.0972335 -0.536062
-23.6082 -9.08744 5.33644 0.150248 -0.0981509 0 -0.777778 10.9049 0.298718 6.21095 -0.315602 -0.883558 0.346006
-10.918 -6.34381 11.3474 0.0814103 -0.051759 0 -0.674742 10.9223 -0.585778 1.80768 -0.0343879 -0.954799 -0.295256
-23.843 -4.437 9.9255 0.143258 0.322591 0 -0.677778 10.9477 -0.22975 5.40549 -0.820186 0.460213 0.33985
-24.4319 -4.8465 8.7625 0.221181 0.255727 0 -0.69704 11.0155 -0.261914 5.40549 -0.925946 0.155936 0.343958
-23.4335 -4.26737 10.9566 0.191643 0.383279 0 -0.630524 11.0206 -0.646653 5.40549 -0.706484 0.691227 -0.151939
-18.0872 -12.0767 9.72775 0.317003 -0.189327 0 -1 11.0305 0.721577 3.79359 -0.144112 0.253934 -0.956425
-22.1509 -16.184 15.2255 -0.135481 -0.129128 -0.466169 -0.155556 11.0552 0.425204 4.47898 -0.4255 -0.171971 -0.888468
-16.272 -6.41025 4.868 -0.196917 -0.0423828 -0.260354 -0.537218 11.1037 0.0206288 0.912462 0.376086 -0.90874 0.180975
-13.621 -3.619 7.156 -0.00765367 -0.122491 0 -0.0888889 11.1264 0.26688 1.25945 -0.581425 -0.365319 -0.726971
-19.9748 -7.73325 4.382 -0.56974 -0.0452221 -0.194228 -0.777778 11.1342 -0.325348 0.163536 0.0252994 -0.972989 -0.22946
-26.8141 -14.1469 15.035 -0.246588 0.0754094 -0.846017 -0.177778 11.1601 0.790738 4.47898 -0.226286 -0.79144 -0.567819
-17.5072 -7.0805 4.16025 -0.244737 -0.0350373 -0.0570109 -0.462858 11.1771 -0.31715 0.472042 0.551357 -0.826133 0.116228
-11.9108 -6.32387 8.77262 0.0522473 -0.0811478 0 -0.0888889 11.1821 0.999847 1.80768 -0.348543 -0.871239 -0.345631
-13.0511 -12.0589 11.1349 -0.266539 -0.157986 0 -0.777778 11.1829 0.257586 2.27642 0.334992 0.609531 -0.718507
-16.3331 -11.9799 10.336 0.035176 -0.197596 -0.599444 -0.798871 11.197 0.0823546 2.73587 0.25465 0.623967 -0.738795
-25.1311 -14.8569 16.837 -0.00252388 0.10886 -0.589244 -0.170628 11.1971 -0.311806 4.47898 -0.561717 -0.619481 -0.548377
-14.9095 -11.794 10.3015 -0.38135 -0.1806 -0.0268627 -0.777778 11.2785 0.773584 2.27642 0.13334 0.56375 -0.815111
-22.078 -8.56275 4.7525 0.00291981 -0.0139161 0.351184 -0.808636 11.3048 -0.266633 0.163536 0.570463 -0.803747 -0.169007
-18.504 -7.66988 3.92006 -0.246476 -0.0395558 0 -0.773431 11.3338 0.0743183 0.163536 0.180183 -0.982802 0.0404267
-23.7764 -2.84488 12.409 0.0289287 0.273443 0 -0.494404 11.3343 -0.90501 5.40549 -0.396047 0.107518 -0.911914
-11.7086 -11.227 12.6416 -0.43896 -0.151382 -0.835421 -0.777778 11.3454 -0.400173 2.27642 0.155044 0.504703 -0.849256
-19.252 -13.9431 9.88231 0.24191 -0.155256 0 -1 11.3885 0.0174677 4.1324 -0.230642 0.0821338 -0.969566
-28.612 -10.6962 17.5285 0.0490673 0.192819 -0.180453 -0.177778 11.44 0.426431 4.94573 -0.829612 0.540805 -0.138833
-24.7237 -6.64975 6.4585 0.206704 0.179331 0.622314 -1 11.4629 -0.69256 6.21095 -0.96535 -0.20611 0.160054
3 149 199 161
3 158 95 137
3 114 158 160
3 114 160 152
3 130 167 123
3 123 149 112
3 149 161 112
3 155 137 102
3 155 102 118
3 90 119 118
3 55 102 70
3 49 70 67
3 67 98 69
3 98 92 69
3 92 98 136
3 92 136 130
3 69 92 77
3 112 101 77
3 101 46 76
3 76 46 38
3 105 117 151
3 117 101 161
3 117 176 151
3 173 174 131
3 131 143 173
3 119 131 174
3 143 131 91
3 173 143 139
3 143 104 139
3 138 104 88
3 33 36 55
3 25 33 49
3 55 49 33
3 48 67 69
3 53 77 57
3 76 57 77
3 34 14 25
3 68 103 54
3 103 105 147
3 147 105 151
3 82 103 125
3 164 115 135
3 135 115 84
3 63 36 37
3 63 37 62
3 20 43 37
3 62 37 43
3 7 4 14
3 7 2 0
3 15 2 13
3 7 13 2
3 22 7 14
3 38 46 22
3 22 45 31
3 59 32 54
3 31 54 32
3 56 32 59
3 56 59 83
3 87 59 82
3 128 87 82
3 166 128 183
3 128 125 183
3 121 140 171
3 85 135 84
3 62 43 85
3 71 85 43
3 71 72 97
3 72 43 50
3 72 50 93
3 93 50 79
3 79 50 80
3 52 35 66
3 35 39 66
3 66 39 58
3 39 35 19
3 18 9 5
3 5 9 1
3 6 0 3
3 3 21 16
3 26 21 15
3 15 13 26
3 15 21 8
3 21 26 51
3 56 51 26
3 42 21 51
3 113 75 132
3 83 133 122
3 140 182 171
3 108 140 97
3 72 93 108
3 134 93 110
3 110 165 134
3 165 110 145
3 80 145 110
3 99 94 120
3 81 61 65
3 94 66 81
3 44 64 65
3 65 29 44
3 51 86 42
3 42 86 89
3 89 86 116
3 132 154 113
3 132 184 154
3 153 140 108
3 157 197 145
3 141 80 99
3 192 190 150
3 120 129 190
3 129 150 190
3 65 96 109
3 150 109 189
3 96 107 148
3 107 64 89
3 146 89 116
3 116 127 146
3 127 116 86
3 162 127 124
3 86 124 127
3 127 162 177
3 27 47 40
3 80 50 52
3 115 138 88
3 136 180 178
3 180 136 114
3 180 114 152
3 95 102 137
3 114 95 158
3 178 179 136
3 167 130 179
3 179 130 136
3 149 123 167
3 149 167 199
3 101 112 161
3 176 117 161
3 119 175 156
3 119 156 118
3 155 118 156
3 131 119 91
3 90 91 119
3 60 91 55
3 55 91 90
3 49 55 70
3 67 70 95
3 95 70 102
3 67 95 114
3 138 139 104
3 88 104 60
3 88 60 63
3 63 60 36
3 36 33 20
3 25 20 33
3 37 36 20
3 11 20 25
3 31 45 54
3 54 45 68
3 103 82 54
3 187 125 194
3 62 84 63
3 63 84 88
3 88 84 115
3 85 84 62
3 50 35 52
3 35 50 23
3 23 50 43
3 23 43 20
3 23 20 11
3 19 35 23
3 19 23 9
3 9 23 11
3 4 9 11
3 14 4 25
3 25 4 11
3 5 1 0
3 0 1 4
3 0 4 7
3 4 1 9
3 2 3 0
3 8 3 2
3 8 2 15
3 22 13 7
3 31 13 22
3 111 83 87
3 111 87 128
3 87 83 59
3 133 111 166
3 133 166 172
3 128 166 111
3 187 183 125
3 135 186 164
3 97 140 121
3 97 121 85
3 97 85 71
3 85 121 135
3 99 80 66
3 66 80 52
3 81 66 58
3 61 81 58
3 61 58 40
3 61 40 47
3 41 58 39
3 58 41 40
3 18 30 19
3 30 18 24
3 19 30 39
3 39 30 41
3 41 30 24
3 41 24 40
3 10 17 24
3 17 10 6
3 6 10 5
3 18 5 24
3 24 17 40
3 24 5 10
3 0 6 5
3 16 29 12
3 3 16 12
3 3 12 6
3 6 12 17
3 17 12 27
3 27 12 29
3 27 29 47
3 44 29 28
3 42 28 21
3 16 21 28
3 16 28 29
3 74 51 56
3 75 78 51
3 78 75 113
3 75 51 74
3 126 132 75
3 126 75 106
3 126 106 122
3 122 106 74
3 122 74 83
3 74 106 75
3 56 83 74
3 169 126 170
3 122 170 126
3 172 170 133
3 133 170 122
3 132 126 169
3 132 169 184
3 191 121 171
3 93 134 108
3 81 120 94
3 64 44 28
3 64 28 42
3 89 64 42
3 113 124 86
3 113 86 78
3 78 86 51
3 154 124 113
3 153 108 134
3 100 150 129
3 100 81 65
3 81 100 129
3 81 129 120
3 109 150 100
3 109 100 65
3 144 189 109
3 144 109 96
3 196 144 148
3 148 144 96
3 146 168 107
3 107 168 148
3 107 89 146
3 127 177 146
3 40 17 27
3 160 195 152
3 118 102 90
3 90 102 55
3 136 98 114
3 114 98 67
3 92 130 123
3 92 123 112
3 77 92 112
3 117 105 73
3 117 73 101
3 101 73 46
3 91 60 104
3 143 91 104
3 36 60 55
3 25 49 48
3 48 49 67
3 25 48 53
3 69 53 48
3 69 77 53
3 25 53 34
3 34 53 57
3 101 76 77
3 38 57 76
3 57 38 34
3 34 38 14
3 68 45 73
3 68 73 105
3 46 73 45
3 68 105 103
3 147 151 193
3 147 185 142
3 103 147 142
3 185 194 142
3 103 142 125
3 142 194 125
3 139 138 198
3 159 138 115
3 159 115 164
3 14 38 22
3 22 46 45
3 54 82 59
3 125 128 82
3 72 71 43
3 19 9 18
3 8 21 3
3 56 26 32
3 31 32 13
3 13 32 26
3 83 111 133
3 108 97 72
3 93 79 110
3 80 110 79
3 66 94 99
3 61 47 29
3 61 29 65
3 80 141 157
3 80 157 145
3 181 157 141
3 120 190 163
3 120 163 99
3 99 163 141
3 141 163 181
3 65 64 96
3 107 96 64
3 154 188 124
3 124 188 162
3 192 150 189
3 144 196 189
