ply
format ascii 1.0
comment Generated by PyMesh
element vertex 200
property float x
property float y
property float z
property float charge
property float ddc
property float hbond
property float hphob
property float rho
property float si
property float theta
property float nx
property float ny
property float nz
element face 344
property list uchar int vertex_indices
end_header
-15.4358 -9.10581 13.2952 0.96659 0 0 -0.866667 1e-08 -0.179197 2.22045e-16 -0.419749 0.28432 -0.861959
-14.5334 -8.09988 12.9789 1 -0.339596 0 -0.866667 1.3879 0.0769332 3.12253 -0.416646 -0.127902 -0.900026
-15.4591 -7.77588 13.7755 0.861067 -0.242861 0.088854 -0.773651 1.41419 -0.734937 2.32623 -0.501152 0.0173468 -0.865186
-16.9587 -9.418 13.788 0.235878 0.267534 0 -0.866667 1.63081 0.382773 0.627413 -0.698075 0.434666 -0.568996
-15.3629 -10.7626 12.8304 0.136983 -0.224949 -0.394883 -0.790553 1.7223 -0.999862 5.39842 -0.332311 0.671036 -0.662782
-13.842 -9.499 12.3448 0.385083 0.280387 0.846334 -0.866667 1.89685 0.583064 4.18239 0.114291 0.198146 -0.973486
-16.8458 -10.3915 13.2823 0.230086 -0.322499 0 -0.901769 1.90821 -0.277064 2.22045e-16 -0.0914488 0.806767 -0.58375
-16.4895 -7.686 14.14 0.249945 -0.263629 0 -0.866667 1.95955 0.0837004 1.69973 -0.666855 -0.076441 -0.741257
-14.5136 -10.6986 12.1084 0.0093171 -0.158808 -0.611101 -0.794638 2.18996 0.104646 4.89928 -0.118791 0.560971 -0.819268
-15.8385 -6.69825 13.663 0.586543 -0.374363 0.523724 -0.177778 2.56219 -0.999858 2.19708 -0.370887 -0.574621 -0.729557
-13.3403 -7.75063 12.6695 0.488417 -0.359832 0 -0.477887 2.66899 0.309244 3.28358 -0.078355 -0.532924 -0.842527
-16.891 -8.604 14.5685 0.296941 0.383263 0 -0.866667 2.76057 -0.637084 1.17167 -0.911108 0.276913 -0.30529
-17.0045 -6.579 13.7055 0.209189 -0.400383 0.0484967 -0.177778 3.25549 0.0532711 1.9432 -0.372483 -0.798344 -0.473185
-17.4824 -9.63325 15.3156 0.240497 0.188525 0 -0.866667 3.25997 -0.876771 0.864064 -0.740196 0.487666 -0.462917
-16.3521 -11.4514 11.8585 -0.0251259 -0.288936 0 -0.892942 3.2707 -0.62583 5.6472 0.0602094 0.903033 -0.42533
-15.234 -11.3053 11.3237 -0.52401 -0.253935 -0.342352 -0.777778 3.32893 0.190645 5.21351 -0.100538 0.894178 -0.436278
-18.04 -10.3495 12.4425 0.180204 -0.285691 0 -1 3.36874 0.790245 6.16245 -0.0188837 0.93446 -0.355567
-18.3009 -10.4878 14.4353 0.217073 0.241811 0 -1 3.46519 -0.36447 0.453121 -0.351694 0.898683 -0.262068
-15.3011 -6.19775 12.604 0.50108 -0.333531 -0.194779 -0.177778 3.47309 -0.206937 2.57105 -0.272386 -0.641142 -0.717456
-12.9963 -10.7945 12.6664 -0.0510023 0.233946 0.0462799 -0.793793 3.47703 -0.562432 4.43854 0.319079 0.427744 -0.845709
-17.2897 -10.9758 11.8864 0.274118 -0.332568 0 -1 3.48523 0.0577259 5.92075 0.307248 0.871201 -0.382894
-12.4315 -8.2485 13.1453 0.53482 0.260123 0 -0.483678 3.50161 -0.394484 3.66009 0.145432 -0.269293 -0.952014
-17.0825 -7.7875 15.585 0.30018 0.216782 0 -0.191002 3.52479 -0.858649 1.32705 -0.834138 -0.0571497 -0.548587
-12.997 -6.8425 12.0225 0.164346 -0.290744 0 -0.0888889 3.83568 0.101263 3.23772 -0.0988507 -0.649519 -0.753892
-12.1716 -9.38762 13.3766 0.192425 0.18385 -0.0349964 -0.858767 3.86339 -0.999812 3.96227 0.174566 0.148977 -0.97331
-17.911 -6.2715 15.196 0.204766 -0.267743 0 1 4.22596 -0.999889 1.60694 -0.413333 -0.739608 -0.531165
-16.9878 -6.00616 12.5084 0.16828 -0.424846 0 -0.177778 4.33221 -0.268516 2.20378 0.0390774 -0.970228 -0.23902
-19.2892 -10.6217 13.267 0.17298 -0.202881 0 -1 4.36248 0.330198 0.158724 -0.334676 0.910521 -0.242781
-13.0511 -12.0589 11.1349 -0.266539 0.178849 0 -0.777778 4.4119 0.257586 4.79998 0.334992 0.609531 -0.718507
-18.4521 -10.3144 15.4754 0.193447 0.176691 0 -0.944124 4.45572 -0.902786 0.653252 -0.275903 0.864479 -0.420183
-14.9095 -11.794 10.3015 -0.38135 -0.139475 -0.0268627 -0.777778 4.5075 0.773584 5.16964 0.13334 0.56375 -0.815111
-19.324 -10.4045 14.811 0.166069 -0.223945 0 -1 4.55827 -0.157377 0.445167 0.125617 0.949726 -0.286775
-17.8437 -7.97316 16.2629 0.254598 -0.139256 0 0.717809 4.56086 -0.731524 1.23363 -0.424628 -0.21275 -0.880016
-11.4593 -7.06425 12.5245 0.36085 -0.235964 0 -0.534173 4.67655 -0.845022 3.48032 -0.0430158 -0.6673 -0.743546
-18.9442 -11.0352 11.6637 0.331355 -0.160785 0 -1 4.74507 0.380992 6.12886 -0.371316 0.846535 -0.381449
-11.7086 -11.227 12.6416 -0.43896 0.130124 -0.835421 -0.777778 4.83565 -0.400173 4.36533 0.155044 0.504703 -0.849256
-12.3375 -6.3815 11.3695 0.125123 -0.294951 0 -0.0888889 4.87196 -0.0946285 3.1208 -0.259074 -0.89831 -0.354851
-16.3331 -11.9799 10.336 0.035176 -0.168103 -0.599444 -0.798871 4.88243 0.0823546 5.46522 0.25465 0.623967 -0.738795
-18.6523 -6.01937 14.132 0.176105 -0.33538 0 0.0998822 5.04723 -0.501133 1.7635 0.0278223 -0.975824 -0.216778
-18.8542 -9.37125 16.6077 0.147958 -0.0764857 0 -0.866667 5.1626 -0.774815 0.883735 -0.0286449 0.379911 -0.924579
-13.6006 -5.50238 11.3686 0.099116 -0.22368 0 -0.0888889 5.27949 -0.327554 2.9158 -0.430903 -0.636383 -0.639796
-10.6558 -8.67522 13.3047 -0.123091 0.124166 0 -0.710011 5.3348 -0.612036 3.78693 -0.176408 -0.207952 -0.9621
-17.642 -11.1625 10.057 0.112985 -0.143302 0 -1 5.35757 0.999901 5.75534 0.0708431 0.739224 -0.669724
-18.7805 -6.90188 15.6709 0.205645 -0.262428 0 1 5.40024 -0.444014 1.43631 0.146899 -0.741063 -0.655169
-17.401 -6.03675 11.4762 0.108734 -0.429428 0 -0.16549 5.44446 -0.137755 2.24445 0.51537 -0.855702 0.0465509
-15.803 -4.925 11.1187 -0.006921 -0.288991 -0.811647 -0.177778 5.49247 -0.25577 2.55811 0.354256 -0.763653 -0.539757
-19.343 -10.0887 16.0842 0.0367197 -0.175181 0 -0.959427 5.55812 -0.999899 0.692754 0.269278 0.796883 -0.540802
-10.6073 -10.0638 12.9993 -0.544387 0.0838103 -0.00833951 -0.777778 5.60884 0.238591 4.09887 -0.00148864 0.236394 -0.971656
-20.4439 -10.5723 14.3776 0.139374 -0.0813787 0 -1 5.77078 0.0620823 0.365745 -0.1757 0.687899 -0.704219
-18.333 -6.3345 12.108 0.091576 -0.44006 -0.120039 -0.0912609 5.77363 0.282037 2.11342 0.250826 -0.908366 0.3346
-13.9409 -12.787 10.2555 -0.370037 0.150035 0 -0.777778 5.85939 0.999792 4.98976 0.321426 0.100952 -0.941538
-20.5223 -11.3789 13.7464 0.202422 0.0841526 0 -1 5.88685 -0.702519 0.208006 -0.520897 0.660354 -0.540924
-11.7505 -12.7638 11.138 -0.053411 0.169133 0 -0.777778 5.89124 0.999888 4.81219 0.546991 0.154282 -0.822799
-20.4977 -9.66825 15.1231 0.138002 -0.167303 -0.771219 -0.31148 5.9785 0.0933316 0.569647 0.461489 0.593141 -0.659705
-17.0565 -12.6155 9.80875 0.217744 0.135074 0 -1 5.98029 0.619101 5.50553 0.274633 0.11672 -0.954439
-11.244 -12.127 12.0522 -0.109208 0.200572 0 -0.777778 6.0075 0.314558 4.36533 0.665982 0.292855 -0.686079
-15.6134 -13.1465 10.1267 -0.0775537 0.123605 -0.157177 -0.941284 6.0422 0.300933 5.46522 0.135047 0.00100278 -0.990839
-20.0719 -11.826 12.3647 0.259031 0.106234 0 -1 6.05868 0.068851 0.208006 -0.660231 0.616466 -0.429027
-10.486 -11.3888 12.7402 -0.537483 0.172843 -0.133567 -0.777778 6.07284 0.266172 4.36533 0.450092 -0.105326 -0.886749
-10.918 -6.34381 11.3474 0.0814103 -0.257888 0 -0.674742 6.15898 -0.585778 3.1208 -0.0343879 -0.954799 -0.295256
-18.8921 -11.6245 10.3421 0.378147 -0.0805774 0 -1 6.19304 0.788944 5.75534 -0.543557 0.608633 -0.578024
-19.545 -7.992 16.6395 0.294261 -0.17401 -0.347605 0.404067 6.30345 -0.999927 0.883735 0.269309 -0.335886 -0.902581
-13.0988 -13.906 10.6888 -0.210775 0.171662 0 -0.777778 6.31271 0.412374 4.98976 0.488421 -0.186139 -0.852524
-12.9268 -5.85825 10.0618 0.066468 -0.245054 0 -0.0888889 6.39877 0.523431 2.9158 -0.698661 -0.694381 -0.17236
-19.1028 -6.053 12.8455 0.0926913 -0.372657 -0.218172 -0.149494 6.41074 -0.584342 2.11342 0.136644 -0.958058 0.251901
-12.061 -6.426 9.85625 0.0687357 -0.281447 0 -0.0888889 6.4109 0.594472 3.1208 -0.196044 -0.978588 -0.0627064
-18.0872 -12.0767 9.72775 0.317003 0.0512956 0 -1 6.42639 0.721577 5.75534 -0.144112 0.253934 -0.956425
-20.1265 -9.2905 16.176 0.276374 -0.182696 -0.870462 -0.262424 6.50857 -0.889417 0.692754 0.611254 0.245662 -0.752342
-9.68125 -7.01875 11.9342 0.185112 -0.161091 0 -0.777778 6.55058 -0.71361 3.48032 -0.393483 -0.648419 -0.651709
-9.599 -7.886 12.478 0.0152166 -0.136107 0 -0.777778 6.7108 -0.714466 3.78693 -0.444608 -0.470896 -0.761958
-20.324 -6.3865 14.3372 0.221022 -0.27328 0 1 6.77103 -0.999791 1.7635 0.499942 -0.811387 -0.302835
-20.0229 -7.55125 15.8363 0.178879 -0.21979 -0.317033 0.147612 6.81183 -0.207275 1.43631 0.562908 -0.387783 -0.729903
-14.4446 -4.32575 10.8495 -0.113263 -0.215786 -0.487567 -0.132564 6.81776 -0.99988 2.55811 -0.216204 -0.790347 -0.573243
-17.8043 -6.68175 10.2825 0.213745 -0.403329 0 -0.0888889 6.85995 0.461547 2.24445 0.530315 -0.818463 0.221099
-21.4137 -11.8073 13.9376 0.0435247 0.0363243 -0.314608 -1 6.89416 -0.144449 0.208006 -0.545339 0.442209 -0.712079
-11.4605 -13.5615 11.6944 -0.0795003 0.221023 0 -0.777778 6.90614 0.999811 4.81219 0.788617 -0.285382 -0.544646
-19.261 -6.84125 11.6965 -0.243992 -0.393748 0 -0.0888889 6.90823 0.277998 2.11342 0.368084 -0.864345 0.342669
-15.2399 -4.01038 10.1786 0.048477 -0.229144 0.0615469 -0.0972704 6.91985 -0.428873 2.55811 0.0501641 -0.892009 -0.449225
-20.213 -6.25775 13.0215 0.18907 -0.329867 0 -0.80846 6.97747 -0.856385 1.7635 0.370986 -0.88433 0.283425
-21.5238 -10.0594 14.7436 0.0140825 -0.101665 0 -0.302471 7.02106 -0.347971 0.569647 0.230592 0.180458 -0.95617
-17.3151 -13.7944 9.69925 0.0670877 0.0965967 0 -1 7.04164 0.114218 5.50553 0.128148 0.0611198 -0.98987
-16.623 -4.8675 9.69606 0.265922 -0.27705 0.0800778 -0.132375 7.13552 -0.580168 2.55811 0.79169 -0.538524 -0.288476
-13.5747 -4.53587 9.77962 0.055301 -0.204559 0 -0.0888889 7.13951 -0.568209 2.9158 -0.68619 -0.688193 -0.235655
-15.3027 -14.1698 10.387 -0.152064 0.133367 -0.207425 -0.777778 7.14285 -0.550768 5.46522 0.210353 -0.150234 -0.966013
-8.998 -8.733 12.5118 -0.0739477 -0.11338 0 -0.777778 7.17337 -0.787732 3.78693 -0.600919 -0.349797 -0.718706
-8.95475 -10.2674 13.0433 -0.145372 0.125533 -0.348853 -0.777778 7.27447 -0.051276 4.09887 -0.123949 -0.443875 -0.887475
-18.3202 -13.137 9.70988 0.36375 0.0753917 0 -1 7.35094 0.60542 5.50553 -0.0848291 0.0187486 -0.996219
-10.7312 -12.692 13.1929 -0.33857 0.223266 0 -0.777778 7.37987 -0.782297 4.36533 0.79296 -0.188557 -0.579363
-21.2502 -8.50362 14.8431 -0.296657 -0.19275 -0.838733 -0.177778 7.39307 -0.200459 0.569647 0.671974 -0.133546 -0.728434
-21.164 -12.614 12.603 0.138973 0.0900328 0 -1 7.42631 0.670374 0.208006 -0.847744 0.221375 -0.481999
-17.1159 -5.79738 9.5235 0.256873 -0.323673 0 -0.160835 7.43233 0.0971588 2.24445 0.853315 -0.519417 -0.0453887
-13.9121 -14.6616 10.49 -0.52379 0.14313 0 -0.777778 7.4405 0.655903 4.98976 0.279298 -0.289262 -0.915598
-19.4224 -12.7526 9.99325 0.243005 0.0274616 0 -1 7.48746 0.845049 5.50553 -0.537361 0.287897 -0.79269
-11.9108 -6.32387 8.77262 0.0522473 -0.20649 0 -0.0888889 7.50965 0.999847 3.1208 -0.348543 -0.871239 -0.345631
-13.1315 -5.173 8.925 0.0186621 -0.185379 0 -0.0888889 7.74182 0.513889 2.9158 -0.755563 -0.598811 -0.265611
-9.37288 -6.32125 10.879 -0.241774 -0.168128 0 -0.777778 7.7737 -0.0339969 3.1208 0.00891663 -0.765131 -0.643813
-20.6022 -13.328 11.6995 0.196928 0.116308 0.638818 -1 7.78486 0.109021 0.208006 -0.936276 0.084451 -0.340963
-8.79925 -7.947 11.7245 -0.0488977 -0.111063 0 -0.777778 7.81129 0.277138 3.78693 -0.539989 -0.402606 -0.739134
-20.6695 -7.0855 15.0363 0.123762 -0.234136 -0.585066 -0.0157454 7.81827 -0.757273 1.43631 0.67072 -0.488536 -0.558093
-16.2515 -14.8927 10.0135 0.14685 0.127767 0 -1 7.90477 -0.222322 5.50553 0.41567 0.0408365 -0.908598
-10.4118 -6.27056 9.62613 0.105906 -0.234438 0 -0.0888889 7.95464 0.377422 3.1208 0.23397 -0.959916 -0.154338
-15.8931 -3.66613 9.317 0.0168946 -0.230651 0.787115 -0.16315 8.05454 -0.999886 2.55811 0.474484 -0.829969 -0.293286
-9.33337 -12.2767 14.1205 -0.278701 0.130737 -0.396131 -0.777778 8.07837 -0.650019 4.36533 0.303109 -0.244857 -0.920962
-22.4034 -11.3806 14.4312 -0.278896 0.0512129 -0.752668 -1 8.07958 0.124264 0.208006 -0.279148 -0.00970253 -0.960199
-11.0767 -13.8383 12.7755 -0.120711 0.202075 0 -0.777778 8.08626 0.126826 4.81219 0.819549 -0.0684307 -0.568909
-8.79275 -11.3438 13.9897 -0.174024 0.136179 -0.196536 -0.888956 8.17769 -0.943984 4.09887 0.194507 -0.423554 -0.884742
-21.7095 -13.0495 13.7542 0.152812 0.0765448 0 -1 8.1842 0.262136 0.208006 -0.650328 -0.14921 -0.744856
-12.2097 -14.7964 12.0905 -0.172003 0.176625 0 -0.777778 8.19634 -0.077394 4.81219 0.467392 -0.461372 -0.754109
-17.4675 -6.8385 8.893 0.0557223 -0.329064 0 -0.0888889 8.29825 0.738786 2.24445 0.745376 -0.6652 0.0438689
-20.2196 -13.3044 10.6401 0.211921 0.0693949 0.264241 -1 8.33502 0.53074 5.50553 -0.761396 0.321536 -0.56293
-20.79 -7.24388 12.0931 0.140248 -0.319292 0 -0.610956 8.44965 -0.22274 2.11342 0.580424 -0.770568 0.263312
-21.0245 -13.6438 12.84 0.182942 0.131632 0 -1 8.4922 0.235309 0.208006 -0.882519 -0.299105 -0.362899
-19.3347 -7.254 9.89163 0.152654 -0.338289 0.287924 -0.63516 8.53994 -0.651943 2.11342 0.48933 -0.816662 0.305973
-13.9991 -3.79312 8.62912 0.20013 -0.179207 0 -0.0888889 8.57319 -0.509045 2.9158 -0.539987 -0.798588 -0.265839
-19.252 -13.9431 9.88231 0.24191 0.0455707 0 -1 8.59503 0.0174677 5.50553 -0.230642 0.0821338 -0.969566
-21.5989 -7.74388 13.9134 0.105045 -0.252035 -0.0787328 -0.922018 8.64333 -0.280303 0.569647 0.659801 -0.707421 -0.253412
-10.1165 -13.3935 14.048 -0.266568 0.11956 0 -0.777778 8.64524 -0.77602 4.36533 0.385576 0.0616912 -0.920611
-8.01056 -9.44756 11.6484 -0.0895143 -0.110936 0 -0.777778 8.66706 0.576689 3.78693 -0.471068 -0.490435 -0.73319
-20.3315 -7.74131 10.5953 0.199796 -0.327704 0.0211574 -0.577367 8.68832 -0.0744587 2.11342 0.524645 -0.768145 0.367016
-22.3465 -8.49375 14.0885 -0.068124 -0.183521 0 -0.177778 8.72401 -0.569041 0.569647 0.588423 -0.468957 -0.658663
-18.6239 -7.34106 8.705 0.0570087 -0.306181 0 -0.0888889 8.75598 0.0479925 2.24445 0.53879 -0.830792 0.139607
-14.9088 -3.36075 8.43425 0.00988187 -0.203413 0 -0.0888889 8.81046 -0.527912 2.55811 0.0743413 -0.974183 -0.213168
-17.0427 -5.50575 8.13175 0.139628 -0.265784 0.0189671 -0.0888889 8.85619 -0.731275 2.55811 0.914394 -0.404824 0.000975317
-7.6325 -10.8682 13.6713 0.036259 0.11775 0.490042 -0.995589 8.85677 -0.999878 4.09887 -0.285211 -0.591521 -0.75416
-8.394 -5.65562 10.7829 -0.297909 0.139305 0 -0.563909 8.96134 -0.183207 3.1208 0.495724 -0.389932 -0.776022
-7.29313 -10.458 12.7794 -0.092495 0.137982 0 -0.777778 8.96768 -0.223863 4.09887 -0.312423 -0.761019 -0.568543
-14.7806 -15.9108 10.7155 0.0091696 0.168769 -0.03043 -0.793104 8.97856 0.290366 4.98976 0.538949 -0.461817 -0.704457
-17.221 -15.7148 9.389 -0.0800823 0.0801286 0 -1 8.98921 0.657691 5.50553 0.133318 0.00501467 -0.991061
-12.4902 -5.07987 7.84025 0.2066 -0.167814 0 -0.0888889 9.00539 -0.109436 2.9158 -0.52891 -0.777561 -0.340077
-16.0777 -3.76875 8.203 0.0361967 -0.23286 0 -0.0888889 9.06783 -0.514211 2.55811 0.711117 -0.702398 -0.0308115
-23.149 -9.1075 13.7925 0.056889 -0.112773 0 -0.177778 9.13103 0.219697 0.569647 -0.118113 -0.489313 -0.864073
-7.54637 -7.93881 11.1088 -0.25574 0.0513707 -0.0228609 -0.777778 9.2073 -0.0986617 3.78693 -0.344625 -0.0752006 -0.935723
-7.97237 -6.88225 11.0336 -0.167191 0.0755687 0 -0.777778 9.29029 0.191328 3.78693 -0.00398552 -0.120202 -0.992741
-10.5662 -14.6614 13.4996 -0.0944873 0.132959 0 -0.777778 9.29557 -0.607692 4.81219 0.587418 0.223629 -0.777773
-10.3611 -5.92944 7.93031 0.0380817 -0.194339 0 -0.0888889 9.31703 0.163354 3.1208 0.078183 -0.982644 -0.168221
-8.76912 -13.3918 14.2046 0.0184744 0.0327985 0 -1 9.33093 -0.796202 4.36533 -0.175225 0.221379 -0.959316
-20.7668 -14.7948 10.9923 0.247308 0.122745 0.194633 -1 9.42155 0.816357 0.208006 -0.989371 -0.0093741 -0.14511
-20.2013 -14.7099 12.4825 0.293527 0.175917 0 -1 9.42299 -0.319494 0.208006 -0.897953 -0.43703 0.0518187
-7.59244 -11.8614 13.9519 0.163901 0.0457236 0.944132 -1 9.48539 -0.776902 4.09887 -0.370217 -0.0339792 -0.928324
-23.7349 -11.4009 14.8865 0.126947 -0.0484665 0.0924512 -0.301224 9.48692 -0.348377 0.208006 -0.20439 -0.0241314 -0.978592
-22.7603 -12.7945 14.5735 -0.147878 0.0604974 -0.0295089 -1 9.54083 -0.0751467 0.208006 -0.444675 -0.157526 -0.881731
-23.42 -10.2725 14.429 0.0938083 0.0763257 0 -0.177778 9.58337 0.153012 0.208006 -0.470196 -0.275288 -0.83853
-20.9441 -14.2774 14.1104 0.392027 0.128027 0 -1 9.67432 -0.459495 0.208006 -0.656228 -0.535194 -0.531913
-16.0744 -16.6863 9.843 0.216578 0.140148 0 -1 9.71514 0.773244 5.50553 0.565207 -0.335631 -0.753587
-17.37 -6.47 7.5005 -0.192306 -0.270428 -0.747237 -0.695038 9.74198 0.15415 2.24445 0.832502 -0.537503 0.13428
-8.99281 -5.18831 9.17241 0.00358713 0.191528 0 -0.0888889 9.79601 -0.347794 3.1208 0.596314 -0.785419 -0.165914
-19.9643 -14.9095 9.72375 0.159746 0.0382686 0 -1 9.806 0.806655 5.50553 -0.551402 0.0766464 -0.830711
-21.936 -7.92137 12.5278 0.265757 -0.278968 0 -1 9.8501 -0.340597 0.569647 0.511917 -0.808369 0.290657
-18.377 -16.4015 9.718 0.0589217 0.0698721 0 -1 9.85677 0.246763 5.50553 -0.184434 -0.220216 -0.957856
-12.4464 -16.3261 12.8144 -0.071511 0.0888978 0 -0.377196 9.90515 -0.513734 4.81219 -0.0102562 -0.234887 -0.971969
-22.695 -13.8725 14.969 0.0611497 0.076255 0 -0.440453 9.95176 -0.541795 0.208006 -0.371655 -0.333765 -0.866299
-16.9635 -5.543 7.033 -0.11205 -0.252666 0.573641 -0.0888889 9.95842 -0.596404 2.55811 0.878562 -0.357826 0.316369
-13.3985 -16.0914 12.4439 -0.165299 0.165488 -0.416346 -0.701951 9.98943 -0.33361 4.81219 0.338644 -0.620605 -0.707227
-9.321 -14.4572 13.7595 -0.0576607 0.0453626 0 -1 10.0045 -0.185821 4.81219 -0.0346642 0.281962 -0.958799
-14.8453 -3.09875 7.2685 -0.106071 -0.100646 0 -0.0888889 10.007 0.173275 2.55811 0.063646 -0.38891 -0.919075
-13.621 -3.619 7.156 -0.00765367 -0.0882671 0 -0.0888889 10.104 0.26688 2.9158 -0.581425 -0.365319 -0.726971
-6.41062 -11.2571 12.966 -0.00894547 0.0774206 0 -0.923287 10.1727 -0.0763923 4.09887 -0.359795 -0.377846 -0.8531
-18.4643 -7.255 7.23925 -0.370103 -0.257626 -0.530836 -0.632871 10.2329 -0.443081 2.24445 0.51067 -0.841295 0.17731
-7.28 -5.491 11.3975 -0.283519 0.114764 -0.29028 -0.570924 10.2442 -0.0249235 3.1208 0.646185 0.350058 -0.678163
-23.8135 -12.9655 14.8745 0.151873 -0.0681618 0.27264 -0.393071 10.2468 -0.0725685 0.208006 -0.0165388 -0.164178 -0.986292
-23.98 -8.416 14.069 0.0383617 0.113535 0 -0.177778 10.2469 -0.0189584 0.569647 -0.801276 -0.42702 -0.419059
-6.6155 -8.35525 10.6219 -0.427657 -0.0481725 0 -0.777778 10.3374 0.566945 3.78693 -0.386293 -0.101068 -0.916822
-20.1845 -8.6605 9.077 0.175931 -0.291761 0 -1 10.3741 0.901947 2.11342 0.476436 -0.824735 0.304665
-16.4112 -4.2905 7.04475 -0.010762 -0.23481 0.812023 -0.0888889 10.3812 -0.628653 2.55811 0.838796 -0.44615 0.312044
-23.2985 -8.6565 12.6355 0.145161 -0.202382 0 -1 10.3818 0.171649 0.569647 -0.149108 -0.988821 -0.000164651
-24.1569 -9.28213 14.6067 0.0760867 0.0697153 0 -0.177778 10.4384 0.0777232 0.569647 -0.65629 -0.196043 -0.728595
-7.484 -4.46 10.931 -0.311672 0.162146 0 -0.0888889 10.4712 -0.0841359 3.1208 0.864025 -0.387214 -0.321755
-21.3273 -8.8025 9.55481 0.264206 -0.253264 0 -1 10.4773 -0.0240967 2.11342 0.2227 -0.958482 0.178095
-21.7401 -8.90375 10.7118 0.347503 -0.262624 0 -1 10.5183 0.945378 2.11342 0.36967 -0.912761 0.173817
-6.0475 -10.2502 11.8706 -0.425407 0.123471 -0.0698766 -0.777778 10.5235 -0.0632294 4.09887 -0.220518 -0.792602 -0.568467
-9.86438 -5.89712 6.79975 0.11479 -0.193792 0 -0.155556 10.5523 -0.210574 3.1208 -0.219346 -0.885478 0.409654
-11.1451 -5.506 7.06925 0.081587 -0.180304 0 -0.100888 10.5561 -0.259259 3.1208 -0.383129 -0.923164 -0.031305
-20.5179 -15.9096 11.1258 0.35212 0.138514 0 -1 10.5716 0.860416 5.50553 -0.938621 -0.344245 -0.0220189
-6.201 -9.53975 10.9015 -0.306467 0.097094 0 -0.777778 10.6269 0.628321 3.78693 -0.254556 -0.574097 -0.778212
-15.773 -3.4955 6.645 -0.114715 -0.200576 0 -0.151249 10.6787 -0.0697984 2.55811 0.923786 -0.380056 0.0466609
-17.0845 -17.4163 9.75125 0.224303 0.112251 0.0618687 -1 10.7342 0.999876 5.50553 0.00464454 -0.611645 -0.791119
-10.3792 -16.5362 12.591 -0.00271645 0.0664035 0 -0.155556 10.7709 0.132906 4.81219 0.210179 0.393611 -0.894928
-24.8075 -12.0948 14.653 0.300281 -0.0559089 0.715205 -0.177778 10.7856 0.221262 0.208006 0.152374 0.243081 -0.957963
-19.8773 -15.9108 9.7025 0.197117 0.0799656 0 -1 10.8113 0.926023 5.50553 -0.574519 -0.335193 -0.746708
-14.7751 -16.7673 12.45 -0.0311044 0.154924 -0.00563068 -0.957004 10.913 -0.99985 4.98976 0.518764 -0.437104 -0.734727
-15.5204 -17.4001 11.7778 0.0933747 0.164623 0.00592891 -1 10.9518 -0.307753 4.98976 0.746641 -0.39578 -0.534683
-24.6903 -10.3582 15.2692 0.354657 -0.032906 0 -0.177778 10.952 -0.506523 0.208006 -0.331744 0.0426787 -0.942404
-8.771 -5.32425 8.028 -0.0419467 -0.201416 0 -0.155556 10.9696 -0.086949 3.1208 0.343575 -0.856788 0.384539
-20.1338 -8.74375 7.88375 0.118923 -0.230196 0 -1 10.9745 0.766052 2.24445 0.446913 -0.885445 -0.127498
-7.55944 -13.8655 13.1842 0.266273 0.0233903 0 -1 10.9829 0.409996 4.36533 -0.389567 0.13203 -0.911485
-20.1612 -15.324 14.3276 0.265798 0.10343 0.0100821 -0.594202 10.9993 -0.87813 0.208006 -0.659343 -0.395084 -0.639669
-12.6431 -4.67812 5.88588 -0.0220906 -0.168674 0.162576 -0.25208 11.0065 -0.0594895 2.9158 -0.562668 0.507152 0.652841
-19.3284 -7.98259 6.64594 -0.32721 -0.22106 0.000629393 -0.778167 11.0248 -0.0266087 2.24445 0.400781 -0.916003 0.0177111
-9.37206 -15.923 13.4043 -0.00471173 0.0681489 0 -0.155556 11.0353 -0.611472 4.81219 0.234563 0.378624 -0.895335
-13.537 -16.9993 13.0068 -0.0490217 0.0898677 0 -0.155556 11.0666 -0.721346 4.81219 0.0766716 -0.213076 -0.974023
-6.354 -6.115 11.122 -0.412697 0.0449828 -0.978299 -0.777778 11.0835 0.246731 3.78693 -0.0415489 0.60929 -0.791858
-13.7907 -2.59575 7.293 -0.043938 -0.0475817 0 -0.0888889 11.1502 -0.242704 2.55811 -0.0844454 0.0670477 -0.99417
-21.8455 -15.0938 14.9732 0.117286 0.0662099 0 -0.155556 11.1654 -0.353536 0.208006 -0.359799 -0.248848 -0.899233
-18.6355 -17.4405 10.5407 0.216114 0.12155 0.333194 -1 11.207 0.414409 5.50553 -0.403905 -0.746356 -0.528973
-17.048 -7.02975 6.08975 -0.476217 -0.245264 0 -0.777778 11.2935 0.635334 2.24445 0.706083 -0.625624 0.331724
-19.3857 -16.0071 13.5597 0.134442 0.117033 0.116609 -0.830473 11.296 -0.717768 0.208006 -0.890953 -0.26768 -0.36681
-11.8234 -17.5637 12.5243 -0.045019 -0.00515873 0 -0.155556 11.3208 -0.320271 4.81219 -0.355289 0.377602 -0.855094
-14.9106 -1.80275 7.49563 -0.306126 -0.0508111 0 -0.0888889 11.3243 -0.551079 2.55811 -0.00256586 0.0953149 -0.995444
-24.2743 -7.45813 13.5571 0.058323 0.130235 0 -1 11.3722 0.0498146 0.569647 -0.927345 -0.362319 -0.0935721
-7.5055 -4.67975 12.1485 -0.334287 0.177944 0 -0.777778 11.3725 -0.147937 3.1208 0.960251 0.272999 0.0582141
3 164 160 198
3 183 187 120
3 181 165 141
3 181 141 139
3 130 103 141
3 139 141 103
3 110 115 147
3 110 78 70
3 49 78 76
3 110 76 78
3 118 110 147
3 168 167 118
3 118 162 112
3 108 73 120
3 112 120 73
3 90 73 108
3 90 108 122
3 144 108 157
3 194 144 157
3 139 103 159
3 140 159 103
3 140 106 150
3 106 103 74
3 106 74 111
3 111 74 89
3 89 74 57
3 51 48 27
3 48 31 27
3 27 31 17
3 31 48 53
3 67 88 71
3 71 88 98
3 43 70 38
3 38 26 12
3 44 26 49
3 49 76 44
3 49 26 64
3 26 44 45
3 90 45 44
3 18 26 45
3 82 77 113
3 122 163 129
3 142 192 150
3 106 111 142
3 137 111 96
3 96 136 137
3 136 96 109
3 57 109 96
3 34 16 20
3 6 3 0
3 16 27 6
3 2 1 0
3 0 7 2
3 45 40 18
3 18 40 10
3 10 40 23
3 113 94 82
3 113 155 94
3 171 134 128
3 185 192 142
3 136 146 172
3 92 114 109
3 60 57 34
3 114 86 80
3 80 86 54
3 37 80 54
3 56 37 30
3 30 37 15
3 20 14 37
3 14 15 37
3 0 5 8
3 15 8 28
3 5 21 24
3 21 1 10
3 33 10 23
3 23 36 33
3 36 23 40
3 65 36 63
3 40 63 36
3 36 65 59
3 97 95 132
3 100 65 93
3 134 145 100
3 182 134 170
3 148 146 114
3 99 56 83
3 56 50 91
3 35 58 55
3 58 102 87
3 58 87 55
3 55 87 75
3 184 153 135
3 125 85 117
3 47 85 58
3 47 24 41
3 69 33 68
3 97 131 117
3 131 132 190
3 190 161 131
3 124 95 145
3 124 132 95
3 145 95 100
3 143 127 99
3 75 62 52
3 52 62 28
3 107 75 104
3 104 133 176
3 117 173 169
3 173 117 161
3 161 117 131
3 91 107 126
3 152 126 107
3 149 152 107
3 107 176 149
3 149 176 196
3 22 11 13
3 57 74 51
3 165 160 130
3 164 130 160
3 141 165 130
3 119 130 164
3 112 162 120
3 120 162 183
3 187 157 120
3 139 177 181
3 159 177 139
3 74 48 51
3 48 74 79
3 79 74 103
3 79 103 130
3 79 130 119
3 53 48 79
3 53 79 88
3 88 79 119
3 115 88 119
3 147 115 164
3 164 115 119
3 71 98 70
3 70 98 115
3 70 115 110
3 115 98 88
3 78 38 70
3 64 38 78
3 64 78 49
3 118 76 110
3 112 76 118
3 151 122 144
3 151 144 194
3 144 122 108
3 150 159 140
3 34 57 27
3 27 57 51
3 6 27 17
3 3 6 17
3 3 17 13
3 3 13 11
3 29 17 31
3 17 29 13
3 67 46 53
3 46 67 39
3 53 46 31
3 31 46 29
3 29 46 39
3 29 39 13
3 61 32 39
3 32 61 43
3 43 61 71
3 67 71 39
3 39 32 13
3 39 71 61
3 70 43 71
3 12 7 25
3 38 12 25
3 38 25 43
3 43 25 32
3 32 25 22
3 22 25 7
3 22 7 11
3 2 7 9
3 18 9 26
3 12 26 9
3 12 9 7
3 81 45 90
3 77 72 45
3 72 77 82
3 77 45 81
3 121 113 77
3 121 77 101
3 121 101 129
3 129 101 81
3 129 81 122
3 81 101 77
3 90 122 81
3 154 121 174
3 129 174 121
3 163 174 129
3 113 121 154
3 113 154 155
3 186 128 155
3 111 137 142
3 6 20 16
3 1 2 9
3 1 9 18
3 10 1 18
3 82 63 40
3 82 40 72
3 72 40 45
3 94 63 82
3 186 171 128
3 134 171 170
3 185 142 137
3 136 172 137
3 114 92 86
3 80 37 56
3 4 15 14
3 4 6 0
3 6 4 14
3 6 14 20
3 8 15 4
3 8 4 0
3 19 28 8
3 19 8 5
3 35 19 24
3 24 19 5
3 33 41 21
3 21 41 24
3 21 10 33
3 36 59 33
3 68 95 97
3 95 59 100
3 59 95 68
3 59 68 33
3 145 134 182
3 199 158 166
3 137 195 185
3 83 56 91
3 104 75 87
3 133 87 116
3 133 116 153
3 153 116 135
3 135 116 102
3 87 102 116
3 138 135 102
3 184 135 138
3 105 138 102
3 105 102 58
3 125 123 85
3 58 85 105
3 105 85 123
3 105 123 138
3 84 117 85
3 41 84 85
3 41 85 47
3 33 69 41
3 69 68 97
3 158 124 166
3 124 158 132
3 132 158 190
3 145 166 124
3 126 179 180
3 83 91 126
3 83 126 99
3 107 91 62
3 75 107 62
3 133 188 176
3 153 188 133
3 169 156 125
3 169 125 117
3 123 125 156
3 138 123 156
3 184 138 156
3 152 189 179
3 152 179 126
3 149 196 189
3 149 189 152
3 69 97 84
3 117 84 97
3 41 69 84
3 154 197 191
3 154 191 155
3 13 32 22
3 147 168 118
3 118 167 162
3 120 157 108
3 106 140 103
3 53 88 67
3 64 26 38
3 90 44 73
3 112 73 76
3 76 73 44
3 122 151 163
3 142 150 106
3 111 89 96
3 57 96 89
3 27 16 34
3 3 11 7
3 3 7 0
3 109 114 146
3 136 109 146
3 57 60 92
3 57 92 109
3 66 54 86
3 66 86 92
3 66 92 60
3 20 37 42
3 20 42 34
3 34 42 60
3 60 42 66
3 66 42 54
3 37 54 42
3 0 1 5
3 21 5 1
3 94 128 93
3 94 93 63
3 63 93 65
3 65 100 59
3 94 155 128
3 128 134 93
3 100 93 134
3 146 178 172
3 178 146 148
3 80 99 127
3 80 127 148
3 80 148 114
3 80 56 99
3 30 50 56
3 50 30 28
3 30 15 28
3 19 35 28
3 24 47 35
3 35 47 58
3 132 131 97
3 148 175 193
3 127 143 175
3 127 175 148
3 143 99 126
3 143 126 180
3 28 62 50
3 50 62 91
3 75 52 55
3 52 28 55
3 55 28 35
3 87 133 104
3 104 176 107
