ply
format ascii 1.0
comment Generated by PyMesh
element vertex 200
property float x
property float y
property float z
property float charge
property float ddc
property float hbond
property float hphob
property float rho
property float si
property float theta
property float nx
property float ny
property float nz
element face 337
property list uchar int vertex_indices
end_header
-14.5334 -8.09988 12.9789 1 0 0 -0.866667 1e-08 0.0769332 2.22045e-16 -0.416646 -0.127902 -0.900026
-15.4591 -7.77588 13.7755 0.861067 0.284013 0.088854 -0.773651 1.26351 -0.734937 2.22045e-16 -0.501152 0.0173468 -0.865186
-13.3403 -7.75063 12.6695 0.488417 0.272355 0 -0.477887 1.28109 0.309244 2.45054 -0.078355 -0.532924 -0.842527
-15.4358 -9.10581 13.2952 0.96659 -0.408241 0 -0.866667 1.3879 -0.179197 5.21632 -0.419749 0.28432 -0.861959
-13.842 -9.499 12.3448 0.385083 -0.362637 0.846334 -0.866667 1.68453 0.583064 4.06664 0.114291 0.198146 -0.973486
-15.8385 -6.69825 13.663 0.586543 -0.185439 0.523724 -0.177778 2.03368 -0.999858 0.476245 -0.370887 -0.574621 -0.729557
-15.3011 -6.19775 12.604 0.50108 -0.20657 -0.194779 -0.177778 2.08519 -0.206937 1.08767 -0.272386 -0.641142 -0.717456
-12.4315 -8.2485 13.1453 0.53482 0.203565 0 -0.483678 2.11371 -0.394484 3.04118 0.145432 -0.269293 -0.952014
-16.4895 -7.686 14.14 0.249945 0.200132 0 -0.866667 2.36017 0.0837004 6.23354 -0.666855 -0.076441 -0.741257
-12.997 -6.8425 12.0225 0.164346 -0.209142 0 -0.0888889 2.44778 0.101263 2.28001 -0.0988507 -0.649519 -0.753892
-16.9587 -9.418 13.788 0.235878 0.3075 0 -0.866667 3.01871 0.382773 5.58734 -0.698075 0.434666 -0.568996
-14.5136 -10.6986 12.1084 0.0093171 -0.30869 -0.611101 -0.794638 3.07951 0.104646 4.45857 -0.118791 0.560971 -0.819268
-15.3629 -10.7626 12.8304 0.136983 -0.34733 -0.394883 -0.790553 3.1102 -0.999862 4.79309 -0.332311 0.671036 -0.662782
-17.0045 -6.579 13.7055 0.209189 -0.235639 0.0484967 -0.177778 3.20653 0.0532711 0.363712 -0.372483 -0.798344 -0.473185
-12.9963 -10.7945 12.6664 -0.0510023 -0.294927 0.0462799 -0.793793 3.26471 -0.562432 3.93831 0.319079 0.427744 -0.845709
-11.4593 -7.06425 12.5245 0.36085 0.15382 0 -0.534173 3.28865 -0.845022 2.67201 -0.0430158 -0.6673 -0.743546
-16.8458 -10.3915 13.2823 0.230086 -0.348002 0 -0.901769 3.29611 -0.277064 5.22698 -0.0914488 0.806767 -0.58375
-12.1716 -9.38762 13.3766 0.192425 0.227257 -0.0349964 -0.858767 3.30478 -0.999812 3.37111 0.174566 0.148977 -0.97331
-16.891 -8.604 14.5685 0.296941 0.357384 0 -0.866667 3.44992 -0.637084 5.98769 -0.911108 0.276913 -0.30529
-12.3375 -6.3815 11.3695 0.125123 -0.264837 0 -0.0888889 3.48406 -0.0946285 2.21549 -0.259074 -0.89831 -0.354851
-16.9878 -6.00616 12.5084 0.16828 -0.317593 0 -0.177778 3.78542 -0.268516 0.748648 0.0390774 -0.970228 -0.23902
-13.6006 -5.50238 11.3686 0.099116 -0.153738 0 -0.0888889 3.89159 -0.327554 1.77833 -0.430903 -0.636383 -0.639796
-17.0825 -7.7875 15.585 0.30018 0.190278 0 -0.191002 3.92541 -0.858649 6.15702 -0.834138 -0.0571497 -0.548587
-10.6558 -8.67522 13.3047 -0.123091 0.032231 0 -0.710011 3.9469 -0.612036 3.07351 -0.176408 -0.207952 -0.9621
-15.803 -4.925 11.1187 -0.006921 -0.230446 -0.811647 -0.177778 4.10457 -0.25577 1.25573 0.354256 -0.763653 -0.539757
-15.234 -11.3053 11.3237 -0.52401 -0.344999 -0.342352 -0.777778 4.30541 0.190645 4.54755 -0.100538 0.894178 -0.436278
-11.7086 -11.227 12.6416 -0.43896 -0.209756 -0.835421 -0.777778 4.62333 -0.400173 3.73367 0.155044 0.504703 -0.849256
-17.911 -6.2715 15.196 0.204766 0.142168 0 1 4.62658 -0.999889 0.176942 -0.413333 -0.739608 -0.531165
-17.4824 -9.63325 15.3156 0.240497 0.243893 0 -0.866667 4.64787 -0.876771 5.84818 -0.740196 0.487666 -0.462917
-16.3521 -11.4514 11.8585 -0.0251259 -0.330323 0 -0.892942 4.6586 -0.62583 4.82029 0.0602094 0.903033 -0.42533
-18.04 -10.3495 12.4425 0.180204 -0.321501 0 -1 4.75664 0.790245 5.12772 -0.0188837 0.93446 -0.355567
-10.918 -6.34381 11.3474 0.0814103 -0.222887 0 -0.674742 4.77108 -0.585778 2.4683 -0.0343879 -0.954799 -0.295256
-18.3009 -10.4878 14.4353 0.217073 -0.285021 0 -1 4.8531 -0.36447 5.46377 -0.351694 0.898683 -0.262068
-17.2897 -10.9758 11.8864 0.274118 -0.335921 0 -1 4.87313 0.0577259 5.02704 0.307248 0.871201 -0.382894
-17.401 -6.03675 11.4762 0.108734 -0.361812 0 -0.16549 4.89768 -0.137755 0.843475 0.51537 -0.855702 0.0465509
-17.8437 -7.97316 16.2629 0.254598 0.0332775 0 0.717809 4.96149 -0.731524 6.16407 -0.424628 -0.21275 -0.880016
-18.6523 -6.01937 14.132 0.176105 -0.220886 0 0.0998822 4.99827 -0.501133 0.387259 0.0278223 -0.975824 -0.216778
-12.9268 -5.85825 10.0618 0.066468 -0.23908 0 -0.0888889 5.01086 0.523431 1.96291 -0.698661 -0.694381 -0.17236
-12.061 -6.426 9.85625 0.0687357 -0.259765 0 -0.0888889 5.023 0.594472 2.14161 -0.196044 -0.978588 -0.0627064
-10.6073 -10.0638 12.9993 -0.544387 0.131037 -0.00833951 -0.777778 5.05023 0.238591 3.36878 -0.00148864 0.236394 -0.971656
-9.68125 -7.01875 11.9342 0.185112 -0.095283 0 -0.777778 5.16268 -0.71361 2.71557 -0.393483 -0.648419 -0.651709
-18.333 -6.3345 12.108 0.091576 -0.353078 -0.120039 -0.0912609 5.22684 0.282037 0.722759 0.250826 -0.908366 0.3346
-13.0511 -12.0589 11.1349 -0.266539 -0.235992 0 -0.777778 5.25147 0.257586 4.21564 0.334992 0.609531 -0.718507
-9.599 -7.886 12.478 0.0152166 -0.062103 0 -0.777778 5.3229 -0.714466 2.77479 -0.444608 -0.470896 -0.761958
-14.4446 -4.32575 10.8495 -0.113263 -0.146851 -0.487567 -0.132564 5.42986 -0.99988 1.57272 -0.216204 -0.790347 -0.573243
-14.9095 -11.794 10.3015 -0.38135 -0.203515 -0.0268627 -0.777778 5.48398 0.773584 4.5526 0.13334 0.56375 -0.815111
-15.2399 -4.01038 10.1786 0.048477 -0.170859 0.0615469 -0.0972704 5.53195 -0.428873 1.43189 0.0501641 -0.892009 -0.449225
-16.623 -4.8675 9.69606 0.265922 -0.252727 0.0800778 -0.132375 5.74762 -0.580168 1.24783 0.79169 -0.538524 -0.288476
-19.2892 -10.6217 13.267 0.17298 -0.251633 0 -1 5.75038 0.330198 5.05677 -0.334676 0.910521 -0.242781
-13.5747 -4.53587 9.77962 0.055301 -0.184799 0 -0.0888889 5.75161 -0.568209 1.74043 -0.68619 -0.688193 -0.235655
-8.998 -8.733 12.5118 -0.0739477 -0.0691962 0 -0.777778 5.78547 -0.787732 2.98501 -0.600919 -0.349797 -0.718706
-11.244 -12.127 12.0522 -0.109208 0.21304 0 -0.777778 5.79518 0.314558 5.13533 0.665982 0.292855 -0.686079
-18.7805 -6.90188 15.6709 0.205645 -0.134858 0 1 5.80087 -0.444014 4.29233 0.146899 -0.741063 -0.655169
-18.4521 -10.3144 15.4754 0.193447 -0.239689 0 -0.944124 5.84362 -0.902786 5.50321 -0.275903 0.864479 -0.420183
-10.486 -11.3888 12.7402 -0.537483 0.143912 -0.133567 -0.777778 5.86052 0.266172 5.33271 0.450092 -0.105326 -0.886749
-19.1028 -6.053 12.8455 0.0926913 -0.285121 -0.218172 -0.149494 5.92763 -0.584342 0.767803 0.136644 -0.958058 0.251901
-16.3331 -11.9799 10.336 0.035176 -0.209474 -0.599444 -0.798871 5.9298 0.0823546 4.75423 0.25465 0.623967 -0.738795
-19.324 -10.4045 14.811 0.166069 -0.254054 0 -1 5.94617 -0.157377 5.07028 0.125617 0.949726 -0.286775
-11.9108 -6.32387 8.77262 0.0522473 -0.159736 0 -0.0888889 6.12175 0.999847 2.14161 -0.348543 -0.871239 -0.345631
-18.9442 -11.0352 11.6637 0.331355 -0.226578 0 -1 6.13297 0.380992 5.12772 -0.371316 0.846535 -0.381449
-8.95475 -10.2674 13.0433 -0.145372 0.0408182 -0.348853 -0.777778 6.29146 -0.051276 2.98501 -0.123949 -0.443875 -0.887475
-17.8043 -6.68175 10.2825 0.213745 -0.33775 0 -0.0888889 6.31316 0.461547 0.843475 0.530315 -0.818463 0.221099
-17.1159 -5.79738 9.5235 0.256873 -0.298323 0 -0.160835 6.34721 0.0971588 1.24783 0.853315 -0.519417 -0.0453887
-13.1315 -5.173 8.925 0.0186621 -0.168651 0 -0.0888889 6.35392 0.513889 1.74043 -0.755563 -0.598811 -0.265611
-19.261 -6.84125 11.6965 -0.243992 -0.305506 0 -0.0888889 6.36144 0.277998 0.722759 0.368084 -0.864345 0.342669
-9.37288 -6.32125 10.879 -0.241774 0.110277 0 -0.777778 6.3858 -0.0339969 2.71557 0.00891663 -0.765131 -0.643813
-8.79925 -7.947 11.7245 -0.0488977 -0.0587147 0 -0.777778 6.42339 0.277138 2.77479 -0.539989 -0.402606 -0.739134
-18.8542 -9.37125 16.6077 0.147958 -0.11949 0 -0.866667 6.5505 -0.774815 5.50321 -0.0286449 0.379911 -0.924579
-10.4118 -6.27056 9.62613 0.105906 -0.206339 0 -0.0888889 6.56674 0.377422 2.14161 0.23397 -0.959916 -0.154338
-15.8931 -3.66613 9.317 0.0168946 -0.192415 0.787115 -0.16315 6.66664 -0.999886 1.43189 0.474484 -0.829969 -0.293286
-13.9409 -12.787 10.2555 -0.370037 -0.129493 0 -0.777778 6.69895 0.999792 4.5526 0.321426 0.100952 -0.941538
-19.545 -7.992 16.6395 0.294261 -0.0899426 -0.347605 0.404067 6.70407 -0.999927 4.29233 0.269309 -0.335886 -0.902581
-20.324 -6.3865 14.3372 0.221022 -0.184158 0 1 6.72207 -0.999791 0.387259 0.499942 -0.811387 -0.302835
-11.7505 -12.7638 11.138 -0.053411 0.162994 0 -0.777778 6.73081 0.999888 5.13533 0.546991 0.154282 -0.822799
-17.642 -11.1625 10.057 0.112985 -0.20796 0 -1 6.74547 0.999901 4.75423 0.0708431 0.739224 -0.669724
-20.213 -6.25775 13.0215 0.18907 -0.252286 0 -0.80846 6.92851 -0.856385 0.767803 0.370986 -0.88433 0.283425
-19.343 -10.0887 16.0842 0.0367197 -0.206974 0 -0.959427 6.94602 -0.999899 5.50321 0.269278 0.796883 -0.540802
-15.6134 -13.1465 10.1267 -0.0775537 -0.0847065 -0.157177 -0.941284 7.01867 0.300933 4.75423 0.135047 0.00100278 -0.990839
-17.0565 -12.6155 9.80875 0.217744 -0.111376 0 -1 7.02766 0.619101 4.75423 0.274633 0.11672 -0.954439
-13.0988 -13.906 10.6888 -0.210775 0.12165 0 -0.777778 7.15227 0.412374 4.21564 0.488421 -0.186139 -0.852524
-20.4439 -10.5723 14.3776 0.139374 -0.149591 0 -1 7.15868 0.0620823 5.07028 -0.1757 0.687899 -0.704219
-10.7312 -12.692 13.1929 -0.33857 0.189821 0 -0.777778 7.16755 -0.782297 5.13533 0.79296 -0.188557 -0.579363
-13.9991 -3.79312 8.62912 0.20013 -0.144111 0 -0.0888889 7.18529 -0.509045 1.74043 -0.539987 -0.798588 -0.265839
-20.0229 -7.55125 15.8363 0.178879 -0.141199 -0.317033 0.147612 7.21246 -0.207275 4.29233 0.562908 -0.387783 -0.729903
-20.5223 -11.3789 13.7464 0.202422 -0.149361 0 -1 7.27475 -0.702519 5.05677 -0.520897 0.660354 -0.540924
-8.01056 -9.44756 11.6484 -0.0895143 -0.0516021 0 -0.777778 7.27916 0.576689 2.98501 -0.471068 -0.490435 -0.73319
-11.4605 -13.5615 11.6944 -0.0795003 0.177765 0 -0.777778 7.2894 0.999811 5.13533 0.788617 -0.285382 -0.544646
-20.4977 -9.66825 15.1231 0.138002 -0.178369 -0.771219 -0.31148 7.3664 0.0933316 5.07028 0.461489 0.593141 -0.659705
-14.9088 -3.36075 8.43425 0.00988187 -0.162184 0 -0.0888889 7.42256 -0.527912 1.43189 0.0743413 -0.974183 -0.213168
-20.0719 -11.826 12.3647 0.259031 -0.160491 0 -1 7.44658 0.068851 5.05677 -0.660231 0.616466 -0.429027
-17.0427 -5.50575 8.13175 0.139628 -0.251405 0.0189671 -0.0888889 7.48848 -0.731275 1.24783 0.914394 -0.404824 0.000975317
-8.394 -5.65562 10.7829 -0.297909 0.115357 0 -0.563909 7.57344 -0.183207 2.71557 0.495724 -0.389932 -0.776022
-18.8921 -11.6245 10.3421 0.378147 -0.156903 0 -1 7.58094 0.788944 5.12772 -0.543557 0.608633 -0.578024
-17.4675 -6.8385 8.893 0.0557223 -0.283058 0 -0.0888889 7.61413 0.738786 1.24783 0.745376 -0.6652 0.0438689
-12.4902 -5.07987 7.84025 0.2066 -0.129371 0 -0.0888889 7.61749 -0.109436 1.74043 -0.52891 -0.777561 -0.340077
-16.0777 -3.76875 8.203 0.0361967 -0.212146 0 -0.0888889 7.67993 -0.514211 1.24783 0.711117 -0.702398 -0.0308115
-8.79275 -11.3438 13.9897 -0.174024 0.0758657 -0.196536 -0.888956 7.73387 -0.943984 5.33271 0.194507 -0.423554 -0.884742
-20.6695 -7.0855 15.0363 0.123762 -0.159725 -0.585066 -0.0157454 7.76931 -0.757273 4.29233 0.67072 -0.488536 -0.558093
-18.0872 -12.0767 9.72775 0.317003 -0.0858082 0 -1 7.81429 0.721577 4.75423 -0.144112 0.253934 -0.956425
-7.54637 -7.93881 11.1088 -0.25574 -0.0272712 -0.0228609 -0.777778 7.81941 -0.0986617 2.77479 -0.344625 -0.0752006 -0.935723
-9.33337 -12.2767 14.1205 -0.278701 0.0867672 -0.396131 -0.777778 7.86605 -0.650019 5.33271 0.303109 -0.244857 -0.920962
-7.6325 -10.8682 13.6713 0.036259 0.0494916 0.490042 -0.995589 7.87376 -0.999878 2.98501 -0.285211 -0.591521 -0.75416
-20.1265 -9.2905 16.176 0.276374 -0.159217 -0.870462 -0.262424 7.89647 -0.889417 5.50321 0.611254 0.245662 -0.752342
-7.97237 -6.88225 11.0336 -0.167191 0.0462749 0 -0.777778 7.90239 0.191328 2.77479 -0.00398552 -0.120202 -0.992741
-10.3611 -5.92944 7.93031 0.0380817 -0.159976 0 -0.0888889 7.92913 0.163354 2.14161 0.078183 -0.982644 -0.168221
-7.29313 -10.458 12.7794 -0.092495 0.0803486 0 -0.777778 7.98467 -0.223863 2.98501 -0.312423 -0.761019 -0.568543
-20.79 -7.24388 12.0931 0.140248 -0.243487 0 -0.610956 7.99155 -0.22274 0.767803 0.580424 -0.770568 0.263312
-19.3347 -7.254 9.89163 0.152654 -0.269221 0.287924 -0.63516 7.99315 -0.651943 0.722759 0.48933 -0.816662 0.305973
-17.3151 -13.7944 9.69925 0.0670877 -0.0740072 0 -1 8.08901 0.114218 4.75423 0.128148 0.0611198 -0.98987
-15.3027 -14.1698 10.387 -0.152064 -0.0765361 -0.207425 -0.777778 8.11932 -0.550768 4.75423 0.210353 -0.150234 -0.966013
-20.3315 -7.74131 10.5953 0.199796 -0.255388 0.0211574 -0.577367 8.14153 -0.0744587 0.722759 0.524645 -0.768145 0.367016
-18.6239 -7.34106 8.705 0.0570087 -0.244538 0 -0.0888889 8.2092 0.0479925 0.843475 0.53879 -0.830792 0.139607
-13.9121 -14.6616 10.49 -0.52379 0.0800161 0 -0.777778 8.28006 0.655903 4.21564 0.279298 -0.289262 -0.915598
-21.4137 -11.8073 13.9376 0.0435247 -0.0991137 -0.314608 -1 8.28206 -0.144449 5.05677 -0.545339 0.442209 -0.712079
-18.3202 -13.137 9.70988 0.36375 -0.0496187 0 -1 8.39831 0.60542 4.75423 -0.0848291 0.0187486 -0.996219
-8.99281 -5.18831 9.17241 0.00358713 0.173756 0 -0.0888889 8.40811 -0.347794 2.71557 0.596314 -0.785419 -0.165914
-21.5238 -10.0594 14.7436 0.0140825 -0.0909594 0 -0.302471 8.40896 -0.347971 5.07028 0.230592 0.180458 -0.95617
-10.1165 -13.3935 14.048 -0.266568 0.106594 0 -0.777778 8.43291 -0.77602 5.13533 0.385576 0.0616912 -0.920611
-11.0767 -13.8383 12.7755 -0.120711 0.175263 0 -0.777778 8.43546 0.126826 5.13533 0.819549 -0.0684307 -0.568909
-16.9635 -5.543 7.033 -0.11205 -0.246082 0.573641 -0.0888889 8.59071 -0.596404 1.24783 0.878562 -0.357826 0.316369
-14.8453 -3.09875 7.2685 -0.106071 -0.0486681 0 -0.0888889 8.61907 0.173275 1.43189 0.063646 -0.38891 -0.919075
-21.5989 -7.74388 13.9134 0.105045 -0.173665 -0.0787328 -0.922018 8.6319 -0.280303 0.387259 0.659801 -0.707421 -0.253412
-17.37 -6.47 7.5005 -0.192306 -0.244705 -0.747237 -0.695038 8.68655 0.15415 1.24783 0.832502 -0.537503 0.13428
-13.621 -3.619 7.156 -0.00765367 -0.0500555 0 -0.0888889 8.7161 0.26688 1.74043 -0.581425 -0.365319 -0.726971
-21.2502 -8.50362 14.8431 -0.296657 -0.14088 -0.838733 -0.177778 8.78097 -0.200459 5.07028 0.671974 -0.133546 -0.728434
-12.2097 -14.7964 12.0905 -0.172003 0.111295 0 -0.777778 8.78712 -0.077394 5.13533 0.467392 -0.461372 -0.754109
-21.164 -12.614 12.603 0.138973 0.107557 0 -1 8.81421 0.670374 5.05677 -0.847744 0.221375 -0.481999
-7.28 -5.491 11.3975 -0.283519 0.14487 -0.29028 -0.570924 8.85634 -0.0249235 2.71557 0.646185 0.350058 -0.678163
-19.4224 -12.7526 9.99325 0.243005 -0.0839601 0 -1 8.87536 0.845049 4.75423 -0.537361 0.287897 -0.79269
-16.2515 -14.8927 10.0135 0.14685 -0.100213 0 -1 8.88125 -0.222322 4.75423 0.41567 0.0408365 -0.908598
-7.59244 -11.8614 13.9519 0.163901 -0.0307134 0.944132 -1 8.90662 -0.776902 5.33271 -0.370217 -0.0339792 -0.928324
-6.6155 -8.35525 10.6219 -0.427657 -0.023137 0 -0.777778 8.94946 0.566945 2.98501 -0.386293 -0.101068 -0.916822
-16.4112 -4.2905 7.04475 -0.010762 -0.23002 0.812023 -0.0888889 8.99332 -0.628653 1.24783 0.838796 -0.44615 0.312044
-7.484 -4.46 10.931 -0.311672 0.158829 0 -0.0888889 9.08326 -0.0841359 2.71557 0.864025 -0.387214 -0.321755
-8.76912 -13.3918 14.2046 0.0184744 -0.062772 0 -1 9.11861 -0.796202 5.33271 -0.175225 0.221379 -0.959316
-9.86438 -5.89712 6.79975 0.11479 -0.182799 0 -0.155556 9.16442 -0.210574 2.14161 -0.219346 -0.885478 0.409654
-10.5662 -14.6614 13.4996 -0.0944873 0.13116 0 -0.777778 9.1675 -0.607692 5.13533 0.587418 0.223629 -0.777773
-11.1451 -5.506 7.06925 0.081587 -0.152788 0 -0.100888 9.16824 -0.259259 1.74043 -0.383129 -0.923164 -0.031305
-20.6022 -13.328 11.6995 0.196928 0.115909 0.638818 -1 9.17276 0.109021 5.05677 -0.936276 0.084451 -0.340963
-6.41062 -11.2571 12.966 -0.00894547 -0.0177384 0 -0.923287 9.18974 -0.0763923 2.98501 -0.359795 -0.377846 -0.8531
-6.201 -9.53975 10.9015 -0.306467 0.0395791 0 -0.777778 9.23897 0.628321 2.98501 -0.254556 -0.574097 -0.778212
-15.773 -3.4955 6.645 -0.114715 -0.195848 0 -0.151249 9.2908 -0.0697984 1.24783 0.923786 -0.380056 0.0466609
-21.936 -7.92137 12.5278 0.265757 -0.208935 0 -1 9.392 -0.340597 0.767803 0.511917 -0.808369 0.290657
-6.0475 -10.2502 11.8706 -0.425407 0.0725924 -0.0698766 -0.777778 9.41157 -0.0632294 2.98501 -0.220518 -0.792602 -0.568467
-22.4034 -11.3806 14.4312 -0.278896 -0.0295476 -0.752668 -1 9.46748 0.124264 5.05677 -0.279148 -0.00970253 -0.960199
-21.7095 -13.0495 13.7542 0.152812 0.0482967 0 -1 9.5721 0.262136 5.05677 -0.650328 -0.14921 -0.744856
-8.771 -5.32425 8.028 -0.0419467 -0.193704 0 -0.155556 9.58172 -0.086949 2.71557 0.343575 -0.856788 0.384539
-18.4643 -7.255 7.23925 -0.370103 -0.210467 -0.530836 -0.632871 9.58947 -0.443081 1.24783 0.51067 -0.841295 0.17731
-12.6431 -4.67812 5.88588 -0.0220906 -0.219179 0.162576 -0.25208 9.61858 -0.0594895 1.74043 -0.562668 0.507152 0.652841
-19.252 -13.9431 9.88231 0.24191 -0.0433037 0 -1 9.6424 0.0174677 4.75423 -0.230642 0.0821338 -0.969566
-6.354 -6.115 11.122 -0.412697 0.10605 -0.978299 -0.777778 9.6956 0.246731 2.77479 -0.0415489 0.60929 -0.791858
-22.3465 -8.49375 14.0885 -0.068124 -0.118243 0 -0.177778 9.70515 -0.569041 5.07028 0.588423 -0.468957 -0.658663
-20.2196 -13.3044 10.6401 0.211921 -0.103733 0.264241 -1 9.72292 0.53074 5.05677 -0.761396 0.321536 -0.56293
-13.7907 -2.59575 7.293 -0.043938 0.0492804 0 -0.0888889 9.76233 -0.242704 1.74043 -0.0844454 0.0670477 -0.99417
-9.321 -14.4572 13.7595 -0.0576607 -0.0726279 0 -1 9.79215 -0.185821 5.13533 -0.0346642 0.281962 -0.958799
-14.7806 -15.9108 10.7155 0.0091696 0.107438 -0.03043 -0.793104 9.81813 0.290366 4.75423 0.538949 -0.461817 -0.704457
-20.1845 -8.6605 9.077 0.175931 -0.224821 0 -1 9.82728 0.901947 0.722759 0.476436 -0.824735 0.304665
-21.0245 -13.6438 12.84 0.182942 0.0960741 0 -1 9.8801 0.235309 5.05677 -0.882519 -0.299105 -0.362899
-21.3273 -8.8025 9.55481 0.264206 -0.182858 0 -1 9.93049 -0.0240967 0.722759 0.2227 -0.958482 0.178095
-14.9106 -1.80275 7.49563 -0.306126 0.0551361 0 -0.0888889 9.93644 -0.551079 1.43189 -0.00256586 0.0953149 -0.995444
-21.7401 -8.90375 10.7118 0.347503 -0.188518 0 -1 9.97156 0.945378 0.722759 0.36967 -0.912761 0.173817
-7.5055 -4.67975 12.1485 -0.334287 0.212726 0 -0.777778 9.98461 -0.147937 2.71557 0.960251 0.272999 0.0582141
-12.3745 -3.36175 7.0435 0.259066 0.0994845 0.820334 -0.0888889 9.99383 -0.0846172 1.74043 0.00283395 0.46792 -0.883766
-17.221 -15.7148 9.389 -0.0800823 -0.0566005 0 -1 10.0366 0.657691 4.75423 0.133318 0.00501467 -0.991061
-7.4305 -3.96725 9.99225 -0.231811 0.158121 0 -0.0888889 10.1448 -0.0393035 2.71557 0.787945 -0.604228 -0.118537
-7.027 -3.47463 10.7847 -0.283751 0.176992 0 -0.0888889 10.1793 0.461161 2.71557 0.95162 -0.28808 0.10691
-15.9136 -1.95187 7.181 -0.292536 0.114932 0 -0.0888889 10.1889 -0.591677 1.43189 0.618773 0.102756 -0.77882
-7.71931 -4.28869 8.27731 -0.13222 0.180972 0 -0.0993076 10.206 -0.0666502 2.71557 0.771305 -0.555214 0.311169
-15.8263 -4.70075 6.05 -0.0799593 -0.240429 0 -0.288889 10.218 -0.469468 1.24783 0.445854 -0.386268 0.807472
-17.048 -7.02975 6.08975 -0.476217 -0.221062 0 -0.777778 10.2381 0.635334 1.24783 0.706083 -0.625624 0.331724
-16.0704 -5.72713 5.64337 -0.140468 -0.229181 -0.360001 -0.537833 10.2528 -0.0838047 1.24783 0.544413 -0.522051 0.656565
-5.3985 -8.935 10.466 -0.507123 0.0393965 -0.0242467 -0.777778 10.3065 0.563827 2.98501 0.0789629 -0.355943 -0.931166
-11.1761 -5.69637 5.8395 0.153615 -0.182607 -0.385073 -0.155556 10.413 -0.384973 1.74043 -0.38488 -0.784112 0.486863
-20.1338 -8.74375 7.88375 0.118923 -0.164043 0 -1 10.4277 0.766052 0.843475 0.446913 -0.885445 -0.127498
-5.16437 -11.2731 12.8599 -0.11533 0.101415 -0.622713 -0.820324 10.4406 0.254253 2.98501 0.572192 -0.61838 -0.538705
-19.3284 -7.98259 6.64594 -0.32721 -0.167912 0.000629393 -0.778167 10.478 -0.0266087 0.843475 0.400781 -0.916003 0.0177111
-8.68256 -6.43162 6.51638 -0.0343693 -0.18999 0 -0.155556 10.4921 0.146625 2.14161 -0.0584446 -0.72846 0.682591
-12.4464 -16.3261 12.8144 -0.071511 0.0329082 0 -0.377196 10.4959 -0.513734 5.13533 -0.0102562 -0.234887 -0.971969
-23.149 -9.1075 13.7925 0.056889 -0.0329317 0 -0.177778 10.5189 0.219697 5.07028 -0.118113 -0.489313 -0.864073
-6.13312 -5.95138 12.5459 -0.331803 0.193162 0 -0.777778 10.5434 0.194915 2.71557 0.612155 0.790273 0.0270841
-16.5045 -2.70075 6.00325 -0.242911 -0.15984 0 -0.0888889 10.5472 -0.280207 1.24783 0.742702 0.574164 -0.344571
-13.3985 -16.0914 12.4439 -0.165299 0.0926689 -0.416346 -0.701951 10.5802 -0.33361 5.13533 0.338644 -0.620605 -0.707227
-13.5205 -4.28575 6.30813 -0.0468763 -0.251638 0.712136 -0.0888889 10.6684 0.810863 1.74043 -0.0219807 -0.0487423 0.998569
-5.0105 -7.93713 10.1431 -0.610397 0.061409 -0.265368 -0.777778 10.6758 0.819817 2.98501 0.313492 -0.138305 -0.939465
-5.92256 -12.6699 12.8638 0.204103 0.0739909 0 -1 10.688 0.222485 2.98501 0.345216 0.0905652 -0.934144
-16.0744 -16.6863 9.843 0.216578 -0.0937056 0 -1 10.6916 0.773244 4.75423 0.565207 -0.335631 -0.753587
-4.81225 -10.0763 11.088 -0.543703 0.0621479 -0.0406313 -0.777778 10.7394 0.999882 2.98501 0.171168 -0.65328 -0.737514
-7.55944 -13.8655 13.1842 0.266273 -0.0451349 0 -1 10.7706 0.409996 5.33271 -0.389567 0.13203 -0.911485
-20.7668 -14.7948 10.9923 0.247308 0.115351 0.194633 -1 10.8094 0.816357 5.05677 -0.989371 -0.0093741 -0.14511
-20.2013 -14.7099 12.4825 0.293527 0.133549 0 -1 10.8109 -0.319494 5.05677 -0.897953 -0.43703 0.0518187
-19.9643 -14.9095 9.72375 0.159746 -0.0474867 0 -1 10.8534 0.806655 4.75423 -0.551402 0.0766464 -0.830711
-14.434 -3.972 5.968 -0.105477 -0.233162 0 -0.288889 10.8651 0.249956 1.24783 0.435753 0.731254 0.524773
-23.7349 -11.4009 14.8865 0.126947 -0.0258404 0.0924512 -0.301224 10.8748 -0.348377 5.05677 -0.20439 -0.0241314 -0.978592
-5.416 -6.9125 10.082 -0.620177 0.0850047 -0.0815572 -0.777778 10.9018 0.999904 2.98501 0.141799 0.437045 -0.888192
-18.377 -16.4015 9.718 0.0589217 -0.0116992 0 -1 10.9041 0.246763 4.75423 -0.184434 -0.220216 -0.957856
-9.37206 -15.923 13.4043 -0.00471173 -0.0879133 0 -0.155556 10.9072 -0.611472 5.13533 0.234563 0.378624 -0.895335
-12.6915 -2.2385 7.26463 0.0331868 0.0797525 0.0298436 -0.0888889 10.9185 0.230133 1.74043 0.235183 0.158478 -0.958944
-22.7603 -12.7945 14.5735 -0.147878 0.0204371 -0.0295089 -1 10.9287 -0.0751467 5.05677 -0.444675 -0.157526 -0.881731
-23.2985 -8.6565 12.6355 0.145161 -0.134432 0 -1 10.9439 0.171649 0.767803 -0.149108 -0.988821 -0.000164651
-23.42 -10.2725 14.429 0.0938083 0.0221098 0 -0.177778 10.9713 0.153012 5.05677 -0.470196 -0.275288 -0.83853
3 173 175 111
3 178 144 199
3 192 199 144
3 106 121 142
3 106 75 72
3 41 75 64
3 106 64 75
3 110 106 142
3 160 158 110
3 110 156 107
3 93 61 111
3 107 111 61
3 62 61 93
3 62 93 90
3 122 93 147
3 169 122 147
3 145 144 113
3 145 113 157
3 157 113 126
3 126 113 89
3 84 80 48
3 80 57 48
3 48 57 32
3 57 80 87
3 102 124 83
3 83 124 97
3 52 72 36
3 36 20 13
3 34 20 41
3 41 64 34
3 41 20 55
3 20 34 24
3 62 24 34
3 6 20 24
3 49 46 82
3 90 132 95
3 189 157 138
3 138 188 189
3 188 138 152
3 89 152 138
3 59 30 33
3 16 10 3
3 30 48 16
3 1 0 3
3 3 8 1
3 24 21 6
3 6 21 2
3 2 21 9
3 82 63 49
3 82 123 63
3 137 104 94
3 128 149 152
3 92 89 59
3 149 114 108
3 108 114 78
3 56 108 78
3 77 56 45
3 45 56 25
3 33 29 56
3 29 25 56
3 3 4 11
3 25 11 42
3 4 7 17
3 7 0 2
3 15 2 9
3 9 19 15
3 19 9 21
3 38 19 37
3 21 37 19
3 19 38 31
3 66 65 103
3 68 38 58
3 104 115 68
3 146 104 135
3 194 190 149
3 129 77 109
3 77 70 112
3 26 54 51
3 54 100 81
3 54 81 51
3 51 81 86
3 187 154 134
3 105 60 85
3 39 60 54
3 39 17 23
3 43 15 40
3 66 99 85
3 99 103 150
3 150 131 99
3 91 65 115
3 91 103 65
3 115 65 68
3 131 183 171
3 185 163 129
3 86 79 73
3 73 79 42
3 125 86 118
3 184 187 139
3 85 140 143
3 140 85 131
3 131 85 99
3 143 140 186
3 140 171 186
3 112 125 155
3 181 155 125
3 177 181 125
3 22 18 28
3 89 113 84
3 151 178 198
3 107 156 111
3 111 156 173
3 175 147 111
3 113 80 84
3 80 113 116
3 116 113 144
3 116 144 178
3 116 178 151
3 87 80 116
3 87 116 124
3 124 116 151
3 121 124 151
3 142 121 198
3 198 121 151
3 83 97 72
3 72 97 121
3 72 121 106
3 121 97 124
3 75 36 72
3 55 36 75
3 55 75 41
3 110 64 106
3 107 64 110
3 119 90 122
3 119 122 169
3 122 90 93
3 132 119 170
3 132 170 168
3 169 170 119
3 59 89 48
3 48 89 84
3 16 48 32
3 10 16 32
3 10 32 28
3 10 28 18
3 53 32 57
3 32 53 28
3 102 76 87
3 76 102 67
3 87 76 57
3 57 76 53
3 53 76 67
3 53 67 28
3 71 35 67
3 35 71 52
3 52 71 83
3 102 83 67
3 67 35 28
3 67 83 71
3 72 52 83
3 13 8 27
3 36 13 27
3 36 27 52
3 52 27 35
3 35 27 22
3 22 27 8
3 22 8 18
3 1 8 5
3 6 5 20
3 13 20 5
3 13 5 8
3 47 24 62
3 46 44 24
3 44 46 49
3 46 24 47
3 88 82 46
3 88 46 69
3 88 69 95
3 95 69 47
3 95 47 90
3 47 69 46
3 62 90 47
3 120 88 141
3 95 141 88
3 168 191 141
3 168 141 132
3 132 141 95
3 82 88 120
3 82 120 123
3 148 94 123
3 16 33 30
3 0 1 5
3 0 5 6
3 2 0 6
3 49 37 21
3 49 21 44
3 44 21 24
3 63 37 49
3 137 148 172
3 148 137 94
3 104 137 135
3 135 137 172
3 149 128 114
3 108 56 77
3 12 25 29
3 12 16 3
3 16 12 29
3 16 29 33
3 11 25 12
3 11 12 3
3 14 42 11
3 14 11 4
3 26 14 17
3 17 14 4
3 15 23 7
3 7 23 17
3 7 2 15
3 19 31 15
3 40 65 66
3 65 31 68
3 31 65 40
3 31 40 15
3 115 104 146
3 164 115 167
3 167 115 146
3 133 164 165
3 179 150 127
3 179 127 161
3 161 127 133
3 161 133 165
3 109 77 112
3 118 86 81
3 136 81 117
3 136 117 154
3 154 117 134
3 134 117 100
3 81 100 117
3 130 134 100
3 187 134 130
3 96 130 100
3 96 100 54
3 105 101 60
3 54 60 96
3 96 60 101
3 96 101 130
3 50 85 60
3 23 50 60
3 23 60 39
3 15 43 23
3 43 40 66
3 127 91 133
3 91 127 103
3 103 127 150
3 115 164 133
3 115 133 91
3 109 112 155
3 109 155 129
3 125 112 79
3 86 125 79
3 154 195 136
3 143 139 105
3 143 105 85
3 184 139 174
3 101 105 139
3 130 101 139
3 187 130 139
3 43 66 50
3 85 50 66
3 23 43 50
3 148 191 182
3 162 123 153
3 162 153 196
3 162 148 123
3 141 166 120
3 120 166 159
3 180 166 141
3 180 141 191
3 120 159 153
3 120 153 123
3 28 35 22
3 142 160 110
3 110 158 156
3 111 147 93
3 145 197 144
3 87 124 102
3 55 20 36
3 62 34 61
3 107 61 64
3 64 61 34
3 90 119 132
3 157 126 138
3 89 138 126
3 48 30 59
3 10 18 8
3 10 8 3
3 152 149 190
3 188 152 190
3 89 92 128
3 89 128 152
3 98 78 114
3 98 114 128
3 98 128 92
3 33 56 74
3 33 74 59
3 59 74 92
3 92 74 98
3 98 74 78
3 56 78 74
3 3 0 4
3 7 4 0
3 63 94 58
3 63 58 37
3 37 58 38
3 38 68 31
3 63 123 94
3 94 104 58
3 68 58 104
3 108 129 163
3 108 163 194
3 108 194 149
3 108 77 129
3 45 70 77
3 70 45 42
3 45 25 42
3 14 26 42
3 17 39 26
3 26 39 54
3 103 99 66
3 193 183 131
3 150 193 131
3 185 129 155
3 42 79 70
3 70 79 112
3 86 73 51
3 73 42 51
3 51 42 26
3 81 136 118
3 171 140 131
