ply
format ascii 1.0
comment Generated by PyMesh
element vertex 200
property float x
property float y
property float z
property float charge
property float ddc
property float hbond
property float hphob
property float rho
property float si
property float theta
property float nx
property float ny
property float nz
element face 341
property list uchar int vertex_indices
end_header
-16.9878 -6.00616 12.5084 0.16828 0 0 -0.177778 1e-08 -0.268516 2.22045e-16 0.0390774 -0.970228 -0.23902
-17.401 -6.03675 11.4762 0.108734 -0.533072 0 -0.16549 1.11225 -0.137755 1.96289 0.51537 -0.855702 0.0465509
-17.0045 -6.579 13.7055 0.209189 -0.358925 0.0484967 -0.177778 1.3272 0.0532711 5.4967 -0.372483 -0.798344 -0.473185
-18.333 -6.3345 12.108 0.091576 -0.460487 -0.120039 -0.0912609 1.44142 0.282037 1.08764 0.250826 -0.908366 0.3346
-15.3011 -6.19775 12.604 0.50108 -0.360786 -0.194779 -0.177778 1.70024 -0.206937 4.13052 -0.272386 -0.641142 -0.717456
-15.8385 -6.69825 13.663 0.586543 -0.40112 0.523724 -0.177778 1.77002 -0.999858 4.87781 -0.370887 -0.574621 -0.729557
-15.803 -4.925 11.1187 -0.006921 0.208998 -0.811647 -0.177778 2.12225 -0.25577 3.05508 0.354256 -0.763653 -0.539757
-19.1028 -6.053 12.8455 0.0926913 0.258317 -0.218172 -0.149494 2.14221 -0.584342 0.583017 0.136644 -0.958058 0.251901
-18.6523 -6.01937 14.132 0.176105 0.0342657 0 0.0998822 2.32526 -0.501133 2.22045e-16 0.0278223 -0.975824 -0.216778
-17.8043 -6.68175 10.2825 0.213745 -0.293558 0 -0.0888889 2.52774 0.461547 1.8541 0.530315 -0.818463 0.221099
-19.261 -6.84125 11.6965 -0.243992 -0.282358 0 -0.0888889 2.57602 0.277998 1.18629 0.368084 -0.864345 0.342669
-16.4895 -7.686 14.14 0.249945 -0.506832 0 -0.866667 2.62315 0.0837004 5.19413 -0.666855 -0.076441 -0.741257
-15.4591 -7.77588 13.7755 0.861067 -0.470491 0.088854 -0.773651 2.91802 -0.734937 4.87584 -0.501152 0.0173468 -0.865186
-17.911 -6.2715 15.196 0.204766 -0.194581 0 1 3.09861 -0.999889 5.90587 -0.413333 -0.739608 -0.531165
-17.1159 -5.79738 9.5235 0.256873 -0.319128 0 -0.160835 3.10012 0.0971588 2.29437 0.853315 -0.519417 -0.0453887
-20.213 -6.25775 13.0215 0.18907 -0.204123 0 -0.80846 3.28477 -0.856385 0.638224 0.370986 -0.88433 0.283425
-15.2399 -4.01038 10.1786 0.048477 0.0478705 0.0615469 -0.0972704 3.54962 -0.428873 3.02215 0.0501641 -0.892009 -0.449225
-14.4446 -4.32575 10.8495 -0.113263 0.119239 -0.487567 -0.132564 3.63116 -0.99988 3.23742 -0.216204 -0.790347 -0.573243
-16.891 -8.604 14.5685 0.296941 -0.469221 0 -0.866667 3.71289 -0.637084 5.27189 -0.911108 0.276913 -0.30529
-16.623 -4.8675 9.69606 0.265922 0.281392 0.0800778 -0.132375 3.76529 -0.580168 2.61913 0.79169 -0.538524 -0.288476
-14.5334 -8.09988 12.9789 1 -0.344489 0 -0.866667 3.78542 0.0769332 4.55475 -0.416646 -0.127902 -0.900026
-13.6006 -5.50238 11.3686 0.099116 -0.184499 0 -0.0888889 3.91416 -0.327554 3.65388 -0.430903 -0.636383 -0.639796
-17.4675 -6.8385 8.893 0.0557223 -0.222977 0 -0.0888889 3.96604 0.738786 2.06396 0.745376 -0.6652 0.0438689
-20.324 -6.3865 14.3372 0.221022 -0.126186 0 1 4.04905 -0.999791 0.324695 0.499942 -0.811387 -0.302835
-18.7805 -6.90188 15.6709 0.205645 -0.116022 0 1 4.10387 -0.444014 6.08658 0.146899 -0.741063 -0.655169
-17.0825 -7.7875 15.585 0.30018 -0.359595 0 -0.191002 4.18839 -0.858649 5.52964 -0.834138 -0.0571497 -0.548587
-13.3403 -7.75063 12.6695 0.488417 -0.173776 0 -0.477887 4.20233 0.309244 4.2666 -0.078355 -0.532924 -0.842527
-20.79 -7.24388 12.0931 0.140248 -0.198382 0 -0.610956 4.20612 -0.22274 0.893152 0.580424 -0.770568 0.263312
-19.3347 -7.254 9.89163 0.152654 -0.204206 0.287924 -0.63516 4.20773 -0.651943 1.50413 0.48933 -0.816662 0.305973
-15.4358 -9.10581 13.2952 0.96659 -0.404902 0 -0.866667 4.33221 -0.179197 4.84144 -0.419749 0.28432 -0.861959
-20.3315 -7.74131 10.5953 0.199796 -0.198845 0.0211574 -0.577367 4.35611 -0.0744587 1.21221 0.524645 -0.768145 0.367016
-18.6239 -7.34106 8.705 0.0570087 -0.15451 0 -0.0888889 4.42377 0.0479925 1.78285 0.53879 -0.830792 0.139607
-16.9587 -9.418 13.788 0.235878 -0.438426 0 -0.866667 4.45177 0.382773 5.13134 -0.698075 0.434666 -0.568996
-17.0427 -5.50575 8.13175 0.139628 -0.243922 0.0189671 -0.0888889 4.52398 -0.731275 2.34675 0.914394 -0.404824 0.000975317
-15.8931 -3.66613 9.317 0.0168946 0.11024 0.787115 -0.16315 4.68432 -0.999886 2.88636 0.474484 -0.829969 -0.293286
-13.5747 -4.53587 9.77962 0.055301 -0.168192 0 -0.0888889 5.02598 -0.568209 3.30996 -0.68619 -0.688193 -0.235655
-20.6695 -7.0855 15.0363 0.123762 -0.180348 -0.585066 -0.0157454 5.09629 -0.757273 0.286358 0.67072 -0.488536 -0.558093
-17.8437 -7.97316 16.2629 0.254598 -0.243827 0 0.717809 5.1082 -0.731524 5.79557 -0.424628 -0.21275 -0.880016
-17.4824 -9.63325 15.3156 0.240497 -0.357457 0 -0.866667 5.11548 -0.876771 5.45516 -0.740196 0.487666 -0.462917
-12.4315 -8.2485 13.1453 0.53482 -0.187037 0 -0.483678 5.34258 -0.394484 4.32359 0.145432 -0.269293 -0.952014
-12.997 -6.8425 12.0225 0.164346 -0.138876 0 -0.0888889 5.36902 0.101263 3.98097 -0.0988507 -0.649519 -0.753892
-17.37 -6.47 7.5005 -0.192306 -0.196851 -0.747237 -0.695038 5.40977 0.15415 2.16941 0.832502 -0.537503 0.13428
-12.9268 -5.85825 10.0618 0.066468 -0.167011 0 -0.0888889 5.4269 0.523431 3.59688 -0.698661 -0.694381 -0.17236
-14.9088 -3.36075 8.43425 0.00988187 -0.016842 0 -0.0888889 5.44023 -0.527912 3.01732 0.0743413 -0.974183 -0.213168
-12.3375 -6.3815 11.3695 0.125123 -0.064607 0 -0.0888889 5.45308 -0.0946285 3.81717 -0.259074 -0.89831 -0.354851
-13.842 -9.499 12.3448 0.385083 -0.285191 0.846334 -0.866667 5.46996 0.583064 4.62272 0.114291 0.198146 -0.973486
-20.0229 -7.55125 15.8363 0.178879 -0.186305 -0.317033 0.147612 5.51546 -0.207275 6.28262 0.562908 -0.387783 -0.729903
-13.9991 -3.79312 8.62912 0.20013 -0.111831 0 -0.0888889 5.54654 -0.509045 3.09309 -0.539987 -0.798588 -0.265839
-16.8458 -10.3915 13.2823 0.230086 -0.401929 0 -0.901769 5.55458 -0.277064 5.0844 -0.0914488 0.806767 -0.58375
-21.936 -7.92137 12.5278 0.265757 -0.14418 0 -1 5.60658 -0.340597 0.799047 0.511917 -0.808369 0.290657
-16.9635 -5.543 7.033 -0.11205 -0.217783 0.573641 -0.0888889 5.62621 -0.596404 2.32274 0.878562 -0.357826 0.316369
-16.0777 -3.76875 8.203 0.0361967 0.154755 0 -0.0888889 5.69761 -0.514211 2.72357 0.711117 -0.702398 -0.0308115
-19.545 -7.992 16.6395 0.294261 -0.171285 -0.347605 0.404067 5.75038 -0.999927 6.09301 0.269309 -0.335886 -0.902581
-18.4643 -7.255 7.23925 -0.370103 -0.120315 -0.530836 -0.632871 5.90069 -0.443081 1.95591 0.51067 -0.841295 0.17731
-21.5989 -7.74388 13.9134 0.105045 -0.130585 -0.0787328 -0.922018 5.95888 -0.280303 0.516831 0.659801 -0.707421 -0.253412
-20.1845 -8.6605 9.077 0.175931 -0.139485 0 -1 6.04186 0.901947 1.21221 0.476436 -0.824735 0.304665
-15.3629 -10.7626 12.8304 0.136983 -0.339285 -0.394883 -0.790553 6.05451 -0.999862 5.0844 -0.332311 0.671036 -0.662782
-21.3273 -8.8025 9.55481 0.264206 -0.0849647 0 -1 6.14506 -0.0240967 1.21221 0.2227 -0.958482 0.178095
-13.1315 -5.173 8.925 0.0186621 -0.163575 0 -0.0888889 6.18042 0.513889 3.30996 -0.755563 -0.598811 -0.265611
-21.7401 -8.90375 10.7118 0.347503 -0.098009 0 -1 6.18613 0.945378 1.21221 0.36967 -0.912761 0.173817
-11.4593 -7.06425 12.5245 0.36085 -0.0961448 0 -0.534173 6.20989 -0.845022 3.81717 -0.0430158 -0.6673 -0.743546
-16.4112 -4.2905 7.04475 -0.010762 -0.195334 0.812023 -0.0888889 6.27246 -0.628653 2.72357 0.838796 -0.44615 0.312044
-18.3009 -10.4878 14.4353 0.217073 -0.375121 0 -1 6.28616 -0.36447 5.45516 -0.351694 0.898683 -0.262068
-18.4521 -10.3144 15.4754 0.193447 -0.34081 0 -0.944124 6.31123 -0.902786 5.45516 -0.275903 0.864479 -0.420183
-12.061 -6.426 9.85625 0.0687357 -0.0588459 0 -0.0888889 6.48245 0.594472 3.59688 -0.196044 -0.978588 -0.0627064
-14.5136 -10.6986 12.1084 0.0093171 -0.30318 -0.611101 -0.794638 6.52217 0.104646 4.62272 -0.118791 0.560971 -0.819268
-12.1716 -9.38762 13.3766 0.192425 -0.219237 -0.0349964 -0.858767 6.53365 -0.999812 4.32359 0.174566 0.148977 -0.97331
-14.8453 -3.09875 7.2685 -0.106071 0.132734 0 -0.0888889 6.63674 0.173275 3.01732 0.063646 -0.38891 -0.919075
-21.2502 -8.50362 14.8431 -0.296657 -0.20584 -0.838733 -0.177778 6.64083 -0.200459 0.516831 0.671974 -0.133546 -0.728434
-20.1338 -8.74375 7.88375 0.118923 -0.0714877 0 -1 6.64228 0.766052 1.78285 0.446913 -0.885445 -0.127498
-19.3284 -7.98259 6.64594 -0.32721 -0.0722668 0.000629393 -0.778167 6.6926 -0.0266087 1.95591 0.400781 -0.916003 0.0177111
-18.8542 -9.37125 16.6077 0.147958 -0.263002 0 -0.866667 6.86737 -0.774815 6.09301 -0.0286449 0.379911 -0.924579
-10.918 -6.34381 11.3474 0.0814103 -0.0119527 0 -0.674742 6.87325 -0.585778 3.81717 -0.0343879 -0.954799 -0.295256
-17.048 -7.02975 6.08975 -0.476217 -0.149405 0 -0.777778 6.96129 0.635334 2.16941 0.706083 -0.625624 0.331724
-18.04 -10.3495 12.4425 0.180204 -0.423258 0 -1 7.01511 0.790245 5.0844 -0.0188837 0.93446 -0.355567
-22.3465 -8.49375 14.0885 -0.068124 -0.134006 0 -0.177778 7.03214 -0.569041 0.516831 0.588423 -0.468957 -0.658663
-12.9963 -10.7945 12.6664 -0.0510023 -0.243028 0.0462799 -0.793793 7.05013 -0.562432 4.62272 0.319079 0.427744 -0.845709
-13.621 -3.619 7.156 -0.00765367 0.142079 0 -0.0888889 7.07734 0.26688 3.09309 -0.581425 -0.365319 -0.726971
-17.2897 -10.9758 11.8864 0.274118 -0.368358 0 -1 7.1316 0.0577259 5.0844 0.307248 0.871201 -0.382894
-11.9108 -6.32387 8.77262 0.0522473 -0.0634709 0 -0.0888889 7.13307 0.999847 3.59688 -0.348543 -0.871239 -0.345631
-23.2985 -8.6565 12.6355 0.145161 0.0511036 0 -1 7.15849 0.171649 0.799047 -0.149108 -0.988821 -0.000164651
-10.6558 -8.67522 13.3047 -0.123091 -0.148347 0 -0.710011 7.17578 -0.612036 4.32359 -0.176408 -0.207952 -0.9621
-16.0704 -5.72713 5.64337 -0.140468 -0.167252 -0.360001 -0.537833 7.28832 -0.0838047 2.32274 0.544413 -0.522051 0.656565
-20.1265 -9.2905 16.176 0.276374 -0.241023 -0.870462 -0.262424 7.2906 -0.889417 6.28262 0.611254 0.245662 -0.752342
-15.773 -3.4955 6.645 -0.114715 0.170677 0 -0.151249 7.30847 -0.0697984 2.72357 0.923786 -0.380056 0.0466609
-19.324 -10.4045 14.811 0.166069 -0.347562 0 -1 7.37924 -0.157377 5.45516 0.125617 0.949726 -0.286775
-16.3521 -11.4514 11.8585 -0.0251259 -0.337498 0 -0.892942 7.39695 -0.62583 5.0844 0.0602094 0.903033 -0.42533
-19.343 -10.0887 16.0842 0.0367197 -0.301637 0 -0.959427 7.41363 -0.999899 5.45516 0.269278 0.796883 -0.540802
-22.8943 -9.02575 11.4333 0.362197 -0.0895904 0 -1 7.43303 0.631109 0.799047 0.150304 -0.942415 0.298769
-12.4902 -5.07987 7.84025 0.2066 -0.0912434 0 -0.0888889 7.44399 -0.109436 3.30996 -0.52891 -0.777561 -0.340077
-15.8263 -4.70075 6.05 -0.0799593 -0.194858 0 -0.288889 7.49718 -0.469468 2.72357 0.445854 -0.386268 0.807472
-17.9305 -7.7 5.6845 -0.513793 -0.0794465 0 -0.777778 7.60369 0.787553 1.95591 0.473958 -0.878643 0.0578875
-15.234 -11.3053 11.3237 -0.52401 -0.326024 -0.342352 -0.777778 7.66114 0.190645 4.62272 -0.100538 0.894178 -0.436278
-21.5298 -9.17 7.988 0.0304505 -0.0375706 0 -1 7.76708 0.691841 1.21221 0.129959 -0.990607 -0.042527
-13.7907 -2.59575 7.293 -0.043938 0.1779 0 -0.0888889 7.80542 -0.242704 3.01732 -0.0844454 0.0670477 -0.99417
-19.2892 -10.6217 13.267 0.17298 -0.365179 0 -1 7.82226 0.330198 5.0844 -0.334676 0.910521 -0.242781
-14.9106 -1.80275 7.49563 -0.306126 0.184244 0 -0.0888889 7.95412 -0.551079 3.01732 -0.00256586 0.0953149 -0.995444
-23.4648 -9.215 10.282 0.315044 0.0397509 0 -1 7.99063 0.839958 0.799047 -0.116334 -0.992464 -0.0384874
-20.4977 -9.66825 15.1231 0.138002 -0.288486 -0.771219 -0.31148 8.0554 0.0933316 0.516831 0.461489 0.593141 -0.659705
-19.3487 -8.19125 5.2865 -0.36462 -0.0224153 0 -0.777778 8.06811 0.64919 1.95591 0.123666 -0.9825 -0.139282
-9.68125 -7.01875 11.9342 0.185112 -0.0865938 0 -0.777778 8.08392 -0.71361 3.81717 -0.393483 -0.648419 -0.651709
-23.149 -9.1075 13.7925 0.056889 -0.107444 0 -0.177778 8.0849 0.219697 0.516831 -0.118113 -0.489313 -0.864073
-10.4118 -6.27056 9.62613 0.105906 0.0332335 0 -0.0888889 8.15487 0.377422 3.59688 0.23397 -0.959916 -0.154338
-23.27 -9.02525 9.075 0.108075 0.0281794 0 -1 8.1585 0.324712 1.21221 -0.0507863 -0.993967 -0.0972104
-21.3472 -8.6665 6.9135 -0.0288818 -0.0324132 0 -1 8.19782 -0.410649 1.95591 0.279968 -0.926246 -0.252362
-15.9136 -1.95187 7.181 -0.292536 0.1918 0 -0.0888889 8.20654 -0.591677 3.01732 0.618773 0.102756 -0.77882
-21.5238 -10.0594 14.7436 0.0140825 -0.205082 0 -0.302471 8.22362 -0.347971 0.516831 0.230592 0.180458 -0.95617
-9.599 -7.886 12.478 0.0152166 -0.108881 0 -0.777778 8.24413 -0.714466 4.32359 -0.444608 -0.470896 -0.761958
-10.6073 -10.0638 12.9993 -0.544387 -0.181078 -0.00833951 -0.777778 8.2791 0.238591 4.32359 -0.00148864 0.236394 -0.971656
-16.272 -6.41025 4.868 -0.196917 -0.0758754 -0.260354 -0.537218 8.34117 0.0206288 2.32274 0.376086 -0.90874 0.180975
-12.3745 -3.36175 7.0435 0.259066 0.202161 0.820334 -0.0888889 8.35507 -0.0846172 3.09309 0.00283395 0.46792 -0.883766
-18.9442 -11.0352 11.6637 0.331355 -0.338754 0 -1 8.39144 0.380992 5.0844 -0.371316 0.846535 -0.381449
-11.7086 -11.227 12.6416 -0.43896 -0.210978 -0.835421 -0.777778 8.40875 -0.400173 4.62272 0.155044 0.504703 -0.849256
-9.37288 -6.32125 10.879 -0.241774 0.0513672 0 -0.777778 8.48797 -0.0339969 3.81717 0.00891663 -0.765131 -0.643813
-20.8832 -8.26775 5.65475 -0.328951 -0.0262006 -0.121059 -0.777778 8.5584 -0.165529 1.95591 0.241635 -0.944963 -0.220583
-16.5045 -2.70075 6.00325 -0.242911 0.230307 0 -0.0888889 8.56488 -0.280207 2.72357 0.742702 0.574164 -0.344571
-20.4439 -10.5723 14.3776 0.139374 -0.28346 0 -1 8.59174 0.0620823 5.45516 -0.1757 0.687899 -0.704219
-13.0511 -12.0589 11.1349 -0.266539 -0.224279 0 -0.777778 8.74411 0.257586 4.62272 0.334992 0.609531 -0.718507
-23.98 -8.416 14.069 0.0383617 0.132432 0 -0.177778 8.76385 -0.0189584 0.799047 -0.801276 -0.42702 -0.419059
-23.3092 -8.954 7.83125 0.126326 0.0469422 0 -1 8.77594 0.406413 1.21221 -0.269986 -0.961625 -0.0488332
-14.9095 -11.794 10.3015 -0.38135 -0.246275 -0.0268627 -0.777778 8.83971 0.773584 4.62272 0.13334 0.56375 -0.815111
-24.362 -7.525 11.982 0.235323 0.158934 0 -1 8.84324 0.0892188 0.799047 -0.886754 -0.400919 0.230069
-14.434 -3.972 5.968 -0.105477 0.262072 0 -0.288889 8.88273 0.249956 2.72357 0.435753 0.731254 0.524773
-14.8775 -6.392 4.7815 -0.0877703 -0.125825 0 -0.288889 8.90321 0.139323 2.32274 -0.0701895 -0.726398 0.68368
-24.2651 -8.96638 10.8674 0.19289 0.108949 0 -1 8.91723 0.768214 0.799047 -0.64891 -0.734414 0.198877
-10.3611 -5.92944 7.93031 0.0380817 -0.0165534 0 -0.0888889 8.94046 0.163354 3.59688 0.078183 -0.982644 -0.168221
-24.2743 -7.45813 13.5571 0.058323 0.153482 0 -1 8.95783 0.0498146 0.799047 -0.927345 -0.362319 -0.0935721
-12.6915 -2.2385 7.26463 0.0331868 0.169223 0.0298436 -0.0888889 8.96156 0.230133 3.01732 0.235183 0.158478 -0.958944
-12.6431 -4.67812 5.88588 -0.0220906 -0.229459 0.162576 -0.25208 8.9986 -0.0594895 3.09309 -0.562668 0.507152 0.652841
-17.642 -11.1625 10.057 0.112985 -0.302125 0 -1 9.00394 0.999901 5.0844 0.0708431 0.739224 -0.669724
-16.3331 -11.9799 10.336 0.035176 -0.259007 -0.599444 -0.798871 9.00868 0.0823546 5.0844 0.25465 0.623967 -0.738795
-8.998 -8.733 12.5118 -0.0739477 -0.115949 0 -0.777778 9.01435 -0.787732 4.32359 -0.600919 -0.349797 -0.718706
-14.386 -5.0025 5.6365 0.057943 -0.169677 0 -0.288889 9.02574 -0.0728844 2.32274 0.0248452 -0.484975 0.874175
-11.1451 -5.506 7.06925 0.081587 -0.0622771 0 -0.100888 9.05189 -0.259259 3.30996 -0.383129 -0.923164 -0.031305
-13.5662 -1.33525 7.15225 -0.2458 0.158885 0 -0.0888889 9.09346 0.857317 3.01732 -0.012148 0.0802792 -0.996698
-19.9748 -7.73325 4.382 -0.56974 -0.00762897 -0.194228 -0.777778 9.2597 -0.325348 1.95591 0.0252994 -0.972989 -0.22946
-24.3194 -8.68213 9.49525 0.312904 0.0947687 0 -1 9.26862 0.446673 0.799047 -0.684471 -0.726125 -0.0651303
-15.452 -0.5805 7.51525 -0.61469 0.136543 -0.0869372 -0.423624 9.29105 -0.759473 3.01732 0.465199 -0.210351 -0.859851
-17.5072 -7.0805 4.16025 -0.244737 -0.0791933 -0.0570109 -0.462858 9.30261 -0.31715 1.95591 0.551357 -0.826133 0.116228
-16.6407 -1.46219 6.47369 -0.342837 0.158657 0 -0.0888889 9.33293 -0.446977 3.01732 0.652655 -0.0343063 -0.756878
-8.79925 -7.947 11.7245 -0.0488977 -0.108473 0 -0.777778 9.34463 0.277138 3.81717 -0.539989 -0.402606 -0.739134
-20.5223 -11.3789 13.7464 0.202422 -0.263854 0 -1 9.34663 -0.702519 5.0844 -0.520897 0.660354 -0.540924
-24.1569 -9.28213 14.6067 0.0760867 0.137101 0 -0.177778 9.39229 0.0777232 0.516831 -0.65629 -0.196043 -0.728595
-23.42 -10.2725 14.429 0.0938083 -0.126979 0 -0.177778 9.43982 0.153012 0.516831 -0.470196 -0.275288 -0.83853
-16.6895 -6.5235 3.8545 -0.247934 -0.0840802 -0.0845656 -0.266918 9.44313 -0.999905 2.32274 0.290408 -0.875042 0.387254
-18.504 -7.66988 3.92006 -0.246476 -0.0408631 0 -0.773431 9.45924 0.0743183 1.95591 0.180183 -0.982802 0.0404267
-22.7266 -9.01175 6.79588 -0.199122 -0.0297396 0 -1 9.46371 0.256502 1.95591 -0.0582471 -0.99656 -0.0589609
-11.3306 -3.17412 7.44688 0.137136 0.195969 0.103752 -0.0888889 9.48982 -0.73938 3.09309 0.104171 0.534159 -0.838941
-20.0719 -11.826 12.3647 0.259031 -0.261975 0 -1 9.51846 0.068851 5.0844 -0.660231 0.616466 -0.429027
-8.95475 -10.2674 13.0433 -0.145372 -0.0879531 -0.348853 -0.777778 9.52033 -0.051276 4.32359 -0.123949 -0.443875 -0.887475
-11.422 -3.9135 6.5525 0.0452527 0.21802 0.661268 -0.122222 9.56038 -0.403491 3.09309 -0.16872 0.857403 -0.486204
-11.244 -12.127 12.0522 -0.109208 -0.172594 0 -0.777778 9.58061 0.314558 4.62272 0.665982 0.292855 -0.686079
-10.486 -11.3888 12.7402 -0.537483 -0.132075 -0.133567 -0.777778 9.63464 0.266172 4.62272 0.450092 -0.105326 -0.886749
-8.394 -5.65562 10.7829 -0.297909 0.0994571 0 -0.563909 9.67561 -0.183207 3.81717 0.495724 -0.389932 -0.776022
-22.384 -8.9035 5.78675 0.110245 -0.0439828 0.189878 -0.931638 9.74723 0.265778 1.95591 0.320707 -0.94714 -0.00852864
-18.8921 -11.6245 10.3421 0.378147 -0.268122 0 -1 9.83941 0.788944 5.0844 -0.543557 0.608633 -0.578024
-22.4034 -11.3806 14.4312 -0.278896 -0.152569 -0.752668 -1 9.84129 0.124264 0.516831 -0.279148 -0.00970253 -0.960199
-24.6031 -6.60281 12.3184 0.157184 0.173053 0 -1 9.85404 0.0425916 0.799047 -0.963841 -0.218366 0.152733
-16.8978 -2.712 4.73 -0.461127 0.222426 -0.314812 -0.178804 9.89753 -0.161105 2.72357 0.508377 0.854592 -0.105947
-13.5205 -4.28575 6.30813 -0.0468763 -0.216039 0.712136 -0.0888889 9.90675 0.810863 2.72357 -0.0219807 -0.0487423 0.998569
-8.99281 -5.18831 9.17241 0.00358713 0.0684704 0 -0.0888889 9.99624 -0.347794 3.59688 0.596314 -0.785419 -0.165914
-7.97237 -6.88225 11.0336 -0.167191 0.118825 0 -0.777778 10.0046 0.191328 3.81717 -0.00398552 -0.120202 -0.992741
-14.2193 0.148031 7.53344 -0.511603 0.133339 0 -0.138524 10.0241 -0.276036 3.01732 0.311068 -0.0897668 -0.946139
-24.5421 -7.63413 14.8821 -0.0393823 0.155462 0 -0.177778 10.0242 -0.270768 0.799047 -0.897409 -0.127787 -0.422288
-24.6623 -7.54462 10.8359 0.407607 0.157757 0 -1 10.0282 0.314172 0.799047 -0.941904 -0.298514 0.153971
-17.3774 -1.5455 5.76562 -0.288092 0.177602 0 -0.0888889 10.0322 -0.323729 2.72357 0.666004 0.274949 -0.693428
-24.4695 -6.49 14.027 -0.0499607 0.166458 0 -1 10.0515 -0.664869 0.799047 -0.972331 -0.202944 -0.1157
-13.8022 -6.02612 5.05288 -0.0323285 -0.157041 0 -0.288889 10.071 -0.344842 2.32274 -0.0436382 -0.470329 0.881412
-18.0872 -12.0767 9.72775 0.317003 -0.205635 0 -1 10.0728 0.721577 5.0844 -0.144112 0.253934 -0.956425
-22.078 -8.56275 4.7525 0.00291981 -0.058803 0.351184 -0.808636 10.0844 -0.266633 1.95591 0.570463 -0.803747 -0.169007
-17.0565 -12.6155 9.80875 0.217744 -0.179487 0 -1 10.1065 0.619101 5.0844 0.274633 0.11672 -0.954439
-21.4137 -11.8073 13.9376 0.0435247 -0.211412 -0.314608 -1 10.1515 -0.144449 0.516831 -0.545339 0.442209 -0.712079
-9.86438 -5.89712 6.79975 0.11479 -0.0823687 0 -0.155556 10.1757 -0.210574 3.59688 -0.219346 -0.885478 0.409654
-13.9409 -12.787 10.2555 -0.370037 -0.16365 0 -0.777778 10.1916 0.999792 4.62272 0.321426 0.100952 -0.941538
-11.7505 -12.7638 11.138 -0.053411 -0.153631 0 -0.777778 10.2235 0.999888 4.62272 0.546991 0.154282 -0.822799
-24.5791 -8.30962 8.16063 0.4171 0.108378 0.110137 -1 10.2376 0.479351 0.799047 -0.825595 -0.561846 -0.052172
-15.5855 -6.97237 3.164 -0.206872 -0.100295 0 -0.288889 10.2623 -0.749771 2.32274 -0.133444 -0.768976 0.625195
-11.1761 -5.69637 5.8395 0.153615 -0.102146 -0.385073 -0.155556 10.2967 -0.384973 3.09309 -0.38488 -0.784112 0.486863
-15.6134 -13.1465 10.1267 -0.0775537 -0.155236 -0.157177 -0.941284 10.3744 0.300933 5.0844 0.135047 0.00100278 -0.990839
-12.2655 -0.875687 7.56431 -0.164446 0.14915 0 -0.0888889 10.4205 0.0883847 3.01732 0.187454 0.110914 -0.975991
-11.4115 -2.094 7.95725 0.110277 0.161238 0.411331 -0.0888889 10.4241 -0.791854 3.01732 0.229925 0.169724 -0.958294
-13.456 -6.9735 4.6405 0.0106169 -0.123545 0 -0.288889 10.4455 0.669452 2.32274 -0.0476966 -0.673293 0.737836
-14.219 -7.33175 3.72213 -0.132711 -0.0966787 0 -0.288889 10.4649 0.291035 2.32274 -0.304906 -0.795956 0.522959
-21.2822 -7.69037 3.86944 -0.210869 -0.046239 0 -0.777778 10.4767 -0.746784 1.95591 0.462464 -0.873277 -0.153346
-13.759 -3.865 4.518 -0.180889 0.219846 0 -0.288889 10.4857 0.457533 2.72357 0.378846 0.906421 0.186753
-8.01056 -9.44756 11.6484 -0.0895143 -0.0848455 0 -0.777778 10.508 0.576689 4.32359 -0.471068 -0.490435 -0.73319
-11.6453 -4.60388 4.67525 -0.111387 0.202728 -0.441202 -0.155556 10.5692 -0.624341 3.09309 -0.344569 0.936217 -0.0690706
-16.6373 -7.33638 3.0085 -0.150963 -0.117057 0 -0.155556 10.6175 -0.415263 1.95591 0.229484 -0.609191 0.759094
-25.0569 -9.07125 15.4163 0.127213 0.147981 0 -0.177778 10.6211 -0.140422 0.516831 -0.546323 0.134883 -0.826643
-8.771 -5.32425 8.028 -0.0419467 -0.0798212 0 -0.155556 10.6446 -0.086949 3.59688 0.343575 -0.856788 0.384539
-13.0988 -13.906 10.6888 -0.210775 -0.116984 0 -0.777778 10.6449 0.412374 4.62272 0.488421 -0.186139 -0.852524
-10.554 -3.77 5.878 0.219659 0.204348 0.591795 -0.155556 10.669 0.0822923 3.09309 -0.292152 0.949918 -0.110922
-12.6186 -4.56244 4.20325 -0.116365 0.205871 0 -0.288889 10.6854 -0.571016 3.09309 0.34752 0.929517 0.123401
-23.7349 -11.4009 14.8865 0.126947 -0.131906 0.0924512 -0.301224 10.6975 -0.348377 0.516831 -0.20439 -0.0241314 -0.978592
-10.1385 -3.37 7.203 0.128498 0.195346 0.766552 -0.123149 10.7223 -0.614324 3.09309 -0.168293 0.772069 -0.612851
-7.54637 -7.93881 11.1088 -0.25574 -0.118668 -0.0228609 -0.777778 10.7406 -0.0986617 3.81717 -0.344625 -0.0752006 -0.935723
-24.6903 -10.3582 15.2692 0.354657 -0.134586 0 -0.177778 10.7639 -0.506523 0.516831 -0.331744 0.0426787 -0.942404
-24.621 -8.069 6.5915 0.169666 0.100851 0.651074 -1 10.7862 0.379095 1.21221 -0.816496 -0.575508 0.0461055
-15.6175 0.50825 6.33125 -1 0.0762011 -0.769978 -0.777778 10.8261 0.0336001 3.01732 0.485357 -0.573782 -0.659699
-18.2409 -8.0865 2.63013 -0.181489 -0.0868264 0 -0.155556 10.8401 -0.122252 1.95591 -0.178788 -0.814894 0.551346
3 126 166 157
3 175 119 136
3 119 57 103
3 103 57 59
3 104 146 154
3 146 119 197
3 118 142 163
3 80 118 126
3 163 126 118
3 121 157 164
3 124 136 97
3 103 97 136
3 88 49 80
3 69 70 31
3 70 104 114
3 114 104 154
3 53 70 91
3 187 145 199
3 196 142 143
3 196 143 193
3 101 156 143
3 193 143 156
3 27 54 49
3 27 15 23
3 3 15 10
3 27 10 15
3 30 27 49
3 59 57 30
3 30 55 28
3 22 9 31
3 28 31 9
3 14 9 22
3 14 22 33
3 41 22 53
3 73 41 53
3 132 82 123
3 82 73 109
3 82 109 123
3 73 91 109
3 123 109 176
3 176 182 123
3 141 116 95
3 116 85 95
3 95 85 62
3 85 116 98
3 83 68 46
3 46 68 36
3 24 23 8
3 8 0 2
3 1 0 3
3 3 10 1
3 3 0 7
3 0 1 6
3 14 6 1
3 4 0 6
3 35 16 47
3 33 61 51
3 132 123 167
3 111 74 78
3 48 32 29
3 74 95 48
3 12 20 29
3 29 11 12
3 6 21 4
3 4 21 26
3 26 21 40
3 47 58 35
3 47 77 58
3 133 125 89
3 155 148 111
3 178 130 120
3 120 130 92
3 78 86 130
3 86 92 130
3 29 45 65
3 92 65 117
3 45 39 66
3 39 20 26
3 60 26 40
3 40 44 60
3 44 40 21
3 64 44 42
3 21 42 44
3 44 64 72
3 140 113 161
3 102 64 79
3 125 160 102
3 189 125 172
3 112 152 151
3 108 149 152
3 108 66 81
3 107 60 100
3 140 195 185
3 153 113 160
3 153 161 113
3 160 113 102
3 174 190 117
3 134 162 179
3 110 127 147
3 186 150 191
3 147 150 110
3 115 158 165
3 115 139 105
3 25 18 38
3 148 171 141
3 119 175 197
3 126 163 166
3 114 169 183
3 114 183 135
3 196 188 142
3 142 118 101
3 80 101 118
3 143 142 101
3 75 101 80
3 28 55 31
3 31 55 69
3 70 53 31
3 138 91 145
3 138 145 187
3 171 116 141
3 116 171 106
3 106 171 156
3 106 156 101
3 106 101 75
3 98 116 106
3 98 106 68
3 68 106 75
3 54 68 75
3 49 54 80
3 80 54 75
3 46 36 23
3 23 36 54
3 23 54 27
3 54 36 68
3 15 8 23
3 7 8 15
3 7 15 3
3 30 10 27
3 28 10 30
3 50 33 41
3 50 41 73
3 41 33 22
3 61 50 82
3 61 82 90
3 90 82 132
3 73 82 50
3 176 144 187
3 138 187 144
3 138 144 109
3 138 109 91
3 109 144 176
3 111 148 95
3 95 148 141
3 48 95 62
3 32 48 62
3 32 62 38
3 32 38 18
3 63 62 85
3 62 63 38
3 83 87 98
3 87 83 71
3 98 87 85
3 85 87 63
3 63 87 71
3 63 71 38
3 52 37 71
3 37 52 24
3 24 52 46
3 83 46 71
3 71 37 38
3 71 46 52
3 23 24 46
3 2 11 13
3 8 2 13
3 8 13 24
3 24 13 37
3 37 13 25
3 25 13 11
3 25 11 18
3 12 11 5
3 4 5 0
3 2 0 5
3 2 5 11
3 19 6 14
3 16 17 6
3 17 16 35
3 16 6 19
3 43 47 16
3 43 16 34
3 43 34 51
3 51 34 19
3 51 19 33
3 19 34 16
3 14 33 19
3 67 43 84
3 51 84 43
3 132 122 90
3 90 122 84
3 90 84 61
3 61 84 51
3 47 43 67
3 47 67 77
3 159 122 132
3 128 89 77
3 128 159 132
3 167 128 132
3 48 78 74
3 20 12 5
3 20 5 4
3 26 20 4
3 35 42 21
3 35 21 17
3 17 21 6
3 58 42 35
3 133 128 177
3 128 133 89
3 125 133 172
3 172 133 177
3 56 92 86
3 56 48 29
3 48 56 86
3 48 86 78
3 65 92 56
3 65 56 29
3 76 117 65
3 76 65 45
3 112 76 66
3 66 76 45
3 60 81 39
3 39 81 66
3 39 26 60
3 44 72 60
3 100 113 140
3 113 72 102
3 72 113 100
3 72 100 60
3 160 125 189
3 131 185 149
3 81 131 149
3 81 149 108
3 60 107 81
3 107 100 140
3 107 140 131
3 185 131 140
3 81 107 131
3 105 137 96
3 96 137 162
3 162 137 198
3 198 137 105
3 198 105 139
3 128 122 159
3 110 77 94
3 110 94 127
3 127 180 147
3 180 127 179
3 191 150 194
3 194 150 147
3 110 128 77
3 128 110 150
3 128 150 186
3 186 192 128
3 128 192 184
3 122 128 184
3 158 115 122
3 84 105 67
3 67 105 96
3 115 105 84
3 115 84 122
3 67 96 94
3 67 94 77
3 38 37 25
3 146 104 93
3 146 93 119
3 119 93 57
3 142 188 163
3 80 126 121
3 121 126 157
3 80 121 124
3 164 124 121
3 164 136 124
3 80 124 88
3 88 124 97
3 119 103 136
3 59 97 103
3 97 59 88
3 88 59 49
3 69 55 93
3 69 93 104
3 57 93 55
3 69 104 70
3 114 154 169
3 114 135 99
3 70 114 99
3 135 145 99
3 70 99 91
3 99 145 91
3 49 59 30
3 30 57 55
3 31 53 22
3 91 73 53
3 123 182 181
3 123 181 167
3 98 68 83
3 7 0 8
3 14 1 9
3 28 9 10
3 10 9 1
3 33 50 61
3 95 74 111
3 32 18 11
3 32 11 29
3 78 130 129
3 78 129 111
3 111 129 155
3 155 129 168
3 168 129 170
3 130 170 129
3 29 20 45
3 39 45 20
3 58 89 79
3 58 79 42
3 42 79 64
3 64 102 72
3 58 77 89
3 89 125 79
3 102 79 125
3 120 173 178
3 173 120 117
3 120 92 117
3 76 112 117
3 66 108 112
3 112 108 152
3 161 195 140
3 117 190 173
3 174 117 151
3 151 117 112
3 127 134 179
3 94 134 127
3 165 139 115
3 94 96 134
3 134 96 162
