ply
format ascii 1.0
comment Generated by PyMesh
element vertex 200
property float x
property float y
property float z
property float charge
property float ddc
property float hbond
property float hphob
property float rho
property float si
property float theta
property float nx
property float ny
property float nz
element face 332
property list uchar int vertex_indices
end_header
-12.2754 -6.3125 4.96178 0.037571 0 -0.160366 -0.263116 1e-08 0.0607669 2.22045e-16 -0.0471689 -0.667561 0.743059
-11.1847 -6.68075 4.23925 -0.0631667 0.215104 -0.288505 -0.246484 1.35915 -0.683221 2.39225 -0.0615404 -0.835508 0.546021
-13.456 -6.9735 4.6405 0.0106169 -0.12578 0 -0.288889 1.39067 0.669452 0.825357 -0.0476966 -0.673293 0.737836
-11.1761 -5.69637 5.8395 0.153615 -0.201095 -0.385073 -0.155556 1.53573 -0.384973 3.95873 -0.38488 -0.784112 0.486863
-13.8022 -6.02612 5.05288 -0.0323285 -0.197504 0 -0.288889 1.55609 -0.344842 2.22045e-16 -0.0436382 -0.470329 0.881412
-10.6545 -6.58 5.099 -0.231375 -0.222691 -0.785561 -0.155556 1.64855 0.0986189 2.96418 -0.376602 -0.822101 0.426991
-12.6431 -4.67812 5.88588 -0.0220906 0.636808 0.162576 -0.25208 1.91321 -0.0594895 5.15191 -0.562668 0.507152 0.652841
-11.6713 -7.65574 3.5117 0.0416587 0.155323 0 -0.288889 2.06687 0.216586 1.82704 0.0991495 -0.684262 0.722465
-10.3134 -7.12587 3.87275 -0.00160485 0.121121 0 -0.155556 2.40395 -0.618643 2.42442 -0.326932 -0.806915 0.491938
-14.219 -7.33175 3.72213 -0.132711 0.0997923 0 -0.288889 2.63723 0.291035 0.89832 -0.304906 -0.795956 0.522959
-14.8775 -6.392 4.7815 -0.0877703 -0.0643796 0 -0.288889 2.72391 0.139323 0.361009 -0.0701895 -0.726398 0.68368
-11.1451 -5.506 7.06925 0.081587 -0.320949 0 -0.100888 2.78051 -0.259259 4.04038 -0.383129 -0.923164 -0.031305
-14.386 -5.0025 5.6365 0.057943 -0.132175 0 -0.288889 2.8711 -0.0728844 5.968 0.0248452 -0.484975 0.874175
-9.58838 -7.17572 5.35656 -0.0720867 -0.128013 0 -0.155556 2.89668 0.200363 2.91747 -0.517527 -0.689232 0.507076
-13.5205 -4.28575 6.30813 -0.0468763 0.256837 0.712136 -0.0888889 2.96301 0.810863 5.47809 -0.0219807 -0.0487423 0.998569
-12.5632 -8.0855 3.22875 0.0449793 0.0887064 0 -0.288889 3.09655 0.492839 1.50975 -0.084792 -0.792755 0.603614
-9.86438 -5.89712 6.79975 0.11479 -0.124625 0 -0.155556 3.17371 -0.210574 3.48156 -0.219346 -0.885478 0.409654
-11.6453 -4.60388 4.67525 -0.111387 0 -0.441202 -0.155556 3.48379 -0.624341 5.32478 -0.344569 0.936217 -0.0690706
-11.422 -3.9135 6.5525 0.0452527 0.645502 0.661268 -0.122222 3.50069 -0.403491 5.10528 -0.16872 0.857403 -0.486204
-12.6186 -4.56244 4.20325 -0.116365 0 0 -0.288889 3.59999 -0.571016 5.45323 0.34752 0.929517 0.123401
-12.3745 -3.36175 7.0435 0.259066 0.545804 0.820334 -0.0888889 3.68664 -0.0846172 5.00547 0.00283395 0.46792 -0.883766
-10.3341 -8.12113 2.65438 -0.0294602 0.00120522 -0.00627541 -0.193656 3.72207 -0.738405 2.13721 -0.224374 -0.661735 0.715376
-9.1585 -7.92775 4.10825 -0.00840667 -0.211694 0 -0.155556 3.82953 -0.467475 2.55204 -0.824761 -0.491524 0.279595
-13.621 -3.619 7.156 -0.00765367 -0.407401 0 -0.0888889 3.83446 0.26688 4.8768 -0.581425 -0.365319 -0.726971
-14.434 -3.972 5.968 -0.105477 0.464473 0 -0.288889 3.84004 0.249956 5.81919 0.435753 0.731254 0.524773
-13.759 -3.865 4.518 -0.180889 0.607603 0 -0.288889 3.85678 0.457533 5.64042 0.378846 0.906421 0.186753
-14.4952 -7.95725 2.686 -0.103135 -0.0413742 0 -0.25878 3.87864 -0.38172 1.07445 -0.120823 -0.588424 0.799474
-12.4902 -5.07987 7.84025 0.2066 -0.352945 0 -0.0888889 3.91429 -0.109436 4.43679 -0.52891 -0.777561 -0.340077
-12.0726 -8.92737 2.13425 0.123345 -0.013845 0 -0.288889 3.98402 -0.302842 1.58287 -0.233982 -0.619553 0.749271
-10.3611 -5.92944 7.93031 0.0380817 -0.278328 0 -0.0888889 4.01962 0.163354 3.77491 0.078183 -0.982644 -0.168221
-16.272 -6.41025 4.868 -0.196917 -0.210122 -0.260354 -0.537218 4.12121 0.0206288 0.372124 0.376086 -0.90874 0.180975
-8.4545 -7.223 5.8615 -0.036253 0.0787763 0 -0.155556 4.13881 0.169479 3.00334 0.0630318 -0.565168 0.822565
-15.5855 -6.97237 3.164 -0.206872 -0.0437256 0 -0.288889 4.15644 -0.749771 0.709798 -0.133444 -0.768976 0.625195
-16.0704 -5.72713 5.64337 -0.140468 -0.200054 -0.360001 -0.537833 4.3388 -0.0838047 0.113854 0.544413 -0.522051 0.656565
-15.8263 -4.70075 6.05 -0.0799593 -0.179469 0 -0.288889 4.39966 -0.469468 6.13926 0.445854 -0.386268 0.807472
-8.65356 -8.44756 5.52819 0.36932 -0.202969 0 -0.866667 4.48442 0.117996 2.80863 -0.54031 0.131029 0.831202
-8.68256 -6.43162 6.51638 -0.0343693 0.0458559 0 -0.155556 4.50138 0.146625 3.22904 -0.0584446 -0.72846 0.682591
-13.6023 -8.52875 2.33363 0.0297721 -0.0700905 0 -0.288889 4.53788 -0.301481 1.34608 0.035108 -0.659049 0.75128
-10.554 -3.77 5.878 0.219659 0.565641 0.591795 -0.155556 4.60928 0.0822923 5.18639 -0.292152 0.949918 -0.110922
-11.3306 -3.17412 7.44688 0.137136 0.483546 0.103752 -0.0888889 4.66472 -0.73938 5.0282 0.104171 0.534159 -0.838941
-11.2778 -9.7615 1.923 0.0607507 -0.104042 0 -0.353153 4.7339 -0.191157 1.77255 -0.130573 -0.245443 0.960577
-12.6915 -2.2385 7.26463 0.0331868 0.408833 0.0298436 -0.0888889 4.87453 0.230133 4.92791 0.235183 0.158478 -0.958944
-13.7907 -2.59575 7.293 -0.043938 0.401785 0 -0.0888889 4.8807 -0.242704 4.88521 -0.0844454 0.0670477 -0.99417
-8.771 -5.32425 8.028 -0.0419467 0.143737 0 -0.155556 4.91505 -0.086949 3.54632 0.343575 -0.856788 0.384539
-8.87138 -8.798 3.43712 -0.037866 -0.206731 0.16597 -0.323193 4.96539 -0.75587 2.38175 -0.92395 -0.306882 0.22834
-13.884 -3.6015 3.3775 -0.36105 0.511 0 -0.288889 5.03398 0.520409 5.73228 0.416628 0.904626 0.0898459
-10.1385 -3.37 7.203 0.128498 0.457841 0.766552 -0.123149 5.03885 -0.614324 5.03733 -0.168293 0.772069 -0.612851
-12.842 -9.32 1.4325 0.140183 -0.0883511 0.265833 -0.234662 5.09694 -0.999898 1.46201 0.0538043 -0.417686 0.906997
-11.9806 -4.509 2.84575 -0.113418 0.581966 0.182902 -0.288889 5.10089 -0.951426 5.52363 -0.102244 0.924185 0.368005
-10.862 -4.18275 3.26312 0.0658053 0.490762 0.497328 -0.172978 5.15263 -0.99984 5.41323 -0.634458 0.720267 0.280495
-14.8453 -3.09875 7.2685 -0.106071 -0.356823 0 -0.0888889 5.16947 0.173275 4.93701 0.063646 -0.38891 -0.919075
-13.1315 -5.173 8.925 0.0186621 -0.266121 0 -0.0888889 5.17787 0.513889 4.38953 -0.755563 -0.598811 -0.265611
-16.6895 -6.5235 3.8545 -0.247934 -0.141684 -0.0845656 -0.266918 5.22317 -0.999905 0.529101 0.290408 -0.875042 0.387254
-16.6373 -7.33638 3.0085 -0.150963 -0.0931438 0 -0.155556 5.28025 -0.415263 0.688012 0.229484 -0.609191 0.759094
-9.47269 -9.347 2.07006 0.115462 -0.118167 -0.104479 -0.155556 5.33024 -0.999883 2.09448 -0.585631 -0.194416 0.786917
-15.8403 -8.4775 2.45913 -0.184729 -0.120153 -0.0665696 -0.155556 5.33858 -0.532228 0.964348 0.0810591 -0.22859 0.970142
-13.9991 -3.79312 8.62912 0.20013 -0.218596 0 -0.0888889 5.36527 -0.509045 4.69068 -0.539987 -0.798588 -0.265839
-15.773 -3.4955 6.645 -0.114715 -0.282772 0 -0.151249 5.4143 -0.0697984 5.91449 0.923786 -0.380056 0.0466609
-10.1889 -3.48463 4.00612 0.107674 0.417982 -0.170617 -0.155556 5.43867 -0.107215 5.32135 -0.656422 0.716445 0.236254
-14.8431 -3.23612 3.4615 -0.496063 0.409542 -0.0170664 -0.288889 5.49598 0.283203 5.81522 0.386307 0.900109 0.20142
-7.5365 -5.956 7.0925 -0.117358 0.104862 0 -0.155556 5.52067 0.628585 3.22437 0.323885 -0.657443 0.680343
-11.9108 -6.32387 8.77262 0.0522473 -0.285083 0 -0.0888889 5.57338 0.999847 4.0499 -0.348543 -0.871239 -0.345631
-7.161 -7.0105 5.2475 -0.121971 0.0950396 0 -0.155556 5.58632 -0.99988 3.01321 0.205689 -0.463993 0.861628
-14.21 -9.5545 2.14062 0.252646 -0.148504 0.170616 -0.155556 5.59036 0.0372185 1.24386 0.329138 -0.270365 0.904749
-16.4112 -4.2905 7.04475 -0.010762 -0.228535 0.812023 -0.0888889 5.62438 -0.628653 6.17413 0.838796 -0.44615 0.312044
-17.5072 -7.0805 4.16025 -0.244737 -0.185619 -0.0570109 -0.462858 5.69469 -0.31715 4.29532 0.551357 -0.826133 0.116228
-17.048 -7.02975 6.08975 -0.476217 -0.202723 0 -0.777778 5.69557 0.635334 4.56931 0.706083 -0.625624 0.331724
-9.5725 -3.5915 5.43 0.176758 0.424279 0.0105221 -0.155556 5.70286 -0.63216 5.11852 -0.464457 0.867772 0.17678
-9.11263 -9.75525 4.6195 1 -0.322518 0 -0.866667 5.72775 -0.254098 2.53344 -0.933577 0.25571 -0.251092
-7.499 -8.635 5.097 0.33105 -0.199514 0.778693 -0.866667 5.73104 -0.999859 2.81919 0.0999293 0.324846 0.940473
-10.4118 -6.27056 9.62613 0.105906 -0.204663 0 -0.0888889 5.75015 0.377422 3.81845 0.23397 -0.959916 -0.154338
-8.74325 -9.3785 6.50688 1 -0.295276 0 -0.866667 5.83813 0.368508 2.7999 -0.152172 0.78737 0.597405
-11.4115 -2.094 7.95725 0.110277 0.36676 0.411331 -0.0888889 5.86208 -0.791854 5.13116 0.229925 0.169724 -0.958294
-12.9971 -3.869 2.07931 -0.316411 0.403551 0 -0.288889 5.86609 -0.371696 5.65355 0.0785487 0.850069 0.520781
-15.7994 -3.405 4.57062 -0.508533 0.378958 -0.441312 -0.288889 5.87436 -0.673185 5.9783 0.376037 0.897252 0.231375
-10.8208 -10.8594 2.16681 0.0895403 -0.185298 0 -0.355556 5.94785 -0.0928604 1.8184 -0.413652 0.338139 0.845313
-6.827 -6.381 6.055 -0.162172 0.123394 0 -0.155556 5.9814 0.287709 3.17687 0.458249 -0.574756 0.677985
-16.9635 -5.543 7.033 -0.11205 -0.233265 0.573641 -0.0888889 6.00091 -0.596404 6.17413 0.878562 -0.357826 0.316369
-8.99281 -5.18831 9.17241 0.00358713 -0.221772 0 -0.0888889 6.01068 -0.347794 3.54632 0.596314 -0.785419 -0.165914
-13.5662 -1.33525 7.15225 -0.2458 0.336215 0 -0.0888889 6.1369 0.857317 4.92791 -0.012148 0.0802792 -0.996698
-9.14775 -3.45275 6.4815 0.0884263 0.402977 0 -0.155556 6.1721 -0.999868 5.11852 -0.424299 0.87769 -0.222778
-9.67912 -9.828 5.5365 1 -0.352745 0 -0.866667 6.20414 0.566714 2.53344 -0.844706 0.531658 -0.0617379
-14.9106 -1.80275 7.49563 -0.306126 0.324706 0 -0.0888889 6.26781 -0.551079 4.93701 -0.00256586 0.0953149 -0.995444
-16.5045 -2.70075 6.00325 -0.242911 0.334457 0 -0.0888889 6.26991 -0.280207 5.91449 0.742702 0.574164 -0.344571
-12.6357 -10.976 1.2865 0.0285353 -0.0705072 0.194629 -0.313749 6.27152 0.048763 1.46201 -0.332237 -0.297189 0.895152
-13.5747 -4.53587 9.77962 0.055301 -0.20032 0 -0.0888889 6.33231 -0.568209 4.38953 -0.68619 -0.688193 -0.235655
-12.2655 -0.875687 7.56431 -0.164446 0.31609 0 -0.0888889 6.33348 0.0883847 4.92791 0.187454 0.110914 -0.975991
-9.00331 -2.76681 7.38263 0.089845 0.343114 0.0102143 -0.0910796 6.33683 -0.999848 5.03733 -0.523093 0.557668 -0.6445
-14.9088 -3.36075 8.43425 0.00988187 -0.194849 0 -0.0888889 6.36598 -0.527912 4.69068 0.0743413 -0.974183 -0.213168
-17.9305 -7.7 5.6845 -0.513793 -0.167481 0 -0.777778 6.37526 0.787553 4.56931 0.473958 -0.878643 0.0578875
-7.71931 -4.28869 8.27731 -0.13222 0.179955 0 -0.0993076 6.41191 -0.0666502 3.54632 0.771305 -0.555214 0.311169
-17.1569 -8.38313 2.722 -0.173604 -0.0582896 0 -0.155556 6.48348 0.238235 0.688012 -0.185857 -0.384039 0.904418
-9.57681 -10.5227 2.19225 0.299001 -0.198118 0 -0.355556 6.51685 -0.999884 2.09448 -0.438988 0.449204 0.778142
-12.9268 -5.85825 10.0618 0.066468 -0.195797 0 -0.0888889 6.52092 0.523431 4.38953 -0.698661 -0.694381 -0.17236
-14.464 -3.4355 2.01225 -0.463573 0.387367 0 -0.288889 6.52659 -0.785165 5.73228 0.443976 0.89279 0.0762327
-10.1895 -1.7585 7.98 0.158135 0.327359 0.777804 -0.092332 6.55953 -0.430465 5.13116 -0.0498677 0.218223 -0.974624
-15.898 -2.83406 3.49378 -0.792447 0.327826 -0.103414 -0.288889 6.62536 0.277896 5.81522 0.353092 0.894191 0.275223
-6.108 -7.0885 5.339 -0.215195 0.151747 -0.347611 -0.209033 6.64616 0.375755 3.01321 0.505765 -0.0733662 0.859546
-12.061 -6.426 9.85625 0.0687357 -0.172022 0 -0.0888889 6.67212 0.594472 4.0499 -0.196044 -0.978588 -0.0627064
-8.89669 -10.5161 3.43131 0.516163 -0.251269 0 -0.773862 6.68369 -0.999879 2.53344 -0.913577 0.395687 0.0938591
-15.9136 -1.95187 7.181 -0.292536 -0.308009 0 -0.0888889 6.73926 -0.591677 4.93701 0.618773 0.102756 -0.77882
-8.97525 -2.8485 4.96088 0.057925 0.271005 0 -0.155556 6.76532 -0.59546 5.11852 -0.757951 0.485499 0.435662
-11.0706 -3.27513 1.93788 -0.0187583 0.252818 0.497521 -0.198075 6.77237 -0.999863 5.41323 -0.447944 0.440279 0.778139
-10.317 -2.726 2.6115 0.071584 0.226001 0.580483 -0.155556 6.83897 -0.606003 5.32135 -0.812432 0.208543 0.544485
-16.8978 -2.712 4.73 -0.461127 0.319305 -0.314812 -0.178804 6.87163 -0.161105 5.9783 0.508377 0.854592 -0.105947
-18.504 -7.66988 3.92006 -0.246476 -0.131667 0 -0.773431 6.87735 0.0743183 4.29532 0.180183 -0.982802 0.0404267
-14.9028 -10.6087 2.47469 0.24692 -0.0970623 0.0932256 -0.155556 6.89532 0.999885 1.24386 0.230483 -0.404774 0.884893
-16.0777 -3.76875 8.203 0.0361967 -0.213336 0 -0.0888889 6.93777 -0.514211 6.17413 0.711117 -0.702398 -0.0308115
-6.721 -9.4495 5.7075 0.267663 -0.191903 -0.130503 -0.690547 7.01221 -0.36401 2.81919 0.0395619 0.537671 0.842226
-9.38138 -2.10737 3.8075 0.148901 0.182527 0.0249673 -0.155556 7.04752 -0.518457 5.32135 -0.834202 0.0522929 0.548974
-10.9438 -11.9454 2.48863 0.045883 -0.124417 0 -0.355556 7.08719 0.342271 1.8184 -0.640905 -0.00138704 0.767619
-18.2409 -8.0865 2.63013 -0.181489 0.0347201 0 -0.155556 7.09061 -0.122252 0.688012 -0.178788 -0.814894 0.551346
-17.0427 -5.50575 8.13175 0.139628 -0.236392 0.0189671 -0.0888889 7.10314 -0.731275 6.17413 0.914394 -0.404824 0.000975317
-17.37 -6.47 7.5005 -0.192306 -0.21257 -0.747237 -0.695038 7.11587 0.15415 4.56931 0.832502 -0.537503 0.13428
-6.65863 -4.65394 6.68906 -0.195179 0.187598 0 -0.155556 7.14202 0.490303 3.22437 0.800897 -0.162584 0.576308
-6.082 -5.856 5.234 -0.251662 0.169793 0 -0.155556 7.20806 -0.113728 3.17687 0.775231 -0.39143 0.495781
-8.00075 -10.0413 7.45125 0.626277 -0.203927 0.474991 -0.866667 7.21015 0.999899 2.7999 0.249761 0.506844 0.825063
-16.7653 -10.1103 2.37981 -0.480837 -0.0349929 -0.958571 -0.155556 7.21687 0.578546 0.964348 -0.30756 -0.480808 0.821115
-9.89112 -11.1829 4.57394 0.675667 -0.260222 0.170995 -0.866667 7.3545 0.169887 2.53344 -0.973998 0.114553 -0.195461
-15.2399 -4.01038 10.1786 0.048477 -0.189839 0.0615469 -0.0972704 7.36218 -0.428873 4.69068 0.0501641 -0.892009 -0.449225
-9.37288 -6.32125 10.879 -0.241774 -0.210084 0 -0.777778 7.37853 -0.0339969 3.81845 0.00891663 -0.765131 -0.643813
-12.1451 -2.76075 1.5005 -0.316161 0.205206 0 -0.0888889 7.37909 -0.235917 5.65355 -0.329884 0.338372 0.881295
-8.30062 -2.6835 6.06038 0.0301148 0.269855 0 -0.155556 7.38794 -0.908238 5.11852 -0.837671 0.537144 0.0989084
-9.34175 -10.4634 7.45062 0.734227 -0.168361 0.392256 -0.866667 7.39564 0.999891 2.7999 -0.586877 0.217069 0.780036
-7.252 -3.699 7.61825 -0.162745 0.198364 0 -0.11447 7.41215 -0.443783 3.54632 0.898046 -0.309276 0.312827
-15.4955 -2.53737 1.771 -0.526947 0.26423 -0.0972404 -0.699224 7.43806 -0.0614897 5.81522 0.535996 0.683841 0.495046
-14.2536 -11.1819 1.20875 0.104943 -0.0644506 0.516573 -0.155556 7.46618 -0.104086 1.24386 0.193527 -0.691729 0.695743
-10.0806 -11.4983 3.35013 0.109291 -0.21162 0.0646085 -0.666942 7.48289 0.114555 1.8184 -0.769016 0.42502 0.477465
-18.4643 -7.255 7.23925 -0.370103 -0.139198 -0.530836 -0.632871 7.5335 -0.443081 4.56931 0.51067 -0.841295 0.17731
-8.5275 -1.687 7.64075 0.0827447 -0.258388 0 -0.120573 7.54472 -0.999906 5.03733 -0.541718 -0.0870591 -0.83604
-10.918 -6.34381 11.3474 0.0814103 -0.164068 0 -0.674742 7.54581 -0.585778 3.81845 -0.0343879 -0.954799 -0.295256
-14.211 -3.36625 1.02675 -0.507997 0.285879 0 -0.308649 7.5464 -0.848007 5.65355 0.253913 0.76743 0.58871
-9.55925 -1.01425 7.739 0.266503 -0.240242 0.164587 -0.155556 7.56412 -0.669957 5.13116 -0.23093 -0.474048 -0.849676
-16.6407 -1.46219 6.47369 -0.342837 -0.272405 0 -0.0888889 7.60179 -0.446977 5.91449 0.652655 -0.0343063 -0.756878
-15.452 -0.5805 7.51525 -0.61469 -0.252816 -0.0869372 -0.423624 7.60475 -0.759473 4.93701 0.465199 -0.210351 -0.859851
-11.0495 -1.1615 8.012 0.0769557 -0.282968 0.970118 -0.155402 7.60692 -0.608119 5.13116 0.0236771 -0.296033 -0.954884
-6.16512 -6.86163 4.35112 -0.245605 0.228674 0 -0.252573 7.66137 -0.807917 3.01321 0.916988 0.10264 0.385484
-7.1575 -10.2837 6.68875 0.765713 -0.210569 0 -0.866667 7.67308 -0.157604 2.7999 0.372848 0.619931 0.690413
-11.309 0.07625 7.26963 -0.344533 -0.2241 -0.627789 -0.146431 7.71475 -0.0390163 4.92791 -0.445222 -0.429142 -0.785884
-15.8931 -3.66613 9.317 0.0168946 -0.19819 0.787115 -0.16315 7.72294 -0.999886 4.69068 0.474484 -0.829969 -0.293286
-14.4446 -4.32575 10.8495 -0.113263 -0.197115 -0.487567 -0.132564 7.72713 -0.99988 4.38953 -0.216204 -0.790347 -0.573243
-17.3774 -1.5455 5.76562 -0.288092 0.271919 0 -0.0888889 7.73723 -0.323729 5.91449 0.666004 0.274949 -0.693428
-10.3815 -11.1511 5.97144 0.736243 -0.216975 0.611749 -0.866667 7.76398 0.999889 2.7999 -0.964915 0.0792666 0.250313
-8.394 -5.65562 10.7829 -0.297909 -0.238869 0 -0.563909 7.7913 -0.183207 3.81845 0.495724 -0.389932 -0.776022
-14.2193 0.148031 7.53344 -0.511603 0.254508 0 -0.138524 7.80182 -0.276036 4.92791 0.311068 -0.0897668 -0.946139
-12.9858 -12.0465 0.13025 -0.0243517 -0.0267189 0 -0.355556 7.88566 -0.70814 1.46201 -0.325269 -0.508098 0.797519
-19.3487 -8.19125 5.2865 -0.36462 -0.133513 0 -0.777778 7.928 0.64919 4.56931 0.123666 -0.9825 -0.139282
-5.8845 -9.827 6.15375 -0.11962 -0.146232 -0.0195851 -0.288889 8.03269 -0.0303628 2.81919 -0.151958 0.40193 0.902973
-13.6006 -5.50238 11.3686 0.099116 -0.208379 0 -0.0888889 8.03366 -0.327554 4.38953 -0.430903 -0.636383 -0.639796
-17.3153 -2.467 3.665 -0.483187 0.283072 0 -0.288889 8.04148 0.202569 5.9783 0.0957686 0.995402 0.00153593
-12.3375 -6.3815 11.3695 0.125123 -0.171515 0 -0.0888889 8.04773 -0.0946285 4.0499 -0.259074 -0.89831 -0.354851
-7.9305 -1.6155 6.7105 0.0315926 -0.205211 0 -0.155556 8.04803 -0.999907 5.11852 -0.982613 0.016385 -0.184942
-5.88919 -8.47812 5.37075 -0.39936 0.200201 -0.912138 -0.288889 8.05326 -0.22549 3.01321 0.147833 0.640262 0.753797
-19.3284 -7.98259 6.64594 -0.32721 -0.130409 0.000629393 -0.778167 8.09524 -0.0266087 4.56931 0.400781 -0.916003 0.0177111
-18.038 -2.218 4.732 -0.394763 0.272818 0 -0.0888889 8.11425 -0.597494 5.9783 0.666539 0.597934 -0.445197
-7.4305 -3.96725 9.99225 -0.231811 0.178019 0 -0.0888889 8.15635 -0.0393035 3.54632 0.787945 -0.604228 -0.118537
-19.2633 -7.63963 2.67156 -0.203143 0.0809931 0 -0.777778 8.20717 -0.401501 4.29532 -0.292112 -0.938389 0.184654
-8.39175 -1.57913 5.40712 0.0130906 0.15041 0 -0.155556 8.23192 -0.621954 5.11852 -0.907574 -0.13189 0.398641
-12.7895 0.915125 8.0455 -0.514913 0.230361 -0.189244 -0.101661 8.26043 -0.999852 4.92791 -0.111429 -0.0630831 -0.991768
-19.0576 -8.329 1.66288 -0.200937 0.0280256 0 -0.155556 8.37955 -0.464996 0.688012 -0.427405 -0.602682 0.673869
-8.84525 -11.3252 7.58425 0.772837 -0.0880457 0.20351 -0.866667 8.39917 0.741024 2.7999 -0.155862 -0.143209 0.977342
-15.888 -11.3448 1.581 -0.18442 0.0326257 -0.835422 -0.155556 8.41556 0.905977 1.24386 -0.248077 -0.804368 0.539861
-19.9748 -7.73325 4.382 -0.56974 -0.130841 -0.194228 -0.777778 8.42029 -0.325348 4.29532 0.0252994 -0.972989 -0.22946
-7.484 -4.46 10.931 -0.311672 0.193912 0 -0.0888889 8.43958 -0.0841359 3.54632 0.864025 -0.387214 -0.321755
-16.4995 -2.19513 1.8975 -0.497587 0.227514 -0.213413 -0.288889 8.44694 0.126766 5.81522 -0.0725445 0.834708 0.545894
-13.5571 -1.968 0.418312 -0.621907 0.146833 -0.147055 -0.68584 8.45189 -0.80963 5.65355 -0.159482 0.248965 0.955292
-9.3395 -0.7775 4.3755 0.199953 0.129911 0.228185 -0.155556 8.49422 -0.176279 5.32135 -0.872979 -0.289838 0.392303
-17.1159 -5.79738 9.5235 0.256873 -0.198641 0 -0.160835 8.527 0.0971588 6.17413 0.853315 -0.519417 -0.0453887
-17.4675 -6.8385 8.893 0.0557223 -0.180298 0 -0.0888889 8.5596 0.738786 4.56931 0.745376 -0.6652 0.0438689
-18.558 -9.4 1.56025 -0.109215 0.0363147 0 -0.155556 8.56837 0.462526 0.688012 -0.479985 -0.553648 0.680506
-11.1666 -13.36 1.94488 -0.206042 -0.102277 -0.177078 -0.559371 8.61899 -0.164661 1.8184 -0.642007 0.00878114 0.766649
-6.4365 -2.47325 8.14738 -0.191343 0.142832 0.101381 -0.270744 8.63864 -0.539866 3.54632 0.672468 -0.735167 0.0855358
-17.528 -10.2195 1.18 -0.252893 0.0397752 -0.588982 -0.155556 8.64276 -0.598223 0.964348 -0.490767 -0.645074 0.585685
-9.68125 -7.01875 11.9342 0.185112 -0.184691 0 -0.777778 8.68047 -0.71361 3.81845 -0.393483 -0.648419 -0.651709
-6.71375 -2.89488 6.73688 -0.180739 0.152949 0.285931 -0.559582 8.72102 -0.999873 3.22437 0.760794 -0.448543 0.469043
-17.9579 -0.845375 5.33087 -0.264383 -0.223985 0 0.677698 8.74528 -0.831184 5.91449 0.778267 -0.0837903 -0.622317
-14.741 -2.3595 0.5355 -0.839817 0.184088 0 -0.777778 8.78566 -0.861631 5.65355 0.458723 0.300459 0.83624
-15.803 -4.925 11.1187 -0.006921 -0.191764 -0.811647 -0.177778 8.78956 -0.25577 4.69068 0.354256 -0.763653 -0.539757
-11.071 -1.07697 1.88412 0.0696507 0.149436 0 -0.0888889 8.79266 -0.109416 5.32135 -0.658778 0.15436 0.736332
-10.2285 -0.705 3.2 0.064191 0.151782 0.847786 -0.155556 8.79489 0.472157 5.32135 -0.844962 0.0246678 0.534257
-10.0286 -0.1445 6.98 -0.270732 -0.192975 -0.796057 -0.155556 8.81025 -0.440213 5.13116 -0.230604 -0.763119 -0.603714
-16.623 -4.8675 9.69606 0.265922 -0.21746 0.0800778 -0.132375 8.84399 -0.580168 6.17413 0.79169 -0.538524 -0.288476
-6.53719 -2.45744 9.39231 -0.179417 0.145129 0 -0.0888889 8.8602 0.0662155 3.54632 0.847407 -0.482975 0.220538
-7.97237 -6.88225 11.0336 -0.167191 -0.242064 0 -0.777778 8.89512 0.191328 3.81845 -0.00398552 -0.120202 -0.992741
-5.74638 -3.5895 5.62288 -0.309303 0.100092 -0.640861 -0.777778 8.90326 -0.610421 3.22437 0.414054 -0.362659 0.834888
-8.67463 -0.52 6.85175 0.00885563 -0.155007 -0.23168 -0.155556 8.91098 -0.771071 5.13116 -0.650166 -0.701773 -0.291202
-9.71031 -13.0597 3.25262 0.0396917 -0.0780201 0 -0.833313 8.91663 -0.0726139 1.8184 -0.707084 -0.367682 0.604021
-6.78912 -11.4445 7.18512 0.434837 0.132444 0 -0.866667 8.9882 0.521498 2.7999 0.426901 0.1304 0.894847
-18.6239 -7.34106 8.705 0.0570087 -0.13031 0 -0.0888889 9.01043 0.0479925 4.56931 0.53879 -0.830792 0.139607
-9.807 -12.265 5.858 0.51646 -0.13137 0.181031 -0.866667 9.02243 0.680889 2.53344 -0.824976 -0.551681 0.12273
-11.4593 -7.06425 12.5245 0.36085 -0.192568 0 -0.534173 9.02824 -0.845022 3.81845 -0.0430158 -0.6673 -0.743546
-12.3632 -13.6067 0.43875 -0.298596 -0.112478 -0.152735 -0.50512 9.04884 -0.892158 1.46201 -0.711883 0.16999 0.681414
-7.28 -5.491 11.3975 -0.283519 -0.235589 -0.29028 -0.570924 9.0742 -0.0249235 3.81845 0.646185 0.350058 -0.678163
-14.2961 1.2665 6.91937 -0.935613 -0.192945 -0.103115 -0.777778 9.08009 -0.0801709 4.92791 0.772764 -0.433906 -0.463208
-12.997 -6.8425 12.0225 0.164346 -0.207462 0 -0.0888889 9.084 0.101263 4.0499 -0.0988507 -0.649519 -0.753892
-9.38725 -12.8335 4.848 0.261744 -0.118296 0 -0.866667 9.10192 0.151053 2.53344 -0.81048 -0.573301 0.120201
-11.3038 1.21575 6.47525 -0.438687 0.203199 -0.582518 -0.155556 9.10383 0.758637 4.92791 -0.737326 -0.117511 -0.665238
-9.25097 -12.0777 6.85331 0.759213 -0.0643302 0 -0.866667 9.1193 0.612397 2.7999 -0.607147 -0.474329 0.637483
-7.027 -3.47463 10.7847 -0.283751 0.16475 0 -0.0888889 9.17295 0.461161 3.54632 0.95162 -0.28808 0.10691
-4.847 -10.291 6.45038 0.037914 0.0778079 0 -0.288889 9.2073 0.301707 2.81919 0.00957401 -0.100793 0.994861
3 117 169 172
3 128 153 89
3 53 105 111
3 53 111 91
3 105 162 156
3 91 111 159
3 91 169 117
3 106 55 117
3 55 91 117
3 167 168 112
3 113 168 128
3 66 113 128
3 12 33 10
3 33 66 30
3 33 30 10
3 66 89 30
3 10 30 32
3 91 55 53
3 32 9 10
3 4 2 0
3 2 9 15
3 37 28 15
3 63 126 84
3 84 145 191
3 85 119 56
3 112 64 107
3 12 10 4
3 3 0 5
3 1 5 0
3 2 7 0
3 2 15 7
3 75 110 127
3 110 84 170
3 56 51 85
3 56 23 51
3 11 29 27
3 16 5 13
3 13 31 36
3 36 31 76
3 31 13 35
3 35 81 71
3 13 22 35
3 81 35 68
3 81 68 118
3 197 123 142
3 197 160 123
3 118 195 189
3 194 150 190
3 150 194 148
3 98 150 93
3 148 93 150
3 150 98 130
3 70 98 61
3 29 78 70
3 43 29 16
3 43 16 60
3 60 16 36
3 90 43 60
3 124 171 90
3 76 97 115
3 137 116 187
3 160 187 116
3 143 120 78
3 143 183 120
3 78 120 70
3 198 155 182
3 182 155 90
3 179 103 109
3 58 109 103
3 135 180 132
3 157 109 101
3 38 58 17
3 58 49 17
3 121 102 178
3 45 19 73
3 79 144 86
3 20 41 39
3 135 132 95
3 17 18 38
3 39 18 20
3 74 24 25
3 74 59 96
3 59 45 94
3 125 96 59
3 96 164 149
3 104 74 96
3 83 104 141
3 83 133 100
3 142 123 71
3 111 156 159
3 153 128 188
3 65 89 105
3 65 105 53
3 111 105 156
3 53 55 32
3 32 26 9
3 26 32 55
3 63 26 55
3 63 55 106
3 77 112 113
3 77 113 66
3 113 112 168
3 64 77 33
3 64 33 34
3 34 33 12
3 66 33 77
3 32 52 53
3 65 53 52
3 65 52 30
3 65 30 89
3 30 52 32
3 63 37 26
3 26 37 15
3 26 15 9
3 84 40 28
3 84 28 47
3 40 84 75
3 84 47 63
3 63 47 37
3 37 47 28
3 181 177 167
3 119 140 177
3 140 119 85
3 119 177 181
3 88 56 119
3 88 119 139
3 88 139 107
3 107 139 181
3 107 181 112
3 181 139 119
3 167 112 181
3 50 88 57
3 107 57 88
3 12 24 34
3 34 24 57
3 34 57 64
3 64 57 107
3 56 88 50
3 56 50 23
3 14 24 12
3 6 27 23
3 6 14 12
3 0 6 4
3 4 6 12
3 3 6 0
3 13 5 8
3 8 5 1
3 8 1 7
3 22 13 8
3 7 21 8
3 8 21 22
3 40 54 21
3 28 40 7
3 7 40 21
3 92 54 40
3 75 92 40
3 92 127 99
3 127 92 75
3 118 68 99
3 118 99 127
3 195 118 186
3 186 118 127
3 186 127 110
3 110 170 186
3 191 170 84
3 85 93 148
3 85 148 140
3 140 148 177
3 51 93 85
3 11 6 3
3 6 11 27
3 29 11 16
3 16 11 3
3 16 3 5
3 97 76 62
3 31 62 76
3 108 69 71
3 71 69 35
3 35 69 62
3 35 62 31
3 62 69 97
3 97 69 108
3 97 108 152
3 68 35 22
3 68 22 44
3 44 22 21
3 92 99 54
3 54 99 44
3 54 44 21
3 44 99 68
3 150 130 190
3 120 130 70
3 130 120 173
3 130 173 190
3 78 29 43
3 13 36 16
3 155 78 90
3 90 78 43
3 124 90 114
3 174 171 124
3 124 114 174
3 114 184 174
3 115 184 114
3 115 97 136
3 152 136 97
3 108 137 147
3 71 116 137
3 71 137 108
3 108 147 152
3 163 155 198
3 192 143 163
3 143 192 183
3 78 155 163
3 78 163 143
3 109 166 179
3 178 102 103
3 178 103 179
3 144 158 86
3 86 158 138
3 135 86 138
3 135 138 180
3 132 180 185
3 122 151 157
3 185 151 129
3 129 151 87
3 95 129 87
3 157 151 185
3 132 185 129
3 132 129 95
3 122 87 151
3 80 87 122
3 101 122 157
3 67 122 101
3 58 38 67
3 58 67 101
3 58 101 109
3 17 49 48
3 17 48 19
3 19 48 73
3 48 49 102
3 103 102 49
3 103 49 58
3 48 102 73
3 73 102 121
3 94 45 73
3 73 165 131
3 131 165 176
3 94 131 125
3 125 131 176
3 121 165 73
3 73 131 94
3 141 154 175
3 104 149 154
3 104 154 141
3 100 134 82
3 82 134 144
3 6 24 14
3 20 23 42
3 20 42 41
3 41 72 39
3 39 72 95
3 72 41 86
3 135 95 86
3 86 95 72
3 38 18 46
3 46 18 39
3 46 39 95
3 67 38 80
3 67 80 122
3 87 80 46
3 87 46 95
3 46 80 38
3 20 6 23
3 6 20 18
3 6 18 17
3 17 19 6
3 6 19 25
3 24 6 25
3 164 96 125
3 104 24 74
3 104 83 24
3 57 100 50
3 50 100 82
3 83 100 57
3 83 57 24
3 50 82 42
3 50 42 23
3 162 105 146
3 153 146 89
3 146 105 89
3 169 91 159
3 161 106 117
3 117 172 161
3 188 128 168
3 89 66 128
3 10 9 2
3 10 2 4
3 106 161 126
3 63 106 126
3 112 77 64
3 7 15 28
3 75 84 110
3 142 118 189
3 189 197 142
3 81 118 142
3 51 27 61
3 51 61 93
3 93 61 98
3 98 70 130
3 51 23 27
3 27 29 61
3 70 61 29
3 60 114 90
3 76 60 36
3 60 76 114
3 160 116 123
3 116 71 123
3 142 71 81
3 90 171 182
3 114 76 115
3 178 165 121
3 41 79 86
3 42 79 41
3 19 45 25
3 74 25 59
3 59 25 45
3 94 125 59
3 104 96 149
3 141 133 83
3 42 82 79
3 79 82 144
3 1 0 7
