ply
format ascii 1.0
comment Generated by PyMesh
element vertex 200
property float x
property float y
property float z
property float charge
property float ddc
property float hbond
property float hphob
property float rho
property float si
property float theta
property float nx
property float ny
property float nz
element face 335
property list uchar int vertex_indices
end_header
-15.3011 -6.19775 12.604 0.50108 0 -0.194779 -0.177778 1e-08 -0.206937 2.22045e-16 -0.272386 -0.641142 -0.717456
-15.8385 -6.69825 13.663 0.586543 0.0859065 0.523724 -0.177778 1.28871 -0.999858 5.09448 -0.370887 -0.574621 -0.729557
-16.9878 -6.00616 12.5084 0.16828 -0.392526 0 -0.177778 1.70024 -0.268516 2.22045e-16 0.0390774 -0.970228 -0.23902
-15.803 -4.925 11.1187 -0.006921 -0.332042 -0.811647 -0.177778 2.01938 -0.25577 1.20161 0.354256 -0.763653 -0.539757
-14.5334 -8.09988 12.9789 1 -0.266228 0 -0.866667 2.08519 0.0769332 3.94092 -0.416646 -0.127902 -0.900026
-13.6006 -5.50238 11.3686 0.099116 -0.078014 0 -0.0888889 2.21392 -0.327554 2.25454 -0.430903 -0.636383 -0.639796
-15.4591 -7.77588 13.7755 0.861067 -0.357092 0.088854 -0.773651 2.43671 -0.734937 4.54137 -0.501152 0.0173468 -0.865186
-17.0045 -6.579 13.7055 0.209189 0.150832 0.0484967 -0.177778 2.46157 0.0532711 5.55266 -0.372483 -0.798344 -0.473185
-13.3403 -7.75063 12.6695 0.488417 0.102051 0 -0.477887 2.50209 0.309244 3.36289 -0.078355 -0.532924 -0.842527
-16.4895 -7.686 14.14 0.249945 -0.27813 0 -0.866667 2.56424 0.0837004 4.94669 -0.666855 -0.076441 -0.741257
-17.401 -6.03675 11.4762 0.108734 -0.471281 0 -0.16549 2.81249 -0.137755 0.359928 0.51537 -0.855702 0.0465509
-18.333 -6.3345 12.108 0.091576 -0.394091 -0.120039 -0.0912609 3.14166 0.282037 0.0717397 0.250826 -0.908366 0.3346
-15.2399 -4.01038 10.1786 0.048477 -0.152403 0.0615469 -0.0972704 3.44676 -0.428873 1.47556 0.0501641 -0.892009 -0.449225
-15.4358 -9.10581 13.2952 0.96659 -0.314351 0 -0.866667 3.47309 -0.179197 4.29357 -0.419749 0.28432 -0.861959
-14.4446 -4.32575 10.8495 -0.113263 -0.0825333 -0.487567 -0.132564 3.5283 -0.99988 1.70948 -0.216204 -0.790347 -0.573243
-12.4315 -8.2485 13.1453 0.53482 0.169691 0 -0.483678 3.64235 -0.394484 3.44867 0.145432 -0.269293 -0.952014
-16.891 -8.604 14.5685 0.296941 0.339582 0 -0.866667 3.65399 -0.637084 4.89564 -0.911108 0.276913 -0.30529
-16.623 -4.8675 9.69606 0.265922 -0.33469 0.0800778 -0.132375 3.66243 -0.580168 1.11441 0.79169 -0.538524 -0.288476
-12.997 -6.8425 12.0225 0.164346 0.0743771 0 -0.0888889 3.66878 0.101263 2.88809 -0.0988507 -0.649519 -0.753892
-12.9268 -5.85825 10.0618 0.066468 -0.198433 0 -0.0888889 3.72666 0.523431 2.30375 -0.698661 -0.694381 -0.17236
-12.3375 -6.3815 11.3695 0.125123 -0.140365 0 -0.0888889 3.75284 -0.0946285 2.6544 -0.259074 -0.89831 -0.354851
-13.842 -9.499 12.3448 0.385083 -0.263882 0.846334 -0.866667 3.76972 0.583064 3.90329 0.114291 0.198146 -0.973486
-19.1028 -6.053 12.8455 0.0926913 -0.290087 -0.218172 -0.149494 3.84244 -0.584342 6.13346 0.136644 -0.958058 0.251901
-18.6523 -6.01937 14.132 0.176105 -0.184748 0 0.0998822 4.02549 -0.501133 5.78827 0.0278223 -0.975824 -0.216778
-13.5747 -4.53587 9.77962 0.055301 -0.171716 0 -0.0888889 4.07394 -0.568209 1.93259 -0.68619 -0.688193 -0.235655
-17.0825 -7.7875 15.585 0.30018 0.214668 0 -0.191002 4.12948 -0.858649 5.0845 -0.834138 -0.0571497 -0.548587
-17.8043 -6.68175 10.2825 0.213745 -0.363948 0 -0.0888889 4.22797 0.461547 0.499618 0.530315 -0.818463 0.221099
-17.911 -6.2715 15.196 0.204766 0.0693855 0 1 4.23297 -0.999889 5.47835 -0.413333 -0.739608 -0.531165
-17.1159 -5.79738 9.5235 0.256873 -0.367724 0 -0.160835 4.26202 0.0971588 0.825179 0.853315 -0.519417 -0.0453887
-19.261 -6.84125 11.6965 -0.243992 -0.307675 0 -0.0888889 4.27625 0.277998 0.149329 0.368084 -0.864345 0.342669
-16.9587 -9.418 13.788 0.235878 -0.304124 0 -0.866667 4.39287 0.382773 4.65025 -0.698075 0.434666 -0.568996
-11.4593 -7.06425 12.5245 0.36085 0.0605909 0 -0.534173 4.50965 -0.845022 3.05459 -0.0430158 -0.6673 -0.743546
-15.8931 -3.66613 9.317 0.0168946 -0.211766 0.787115 -0.16315 4.58145 -0.999886 1.38428 0.474484 -0.829969 -0.293286
-12.061 -6.426 9.85625 0.0687357 -0.175589 0 -0.0888889 4.78222 0.594472 2.47739 -0.196044 -0.978588 -0.0627064
-12.1716 -9.38762 13.3766 0.192425 -0.207231 -0.0349964 -0.858767 4.83341 -0.999812 3.52603 0.174566 0.148977 -0.97331
-20.213 -6.25775 13.0215 0.18907 -0.247798 0 -0.80846 4.985 -0.856385 6.11208 0.370986 -0.88433 0.283425
-17.4824 -9.63325 15.3156 0.240497 -0.253744 0 -0.866667 5.05658 -0.876771 4.90276 -0.740196 0.487666 -0.462917
-13.1315 -5.173 8.925 0.0186621 -0.150368 0 -0.0888889 5.06971 0.513889 2.05773 -0.755563 -0.598811 -0.265611
-14.5136 -10.6986 12.1084 0.0093171 -0.263352 -0.611101 -0.794638 5.1647 0.104646 4.08254 -0.118791 0.560971 -0.819268
-17.8437 -7.97316 16.2629 0.254598 -0.0988662 0 0.717809 5.16556 -0.731524 5.24323 -0.424628 -0.21275 -0.880016
-10.918 -6.34381 11.3474 0.0814103 0.128382 0 -0.674742 5.17301 -0.585778 2.78438 -0.0343879 -0.954799 -0.295256
-15.3629 -10.7626 12.8304 0.136983 -0.286209 -0.394883 -0.790553 5.19539 -0.999862 4.24679 -0.332311 0.671036 -0.662782
-14.9088 -3.36075 8.43425 0.00988187 -0.139403 0 -0.0888889 5.33737 -0.527912 1.54856 0.0743413 -0.974183 -0.213168
-12.9963 -10.7945 12.6664 -0.0510023 -0.238278 0.0462799 -0.793793 5.3499 -0.562432 3.82217 0.319079 0.427744 -0.845709
-16.8458 -10.3915 13.2823 0.230086 -0.322998 0 -0.901769 5.3813 -0.277064 4.4891 -0.0914488 0.806767 -0.58375
-17.0427 -5.50575 8.13175 0.139628 -0.291396 0.0189671 -0.0888889 5.40329 -0.731275 0.972708 0.914394 -0.404824 0.000975317
-18.7805 -6.90188 15.6709 0.205645 -0.0944804 0 1 5.40726 -0.444014 5.52347 0.146899 -0.741063 -0.655169
-11.9108 -6.32387 8.77262 0.0522473 -0.0877337 0 -0.0888889 5.43284 0.999847 2.34094 -0.348543 -0.871239 -0.345631
-13.9991 -3.79312 8.62912 0.20013 -0.113954 0 -0.0888889 5.44368 -0.509045 1.74591 -0.539987 -0.798588 -0.265839
-10.6558 -8.67522 13.3047 -0.123091 -0.0942951 0 -0.710011 5.47554 -0.612036 3.28928 -0.176408 -0.207952 -0.9621
-17.4675 -6.8385 8.893 0.0557223 -0.294197 0 -0.0888889 5.52894 0.738786 0.733336 0.745376 -0.6652 0.0438689
-16.0777 -3.76875 8.203 0.0361967 -0.237532 0 -0.0888889 5.59475 -0.514211 1.30568 0.711117 -0.702398 -0.0308115
-20.324 -6.3865 14.3372 0.221022 -0.169445 0 1 5.74929 -0.999791 5.87718 0.499942 -0.811387 -0.302835
-20.79 -7.24388 12.0931 0.140248 -0.234036 0 -0.610956 5.90636 -0.22274 6.14766 0.580424 -0.770568 0.263312
-19.3347 -7.254 9.89163 0.152654 -0.260319 0.287924 -0.63516 5.90797 -0.651943 0.365577 0.48933 -0.816662 0.305973
-20.3315 -7.74131 10.5953 0.199796 -0.241228 0.0211574 -0.577367 6.05634 -0.0744587 0.365577 0.524645 -0.768145 0.367016
-18.6239 -7.34106 8.705 0.0570087 -0.229135 0 -0.0888889 6.12401 0.0479925 0.733336 0.53879 -0.830792 0.139607
-18.3009 -10.4878 14.4353 0.217073 -0.288915 0 -1 6.22726 -0.36447 4.90276 -0.351694 0.898683 -0.262068
-18.4521 -10.3144 15.4754 0.193447 -0.258023 0 -0.944124 6.25233 -0.902786 4.90276 -0.275903 0.864479 -0.420183
-12.4902 -5.07987 7.84025 0.2066 -0.0846357 0 -0.0888889 6.33329 -0.109436 2.05773 -0.52891 -0.777561 -0.340077
-9.68125 -7.01875 11.9342 0.185112 -0.0235969 0 -0.777778 6.38368 -0.71361 2.78438 -0.393483 -0.648419 -0.651709
-15.234 -11.3053 11.3237 -0.52401 -0.297256 -0.342352 -0.777778 6.3906 0.190645 4.08254 -0.100538 0.894178 -0.436278
-10.4118 -6.27056 9.62613 0.105906 0.144991 0 -0.0888889 6.45463 0.377422 2.47739 0.23397 -0.959916 -0.154338
-16.9635 -5.543 7.033 -0.11205 -0.269766 0.573641 -0.0888889 6.50552 -0.596404 0.972708 0.878562 -0.357826 0.316369
-14.8453 -3.09875 7.2685 -0.106071 0.0752473 0 -0.0888889 6.53388 0.173275 1.54856 0.063646 -0.38891 -0.919075
-9.599 -7.886 12.478 0.0152166 -0.0398521 0 -0.777778 6.5439 -0.714466 3.28928 -0.444608 -0.470896 -0.761958
-10.6073 -10.0638 12.9993 -0.544387 -0.155555 -0.00833951 -0.777778 6.57887 0.238591 3.28928 -0.00148864 0.236394 -0.971656
-17.37 -6.47 7.5005 -0.192306 -0.254864 -0.747237 -0.695038 6.60136 0.15415 0.972708 0.832502 -0.537503 0.13428
-11.7086 -11.227 12.6416 -0.43896 -0.198341 -0.835421 -0.777778 6.70852 -0.400173 3.82217 0.155044 0.504703 -0.849256
-16.3521 -11.4514 11.8585 -0.0251259 -0.296178 0 -0.892942 6.74379 -0.62583 4.24679 0.0602094 0.903033 -0.42533
-9.37288 -6.32125 10.879 -0.241774 0.052585 0 -0.777778 6.78773 -0.0339969 2.78438 0.00891663 -0.765131 -0.643813
-20.6695 -7.0855 15.0363 0.123762 -0.163414 -0.585066 -0.0157454 6.79653 -0.757273 5.87718 0.67072 -0.488536 -0.558093
-20.0229 -7.55125 15.8363 0.178879 -0.14912 -0.317033 0.147612 6.81885 -0.207275 5.52347 0.562908 -0.387783 -0.729903
-18.04 -10.3495 12.4425 0.180204 -0.327938 0 -1 6.84183 0.790245 4.4891 -0.0188837 0.93446 -0.355567
-16.4112 -4.2905 7.04475 -0.010762 -0.256319 0.812023 -0.0888889 6.90813 -0.628653 1.30568 0.838796 -0.44615 0.312044
-19.545 -7.992 16.6395 0.294261 -0.106102 -0.347605 0.404067 6.90814 -0.999927 5.52347 0.269309 -0.335886 -0.902581
-18.8542 -9.37125 16.6077 0.147958 -0.171086 0 -0.866667 6.92472 -0.774815 5.24323 -0.0286449 0.379911 -0.924579
-17.2897 -10.9758 11.8864 0.274118 -0.31595 0 -1 6.95832 0.0577259 4.4891 0.307248 0.871201 -0.382894
-13.621 -3.619 7.156 -0.00765367 0.0648174 0 -0.0888889 6.97448 0.26688 1.74591 -0.581425 -0.365319 -0.726971
-15.773 -3.4955 6.645 -0.114715 -0.220853 0 -0.151249 7.20561 -0.0697984 1.30568 0.923786 -0.380056 0.0466609
-10.3611 -5.92944 7.93031 0.0380817 -0.109313 0 -0.0888889 7.24022 0.163354 2.34094 0.078183 -0.982644 -0.168221
-21.936 -7.92137 12.5278 0.265757 -0.188938 0 -1 7.30681 -0.340597 6.14766 0.511917 -0.808369 0.290657
-8.998 -8.733 12.5118 -0.0739477 -0.0633487 0 -0.777778 7.31411 -0.787732 3.28928 -0.600919 -0.349797 -0.718706
-19.324 -10.4045 14.811 0.166069 -0.271777 0 -1 7.32034 -0.157377 4.90276 0.125617 0.949726 -0.286775
-13.0511 -12.0589 11.1349 -0.266539 -0.215156 0 -0.777778 7.33665 0.257586 3.82217 0.334992 0.609531 -0.718507
-19.343 -10.0887 16.0842 0.0367197 -0.233769 0 -0.959427 7.35473 -0.999899 4.90276 0.269278 0.796883 -0.540802
-18.4643 -7.255 7.23925 -0.370103 -0.192052 -0.530836 -0.632871 7.50428 -0.443081 0.733336 0.51067 -0.841295 0.17731
-14.9095 -11.794 10.3015 -0.38135 -0.20956 -0.0268627 -0.777778 7.56916 0.773584 4.08254 0.13334 0.56375 -0.815111
-8.79925 -7.947 11.7245 -0.0488977 -0.0515845 0 -0.777778 7.64439 0.277138 3.28928 -0.539989 -0.402606 -0.739134
-21.5989 -7.74388 13.9134 0.105045 -0.158814 -0.0787328 -0.922018 7.65912 -0.280303 5.87718 0.659801 -0.707421 -0.253412
-13.7907 -2.59575 7.293 -0.043938 0.117975 0 -0.0888889 7.70255 -0.242704 1.54856 -0.0844454 0.0670477 -0.99417
-20.1845 -8.6605 9.077 0.175931 -0.197821 0 -1 7.74209 0.901947 0.365577 0.476436 -0.824735 0.304665
-19.2892 -10.6217 13.267 0.17298 -0.270072 0 -1 7.76335 0.330198 4.4891 -0.334676 0.910521 -0.242781
-8.95475 -10.2674 13.0433 -0.145372 0.0392976 -0.348853 -0.777778 7.8201 -0.051276 3.28928 -0.123949 -0.443875 -0.887475
-21.3273 -8.8025 9.55481 0.264206 -0.149038 0 -1 7.8453 -0.0240967 0.365577 0.2227 -0.958482 0.178095
-14.9106 -1.80275 7.49563 -0.306126 0.122572 0 -0.0888889 7.85126 -0.551079 1.54856 -0.00256586 0.0953149 -0.995444
-11.244 -12.127 12.0522 -0.109208 -0.183775 0 -0.777778 7.88037 0.314558 3.82217 0.665982 0.292855 -0.686079
-21.7401 -8.90375 10.7118 0.347503 -0.157416 0 -1 7.88637 0.945378 0.365577 0.36967 -0.912761 0.173817
-10.486 -11.3888 12.7402 -0.537483 0.129306 -0.133567 -0.777778 7.9344 0.266172 3.82217 0.450092 -0.105326 -0.886749
-11.1451 -5.506 7.06925 0.081587 -0.108495 0 -0.100888 7.94118 -0.259259 2.05773 -0.383129 -0.923164 -0.031305
-8.394 -5.65562 10.7829 -0.297909 0.113597 0 -0.563909 7.97538 -0.183207 2.78438 0.495724 -0.389932 -0.776022
-16.3331 -11.9799 10.336 0.035176 -0.217127 -0.599444 -0.798871 8.01499 0.0823546 4.08254 0.25465 0.623967 -0.738795
-15.9136 -1.95187 7.181 -0.292536 0.168172 0 -0.0888889 8.10368 -0.591677 1.54856 0.618773 0.102756 -0.77882
-15.8263 -4.70075 6.05 -0.0799593 -0.25349 0 -0.288889 8.13285 -0.469468 1.30568 0.445854 -0.386268 0.807472
-17.048 -7.02975 6.08975 -0.476217 -0.212079 0 -0.777778 8.15288 0.635334 0.972708 0.706083 -0.625624 0.331724
-16.0704 -5.72713 5.64337 -0.140468 -0.22915 -0.360001 -0.537833 8.16763 -0.0838047 0.972708 0.544413 -0.522051 0.656565
-18.9442 -11.0352 11.6637 0.331355 -0.24844 0 -1 8.21816 0.380992 4.4891 -0.371316 0.846535 -0.381449
-12.3745 -3.36175 7.0435 0.259066 0.166755 0.820334 -0.0888889 8.25221 -0.0846172 1.74591 0.00283395 0.46792 -0.883766
-20.1265 -9.2905 16.176 0.276374 -0.185394 -0.870462 -0.262424 8.27069 -0.889417 5.24323 0.611254 0.245662 -0.752342
-8.99281 -5.18831 9.17241 0.00358713 0.144341 0 -0.0888889 8.29601 -0.347794 2.47739 0.596314 -0.785419 -0.165914
-7.97237 -6.88225 11.0336 -0.167191 0.0854946 0 -0.777778 8.30432 0.191328 2.78438 -0.00398552 -0.120202 -0.992741
-12.6431 -4.67812 5.88588 -0.0220906 -0.244998 0.162576 -0.25208 8.33437 -0.0594895 2.05773 -0.562668 0.507152 0.652841
-21.2502 -8.50362 14.8431 -0.296657 -0.1589 -0.838733 -0.177778 8.34107 -0.200459 5.87718 0.671974 -0.133546 -0.728434
-20.1338 -8.74375 7.88375 0.118923 -0.134361 0 -1 8.34252 0.766052 0.365577 0.446913 -0.885445 -0.127498
-19.3284 -7.98259 6.64594 -0.32721 -0.140625 0.000629393 -0.778167 8.39284 -0.0266087 0.733336 0.400781 -0.916003 0.0177111
-16.5045 -2.70075 6.00325 -0.242911 0.214978 0 -0.0888889 8.46202 -0.280207 1.30568 0.742702 0.574164 -0.344571
-9.86438 -5.89712 6.79975 0.11479 -0.145684 0 -0.155556 8.47551 -0.210574 2.34094 -0.219346 -0.885478 0.409654
-20.4439 -10.5723 14.3776 0.139374 -0.190061 0 -1 8.53284 0.0620823 4.90276 -0.1757 0.687899 -0.704219
-22.3465 -8.49375 14.0885 -0.068124 -0.117065 0 -0.177778 8.73237 -0.569041 5.87718 0.588423 -0.468957 -0.658663
-20.4977 -9.66825 15.1231 0.138002 -0.21297 -0.771219 -0.31148 8.74056 0.0933316 4.90276 0.461489 0.593141 -0.659705
-14.434 -3.972 5.968 -0.105477 -0.280993 0 -0.288889 8.77987 0.249956 1.30568 0.435753 0.731254 0.524773
-13.9409 -12.787 10.2555 -0.370037 -0.136758 0 -0.777778 8.78414 0.999792 3.82217 0.321426 0.100952 -0.941538
-8.01056 -9.44756 11.6484 -0.0895143 -0.0299899 0 -0.777778 8.80779 0.576689 3.28928 -0.471068 -0.490435 -0.73319
-11.7505 -12.7638 11.138 -0.053411 -0.150701 0 -0.777778 8.816 0.999888 3.82217 0.546991 0.154282 -0.822799
-17.642 -11.1625 10.057 0.112985 -0.234439 0 -1 8.83066 0.999901 4.4891 0.0708431 0.739224 -0.669724
-12.6915 -2.2385 7.26463 0.0331868 0.13647 0.0298436 -0.0888889 8.8587 0.230133 1.54856 0.235183 0.158478 -0.958944
-23.2985 -8.6565 12.6355 0.145161 0.0971978 0 -1 8.85872 0.171649 6.14766 -0.149108 -0.988821 -0.000164651
-8.771 -5.32425 8.028 -0.0419467 -0.160516 0 -0.155556 8.9444 -0.086949 2.34094 0.343575 -0.856788 0.384539
-13.5662 -1.33525 7.15225 -0.2458 0.108062 0 -0.0888889 8.9906 0.857317 1.54856 -0.012148 0.0802792 -0.996698
-7.54637 -7.93881 11.1088 -0.25574 -0.0745737 -0.0228609 -0.777778 9.04041 -0.0986617 3.28928 -0.344625 -0.0752006 -0.935723
-15.6134 -13.1465 10.1267 -0.0775537 -0.109026 -0.157177 -0.941284 9.10386 0.300933 4.08254 0.135047 0.00100278 -0.990839
-17.0565 -12.6155 9.80875 0.217744 -0.13328 0 -1 9.11285 0.619101 4.08254 0.274633 0.11672 -0.954439
-22.8943 -9.02575 11.4333 0.362197 -0.140225 0 -1 9.13326 0.631109 6.14766 0.150304 -0.942415 0.298769
-11.1761 -5.69637 5.8395 0.153615 -0.153865 -0.385073 -0.155556 9.18596 -0.384973 2.05773 -0.38488 -0.784112 0.486863
-15.452 -0.5805 7.51525 -0.61469 0.114417 -0.0869372 -0.423624 9.18819 -0.759473 1.54856 0.465199 -0.210351 -0.859851
-17.9305 -7.7 5.6845 -0.513793 -0.146942 0 -0.777778 9.20728 0.787553 0.733336 0.473958 -0.878643 0.0578875
-16.272 -6.41025 4.868 -0.196917 -0.147112 -0.260354 -0.537218 9.22048 0.0206288 0.972708 0.376086 -0.90874 0.180975
-16.6407 -1.46219 6.47369 -0.342837 0.141001 0 -0.0888889 9.23007 -0.446977 1.54856 0.652655 -0.0343063 -0.756878
-13.0988 -13.906 10.6888 -0.210775 -0.108964 0 -0.777778 9.23746 0.412374 3.82217 0.488421 -0.186139 -0.852524
-10.7312 -12.692 13.1929 -0.33857 0.146825 0 -0.777778 9.25274 -0.782297 3.82217 0.79296 -0.188557 -0.579363
-7.28 -5.491 11.3975 -0.283519 0.165989 -0.29028 -0.570924 9.25827 -0.0249235 2.78438 0.646185 0.350058 -0.678163
-8.79275 -11.3438 13.9897 -0.174024 0.0645795 -0.196536 -0.888956 9.26251 -0.943984 3.28928 0.194507 -0.423554 -0.884742
-20.5223 -11.3789 13.7464 0.202422 -0.178655 0 -1 9.28772 -0.702519 4.4891 -0.520897 0.660354 -0.540924
-11.4605 -13.5615 11.6944 -0.0795003 0.136027 0 -0.777778 9.37459 0.999811 3.82217 0.788617 -0.285382 -0.544646
-13.5205 -4.28575 6.30813 -0.0468763 -0.269129 0.712136 -0.0888889 9.38417 0.810863 1.30568 -0.0219807 -0.0487423 0.998569
-11.3306 -3.17412 7.44688 0.137136 0.172173 0.103752 -0.0888889 9.38696 -0.73938 1.74591 0.104171 0.534159 -0.838941
-7.6325 -10.8682 13.6713 0.036259 -0.00608937 0.490042 -0.995589 9.4024 -0.999878 3.28928 -0.285211 -0.591521 -0.75416
-11.422 -3.9135 6.5525 0.0452527 0.200801 0.661268 -0.122222 9.45752 -0.403491 1.74591 -0.16872 0.857403 -0.486204
-20.0719 -11.826 12.3647 0.259031 -0.181571 0 -1 9.45955 0.068851 4.4891 -0.660231 0.616466 -0.429027
-21.5298 -9.17 7.988 0.0304505 -0.10454 0 -1 9.46732 0.691841 0.365577 0.129959 -0.990607 -0.042527
-7.484 -4.46 10.931 -0.311672 0.150981 0 -0.0888889 9.48519 -0.0841359 2.78438 0.864025 -0.387214 -0.321755
-7.29313 -10.458 12.7794 -0.092495 0.022121 0 -0.777778 9.5133 -0.223863 3.28928 -0.312423 -0.761019 -0.568543
-14.386 -5.0025 5.6365 0.057943 -0.228729 0 -0.288889 9.66142 -0.0728844 1.30568 0.0248452 -0.484975 0.874175
-18.8921 -11.6245 10.3421 0.378147 -0.185708 0 -1 9.66613 0.788944 4.4891 -0.543557 0.608633 -0.578024
-23.4648 -9.215 10.282 0.315044 -0.0873943 0 -1 9.69086 0.839958 6.14766 -0.116334 -0.992464 -0.0384874
-19.3487 -8.19125 5.2865 -0.36462 -0.0916453 0 -0.777778 9.76835 0.64919 0.733336 0.123666 -0.9825 -0.139282
-14.8775 -6.392 4.7815 -0.0877703 -0.181561 0 -0.288889 9.78252 0.139323 0.972708 -0.0701895 -0.726398 0.68368
-21.5238 -10.0594 14.7436 0.0140825 -0.129688 0 -0.302471 9.78312 -0.347971 5.87718 0.230592 0.180458 -0.95617
-23.149 -9.1075 13.7925 0.056889 -0.030703 0 -0.177778 9.78514 0.219697 5.87718 -0.118113 -0.489313 -0.864073
-16.8978 -2.712 4.73 -0.461127 0.204744 -0.314812 -0.178804 9.79467 -0.161105 1.30568 0.508377 0.854592 -0.105947
-8.68256 -6.43162 6.51638 -0.0343693 -0.158258 0 -0.155556 9.80317 0.146625 2.34094 -0.0584446 -0.72846 0.682591
-23.27 -9.02525 9.075 0.108075 -0.0823751 0 -1 9.85873 0.324712 0.365577 -0.0507863 -0.993967 -0.0972104
-21.3472 -8.6665 6.9135 -0.0288818 -0.0906172 0 -1 9.89805 -0.410649 0.365577 0.279968 -0.926246 -0.252362
-18.0872 -12.0767 9.72775 0.317003 -0.130628 0 -1 9.89948 0.721577 4.4891 -0.144112 0.253934 -0.956425
-11.6453 -4.60388 4.67525 -0.111387 -0.191782 -0.441202 -0.155556 9.90496 -0.624341 2.05773 -0.344569 0.936217 -0.0690706
-14.2193 0.148031 7.53344 -0.511603 0.101754 0 -0.138524 9.92125 -0.276036 1.54856 0.311068 -0.0897668 -0.946139
-17.3774 -1.5455 5.76562 -0.288092 0.153805 0 -0.0888889 9.92933 -0.323729 1.30568 0.666004 0.274949 -0.693428
-9.33337 -12.2767 14.1205 -0.278701 0.084156 -0.396131 -0.777778 9.93993 -0.650019 3.82217 0.303109 -0.244857 -0.920962
-12.6186 -4.56244 4.20325 -0.116365 -0.210117 0 -0.288889 10.0212 -0.571016 2.05773 0.34752 0.929517 0.123401
-7.71931 -4.28869 8.27731 -0.13222 0.164971 0 -0.0993076 10.0939 -0.0666502 2.34094 0.771305 -0.555214 0.311169
-6.354 -6.115 11.122 -0.412697 0.139856 -0.978299 -0.777778 10.0975 0.246731 2.78438 -0.0415489 0.60929 -0.791858
-21.4137 -11.8073 13.9376 0.0435247 -0.132052 -0.314608 -1 10.1636 -0.144449 4.4891 -0.545339 0.442209 -0.712079
-6.6155 -8.35525 10.6219 -0.427657 -0.063136 0 -0.777778 10.1705 0.566945 3.28928 -0.386293 -0.101068 -0.916822
-17.3151 -13.7944 9.69925 0.0670877 -0.101408 0 -1 10.1742 0.114218 4.08254 0.128148 0.0611198 -0.98987
-15.3027 -14.1698 10.387 -0.152064 -0.088294 -0.207425 -0.777778 10.2045 -0.550768 4.08254 0.210353 -0.150234 -0.966013
-12.2754 -6.3125 4.96178 0.037571 -0.180333 -0.160366 -0.263116 10.2476 0.0607669 2.05773 -0.0471689 -0.667561 0.743059
-20.8832 -8.26775 5.65475 -0.328951 -0.0858271 -0.121059 -0.777778 10.2586 -0.165529 0.733336 0.241635 -0.944963 -0.220583
-13.759 -3.865 4.518 -0.180889 -0.222712 0 -0.288889 10.2779 0.457533 1.30568 0.378846 0.906421 0.186753
-13.8022 -6.02612 5.05288 -0.0323285 -0.211373 0 -0.288889 10.2977 -0.344842 2.05773 -0.0436382 -0.470329 0.881412
-12.2655 -0.875687 7.56431 -0.164446 0.115402 0 -0.0888889 10.3177 0.0883847 1.54856 0.187454 0.110914 -0.975991
-11.4115 -2.094 7.95725 0.110277 0.134017 0.411331 -0.0888889 10.3212 -0.791854 1.54856 0.229925 0.169724 -0.958294
-16.6895 -6.5235 3.8545 -0.247934 -0.143088 -0.0845656 -0.266918 10.3224 -0.999905 0.972708 0.290408 -0.875042 0.387254
-13.9121 -14.6616 10.49 -0.52379 -0.0774692 0 -0.777778 10.3652 0.655903 3.82217 0.279298 -0.289262 -0.915598
-7.5055 -4.67975 12.1485 -0.334287 0.21646 0 -0.777778 10.3865 -0.147937 2.78438 0.960251 0.272999 0.0582141
-9.58838 -7.17572 5.35656 -0.0720867 -0.13493 0 -0.155556 10.4233 0.200363 2.34094 -0.517527 -0.689232 0.507076
-7.59244 -11.8614 13.9519 0.163901 -0.066484 0.944132 -1 10.4353 -0.776902 3.28928 -0.370217 -0.0339792 -0.928324
-7.4305 -3.96725 9.99225 -0.231811 0.142654 0 -0.0888889 10.4417 -0.0393035 2.78438 0.787945 -0.604228 -0.118537
-10.6545 -6.58 5.099 -0.231375 -0.132098 -0.785561 -0.155556 10.4514 0.0986189 2.34094 -0.376602 -0.822101 0.426991
-23.98 -8.416 14.069 0.0383617 0.0703404 0 -0.177778 10.4641 -0.0189584 6.14766 -0.801276 -0.42702 -0.419059
-23.3092 -8.954 7.83125 0.126326 -0.07687 0 -1 10.4762 0.406413 0.365577 -0.269986 -0.961625 -0.0488332
-18.3202 -13.137 9.70988 0.36375 -0.0907338 0 -1 10.4835 0.60542 4.08254 -0.0848291 0.0187486 -0.996219
-10.1165 -13.3935 14.048 -0.266568 -0.109369 0 -0.777778 10.5181 -0.77602 3.82217 0.385576 0.0616912 -0.920611
-11.0767 -13.8383 12.7755 -0.120711 0.142539 0 -0.777778 10.5206 0.126826 3.82217 0.819549 -0.0684307 -0.568909
-24.362 -7.525 11.982 0.235323 0.125597 0 -1 10.5435 0.0892188 6.14766 -0.886754 -0.400919 0.230069
-10.554 -3.77 5.878 0.219659 0.197841 0.591795 -0.155556 10.5661 0.0822923 1.74591 -0.292152 0.949918 -0.110922
-7.027 -3.47463 10.7847 -0.283751 0.1711 0 -0.0888889 10.5812 0.461161 2.78438 0.95162 -0.28808 0.10691
-7.5365 -5.956 7.0925 -0.117358 -0.160134 0 -0.155556 10.6172 0.628585 2.34094 0.323885 -0.657443 0.680343
-24.2651 -8.96638 10.8674 0.19289 0.104443 0 -1 10.6175 0.768214 6.14766 -0.64891 -0.734414 0.198877
-10.1385 -3.37 7.203 0.128498 0.17716 0.766552 -0.123149 10.6194 -0.614324 1.74591 -0.168293 0.772069 -0.612851
-24.2743 -7.45813 13.5571 0.058323 0.103474 0 -1 10.6581 0.0498146 6.14766 -0.927345 -0.362319 -0.0935721
3 189 94 161
3 161 94 97
3 126 188 199
3 132 81 126
3 113 114 56
3 114 162 176
3 86 114 135
3 53 89 81
3 53 35 52
3 11 35 29
3 53 29 35
3 55 53 81
3 97 94 55
3 55 91 54
3 50 26 56
3 54 56 26
3 28 26 50
3 28 50 45
3 67 50 86
3 104 67 86
3 152 105 156
3 105 104 136
3 105 136 156
3 104 135 136
3 142 117 92
3 117 83 92
3 92 83 57
3 83 117 119
3 108 112 72
3 72 112 71
3 46 52 23
3 23 2 7
3 10 2 11
3 11 29 10
3 11 2 22
3 2 10 3
3 28 3 10
3 0 2 3
3 24 12 48
3 45 74 51
3 152 156 178
3 133 175 187
3 106 73 77
3 44 30 13
3 73 92 44
3 6 4 13
3 13 9 6
3 3 5 0
3 0 5 8
3 8 5 18
3 48 37 24
3 48 78 37
3 99 80 59
3 116 187 184
3 153 148 106
3 173 190 131
3 101 173 131
3 130 101 87
3 87 101 61
3 77 69 101
3 69 61 101
3 13 21 38
3 61 38 84
3 21 15 34
3 15 4 8
3 31 8 18
3 18 20 31
3 20 18 5
3 33 20 19
3 5 19 20
3 20 33 40
3 88 70 110
3 62 33 47
3 80 109 62
3 127 80 116
3 127 116 196
3 196 116 160
3 169 127 196
3 130 121 182
3 68 98 96
3 98 167 139
3 98 139 96
3 96 139 143
3 151 93 122
3 66 93 98
3 66 34 49
3 65 31 60
3 88 129 122
3 129 110 170
3 170 172 129
3 100 70 109
3 100 110 70
3 109 70 62
3 143 138 123
3 123 138 84
3 172 122 129
3 128 165 179
3 107 125 145
3 164 147 194
3 145 147 107
3 115 159 166
3 115 137 102
3 25 16 36
3 148 171 142
3 126 158 188
3 118 158 126
3 54 91 56
3 56 91 113
3 114 86 56
3 171 117 142
3 117 171 157
3 157 158 118
3 119 117 157
3 119 157 112
3 112 157 118
3 89 112 118
3 81 89 126
3 126 89 118
3 72 71 52
3 52 71 89
3 52 89 53
3 89 71 112
3 35 23 52
3 22 23 35
3 22 35 11
3 55 29 53
3 54 29 55
3 63 45 67
3 63 67 104
3 67 45 50
3 74 63 105
3 74 105 103
3 103 105 152
3 104 105 63
3 106 148 92
3 92 148 142
3 44 92 57
3 30 44 57
3 30 57 36
3 30 36 16
3 58 57 83
3 57 58 36
3 108 85 119
3 85 108 76
3 119 85 83
3 83 85 58
3 58 85 76
3 58 76 36
3 75 39 76
3 39 75 46
3 46 75 72
3 108 72 76
3 76 39 36
3 76 72 75
3 52 46 72
3 7 9 27
3 23 7 27
3 23 27 46
3 46 27 39
3 39 27 25
3 25 27 9
3 25 9 16
3 6 9 1
3 0 1 2
3 7 2 1
3 7 1 9
3 17 3 28
3 12 14 3
3 14 12 24
3 12 3 17
3 42 48 12
3 42 12 32
3 42 32 51
3 51 32 17
3 51 17 45
3 17 32 12
3 28 45 17
3 64 42 79
3 51 79 42
3 152 120 103
3 103 120 79
3 103 79 74
3 74 79 51
3 48 42 64
3 48 64 78
3 144 120 152
3 111 59 78
3 111 144 152
3 175 111 178
3 178 111 152
3 133 111 175
3 44 77 73
3 4 6 1
3 4 1 0
3 8 4 0
3 24 19 5
3 24 5 14
3 14 5 3
3 37 19 24
3 99 111 133
3 111 99 59
3 80 99 116
3 116 99 133
3 116 133 187
3 173 101 130
3 41 61 69
3 41 44 13
3 44 41 69
3 44 69 77
3 38 61 41
3 38 41 13
3 43 84 38
3 43 38 21
3 68 43 34
3 34 43 21
3 31 49 15
3 15 49 34
3 15 8 31
3 20 40 31
3 60 70 88
3 70 40 62
3 40 70 60
3 40 60 31
3 109 80 127
3 184 160 116
3 186 109 169
3 169 109 127
3 150 186 195
3 183 140 150
3 183 150 195
3 174 130 182
3 192 143 139
3 139 167 191
3 141 185 167
3 141 167 98
3 151 146 93
3 98 93 141
3 141 93 146
3 141 146 185
3 82 122 93
3 49 82 93
3 49 93 66
3 31 65 49
3 65 60 88
3 140 100 150
3 100 140 110
3 110 140 170
3 109 186 150
3 109 150 100
3 65 88 82
3 122 82 88
3 49 65 82
3 102 134 95
3 95 134 165
3 111 120 144
3 107 78 90
3 107 90 125
3 125 180 145
3 180 125 179
3 194 147 198
3 198 147 145
3 107 111 78
3 111 107 147
3 111 147 164
3 164 168 111
3 111 168 177
3 120 111 177
3 159 115 120
3 79 102 64
3 64 102 95
3 115 102 79
3 115 79 120
3 64 95 90
3 64 90 78
3 36 39 25
3 189 149 94
3 126 199 193
3 126 193 197
3 126 197 132
3 132 197 154
3 97 154 161
3 154 97 132
3 132 97 81
3 113 91 149
3 113 149 162
3 94 149 91
3 113 162 114
3 114 176 155
3 114 155 135
3 81 97 55
3 55 94 91
3 56 86 50
3 135 104 86
3 119 112 108
3 22 2 23
3 28 10 26
3 54 26 29
3 29 26 10
3 45 63 74
3 92 73 106
3 30 16 9
3 30 9 13
3 163 131 190
3 77 101 124
3 77 124 106
3 106 124 153
3 153 124 163
3 163 124 131
3 101 131 124
3 13 4 21
3 15 21 4
3 37 59 47
3 37 47 19
3 19 47 33
3 33 62 40
3 37 78 59
3 59 80 47
3 62 47 80
3 87 121 130
3 121 87 84
3 87 61 84
3 43 68 84
3 34 66 68
3 68 66 98
3 110 129 88
3 84 138 121
3 121 138 182
3 143 123 96
3 123 84 96
3 96 84 68
3 125 128 179
3 90 128 125
3 166 137 115
3 90 95 128
3 128 95 165
