ply
format ascii 1.0
comment Generated by PyMesh
element vertex 174
property float x
property float y
property float z
property float nx
property float ny
property float nz
element face 296
property list uchar int vertex_indices
end_header
-17.8437 -7.97316 16.2629 -0.424628 -0.21275 -0.880016
-17.0825 -7.7875 15.585 -0.834138 -0.0571497 -0.548587
-18.7805 -6.90188 15.6709 0.146899 -0.741063 -0.655169
-19.545 -7.992 16.6395 0.269309 -0.335886 -0.902581
-18.8542 -9.37125 16.6077 -0.0286449 0.379911 -0.924579
-17.4824 -9.63325 15.3156 -0.740196 0.487666 -0.462917
-17.911 -6.2715 15.196 -0.413333 -0.739608 -0.531165
-16.891 -8.604 14.5685 -0.911108 0.276913 -0.30529
-16.4895 -7.686 14.14 -0.666855 -0.076441 -0.741257
-19.343 -10.0887 16.0842 0.269278 0.796883 -0.540802
-20.0229 -7.55125 15.8363 0.562908 -0.387783 -0.729903
-20.1265 -9.2905 16.176 0.611254 0.245662 -0.752342
-18.4521 -10.3144 15.4754 -0.275903 0.864479 -0.420183
-18.6523 -6.01937 14.132 0.0278223 -0.975824 -0.216778
-18.3009 -10.4878 14.4353 -0.351694 0.898683 -0.262068
-16.9587 -9.418 13.788 -0.698075 0.434666 -0.568996
-20.324 -6.3865 14.3372 0.499942 -0.811387 -0.302835
-15.4591 -7.77588 13.7755 -0.501152 0.0173468 -0.865186
-17.0045 -6.579 13.7055 -0.372483 -0.798344 -0.473185
-15.8385 -6.69825 13.663 -0.370887 -0.574621 -0.729557
-20.6695 -7.0855 15.0363 0.67072 -0.488536 -0.558093
-19.324 -10.4045 14.811 0.125617 0.949726 -0.286775
-20.4977 -9.66825 15.1231 0.461489 0.593141 -0.659705
-15.4358 -9.10581 13.2952 -0.419749 0.28432 -0.861959
-16.8458 -10.3915 13.2823 -0.0914488 0.806767 -0.58375
-21.2502 -8.50362 14.8431 0.671974 -0.133546 -0.728434
-19.1028 -6.053 12.8455 0.136644 -0.958058 0.251901
-19.2892 -10.6217 13.267 -0.334676 0.910521 -0.242781
-14.5334 -8.09988 12.9789 -0.416646 -0.127902 -0.900026
-20.213 -6.25775 13.0215 0.370986 -0.88433 0.283425
-16.9878 -6.00616 12.5084 0.0390774 -0.970228 -0.23902
-15.3011 -6.19775 12.604 -0.272386 -0.641142 -0.717456
-20.4439 -10.5723 14.3776 -0.1757 0.687899 -0.704219
-21.5238 -10.0594 14.7436 0.230592 0.180458 -0.95617
-21.5989 -7.74388 13.9134 0.659801 -0.707421 -0.253412
-18.333 -6.3345 12.108 0.250826 -0.908366 0.3346
-22.3465 -8.49375 14.0885 0.588423 -0.468957 -0.658663
-18.04 -10.3495 12.4425 -0.0188837 0.93446 -0.355567
-20.79 -7.24388 12.0931 0.580424 -0.770568 0.263312
-17.2897 -10.9758 11.8864 0.307248 0.871201 -0.382894
-15.3629 -10.7626 12.8304 -0.332311 0.671036 -0.662782
-17.401 -6.03675 11.4762 0.51537 -0.855702 0.0465509
-13.3403 -7.75063 12.6695 -0.078355 -0.532924 -0.842527
-20.5223 -11.3789 13.7464 -0.520897 0.660354 -0.540924
-16.3521 -11.4514 11.8585 0.0602094 0.903033 -0.42533
-13.842 -9.499 12.3448 0.114291 0.198146 -0.973486
-18.9442 -11.0352 11.6637 -0.371316 0.846535 -0.381449
-20.0719 -11.826 12.3647 -0.660231 0.616466 -0.429027
-19.261 -6.84125 11.6965 0.368084 -0.864345 0.342669
-14.5136 -10.6986 12.1084 -0.118791 0.560971 -0.819268
-21.4137 -11.8073 13.9376 -0.545339 0.442209 -0.712079
-21.936 -7.92137 12.5278 0.511917 -0.808369 0.290657
-23.149 -9.1075 13.7925 -0.118113 -0.489313 -0.864073
-22.4034 -11.3806 14.4312 -0.279148 -0.00970253 -0.960199
-12.4315 -8.2485 13.1453 0.145432 -0.269293 -0.952014
-15.803 -4.925 11.1187 0.354256 -0.763653 -0.539757
-13.6006 -5.50238 11.3686 -0.430903 -0.636383 -0.639796
-12.997 -6.8425 12.0225 -0.0988507 -0.649519 -0.753892
-17.8043 -6.68175 10.2825 0.530315 -0.818463 0.221099
-15.234 -11.3053 11.3237 -0.100538 0.894178 -0.436278
-23.2985 -8.6565 12.6355 -0.149108 -0.988821 -0.000164651
-20.3315 -7.74131 10.5953 0.524645 -0.768145 0.367016
-21.164 -12.614 12.603 -0.847744 0.221375 -0.481999
-17.642 -11.1625 10.057 0.0708431 0.739224 -0.669724
-12.9963 -10.7945 12.6664 0.319079 0.427744 -0.845709
-16.3331 -11.9799 10.336 0.25465 0.623967 -0.738795
-18.8921 -11.6245 10.3421 -0.543557 0.608633 -0.578024
-23.98 -8.416 14.069 -0.801276 -0.42702 -0.419059
-17.1159 -5.79738 9.5235 0.853315 -0.519417 -0.0453887
-21.7095 -13.0495 13.7542 -0.650328 -0.14921 -0.744856
-11.4593 -7.06425 12.5245 -0.0430158 -0.6673 -0.743546
-12.1716 -9.38762 13.3766 0.174566 0.148977 -0.97331
-24.1569 -9.28213 14.6067 -0.65629 -0.196043 -0.728595
-23.42 -10.2725 14.429 -0.470196 -0.275288 -0.83853
-20.6022 -13.328 11.6995 -0.936276 0.084451 -0.340963
-12.3375 -6.3815 11.3695 -0.259074 -0.89831 -0.354851
-23.7349 -11.4009 14.8865 -0.20439 -0.0241314 -0.978592
-22.7603 -12.7945 14.5735 -0.444675 -0.157526 -0.881731
-19.3347 -7.254 9.89163 0.48933 -0.816662 0.305973
-15.2399 -4.01038 10.1786 0.0501641 -0.892009 -0.449225
-14.4446 -4.32575 10.8495 -0.216204 -0.790347 -0.573243
-22.8943 -9.02575 11.4333 0.150304 -0.942415 0.298769
-16.623 -4.8675 9.69606 0.79169 -0.538524 -0.288476
-14.9095 -11.794 10.3015 0.13334 0.56375 -0.815111
-12.9268 -5.85825 10.0618 -0.698661 -0.694381 -0.17236
-10.6558 -8.67522 13.3047 -0.176408 -0.207952 -0.9621
-20.2196 -13.3044 10.6401 -0.761396 0.321536 -0.56293
-13.0511 -12.0589 11.1349 0.334992 0.609531 -0.718507
-21.7401 -8.90375 10.7118 0.36967 -0.912761 0.173817
-17.4675 -6.8385 8.893 0.745376 -0.6652 0.0438689
-21.0245 -13.6438 12.84 -0.882519 -0.299105 -0.362899
-18.0872 -12.0767 9.72775 -0.144112 0.253934 -0.956425
-17.0565 -12.6155 9.80875 0.274633 0.11672 -0.954439
-23.8135 -12.9655 14.8745 -0.0165388 -0.164178 -0.986292
-13.5747 -4.53587 9.77962 -0.68619 -0.688193 -0.235655
-24.2743 -7.45813 13.5571 -0.927345 -0.362319 -0.0935721
-19.4224 -12.7526 9.99325 -0.537361 0.287897 -0.79269
-24.5421 -7.63413 14.8821 -0.897409 -0.127787 -0.422288
-24.362 -7.525 11.982 -0.886754 -0.400919 0.230069
-11.7086 -11.227 12.6416 0.155044 0.504703 -0.849256
-15.6134 -13.1465 10.1267 0.135047 0.00100278 -0.990839
-20.1845 -8.6605 9.077 0.476436 -0.824735 0.304665
-21.3273 -8.8025 9.55481 0.2227 -0.958482 0.178095
-18.6239 -7.34106 8.705 0.53879 -0.830792 0.139607
-25.0569 -9.07125 15.4163 -0.546323 0.134883 -0.826643
-17.0427 -5.50575 8.13175 0.914394 -0.404824 0.000975317
-22.695 -13.8725 14.969 -0.371655 -0.333765 -0.866299
-24.6903 -10.3582 15.2692 -0.331744 0.0426787 -0.942404
-20.9441 -14.2774 14.1104 -0.656228 -0.535194 -0.531913
-10.918 -6.34381 11.3474 -0.0343879 -0.954799 -0.295256
-24.2651 -8.96638 10.8674 -0.64891 -0.734414 0.198877
-15.8931 -3.66613 9.317 0.474484 -0.829969 -0.293286
-24.8075 -12.0948 14.653 0.152374 0.243081 -0.957963
-12.061 -6.426 9.85625 -0.196044 -0.978588 -0.0627064
-10.6073 -10.0638 12.9993 -0.00148864 0.236394 -0.971656
-20.7668 -14.7948 10.9923 -0.989371 -0.0093741 -0.14511
-20.2013 -14.7099 12.4825 -0.897953 -0.43703 0.0518187
-23.4648 -9.215 10.282 -0.116334 -0.992464 -0.0384874
-9.68125 -7.01875 11.9342 -0.393483 -0.648419 -0.651709
-18.3202 -13.137 9.70988 -0.0848291 0.0187486 -0.996219
-17.3151 -13.7944 9.69925 0.128148 0.0611198 -0.98987
-13.1315 -5.173 8.925 -0.755563 -0.598811 -0.265611
-13.9409 -12.787 10.2555 0.321426 0.100952 -0.941538
-9.599 -7.886 12.478 -0.444608 -0.470896 -0.761958
-19.252 -13.9431 9.88231 -0.230642 0.0821338 -0.969566
-24.4695 -6.49 14.027 -0.972331 -0.202944 -0.1157
-24.6031 -6.60281 12.3184 -0.963841 -0.218366 0.152733
-11.7505 -12.7638 11.138 0.546991 0.154282 -0.822799
-14.9088 -3.36075 8.43425 0.0743413 -0.974183 -0.213168
-17.37 -6.47 7.5005 0.832502 -0.537503 0.13428
-15.3027 -14.1698 10.387 0.210353 -0.150234 -0.966013
-24.6623 -7.54462 10.8359 -0.941904 -0.298514 0.153971
-11.244 -12.127 12.0522 0.665982 0.292855 -0.686079
-11.9108 -6.32387 8.77262 -0.348543 -0.871239 -0.345631
-13.9991 -3.79312 8.62912 -0.539987 -0.798588 -0.265839
-10.486 -11.3888 12.7402 0.450092 -0.105326 -0.886749
-24.2787 -14.2273 15.3814 -0.187205 -0.581612 -0.791632
-20.1338 -8.74375 7.88375 0.446913 -0.885445 -0.127498
-16.9635 -5.543 7.033 0.878562 -0.357826 0.316369
-8.998 -8.733 12.5118 -0.600919 -0.349797 -0.718706
-16.0777 -3.76875 8.203 0.711117 -0.702398 -0.0308115
-19.9643 -14.9095 9.72375 -0.551402 0.0766464 -0.830711
-13.0988 -13.906 10.6888 0.488421 -0.186139 -0.852524
-25.9482 -10.5319 15.2934 -0.0906333 0.436551 -0.895103
-25.071 -6.36575 15.7308 -0.961125 -0.0348825 -0.2739
-25.3223 -7.353 16.2712 -0.751181 0.277511 -0.598928
-18.4643 -7.255 7.23925 0.51067 -0.841295 0.17731
-20.1612 -15.324 14.3276 -0.659343 -0.395084 -0.639669
-24.3194 -8.68213 9.49525 -0.684471 -0.726125 -0.0651303
-21.5298 -9.17 7.988 0.129959 -0.990607 -0.042527
-20.5179 -15.9096 11.1258 -0.938621 -0.344245 -0.0220189
-21.8455 -15.0938 14.9732 -0.359799 -0.248848 -0.899233
-25.6367 -13.6027 14.3519 0.157091 -0.424198 -0.89184
-8.95475 -10.2674 13.0433 -0.123949 -0.443875 -0.887475
-23.27 -9.02525 9.075 -0.0507863 -0.993967 -0.0972104
-16.2515 -14.8927 10.0135 0.41567 0.0408365 -0.908598
-26.1826 -11.346 14.5651 0.187801 0.455244 -0.870336
-9.37288 -6.32125 10.879 0.00891663 -0.765131 -0.643813
-16.4112 -4.2905 7.04475 0.838796 -0.44615 0.312044
-8.79925 -7.947 11.7245 -0.539989 -0.402606 -0.739134
-11.4605 -13.5615 11.6944 0.788617 -0.285382 -0.544646
-12.4902 -5.07987 7.84025 -0.52891 -0.777561 -0.340077
-10.4118 -6.27056 9.62613 0.23397 -0.959916 -0.154338
-24.6496 -5.57312 13.2814 -0.915522 -0.399765 -0.0448003
-26.873 -9.08488 16.3076 -0.542181 0.464401 -0.700266
-24.8995 -7.225 9.8345 -0.992452 -0.112955 0.0477527
-14.8453 -3.09875 7.2685 0.063646 -0.38891 -0.919075
-13.9121 -14.6616 10.49 0.279298 -0.289262 -0.915598
-24.994 -5.30963 14.6462 -0.963333 -0.239604 -0.120742
-19.8773 -15.9108 9.7025 -0.574519 -0.335193 -0.746708
-19.3284 -7.98259 6.64594 0.400781 -0.916003 0.0177111
-19.3857 -16.0071 13.5597 -0.890953 -0.26768 -0.36681
-25.0375 -6.1895 10.903 -0.998942 -0.0459705 0.00106772
-10.7312 -12.692 13.1929 0.79296 -0.188557 -0.579363
3 97 168 125
3 95 125 126
3 126 172 131
3 172 165 131
3 131 165 148
3 154 102 88
3 67 72 97
3 60 67 95
3 97 95 67
3 98 126 131
3 110 148 117
3 154 117 148
3 81 51 60
3 137 170 103
3 152 156 112
3 107 72 73
3 107 73 76
3 52 53 73
3 76 73 53
3 38 34 51
3 38 29 16
3 35 29 48
3 38 48 29
3 61 38 51
3 88 102 61
3 61 101 78
3 89 58 103
3 78 103 58
3 68 58 89
3 68 89 105
3 129 89 146
3 93 152 112
3 76 53 93
3 77 93 53
3 77 69 106
3 69 53 50
3 69 50 90
3 90 50 62
3 62 50 47
3 43 32 27
3 32 21 27
3 27 21 14
3 21 32 22
3 11 25 10
3 10 25 20
3 2 16 13
3 13 30 18
3 41 30 35
3 35 48 41
3 35 30 26
3 30 41 55
3 68 55 41
3 31 30 55
3 94 79 134
3 105 158 140
3 108 151 106
3 69 90 108
3 116 90 74
3 74 115 116
3 115 74 86
3 47 86 74
3 46 37 39
3 24 15 23
3 37 27 24
3 17 28 23
3 23 8 17
3 55 56 31
3 31 56 42
3 42 56 57
3 134 121 94
3 147 151 108
3 115 141 150
3 96 124 86
3 66 47 46
3 124 119 120
3 120 119 92
3 65 120 92
3 100 65 83
3 83 65 59
3 39 44 65
3 44 59 65
3 23 45 49
3 59 49 87
3 45 54 71
3 54 28 42
3 70 42 57
3 57 75 70
3 75 57 56
3 113 75 84
3 56 84 75
3 75 113 109
3 162 113 133
3 155 100 130
3 100 122 167
3 99 135 132
3 135 173 132
3 132 173 160
3 114 153 135
3 114 71 85
3 123 70 118
3 160 142 127
3 127 142 87
3 1 7 5
3 47 50 43
3 104 145 97
3 97 145 144
3 95 97 125
3 126 125 163
3 163 125 168
3 143 164 104
3 143 104 107
3 107 104 72
3 72 67 52
3 60 52 67
3 73 72 52
3 36 52 60
3 78 101 103
3 103 101 137
3 170 146 103
3 76 112 107
3 107 112 143
3 143 112 156
3 93 112 76
3 50 32 43
3 32 50 33
3 33 50 53
3 33 53 52
3 33 52 36
3 22 32 33
3 22 33 25
3 25 33 36
3 34 25 36
3 51 34 60
3 60 34 36
3 10 20 16
3 16 20 34
3 16 34 38
3 34 20 25
3 29 13 16
3 26 13 29
3 26 29 35
3 61 48 38
3 78 48 61
3 138 105 129
3 129 105 89
3 106 151 136
3 106 136 93
3 106 93 77
3 93 136 152
3 46 47 27
3 27 47 43
3 24 27 14
3 15 24 14
3 15 14 5
3 15 5 7
3 12 14 21
3 14 12 5
3 11 9 22
3 9 11 4
3 22 9 21
3 21 9 12
3 12 9 4
3 12 4 5
3 3 0 4
3 0 3 2
3 2 3 10
3 11 10 4
3 4 0 5
3 4 10 3
3 16 2 10
3 18 8 6
3 13 18 6
3 13 6 2
3 2 6 0
3 0 6 1
3 1 6 8
3 1 8 7
3 17 8 19
3 31 19 30
3 18 30 19
3 18 19 8
3 82 55 68
3 79 80 55
3 80 79 94
3 79 55 82
3 128 134 79
3 128 79 111
3 128 111 140
3 140 111 82
3 140 82 105
3 82 111 79
3 68 105 82
3 134 128 166
3 90 116 108
3 24 39 37
3 28 17 19
3 28 19 31
3 42 28 31
3 94 84 56
3 94 56 80
3 80 56 55
3 121 84 94
3 147 108 116
3 115 150 116
3 124 96 119
3 120 65 100
3 40 59 44
3 40 24 23
3 24 40 44
3 24 44 39
3 49 59 40
3 49 40 23
3 64 87 49
3 64 49 45
3 99 64 71
3 71 64 45
3 70 85 54
3 54 85 71
3 54 42 70
3 75 109 70
3 118 157 159
3 157 109 162
3 109 157 118
3 109 118 70
3 116 171 147
3 130 100 167
3 85 139 153
3 85 153 114
3 70 123 85
3 123 118 159
3 123 159 139
3 85 123 139
3 5 0 1
3 144 168 97
3 145 104 164
3 72 104 97
3 60 95 98
3 98 95 126
3 60 98 110
3 131 110 98
3 131 148 110
3 60 110 81
3 81 110 117
3 88 117 154
3 117 88 81
3 81 88 51
3 137 101 149
3 102 149 101
3 51 88 61
3 61 102 101
3 103 146 89
3 69 77 53
3 22 25 11
3 26 30 13
3 68 41 58
3 78 58 48
3 48 58 41
3 105 138 158
3 108 106 69
3 90 62 74
3 47 74 62
3 27 37 46
3 15 7 8
3 15 8 23
3 86 124 141
3 115 86 141
3 47 66 96
3 47 96 86
3 91 92 119
3 91 119 96
3 91 96 66
3 39 65 63
3 39 63 46
3 46 63 66
3 66 63 91
3 91 63 92
3 65 92 63
3 23 28 45
3 54 45 28
3 121 161 133
3 121 133 84
3 84 133 113
3 113 162 109
3 141 169 150
3 120 100 155
3 83 122 100
3 122 83 87
3 83 59 87
3 64 99 87
3 71 114 99
3 99 114 135
3 87 142 122
3 122 142 167
3 160 127 132
3 127 87 132
3 132 87 99
