ply
format ascii 1.0
comment Generated by PyMesh
element vertex 200
property float x
property float y
property float z
property float charge
property float ddc
property float hbond
property float hphob
property float rho
property float si
property float theta
property float nx
property float ny
property float nz
element face 335
property list uchar int vertex_indices
end_header
-23.2985 -8.6565 12.6355 0.145161 0 0 -1 1e-08 0.171649 2.22045e-16 -0.149108 -0.988821 -0.000164651
-23.149 -9.1075 13.7925 0.056889 -0.660272 0 -0.177778 1.25076 0.219697 5.54015 -0.118113 -0.489313 -0.864073
-22.8943 -9.02575 11.4333 0.362197 -0.475727 0 -1 1.32099 0.631109 2.73065 0.150304 -0.942415 0.298769
-21.936 -7.92137 12.5278 0.265757 0.584526 0 -1 1.55191 -0.340597 3.66355 0.511917 -0.808369 0.290657
-23.98 -8.416 14.069 0.0383617 0.497406 0 -0.177778 1.60537 -0.0189584 2.22045e-16 -0.801276 -0.42702 -0.419059
-24.362 -7.525 11.982 0.235323 0.561045 0 -1 1.68475 0.0892188 1.39296 -0.886754 -0.400919 0.230069
-22.3465 -8.49375 14.0885 -0.068124 0.612845 0 -0.177778 1.74471 -0.569041 4.8687 0.588423 -0.468957 -0.658663
-24.2743 -7.45813 13.5571 0.058323 0.504345 0 -1 1.79934 0.0498146 0.670684 -0.927345 -0.362319 -0.0935721
-24.2651 -8.96638 10.8674 0.19289 -0.29557 0 -1 2.03875 0.768214 2.09334 -0.64891 -0.734414 0.198877
-21.5989 -7.74388 13.9134 0.105045 0.405214 -0.0787328 -0.922018 2.31399 -0.280303 4.33002 0.659801 -0.707421 -0.253412
-24.1569 -9.28213 14.6067 0.0760867 -0.453104 0 -0.177778 2.55815 0.0777232 6.02087 -0.65629 -0.196043 -0.728595
-23.42 -10.2725 14.429 0.0938083 -0.398386 0 -0.177778 2.60568 0.153012 5.69658 -0.470196 -0.275288 -0.83853
-23.4648 -9.215 10.282 0.315044 -0.0836403 0 -1 2.61975 0.839958 2.40948 -0.116334 -0.992464 -0.0384874
-21.7401 -8.90375 10.7118 0.347503 0.287161 0 -1 2.6876 0.945378 2.96972 0.36967 -0.912761 0.173817
-24.6031 -6.60281 12.3184 0.157184 0.441519 0 -1 2.69556 0.0425916 1.19485 -0.963841 -0.218366 0.152733
-24.5421 -7.63413 14.8821 -0.0393823 0.38946 0 -0.177778 2.86569 -0.270768 0.305524 -0.897409 -0.127787 -0.422288
-24.6623 -7.54462 10.8359 0.407607 0.403678 0 -1 2.8697 0.314172 1.6998 -0.941904 -0.298514 0.153971
-24.4695 -6.49 14.027 -0.0499607 0.370155 0 -1 2.89304 -0.664869 0.736632 -0.972331 -0.202944 -0.1157
-20.79 -7.24388 12.0931 0.140248 0.327002 0 -0.610956 2.95236 -0.22274 3.68396 0.580424 -0.770568 0.263312
-21.2502 -8.50362 14.8431 -0.296657 0.444345 -0.838733 -0.177778 3.07564 -0.200459 4.65028 0.671974 -0.133546 -0.728434
-21.5238 -10.0594 14.7436 0.0140825 -0.46758 0 -0.302471 3.36073 -0.347971 5.06526 0.230592 0.180458 -0.95617
-24.3194 -8.68213 9.49525 0.312904 0.154647 0 -1 3.44109 0.446673 2.15762 -0.684471 -0.726125 -0.0651303
-22.4034 -11.3806 14.4312 -0.278896 -0.359462 -0.752668 -1 3.72681 0.124264 5.41178 -0.279148 -0.00970253 -0.960199
-25.0569 -9.07125 15.4163 0.127213 -0.390263 0 -0.177778 3.78694 -0.140422 6.22752 -0.546323 0.134883 -0.826643
-23.27 -9.02525 9.075 0.108075 -0.0610594 0 -1 3.857 0.324712 2.4436 -0.0507863 -0.993967 -0.0972104
-23.7349 -11.4009 14.8865 0.126947 -0.340294 0.0924512 -0.301224 3.86335 -0.348377 5.67204 -0.20439 -0.0241314 -0.978592
-20.6695 -7.0855 15.0363 0.123762 0.279675 -0.585066 -0.0157454 3.91341 -0.757273 4.3209 0.67072 -0.488536 -0.558093
-21.3273 -8.8025 9.55481 0.264206 -0.16245 0 -1 3.92019 -0.0240967 2.91206 0.2227 -0.958482 0.178095
-24.6903 -10.3582 15.2692 0.354657 -0.364053 0 -0.177778 3.92978 -0.506523 5.98814 -0.331744 0.0426787 -0.942404
-24.8995 -7.225 9.8345 0.408823 0.325513 0.100114 -1 3.9473 0.252499 1.81704 -0.992452 -0.112955 0.0477527
-20.3315 -7.74131 10.5953 0.199796 0.26023 0.0211574 -0.577367 4.07012 -0.0744587 3.29266 0.524645 -0.768145 0.367016
-24.6496 -5.57312 13.2814 0.0897943 0.257104 0 -1 4.08846 -0.357939 0.947829 -0.915522 -0.399765 -0.0448003
-20.324 -6.3865 14.3372 0.221022 0.186033 0 1 4.22382 -0.999791 4.12707 0.499942 -0.811387 -0.302835
-25.0375 -6.1895 10.903 0.136225 0.343181 0 -1 4.23273 0.585142 1.50333 -0.998942 -0.0459705 0.00106772
-24.994 -5.30963 14.6462 -0.180587 0.23831 -0.692479 -1 4.32545 -0.0334196 0.701718 -0.963333 -0.239604 -0.120742
-20.213 -6.25775 13.0215 0.18907 0.198387 0 -0.80846 4.42454 -0.856385 3.84265 0.370986 -0.88433 0.283425
-25.071 -6.36575 15.7308 -0.2382 0.275201 -0.294658 -1 4.48087 -0.033256 0.407839 -0.961125 -0.0348825 -0.2739
-25.3223 -7.353 16.2712 -0.112491 0.318875 -0.533627 -0.177778 4.48351 -0.351625 0.272067 -0.751181 0.277511 -0.598928
-20.4977 -9.66825 15.1231 0.138002 0.453829 -0.771219 -0.31148 4.49022 0.0933316 4.84938 0.461489 0.593141 -0.659705
-19.261 -6.84125 11.6965 -0.243992 0.180371 0 -0.0888889 4.58247 0.277998 3.55747 0.368084 -0.864345 0.342669
-20.4439 -10.5723 14.3776 0.139374 -0.445939 0 -1 4.61101 0.0620823 5.01123 -0.1757 0.687899 -0.704219
-24.5791 -8.30962 8.16063 0.4171 0.15292 0.110137 -1 4.85085 0.479351 2.15165 -0.825595 -0.561846 -0.052172
-24.9455 -4.472 12.149 0.089358 0.289013 0 -0.988469 4.86034 0.208074 1.19533 -0.869816 0.163171 -0.465613
-21.4137 -11.8073 13.9376 0.0435247 -0.38961 -0.314608 -1 4.91223 -0.144449 5.26121 -0.545339 0.442209 -0.712079
-20.0229 -7.55125 15.8363 0.178879 0.23807 -0.317033 0.147612 4.91948 -0.207275 4.4163 0.562908 -0.387783 -0.729903
-20.1265 -9.2905 16.176 0.276374 0.328227 -0.870462 -0.262424 4.98836 -0.889417 4.67621 0.611254 0.245662 -0.752342
-23.3092 -8.954 7.83125 0.126326 -0.0300987 0 -1 5.10341 0.406413 2.45457 -0.269986 -0.961625 -0.0488332
-24.8075 -12.0948 14.653 0.300281 -0.345655 0.715205 -0.177778 5.162 0.221262 5.79322 0.152374 0.243081 -0.957963
-20.1845 -8.6605 9.077 0.175931 0.186751 0 -1 5.16697 0.901947 3.01341 0.476436 -0.824735 0.304665
-22.7603 -12.7945 14.5735 -0.147878 -0.232798 -0.0295089 -1 5.19199 -0.0751467 5.47341 -0.444675 -0.157526 -0.881731
-25.9482 -10.5319 15.2934 0.119435 -0.372649 0 -0.177778 5.19984 -0.207479 6.08005 -0.0906333 0.436551 -0.895103
-25.159 -7.1915 8.578 0.205926 0.262489 0.769499 -1 5.23076 0.822644 1.91007 -0.99791 0.0161028 -0.0625766
-25.0672 -5.18225 15.6625 -0.299425 0.251037 -0.00553489 -1 5.35231 0.0624215 0.585764 -0.999723 0.0152582 -0.0179421
-24.6723 -6.2505 8.82925 0.308316 0.30682 0.0893703 -1 5.36568 -0.429831 1.96246 -0.958404 0.28176 0.0455346
-19.3347 -7.254 9.89163 0.152654 0.178366 0.287924 -0.63516 5.38398 -0.651943 3.29736 0.48933 -0.816662 0.305973
-23.8135 -12.9655 14.8745 0.151873 -0.233775 0.27264 -0.393071 5.42997 -0.0725685 5.61352 -0.0165388 -0.164178 -0.986292
-21.5298 -9.17 7.988 0.0304505 0.0807785 0 -1 5.54221 0.691841 2.73944 0.129959 -0.990607 -0.042527
-19.1028 -6.053 12.8455 0.0926913 0.11809 -0.218172 -0.149494 5.5671 -0.584342 3.80638 0.136644 -0.958058 0.251901
-24.5348 -5.35962 9.98388 0.164762 0.34783 0 -1 5.56921 0.131616 1.57369 -0.895138 0.434021 -0.101751
-25.4662 -4.19425 14.3174 0.0128769 0.130252 -0.170267 -0.905593 5.5805 -0.311806 0.839024 -0.738833 -0.651896 0.170754
-20.5223 -11.3789 13.7464 0.202422 -0.413474 0 -1 5.63823 -0.702519 5.12956 -0.520897 0.660354 -0.540924
-21.7095 -13.0495 13.7542 0.152812 -0.219834 0 -1 5.65685 0.262136 5.3663 -0.650328 -0.14921 -0.744856
-18.333 -6.3345 12.108 0.091576 0.131238 -0.120039 -0.0912609 5.71707 0.282037 3.56677 0.250826 -0.908366 0.3346
-25.3781 -5.99813 16.916 -0.0399433 0.249523 0 -0.420696 5.75921 -0.396948 0.370029 -0.837572 0.234685 -0.493352
-26.873 -9.08488 16.3076 -0.24996 -0.298217 -0.251729 -0.177778 5.81002 0.346423 6.26234 -0.542181 0.464401 -0.700266
-19.324 -10.4045 14.811 0.166069 -0.39917 0 -1 5.82352 -0.157377 4.87174 0.125617 0.949726 -0.286775
-24.6915 -7.5625 7.4935 0.248663 0.206727 0.322389 -1 5.85876 -0.0937854 2.11609 -0.984202 -0.106551 -0.141396
-18.6523 -6.01937 14.132 0.176105 0.0493354 0 0.0998822 5.94762 -0.501133 4.0406 0.0278223 -0.975824 -0.216778
-19.545 -7.992 16.6395 0.294261 0.193794 -0.347605 0.404067 5.95281 -0.999927 4.41847 0.269309 -0.335886 -0.902581
-23.995 -3.911 12.06 0.104104 0.322502 0 -1 5.96763 -0.604812 1.1934 -0.406309 0.484181 -0.774908
-26.3605 -7.1855 17.4255 -0.144245 0.244027 -0.496914 -0.203284 6.04502 -0.0453567 0.272067 -0.79986 0.333164 -0.499225
-19.343 -10.0887 16.0842 0.0367197 0.340971 0 -0.959427 6.05029 -0.999899 4.67621 0.269278 0.796883 -0.540802
-25.2713 -3.80669 15.5155 -0.00328846 0.127448 0 -0.963744 6.08369 -0.660675 0.839024 -0.774085 -0.592939 0.221848
-26.0491 -4.00919 13.2559 0.1678 0.103911 0.254854 -0.829949 6.1873 0.326268 0.839024 -0.679656 -0.636671 -0.364305
-19.2892 -10.6217 13.267 0.17298 -0.413442 0 -1 6.21389 0.330198 5.12956 -0.334676 0.910521 -0.242781
-25.378 -3.21106 12.4735 0.127782 0.187461 0 -0.821518 6.23232 -0.0415662 1.19533 -0.194296 -0.179996 -0.964288
-22.7266 -9.01175 6.79588 -0.199122 -0.0394626 0 -1 6.29284 0.256502 2.45457 -0.0582471 -0.99656 -0.0589609
-26.1826 -11.346 14.5651 0.131163 -0.369039 0 -0.177778 6.31704 0.334408 6.08005 0.187801 0.455244 -0.870336
-18.7805 -6.90188 15.6709 0.205645 0.112245 0 1 6.32781 -0.444014 4.4163 0.146899 -0.741063 -0.655169
-18.8542 -9.37125 16.6077 0.147958 -0.255655 0 -0.866667 6.33433 -0.774815 4.67621 -0.0286449 0.379911 -0.924579
-22.695 -13.8725 14.969 0.0611497 -0.160783 0 -0.440453 6.34211 -0.541795 5.47341 -0.371655 -0.333765 -0.866299
-20.1338 -8.74375 7.88375 0.118923 0.12197 0 -1 6.36419 0.766052 3.01341 0.446913 -0.885445 -0.127498
-24.7005 -6.20725 7.77287 0.262546 0.214065 0.0845715 -0.698524 6.42332 -0.223395 1.96246 -0.993191 -0.0561366 0.102083
-24.621 -8.069 6.5915 0.169666 -0.116631 0.651074 -1 6.43887 0.379095 2.11609 -0.816496 -0.575508 0.0461055
-24.8498 -4.58025 16.602 -0.132577 0.186988 0 -1 6.48912 -0.999891 0.585764 -0.979338 -0.130903 -0.154149
-21.164 -12.614 12.603 0.138973 -0.300364 0 -1 6.49156 0.670374 5.26121 -0.847744 0.221375 -0.481999
-17.8043 -6.68175 10.2825 0.213745 0.140853 0 -0.0888889 6.61884 0.461547 3.29736 0.530315 -0.818463 0.221099
-17.401 -6.03675 11.4762 0.108734 0.122146 0 -0.16549 6.62094 -0.137755 3.56677 0.51537 -0.855702 0.0465509
-27.0502 -8.16725 17.2865 -0.204241 0.26345 -0.581889 -0.177778 6.64672 0.633277 6.26234 -0.80342 0.523062 -0.28447
-23.843 -4.437 9.9255 0.143258 0.319999 0 -0.677778 6.72386 -0.22975 1.57369 -0.820186 0.460213 0.33985
-21.3472 -8.6665 6.9135 -0.0288818 0.0872821 0 -1 6.7428 -0.410649 2.73944 0.279968 -0.926246 -0.252362
-18.6239 -7.34106 8.705 0.0570087 0.137289 0 -0.0888889 6.76995 0.0479925 3.29736 0.53879 -0.830792 0.139607
-24.4319 -4.8465 8.7625 0.221181 0.253344 0 -0.69704 6.79168 -0.261914 1.57369 -0.925946 0.155936 0.343958
-23.4335 -4.26737 10.9566 0.191643 0.363015 0 -0.630524 6.79679 -0.646653 1.1934 -0.706484 0.691227 -0.151939
-24.2787 -14.2273 15.3814 0.0961013 -0.112513 -0.0270824 -0.164799 6.86716 0.0609397 5.61352 -0.187205 -0.581612 -0.791632
-25.6367 -13.6027 14.3519 0.60449 -0.168121 -0.0889253 -0.177778 6.909 0.742521 5.79322 0.157091 -0.424198 -0.89184
-18.3009 -10.4878 14.4353 0.217073 -0.329998 0 -1 6.9166 -0.36447 4.87174 -0.351694 0.898683 -0.262068
-18.4521 -10.3144 15.4754 0.193447 -0.312481 0 -0.944124 6.92341 -0.902786 4.87174 -0.275903 0.864479 -0.420183
-21.0245 -13.6438 12.84 0.182942 -0.169343 0 -1 6.94456 0.235309 5.3663 -0.882519 -0.299105 -0.362899
-20.0719 -11.826 12.3647 0.259031 -0.361781 0 -1 6.97979 0.068851 5.12956 -0.660231 0.616466 -0.429027
-27.7169 -10.416 15.7773 0.038209 -0.293351 0 -0.177778 7.0372 0.246792 6.26234 -0.561029 0.661907 -0.497118
-27.6816 -9.48 17.2225 -0.016872 0.251106 0 -0.177778 7.09337 0.294381 6.26234 -0.839213 0.537233 -0.0842804
-23.7764 -2.84488 12.409 0.0289287 0.221014 0 -0.494404 7.11052 -0.90501 1.1934 -0.396047 0.107518 -0.911914
-20.9441 -14.2774 14.1104 0.392027 -0.108108 0 -1 7.14697 -0.459495 5.3663 -0.656228 -0.535194 -0.531913
-16.9878 -6.00616 12.5084 0.16828 0.0419707 0 -0.177778 7.15849 -0.268516 3.56677 0.0390774 -0.970228 -0.23902
-24.7237 -6.64975 6.4585 0.206704 0.164672 0.622314 -1 7.23911 -0.69256 2.11609 -0.96535 -0.20611 0.160054
-17.911 -6.2715 15.196 0.204766 -0.0677248 0 1 7.26867 -0.999889 4.0406 -0.413333 -0.739608 -0.531165
-26.7423 -8.0535 18.2563 -0.258019 0.217193 0 -0.177778 7.30575 -0.246819 6.26234 -0.961133 0.272729 0.042919
-26.7127 -6.13825 18.033 0.046367 0.185035 0 -0.355556 7.30591 0.633016 0.370029 -0.92016 0.108062 -0.376334
-22.8888 -3.4195 11.4747 0.183954 0.269953 0 -0.403064 7.31219 -0.999888 1.1934 -0.835758 0.35541 -0.41856
-25.3465 -4.50325 17.4735 0.07559 0.163709 0 -0.355556 7.35498 -0.595128 0.370029 -0.83856 -0.0972335 -0.536062
-22.384 -8.9035 5.78675 0.110245 -0.0857654 0.189878 -0.931638 7.36403 0.265778 2.45457 0.320707 -0.94714 -0.00852864
-27.1044 -3.502 13.4146 0.188455 0.0297463 0.634199 -0.777778 7.36886 0.433604 0.839024 -0.421853 -0.882188 -0.209246
-24.3805 -8.4235 5.5625 0.104751 -0.113532 0 -0.777778 7.55348 -0.0931875 2.11609 -0.746378 -0.578982 0.328176
-27.443 -11.1007 14.2665 0.0553523 -0.31105 0 -0.177778 7.63535 0.999909 6.08005 -0.248144 0.492462 -0.83421
-25.8703 -3.0485 16.7773 0.054559 0.0876734 0 -0.542731 7.67296 -0.423043 0.839024 -0.785778 -0.615975 -0.0559192
-17.8437 -7.97316 16.2629 0.254598 -0.155773 0 0.717809 7.6954 -0.731524 4.41847 -0.424628 -0.21275 -0.880016
-18.04 -10.3495 12.4425 0.180204 -0.344783 0 -1 7.7352 0.790245 5.12956 -0.0188837 0.93446 -0.355567
-17.0045 -6.579 13.7055 0.209189 -0.051513 0.0484967 -0.177778 7.73936 0.0532711 4.0406 -0.372483 -0.798344 -0.473185
-20.6022 -13.328 11.6995 0.196928 -0.229206 0.638818 -1 7.77286 0.109021 5.3663 -0.936276 0.084451 -0.340963
-27.2073 -12.3658 14.2268 0.0340617 -0.194031 0 -0.177778 7.80178 0.656503 6.08005 -0.247566 -0.171873 -0.953505
-21.8455 -15.0938 14.9732 0.117286 -0.14342 0 -0.155556 7.8298 -0.353536 5.47341 -0.359799 -0.248848 -0.899233
-18.9442 -11.0352 11.6637 0.331355 -0.3584 0 -1 7.90521 0.380992 5.12956 -0.371316 0.846535 -0.381449
-17.1159 -5.79738 9.5235 0.256873 0.158583 0 -0.160835 7.97239 0.0971588 3.29736 0.853315 -0.519417 -0.0453887
-23.6082 -9.08744 5.33644 0.150248 -0.0745893 0 -0.777778 7.99957 0.298718 2.45457 -0.315602 -0.883558 0.346006
-19.3284 -7.98259 6.64594 -0.32721 0.0939576 0.000629393 -0.778167 8.02558 -0.0266087 3.01341 0.400781 -0.916003 0.0177111
-17.4675 -6.8385 8.893 0.0557223 0.147389 0 -0.0888889 8.04477 0.738786 3.29736 0.745376 -0.6652 0.0438689
-26.912 -2.693 15.8534 -0.161405 0.0834687 0 -0.777778 8.09525 0.162787 0.839024 -0.486376 -0.787135 0.379285
-25.267 -5.68925 6.26125 0.171167 -0.131082 0 -0.364204 8.11868 -0.327172 2.11609 -0.82037 -0.434493 0.371765
-17.4824 -9.63325 15.3156 0.240497 -0.238661 0 -0.866667 8.11916 -0.876771 4.87174 -0.740196 0.487666 -0.462917
-20.8832 -8.26775 5.65475 -0.328951 0.0657166 -0.121059 -0.777778 8.14235 -0.165529 2.73944 0.241635 -0.944963 -0.220583
-27.0665 -2.9835 14.8308 -0.0730057 0.0751441 0 -0.777778 8.17395 -0.489105 0.839024 -0.430626 -0.850137 0.303033
-26.5806 -2.00069 11.5182 0.084578 -0.0895695 0 -0.777778 8.18778 -0.0606051 1.19533 0.330497 -0.797281 -0.505089
-24.5766 -3.49787 8.32775 0.192407 0.213461 0 -0.355556 8.21602 -0.149576 1.57369 -0.611706 0.0681538 0.788144
-26.472 -4.66059 18.6796 0.200551 0.168392 0 -0.355556 8.2282 0.113477 0.370029 -0.875272 0.19433 -0.442871
-18.4643 -7.255 7.23925 -0.370103 0.1147 -0.530836 -0.632871 8.24687 -0.443081 3.29736 0.51067 -0.841295 0.17731
-23.6983 -15.4121 15.7929 0.0480037 -0.119215 0 -0.155556 8.24917 0.0976707 5.61352 -0.505832 -0.346783 -0.789858
-23.5872 -1.7065 12.3177 -0.197716 0.127931 0.128378 -0.351862 8.26812 -0.999899 1.1934 -0.521959 -0.344013 -0.780521
-24.6891 -1.28988 12.2978 0.00698653 0.111138 0 0.0375996 8.28083 -0.999857 1.1934 0.0992013 -0.544032 -0.83318
-25.3714 -4.37937 7.70013 0.198169 0.153521 0 -0.355556 8.28483 0.165953 1.57369 -0.792611 -0.364866 0.488508
-20.2013 -14.7099 12.4825 0.293527 -0.127437 0 -1 8.33813 -0.319494 5.3663 -0.897953 -0.43703 0.0518187
-25.111 -6.972 5.09363 0.158238 -0.128675 0.100685 -0.811127 8.35906 -0.41889 2.11609 -0.838639 -0.3688 0.400838
-26.8141 -14.1469 15.035 -0.246588 -0.0589689 -0.846017 -0.177778 8.37496 0.790738 5.79322 -0.226286 -0.79144 -0.567819
-28.0129 -3.00813 13.4704 0.145439 -0.0489524 0.314404 -0.799109 8.40442 -0.0829807 0.839024 -0.0416823 -0.993364 0.10719
-27.0502 -8.927 18.9067 0.068491 0.217965 -0.0515736 -0.592613 8.43748 -0.650387 6.26234 -0.843192 0.524165 -0.119495
-20.1612 -15.324 14.3276 0.265798 -0.109332 0.0100821 -0.594202 8.47192 -0.87813 5.3663 -0.659343 -0.395084 -0.639669
-22.8167 -2.98175 10.0634 0.0986047 0.237248 0 -0.355556 8.47937 -0.895164 1.1934 -0.915491 0.280718 0.288224
-22.078 -8.56275 4.7525 0.00291981 0.103727 0.351184 -0.808636 8.49514 -0.266633 2.45457 0.570463 -0.803747 -0.169007
-26.8886 -5.983 19.2396 0.126252 0.152353 0 -0.355556 8.53511 0.345909 0.370029 -0.973094 0.0204961 -0.229493
-26.7205 -8.09869 19.5376 0.054108 0.181252 0 -1 8.58803 -0.999865 6.26234 -0.908031 0.274936 -0.316053
-22.7955 -2.1505 11.361 -0.0281379 0.159963 -0.051607 -0.155556 8.58968 -0.925936 1.1934 -0.923324 -0.149384 -0.353775
-15.803 -4.925 11.1187 -0.006921 0.084265 -0.811647 -0.177778 8.60018 -0.25577 3.56677 0.354256 -0.763653 -0.539757
-28.612 -10.6962 17.5285 0.0490673 0.213649 -0.180453 -0.177778 8.65491 0.426431 6.26234 -0.829612 0.540805 -0.138833
-25.1311 -14.8569 16.837 -0.00252388 -0.0754997 -0.589244 -0.170628 8.66764 -0.311806 5.61352 -0.561717 -0.619481 -0.548377
-16.8458 -10.3915 13.2823 0.230086 -0.269245 0 -0.901769 8.66816 -0.277064 4.87174 -0.0914488 0.806767 -0.58375
-26.504 -2.24012 16.9511 0.0449657 0.113362 0 -0.509533 8.71472 -0.0546609 0.839024 -0.793311 -0.455957 0.403436
-26.643 -6.971 19.17 0.0965097 0.15139 0 -0.355556 8.71697 -0.783997 0.370029 -0.981291 -0.0817124 -0.174332
-17.0825 -7.7875 15.585 0.30018 -0.162861 0 -0.191002 8.73147 -0.858649 4.41847 -0.834138 -0.0571497 -0.548587
-16.9587 -9.418 13.788 0.235878 -0.232174 0 -0.866667 8.75098 0.382773 4.87174 -0.698075 0.434666 -0.568996
-28.5869 -11.8099 15.1442 0.0197417 -0.197773 0 -0.177778 8.79808 0.99985 6.26234 -0.844112 0.175393 -0.506668
-15.3011 -6.19775 12.604 0.50108 0.073101 -0.194779 -0.177778 8.85872 -0.206937 3.56677 -0.272386 -0.641142 -0.717456
-17.2897 -10.9758 11.8864 0.274118 0.295053 0 -1 8.85968 0.0577259 5.12956 0.307248 0.871201 -0.382894
-27.7686 -9.90925 18.9561 0.134143 0.198975 0.357384 -0.745949 8.88144 -0.114955 6.26234 -0.884117 0.464767 -0.048256
-20.2196 -13.3044 10.6401 0.211921 -0.240361 0.264241 -1 8.89948 0.53074 5.3663 -0.761396 0.321536 -0.56293
-15.8385 -6.69825 13.663 0.586543 -0.0860229 0.523724 -0.177778 8.91221 -0.999858 4.0406 -0.370887 -0.574621 -0.729557
-22.1509 -16.184 15.2255 -0.135481 -0.131965 -0.466169 -0.155556 8.98974 0.425204 5.47341 -0.4255 -0.171971 -0.888468
-25.3088 -8.56675 4.445 0.166744 -0.115565 0 -0.777778 9.0133 0.999828 2.11609 -0.794798 -0.433744 0.424456
-16.4895 -7.686 14.14 0.249945 -0.158602 0 -0.866667 9.0353 0.0837004 4.0406 -0.666855 -0.076441 -0.741257
-16.623 -4.8675 9.69606 0.265922 0.136093 0.0800778 -0.132375 9.03888 -0.580168 3.29736 0.79169 -0.538524 -0.288476
-26.2337 -3.4185 18.4307 0.229832 0.132876 0 -0.355556 9.05205 0.101967 0.370029 -0.965307 -0.110425 -0.236622
-25.6532 -4.77025 6.39075 0.106808 -0.129005 0 -0.355556 9.12391 -0.628938 2.11609 -0.781544 -0.421795 0.45965
-27.721 -2.41325 12.0805 0.171726 -0.0455097 0.119966 -0.833327 9.1979 -0.377343 0.839024 0.0643332 -0.932844 -0.354491
-26.7301 -14.3379 16.3348 -0.300498 -0.00782965 -0.798241 -0.177778 9.28974 0.122828 5.61352 -0.224134 -0.942859 -0.246537
-28.8633 -11.8597 17.0815 -0.086151 -0.189677 -0.00700699 -0.177778 9.2954 -0.355334 6.26234 -0.859523 0.388904 -0.331622
-18.8921 -11.6245 10.3421 0.378147 -0.28249 0 -1 9.32999 0.788944 5.12956 -0.543557 0.608633 -0.578024
-23.2131 -9.617 4.12425 0.316998 -0.0705087 0.452161 -0.777778 9.3541 0.788439 2.45457 0.320447 -0.946932 0.0251881
-28.1693 -2.54525 14.7836 -0.1998 0.0831002 -0.902956 -0.777778 9.36158 0.0915649 0.839024 -0.420444 -0.793676 0.439665
-17.0427 -5.50575 8.13175 0.139628 0.155454 0.0189671 -0.0888889 9.39625 -0.731275 3.29736 0.914394 -0.404824 0.000975317
-19.3487 -8.19125 5.2865 -0.36462 0.0445349 0 -0.777778 9.40109 0.64919 2.73944 0.123666 -0.9825 -0.139282
-20.7668 -14.7948 10.9923 0.247308 -0.175732 0.194633 -1 9.40954 0.816357 5.3663 -0.989371 -0.0093741 -0.14511
-23.8344 -2.51431 8.38663 0.114414 0.203175 0 -0.355556 9.4496 -0.807222 1.57369 -0.512094 0.125935 0.849647
-17.37 -6.47 7.5005 -0.192306 0.147097 -0.747237 -0.695038 9.4885 0.15415 3.29736 0.832502 -0.537503 0.13428
-28.1464 -13.4074 15.1665 -0.0681823 -0.0764551 0 -0.177778 9.48993 0.878492 6.08005 -0.62013 -0.640603 -0.452844
-16.891 -8.604 14.5685 0.296941 -0.209514 0 -0.866667 9.52175 -0.637084 4.87174 -0.911108 0.276913 -0.30529
-19.4224 -12.7526 9.99325 0.243005 -0.226131 0 -1 9.60738 0.845049 5.12956 -0.537361 0.287897 -0.79269
-28.2302 -1.91275 15.8915 -0.368347 0.121077 -0.0317519 -0.777778 9.62753 0.650794 0.839024 -0.680534 -0.38297 0.624665
-22.8571 -1.65262 10.4342 -0.325242 0.134663 -0.967248 -0.155556 9.64355 -0.645004 1.1934 -0.958489 -0.282275 -0.0402467
-23.4822 -0.8485 11.2477 -0.140254 0.0649526 -0.358846 0.3028 9.64365 -0.695913 1.1934 -0.610932 -0.671343 -0.419597
-28.2985 -10.719 18.493 0.110757 0.217088 -0.110422 -0.177778 9.66934 -0.562955 6.26234 -0.716423 0.663962 0.214225
-25.7041 -0.833875 11.1896 0.048557 0.102486 0 0.35558 9.68367 -0.808625 1.1934 0.580408 -0.760172 -0.292002
-24.7594 -9.37162 4.1245 0.135141 -0.0522571 0 -0.777778 9.6951 0.84082 2.45457 -0.40853 -0.884444 0.225528
-25.771 -2.6315 8.22 -0.00352127 -0.168822 0 -0.355556 9.69548 -0.0370758 1.57369 0.121709 -0.342023 0.931776
-26.2375 -5.837 5.0115 0.077343 -0.11003 0 -0.777778 9.70789 0.886181 2.11609 -0.735778 -0.482889 0.474815
-26.4513 -3.4425 7.49687 -0.0312765 -0.0909267 -0.0594821 -0.584776 9.72886 0.053273 1.57369 -0.324878 -0.795039 0.512218
-17.9305 -7.7 5.6845 -0.513793 0.0863462 0 -0.777778 9.74557 0.787553 3.29736 0.473958 -0.878643 0.0578875
-19.3857 -16.0071 13.5597 0.134442 -0.114292 0.116609 -0.830473 9.75943 -0.717768 5.3663 -0.890953 -0.26768 -0.36681
-20.6803 -16.614 14.708 0.450913 -0.119249 0.0118448 -0.155556 9.76346 -0.0415301 5.3663 -0.473438 -0.201414 -0.85749
-27.7771 -2.17887 10.4611 0.100886 -0.0655044 0 -0.866667 9.79428 -0.280865 1.19533 0.248876 -0.968368 0.0180038
-19.9748 -7.73325 4.382 -0.56974 0.0304599 -0.194228 -0.777778 9.79486 -0.325348 2.73944 0.0252994 -0.972989 -0.22946
-25.93 -14.7115 17.6225 -0.0243793 -0.0449991 -0.81524 -0.177778 9.79742 -0.872975 5.61352 -0.337197 -0.789396 -0.512984
3 143 171 112
3 112 132 75
3 75 132 138
3 133 193 139
3 192 128 170
3 128 192 141
3 128 141 105
3 66 105 83
3 155 115 169
3 176 131 127
3 112 73 59
3 73 31 59
3 42 73 75
3 42 75 69
3 133 139 92
3 139 128 82
3 53 82 51
3 51 66 41
3 66 83 41
3 124 113 166
3 113 83 141
3 113 141 166
3 124 190 175
3 134 169 110
3 108 134 63
3 110 63 134
3 110 169 115
3 72 115 127
3 72 131 112
3 72 59 34
3 72 34 52
3 36 63 52
3 15 34 17
3 7 17 14
3 14 33 16
3 33 29 16
3 29 33 58
3 29 58 53
3 16 29 21
3 41 46 21
3 46 27 24
3 24 27 13
3 90 76 111
3 76 46 83
3 76 124 111
3 175 111 124
3 111 175 147
3 134 108 148
3 107 156 108
3 107 108 70
3 70 88 107
3 63 70 108
3 88 70 37
3 107 88 101
3 88 64 101
3 100 64 50
3 4 10 15
3 0 4 7
3 15 7 4
3 5 14 16
3 8 21 12
3 24 12 21
3 2 3 0
3 81 125 91
3 125 90 130
3 130 90 111
3 135 125 194
3 162 152 188
3 120 77 95
3 95 77 47
3 28 10 11
3 28 11 25
3 1 22 11
3 25 11 22
3 18 9 3
3 18 35 32
3 62 35 39
3 18 39 35
3 30 18 3
3 13 27 30
3 30 48 54
3 126 86 91
3 54 91 86
3 123 86 126
3 123 126 177
3 181 126 135
3 182 120 142
3 94 121 136
3 55 95 47
3 25 22 55
3 49 55 22
3 49 61 80
3 61 22 43
3 61 43 98
3 98 43 85
3 85 43 99
3 60 40 74
3 40 65 74
3 74 65 96
3 65 40 38
3 45 19 44
3 44 19 26
3 78 32 67
3 67 104 118
3 87 104 62
3 62 39 87
3 62 104 57
3 104 87 151
3 123 151 87
3 160 104 151
3 172 182 142
3 172 95 94
3 121 165 136
3 103 121 80
3 61 98 103
3 140 98 119
3 119 179 140
3 179 119 163
3 99 163 119
3 122 117 161
3 117 74 154
3 165 121 196
3 145 121 103
3 174 99 122
3 157 183 129
3 99 43 60
3 77 100 50
3 58 93 89
3 133 89 146
3 93 58 42
3 93 42 69
3 132 112 171
3 197 132 171
3 138 132 189
3 180 191 133
3 193 133 191
3 128 139 170
3 141 83 105
3 115 155 127
3 143 112 131
3 176 143 131
3 59 72 112
3 31 34 59
3 42 31 73
3 89 133 92
3 89 92 58
3 82 53 92
3 82 92 139
3 92 53 58
3 66 51 82
3 66 82 105
3 105 82 128
3 46 41 83
3 124 76 83
3 113 124 83
3 63 110 84
3 63 84 52
3 72 84 115
3 72 52 84
3 110 115 84
3 70 63 37
3 36 37 63
3 23 37 15
3 15 37 36
3 7 15 17
3 14 17 31
3 31 17 34
3 14 31 42
3 144 149 107
3 107 149 156
3 101 162 144
3 101 144 107
3 100 101 64
3 50 64 23
3 50 23 28
3 28 23 10
3 10 4 1
3 0 1 4
3 11 10 1
3 6 1 0
3 54 48 91
3 91 48 81
3 125 135 91
3 173 152 100
3 25 47 28
3 28 47 50
3 50 47 77
3 55 47 25
3 43 40 60
3 40 43 20
3 20 43 22
3 20 22 1
3 20 1 6
3 38 40 20
3 38 20 19
3 19 20 6
3 9 19 6
3 3 9 0
3 0 9 6
3 44 26 32
3 32 26 9
3 32 9 18
3 9 26 19
3 35 67 32
3 57 67 35
3 57 35 62
3 30 39 18
3 54 39 30
3 181 177 126
3 95 142 120
3 80 121 94
3 80 94 55
3 80 55 49
3 55 94 95
3 122 99 74
3 74 99 60
3 154 74 96
3 158 154 96
3 158 96 129
3 158 129 183
3 97 96 65
3 96 97 129
3 45 71 38
3 71 45 79
3 38 71 65
3 65 71 97
3 97 71 79
3 97 79 129
3 68 116 79
3 116 68 78
3 78 68 44
3 45 44 79
3 79 116 129
3 79 44 68
3 32 78 44
3 118 167 106
3 67 118 106
3 67 106 78
3 78 106 116
3 116 106 157
3 157 106 167
3 157 167 183
3 160 164 104
3 118 104 164
3 118 164 167
3 168 151 123
3 123 177 168
3 172 153 199
3 172 94 153
3 153 94 136
3 98 140 103
3 154 161 117
3 145 196 121
3 145 103 140
3 145 195 196
3 140 195 145
3 129 116 157
3 93 146 89
3 146 93 109
3 150 109 102
3 69 102 109
3 69 109 93
3 102 75 138
3 75 102 69
3 137 150 102
3 138 137 102
3 150 137 187
3 150 187 186
3 138 187 137
3 109 150 146
3 186 146 150
3 127 185 176
3 155 185 127
3 112 75 73
3 166 190 124
3 127 131 72
3 52 34 36
3 36 34 15
3 58 33 42
3 42 33 14
3 146 180 133
3 29 53 51
3 29 51 41
3 21 29 41
3 76 90 56
3 76 56 46
3 46 56 27
3 148 108 156
3 37 23 64
3 88 37 64
3 10 23 15
3 0 7 5
3 5 7 14
3 0 5 8
3 16 8 5
3 16 21 8
3 0 8 2
3 2 8 12
3 46 24 21
3 13 12 24
3 12 13 2
3 2 13 3
3 81 48 56
3 81 56 90
3 27 56 48
3 81 90 125
3 130 111 147
3 130 198 178
3 125 130 178
3 125 178 194
3 101 100 152
3 101 152 162
3 114 100 77
3 114 77 120
3 114 120 159
3 114 159 100
3 3 13 30
3 30 27 48
3 91 135 126
3 120 182 159
3 173 100 159
3 61 49 22
3 38 19 45
3 57 104 67
3 123 87 86
3 54 86 39
3 39 86 87
3 95 172 142
3 103 80 61
3 98 85 119
3 99 119 85
3 74 117 122
3 158 183 167
3 99 174 184
3 99 184 163
