ply
format ascii 1.0
comment Generated by PyMesh
element vertex 199
property float x
property float y
property float z
property float nx
property float ny
property float nz
element face 340
property list uchar int vertex_indices
end_header
-16.891 -8.604 14.5685 -0.911108 0.276913 -0.30529
-16.4895 -7.686 14.14 -0.666855 -0.076441 -0.741257
-16.9587 -9.418 13.788 -0.698075 0.434666 -0.568996
-17.0825 -7.7875 15.585 -0.834138 -0.0571497 -0.548587
-17.4824 -9.63325 15.3156 -0.740196 0.487666 -0.462917
-15.4591 -7.77588 13.7755 -0.501152 0.0173468 -0.865186
-16.8458 -10.3915 13.2823 -0.0914488 0.806767 -0.58375
-17.8437 -7.97316 16.2629 -0.424628 -0.21275 -0.880016
-15.8385 -6.69825 13.663 -0.370887 -0.574621 -0.729557
-17.0045 -6.579 13.7055 -0.372483 -0.798344 -0.473185
-18.4521 -10.3144 15.4754 -0.275903 0.864479 -0.420183
-15.4358 -9.10581 13.2952 -0.419749 0.28432 -0.861959
-18.3009 -10.4878 14.4353 -0.351694 0.898683 -0.262068
-17.911 -6.2715 15.196 -0.413333 -0.739608 -0.531165
-18.8542 -9.37125 16.6077 -0.0286449 0.379911 -0.924579
-14.5334 -8.09988 12.9789 -0.416646 -0.127902 -0.900026
-15.3011 -6.19775 12.604 -0.272386 -0.641142 -0.717456
-18.04 -10.3495 12.4425 -0.0188837 0.93446 -0.355567
-19.324 -10.4045 14.811 0.125617 0.949726 -0.286775
-19.343 -10.0887 16.0842 0.269278 0.796883 -0.540802
-16.9878 -6.00616 12.5084 0.0390774 -0.970228 -0.23902
-17.2897 -10.9758 11.8864 0.307248 0.871201 -0.382894
-15.3629 -10.7626 12.8304 -0.332311 0.671036 -0.662782
-18.7805 -6.90188 15.6709 0.146899 -0.741063 -0.655169
-16.3521 -11.4514 11.8585 0.0602094 0.903033 -0.42533
-19.545 -7.992 16.6395 0.269309 -0.335886 -0.902581
-18.6523 -6.01937 14.132 0.0278223 -0.975824 -0.216778
-19.2892 -10.6217 13.267 -0.334676 0.910521 -0.242781
-20.1265 -9.2905 16.176 0.611254 0.245662 -0.752342
-13.842 -9.499 12.3448 0.114291 0.198146 -0.973486
-13.3403 -7.75063 12.6695 -0.078355 -0.532924 -0.842527
-17.401 -6.03675 11.4762 0.51537 -0.855702 0.0465509
-20.4439 -10.5723 14.3776 -0.1757 0.687899 -0.704219
-14.5136 -10.6986 12.1084 -0.118791 0.560971 -0.819268
-18.9442 -11.0352 11.6637 -0.371316 0.846535 -0.381449
-20.4977 -9.66825 15.1231 0.461489 0.593141 -0.659705
-20.0229 -7.55125 15.8363 0.562908 -0.387783 -0.729903
-18.333 -6.3345 12.108 0.250826 -0.908366 0.3346
-15.234 -11.3053 11.3237 -0.100538 0.894178 -0.436278
-19.1028 -6.053 12.8455 0.136644 -0.958058 0.251901
-12.4315 -8.2485 13.1453 0.145432 -0.269293 -0.952014
-15.803 -4.925 11.1187 0.354256 -0.763653 -0.539757
-17.642 -11.1625 10.057 0.0708431 0.739224 -0.669724
-16.3331 -11.9799 10.336 0.25465 0.623967 -0.738795
-13.6006 -5.50238 11.3686 -0.430903 -0.636383 -0.639796
-12.997 -6.8425 12.0225 -0.0988507 -0.649519 -0.753892
-20.324 -6.3865 14.3372 0.499942 -0.811387 -0.302835
-20.5223 -11.3789 13.7464 -0.520897 0.660354 -0.540924
-20.213 -6.25775 13.0215 0.370986 -0.88433 0.283425
-20.0719 -11.826 12.3647 -0.660231 0.616466 -0.429027
-21.5238 -10.0594 14.7436 0.230592 0.180458 -0.95617
-12.9963 -10.7945 12.6664 0.319079 0.427744 -0.845709
-17.8043 -6.68175 10.2825 0.530315 -0.818463 0.221099
-20.6695 -7.0855 15.0363 0.67072 -0.488536 -0.558093
-19.261 -6.84125 11.6965 0.368084 -0.864345 0.342669
-14.9095 -11.794 10.3015 0.13334 0.56375 -0.815111
-18.8921 -11.6245 10.3421 -0.543557 0.608633 -0.578024
-21.2502 -8.50362 14.8431 0.671974 -0.133546 -0.728434
-21.4137 -11.8073 13.9376 -0.545339 0.442209 -0.712079
-12.1716 -9.38762 13.3766 0.174566 0.148977 -0.97331
-11.4593 -7.06425 12.5245 -0.0430158 -0.6673 -0.743546
-18.0872 -12.0767 9.72775 -0.144112 0.253934 -0.956425
-17.0565 -12.6155 9.80875 0.274633 0.11672 -0.954439
-17.1159 -5.79738 9.5235 0.853315 -0.519417 -0.0453887
-12.3375 -6.3815 11.3695 -0.259074 -0.89831 -0.354851
-15.6134 -13.1465 10.1267 0.135047 0.00100278 -0.990839
-15.2399 -4.01038 10.1786 0.0501641 -0.892009 -0.449225
-13.0511 -12.0589 11.1349 0.334992 0.609531 -0.718507
-14.4446 -4.32575 10.8495 -0.216204 -0.790347 -0.573243
-16.623 -4.8675 9.69606 0.79169 -0.538524 -0.288476
-12.9268 -5.85825 10.0618 -0.698661 -0.694381 -0.17236
-10.6558 -8.67522 13.3047 -0.176408 -0.207952 -0.9621
-21.164 -12.614 12.603 -0.847744 0.221375 -0.481999
-20.79 -7.24388 12.0931 0.580424 -0.770568 0.263312
-11.7086 -11.227 12.6416 0.155044 0.504703 -0.849256
-17.4675 -6.8385 8.893 0.745376 -0.6652 0.0438689
-22.4034 -11.3806 14.4312 -0.279148 -0.00970253 -0.960199
-13.5747 -4.53587 9.77962 -0.68619 -0.688193 -0.235655
-21.5989 -7.74388 13.9134 0.659801 -0.707421 -0.253412
-19.4224 -12.7526 9.99325 -0.537361 0.287897 -0.79269
-21.7095 -13.0495 13.7542 -0.650328 -0.14921 -0.744856
-20.6022 -13.328 11.6995 -0.936276 0.084451 -0.340963
-18.3202 -13.137 9.70988 -0.0848291 0.0187486 -0.996219
-17.3151 -13.7944 9.69925 0.128148 0.0611198 -0.98987
-22.3465 -8.49375 14.0885 0.588423 -0.468957 -0.658663
-13.9409 -12.787 10.2555 0.321426 0.100952 -0.941538
-19.3347 -7.254 9.89163 0.48933 -0.816662 0.305973
-20.3315 -7.74131 10.5953 0.524645 -0.768145 0.367016
-18.6239 -7.34106 8.705 0.53879 -0.830792 0.139607
-15.3027 -14.1698 10.387 0.210353 -0.150234 -0.966013
-10.918 -6.34381 11.3474 -0.0343879 -0.954799 -0.295256
-15.8931 -3.66613 9.317 0.474484 -0.829969 -0.293286
-17.0427 -5.50575 8.13175 0.914394 -0.404824 0.000975317
-23.149 -9.1075 13.7925 -0.118113 -0.489313 -0.864073
-10.6073 -10.0638 12.9993 -0.00148864 0.236394 -0.971656
-20.2196 -13.3044 10.6401 -0.761396 0.321536 -0.56293
-12.061 -6.426 9.85625 -0.196044 -0.978588 -0.0627064
-21.0245 -13.6438 12.84 -0.882519 -0.299105 -0.362899
-9.68125 -7.01875 11.9342 -0.393483 -0.648419 -0.651709
-11.7505 -12.7638 11.138 0.546991 0.154282 -0.822799
-13.1315 -5.173 8.925 -0.755563 -0.598811 -0.265611
-11.244 -12.127 12.0522 0.665982 0.292855 -0.686079
-9.599 -7.886 12.478 -0.444608 -0.470896 -0.761958
-10.486 -11.3888 12.7402 0.450092 -0.105326 -0.886749
-16.2515 -14.8927 10.0135 0.41567 0.0408365 -0.908598
-21.936 -7.92137 12.5278 0.511917 -0.808369 0.290657
-14.9088 -3.36075 8.43425 0.0743413 -0.974183 -0.213168
-19.252 -13.9431 9.88231 -0.230642 0.0821338 -0.969566
-13.0988 -13.906 10.6888 0.488421 -0.186139 -0.852524
-11.9108 -6.32387 8.77262 -0.348543 -0.871239 -0.345631
-13.9991 -3.79312 8.62912 -0.539987 -0.798588 -0.265839
-17.37 -6.47 7.5005 0.832502 -0.537503 0.13428
-23.7349 -11.4009 14.8865 -0.20439 -0.0241314 -0.978592
-22.7603 -12.7945 14.5735 -0.444675 -0.157526 -0.881731
-23.42 -10.2725 14.429 -0.470196 -0.275288 -0.83853
-8.998 -8.733 12.5118 -0.600919 -0.349797 -0.718706
-16.0777 -3.76875 8.203 0.711117 -0.702398 -0.0308115
-20.9441 -14.2774 14.1104 -0.656228 -0.535194 -0.531913
-16.9635 -5.543 7.033 0.878562 -0.357826 0.316369
-13.9121 -14.6616 10.49 0.279298 -0.289262 -0.915598
-23.98 -8.416 14.069 -0.801276 -0.42702 -0.419059
-20.7668 -14.7948 10.9923 -0.989371 -0.0093741 -0.14511
-20.2013 -14.7099 12.4825 -0.897953 -0.43703 0.0518187
-23.2985 -8.6565 12.6355 -0.149108 -0.988821 -0.000164651
-24.1569 -9.28213 14.6067 -0.65629 -0.196043 -0.728595
-22.695 -13.8725 14.969 -0.371655 -0.333765 -0.866299
-18.4643 -7.255 7.23925 0.51067 -0.841295 0.17731
-11.4605 -13.5615 11.6944 0.788617 -0.285382 -0.544646
-8.95475 -10.2674 13.0433 -0.123949 -0.443875 -0.887475
-20.1845 -8.6605 9.077 0.476436 -0.824735 0.304665
-17.221 -15.7148 9.389 0.133318 0.00501467 -0.991061
-9.37288 -6.32125 10.879 0.00891663 -0.765131 -0.643813
-21.3273 -8.8025 9.55481 0.2227 -0.958482 0.178095
-8.79925 -7.947 11.7245 -0.539989 -0.402606 -0.739134
-23.8135 -12.9655 14.8745 -0.0165388 -0.164178 -0.986292
-21.7401 -8.90375 10.7118 0.36967 -0.912761 0.173817
-16.4112 -4.2905 7.04475 0.838796 -0.44615 0.312044
-12.4902 -5.07987 7.84025 -0.52891 -0.777561 -0.340077
-10.4118 -6.27056 9.62613 0.23397 -0.959916 -0.154338
-14.7806 -15.9108 10.7155 0.538949 -0.461817 -0.704457
-10.7312 -12.692 13.1929 0.79296 -0.188557 -0.579363
-14.8453 -3.09875 7.2685 0.063646 -0.38891 -0.919075
-19.9643 -14.9095 9.72375 -0.551402 0.0766464 -0.830711
-20.1338 -8.74375 7.88375 0.446913 -0.885445 -0.127498
-19.3284 -7.98259 6.64594 0.400781 -0.916003 0.0177111
-24.8075 -12.0948 14.653 0.152374 0.243081 -0.957963
-24.2743 -7.45813 13.5571 -0.927345 -0.362319 -0.0935721
-24.6903 -10.3582 15.2692 -0.331744 0.0426787 -0.942404
-20.5179 -15.9096 11.1258 -0.938621 -0.344245 -0.0220189
-13.621 -3.619 7.156 -0.581425 -0.365319 -0.726971
-20.1612 -15.324 14.3276 -0.659343 -0.395084 -0.639669
-24.5421 -7.63413 14.8821 -0.897409 -0.127787 -0.422288
-18.377 -16.4015 9.718 -0.184434 -0.220216 -0.957856
-17.048 -7.02975 6.08975 0.706083 -0.625624 0.331724
-8.01056 -9.44756 11.6484 -0.471068 -0.490435 -0.73319
-16.0744 -16.6863 9.843 0.565207 -0.335631 -0.753587
-22.8943 -9.02575 11.4333 0.150304 -0.942415 0.298769
-25.0569 -9.07125 15.4163 -0.546323 0.134883 -0.826643
-21.8455 -15.0938 14.9732 -0.359799 -0.248848 -0.899233
-9.33337 -12.2767 14.1205 0.303109 -0.244857 -0.920962
-11.0767 -13.8383 12.7755 0.819549 -0.0684307 -0.568909
-15.773 -3.4955 6.645 0.923786 -0.380056 0.0466609
-10.3611 -5.92944 7.93031 0.078183 -0.982644 -0.168221
-8.79275 -11.3438 13.9897 0.194507 -0.423554 -0.884742
-12.2097 -14.7964 12.0905 0.467392 -0.461372 -0.754109
-16.0704 -5.72713 5.64337 0.544413 -0.522051 0.656565
-8.394 -5.65562 10.7829 0.495724 -0.389932 -0.776022
-24.362 -7.525 11.982 -0.886754 -0.400919 0.230069
-15.8263 -4.70075 6.05 0.445854 -0.386268 0.807472
-19.8773 -15.9108 9.7025 -0.574519 -0.335193 -0.746708
-7.54637 -7.93881 11.1088 -0.344625 -0.0752006 -0.935723
-24.2787 -14.2273 15.3814 -0.187205 -0.581612 -0.791632
-17.9305 -7.7 5.6845 0.473958 -0.878643 0.0578875
-7.6325 -10.8682 13.6713 -0.285211 -0.591521 -0.75416
-19.3857 -16.0071 13.5597 -0.890953 -0.26768 -0.36681
-7.97237 -6.88225 11.0336 -0.00398552 -0.120202 -0.992741
-13.7907 -2.59575 7.293 -0.0844454 0.0670477 -0.99417
-10.1165 -13.3935 14.048 0.385576 0.0616912 -0.920611
-7.29313 -10.458 12.7794 -0.312423 -0.761019 -0.568543
-21.5298 -9.17 7.988 0.129959 -0.990607 -0.042527
-14.9106 -1.80275 7.49563 -0.00256586 0.0953149 -0.995444
-17.0845 -17.4163 9.75125 0.00464454 -0.611645 -0.791119
-24.2651 -8.96638 10.8674 -0.64891 -0.734414 0.198877
-11.1451 -5.506 7.06925 -0.383129 -0.923164 -0.031305
-19.3253 -16.6465 12.5305 -0.920531 -0.347953 0.177628
-24.4695 -6.49 14.027 -0.972331 -0.202944 -0.1157
-23.4648 -9.215 10.282 -0.116334 -0.992464 -0.0384874
-15.9136 -1.95187 7.181 0.618773 0.102756 -0.77882
-19.3487 -8.19125 5.2865 0.123666 -0.9825 -0.139282
-8.99281 -5.18831 9.17241 0.596314 -0.785419 -0.165914
-25.9482 -10.5319 15.2934 -0.0906333 0.436551 -0.895103
-23.27 -9.02525 9.075 -0.0507863 -0.993967 -0.0972104
-25.6367 -13.6027 14.3519 0.157091 -0.424198 -0.89184
-12.3745 -3.36175 7.0435 0.00283395 0.46792 -0.883766
-21.3472 -8.6665 6.9135 0.279968 -0.926246 -0.252362
-14.7751 -16.7673 12.45 0.518764 -0.437104 -0.734727
-22.1509 -16.184 15.2255 -0.4255 -0.171971 -0.888468
-12.6431 -4.67812 5.88588 -0.562668 0.507152 0.652841
-15.5204 -17.4001 11.7778 0.746641 -0.39578 -0.534683
3 191 132 135
3 120 124 151
3 123 120 146
3 151 146 120
3 156 105 123
3 143 144 88
3 126 144 172
3 147 124 114
3 147 114 112
3 93 76 114
3 112 114 76
3 73 78 105
3 73 48 46
3 37 48 54
3 73 54 48
3 87 73 105
3 135 132 87
3 87 129 86
3 75 52 88
3 86 88 52
3 63 52 75
3 63 75 92
3 111 75 126
3 153 111 126
3 134 192 145
3 112 76 134
3 113 134 76
3 113 80 125
3 80 76 58
3 80 58 97
3 97 58 72
3 72 58 49
3 47 32 27
3 32 18 27
3 27 18 12
3 18 32 35
3 28 57 36
3 36 57 53
3 23 46 26
3 26 20 9
3 31 20 37
3 37 54 31
3 37 20 39
3 20 31 41
3 63 41 31
3 16 20 41
3 77 66 110
3 92 136 116
3 117 158 125
3 80 97 117
3 122 97 81
3 81 121 122
3 121 81 95
3 49 95 81
3 34 17 21
3 6 2 11
3 17 27 6
3 5 15 11
3 11 1 5
3 41 44 16
3 16 44 30
3 30 44 45
3 110 100 77
3 110 149 100
3 183 162 137
3 150 158 117
3 121 142 148
3 79 107 95
3 56 49 34
3 107 82 83
3 83 82 62
3 43 83 62
3 65 43 55
3 55 43 38
3 21 24 43
3 24 38 43
3 11 29 33
3 38 33 67
3 29 40 59
3 40 15 30
3 60 30 45
3 45 64 60
3 64 45 44
3 96 64 70
3 44 70 64
3 64 96 90
3 133 131 175
3 138 96 109
3 162 189 138
3 152 142 107
3 104 65 89
3 65 85 119
3 74 103 101
3 103 159 140
3 103 140 101
3 101 140 127
3 178 128 154
3 94 128 103
3 94 59 71
3 102 60 98
3 133 170 154
3 166 131 189
3 166 175 131
3 189 131 138
3 155 130 104
3 127 108 99
3 99 108 67
3 164 127 160
3 119 164 139
3 3 0 4
3 49 58 47
3 146 151 185
3 190 157 147
3 147 157 124
3 124 120 93
3 123 93 120
3 114 124 93
3 84 93 123
3 86 129 88
3 88 129 143
3 144 126 88
3 112 145 147
3 147 145 190
3 134 145 112
3 58 32 47
3 32 58 50
3 50 58 76
3 50 76 93
3 50 93 84
3 35 32 50
3 35 50 57
3 57 50 84
3 78 57 84
3 105 78 123
3 123 78 84
3 36 53 46
3 46 53 78
3 46 78 73
3 78 53 57
3 48 26 46
3 39 26 48
3 39 48 37
3 87 54 73
3 86 54 87
3 118 92 111
3 118 111 153
3 111 92 75
3 136 118 165
3 136 165 168
3 153 165 118
3 125 158 171
3 125 171 134
3 125 134 113
3 134 171 192
3 34 49 27
3 27 49 47
3 6 27 12
3 2 6 12
3 2 12 4
3 2 4 0
3 10 12 18
3 12 10 4
3 28 19 35
3 19 28 14
3 35 19 18
3 18 19 10
3 10 19 14
3 10 14 4
3 25 7 14
3 7 25 23
3 23 25 36
3 28 36 14
3 14 7 4
3 14 36 25
3 46 23 36
3 9 1 13
3 26 9 13
3 26 13 23
3 23 13 7
3 7 13 3
3 3 13 1
3 3 1 0
3 5 1 8
3 16 8 20
3 9 20 8
3 9 8 1
3 69 41 63
3 66 68 41
3 68 66 77
3 66 41 69
3 106 110 66
3 106 66 91
3 106 91 116
3 116 91 69
3 116 69 92
3 69 91 66
3 63 92 69
3 141 106 161
3 116 161 106
3 168 161 136
3 136 161 116
3 110 106 141
3 110 141 149
3 197 137 149
3 97 122 117
3 6 21 17
3 15 5 8
3 15 8 16
3 30 15 16
3 77 70 44
3 77 44 68
3 68 44 41
3 100 70 77
3 197 183 137
3 150 117 122
3 121 148 122
3 107 79 82
3 83 43 65
3 22 38 24
3 22 6 11
3 6 22 24
3 6 24 21
3 33 38 22
3 33 22 11
3 51 67 33
3 51 33 29
3 74 51 59
3 59 51 29
3 60 71 40
3 40 71 59
3 40 30 60
3 64 90 60
3 98 131 133
3 131 90 138
3 90 131 98
3 90 98 60
3 122 148 184
3 122 184 174
3 122 174 150
3 89 65 119
3 160 127 140
3 140 159 177
3 163 159 103
3 178 173 128
3 103 128 163
3 163 128 173
3 115 154 128
3 71 115 128
3 71 128 94
3 60 102 71
3 102 98 133
3 139 195 198
3 89 119 139
3 89 139 104
3 164 119 108
3 127 164 108
3 102 133 115
3 154 115 133
3 71 102 115
3 193 149 176
3 193 197 149
3 161 187 141
3 141 187 180
3 141 180 176
3 141 176 149
3 4 7 3
3 124 157 151
3 123 146 167
3 123 167 182
3 123 182 156
3 156 182 186
3 135 186 191
3 186 135 156
3 156 135 105
3 143 129 179
3 143 179 194
3 132 179 129
3 143 194 144
3 144 188 172
3 105 135 87
3 87 132 129
3 88 126 75
3 172 153 126
3 80 113 76
3 35 57 28
3 39 20 26
3 63 31 52
3 86 52 54
3 54 52 31
3 92 118 136
3 117 125 80
3 97 72 81
3 49 81 72
3 27 17 34
3 2 0 1
3 2 1 11
3 95 107 142
3 121 95 142
3 49 56 79
3 49 79 95
3 61 62 82
3 61 82 79
3 61 79 56
3 21 43 42
3 21 42 34
3 34 42 56
3 56 42 61
3 61 42 62
3 43 62 42
3 11 15 29
3 40 29 15
3 100 137 109
3 100 109 70
3 70 109 96
3 96 138 90
3 100 149 137
3 137 162 109
3 138 109 162
3 142 169 148
3 169 142 152
3 83 104 130
3 83 130 152
3 83 152 107
3 83 65 104
3 55 85 65
3 85 55 67
3 55 38 67
3 51 74 67
3 59 94 74
3 74 94 103
3 175 170 133
3 130 155 181
3 130 181 152
3 155 104 139
3 155 139 198
3 67 108 85
3 85 108 119
3 127 99 101
3 99 67 101
3 101 67 74
