ply
format ascii 1.0
comment Generated by PyMesh
element vertex 178
property float x
property float y
property float z
property float nx
property float ny
property float nz
element face 330
property list uchar int vertex_indices
end_header
-14.3614 -9.91488 12.9845 0.234477 -0.201325 0.951046
-15.342 -10.0555 13.1505 -0.0446152 -0.133316 0.990069
-13.2242 -9.37725 12.7205 0.361253 -0.155347 0.919437
-15.1456 -11.1446 12.3993 -0.2113 -0.771271 0.600411
-14.4009 -8.38313 12.5551 0.107231 0.209066 0.972005
-13.02 -10.359 12.2035 0.696805 -0.463734 0.547187
-13.5262 -11.3118 12.1214 0.505235 -0.737635 0.447921
-16.3324 -9.57938 12.9113 0.0748673 -0.400341 0.913303
-12.423 -8.28925 12.7095 0.46641 0.0899128 0.879987
-12.197 -9.42212 11.7636 0.862853 -0.415286 0.288135
-12.9436 -10.2224 11.019 0.731517 -0.668141 -0.135903
-14.464 -7.162 12.191 0.114718 0.636867 0.762391
-15.3359 -7.39187 12.6465 0.325666 0.554776 0.765614
-14.344 -11.6005 11.3425 0.168142 -0.957274 -0.235276
-13.0522 -7.41862 12.387 0.195902 0.639444 0.74346
-15.5977 -11.0153 10.756 -0.0446271 -0.998487 -0.032134
-17.3449 -10.0703 12.3079 0.0072831 -0.933307 0.359005
-16.241 -8.311 13.189 0.560006 -0.0170981 0.828312
-17.514 -9.25963 14.049 0.49165 -0.685061 0.537562
-11.8664 -7.89288 11.6814 0.925801 0.288131 0.244691
-14.7009 -6.59762 11.1679 0.0296261 0.873256 0.48636
-11.9755 -8.58128 10.676 0.966685 -0.248206 -0.0625664
-13.8919 -10.6025 10.1834 0.261635 -0.89178 -0.369156
-16.148 -6.504 11.925 -0.00710704 0.953404 0.301612
-12.6095 -10.0452 9.3735 0.542641 -0.838511 -0.0493975
-12.7347 -6.67925 11.2995 0.542763 0.809233 0.224834
-16.8307 -10.4169 10.779 -0.153617 -0.908316 0.389055
-16.9757 -6.96663 13.2185 0.376412 0.835002 0.401355
-17.9295 -10.4807 10.9862 0.203772 -0.92024 0.334119
-15.7953 -11.7142 9.2675 0.362476 -0.599477 0.71361
-17.4771 -8.27312 14.8329 0.768646 0.0622127 0.636642
-18.8803 -10.169 13.2294 0.33354 -0.863241 0.378902
-14.1222 -10.2362 9.119 0.317312 -0.932536 -0.172307
-12.103 -9.03475 9.50412 0.980273 -0.191873 0.0474305
-17.1421 -6.82312 12.0845 -0.152349 0.98768 0.0357603
-15.9875 -6.25688 10.7812 -0.121422 0.969182 0.214344
-13.458 -6.166 10.4875 0.45716 0.797129 0.394449
-14.301 -5.57575 9.97925 -0.0692064 0.947961 0.310774
-12.3398 -7.645 9.37088 0.924471 0.364109 0.113044
-18.7052 -8.91075 15.6088 0.310808 -0.574763 0.756998
-19.6565 -10.831 12.367 0.274914 -0.94072 0.198669
-15.0331 -10.8427 8.19519 0.794612 -0.606942 0.0145697
-19.3897 -9.711 14.9198 0.116296 -0.788879 0.603444
-17.0993 -11.123 9.728 0.050641 -0.657794 0.751493
-17.718 -6.87575 14.2485 0.512979 0.736748 0.440518
-12.8751 -6.93699 9.90541 0.835044 0.540928 0.100493
-17.3175 -6.78494 10.7539 -0.388625 0.920736 -0.0348559
-12.506 -9.99162 7.804 0.635587 -0.747884 0.191569
-15.4423 -12.6602 8.57187 0.852243 -0.0237596 0.522606
-16.9205 -12.4824 9.382 0.135998 -0.151947 0.978988
-18.9158 -11.0653 10.1265 0.121158 -0.873156 0.472144
-13.9075 -10.017 7.865 0.259067 -0.965505 0.0261541
-15.1096 -5.77063 8.9065 -0.310933 0.949581 0.0402105
-18.6612 -6.53963 13.6825 -0.000841628 0.999542 0.0302569
-18.7201 -6.78025 12.6282 -0.152706 0.974744 -0.162957
-11.8993 -8.36287 8.442 0.964895 -0.0701074 0.253104
-18.577 -7.85475 16.1035 0.252151 0.0676973 0.965317
-19.6926 -8.51519 15.6915 -0.354727 -0.0505206 0.933604
-13.241 -5.649 9.247 0.614975 0.780192 0.114477
-16.2255 -6.05162 9.27262 -0.461001 0.876281 -0.140032
-20.4727 -10.84 11.5573 0.178683 -0.983373 0.0324074
-11.8705 -7.17175 8.259 0.864563 0.350963 0.359662
-12.8769 -10.1391 6.88319 0.131502 -0.934215 0.331585
-18.9241 -6.96331 15.3907 -0.0184397 0.791083 0.61143
-11.812 -9.762 7.06 0.615945 -0.653441 0.440031
-12.6625 -6.508 8.608 0.680533 0.704461 0.201519
-14.104 -5.607 8.4465 0.193419 0.970278 -0.145428
-18.2342 -11.6804 9.38488 0.0164741 -0.403704 0.914741
-18.7665 -7.0945 11.2499 -0.299586 0.93472 -0.191174
-20.5565 -9.0725 15.2525 -0.414445 -0.295017 0.86093
-15.7753 -13.6415 9.037 0.598663 -0.155371 0.785788
-21.034 -11.12 12.8165 0.113043 -0.956829 0.267767
-14.9621 -13.321 7.748 0.99373 -0.101835 -0.0461542
-17.5917 -7.18325 9.48575 -0.378216 0.888554 -0.259664
-20.5748 -10.6032 13.6053 0.165732 -0.814987 0.555274
-14.445 -10.3615 6.8575 0.282855 -0.951239 0.123036
-18.0556 -12.7589 9.22262 -0.0476964 -0.0733478 0.996165
-20.1047 -10.9861 10.3837 0.0714146 -0.930488 0.359294
-15.515 -10.8661 6.57281 0.48398 -0.503505 -0.715714
-15.5191 -12.0419 7.088 0.91038 0.0224387 -0.413164
-19.4322 -12.1868 9.29225 -0.212148 -0.370685 0.904205
-14.932 -5.647 7.568 -0.296399 0.936559 -0.187094
-21.3085 -9.72125 14.475 -0.296893 -0.396969 0.868487
-19.8096 -7.3305 12.1806 -0.422493 0.867754 -0.261729
-11.4354 -8.68175 7.05188 0.906893 -0.122837 0.403059
-21.614 -11.3695 11.8645 0.106096 -0.993403 0.0435226
-17.3923 -14.1713 9.258 0.0915104 -0.0876395 0.99194
-13.372 -10.6006 6.02413 -0.0596607 -0.878413 0.474163
-12.2273 -6.29025 7.618 0.471934 0.879836 0.0562706
-20.2059 -7.42238 15.0086 -0.50206 0.590406 0.631946
-13.272 -6.136 7.7405 0.294234 0.941491 -0.164379
-21.971 -11.1005 13.301 -0.106652 -0.920423 0.376093
-19.1464 -7.52119 10.2719 -0.399648 0.857733 -0.323382
-16.797 -7.092 8.42344 -0.523127 0.761681 -0.382335
-14.7054 -10.5063 5.86097 -0.4303 -0.792922 -0.431412
-11.6785 -6.84125 6.825 0.838956 0.538302 -0.0799012
-21.0061 -8.00712 14.7624 -0.648611 0.390745 0.653164
-20.559 -7.1895 13.942 -0.497218 0.864605 0.072329
-18.2022 -7.71938 8.54775 -0.409342 0.880558 -0.238866
-11.751 -10.7425 5.8105 0.396025 -0.647829 0.650755
-15.6615 -13.451 6.55475 0.651625 -0.0982242 -0.752155
-15.4785 -14.6277 7.97256 0.911759 -0.386778 0.138194
-16.3779 -15.1609 8.73063 0.603037 -0.285722 0.744788
-22.2157 -11.2505 11.018 -0.570993 -0.788321 -0.229164
-22.5958 -11.0782 12.0903 -0.547987 -0.836459 -0.00682782
-15.0556 -5.97862 6.50075 -0.215017 0.789825 -0.574408
-16.3687 -9.7295 6.31975 0.0285716 0.0449732 -0.99858
-21.215 -11.1318 9.35975 -0.744433 -0.667498 -0.0163054
-16.6131 -12.3586 6.12388 0.345698 -0.0165249 -0.9382
-22.25 -10.51 14.0815 -0.21873 -0.517828 0.82705
-20.3319 -8.01456 10.5962 -0.518208 0.814055 -0.262249
-18.6268 -14.3872 9.21212 -0.221777 -0.135436 0.965646
-11.4478 -7.79975 5.989 0.823888 0.557988 -0.0992903
-22.5636 -9.17675 13.9983 -0.683619 0.390177 0.616787
-17.892 -15.428 9.281 0.116394 -0.190557 0.974751
-13.6117 -11.175 4.89675 -0.696635 -0.71703 -0.0238453
-16.202 -14.757 6.7335 0.693306 -0.281304 -0.663472
-10.6932 -9.33603 5.83038 0.856452 0.0908443 0.508171
-15.9235 -6.88912 6.91913 -0.76091 0.44196 -0.475066
-23.1501 -10.4362 13.4981 -0.8196 -0.412353 0.39777
-19.0802 -8.20569 8.0365 -0.410943 0.896665 -0.164671
-17.6164 -10.9056 6.06619 0.183887 -0.0585972 -0.981199
-21.2463 -12.4145 8.2945 -0.828679 -0.207472 0.519853
-16.3965 -7.80387 7.19375 -0.64199 0.406949 -0.649801
-12.0107 -11.6585 5.02125 0.0771251 -0.882121 0.464665
-12.376 -7.104 5.54775 0.484044 0.783913 -0.38882
-13.6648 -6.5765 6.081 0.0196493 0.899341 -0.436807
-18.0842 -8.20588 7.21425 -0.134937 0.904376 -0.404841
-10.49 -10.6082 5.22475 0.703015 -0.398245 0.589212
-23.2505 -10.1637 12.119 -0.959695 -0.166601 -0.226338
-22.468 -10.2434 10.5262 -0.807436 0.0115416 -0.589843
-21.0296 -13.5229 8.1485 -0.891521 -0.183854 0.413991
-21.94 -8.28475 12.0583 -0.558803 0.808481 -0.184656
-15.9945 -15.913 7.365 0.922354 -0.288572 -0.256885
-21.89 -8.36 13.2975 -0.697337 0.699089 0.158102
-20.5295 -14.376 8.6625 -0.55913 -0.270747 0.783626
-21.3429 -8.80112 10.9245 -0.570952 0.665772 -0.480377
-14.4462 -9.07288 4.63263 -0.778934 -0.231027 -0.582999
-21.2008 -9.84212 9.65075 -0.859396 0.384081 -0.337521
-17.0509 -8.59725 6.72237 -0.122438 0.665458 -0.736325
-10.8741 -11.4235 4.4755 0.475498 -0.856857 0.199244
-16.33 -16.601 8.361 0.615923 -0.571743 0.541986
-17.024 -14.482 6.2055 0.297968 -0.0577432 -0.952828
-20.2418 -8.73088 8.9535 -0.578139 0.774489 -0.256755
-12.859 -11.912 4.451 -0.309202 -0.947626 -0.0799973
-21.2681 -11.1785 7.83337 -0.94573 0.273552 -0.175396
-17.8595 -9.8705 5.769 0.224566 0.00574713 -0.974442
-14.8977 -7.449 5.739 -0.628185 0.379633 -0.679163
-15.3691 -8.4265 6.08112 -0.674685 0.13659 -0.725358
-23.1583 -9.1395 12.735 -0.882032 0.469308 0.0420707
-13.2327 -11.0689 3.64887 -0.603856 -0.520526 -0.603664
-10.9235 -8.4425 4.6665 0.712314 0.697913 -0.0743393
-18.546 -16.659 8.829 -0.355854 -0.558254 0.74948
-18.3759 -12.6317 6.00986 0.0137997 -0.00136579 -0.999904
-10.0812 -9.64756 4.613 0.930022 0.363453 0.0544062
-18.8111 -11.0901 5.96569 -0.0226724 -0.183419 -0.982773
-19.5457 -15.5938 8.26275 -0.595623 -0.639314 0.486324
-12.2902 -7.80613 4.51762 0.383876 0.81815 -0.428101
-21.6275 -12.2069 7.23287 -0.991279 -0.0642374 -0.115063
-11.9443 -11.6205 3.769 0.0721648 -0.886644 -0.456788
-18.2376 -8.663 6.14975 0.134453 0.637763 -0.758407
-17.642 -15.301 5.926 0.277019 -0.12556 -0.952625
-22.8326 -9.38325 11.3923 -0.723974 0.485879 -0.489677
-20.1029 -8.894 7.0315 -0.638649 0.687559 -0.345528
-20.5295 -15.273 8.13 -0.617464 -0.670725 0.410933
-13.6791 -9.44462 3.96638 -0.784663 -0.0162267 -0.619709
-13.3769 -7.07369 4.50744 -0.112079 0.745032 -0.657546
-19.2903 -8.58975 6.42 -0.340881 0.769253 -0.540417
-9.833 -10.511 4.03075 0.936734 -0.324897 -0.130271
-16.563 -16.835 6.796 0.653131 -0.583754 -0.48234
-21.1752 -14.5775 7.42725 -0.952801 -0.297653 -0.0597687
-10.8845 -11.1531 3.41825 0.454185 -0.617366 -0.64232
-14.569 -7.8455 4.5965 -0.689979 0.36658 -0.624138
-18.9745 -9.794 5.5925 -0.196269 0.14308 -0.970055
-18.3609 -14.2872 5.9515 -0.00733023 -0.0488615 -0.998779
-21.079 -11.3485 6.5885 -0.682771 0.396006 -0.614006
-20.8336 -9.35913 7.769 -0.790303 0.559278 -0.250258
-20.9698 -12.8448 6.57812 -0.735286 -0.113084 -0.668256
3 134 113 96
3 96 113 82
3 113 109 82
3 109 91 74
3 91 119 104
3 129 149 162
3 149 113 132
3 136 83 110
3 83 132 97
3 97 132 134
3 97 96 89
3 69 57 96
3 63 89 57
3 96 57 89
3 69 42 57
3 40 42 74
3 85 40 71
3 40 74 71
3 85 103 107
3 80 107 122
3 122 107 145
3 103 130 107
3 130 136 138
3 136 143 138
3 110 83 68
3 54 83 97
3 44 63 30
3 31 16 18
3 7 16 3
3 3 16 15
3 28 16 40
3 16 31 40
3 60 50 40
3 40 50 28
3 60 77 50
3 80 131 135
3 122 158 131
3 131 158 177
3 131 177 170
3 163 176 120
3 143 110 92
3 120 143 98
3 93 73 46
3 68 46 73
3 27 34 54
3 34 27 23
3 23 27 12
3 27 30 17
3 27 17 12
3 30 18 17
3 17 18 7
3 4 7 1
3 4 0 2
3 28 50 43
3 43 50 67
3 43 67 49
3 49 67 76
3 111 114 86
3 114 111 152
3 111 76 80
3 111 156 152
3 167 127 160
3 127 98 93
3 93 59 52
3 118 93 81
3 52 81 93
3 35 52 59
3 35 46 23
3 20 23 12
3 20 12 11
3 11 14 20
3 11 12 4
3 4 14 11
3 8 19 14
3 21 9 10
3 10 24 21
3 33 21 24
3 10 9 5
3 5 9 2
3 2 0 5
3 10 22 24
3 10 13 22
3 22 13 15
3 49 48 29
3 102 86 114
3 102 133 101
3 101 133 116
3 133 161 116
3 116 161 142
3 142 161 174
3 142 174 153
3 79 108 78
3 108 121 78
3 146 121 155
3 146 155 173
3 148 94 106
3 146 160 106
3 148 139 123
3 118 147 123
3 147 105 126
3 147 126 172
3 172 126 166
3 81 90 105
3 126 105 90
3 90 88 126
3 66 81 52
3 58 65 66
3 90 66 65
3 65 88 90
3 45 65 58
3 65 61 88
3 25 36 20
3 21 33 38
3 55 33 47
3 24 47 33
3 48 72 79
3 41 48 79
3 72 100 79
3 94 87 75
3 94 75 78
3 124 87 115
3 87 94 115
3 94 137 115
3 115 137 165
3 115 165 150
3 165 137 172
3 137 148 172
3 166 125 157
3 95 125 126
3 95 112 125
3 95 84 112
3 84 117 112
3 84 47 64
3 117 84 99
3 64 99 84
3 64 47 62
3 62 99 64
3 128 117 99
3 99 140 128
3 117 154 151
3 154 117 128
3 112 157 125
3 113 134 132
3 109 74 82
3 40 31 42
3 60 40 85
3 77 60 85
3 77 107 80
3 107 77 85
3 145 107 138
3 145 138 176
3 138 107 130
3 143 176 138
3 110 143 136
3 68 92 110
3 7 18 16
3 26 15 16
3 26 16 28
3 80 67 50
3 80 50 77
3 80 76 67
3 143 120 176
3 93 98 73
3 68 73 92
3 23 46 34
3 12 17 4
3 7 4 17
3 29 15 26
3 29 26 43
3 28 43 26
3 29 43 49
3 123 93 118
3 20 37 52
3 20 52 35
3 23 20 35
3 36 37 20
3 146 106 121
3 121 106 78
3 78 106 94
3 139 148 106
3 139 106 160
3 123 139 93
3 93 139 127
3 127 139 160
3 148 123 147
3 172 148 147
3 66 90 81
3 38 61 65
3 38 65 45
3 55 38 33
3 41 51 32
3 32 51 24
3 24 51 47
3 15 41 32
3 22 15 32
3 24 22 32
3 48 41 29
3 29 41 15
3 41 78 75
3 41 75 51
3 51 75 62
3 51 62 47
3 62 75 87
3 38 55 61
3 124 99 87
3 62 87 99
3 113 149 119
3 119 129 104
3 119 91 109
3 119 109 113
3 119 149 129
3 136 132 83
3 42 69 82
3 82 69 96
3 134 96 97
3 85 71 104
3 91 104 71
3 91 71 74
3 162 136 130
3 129 162 130
3 129 130 104
3 104 130 103
3 104 103 85
3 132 136 162
3 132 162 149
3 54 97 53
3 53 63 44
3 63 53 97
3 63 97 89
3 56 63 57
3 56 57 39
3 56 39 30
3 30 63 56
3 18 42 31
3 18 30 39
3 18 39 42
3 42 39 57
3 122 131 80
3 158 145 175
3 158 175 177
3 158 122 145
3 92 73 143
3 98 143 73
3 83 54 68
3 46 68 34
3 54 34 68
3 30 27 44
3 53 44 27
3 27 54 53
3 7 3 1
3 1 0 4
3 0 1 3
3 111 86 76
3 135 111 80
3 156 111 135
3 164 156 135
3 164 135 170
3 170 135 131
3 163 120 167
3 127 167 120
3 98 127 120
3 46 59 93
3 35 59 46
3 9 19 8
3 8 2 9
3 9 21 19
3 8 14 4
3 8 4 2
3 6 3 13
3 6 13 10
3 6 10 5
3 0 6 5
3 6 0 3
3 13 3 15
3 86 49 76
3 49 86 70
3 49 70 48
3 70 86 102
3 133 141 169
3 133 169 161
3 141 102 114
3 141 114 152
3 141 133 102
3 153 121 108
3 121 153 155
3 160 146 173
3 160 173 167
3 105 118 81
3 105 147 118
3 36 58 37
3 58 66 37
3 37 66 52
3 58 36 45
3 19 25 14
3 19 38 25
3 25 20 14
3 38 19 21
3 72 70 101
3 72 101 116
3 72 116 100
3 72 48 70
3 70 102 101
3 142 153 108
3 100 142 108
3 142 100 116
3 100 108 79
3 94 148 137
3 166 126 125
3 166 165 172
3 126 88 95
3 88 61 95
3 95 61 55
3 95 55 84
3 55 47 84
3 78 41 79
3 150 159 144
3 144 159 124
3 124 115 144
3 144 115 150
3 159 171 140
3 159 140 124
3 124 140 99
3 157 112 151
3 151 112 117
3 168 140 171
3 168 154 128
3 168 128 140
3 25 38 45
3 25 45 36
3 82 74 42
