ply
format ascii 1.0
comment Generated by PyMesh
element vertex 144
property float x
property float y
property float z
property float nx
property float ny
property float nz
element face 258
property list uchar int vertex_indices
end_header
-22.8326 -9.38325 11.3923 -0.723974 0.485879 -0.489677
-23.2505 -10.1637 12.119 -0.959695 -0.166601 -0.226338
-22.468 -10.2434 10.5262 -0.807436 0.0115416 -0.589843
-23.1583 -9.1395 12.735 -0.882032 0.469308 0.0420707
-21.94 -8.28475 12.0583 -0.558803 0.808481 -0.184656
-21.3429 -8.80112 10.9245 -0.570952 0.665772 -0.480377
-22.5958 -11.0782 12.0903 -0.547987 -0.836459 -0.00682782
-22.2157 -11.2505 11.018 -0.570993 -0.788321 -0.229164
-23.1501 -10.4362 13.4981 -0.8196 -0.412353 0.39777
-22.5636 -9.17675 13.9983 -0.683619 0.390177 0.616787
-21.89 -8.36 13.2975 -0.697337 0.699089 0.158102
-21.2008 -9.84212 9.65075 -0.859396 0.384081 -0.337521
-20.3319 -8.01456 10.5962 -0.518208 0.814055 -0.262249
-21.215 -11.1318 9.35975 -0.744433 -0.667498 -0.0163054
-21.614 -11.3695 11.8645 0.106096 -0.993403 0.0435226
-22.25 -10.51 14.0815 -0.21873 -0.517828 0.82705
-21.971 -11.1005 13.301 -0.106652 -0.920423 0.376093
-19.8096 -7.3305 12.1806 -0.422493 0.867754 -0.261729
-20.2418 -8.73088 8.9535 -0.578139 0.774489 -0.256755
-21.034 -11.12 12.8165 0.113043 -0.956829 0.267767
-20.559 -7.1895 13.942 -0.497218 0.864605 0.072329
-21.3085 -9.72125 14.475 -0.296893 -0.396969 0.868487
-19.1464 -7.52119 10.2719 -0.399648 0.857733 -0.323382
-21.0061 -8.00712 14.7624 -0.648611 0.390745 0.653164
-20.4727 -10.84 11.5573 0.178683 -0.983373 0.0324074
-20.1047 -10.9861 10.3837 0.0714146 -0.930488 0.359294
-21.2681 -11.1785 7.83337 -0.94573 0.273552 -0.175396
-20.8336 -9.35913 7.769 -0.790303 0.559278 -0.250258
-21.2463 -12.4145 8.2945 -0.828679 -0.207472 0.519853
-18.7665 -7.0945 11.2499 -0.299586 0.93472 -0.191174
-20.5748 -10.6032 13.6053 0.165732 -0.814987 0.555274
-18.7201 -6.78025 12.6282 -0.152706 0.974744 -0.162957
-19.4322 -12.1868 9.29225 -0.212148 -0.370685 0.904205
-20.2059 -7.42238 15.0086 -0.50206 0.590406 0.631946
-19.6565 -10.831 12.367 0.274914 -0.94072 0.198669
-19.0802 -8.20569 8.0365 -0.410943 0.896665 -0.164671
-20.5565 -9.0725 15.2525 -0.414445 -0.295017 0.86093
-18.9158 -11.0653 10.1265 0.121158 -0.873156 0.472144
-21.6275 -12.2069 7.23287 -0.991279 -0.0642374 -0.115063
-20.1029 -8.894 7.0315 -0.638649 0.687559 -0.345528
-21.079 -11.3485 6.5885 -0.682771 0.396006 -0.614006
-21.0296 -13.5229 8.1485 -0.891521 -0.183854 0.413991
-17.5917 -7.18325 9.48575 -0.378216 0.888554 -0.259664
-18.6612 -6.53963 13.6825 -0.000841628 0.999542 0.0302569
-19.3897 -9.711 14.9198 0.116296 -0.788879 0.603444
-18.2022 -7.71938 8.54775 -0.409342 0.880558 -0.238866
-19.6926 -8.51519 15.6915 -0.354727 -0.0505206 0.933604
-18.9241 -6.96331 15.3907 -0.0184397 0.791083 0.61143
-17.3175 -6.78494 10.7539 -0.388625 0.920736 -0.0348559
-18.2342 -11.6804 9.38488 0.0164741 -0.403704 0.914741
-18.8803 -10.169 13.2294 0.33354 -0.863241 0.378902
-17.1421 -6.82312 12.0845 -0.152349 0.98768 0.0357603
-18.0556 -12.7589 9.22262 -0.0476964 -0.0733478 0.996165
-19.798 -9.5555 6.1505 -0.685014 0.268413 -0.677282
-18.0842 -8.20588 7.21425 -0.134937 0.904376 -0.404841
-19.9814 -11.0499 6.23387 -0.420198 0.121153 -0.899308
-19.2903 -8.58975 6.42 -0.340881 0.769253 -0.540417
-16.9757 -6.96663 13.2185 0.376412 0.835002 0.401355
-20.9698 -12.8448 6.57812 -0.735286 -0.113084 -0.668256
-20.5295 -14.376 8.6625 -0.55913 -0.270747 0.783626
-21.1752 -14.5775 7.42725 -0.952801 -0.297653 -0.0597687
-18.7052 -8.91075 15.6088 0.310808 -0.574763 0.756998
-17.718 -6.87575 14.2485 0.512979 0.736748 0.440518
-17.9295 -10.4807 10.9862 0.203772 -0.92024 0.334119
-16.797 -7.092 8.42344 -0.523127 0.761681 -0.382335
-18.577 -7.85475 16.1035 0.252151 0.0676973 0.965317
-18.6268 -14.3872 9.21212 -0.221777 -0.135436 0.965646
-18.9745 -9.794 5.5925 -0.196269 0.14308 -0.970055
-17.0993 -11.123 9.728 0.050641 -0.657794 0.751493
-16.148 -6.504 11.925 -0.00710704 0.953404 0.301612
-17.3449 -10.0703 12.3079 0.0072831 -0.933307 0.359005
-15.9875 -6.25688 10.7812 -0.121422 0.969182 0.214344
-16.9205 -12.4824 9.382 0.135998 -0.151947 0.978988
-18.2376 -8.663 6.14975 0.134453 0.637763 -0.758407
-18.8111 -11.0901 5.96569 -0.0226724 -0.183419 -0.982773
-17.0509 -8.59725 6.72237 -0.122438 0.665458 -0.736325
-20.5295 -15.273 8.13 -0.617464 -0.670725 0.410933
-20.1175 -13.1535 6.00425 -0.293098 0.0207855 -0.955856
-17.3923 -14.1713 9.258 0.0915104 -0.0876395 0.99194
-17.514 -9.25963 14.049 0.49165 -0.685061 0.537562
-17.4771 -8.27312 14.8329 0.768646 0.0622127 0.636642
-20.522 -15.3763 7.039 -0.592351 -0.755004 -0.281227
-16.2255 -6.05162 9.27262 -0.461001 0.876281 -0.140032
-16.8307 -10.4169 10.779 -0.153617 -0.908316 0.389055
-16.241 -8.311 13.189 0.560006 -0.0170981 0.828312
-19.5457 -15.5938 8.26275 -0.595623 -0.639314 0.486324
-15.3359 -7.39187 12.6465 0.325666 0.554776 0.765614
-19.9883 -14.2528 6.0595 -0.390303 -0.208518 -0.896763
-16.3965 -7.80387 7.19375 -0.64199 0.406949 -0.649801
-17.892 -15.428 9.281 0.116394 -0.190557 0.974751
-17.8595 -9.8705 5.769 0.224566 0.00574713 -0.974442
-18.3759 -12.6317 6.00986 0.0137997 -0.00136579 -0.999904
-16.3324 -9.57938 12.9113 0.0748673 -0.400341 0.913303
-15.9235 -6.88912 6.91913 -0.76091 0.44196 -0.475066
-17.6164 -10.9056 6.06619 0.183887 -0.0585972 -0.981199
-14.7009 -6.59762 11.1679 0.0296261 0.873256 0.48636
-15.7953 -11.7142 9.2675 0.362476 -0.599477 0.71361
-16.3687 -9.7295 6.31975 0.0285716 0.0449732 -0.99858
-15.7753 -13.6415 9.037 0.598663 -0.155371 0.785788
-15.1096 -5.77063 8.9065 -0.310933 0.949581 0.0402105
-15.4423 -12.6602 8.57187 0.852243 -0.0237596 0.522606
-15.3691 -8.4265 6.08112 -0.674685 0.13659 -0.725358
-19.2083 -16.5305 7.822 -0.776665 -0.627934 0.0499063
-16.3779 -15.1609 8.73063 0.603037 -0.285722 0.744788
-14.464 -7.162 12.191 0.114718 0.636867 0.762391
-15.5977 -11.0153 10.756 -0.0446271 -0.998487 -0.032134
-18.546 -16.659 8.829 -0.355854 -0.558254 0.74948
-14.932 -5.647 7.568 -0.296399 0.936559 -0.187094
-19.0273 -15.927 6.49744 -0.528751 -0.455518 -0.716189
-14.4009 -8.38313 12.5551 0.107231 0.209066 0.972005
-15.342 -10.0555 13.1505 -0.0446152 -0.133316 0.990069
-15.1456 -11.1446 12.3993 -0.2113 -0.771271 0.600411
-15.0556 -5.97862 6.50075 -0.215017 0.789825 -0.574408
-18.3609 -14.2872 5.9515 -0.00733023 -0.0488615 -0.998779
-14.104 -5.607 8.4465 0.193419 0.970278 -0.145428
-13.458 -6.166 10.4875 0.45716 0.797129 0.394449
-14.9621 -13.321 7.748 0.99373 -0.101835 -0.0461542
-15.515 -10.8661 6.57281 0.48398 -0.503505 -0.715714
-14.8977 -7.449 5.739 -0.628185 0.379633 -0.679163
-16.6131 -12.3586 6.12388 0.345698 -0.0165249 -0.9382
-15.0331 -10.8427 8.19519 0.794612 -0.606942 0.0145697
-14.301 -5.57575 9.97925 -0.0692064 0.947961 0.310774
-16.33 -16.601 8.361 0.615923 -0.571743 0.541986
-15.4785 -14.6277 7.97256 0.911759 -0.386778 0.138194
-18.546 -17.069 6.767 -0.520319 -0.750265 -0.407887
-14.3614 -9.91488 12.9845 0.234477 -0.201325 0.951046
-15.5191 -12.0419 7.088 0.91038 0.0224387 -0.413164
-12.7347 -6.67925 11.2995 0.542763 0.809233 0.224834
-14.7054 -10.5063 5.86097 -0.4303 -0.792922 -0.431412
-13.0522 -7.41862 12.387 0.195902 0.639444 0.74346
-17.024 -14.482 6.2055 0.297968 -0.0577432 -0.952828
-14.344 -11.6005 11.3425 0.168142 -0.957274 -0.235276
-15.9945 -15.913 7.365 0.922354 -0.288572 -0.256885
-14.569 -7.8455 4.5965 -0.689979 0.36658 -0.624138
-17.671 -17.4522 7.593 -0.0242997 -0.998533 0.0483818
-14.4462 -9.07288 4.63263 -0.778934 -0.231027 -0.582999
-13.272 -6.136 7.7405 0.294234 0.941491 -0.164379
-17.642 -15.301 5.926 0.277019 -0.12556 -0.952625
-13.8919 -10.6025 10.1834 0.261635 -0.89178 -0.369156
-13.2242 -9.37725 12.7205 0.361253 -0.155347 0.919437
-17.671 -16.924 6.2925 -0.019153 -0.60768 -0.793951
-12.8751 -6.93699 9.90541 0.835044 0.540928 0.100493
-13.241 -5.649 9.247 0.614975 0.780192 0.114477
-13.5262 -11.3118 12.1214 0.505235 -0.737635 0.447921
3 10 9 23
3 23 9 21
3 9 15 21
3 15 16 30
3 16 8 6
3 1 3 0
3 3 9 4
3 5 17 12
3 17 4 20
3 20 4 10
3 20 23 33
3 36 46 23
3 47 33 46
3 23 46 33
3 36 44 46
3 34 44 30
3 14 34 19
3 34 30 19
3 14 7 13
3 32 13 28
3 28 13 26
3 7 2 13
3 2 5 11
3 5 18 11
3 12 17 29
3 31 17 20
3 62 47 80
3 50 70 79
3 92 70 111
3 111 70 105
3 63 70 34
3 70 50 34
3 24 37 34
3 34 37 63
3 24 25 37
3 32 41 59
3 28 38 41
3 41 38 58
3 41 58 60
3 58 40 55
3 40 26 55
3 55 26 53
3 53 26 27
3 39 27 35
3 18 12 22
3 35 18 45
3 64 42 48
3 29 48 42
3 57 51 31
3 51 57 69
3 69 57 86
3 57 80 84
3 57 84 86
3 80 79 84
3 84 79 92
3 109 92 110
3 109 125 139
3 63 37 68
3 68 37 49
3 68 49 72
3 72 49 52
3 66 89 78
3 89 66 106
3 66 52 32
3 66 85 106
3 106 85 102
3 76 81 85
3 85 81 108
3 85 108 102
3 87 60 58
3 108 87 113
3 108 113 137
3 91 55 74
3 74 55 67
3 55 53 67
3 53 39 56
3 56 54 73
3 54 45 64
3 64 82 99
3 93 64 107
3 99 107 64
3 71 99 82
3 71 48 69
3 95 69 86
3 95 86 104
3 104 129 95
3 104 86 109
3 109 129 104
3 138 131 105
3 72 100 96
3 103 78 89
3 103 132 123
3 130 137 113
3 130 113 91
3 126 119 117
3 119 94 117
3 90 94 74
3 90 74 67
3 101 128 97
3 90 73 97
3 101 75 88
3 93 118 88
3 107 136 112
3 114 107 99
3 127 115 95
3 100 116 126
3 120 100 126
3 135 101 133
3 9 10 4
3 15 30 21
3 34 50 44
3 24 34 14
3 25 24 14
3 25 13 32
3 13 25 14
3 26 13 11
3 26 11 27
3 11 13 2
3 18 27 11
3 12 18 5
3 29 22 12
3 92 79 70
3 83 105 70
3 83 70 63
3 32 49 37
3 32 37 25
3 32 52 49
3 18 35 27
3 64 45 42
3 29 42 22
3 69 48 51
3 86 84 109
3 92 109 84
3 96 105 83
3 96 83 68
3 63 68 83
3 96 68 72
3 88 64 93
3 95 121 99
3 95 99 71
3 69 95 71
3 115 121 95
3 90 97 94
3 94 97 117
3 117 97 128
3 75 101 97
3 75 97 73
3 88 75 64
3 64 75 54
3 54 75 73
3 101 88 118
3 133 101 118
3 114 136 107
3 100 120 96
3 96 120 105
3 9 3 8
3 8 1 6
3 8 16 15
3 8 15 9
3 8 3 1
3 5 4 17
3 44 36 21
3 21 36 23
3 10 23 20
3 14 19 6
3 16 6 19
3 16 19 30
3 0 5 2
3 1 0 2
3 1 2 6
3 6 2 7
3 6 7 14
3 4 5 0
3 4 0 3
3 31 20 43
3 43 47 62
3 47 43 20
3 47 20 33
3 65 47 46
3 65 46 61
3 65 61 80
3 80 47 65
3 79 44 50
3 79 80 61
3 79 61 44
3 44 61 46
3 28 41 32
3 38 26 40
3 38 40 58
3 38 28 26
3 53 27 39
3 22 42 18
3 45 18 42
3 17 31 29
3 48 29 51
3 31 51 29
3 80 57 62
3 43 62 57
3 57 31 43
3 92 111 110
3 110 125 109
3 125 110 111
3 66 78 52
3 59 66 32
3 85 66 59
3 81 76 60
3 60 87 81
3 81 87 108
3 76 85 59
3 76 59 60
3 60 59 41
3 91 113 87
3 91 87 77
3 77 87 58
3 58 55 77
3 77 55 91
3 39 35 56
3 54 56 35
3 45 54 35
3 48 82 64
3 71 82 48
3 143 111 131
3 143 125 111
3 131 111 105
3 78 72 52
3 72 78 98
3 72 98 100
3 98 78 103
3 122 103 89
3 122 89 106
3 122 106 134
3 140 134 124
3 140 124 108
3 137 140 108
3 134 106 102
3 124 134 102
3 124 102 108
3 122 132 103
3 91 94 119
3 94 91 74
3 73 90 67
3 73 67 56
3 67 53 56
3 112 93 107
3 112 118 93
3 115 142 121
3 142 114 121
3 121 114 99
3 142 115 141
3 127 95 129
3 116 98 123
3 116 100 98
3 98 103 123
3 130 91 119
3 128 101 135
3 117 120 126
3 127 141 115
3 21 30 44
