ply
format ascii 1.0
comment Generated by PyMesh
element vertex 158
property float x
property float y
property float z
property float nx
property float ny
property float nz
element face 287
property list uchar int vertex_indices
end_header
-17.024 -14.482 6.2055 0.297968 -0.0577432 -0.952828
-16.202 -14.757 6.7335 0.693306 -0.281304 -0.663472
-17.642 -15.301 5.926 0.277019 -0.12556 -0.952625
-18.3609 -14.2872 5.9515 -0.00733023 -0.0488615 -0.998779
-15.6615 -13.451 6.55475 0.651625 -0.0982242 -0.752155
-16.6131 -12.3586 6.12388 0.345698 -0.0165249 -0.9382
-18.3759 -12.6317 6.00986 0.0137997 -0.00136579 -0.999904
-15.9945 -15.913 7.365 0.922354 -0.288572 -0.256885
-15.4785 -14.6277 7.97256 0.911759 -0.386778 0.138194
-19.0273 -15.927 6.49744 -0.528751 -0.455518 -0.716189
-17.671 -16.924 6.2925 -0.019153 -0.60768 -0.793951
-19.9883 -14.2528 6.0595 -0.390303 -0.208518 -0.896763
-16.563 -16.835 6.796 0.653131 -0.583754 -0.48234
-14.9621 -13.321 7.748 0.99373 -0.101835 -0.0461542
-15.5191 -12.0419 7.088 0.91038 0.0224387 -0.413164
-16.33 -16.601 8.361 0.615923 -0.571743 0.541986
-18.546 -17.069 6.767 -0.520319 -0.750265 -0.407887
-16.3779 -15.1609 8.73063 0.603037 -0.285722 0.744788
-18.8111 -11.0901 5.96569 -0.0226724 -0.183419 -0.982773
-17.6164 -10.9056 6.06619 0.183887 -0.0585972 -0.981199
-15.7753 -13.6415 9.037 0.598663 -0.155371 0.785788
-15.515 -10.8661 6.57281 0.48398 -0.503505 -0.715714
-20.1175 -13.1535 6.00425 -0.293098 0.0207855 -0.955856
-17.671 -17.4522 7.593 -0.0242997 -0.998533 0.0483818
-19.2083 -16.5305 7.822 -0.776665 -0.627934 0.0499063
-15.4423 -12.6602 8.57187 0.852243 -0.0237596 0.522606
-20.522 -15.3763 7.039 -0.592351 -0.755004 -0.281227
-19.5457 -15.5938 8.26275 -0.595623 -0.639314 0.486324
-19.9814 -11.0499 6.23387 -0.420198 0.121153 -0.899308
-20.9698 -12.8448 6.57812 -0.735286 -0.113084 -0.668256
-21.1752 -14.5775 7.42725 -0.952801 -0.297653 -0.0597687
-15.0331 -10.8427 8.19519 0.794612 -0.606942 0.0145697
-17.8595 -9.8705 5.769 0.224566 0.00574713 -0.974442
-14.7054 -10.5063 5.86097 -0.4303 -0.792922 -0.431412
-17.3923 -14.1713 9.258 0.0915104 -0.0876395 0.99194
-18.9745 -9.794 5.5925 -0.196269 0.14308 -0.970055
-14.445 -10.3615 6.8575 0.282855 -0.951239 0.123036
-18.546 -16.659 8.829 -0.355854 -0.558254 0.74948
-17.892 -15.428 9.281 0.116394 -0.190557 0.974751
-20.5295 -15.273 8.13 -0.617464 -0.670725 0.410933
-16.3687 -9.7295 6.31975 0.0285716 0.0449732 -0.99858
-15.7953 -11.7142 9.2675 0.362476 -0.599477 0.71361
-16.9205 -12.4824 9.382 0.135998 -0.151947 0.978988
-21.079 -11.3485 6.5885 -0.682771 0.396006 -0.614006
-21.6275 -12.2069 7.23287 -0.991279 -0.0642374 -0.115063
-19.798 -9.5555 6.1505 -0.685014 0.268413 -0.677282
-21.0296 -13.5229 8.1485 -0.891521 -0.183854 0.413991
-20.5295 -14.376 8.6625 -0.55913 -0.270747 0.783626
-18.6268 -14.3872 9.21212 -0.221777 -0.135436 0.965646
-18.2376 -8.663 6.14975 0.134453 0.637763 -0.758407
-14.1222 -10.2362 9.119 0.317312 -0.932536 -0.172307
-13.9075 -10.017 7.865 0.259067 -0.965505 0.0261541
-13.372 -10.6006 6.02413 -0.0596607 -0.878413 0.474163
-21.2681 -11.1785 7.83337 -0.94573 0.273552 -0.175396
-19.2903 -8.58975 6.42 -0.340881 0.769253 -0.540417
-18.0556 -12.7589 9.22262 -0.0476964 -0.0733478 0.996165
-13.6117 -11.175 4.89675 -0.696635 -0.71703 -0.0238453
-12.8769 -10.1391 6.88319 0.131502 -0.934215 0.331585
-17.0509 -8.59725 6.72237 -0.122438 0.665458 -0.736325
-17.0993 -11.123 9.728 0.050641 -0.657794 0.751493
-21.2463 -12.4145 8.2945 -0.828679 -0.207472 0.519853
-14.4462 -9.07288 4.63263 -0.778934 -0.231027 -0.582999
-18.2342 -11.6804 9.38488 0.0164741 -0.403704 0.914741
-15.3691 -8.4265 6.08112 -0.674685 0.13659 -0.725358
-15.5977 -11.0153 10.756 -0.0446271 -0.998487 -0.032134
-20.1029 -8.894 7.0315 -0.638649 0.687559 -0.345528
-18.0842 -8.20588 7.21425 -0.134937 0.904376 -0.404841
-13.8919 -10.6025 10.1834 0.261635 -0.89178 -0.369156
-16.8307 -10.4169 10.779 -0.153617 -0.908316 0.389055
-12.506 -9.99162 7.804 0.635587 -0.747884 0.191569
-12.6095 -10.0452 9.3735 0.542641 -0.838511 -0.0493975
-12.859 -11.912 4.451 -0.309202 -0.947626 -0.0799973
-20.8336 -9.35913 7.769 -0.790303 0.559278 -0.250258
-11.812 -9.762 7.06 0.615945 -0.653441 0.440031
-16.3965 -7.80387 7.19375 -0.64199 0.406949 -0.649801
-13.2327 -11.0689 3.64887 -0.603856 -0.520526 -0.603664
-21.215 -11.1318 9.35975 -0.744433 -0.667498 -0.0163054
-13.6791 -9.44462 3.96638 -0.784663 -0.0162267 -0.619709
-11.751 -10.7425 5.8105 0.396025 -0.647829 0.650755
-19.4322 -12.1868 9.29225 -0.212148 -0.370685 0.904205
-14.8977 -7.449 5.739 -0.628185 0.379633 -0.679163
-18.9158 -11.0653 10.1265 0.121158 -0.873156 0.472144
-14.569 -7.8455 4.5965 -0.689979 0.36658 -0.624138
-19.0802 -8.20569 8.0365 -0.410943 0.896665 -0.164671
-12.0107 -11.6585 5.02125 0.0771251 -0.882121 0.464665
-17.9295 -10.4807 10.9862 0.203772 -0.92024 0.334119
-14.344 -11.6005 11.3425 0.168142 -0.957274 -0.235276
-12.9436 -10.2224 11.019 0.731517 -0.668141 -0.135903
-21.2008 -9.84212 9.65075 -0.859396 0.384081 -0.337521
-15.1456 -11.1446 12.3993 -0.2113 -0.771271 0.600411
-18.2022 -7.71938 8.54775 -0.409342 0.880558 -0.238866
-12.103 -9.03475 9.50412 0.980273 -0.191873 0.0474305
-15.9235 -6.88912 6.91913 -0.76091 0.44196 -0.475066
-11.9443 -11.6205 3.769 0.0721648 -0.886644 -0.456788
-11.4354 -8.68175 7.05188 0.906893 -0.122837 0.403059
-16.797 -7.092 8.42344 -0.523127 0.761681 -0.382335
-17.3449 -10.0703 12.3079 0.0072831 -0.933307 0.359005
-13.0129 -10.0099 2.87462 -0.573655 -0.0963802 -0.813407
-20.2418 -8.73088 8.9535 -0.578139 0.774489 -0.256755
-13.316 -8.237 3.639 -0.437458 0.564787 -0.699748
-20.1047 -10.9861 10.3837 0.0714146 -0.930488 0.359294
-10.49 -10.6082 5.22475 0.703015 -0.398245 0.589212
-11.8993 -8.36287 8.442 0.964895 -0.0701074 0.253104
-13.3769 -7.07369 4.50744 -0.112079 0.745032 -0.657546
-10.8741 -11.4235 4.4755 0.475498 -0.856857 0.199244
-13.5262 -11.3118 12.1214 0.505235 -0.737635 0.447921
-13.6648 -6.5765 6.081 0.0196493 0.899341 -0.436807
-12.649 -8.50275 2.91175 -0.315555 0.609038 -0.727666
-10.6932 -9.33603 5.83038 0.856452 0.0908443 0.508171
-15.0556 -5.97862 6.50075 -0.215017 0.789825 -0.574408
-11.9755 -8.58128 10.676 0.966685 -0.248206 -0.0625664
-13.02 -10.359 12.2035 0.696805 -0.463734 0.547187
-22.468 -10.2434 10.5262 -0.807436 0.0115416 -0.589843
-22.2157 -11.2505 11.018 -0.570993 -0.788321 -0.229164
-11.8895 -10.1025 2.57025 0.0482922 -0.387864 -0.920451
-12.197 -9.42212 11.7636 0.862853 -0.415286 0.288135
-17.5917 -7.18325 9.48575 -0.378216 0.888554 -0.259664
-15.342 -10.0555 13.1505 -0.0446152 -0.133316 0.990069
-10.8845 -11.1531 3.41825 0.454185 -0.617366 -0.64232
-20.4727 -10.84 11.5573 0.178683 -0.983373 0.0324074
-14.3614 -9.91488 12.9845 0.234477 -0.201325 0.951046
-12.3398 -7.645 9.37088 0.924471 0.364109 0.113044
-21.3429 -8.80112 10.9245 -0.570952 0.665772 -0.480377
-11.4478 -7.79975 5.989 0.823888 0.557988 -0.0992903
-16.2255 -6.05162 9.27262 -0.461001 0.876281 -0.140032
-16.3324 -9.57938 12.9113 0.0748673 -0.400341 0.913303
-19.6565 -10.831 12.367 0.274914 -0.94072 0.198669
-21.614 -11.3695 11.8645 0.106096 -0.993403 0.0435226
-10.0812 -9.64756 4.613 0.930022 0.363453 0.0544062
-14.932 -5.647 7.568 -0.296399 0.936559 -0.187094
-11.8705 -7.17175 8.259 0.864563 0.350963 0.359662
-12.2902 -7.80613 4.51762 0.383876 0.81815 -0.428101
-9.833 -10.511 4.03075 0.936734 -0.324897 -0.130271
-11.8837 -9.04 2.4785 0.153279 0.291459 -0.944223
-11.6785 -6.84125 6.825 0.838956 0.538302 -0.0799012
-13.2242 -9.37725 12.7205 0.361253 -0.155347 0.919437
-18.8803 -10.169 13.2294 0.33354 -0.863241 0.378902
-12.376 -7.104 5.54775 0.484044 0.783913 -0.38882
-11.8664 -7.89288 11.6814 0.925801 0.288131 0.244691
-22.5958 -11.0782 12.0903 -0.547987 -0.836459 -0.00682782
-20.3319 -8.01456 10.5962 -0.518208 0.814055 -0.262249
-17.514 -9.25963 14.049 0.49165 -0.685061 0.537562
-22.8326 -9.38325 11.3923 -0.723974 0.485879 -0.489677
-15.1096 -5.77063 8.9065 -0.310933 0.949581 0.0402105
-11.257 -8.62237 3.36025 0.542133 0.720849 -0.431819
-10.9235 -8.4425 4.6665 0.712314 0.697913 -0.0743393
-12.8751 -6.93699 9.90541 0.835044 0.540928 0.100493
-17.3175 -6.78494 10.7539 -0.388625 0.920736 -0.0348559
-19.1464 -7.52119 10.2719 -0.399648 0.857733 -0.323382
-10.5933 -9.69675 3.23019 0.696395 0.171832 -0.696784
-13.272 -6.136 7.7405 0.294234 0.941491 -0.164379
-12.423 -8.28925 12.7095 0.46641 0.0899128 0.879987
-21.034 -11.12 12.8165 0.113043 -0.956829 0.267767
-23.2505 -10.1637 12.119 -0.959695 -0.166601 -0.226338
-12.6625 -6.508 8.608 0.680533 0.704461 0.201519
-21.94 -8.28475 12.0583 -0.558803 0.808481 -0.184656
-12.2273 -6.29025 7.618 0.471934 0.879836 0.0562706
-16.241 -8.311 13.189 0.560006 -0.0170981 0.828312
3 127 126 152
3 127 113 76
3 79 76 60
3 60 76 53
3 113 112 76
3 112 122 88
3 122 98 88
3 136 96 141
3 125 96 89
3 89 96 64
3 85 96 126
3 96 136 126
3 119 81 126
3 126 81 85
3 119 100 81
3 79 46 47
3 60 44 46
3 46 44 29
3 46 29 30
3 29 43 28
3 43 53 28
3 28 53 45
3 45 53 72
3 65 72 83
3 98 140 148
3 83 98 90
3 95 116 147
3 157 141 125
3 85 81 59
3 59 81 62
3 59 62 42
3 42 62 55
3 48 38 34
3 38 48 37
3 48 55 79
3 48 27 37
3 37 27 24
3 39 26 27
3 27 26 9
3 27 9 24
3 11 30 29
3 9 11 3
3 9 3 2
3 6 28 18
3 18 28 35
3 28 45 35
3 45 65 54
3 54 66 49
3 66 90 95
3 95 124 143
3 92 95 129
3 143 129 95
3 110 115 87
3 87 70 110
3 91 110 70
3 87 115 111
3 111 115 135
3 135 120 111
3 87 67 70
3 87 86 67
3 67 86 64
3 42 25 41
3 17 34 38
3 17 7 8
3 8 7 1
3 7 2 1
3 1 2 0
3 0 2 3
3 0 3 6
3 14 5 21
3 5 19 21
3 32 19 18
3 32 18 35
3 63 33 40
3 32 49 40
3 63 58 74
3 92 80 74
3 80 109 106
3 80 106 82
3 82 106 103
3 129 150 109
3 106 109 150
3 150 156 106
3 154 156 150
3 154 130 156
3 110 91 121
3 102 91 69
3 70 69 91
3 25 13 14
3 31 25 14
3 13 4 14
3 33 52 36
3 33 36 21
3 84 52 56
3 52 33 56
3 33 61 56
3 56 61 77
3 56 77 75
3 77 61 82
3 61 63 82
3 77 103 99
3 77 99 107
3 99 103 131
3 99 131 107
3 103 137 131
3 134 137 106
3 134 123 137
3 134 94 123
3 94 108 123
3 94 69 73
3 108 94 78
3 73 78 94
3 73 69 57
3 57 78 73
3 101 108 78
3 78 104 101
3 108 128 145
3 128 108 101
3 123 131 137
3 144 149 133
3 149 114 133
3 119 126 127
3 100 119 127
3 100 76 79
3 76 100 127
3 53 76 88
3 53 88 72
3 88 76 112
3 98 72 88
3 140 98 122
3 125 141 96
3 68 64 96
3 68 96 85
3 79 62 81
3 79 81 100
3 79 55 62
3 98 83 72
3 95 90 116
3 41 64 68
3 41 68 59
3 85 59 68
3 41 59 42
3 74 95 92
3 32 40 19
3 19 40 21
3 21 40 33
3 58 63 40
3 58 40 49
3 74 58 95
3 95 58 66
3 66 58 49
3 63 74 80
3 82 63 80
3 121 130 154
3 121 154 146
3 102 121 91
3 31 51 50
3 50 51 70
3 70 51 69
3 64 31 50
3 67 64 50
3 70 67 50
3 25 31 41
3 41 31 64
3 31 21 36
3 31 36 51
3 51 36 57
3 51 57 69
3 57 36 52
3 121 102 130
3 84 78 52
3 57 52 78
3 127 152 139
3 142 122 112
3 153 142 112
3 153 112 139
3 139 112 113
3 139 113 127
3 155 122 142
3 60 46 79
3 44 53 43
3 44 43 29
3 44 60 53
3 45 72 65
3 148 116 98
3 90 98 116
3 125 89 117
3 120 117 89
3 48 34 55
3 47 48 79
3 27 48 47
3 26 39 30
3 30 11 26
3 26 11 9
3 39 27 47
3 39 47 30
3 30 47 46
3 6 3 11
3 6 11 22
3 22 11 29
3 29 28 22
3 22 28 6
3 65 83 54
3 66 54 83
3 90 66 83
3 147 124 95
3 115 138 151
3 151 135 115
3 115 110 138
3 105 89 86
3 105 86 87
3 105 87 111
3 120 105 111
3 105 120 89
3 86 89 64
3 34 42 55
3 42 34 20
3 42 20 25
3 20 34 17
3 7 15 12
3 15 23 12
3 7 12 2
3 15 17 38
3 15 38 37
3 15 37 23
3 12 23 10
3 2 12 10
3 10 23 16
3 10 16 9
3 2 10 9
3 23 37 24
3 16 23 24
3 16 24 9
3 15 7 17
3 6 19 5
3 19 6 18
3 49 32 35
3 49 35 54
3 35 45 54
3 109 92 129
3 109 80 92
3 121 138 110
3 13 20 8
3 13 8 1
3 13 1 4
3 13 25 20
3 20 17 8
3 0 6 5
3 4 0 5
3 0 4 1
3 4 5 14
3 33 63 61
3 103 106 137
3 103 77 82
3 106 156 134
3 156 130 134
3 134 130 102
3 134 102 94
3 102 69 94
3 21 31 14
3 75 93 71
3 71 93 84
3 84 56 71
3 71 56 75
3 77 97 75
3 75 97 114
3 93 75 114
3 93 114 118
3 93 118 104
3 93 104 84
3 84 104 78
3 118 114 149
3 149 144 128
3 128 144 145
3 145 144 131
3 144 133 107
3 133 97 107
3 107 131 144
3 133 114 97
3 77 107 97
3 131 123 145
3 145 123 108
3 132 104 118
3 132 118 149
3 132 149 128
3 132 128 101
3 132 101 104
