ply
format ascii 1.0
comment Generated by PyMesh
element vertex 153
property float x
property float y
property float z
property float nx
property float ny
property float nz
element face 285
property list uchar int vertex_indices
end_header
-22.468 -10.2434 10.5262 -0.807436 0.0115416 -0.589843
-22.2157 -11.2505 11.018 -0.570993 -0.788321 -0.229164
-22.8326 -9.38325 11.3923 -0.723974 0.485879 -0.489677
-21.2008 -9.84212 9.65075 -0.859396 0.384081 -0.337521
-23.2505 -10.1637 12.119 -0.959695 -0.166601 -0.226338
-22.5958 -11.0782 12.0903 -0.547987 -0.836459 -0.00682782
-21.3429 -8.80112 10.9245 -0.570952 0.665772 -0.480377
-21.215 -11.1318 9.35975 -0.744433 -0.667498 -0.0163054
-21.614 -11.3695 11.8645 0.106096 -0.993403 0.0435226
-23.1583 -9.1395 12.735 -0.882032 0.469308 0.0420707
-21.94 -8.28475 12.0583 -0.558803 0.808481 -0.184656
-21.971 -11.1005 13.301 -0.106652 -0.920423 0.376093
-23.1501 -10.4362 13.4981 -0.8196 -0.412353 0.39777
-20.3319 -8.01456 10.5962 -0.518208 0.814055 -0.262249
-20.2418 -8.73088 8.9535 -0.578139 0.774489 -0.256755
-21.034 -11.12 12.8165 0.113043 -0.956829 0.267767
-20.1047 -10.9861 10.3837 0.0714146 -0.930488 0.359294
-21.2681 -11.1785 7.83337 -0.94573 0.273552 -0.175396
-20.4727 -10.84 11.5573 0.178683 -0.983373 0.0324074
-20.8336 -9.35913 7.769 -0.790303 0.559278 -0.250258
-21.2463 -12.4145 8.2945 -0.828679 -0.207472 0.519853
-19.4322 -12.1868 9.29225 -0.212148 -0.370685 0.904205
-22.5636 -9.17675 13.9983 -0.683619 0.390177 0.616787
-21.89 -8.36 13.2975 -0.697337 0.699089 0.158102
-22.25 -10.51 14.0815 -0.21873 -0.517828 0.82705
-19.6565 -10.831 12.367 0.274914 -0.94072 0.198669
-19.8096 -7.3305 12.1806 -0.422493 0.867754 -0.261729
-20.5748 -10.6032 13.6053 0.165732 -0.814987 0.555274
-19.1464 -7.52119 10.2719 -0.399648 0.857733 -0.323382
-18.9158 -11.0653 10.1265 0.121158 -0.873156 0.472144
-21.6275 -12.2069 7.23287 -0.991279 -0.0642374 -0.115063
-20.1029 -8.894 7.0315 -0.638649 0.687559 -0.345528
-21.079 -11.3485 6.5885 -0.682771 0.396006 -0.614006
-21.0296 -13.5229 8.1485 -0.891521 -0.183854 0.413991
-19.0802 -8.20569 8.0365 -0.410943 0.896665 -0.164671
-18.7665 -7.0945 11.2499 -0.299586 0.93472 -0.191174
-18.2342 -11.6804 9.38488 0.0164741 -0.403704 0.914741
-20.559 -7.1895 13.942 -0.497218 0.864605 0.072329
-21.3085 -9.72125 14.475 -0.296893 -0.396969 0.868487
-18.0556 -12.7589 9.22262 -0.0476964 -0.0733478 0.996165
-19.798 -9.5555 6.1505 -0.685014 0.268413 -0.677282
-19.9814 -11.0499 6.23387 -0.420198 0.121153 -0.899308
-18.2022 -7.71938 8.54775 -0.409342 0.880558 -0.238866
-18.8803 -10.169 13.2294 0.33354 -0.863241 0.378902
-18.7201 -6.78025 12.6282 -0.152706 0.974744 -0.162957
-19.2903 -8.58975 6.42 -0.340881 0.769253 -0.540417
-20.9698 -12.8448 6.57812 -0.735286 -0.113084 -0.668256
-21.0061 -8.00712 14.7624 -0.648611 0.390745 0.653164
-20.5295 -14.376 8.6625 -0.55913 -0.270747 0.783626
-21.1752 -14.5775 7.42725 -0.952801 -0.297653 -0.0597687
-18.0842 -8.20588 7.21425 -0.134937 0.904376 -0.404841
-17.9295 -10.4807 10.9862 0.203772 -0.92024 0.334119
-17.5917 -7.18325 9.48575 -0.378216 0.888554 -0.259664
-18.6268 -14.3872 9.21212 -0.221777 -0.135436 0.965646
-19.3897 -9.711 14.9198 0.116296 -0.788879 0.603444
-18.9745 -9.794 5.5925 -0.196269 0.14308 -0.970055
-17.0993 -11.123 9.728 0.050641 -0.657794 0.751493
-20.2059 -7.42238 15.0086 -0.50206 0.590406 0.631946
-16.9205 -12.4824 9.382 0.135998 -0.151947 0.978988
-17.3175 -6.78494 10.7539 -0.388625 0.920736 -0.0348559
-20.5565 -9.0725 15.2525 -0.414445 -0.295017 0.86093
-18.8111 -11.0901 5.96569 -0.0226724 -0.183419 -0.982773
-17.3449 -10.0703 12.3079 0.0072831 -0.933307 0.359005
-18.6612 -6.53963 13.6825 -0.000841628 0.999542 0.0302569
-18.2376 -8.663 6.14975 0.134453 0.637763 -0.758407
-20.5295 -15.273 8.13 -0.617464 -0.670725 0.410933
-20.1175 -13.1535 6.00425 -0.293098 0.0207855 -0.955856
-17.1421 -6.82312 12.0845 -0.152349 0.98768 0.0357603
-17.3923 -14.1713 9.258 0.0915104 -0.0876395 0.99194
-16.797 -7.092 8.42344 -0.523127 0.761681 -0.382335
-20.522 -15.3763 7.039 -0.592351 -0.755004 -0.281227
-16.8307 -10.4169 10.779 -0.153617 -0.908316 0.389055
-17.0509 -8.59725 6.72237 -0.122438 0.665458 -0.736325
-17.514 -9.25963 14.049 0.49165 -0.685061 0.537562
-19.5457 -15.5938 8.26275 -0.595623 -0.639314 0.486324
-16.9757 -6.96663 13.2185 0.376412 0.835002 0.401355
-19.6926 -8.51519 15.6915 -0.354727 -0.0505206 0.933604
-18.9241 -6.96331 15.3907 -0.0184397 0.791083 0.61143
-19.9883 -14.2528 6.0595 -0.390303 -0.208518 -0.896763
-17.892 -15.428 9.281 0.116394 -0.190557 0.974751
-18.7052 -8.91075 15.6088 0.310808 -0.574763 0.756998
-17.8595 -9.8705 5.769 0.224566 0.00574713 -0.974442
-18.3759 -12.6317 6.00986 0.0137997 -0.00136579 -0.999904
-17.718 -6.87575 14.2485 0.512979 0.736748 0.440518
-17.6164 -10.9056 6.06619 0.183887 -0.0585972 -0.981199
-16.3324 -9.57938 12.9113 0.0748673 -0.400341 0.913303
-16.148 -6.504 11.925 -0.00710704 0.953404 0.301612
-15.7953 -11.7142 9.2675 0.362476 -0.599477 0.71361
-15.9875 -6.25688 10.7812 -0.121422 0.969182 0.214344
-15.7753 -13.6415 9.037 0.598663 -0.155371 0.785788
-15.4423 -12.6602 8.57187 0.852243 -0.0237596 0.522606
-16.3965 -7.80387 7.19375 -0.64199 0.406949 -0.649801
-16.2255 -6.05162 9.27262 -0.461001 0.876281 -0.140032
-19.2083 -16.5305 7.822 -0.776665 -0.627934 0.0499063
-16.3779 -15.1609 8.73063 0.603037 -0.285722 0.744788
-15.5977 -11.0153 10.756 -0.0446271 -0.998487 -0.032134
-18.546 -16.659 8.829 -0.355854 -0.558254 0.74948
-16.3687 -9.7295 6.31975 0.0285716 0.0449732 -0.99858
-17.4771 -8.27312 14.8329 0.768646 0.0622127 0.636642
-18.577 -7.85475 16.1035 0.252151 0.0676973 0.965317
-19.0273 -15.927 6.49744 -0.528751 -0.455518 -0.716189
-15.9235 -6.88912 6.91913 -0.76091 0.44196 -0.475066
-16.241 -8.311 13.189 0.560006 -0.0170981 0.828312
-15.3691 -8.4265 6.08112 -0.674685 0.13659 -0.725358
-15.342 -10.0555 13.1505 -0.0446152 -0.133316 0.990069
-15.1456 -11.1446 12.3993 -0.2113 -0.771271 0.600411
-18.3609 -14.2872 5.9515 -0.00733023 -0.0488615 -0.998779
-15.1096 -5.77063 8.9065 -0.310933 0.949581 0.0402105
-15.3359 -7.39187 12.6465 0.325666 0.554776 0.765614
-14.7009 -6.59762 11.1679 0.0296261 0.873256 0.48636
-14.9621 -13.321 7.748 0.99373 -0.101835 -0.0461542
-16.6131 -12.3586 6.12388 0.345698 -0.0165249 -0.9382
-14.932 -5.647 7.568 -0.296399 0.936559 -0.187094
-15.0331 -10.8427 8.19519 0.794612 -0.606942 0.0145697
-16.33 -16.601 8.361 0.615923 -0.571743 0.541986
-15.4785 -14.6277 7.97256 0.911759 -0.386778 0.138194
-18.546 -17.069 6.767 -0.520319 -0.750265 -0.407887
-15.5191 -12.0419 7.088 0.91038 0.0224387 -0.413164
-17.024 -14.482 6.2055 0.297968 -0.0577432 -0.952828
-15.515 -10.8661 6.57281 0.48398 -0.503505 -0.715714
-14.344 -11.6005 11.3425 0.168142 -0.957274 -0.235276
-14.3614 -9.91488 12.9845 0.234477 -0.201325 0.951046
-15.0556 -5.97862 6.50075 -0.215017 0.789825 -0.574408
-15.9945 -15.913 7.365 0.922354 -0.288572 -0.256885
-14.8977 -7.449 5.739 -0.628185 0.379633 -0.679163
-14.464 -7.162 12.191 0.114718 0.636867 0.762391
-14.4009 -8.38313 12.5551 0.107231 0.209066 0.972005
-17.671 -17.4522 7.593 -0.0242997 -0.998533 0.0483818
-14.104 -5.607 8.4465 0.193419 0.970278 -0.145428
-17.642 -15.301 5.926 0.277019 -0.12556 -0.952625
-13.8919 -10.6025 10.1834 0.261635 -0.89178 -0.369156
-17.671 -16.924 6.2925 -0.019153 -0.60768 -0.793951
-14.7054 -10.5063 5.86097 -0.4303 -0.792922 -0.431412
-14.301 -5.57575 9.97925 -0.0692064 0.947961 0.310774
-13.5262 -11.3118 12.1214 0.505235 -0.737635 0.447921
-14.569 -7.8455 4.5965 -0.689979 0.36658 -0.624138
-15.6615 -13.451 6.55475 0.651625 -0.0982242 -0.752155
-14.1222 -10.2362 9.119 0.317312 -0.932536 -0.172307
-14.4462 -9.07288 4.63263 -0.778934 -0.231027 -0.582999
-13.458 -6.166 10.4875 0.45716 0.797129 0.394449
-13.9075 -10.017 7.865 0.259067 -0.965505 0.0261541
-16.202 -14.757 6.7335 0.693306 -0.281304 -0.663472
-14.445 -10.3615 6.8575 0.282855 -0.951239 0.123036
-13.272 -6.136 7.7405 0.294234 0.941491 -0.164379
-16.563 -16.835 6.796 0.653131 -0.583754 -0.48234
-13.2242 -9.37725 12.7205 0.361253 -0.155347 0.919437
-12.7347 -6.67925 11.2995 0.542763 0.809233 0.224834
-13.241 -5.649 9.247 0.614975 0.780192 0.114477
-13.0522 -7.41862 12.387 0.195902 0.639444 0.74346
-13.6648 -6.5765 6.081 0.0196493 0.899341 -0.436807
-13.02 -10.359 12.2035 0.696805 -0.463734 0.547187
-12.9436 -10.2224 11.019 0.731517 -0.668141 -0.135903
-13.372 -10.6006 6.02413 -0.0596607 -0.878413 0.474163
3 23 22 47
3 47 22 38
3 22 24 38
3 24 11 27
3 11 12 5
3 4 9 2
3 9 22 10
3 6 26 13
3 26 10 37
3 37 10 23
3 37 47 57
3 60 76 47
3 77 57 76
3 47 76 57
3 60 54 76
3 25 54 27
3 8 25 15
3 25 27 15
3 8 1 7
3 21 7 20
3 20 7 17
3 1 0 7
3 0 6 3
3 6 14 3
3 13 26 35
3 44 26 37
3 83 77 98
3 43 62 73
3 85 62 105
3 105 62 95
3 51 62 25
3 62 43 25
3 18 29 25
3 25 29 51
3 18 16 29
3 21 33 48
3 20 30 33
3 33 30 46
3 33 46 49
3 46 32 41
3 32 17 41
3 41 17 40
3 40 17 19
3 31 19 34
3 14 13 28
3 34 14 42
3 69 52 59
3 35 59 52
3 75 67 44
3 67 75 86
3 86 75 108
3 75 98 102
3 75 102 108
3 98 73 102
3 102 73 85
3 126 85 104
3 126 121 145
3 51 29 56
3 56 29 36
3 56 36 58
3 58 36 39
3 53 79 68
3 79 53 96
3 53 39 21
3 53 74 96
3 96 74 93
3 65 70 74
3 74 70 100
3 74 100 93
3 78 49 46
3 100 78 106
3 100 106 129
3 82 41 61
3 61 41 55
3 41 40 55
3 40 31 45
3 45 50 64
3 50 42 69
3 69 92 107
3 101 69 112
3 107 112 69
3 88 107 92
3 88 59 86
3 109 86 108
3 109 108 125
3 125 148 109
3 125 108 126
3 126 148 125
3 145 121 150
3 151 120 130
3 130 120 95
3 58 90 87
3 94 68 79
3 94 123 115
3 115 123 141
3 123 129 141
3 141 129 118
3 118 129 106
3 118 106 82
3 117 111 119
3 111 84 119
3 81 84 61
3 81 61 55
3 103 132 97
3 81 64 97
3 103 72 91
3 101 124 91
3 124 122 149
3 124 149 135
3 112 143 122
3 149 122 143
3 128 112 107
3 146 139 109
3 90 110 117
3 113 90 117
3 110 136 117
3 132 152 142
3 132 142 119
3 138 103 135
3 22 23 10
3 24 27 38
3 25 43 54
3 18 25 8
3 16 18 8
3 16 7 21
3 7 16 8
3 17 7 3
3 17 3 19
3 3 7 0
3 14 19 3
3 13 14 6
3 35 28 13
3 85 73 62
3 71 95 62
3 71 62 51
3 21 36 29
3 21 29 16
3 21 39 36
3 14 34 19
3 69 42 52
3 35 52 28
3 86 59 67
3 108 102 126
3 85 126 102
3 87 95 71
3 87 71 56
3 51 56 71
3 87 56 58
3 91 69 101
3 109 133 107
3 109 107 88
3 86 109 88
3 139 133 109
3 81 97 84
3 84 97 119
3 119 97 132
3 72 103 97
3 72 97 64
3 91 72 69
3 69 72 50
3 50 72 64
3 103 91 124
3 135 103 124
3 128 143 112
3 113 140 137
3 95 113 137
3 130 95 137
3 90 113 87
3 87 113 95
3 113 119 142
3 113 142 140
3 22 9 12
3 12 4 5
3 12 11 24
3 12 24 22
3 12 9 4
3 6 10 26
3 54 60 38
3 38 60 47
3 23 47 37
3 8 15 5
3 11 5 15
3 11 15 27
3 2 6 0
3 4 2 0
3 4 0 5
3 5 0 1
3 5 1 8
3 10 6 2
3 10 2 9
3 44 37 63
3 63 77 83
3 77 63 37
3 77 37 57
3 99 77 76
3 99 76 80
3 99 80 98
3 98 77 99
3 73 54 43
3 73 98 80
3 73 80 54
3 54 80 76
3 20 33 21
3 30 17 32
3 30 32 46
3 30 20 17
3 40 19 31
3 28 52 14
3 42 14 52
3 26 44 35
3 59 35 67
3 44 67 35
3 98 75 83
3 63 83 75
3 75 44 63
3 85 105 104
3 104 121 126
3 121 104 105
3 53 68 39
3 48 53 21
3 74 53 48
3 70 65 49
3 49 78 70
3 70 78 100
3 65 74 48
3 65 48 49
3 49 48 33
3 82 106 78
3 82 78 66
3 66 78 46
3 46 41 66
3 66 41 82
3 31 34 45
3 50 45 34
3 42 50 34
3 59 92 69
3 88 92 59
3 134 105 120
3 134 120 151
3 134 151 150
3 121 134 150
3 134 121 105
3 120 105 95
3 68 58 39
3 58 68 89
3 58 89 90
3 89 68 94
3 123 114 144
3 114 127 144
3 123 144 129
3 114 94 79
3 114 79 96
3 114 96 127
3 144 127 131
3 129 144 131
3 131 127 116
3 131 116 100
3 129 131 100
3 127 96 93
3 116 127 93
3 116 93 100
3 114 123 94
3 82 84 111
3 84 82 61
3 64 81 55
3 64 55 45
3 55 40 45
3 122 101 112
3 122 124 101
3 139 147 133
3 147 128 133
3 133 128 107
3 146 109 148
3 110 89 115
3 110 115 141
3 110 141 136
3 110 90 89
3 89 94 115
3 118 82 111
3 136 118 111
3 118 136 141
3 136 111 117
3 132 103 138
3 119 113 117
3 38 27 54
