ply
format ascii 1.0
comment Generated by PyMesh
element vertex 136
property float x
property float y
property float z
property float nx
property float ny
property float nz
element face 240
property list uchar int vertex_indices
end_header
-21.1752 -14.5775 7.42725 -0.952801 -0.297653 -0.0597687
-20.522 -15.3763 7.039 -0.592351 -0.755004 -0.281227
-20.5295 -15.273 8.13 -0.617464 -0.670725 0.410933
-21.0296 -13.5229 8.1485 -0.891521 -0.183854 0.413991
-20.5295 -14.376 8.6625 -0.55913 -0.270747 0.783626
-19.9883 -14.2528 6.0595 -0.390303 -0.208518 -0.896763
-20.9698 -12.8448 6.57812 -0.735286 -0.113084 -0.668256
-19.5457 -15.5938 8.26275 -0.595623 -0.639314 0.486324
-21.2463 -12.4145 8.2945 -0.828679 -0.207472 0.519853
-19.0273 -15.927 6.49744 -0.528751 -0.455518 -0.716189
-20.1175 -13.1535 6.00425 -0.293098 0.0207855 -0.955856
-21.6275 -12.2069 7.23287 -0.991279 -0.0642374 -0.115063
-19.2083 -16.5305 7.822 -0.776665 -0.627934 0.0499063
-18.6268 -14.3872 9.21212 -0.221777 -0.135436 0.965646
-21.079 -11.3485 6.5885 -0.682771 0.396006 -0.614006
-18.3609 -14.2872 5.9515 -0.00733023 -0.0488615 -0.998779
-19.4322 -12.1868 9.29225 -0.212148 -0.370685 0.904205
-21.2681 -11.1785 7.83337 -0.94573 0.273552 -0.175396
-18.546 -16.659 8.829 -0.355854 -0.558254 0.74948
-19.9814 -11.0499 6.23387 -0.420198 0.121153 -0.899308
-18.546 -17.069 6.767 -0.520319 -0.750265 -0.407887
-21.215 -11.1318 9.35975 -0.744433 -0.667498 -0.0163054
-18.3759 -12.6317 6.00986 0.0137997 -0.00136579 -0.999904
-17.642 -15.301 5.926 0.277019 -0.12556 -0.952625
-17.671 -16.924 6.2925 -0.019153 -0.60768 -0.793951
-17.3923 -14.1713 9.258 0.0915104 -0.0876395 0.99194
-17.892 -15.428 9.281 0.116394 -0.190557 0.974751
-17.024 -14.482 6.2055 0.297968 -0.0577432 -0.952828
-18.2342 -11.6804 9.38488 0.0164741 -0.403704 0.914741
-18.0556 -12.7589 9.22262 -0.0476964 -0.0733478 0.996165
-17.671 -17.4522 7.593 -0.0242997 -0.998533 0.0483818
-18.9158 -11.0653 10.1265 0.121158 -0.873156 0.472144
-18.8111 -11.0901 5.96569 -0.0226724 -0.183419 -0.982773
-21.2008 -9.84212 9.65075 -0.859396 0.384081 -0.337521
-20.1047 -10.9861 10.3837 0.0714146 -0.930488 0.359294
-19.798 -9.5555 6.1505 -0.685014 0.268413 -0.677282
-20.8336 -9.35913 7.769 -0.790303 0.559278 -0.250258
-16.563 -16.835 6.796 0.653131 -0.583754 -0.48234
-18.9745 -9.794 5.5925 -0.196269 0.14308 -0.970055
-16.202 -14.757 6.7335 0.693306 -0.281304 -0.663472
-16.6131 -12.3586 6.12388 0.345698 -0.0165249 -0.9382
-17.6164 -10.9056 6.06619 0.183887 -0.0585972 -0.981199
-22.468 -10.2434 10.5262 -0.807436 0.0115416 -0.589843
-22.2157 -11.2505 11.018 -0.570993 -0.788321 -0.229164
-16.33 -16.601 8.361 0.615923 -0.571743 0.541986
-16.3779 -15.1609 8.73063 0.603037 -0.285722 0.744788
-17.0993 -11.123 9.728 0.050641 -0.657794 0.751493
-16.9205 -12.4824 9.382 0.135998 -0.151947 0.978988
-15.7753 -13.6415 9.037 0.598663 -0.155371 0.785788
-17.9295 -10.4807 10.9862 0.203772 -0.92024 0.334119
-15.6615 -13.451 6.55475 0.651625 -0.0982242 -0.752155
-21.614 -11.3695 11.8645 0.106096 -0.993403 0.0435226
-19.2903 -8.58975 6.42 -0.340881 0.769253 -0.540417
-20.4727 -10.84 11.5573 0.178683 -0.983373 0.0324074
-20.1029 -8.894 7.0315 -0.638649 0.687559 -0.345528
-15.9945 -15.913 7.365 0.922354 -0.288572 -0.256885
-17.8595 -9.8705 5.769 0.224566 0.00574713 -0.974442
-20.2418 -8.73088 8.9535 -0.578139 0.774489 -0.256755
-21.3429 -8.80112 10.9245 -0.570952 0.665772 -0.480377
-22.5958 -11.0782 12.0903 -0.547987 -0.836459 -0.00682782
-18.2376 -8.663 6.14975 0.134453 0.637763 -0.758407
-22.8326 -9.38325 11.3923 -0.723974 0.485879 -0.489677
-15.4785 -14.6277 7.97256 0.911759 -0.386778 0.138194
-15.5191 -12.0419 7.088 0.91038 0.0224387 -0.413164
-15.4423 -12.6602 8.57187 0.852243 -0.0237596 0.522606
-19.6565 -10.831 12.367 0.274914 -0.94072 0.198669
-16.8307 -10.4169 10.779 -0.153617 -0.908316 0.389055
-15.7953 -11.7142 9.2675 0.362476 -0.599477 0.71361
-19.0802 -8.20569 8.0365 -0.410943 0.896665 -0.164671
-16.3687 -9.7295 6.31975 0.0285716 0.0449732 -0.99858
-21.034 -11.12 12.8165 0.113043 -0.956829 0.267767
-23.2505 -10.1637 12.119 -0.959695 -0.166601 -0.226338
-15.515 -10.8661 6.57281 0.48398 -0.503505 -0.715714
-14.9621 -13.321 7.748 0.99373 -0.101835 -0.0461542
-17.3449 -10.0703 12.3079 0.0072831 -0.933307 0.359005
-18.0842 -8.20588 7.21425 -0.134937 0.904376 -0.404841
-20.3319 -8.01456 10.5962 -0.518208 0.814055 -0.262249
-21.94 -8.28475 12.0583 -0.558803 0.808481 -0.184656
-17.0509 -8.59725 6.72237 -0.122438 0.665458 -0.736325
-21.971 -11.1005 13.301 -0.106652 -0.920423 0.376093
-23.1583 -9.1395 12.735 -0.882032 0.469308 0.0420707
-23.1501 -10.4362 13.4981 -0.8196 -0.412353 0.39777
-20.5748 -10.6032 13.6053 0.165732 -0.814987 0.555274
-18.2022 -7.71938 8.54775 -0.409342 0.880558 -0.238866
-18.8803 -10.169 13.2294 0.33354 -0.863241 0.378902
-15.5977 -11.0153 10.756 -0.0446271 -0.998487 -0.032134
-14.7054 -10.5063 5.86097 -0.4303 -0.792922 -0.431412
-14.445 -10.3615 6.8575 0.282855 -0.951239 0.123036
-15.0331 -10.8427 8.19519 0.794612 -0.606942 0.0145697
-19.1464 -7.52119 10.2719 -0.399648 0.857733 -0.323382
-16.3324 -9.57938 12.9113 0.0748673 -0.400341 0.913303
-15.3691 -8.4265 6.08112 -0.674685 0.13659 -0.725358
-19.8096 -7.3305 12.1806 -0.422493 0.867754 -0.261729
-22.25 -10.51 14.0815 -0.21873 -0.517828 0.82705
-16.3965 -7.80387 7.19375 -0.64199 0.406949 -0.649801
-21.89 -8.36 13.2975 -0.697337 0.699089 0.158102
-17.514 -9.25963 14.049 0.49165 -0.685061 0.537562
-22.5636 -9.17675 13.9983 -0.683619 0.390177 0.616787
-17.5917 -7.18325 9.48575 -0.378216 0.888554 -0.259664
-13.9075 -10.017 7.865 0.259067 -0.965505 0.0261541
-16.797 -7.092 8.42344 -0.523127 0.761681 -0.382335
-18.7665 -7.0945 11.2499 -0.299586 0.93472 -0.191174
-21.3085 -9.72125 14.475 -0.296893 -0.396969 0.868487
-13.372 -10.6006 6.02413 -0.0596607 -0.878413 0.474163
-19.3897 -9.711 14.9198 0.116296 -0.788879 0.603444
-14.344 -11.6005 11.3425 0.168142 -0.957274 -0.235276
-15.342 -10.0555 13.1505 -0.0446152 -0.133316 0.990069
-15.1456 -11.1446 12.3993 -0.2113 -0.771271 0.600411
-14.1222 -10.2362 9.119 0.317312 -0.932536 -0.172307
-14.8977 -7.449 5.739 -0.628185 0.379633 -0.679163
-13.6117 -11.175 4.89675 -0.696635 -0.71703 -0.0238453
-12.8769 -10.1391 6.88319 0.131502 -0.934215 0.331585
-16.241 -8.311 13.189 0.560006 -0.0170981 0.828312
-15.9235 -6.88912 6.91913 -0.76091 0.44196 -0.475066
-13.8919 -10.6025 10.1834 0.261635 -0.89178 -0.369156
-18.7201 -6.78025 12.6282 -0.152706 0.974744 -0.162957
-14.4462 -9.07288 4.63263 -0.778934 -0.231027 -0.582999
-20.559 -7.1895 13.942 -0.497218 0.864605 0.072329
-14.569 -7.8455 4.5965 -0.689979 0.36658 -0.624138
-17.4771 -8.27312 14.8329 0.768646 0.0622127 0.636642
-21.0061 -8.00712 14.7624 -0.648611 0.390745 0.653164
-17.3175 -6.78494 10.7539 -0.388625 0.920736 -0.0348559
-14.3614 -9.91488 12.9845 0.234477 -0.201325 0.951046
-20.5565 -9.0725 15.2525 -0.414445 -0.295017 0.86093
-18.7052 -8.91075 15.6088 0.310808 -0.574763 0.756998
-13.5262 -11.3118 12.1214 0.505235 -0.737635 0.447921
-12.506 -9.99162 7.804 0.635587 -0.747884 0.191569
-14.4009 -8.38313 12.5551 0.107231 0.209066 0.972005
-16.2255 -6.05162 9.27262 -0.461001 0.876281 -0.140032
-12.859 -11.912 4.451 -0.309202 -0.947626 -0.0799973
-11.812 -9.762 7.06 0.615945 -0.653441 0.440031
-19.6926 -8.51519 15.6915 -0.354727 -0.0505206 0.933604
-13.2327 -11.0689 3.64887 -0.603856 -0.520526 -0.603664
-18.6612 -6.53963 13.6825 -0.000841628 0.999542 0.0302569
-13.6791 -9.44462 3.96638 -0.784663 -0.0162267 -0.619709
-11.751 -10.7425 5.8105 0.396025 -0.647829 0.650755
3 95 97 120
3 120 97 102
3 97 93 102
3 93 79 82
3 79 81 59
3 71 80 61
3 80 97 77
3 58 92 76
3 92 77 117
3 117 77 95
3 123 131 120
3 123 104 131
3 65 104 82
3 51 65 70
3 65 82 70
3 51 43 21
3 16 21 8
3 8 21 17
3 43 42 21
3 42 58 33
3 58 57 33
3 76 92 101
3 115 92 117
3 84 74 96
3 90 74 107
3 107 74 85
3 49 74 65
3 74 84 65
3 53 31 65
3 65 31 49
3 53 34 31
3 16 3 4
3 8 11 3
3 3 11 6
3 3 6 0
3 6 14 19
3 14 17 19
3 19 17 35
3 35 17 36
3 54 36 68
3 57 76 89
3 68 57 83
3 100 98 121
3 101 121 98
3 119 96 112
3 112 96 90
3 127 90 106
3 49 31 46
3 46 31 28
3 46 28 47
3 47 28 29
3 13 26 25
3 26 13 18
3 13 29 16
3 13 7 18
3 18 7 12
3 2 1 7
3 7 1 9
3 7 9 12
3 5 0 6
3 9 5 15
3 9 15 23
3 22 19 32
3 32 19 38
3 19 35 38
3 35 54 52
3 52 75 60
3 75 83 100
3 114 105 85
3 47 64 67
3 45 25 26
3 45 55 62
3 62 55 39
3 55 23 39
3 39 23 27
3 27 23 15
3 27 15 22
3 63 40 72
3 40 41 72
3 56 41 32
3 56 32 38
3 91 86 69
3 56 60 69
3 91 78 94
3 113 109 94
3 64 73 63
3 88 64 63
3 73 50 63
3 86 103 87
3 86 87 72
3 103 86 110
3 86 116 110
3 110 116 134
3 110 134 132
3 134 116 118
3 116 91 118
3 130 126 111
3 111 135 130
3 97 95 77
3 93 82 102
3 65 84 104
3 53 65 51
3 34 53 51
3 34 21 16
3 21 34 51
3 17 21 33
3 17 33 36
3 33 21 42
3 57 36 33
3 76 57 58
3 101 89 76
3 90 96 74
3 66 85 74
3 66 74 49
3 16 28 31
3 16 31 34
3 16 29 28
3 57 68 36
3 100 83 98
3 101 98 89
3 90 127 112
3 67 85 66
3 67 66 46
3 49 46 66
3 67 46 47
3 94 100 113
3 56 69 41
3 41 69 72
3 72 69 86
3 78 91 69
3 78 69 60
3 94 78 100
3 100 78 75
3 75 78 60
3 91 94 109
3 118 91 109
3 88 99 108
3 85 88 108
3 114 85 108
3 64 88 67
3 67 88 85
3 88 72 87
3 88 87 99
3 99 87 111
3 99 111 126
3 111 87 103
3 111 103 135
3 97 80 81
3 81 71 59
3 81 79 93
3 81 93 97
3 81 80 71
3 58 77 92
3 104 123 102
3 102 123 120
3 95 120 117
3 51 70 59
3 79 59 70
3 79 70 82
3 61 58 42
3 71 61 42
3 71 42 59
3 59 42 43
3 59 43 51
3 77 58 61
3 77 61 80
3 115 117 133
3 96 104 84
3 96 119 124
3 96 124 104
3 104 124 131
3 8 3 16
3 11 17 14
3 11 14 6
3 11 8 17
3 35 36 54
3 89 98 57
3 83 57 98
3 92 115 101
3 90 107 106
3 106 122 127
3 122 106 107
3 13 25 29
3 4 13 16
3 7 13 4
3 1 2 0
3 0 5 1
3 1 5 9
3 2 7 4
3 2 4 0
3 0 4 3
3 22 15 5
3 22 5 10
3 10 5 6
3 6 19 10
3 10 19 22
3 54 68 52
3 75 52 68
3 83 75 68
3 121 128 100
3 125 107 105
3 125 122 107
3 105 107 85
3 25 47 29
3 47 25 48
3 47 48 64
3 48 25 45
3 55 44 37
3 44 30 37
3 55 37 23
3 44 45 26
3 44 26 18
3 44 18 30
3 37 30 24
3 23 37 24
3 24 30 20
3 24 20 9
3 23 24 9
3 30 18 12
3 20 30 12
3 20 12 9
3 44 55 45
3 22 41 40
3 41 22 32
3 60 56 38
3 60 38 52
3 38 35 52
3 73 48 62
3 73 62 39
3 73 39 50
3 73 64 48
3 48 45 62
3 27 22 40
3 50 27 40
3 27 50 39
3 50 40 63
3 86 91 116
3 72 88 63
3 129 110 132
3 102 82 104
