ply
format ascii 1.0
comment Generated by PyMesh
element vertex 177
property float x
property float y
property float z
property float nx
property float ny
property float nz
element face 336
property list uchar int vertex_indices
end_header
-16.6131 -12.3586 6.12388 0.345698 -0.0165249 -0.9382
-15.5191 -12.0419 7.088 0.91038 0.0224387 -0.413164
-15.6615 -13.451 6.55475 0.651625 -0.0982242 -0.752155
-17.6164 -10.9056 6.06619 0.183887 -0.0585972 -0.981199
-18.3759 -12.6317 6.00986 0.0137997 -0.00136579 -0.999904
-15.515 -10.8661 6.57281 0.48398 -0.503505 -0.715714
-17.024 -14.482 6.2055 0.297968 -0.0577432 -0.952828
-17.8595 -9.8705 5.769 0.224566 0.00574713 -0.974442
-14.9621 -13.321 7.748 0.99373 -0.101835 -0.0461542
-16.202 -14.757 6.7335 0.693306 -0.281304 -0.663472
-18.8111 -11.0901 5.96569 -0.0226724 -0.183419 -0.982773
-14.7054 -10.5063 5.86097 -0.4303 -0.792922 -0.431412
-15.4423 -12.6602 8.57187 0.852243 -0.0237596 0.522606
-14.445 -10.3615 6.8575 0.282855 -0.951239 0.123036
-15.0331 -10.8427 8.19519 0.794612 -0.606942 0.0145697
-17.642 -15.301 5.926 0.277019 -0.12556 -0.952625
-16.3687 -9.7295 6.31975 0.0285716 0.0449732 -0.99858
-18.3609 -14.2872 5.9515 -0.00733023 -0.0488615 -0.998779
-20.1175 -13.1535 6.00425 -0.293098 0.0207855 -0.955856
-18.9745 -9.794 5.5925 -0.196269 0.14308 -0.970055
-19.9814 -11.0499 6.23387 -0.420198 0.121153 -0.899308
-19.9883 -14.2528 6.0595 -0.390303 -0.208518 -0.896763
-18.2376 -8.663 6.14975 0.134453 0.637763 -0.758407
-15.7753 -13.6415 9.037 0.598663 -0.155371 0.785788
-15.9945 -15.913 7.365 0.922354 -0.288572 -0.256885
-13.9075 -10.017 7.865 0.259067 -0.965505 0.0261541
-15.4785 -14.6277 7.97256 0.911759 -0.386778 0.138194
-15.7953 -11.7142 9.2675 0.362476 -0.599477 0.71361
-13.372 -10.6006 6.02413 -0.0596607 -0.878413 0.474163
-14.1222 -10.2362 9.119 0.317312 -0.932536 -0.172307
-13.6117 -11.175 4.89675 -0.696635 -0.71703 -0.0238453
-20.9698 -12.8448 6.57812 -0.735286 -0.113084 -0.668256
-12.8769 -10.1391 6.88319 0.131502 -0.934215 0.331585
-17.0509 -8.59725 6.72237 -0.122438 0.665458 -0.736325
-16.9205 -12.4824 9.382 0.135998 -0.151947 0.978988
-19.0273 -15.927 6.49744 -0.528751 -0.455518 -0.716189
-17.671 -16.924 6.2925 -0.019153 -0.60768 -0.793951
-14.4462 -9.07288 4.63263 -0.778934 -0.231027 -0.582999
-15.3691 -8.4265 6.08112 -0.674685 0.13659 -0.725358
-19.798 -9.5555 6.1505 -0.685014 0.268413 -0.677282
-21.079 -11.3485 6.5885 -0.682771 0.396006 -0.614006
-19.2903 -8.58975 6.42 -0.340881 0.769253 -0.540417
-16.563 -16.835 6.796 0.653131 -0.583754 -0.48234
-18.0842 -8.20588 7.21425 -0.134937 0.904376 -0.404841
-16.33 -16.601 8.361 0.615923 -0.571743 0.541986
-16.3779 -15.1609 8.73063 0.603037 -0.285722 0.744788
-20.522 -15.3763 7.039 -0.592351 -0.755004 -0.281227
-12.506 -9.99162 7.804 0.635587 -0.747884 0.191569
-13.8919 -10.6025 10.1834 0.261635 -0.89178 -0.369156
-12.859 -11.912 4.451 -0.309202 -0.947626 -0.0799973
-21.6275 -12.2069 7.23287 -0.991279 -0.0642374 -0.115063
-15.5977 -11.0153 10.756 -0.0446271 -0.998487 -0.032134
-17.0993 -11.123 9.728 0.050641 -0.657794 0.751493
-11.812 -9.762 7.06 0.615945 -0.653441 0.440031
-16.3965 -7.80387 7.19375 -0.64199 0.406949 -0.649801
-18.546 -17.069 6.767 -0.520319 -0.750265 -0.407887
-21.1752 -14.5775 7.42725 -0.952801 -0.297653 -0.0597687
-17.3923 -14.1713 9.258 0.0915104 -0.0876395 0.99194
-13.2327 -11.0689 3.64887 -0.603856 -0.520526 -0.603664
-18.0556 -12.7589 9.22262 -0.0476964 -0.0733478 0.996165
-13.6791 -9.44462 3.96638 -0.784663 -0.0162267 -0.619709
-11.751 -10.7425 5.8105 0.396025 -0.647829 0.650755
-21.2681 -11.1785 7.83337 -0.94573 0.273552 -0.175396
-14.8977 -7.449 5.739 -0.628185 0.379633 -0.679163
-20.1029 -8.894 7.0315 -0.638649 0.687559 -0.345528
-12.6095 -10.0452 9.3735 0.542641 -0.838511 -0.0493975
-14.569 -7.8455 4.5965 -0.689979 0.36658 -0.624138
-17.671 -17.4522 7.593 -0.0242997 -0.998533 0.0483818
-19.2083 -16.5305 7.822 -0.776665 -0.627934 0.0499063
-12.0107 -11.6585 5.02125 0.0771251 -0.882121 0.464665
-18.2342 -11.6804 9.38488 0.0164741 -0.403704 0.914741
-21.0296 -13.5229 8.1485 -0.891521 -0.183854 0.413991
-16.8307 -10.4169 10.779 -0.153617 -0.908316 0.389055
-19.0802 -8.20569 8.0365 -0.410943 0.896665 -0.164671
-19.5457 -15.5938 8.26275 -0.595623 -0.639314 0.486324
-20.5295 -15.273 8.13 -0.617464 -0.670725 0.410933
-18.2022 -7.71938 8.54775 -0.409342 0.880558 -0.238866
-15.9235 -6.88912 6.91913 -0.76091 0.44196 -0.475066
-21.2463 -12.4145 8.2945 -0.828679 -0.207472 0.519853
-20.8336 -9.35913 7.769 -0.790303 0.559278 -0.250258
-11.9443 -11.6205 3.769 0.0721648 -0.886644 -0.456788
-11.4354 -8.68175 7.05188 0.906893 -0.122837 0.403059
-16.797 -7.092 8.42344 -0.523127 0.761681 -0.382335
-12.9436 -10.2224 11.019 0.731517 -0.668141 -0.135903
-18.6268 -14.3872 9.21212 -0.221777 -0.135436 0.965646
-17.892 -15.428 9.281 0.116394 -0.190557 0.974751
-13.0129 -10.0099 2.87462 -0.573655 -0.0963802 -0.813407
-12.103 -9.03475 9.50412 0.980273 -0.191873 0.0474305
-20.5295 -14.376 8.6625 -0.55913 -0.270747 0.783626
-14.344 -11.6005 11.3425 0.168142 -0.957274 -0.235276
-13.316 -8.237 3.639 -0.437458 0.564787 -0.699748
-10.49 -10.6082 5.22475 0.703015 -0.398245 0.589212
-19.4322 -12.1868 9.29225 -0.212148 -0.370685 0.904205
-17.9295 -10.4807 10.9862 0.203772 -0.92024 0.334119
-18.9158 -11.0653 10.1265 0.121158 -0.873156 0.472144
-18.546 -16.659 8.829 -0.355854 -0.558254 0.74948
-15.1456 -11.1446 12.3993 -0.2113 -0.771271 0.600411
-11.8993 -8.36287 8.442 0.964895 -0.0701074 0.253104
-13.3769 -7.07369 4.50744 -0.112079 0.745032 -0.657546
-10.8741 -11.4235 4.4755 0.475498 -0.856857 0.199244
-21.215 -11.1318 9.35975 -0.744433 -0.667498 -0.0163054
-13.6648 -6.5765 6.081 0.0196493 0.899341 -0.436807
-12.649 -8.50275 2.91175 -0.315555 0.609038 -0.727666
-10.6932 -9.33603 5.83038 0.856452 0.0908443 0.508171
-15.0556 -5.97862 6.50075 -0.215017 0.789825 -0.574408
-11.8895 -10.1025 2.57025 0.0482922 -0.387864 -0.920451
-17.5917 -7.18325 9.48575 -0.378216 0.888554 -0.259664
-10.8845 -11.1531 3.41825 0.454185 -0.617366 -0.64232
-17.3449 -10.0703 12.3079 0.0072831 -0.933307 0.359005
-20.2418 -8.73088 8.9535 -0.578139 0.774489 -0.256755
-11.9755 -8.58128 10.676 0.966685 -0.248206 -0.0625664
-13.02 -10.359 12.2035 0.696805 -0.463734 0.547187
-21.2008 -9.84212 9.65075 -0.859396 0.384081 -0.337521
-11.4478 -7.79975 5.989 0.823888 0.557988 -0.0992903
-12.197 -9.42212 11.7636 0.862853 -0.415286 0.288135
-16.2255 -6.05162 9.27262 -0.461001 0.876281 -0.140032
-13.5262 -11.3118 12.1214 0.505235 -0.737635 0.447921
-10.0812 -9.64756 4.613 0.930022 0.363453 0.0544062
-14.932 -5.647 7.568 -0.296399 0.936559 -0.187094
-12.3398 -7.645 9.37088 0.924471 0.364109 0.113044
-20.1047 -10.9861 10.3837 0.0714146 -0.930488 0.359294
-12.2902 -7.80613 4.51762 0.383876 0.81815 -0.428101
-11.8705 -7.17175 8.259 0.864563 0.350963 0.359662
-9.833 -10.511 4.03075 0.936734 -0.324897 -0.130271
-11.8837 -9.04 2.4785 0.153279 0.291459 -0.944223
-11.6785 -6.84125 6.825 0.838956 0.538302 -0.0799012
-15.342 -10.0555 13.1505 -0.0446152 -0.133316 0.990069
-12.376 -7.104 5.54775 0.484044 0.783913 -0.38882
-14.3614 -9.91488 12.9845 0.234477 -0.201325 0.951046
-15.1096 -5.77063 8.9065 -0.310933 0.949581 0.0402105
-11.257 -8.62237 3.36025 0.542133 0.720849 -0.431819
-10.9235 -8.4425 4.6665 0.712314 0.697913 -0.0743393
-17.3175 -6.78494 10.7539 -0.388625 0.920736 -0.0348559
-13.2242 -9.37725 12.7205 0.361253 -0.155347 0.919437
-10.5933 -9.69675 3.23019 0.696395 0.171832 -0.696784
-11.8664 -7.89288 11.6814 0.925801 0.288131 0.244691
-13.272 -6.136 7.7405 0.294234 0.941491 -0.164379
-16.3324 -9.57938 12.9113 0.0748673 -0.400341 0.913303
-22.468 -10.2434 10.5262 -0.807436 0.0115416 -0.589843
-22.2157 -11.2505 11.018 -0.570993 -0.788321 -0.229164
-20.4727 -10.84 11.5573 0.178683 -0.983373 0.0324074
-19.6565 -10.831 12.367 0.274914 -0.94072 0.198669
-12.8751 -6.93699 9.90541 0.835044 0.540928 0.100493
-19.1464 -7.52119 10.2719 -0.399648 0.857733 -0.323382
-12.2273 -6.29025 7.618 0.471934 0.879836 0.0562706
-14.104 -5.607 8.4465 0.193419 0.970278 -0.145428
-12.6625 -6.508 8.608 0.680533 0.704461 0.201519
-12.423 -8.28925 12.7095 0.46641 0.0899128 0.879987
-18.8803 -10.169 13.2294 0.33354 -0.863241 0.378902
-20.3319 -8.01456 10.5962 -0.518208 0.814055 -0.262249
-21.3429 -8.80112 10.9245 -0.570952 0.665772 -0.480377
-15.9875 -6.25688 10.7812 -0.121422 0.969182 0.214344
-18.7665 -7.0945 11.2499 -0.299586 0.93472 -0.191174
-17.514 -9.25963 14.049 0.49165 -0.685061 0.537562
-21.614 -11.3695 11.8645 0.106096 -0.993403 0.0435226
-14.301 -5.57575 9.97925 -0.0692064 0.947961 0.310774
-14.4009 -8.38313 12.5551 0.107231 0.209066 0.972005
-17.1421 -6.82312 12.0845 -0.152349 0.98768 0.0357603
-22.5958 -11.0782 12.0903 -0.547987 -0.836459 -0.00682782
-16.241 -8.311 13.189 0.560006 -0.0170981 0.828312
-22.8326 -9.38325 11.3923 -0.723974 0.485879 -0.489677
-13.458 -6.166 10.4875 0.45716 0.797129 0.394449
-13.0522 -7.41862 12.387 0.195902 0.639444 0.74346
-12.7347 -6.67925 11.2995 0.542763 0.809233 0.224834
-13.241 -5.649 9.247 0.614975 0.780192 0.114477
-16.148 -6.504 11.925 -0.00710704 0.953404 0.301612
-21.034 -11.12 12.8165 0.113043 -0.956829 0.267767
-20.5748 -10.6032 13.6053 0.165732 -0.814987 0.555274
-23.2505 -10.1637 12.119 -0.959695 -0.166601 -0.226338
-21.94 -8.28475 12.0583 -0.558803 0.808481 -0.184656
-14.7009 -6.59762 11.1679 0.0296261 0.873256 0.48636
-17.4771 -8.27312 14.8329 0.768646 0.0622127 0.636642
-18.7201 -6.78025 12.6282 -0.152706 0.974744 -0.162957
-19.8096 -7.3305 12.1806 -0.422493 0.867754 -0.261729
-19.3897 -9.711 14.9198 0.116296 -0.788879 0.603444
-16.9757 -6.96663 13.2185 0.376412 0.835002 0.401355
-14.464 -7.162 12.191 0.114718 0.636867 0.762391
3 150 173 149
3 141 174 167
3 154 141 166
3 141 167 166
3 154 139 100
3 92 100 78
3 78 100 62
3 139 138 100
3 138 150 112
3 150 109 112
3 149 173 152
3 148 108 153
3 137 108 96
3 96 108 51
3 93 108 141
3 108 148 141
3 140 94 141
3 141 94 93
3 140 120 94
3 92 71 88
3 78 50 71
3 71 50 31
3 71 31 56
3 31 40 20
3 40 62 20
3 20 62 39
3 39 62 79
3 64 79 73
3 109 149 143
3 73 109 76
3 82 106 132
3 152 132 106
3 175 157 172
3 157 175 165
3 175 171 159
3 171 153 159
3 159 153 137
3 156 137 126
3 156 128 133
3 93 94 52
3 52 94 70
3 52 70 34
3 34 70 59
3 84 85 57
3 85 84 95
3 84 59 92
3 84 74 95
3 95 74 68
3 75 46 74
3 74 46 35
3 74 35 68
3 21 56 31
3 35 21 17
3 35 17 15
3 4 20 10
3 10 20 19
3 20 39 19
3 39 64 41
3 41 43 22
3 43 76 82
3 82 115 129
3 77 82 118
3 129 118 82
3 151 129 115
3 151 132 165
3 176 162 170
3 156 162 176
3 147 135 162
3 110 114 83
3 83 65 110
3 87 110 65
3 83 114 111
3 111 114 133
3 133 128 111
3 83 48 65
3 83 89 48
3 48 89 51
3 34 12 27
3 45 57 85
3 45 24 26
3 26 24 9
3 24 15 9
3 9 15 6
3 6 15 17
3 6 17 4
3 1 0 5
3 0 3 5
3 7 3 10
3 7 10 19
3 38 11 16
3 7 22 16
3 38 33 54
3 77 63 54
3 63 104 101
3 63 101 66
3 66 101 98
3 118 136 104
3 101 104 136
3 136 144 101
3 145 118 129
3 164 146 145
3 136 145 146
3 146 144 136
3 142 146 164
3 146 122 144
3 163 161 170
3 110 87 119
3 97 87 47
3 65 47 87
3 12 8 1
3 14 12 1
3 8 2 1
3 11 28 13
3 11 13 5
3 69 28 30
3 28 11 30
3 11 37 30
3 30 37 60
3 30 60 58
3 60 37 66
3 37 38 66
3 60 98 90
3 60 90 102
3 90 98 121
3 90 121 102
3 98 127 121
3 125 127 101
3 125 113 127
3 125 81 113
3 81 103 113
3 81 47 53
3 103 81 61
3 53 61 81
3 53 47 32
3 32 61 53
3 91 103 61
3 61 99 91
3 103 117 131
3 117 103 91
3 113 121 127
3 130 134 124
3 134 105 124
3 141 148 174
3 140 141 154
3 120 140 154
3 120 100 92
3 100 120 154
3 62 100 112
3 62 112 79
3 112 100 138
3 109 79 112
3 149 109 150
3 152 143 149
3 137 153 108
3 72 51 108
3 72 108 93
3 92 70 94
3 92 94 120
3 92 59 70
3 109 73 79
3 82 76 106
3 152 106 143
3 165 132 157
3 137 156 159
3 27 51 72
3 27 72 52
3 93 52 72
3 27 52 34
3 54 82 77
3 170 155 129
3 170 129 151
3 165 170 151
3 161 155 170
3 7 16 3
3 3 16 5
3 5 16 11
3 33 38 16
3 33 16 22
3 54 33 82
3 82 33 43
3 43 33 22
3 38 54 63
3 66 38 63
3 145 136 118
3 119 122 146
3 119 146 142
3 97 119 87
3 14 25 29
3 29 25 65
3 65 25 47
3 51 14 29
3 48 51 29
3 65 48 29
3 12 14 27
3 27 14 51
3 14 5 13
3 14 13 25
3 25 13 32
3 25 32 47
3 32 13 28
3 119 97 122
3 69 61 28
3 32 28 61
3 150 169 173
3 154 166 158
3 160 150 138
3 168 160 138
3 168 138 158
3 158 138 139
3 158 139 154
3 169 150 160
3 153 174 148
3 78 71 92
3 50 62 40
3 50 40 31
3 50 78 62
3 39 79 64
3 143 106 109
3 76 109 106
3 173 172 152
3 132 152 157
3 172 157 152
3 137 96 126
3 126 128 156
3 128 126 96
3 84 57 59
3 88 84 92
3 74 84 88
3 46 75 56
3 56 21 46
3 46 21 35
3 75 74 88
3 75 88 56
3 56 88 71
3 4 17 21
3 4 21 18
3 18 21 31
3 31 20 18
3 18 20 4
3 64 73 41
3 43 41 73
3 76 43 73
3 132 115 82
3 151 115 132
3 114 135 147
3 147 133 114
3 114 110 135
3 147 162 156
3 147 156 133
3 116 96 89
3 116 89 83
3 116 83 111
3 128 116 111
3 116 128 96
3 89 96 51
3 57 34 59
3 34 57 23
3 34 23 12
3 23 57 45
3 24 44 42
3 44 67 42
3 24 42 15
3 44 45 85
3 44 85 95
3 44 95 67
3 42 67 36
3 15 42 36
3 36 67 55
3 36 55 35
3 15 36 35
3 67 95 68
3 55 67 68
3 55 68 35
3 44 24 45
3 4 3 0
3 3 4 10
3 22 7 19
3 22 19 41
3 19 39 41
3 104 77 118
3 104 63 77
3 161 164 155
3 164 145 155
3 155 145 129
3 164 161 142
3 135 163 162
3 135 119 163
3 163 170 162
3 119 135 110
3 8 23 26
3 8 26 9
3 8 9 2
3 8 12 23
3 23 45 26
3 6 4 0
3 2 6 0
3 6 2 9
3 2 0 1
3 11 38 37
3 98 101 127
3 98 60 66
3 101 144 125
3 144 122 125
3 125 122 97
3 125 97 81
3 97 47 81
3 5 14 1
3 58 80 49
3 49 80 69
3 69 30 49
3 49 30 58
3 60 86 58
3 58 86 105
3 80 58 105
3 80 105 107
3 80 107 99
3 80 99 69
3 69 99 61
3 107 105 134
3 134 130 117
3 117 130 131
3 131 130 121
3 130 124 102
3 124 86 102
3 102 121 130
3 124 105 86
3 60 102 86
3 121 113 131
3 131 113 103
3 123 99 107
3 123 107 134
3 123 134 117
3 123 117 91
3 123 91 99
3 163 119 142
3 163 142 161
