ply
format ascii 1.0
comment Generated by PyMesh
element vertex 146
property float x
property float y
property float z
property float nx
property float ny
property float nz
element face 263
property list uchar int vertex_indices
end_header
-13.2327 -11.0689 3.64887 -0.603856 -0.520526 -0.603664
-12.859 -11.912 4.451 -0.309202 -0.947626 -0.0799973
-13.6117 -11.175 4.89675 -0.696635 -0.71703 -0.0238453
-13.0129 -10.0099 2.87462 -0.573655 -0.0963802 -0.813407
-11.9443 -11.6205 3.769 0.0721648 -0.886644 -0.456788
-13.6791 -9.44462 3.96638 -0.784663 -0.0162267 -0.619709
-11.8895 -10.1025 2.57025 0.0482922 -0.387864 -0.920451
-12.0107 -11.6585 5.02125 0.0771251 -0.882121 0.464665
-13.372 -10.6006 6.02413 -0.0596607 -0.878413 0.474163
-10.8845 -11.1531 3.41825 0.454185 -0.617366 -0.64232
-10.8741 -11.4235 4.4755 0.475498 -0.856857 0.199244
-14.4462 -9.07288 4.63263 -0.778934 -0.231027 -0.582999
-11.8837 -9.04 2.4785 0.153279 0.291459 -0.944223
-12.649 -8.50275 2.91175 -0.315555 0.609038 -0.727666
-14.7054 -10.5063 5.86097 -0.4303 -0.792922 -0.431412
-13.316 -8.237 3.639 -0.437458 0.564787 -0.699748
-10.5933 -9.69675 3.23019 0.696395 0.171832 -0.696784
-11.751 -10.7425 5.8105 0.396025 -0.647829 0.650755
-14.569 -7.8455 4.5965 -0.689979 0.36658 -0.624138
-12.8769 -10.1391 6.88319 0.131502 -0.934215 0.331585
-10.49 -10.6082 5.22475 0.703015 -0.398245 0.589212
-14.445 -10.3615 6.8575 0.282855 -0.951239 0.123036
-9.833 -10.511 4.03075 0.936734 -0.324897 -0.130271
-11.257 -8.62237 3.36025 0.542133 0.720849 -0.431819
-15.515 -10.8661 6.57281 0.48398 -0.503505 -0.715714
-13.3769 -7.07369 4.50744 -0.112079 0.745032 -0.657546
-12.2902 -7.80613 4.51762 0.383876 0.81815 -0.428101
-15.3691 -8.4265 6.08112 -0.674685 0.13659 -0.725358
-12.506 -9.99162 7.804 0.635587 -0.747884 0.191569
-16.3687 -9.7295 6.31975 0.0285716 0.0449732 -0.99858
-11.812 -9.762 7.06 0.615945 -0.653441 0.440031
-14.8977 -7.449 5.739 -0.628185 0.379633 -0.679163
-10.0812 -9.64756 4.613 0.930022 0.363453 0.0544062
-13.9075 -10.017 7.865 0.259067 -0.965505 0.0261541
-10.6932 -9.33603 5.83038 0.856452 0.0908443 0.508171
-15.5191 -12.0419 7.088 0.91038 0.0224387 -0.413164
-10.9235 -8.4425 4.6665 0.712314 0.697913 -0.0743393
-15.0331 -10.8427 8.19519 0.794612 -0.606942 0.0145697
-12.376 -7.104 5.54775 0.484044 0.783913 -0.38882
-13.6648 -6.5765 6.081 0.0196493 0.899341 -0.436807
-11.4354 -8.68175 7.05188 0.906893 -0.122837 0.403059
-16.6131 -12.3586 6.12388 0.345698 -0.0165249 -0.9382
-11.4478 -7.79975 5.989 0.823888 0.557988 -0.0992903
-17.0509 -8.59725 6.72237 -0.122438 0.665458 -0.736325
-17.6164 -10.9056 6.06619 0.183887 -0.0585972 -0.981199
-12.6095 -10.0452 9.3735 0.542641 -0.838511 -0.0493975
-16.3965 -7.80387 7.19375 -0.64199 0.406949 -0.649801
-17.8595 -9.8705 5.769 0.224566 0.00574713 -0.974442
-14.1222 -10.2362 9.119 0.317312 -0.932536 -0.172307
-11.8993 -8.36287 8.442 0.964895 -0.0701074 0.253104
-15.9235 -6.88912 6.91913 -0.76091 0.44196 -0.475066
-15.0556 -5.97862 6.50075 -0.215017 0.789825 -0.574408
-12.103 -9.03475 9.50412 0.980273 -0.191873 0.0474305
-15.6615 -13.451 6.55475 0.651625 -0.0982242 -0.752155
-14.9621 -13.321 7.748 0.99373 -0.101835 -0.0461542
-15.4423 -12.6602 8.57187 0.852243 -0.0237596 0.522606
-18.2376 -8.663 6.14975 0.134453 0.637763 -0.758407
-15.7953 -11.7142 9.2675 0.362476 -0.599477 0.71361
-11.6785 -6.84125 6.825 0.838956 0.538302 -0.0799012
-18.0842 -8.20588 7.21425 -0.134937 0.904376 -0.404841
-18.8111 -11.0901 5.96569 -0.0226724 -0.183419 -0.982773
-18.9745 -9.794 5.5925 -0.196269 0.14308 -0.970055
-13.8919 -10.6025 10.1834 0.261635 -0.89178 -0.369156
-13.272 -6.136 7.7405 0.294234 0.941491 -0.164379
-14.932 -5.647 7.568 -0.296399 0.936559 -0.187094
-18.3759 -12.6317 6.00986 0.0137997 -0.00136579 -0.999904
-16.797 -7.092 8.42344 -0.523127 0.761681 -0.382335
-11.8705 -7.17175 8.259 0.864563 0.350963 0.359662
-12.3398 -7.645 9.37088 0.924471 0.364109 0.113044
-12.2273 -6.29025 7.618 0.471934 0.879836 0.0562706
-11.9755 -8.58128 10.676 0.966685 -0.248206 -0.0625664
-12.9436 -10.2224 11.019 0.731517 -0.668141 -0.135903
-19.2903 -8.58975 6.42 -0.340881 0.769253 -0.540417
-15.7753 -13.6415 9.037 0.598663 -0.155371 0.785788
-15.5977 -11.0153 10.756 -0.0446271 -0.998487 -0.032134
-17.024 -14.482 6.2055 0.297968 -0.0577432 -0.952828
-16.202 -14.757 6.7335 0.693306 -0.281304 -0.663472
-15.4785 -14.6277 7.97256 0.911759 -0.386778 0.138194
-16.9205 -12.4824 9.382 0.135998 -0.151947 0.978988
-19.798 -9.5555 6.1505 -0.685014 0.268413 -0.677282
-17.0993 -11.123 9.728 0.050641 -0.657794 0.751493
-19.9814 -11.0499 6.23387 -0.420198 0.121153 -0.899308
-12.6625 -6.508 8.608 0.680533 0.704461 0.201519
-19.0802 -8.20569 8.0365 -0.410943 0.896665 -0.164671
-14.104 -5.607 8.4465 0.193419 0.970278 -0.145428
-18.2022 -7.71938 8.54775 -0.409342 0.880558 -0.238866
-12.8751 -6.93699 9.90541 0.835044 0.540928 0.100493
-15.1096 -5.77063 8.9065 -0.310933 0.949581 0.0402105
-17.5917 -7.18325 9.48575 -0.378216 0.888554 -0.259664
-20.1029 -8.894 7.0315 -0.638649 0.687559 -0.345528
-13.02 -10.359 12.2035 0.696805 -0.463734 0.547187
-14.344 -11.6005 11.3425 0.168142 -0.957274 -0.235276
-11.8664 -7.89288 11.6814 0.925801 0.288131 0.244691
-17.642 -15.301 5.926 0.277019 -0.12556 -0.952625
-16.2255 -6.05162 9.27262 -0.461001 0.876281 -0.140032
-12.197 -9.42212 11.7636 0.862853 -0.415286 0.288135
-16.8307 -10.4169 10.779 -0.153617 -0.908316 0.389055
-18.3609 -14.2872 5.9515 -0.00733023 -0.0488615 -0.998779
-20.1175 -13.1535 6.00425 -0.293098 0.0207855 -0.955856
-16.3779 -15.1609 8.73063 0.603037 -0.285722 0.744788
-15.9945 -15.913 7.365 0.922354 -0.288572 -0.256885
-13.5262 -11.3118 12.1214 0.505235 -0.737635 0.447921
-18.0556 -12.7589 9.22262 -0.0476964 -0.0733478 0.996165
-17.3923 -14.1713 9.258 0.0915104 -0.0876395 0.99194
-21.079 -11.3485 6.5885 -0.682771 0.396006 -0.614006
-15.1456 -11.1446 12.3993 -0.2113 -0.771271 0.600411
-18.2342 -11.6804 9.38488 0.0164741 -0.403704 0.914741
-13.241 -5.649 9.247 0.614975 0.780192 0.114477
-13.458 -6.166 10.4875 0.45716 0.797129 0.394449
-12.7347 -6.67925 11.2995 0.542763 0.809233 0.224834
-19.9883 -14.2528 6.0595 -0.390303 -0.208518 -0.896763
-17.3175 -6.78494 10.7539 -0.388625 0.920736 -0.0348559
-17.9295 -10.4807 10.9862 0.203772 -0.92024 0.334119
-20.8336 -9.35913 7.769 -0.790303 0.559278 -0.250258
-20.2418 -8.73088 8.9535 -0.578139 0.774489 -0.256755
-13.2242 -9.37725 12.7205 0.361253 -0.155347 0.919437
-14.301 -5.57575 9.97925 -0.0692064 0.947961 0.310774
-12.423 -8.28925 12.7095 0.46641 0.0899128 0.879987
-18.9158 -11.0653 10.1265 0.121158 -0.873156 0.472144
-13.0522 -7.41862 12.387 0.195902 0.639444 0.74346
-20.9698 -12.8448 6.57812 -0.735286 -0.113084 -0.668256
-17.3449 -10.0703 12.3079 0.0072831 -0.933307 0.359005
-21.2681 -11.1785 7.83337 -0.94573 0.273552 -0.175396
-15.9875 -6.25688 10.7812 -0.121422 0.969182 0.214344
-14.3614 -9.91488 12.9845 0.234477 -0.201325 0.951046
-19.0273 -15.927 6.49744 -0.528751 -0.455518 -0.716189
-16.563 -16.835 6.796 0.653131 -0.583754 -0.48234
-17.671 -16.924 6.2925 -0.019153 -0.60768 -0.793951
-19.1464 -7.52119 10.2719 -0.399648 0.857733 -0.323382
-16.33 -16.601 8.361 0.615923 -0.571743 0.541986
-21.6275 -12.2069 7.23287 -0.991279 -0.0642374 -0.115063
-18.6268 -14.3872 9.21212 -0.221777 -0.135436 0.965646
-19.4322 -12.1868 9.29225 -0.212148 -0.370685 0.904205
-17.892 -15.428 9.281 0.116394 -0.190557 0.974751
-15.342 -10.0555 13.1505 -0.0446152 -0.133316 0.990069
-18.7665 -7.0945 11.2499 -0.299586 0.93472 -0.191174
-14.7009 -6.59762 11.1679 0.0296261 0.873256 0.48636
-17.1421 -6.82312 12.0845 -0.152349 0.98768 0.0357603
-20.522 -15.3763 7.039 -0.592351 -0.755004 -0.281227
-20.1047 -10.9861 10.3837 0.0714146 -0.930488 0.359294
-14.4009 -8.38313 12.5551 0.107231 0.209066 0.972005
-16.148 -6.504 11.925 -0.00710704 0.953404 0.301612
-18.546 -17.069 6.767 -0.520319 -0.750265 -0.407887
-16.3324 -9.57938 12.9113 0.0748673 -0.400341 0.913303
-21.1752 -14.5775 7.42725 -0.952801 -0.297653 -0.0597687
-21.2008 -9.84212 9.65075 -0.859396 0.384081 -0.337521
3 143 121 105
3 105 121 74
3 120 104 81
3 104 122 81
3 81 122 79
3 79 122 113
3 89 113 83
3 83 114 85
3 66 88 111
3 135 111 88
3 140 143 134
3 140 124 115
3 112 118 80
3 80 118 106
3 80 106 78
3 78 106 102
3 131 133 103
3 131 102 132
3 110 144 120
3 125 110 97
3 125 97 93
3 65 81 60
3 60 81 61
3 81 79 61
3 79 89 72
3 72 59 56
3 59 85 66
3 66 94 87
3 50 66 64
3 87 64 66
3 123 87 94
3 123 111 141
3 117 92 119
3 70 95 71
3 71 45 70
3 52 70 45
3 71 95 90
3 90 95 115
3 115 124 90
3 71 62 45
3 71 91 62
3 62 91 74
3 78 55 57
3 99 103 133
3 99 100 77
3 77 100 76
3 100 93 76
3 76 93 75
3 75 93 97
3 75 97 65
3 35 41 24
3 41 44 24
3 47 44 60
3 47 60 61
3 27 14 29
3 47 56 29
3 27 43 46
3 50 31 46
3 31 51 39
3 31 39 18
3 18 39 25
3 64 63 51
3 39 51 63
3 63 69 39
3 84 64 87
3 107 82 84
3 63 84 82
3 82 69 63
3 86 82 107
3 82 67 69
3 109 108 136
3 70 52 68
3 49 52 28
3 45 28 52
3 55 54 35
3 37 55 35
3 54 53 35
3 14 8 21
3 14 21 24
3 7 8 2
3 8 14 2
3 14 11 2
3 2 11 5
3 2 5 0
3 5 11 18
3 11 27 18
3 5 25 15
3 5 15 13
3 15 25 26
3 15 26 13
3 25 38 26
3 58 38 39
3 58 42 38
3 58 40 42
3 40 34 42
3 40 28 30
3 34 40 17
3 30 17 40
3 30 28 19
3 19 17 30
3 20 34 17
3 17 10 20
3 34 32 36
3 32 34 20
3 42 26 38
3 23 16 12
3 16 6 12
3 122 145 113
3 114 113 145
3 96 74 121
3 96 121 112
3 132 106 118
3 132 118 139
3 132 102 106
3 114 83 113
3 66 85 88
3 135 88 128
3 141 111 137
3 57 74 96
3 57 96 80
3 112 80 96
3 57 80 78
3 46 66 50
3 136 116 87
3 136 87 123
3 141 136 123
3 108 116 136
3 47 29 44
3 44 29 24
3 24 29 14
3 43 27 29
3 43 29 56
3 46 43 66
3 66 43 59
3 59 43 56
3 27 46 31
3 18 27 31
3 84 63 64
3 68 67 82
3 68 82 86
3 49 68 52
3 37 33 48
3 48 33 45
3 45 33 28
3 74 37 48
3 62 74 48
3 45 62 48
3 55 37 57
3 57 37 74
3 37 24 21
3 37 21 33
3 33 21 19
3 33 19 28
3 19 21 8
3 68 49 67
3 7 17 8
3 19 8 17
3 130 122 104
3 130 104 120
3 79 113 89
3 128 88 114
3 85 114 88
3 111 135 137
3 143 105 134
3 134 124 140
3 124 134 105
3 131 103 102
3 144 110 138
3 138 110 125
3 65 97 110
3 65 110 98
3 98 110 120
3 120 81 98
3 98 81 65
3 89 83 72
3 59 72 83
3 85 59 83
3 111 94 66
3 123 94 111
3 95 92 117
3 117 115 95
3 95 70 92
3 117 119 140
3 117 140 115
3 101 105 91
3 101 91 71
3 101 71 90
3 124 101 90
3 101 124 105
3 91 105 74
3 103 78 102
3 78 103 73
3 78 73 55
3 73 103 99
3 100 129 126
3 100 126 93
3 129 99 133
3 93 126 127
3 127 142 125
3 93 127 125
3 129 100 99
3 65 44 41
3 44 65 60
3 56 47 61
3 56 61 72
3 61 79 72
3 51 50 64
3 51 31 50
3 108 107 116
3 107 84 116
3 116 84 87
3 107 108 86
3 92 109 119
3 92 68 109
3 109 136 119
3 68 92 70
3 54 73 77
3 54 77 76
3 54 76 53
3 54 55 73
3 73 99 77
3 75 65 41
3 53 75 41
3 75 53 76
3 53 41 35
3 14 27 11
3 25 39 38
3 25 5 18
3 39 69 58
3 69 67 58
3 58 67 49
3 58 49 40
3 49 28 40
3 24 37 35
3 0 4 1
3 1 4 7
3 7 2 1
3 1 2 0
3 5 3 0
3 0 3 6
3 4 0 6
3 4 6 9
3 4 9 10
3 4 10 7
3 7 10 17
3 9 6 16
3 16 23 32
3 32 23 36
3 36 23 26
3 23 12 13
3 12 3 13
3 13 26 23
3 12 6 3
3 5 13 3
3 26 42 36
3 36 42 34
3 22 10 9
3 22 9 16
3 22 16 32
3 22 32 20
3 22 20 10
3 109 68 86
3 109 86 108
