ply
format ascii 1.0
comment Generated by PyMesh
element vertex 123
property float x
property float y
property float z
property float nx
property float ny
property float nz
element face 218
property list uchar int vertex_indices
end_header
-23.1501 -10.4362 13.4981 -0.8196 -0.412353 0.39777
-22.25 -10.51 14.0815 -0.21873 -0.517828 0.82705
-21.971 -11.1005 13.301 -0.106652 -0.920423 0.376093
-23.2505 -10.1637 12.119 -0.959695 -0.166601 -0.226338
-22.5636 -9.17675 13.9983 -0.683619 0.390177 0.616787
-23.1583 -9.1395 12.735 -0.882032 0.469308 0.0420707
-22.5958 -11.0782 12.0903 -0.547987 -0.836459 -0.00682782
-21.3085 -9.72125 14.475 -0.296893 -0.396969 0.868487
-21.034 -11.12 12.8165 0.113043 -0.956829 0.267767
-22.8326 -9.38325 11.3923 -0.723974 0.485879 -0.489677
-21.614 -11.3695 11.8645 0.106096 -0.993403 0.0435226
-21.89 -8.36 13.2975 -0.697337 0.699089 0.158102
-22.2157 -11.2505 11.018 -0.570993 -0.788321 -0.229164
-20.5748 -10.6032 13.6053 0.165732 -0.814987 0.555274
-21.94 -8.28475 12.0583 -0.558803 0.808481 -0.184656
-22.468 -10.2434 10.5262 -0.807436 0.0115416 -0.589843
-21.0061 -8.00712 14.7624 -0.648611 0.390745 0.653164
-20.5565 -9.0725 15.2525 -0.414445 -0.295017 0.86093
-19.6565 -10.831 12.367 0.274914 -0.94072 0.198669
-20.4727 -10.84 11.5573 0.178683 -0.983373 0.0324074
-21.3429 -8.80112 10.9245 -0.570952 0.665772 -0.480377
-19.3897 -9.711 14.9198 0.116296 -0.788879 0.603444
-20.2059 -7.42238 15.0086 -0.50206 0.590406 0.631946
-20.559 -7.1895 13.942 -0.497218 0.864605 0.072329
-21.215 -11.1318 9.35975 -0.744433 -0.667498 -0.0163054
-19.6926 -8.51519 15.6915 -0.354727 -0.0505206 0.933604
-21.2008 -9.84212 9.65075 -0.859396 0.384081 -0.337521
-20.1047 -10.9861 10.3837 0.0714146 -0.930488 0.359294
-18.8803 -10.169 13.2294 0.33354 -0.863241 0.378902
-19.8096 -7.3305 12.1806 -0.422493 0.867754 -0.261729
-20.3319 -8.01456 10.5962 -0.518208 0.814055 -0.262249
-18.7052 -8.91075 15.6088 0.310808 -0.574763 0.756998
-18.9241 -6.96331 15.3907 -0.0184397 0.791083 0.61143
-18.9158 -11.0653 10.1265 0.121158 -0.873156 0.472144
-18.577 -7.85475 16.1035 0.252151 0.0676973 0.965317
-17.9295 -10.4807 10.9862 0.203772 -0.92024 0.334119
-21.2681 -11.1785 7.83337 -0.94573 0.273552 -0.175396
-17.3449 -10.0703 12.3079 0.0072831 -0.933307 0.359005
-21.2463 -12.4145 8.2945 -0.828679 -0.207472 0.519853
-20.2418 -8.73088 8.9535 -0.578139 0.774489 -0.256755
-17.514 -9.25963 14.049 0.49165 -0.685061 0.537562
-19.4322 -12.1868 9.29225 -0.212148 -0.370685 0.904205
-18.6612 -6.53963 13.6825 -0.000841628 0.999542 0.0302569
-20.8336 -9.35913 7.769 -0.790303 0.559278 -0.250258
-18.7201 -6.78025 12.6282 -0.152706 0.974744 -0.162957
-19.1464 -7.52119 10.2719 -0.399648 0.857733 -0.323382
-18.7665 -7.0945 11.2499 -0.299586 0.93472 -0.191174
-17.4771 -8.27312 14.8329 0.768646 0.0622127 0.636642
-18.2342 -11.6804 9.38488 0.0164741 -0.403704 0.914741
-16.8307 -10.4169 10.779 -0.153617 -0.908316 0.389055
-21.6275 -12.2069 7.23287 -0.991279 -0.0642374 -0.115063
-21.079 -11.3485 6.5885 -0.682771 0.396006 -0.614006
-21.0296 -13.5229 8.1485 -0.891521 -0.183854 0.413991
-16.3324 -9.57938 12.9113 0.0748673 -0.400341 0.913303
-17.718 -6.87575 14.2485 0.512979 0.736748 0.440518
-17.0993 -11.123 9.728 0.050641 -0.657794 0.751493
-20.1029 -8.894 7.0315 -0.638649 0.687559 -0.345528
-19.0802 -8.20569 8.0365 -0.410943 0.896665 -0.164671
-18.0556 -12.7589 9.22262 -0.0476964 -0.0733478 0.996165
-16.241 -8.311 13.189 0.560006 -0.0170981 0.828312
-19.9814 -11.0499 6.23387 -0.420198 0.121153 -0.899308
-17.1421 -6.82312 12.0845 -0.152349 0.98768 0.0357603
-16.9757 -6.96663 13.2185 0.376412 0.835002 0.401355
-17.3175 -6.78494 10.7539 -0.388625 0.920736 -0.0348559
-15.5977 -11.0153 10.756 -0.0446271 -0.998487 -0.032134
-20.9698 -12.8448 6.57812 -0.735286 -0.113084 -0.668256
-17.5917 -7.18325 9.48575 -0.378216 0.888554 -0.259664
-20.5295 -14.376 8.6625 -0.55913 -0.270747 0.783626
-19.798 -9.5555 6.1505 -0.685014 0.268413 -0.677282
-18.2022 -7.71938 8.54775 -0.409342 0.880558 -0.238866
-15.342 -10.0555 13.1505 -0.0446152 -0.133316 0.990069
-16.9205 -12.4824 9.382 0.135998 -0.151947 0.978988
-15.1456 -11.1446 12.3993 -0.2113 -0.771271 0.600411
-21.1752 -14.5775 7.42725 -0.952801 -0.297653 -0.0597687
-18.6268 -14.3872 9.21212 -0.221777 -0.135436 0.965646
-19.2903 -8.58975 6.42 -0.340881 0.769253 -0.540417
-18.0842 -8.20588 7.21425 -0.134937 0.904376 -0.404841
-15.7953 -11.7142 9.2675 0.362476 -0.599477 0.71361
-16.148 -6.504 11.925 -0.00710704 0.953404 0.301612
-18.8111 -11.0901 5.96569 -0.0226724 -0.183419 -0.982773
-17.3923 -14.1713 9.258 0.0915104 -0.0876395 0.99194
-15.3359 -7.39187 12.6465 0.325666 0.554776 0.765614
-20.5295 -15.273 8.13 -0.617464 -0.670725 0.410933
-20.1175 -13.1535 6.00425 -0.293098 0.0207855 -0.955856
-18.9745 -9.794 5.5925 -0.196269 0.14308 -0.970055
-14.3614 -9.91488 12.9845 0.234477 -0.201325 0.951046
-15.9875 -6.25688 10.7812 -0.121422 0.969182 0.214344
-14.4009 -8.38313 12.5551 0.107231 0.209066 0.972005
-20.522 -15.3763 7.039 -0.592351 -0.755004 -0.281227
-16.797 -7.092 8.42344 -0.523127 0.761681 -0.382335
-18.2376 -8.663 6.14975 0.134453 0.637763 -0.758407
-14.344 -11.6005 11.3425 0.168142 -0.957274 -0.235276
-17.892 -15.428 9.281 0.116394 -0.190557 0.974751
-19.5457 -15.5938 8.26275 -0.595623 -0.639314 0.486324
-19.9883 -14.2528 6.0595 -0.390303 -0.208518 -0.896763
-13.5262 -11.3118 12.1214 0.505235 -0.737635 0.447921
-16.2255 -6.05162 9.27262 -0.461001 0.876281 -0.140032
-15.7753 -13.6415 9.037 0.598663 -0.155371 0.785788
-17.0509 -8.59725 6.72237 -0.122438 0.665458 -0.736325
-15.4423 -12.6602 8.57187 0.852243 -0.0237596 0.522606
-13.8919 -10.6025 10.1834 0.261635 -0.89178 -0.369156
-18.3759 -12.6317 6.00986 0.0137997 -0.00136579 -0.999904
-14.464 -7.162 12.191 0.114718 0.636867 0.762391
-17.6164 -10.9056 6.06619 0.183887 -0.0585972 -0.981199
-17.8595 -9.8705 5.769 0.224566 0.00574713 -0.974442
-15.0331 -10.8427 8.19519 0.794612 -0.606942 0.0145697
-14.1222 -10.2362 9.119 0.317312 -0.932536 -0.172307
-13.2242 -9.37725 12.7205 0.361253 -0.155347 0.919437
-14.7009 -6.59762 11.1679 0.0296261 0.873256 0.48636
-16.3779 -15.1609 8.73063 0.603037 -0.285722 0.744788
-18.546 -16.659 8.829 -0.355854 -0.558254 0.74948
-13.02 -10.359 12.2035 0.696805 -0.463734 0.547187
-19.2083 -16.5305 7.822 -0.776665 -0.627934 0.0499063
-16.3965 -7.80387 7.19375 -0.64199 0.406949 -0.649801
-13.0522 -7.41862 12.387 0.195902 0.639444 0.74346
-19.0273 -15.927 6.49744 -0.528751 -0.455518 -0.716189
-14.9621 -13.321 7.748 0.99373 -0.101835 -0.0461542
-15.1096 -5.77063 8.9065 -0.310933 0.949581 0.0402105
-15.9235 -6.88912 6.91913 -0.76091 0.44196 -0.475066
-12.9436 -10.2224 11.019 0.731517 -0.668141 -0.135903
-16.3687 -9.7295 6.31975 0.0285716 0.0449732 -0.99858
-12.423 -8.28925 12.7095 0.46641 0.0899128 0.879987
-15.4785 -14.6277 7.97256 0.911759 -0.386778 0.138194
3 11 4 16
3 16 4 7
3 4 1 7
3 1 2 13
3 2 0 6
3 3 5 9
3 5 4 14
3 20 29 30
3 29 14 23
3 23 14 11
3 23 16 22
3 17 25 16
3 32 22 25
3 16 25 22
3 17 21 25
3 18 21 13
3 10 18 8
3 18 13 8
3 10 12 24
3 41 24 38
3 38 24 36
3 12 15 24
3 15 20 26
3 20 39 26
3 30 29 46
3 44 29 23
3 54 32 47
3 28 37 40
3 53 37 72
3 72 37 64
3 35 37 18
3 37 28 18
3 19 33 18
3 18 33 35
3 19 27 33
3 41 52 67
3 38 50 52
3 52 50 65
3 52 65 73
3 65 51 60
3 51 36 60
3 60 36 68
3 68 36 43
3 56 43 57
3 39 30 45
3 57 39 69
3 89 66 63
3 46 63 66
3 62 61 44
3 61 62 78
3 78 62 81
3 62 47 59
3 62 59 81
3 47 40 59
3 59 40 53
3 87 53 70
3 87 85 107
3 35 33 55
3 55 33 48
3 55 48 71
3 71 48 58
3 74 92 80
3 92 74 110
3 74 58 41
3 74 93 110
3 110 93 112
3 82 88 93
3 93 88 115
3 93 115 112
3 94 73 65
3 101 60 79
3 79 60 84
3 60 68 84
3 68 56 75
3 75 76 90
3 76 69 89
3 89 96 117
3 86 117 96
3 86 63 78
3 108 78 81
3 108 81 102
3 102 114 108
3 102 81 87
3 87 114 102
3 107 85 111
3 119 91 100
3 100 91 64
3 71 99 77
3 109 80 92
3 104 103 79
3 104 79 84
3 104 90 120
3 4 11 14
3 1 13 7
3 18 28 21
3 19 18 10
3 27 19 10
3 27 24 41
3 24 27 10
3 36 24 26
3 36 26 43
3 26 24 15
3 39 43 26
3 30 39 20
3 46 45 30
3 53 40 37
3 49 64 37
3 49 37 35
3 41 48 33
3 41 33 27
3 41 58 48
3 39 57 43
3 89 69 66
3 46 66 45
3 78 63 61
3 81 59 87
3 53 87 59
3 77 64 49
3 77 49 55
3 35 55 49
3 77 55 71
3 113 89 118
3 108 117 86
3 78 108 86
3 104 120 103
3 98 120 90
3 113 98 89
3 89 98 76
3 76 98 90
3 64 105 106
3 100 64 106
3 99 105 77
3 77 105 64
3 4 5 0
3 0 3 6
3 0 2 1
3 0 1 4
3 0 5 3
3 20 14 29
3 21 17 7
3 7 17 16
3 11 16 23
3 10 8 6
3 2 6 8
3 2 8 13
3 9 20 15
3 3 9 15
3 3 15 6
3 6 15 12
3 6 12 10
3 14 20 9
3 14 9 5
3 44 23 42
3 42 32 54
3 32 42 23
3 32 23 22
3 34 32 25
3 34 25 31
3 34 31 47
3 47 32 34
3 40 21 28
3 40 47 31
3 40 31 21
3 21 31 25
3 38 52 41
3 50 36 51
3 50 51 65
3 50 38 36
3 68 43 56
3 45 66 39
3 69 39 66
3 29 44 46
3 63 46 61
3 44 61 46
3 47 62 54
3 42 54 62
3 62 44 42
3 53 72 70
3 70 85 87
3 85 70 72
3 74 80 58
3 67 74 41
3 93 74 67
3 88 82 73
3 73 94 88
3 88 94 115
3 82 93 67
3 82 67 73
3 73 67 52
3 101 94 83
3 83 94 65
3 65 60 83
3 83 60 101
3 56 57 75
3 76 75 57
3 69 76 57
3 63 96 89
3 86 96 63
3 121 114 87
3 121 87 107
3 95 72 91
3 95 91 119
3 95 119 111
3 85 95 111
3 95 85 72
3 91 72 64
3 80 71 58
3 71 80 97
3 71 97 99
3 97 80 109
3 103 101 79
3 90 104 84
3 90 84 75
3 84 68 75
3 116 97 122
3 116 99 97
3 97 109 122
3 7 13 21
