ply
format ascii 1.0
comment Generated by PyMesh
element vertex 189
property float x
property float y
property float z
property float nx
property float ny
property float nz
element face 366
property list uchar int vertex_indices
end_header
-16.3687 -9.7295 6.31975 0.0285716 0.0449732 -0.99858
-17.0509 -8.59725 6.72237 -0.122438 0.665458 -0.736325
-15.515 -10.8661 6.57281 0.48398 -0.503505 -0.715714
-17.8595 -9.8705 5.769 0.224566 0.00574713 -0.974442
-15.3691 -8.4265 6.08112 -0.674685 0.13659 -0.725358
-17.6164 -10.9056 6.06619 0.183887 -0.0585972 -0.981199
-14.7054 -10.5063 5.86097 -0.4303 -0.792922 -0.431412
-18.2376 -8.663 6.14975 0.134453 0.637763 -0.758407
-16.3965 -7.80387 7.19375 -0.64199 0.406949 -0.649801
-18.0842 -8.20588 7.21425 -0.134937 0.904376 -0.404841
-14.445 -10.3615 6.8575 0.282855 -0.951239 0.123036
-18.9745 -9.794 5.5925 -0.196269 0.14308 -0.970055
-15.5191 -12.0419 7.088 0.91038 0.0224387 -0.413164
-14.8977 -7.449 5.739 -0.628185 0.379633 -0.679163
-18.8111 -11.0901 5.96569 -0.0226724 -0.183419 -0.982773
-15.0331 -10.8427 8.19519 0.794612 -0.606942 0.0145697
-13.372 -10.6006 6.02413 -0.0596607 -0.878413 0.474163
-19.2903 -8.58975 6.42 -0.340881 0.769253 -0.540417
-16.6131 -12.3586 6.12388 0.345698 -0.0165249 -0.9382
-14.569 -7.8455 4.5965 -0.689979 0.36658 -0.624138
-14.4462 -9.07288 4.63263 -0.778934 -0.231027 -0.582999
-13.6117 -11.175 4.89675 -0.696635 -0.71703 -0.0238453
-15.9235 -6.88912 6.91913 -0.76091 0.44196 -0.475066
-18.3759 -12.6317 6.00986 0.0137997 -0.00136579 -0.999904
-16.797 -7.092 8.42344 -0.523127 0.761681 -0.382335
-19.798 -9.5555 6.1505 -0.685014 0.268413 -0.677282
-13.9075 -10.017 7.865 0.259067 -0.965505 0.0261541
-19.0802 -8.20569 8.0365 -0.410943 0.896665 -0.164671
-18.2022 -7.71938 8.54775 -0.409342 0.880558 -0.238866
-19.9814 -11.0499 6.23387 -0.420198 0.121153 -0.899308
-15.6615 -13.451 6.55475 0.651625 -0.0982242 -0.752155
-12.8769 -10.1391 6.88319 0.131502 -0.934215 0.331585
-14.9621 -13.321 7.748 0.99373 -0.101835 -0.0461542
-20.1029 -8.894 7.0315 -0.638649 0.687559 -0.345528
-15.4423 -12.6602 8.57187 0.852243 -0.0237596 0.522606
-13.6648 -6.5765 6.081 0.0196493 0.899341 -0.436807
-15.0556 -5.97862 6.50075 -0.215017 0.789825 -0.574408
-14.1222 -10.2362 9.119 0.317312 -0.932536 -0.172307
-13.6791 -9.44462 3.96638 -0.784663 -0.0162267 -0.619709
-12.859 -11.912 4.451 -0.309202 -0.947626 -0.0799973
-15.7953 -11.7142 9.2675 0.362476 -0.599477 0.71361
-13.2327 -11.0689 3.64887 -0.603856 -0.520526 -0.603664
-13.3769 -7.07369 4.50744 -0.112079 0.745032 -0.657546
-11.751 -10.7425 5.8105 0.396025 -0.647829 0.650755
-17.5917 -7.18325 9.48575 -0.378216 0.888554 -0.259664
-16.2255 -6.05162 9.27262 -0.461001 0.876281 -0.140032
-12.0107 -11.6585 5.02125 0.0771251 -0.882121 0.464665
-12.506 -9.99162 7.804 0.635587 -0.747884 0.191569
-18.3609 -14.2872 5.9515 -0.00733023 -0.0488615 -0.998779
-14.932 -5.647 7.568 -0.296399 0.936559 -0.187094
-21.079 -11.3485 6.5885 -0.682771 0.396006 -0.614006
-11.812 -9.762 7.06 0.615945 -0.653441 0.440031
-20.1175 -13.1535 6.00425 -0.293098 0.0207855 -0.955856
-20.8336 -9.35913 7.769 -0.790303 0.559278 -0.250258
-20.2418 -8.73088 8.9535 -0.578139 0.774489 -0.256755
-15.7753 -13.6415 9.037 0.598663 -0.155371 0.785788
-17.024 -14.482 6.2055 0.297968 -0.0577432 -0.952828
-16.202 -14.757 6.7335 0.693306 -0.281304 -0.663472
-15.4785 -14.6277 7.97256 0.911759 -0.386778 0.138194
-13.8919 -10.6025 10.1834 0.261635 -0.89178 -0.369156
-15.5977 -11.0153 10.756 -0.0446271 -0.998487 -0.032134
-11.9443 -11.6205 3.769 0.0721648 -0.886644 -0.456788
-12.376 -7.104 5.54775 0.484044 0.783913 -0.38882
-12.6095 -10.0452 9.3735 0.542641 -0.838511 -0.0493975
-15.1096 -5.77063 8.9065 -0.310933 0.949581 0.0402105
-13.316 -8.237 3.639 -0.437458 0.564787 -0.699748
-19.9883 -14.2528 6.0595 -0.390303 -0.208518 -0.896763
-13.0129 -10.0099 2.87462 -0.573655 -0.0963802 -0.813407
-16.9205 -12.4824 9.382 0.135998 -0.151947 0.978988
-17.3175 -6.78494 10.7539 -0.388625 0.920736 -0.0348559
-13.272 -6.136 7.7405 0.294234 0.941491 -0.164379
-12.2902 -7.80613 4.51762 0.383876 0.81815 -0.428101
-21.2681 -11.1785 7.83337 -0.94573 0.273552 -0.175396
-17.0993 -11.123 9.728 0.050641 -0.657794 0.751493
-20.9698 -12.8448 6.57812 -0.735286 -0.113084 -0.668256
-10.49 -10.6082 5.22475 0.703015 -0.398245 0.589212
-12.649 -8.50275 2.91175 -0.315555 0.609038 -0.727666
-10.8741 -11.4235 4.4755 0.475498 -0.856857 0.199244
-12.2273 -6.29025 7.618 0.471934 0.879836 0.0562706
-11.6785 -6.84125 6.825 0.838956 0.538302 -0.0799012
-14.104 -5.607 8.4465 0.193419 0.970278 -0.145428
-17.642 -15.301 5.926 0.277019 -0.12556 -0.952625
-11.4354 -8.68175 7.05188 0.906893 -0.122837 0.403059
-21.6275 -12.2069 7.23287 -0.991279 -0.0642374 -0.115063
-10.6932 -9.33603 5.83038 0.856452 0.0908443 0.508171
-15.9875 -6.25688 10.7812 -0.121422 0.969182 0.214344
-19.1464 -7.52119 10.2719 -0.399648 0.857733 -0.323382
-11.8895 -10.1025 2.57025 0.0482922 -0.387864 -0.920451
-16.8307 -10.4169 10.779 -0.153617 -0.908316 0.389055
-12.103 -9.03475 9.50412 0.980273 -0.191873 0.0474305
-16.3779 -15.1609 8.73063 0.603037 -0.285722 0.744788
-15.9945 -15.913 7.365 0.922354 -0.288572 -0.256885
-10.8845 -11.1531 3.41825 0.454185 -0.617366 -0.64232
-12.9436 -10.2224 11.019 0.731517 -0.668141 -0.135903
-21.2008 -9.84212 9.65075 -0.859396 0.384081 -0.337521
-11.4478 -7.79975 5.989 0.823888 0.557988 -0.0992903
-11.8993 -8.36287 8.442 0.964895 -0.0701074 0.253104
-18.7665 -7.0945 11.2499 -0.299586 0.93472 -0.191174
-19.0273 -15.927 6.49744 -0.528751 -0.455518 -0.716189
-17.3923 -14.1713 9.258 0.0915104 -0.0876395 0.99194
-18.0556 -12.7589 9.22262 -0.0476964 -0.0733478 0.996165
-14.301 -5.57575 9.97925 -0.0692064 0.947961 0.310774
-12.6625 -6.508 8.608 0.680533 0.704461 0.201519
-20.3319 -8.01456 10.5962 -0.518208 0.814055 -0.262249
-14.344 -11.6005 11.3425 0.168142 -0.957274 -0.235276
-11.8837 -9.04 2.4785 0.153279 0.291459 -0.944223
-17.1421 -6.82312 12.0845 -0.152349 0.98768 0.0357603
-15.1456 -11.1446 12.3993 -0.2113 -0.771271 0.600411
-10.0812 -9.64756 4.613 0.930022 0.363453 0.0544062
-20.522 -15.3763 7.039 -0.592351 -0.755004 -0.281227
-21.2463 -12.4145 8.2945 -0.828679 -0.207472 0.519853
-18.2342 -11.6804 9.38488 0.0164741 -0.403704 0.914741
-11.8705 -7.17175 8.259 0.864563 0.350963 0.359662
-9.833 -10.511 4.03075 0.936734 -0.324897 -0.130271
-13.241 -5.649 9.247 0.614975 0.780192 0.114477
-10.9235 -8.4425 4.6665 0.712314 0.697913 -0.0743393
-21.3429 -8.80112 10.9245 -0.570952 0.665772 -0.480377
-21.215 -11.1318 9.35975 -0.744433 -0.667498 -0.0163054
-21.1752 -14.5775 7.42725 -0.952801 -0.297653 -0.0597687
-16.148 -6.504 11.925 -0.00710704 0.953404 0.301612
-11.257 -8.62237 3.36025 0.542133 0.720849 -0.431819
-17.9295 -10.4807 10.9862 0.203772 -0.92024 0.334119
-11.9755 -8.58128 10.676 0.966685 -0.248206 -0.0625664
-21.0296 -13.5229 8.1485 -0.891521 -0.183854 0.413991
-14.7009 -6.59762 11.1679 0.0296261 0.873256 0.48636
-18.9158 -11.0653 10.1265 0.121158 -0.873156 0.472144
-17.671 -16.924 6.2925 -0.019153 -0.60768 -0.793951
-16.563 -16.835 6.796 0.653131 -0.583754 -0.48234
-13.02 -10.359 12.2035 0.696805 -0.463734 0.547187
-16.33 -16.601 8.361 0.615923 -0.571743 0.541986
-17.3449 -10.0703 12.3079 0.0072831 -0.933307 0.359005
-10.5933 -9.69675 3.23019 0.696395 0.171832 -0.696784
-12.3398 -7.645 9.37088 0.924471 0.364109 0.113044
-12.197 -9.42212 11.7636 0.862853 -0.415286 0.288135
-13.458 -6.166 10.4875 0.45716 0.797129 0.394449
-18.546 -17.069 6.767 -0.520319 -0.750265 -0.407887
-13.5262 -11.3118 12.1214 0.505235 -0.737635 0.447921
-18.6268 -14.3872 9.21212 -0.221777 -0.135436 0.965646
-18.7201 -6.78025 12.6282 -0.152706 0.974744 -0.162957
-19.8096 -7.3305 12.1806 -0.422493 0.867754 -0.261729
-17.892 -15.428 9.281 0.116394 -0.190557 0.974751
-16.9757 -6.96663 13.2185 0.376412 0.835002 0.401355
-20.5295 -15.273 8.13 -0.617464 -0.670725 0.410933
-19.2083 -16.5305 7.822 -0.776665 -0.627934 0.0499063
-12.8751 -6.93699 9.90541 0.835044 0.540928 0.100493
-22.468 -10.2434 10.5262 -0.807436 0.0115416 -0.589843
-19.4322 -12.1868 9.29225 -0.212148 -0.370685 0.904205
-15.342 -10.0555 13.1505 -0.0446152 -0.133316 0.990069
-19.5457 -15.5938 8.26275 -0.595623 -0.639314 0.486324
-14.3614 -9.91488 12.9845 0.234477 -0.201325 0.951046
-20.5295 -14.376 8.6625 -0.55913 -0.270747 0.783626
-21.94 -8.28475 12.0583 -0.558803 0.808481 -0.184656
-11.8664 -7.89288 11.6814 0.925801 0.288131 0.244691
-15.3359 -7.39187 12.6465 0.325666 0.554776 0.765614
-14.464 -7.162 12.191 0.114718 0.636867 0.762391
-20.1047 -10.9861 10.3837 0.0714146 -0.930488 0.359294
-13.2242 -9.37725 12.7205 0.361253 -0.155347 0.919437
-22.8326 -9.38325 11.3923 -0.723974 0.485879 -0.489677
-16.3324 -9.57938 12.9113 0.0748673 -0.400341 0.913303
-12.7347 -6.67925 11.2995 0.542763 0.809233 0.224834
-17.671 -17.4522 7.593 -0.0242997 -0.998533 0.0483818
-18.6612 -6.53963 13.6825 -0.000841628 0.999542 0.0302569
-22.2157 -11.2505 11.018 -0.570993 -0.788321 -0.229164
-18.546 -16.659 8.829 -0.355854 -0.558254 0.74948
-17.718 -6.87575 14.2485 0.512979 0.736748 0.440518
-12.423 -8.28925 12.7095 0.46641 0.0899128 0.879987
-18.8803 -10.169 13.2294 0.33354 -0.863241 0.378902
-19.6565 -10.831 12.367 0.274914 -0.94072 0.198669
-16.241 -8.311 13.189 0.560006 -0.0170981 0.828312
-20.4727 -10.84 11.5573 0.178683 -0.983373 0.0324074
-17.514 -9.25963 14.049 0.49165 -0.685061 0.537562
-13.0522 -7.41862 12.387 0.195902 0.639444 0.74346
-21.614 -11.3695 11.8645 0.106096 -0.993403 0.0435226
-21.89 -8.36 13.2975 -0.697337 0.699089 0.158102
-23.2505 -10.1637 12.119 -0.959695 -0.166601 -0.226338
-22.5958 -11.0782 12.0903 -0.547987 -0.836459 -0.00682782
-20.559 -7.1895 13.942 -0.497218 0.864605 0.072329
-14.4009 -8.38313 12.5551 0.107231 0.209066 0.972005
-17.4771 -8.27312 14.8329 0.768646 0.0622127 0.636642
-23.1583 -9.1395 12.735 -0.882032 0.469308 0.0420707
-22.5636 -9.17675 13.9983 -0.683619 0.390177 0.616787
-18.9241 -6.96331 15.3907 -0.0184397 0.791083 0.61143
-21.034 -11.12 12.8165 0.113043 -0.956829 0.267767
-20.2059 -7.42238 15.0086 -0.50206 0.590406 0.631946
-20.5748 -10.6032 13.6053 0.165732 -0.814987 0.555274
-21.0061 -8.00712 14.7624 -0.648611 0.390745 0.653164
-21.971 -11.1005 13.301 -0.106652 -0.920423 0.376093
-23.1501 -10.4362 13.4981 -0.8196 -0.412353 0.39777
-19.3897 -9.711 14.9198 0.116296 -0.788879 0.603444
3 173 180 185
3 186 187 175
3 174 179 157
3 179 180 151
3 116 139 103
3 139 151 176
3 176 151 173
3 176 185 183
3 167 188 184
3 172 167 182
3 167 184 182
3 172 162 117
3 146 117 110
3 110 117 72
3 162 145 117
3 145 116 94
3 116 54 94
3 103 139 97
3 138 139 176
3 164 181 178
3 166 130 170
3 158 130 107
3 107 130 60
3 121 130 167
3 130 166 167
3 169 125 167
3 167 125 121
3 169 155 125
3 146 123 150
3 110 83 123
3 123 83 74
3 123 74 118
3 74 50 29
3 50 72 29
3 29 72 25
3 25 72 53
3 33 53 27
3 54 103 86
3 27 54 28
3 24 44 69
3 97 69 44
3 141 106 138
3 106 141 119
3 119 141 153
3 141 178 168
3 141 168 153
3 178 170 168
3 168 170 158
3 177 158 147
3 177 149 156
3 121 125 73
3 73 125 111
3 73 111 68
3 68 111 100
3 137 140 99
3 140 137 163
3 137 100 146
3 137 148 163
3 163 148 143
3 142 109 148
3 148 109 98
3 148 98 143
3 66 118 74
3 98 66 48
3 98 48 81
3 23 29 14
3 14 29 11
3 29 25 11
3 25 33 17
3 17 9 7
3 9 28 24
3 24 45 64
3 22 24 49
3 64 49 24
3 85 64 45
3 85 69 119
3 124 119 153
3 124 153 154
3 154 171 124
3 154 153 177
3 177 171 154
3 165 152 171
3 122 133 93
3 93 63 122
3 89 122 63
3 93 133 128
3 128 133 156
3 156 149 128
3 93 59 63
3 93 104 59
3 59 104 60
3 68 34 40
3 90 99 140
3 90 91 58
3 58 91 57
3 91 81 57
3 57 81 56
3 56 81 48
3 56 48 23
3 12 18 2
3 18 5 2
3 3 5 14
3 3 14 11
3 4 6 0
3 3 7 0
3 4 1 8
3 22 13 8
3 13 36 35
3 13 35 19
3 19 35 42
3 49 70 36
3 35 36 70
3 70 78 35
3 80 49 64
3 114 102 80
3 70 80 102
3 102 78 70
3 144 102 114
3 102 112 78
3 159 134 124
3 122 89 132
3 96 89 47
3 63 47 89
3 34 32 12
3 15 34 12
3 32 30 12
3 6 16 10
3 6 10 2
3 46 16 21
3 16 6 21
3 6 20 21
3 21 20 38
3 21 38 41
3 38 20 19
3 20 4 19
3 38 42 65
3 38 65 76
3 65 42 71
3 65 71 76
3 42 62 71
3 79 62 35
3 79 95 62
3 79 82 95
3 82 84 95
3 82 47 51
3 84 82 43
3 51 43 82
3 51 47 31
3 31 43 51
3 75 84 43
3 43 77 75
3 84 108 115
3 108 84 75
3 95 71 62
3 120 131 105
3 131 87 105
3 180 173 151
3 167 166 188
3 169 167 172
3 155 169 172
3 155 117 146
3 117 155 172
3 72 117 94
3 72 94 53
3 94 117 145
3 54 53 94
3 103 54 116
3 97 86 103
3 158 170 130
3 88 60 130
3 88 130 121
3 146 111 125
3 146 125 155
3 146 100 111
3 54 27 53
3 24 28 44
3 97 44 86
3 119 69 106
3 153 168 177
3 158 177 168
3 40 60 88
3 40 88 73
3 121 73 88
3 40 73 68
3 8 24 22
3 124 101 64
3 124 64 85
3 119 124 85
3 134 101 124
3 3 0 5
3 5 0 2
3 2 0 6
3 1 4 0
3 1 0 7
3 8 1 24
3 24 1 9
3 9 1 7
3 4 8 13
3 19 4 13
3 80 70 49
3 132 112 102
3 132 102 144
3 96 132 89
3 15 26 37
3 37 26 63
3 63 26 47
3 60 15 37
3 59 60 37
3 63 59 37
3 34 15 40
3 40 15 60
3 15 2 10
3 15 10 26
3 26 10 31
3 26 31 47
3 31 10 16
3 132 96 112
3 46 43 16
3 31 16 43
3 180 179 187
3 187 174 175
3 187 179 174
3 116 151 139
3 173 185 176
3 172 182 175
3 186 175 182
3 186 182 184
3 157 116 145
3 174 157 145
3 174 145 175
3 175 145 162
3 175 162 172
3 151 116 157
3 151 157 179
3 138 176 161
3 161 181 164
3 181 161 176
3 181 176 183
3 170 188 166
3 110 123 146
3 83 72 50
3 83 50 74
3 83 110 72
3 25 53 33
3 86 44 54
3 28 54 44
3 139 138 97
3 69 97 106
3 138 106 97
3 178 141 164
3 161 164 141
3 141 138 161
3 158 107 147
3 147 149 177
3 149 147 107
3 137 99 100
3 150 137 146
3 148 137 150
3 109 142 118
3 118 66 109
3 109 66 98
3 142 148 150
3 142 150 118
3 118 150 123
3 23 48 66
3 23 66 52
3 52 66 74
3 74 29 52
3 52 29 23
3 33 27 17
3 9 17 27
3 28 9 27
3 69 45 24
3 85 45 69
3 133 152 165
3 165 156 133
3 133 122 152
3 165 171 177
3 165 177 156
3 136 107 104
3 136 104 93
3 136 93 128
3 149 136 128
3 136 149 107
3 104 107 60
3 99 68 100
3 68 99 55
3 68 55 34
3 55 99 90
3 91 129 127
3 129 160 127
3 91 127 81
3 129 90 140
3 129 140 163
3 129 163 160
3 127 160 126
3 81 127 126
3 126 160 135
3 126 135 98
3 81 126 98
3 160 163 143
3 135 160 143
3 135 143 98
3 129 91 90
3 23 5 18
3 5 23 14
3 7 3 11
3 7 11 17
3 11 25 17
3 36 22 49
3 36 13 22
3 134 114 101
3 114 80 101
3 101 80 64
3 114 134 144
3 152 159 171
3 152 132 159
3 159 124 171
3 132 152 122
3 32 55 58
3 32 58 57
3 32 57 30
3 32 34 55
3 55 90 58
3 56 23 18
3 30 56 18
3 56 30 57
3 30 18 12
3 6 4 20
3 42 35 62
3 42 38 19
3 35 78 79
3 78 112 79
3 79 112 96
3 79 96 82
3 96 47 82
3 2 15 12
3 41 61 39
3 39 61 46
3 46 21 39
3 39 21 41
3 38 67 41
3 41 67 87
3 61 41 87
3 61 87 92
3 61 92 77
3 61 77 46
3 46 77 43
3 92 87 131
3 131 120 108
3 108 120 115
3 115 120 71
3 120 105 76
3 105 67 76
3 76 71 120
3 105 87 67
3 38 76 67
3 71 95 115
3 115 95 84
3 113 77 92
3 113 92 131
3 113 131 108
3 113 108 75
3 113 75 77
3 159 132 144
3 159 144 134
