ply
format ascii 1.0
comment Generated by PyMesh
element vertex 157
property float x
property float y
property float z
property float nx
property float ny
property float nz
element face 291
property list uchar int vertex_indices
end_header
-16.9757 -6.96663 13.2185 0.376412 0.835002 0.401355
-17.1421 -6.82312 12.0845 -0.152349 0.98768 0.0357603
-17.718 -6.87575 14.2485 0.512979 0.736748 0.440518
-16.241 -8.311 13.189 0.560006 -0.0170981 0.828312
-16.148 -6.504 11.925 -0.00710704 0.953404 0.301612
-15.3359 -7.39187 12.6465 0.325666 0.554776 0.765614
-18.6612 -6.53963 13.6825 -0.000841628 0.999542 0.0302569
-18.7201 -6.78025 12.6282 -0.152706 0.974744 -0.162957
-17.4771 -8.27312 14.8329 0.768646 0.0622127 0.636642
-17.3175 -6.78494 10.7539 -0.388625 0.920736 -0.0348559
-15.9875 -6.25688 10.7812 -0.121422 0.969182 0.214344
-14.464 -7.162 12.191 0.114718 0.636867 0.762391
-16.3324 -9.57938 12.9113 0.0748673 -0.400341 0.913303
-18.9241 -6.96331 15.3907 -0.0184397 0.791083 0.61143
-18.7665 -7.0945 11.2499 -0.299586 0.93472 -0.191174
-19.8096 -7.3305 12.1806 -0.422493 0.867754 -0.261729
-14.4009 -8.38313 12.5551 0.107231 0.209066 0.972005
-14.7009 -6.59762 11.1679 0.0296261 0.873256 0.48636
-17.514 -9.25963 14.049 0.49165 -0.685061 0.537562
-18.7052 -8.91075 15.6088 0.310808 -0.574763 0.756998
-20.559 -7.1895 13.942 -0.497218 0.864605 0.072329
-17.5917 -7.18325 9.48575 -0.378216 0.888554 -0.259664
-18.577 -7.85475 16.1035 0.252151 0.0676973 0.965317
-15.342 -10.0555 13.1505 -0.0446152 -0.133316 0.990069
-17.3449 -10.0703 12.3079 0.0072831 -0.933307 0.359005
-19.1464 -7.52119 10.2719 -0.399648 0.857733 -0.323382
-13.0522 -7.41862 12.387 0.195902 0.639444 0.74346
-16.2255 -6.05162 9.27262 -0.461001 0.876281 -0.140032
-20.2059 -7.42238 15.0086 -0.50206 0.590406 0.631946
-19.6926 -8.51519 15.6915 -0.354727 -0.0505206 0.933604
-13.2242 -9.37725 12.7205 0.361253 -0.155347 0.919437
-13.458 -6.166 10.4875 0.45716 0.797129 0.394449
-14.3614 -9.91488 12.9845 0.234477 -0.201325 0.951046
-14.301 -5.57575 9.97925 -0.0692064 0.947961 0.310774
-15.1456 -11.1446 12.3993 -0.2113 -0.771271 0.600411
-16.797 -7.092 8.42344 -0.523127 0.761681 -0.382335
-15.1096 -5.77063 8.9065 -0.310933 0.949581 0.0402105
-20.3319 -8.01456 10.5962 -0.518208 0.814055 -0.262249
-19.3897 -9.711 14.9198 0.116296 -0.788879 0.603444
-21.0061 -8.00712 14.7624 -0.648611 0.390745 0.653164
-18.2022 -7.71938 8.54775 -0.409342 0.880558 -0.238866
-12.423 -8.28925 12.7095 0.46641 0.0899128 0.879987
-18.8803 -10.169 13.2294 0.33354 -0.863241 0.378902
-12.7347 -6.67925 11.2995 0.542763 0.809233 0.224834
-21.94 -8.28475 12.0583 -0.558803 0.808481 -0.184656
-17.9295 -10.4807 10.9862 0.203772 -0.92024 0.334119
-21.3429 -8.80112 10.9245 -0.570952 0.665772 -0.480377
-11.8664 -7.89288 11.6814 0.925801 0.288131 0.244691
-21.89 -8.36 13.2975 -0.697337 0.699089 0.158102
-16.8307 -10.4169 10.779 -0.153617 -0.908316 0.389055
-20.5565 -9.0725 15.2525 -0.414445 -0.295017 0.86093
-13.02 -10.359 12.2035 0.696805 -0.463734 0.547187
-12.8751 -6.93699 9.90541 0.835044 0.540928 0.100493
-14.104 -5.607 8.4465 0.193419 0.970278 -0.145428
-13.241 -5.649 9.247 0.614975 0.780192 0.114477
-12.197 -9.42212 11.7636 0.862853 -0.415286 0.288135
-19.0802 -8.20569 8.0365 -0.410943 0.896665 -0.164671
-20.2418 -8.73088 8.9535 -0.578139 0.774489 -0.256755
-14.344 -11.6005 11.3425 0.168142 -0.957274 -0.235276
-14.932 -5.647 7.568 -0.296399 0.936559 -0.187094
-16.3965 -7.80387 7.19375 -0.64199 0.406949 -0.649801
-19.6565 -10.831 12.367 0.274914 -0.94072 0.198669
-13.5262 -11.3118 12.1214 0.505235 -0.737635 0.447921
-18.0842 -8.20588 7.21425 -0.134937 0.904376 -0.404841
-15.5977 -11.0153 10.756 -0.0446271 -0.998487 -0.032134
-15.9235 -6.88912 6.91913 -0.76091 0.44196 -0.475066
-21.3085 -9.72125 14.475 -0.296893 -0.396969 0.868487
-12.3398 -7.645 9.37088 0.924471 0.364109 0.113044
-11.9755 -8.58128 10.676 0.966685 -0.248206 -0.0625664
-20.5748 -10.6032 13.6053 0.165732 -0.814987 0.555274
-22.5636 -9.17675 13.9983 -0.683619 0.390177 0.616787
-12.9436 -10.2224 11.019 0.731517 -0.668141 -0.135903
-18.9158 -11.0653 10.1265 0.121158 -0.873156 0.472144
-22.8326 -9.38325 11.3923 -0.723974 0.485879 -0.489677
-17.0993 -11.123 9.728 0.050641 -0.657794 0.751493
-23.1583 -9.1395 12.735 -0.882032 0.469308 0.0420707
-17.0509 -8.59725 6.72237 -0.122438 0.665458 -0.736325
-12.6625 -6.508 8.608 0.680533 0.704461 0.201519
-13.272 -6.136 7.7405 0.294234 0.941491 -0.164379
-21.2008 -9.84212 9.65075 -0.859396 0.384081 -0.337521
-15.0556 -5.97862 6.50075 -0.215017 0.789825 -0.574408
-22.468 -10.2434 10.5262 -0.807436 0.0115416 -0.589843
-20.4727 -10.84 11.5573 0.178683 -0.983373 0.0324074
-18.2376 -8.663 6.14975 0.134453 0.637763 -0.758407
-20.8336 -9.35913 7.769 -0.790303 0.559278 -0.250258
-20.1029 -8.894 7.0315 -0.638649 0.687559 -0.345528
-13.8919 -10.6025 10.1834 0.261635 -0.89178 -0.369156
-19.2903 -8.58975 6.42 -0.340881 0.769253 -0.540417
-21.034 -11.12 12.8165 0.113043 -0.956829 0.267767
-15.7953 -11.7142 9.2675 0.362476 -0.599477 0.71361
-15.3691 -8.4265 6.08112 -0.674685 0.13659 -0.725358
-22.25 -10.51 14.0815 -0.21873 -0.517828 0.82705
-11.8993 -8.36287 8.442 0.964895 -0.0701074 0.253104
-11.8705 -7.17175 8.259 0.864563 0.350963 0.359662
-12.103 -9.03475 9.50412 0.980273 -0.191873 0.0474305
-23.2505 -10.1637 12.119 -0.959695 -0.166601 -0.226338
-18.2342 -11.6804 9.38488 0.0164741 -0.403704 0.914741
-20.1047 -10.9861 10.3837 0.0714146 -0.930488 0.359294
-12.2273 -6.29025 7.618 0.471934 0.879836 0.0562706
-14.8977 -7.449 5.739 -0.628185 0.379633 -0.679163
-23.1501 -10.4362 13.4981 -0.8196 -0.412353 0.39777
-16.9205 -12.4824 9.382 0.135998 -0.151947 0.978988
-21.971 -11.1005 13.301 -0.106652 -0.920423 0.376093
-19.4322 -12.1868 9.29225 -0.212148 -0.370685 0.904205
-16.3687 -9.7295 6.31975 0.0285716 0.0449732 -0.99858
-21.215 -11.1318 9.35975 -0.744433 -0.667498 -0.0163054
-21.614 -11.3695 11.8645 0.106096 -0.993403 0.0435226
-22.2157 -11.2505 11.018 -0.570993 -0.788321 -0.229164
-12.6095 -10.0452 9.3735 0.542641 -0.838511 -0.0493975
-14.1222 -10.2362 9.119 0.317312 -0.932536 -0.172307
-19.798 -9.5555 6.1505 -0.685014 0.268413 -0.677282
-13.6648 -6.5765 6.081 0.0196493 0.899341 -0.436807
-17.8595 -9.8705 5.769 0.224566 0.00574713 -0.974442
-18.9745 -9.794 5.5925 -0.196269 0.14308 -0.970055
-15.0331 -10.8427 8.19519 0.794612 -0.606942 0.0145697
-15.4423 -12.6602 8.57187 0.852243 -0.0237596 0.522606
-22.5958 -11.0782 12.0903 -0.547987 -0.836459 -0.00682782
-18.0556 -12.7589 9.22262 -0.0476964 -0.0733478 0.996165
-11.6785 -6.84125 6.825 0.838956 0.538302 -0.0799012
-21.2681 -11.1785 7.83337 -0.94573 0.273552 -0.175396
-14.569 -7.8455 4.5965 -0.689979 0.36658 -0.624138
-11.4354 -8.68175 7.05188 0.906893 -0.122837 0.403059
-14.4462 -9.07288 4.63263 -0.778934 -0.231027 -0.582999
-12.506 -9.99162 7.804 0.635587 -0.747884 0.191569
-15.515 -10.8661 6.57281 0.48398 -0.503505 -0.715714
-17.6164 -10.9056 6.06619 0.183887 -0.0585972 -0.981199
-15.7753 -13.6415 9.037 0.598663 -0.155371 0.785788
-13.9075 -10.017 7.865 0.259067 -0.965505 0.0261541
-14.7054 -10.5063 5.86097 -0.4303 -0.792922 -0.431412
-17.3923 -14.1713 9.258 0.0915104 -0.0876395 0.99194
-21.2463 -12.4145 8.2945 -0.828679 -0.207472 0.519853
-14.9621 -13.321 7.748 0.99373 -0.101835 -0.0461542
-12.376 -7.104 5.54775 0.484044 0.783913 -0.38882
-19.9814 -11.0499 6.23387 -0.420198 0.121153 -0.899308
-18.8111 -11.0901 5.96569 -0.0226724 -0.183419 -0.982773
-13.3769 -7.07369 4.50744 -0.112079 0.745032 -0.657546
-11.4478 -7.79975 5.989 0.823888 0.557988 -0.0992903
-14.445 -10.3615 6.8575 0.282855 -0.951239 0.123036
-21.6275 -12.2069 7.23287 -0.991279 -0.0642374 -0.115063
-11.812 -9.762 7.06 0.615945 -0.653441 0.440031
-21.079 -11.3485 6.5885 -0.682771 0.396006 -0.614006
-15.5191 -12.0419 7.088 0.91038 0.0224387 -0.413164
-18.6268 -14.3872 9.21212 -0.221777 -0.135436 0.965646
-21.0296 -13.5229 8.1485 -0.891521 -0.183854 0.413991
-13.6791 -9.44462 3.96638 -0.784663 -0.0162267 -0.619709
-12.8769 -10.1391 6.88319 0.131502 -0.934215 0.331585
-20.5295 -14.376 8.6625 -0.55913 -0.270747 0.783626
-10.6932 -9.33603 5.83038 0.856452 0.0908443 0.508171
-13.372 -10.6006 6.02413 -0.0596607 -0.878413 0.474163
-17.892 -15.428 9.281 0.116394 -0.190557 0.974751
-15.4785 -14.6277 7.97256 0.911759 -0.386778 0.138194
-12.2902 -7.80613 4.51762 0.383876 0.81815 -0.428101
-16.3779 -15.1609 8.73063 0.603037 -0.285722 0.744788
-15.6615 -13.451 6.55475 0.651625 -0.0982242 -0.752155
-13.6117 -11.175 4.89675 -0.696635 -0.71703 -0.0238453
-16.6131 -12.3586 6.12388 0.345698 -0.0165249 -0.9382
-20.9698 -12.8448 6.57812 -0.735286 -0.113084 -0.668256
3 48 70 39
3 39 70 66
3 70 91 66
3 91 102 69
3 102 100 116
3 95 75 73
3 75 70 44
3 46 15 37
3 15 44 20
3 20 44 48
3 20 39 28
3 50 29 39
3 13 28 29
3 39 29 28
3 50 38 29
3 61 38 69
3 106 61 88
3 61 69 88
3 106 107 105
3 103 105 130
3 130 105 119
3 107 81 105
3 81 46 79
3 46 57 79
3 37 15 14
3 7 15 20
3 2 13 8
3 42 24 18
3 12 24 34
3 34 24 64
3 45 24 61
3 24 42 61
3 82 72 61
3 61 72 45
3 82 97 72
3 103 143 146
3 130 138 143
3 143 138 156
3 156 140 133
3 140 119 133
3 133 119 110
3 110 119 84
3 85 84 56
3 57 37 25
3 56 57 40
3 35 21 9
3 14 9 21
3 0 1 7
3 1 0 4
3 4 0 5
3 0 8 3
3 0 3 5
3 8 18 3
3 3 18 12
3 16 12 23
3 16 32 30
3 45 72 74
3 74 72 96
3 74 96 101
3 101 96 117
3 142 149 129
3 142 117 103
3 134 133 113
3 133 110 113
3 110 85 87
3 87 63 83
3 63 40 35
3 35 27 36
3 65 35 59
3 36 59 35
3 10 36 27
3 10 9 4
3 17 4 5
3 17 5 11
3 11 26 17
3 11 5 16
3 16 26 11
3 41 47 26
3 68 55 71
3 71 108 68
3 94 68 108
3 71 55 51
3 51 55 30
3 30 32 51
3 71 86 108
3 71 58 86
3 86 58 64
3 101 115 89
3 152 129 149
3 141 155 124
3 155 125 124
3 112 125 134
3 112 134 113
3 90 128 104
3 112 83 104
3 90 76 60
3 65 99 60
3 99 80 111
3 99 111 120
3 120 111 135
3 59 78 80
3 111 80 78
3 78 98 111
3 53 59 36
3 54 77 53
3 78 53 77
3 77 98 78
3 52 77 54
3 77 93 98
3 43 31 17
3 68 94 67
3 92 94 123
3 108 123 94
3 115 131 141
3 114 115 141
3 131 153 141
3 128 148 137
3 128 137 124
3 148 128 154
3 128 122 154
3 154 122 144
3 144 122 120
3 122 90 120
3 135 132 151
3 118 132 111
3 118 136 132
3 118 121 136
3 121 147 136
3 121 123 139
3 139 123 145
3 136 151 132
3 70 48 44
3 91 69 66
3 61 42 38
3 82 61 106
3 97 82 106
3 97 105 103
3 105 97 106
3 119 105 79
3 119 79 84
3 79 105 81
3 57 84 79
3 37 57 46
3 14 25 37
3 12 18 24
3 49 64 24
3 49 24 45
3 103 96 72
3 103 72 97
3 103 117 96
3 57 56 84
3 35 40 21
3 14 21 25
3 4 9 1
3 5 3 16
3 12 16 3
3 89 64 49
3 89 49 74
3 45 74 49
3 89 74 101
3 60 35 65
3 17 33 36
3 17 36 10
3 4 17 10
3 31 33 17
3 112 104 125
3 125 104 124
3 124 104 128
3 76 90 104
3 76 104 83
3 60 76 35
3 35 76 63
3 63 76 83
3 90 60 99
3 120 90 99
3 53 78 59
3 67 93 77
3 67 77 52
3 92 67 94
3 114 127 109
3 109 127 108
3 108 127 123
3 64 114 109
3 86 64 109
3 108 86 109
3 115 114 89
3 89 114 64
3 114 124 137
3 114 137 127
3 127 137 145
3 127 145 123
3 145 137 148
3 67 92 93
3 70 75 100
3 100 95 116
3 100 102 91
3 100 91 70
3 100 75 95
3 46 44 15
3 38 50 66
3 66 50 39
3 48 39 20
3 106 88 116
3 102 116 88
3 102 88 69
3 73 46 81
3 95 73 81
3 95 81 116
3 116 81 107
3 116 107 106
3 44 46 73
3 44 73 75
3 7 20 6
3 6 13 2
3 13 6 20
3 13 20 28
3 22 13 29
3 22 29 19
3 22 19 8
3 8 13 22
3 18 38 42
3 18 8 19
3 18 19 38
3 38 19 29
3 130 143 103
3 138 119 140
3 138 140 156
3 138 130 119
3 110 84 85
3 25 21 57
3 40 57 21
3 15 7 14
3 9 14 1
3 7 1 14
3 8 0 2
3 6 2 0
3 0 7 6
3 12 34 23
3 23 32 16
3 32 23 34
3 142 129 117
3 146 142 103
3 85 56 87
3 63 87 56
3 40 63 56
3 9 27 35
3 10 27 9
3 55 47 41
3 41 30 55
3 55 68 47
3 41 26 16
3 41 16 30
3 62 34 58
3 62 58 71
3 62 71 51
3 32 62 51
3 62 32 34
3 58 34 64
3 129 101 117
3 101 129 126
3 101 126 115
3 126 129 152
3 83 112 113
3 83 113 87
3 113 110 87
3 80 65 59
3 80 99 65
3 31 54 33
3 54 53 33
3 33 53 36
3 54 31 52
3 47 43 26
3 47 67 43
3 43 17 26
3 67 47 68
3 131 126 150
3 131 115 126
3 126 152 150
3 153 155 141
3 128 90 122
3 135 111 132
3 135 144 120
3 111 98 118
3 98 93 118
3 118 93 92
3 118 92 121
3 92 123 121
3 124 114 141
3 43 67 52
3 43 52 31
3 66 69 38
