ply
format ascii 1.0
comment Generated by PyMesh
element vertex 146
property float x
property float y
property float z
property float nx
property float ny
property float nz
element face 267
property list uchar int vertex_indices
end_header
-20.5748 -10.6032 13.6053 0.165732 -0.814987 0.555274
-21.034 -11.12 12.8165 0.113043 -0.956829 0.267767
-21.3085 -9.72125 14.475 -0.296893 -0.396969 0.868487
-21.971 -11.1005 13.301 -0.106652 -0.920423 0.376093
-19.6565 -10.831 12.367 0.274914 -0.94072 0.198669
-22.25 -10.51 14.0815 -0.21873 -0.517828 0.82705
-19.3897 -9.711 14.9198 0.116296 -0.788879 0.603444
-21.614 -11.3695 11.8645 0.106096 -0.993403 0.0435226
-20.5565 -9.0725 15.2525 -0.414445 -0.295017 0.86093
-20.4727 -10.84 11.5573 0.178683 -0.983373 0.0324074
-22.5958 -11.0782 12.0903 -0.547987 -0.836459 -0.00682782
-23.1501 -10.4362 13.4981 -0.8196 -0.412353 0.39777
-22.5636 -9.17675 13.9983 -0.683619 0.390177 0.616787
-18.8803 -10.169 13.2294 0.33354 -0.863241 0.378902
-21.0061 -8.00712 14.7624 -0.648611 0.390745 0.653164
-22.2157 -11.2505 11.018 -0.570993 -0.788321 -0.229164
-18.7052 -8.91075 15.6088 0.310808 -0.574763 0.756998
-19.6926 -8.51519 15.6915 -0.354727 -0.0505206 0.933604
-17.9295 -10.4807 10.9862 0.203772 -0.92024 0.334119
-23.2505 -10.1637 12.119 -0.959695 -0.166601 -0.226338
-18.9158 -11.0653 10.1265 0.121158 -0.873156 0.472144
-20.1047 -10.9861 10.3837 0.0714146 -0.930488 0.359294
-17.3449 -10.0703 12.3079 0.0072831 -0.933307 0.359005
-17.514 -9.25963 14.049 0.49165 -0.685061 0.537562
-21.89 -8.36 13.2975 -0.697337 0.699089 0.158102
-20.2059 -7.42238 15.0086 -0.50206 0.590406 0.631946
-23.1583 -9.1395 12.735 -0.882032 0.469308 0.0420707
-22.468 -10.2434 10.5262 -0.807436 0.0115416 -0.589843
-18.577 -7.85475 16.1035 0.252151 0.0676973 0.965317
-20.559 -7.1895 13.942 -0.497218 0.864605 0.072329
-21.215 -11.1318 9.35975 -0.744433 -0.667498 -0.0163054
-17.4771 -8.27312 14.8329 0.768646 0.0622127 0.636642
-16.8307 -10.4169 10.779 -0.153617 -0.908316 0.389055
-22.8326 -9.38325 11.3923 -0.723974 0.485879 -0.489677
-18.2342 -11.6804 9.38488 0.0164741 -0.403704 0.914741
-21.94 -8.28475 12.0583 -0.558803 0.808481 -0.184656
-18.9241 -6.96331 15.3907 -0.0184397 0.791083 0.61143
-16.3324 -9.57938 12.9113 0.0748673 -0.400341 0.913303
-19.4322 -12.1868 9.29225 -0.212148 -0.370685 0.904205
-17.0993 -11.123 9.728 0.050641 -0.657794 0.751493
-16.241 -8.311 13.189 0.560006 -0.0170981 0.828312
-21.2008 -9.84212 9.65075 -0.859396 0.384081 -0.337521
-18.0556 -12.7589 9.22262 -0.0476964 -0.0733478 0.996165
-21.3429 -8.80112 10.9245 -0.570952 0.665772 -0.480377
-21.2681 -11.1785 7.83337 -0.94573 0.273552 -0.175396
-15.5977 -11.0153 10.756 -0.0446271 -0.998487 -0.032134
-17.718 -6.87575 14.2485 0.512979 0.736748 0.440518
-19.8096 -7.3305 12.1806 -0.422493 0.867754 -0.261729
-15.342 -10.0555 13.1505 -0.0446152 -0.133316 0.990069
-21.2463 -12.4145 8.2945 -0.828679 -0.207472 0.519853
-15.1456 -11.1446 12.3993 -0.2113 -0.771271 0.600411
-18.6612 -6.53963 13.6825 -0.000841628 0.999542 0.0302569
-16.9205 -12.4824 9.382 0.135998 -0.151947 0.978988
-18.7201 -6.78025 12.6282 -0.152706 0.974744 -0.162957
-15.7953 -11.7142 9.2675 0.362476 -0.599477 0.71361
-16.9757 -6.96663 13.2185 0.376412 0.835002 0.401355
-15.3359 -7.39187 12.6465 0.325666 0.554776 0.765614
-14.3614 -9.91488 12.9845 0.234477 -0.201325 0.951046
-21.6275 -12.2069 7.23287 -0.991279 -0.0642374 -0.115063
-21.079 -11.3485 6.5885 -0.682771 0.396006 -0.614006
-21.0296 -13.5229 8.1485 -0.891521 -0.183854 0.413991
-14.4009 -8.38313 12.5551 0.107231 0.209066 0.972005
-20.3319 -8.01456 10.5962 -0.518208 0.814055 -0.262249
-20.2418 -8.73088 8.9535 -0.578139 0.774489 -0.256755
-18.6268 -14.3872 9.21212 -0.221777 -0.135436 0.965646
-17.3923 -14.1713 9.258 0.0915104 -0.0876395 0.99194
-18.7665 -7.0945 11.2499 -0.299586 0.93472 -0.191174
-14.344 -11.6005 11.3425 0.168142 -0.957274 -0.235276
-20.5295 -14.376 8.6625 -0.55913 -0.270747 0.783626
-20.8336 -9.35913 7.769 -0.790303 0.559278 -0.250258
-13.5262 -11.3118 12.1214 0.505235 -0.737635 0.447921
-17.1421 -6.82312 12.0845 -0.152349 0.98768 0.0357603
-13.8919 -10.6025 10.1834 0.261635 -0.89178 -0.369156
-15.4423 -12.6602 8.57187 0.852243 -0.0237596 0.522606
-14.464 -7.162 12.191 0.114718 0.636867 0.762391
-15.7753 -13.6415 9.037 0.598663 -0.155371 0.785788
-19.9814 -11.0499 6.23387 -0.420198 0.121153 -0.899308
-15.0331 -10.8427 8.19519 0.794612 -0.606942 0.0145697
-16.148 -6.504 11.925 -0.00710704 0.953404 0.301612
-14.1222 -10.2362 9.119 0.317312 -0.932536 -0.172307
-20.9698 -12.8448 6.57812 -0.735286 -0.113084 -0.668256
-13.2242 -9.37725 12.7205 0.361253 -0.155347 0.919437
-21.1752 -14.5775 7.42725 -0.952801 -0.297653 -0.0597687
-19.1464 -7.52119 10.2719 -0.399648 0.857733 -0.323382
-20.5295 -15.273 8.13 -0.617464 -0.670725 0.410933
-13.02 -10.359 12.2035 0.696805 -0.463734 0.547187
-19.798 -9.5555 6.1505 -0.685014 0.268413 -0.677282
-17.892 -15.428 9.281 0.116394 -0.190557 0.974751
-20.1029 -8.894 7.0315 -0.638649 0.687559 -0.345528
-14.7009 -6.59762 11.1679 0.0296261 0.873256 0.48636
-19.0802 -8.20569 8.0365 -0.410943 0.896665 -0.164671
-13.0522 -7.41862 12.387 0.195902 0.639444 0.74346
-16.3779 -15.1609 8.73063 0.603037 -0.285722 0.744788
-14.9621 -13.321 7.748 0.99373 -0.101835 -0.0461542
-17.3175 -6.78494 10.7539 -0.388625 0.920736 -0.0348559
-12.9436 -10.2224 11.019 0.731517 -0.668141 -0.135903
-18.8111 -11.0901 5.96569 -0.0226724 -0.183419 -0.982773
-19.5457 -15.5938 8.26275 -0.595623 -0.639314 0.486324
-12.423 -8.28925 12.7095 0.46641 0.0899128 0.879987
-20.1175 -13.1535 6.00425 -0.293098 0.0207855 -0.955856
-15.9875 -6.25688 10.7812 -0.121422 0.969182 0.214344
-12.6095 -10.0452 9.3735 0.542641 -0.838511 -0.0493975
-15.5191 -12.0419 7.088 0.91038 0.0224387 -0.413164
-15.4785 -14.6277 7.97256 0.911759 -0.386778 0.138194
-17.5917 -7.18325 9.48575 -0.378216 0.888554 -0.259664
-18.2022 -7.71938 8.54775 -0.409342 0.880558 -0.238866
-13.9075 -10.017 7.865 0.259067 -0.965505 0.0261541
-20.522 -15.3763 7.039 -0.592351 -0.755004 -0.281227
-18.9745 -9.794 5.5925 -0.196269 0.14308 -0.970055
-14.445 -10.3615 6.8575 0.282855 -0.951239 0.123036
-18.546 -16.659 8.829 -0.355854 -0.558254 0.74948
-12.197 -9.42212 11.7636 0.862853 -0.415286 0.288135
-19.2903 -8.58975 6.42 -0.340881 0.769253 -0.540417
-15.515 -10.8661 6.57281 0.48398 -0.503505 -0.715714
-19.9883 -14.2528 6.0595 -0.390303 -0.208518 -0.896763
-18.0842 -8.20588 7.21425 -0.134937 0.904376 -0.404841
-13.458 -6.166 10.4875 0.45716 0.797129 0.394449
-18.3759 -12.6317 6.00986 0.0137997 -0.00136579 -0.999904
-12.7347 -6.67925 11.2995 0.542763 0.809233 0.224834
-19.2083 -16.5305 7.822 -0.776665 -0.627934 0.0499063
-11.8664 -7.89288 11.6814 0.925801 0.288131 0.244691
-15.6615 -13.451 6.55475 0.651625 -0.0982242 -0.752155
-14.301 -5.57575 9.97925 -0.0692064 0.947961 0.310774
-17.6164 -10.9056 6.06619 0.183887 -0.0585972 -0.981199
-16.33 -16.601 8.361 0.615923 -0.571743 0.541986
-12.103 -9.03475 9.50412 0.980273 -0.191873 0.0474305
-15.9945 -15.913 7.365 0.922354 -0.288572 -0.256885
-17.8595 -9.8705 5.769 0.224566 0.00574713 -0.974442
-14.7054 -10.5063 5.86097 -0.4303 -0.792922 -0.431412
-16.797 -7.092 8.42344 -0.523127 0.761681 -0.382335
-16.202 -14.757 6.7335 0.693306 -0.281304 -0.663472
-18.2376 -8.663 6.14975 0.134453 0.637763 -0.758407
-16.6131 -12.3586 6.12388 0.345698 -0.0165249 -0.9382
-16.2255 -6.05162 9.27262 -0.461001 0.876281 -0.140032
-12.506 -9.99162 7.804 0.635587 -0.747884 0.191569
-12.8769 -10.1391 6.88319 0.131502 -0.934215 0.331585
-11.9755 -8.58128 10.676 0.966685 -0.248206 -0.0625664
-19.0273 -15.927 6.49744 -0.528751 -0.455518 -0.716189
-13.372 -10.6006 6.02413 -0.0596607 -0.878413 0.474163
-15.1096 -5.77063 8.9065 -0.310933 0.949581 0.0402105
-16.3687 -9.7295 6.31975 0.0285716 0.0449732 -0.99858
-17.0509 -8.59725 6.72237 -0.122438 0.665458 -0.736325
-12.8751 -6.93699 9.90541 0.835044 0.540928 0.100493
-17.671 -17.4522 7.593 -0.0242997 -0.998533 0.0483818
-13.241 -5.649 9.247 0.614975 0.780192 0.114477
-18.546 -17.069 6.767 -0.520319 -0.750265 -0.407887
3 24 12 14
3 14 12 2
3 12 5 2
3 5 3 0
3 3 11 10
3 19 26 33
3 26 12 35
3 43 47 62
3 47 35 29
3 29 35 24
3 29 14 25
3 8 17 14
3 36 25 17
3 14 17 25
3 8 6 17
3 4 6 0
3 7 4 1
3 4 0 1
3 7 15 30
3 38 30 49
3 49 30 44
3 15 27 30
3 27 43 41
3 43 63 41
3 62 47 66
3 53 47 29
3 46 36 31
3 13 22 23
3 37 22 50
3 50 22 45
3 18 22 4
3 22 13 4
3 9 20 4
3 4 20 18
3 9 21 20
3 38 60 68
3 49 58 60
3 60 58 80
3 60 80 82
3 80 59 76
3 59 44 76
3 76 44 86
3 86 44 69
3 88 69 90
3 63 62 83
3 90 63 105
3 129 104 94
3 66 94 104
3 55 71 53
3 71 55 78
3 78 55 56
3 55 31 40
3 55 40 56
3 31 23 40
3 40 23 37
3 61 37 48
3 61 57 81
3 18 20 39
3 39 20 34
3 39 34 52
3 52 34 42
3 64 87 65
3 87 64 110
3 64 42 38
3 64 97 110
3 110 97 119
3 84 107 97
3 97 107 137
3 97 137 119
3 114 82 80
3 117 76 96
3 96 76 108
3 76 86 108
3 86 88 112
3 112 115 131
3 115 105 129
3 129 133 139
3 100 139 133
3 100 94 78
3 89 78 56
3 89 56 74
3 74 91 89
3 74 56 61
3 61 91 74
3 98 120 91
3 136 111 95
3 95 101 136
3 125 136 101
3 95 111 85
3 85 111 81
3 81 57 85
3 95 72 101
3 95 67 72
3 72 67 45
3 52 73 54
3 92 65 87
3 92 126 103
3 103 126 130
3 102 132 113
3 132 123 113
3 127 123 96
3 127 96 108
3 127 131 140
3 118 116 89
3 101 134 125
3 73 93 102
3 77 73 102
3 93 121 102
3 128 138 109
3 128 109 113
3 12 24 35
3 5 0 2
3 4 13 6
3 9 4 7
3 21 9 7
3 21 30 38
3 30 21 7
3 44 30 41
3 44 41 69
3 41 30 27
3 63 69 41
3 62 63 43
3 66 83 62
3 37 23 22
3 32 45 22
3 32 22 18
3 38 34 20
3 38 20 21
3 38 42 34
3 63 90 69
3 129 105 104
3 66 104 83
3 78 94 71
3 56 40 61
3 37 61 40
3 54 45 32
3 54 32 39
3 18 39 32
3 54 39 52
3 89 122 139
3 89 139 100
3 78 89 100
3 116 122 89
3 127 140 123
3 123 140 113
3 113 140 128
3 141 140 131
3 129 141 115
3 115 141 131
3 77 106 79
3 79 106 101
3 101 106 134
3 45 77 79
3 72 45 79
3 101 72 79
3 73 77 54
3 54 77 45
3 77 113 109
3 77 109 106
3 106 109 135
3 106 135 134
3 135 109 138
3 12 26 11
3 11 19 10
3 11 3 5
3 11 5 12
3 11 26 19
3 43 35 47
3 6 8 2
3 2 8 14
3 24 14 29
3 7 1 10
3 3 10 1
3 3 1 0
3 33 43 27
3 19 33 27
3 19 27 10
3 10 27 15
3 10 15 7
3 35 43 33
3 35 33 26
3 53 29 51
3 51 36 46
3 36 51 29
3 36 29 25
3 28 36 17
3 28 17 16
3 28 16 31
3 31 36 28
3 23 6 13
3 23 31 16
3 23 16 6
3 6 16 17
3 49 60 38
3 58 44 59
3 58 59 80
3 58 49 44
3 86 69 88
3 83 104 63
3 105 63 104
3 47 53 66
3 94 66 71
3 53 71 66
3 31 55 46
3 51 46 55
3 55 53 51
3 37 50 48
3 48 57 61
3 57 48 50
3 64 65 42
3 68 64 38
3 97 64 68
3 107 84 82
3 82 114 107
3 107 114 137
3 84 97 68
3 84 68 82
3 82 68 60
3 117 114 99
3 99 114 80
3 80 76 99
3 99 76 117
3 88 90 112
3 115 112 90
3 105 115 90
3 94 133 129
3 100 133 94
3 111 120 98
3 98 81 111
3 111 136 120
3 98 91 61
3 98 61 81
3 70 50 67
3 70 67 95
3 70 95 85
3 57 70 85
3 70 57 50
3 67 50 45
3 65 52 42
3 52 65 75
3 52 75 73
3 75 65 92
3 124 92 87
3 124 87 110
3 124 110 143
3 143 110 119
3 145 143 119
3 145 119 137
3 124 126 92
3 117 123 132
3 123 117 96
3 131 127 108
3 131 108 112
3 108 86 112
3 116 144 122
3 144 116 142
3 120 118 91
3 118 89 91
3 93 75 103
3 93 103 130
3 93 130 121
3 93 73 75
3 75 92 103
3 121 132 102
3 113 77 102
3 118 142 116
3 2 0 6
