ply
format ascii 1.0
comment Generated by PyMesh
element vertex 149
property float x
property float y
property float z
property float nx
property float ny
property float nz
element face 276
property list uchar int vertex_indices
end_header
-21.0296 -13.5229 8.1485 -0.891521 -0.183854 0.413991
-20.5295 -14.376 8.6625 -0.55913 -0.270747 0.783626
-21.2463 -12.4145 8.2945 -0.828679 -0.207472 0.519853
-21.1752 -14.5775 7.42725 -0.952801 -0.297653 -0.0597687
-21.6275 -12.2069 7.23287 -0.991279 -0.0642374 -0.115063
-20.9698 -12.8448 6.57812 -0.735286 -0.113084 -0.668256
-20.5295 -15.273 8.13 -0.617464 -0.670725 0.410933
-19.4322 -12.1868 9.29225 -0.212148 -0.370685 0.904205
-20.522 -15.3763 7.039 -0.592351 -0.755004 -0.281227
-21.2681 -11.1785 7.83337 -0.94573 0.273552 -0.175396
-19.5457 -15.5938 8.26275 -0.595623 -0.639314 0.486324
-20.1175 -13.1535 6.00425 -0.293098 0.0207855 -0.955856
-21.215 -11.1318 9.35975 -0.744433 -0.667498 -0.0163054
-21.079 -11.3485 6.5885 -0.682771 0.396006 -0.614006
-18.6268 -14.3872 9.21212 -0.221777 -0.135436 0.965646
-19.9883 -14.2528 6.0595 -0.390303 -0.208518 -0.896763
-18.2342 -11.6804 9.38488 0.0164741 -0.403704 0.914741
-19.9814 -11.0499 6.23387 -0.420198 0.121153 -0.899308
-19.2083 -16.5305 7.822 -0.776665 -0.627934 0.0499063
-18.9158 -11.0653 10.1265 0.121158 -0.873156 0.472144
-18.0556 -12.7589 9.22262 -0.0476964 -0.0733478 0.996165
-19.0273 -15.927 6.49744 -0.528751 -0.455518 -0.716189
-21.2008 -9.84212 9.65075 -0.859396 0.384081 -0.337521
-20.1047 -10.9861 10.3837 0.0714146 -0.930488 0.359294
-18.546 -16.659 8.829 -0.355854 -0.558254 0.74948
-20.8336 -9.35913 7.769 -0.790303 0.559278 -0.250258
-17.3923 -14.1713 9.258 0.0915104 -0.0876395 0.99194
-17.892 -15.428 9.281 0.116394 -0.190557 0.974751
-18.3759 -12.6317 6.00986 0.0137997 -0.00136579 -0.999904
-22.468 -10.2434 10.5262 -0.807436 0.0115416 -0.589843
-22.2157 -11.2505 11.018 -0.570993 -0.788321 -0.229164
-18.3609 -14.2872 5.9515 -0.00733023 -0.0488615 -0.998779
-17.0993 -11.123 9.728 0.050641 -0.657794 0.751493
-18.8111 -11.0901 5.96569 -0.0226724 -0.183419 -0.982773
-16.9205 -12.4824 9.382 0.135998 -0.151947 0.978988
-18.546 -17.069 6.767 -0.520319 -0.750265 -0.407887
-19.798 -9.5555 6.1505 -0.685014 0.268413 -0.677282
-17.9295 -10.4807 10.9862 0.203772 -0.92024 0.334119
-21.614 -11.3695 11.8645 0.106096 -0.993403 0.0435226
-20.4727 -10.84 11.5573 0.178683 -0.983373 0.0324074
-20.1029 -8.894 7.0315 -0.638649 0.687559 -0.345528
-18.9745 -9.794 5.5925 -0.196269 0.14308 -0.970055
-17.671 -17.4522 7.593 -0.0242997 -0.998533 0.0483818
-17.642 -15.301 5.926 0.277019 -0.12556 -0.952625
-20.2418 -8.73088 8.9535 -0.578139 0.774489 -0.256755
-17.671 -16.924 6.2925 -0.019153 -0.60768 -0.793951
-21.3429 -8.80112 10.9245 -0.570952 0.665772 -0.480377
-16.3779 -15.1609 8.73063 0.603037 -0.285722 0.744788
-22.5958 -11.0782 12.0903 -0.547987 -0.836459 -0.00682782
-22.8326 -9.38325 11.3923 -0.723974 0.485879 -0.489677
-15.7753 -13.6415 9.037 0.598663 -0.155371 0.785788
-17.024 -14.482 6.2055 0.297968 -0.0577432 -0.952828
-17.6164 -10.9056 6.06619 0.183887 -0.0585972 -0.981199
-19.6565 -10.831 12.367 0.274914 -0.94072 0.198669
-16.8307 -10.4169 10.779 -0.153617 -0.908316 0.389055
-19.2903 -8.58975 6.42 -0.340881 0.769253 -0.540417
-16.6131 -12.3586 6.12388 0.345698 -0.0165249 -0.9382
-15.7953 -11.7142 9.2675 0.362476 -0.599477 0.71361
-19.0802 -8.20569 8.0365 -0.410943 0.896665 -0.164671
-21.034 -11.12 12.8165 0.113043 -0.956829 0.267767
-23.2505 -10.1637 12.119 -0.959695 -0.166601 -0.226338
-16.33 -16.601 8.361 0.615923 -0.571743 0.541986
-17.8595 -9.8705 5.769 0.224566 0.00574713 -0.974442
-15.4423 -12.6602 8.57187 0.852243 -0.0237596 0.522606
-17.3449 -10.0703 12.3079 0.0072831 -0.933307 0.359005
-18.2376 -8.663 6.14975 0.134453 0.637763 -0.758407
-16.563 -16.835 6.796 0.653131 -0.583754 -0.48234
-20.3319 -8.01456 10.5962 -0.518208 0.814055 -0.262249
-16.202 -14.757 6.7335 0.693306 -0.281304 -0.663472
-15.4785 -14.6277 7.97256 0.911759 -0.386778 0.138194
-21.94 -8.28475 12.0583 -0.558803 0.808481 -0.184656
-21.971 -11.1005 13.301 -0.106652 -0.920423 0.376093
-23.1583 -9.1395 12.735 -0.882032 0.469308 0.0420707
-15.9945 -15.913 7.365 0.922354 -0.288572 -0.256885
-23.1501 -10.4362 13.4981 -0.8196 -0.412353 0.39777
-20.5748 -10.6032 13.6053 0.165732 -0.814987 0.555274
-18.2022 -7.71938 8.54775 -0.409342 0.880558 -0.238866
-18.8803 -10.169 13.2294 0.33354 -0.863241 0.378902
-14.9621 -13.321 7.748 0.99373 -0.101835 -0.0461542
-15.5977 -11.0153 10.756 -0.0446271 -0.998487 -0.032134
-18.0842 -8.20588 7.21425 -0.134937 0.904376 -0.404841
-19.1464 -7.52119 10.2719 -0.399648 0.857733 -0.323382
-15.6615 -13.451 6.55475 0.651625 -0.0982242 -0.752155
-15.5191 -12.0419 7.088 0.91038 0.0224387 -0.413164
-16.3687 -9.7295 6.31975 0.0285716 0.0449732 -0.99858
-15.0331 -10.8427 8.19519 0.794612 -0.606942 0.0145697
-16.3324 -9.57938 12.9113 0.0748673 -0.400341 0.913303
-19.8096 -7.3305 12.1806 -0.422493 0.867754 -0.261729
-22.25 -10.51 14.0815 -0.21873 -0.517828 0.82705
-15.515 -10.8661 6.57281 0.48398 -0.503505 -0.715714
-17.0509 -8.59725 6.72237 -0.122438 0.665458 -0.736325
-21.89 -8.36 13.2975 -0.697337 0.699089 0.158102
-17.514 -9.25963 14.049 0.49165 -0.685061 0.537562
-22.5636 -9.17675 13.9983 -0.683619 0.390177 0.616787
-17.5917 -7.18325 9.48575 -0.378216 0.888554 -0.259664
-18.7665 -7.0945 11.2499 -0.299586 0.93472 -0.191174
-21.3085 -9.72125 14.475 -0.296893 -0.396969 0.868487
-19.3897 -9.711 14.9198 0.116296 -0.788879 0.603444
-16.797 -7.092 8.42344 -0.523127 0.761681 -0.382335
-14.344 -11.6005 11.3425 0.168142 -0.957274 -0.235276
-15.342 -10.0555 13.1505 -0.0446152 -0.133316 0.990069
-15.1456 -11.1446 12.3993 -0.2113 -0.771271 0.600411
-16.241 -8.311 13.189 0.560006 -0.0170981 0.828312
-14.1222 -10.2362 9.119 0.317312 -0.932536 -0.172307
-13.9075 -10.017 7.865 0.259067 -0.965505 0.0261541
-14.7054 -10.5063 5.86097 -0.4303 -0.792922 -0.431412
-16.3965 -7.80387 7.19375 -0.64199 0.406949 -0.649801
-13.8919 -10.6025 10.1834 0.261635 -0.89178 -0.369156
-14.445 -10.3615 6.8575 0.282855 -0.951239 0.123036
-18.7201 -6.78025 12.6282 -0.152706 0.974744 -0.162957
-15.3691 -8.4265 6.08112 -0.674685 0.13659 -0.725358
-20.559 -7.1895 13.942 -0.497218 0.864605 0.072329
-17.4771 -8.27312 14.8329 0.768646 0.0622127 0.636642
-21.0061 -8.00712 14.7624 -0.648611 0.390745 0.653164
-17.3175 -6.78494 10.7539 -0.388625 0.920736 -0.0348559
-14.3614 -9.91488 12.9845 0.234477 -0.201325 0.951046
-20.5565 -9.0725 15.2525 -0.414445 -0.295017 0.86093
-18.7052 -8.91075 15.6088 0.310808 -0.574763 0.756998
-13.5262 -11.3118 12.1214 0.505235 -0.737635 0.447921
-14.4009 -8.38313 12.5551 0.107231 0.209066 0.972005
-19.6926 -8.51519 15.6915 -0.354727 -0.0505206 0.933604
-15.9235 -6.88912 6.91913 -0.76091 0.44196 -0.475066
-16.2255 -6.05162 9.27262 -0.461001 0.876281 -0.140032
-18.6612 -6.53963 13.6825 -0.000841628 0.999542 0.0302569
-14.8977 -7.449 5.739 -0.628185 0.379633 -0.679163
-15.3359 -7.39187 12.6465 0.325666 0.554776 0.765614
-13.372 -10.6006 6.02413 -0.0596607 -0.878413 0.474163
-12.9436 -10.2224 11.019 0.731517 -0.668141 -0.135903
-12.506 -9.99162 7.804 0.635587 -0.747884 0.191569
-17.1421 -6.82312 12.0845 -0.152349 0.98768 0.0357603
-12.8769 -10.1391 6.88319 0.131502 -0.934215 0.331585
-20.2059 -7.42238 15.0086 -0.50206 0.590406 0.631946
-16.9757 -6.96663 13.2185 0.376412 0.835002 0.401355
-12.6095 -10.0452 9.3735 0.542641 -0.838511 -0.0493975
-13.6117 -11.175 4.89675 -0.696635 -0.71703 -0.0238453
-15.1096 -5.77063 8.9065 -0.310933 0.949581 0.0402105
-14.4462 -9.07288 4.63263 -0.778934 -0.231027 -0.582999
-14.569 -7.8455 4.5965 -0.689979 0.36658 -0.624138
-13.02 -10.359 12.2035 0.696805 -0.463734 0.547187
-18.577 -7.85475 16.1035 0.252151 0.0676973 0.965317
-13.2242 -9.37725 12.7205 0.361253 -0.155347 0.919437
-17.718 -6.87575 14.2485 0.512979 0.736748 0.440518
-15.9875 -6.25688 10.7812 -0.121422 0.969182 0.214344
-14.932 -5.647 7.568 -0.296399 0.936559 -0.187094
-14.464 -7.162 12.191 0.114718 0.636867 0.762391
-15.0556 -5.97862 6.50075 -0.215017 0.789825 -0.574408
-16.148 -6.504 11.925 -0.00710704 0.953404 0.301612
-11.812 -9.762 7.06 0.615945 -0.653441 0.440031
-18.9241 -6.96331 15.3907 -0.0184397 0.791083 0.61143
3 91 93 113
3 113 93 96
3 93 88 96
3 88 71 75
3 71 74 48
3 60 72 49
3 72 93 70
3 46 87 67
3 87 70 111
3 111 70 91
3 111 113 131
3 116 120 113
3 148 131 120
3 113 120 131
3 116 97 120
3 53 97 75
3 38 53 59
3 53 75 59
3 38 30 12
3 7 12 2
3 2 12 9
3 30 29 12
3 29 46 22
3 46 44 22
3 67 87 95
3 109 87 111
3 141 148 112
3 77 64 92
3 86 64 101
3 101 64 79
3 37 64 53
3 64 77 53
3 39 19 53
3 53 19 37
3 39 23 19
3 7 0 1
3 2 4 0
3 0 4 5
3 0 5 3
3 5 13 17
3 13 9 17
3 17 9 36
3 36 9 25
3 40 25 58
3 44 67 81
3 58 44 76
3 98 94 114
3 95 114 94
3 132 129 109
3 129 132 146
3 146 132 125
3 132 112 102
3 132 102 125
3 112 92 102
3 102 92 86
3 119 86 100
3 119 115 140
3 37 19 32
3 32 19 16
3 32 16 34
3 34 16 20
3 14 27 26
3 27 14 24
3 14 20 7
3 14 10 24
3 24 10 18
3 6 8 10
3 10 8 21
3 10 21 18
3 15 3 5
3 21 15 31
3 21 31 43
3 28 17 33
3 33 17 41
3 17 36 41
3 36 40 55
3 55 80 65
3 80 76 98
3 98 122 135
3 121 98 143
3 135 143 98
3 142 135 122
3 142 114 146
3 144 125 119
3 140 115 138
3 127 107 133
3 127 99 107
3 107 99 79
3 34 63 57
3 47 26 27
3 47 73 69
3 69 73 68
3 73 43 68
3 68 43 51
3 51 43 31
3 51 31 28
3 83 56 89
3 56 52 89
3 62 52 33
3 62 33 41
3 110 105 84
3 62 65 84
3 110 90 106
3 121 124 106
3 63 78 83
3 85 63 83
3 78 82 83
3 105 126 108
3 105 108 89
3 126 105 134
3 105 136 134
3 136 110 137
3 147 128 130
3 93 91 70
3 88 75 96
3 53 77 97
3 39 53 38
3 23 39 38
3 23 12 7
3 12 23 38
3 9 12 22
3 9 22 25
3 22 12 29
3 44 25 22
3 67 44 46
3 95 81 67
3 86 92 64
3 54 79 64
3 54 64 37
3 7 16 19
3 7 19 23
3 7 20 16
3 44 58 25
3 98 76 94
3 95 94 81
3 146 114 129
3 125 102 119
3 86 119 102
3 57 79 54
3 57 54 32
3 37 32 54
3 57 32 34
3 106 98 121
3 62 84 52
3 52 84 89
3 89 84 105
3 90 110 84
3 90 84 65
3 106 90 98
3 98 90 80
3 80 90 65
3 110 106 124
3 137 110 124
3 85 104 103
3 103 104 133
3 133 104 128
3 79 85 103
3 107 79 103
3 133 107 103
3 63 85 57
3 57 85 79
3 85 89 108
3 85 108 104
3 104 108 130
3 104 130 128
3 130 108 126
3 93 72 74
3 74 60 48
3 74 71 88
3 74 88 93
3 74 72 60
3 46 70 87
3 97 116 96
3 96 116 113
3 91 113 111
3 38 59 48
3 71 48 59
3 71 59 75
3 49 46 29
3 60 49 29
3 60 29 48
3 48 29 30
3 48 30 38
3 70 46 49
3 70 49 72
3 109 111 123
3 123 148 141
3 148 123 111
3 148 111 131
3 139 148 120
3 139 120 117
3 139 117 112
3 112 148 139
3 92 97 77
3 92 112 117
3 92 117 97
3 97 117 120
3 2 0 7
3 4 9 13
3 4 13 5
3 4 2 9
3 36 25 40
3 81 94 44
3 76 44 94
3 87 109 95
3 114 95 129
3 109 129 95
3 112 132 141
3 123 141 132
3 132 109 123
3 86 101 100
3 100 115 119
3 115 100 101
3 14 26 20
3 1 14 7
3 10 14 1
3 8 6 3
3 3 15 8
3 8 15 21
3 6 10 1
3 6 1 3
3 3 1 0
3 28 31 15
3 28 15 11
3 11 15 5
3 5 17 11
3 11 17 28
3 40 58 55
3 80 55 58
3 76 80 58
3 114 122 98
3 142 122 114
3 118 101 99
3 118 99 127
3 118 127 138
3 115 118 138
3 118 115 101
3 99 101 79
3 26 34 20
3 34 26 50
3 34 50 63
3 50 26 47
3 73 61 66
3 61 42 66
3 73 66 43
3 61 47 27
3 61 27 24
3 61 24 42
3 66 42 45
3 43 66 45
3 45 42 35
3 45 35 21
3 43 45 21
3 42 24 18
3 35 42 18
3 35 18 21
3 61 73 47
3 28 52 56
3 52 28 33
3 65 62 41
3 65 41 55
3 41 36 55
3 145 121 143
3 145 124 121
3 78 50 69
3 78 69 68
3 78 68 82
3 78 63 50
3 50 47 69
3 51 28 56
3 82 51 56
3 51 82 68
3 82 56 83
3 105 110 136
3 89 85 83
3 96 75 97
