ply
format ascii 1.0
comment Generated by PyMesh
element vertex 163
property float x
property float y
property float z
property float nx
property float ny
property float nz
element face 302
property list uchar int vertex_indices
end_header
-21.3429 -8.80112 10.9245 -0.570952 0.665772 -0.480377
-20.3319 -8.01456 10.5962 -0.518208 0.814055 -0.262249
-21.94 -8.28475 12.0583 -0.558803 0.808481 -0.184656
-21.2008 -9.84212 9.65075 -0.859396 0.384081 -0.337521
-22.8326 -9.38325 11.3923 -0.723974 0.485879 -0.489677
-22.468 -10.2434 10.5262 -0.807436 0.0115416 -0.589843
-20.2418 -8.73088 8.9535 -0.578139 0.774489 -0.256755
-19.8096 -7.3305 12.1806 -0.422493 0.867754 -0.261729
-21.89 -8.36 13.2975 -0.697337 0.699089 0.158102
-19.1464 -7.52119 10.2719 -0.399648 0.857733 -0.323382
-23.2505 -10.1637 12.119 -0.959695 -0.166601 -0.226338
-21.215 -11.1318 9.35975 -0.744433 -0.667498 -0.0163054
-23.1583 -9.1395 12.735 -0.882032 0.469308 0.0420707
-22.2157 -11.2505 11.018 -0.570993 -0.788321 -0.229164
-18.7665 -7.0945 11.2499 -0.299586 0.93472 -0.191174
-22.5636 -9.17675 13.9983 -0.683619 0.390177 0.616787
-20.8336 -9.35913 7.769 -0.790303 0.559278 -0.250258
-22.5958 -11.0782 12.0903 -0.547987 -0.836459 -0.00682782
-18.7201 -6.78025 12.6282 -0.152706 0.974744 -0.162957
-19.0802 -8.20569 8.0365 -0.410943 0.896665 -0.164671
-21.2681 -11.1785 7.83337 -0.94573 0.273552 -0.175396
-20.559 -7.1895 13.942 -0.497218 0.864605 0.072329
-21.614 -11.3695 11.8645 0.106096 -0.993403 0.0435226
-23.1501 -10.4362 13.4981 -0.8196 -0.412353 0.39777
-21.0061 -8.00712 14.7624 -0.648611 0.390745 0.653164
-17.5917 -7.18325 9.48575 -0.378216 0.888554 -0.259664
-20.1047 -10.9861 10.3837 0.0714146 -0.930488 0.359294
-18.2022 -7.71938 8.54775 -0.409342 0.880558 -0.238866
-21.2463 -12.4145 8.2945 -0.828679 -0.207472 0.519853
-20.1029 -8.894 7.0315 -0.638649 0.687559 -0.345528
-17.3175 -6.78494 10.7539 -0.388625 0.920736 -0.0348559
-18.6612 -6.53963 13.6825 -0.000841628 0.999542 0.0302569
-22.25 -10.51 14.0815 -0.21873 -0.517828 0.82705
-21.971 -11.1005 13.301 -0.106652 -0.920423 0.376093
-19.4322 -12.1868 9.29225 -0.212148 -0.370685 0.904205
-21.3085 -9.72125 14.475 -0.296893 -0.396969 0.868487
-17.1421 -6.82312 12.0845 -0.152349 0.98768 0.0357603
-20.2059 -7.42238 15.0086 -0.50206 0.590406 0.631946
-18.0842 -8.20588 7.21425 -0.134937 0.904376 -0.404841
-21.6275 -12.2069 7.23287 -0.991279 -0.0642374 -0.115063
-21.079 -11.3485 6.5885 -0.682771 0.396006 -0.614006
-21.034 -11.12 12.8165 0.113043 -0.956829 0.267767
-20.4727 -10.84 11.5573 0.178683 -0.983373 0.0324074
-19.2903 -8.58975 6.42 -0.340881 0.769253 -0.540417
-19.798 -9.5555 6.1505 -0.685014 0.268413 -0.677282
-16.9757 -6.96663 13.2185 0.376412 0.835002 0.401355
-20.5565 -9.0725 15.2525 -0.414445 -0.295017 0.86093
-18.9158 -11.0653 10.1265 0.121158 -0.873156 0.472144
-16.797 -7.092 8.42344 -0.523127 0.761681 -0.382335
-21.0296 -13.5229 8.1485 -0.891521 -0.183854 0.413991
-19.9814 -11.0499 6.23387 -0.420198 0.121153 -0.899308
-17.718 -6.87575 14.2485 0.512979 0.736748 0.440518
-19.6926 -8.51519 15.6915 -0.354727 -0.0505206 0.933604
-16.148 -6.504 11.925 -0.00710704 0.953404 0.301612
-18.9241 -6.96331 15.3907 -0.0184397 0.791083 0.61143
-19.6565 -10.831 12.367 0.274914 -0.94072 0.198669
-15.9875 -6.25688 10.7812 -0.121422 0.969182 0.214344
-20.5748 -10.6032 13.6053 0.165732 -0.814987 0.555274
-20.9698 -12.8448 6.57812 -0.735286 -0.113084 -0.668256
-18.2376 -8.663 6.14975 0.134453 0.637763 -0.758407
-17.0509 -8.59725 6.72237 -0.122438 0.665458 -0.736325
-18.2342 -11.6804 9.38488 0.0164741 -0.403704 0.914741
-18.0556 -12.7589 9.22262 -0.0476964 -0.0733478 0.996165
-18.9745 -9.794 5.5925 -0.196269 0.14308 -0.970055
-16.2255 -6.05162 9.27262 -0.461001 0.876281 -0.140032
-20.5295 -14.376 8.6625 -0.55913 -0.270747 0.783626
-19.3897 -9.711 14.9198 0.116296 -0.788879 0.603444
-21.1752 -14.5775 7.42725 -0.952801 -0.297653 -0.0597687
-18.7052 -8.91075 15.6088 0.310808 -0.574763 0.756998
-17.9295 -10.4807 10.9862 0.203772 -0.92024 0.334119
-16.241 -8.311 13.189 0.560006 -0.0170981 0.828312
-18.8111 -11.0901 5.96569 -0.0226724 -0.183419 -0.982773
-16.3965 -7.80387 7.19375 -0.64199 0.406949 -0.649801
-18.577 -7.85475 16.1035 0.252151 0.0676973 0.965317
-20.1175 -13.1535 6.00425 -0.293098 0.0207855 -0.955856
-18.6268 -14.3872 9.21212 -0.221777 -0.135436 0.965646
-15.3359 -7.39187 12.6465 0.325666 0.554776 0.765614
-18.8803 -10.169 13.2294 0.33354 -0.863241 0.378902
-15.9235 -6.88912 6.91913 -0.76091 0.44196 -0.475066
-17.4771 -8.27312 14.8329 0.768646 0.0622127 0.636642
-17.0993 -11.123 9.728 0.050641 -0.657794 0.751493
-17.8595 -9.8705 5.769 0.224566 0.00574713 -0.974442
-14.7009 -6.59762 11.1679 0.0296261 0.873256 0.48636
-16.3687 -9.7295 6.31975 0.0285716 0.0449732 -0.99858
-16.9205 -12.4824 9.382 0.135998 -0.151947 0.978988
-20.5295 -15.273 8.13 -0.617464 -0.670725 0.410933
-15.1096 -5.77063 8.9065 -0.310933 0.949581 0.0402105
-19.9883 -14.2528 6.0595 -0.390303 -0.208518 -0.896763
-17.3923 -14.1713 9.258 0.0915104 -0.0876395 0.99194
-15.3691 -8.4265 6.08112 -0.674685 0.13659 -0.725358
-20.522 -15.3763 7.039 -0.592351 -0.755004 -0.281227
-18.3759 -12.6317 6.00986 0.0137997 -0.00136579 -0.999904
-14.932 -5.647 7.568 -0.296399 0.936559 -0.187094
-16.8307 -10.4169 10.779 -0.153617 -0.908316 0.389055
-17.6164 -10.9056 6.06619 0.183887 -0.0585972 -0.981199
-14.464 -7.162 12.191 0.114718 0.636867 0.762391
-16.3324 -9.57938 12.9113 0.0748673 -0.400341 0.913303
-19.5457 -15.5938 8.26275 -0.595623 -0.639314 0.486324
-17.3449 -10.0703 12.3079 0.0072831 -0.933307 0.359005
-17.892 -15.428 9.281 0.116394 -0.190557 0.974751
-14.4009 -8.38313 12.5551 0.107231 0.209066 0.972005
-17.514 -9.25963 14.049 0.49165 -0.685061 0.537562
-15.0556 -5.97862 6.50075 -0.215017 0.789825 -0.574408
-14.104 -5.607 8.4465 0.193419 0.970278 -0.145428
-15.7953 -11.7142 9.2675 0.362476 -0.599477 0.71361
-13.458 -6.166 10.4875 0.45716 0.797129 0.394449
-15.515 -10.8661 6.57281 0.48398 -0.503505 -0.715714
-14.8977 -7.449 5.739 -0.628185 0.379633 -0.679163
-14.301 -5.57575 9.97925 -0.0692064 0.947961 0.310774
-15.7753 -13.6415 9.037 0.598663 -0.155371 0.785788
-15.4423 -12.6602 8.57187 0.852243 -0.0237596 0.522606
-15.342 -10.0555 13.1505 -0.0446152 -0.133316 0.990069
-19.2083 -16.5305 7.822 -0.776665 -0.627934 0.0499063
-12.7347 -6.67925 11.2995 0.542763 0.809233 0.224834
-14.7054 -10.5063 5.86097 -0.4303 -0.792922 -0.431412
-16.3779 -15.1609 8.73063 0.603037 -0.285722 0.744788
-15.5977 -11.0153 10.756 -0.0446271 -0.998487 -0.032134
-18.546 -16.659 8.829 -0.355854 -0.558254 0.74948
-18.3609 -14.2872 5.9515 -0.00733023 -0.0488615 -0.998779
-13.0522 -7.41862 12.387 0.195902 0.639444 0.74346
-19.0273 -15.927 6.49744 -0.528751 -0.455518 -0.716189
-14.569 -7.8455 4.5965 -0.689979 0.36658 -0.624138
-14.4462 -9.07288 4.63263 -0.778934 -0.231027 -0.582999
-13.272 -6.136 7.7405 0.294234 0.941491 -0.164379
-16.6131 -12.3586 6.12388 0.345698 -0.0165249 -0.9382
-12.8751 -6.93699 9.90541 0.835044 0.540928 0.100493
-13.241 -5.649 9.247 0.614975 0.780192 0.114477
-13.2242 -9.37725 12.7205 0.361253 -0.155347 0.919437
-14.3614 -9.91488 12.9845 0.234477 -0.201325 0.951046
-14.445 -10.3615 6.8575 0.282855 -0.951239 0.123036
-13.6648 -6.5765 6.081 0.0196493 0.899341 -0.436807
-15.5191 -12.0419 7.088 0.91038 0.0224387 -0.413164
-15.1456 -11.1446 12.3993 -0.2113 -0.771271 0.600411
-17.024 -14.482 6.2055 0.297968 -0.0577432 -0.952828
-14.9621 -13.321 7.748 0.99373 -0.101835 -0.0461542
-15.0331 -10.8427 8.19519 0.794612 -0.606942 0.0145697
-12.423 -8.28925 12.7095 0.46641 0.0899128 0.879987
-12.6625 -6.508 8.608 0.680533 0.704461 0.201519
-16.33 -16.601 8.361 0.615923 -0.571743 0.541986
-15.4785 -14.6277 7.97256 0.911759 -0.386778 0.138194
-17.642 -15.301 5.926 0.277019 -0.12556 -0.952625
-13.372 -10.6006 6.02413 -0.0596607 -0.878413 0.474163
-18.546 -17.069 6.767 -0.520319 -0.750265 -0.407887
-13.6791 -9.44462 3.96638 -0.784663 -0.0162267 -0.619709
-12.2273 -6.29025 7.618 0.471934 0.879836 0.0562706
-14.344 -11.6005 11.3425 0.168142 -0.957274 -0.235276
-11.8664 -7.89288 11.6814 0.925801 0.288131 0.244691
-13.6117 -11.175 4.89675 -0.696635 -0.71703 -0.0238453
-15.9945 -15.913 7.365 0.922354 -0.288572 -0.256885
-12.3398 -7.645 9.37088 0.924471 0.364109 0.113044
-13.3769 -7.07369 4.50744 -0.112079 0.745032 -0.657546
-17.671 -17.4522 7.593 -0.0242997 -0.998533 0.0483818
-13.02 -10.359 12.2035 0.696805 -0.463734 0.547187
-13.8919 -10.6025 10.1834 0.261635 -0.89178 -0.369156
-15.6615 -13.451 6.55475 0.651625 -0.0982242 -0.752155
-16.202 -14.757 6.7335 0.693306 -0.281304 -0.663472
-17.671 -16.924 6.2925 -0.019153 -0.60768 -0.793951
-13.9075 -10.017 7.865 0.259067 -0.965505 0.0261541
-12.197 -9.42212 11.7636 0.862853 -0.415286 0.288135
-11.8705 -7.17175 8.259 0.864563 0.350963 0.359662
-12.376 -7.104 5.54775 0.484044 0.783913 -0.38882
-12.8769 -10.1391 6.88319 0.131502 -0.934215 0.331585
-14.1222 -10.2362 9.119 0.317312 -0.932536 -0.172307
3 8 15 24
3 24 15 35
3 15 32 35
3 32 33 57
3 33 23 17
3 10 12 4
3 12 15 2
3 0 7 1
3 7 2 21
3 21 2 8
3 21 24 37
3 46 52 24
3 54 37 52
3 24 52 37
3 46 66 52
3 55 66 57
3 22 55 41
3 55 57 41
3 22 13 11
3 34 11 28
3 28 11 20
3 13 5 11
3 5 0 3
3 0 6 3
3 1 7 14
3 18 7 21
3 51 54 79
3 77 98 101
3 96 98 132
3 132 98 116
3 69 98 55
3 98 77 55
3 42 47 55
3 55 47 69
3 42 26 47
3 34 49 65
3 28 39 49
3 49 39 58
3 49 58 67
3 58 40 50
3 40 20 50
3 50 20 44
3 44 20 16
3 29 16 19
3 6 1 9
3 19 6 27
3 48 25 30
3 14 30 25
3 45 36 18
3 36 45 53
3 53 45 76
3 45 79 70
3 45 70 76
3 79 101 70
3 70 101 96
3 100 96 111
3 100 128 127
3 69 47 80
3 80 47 61
3 80 61 84
3 84 61 62
3 75 99 88
3 99 75 117
3 75 62 34
3 75 97 117
3 117 97 112
3 85 90 97
3 97 90 120
3 97 120 112
3 87 67 58
3 120 87 118
3 120 118 140
3 91 50 71
3 71 50 63
3 50 44 63
3 44 29 43
3 43 38 59
3 38 27 48
3 48 64 86
3 78 48 92
3 86 92 48
3 56 86 64
3 56 30 53
3 82 53 76
3 82 76 95
3 95 119 82
3 95 76 100
3 100 119 95
3 136 146 119
3 152 158 127
3 127 128 152
3 153 145 116
3 84 110 104
3 115 88 99
3 115 148 139
3 139 148 155
3 148 140 155
3 155 140 133
3 133 140 118
3 133 118 91
3 131 124 106
3 124 94 106
3 81 94 71
3 81 71 63
3 89 114 83
3 81 59 83
3 89 60 72
3 78 107 72
3 107 102 130
3 107 130 121
3 121 130 150
3 92 123 102
3 130 102 123
3 123 144 130
3 103 92 86
3 126 137 103
3 123 103 137
3 137 144 123
3 125 137 126
3 137 159 144
3 113 105 82
3 110 134 131
3 135 110 131
3 134 154 131
3 114 141 129
3 114 129 106
3 141 114 147
3 114 122 147
3 147 122 143
3 143 122 121
3 122 89 121
3 15 8 2
3 32 57 35
3 55 77 66
3 42 55 22
3 26 42 22
3 26 11 34
3 11 26 22
3 20 11 3
3 20 3 16
3 3 11 5
3 6 16 3
3 1 6 0
3 14 9 1
3 96 101 98
3 93 116 98
3 93 98 69
3 34 61 47
3 34 47 26
3 34 62 61
3 6 19 16
3 48 27 25
3 14 25 9
3 53 30 36
3 76 70 100
3 96 100 70
3 104 116 93
3 104 93 80
3 69 80 93
3 104 80 84
3 72 48 78
3 82 108 86
3 82 86 56
3 53 82 56
3 105 108 82
3 81 83 94
3 94 83 106
3 106 83 114
3 60 89 83
3 60 83 59
3 72 60 48
3 48 60 38
3 38 60 59
3 89 72 107
3 121 89 107
3 103 123 92
3 149 159 137
3 149 137 125
3 135 157 162
3 116 135 162
3 153 116 162
3 110 135 104
3 104 135 116
3 135 106 129
3 135 129 157
3 157 129 161
3 161 129 141
3 15 12 23
3 23 10 17
3 23 33 32
3 23 32 15
3 23 12 10
3 0 2 7
3 66 46 35
3 35 46 24
3 8 24 21
3 22 41 17
3 33 17 41
3 33 41 57
3 4 0 5
3 10 4 5
3 10 5 17
3 17 5 13
3 17 13 22
3 2 0 4
3 2 4 12
3 18 21 31
3 31 54 51
3 54 31 21
3 54 21 37
3 73 54 52
3 73 52 68
3 73 68 79
3 79 54 73
3 101 66 77
3 101 79 68
3 101 68 66
3 66 68 52
3 28 49 34
3 39 20 40
3 39 40 58
3 39 28 20
3 44 16 29
3 9 25 6
3 27 6 25
3 7 18 14
3 30 14 36
3 18 36 14
3 79 45 51
3 31 51 45
3 45 18 31
3 96 132 111
3 111 128 100
3 128 111 132
3 75 88 62
3 65 75 34
3 97 75 65
3 90 85 67
3 67 87 90
3 90 87 120
3 85 97 65
3 85 65 67
3 67 65 49
3 91 118 87
3 91 87 74
3 74 87 58
3 58 50 74
3 74 50 91
3 29 19 43
3 38 43 19
3 27 38 19
3 30 64 48
3 56 64 30
3 158 146 136
3 136 127 158
3 136 119 100
3 136 100 127
3 145 132 116
3 88 84 62
3 84 88 109
3 84 109 110
3 109 88 115
3 138 115 99
3 138 99 117
3 138 117 151
3 156 151 142
3 156 142 120
3 140 156 120
3 151 117 112
3 142 151 112
3 142 112 120
3 138 148 115
3 91 94 124
3 94 91 71
3 59 81 63
3 59 63 43
3 63 44 43
3 102 78 92
3 102 107 78
3 105 126 108
3 126 103 108
3 108 103 86
3 126 105 125
3 146 113 119
3 146 149 113
3 113 82 119
3 134 109 139
3 134 139 155
3 134 155 154
3 134 110 109
3 109 115 139
3 133 91 124
3 154 133 124
3 133 154 155
3 154 124 131
3 114 89 122
3 150 130 160
3 150 143 121
3 106 135 131
3 113 149 125
3 113 125 105
3 35 57 66
