ply
format ascii 1.0
comment Generated by PyMesh
element vertex 154
property float x
property float y
property float z
property float nx
property float ny
property float nz
element face 275
property list uchar int vertex_indices
end_header
-13.6791 -9.44462 3.96638 -0.784663 -0.0162267 -0.619709
-14.4462 -9.07288 4.63263 -0.778934 -0.231027 -0.582999
-13.316 -8.237 3.639 -0.437458 0.564787 -0.699748
-13.0129 -10.0099 2.87462 -0.573655 -0.0963802 -0.813407
-13.2327 -11.0689 3.64887 -0.603856 -0.520526 -0.603664
-12.649 -8.50275 2.91175 -0.315555 0.609038 -0.727666
-14.569 -7.8455 4.5965 -0.689979 0.36658 -0.624138
-13.6117 -11.175 4.89675 -0.696635 -0.71703 -0.0238453
-13.3769 -7.07369 4.50744 -0.112079 0.745032 -0.657546
-11.8895 -10.1025 2.57025 0.0482922 -0.387864 -0.920451
-12.2902 -7.80613 4.51762 0.383876 0.81815 -0.428101
-11.8837 -9.04 2.4785 0.153279 0.291459 -0.944223
-15.3691 -8.4265 6.08112 -0.674685 0.13659 -0.725358
-12.859 -11.912 4.451 -0.309202 -0.947626 -0.0799973
-14.7054 -10.5063 5.86097 -0.4303 -0.792922 -0.431412
-11.9443 -11.6205 3.769 0.0721648 -0.886644 -0.456788
-14.8977 -7.449 5.739 -0.628185 0.379633 -0.679163
-11.257 -8.62237 3.36025 0.542133 0.720849 -0.431819
-13.372 -10.6006 6.02413 -0.0596607 -0.878413 0.474163
-12.0107 -11.6585 5.02125 0.0771251 -0.882121 0.464665
-12.376 -7.104 5.54775 0.484044 0.783913 -0.38882
-14.445 -10.3615 6.8575 0.282855 -0.951239 0.123036
-10.5933 -9.69675 3.23019 0.696395 0.171832 -0.696784
-13.6648 -6.5765 6.081 0.0196493 0.899341 -0.436807
-15.515 -10.8661 6.57281 0.48398 -0.503505 -0.715714
-10.9235 -8.4425 4.6665 0.712314 0.697913 -0.0743393
-10.8845 -11.1531 3.41825 0.454185 -0.617366 -0.64232
-12.8769 -10.1391 6.88319 0.131502 -0.934215 0.331585
-11.4478 -7.79975 5.989 0.823888 0.557988 -0.0992903
-10.8741 -11.4235 4.4755 0.475498 -0.856857 0.199244
-16.3965 -7.80387 7.19375 -0.64199 0.406949 -0.649801
-16.3687 -9.7295 6.31975 0.0285716 0.0449732 -0.99858
-17.0509 -8.59725 6.72237 -0.122438 0.665458 -0.736325
-15.9235 -6.88912 6.91913 -0.76091 0.44196 -0.475066
-15.0556 -5.97862 6.50075 -0.215017 0.789825 -0.574408
-11.751 -10.7425 5.8105 0.396025 -0.647829 0.650755
-10.0812 -9.64756 4.613 0.930022 0.363453 0.0544062
-13.9075 -10.017 7.865 0.259067 -0.965505 0.0261541
-12.506 -9.99162 7.804 0.635587 -0.747884 0.191569
-11.6785 -6.84125 6.825 0.838956 0.538302 -0.0799012
-15.5191 -12.0419 7.088 0.91038 0.0224387 -0.413164
-9.833 -10.511 4.03075 0.936734 -0.324897 -0.130271
-11.812 -9.762 7.06 0.615945 -0.653441 0.440031
-15.0331 -10.8427 8.19519 0.794612 -0.606942 0.0145697
-10.49 -10.6082 5.22475 0.703015 -0.398245 0.589212
-10.6932 -9.33603 5.83038 0.856452 0.0908443 0.508171
-11.4354 -8.68175 7.05188 0.906893 -0.122837 0.403059
-13.272 -6.136 7.7405 0.294234 0.941491 -0.164379
-18.0842 -8.20588 7.21425 -0.134937 0.904376 -0.404841
-14.932 -5.647 7.568 -0.296399 0.936559 -0.187094
-16.6131 -12.3586 6.12388 0.345698 -0.0165249 -0.9382
-16.797 -7.092 8.42344 -0.523127 0.761681 -0.382335
-18.2376 -8.663 6.14975 0.134453 0.637763 -0.758407
-17.8595 -9.8705 5.769 0.224566 0.00574713 -0.974442
-12.2273 -6.29025 7.618 0.471934 0.879836 0.0562706
-17.6164 -10.9056 6.06619 0.183887 -0.0585972 -0.981199
-14.1222 -10.2362 9.119 0.317312 -0.932536 -0.172307
-11.8705 -7.17175 8.259 0.864563 0.350963 0.359662
-15.6615 -13.451 6.55475 0.651625 -0.0982242 -0.752155
-12.6095 -10.0452 9.3735 0.542641 -0.838511 -0.0493975
-14.9621 -13.321 7.748 0.99373 -0.101835 -0.0461542
-12.6625 -6.508 8.608 0.680533 0.704461 0.201519
-15.4423 -12.6602 8.57187 0.852243 -0.0237596 0.522606
-14.104 -5.607 8.4465 0.193419 0.970278 -0.145428
-19.2903 -8.58975 6.42 -0.340881 0.769253 -0.540417
-15.7953 -11.7142 9.2675 0.362476 -0.599477 0.71361
-11.8993 -8.36287 8.442 0.964895 -0.0701074 0.253104
-19.0802 -8.20569 8.0365 -0.410943 0.896665 -0.164671
-18.9745 -9.794 5.5925 -0.196269 0.14308 -0.970055
-15.1096 -5.77063 8.9065 -0.310933 0.949581 0.0402105
-12.103 -9.03475 9.50412 0.980273 -0.191873 0.0474305
-18.2022 -7.71938 8.54775 -0.409342 0.880558 -0.238866
-17.5917 -7.18325 9.48575 -0.378216 0.888554 -0.259664
-16.2255 -6.05162 9.27262 -0.461001 0.876281 -0.140032
-18.8111 -11.0901 5.96569 -0.0226724 -0.183419 -0.982773
-13.8919 -10.6025 10.1834 0.261635 -0.89178 -0.369156
-18.3759 -12.6317 6.00986 0.0137997 -0.00136579 -0.999904
-15.7753 -13.6415 9.037 0.598663 -0.155371 0.785788
-12.3398 -7.645 9.37088 0.924471 0.364109 0.113044
-13.241 -5.649 9.247 0.614975 0.780192 0.114477
-15.5977 -11.0153 10.756 -0.0446271 -0.998487 -0.032134
-17.024 -14.482 6.2055 0.297968 -0.0577432 -0.952828
-20.1029 -8.894 7.0315 -0.638649 0.687559 -0.345528
-19.798 -9.5555 6.1505 -0.685014 0.268413 -0.677282
-16.202 -14.757 6.7335 0.693306 -0.281304 -0.663472
-12.8751 -6.93699 9.90541 0.835044 0.540928 0.100493
-15.4785 -14.6277 7.97256 0.911759 -0.386778 0.138194
-17.3175 -6.78494 10.7539 -0.388625 0.920736 -0.0348559
-16.9205 -12.4824 9.382 0.135998 -0.151947 0.978988
-11.9755 -8.58128 10.676 0.966685 -0.248206 -0.0625664
-14.301 -5.57575 9.97925 -0.0692064 0.947961 0.310774
-12.9436 -10.2224 11.019 0.731517 -0.668141 -0.135903
-17.0993 -11.123 9.728 0.050641 -0.657794 0.751493
-19.9814 -11.0499 6.23387 -0.420198 0.121153 -0.899308
-20.2418 -8.73088 8.9535 -0.578139 0.774489 -0.256755
-15.9875 -6.25688 10.7812 -0.121422 0.969182 0.214344
-19.1464 -7.52119 10.2719 -0.399648 0.857733 -0.323382
-14.344 -11.6005 11.3425 0.168142 -0.957274 -0.235276
-17.642 -15.301 5.926 0.277019 -0.12556 -0.952625
-20.8336 -9.35913 7.769 -0.790303 0.559278 -0.250258
-16.8307 -10.4169 10.779 -0.153617 -0.908316 0.389055
-18.3609 -14.2872 5.9515 -0.00733023 -0.0488615 -0.998779
-18.7665 -7.0945 11.2499 -0.299586 0.93472 -0.191174
-13.458 -6.166 10.4875 0.45716 0.797129 0.394449
-20.1175 -13.1535 6.00425 -0.293098 0.0207855 -0.955856
-16.3779 -15.1609 8.73063 0.603037 -0.285722 0.744788
-15.9945 -15.913 7.365 0.922354 -0.288572 -0.256885
-18.0556 -12.7589 9.22262 -0.0476964 -0.0733478 0.996165
-14.7009 -6.59762 11.1679 0.0296261 0.873256 0.48636
-12.7347 -6.67925 11.2995 0.542763 0.809233 0.224834
-17.1421 -6.82312 12.0845 -0.152349 0.98768 0.0357603
-13.02 -10.359 12.2035 0.696805 -0.463734 0.547187
-11.8664 -7.89288 11.6814 0.925801 0.288131 0.244691
-17.3923 -14.1713 9.258 0.0915104 -0.0876395 0.99194
-21.079 -11.3485 6.5885 -0.682771 0.396006 -0.614006
-15.1456 -11.1446 12.3993 -0.2113 -0.771271 0.600411
-12.197 -9.42212 11.7636 0.862853 -0.415286 0.288135
-18.2342 -11.6804 9.38488 0.0164741 -0.403704 0.914741
-19.9883 -14.2528 6.0595 -0.390303 -0.208518 -0.896763
-16.148 -6.504 11.925 -0.00710704 0.953404 0.301612
-13.5262 -11.3118 12.1214 0.505235 -0.737635 0.447921
-17.9295 -10.4807 10.9862 0.203772 -0.92024 0.334119
-21.2008 -9.84212 9.65075 -0.859396 0.384081 -0.337521
-20.3319 -8.01456 10.5962 -0.518208 0.814055 -0.262249
-18.9158 -11.0653 10.1265 0.121158 -0.873156 0.472144
-20.9698 -12.8448 6.57812 -0.735286 -0.113084 -0.668256
-17.3449 -10.0703 12.3079 0.0072831 -0.933307 0.359005
-21.2681 -11.1785 7.83337 -0.94573 0.273552 -0.175396
-19.0273 -15.927 6.49744 -0.528751 -0.455518 -0.716189
-18.7201 -6.78025 12.6282 -0.152706 0.974744 -0.162957
-19.8096 -7.3305 12.1806 -0.422493 0.867754 -0.261729
-16.563 -16.835 6.796 0.653131 -0.583754 -0.48234
-17.671 -16.924 6.2925 -0.019153 -0.60768 -0.793951
-16.33 -16.601 8.361 0.615923 -0.571743 0.541986
-16.9757 -6.96663 13.2185 0.376412 0.835002 0.401355
-13.2242 -9.37725 12.7205 0.361253 -0.155347 0.919437
-14.464 -7.162 12.191 0.114718 0.636867 0.762391
-21.3429 -8.80112 10.9245 -0.570952 0.665772 -0.480377
-12.423 -8.28925 12.7095 0.46641 0.0899128 0.879987
-21.6275 -12.2069 7.23287 -0.991279 -0.0642374 -0.115063
-18.6268 -14.3872 9.21212 -0.221777 -0.135436 0.965646
-13.0522 -7.41862 12.387 0.195902 0.639444 0.74346
-19.4322 -12.1868 9.29225 -0.212148 -0.370685 0.904205
-17.892 -15.428 9.281 0.116394 -0.190557 0.974751
-15.342 -10.0555 13.1505 -0.0446152 -0.133316 0.990069
-14.3614 -9.91488 12.9845 0.234477 -0.201325 0.951046
-15.3359 -7.39187 12.6465 0.325666 0.554776 0.765614
-20.522 -15.3763 7.039 -0.592351 -0.755004 -0.281227
-20.1047 -10.9861 10.3837 0.0714146 -0.930488 0.359294
-21.215 -11.1318 9.35975 -0.744433 -0.667498 -0.0163054
-18.546 -17.069 6.767 -0.520319 -0.750265 -0.407887
-16.3324 -9.57938 12.9113 0.0748673 -0.400341 0.913303
-21.1752 -14.5775 7.42725 -0.952801 -0.297653 -0.0597687
-18.6612 -6.53963 13.6825 -0.000841628 0.999542 0.0302569
3 137 130 123
3 137 94 122
3 123 130 102
3 151 126 115
3 115 126 80
3 125 114 93
3 114 127 93
3 93 127 83
3 83 127 99
3 82 99 67
3 94 123 96
3 67 94 71
3 51 72 87
3 102 87 72
3 134 110 129
3 110 134 119
3 119 134 146
3 121 124 92
3 92 124 117
3 92 117 88
3 88 117 107
3 140 143 113
3 140 107 142
3 118 152 125
3 128 118 101
3 128 101 98
3 76 93 74
3 74 93 68
3 93 83 68
3 83 82 64
3 64 48 52
3 48 71 51
3 51 73 69
3 33 51 49
3 69 49 51
3 95 69 73
3 95 87 119
3 108 119 146
3 108 146 136
3 136 141 108
3 138 112 141
3 89 116 91
3 91 59 89
3 70 89 59
3 91 116 111
3 111 116 135
3 135 145 111
3 91 75 59
3 91 97 75
3 75 97 80
3 88 62 65
3 105 113 143
3 105 106 86
3 86 106 84
3 106 98 84
3 84 98 81
3 81 98 101
3 81 101 76
3 40 50 24
3 50 55 24
3 53 55 74
3 53 74 68
3 12 14 31
3 53 52 31
3 12 32 30
3 33 16 30
3 16 34 23
3 16 23 6
3 6 23 8
3 49 47 34
3 23 34 47
3 47 54 23
3 63 49 69
3 79 61 63
3 47 63 61
3 61 54 47
3 85 61 79
3 61 57 54
3 109 103 108
3 89 70 78
3 66 70 38
3 59 38 70
3 62 60 40
3 43 62 40
3 60 58 40
3 14 18 21
3 14 21 24
3 19 18 7
3 18 14 7
3 14 1 7
3 7 1 0
3 7 0 4
3 0 1 6
3 1 12 6
3 0 8 2
3 0 2 5
3 2 8 10
3 2 10 5
3 8 20 10
3 39 20 23
3 39 28 20
3 39 46 28
3 46 45 28
3 46 38 42
3 45 46 35
3 42 35 46
3 42 38 27
3 27 35 42
3 44 45 35
3 35 29 44
3 45 36 25
3 36 45 44
3 28 10 20
3 17 22 11
3 22 9 11
3 148 149 142
3 127 149 122
3 127 122 99
3 94 99 122
3 123 94 137
3 102 96 123
3 100 80 126
3 100 126 121
3 142 117 124
3 142 124 148
3 142 107 117
3 94 67 99
3 51 71 72
3 102 72 96
3 119 87 110
3 65 80 100
3 65 100 92
3 121 92 100
3 65 92 88
3 30 51 33
3 108 90 69
3 108 69 95
3 119 108 95
3 103 90 108
3 53 31 55
3 55 31 24
3 24 31 14
3 32 12 31
3 32 31 52
3 30 32 51
3 51 32 48
3 48 32 52
3 12 30 16
3 6 12 16
3 63 47 49
3 78 57 61
3 78 61 85
3 66 78 70
3 43 37 56
3 56 37 59
3 59 37 38
3 80 43 56
3 75 80 56
3 59 75 56
3 62 43 65
3 65 43 80
3 43 24 21
3 43 21 37
3 37 21 27
3 37 27 38
3 27 21 18
3 78 66 57
3 19 35 18
3 27 18 35
3 139 127 114
3 139 114 125
3 83 99 82
3 96 72 94
3 71 94 72
3 130 129 102
3 87 102 110
3 129 110 102
3 134 129 153
3 151 115 144
3 145 144 115
3 140 113 107
3 152 118 147
3 147 118 128
3 76 101 118
3 76 118 104
3 104 118 125
3 125 93 104
3 104 93 76
3 82 67 64
3 48 64 67
3 71 48 67
3 87 73 51
3 95 73 87
3 116 112 138
3 138 135 116
3 116 89 112
3 120 115 97
3 120 97 91
3 120 91 111
3 145 120 111
3 120 145 115
3 97 115 80
3 113 88 107
3 88 113 77
3 88 77 62
3 77 113 105
3 106 133 131
3 106 131 98
3 133 105 143
3 98 131 132
3 132 150 128
3 98 132 128
3 133 106 105
3 76 55 50
3 55 76 74
3 52 53 68
3 52 68 64
3 68 83 64
3 34 33 49
3 34 16 33
3 103 79 90
3 79 63 90
3 90 63 69
3 79 103 85
3 112 109 141
3 112 78 109
3 109 108 141
3 78 112 89
3 60 77 86
3 60 86 84
3 60 84 58
3 60 62 77
3 77 105 86
3 81 76 50
3 58 81 50
3 81 58 84
3 58 50 40
3 14 12 1
3 8 23 20
3 8 0 6
3 23 54 39
3 54 57 39
3 39 57 66
3 39 66 46
3 66 38 46
3 24 43 40
3 4 15 13
3 13 15 19
3 19 7 13
3 13 7 4
3 0 3 4
3 4 3 9
3 15 4 9
3 15 9 26
3 15 26 29
3 15 29 19
3 19 29 35
3 26 9 22
3 22 17 36
3 36 17 25
3 25 17 10
3 17 11 5
3 11 3 5
3 5 10 17
3 11 9 3
3 0 5 3
3 10 28 25
3 25 28 45
3 41 29 26
3 41 26 22
3 41 22 36
3 41 36 44
3 41 44 29
3 109 78 85
3 109 85 103
