ply
format ascii 1.0
comment Generated by PyMesh
element vertex 187
property float x
property float y
property float z
property float nx
property float ny
property float nz
element face 358
property list uchar int vertex_indices
end_header
-15.5191 -12.0419 7.088 0.91038 0.0224387 -0.413164
-15.515 -10.8661 6.57281 0.48398 -0.503505 -0.715714
-16.6131 -12.3586 6.12388 0.345698 -0.0165249 -0.9382
-15.6615 -13.451 6.55475 0.651625 -0.0982242 -0.752155
-14.9621 -13.321 7.748 0.99373 -0.101835 -0.0461542
-15.4423 -12.6602 8.57187 0.852243 -0.0237596 0.522606
-15.0331 -10.8427 8.19519 0.794612 -0.606942 0.0145697
-14.7054 -10.5063 5.86097 -0.4303 -0.792922 -0.431412
-14.445 -10.3615 6.8575 0.282855 -0.951239 0.123036
-16.3687 -9.7295 6.31975 0.0285716 0.0449732 -0.99858
-15.7753 -13.6415 9.037 0.598663 -0.155371 0.785788
-15.7953 -11.7142 9.2675 0.362476 -0.599477 0.71361
-16.202 -14.757 6.7335 0.693306 -0.281304 -0.663472
-15.4785 -14.6277 7.97256 0.911759 -0.386778 0.138194
-14.1222 -10.2362 9.119 0.317312 -0.932536 -0.172307
-13.9075 -10.017 7.865 0.259067 -0.965505 0.0261541
-17.024 -14.482 6.2055 0.297968 -0.0577432 -0.952828
-17.6164 -10.9056 6.06619 0.183887 -0.0585972 -0.981199
-18.3759 -12.6317 6.00986 0.0137997 -0.00136579 -0.999904
-16.9205 -12.4824 9.382 0.135998 -0.151947 0.978988
-13.372 -10.6006 6.02413 -0.0596607 -0.878413 0.474163
-13.6117 -11.175 4.89675 -0.696635 -0.71703 -0.0238453
-12.8769 -10.1391 6.88319 0.131502 -0.934215 0.331585
-17.0509 -8.59725 6.72237 -0.122438 0.665458 -0.736325
-16.3779 -15.1609 8.73063 0.603037 -0.285722 0.744788
-15.9945 -15.913 7.365 0.922354 -0.288572 -0.256885
-13.8919 -10.6025 10.1834 0.261635 -0.89178 -0.369156
-17.642 -15.301 5.926 0.277019 -0.12556 -0.952625
-17.8595 -9.8705 5.769 0.224566 0.00574713 -0.974442
-14.4462 -9.07288 4.63263 -0.778934 -0.231027 -0.582999
-15.5977 -11.0153 10.756 -0.0446271 -0.998487 -0.032134
-17.0993 -11.123 9.728 0.050641 -0.657794 0.751493
-15.3691 -8.4265 6.08112 -0.674685 0.13659 -0.725358
-17.3923 -14.1713 9.258 0.0915104 -0.0876395 0.99194
-18.8111 -11.0901 5.96569 -0.0226724 -0.183419 -0.982773
-18.0556 -12.7589 9.22262 -0.0476964 -0.0733478 0.996165
-12.506 -9.99162 7.804 0.635587 -0.747884 0.191569
-18.3609 -14.2872 5.9515 -0.00733023 -0.0488615 -0.998779
-12.6095 -10.0452 9.3735 0.542641 -0.838511 -0.0493975
-18.2342 -11.6804 9.38488 0.0164741 -0.403704 0.914741
-18.2376 -8.663 6.14975 0.134453 0.637763 -0.758407
-16.8307 -10.4169 10.779 -0.153617 -0.908316 0.389055
-20.1175 -13.1535 6.00425 -0.293098 0.0207855 -0.955856
-12.859 -11.912 4.451 -0.309202 -0.947626 -0.0799973
-11.812 -9.762 7.06 0.615945 -0.653441 0.440031
-16.3965 -7.80387 7.19375 -0.64199 0.406949 -0.649801
-18.0842 -8.20588 7.21425 -0.134937 0.904376 -0.404841
-13.2327 -11.0689 3.64887 -0.603856 -0.520526 -0.603664
-13.6791 -9.44462 3.96638 -0.784663 -0.0162267 -0.619709
-11.751 -10.7425 5.8105 0.396025 -0.647829 0.650755
-18.9745 -9.794 5.5925 -0.196269 0.14308 -0.970055
-16.563 -16.835 6.796 0.653131 -0.583754 -0.48234
-14.8977 -7.449 5.739 -0.628185 0.379633 -0.679163
-16.33 -16.601 8.361 0.615923 -0.571743 0.541986
-19.9814 -11.0499 6.23387 -0.420198 0.121153 -0.899308
-14.569 -7.8455 4.5965 -0.689979 0.36658 -0.624138
-19.9883 -14.2528 6.0595 -0.390303 -0.208518 -0.896763
-12.9436 -10.2224 11.019 0.731517 -0.668141 -0.135903
-12.0107 -11.6585 5.02125 0.0771251 -0.882121 0.464665
-18.6268 -14.3872 9.21212 -0.221777 -0.135436 0.965646
-17.892 -15.428 9.281 0.116394 -0.190557 0.974751
-12.103 -9.03475 9.50412 0.980273 -0.191873 0.0474305
-14.344 -11.6005 11.3425 0.168142 -0.957274 -0.235276
-19.0273 -15.927 6.49744 -0.528751 -0.455518 -0.716189
-19.2903 -8.58975 6.42 -0.340881 0.769253 -0.540417
-19.4322 -12.1868 9.29225 -0.212148 -0.370685 0.904205
-17.9295 -10.4807 10.9862 0.203772 -0.92024 0.334119
-17.671 -16.924 6.2925 -0.019153 -0.60768 -0.793951
-18.9158 -11.0653 10.1265 0.121158 -0.873156 0.472144
-15.1456 -11.1446 12.3993 -0.2113 -0.771271 0.600411
-20.9698 -12.8448 6.57812 -0.735286 -0.113084 -0.668256
-15.9235 -6.88912 6.91913 -0.76091 0.44196 -0.475066
-11.9443 -11.6205 3.769 0.0721648 -0.886644 -0.456788
-11.4354 -8.68175 7.05188 0.906893 -0.122837 0.403059
-11.8993 -8.36287 8.442 0.964895 -0.0701074 0.253104
-16.797 -7.092 8.42344 -0.523127 0.761681 -0.382335
-19.798 -9.5555 6.1505 -0.685014 0.268413 -0.677282
-19.0802 -8.20569 8.0365 -0.410943 0.896665 -0.164671
-13.0129 -10.0099 2.87462 -0.573655 -0.0963802 -0.813407
-13.316 -8.237 3.639 -0.437458 0.564787 -0.699748
-17.3449 -10.0703 12.3079 0.0072831 -0.933307 0.359005
-21.079 -11.3485 6.5885 -0.682771 0.396006 -0.614006
-11.9755 -8.58128 10.676 0.966685 -0.248206 -0.0625664
-18.2022 -7.71938 8.54775 -0.409342 0.880558 -0.238866
-13.02 -10.359 12.2035 0.696805 -0.463734 0.547187
-10.49 -10.6082 5.22475 0.703015 -0.398245 0.589212
-12.197 -9.42212 11.7636 0.862853 -0.415286 0.288135
-13.3769 -7.07369 4.50744 -0.112079 0.745032 -0.657546
-10.8741 -11.4235 4.4755 0.475498 -0.856857 0.199244
-18.546 -17.069 6.767 -0.520319 -0.750265 -0.407887
-17.671 -17.4522 7.593 -0.0242997 -0.998533 0.0483818
-13.5262 -11.3118 12.1214 0.505235 -0.737635 0.447921
-20.1029 -8.894 7.0315 -0.638649 0.687559 -0.345528
-13.6648 -6.5765 6.081 0.0196493 0.899341 -0.436807
-20.522 -15.3763 7.039 -0.592351 -0.755004 -0.281227
-12.649 -8.50275 2.91175 -0.315555 0.609038 -0.727666
-10.6932 -9.33603 5.83038 0.856452 0.0908443 0.508171
-15.0556 -5.97862 6.50075 -0.215017 0.789825 -0.574408
-12.3398 -7.645 9.37088 0.924471 0.364109 0.113044
-20.1047 -10.9861 10.3837 0.0714146 -0.930488 0.359294
-18.546 -16.659 8.829 -0.355854 -0.558254 0.74948
-21.6275 -12.2069 7.23287 -0.991279 -0.0642374 -0.115063
-11.8895 -10.1025 2.57025 0.0482922 -0.387864 -0.920451
-15.342 -10.0555 13.1505 -0.0446152 -0.133316 0.990069
-21.1752 -14.5775 7.42725 -0.952801 -0.297653 -0.0597687
-19.2083 -16.5305 7.822 -0.776665 -0.627934 0.0499063
-19.5457 -15.5938 8.26275 -0.595623 -0.639314 0.486324
-10.8845 -11.1531 3.41825 0.454185 -0.617366 -0.64232
-11.8705 -7.17175 8.259 0.864563 0.350963 0.359662
-21.2681 -11.1785 7.83337 -0.94573 0.273552 -0.175396
-14.3614 -9.91488 12.9845 0.234477 -0.201325 0.951046
-20.5295 -14.376 8.6625 -0.55913 -0.270747 0.783626
-17.5917 -7.18325 9.48575 -0.378216 0.888554 -0.259664
-11.4478 -7.79975 5.989 0.823888 0.557988 -0.0992903
-16.2255 -6.05162 9.27262 -0.461001 0.876281 -0.140032
-21.0296 -13.5229 8.1485 -0.891521 -0.183854 0.413991
-13.2242 -9.37725 12.7205 0.361253 -0.155347 0.919437
-11.8664 -7.89288 11.6814 0.925801 0.288131 0.244691
-16.3324 -9.57938 12.9113 0.0748673 -0.400341 0.913303
-10.0812 -9.64756 4.613 0.930022 0.363453 0.0544062
-14.932 -5.647 7.568 -0.296399 0.936559 -0.187094
-21.215 -11.1318 9.35975 -0.744433 -0.667498 -0.0163054
-21.2463 -12.4145 8.2945 -0.828679 -0.207472 0.519853
-12.2902 -7.80613 4.51762 0.383876 0.81815 -0.428101
-20.4727 -10.84 11.5573 0.178683 -0.983373 0.0324074
-9.833 -10.511 4.03075 0.936734 -0.324897 -0.130271
-20.8336 -9.35913 7.769 -0.790303 0.559278 -0.250258
-20.2418 -8.73088 8.9535 -0.578139 0.774489 -0.256755
-11.8837 -9.04 2.4785 0.153279 0.291459 -0.944223
-19.6565 -10.831 12.367 0.274914 -0.94072 0.198669
-11.6785 -6.84125 6.825 0.838956 0.538302 -0.0799012
-20.5295 -15.273 8.13 -0.617464 -0.670725 0.410933
-12.8751 -6.93699 9.90541 0.835044 0.540928 0.100493
-12.423 -8.28925 12.7095 0.46641 0.0899128 0.879987
-12.376 -7.104 5.54775 0.484044 0.783913 -0.38882
-18.8803 -10.169 13.2294 0.33354 -0.863241 0.378902
-15.1096 -5.77063 8.9065 -0.310933 0.949581 0.0402105
-11.257 -8.62237 3.36025 0.542133 0.720849 -0.431819
-12.6625 -6.508 8.608 0.680533 0.704461 0.201519
-10.9235 -8.4425 4.6665 0.712314 0.697913 -0.0743393
-17.514 -9.25963 14.049 0.49165 -0.685061 0.537562
-12.2273 -6.29025 7.618 0.471934 0.879836 0.0562706
-17.3175 -6.78494 10.7539 -0.388625 0.920736 -0.0348559
-10.5933 -9.69675 3.23019 0.696395 0.171832 -0.696784
-13.272 -6.136 7.7405 0.294234 0.941491 -0.164379
-14.4009 -8.38313 12.5551 0.107231 0.209066 0.972005
-14.104 -5.607 8.4465 0.193419 0.970278 -0.145428
-16.241 -8.311 13.189 0.560006 -0.0170981 0.828312
-21.2008 -9.84212 9.65075 -0.859396 0.384081 -0.337521
-21.614 -11.3695 11.8645 0.106096 -0.993403 0.0435226
-15.9875 -6.25688 10.7812 -0.121422 0.969182 0.214344
-13.458 -6.166 10.4875 0.45716 0.797129 0.394449
-13.0522 -7.41862 12.387 0.195902 0.639444 0.74346
-12.7347 -6.67925 11.2995 0.542763 0.809233 0.224834
-19.1464 -7.52119 10.2719 -0.399648 0.857733 -0.323382
-21.034 -11.12 12.8165 0.113043 -0.956829 0.267767
-13.241 -5.649 9.247 0.614975 0.780192 0.114477
-20.5748 -10.6032 13.6053 0.165732 -0.814987 0.555274
-18.7665 -7.0945 11.2499 -0.299586 0.93472 -0.191174
-17.4771 -8.27312 14.8329 0.768646 0.0622127 0.636642
-14.301 -5.57575 9.97925 -0.0692064 0.947961 0.310774
-20.3319 -8.01456 10.5962 -0.518208 0.814055 -0.262249
-22.468 -10.2434 10.5262 -0.807436 0.0115416 -0.589843
-22.2157 -11.2505 11.018 -0.570993 -0.788321 -0.229164
-17.1421 -6.82312 12.0845 -0.152349 0.98768 0.0357603
-19.3897 -9.711 14.9198 0.116296 -0.788879 0.603444
-21.3429 -8.80112 10.9245 -0.570952 0.665772 -0.480377
-22.5958 -11.0782 12.0903 -0.547987 -0.836459 -0.00682782
-14.464 -7.162 12.191 0.114718 0.636867 0.762391
-16.148 -6.504 11.925 -0.00710704 0.953404 0.301612
-15.3359 -7.39187 12.6465 0.325666 0.554776 0.765614
-18.7052 -8.91075 15.6088 0.310808 -0.574763 0.756998
-21.971 -11.1005 13.301 -0.106652 -0.920423 0.376093
-14.7009 -6.59762 11.1679 0.0296261 0.873256 0.48636
-16.9757 -6.96663 13.2185 0.376412 0.835002 0.401355
-21.3085 -9.72125 14.475 -0.296893 -0.396969 0.868487
-22.8326 -9.38325 11.3923 -0.723974 0.485879 -0.489677
-18.7201 -6.78025 12.6282 -0.152706 0.974744 -0.162957
-19.8096 -7.3305 12.1806 -0.422493 0.867754 -0.261729
-17.718 -6.87575 14.2485 0.512979 0.736748 0.440518
-22.25 -10.51 14.0815 -0.21873 -0.517828 0.82705
-23.2505 -10.1637 12.119 -0.959695 -0.166601 -0.226338
-18.577 -7.85475 16.1035 0.252151 0.0676973 0.965317
-19.6926 -8.51519 15.6915 -0.354727 -0.0505206 0.933604
-20.5565 -9.0725 15.2525 -0.414445 -0.295017 0.86093
-21.94 -8.28475 12.0583 -0.558803 0.808481 -0.184656
-18.9241 -6.96331 15.3907 -0.0184397 0.791083 0.61143
3 180 172 157
3 166 178 161
3 184 165 183
3 129 165 157
3 149 129 155
3 129 157 155
3 149 163 121
3 65 121 122
3 122 121 109
3 163 162 121
3 162 166 148
3 166 127 148
3 161 178 158
3 179 186 159
3 135 80 140
3 118 80 69
3 69 80 30
3 66 80 129
3 80 135 129
3 124 68 129
3 129 68 66
3 124 99 68
3 65 115 111
3 122 101 115
3 115 101 70
3 115 70 104
3 70 81 54
3 81 109 54
3 54 109 76
3 76 109 126
3 92 126 77
3 127 161 154
3 77 127 83
3 75 112 142
3 158 142 112
3 174 164 177
3 164 174 169
3 169 174 170
3 174 159 147
3 174 147 170
3 159 140 147
3 147 140 118
3 145 118 103
3 145 110 116
3 66 68 31
3 31 68 39
3 31 39 19
3 19 39 35
3 59 60 33
3 60 59 100
3 59 35 65
3 59 106 100
3 100 106 105
3 131 94 106
3 106 94 63
3 106 63 105
3 56 104 70
3 63 56 37
3 63 37 27
3 18 54 34
3 34 54 50
3 54 76 50
3 76 92 64
3 64 46 40
3 46 83 75
3 75 114 136
3 71 75 120
3 136 120 75
3 150 136 114
3 150 142 169
3 173 169 170
3 173 170 168
3 168 152 173
3 168 170 145
3 145 152 168
3 133 117 152
3 82 86 57
3 57 38 82
3 61 82 38
3 57 86 84
3 84 86 116
3 116 110 84
3 57 26 38
3 57 62 26
3 26 62 30
3 19 5 11
3 24 33 60
3 24 25 13
3 13 25 12
3 25 27 12
3 12 27 16
3 16 27 37
3 16 37 18
3 0 2 1
3 2 17 1
3 28 17 34
3 28 34 50
3 32 7 9
3 28 40 9
3 32 23 45
3 71 52 45
3 52 97 93
3 52 93 55
3 55 93 87
3 120 144 97
3 93 97 144
3 144 141 93
3 146 120 136
3 156 138 146
3 144 146 138
3 138 141 144
3 132 138 156
3 138 108 141
3 153 151 173
3 82 61 98
3 74 61 36
3 38 36 61
3 5 4 0
3 6 5 0
3 4 3 0
3 7 20 8
3 7 8 1
3 58 20 21
3 20 7 21
3 7 29 21
3 21 29 48
3 21 48 47
3 48 29 55
3 29 32 55
3 48 87 79
3 48 79 95
3 79 87 123
3 79 123 95
3 87 134 123
3 130 134 93
3 130 113 134
3 130 73 113
3 73 96 113
3 73 36 44
3 96 73 49
3 44 49 73
3 44 36 22
3 22 49 44
3 85 96 49
3 49 88 85
3 96 119 139
3 119 96 85
3 113 123 134
3 137 143 128
3 143 102 128
3 180 157 175
3 129 135 165
3 124 129 149
3 99 124 149
3 99 121 65
3 121 99 149
3 109 121 148
3 109 148 126
3 148 121 162
3 127 126 148
3 161 127 166
3 158 154 161
3 118 140 80
3 41 30 80
3 41 80 66
3 65 39 68
3 65 68 99
3 65 35 39
3 127 77 126
3 75 83 112
3 158 112 154
3 169 142 164
3 170 147 145
3 118 145 147
3 11 30 41
3 11 41 31
3 66 31 41
3 11 31 19
3 45 75 71
3 173 160 136
3 173 136 150
3 169 173 150
3 151 160 173
3 28 9 17
3 17 9 1
3 1 9 7
3 23 32 9
3 23 9 40
3 45 23 75
3 75 23 46
3 46 23 40
3 32 45 52
3 55 32 52
3 146 144 120
3 98 108 138
3 98 138 132
3 74 98 61
3 6 15 14
3 14 15 38
3 38 15 36
3 30 6 14
3 26 30 14
3 38 26 14
3 5 6 11
3 11 6 30
3 6 1 8
3 6 8 15
3 15 8 22
3 15 22 36
3 22 8 20
3 98 74 108
3 58 49 20
3 22 20 49
3 166 185 178
3 165 184 175
3 149 155 167
3 172 167 155
3 172 155 157
3 176 166 162
3 181 176 162
3 181 162 167
3 167 162 163
3 167 163 149
3 185 166 176
3 182 186 183
3 182 183 171
3 182 171 159
3 159 186 182
3 140 165 135
3 140 159 171
3 140 171 165
3 165 171 183
3 122 115 65
3 101 109 81
3 101 81 70
3 101 122 109
3 76 126 92
3 154 112 127
3 83 127 112
3 178 177 158
3 142 158 164
3 177 164 158
3 159 174 179
3 118 69 103
3 103 110 145
3 110 103 69
3 59 33 35
3 111 59 65
3 106 59 111
3 94 131 104
3 104 56 94
3 94 56 63
3 131 106 111
3 131 111 104
3 104 111 115
3 18 37 56
3 18 56 42
3 42 56 70
3 70 54 42
3 42 54 18
3 92 77 64
3 46 64 77
3 83 46 77
3 142 114 75
3 150 114 142
3 86 117 133
3 133 116 86
3 86 82 117
3 133 152 145
3 133 145 116
3 91 69 62
3 91 62 57
3 91 57 84
3 110 91 84
3 91 110 69
3 62 69 30
3 33 19 35
3 19 33 10
3 19 10 5
3 10 33 24
3 25 53 51
3 53 90 51
3 25 51 27
3 53 24 60
3 53 60 100
3 53 100 90
3 51 90 67
3 27 51 67
3 67 90 89
3 67 89 63
3 27 67 63
3 90 100 105
3 89 90 105
3 89 105 63
3 53 25 24
3 18 17 2
3 17 18 34
3 40 28 50
3 40 50 64
3 50 76 64
3 97 71 120
3 97 52 71
3 151 156 160
3 156 146 160
3 160 146 136
3 156 151 132
3 117 153 152
3 117 98 153
3 153 173 152
3 98 117 82
3 4 10 13
3 4 13 12
3 4 12 3
3 4 5 10
3 10 24 13
3 16 18 2
3 3 16 2
3 16 3 12
3 3 2 0
3 7 32 29
3 87 93 134
3 87 48 55
3 93 141 130
3 141 108 130
3 130 108 74
3 130 74 73
3 74 36 73
3 1 6 0
3 47 72 43
3 43 72 58
3 58 21 43
3 43 21 47
3 48 78 47
3 47 78 102
3 72 47 102
3 72 102 107
3 72 107 88
3 72 88 58
3 58 88 49
3 107 102 143
3 143 137 119
3 119 137 139
3 139 137 123
3 137 128 95
3 128 78 95
3 95 123 137
3 128 102 78
3 48 95 78
3 123 113 139
3 139 113 96
3 125 88 107
3 125 107 143
3 125 143 119
3 125 119 85
3 125 85 88
3 153 98 132
3 153 132 151
3 175 157 165
