ply
format ascii 1.0
comment Generated by PyMesh
element vertex 125
property float x
property float y
property float z
property float nx
property float ny
property float nz
element face 221
property list uchar int vertex_indices
end_header
-12.2902 -7.80613 4.51762 0.383876 0.81815 -0.428101
-12.376 -7.104 5.54775 0.484044 0.783913 -0.38882
-13.3769 -7.07369 4.50744 -0.112079 0.745032 -0.657546
-13.316 -8.237 3.639 -0.437458 0.564787 -0.699748
-10.9235 -8.4425 4.6665 0.712314 0.697913 -0.0743393
-11.4478 -7.79975 5.989 0.823888 0.557988 -0.0992903
-11.257 -8.62237 3.36025 0.542133 0.720849 -0.431819
-12.649 -8.50275 2.91175 -0.315555 0.609038 -0.727666
-13.6791 -9.44462 3.96638 -0.784663 -0.0162267 -0.619709
-11.6785 -6.84125 6.825 0.838956 0.538302 -0.0799012
-14.569 -7.8455 4.5965 -0.689979 0.36658 -0.624138
-13.6648 -6.5765 6.081 0.0196493 0.899341 -0.436807
-11.8837 -9.04 2.4785 0.153279 0.291459 -0.944223
-10.0812 -9.64756 4.613 0.930022 0.363453 0.0544062
-10.6932 -9.33603 5.83038 0.856452 0.0908443 0.508171
-10.5933 -9.69675 3.23019 0.696395 0.171832 -0.696784
-11.4354 -8.68175 7.05188 0.906893 -0.122837 0.403059
-13.0129 -10.0099 2.87462 -0.573655 -0.0963802 -0.813407
-14.4462 -9.07288 4.63263 -0.778934 -0.231027 -0.582999
-12.2273 -6.29025 7.618 0.471934 0.879836 0.0562706
-11.8895 -10.1025 2.57025 0.0482922 -0.387864 -0.920451
-14.8977 -7.449 5.739 -0.628185 0.379633 -0.679163
-9.833 -10.511 4.03075 0.936734 -0.324897 -0.130271
-10.49 -10.6082 5.22475 0.703015 -0.398245 0.589212
-11.8705 -7.17175 8.259 0.864563 0.350963 0.359662
-11.812 -9.762 7.06 0.615945 -0.653441 0.440031
-15.0556 -5.97862 6.50075 -0.215017 0.789825 -0.574408
-13.2327 -11.0689 3.64887 -0.603856 -0.520526 -0.603664
-13.272 -6.136 7.7405 0.294234 0.941491 -0.164379
-15.3691 -8.4265 6.08112 -0.674685 0.13659 -0.725358
-10.8845 -11.1531 3.41825 0.454185 -0.617366 -0.64232
-11.8993 -8.36287 8.442 0.964895 -0.0701074 0.253104
-13.6117 -11.175 4.89675 -0.696635 -0.71703 -0.0238453
-11.751 -10.7425 5.8105 0.396025 -0.647829 0.650755
-12.506 -9.99162 7.804 0.635587 -0.747884 0.191569
-12.6625 -6.508 8.608 0.680533 0.704461 0.201519
-12.8769 -10.1391 6.88319 0.131502 -0.934215 0.331585
-10.8741 -11.4235 4.4755 0.475498 -0.856857 0.199244
-14.932 -5.647 7.568 -0.296399 0.936559 -0.187094
-12.3398 -7.645 9.37088 0.924471 0.364109 0.113044
-15.9235 -6.88912 6.91913 -0.76091 0.44196 -0.475066
-12.859 -11.912 4.451 -0.309202 -0.947626 -0.0799973
-14.7054 -10.5063 5.86097 -0.4303 -0.792922 -0.431412
-14.104 -5.607 8.4465 0.193419 0.970278 -0.145428
-11.9443 -11.6205 3.769 0.0721648 -0.886644 -0.456788
-12.103 -9.03475 9.50412 0.980273 -0.191873 0.0474305
-13.372 -10.6006 6.02413 -0.0596607 -0.878413 0.474163
-12.0107 -11.6585 5.02125 0.0771251 -0.882121 0.464665
-16.3965 -7.80387 7.19375 -0.64199 0.406949 -0.649801
-13.241 -5.649 9.247 0.614975 0.780192 0.114477
-16.3687 -9.7295 6.31975 0.0285716 0.0449732 -0.99858
-12.8751 -6.93699 9.90541 0.835044 0.540928 0.100493
-17.0509 -8.59725 6.72237 -0.122438 0.665458 -0.736325
-13.9075 -10.017 7.865 0.259067 -0.965505 0.0261541
-12.6095 -10.0452 9.3735 0.542641 -0.838511 -0.0493975
-14.445 -10.3615 6.8575 0.282855 -0.951239 0.123036
-15.1096 -5.77063 8.9065 -0.310933 0.949581 0.0402105
-15.515 -10.8661 6.57281 0.48398 -0.503505 -0.715714
-11.9755 -8.58128 10.676 0.966685 -0.248206 -0.0625664
-14.301 -5.57575 9.97925 -0.0692064 0.947961 0.310774
-16.797 -7.092 8.42344 -0.523127 0.761681 -0.382335
-13.458 -6.166 10.4875 0.45716 0.797129 0.394449
-18.0842 -8.20588 7.21425 -0.134937 0.904376 -0.404841
-14.1222 -10.2362 9.119 0.317312 -0.932536 -0.172307
-18.2376 -8.663 6.14975 0.134453 0.637763 -0.758407
-12.7347 -6.67925 11.2995 0.542763 0.809233 0.224834
-15.0331 -10.8427 8.19519 0.794612 -0.606942 0.0145697
-17.8595 -9.8705 5.769 0.224566 0.00574713 -0.974442
-11.8664 -7.89288 11.6814 0.925801 0.288131 0.244691
-17.6164 -10.9056 6.06619 0.183887 -0.0585972 -0.981199
-16.2255 -6.05162 9.27262 -0.461001 0.876281 -0.140032
-13.8919 -10.6025 10.1834 0.261635 -0.89178 -0.369156
-15.5191 -12.0419 7.088 0.91038 0.0224387 -0.413164
-12.9436 -10.2224 11.019 0.731517 -0.668141 -0.135903
-12.197 -9.42212 11.7636 0.862853 -0.415286 0.288135
-17.5917 -7.18325 9.48575 -0.378216 0.888554 -0.259664
-19.2903 -8.58975 6.42 -0.340881 0.769253 -0.540417
-16.6131 -12.3586 6.12388 0.345698 -0.0165249 -0.9382
-19.0802 -8.20569 8.0365 -0.410943 0.896665 -0.164671
-14.7009 -6.59762 11.1679 0.0296261 0.873256 0.48636
-18.9745 -9.794 5.5925 -0.196269 0.14308 -0.970055
-15.9875 -6.25688 10.7812 -0.121422 0.969182 0.214344
-18.2022 -7.71938 8.54775 -0.409342 0.880558 -0.238866
-13.0522 -7.41862 12.387 0.195902 0.639444 0.74346
-12.423 -8.28925 12.7095 0.46641 0.0899128 0.879987
-18.8111 -11.0901 5.96569 -0.0226724 -0.183419 -0.982773
-15.7953 -11.7142 9.2675 0.362476 -0.599477 0.71361
-13.02 -10.359 12.2035 0.696805 -0.463734 0.547187
-15.6615 -13.451 6.55475 0.651625 -0.0982242 -0.752155
-15.4423 -12.6602 8.57187 0.852243 -0.0237596 0.522606
-14.9621 -13.321 7.748 0.99373 -0.101835 -0.0461542
-14.344 -11.6005 11.3425 0.168142 -0.957274 -0.235276
-20.1029 -8.894 7.0315 -0.638649 0.687559 -0.345528
-17.3175 -6.78494 10.7539 -0.388625 0.920736 -0.0348559
-18.3759 -12.6317 6.00986 0.0137997 -0.00136579 -0.999904
-13.5262 -11.3118 12.1214 0.505235 -0.737635 0.447921
-19.798 -9.5555 6.1505 -0.685014 0.268413 -0.677282
-13.2242 -9.37725 12.7205 0.361253 -0.155347 0.919437
-15.5977 -11.0153 10.756 -0.0446271 -0.998487 -0.032134
-14.464 -7.162 12.191 0.114718 0.636867 0.762391
-16.148 -6.504 11.925 -0.00710704 0.953404 0.301612
-19.9814 -11.0499 6.23387 -0.420198 0.121153 -0.899308
-20.2418 -8.73088 8.9535 -0.578139 0.774489 -0.256755
-19.1464 -7.52119 10.2719 -0.399648 0.857733 -0.323382
-15.3359 -7.39187 12.6465 0.325666 0.554776 0.765614
-16.9205 -12.4824 9.382 0.135998 -0.151947 0.978988
-14.4009 -8.38313 12.5551 0.107231 0.209066 0.972005
-15.7753 -13.6415 9.037 0.598663 -0.155371 0.785788
-18.7665 -7.0945 11.2499 -0.299586 0.93472 -0.191174
-17.0993 -11.123 9.728 0.050641 -0.657794 0.751493
-17.024 -14.482 6.2055 0.297968 -0.0577432 -0.952828
-20.8336 -9.35913 7.769 -0.790303 0.559278 -0.250258
-14.3614 -9.91488 12.9845 0.234477 -0.201325 0.951046
-16.202 -14.757 6.7335 0.693306 -0.281304 -0.663472
-15.4785 -14.6277 7.97256 0.911759 -0.386778 0.138194
-15.1456 -11.1446 12.3993 -0.2113 -0.771271 0.600411
-17.1421 -6.82312 12.0845 -0.152349 0.98768 0.0357603
-16.8307 -10.4169 10.779 -0.153617 -0.908316 0.389055
-18.3609 -14.2872 5.9515 -0.00733023 -0.0488615 -0.998779
-21.079 -11.3485 6.5885 -0.682771 0.396006 -0.614006
-20.1175 -13.1535 6.00425 -0.293098 0.0207855 -0.955856
-16.9757 -6.96663 13.2185 0.376412 0.835002 0.401355
-20.3319 -8.01456 10.5962 -0.518208 0.814055 -0.262249
-18.0556 -12.7589 9.22262 -0.0476964 -0.0733478 0.996165
-17.642 -15.301 5.926 0.277019 -0.12556 -0.952625
3 92 111 78
3 102 122 103
3 78 102 82
3 60 75 93
3 108 93 75
3 116 121 100
3 100 121 104
3 106 112 97
3 94 101 85
3 85 101 80
3 101 96 80
3 96 92 76
3 76 62 64
3 62 82 60
3 60 70 56
3 40 60 38
3 56 38 60
3 81 56 70
3 81 93 100
3 79 100 104
3 79 104 99
3 99 83 79
3 99 104 106
3 106 83 99
3 84 68 83
3 58 74 73
3 73 54 58
3 45 58 54
3 73 74 87
3 87 74 97
3 97 112 87
3 73 71 54
3 73 91 71
3 71 91 98
3 105 89 86
3 113 124 110
3 110 124 118
3 110 118 94
3 72 77 57
3 77 69 57
3 67 69 85
3 67 85 80
3 29 42 50
3 67 64 50
3 29 52 48
3 40 21 48
3 21 26 11
3 21 11 10
3 10 11 2
3 38 28 26
3 11 26 28
3 28 19 11
3 43 38 56
3 49 35 43
3 28 43 35
3 35 19 28
3 51 35 49
3 35 24 19
3 65 61 79
3 58 45 39
3 31 45 34
3 54 34 45
3 89 90 72
3 66 89 72
3 90 88 72
3 42 46 55
3 42 55 57
3 47 46 32
3 46 42 32
3 42 18 32
3 32 18 8
3 32 8 27
3 8 18 10
3 18 29 10
3 8 2 3
3 8 3 7
3 3 2 0
3 3 0 7
3 2 1 0
3 9 1 11
3 9 5 1
3 9 16 5
3 16 14 5
3 16 34 25
3 14 16 33
3 25 33 16
3 25 34 36
3 36 33 25
3 23 14 33
3 33 37 23
3 14 13 4
3 13 14 23
3 5 0 1
3 6 15 12
3 15 20 12
3 108 103 122
3 102 78 111
3 60 82 75
3 108 75 103
3 100 93 116
3 86 98 117
3 86 117 109
3 86 109 105
3 48 60 40
3 79 59 56
3 79 56 81
3 100 79 81
3 61 59 79
3 67 50 69
3 69 50 57
3 57 50 42
3 52 29 50
3 52 50 64
3 48 52 60
3 60 52 62
3 62 52 64
3 29 48 21
3 10 29 21
3 43 28 38
3 39 24 35
3 39 35 51
3 31 39 45
3 66 53 63
3 63 53 54
3 54 53 34
3 98 66 63
3 71 98 63
3 54 71 63
3 89 66 86
3 86 66 98
3 66 57 55
3 66 55 53
3 53 55 36
3 53 36 34
3 36 55 46
3 39 31 24
3 47 33 46
3 36 46 33
3 96 111 92
3 103 75 102
3 82 102 75
3 93 108 116
3 120 101 94
3 92 78 76
3 62 76 78
3 82 62 78
3 93 70 60
3 81 70 93
3 74 68 84
3 84 97 74
3 74 58 68
3 84 83 106
3 84 106 97
3 95 115 91
3 95 91 73
3 95 73 87
3 112 95 87
3 95 112 115
3 91 115 98
3 105 107 89
3 94 69 77
3 69 94 85
3 64 67 80
3 64 80 76
3 80 96 76
3 26 40 38
3 26 21 40
3 61 49 59
3 49 43 59
3 59 43 56
3 49 61 51
3 68 65 83
3 68 39 65
3 65 79 83
3 39 68 58
3 90 107 114
3 90 114 113
3 90 113 88
3 90 89 107
3 110 94 77
3 88 110 77
3 110 88 113
3 88 77 72
3 42 29 18
3 2 11 1
3 2 8 10
3 11 19 9
3 19 24 9
3 9 24 31
3 9 31 16
3 31 34 16
3 57 66 72
3 27 44 41
3 41 44 47
3 47 32 41
3 41 32 27
3 8 17 27
3 27 17 20
3 44 27 20
3 44 20 30
3 44 30 37
3 44 37 47
3 47 37 33
3 30 20 15
3 15 6 13
3 13 6 4
3 4 6 0
3 6 12 7
3 12 17 7
3 7 0 6
3 12 20 17
3 8 7 17
3 0 5 4
3 4 5 14
3 22 37 30
3 22 30 15
3 22 15 13
3 22 13 23
3 22 23 37
3 65 39 51
3 65 51 61
