ply
format ascii 1.0
comment Generated by PyMesh
element vertex 172
property float x
property float y
property float z
property float nx
property float ny
property float nz
element face 328
property list uchar int vertex_indices
end_header
-12.506 -9.99162 7.804 0.635587 -0.747884 0.191569
-12.8769 -10.1391 6.88319 0.131502 -0.934215 0.331585
-11.812 -9.762 7.06 0.615945 -0.653441 0.440031
-13.9075 -10.017 7.865 0.259067 -0.965505 0.0261541
-12.6095 -10.0452 9.3735 0.542641 -0.838511 -0.0493975
-11.4354 -8.68175 7.05188 0.906893 -0.122837 0.403059
-11.8993 -8.36287 8.442 0.964895 -0.0701074 0.253104
-12.103 -9.03475 9.50412 0.980273 -0.191873 0.0474305
-13.372 -10.6006 6.02413 -0.0596607 -0.878413 0.474163
-14.445 -10.3615 6.8575 0.282855 -0.951239 0.123036
-11.751 -10.7425 5.8105 0.396025 -0.647829 0.650755
-14.1222 -10.2362 9.119 0.317312 -0.932536 -0.172307
-15.0331 -10.8427 8.19519 0.794612 -0.606942 0.0145697
-11.8705 -7.17175 8.259 0.864563 0.350963 0.359662
-12.3398 -7.645 9.37088 0.924471 0.364109 0.113044
-13.8919 -10.6025 10.1834 0.261635 -0.89178 -0.369156
-11.4478 -7.79975 5.989 0.823888 0.557988 -0.0992903
-11.9755 -8.58128 10.676 0.966685 -0.248206 -0.0625664
-12.9436 -10.2224 11.019 0.731517 -0.668141 -0.135903
-13.6117 -11.175 4.89675 -0.696635 -0.71703 -0.0238453
-10.6932 -9.33603 5.83038 0.856452 0.0908443 0.508171
-14.7054 -10.5063 5.86097 -0.4303 -0.792922 -0.431412
-11.6785 -6.84125 6.825 0.838956 0.538302 -0.0799012
-15.515 -10.8661 6.57281 0.48398 -0.503505 -0.715714
-12.0107 -11.6585 5.02125 0.0771251 -0.882121 0.464665
-10.49 -10.6082 5.22475 0.703015 -0.398245 0.589212
-12.8751 -6.93699 9.90541 0.835044 0.540928 0.100493
-12.6625 -6.508 8.608 0.680533 0.704461 0.201519
-12.2273 -6.29025 7.618 0.471934 0.879836 0.0562706
-10.8741 -11.4235 4.4755 0.475498 -0.856857 0.199244
-15.7953 -11.7142 9.2675 0.362476 -0.599477 0.71361
-13.02 -10.359 12.2035 0.696805 -0.463734 0.547187
-12.376 -7.104 5.54775 0.484044 0.783913 -0.38882
-11.8664 -7.89288 11.6814 0.925801 0.288131 0.244691
-12.859 -11.912 4.451 -0.309202 -0.947626 -0.0799973
-15.5191 -12.0419 7.088 0.91038 0.0224387 -0.413164
-12.197 -9.42212 11.7636 0.862853 -0.415286 0.288135
-13.2327 -11.0689 3.64887 -0.603856 -0.520526 -0.603664
-15.4423 -12.6602 8.57187 0.852243 -0.0237596 0.522606
-14.344 -11.6005 11.3425 0.168142 -0.957274 -0.235276
-10.9235 -8.4425 4.6665 0.712314 0.697913 -0.0743393
-10.0812 -9.64756 4.613 0.930022 0.363453 0.0544062
-13.5262 -11.3118 12.1214 0.505235 -0.737635 0.447921
-12.2902 -7.80613 4.51762 0.383876 0.81815 -0.428101
-15.5977 -11.0153 10.756 -0.0446271 -0.998487 -0.032134
-11.9443 -11.6205 3.769 0.0721648 -0.886644 -0.456788
-16.3687 -9.7295 6.31975 0.0285716 0.0449732 -0.99858
-13.272 -6.136 7.7405 0.294234 0.941491 -0.164379
-13.458 -6.166 10.4875 0.45716 0.797129 0.394449
-12.7347 -6.67925 11.2995 0.542763 0.809233 0.224834
-14.4462 -9.07288 4.63263 -0.778934 -0.231027 -0.582999
-13.6791 -9.44462 3.96638 -0.784663 -0.0162267 -0.619709
-13.241 -5.649 9.247 0.614975 0.780192 0.114477
-9.833 -10.511 4.03075 0.936734 -0.324897 -0.130271
-10.8845 -11.1531 3.41825 0.454185 -0.617366 -0.64232
-13.2242 -9.37725 12.7205 0.361253 -0.155347 0.919437
-15.3691 -8.4265 6.08112 -0.674685 0.13659 -0.725358
-16.6131 -12.3586 6.12388 0.345698 -0.0165249 -0.9382
-12.423 -8.28925 12.7095 0.46641 0.0899128 0.879987
-16.9205 -12.4824 9.382 0.135998 -0.151947 0.978988
-14.104 -5.607 8.4465 0.193419 0.970278 -0.145428
-13.6648 -6.5765 6.081 0.0196493 0.899341 -0.436807
-15.7753 -13.6415 9.037 0.598663 -0.155371 0.785788
-14.9621 -13.321 7.748 0.99373 -0.101835 -0.0461542
-13.3769 -7.07369 4.50744 -0.112079 0.745032 -0.657546
-17.0993 -11.123 9.728 0.050641 -0.657794 0.751493
-13.0522 -7.41862 12.387 0.195902 0.639444 0.74346
-17.6164 -10.9056 6.06619 0.183887 -0.0585972 -0.981199
-13.0129 -10.0099 2.87462 -0.573655 -0.0963802 -0.813407
-15.6615 -13.451 6.55475 0.651625 -0.0982242 -0.752155
-14.3614 -9.91488 12.9845 0.234477 -0.201325 0.951046
-11.257 -8.62237 3.36025 0.542133 0.720849 -0.431819
-15.1456 -11.1446 12.3993 -0.2113 -0.771271 0.600411
-10.5933 -9.69675 3.23019 0.696395 0.171832 -0.696784
-13.316 -8.237 3.639 -0.437458 0.564787 -0.699748
-16.8307 -10.4169 10.779 -0.153617 -0.908316 0.389055
-14.301 -5.57575 9.97925 -0.0692064 0.947961 0.310774
-14.569 -7.8455 4.5965 -0.689979 0.36658 -0.624138
-17.0509 -8.59725 6.72237 -0.122438 0.665458 -0.736325
-11.8895 -10.1025 2.57025 0.0482922 -0.387864 -0.920451
-12.649 -8.50275 2.91175 -0.315555 0.609038 -0.727666
-14.7009 -6.59762 11.1679 0.0296261 0.873256 0.48636
-14.8977 -7.449 5.739 -0.628185 0.379633 -0.679163
-17.8595 -9.8705 5.769 0.224566 0.00574713 -0.974442
-18.0556 -12.7589 9.22262 -0.0476964 -0.0733478 0.996165
-15.1096 -5.77063 8.9065 -0.310933 0.949581 0.0402105
-14.932 -5.647 7.568 -0.296399 0.936559 -0.187094
-15.342 -10.0555 13.1505 -0.0446152 -0.133316 0.990069
-14.4009 -8.38313 12.5551 0.107231 0.209066 0.972005
-18.8111 -11.0901 5.96569 -0.0226724 -0.183419 -0.982773
-18.2342 -11.6804 9.38488 0.0164741 -0.403704 0.914741
-16.3965 -7.80387 7.19375 -0.64199 0.406949 -0.649801
-11.8837 -9.04 2.4785 0.153279 0.291459 -0.944223
-15.4785 -14.6277 7.97256 0.911759 -0.386778 0.138194
-14.464 -7.162 12.191 0.114718 0.636867 0.762391
-18.2376 -8.663 6.14975 0.134453 0.637763 -0.758407
-15.0556 -5.97862 6.50075 -0.215017 0.789825 -0.574408
-16.202 -14.757 6.7335 0.693306 -0.281304 -0.663472
-18.3759 -12.6317 6.00986 0.0137997 -0.00136579 -0.999904
-17.9295 -10.4807 10.9862 0.203772 -0.92024 0.334119
-16.3779 -15.1609 8.73063 0.603037 -0.285722 0.744788
-17.3923 -14.1713 9.258 0.0915104 -0.0876395 0.99194
-17.3449 -10.0703 12.3079 0.0072831 -0.933307 0.359005
-18.9158 -11.0653 10.1265 0.121158 -0.873156 0.472144
-17.024 -14.482 6.2055 0.297968 -0.0577432 -0.952828
-18.0842 -8.20588 7.21425 -0.134937 0.904376 -0.404841
-18.9745 -9.794 5.5925 -0.196269 0.14308 -0.970055
-15.9875 -6.25688 10.7812 -0.121422 0.969182 0.214344
-16.2255 -6.05162 9.27262 -0.461001 0.876281 -0.140032
-16.3324 -9.57938 12.9113 0.0748673 -0.400341 0.913303
-15.9235 -6.88912 6.91913 -0.76091 0.44196 -0.475066
-19.9814 -11.0499 6.23387 -0.420198 0.121153 -0.899308
-16.148 -6.504 11.925 -0.00710704 0.953404 0.301612
-15.3359 -7.39187 12.6465 0.325666 0.554776 0.765614
-19.4322 -12.1868 9.29225 -0.212148 -0.370685 0.904205
-19.2903 -8.58975 6.42 -0.340881 0.769253 -0.540417
-18.6268 -14.3872 9.21212 -0.221777 -0.135436 0.965646
-16.797 -7.092 8.42344 -0.523127 0.761681 -0.382335
-15.9945 -15.913 7.365 0.922354 -0.288572 -0.256885
-17.642 -15.301 5.926 0.277019 -0.12556 -0.952625
-17.892 -15.428 9.281 0.116394 -0.190557 0.974751
-19.798 -9.5555 6.1505 -0.685014 0.268413 -0.677282
-20.1047 -10.9861 10.3837 0.0714146 -0.930488 0.359294
-16.33 -16.601 8.361 0.615923 -0.571743 0.541986
-16.241 -8.311 13.189 0.560006 -0.0170981 0.828312
-19.0802 -8.20569 8.0365 -0.410943 0.896665 -0.164671
-18.3609 -14.2872 5.9515 -0.00733023 -0.0488615 -0.998779
-18.2022 -7.71938 8.54775 -0.409342 0.880558 -0.238866
-20.1175 -13.1535 6.00425 -0.293098 0.0207855 -0.955856
-18.8803 -10.169 13.2294 0.33354 -0.863241 0.378902
-17.1421 -6.82312 12.0845 -0.152349 0.98768 0.0357603
-17.514 -9.25963 14.049 0.49165 -0.685061 0.537562
-20.1029 -8.894 7.0315 -0.638649 0.687559 -0.345528
-17.3175 -6.78494 10.7539 -0.388625 0.920736 -0.0348559
-21.079 -11.3485 6.5885 -0.682771 0.396006 -0.614006
-19.6565 -10.831 12.367 0.274914 -0.94072 0.198669
-19.9883 -14.2528 6.0595 -0.390303 -0.208518 -0.896763
-20.4727 -10.84 11.5573 0.178683 -0.983373 0.0324074
-16.9757 -6.96663 13.2185 0.376412 0.835002 0.401355
-16.563 -16.835 6.796 0.653131 -0.583754 -0.48234
-17.5917 -7.18325 9.48575 -0.378216 0.888554 -0.259664
-18.546 -16.659 8.829 -0.355854 -0.558254 0.74948
-20.9698 -12.8448 6.57812 -0.735286 -0.113084 -0.668256
-21.2681 -11.1785 7.83337 -0.94573 0.273552 -0.175396
-19.5457 -15.5938 8.26275 -0.595623 -0.639314 0.486324
-19.0273 -15.927 6.49744 -0.528751 -0.455518 -0.716189
-21.215 -11.1318 9.35975 -0.744433 -0.667498 -0.0163054
-17.671 -16.924 6.2925 -0.019153 -0.60768 -0.793951
-21.2463 -12.4145 8.2945 -0.828679 -0.207472 0.519853
-20.5295 -14.376 8.6625 -0.55913 -0.270747 0.783626
-20.8336 -9.35913 7.769 -0.790303 0.559278 -0.250258
-20.2418 -8.73088 8.9535 -0.578139 0.774489 -0.256755
-17.4771 -8.27312 14.8329 0.768646 0.0622127 0.636642
-21.6275 -12.2069 7.23287 -0.991279 -0.0642374 -0.115063
-17.671 -17.4522 7.593 -0.0242997 -0.998533 0.0483818
-21.0296 -13.5229 8.1485 -0.891521 -0.183854 0.413991
-18.7201 -6.78025 12.6282 -0.152706 0.974744 -0.162957
-18.7665 -7.0945 11.2499 -0.299586 0.93472 -0.191174
-21.614 -11.3695 11.8645 0.106096 -0.993403 0.0435226
-19.3897 -9.711 14.9198 0.116296 -0.788879 0.603444
-21.034 -11.12 12.8165 0.113043 -0.956829 0.267767
-17.718 -6.87575 14.2485 0.512979 0.736748 0.440518
-20.5748 -10.6032 13.6053 0.165732 -0.814987 0.555274
-20.522 -15.3763 7.039 -0.592351 -0.755004 -0.281227
-18.7052 -8.91075 15.6088 0.310808 -0.574763 0.756998
-20.5295 -15.273 8.13 -0.617464 -0.670725 0.410933
-18.546 -17.069 6.767 -0.520319 -0.750265 -0.407887
-19.2083 -16.5305 7.822 -0.776665 -0.627934 0.0499063
-21.1752 -14.5775 7.42725 -0.952801 -0.297653 -0.0597687
-18.6612 -6.53963 13.6825 -0.000841628 0.999542 0.0302569
-21.2008 -9.84212 9.65075 -0.859396 0.384081 -0.337521
-19.1464 -7.52119 10.2719 -0.399648 0.857733 -0.323382
3 135 159 162
3 158 135 160
3 135 162 160
3 114 146 148
3 148 146 143
3 129 102 131
3 109 102 72
3 72 102 44
3 99 102 135
3 102 129 135
3 137 103 135
3 135 103 99
3 137 122 103
3 114 155 149
3 148 153 155
3 155 153 142
3 155 142 168
3 142 134 111
3 134 143 111
3 111 143 121
3 121 143 150
3 132 150 125
3 125 151 127
3 117 140 133
3 157 133 140
3 138 130 156
3 130 138 112
3 112 138 113
3 138 152 124
3 138 124 113
3 152 131 124
3 124 131 109
3 88 109 87
3 88 70 55
3 99 103 65
3 65 103 90
3 65 90 59
3 59 90 84
3 116 120 101
3 120 116 141
3 116 84 114
3 116 144 141
3 141 144 167
3 165 163 144
3 144 163 145
3 144 145 167
3 136 168 142
3 145 136 126
3 145 126 119
3 98 111 89
3 89 111 106
3 111 121 106
3 121 132 115
3 115 105 95
3 105 127 117
3 117 108 85
3 110 117 86
3 85 86 117
3 107 85 108
3 107 133 112
3 81 112 113
3 81 113 94
3 94 66 81
3 94 113 88
3 88 66 94
3 58 33 66
3 17 36 18
3 18 4 17
3 7 17 4
3 18 36 31
3 31 36 55
3 55 70 31
3 18 15 4
3 18 39 15
3 15 39 44
3 59 38 30
3 100 101 120
3 100 118 93
3 93 118 97
3 118 119 97
3 97 119 104
3 104 119 126
3 104 126 98
3 35 57 23
3 57 67 23
3 83 67 89
3 83 89 106
3 56 21 46
3 83 95 46
3 56 78 91
3 110 82 91
3 82 96 61
3 82 61 77
3 77 61 64
3 86 47 96
3 61 96 47
3 47 28 61
3 60 86 85
3 52 27 60
3 47 60 27
3 27 28 47
3 26 27 52
3 27 13 28
3 49 48 81
3 17 7 14
3 6 7 0
3 4 0 7
3 38 63 35
3 12 38 35
3 63 69 35
3 21 8 9
3 21 9 23
3 24 8 19
3 8 21 19
3 21 50 19
3 19 50 51
3 19 51 37
3 51 50 77
3 50 56 77
3 51 64 74
3 51 74 80
3 74 64 43
3 74 43 80
3 64 32 43
3 22 32 61
3 22 16 32
3 22 5 16
3 5 20 16
3 5 0 2
3 20 5 10
3 2 10 5
3 2 0 1
3 1 10 2
3 25 20 10
3 10 29 25
3 20 41 40
3 41 20 25
3 16 43 32
3 71 73 92
3 73 79 92
3 135 129 159
3 137 135 158
3 122 137 158
3 122 146 114
3 146 122 158
3 143 146 170
3 143 170 150
3 151 150 170
3 109 131 102
3 75 44 102
3 75 102 99
3 114 90 103
3 114 103 122
3 114 84 90
3 151 125 150
3 117 127 140
3 157 140 171
3 112 133 130
3 113 124 88
3 109 88 124
3 30 44 75
3 30 75 65
3 99 65 75
3 30 65 59
3 91 117 110
3 81 76 85
3 81 85 107
3 112 81 107
3 48 76 81
3 83 46 67
3 67 46 23
3 23 46 21
3 78 56 46
3 78 46 95
3 91 78 117
3 117 78 105
3 105 78 95
3 56 91 82
3 77 56 82
3 60 47 86
3 14 13 27
3 14 27 26
3 6 14 7
3 12 3 11
3 11 3 4
3 4 3 0
3 44 12 11
3 15 44 11
3 4 15 11
3 38 12 30
3 30 12 44
3 12 23 9
3 12 9 3
3 3 9 1
3 3 1 0
3 1 9 8
3 14 6 13
3 24 10 8
3 1 8 10
3 131 159 129
3 131 152 164
3 131 164 159
3 148 155 114
3 153 143 134
3 153 134 142
3 153 148 143
3 121 150 132
3 171 140 151
3 127 151 140
3 133 157 130
3 156 130 157
3 152 138 161
3 169 161 138
3 138 156 169
3 109 72 87
3 87 70 88
3 70 87 72
3 116 101 84
3 149 116 114
3 144 116 149
3 163 165 168
3 168 136 163
3 163 136 145
3 165 144 149
3 165 149 168
3 168 149 155
3 98 126 136
3 98 136 128
3 128 136 142
3 142 111 128
3 128 111 98
3 132 125 115
3 105 115 125
3 127 105 125
3 133 108 117
3 107 108 133
3 36 33 58
3 58 55 36
3 36 17 33
3 58 66 88
3 58 88 55
3 42 72 39
3 42 39 18
3 42 18 31
3 70 42 31
3 42 70 72
3 39 72 44
3 101 59 84
3 59 101 62
3 59 62 38
3 62 101 100
3 118 123 139
3 123 154 139
3 118 139 119
3 123 100 120
3 123 120 141
3 123 141 154
3 139 154 147
3 119 139 147
3 147 154 166
3 147 166 145
3 119 147 145
3 154 141 167
3 166 154 167
3 166 167 145
3 123 118 100
3 98 67 57
3 67 98 89
3 95 83 106
3 95 106 115
3 106 121 115
3 96 110 86
3 96 82 110
3 48 52 76
3 52 60 76
3 76 60 85
3 52 48 26
3 33 49 66
3 33 14 49
3 49 81 66
3 14 33 17
3 63 62 93
3 63 93 97
3 63 97 69
3 63 38 62
3 62 100 93
3 104 98 57
3 69 104 57
3 104 69 97
3 69 57 35
3 21 56 50
3 64 61 32
3 64 51 77
3 61 28 22
3 28 13 22
3 22 13 6
3 22 6 5
3 6 0 5
3 23 12 35
3 37 45 34
3 34 45 24
3 24 19 34
3 34 19 37
3 51 68 37
3 37 68 79
3 45 37 79
3 45 79 54
3 45 54 29
3 45 29 24
3 24 29 10
3 54 79 73
3 73 71 41
3 41 71 40
3 40 71 43
3 71 92 80
3 92 68 80
3 80 43 71
3 92 79 68
3 51 80 68
3 43 16 40
3 40 16 20
3 53 29 54
3 53 54 73
3 53 73 41
3 53 41 25
3 53 25 29
3 49 14 26
3 49 26 48
