ply
format ascii 1.0
comment Generated by PyMesh
element vertex 186
property float x
property float y
property float z
property float nx
property float ny
property float nz
element face 353
property list uchar int vertex_indices
end_header
-18.0556 -12.7589 9.22262 -0.0476964 -0.0733478 0.996165
-18.2342 -11.6804 9.38488 0.0164741 -0.403704 0.914741
-16.9205 -12.4824 9.382 0.135998 -0.151947 0.978988
-19.4322 -12.1868 9.29225 -0.212148 -0.370685 0.904205
-17.3923 -14.1713 9.258 0.0915104 -0.0876395 0.99194
-18.6268 -14.3872 9.21212 -0.221777 -0.135436 0.965646
-18.9158 -11.0653 10.1265 0.121158 -0.873156 0.472144
-17.0993 -11.123 9.728 0.050641 -0.657794 0.751493
-15.7953 -11.7142 9.2675 0.362476 -0.599477 0.71361
-15.7753 -13.6415 9.037 0.598663 -0.155371 0.785788
-15.4423 -12.6602 8.57187 0.852243 -0.0237596 0.522606
-17.892 -15.428 9.281 0.116394 -0.190557 0.974751
-16.3779 -15.1609 8.73063 0.603037 -0.285722 0.744788
-20.1047 -10.9861 10.3837 0.0714146 -0.930488 0.359294
-19.5457 -15.5938 8.26275 -0.595623 -0.639314 0.486324
-21.215 -11.1318 9.35975 -0.744433 -0.667498 -0.0163054
-21.2463 -12.4145 8.2945 -0.828679 -0.207472 0.519853
-20.5295 -14.376 8.6625 -0.55913 -0.270747 0.783626
-16.8307 -10.4169 10.779 -0.153617 -0.908316 0.389055
-17.9295 -10.4807 10.9862 0.203772 -0.92024 0.334119
-21.0296 -13.5229 8.1485 -0.891521 -0.183854 0.413991
-18.546 -16.659 8.829 -0.355854 -0.558254 0.74948
-14.9621 -13.321 7.748 0.99373 -0.101835 -0.0461542
-15.0331 -10.8427 8.19519 0.794612 -0.606942 0.0145697
-15.5977 -11.0153 10.756 -0.0446271 -0.998487 -0.032134
-15.4785 -14.6277 7.97256 0.911759 -0.386778 0.138194
-20.4727 -10.84 11.5573 0.178683 -0.983373 0.0324074
-15.5191 -12.0419 7.088 0.91038 0.0224387 -0.413164
-20.5295 -15.273 8.13 -0.617464 -0.670725 0.410933
-16.33 -16.601 8.361 0.615923 -0.571743 0.541986
-19.2083 -16.5305 7.822 -0.776665 -0.627934 0.0499063
-19.6565 -10.831 12.367 0.274914 -0.94072 0.198669
-15.9945 -15.913 7.365 0.922354 -0.288572 -0.256885
-21.6275 -12.2069 7.23287 -0.991279 -0.0642374 -0.115063
-21.2008 -9.84212 9.65075 -0.859396 0.384081 -0.337521
-21.2681 -11.1785 7.83337 -0.94573 0.273552 -0.175396
-20.522 -15.3763 7.039 -0.592351 -0.755004 -0.281227
-21.1752 -14.5775 7.42725 -0.952801 -0.297653 -0.0597687
-17.3449 -10.0703 12.3079 0.0072831 -0.933307 0.359005
-19.0273 -15.927 6.49744 -0.528751 -0.455518 -0.716189
-21.614 -11.3695 11.8645 0.106096 -0.993403 0.0435226
-15.6615 -13.451 6.55475 0.651625 -0.0982242 -0.752155
-22.468 -10.2434 10.5262 -0.807436 0.0115416 -0.589843
-22.2157 -11.2505 11.018 -0.570993 -0.788321 -0.229164
-14.1222 -10.2362 9.119 0.317312 -0.932536 -0.172307
-13.9075 -10.017 7.865 0.259067 -0.965505 0.0261541
-20.9698 -12.8448 6.57812 -0.735286 -0.113084 -0.668256
-14.445 -10.3615 6.8575 0.282855 -0.951239 0.123036
-14.344 -11.6005 11.3425 0.168142 -0.957274 -0.235276
-17.671 -17.4522 7.593 -0.0242997 -0.998533 0.0483818
-16.202 -14.757 6.7335 0.693306 -0.281304 -0.663472
-15.515 -10.8661 6.57281 0.48398 -0.503505 -0.715714
-16.563 -16.835 6.796 0.653131 -0.583754 -0.48234
-15.1456 -11.1446 12.3993 -0.2113 -0.771271 0.600411
-21.079 -11.3485 6.5885 -0.682771 0.396006 -0.614006
-18.546 -17.069 6.767 -0.520319 -0.750265 -0.407887
-16.6131 -12.3586 6.12388 0.345698 -0.0165249 -0.9382
-18.8803 -10.169 13.2294 0.33354 -0.863241 0.378902
-13.8919 -10.6025 10.1834 0.261635 -0.89178 -0.369156
-21.034 -11.12 12.8165 0.113043 -0.956829 0.267767
-20.5748 -10.6032 13.6053 0.165732 -0.814987 0.555274
-22.5958 -11.0782 12.0903 -0.547987 -0.836459 -0.00682782
-16.3324 -9.57938 12.9113 0.0748673 -0.400341 0.913303
-20.2418 -8.73088 8.9535 -0.578139 0.774489 -0.256755
-21.3429 -8.80112 10.9245 -0.570952 0.665772 -0.480377
-20.1175 -13.1535 6.00425 -0.293098 0.0207855 -0.955856
-19.9883 -14.2528 6.0595 -0.390303 -0.208518 -0.896763
-14.7054 -10.5063 5.86097 -0.4303 -0.792922 -0.431412
-20.8336 -9.35913 7.769 -0.790303 0.559278 -0.250258
-22.8326 -9.38325 11.3923 -0.723974 0.485879 -0.489677
-17.024 -14.482 6.2055 0.297968 -0.0577432 -0.952828
-13.5262 -11.3118 12.1214 0.505235 -0.737635 0.447921
-17.642 -15.301 5.926 0.277019 -0.12556 -0.952625
-19.9814 -11.0499 6.23387 -0.420198 0.121153 -0.899308
-12.506 -9.99162 7.804 0.635587 -0.747884 0.191569
-17.671 -16.924 6.2925 -0.019153 -0.60768 -0.793951
-12.8769 -10.1391 6.88319 0.131502 -0.934215 0.331585
-13.372 -10.6006 6.02413 -0.0596607 -0.878413 0.474163
-12.6095 -10.0452 9.3735 0.542641 -0.838511 -0.0493975
-17.514 -9.25963 14.049 0.49165 -0.685061 0.537562
-21.971 -11.1005 13.301 -0.106652 -0.920423 0.376093
-16.3687 -9.7295 6.31975 0.0285716 0.0449732 -0.99858
-18.3609 -14.2872 5.9515 -0.00733023 -0.0488615 -0.998779
-15.342 -10.0555 13.1505 -0.0446152 -0.133316 0.990069
-23.2505 -10.1637 12.119 -0.959695 -0.166601 -0.226338
-12.9436 -10.2224 11.019 0.731517 -0.668141 -0.135903
-19.3897 -9.711 14.9198 0.116296 -0.788879 0.603444
-14.3614 -9.91488 12.9845 0.234477 -0.201325 0.951046
-21.3085 -9.72125 14.475 -0.296893 -0.396969 0.868487
-19.798 -9.5555 6.1505 -0.685014 0.268413 -0.677282
-17.6164 -10.9056 6.06619 0.183887 -0.0585972 -0.981199
-18.3759 -12.6317 6.00986 0.0137997 -0.00136579 -0.999904
-16.241 -8.311 13.189 0.560006 -0.0170981 0.828312
-20.3319 -8.01456 10.5962 -0.518208 0.814055 -0.262249
-20.1029 -8.894 7.0315 -0.638649 0.687559 -0.345528
-21.94 -8.28475 12.0583 -0.558803 0.808481 -0.184656
-13.02 -10.359 12.2035 0.696805 -0.463734 0.547187
-22.25 -10.51 14.0815 -0.21873 -0.517828 0.82705
-11.812 -9.762 7.06 0.615945 -0.653441 0.440031
-19.0802 -8.20569 8.0365 -0.410943 0.896665 -0.164671
-23.1501 -10.4362 13.4981 -0.8196 -0.412353 0.39777
-18.8111 -11.0901 5.96569 -0.0226724 -0.183419 -0.982773
-23.1583 -9.1395 12.735 -0.882032 0.469308 0.0420707
-12.103 -9.03475 9.50412 0.980273 -0.191873 0.0474305
-13.6117 -11.175 4.89675 -0.696635 -0.71703 -0.0238453
-17.4771 -8.27312 14.8329 0.768646 0.0622127 0.636642
-17.0509 -8.59725 6.72237 -0.122438 0.665458 -0.736325
-14.4462 -9.07288 4.63263 -0.778934 -0.231027 -0.582999
-19.1464 -7.52119 10.2719 -0.399648 0.857733 -0.323382
-11.751 -10.7425 5.8105 0.396025 -0.647829 0.650755
-18.9745 -9.794 5.5925 -0.196269 0.14308 -0.970055
-12.197 -9.42212 11.7636 0.862853 -0.415286 0.288135
-18.7052 -8.91075 15.6088 0.310808 -0.574763 0.756998
-13.2242 -9.37725 12.7205 0.361253 -0.155347 0.919437
-19.2903 -8.58975 6.42 -0.340881 0.769253 -0.540417
-14.4009 -8.38313 12.5551 0.107231 0.209066 0.972005
-17.8595 -9.8705 5.769 0.224566 0.00574713 -0.974442
-11.4354 -8.68175 7.05188 0.906893 -0.122837 0.403059
-11.8993 -8.36287 8.442 0.964895 -0.0701074 0.253104
-18.2022 -7.71938 8.54775 -0.409342 0.880558 -0.238866
-20.5565 -9.0725 15.2525 -0.414445 -0.295017 0.86093
-15.3691 -8.4265 6.08112 -0.674685 0.13659 -0.725358
-19.6926 -8.51519 15.6915 -0.354727 -0.0505206 0.933604
-19.8096 -7.3305 12.1806 -0.422493 0.867754 -0.261729
-12.0107 -11.6585 5.02125 0.0771251 -0.882121 0.464665
-22.5636 -9.17675 13.9983 -0.683619 0.390177 0.616787
-11.9755 -8.58128 10.676 0.966685 -0.248206 -0.0625664
-21.89 -8.36 13.2975 -0.697337 0.699089 0.158102
-15.3359 -7.39187 12.6465 0.325666 0.554776 0.765614
-16.9757 -6.96663 13.2185 0.376412 0.835002 0.401355
-18.2376 -8.663 6.14975 0.134453 0.637763 -0.758407
-18.0842 -8.20588 7.21425 -0.134937 0.904376 -0.404841
-21.0061 -8.00712 14.7624 -0.648611 0.390745 0.653164
-12.859 -11.912 4.451 -0.309202 -0.947626 -0.0799973
-13.2327 -11.0689 3.64887 -0.603856 -0.520526 -0.603664
-17.5917 -7.18325 9.48575 -0.378216 0.888554 -0.259664
-12.3398 -7.645 9.37088 0.924471 0.364109 0.113044
-13.6791 -9.44462 3.96638 -0.784663 -0.0162267 -0.619709
-16.3965 -7.80387 7.19375 -0.64199 0.406949 -0.649801
-18.7665 -7.0945 11.2499 -0.299586 0.93472 -0.191174
-14.569 -7.8455 4.5965 -0.689979 0.36658 -0.624138
-18.577 -7.85475 16.1035 0.252151 0.0676973 0.965317
-17.718 -6.87575 14.2485 0.512979 0.736748 0.440518
-14.8977 -7.449 5.739 -0.628185 0.379633 -0.679163
-11.8705 -7.17175 8.259 0.864563 0.350963 0.359662
-10.49 -10.6082 5.22475 0.703015 -0.398245 0.589212
-14.464 -7.162 12.191 0.114718 0.636867 0.762391
-12.423 -8.28925 12.7095 0.46641 0.0899128 0.879987
-11.4478 -7.79975 5.989 0.823888 0.557988 -0.0992903
-11.8664 -7.89288 11.6814 0.925801 0.288131 0.244691
-11.9443 -11.6205 3.769 0.0721648 -0.886644 -0.456788
-20.2059 -7.42238 15.0086 -0.50206 0.590406 0.631946
-18.7201 -6.78025 12.6282 -0.152706 0.974744 -0.162957
-10.8741 -11.4235 4.4755 0.475498 -0.856857 0.199244
-16.797 -7.092 8.42344 -0.523127 0.761681 -0.382335
-10.6932 -9.33603 5.83038 0.856452 0.0908443 0.508171
-18.9241 -6.96331 15.3907 -0.0184397 0.791083 0.61143
-13.0522 -7.41862 12.387 0.195902 0.639444 0.74346
-17.1421 -6.82312 12.0845 -0.152349 0.98768 0.0357603
-20.559 -7.1895 13.942 -0.497218 0.864605 0.072329
-16.148 -6.504 11.925 -0.00710704 0.953404 0.301612
-11.6785 -6.84125 6.825 0.838956 0.538302 -0.0799012
-12.8751 -6.93699 9.90541 0.835044 0.540928 0.100493
-15.9235 -6.88912 6.91913 -0.76091 0.44196 -0.475066
-13.0129 -10.0099 2.87462 -0.573655 -0.0963802 -0.813407
-17.3175 -6.78494 10.7539 -0.388625 0.920736 -0.0348559
-13.316 -8.237 3.639 -0.437458 0.564787 -0.699748
-14.7009 -6.59762 11.1679 0.0296261 0.873256 0.48636
-12.6625 -6.508 8.608 0.680533 0.704461 0.201519
-18.6612 -6.53963 13.6825 -0.000841628 0.999542 0.0302569
-12.2273 -6.29025 7.618 0.471934 0.879836 0.0562706
-10.0812 -9.64756 4.613 0.930022 0.363453 0.0544062
-13.3769 -7.07369 4.50744 -0.112079 0.745032 -0.657546
-10.8845 -11.1531 3.41825 0.454185 -0.617366 -0.64232
-9.833 -10.511 4.03075 0.936734 -0.324897 -0.130271
-12.376 -7.104 5.54775 0.484044 0.783913 -0.38882
-12.649 -8.50275 2.91175 -0.315555 0.609038 -0.727666
-13.6648 -6.5765 6.081 0.0196493 0.899341 -0.436807
-11.8895 -10.1025 2.57025 0.0482922 -0.387864 -0.920451
-15.0556 -5.97862 6.50075 -0.215017 0.789825 -0.574408
-10.9235 -8.4425 4.6665 0.712314 0.697913 -0.0743393
-15.9875 -6.25688 10.7812 -0.121422 0.969182 0.214344
-12.7347 -6.67925 11.2995 0.542763 0.809233 0.224834
-13.458 -6.166 10.4875 0.45716 0.797129 0.394449
-16.2255 -6.05162 9.27262 -0.461001 0.876281 -0.140032
-12.2902 -7.80613 4.51762 0.383876 0.81815 -0.428101
3 127 125 132
3 132 125 88
3 125 97 88
3 97 80 60
3 80 100 61
3 84 102 69
3 102 125 95
3 64 123 93
3 123 95 159
3 159 95 127
3 159 132 151
3 120 122 132
3 156 151 122
3 132 122 151
3 120 86 122
3 31 86 60
3 40 31 59
3 31 60 59
3 40 43 15
3 3 15 16
3 16 15 35
3 43 42 15
3 42 64 34
3 64 63 34
3 93 123 139
3 152 123 159
3 142 156 105
3 57 38 79
3 62 38 53
3 53 38 24
3 19 38 31
3 38 57 31
3 26 6 31
3 31 6 19
3 26 13 6
3 3 20 17
3 16 33 20
3 20 33 46
3 20 46 37
3 46 54 73
3 54 35 73
3 73 35 89
3 89 35 68
3 94 68 99
3 63 93 108
3 99 63 119
3 154 135 165
3 139 165 135
3 129 158 152
3 158 129 160
3 160 129 128
3 129 105 92
3 129 92 128
3 105 79 92
3 92 79 62
3 115 62 83
3 115 87 113
3 19 6 7
3 7 6 1
3 7 1 2
3 2 1 0
3 5 11 4
3 11 5 21
3 5 0 3
3 5 14 21
3 21 14 30
3 28 36 14
3 14 36 39
3 14 39 30
3 66 37 46
3 39 66 82
3 39 82 72
3 91 73 101
3 101 73 110
3 73 89 110
3 89 94 114
3 114 131 130
3 131 119 154
3 181 165 160
3 167 160 128
3 167 128 146
3 146 157 167
3 146 128 115
3 115 157 146
3 147 149 157
3 126 111 85
3 85 78 126
3 103 126 78
3 85 111 96
3 96 111 113
3 113 87 96
3 85 58 78
3 85 48 58
3 58 48 24
3 2 10 8
3 12 4 11
3 12 32 25
3 25 32 50
3 32 72 50
3 50 72 70
3 70 72 82
3 70 82 91
3 27 56 51
3 56 90 51
3 116 90 101
3 116 101 110
3 121 67 81
3 116 130 81
3 121 106 138
3 163 143 138
3 143 179 177
3 143 177 140
3 140 177 172
3 168 144 170
3 182 183 167
3 126 103 136
3 118 103 74
3 78 74 103
3 10 22 27
3 23 10 27
3 22 41 27
3 67 77 47
3 67 47 51
3 124 77 104
3 77 67 104
3 67 107 104
3 104 107 137
3 104 137 134
3 137 107 140
3 107 121 140
3 137 172 166
3 137 166 176
3 166 172 185
3 166 185 176
3 172 175 185
3 161 175 177
3 161 148 175
3 161 117 148
3 117 155 148
3 117 74 98
3 155 117 109
3 98 109 117
3 98 74 76
3 76 109 98
3 145 155 109
3 109 153 145
3 155 171 180
3 171 155 145
3 148 185 175
3 125 127 95
3 97 60 88
3 31 57 86
3 26 31 40
3 13 26 40
3 13 15 3
3 15 13 40
3 35 15 34
3 35 34 68
3 34 15 42
3 63 68 34
3 93 63 64
3 139 108 93
3 62 79 38
3 18 24 38
3 18 38 19
3 3 1 6
3 3 6 13
3 3 0 1
3 63 99 68
3 154 119 135
3 139 135 108
3 160 165 158
3 128 92 115
3 62 115 92
3 8 24 18
3 8 18 7
3 19 7 18
3 8 7 2
3 138 154 163
3 160 167 181
3 116 81 90
3 90 81 51
3 51 81 67
3 106 121 81
3 106 81 130
3 138 106 154
3 154 106 131
3 131 106 130
3 121 138 143
3 140 121 143
3 136 144 168
3 136 168 162
3 118 136 103
3 23 45 44
3 44 45 78
3 78 45 74
3 24 23 44
3 58 24 44
3 78 58 44
3 10 23 8
3 8 23 24
3 23 51 47
3 23 47 45
3 45 47 76
3 45 76 74
3 76 47 77
3 136 118 144
3 124 109 77
3 76 77 109
3 125 102 100
3 100 84 61
3 100 80 97
3 100 97 125
3 100 102 84
3 64 95 123
3 86 120 88
3 88 120 132
3 127 132 159
3 40 59 61
3 80 61 59
3 80 59 60
3 69 64 42
3 84 69 42
3 84 42 61
3 61 42 43
3 61 43 40
3 95 64 69
3 95 69 102
3 152 159 169
3 169 156 142
3 156 169 159
3 156 159 151
3 141 156 122
3 141 122 112
3 141 112 105
3 105 156 141
3 79 86 57
3 79 105 112
3 79 112 86
3 86 112 122
3 16 20 3
3 33 35 54
3 33 54 46
3 33 16 35
3 89 68 94
3 108 135 63
3 119 63 135
3 123 152 139
3 165 139 158
3 152 158 139
3 105 129 142
3 169 142 129
3 129 152 169
3 62 53 83
3 83 87 115
3 87 83 53
3 5 4 0
3 17 5 3
3 14 5 17
3 36 28 37
3 37 66 36
3 36 66 39
3 28 14 17
3 28 17 37
3 37 17 20
3 91 82 66
3 91 66 65
3 65 66 46
3 46 73 65
3 65 73 91
3 94 99 114
3 131 114 99
3 119 131 99
3 165 184 154
3 181 184 165
3 111 149 147
3 147 113 111
3 111 126 149
3 147 157 115
3 147 115 113
3 71 53 48
3 71 48 85
3 71 85 96
3 87 71 96
3 71 87 53
3 48 53 24
3 4 2 0
3 2 4 9
3 2 9 10
3 9 4 12
3 32 29 52
3 29 49 52
3 32 52 72
3 29 12 11
3 29 11 21
3 29 21 49
3 52 49 75
3 72 52 75
3 75 49 55
3 75 55 39
3 72 75 39
3 49 21 30
3 55 49 30
3 55 30 39
3 29 32 12
3 91 90 56
3 90 91 101
3 130 116 110
3 130 110 114
3 110 89 114
3 179 143 163
3 149 182 157
3 149 136 182
3 182 167 157
3 136 149 126
3 22 9 25
3 22 25 50
3 22 50 41
3 22 10 9
3 9 12 25
3 70 91 56
3 41 70 56
3 70 41 50
3 41 56 27
3 67 121 107
3 172 177 175
3 172 137 140
3 177 170 161
3 170 144 161
3 161 144 118
3 161 118 117
3 118 74 117
3 51 23 27
3 134 150 133
3 133 150 124
3 124 104 133
3 133 104 134
3 137 164 134
3 134 164 178
3 150 134 178
3 150 178 173
3 150 173 153
3 150 153 124
3 124 153 109
3 137 176 164
3 185 148 180
3 180 148 155
3 174 153 173
3 174 171 145
3 174 145 153
3 182 136 162
3 182 162 183
3 88 60 86
