ply
format ascii 1.0
comment Generated by PyMesh
element vertex 152
property float x
property float y
property float z
property float nx
property float ny
property float nz
element face 279
property list uchar int vertex_indices
end_header
-17.4771 -8.27312 14.8329 0.768646 0.0622127 0.636642
-17.514 -9.25963 14.049 0.49165 -0.685061 0.537562
-17.718 -6.87575 14.2485 0.512979 0.736748 0.440518
-18.7052 -8.91075 15.6088 0.310808 -0.574763 0.756998
-18.577 -7.85475 16.1035 0.252151 0.0676973 0.965317
-18.9241 -6.96331 15.3907 -0.0184397 0.791083 0.61143
-16.241 -8.311 13.189 0.560006 -0.0170981 0.828312
-16.9757 -6.96663 13.2185 0.376412 0.835002 0.401355
-19.6926 -8.51519 15.6915 -0.354727 -0.0505206 0.933604
-18.6612 -6.53963 13.6825 -0.000841628 0.999542 0.0302569
-19.3897 -9.711 14.9198 0.116296 -0.788879 0.603444
-16.3324 -9.57938 12.9113 0.0748673 -0.400341 0.913303
-18.8803 -10.169 13.2294 0.33354 -0.863241 0.378902
-17.3449 -10.0703 12.3079 0.0072831 -0.933307 0.359005
-17.1421 -6.82312 12.0845 -0.152349 0.98768 0.0357603
-20.2059 -7.42238 15.0086 -0.50206 0.590406 0.631946
-15.3359 -7.39187 12.6465 0.325666 0.554776 0.765614
-16.148 -6.504 11.925 -0.00710704 0.953404 0.301612
-18.7201 -6.78025 12.6282 -0.152706 0.974744 -0.162957
-20.5565 -9.0725 15.2525 -0.414445 -0.295017 0.86093
-14.4009 -8.38313 12.5551 0.107231 0.209066 0.972005
-15.342 -10.0555 13.1505 -0.0446152 -0.133316 0.990069
-20.559 -7.1895 13.942 -0.497218 0.864605 0.072329
-21.0061 -8.00712 14.7624 -0.648611 0.390745 0.653164
-19.6565 -10.831 12.367 0.274914 -0.94072 0.198669
-14.464 -7.162 12.191 0.114718 0.636867 0.762391
-17.3175 -6.78494 10.7539 -0.388625 0.920736 -0.0348559
-17.9295 -10.4807 10.9862 0.203772 -0.92024 0.334119
-21.3085 -9.72125 14.475 -0.296893 -0.396969 0.868487
-20.5748 -10.6032 13.6053 0.165732 -0.814987 0.555274
-16.8307 -10.4169 10.779 -0.153617 -0.908316 0.389055
-15.9875 -6.25688 10.7812 -0.121422 0.969182 0.214344
-15.1456 -11.1446 12.3993 -0.2113 -0.771271 0.600411
-14.3614 -9.91488 12.9845 0.234477 -0.201325 0.951046
-19.8096 -7.3305 12.1806 -0.422493 0.867754 -0.261729
-18.7665 -7.0945 11.2499 -0.299586 0.93472 -0.191174
-14.7009 -6.59762 11.1679 0.0296261 0.873256 0.48636
-13.2242 -9.37725 12.7205 0.361253 -0.155347 0.919437
-20.4727 -10.84 11.5573 0.178683 -0.983373 0.0324074
-13.0522 -7.41862 12.387 0.195902 0.639444 0.74346
-15.5977 -11.0153 10.756 -0.0446271 -0.998487 -0.032134
-21.034 -11.12 12.8165 0.113043 -0.956829 0.267767
-12.423 -8.28925 12.7095 0.46641 0.0899128 0.879987
-17.5917 -7.18325 9.48575 -0.378216 0.888554 -0.259664
-21.89 -8.36 13.2975 -0.697337 0.699089 0.158102
-22.25 -10.51 14.0815 -0.21873 -0.517828 0.82705
-18.9158 -11.0653 10.1265 0.121158 -0.873156 0.472144
-17.0993 -11.123 9.728 0.050641 -0.657794 0.751493
-22.5636 -9.17675 13.9983 -0.683619 0.390177 0.616787
-19.1464 -7.52119 10.2719 -0.399648 0.857733 -0.323382
-21.971 -11.1005 13.301 -0.106652 -0.920423 0.376093
-14.344 -11.6005 11.3425 0.168142 -0.957274 -0.235276
-16.2255 -6.05162 9.27262 -0.461001 0.876281 -0.140032
-21.614 -11.3695 11.8645 0.106096 -0.993403 0.0435226
-13.5262 -11.3118 12.1214 0.505235 -0.737635 0.447921
-13.02 -10.359 12.2035 0.696805 -0.463734 0.547187
-13.458 -6.166 10.4875 0.45716 0.797129 0.394449
-21.94 -8.28475 12.0583 -0.558803 0.808481 -0.184656
-20.1047 -10.9861 10.3837 0.0714146 -0.930488 0.359294
-14.301 -5.57575 9.97925 -0.0692064 0.947961 0.310774
-20.3319 -8.01456 10.5962 -0.518208 0.814055 -0.262249
-12.197 -9.42212 11.7636 0.862853 -0.415286 0.288135
-12.7347 -6.67925 11.2995 0.542763 0.809233 0.224834
-16.797 -7.092 8.42344 -0.523127 0.761681 -0.382335
-15.1096 -5.77063 8.9065 -0.310933 0.949581 0.0402105
-15.7953 -11.7142 9.2675 0.362476 -0.599477 0.71361
-11.8664 -7.89288 11.6814 0.925801 0.288131 0.244691
-23.1501 -10.4362 13.4981 -0.8196 -0.412353 0.39777
-18.2022 -7.71938 8.54775 -0.409342 0.880558 -0.238866
-18.2342 -11.6804 9.38488 0.0164741 -0.403704 0.914741
-21.3429 -8.80112 10.9245 -0.570952 0.665772 -0.480377
-16.9205 -12.4824 9.382 0.135998 -0.151947 0.978988
-13.8919 -10.6025 10.1834 0.261635 -0.89178 -0.369156
-22.2157 -11.2505 11.018 -0.570993 -0.788321 -0.229164
-22.5958 -11.0782 12.0903 -0.547987 -0.836459 -0.00682782
-19.4322 -12.1868 9.29225 -0.212148 -0.370685 0.904205
-23.1583 -9.1395 12.735 -0.882032 0.469308 0.0420707
-12.8751 -6.93699 9.90541 0.835044 0.540928 0.100493
-12.9436 -10.2224 11.019 0.731517 -0.668141 -0.135903
-14.1222 -10.2362 9.119 0.317312 -0.932536 -0.172307
-13.241 -5.649 9.247 0.614975 0.780192 0.114477
-14.104 -5.607 8.4465 0.193419 0.970278 -0.145428
-15.4423 -12.6602 8.57187 0.852243 -0.0237596 0.522606
-21.215 -11.1318 9.35975 -0.744433 -0.667498 -0.0163054
-15.0331 -10.8427 8.19519 0.794612 -0.606942 0.0145697
-11.9755 -8.58128 10.676 0.966685 -0.248206 -0.0625664
-19.0802 -8.20569 8.0365 -0.410943 0.896665 -0.164671
-20.2418 -8.73088 8.9535 -0.578139 0.774489 -0.256755
-22.8326 -9.38325 11.3923 -0.723974 0.485879 -0.489677
-14.932 -5.647 7.568 -0.296399 0.936559 -0.187094
-18.0556 -12.7589 9.22262 -0.0476964 -0.0733478 0.996165
-16.3965 -7.80387 7.19375 -0.64199 0.406949 -0.649801
-23.2505 -10.1637 12.119 -0.959695 -0.166601 -0.226338
-18.0842 -8.20588 7.21425 -0.134937 0.904376 -0.404841
-22.468 -10.2434 10.5262 -0.807436 0.0115416 -0.589843
-15.9235 -6.88912 6.91913 -0.76091 0.44196 -0.475066
-12.3398 -7.645 9.37088 0.924471 0.364109 0.113044
-12.6095 -10.0452 9.3735 0.542641 -0.838511 -0.0493975
-21.2008 -9.84212 9.65075 -0.859396 0.384081 -0.337521
-15.7753 -13.6415 9.037 0.598663 -0.155371 0.785788
-12.6625 -6.508 8.608 0.680533 0.704461 0.201519
-17.3923 -14.1713 9.258 0.0915104 -0.0876395 0.99194
-17.0509 -8.59725 6.72237 -0.122438 0.665458 -0.736325
-13.9075 -10.017 7.865 0.259067 -0.965505 0.0261541
-13.272 -6.136 7.7405 0.294234 0.941491 -0.164379
-14.9621 -13.321 7.748 0.99373 -0.101835 -0.0461542
-15.0556 -5.97862 6.50075 -0.215017 0.789825 -0.574408
-12.103 -9.03475 9.50412 0.980273 -0.191873 0.0474305
-21.2463 -12.4145 8.2945 -0.828679 -0.207472 0.519853
-18.2376 -8.663 6.14975 0.134453 0.637763 -0.758407
-20.8336 -9.35913 7.769 -0.790303 0.559278 -0.250258
-21.2681 -11.1785 7.83337 -0.94573 0.273552 -0.175396
-14.445 -10.3615 6.8575 0.282855 -0.951239 0.123036
-15.5191 -12.0419 7.088 0.91038 0.0224387 -0.413164
-20.1029 -8.894 7.0315 -0.638649 0.687559 -0.345528
-18.6268 -14.3872 9.21212 -0.221777 -0.135436 0.965646
-21.0296 -13.5229 8.1485 -0.891521 -0.183854 0.413991
-15.515 -10.8661 6.57281 0.48398 -0.503505 -0.715714
-19.2903 -8.58975 6.42 -0.340881 0.769253 -0.540417
-20.5295 -14.376 8.6625 -0.55913 -0.270747 0.783626
-11.8993 -8.36287 8.442 0.964895 -0.0701074 0.253104
-15.3691 -8.4265 6.08112 -0.674685 0.13659 -0.725358
-11.8705 -7.17175 8.259 0.864563 0.350963 0.359662
-12.2273 -6.29025 7.618 0.471934 0.879836 0.0562706
-14.8977 -7.449 5.739 -0.628185 0.379633 -0.679163
-17.892 -15.428 9.281 0.116394 -0.190557 0.974751
-15.4785 -14.6277 7.97256 0.911759 -0.386778 0.138194
-16.3687 -9.7295 6.31975 0.0285716 0.0449732 -0.99858
-12.506 -9.99162 7.804 0.635587 -0.747884 0.191569
-12.8769 -10.1391 6.88319 0.131502 -0.934215 0.331585
-16.3779 -15.1609 8.73063 0.603037 -0.285722 0.744788
-21.6275 -12.2069 7.23287 -0.991279 -0.0642374 -0.115063
-15.6615 -13.451 6.55475 0.651625 -0.0982242 -0.752155
-14.7054 -10.5063 5.86097 -0.4303 -0.792922 -0.431412
-19.798 -9.5555 6.1505 -0.685014 0.268413 -0.677282
-13.6648 -6.5765 6.081 0.0196493 0.899341 -0.436807
-21.079 -11.3485 6.5885 -0.682771 0.396006 -0.614006
-17.8595 -9.8705 5.769 0.224566 0.00574713 -0.974442
-20.5295 -15.273 8.13 -0.617464 -0.670725 0.410933
-13.372 -10.6006 6.02413 -0.0596607 -0.878413 0.474163
-21.1752 -14.5775 7.42725 -0.952801 -0.297653 -0.0597687
-18.9745 -9.794 5.5925 -0.196269 0.14308 -0.970055
-16.6131 -12.3586 6.12388 0.345698 -0.0165249 -0.9382
-11.6785 -6.84125 6.825 0.838956 0.538302 -0.0799012
-16.202 -14.757 6.7335 0.693306 -0.281304 -0.663472
-11.4354 -8.68175 7.05188 0.906893 -0.122837 0.403059
-20.9698 -12.8448 6.57812 -0.735286 -0.113084 -0.668256
-14.569 -7.8455 4.5965 -0.689979 0.36658 -0.624138
-19.5457 -15.5938 8.26275 -0.595623 -0.639314 0.486324
-11.812 -9.762 7.06 0.615945 -0.653441 0.440031
-19.9814 -11.0499 6.23387 -0.420198 0.121153 -0.899308
-14.4462 -9.07288 4.63263 -0.778934 -0.231027 -0.582999
3 44 48 23
3 23 48 28
3 48 45 28
3 45 50 29
3 50 67 74
3 92 76 88
3 76 48 57
3 70 34 60
3 34 57 22
3 22 57 44
3 22 23 15
3 19 8 23
3 5 15 8
3 23 8 15
3 19 10 8
3 24 10 29
3 53 24 41
3 24 29 41
3 53 73 83
3 75 83 108
3 108 83 111
3 73 94 83
3 94 70 98
3 70 87 98
3 60 34 35
3 18 34 22
3 2 5 0
3 12 13 1
3 11 13 32
3 32 13 40
3 27 13 24
3 13 12 24
3 38 46 24
3 24 46 27
3 38 58 46
3 75 116 119
3 108 131 116
3 116 131 146
3 116 146 140
3 146 136 150
3 136 111 150
3 150 111 134
3 134 111 110
3 114 110 86
3 87 60 49
3 86 87 68
3 63 43 26
3 35 26 43
3 7 14 18
3 14 7 17
3 17 7 16
3 7 0 6
3 7 6 16
3 0 1 6
3 6 1 11
3 20 11 21
3 20 33 37
3 27 46 47
3 47 46 69
3 47 69 71
3 71 69 90
3 115 125 101
3 115 90 75
3 150 134 141
3 134 114 118
3 118 93 109
3 93 68 63
3 63 52 64
3 95 63 89
3 64 89 63
3 31 64 52
3 31 26 17
3 36 17 16
3 36 16 25
3 25 39 36
3 25 16 20
3 20 39 25
3 42 66 39
3 85 61 78
3 78 97 85
3 107 85 97
3 78 61 55
3 55 61 37
3 37 33 55
3 78 72 97
3 78 51 72
3 72 51 40
3 71 82 65
3 130 101 125
3 113 142 117
3 121 133 127
3 137 109 127
3 121 102 91
3 95 124 91
3 124 106 135
3 124 135 147
3 89 104 106
3 135 106 104
3 104 123 135
3 81 89 64
3 80 100 81
3 104 81 100
3 100 123 104
3 77 100 80
3 100 122 123
3 62 56 36
3 85 107 96
3 120 107 128
3 97 128 107
3 82 105 113
3 84 82 113
3 105 132 113
3 133 139 112
3 133 112 117
3 151 121 147
3 145 128 149
3 149 128 129
3 48 44 57
3 45 29 28
3 24 12 10
3 38 24 53
3 58 38 53
3 58 83 75
3 83 58 53
3 111 83 98
3 111 98 110
3 98 83 94
3 87 110 98
3 60 87 70
3 35 49 60
3 11 1 13
3 30 40 13
3 30 13 27
3 75 69 46
3 75 46 58
3 75 90 69
3 87 86 110
3 63 68 43
3 35 43 49
3 17 26 14
3 16 6 20
3 11 20 6
3 65 40 30
3 65 30 47
3 27 47 30
3 65 47 71
3 91 63 95
3 36 59 64
3 36 64 31
3 17 36 31
3 56 59 36
3 117 127 133
3 102 121 127
3 102 127 109
3 91 102 63
3 63 102 93
3 93 102 109
3 121 91 124
3 147 121 124
3 81 104 89
3 96 122 100
3 96 100 77
3 120 96 107
3 84 103 79
3 79 103 97
3 97 103 128
3 40 84 79
3 72 40 79
3 97 72 79
3 82 84 65
3 65 84 40
3 84 117 112
3 84 112 103
3 103 112 129
3 103 129 128
3 129 112 139
3 96 120 122
3 48 76 67
3 67 92 74
3 67 50 45
3 67 45 48
3 67 76 92
3 70 57 34
3 10 19 28
3 28 19 23
3 44 23 22
3 53 41 74
3 50 74 41
3 50 41 29
3 88 70 94
3 92 88 94
3 92 94 74
3 74 94 73
3 74 73 53
3 57 70 88
3 57 88 76
3 18 22 9
3 9 5 2
3 5 9 22
3 5 22 15
3 4 5 8
3 4 8 3
3 4 3 0
3 0 5 4
3 1 10 12
3 1 0 3
3 1 3 10
3 10 3 8
3 108 116 75
3 131 111 136
3 131 136 146
3 131 108 111
3 134 110 114
3 49 43 87
3 68 87 43
3 34 18 35
3 26 35 14
3 18 14 35
3 0 7 2
3 9 2 7
3 7 18 9
3 11 32 21
3 21 33 20
3 33 21 32
3 115 101 90
3 119 115 75
3 148 115 119
3 138 148 119
3 138 119 140
3 140 119 116
3 114 86 118
3 93 118 86
3 68 93 86
3 26 52 63
3 31 52 26
3 61 66 42
3 42 37 61
3 61 85 66
3 42 39 20
3 42 20 37
3 54 32 51
3 54 51 78
3 54 78 55
3 33 54 55
3 54 33 32
3 51 32 40
3 101 71 90
3 71 101 99
3 71 99 82
3 99 101 130
3 109 137 141
3 109 141 118
3 141 134 118
3 106 95 89
3 106 124 95
3 56 80 59
3 80 81 59
3 59 81 64
3 80 56 77
3 66 62 39
3 66 96 62
3 62 36 39
3 96 66 85
3 105 99 126
3 105 126 144
3 105 144 132
3 105 82 99
3 99 130 126
3 132 142 113
3 133 121 151
3 135 123 143
3 123 122 143
3 143 122 120
3 143 120 145
3 120 128 145
3 117 84 113
3 62 96 77
3 62 77 56
3 28 29 10
