ply
format ascii 1.0
comment Generated by PyMesh
element vertex 189
property float x
property float y
property float z
property float nx
property float ny
property float nz
element face 364
property list uchar int vertex_indices
end_header
-14.1222 -10.2362 9.119 0.317312 -0.932536 -0.172307
-13.8919 -10.6025 10.1834 0.261635 -0.89178 -0.369156
-13.9075 -10.017 7.865 0.259067 -0.965505 0.0261541
-15.0331 -10.8427 8.19519 0.794612 -0.606942 0.0145697
-12.6095 -10.0452 9.3735 0.542641 -0.838511 -0.0493975
-15.5977 -11.0153 10.756 -0.0446271 -0.998487 -0.032134
-12.9436 -10.2224 11.019 0.731517 -0.668141 -0.135903
-14.445 -10.3615 6.8575 0.282855 -0.951239 0.123036
-12.103 -9.03475 9.50412 0.980273 -0.191873 0.0474305
-12.506 -9.99162 7.804 0.635587 -0.747884 0.191569
-12.8769 -10.1391 6.88319 0.131502 -0.934215 0.331585
-14.344 -11.6005 11.3425 0.168142 -0.957274 -0.235276
-15.7953 -11.7142 9.2675 0.362476 -0.599477 0.71361
-15.515 -10.8661 6.57281 0.48398 -0.503505 -0.715714
-15.5191 -12.0419 7.088 0.91038 0.0224387 -0.413164
-15.4423 -12.6602 8.57187 0.852243 -0.0237596 0.522606
-14.7054 -10.5063 5.86097 -0.4303 -0.792922 -0.431412
-11.9755 -8.58128 10.676 0.966685 -0.248206 -0.0625664
-13.02 -10.359 12.2035 0.696805 -0.463734 0.547187
-16.8307 -10.4169 10.779 -0.153617 -0.908316 0.389055
-11.812 -9.762 7.06 0.615945 -0.653441 0.440031
-12.197 -9.42212 11.7636 0.862853 -0.415286 0.288135
-13.372 -10.6006 6.02413 -0.0596607 -0.878413 0.474163
-13.5262 -11.3118 12.1214 0.505235 -0.737635 0.447921
-11.8993 -8.36287 8.442 0.964895 -0.0701074 0.253104
-15.1456 -11.1446 12.3993 -0.2113 -0.771271 0.600411
-12.3398 -7.645 9.37088 0.924471 0.364109 0.113044
-16.9205 -12.4824 9.382 0.135998 -0.151947 0.978988
-11.751 -10.7425 5.8105 0.396025 -0.647829 0.650755
-15.7753 -13.6415 9.037 0.598663 -0.155371 0.785788
-14.9621 -13.321 7.748 0.99373 -0.101835 -0.0461542
-17.0993 -11.123 9.728 0.050641 -0.657794 0.751493
-11.4354 -8.68175 7.05188 0.906893 -0.122837 0.403059
-16.3687 -9.7295 6.31975 0.0285716 0.0449732 -0.99858
-16.6131 -12.3586 6.12388 0.345698 -0.0165249 -0.9382
-15.6615 -13.451 6.55475 0.651625 -0.0982242 -0.752155
-13.2242 -9.37725 12.7205 0.361253 -0.155347 0.919437
-17.9295 -10.4807 10.9862 0.203772 -0.92024 0.334119
-11.8664 -7.89288 11.6814 0.925801 0.288131 0.244691
-17.3449 -10.0703 12.3079 0.0072831 -0.933307 0.359005
-13.6117 -11.175 4.89675 -0.696635 -0.71703 -0.0238453
-12.8751 -6.93699 9.90541 0.835044 0.540928 0.100493
-11.8705 -7.17175 8.259 0.864563 0.350963 0.359662
-14.3614 -9.91488 12.9845 0.234477 -0.201325 0.951046
-12.423 -8.28925 12.7095 0.46641 0.0899128 0.879987
-17.6164 -10.9056 6.06619 0.183887 -0.0585972 -0.981199
-15.342 -10.0555 13.1505 -0.0446152 -0.133316 0.990069
-14.4462 -9.07288 4.63263 -0.778934 -0.231027 -0.582999
-12.6625 -6.508 8.608 0.680533 0.704461 0.201519
-18.0556 -12.7589 9.22262 -0.0476964 -0.0733478 0.996165
-12.0107 -11.6585 5.02125 0.0771251 -0.882121 0.464665
-15.3691 -8.4265 6.08112 -0.674685 0.13659 -0.725358
-10.49 -10.6082 5.22475 0.703015 -0.398245 0.589212
-18.2342 -11.6804 9.38488 0.0164741 -0.403704 0.914741
-15.4785 -14.6277 7.97256 0.911759 -0.386778 0.138194
-11.4478 -7.79975 5.989 0.823888 0.557988 -0.0992903
-17.0509 -8.59725 6.72237 -0.122438 0.665458 -0.736325
-16.202 -14.757 6.7335 0.693306 -0.281304 -0.663472
-16.3324 -9.57938 12.9113 0.0748673 -0.400341 0.913303
-10.6932 -9.33603 5.83038 0.856452 0.0908443 0.508171
-10.8741 -11.4235 4.4755 0.475498 -0.856857 0.199244
-16.3779 -15.1609 8.73063 0.603037 -0.285722 0.744788
-17.3923 -14.1713 9.258 0.0915104 -0.0876395 0.99194
-17.8595 -9.8705 5.769 0.224566 0.00574713 -0.974442
-11.6785 -6.84125 6.825 0.838956 0.538302 -0.0799012
-12.859 -11.912 4.451 -0.309202 -0.947626 -0.0799973
-18.9158 -11.0653 10.1265 0.121158 -0.873156 0.472144
-13.458 -6.166 10.4875 0.45716 0.797129 0.394449
-13.0522 -7.41862 12.387 0.195902 0.639444 0.74346
-12.7347 -6.67925 11.2995 0.542763 0.809233 0.224834
-12.2273 -6.29025 7.618 0.471934 0.879836 0.0562706
-14.4009 -8.38313 12.5551 0.107231 0.209066 0.972005
-17.024 -14.482 6.2055 0.297968 -0.0577432 -0.952828
-13.2327 -11.0689 3.64887 -0.603856 -0.520526 -0.603664
-18.3759 -12.6317 6.00986 0.0137997 -0.00136579 -0.999904
-18.8111 -11.0901 5.96569 -0.0226724 -0.183419 -0.982773
-13.6791 -9.44462 3.96638 -0.784663 -0.0162267 -0.619709
-13.241 -5.649 9.247 0.614975 0.780192 0.114477
-13.272 -6.136 7.7405 0.294234 0.941491 -0.164379
-18.8803 -10.169 13.2294 0.33354 -0.863241 0.378902
-14.569 -7.8455 4.5965 -0.689979 0.36658 -0.624138
-18.2376 -8.663 6.14975 0.134453 0.637763 -0.758407
-17.514 -9.25963 14.049 0.49165 -0.685061 0.537562
-14.8977 -7.449 5.739 -0.628185 0.379633 -0.679163
-11.9443 -11.6205 3.769 0.0721648 -0.886644 -0.456788
-10.0812 -9.64756 4.613 0.930022 0.363453 0.0544062
-19.4322 -12.1868 9.29225 -0.212148 -0.370685 0.904205
-19.6565 -10.831 12.367 0.274914 -0.94072 0.198669
-16.3965 -7.80387 7.19375 -0.64199 0.406949 -0.649801
-9.833 -10.511 4.03075 0.936734 -0.324897 -0.130271
-18.0842 -8.20588 7.21425 -0.134937 0.904376 -0.404841
-12.376 -7.104 5.54775 0.484044 0.783913 -0.38882
-14.104 -5.607 8.4465 0.193419 0.970278 -0.145428
-10.8845 -11.1531 3.41825 0.454185 -0.617366 -0.64232
-18.6268 -14.3872 9.21212 -0.221777 -0.135436 0.965646
-18.9745 -9.794 5.5925 -0.196269 0.14308 -0.970055
-16.241 -8.311 13.189 0.560006 -0.0170981 0.828312
-15.9945 -15.913 7.365 0.922354 -0.288572 -0.256885
-14.301 -5.57575 9.97925 -0.0692064 0.947961 0.310774
-17.642 -15.301 5.926 0.277019 -0.12556 -0.952625
-20.1047 -10.9861 10.3837 0.0714146 -0.930488 0.359294
-10.9235 -8.4425 4.6665 0.712314 0.697913 -0.0743393
-17.892 -15.428 9.281 0.116394 -0.190557 0.974751
-14.464 -7.162 12.191 0.114718 0.636867 0.762391
-16.33 -16.601 8.361 0.615923 -0.571743 0.541986
-12.2902 -7.80613 4.51762 0.383876 0.81815 -0.428101
-19.9814 -11.0499 6.23387 -0.420198 0.121153 -0.899308
-15.3359 -7.39187 12.6465 0.325666 0.554776 0.765614
-13.0129 -10.0099 2.87462 -0.573655 -0.0963802 -0.813407
-14.7009 -6.59762 11.1679 0.0296261 0.873256 0.48636
-18.3609 -14.2872 5.9515 -0.00733023 -0.0488615 -0.998779
-13.316 -8.237 3.639 -0.437458 0.564787 -0.699748
-19.2903 -8.58975 6.42 -0.340881 0.769253 -0.540417
-17.4771 -8.27312 14.8329 0.768646 0.0622127 0.636642
-13.3769 -7.07369 4.50744 -0.112079 0.745032 -0.657546
-15.9235 -6.88912 6.91913 -0.76091 0.44196 -0.475066
-20.4727 -10.84 11.5573 0.178683 -0.983373 0.0324074
-20.1175 -13.1535 6.00425 -0.293098 0.0207855 -0.955856
-16.797 -7.092 8.42344 -0.523127 0.761681 -0.382335
-12.649 -8.50275 2.91175 -0.315555 0.609038 -0.727666
-19.798 -9.5555 6.1505 -0.685014 0.268413 -0.677282
-13.6648 -6.5765 6.081 0.0196493 0.899341 -0.436807
-15.1096 -5.77063 8.9065 -0.310933 0.949581 0.0402105
-14.932 -5.647 7.568 -0.296399 0.936559 -0.187094
-11.8895 -10.1025 2.57025 0.0482922 -0.387864 -0.920451
-19.0802 -8.20569 8.0365 -0.410943 0.896665 -0.164671
-10.5933 -9.69675 3.23019 0.696395 0.171832 -0.696784
-19.3897 -9.711 14.9198 0.116296 -0.788879 0.603444
-15.0556 -5.97862 6.50075 -0.215017 0.789825 -0.574408
-21.034 -11.12 12.8165 0.113043 -0.956829 0.267767
-18.2022 -7.71938 8.54775 -0.409342 0.880558 -0.238866
-20.5748 -10.6032 13.6053 0.165732 -0.814987 0.555274
-16.563 -16.835 6.796 0.653131 -0.583754 -0.48234
-19.9883 -14.2528 6.0595 -0.390303 -0.208518 -0.896763
-18.7052 -8.91075 15.6088 0.310808 -0.574763 0.756998
-11.257 -8.62237 3.36025 0.542133 0.720849 -0.431819
-20.1029 -8.894 7.0315 -0.638649 0.687559 -0.345528
-21.079 -11.3485 6.5885 -0.682771 0.396006 -0.614006
-16.9757 -6.96663 13.2185 0.376412 0.835002 0.401355
-18.546 -16.659 8.829 -0.355854 -0.558254 0.74948
-21.215 -11.1318 9.35975 -0.744433 -0.667498 -0.0163054
-19.5457 -15.5938 8.26275 -0.595623 -0.639314 0.486324
-19.0273 -15.927 6.49744 -0.528751 -0.455518 -0.716189
-16.148 -6.504 11.925 -0.00710704 0.953404 0.301612
-17.671 -16.924 6.2925 -0.019153 -0.60768 -0.793951
-15.9875 -6.25688 10.7812 -0.121422 0.969182 0.214344
-21.2463 -12.4145 8.2945 -0.828679 -0.207472 0.519853
-21.614 -11.3695 11.8645 0.106096 -0.993403 0.0435226
-20.5295 -14.376 8.6625 -0.55913 -0.270747 0.783626
-11.8837 -9.04 2.4785 0.153279 0.291459 -0.944223
-20.9698 -12.8448 6.57812 -0.735286 -0.113084 -0.668256
-17.671 -17.4522 7.593 -0.0242997 -0.998533 0.0483818
-21.0296 -13.5229 8.1485 -0.891521 -0.183854 0.413991
-16.2255 -6.05162 9.27262 -0.461001 0.876281 -0.140032
-17.5917 -7.18325 9.48575 -0.378216 0.888554 -0.259664
-17.718 -6.87575 14.2485 0.512979 0.736748 0.440518
-21.971 -11.1005 13.301 -0.106652 -0.920423 0.376093
-21.2681 -11.1785 7.83337 -0.94573 0.273552 -0.175396
-18.577 -7.85475 16.1035 0.252151 0.0676973 0.965317
-19.6926 -8.51519 15.6915 -0.354727 -0.0505206 0.933604
-20.5565 -9.0725 15.2525 -0.414445 -0.295017 0.86093
-20.8336 -9.35913 7.769 -0.790303 0.559278 -0.250258
-20.2418 -8.73088 8.9535 -0.578139 0.774489 -0.256755
-21.3085 -9.72125 14.475 -0.296893 -0.396969 0.868487
-17.1421 -6.82312 12.0845 -0.152349 0.98768 0.0357603
-18.9241 -6.96331 15.3907 -0.0184397 0.791083 0.61143
-21.6275 -12.2069 7.23287 -0.991279 -0.0642374 -0.115063
-20.5295 -15.273 8.13 -0.617464 -0.670725 0.410933
-18.546 -17.069 6.767 -0.520319 -0.750265 -0.407887
-19.2083 -16.5305 7.822 -0.776665 -0.627934 0.0499063
-22.2157 -11.2505 11.018 -0.570993 -0.788321 -0.229164
-22.5958 -11.0782 12.0903 -0.547987 -0.836459 -0.00682782
-20.522 -15.3763 7.039 -0.592351 -0.755004 -0.281227
-21.2008 -9.84212 9.65075 -0.859396 0.384081 -0.337521
-22.25 -10.51 14.0815 -0.21873 -0.517828 0.82705
-21.1752 -14.5775 7.42725 -0.952801 -0.297653 -0.0597687
-17.3175 -6.78494 10.7539 -0.388625 0.920736 -0.0348559
-18.6612 -6.53963 13.6825 -0.000841628 0.999542 0.0302569
-18.7201 -6.78025 12.6282 -0.152706 0.974744 -0.162957
-22.468 -10.2434 10.5262 -0.807436 0.0115416 -0.589843
-23.1501 -10.4362 13.4981 -0.8196 -0.412353 0.39777
-21.0061 -8.00712 14.7624 -0.648611 0.390745 0.653164
-20.2059 -7.42238 15.0086 -0.50206 0.590406 0.631946
-23.2505 -10.1637 12.119 -0.959695 -0.166601 -0.226338
-19.1464 -7.52119 10.2719 -0.399648 0.857733 -0.323382
-22.5636 -9.17675 13.9983 -0.683619 0.390177 0.616787
-18.7665 -7.0945 11.2499 -0.299586 0.93472 -0.191174
-20.3319 -8.01456 10.5962 -0.518208 0.814055 -0.262249
-21.3429 -8.80112 10.9245 -0.570952 0.665772 -0.480377
3 181 185 163
3 185 174 163
3 174 156 131
3 156 180 171
3 160 159 181
3 165 182 159
3 181 159 182
3 160 127 159
3 87 127 131
3 147 87 129
3 87 131 129
3 147 170 140
3 86 140 146
3 146 140 157
3 170 179 140
3 179 188 173
3 188 162 173
3 155 165 113
3 79 39 82
3 58 39 25
3 25 39 5
3 37 39 87
3 39 79 87
3 116 66 87
3 87 66 37
3 116 100 66
3 86 152 148
3 146 166 152
3 152 166 150
3 152 150 175
3 150 137 106
3 137 157 106
3 106 157 120
3 120 157 161
3 136 161 125
3 162 187 184
3 125 162 130
3 118 154 176
3 186 176 154
3 138 164 178
3 164 138 143
3 143 138 107
3 138 113 96
3 138 96 107
3 113 82 96
3 96 82 58
3 71 58 46
3 71 43 36
3 37 66 31
3 31 66 53
3 31 53 27
3 27 53 49
3 94 102 62
3 102 94 139
3 94 49 86
3 94 141 139
3 139 141 169
3 167 172 141
3 141 172 142
3 141 142 169
3 133 175 150
3 142 133 110
3 142 110 99
3 74 106 75
3 75 106 95
3 106 120 95
3 120 136 112
3 112 90 81
3 90 130 118
3 118 153 122
3 115 118 123
3 122 123 118
3 145 122 153
3 145 176 143
3 109 143 107
3 109 107 103
3 103 68 109
3 103 107 71
3 71 68 103
3 44 38 68
3 17 21 6
3 6 4 17
3 8 17 4
3 6 21 18
3 18 21 36
3 36 43 18
3 6 1 4
3 6 11 1
3 1 11 5
3 27 15 12
3 61 62 102
3 61 97 54
3 54 97 57
3 97 99 57
3 57 99 72
3 72 99 110
3 72 110 74
3 14 34 13
3 34 45 13
3 63 45 75
3 63 75 95
3 51 16 33
3 63 81 33
3 51 56 88
3 115 83 88
3 83 128 121
3 83 121 80
3 80 121 114
3 123 78 128
3 121 128 78
3 78 70 121
3 92 123 122
3 77 48 92
3 78 92 48
3 48 70 78
3 41 48 77
3 48 42 70
3 69 67 109
3 17 8 26
3 24 8 9
3 4 9 8
3 15 30 14
3 3 15 14
3 30 35 14
3 16 22 7
3 16 7 13
3 50 22 40
3 22 16 40
3 16 47 40
3 40 47 76
3 40 76 73
3 76 47 80
3 47 51 80
3 76 114 111
3 76 111 119
3 111 114 105
3 111 105 119
3 114 91 105
3 64 91 121
3 64 55 91
3 64 32 55
3 32 59 55
3 32 9 20
3 59 32 28
3 20 28 32
3 20 9 10
3 10 28 20
3 52 59 28
3 28 60 52
3 59 85 101
3 85 59 52
3 55 105 91
3 135 126 149
3 126 124 149
3 174 131 163
3 87 79 127
3 116 87 147
3 100 116 147
3 100 140 86
3 140 100 147
3 157 140 173
3 157 173 161
3 173 140 179
3 162 161 173
3 187 162 188
3 186 184 187
3 58 82 39
3 19 5 39
3 19 39 37
3 86 53 66
3 86 66 100
3 86 49 53
3 162 125 161
3 118 130 154
3 186 154 184
3 143 176 164
3 107 96 71
3 58 71 96
3 12 5 19
3 12 19 31
3 37 31 19
3 12 31 27
3 88 118 115
3 109 98 122
3 109 122 145
3 143 109 145
3 67 98 109
3 63 33 45
3 45 33 13
3 13 33 16
3 56 51 33
3 56 33 81
3 88 56 118
3 118 56 90
3 90 56 81
3 51 88 83
3 80 51 83
3 92 78 123
3 26 42 48
3 26 48 41
3 24 26 8
3 3 2 0
3 0 2 4
3 4 2 9
3 5 3 0
3 1 5 0
3 4 1 0
3 15 3 12
3 12 3 5
3 3 13 7
3 3 7 2
3 2 7 10
3 2 10 9
3 10 7 22
3 26 24 42
3 50 28 22
3 10 22 28
3 180 183 171
3 180 156 174
3 180 174 185
3 127 160 163
3 163 160 181
3 147 129 171
3 156 171 129
3 156 129 131
3 183 179 171
3 171 179 170
3 171 170 147
3 177 165 155
3 158 165 159
3 158 159 134
3 158 134 113
3 113 165 158
3 82 127 79
3 82 113 134
3 82 134 127
3 127 134 159
3 146 152 86
3 166 157 137
3 166 137 150
3 166 146 157
3 120 161 136
3 184 154 162
3 130 162 154
3 176 186 164
3 178 164 186
3 113 138 155
3 177 155 138
3 138 178 177
3 58 25 46
3 46 43 71
3 43 46 25
3 94 62 49
3 148 94 86
3 141 94 148
3 172 167 175
3 175 133 172
3 172 133 142
3 167 141 148
3 167 148 175
3 175 148 152
3 74 110 133
3 74 133 117
3 117 133 150
3 150 106 117
3 117 106 74
3 136 125 112
3 90 112 125
3 130 90 125
3 176 153 118
3 145 153 176
3 21 38 44
3 44 36 21
3 21 17 38
3 44 68 71
3 44 71 36
3 23 25 11
3 23 11 6
3 23 6 18
3 43 23 18
3 23 43 25
3 11 25 5
3 62 27 49
3 27 62 29
3 27 29 15
3 29 62 61
3 97 104 132
3 104 151 132
3 97 132 99
3 104 61 102
3 104 102 139
3 104 139 151
3 132 151 144
3 99 132 144
3 144 151 168
3 144 168 142
3 99 144 142
3 151 139 169
3 168 151 169
3 168 169 142
3 104 97 61
3 74 45 34
3 45 74 75
3 81 63 95
3 81 95 112
3 95 120 112
3 128 115 123
3 128 83 115
3 67 77 98
3 77 92 98
3 98 92 122
3 77 67 41
3 38 69 68
3 38 26 69
3 69 109 68
3 26 38 17
3 30 29 54
3 30 54 57
3 30 57 35
3 30 15 29
3 29 61 54
3 72 74 34
3 35 72 34
3 72 35 57
3 35 34 14
3 16 51 47
3 114 121 91
3 114 76 80
3 121 70 64
3 70 42 64
3 64 42 24
3 64 24 32
3 24 9 32
3 13 3 14
3 73 84 65
3 65 84 50
3 50 40 65
3 65 40 73
3 76 108 73
3 73 108 124
3 84 73 124
3 84 124 93
3 84 93 60
3 84 60 50
3 50 60 28
3 93 124 126
3 126 135 85
3 85 135 101
3 101 135 105
3 135 149 119
3 149 108 119
3 119 105 135
3 149 124 108
3 76 119 108
3 105 55 101
3 101 55 59
3 89 60 93
3 89 93 126
3 89 126 85
3 89 85 52
3 89 52 60
3 69 26 41
3 69 41 67
3 163 131 127
