ply
format ascii 1.0
comment Generated by PyMesh
element vertex 132
property float x
property float y
property float z
property float nx
property float ny
property float nz
element face 237
property list uchar int vertex_indices
end_header
-10.6932 -9.33603 5.83038 0.856452 0.0908443 0.508171
-10.0812 -9.64756 4.613 0.930022 0.363453 0.0544062
-10.49 -10.6082 5.22475 0.703015 -0.398245 0.589212
-10.9235 -8.4425 4.6665 0.712314 0.697913 -0.0743393
-11.4354 -8.68175 7.05188 0.906893 -0.122837 0.403059
-11.4478 -7.79975 5.989 0.823888 0.557988 -0.0992903
-11.751 -10.7425 5.8105 0.396025 -0.647829 0.650755
-9.833 -10.511 4.03075 0.936734 -0.324897 -0.130271
-10.8741 -11.4235 4.4755 0.475498 -0.856857 0.199244
-11.812 -9.762 7.06 0.615945 -0.653441 0.440031
-11.257 -8.62237 3.36025 0.542133 0.720849 -0.431819
-10.5933 -9.69675 3.23019 0.696395 0.171832 -0.696784
-12.376 -7.104 5.54775 0.484044 0.783913 -0.38882
-12.0107 -11.6585 5.02125 0.0771251 -0.882121 0.464665
-12.2902 -7.80613 4.51762 0.383876 0.81815 -0.428101
-11.6785 -6.84125 6.825 0.838956 0.538302 -0.0799012
-11.8993 -8.36287 8.442 0.964895 -0.0701074 0.253104
-13.372 -10.6006 6.02413 -0.0596607 -0.878413 0.474163
-12.506 -9.99162 7.804 0.635587 -0.747884 0.191569
-12.8769 -10.1391 6.88319 0.131502 -0.934215 0.331585
-10.8845 -11.1531 3.41825 0.454185 -0.617366 -0.64232
-11.9443 -11.6205 3.769 0.0721648 -0.886644 -0.456788
-11.8837 -9.04 2.4785 0.153279 0.291459 -0.944223
-12.859 -11.912 4.451 -0.309202 -0.947626 -0.0799973
-12.2273 -6.29025 7.618 0.471934 0.879836 0.0562706
-11.8705 -7.17175 8.259 0.864563 0.350963 0.359662
-13.3769 -7.07369 4.50744 -0.112079 0.745032 -0.657546
-12.649 -8.50275 2.91175 -0.315555 0.609038 -0.727666
-12.3398 -7.645 9.37088 0.924471 0.364109 0.113044
-12.103 -9.03475 9.50412 0.980273 -0.191873 0.0474305
-11.8895 -10.1025 2.57025 0.0482922 -0.387864 -0.920451
-13.316 -8.237 3.639 -0.437458 0.564787 -0.699748
-13.6648 -6.5765 6.081 0.0196493 0.899341 -0.436807
-13.6117 -11.175 4.89675 -0.696635 -0.71703 -0.0238453
-14.7054 -10.5063 5.86097 -0.4303 -0.792922 -0.431412
-14.445 -10.3615 6.8575 0.282855 -0.951239 0.123036
-13.9075 -10.017 7.865 0.259067 -0.965505 0.0261541
-12.6095 -10.0452 9.3735 0.542641 -0.838511 -0.0493975
-13.272 -6.136 7.7405 0.294234 0.941491 -0.164379
-12.6625 -6.508 8.608 0.680533 0.704461 0.201519
-13.2327 -11.0689 3.64887 -0.603856 -0.520526 -0.603664
-12.8751 -6.93699 9.90541 0.835044 0.540928 0.100493
-13.0129 -10.0099 2.87462 -0.573655 -0.0963802 -0.813407
-11.9755 -8.58128 10.676 0.966685 -0.248206 -0.0625664
-13.6791 -9.44462 3.96638 -0.784663 -0.0162267 -0.619709
-14.569 -7.8455 4.5965 -0.689979 0.36658 -0.624138
-15.515 -10.8661 6.57281 0.48398 -0.503505 -0.715714
-14.8977 -7.449 5.739 -0.628185 0.379633 -0.679163
-15.0556 -5.97862 6.50075 -0.215017 0.789825 -0.574408
-14.1222 -10.2362 9.119 0.317312 -0.932536 -0.172307
-15.0331 -10.8427 8.19519 0.794612 -0.606942 0.0145697
-14.104 -5.607 8.4465 0.193419 0.970278 -0.145428
-13.241 -5.649 9.247 0.614975 0.780192 0.114477
-13.458 -6.166 10.4875 0.45716 0.797129 0.394449
-12.7347 -6.67925 11.2995 0.542763 0.809233 0.224834
-13.8919 -10.6025 10.1834 0.261635 -0.89178 -0.369156
-16.3687 -9.7295 6.31975 0.0285716 0.0449732 -0.99858
-14.4462 -9.07288 4.63263 -0.778934 -0.231027 -0.582999
-12.9436 -10.2224 11.019 0.731517 -0.668141 -0.135903
-11.8664 -7.89288 11.6814 0.925801 0.288131 0.244691
-14.932 -5.647 7.568 -0.296399 0.936559 -0.187094
-15.3691 -8.4265 6.08112 -0.674685 0.13659 -0.725358
-12.197 -9.42212 11.7636 0.862853 -0.415286 0.288135
-15.5191 -12.0419 7.088 0.91038 0.0224387 -0.413164
-15.9235 -6.88912 6.91913 -0.76091 0.44196 -0.475066
-15.1096 -5.77063 8.9065 -0.310933 0.949581 0.0402105
-14.301 -5.57575 9.97925 -0.0692064 0.947961 0.310774
-16.6131 -12.3586 6.12388 0.345698 -0.0165249 -0.9382
-15.7953 -11.7142 9.2675 0.362476 -0.599477 0.71361
-13.0522 -7.41862 12.387 0.195902 0.639444 0.74346
-13.02 -10.359 12.2035 0.696805 -0.463734 0.547187
-12.423 -8.28925 12.7095 0.46641 0.0899128 0.879987
-14.7009 -6.59762 11.1679 0.0296261 0.873256 0.48636
-17.0509 -8.59725 6.72237 -0.122438 0.665458 -0.736325
-17.6164 -10.9056 6.06619 0.183887 -0.0585972 -0.981199
-16.3965 -7.80387 7.19375 -0.64199 0.406949 -0.649801
-15.4423 -12.6602 8.57187 0.852243 -0.0237596 0.522606
-14.344 -11.6005 11.3425 0.168142 -0.957274 -0.235276
-17.8595 -9.8705 5.769 0.224566 0.00574713 -0.974442
-13.5262 -11.3118 12.1214 0.505235 -0.737635 0.447921
-13.2242 -9.37725 12.7205 0.361253 -0.155347 0.919437
-15.5977 -11.0153 10.756 -0.0446271 -0.998487 -0.032134
-15.6615 -13.451 6.55475 0.651625 -0.0982242 -0.752155
-14.9621 -13.321 7.748 0.99373 -0.101835 -0.0461542
-16.2255 -6.05162 9.27262 -0.461001 0.876281 -0.140032
-18.2376 -8.663 6.14975 0.134453 0.637763 -0.758407
-16.797 -7.092 8.42344 -0.523127 0.761681 -0.382335
-14.464 -7.162 12.191 0.114718 0.636867 0.762391
-16.9205 -12.4824 9.382 0.135998 -0.151947 0.978988
-18.0842 -8.20588 7.21425 -0.134937 0.904376 -0.404841
-18.8111 -11.0901 5.96569 -0.0226724 -0.183419 -0.982773
-15.7753 -13.6415 9.037 0.598663 -0.155371 0.785788
-17.0993 -11.123 9.728 0.050641 -0.657794 0.751493
-15.9875 -6.25688 10.7812 -0.121422 0.969182 0.214344
-18.9745 -9.794 5.5925 -0.196269 0.14308 -0.970055
-14.3614 -9.91488 12.9845 0.234477 -0.201325 0.951046
-14.4009 -8.38313 12.5551 0.107231 0.209066 0.972005
-18.3759 -12.6317 6.00986 0.0137997 -0.00136579 -0.999904
-16.148 -6.504 11.925 -0.00710704 0.953404 0.301612
-15.1456 -11.1446 12.3993 -0.2113 -0.771271 0.600411
-15.3359 -7.39187 12.6465 0.325666 0.554776 0.765614
-16.8307 -10.4169 10.779 -0.153617 -0.908316 0.389055
-19.2903 -8.58975 6.42 -0.340881 0.769253 -0.540417
-17.024 -14.482 6.2055 0.297968 -0.0577432 -0.952828
-16.202 -14.757 6.7335 0.693306 -0.281304 -0.663472
-15.4785 -14.6277 7.97256 0.911759 -0.386778 0.138194
-18.0556 -12.7589 9.22262 -0.0476964 -0.0733478 0.996165
-19.798 -9.5555 6.1505 -0.685014 0.268413 -0.677282
-17.5917 -7.18325 9.48575 -0.378216 0.888554 -0.259664
-19.9814 -11.0499 6.23387 -0.420198 0.121153 -0.899308
-15.342 -10.0555 13.1505 -0.0446152 -0.133316 0.990069
-19.0802 -8.20569 8.0365 -0.410943 0.896665 -0.164671
-18.2022 -7.71938 8.54775 -0.409342 0.880558 -0.238866
-18.2342 -11.6804 9.38488 0.0164741 -0.403704 0.914741
-17.1421 -6.82312 12.0845 -0.152349 0.98768 0.0357603
-17.3175 -6.78494 10.7539 -0.388625 0.920736 -0.0348559
-17.9295 -10.4807 10.9862 0.203772 -0.92024 0.334119
-20.1029 -8.894 7.0315 -0.638649 0.687559 -0.345528
-16.3779 -15.1609 8.73063 0.603037 -0.285722 0.744788
-17.3923 -14.1713 9.258 0.0915104 -0.0876395 0.99194
-17.3449 -10.0703 12.3079 0.0072831 -0.933307 0.359005
-17.642 -15.301 5.926 0.277019 -0.12556 -0.952625
-16.241 -8.311 13.189 0.560006 -0.0170981 0.828312
-18.9158 -11.0653 10.1265 0.121158 -0.873156 0.472144
-16.9757 -6.96663 13.2185 0.376412 0.835002 0.401355
-18.3609 -14.2872 5.9515 -0.00733023 -0.0488615 -0.998779
-20.1175 -13.1535 6.00425 -0.293098 0.0207855 -0.955856
-15.9945 -15.913 7.365 0.922354 -0.288572 -0.256885
-16.3324 -9.57938 12.9113 0.0748673 -0.400341 0.913303
-21.079 -11.3485 6.5885 -0.682771 0.396006 -0.614006
-19.9883 -14.2528 6.0595 -0.390303 -0.208518 -0.896763
-19.4322 -12.1868 9.29225 -0.212148 -0.370685 0.904205
3 128 120 99
3 99 120 81
3 86 108 115
3 114 124 98
3 98 124 100
3 124 122 100
3 96 128 110
3 96 95 80
3 116 123 92
3 92 123 113
3 92 113 88
3 88 113 106
3 97 109 90
3 90 109 94
3 109 107 94
3 107 117 102
3 102 89 85
3 89 112 86
3 86 84 65
3 64 86 60
3 65 60 86
3 93 65 84
3 93 115 98
3 72 98 100
3 72 100 87
3 87 69 72
3 87 100 96
3 96 69 87
3 71 59 69
3 43 62 58
3 58 37 43
3 29 43 37
3 58 62 70
3 70 62 80
3 80 95 70
3 58 55 37
3 58 77 55
3 55 77 81
3 88 76 68
3 118 127 105
3 105 127 104
3 127 121 104
3 104 121 103
3 103 121 125
3 103 125 97
3 63 67 46
3 67 74 46
3 78 74 90
3 78 90 94
3 61 34 56
3 78 85 56
3 61 73 75
3 64 47 75
3 47 48 32
3 47 32 45
3 45 32 26
3 60 38 48
3 32 48 38
3 38 24 32
3 51 60 65
3 52 39 51
3 38 51 39
3 39 24 38
3 41 39 52
3 39 25 24
3 54 53 72
3 43 29 28
3 16 29 18
3 37 18 29
3 76 83 63
3 50 76 63
3 83 82 63
3 34 17 35
3 34 35 46
3 13 17 33
3 17 34 33
3 34 57 33
3 33 57 44
3 33 44 40
3 44 57 45
3 57 61 45
3 44 26 31
3 44 31 27
3 31 26 14
3 31 14 27
3 26 12 14
3 15 12 32
3 15 5 12
3 15 4 5
3 4 0 5
3 4 18 9
3 0 4 6
3 9 6 4
3 9 18 19
3 19 6 9
3 2 0 6
3 6 8 2
3 0 1 3
3 1 0 2
3 5 14 12
3 10 11 22
3 11 30 22
3 101 81 120
3 101 120 116
3 131 113 123
3 131 106 113
3 86 112 108
3 98 115 114
3 100 122 96
3 128 96 122
3 68 81 101
3 68 101 92
3 116 92 101
3 68 92 88
3 75 86 64
3 72 66 65
3 72 65 93
3 98 72 93
3 53 66 72
3 78 56 74
3 74 56 46
3 46 56 34
3 73 61 56
3 73 56 85
3 75 73 86
3 86 73 89
3 89 73 85
3 61 75 47
3 45 61 47
3 51 38 60
3 28 25 39
3 28 39 41
3 16 28 29
3 50 36 49
3 49 36 37
3 37 36 18
3 81 50 49
3 55 81 49
3 37 55 49
3 76 50 68
3 68 50 81
3 50 46 35
3 50 35 36
3 36 35 19
3 36 19 18
3 19 35 17
3 28 16 25
3 13 6 17
3 19 17 6
3 128 99 110
3 110 95 96
3 95 110 99
3 97 125 130
3 97 130 126
3 126 109 97
3 117 111 102
3 89 102 111
3 112 89 111
3 115 84 86
3 93 84 115
3 62 59 71
3 71 80 62
3 62 43 59
3 71 69 96
3 71 96 80
3 79 99 77
3 79 77 58
3 79 58 70
3 95 79 70
3 79 95 99
3 77 99 81
3 119 88 106
3 88 119 91
3 88 91 76
3 91 119 118
3 97 74 67
3 74 97 90
3 85 78 94
3 85 94 102
3 94 107 102
3 48 64 60
3 48 47 64
3 53 52 66
3 52 51 66
3 66 51 65
3 52 53 41
3 59 54 69
3 59 28 54
3 54 72 69
3 28 59 43
3 83 91 105
3 83 105 104
3 83 104 82
3 83 76 91
3 91 118 105
3 103 97 67
3 82 103 67
3 103 82 104
3 82 67 63
3 34 61 57
3 26 32 12
3 26 44 45
3 32 24 15
3 24 25 15
3 15 25 16
3 15 16 4
3 16 18 4
3 46 50 63
3 40 21 23
3 23 21 13
3 13 33 23
3 23 33 40
3 44 42 40
3 40 42 30
3 21 40 30
3 21 30 20
3 21 20 8
3 21 8 13
3 13 8 6
3 20 30 11
3 11 10 1
3 1 10 3
3 3 10 14
3 10 22 27
3 22 42 27
3 27 14 10
3 22 30 42
3 44 27 42
3 14 5 3
3 3 5 0
3 7 8 20
3 7 20 11
3 7 11 1
3 7 1 2
3 7 2 8
3 54 28 41
3 54 41 53
