ply
format ascii 1.0
comment Generated by PyMesh
element vertex 122
property float x
property float y
property float z
property float nx
property float ny
property float nz
element face 212
property list uchar int vertex_indices
end_header
-19.0273 -15.927 6.49744 -0.528751 -0.455518 -0.716189
-18.546 -17.069 6.767 -0.520319 -0.750265 -0.407887
-19.2083 -16.5305 7.822 -0.776665 -0.627934 0.0499063
-17.642 -15.301 5.926 0.277019 -0.12556 -0.952625
-20.522 -15.3763 7.039 -0.592351 -0.755004 -0.281227
-17.671 -16.924 6.2925 -0.019153 -0.60768 -0.793951
-18.3609 -14.2872 5.9515 -0.00733023 -0.0488615 -0.998779
-19.5457 -15.5938 8.26275 -0.595623 -0.639314 0.486324
-19.9883 -14.2528 6.0595 -0.390303 -0.208518 -0.896763
-17.671 -17.4522 7.593 -0.0242997 -0.998533 0.0483818
-18.546 -16.659 8.829 -0.355854 -0.558254 0.74948
-17.024 -14.482 6.2055 0.297968 -0.0577432 -0.952828
-20.5295 -15.273 8.13 -0.617464 -0.670725 0.410933
-21.1752 -14.5775 7.42725 -0.952801 -0.297653 -0.0597687
-16.563 -16.835 6.796 0.653131 -0.583754 -0.48234
-20.1175 -13.1535 6.00425 -0.293098 0.0207855 -0.955856
-16.202 -14.757 6.7335 0.693306 -0.281304 -0.663472
-20.5295 -14.376 8.6625 -0.55913 -0.270747 0.783626
-18.3759 -12.6317 6.00986 0.0137997 -0.00136579 -0.999904
-18.6268 -14.3872 9.21212 -0.221777 -0.135436 0.965646
-20.9698 -12.8448 6.57812 -0.735286 -0.113084 -0.668256
-15.9945 -15.913 7.365 0.922354 -0.288572 -0.256885
-21.0296 -13.5229 8.1485 -0.891521 -0.183854 0.413991
-17.892 -15.428 9.281 0.116394 -0.190557 0.974751
-16.33 -16.601 8.361 0.615923 -0.571743 0.541986
-15.6615 -13.451 6.55475 0.651625 -0.0982242 -0.752155
-15.4785 -14.6277 7.97256 0.911759 -0.386778 0.138194
-16.6131 -12.3586 6.12388 0.345698 -0.0165249 -0.9382
-21.6275 -12.2069 7.23287 -0.991279 -0.0642374 -0.115063
-17.3923 -14.1713 9.258 0.0915104 -0.0876395 0.99194
-18.8111 -11.0901 5.96569 -0.0226724 -0.183419 -0.982773
-19.9814 -11.0499 6.23387 -0.420198 0.121153 -0.899308
-21.2463 -12.4145 8.2945 -0.828679 -0.207472 0.519853
-21.079 -11.3485 6.5885 -0.682771 0.396006 -0.614006
-18.0556 -12.7589 9.22262 -0.0476964 -0.0733478 0.996165
-17.6164 -10.9056 6.06619 0.183887 -0.0585972 -0.981199
-16.3779 -15.1609 8.73063 0.603037 -0.285722 0.744788
-14.9621 -13.321 7.748 0.99373 -0.101835 -0.0461542
-15.5191 -12.0419 7.088 0.91038 0.0224387 -0.413164
-19.4322 -12.1868 9.29225 -0.212148 -0.370685 0.904205
-21.2681 -11.1785 7.83337 -0.94573 0.273552 -0.175396
-15.7753 -13.6415 9.037 0.598663 -0.155371 0.785788
-18.9745 -9.794 5.5925 -0.196269 0.14308 -0.970055
-18.2342 -11.6804 9.38488 0.0164741 -0.403704 0.914741
-17.8595 -9.8705 5.769 0.224566 0.00574713 -0.974442
-16.9205 -12.4824 9.382 0.135998 -0.151947 0.978988
-15.4423 -12.6602 8.57187 0.852243 -0.0237596 0.522606
-19.798 -9.5555 6.1505 -0.685014 0.268413 -0.677282
-15.515 -10.8661 6.57281 0.48398 -0.503505 -0.715714
-21.215 -11.1318 9.35975 -0.744433 -0.667498 -0.0163054
-16.3687 -9.7295 6.31975 0.0285716 0.0449732 -0.99858
-18.9158 -11.0653 10.1265 0.121158 -0.873156 0.472144
-15.0331 -10.8427 8.19519 0.794612 -0.606942 0.0145697
-20.1047 -10.9861 10.3837 0.0714146 -0.930488 0.359294
-17.0993 -11.123 9.728 0.050641 -0.657794 0.751493
-18.2376 -8.663 6.14975 0.134453 0.637763 -0.758407
-19.2903 -8.58975 6.42 -0.340881 0.769253 -0.540417
-20.1029 -8.894 7.0315 -0.638649 0.687559 -0.345528
-14.7054 -10.5063 5.86097 -0.4303 -0.792922 -0.431412
-15.7953 -11.7142 9.2675 0.362476 -0.599477 0.71361
-14.445 -10.3615 6.8575 0.282855 -0.951239 0.123036
-20.8336 -9.35913 7.769 -0.790303 0.559278 -0.250258
-21.2008 -9.84212 9.65075 -0.859396 0.384081 -0.337521
-17.0509 -8.59725 6.72237 -0.122438 0.665458 -0.736325
-15.3691 -8.4265 6.08112 -0.674685 0.13659 -0.725358
-22.468 -10.2434 10.5262 -0.807436 0.0115416 -0.589843
-22.2157 -11.2505 11.018 -0.570993 -0.788321 -0.229164
-17.9295 -10.4807 10.9862 0.203772 -0.92024 0.334119
-18.0842 -8.20588 7.21425 -0.134937 0.904376 -0.404841
-20.4727 -10.84 11.5573 0.178683 -0.983373 0.0324074
-14.1222 -10.2362 9.119 0.317312 -0.932536 -0.172307
-13.9075 -10.017 7.865 0.259067 -0.965505 0.0261541
-16.8307 -10.4169 10.779 -0.153617 -0.908316 0.389055
-13.372 -10.6006 6.02413 -0.0596607 -0.878413 0.474163
-21.614 -11.3695 11.8645 0.106096 -0.993403 0.0435226
-19.0802 -8.20569 8.0365 -0.410943 0.896665 -0.164671
-20.2418 -8.73088 8.9535 -0.578139 0.774489 -0.256755
-13.6117 -11.175 4.89675 -0.696635 -0.71703 -0.0238453
-15.5977 -11.0153 10.756 -0.0446271 -0.998487 -0.032134
-12.8769 -10.1391 6.88319 0.131502 -0.934215 0.331585
-16.3965 -7.80387 7.19375 -0.64199 0.406949 -0.649801
-14.4462 -9.07288 4.63263 -0.778934 -0.231027 -0.582999
-21.3429 -8.80112 10.9245 -0.570952 0.665772 -0.480377
-19.6565 -10.831 12.367 0.274914 -0.94072 0.198669
-14.8977 -7.449 5.739 -0.628185 0.379633 -0.679163
-22.5958 -11.0782 12.0903 -0.547987 -0.836459 -0.00682782
-22.8326 -9.38325 11.3923 -0.723974 0.485879 -0.489677
-13.8919 -10.6025 10.1834 0.261635 -0.89178 -0.369156
-18.2022 -7.71938 8.54775 -0.409342 0.880558 -0.238866
-17.3449 -10.0703 12.3079 0.0072831 -0.933307 0.359005
-12.506 -9.99162 7.804 0.635587 -0.747884 0.191569
-21.034 -11.12 12.8165 0.113043 -0.956829 0.267767
-14.569 -7.8455 4.5965 -0.689979 0.36658 -0.624138
-23.2505 -10.1637 12.119 -0.959695 -0.166601 -0.226338
-12.6095 -10.0452 9.3735 0.542641 -0.838511 -0.0493975
-12.859 -11.912 4.451 -0.309202 -0.947626 -0.0799973
-11.812 -9.762 7.06 0.615945 -0.653441 0.440031
-15.9235 -6.88912 6.91913 -0.76091 0.44196 -0.475066
-16.797 -7.092 8.42344 -0.523127 0.761681 -0.382335
-13.2327 -11.0689 3.64887 -0.603856 -0.520526 -0.603664
-13.6791 -9.44462 3.96638 -0.784663 -0.0162267 -0.619709
-11.751 -10.7425 5.8105 0.396025 -0.647829 0.650755
-14.344 -11.6005 11.3425 0.168142 -0.957274 -0.235276
-20.3319 -8.01456 10.5962 -0.518208 0.814055 -0.262249
-12.0107 -11.6585 5.02125 0.0771251 -0.882121 0.464665
-18.8803 -10.169 13.2294 0.33354 -0.863241 0.378902
-21.94 -8.28475 12.0583 -0.558803 0.808481 -0.184656
-15.1456 -11.1446 12.3993 -0.2113 -0.771271 0.600411
-21.971 -11.1005 13.301 -0.106652 -0.920423 0.376093
-20.5748 -10.6032 13.6053 0.165732 -0.814987 0.555274
-13.6648 -6.5765 6.081 0.0196493 0.899341 -0.436807
-23.1583 -9.1395 12.735 -0.882032 0.469308 0.0420707
-12.9436 -10.2224 11.019 0.731517 -0.668141 -0.135903
-19.1464 -7.52119 10.2719 -0.399648 0.857733 -0.323382
-15.0556 -5.97862 6.50075 -0.215017 0.789825 -0.574408
-23.1501 -10.4362 13.4981 -0.8196 -0.412353 0.39777
-17.5917 -7.18325 9.48575 -0.378216 0.888554 -0.259664
-16.3324 -9.57938 12.9113 0.0748673 -0.400341 0.913303
-12.103 -9.03475 9.50412 0.980273 -0.191873 0.0474305
-11.9443 -11.6205 3.769 0.0721648 -0.886644 -0.456788
-11.4354 -8.68175 7.05188 0.906893 -0.122837 0.403059
-13.3769 -7.07369 4.50744 -0.112079 0.745032 -0.657546
3 108 115 85
3 93 111 86
3 74 83 91
3 83 109 91
3 74 66 49
3 39 49 32
3 32 49 40
3 66 65 49
3 65 82 62
3 82 76 62
3 117 89 107
3 107 89 78
3 67 89 83
3 89 105 83
3 69 51 83
3 83 51 67
3 69 53 51
3 39 22 17
3 32 28 22
3 22 28 20
3 22 20 13
3 20 33 31
3 33 40 31
3 31 40 47
3 47 40 61
3 57 61 75
3 76 103 113
3 75 76 88
3 67 51 54
3 54 51 43
3 54 43 45
3 45 43 34
3 19 23 29
3 23 19 10
3 19 34 39
3 19 7 10
3 10 7 2
3 12 4 7
3 7 4 0
3 7 0 2
3 8 13 20
3 0 8 6
3 0 6 3
3 18 31 30
3 30 31 42
3 31 47 42
3 47 57 56
3 56 68 55
3 68 88 98
3 112 87 94
3 112 102 87
3 87 102 78
3 45 46 59
3 36 29 23
3 36 21 26
3 26 21 16
3 21 3 16
3 16 3 11
3 11 3 6
3 11 6 18
3 38 27 48
3 27 35 48
3 44 35 30
3 44 30 42
3 64 58 50
3 44 55 50
3 64 63 80
3 97 84 80
3 84 114 110
3 84 110 92
3 92 110 121
3 94 90 118
3 46 37 38
3 52 46 38
3 37 25 38
3 58 73 60
3 58 60 48
3 104 73 77
3 73 58 77
3 58 81 77
3 77 81 100
3 77 100 99
3 100 81 92
3 81 64 92
3 120 90 96
3 96 101 120
3 96 90 79
3 79 101 96
3 69 83 74
3 53 69 74
3 53 49 39
3 49 53 74
3 40 49 62
3 40 62 61
3 62 49 65
3 76 61 62
3 103 76 82
3 72 78 89
3 72 89 67
3 39 43 51
3 39 51 53
3 39 34 43
3 76 75 61
3 98 88 116
3 59 78 72
3 59 72 54
3 67 54 72
3 59 54 45
3 80 98 97
3 44 50 35
3 35 50 48
3 48 50 58
3 63 64 50
3 63 50 55
3 80 63 98
3 98 63 68
3 68 63 55
3 64 80 84
3 92 64 84
3 52 71 70
3 70 71 94
3 94 71 90
3 78 52 70
3 87 78 70
3 94 87 70
3 46 52 59
3 59 52 78
3 52 48 60
3 52 60 71
3 71 60 79
3 71 79 90
3 79 60 73
3 104 101 73
3 79 73 101
3 115 93 85
3 115 111 93
3 74 91 85
3 108 85 91
3 108 91 109
3 86 82 65
3 93 86 65
3 93 65 85
3 85 65 66
3 85 66 74
3 106 82 86
3 106 86 111
3 32 22 39
3 28 40 33
3 28 33 20
3 28 32 40
3 47 61 57
3 113 116 76
3 88 76 116
3 19 29 34
3 17 19 39
3 7 19 17
3 4 12 13
3 13 8 4
3 4 8 0
3 12 7 17
3 12 17 13
3 13 17 22
3 18 6 8
3 18 8 15
3 15 8 20
3 20 31 15
3 15 31 18
3 57 75 56
3 68 56 75
3 88 68 75
3 102 107 78
3 29 45 34
3 45 29 41
3 45 41 46
3 41 29 36
3 21 24 14
3 24 9 14
3 21 14 3
3 24 36 23
3 24 23 10
3 24 10 9
3 14 9 5
3 3 14 5
3 5 9 1
3 5 1 0
3 3 5 0
3 9 10 2
3 1 9 2
3 1 2 0
3 24 21 36
3 18 35 27
3 35 18 30
3 55 44 42
3 55 42 56
3 42 47 56
3 114 84 97
3 37 41 26
3 37 26 16
3 37 16 25
3 37 46 41
3 41 36 26
3 11 18 27
3 25 11 27
3 11 25 16
3 25 27 38
3 58 64 81
3 121 100 92
3 48 52 38
3 99 119 95
3 95 119 104
3 104 77 95
3 95 77 99
