ply
format ascii 1.0
comment Generated by PyMesh
element vertex 186
property float x
property float y
property float z
property float nx
property float ny
property float nz
element face 350
property list uchar int vertex_indices
end_header
-20.2418 -8.73088 8.9535 -0.578139 0.774489 -0.256755
-20.8336 -9.35913 7.769 -0.790303 0.559278 -0.250258
-19.0802 -8.20569 8.0365 -0.410943 0.896665 -0.164671
-21.2008 -9.84212 9.65075 -0.859396 0.384081 -0.337521
-20.3319 -8.01456 10.5962 -0.518208 0.814055 -0.262249
-19.1464 -7.52119 10.2719 -0.399648 0.857733 -0.323382
-21.3429 -8.80112 10.9245 -0.570952 0.665772 -0.480377
-18.2022 -7.71938 8.54775 -0.409342 0.880558 -0.238866
-20.1029 -8.894 7.0315 -0.638649 0.687559 -0.345528
-18.0842 -8.20588 7.21425 -0.134937 0.904376 -0.404841
-21.215 -11.1318 9.35975 -0.744433 -0.667498 -0.0163054
-17.5917 -7.18325 9.48575 -0.378216 0.888554 -0.259664
-22.468 -10.2434 10.5262 -0.807436 0.0115416 -0.589843
-18.7665 -7.0945 11.2499 -0.299586 0.93472 -0.191174
-19.2903 -8.58975 6.42 -0.340881 0.769253 -0.540417
-21.2681 -11.1785 7.83337 -0.94573 0.273552 -0.175396
-19.798 -9.5555 6.1505 -0.685014 0.268413 -0.677282
-19.8096 -7.3305 12.1806 -0.422493 0.867754 -0.261729
-21.94 -8.28475 12.0583 -0.558803 0.808481 -0.184656
-16.797 -7.092 8.42344 -0.523127 0.761681 -0.382335
-22.8326 -9.38325 11.3923 -0.723974 0.485879 -0.489677
-18.2376 -8.663 6.14975 0.134453 0.637763 -0.758407
-17.0509 -8.59725 6.72237 -0.122438 0.665458 -0.736325
-22.2157 -11.2505 11.018 -0.570993 -0.788321 -0.229164
-18.9745 -9.794 5.5925 -0.196269 0.14308 -0.970055
-20.1047 -10.9861 10.3837 0.0714146 -0.930488 0.359294
-17.3175 -6.78494 10.7539 -0.388625 0.920736 -0.0348559
-21.6275 -12.2069 7.23287 -0.991279 -0.0642374 -0.115063
-21.079 -11.3485 6.5885 -0.682771 0.396006 -0.614006
-21.2463 -12.4145 8.2945 -0.828679 -0.207472 0.519853
-18.7201 -6.78025 12.6282 -0.152706 0.974744 -0.162957
-21.89 -8.36 13.2975 -0.697337 0.699089 0.158102
-19.9814 -11.0499 6.23387 -0.420198 0.121153 -0.899308
-23.2505 -10.1637 12.119 -0.959695 -0.166601 -0.226338
-22.5958 -11.0782 12.0903 -0.547987 -0.836459 -0.00682782
-19.4322 -12.1868 9.29225 -0.212148 -0.370685 0.904205
-17.1421 -6.82312 12.0845 -0.152349 0.98768 0.0357603
-16.3965 -7.80387 7.19375 -0.64199 0.406949 -0.649801
-23.1583 -9.1395 12.735 -0.882032 0.469308 0.0420707
-16.2255 -6.05162 9.27262 -0.461001 0.876281 -0.140032
-17.8595 -9.8705 5.769 0.224566 0.00574713 -0.974442
-21.614 -11.3695 11.8645 0.106096 -0.993403 0.0435226
-16.3687 -9.7295 6.31975 0.0285716 0.0449732 -0.99858
-20.559 -7.1895 13.942 -0.497218 0.864605 0.072329
-15.9235 -6.88912 6.91913 -0.76091 0.44196 -0.475066
-18.9158 -11.0653 10.1265 0.121158 -0.873156 0.472144
-20.4727 -10.84 11.5573 0.178683 -0.983373 0.0324074
-20.9698 -12.8448 6.57812 -0.735286 -0.113084 -0.668256
-18.6612 -6.53963 13.6825 -0.000841628 0.999542 0.0302569
-21.0296 -13.5229 8.1485 -0.891521 -0.183854 0.413991
-18.8111 -11.0901 5.96569 -0.0226724 -0.183419 -0.982773
-22.5636 -9.17675 13.9983 -0.683619 0.390177 0.616787
-15.3691 -8.4265 6.08112 -0.674685 0.13659 -0.725358
-15.9875 -6.25688 10.7812 -0.121422 0.969182 0.214344
-15.1096 -5.77063 8.9065 -0.310933 0.949581 0.0402105
-16.148 -6.504 11.925 -0.00710704 0.953404 0.301612
-16.9757 -6.96663 13.2185 0.376412 0.835002 0.401355
-18.2342 -11.6804 9.38488 0.0164741 -0.403704 0.914741
-21.971 -11.1005 13.301 -0.106652 -0.920423 0.376093
-14.932 -5.647 7.568 -0.296399 0.936559 -0.187094
-23.1501 -10.4362 13.4981 -0.8196 -0.412353 0.39777
-17.6164 -10.9056 6.06619 0.183887 -0.0585972 -0.981199
-18.0556 -12.7589 9.22262 -0.0476964 -0.0733478 0.996165
-21.034 -11.12 12.8165 0.113043 -0.956829 0.267767
-21.0061 -8.00712 14.7624 -0.648611 0.390745 0.653164
-20.2059 -7.42238 15.0086 -0.50206 0.590406 0.631946
-20.1175 -13.1535 6.00425 -0.293098 0.0207855 -0.955856
-19.6565 -10.831 12.367 0.274914 -0.94072 0.198669
-20.5295 -14.376 8.6625 -0.55913 -0.270747 0.783626
-17.718 -6.87575 14.2485 0.512979 0.736748 0.440518
-15.515 -10.8661 6.57281 0.48398 -0.503505 -0.715714
-15.0556 -5.97862 6.50075 -0.215017 0.789825 -0.574408
-14.8977 -7.449 5.739 -0.628185 0.379633 -0.679163
-21.1752 -14.5775 7.42725 -0.952801 -0.297653 -0.0597687
-17.9295 -10.4807 10.9862 0.203772 -0.92024 0.334119
-18.3759 -12.6317 6.00986 0.0137997 -0.00136579 -0.999904
-14.104 -5.607 8.4465 0.193419 0.970278 -0.145428
-22.25 -10.51 14.0815 -0.21873 -0.517828 0.82705
-14.7009 -6.59762 11.1679 0.0296261 0.873256 0.48636
-21.3085 -9.72125 14.475 -0.296893 -0.396969 0.868487
-14.7054 -10.5063 5.86097 -0.4303 -0.792922 -0.431412
-18.6268 -14.3872 9.21212 -0.221777 -0.135436 0.965646
-14.301 -5.57575 9.97925 -0.0692064 0.947961 0.310774
-19.9883 -14.2528 6.0595 -0.390303 -0.208518 -0.896763
-18.9241 -6.96331 15.3907 -0.0184397 0.791083 0.61143
-15.3359 -7.39187 12.6465 0.325666 0.554776 0.765614
-17.0993 -11.123 9.728 0.050641 -0.657794 0.751493
-20.5748 -10.6032 13.6053 0.165732 -0.814987 0.555274
-14.569 -7.8455 4.5965 -0.689979 0.36658 -0.624138
-16.9205 -12.4824 9.382 0.135998 -0.151947 0.978988
-14.4462 -9.07288 4.63263 -0.778934 -0.231027 -0.582999
-16.241 -8.311 13.189 0.560006 -0.0170981 0.828312
-20.5565 -9.0725 15.2525 -0.414445 -0.295017 0.86093
-20.5295 -15.273 8.13 -0.617464 -0.670725 0.410933
-19.6926 -8.51519 15.6915 -0.354727 -0.0505206 0.933604
-17.3923 -14.1713 9.258 0.0915104 -0.0876395 0.99194
-13.272 -6.136 7.7405 0.294234 0.941491 -0.164379
-14.445 -10.3615 6.8575 0.282855 -0.951239 0.123036
-20.522 -15.3763 7.039 -0.592351 -0.755004 -0.281227
-15.5191 -12.0419 7.088 0.91038 0.0224387 -0.413164
-18.8803 -10.169 13.2294 0.33354 -0.863241 0.378902
-16.6131 -12.3586 6.12388 0.345698 -0.0165249 -0.9382
-16.8307 -10.4169 10.779 -0.153617 -0.908316 0.389055
-13.241 -5.649 9.247 0.614975 0.780192 0.114477
-17.4771 -8.27312 14.8329 0.768646 0.0622127 0.636642
-14.464 -7.162 12.191 0.114718 0.636867 0.762391
-19.5457 -15.5938 8.26275 -0.595623 -0.639314 0.486324
-13.6648 -6.5765 6.081 0.0196493 0.899341 -0.436807
-13.458 -6.166 10.4875 0.45716 0.797129 0.394449
-15.0331 -10.8427 8.19519 0.794612 -0.606942 0.0145697
-17.3449 -10.0703 12.3079 0.0072831 -0.933307 0.359005
-17.892 -15.428 9.281 0.116394 -0.190557 0.974751
-13.372 -10.6006 6.02413 -0.0596607 -0.878413 0.474163
-18.577 -7.85475 16.1035 0.252151 0.0676973 0.965317
-13.6791 -9.44462 3.96638 -0.784663 -0.0162267 -0.619709
-18.3609 -14.2872 5.9515 -0.00733023 -0.0488615 -0.998779
-12.6625 -6.508 8.608 0.680533 0.704461 0.201519
-14.4009 -8.38313 12.5551 0.107231 0.209066 0.972005
-13.6117 -11.175 4.89675 -0.696635 -0.71703 -0.0238453
-15.7953 -11.7142 9.2675 0.362476 -0.599477 0.71361
-16.3324 -9.57938 12.9113 0.0748673 -0.400341 0.913303
-13.3769 -7.07369 4.50744 -0.112079 0.745032 -0.657546
-18.7052 -8.91075 15.6088 0.310808 -0.574763 0.756998
-12.2273 -6.29025 7.618 0.471934 0.879836 0.0562706
-19.3897 -9.711 14.9198 0.116296 -0.788879 0.603444
-12.7347 -6.67925 11.2995 0.542763 0.809233 0.224834
-13.9075 -10.017 7.865 0.259067 -0.965505 0.0261541
-15.7753 -13.6415 9.037 0.598663 -0.155371 0.785788
-15.4423 -12.6602 8.57187 0.852243 -0.0237596 0.522606
-17.024 -14.482 6.2055 0.297968 -0.0577432 -0.952828
-19.0273 -15.927 6.49744 -0.528751 -0.455518 -0.716189
-13.0522 -7.41862 12.387 0.195902 0.639444 0.74346
-17.514 -9.25963 14.049 0.49165 -0.685061 0.537562
-19.2083 -16.5305 7.822 -0.776665 -0.627934 0.0499063
-16.3779 -15.1609 8.73063 0.603037 -0.285722 0.744788
-15.5977 -11.0153 10.756 -0.0446271 -0.998487 -0.032134
-18.546 -16.659 8.829 -0.355854 -0.558254 0.74948
-12.8751 -6.93699 9.90541 0.835044 0.540928 0.100493
-15.6615 -13.451 6.55475 0.651625 -0.0982242 -0.752155
-12.8769 -10.1391 6.88319 0.131502 -0.934215 0.331585
-14.9621 -13.321 7.748 0.99373 -0.101835 -0.0461542
-11.8705 -7.17175 8.259 0.864563 0.350963 0.359662
-12.376 -7.104 5.54775 0.484044 0.783913 -0.38882
-14.1222 -10.2362 9.119 0.317312 -0.932536 -0.172307
-17.642 -15.301 5.926 0.277019 -0.12556 -0.952625
-12.859 -11.912 4.451 -0.309202 -0.947626 -0.0799973
-13.316 -8.237 3.639 -0.437458 0.564787 -0.699748
-15.342 -10.0555 13.1505 -0.0446152 -0.133316 0.990069
-13.0129 -10.0099 2.87462 -0.573655 -0.0963802 -0.813407
-13.2327 -11.0689 3.64887 -0.603856 -0.520526 -0.603664
-11.6785 -6.84125 6.825 0.838956 0.538302 -0.0799012
-12.3398 -7.645 9.37088 0.924471 0.364109 0.113044
-11.751 -10.7425 5.8105 0.396025 -0.647829 0.650755
-12.2902 -7.80613 4.51762 0.383876 0.81815 -0.428101
-13.2242 -9.37725 12.7205 0.361253 -0.155347 0.919437
-16.202 -14.757 6.7335 0.693306 -0.281304 -0.663472
-14.3614 -9.91488 12.9845 0.234477 -0.201325 0.951046
-12.649 -8.50275 2.91175 -0.315555 0.609038 -0.727666
-12.423 -8.28925 12.7095 0.46641 0.0899128 0.879987
-12.0107 -11.6585 5.02125 0.0771251 -0.882121 0.464665
-12.506 -9.99162 7.804 0.635587 -0.747884 0.191569
-18.546 -17.069 6.767 -0.520319 -0.750265 -0.407887
-16.33 -16.601 8.361 0.615923 -0.571743 0.541986
-11.8664 -7.89288 11.6814 0.925801 0.288131 0.244691
-15.4785 -14.6277 7.97256 0.911759 -0.386778 0.138194
-11.812 -9.762 7.06 0.615945 -0.653441 0.440031
-15.1456 -11.1446 12.3993 -0.2113 -0.771271 0.600411
-14.344 -11.6005 11.3425 0.168142 -0.957274 -0.235276
-13.8919 -10.6025 10.1834 0.261635 -0.89178 -0.369156
-11.8993 -8.36287 8.442 0.964895 -0.0701074 0.253104
-17.671 -16.924 6.2925 -0.019153 -0.60768 -0.793951
-15.9945 -15.913 7.365 0.922354 -0.288572 -0.256885
-11.4478 -7.79975 5.989 0.823888 0.557988 -0.0992903
-11.9443 -11.6205 3.769 0.0721648 -0.886644 -0.456788
-12.6095 -10.0452 9.3735 0.542641 -0.838511 -0.0493975
-11.8895 -10.1025 2.57025 0.0482922 -0.387864 -0.920451
-17.671 -17.4522 7.593 -0.0242997 -0.998533 0.0483818
-11.8837 -9.04 2.4785 0.153279 0.291459 -0.944223
-13.02 -10.359 12.2035 0.696805 -0.463734 0.547187
-12.103 -9.03475 9.50412 0.980273 -0.191873 0.0474305
-10.49 -10.6082 5.22475 0.703015 -0.398245 0.589212
-12.197 -9.42212 11.7636 0.862853 -0.415286 0.288135
-10.8741 -11.4235 4.4755 0.475498 -0.856857 0.199244
-10.9235 -8.4425 4.6665 0.712314 0.697913 -0.0743393
-11.9755 -8.58128 10.676 0.966685 -0.248206 -0.0625664
-11.4354 -8.68175 7.05188 0.906893 -0.122837 0.403059
3 31 51 64
3 64 51 79
3 51 77 79
3 77 58 87
3 58 60 34
3 33 38 20
3 38 51 18
3 6 17 4
3 17 18 43
3 43 18 31
3 43 64 65
3 92 94 64
3 84 65 94
3 64 94 65
3 92 124 94
3 67 124 87
3 41 67 63
3 67 87 63
3 41 23 10
3 35 10 29
3 29 10 15
3 23 12 10
3 12 6 3
3 6 0 3
3 4 17 13
3 30 17 43
3 69 84 104
3 100 110 132
3 120 110 166
3 166 110 135
3 74 110 67
3 110 100 67
3 46 45 67
3 67 45 74
3 46 25 45
3 35 49 68
3 29 27 49
3 49 27 47
3 49 47 73
3 47 28 32
3 28 15 32
3 32 15 16
3 16 15 1
3 8 1 2
3 0 4 5
3 2 0 7
3 19 11 26
3 13 26 11
3 56 36 30
3 36 56 55
3 55 56 85
3 56 104 91
3 56 91 85
3 104 132 91
3 91 132 120
3 117 120 147
3 117 156 154
3 74 45 86
3 86 45 57
3 86 57 89
3 89 57 62
3 81 111 95
3 111 81 136
3 81 62 35
3 81 106 136
3 136 106 133
3 93 98 106
3 106 98 130
3 106 130 133
3 83 73 47
3 130 83 115
3 130 115 144
3 75 32 50
3 50 32 24
3 32 16 24
3 16 8 14
3 14 9 21
3 9 7 19
3 19 39 54
3 44 19 59
3 54 59 19
3 53 54 39
3 53 26 55
3 78 55 85
3 78 85 105
3 105 131 78
3 105 85 117
3 117 131 105
3 158 163 131
3 179 184 174
3 178 181 154
3 154 156 178
3 168 167 135
3 89 128 119
3 134 95 111
3 134 171 164
3 164 171 155
3 171 144 155
3 155 144 129
3 129 144 115
3 129 115 75
3 99 101 70
3 101 61 70
3 40 61 50
3 40 50 24
3 52 80 42
3 40 21 42
3 52 22 37
3 44 72 37
3 72 71 107
3 72 107 88
3 88 107 121
3 59 96 71
3 107 71 96
3 96 123 107
3 76 59 54
3 103 116 76
3 96 76 116
3 116 123 96
3 137 116 103
3 116 141 123
3 125 108 78
3 184 179 151
3 169 179 160
3 174 160 179
3 128 140 99
3 109 128 99
3 140 138 99
3 80 112 97
3 80 97 70
3 159 112 118
3 112 80 118
3 80 90 118
3 118 90 114
3 118 114 149
3 114 90 88
3 90 52 88
3 114 121 146
3 114 146 157
3 146 121 153
3 146 153 157
3 121 142 153
3 150 142 107
3 150 172 142
3 150 185 172
3 185 160 165
3 165 152 185
3 165 160 139
3 139 152 165
3 152 182 180
3 172 153 142
3 51 31 18
3 77 87 79
3 67 100 124
3 46 67 41
3 25 46 41
3 25 10 35
3 10 25 41
3 15 10 3
3 15 3 1
3 3 10 12
3 0 1 3
3 4 0 6
3 13 5 4
3 120 132 110
3 102 135 110
3 102 110 74
3 35 57 45
3 35 45 25
3 35 62 57
3 0 2 1
3 19 7 11
3 13 11 5
3 55 26 36
3 85 91 117
3 120 117 91
3 119 135 102
3 119 102 86
3 74 86 102
3 119 86 89
3 37 19 44
3 78 82 54
3 78 54 53
3 55 78 53
3 108 82 78
3 40 42 61
3 61 42 70
3 70 42 80
3 22 52 42
3 22 42 21
3 37 22 19
3 19 22 9
3 9 22 21
3 52 37 72
3 88 52 72
3 76 96 59
3 151 141 116
3 151 116 137
3 169 151 179
3 109 126 143
3 143 126 174
3 174 126 160
3 135 109 143
3 168 135 143
3 174 168 143
3 128 109 119
3 119 109 135
3 109 70 97
3 109 97 126
3 126 97 139
3 126 139 160
3 139 97 112
3 151 169 141
3 159 152 112
3 139 112 152
3 51 38 60
3 60 33 34
3 60 58 77
3 60 77 51
3 60 38 33
3 6 18 17
3 124 92 79
3 79 92 64
3 31 64 43
3 41 63 34
3 58 34 63
3 58 63 87
3 20 6 12
3 33 20 12
3 33 12 34
3 34 12 23
3 34 23 41
3 18 6 20
3 18 20 38
3 30 43 48
3 48 84 69
3 84 48 43
3 84 43 65
3 113 84 94
3 113 94 122
3 113 122 104
3 104 84 113
3 132 124 100
3 132 104 122
3 132 122 124
3 124 122 94
3 29 49 35
3 27 15 28
3 27 28 47
3 27 29 15
3 16 1 8
3 5 11 0
3 7 0 11
3 17 30 13
3 26 13 36
3 30 36 13
3 104 56 69
3 48 69 56
3 56 30 48
3 120 166 147
3 147 156 117
3 156 147 166
3 81 95 62
3 68 81 35
3 106 81 68
3 98 93 73
3 73 83 98
3 98 83 130
3 93 106 68
3 93 68 73
3 73 68 49
3 75 115 83
3 75 83 66
3 66 83 47
3 47 32 66
3 66 32 75
3 8 2 14
3 9 14 2
3 7 9 2
3 26 39 19
3 53 39 26
3 181 163 158
3 158 154 181
3 181 184 163
3 158 131 117
3 158 117 154
3 167 166 135
3 95 89 62
3 89 95 127
3 89 127 128
3 127 95 134
3 162 134 111
3 162 111 136
3 162 136 176
3 170 176 161
3 170 161 130
3 144 170 130
3 176 136 133
3 161 176 133
3 161 133 130
3 162 171 134
3 75 61 101
3 61 75 50
3 21 40 24
3 21 24 14
3 24 16 14
3 71 44 59
3 71 72 44
3 108 103 82
3 103 76 82
3 82 76 54
3 103 108 137
3 163 125 131
3 163 151 125
3 125 78 131
3 151 163 184
3 140 127 164
3 140 164 155
3 140 155 138
3 140 128 127
3 127 134 164
3 129 75 101
3 138 129 101
3 129 138 155
3 138 101 99
3 80 52 90
3 121 107 142
3 121 114 88
3 107 123 150
3 123 141 150
3 150 141 169
3 150 169 185
3 169 160 185
3 70 109 99
3 149 173 145
3 145 173 159
3 159 118 145
3 145 118 149
3 114 148 149
3 149 148 175
3 173 149 175
3 173 182 159
3 159 182 152
3 177 148 157
3 177 175 148
3 114 157 148
3 153 172 183
3 125 151 137
3 125 137 108
3 79 87 124
