ply
format ascii 1.0
comment Generated by PyMesh
element vertex 153
property float x
property float y
property float z
property float nx
property float ny
property float nz
element face 281
property list uchar int vertex_indices
end_header
-13.6648 -6.5765 6.081 0.0196493 0.899341 -0.436807
-12.376 -7.104 5.54775 0.484044 0.783913 -0.38882
-14.8977 -7.449 5.739 -0.628185 0.379633 -0.679163
-15.0556 -5.97862 6.50075 -0.215017 0.789825 -0.574408
-13.3769 -7.07369 4.50744 -0.112079 0.745032 -0.657546
-13.272 -6.136 7.7405 0.294234 0.941491 -0.164379
-12.2273 -6.29025 7.618 0.471934 0.879836 0.0562706
-11.6785 -6.84125 6.825 0.838956 0.538302 -0.0799012
-14.569 -7.8455 4.5965 -0.689979 0.36658 -0.624138
-15.3691 -8.4265 6.08112 -0.674685 0.13659 -0.725358
-14.932 -5.647 7.568 -0.296399 0.936559 -0.187094
-11.4478 -7.79975 5.989 0.823888 0.557988 -0.0992903
-12.2902 -7.80613 4.51762 0.383876 0.81815 -0.428101
-12.6625 -6.508 8.608 0.680533 0.704461 0.201519
-15.9235 -6.88912 6.91913 -0.76091 0.44196 -0.475066
-14.104 -5.607 8.4465 0.193419 0.970278 -0.145428
-13.316 -8.237 3.639 -0.437458 0.564787 -0.699748
-11.8705 -7.17175 8.259 0.864563 0.350963 0.359662
-14.4462 -9.07288 4.63263 -0.778934 -0.231027 -0.582999
-16.3965 -7.80387 7.19375 -0.64199 0.406949 -0.649801
-11.4354 -8.68175 7.05188 0.906893 -0.122837 0.403059
-15.1096 -5.77063 8.9065 -0.310933 0.949581 0.0402105
-13.6791 -9.44462 3.96638 -0.784663 -0.0162267 -0.619709
-13.241 -5.649 9.247 0.614975 0.780192 0.114477
-12.649 -8.50275 2.91175 -0.315555 0.609038 -0.727666
-10.9235 -8.4425 4.6665 0.712314 0.697913 -0.0743393
-12.8751 -6.93699 9.90541 0.835044 0.540928 0.100493
-12.3398 -7.645 9.37088 0.924471 0.364109 0.113044
-16.3687 -9.7295 6.31975 0.0285716 0.0449732 -0.99858
-11.8993 -8.36287 8.442 0.964895 -0.0701074 0.253104
-10.6932 -9.33603 5.83038 0.856452 0.0908443 0.508171
-11.257 -8.62237 3.36025 0.542133 0.720849 -0.431819
-17.0509 -8.59725 6.72237 -0.122438 0.665458 -0.736325
-14.301 -5.57575 9.97925 -0.0692064 0.947961 0.310774
-16.797 -7.092 8.42344 -0.523127 0.761681 -0.382335
-14.7054 -10.5063 5.86097 -0.4303 -0.792922 -0.431412
-11.812 -9.762 7.06 0.615945 -0.653441 0.440031
-11.8837 -9.04 2.4785 0.153279 0.291459 -0.944223
-16.2255 -6.05162 9.27262 -0.461001 0.876281 -0.140032
-13.458 -6.166 10.4875 0.45716 0.797129 0.394449
-13.0129 -10.0099 2.87462 -0.573655 -0.0963802 -0.813407
-12.103 -9.03475 9.50412 0.980273 -0.191873 0.0474305
-13.6117 -11.175 4.89675 -0.696635 -0.71703 -0.0238453
-12.7347 -6.67925 11.2995 0.542763 0.809233 0.224834
-18.0842 -8.20588 7.21425 -0.134937 0.904376 -0.404841
-10.0812 -9.64756 4.613 0.930022 0.363453 0.0544062
-10.5933 -9.69675 3.23019 0.696395 0.171832 -0.696784
-15.515 -10.8661 6.57281 0.48398 -0.503505 -0.715714
-13.2327 -11.0689 3.64887 -0.603856 -0.520526 -0.603664
-18.2376 -8.663 6.14975 0.134453 0.637763 -0.758407
-12.506 -9.99162 7.804 0.635587 -0.747884 0.191569
-10.49 -10.6082 5.22475 0.703015 -0.398245 0.589212
-14.445 -10.3615 6.8575 0.282855 -0.951239 0.123036
-11.9755 -8.58128 10.676 0.966685 -0.248206 -0.0625664
-17.8595 -9.8705 5.769 0.224566 0.00574713 -0.974442
-17.5917 -7.18325 9.48575 -0.378216 0.888554 -0.259664
-17.6164 -10.9056 6.06619 0.183887 -0.0585972 -0.981199
-14.7009 -6.59762 11.1679 0.0296261 0.873256 0.48636
-15.9875 -6.25688 10.7812 -0.121422 0.969182 0.214344
-18.2022 -7.71938 8.54775 -0.409342 0.880558 -0.238866
-11.751 -10.7425 5.8105 0.396025 -0.647829 0.650755
-13.372 -10.6006 6.02413 -0.0596607 -0.878413 0.474163
-11.8895 -10.1025 2.57025 0.0482922 -0.387864 -0.920451
-12.8769 -10.1391 6.88319 0.131502 -0.934215 0.331585
-11.8664 -7.89288 11.6814 0.925801 0.288131 0.244691
-12.6095 -10.0452 9.3735 0.542641 -0.838511 -0.0493975
-9.833 -10.511 4.03075 0.936734 -0.324897 -0.130271
-12.859 -11.912 4.451 -0.309202 -0.947626 -0.0799973
-19.2903 -8.58975 6.42 -0.340881 0.769253 -0.540417
-19.0802 -8.20569 8.0365 -0.410943 0.896665 -0.164671
-13.0522 -7.41862 12.387 0.195902 0.639444 0.74346
-10.8741 -11.4235 4.4755 0.475498 -0.856857 0.199244
-17.3175 -6.78494 10.7539 -0.388625 0.920736 -0.0348559
-18.9745 -9.794 5.5925 -0.196269 0.14308 -0.970055
-15.5191 -12.0419 7.088 0.91038 0.0224387 -0.413164
-13.9075 -10.017 7.865 0.259067 -0.965505 0.0261541
-11.9443 -11.6205 3.769 0.0721648 -0.886644 -0.456788
-10.8845 -11.1531 3.41825 0.454185 -0.617366 -0.64232
-18.8111 -11.0901 5.96569 -0.0226724 -0.183419 -0.982773
-14.464 -7.162 12.191 0.114718 0.636867 0.762391
-12.197 -9.42212 11.7636 0.862853 -0.415286 0.288135
-12.0107 -11.6585 5.02125 0.0771251 -0.882121 0.464665
-16.148 -6.504 11.925 -0.00710704 0.953404 0.301612
-15.0331 -10.8427 8.19519 0.794612 -0.606942 0.0145697
-16.6131 -12.3586 6.12388 0.345698 -0.0165249 -0.9382
-19.1464 -7.52119 10.2719 -0.399648 0.857733 -0.323382
-12.9436 -10.2224 11.019 0.731517 -0.668141 -0.135903
-12.423 -8.28925 12.7095 0.46641 0.0899128 0.879987
-15.3359 -7.39187 12.6465 0.325666 0.554776 0.765614
-20.1029 -8.894 7.0315 -0.638649 0.687559 -0.345528
-18.3759 -12.6317 6.00986 0.0137997 -0.00136579 -0.999904
-19.798 -9.5555 6.1505 -0.685014 0.268413 -0.677282
-18.7665 -7.0945 11.2499 -0.299586 0.93472 -0.191174
-14.1222 -10.2362 9.119 0.317312 -0.932536 -0.172307
-13.8919 -10.6025 10.1834 0.261635 -0.89178 -0.369156
-17.1421 -6.82312 12.0845 -0.152349 0.98768 0.0357603
-19.9814 -11.0499 6.23387 -0.420198 0.121153 -0.899308
-20.2418 -8.73088 8.9535 -0.578139 0.774489 -0.256755
-15.6615 -13.451 6.55475 0.651625 -0.0982242 -0.752155
-14.4009 -8.38313 12.5551 0.107231 0.209066 0.972005
-14.9621 -13.321 7.748 0.99373 -0.101835 -0.0461542
-13.02 -10.359 12.2035 0.696805 -0.463734 0.547187
-15.4423 -12.6602 8.57187 0.852243 -0.0237596 0.522606
-13.2242 -9.37725 12.7205 0.361253 -0.155347 0.919437
-16.9757 -6.96663 13.2185 0.376412 0.835002 0.401355
-15.7953 -11.7142 9.2675 0.362476 -0.599477 0.71361
-20.3319 -8.01456 10.5962 -0.518208 0.814055 -0.262249
-20.8336 -9.35913 7.769 -0.790303 0.559278 -0.250258
-16.241 -8.311 13.189 0.560006 -0.0170981 0.828312
-18.7201 -6.78025 12.6282 -0.152706 0.974744 -0.162957
-19.8096 -7.3305 12.1806 -0.422493 0.867754 -0.261729
-13.5262 -11.3118 12.1214 0.505235 -0.737635 0.447921
-18.3609 -14.2872 5.9515 -0.00733023 -0.0488615 -0.998779
-21.079 -11.3485 6.5885 -0.682771 0.396006 -0.614006
-20.1175 -13.1535 6.00425 -0.293098 0.0207855 -0.955856
-15.7753 -13.6415 9.037 0.598663 -0.155371 0.785788
-17.024 -14.482 6.2055 0.297968 -0.0577432 -0.952828
-14.344 -11.6005 11.3425 0.168142 -0.957274 -0.235276
-16.202 -14.757 6.7335 0.693306 -0.281304 -0.663472
-14.3614 -9.91488 12.9845 0.234477 -0.201325 0.951046
-15.4785 -14.6277 7.97256 0.911759 -0.386778 0.138194
-15.5977 -11.0153 10.756 -0.0446271 -0.998487 -0.032134
-21.2008 -9.84212 9.65075 -0.859396 0.384081 -0.337521
-17.718 -6.87575 14.2485 0.512979 0.736748 0.440518
-19.9883 -14.2528 6.0595 -0.390303 -0.208518 -0.896763
-16.9205 -12.4824 9.382 0.135998 -0.151947 0.978988
-21.3429 -8.80112 10.9245 -0.570952 0.665772 -0.480377
-17.0993 -11.123 9.728 0.050641 -0.657794 0.751493
-21.2681 -11.1785 7.83337 -0.94573 0.273552 -0.175396
-20.9698 -12.8448 6.57812 -0.735286 -0.113084 -0.668256
-18.6612 -6.53963 13.6825 -0.000841628 0.999542 0.0302569
-15.342 -10.0555 13.1505 -0.0446152 -0.133316 0.990069
-16.3324 -9.57938 12.9113 0.0748673 -0.400341 0.913303
-17.642 -15.301 5.926 0.277019 -0.12556 -0.952625
-21.6275 -12.2069 7.23287 -0.991279 -0.0642374 -0.115063
-17.4771 -8.27312 14.8329 0.768646 0.0622127 0.636642
-17.514 -9.25963 14.049 0.49165 -0.685061 0.537562
-15.1456 -11.1446 12.3993 -0.2113 -0.771271 0.600411
-16.8307 -10.4169 10.779 -0.153617 -0.908316 0.389055
-16.3779 -15.1609 8.73063 0.603037 -0.285722 0.744788
-15.9945 -15.913 7.365 0.922354 -0.288572 -0.256885
-20.559 -7.1895 13.942 -0.497218 0.864605 0.072329
-21.215 -11.1318 9.35975 -0.744433 -0.667498 -0.0163054
-19.0273 -15.927 6.49744 -0.528751 -0.455518 -0.716189
-17.3923 -14.1713 9.258 0.0915104 -0.0876395 0.99194
-18.0556 -12.7589 9.22262 -0.0476964 -0.0733478 0.996165
-22.468 -10.2434 10.5262 -0.807436 0.0115416 -0.589843
-21.94 -8.28475 12.0583 -0.558803 0.808481 -0.184656
-20.522 -15.3763 7.039 -0.592351 -0.755004 -0.281227
-18.2342 -11.6804 9.38488 0.0164741 -0.403704 0.914741
-21.2463 -12.4145 8.2945 -0.828679 -0.207472 0.519853
-18.9241 -6.96331 15.3907 -0.0184397 0.791083 0.61143
-17.3449 -10.0703 12.3079 0.0072831 -0.933307 0.359005
3 126 110 106
3 110 147 141
3 150 142 128
3 146 126 122
3 126 97 122
3 106 110 92
3 109 110 141
3 123 151 135
3 132 152 137
3 137 152 121
3 129 113 96
3 113 128 96
3 96 128 91
3 91 128 107
3 89 107 69
3 97 106 85
3 69 97 59
3 34 55 72
3 92 72 55
3 104 95 109
3 95 104 82
3 82 104 88
3 104 135 108
3 104 108 88
3 135 136 108
3 108 136 132
3 99 132 131
3 99 119 103
3 127 149 125
3 125 149 145
3 143 124 112
3 143 112 133
3 90 96 78
3 78 96 73
3 96 91 73
3 91 89 68
3 68 44 49
3 44 59 34
3 34 38 21
3 14 34 10
3 21 10 34
3 58 21 38
3 58 72 82
3 57 82 88
3 57 88 79
3 79 70 57
3 79 88 99
3 99 70 79
3 87 64 70
3 53 80 86
3 86 65 53
3 41 53 65
3 86 80 101
3 101 80 103
3 103 119 101
3 86 94 65
3 86 117 94
3 94 117 121
3 125 102 105
3 139 140 120
3 120 140 118
3 140 133 118
3 118 133 116
3 116 133 112
3 116 112 90
3 74 84 47
3 84 56 47
3 54 56 78
3 54 78 73
3 9 35 28
3 54 49 28
3 9 32 19
3 14 2 19
3 2 3 0
3 2 0 8
3 8 0 4
3 10 5 3
3 0 3 5
3 5 6 0
3 15 10 21
3 23 13 15
3 5 15 13
3 13 6 5
3 26 13 23
3 13 17 6
3 43 39 57
3 53 41 27
3 29 41 50
3 65 50 41
3 102 100 74
3 83 102 74
3 100 98 74
3 35 61 52
3 35 52 47
3 81 61 42
3 61 35 42
3 35 18 42
3 42 18 22
3 42 22 48
3 22 18 8
3 18 9 8
3 22 4 16
3 22 16 24
3 16 4 12
3 16 12 24
3 4 1 12
3 7 1 0
3 7 11 1
3 7 20 11
3 20 30 11
3 20 50 36
3 30 20 60
3 36 60 20
3 36 50 63
3 63 60 36
3 51 30 60
3 60 71 51
3 30 45 25
3 45 30 51
3 11 12 1
3 31 46 37
3 46 62 37
3 128 142 122
3 128 122 107
3 122 142 146
3 97 107 122
3 106 97 126
3 92 85 106
3 132 136 152
3 138 121 152
3 97 69 107
3 34 59 55
3 92 55 85
3 82 72 95
3 88 108 99
3 132 99 108
3 105 121 138
3 105 138 127
3 105 127 125
3 19 34 14
3 57 33 21
3 57 21 58
3 82 57 58
3 39 33 57
3 54 28 56
3 56 28 47
3 47 28 35
3 32 9 28
3 32 28 49
3 19 32 34
3 34 32 44
3 44 32 49
3 9 19 2
3 8 9 2
3 15 5 10
3 27 17 13
3 27 13 26
3 29 27 41
3 83 75 93
3 93 75 65
3 65 75 50
3 121 83 93
3 94 121 93
3 65 94 93
3 102 83 105
3 105 83 121
3 83 47 52
3 83 52 75
3 75 52 63
3 75 63 50
3 63 52 61
3 27 29 17
3 81 60 61
3 63 61 60
3 126 147 110
3 109 141 130
3 130 151 123
3 151 130 141
3 134 128 113
3 134 113 129
3 134 150 128
3 91 107 89
3 85 55 97
3 59 97 55
3 110 109 92
3 72 92 95
3 109 95 92
3 135 104 123
3 130 123 104
3 104 109 130
3 132 137 131
3 131 119 99
3 119 131 137
3 148 124 143
3 90 112 124
3 90 124 114
3 114 124 129
3 129 96 114
3 114 96 90
3 89 69 68
3 44 68 69
3 59 44 69
3 72 38 34
3 58 38 72
3 80 64 87
3 87 103 80
3 80 53 64
3 87 70 99
3 87 99 103
3 111 137 117
3 111 117 86
3 111 86 101
3 119 111 101
3 111 119 137
3 117 137 121
3 144 125 145
3 125 144 115
3 125 115 102
3 115 144 139
3 90 56 84
3 56 90 78
3 49 54 73
3 49 73 68
3 73 91 68
3 3 14 10
3 3 2 14
3 39 23 33
3 23 15 33
3 33 15 21
3 23 39 26
3 64 43 70
3 64 27 43
3 43 57 70
3 27 64 53
3 100 115 120
3 100 120 118
3 100 118 98
3 100 102 115
3 115 139 120
3 116 90 84
3 98 116 84
3 116 98 118
3 98 84 74
3 35 9 18
3 4 0 1
3 4 22 8
3 0 6 7
3 6 17 7
3 7 17 29
3 7 29 20
3 29 50 20
3 47 83 74
3 48 76 67
3 67 76 81
3 81 42 67
3 67 42 48
3 22 40 48
3 48 40 62
3 76 48 62
3 76 62 77
3 76 77 71
3 76 71 81
3 81 71 60
3 77 62 46
3 46 31 45
3 45 31 25
3 25 31 12
3 31 37 24
3 37 40 24
3 24 12 31
3 37 62 40
3 22 24 40
3 12 11 25
3 25 11 30
3 66 71 77
3 66 77 46
3 66 46 45
3 66 45 51
3 66 51 71
3 43 27 26
3 43 26 39
