ply
format ascii 1.0
comment Generated by PyMesh
element vertex 175
property float x
property float y
property float z
property float nx
property float ny
property float nz
element face 326
property list uchar int vertex_indices
end_header
-18.3759 -12.6317 6.00986 0.0137997 -0.00136579 -0.999904
-18.8111 -11.0901 5.96569 -0.0226724 -0.183419 -0.982773
-18.3609 -14.2872 5.9515 -0.00733023 -0.0488615 -0.998779
-16.6131 -12.3586 6.12388 0.345698 -0.0165249 -0.9382
-20.1175 -13.1535 6.00425 -0.293098 0.0207855 -0.955856
-17.6164 -10.9056 6.06619 0.183887 -0.0585972 -0.981199
-19.9814 -11.0499 6.23387 -0.420198 0.121153 -0.899308
-19.9883 -14.2528 6.0595 -0.390303 -0.208518 -0.896763
-17.024 -14.482 6.2055 0.297968 -0.0577432 -0.952828
-20.9698 -12.8448 6.57812 -0.735286 -0.113084 -0.668256
-17.642 -15.301 5.926 0.277019 -0.12556 -0.952625
-18.9745 -9.794 5.5925 -0.196269 0.14308 -0.970055
-17.8595 -9.8705 5.769 0.224566 0.00574713 -0.974442
-15.5191 -12.0419 7.088 0.91038 0.0224387 -0.413164
-15.6615 -13.451 6.55475 0.651625 -0.0982242 -0.752155
-16.202 -14.757 6.7335 0.693306 -0.281304 -0.663472
-21.079 -11.3485 6.5885 -0.682771 0.396006 -0.614006
-19.0273 -15.927 6.49744 -0.528751 -0.455518 -0.716189
-16.3687 -9.7295 6.31975 0.0285716 0.0449732 -0.99858
-15.515 -10.8661 6.57281 0.48398 -0.503505 -0.715714
-19.798 -9.5555 6.1505 -0.685014 0.268413 -0.677282
-20.522 -15.3763 7.039 -0.592351 -0.755004 -0.281227
-21.6275 -12.2069 7.23287 -0.991279 -0.0642374 -0.115063
-21.1752 -14.5775 7.42725 -0.952801 -0.297653 -0.0597687
-18.2376 -8.663 6.14975 0.134453 0.637763 -0.758407
-21.2681 -11.1785 7.83337 -0.94573 0.273552 -0.175396
-19.2903 -8.58975 6.42 -0.340881 0.769253 -0.540417
-17.671 -16.924 6.2925 -0.019153 -0.60768 -0.793951
-21.0296 -13.5229 8.1485 -0.891521 -0.183854 0.413991
-15.9945 -15.913 7.365 0.922354 -0.288572 -0.256885
-14.9621 -13.321 7.748 0.99373 -0.101835 -0.0461542
-15.4785 -14.6277 7.97256 0.911759 -0.386778 0.138194
-18.546 -17.069 6.767 -0.520319 -0.750265 -0.407887
-14.7054 -10.5063 5.86097 -0.4303 -0.792922 -0.431412
-15.4423 -12.6602 8.57187 0.852243 -0.0237596 0.522606
-14.445 -10.3615 6.8575 0.282855 -0.951239 0.123036
-20.1029 -8.894 7.0315 -0.638649 0.687559 -0.345528
-20.5295 -15.273 8.13 -0.617464 -0.670725 0.410933
-16.563 -16.835 6.796 0.653131 -0.583754 -0.48234
-19.2083 -16.5305 7.822 -0.776665 -0.627934 0.0499063
-15.0331 -10.8427 8.19519 0.794612 -0.606942 0.0145697
-17.0509 -8.59725 6.72237 -0.122438 0.665458 -0.736325
-21.2463 -12.4145 8.2945 -0.828679 -0.207472 0.519853
-15.3691 -8.4265 6.08112 -0.674685 0.13659 -0.725358
-19.5457 -15.5938 8.26275 -0.595623 -0.639314 0.486324
-18.0842 -8.20588 7.21425 -0.134937 0.904376 -0.404841
-20.5295 -14.376 8.6625 -0.55913 -0.270747 0.783626
-20.8336 -9.35913 7.769 -0.790303 0.559278 -0.250258
-21.215 -11.1318 9.35975 -0.744433 -0.667498 -0.0163054
-16.33 -16.601 8.361 0.615923 -0.571743 0.541986
-17.671 -17.4522 7.593 -0.0242997 -0.998533 0.0483818
-15.7753 -13.6415 9.037 0.598663 -0.155371 0.785788
-16.3779 -15.1609 8.73063 0.603037 -0.285722 0.744788
-13.9075 -10.017 7.865 0.259067 -0.965505 0.0261541
-15.7953 -11.7142 9.2675 0.362476 -0.599477 0.71361
-19.0802 -8.20569 8.0365 -0.410943 0.896665 -0.164671
-16.3965 -7.80387 7.19375 -0.64199 0.406949 -0.649801
-13.372 -10.6006 6.02413 -0.0596607 -0.878413 0.474163
-18.546 -16.659 8.829 -0.355854 -0.558254 0.74948
-14.1222 -10.2362 9.119 0.317312 -0.932536 -0.172307
-14.8977 -7.449 5.739 -0.628185 0.379633 -0.679163
-13.6117 -11.175 4.89675 -0.696635 -0.71703 -0.0238453
-12.8769 -10.1391 6.88319 0.131502 -0.934215 0.331585
-21.2008 -9.84212 9.65075 -0.859396 0.384081 -0.337521
-16.9205 -12.4824 9.382 0.135998 -0.151947 0.978988
-14.4462 -9.07288 4.63263 -0.778934 -0.231027 -0.582999
-18.2022 -7.71938 8.54775 -0.409342 0.880558 -0.238866
-19.4322 -12.1868 9.29225 -0.212148 -0.370685 0.904205
-14.569 -7.8455 4.5965 -0.689979 0.36658 -0.624138
-18.6268 -14.3872 9.21212 -0.221777 -0.135436 0.965646
-20.2418 -8.73088 8.9535 -0.578139 0.774489 -0.256755
-15.9235 -6.88912 6.91913 -0.76091 0.44196 -0.475066
-16.797 -7.092 8.42344 -0.523127 0.761681 -0.382335
-20.1047 -10.9861 10.3837 0.0714146 -0.930488 0.359294
-12.506 -9.99162 7.804 0.635587 -0.747884 0.191569
-17.3923 -14.1713 9.258 0.0915104 -0.0876395 0.99194
-13.8919 -10.6025 10.1834 0.261635 -0.89178 -0.369156
-12.859 -11.912 4.451 -0.309202 -0.947626 -0.0799973
-15.5977 -11.0153 10.756 -0.0446271 -0.998487 -0.032134
-17.0993 -11.123 9.728 0.050641 -0.657794 0.751493
-11.812 -9.762 7.06 0.615945 -0.653441 0.440031
-17.892 -15.428 9.281 0.116394 -0.190557 0.974751
-13.2327 -11.0689 3.64887 -0.603856 -0.520526 -0.603664
-18.0556 -12.7589 9.22262 -0.0476964 -0.0733478 0.996165
-22.468 -10.2434 10.5262 -0.807436 0.0115416 -0.589843
-22.2157 -11.2505 11.018 -0.570993 -0.788321 -0.229164
-13.6791 -9.44462 3.96638 -0.784663 -0.0162267 -0.619709
-11.751 -10.7425 5.8105 0.396025 -0.647829 0.650755
-12.6095 -10.0452 9.3735 0.542641 -0.838511 -0.0493975
-13.6648 -6.5765 6.081 0.0196493 0.899341 -0.436807
-15.0556 -5.97862 6.50075 -0.215017 0.789825 -0.574408
-12.0107 -11.6585 5.02125 0.0771251 -0.882121 0.464665
-18.2342 -11.6804 9.38488 0.0164741 -0.403704 0.914741
-17.5917 -7.18325 9.48575 -0.378216 0.888554 -0.259664
-21.3429 -8.80112 10.9245 -0.570952 0.665772 -0.480377
-16.8307 -10.4169 10.779 -0.153617 -0.908316 0.389055
-21.614 -11.3695 11.8645 0.106096 -0.993403 0.0435226
-18.9158 -11.0653 10.1265 0.121158 -0.873156 0.472144
-13.3769 -7.07369 4.50744 -0.112079 0.745032 -0.657546
-20.4727 -10.84 11.5573 0.178683 -0.983373 0.0324074
-16.2255 -6.05162 9.27262 -0.461001 0.876281 -0.140032
-11.9443 -11.6205 3.769 0.0721648 -0.886644 -0.456788
-11.4354 -8.68175 7.05188 0.906893 -0.122837 0.403059
-12.9436 -10.2224 11.019 0.731517 -0.668141 -0.135903
-14.932 -5.647 7.568 -0.296399 0.936559 -0.187094
-22.5958 -11.0782 12.0903 -0.547987 -0.836459 -0.00682782
-20.3319 -8.01456 10.5962 -0.518208 0.814055 -0.262249
-22.8326 -9.38325 11.3923 -0.723974 0.485879 -0.489677
-13.0129 -10.0099 2.87462 -0.573655 -0.0963802 -0.813407
-12.103 -9.03475 9.50412 0.980273 -0.191873 0.0474305
-14.344 -11.6005 11.3425 0.168142 -0.957274 -0.235276
-13.316 -8.237 3.639 -0.437458 0.564787 -0.699748
-10.49 -10.6082 5.22475 0.703015 -0.398245 0.589212
-17.9295 -10.4807 10.9862 0.203772 -0.92024 0.334119
-19.1464 -7.52119 10.2719 -0.399648 0.857733 -0.323382
-15.1456 -11.1446 12.3993 -0.2113 -0.771271 0.600411
-11.8993 -8.36287 8.442 0.964895 -0.0701074 0.253104
-10.8741 -11.4235 4.4755 0.475498 -0.856857 0.199244
-12.376 -7.104 5.54775 0.484044 0.783913 -0.38882
-15.1096 -5.77063 8.9065 -0.310933 0.949581 0.0402105
-17.3175 -6.78494 10.7539 -0.388625 0.920736 -0.0348559
-21.034 -11.12 12.8165 0.113043 -0.956829 0.267767
-23.2505 -10.1637 12.119 -0.959695 -0.166601 -0.226338
-12.649 -8.50275 2.91175 -0.315555 0.609038 -0.727666
-10.6932 -9.33603 5.83038 0.856452 0.0908443 0.508171
-21.94 -8.28475 12.0583 -0.558803 0.808481 -0.184656
-11.8895 -10.1025 2.57025 0.0482922 -0.387864 -0.920451
-13.272 -6.136 7.7405 0.294234 0.941491 -0.164379
-19.6565 -10.831 12.367 0.274914 -0.94072 0.198669
-12.2902 -7.80613 4.51762 0.383876 0.81815 -0.428101
-10.8845 -11.1531 3.41825 0.454185 -0.617366 -0.64232
-17.3449 -10.0703 12.3079 0.0072831 -0.933307 0.359005
-11.9755 -8.58128 10.676 0.966685 -0.248206 -0.0625664
-13.02 -10.359 12.2035 0.696805 -0.463734 0.547187
-12.2273 -6.29025 7.618 0.471934 0.879836 0.0562706
-11.6785 -6.84125 6.825 0.838956 0.538302 -0.0799012
-14.104 -5.607 8.4465 0.193419 0.970278 -0.145428
-11.4478 -7.79975 5.989 0.823888 0.557988 -0.0992903
-12.197 -9.42212 11.7636 0.862853 -0.415286 0.288135
-18.7665 -7.0945 11.2499 -0.299586 0.93472 -0.191174
-13.5262 -11.3118 12.1214 0.505235 -0.737635 0.447921
-15.9875 -6.25688 10.7812 -0.121422 0.969182 0.214344
-21.971 -11.1005 13.301 -0.106652 -0.920423 0.376093
-10.0812 -9.64756 4.613 0.930022 0.363453 0.0544062
-23.1583 -9.1395 12.735 -0.882032 0.469308 0.0420707
-12.3398 -7.645 9.37088 0.924471 0.364109 0.113044
-11.8705 -7.17175 8.259 0.864563 0.350963 0.359662
-9.833 -10.511 4.03075 0.936734 -0.324897 -0.130271
-23.1501 -10.4362 13.4981 -0.8196 -0.412353 0.39777
-20.5748 -10.6032 13.6053 0.165732 -0.814987 0.555274
-11.8837 -9.04 2.4785 0.153279 0.291459 -0.944223
-15.342 -10.0555 13.1505 -0.0446152 -0.133316 0.990069
-19.8096 -7.3305 12.1806 -0.422493 0.867754 -0.261729
-14.301 -5.57575 9.97925 -0.0692064 0.947961 0.310774
-17.1421 -6.82312 12.0845 -0.152349 0.98768 0.0357603
-12.6625 -6.508 8.608 0.680533 0.704461 0.201519
-21.89 -8.36 13.2975 -0.697337 0.699089 0.158102
-14.3614 -9.91488 12.9845 0.234477 -0.201325 0.951046
-11.257 -8.62237 3.36025 0.542133 0.720849 -0.431819
-10.9235 -8.4425 4.6665 0.712314 0.697913 -0.0743393
-18.8803 -10.169 13.2294 0.33354 -0.863241 0.378902
-16.148 -6.504 11.925 -0.00710704 0.953404 0.301612
-13.2242 -9.37725 12.7205 0.361253 -0.155347 0.919437
-10.5933 -9.69675 3.23019 0.696395 0.171832 -0.696784
-11.8664 -7.89288 11.6814 0.925801 0.288131 0.244691
-16.3324 -9.57938 12.9113 0.0748673 -0.400341 0.913303
-13.241 -5.649 9.247 0.614975 0.780192 0.114477
-22.25 -10.51 14.0815 -0.21873 -0.517828 0.82705
-12.8751 -6.93699 9.90541 0.835044 0.540928 0.100493
-14.7009 -6.59762 11.1679 0.0296261 0.873256 0.48636
-18.7201 -6.78025 12.6282 -0.152706 0.974744 -0.162957
-12.423 -8.28925 12.7095 0.46641 0.0899128 0.879987
-22.5636 -9.17675 13.9983 -0.683619 0.390177 0.616787
-17.514 -9.25963 14.049 0.49165 -0.685061 0.537562
-13.458 -6.166 10.4875 0.45716 0.797129 0.394449
3 167 142 149
3 142 148 105
3 122 144 107
3 144 172 125
3 94 152 106
3 96 128 121
3 128 149 121
3 96 85 48
3 67 48 42
3 42 48 25
3 85 84 48
3 84 94 63
3 94 70 63
3 106 152 139
3 160 131 173
3 165 131 115
3 115 131 78
3 113 131 128
3 131 160 128
3 99 97 128
3 128 97 113
3 99 73 97
3 67 28 46
3 42 22 28
3 28 22 9
3 28 9 23
3 9 16 6
3 16 25 6
3 6 25 20
3 20 25 47
3 36 47 55
3 70 106 114
3 55 70 66
3 72 93 120
3 139 120 93
3 113 97 79
3 79 97 92
3 79 92 64
3 64 92 83
3 69 81 75
3 81 69 58
3 69 83 67
3 69 44 58
3 58 44 39
3 37 21 44
3 44 21 17
3 44 17 39
3 7 23 9
3 17 7 2
3 17 2 10
3 0 6 1
3 1 6 11
3 6 20 11
3 20 36 26
3 26 45 24
3 45 66 72
3 72 100 119
3 71 72 104
3 119 104 72
3 141 119 100
3 141 120 161
3 132 138 103
3 103 88 132
3 109 132 88
3 103 138 133
3 133 138 162
3 162 157 133
3 103 76 88
3 103 110 76
3 76 110 78
3 64 34 54
3 52 75 81
3 52 29 31
3 31 29 15
3 29 10 15
3 15 10 8
3 8 10 2
3 8 2 0
3 13 3 19
3 3 5 19
3 12 5 1
3 12 1 11
3 43 33 18
3 12 24 18
3 43 41 56
3 71 60 56
3 60 90 89
3 60 89 68
3 68 89 98
3 104 127 90
3 89 90 127
3 127 134 89
3 136 104 119
3 166 155 136
3 127 136 155
3 155 134 127
3 168 155 166
3 155 146 134
3 132 109 145
3 116 109 74
3 88 74 109
3 34 30 13
3 40 34 13
3 30 14 13
3 33 57 35
3 33 35 19
3 91 57 61
3 57 33 61
3 33 65 61
3 61 65 86
3 61 86 82
3 86 65 68
3 65 43 68
3 86 98 111
3 86 111 123
3 111 98 129
3 111 129 123
3 98 118 129
3 135 118 89
3 135 137 118
3 135 102 137
3 102 124 137
3 102 74 80
3 124 102 87
3 80 87 102
3 80 74 62
3 62 87 80
3 112 124 87
3 87 117 112
3 124 143 159
3 143 124 112
3 137 129 118
3 158 163 150
3 163 126 150
3 172 156 125
3 99 128 96
3 73 99 96
3 73 48 67
3 48 73 96
3 25 48 63
3 25 63 47
3 63 48 84
3 70 47 63
3 106 70 94
3 139 114 106
3 165 173 131
3 95 78 131
3 95 131 113
3 67 92 97
3 67 97 73
3 67 83 92
3 70 55 47
3 72 66 93
3 139 93 114
3 161 120 154
3 54 78 95
3 54 95 79
3 113 79 95
3 54 79 64
3 56 72 71
3 169 153 119
3 169 119 141
3 161 169 141
3 174 153 169
3 12 18 5
3 5 18 19
3 19 18 33
3 41 43 18
3 41 18 24
3 56 41 72
3 72 41 45
3 45 41 24
3 43 56 60
3 68 43 60
3 136 127 104
3 145 146 155
3 145 155 168
3 116 145 109
3 40 53 59
3 59 53 88
3 88 53 74
3 78 40 59
3 76 78 59
3 88 76 59
3 34 40 54
3 54 40 78
3 40 19 35
3 40 35 53
3 53 35 62
3 53 62 74
3 62 35 57
3 145 116 146
3 91 87 57
3 62 57 87
3 172 144 148
3 148 122 105
3 148 142 167
3 148 167 172
3 148 144 122
3 94 125 152
3 96 121 105
3 142 105 121
3 142 121 149
3 107 94 84
3 122 107 84
3 122 84 105
3 105 84 85
3 105 85 96
3 125 94 107
3 125 107 144
3 42 28 67
3 22 25 16
3 22 16 9
3 22 42 25
3 20 47 36
3 114 93 70
3 66 70 93
3 152 170 139
3 120 139 154
3 170 154 139
3 165 115 151
3 157 151 115
3 69 75 83
3 46 69 67
3 44 69 46
3 21 37 23
3 23 7 21
3 21 7 17
3 37 44 46
3 37 46 23
3 23 46 28
3 0 2 7
3 0 7 4
3 4 7 9
3 9 6 4
3 4 6 0
3 36 55 26
3 45 26 55
3 66 45 55
3 120 100 72
3 141 100 120
3 138 164 171
3 171 162 138
3 138 132 164
3 140 115 110
3 140 110 103
3 140 103 133
3 157 140 133
3 140 157 115
3 110 115 78
3 75 64 83
3 64 75 51
3 64 51 34
3 51 75 52
3 29 49 38
3 49 50 38
3 29 38 10
3 49 52 81
3 49 81 58
3 49 58 50
3 38 50 27
3 10 38 27
3 27 50 32
3 27 32 17
3 10 27 17
3 50 58 39
3 32 50 39
3 32 39 17
3 49 29 52
3 0 5 3
3 5 0 1
3 24 12 11
3 24 11 26
3 11 20 26
3 90 71 104
3 90 60 71
3 174 166 153
3 166 136 153
3 153 136 119
3 166 174 168
3 145 164 132
3 30 51 31
3 30 31 15
3 30 15 14
3 30 34 51
3 51 52 31
3 8 0 3
3 14 8 3
3 8 14 15
3 14 3 13
3 33 43 65
3 98 89 118
3 98 86 68
3 89 134 135
3 134 146 135
3 135 146 116
3 135 116 102
3 116 74 102
3 19 40 13
3 82 101 77
3 77 101 91
3 91 61 77
3 77 61 82
3 86 108 82
3 82 108 126
3 101 82 126
3 101 126 130
3 101 130 117
3 101 117 91
3 91 117 87
3 130 126 163
3 163 158 143
3 143 158 159
3 159 158 129
3 158 150 123
3 150 108 123
3 123 129 158
3 150 126 108
3 86 123 108
3 129 137 159
3 159 137 124
3 147 117 130
3 147 130 163
3 147 163 143
3 147 143 112
3 147 112 117
