ply
format ascii 1.0
comment Generated by PyMesh
element vertex 107
property float x
property float y
property float z
property float nx
property float ny
property float nz
element face 187
property list uchar int vertex_indices
end_header
-17.671 -16.924 6.2925 -0.019153 -0.60768 -0.793951
-18.546 -17.069 6.767 -0.520319 -0.750265 -0.407887
-16.563 -16.835 6.796 0.653131 -0.583754 -0.48234
-17.671 -17.4522 7.593 -0.0242997 -0.998533 0.0483818
-17.642 -15.301 5.926 0.277019 -0.12556 -0.952625
-19.0273 -15.927 6.49744 -0.528751 -0.455518 -0.716189
-19.2083 -16.5305 7.822 -0.776665 -0.627934 0.0499063
-15.9945 -15.913 7.365 0.922354 -0.288572 -0.256885
-17.024 -14.482 6.2055 0.297968 -0.0577432 -0.952828
-16.33 -16.601 8.361 0.615923 -0.571743 0.541986
-18.3609 -14.2872 5.9515 -0.00733023 -0.0488615 -0.998779
-18.546 -16.659 8.829 -0.355854 -0.558254 0.74948
-20.522 -15.3763 7.039 -0.592351 -0.755004 -0.281227
-16.202 -14.757 6.7335 0.693306 -0.281304 -0.663472
-19.5457 -15.5938 8.26275 -0.595623 -0.639314 0.486324
-19.9883 -14.2528 6.0595 -0.390303 -0.208518 -0.896763
-15.4785 -14.6277 7.97256 0.911759 -0.386778 0.138194
-16.3779 -15.1609 8.73063 0.603037 -0.285722 0.744788
-15.6615 -13.451 6.55475 0.651625 -0.0982242 -0.752155
-20.5295 -15.273 8.13 -0.617464 -0.670725 0.410933
-21.1752 -14.5775 7.42725 -0.952801 -0.297653 -0.0597687
-18.3759 -12.6317 6.00986 0.0137997 -0.00136579 -0.999904
-17.892 -15.428 9.281 0.116394 -0.190557 0.974751
-20.1175 -13.1535 6.00425 -0.293098 0.0207855 -0.955856
-16.6131 -12.3586 6.12388 0.345698 -0.0165249 -0.9382
-20.5295 -14.376 8.6625 -0.55913 -0.270747 0.783626
-18.6268 -14.3872 9.21212 -0.221777 -0.135436 0.965646
-14.9621 -13.321 7.748 0.99373 -0.101835 -0.0461542
-15.7753 -13.6415 9.037 0.598663 -0.155371 0.785788
-20.9698 -12.8448 6.57812 -0.735286 -0.113084 -0.668256
-17.3923 -14.1713 9.258 0.0915104 -0.0876395 0.99194
-21.0296 -13.5229 8.1485 -0.891521 -0.183854 0.413991
-15.5191 -12.0419 7.088 0.91038 0.0224387 -0.413164
-18.8111 -11.0901 5.96569 -0.0226724 -0.183419 -0.982773
-17.6164 -10.9056 6.06619 0.183887 -0.0585972 -0.981199
-15.4423 -12.6602 8.57187 0.852243 -0.0237596 0.522606
-21.6275 -12.2069 7.23287 -0.991279 -0.0642374 -0.115063
-15.515 -10.8661 6.57281 0.48398 -0.503505 -0.715714
-19.9814 -11.0499 6.23387 -0.420198 0.121153 -0.899308
-21.2463 -12.4145 8.2945 -0.828679 -0.207472 0.519853
-18.0556 -12.7589 9.22262 -0.0476964 -0.0733478 0.996165
-21.079 -11.3485 6.5885 -0.682771 0.396006 -0.614006
-16.9205 -12.4824 9.382 0.135998 -0.151947 0.978988
-18.9745 -9.794 5.5925 -0.196269 0.14308 -0.970055
-17.8595 -9.8705 5.769 0.224566 0.00574713 -0.974442
-19.4322 -12.1868 9.29225 -0.212148 -0.370685 0.904205
-15.0331 -10.8427 8.19519 0.794612 -0.606942 0.0145697
-15.7953 -11.7142 9.2675 0.362476 -0.599477 0.71361
-21.2681 -11.1785 7.83337 -0.94573 0.273552 -0.175396
-14.7054 -10.5063 5.86097 -0.4303 -0.792922 -0.431412
-14.445 -10.3615 6.8575 0.282855 -0.951239 0.123036
-18.2342 -11.6804 9.38488 0.0164741 -0.403704 0.914741
-16.3687 -9.7295 6.31975 0.0285716 0.0449732 -0.99858
-19.798 -9.5555 6.1505 -0.685014 0.268413 -0.677282
-17.0993 -11.123 9.728 0.050641 -0.657794 0.751493
-21.215 -11.1318 9.35975 -0.744433 -0.667498 -0.0163054
-18.2376 -8.663 6.14975 0.134453 0.637763 -0.758407
-19.2903 -8.58975 6.42 -0.340881 0.769253 -0.540417
-18.9158 -11.0653 10.1265 0.121158 -0.873156 0.472144
-14.1222 -10.2362 9.119 0.317312 -0.932536 -0.172307
-13.9075 -10.017 7.865 0.259067 -0.965505 0.0261541
-13.372 -10.6006 6.02413 -0.0596607 -0.878413 0.474163
-20.1047 -10.9861 10.3837 0.0714146 -0.930488 0.359294
-15.5977 -11.0153 10.756 -0.0446271 -0.998487 -0.032134
-20.1029 -8.894 7.0315 -0.638649 0.687559 -0.345528
-13.6117 -11.175 4.89675 -0.696635 -0.71703 -0.0238453
-17.0509 -8.59725 6.72237 -0.122438 0.665458 -0.736325
-12.8769 -10.1391 6.88319 0.131502 -0.934215 0.331585
-20.8336 -9.35913 7.769 -0.790303 0.559278 -0.250258
-16.8307 -10.4169 10.779 -0.153617 -0.908316 0.389055
-14.4462 -9.07288 4.63263 -0.778934 -0.231027 -0.582999
-15.3691 -8.4265 6.08112 -0.674685 0.13659 -0.725358
-21.2008 -9.84212 9.65075 -0.859396 0.384081 -0.337521
-18.0842 -8.20588 7.21425 -0.134937 0.904376 -0.404841
-17.9295 -10.4807 10.9862 0.203772 -0.92024 0.334119
-13.8919 -10.6025 10.1834 0.261635 -0.89178 -0.369156
-22.468 -10.2434 10.5262 -0.807436 0.0115416 -0.589843
-22.2157 -11.2505 11.018 -0.570993 -0.788321 -0.229164
-12.506 -9.99162 7.804 0.635587 -0.747884 0.191569
-20.4727 -10.84 11.5573 0.178683 -0.983373 0.0324074
-12.6095 -10.0452 9.3735 0.542641 -0.838511 -0.0493975
-12.859 -11.912 4.451 -0.309202 -0.947626 -0.0799973
-19.0802 -8.20569 8.0365 -0.410943 0.896665 -0.164671
-16.3965 -7.80387 7.19375 -0.64199 0.406949 -0.649801
-11.812 -9.762 7.06 0.615945 -0.653441 0.440031
-13.2327 -11.0689 3.64887 -0.603856 -0.520526 -0.603664
-13.6791 -9.44462 3.96638 -0.784663 -0.0162267 -0.619709
-11.751 -10.7425 5.8105 0.396025 -0.647829 0.650755
-14.344 -11.6005 11.3425 0.168142 -0.957274 -0.235276
-14.8977 -7.449 5.739 -0.628185 0.379633 -0.679163
-14.569 -7.8455 4.5965 -0.689979 0.36658 -0.624138
-21.614 -11.3695 11.8645 0.106096 -0.993403 0.0435226
-15.1456 -11.1446 12.3993 -0.2113 -0.771271 0.600411
-20.2418 -8.73088 8.9535 -0.578139 0.774489 -0.256755
-12.0107 -11.6585 5.02125 0.0771251 -0.882121 0.464665
-19.6565 -10.831 12.367 0.274914 -0.94072 0.198669
-17.3449 -10.0703 12.3079 0.0072831 -0.933307 0.359005
-18.2022 -7.71938 8.54775 -0.409342 0.880558 -0.238866
-21.3429 -8.80112 10.9245 -0.570952 0.665772 -0.480377
-12.9436 -10.2224 11.019 0.731517 -0.668141 -0.135903
-22.5958 -11.0782 12.0903 -0.547987 -0.836459 -0.00682782
-15.9235 -6.88912 6.91913 -0.76091 0.44196 -0.475066
-22.8326 -9.38325 11.3923 -0.723974 0.485879 -0.489677
-12.103 -9.03475 9.50412 0.980273 -0.191873 0.0474305
-16.797 -7.092 8.42344 -0.523127 0.761681 -0.382335
-11.9443 -11.6205 3.769 0.0721648 -0.886644 -0.456788
-11.4354 -8.68175 7.05188 0.906893 -0.122837 0.403059
3 91 77 55
3 45 55 39
3 39 55 48
3 77 76 55
3 76 98 72
3 98 93 72
3 92 96 63
3 74 96 95
3 79 58 95
3 95 58 74
3 79 62 58
3 45 31 25
3 39 36 31
3 31 36 29
3 31 29 20
3 29 41 38
3 41 48 38
3 38 48 53
3 53 48 68
3 64 68 82
3 82 93 97
3 74 58 54
3 54 58 51
3 54 51 42
3 42 51 40
3 26 22 30
3 22 26 11
3 26 40 45
3 26 14 11
3 11 14 6
3 19 12 14
3 14 12 5
3 14 5 6
3 15 20 29
3 5 15 10
3 5 10 4
3 21 38 33
3 33 38 43
3 38 53 43
3 53 64 57
3 57 73 56
3 73 97 104
3 99 75 80
3 99 88 75
3 75 88 63
3 42 35 47
3 17 30 22
3 17 7 16
3 16 7 13
3 7 4 13
3 13 4 8
3 8 4 10
3 8 10 21
3 32 24 37
3 24 34 37
3 44 34 33
3 44 33 43
3 71 49 52
3 44 56 52
3 71 66 83
3 101 89 83
3 80 78 103
3 35 27 32
3 46 35 32
3 27 18 32
3 49 61 50
3 49 50 37
3 94 61 65
3 61 49 65
3 49 70 65
3 65 70 86
3 65 86 85
3 86 70 90
3 70 71 90
3 106 78 84
3 84 87 106
3 84 78 67
3 67 87 84
3 79 95 91
3 62 79 91
3 62 55 45
3 55 62 91
3 48 55 72
3 48 72 68
3 72 55 76
3 93 68 72
3 69 63 96
3 69 96 74
3 45 51 58
3 45 58 62
3 45 40 51
3 93 82 68
3 47 63 69
3 47 69 54
3 74 54 69
3 47 54 42
3 83 104 101
3 44 52 34
3 34 52 37
3 37 52 49
3 66 71 52
3 66 52 56
3 83 66 104
3 104 66 73
3 73 66 56
3 71 83 89
3 90 71 89
3 46 60 59
3 59 60 80
3 80 60 78
3 63 46 59
3 75 63 59
3 80 75 59
3 35 46 47
3 47 46 63
3 46 37 50
3 46 50 60
3 60 50 67
3 60 67 78
3 67 50 61
3 94 87 61
3 67 61 87
3 102 98 76
3 100 76 77
3 100 77 91
3 39 31 45
3 36 48 41
3 36 41 29
3 36 39 48
3 53 68 64
3 26 30 40
3 25 26 45
3 14 26 25
3 12 19 20
3 20 15 12
3 12 15 5
3 19 14 25
3 19 25 20
3 20 25 31
3 21 10 15
3 21 15 23
3 23 15 29
3 29 38 23
3 23 38 21
3 64 82 57
3 73 57 82
3 97 73 82
3 88 92 63
3 30 42 40
3 42 30 28
3 42 28 35
3 28 30 17
3 7 9 2
3 9 3 2
3 7 2 4
3 9 17 22
3 9 22 11
3 9 11 3
3 2 3 0
3 4 2 0
3 0 3 1
3 0 1 5
3 4 0 5
3 3 11 6
3 1 3 6
3 1 6 5
3 9 7 17
3 21 34 24
3 34 21 33
3 56 44 43
3 56 43 57
3 43 53 57
3 27 28 16
3 27 16 13
3 27 13 18
3 27 35 28
3 28 17 16
3 8 21 24
3 18 8 24
3 8 18 13
3 18 24 32
3 49 71 70
3 37 46 32
3 85 105 81
3 81 105 94
3 94 65 81
3 81 65 85
