ply
format ascii 1.0
comment Generated by PyMesh
element vertex 110
property float x
property float y
property float z
property float nx
property float ny
property float nz
element face 190
property list uchar int vertex_indices
end_header
-16.563 -16.835 6.796 0.653131 -0.583754 -0.48234
-17.671 -16.924 6.2925 -0.019153 -0.60768 -0.793951
-15.9945 -15.913 7.365 0.922354 -0.288572 -0.256885
-17.671 -17.4522 7.593 -0.0242997 -0.998533 0.0483818
-16.33 -16.601 8.361 0.615923 -0.571743 0.541986
-17.642 -15.301 5.926 0.277019 -0.12556 -0.952625
-18.546 -17.069 6.767 -0.520319 -0.750265 -0.407887
-16.202 -14.757 6.7335 0.693306 -0.281304 -0.663472
-15.4785 -14.6277 7.97256 0.911759 -0.386778 0.138194
-16.3779 -15.1609 8.73063 0.603037 -0.285722 0.744788
-19.0273 -15.927 6.49744 -0.528751 -0.455518 -0.716189
-17.024 -14.482 6.2055 0.297968 -0.0577432 -0.952828
-18.546 -16.659 8.829 -0.355854 -0.558254 0.74948
-19.2083 -16.5305 7.822 -0.776665 -0.627934 0.0499063
-18.3609 -14.2872 5.9515 -0.00733023 -0.0488615 -0.998779
-17.892 -15.428 9.281 0.116394 -0.190557 0.974751
-15.6615 -13.451 6.55475 0.651625 -0.0982242 -0.752155
-14.9621 -13.321 7.748 0.99373 -0.101835 -0.0461542
-15.7753 -13.6415 9.037 0.598663 -0.155371 0.785788
-17.3923 -14.1713 9.258 0.0915104 -0.0876395 0.99194
-19.5457 -15.5938 8.26275 -0.595623 -0.639314 0.486324
-20.522 -15.3763 7.039 -0.592351 -0.755004 -0.281227
-19.9883 -14.2528 6.0595 -0.390303 -0.208518 -0.896763
-18.3759 -12.6317 6.00986 0.0137997 -0.00136579 -0.999904
-18.6268 -14.3872 9.21212 -0.221777 -0.135436 0.965646
-16.6131 -12.3586 6.12388 0.345698 -0.0165249 -0.9382
-15.4423 -12.6602 8.57187 0.852243 -0.0237596 0.522606
-20.5295 -15.273 8.13 -0.617464 -0.670725 0.410933
-15.5191 -12.0419 7.088 0.91038 0.0224387 -0.413164
-21.1752 -14.5775 7.42725 -0.952801 -0.297653 -0.0597687
-16.9205 -12.4824 9.382 0.135998 -0.151947 0.978988
-18.0556 -12.7589 9.22262 -0.0476964 -0.0733478 0.996165
-20.1175 -13.1535 6.00425 -0.293098 0.0207855 -0.955856
-20.5295 -14.376 8.6625 -0.55913 -0.270747 0.783626
-15.7953 -11.7142 9.2675 0.362476 -0.599477 0.71361
-18.8111 -11.0901 5.96569 -0.0226724 -0.183419 -0.982773
-20.9698 -12.8448 6.57812 -0.735286 -0.113084 -0.668256
-15.515 -10.8661 6.57281 0.48398 -0.503505 -0.715714
-17.6164 -10.9056 6.06619 0.183887 -0.0585972 -0.981199
-21.0296 -13.5229 8.1485 -0.891521 -0.183854 0.413991
-18.2342 -11.6804 9.38488 0.0164741 -0.403704 0.914741
-15.0331 -10.8427 8.19519 0.794612 -0.606942 0.0145697
-19.9814 -11.0499 6.23387 -0.420198 0.121153 -0.899308
-17.0993 -11.123 9.728 0.050641 -0.657794 0.751493
-19.4322 -12.1868 9.29225 -0.212148 -0.370685 0.904205
-21.6275 -12.2069 7.23287 -0.991279 -0.0642374 -0.115063
-14.7054 -10.5063 5.86097 -0.4303 -0.792922 -0.431412
-18.9745 -9.794 5.5925 -0.196269 0.14308 -0.970055
-17.8595 -9.8705 5.769 0.224566 0.00574713 -0.974442
-14.445 -10.3615 6.8575 0.282855 -0.951239 0.123036
-21.2463 -12.4145 8.2945 -0.828679 -0.207472 0.519853
-18.9158 -11.0653 10.1265 0.121158 -0.873156 0.472144
-21.079 -11.3485 6.5885 -0.682771 0.396006 -0.614006
-15.5977 -11.0153 10.756 -0.0446271 -0.998487 -0.032134
-16.3687 -9.7295 6.31975 0.0285716 0.0449732 -0.99858
-16.8307 -10.4169 10.779 -0.153617 -0.908316 0.389055
-14.1222 -10.2362 9.119 0.317312 -0.932536 -0.172307
-13.9075 -10.017 7.865 0.259067 -0.965505 0.0261541
-19.798 -9.5555 6.1505 -0.685014 0.268413 -0.677282
-17.9295 -10.4807 10.9862 0.203772 -0.92024 0.334119
-21.2681 -11.1785 7.83337 -0.94573 0.273552 -0.175396
-20.1047 -10.9861 10.3837 0.0714146 -0.930488 0.359294
-13.372 -10.6006 6.02413 -0.0596607 -0.878413 0.474163
-18.2376 -8.663 6.14975 0.134453 0.637763 -0.758407
-19.2903 -8.58975 6.42 -0.340881 0.769253 -0.540417
-21.215 -11.1318 9.35975 -0.744433 -0.667498 -0.0163054
-13.6117 -11.175 4.89675 -0.696635 -0.71703 -0.0238453
-12.8769 -10.1391 6.88319 0.131502 -0.934215 0.331585
-17.0509 -8.59725 6.72237 -0.122438 0.665458 -0.736325
-14.344 -11.6005 11.3425 0.168142 -0.957274 -0.235276
-13.8919 -10.6025 10.1834 0.261635 -0.89178 -0.369156
-14.4462 -9.07288 4.63263 -0.778934 -0.231027 -0.582999
-15.3691 -8.4265 6.08112 -0.674685 0.13659 -0.725358
-20.1029 -8.894 7.0315 -0.638649 0.687559 -0.345528
-15.1456 -11.1446 12.3993 -0.2113 -0.771271 0.600411
-12.506 -9.99162 7.804 0.635587 -0.747884 0.191569
-12.6095 -10.0452 9.3735 0.542641 -0.838511 -0.0493975
-17.3449 -10.0703 12.3079 0.0072831 -0.933307 0.359005
-20.4727 -10.84 11.5573 0.178683 -0.983373 0.0324074
-18.0842 -8.20588 7.21425 -0.134937 0.904376 -0.404841
-19.6565 -10.831 12.367 0.274914 -0.94072 0.198669
-12.859 -11.912 4.451 -0.309202 -0.947626 -0.0799973
-20.8336 -9.35913 7.769 -0.790303 0.559278 -0.250258
-11.812 -9.762 7.06 0.615945 -0.653441 0.440031
-16.3965 -7.80387 7.19375 -0.64199 0.406949 -0.649801
-21.2008 -9.84212 9.65075 -0.859396 0.384081 -0.337521
-13.2327 -11.0689 3.64887 -0.603856 -0.520526 -0.603664
-13.5262 -11.3118 12.1214 0.505235 -0.737635 0.447921
-13.6791 -9.44462 3.96638 -0.784663 -0.0162267 -0.619709
-11.751 -10.7425 5.8105 0.396025 -0.647829 0.650755
-14.8977 -7.449 5.739 -0.628185 0.379633 -0.679163
-14.569 -7.8455 4.5965 -0.689979 0.36658 -0.624138
-19.0802 -8.20569 8.0365 -0.410943 0.896665 -0.164671
-12.9436 -10.2224 11.019 0.731517 -0.668141 -0.135903
-12.0107 -11.6585 5.02125 0.0771251 -0.882121 0.464665
-15.342 -10.0555 13.1505 -0.0446152 -0.133316 0.990069
-21.614 -11.3695 11.8645 0.106096 -0.993403 0.0435226
-12.103 -9.03475 9.50412 0.980273 -0.191873 0.0474305
-22.468 -10.2434 10.5262 -0.807436 0.0115416 -0.589843
-22.2157 -11.2505 11.018 -0.570993 -0.788321 -0.229164
-14.3614 -9.91488 12.9845 0.234477 -0.201325 0.951046
-16.3324 -9.57938 12.9113 0.0748673 -0.400341 0.913303
-15.9235 -6.88912 6.91913 -0.76091 0.44196 -0.475066
-11.9443 -11.6205 3.769 0.0721648 -0.886644 -0.456788
-11.4354 -8.68175 7.05188 0.906893 -0.122837 0.403059
-18.2022 -7.71938 8.54775 -0.409342 0.880558 -0.238866
-11.8993 -8.36287 8.442 0.964895 -0.0701074 0.253104
-16.797 -7.092 8.42344 -0.523127 0.761681 -0.382335
-18.8803 -10.169 13.2294 0.33354 -0.863241 0.378902
-13.02 -10.359 12.2035 0.696805 -0.463734 0.547187
3 96 99 65
3 44 65 50
3 50 65 60
3 99 98 65
3 101 77 74
3 74 77 53
3 59 77 80
3 77 108 80
3 78 51 80
3 80 51 59
3 78 61 51
3 44 39 33
3 50 45 39
3 39 45 36
3 39 36 29
3 36 52 42
3 52 60 42
3 42 60 58
3 58 60 82
3 73 82 92
3 59 51 43
3 43 51 40
3 43 40 30
3 30 40 31
3 24 15 19
3 15 24 12
3 24 31 44
3 24 20 12
3 12 20 13
3 27 21 20
3 20 21 10
3 20 10 13
3 22 29 36
3 10 22 14
3 10 14 5
3 23 42 35
3 35 42 47
3 42 58 47
3 58 73 64
3 64 79 63
3 79 105 107
3 93 70 76
3 93 69 70
3 70 69 53
3 30 26 34
3 9 19 15
3 9 2 8
3 8 2 7
3 2 5 7
3 7 5 11
3 11 5 14
3 11 14 23
3 28 25 37
3 25 38 37
3 48 38 35
3 48 35 47
3 72 46 54
3 48 63 54
3 72 68 84
3 102 90 84
3 106 97 75
3 76 75 97
3 26 17 28
3 41 26 28
3 17 16 28
3 46 62 49
3 46 49 37
3 94 62 66
3 62 46 66
3 46 71 66
3 66 71 88
3 66 88 86
3 88 71 91
3 71 72 91
3 104 75 83
3 83 89 104
3 83 75 67
3 67 89 83
3 78 80 96
3 61 78 96
3 61 65 44
3 65 61 96
3 60 65 85
3 60 85 82
3 85 65 98
3 55 53 77
3 55 77 59
3 44 40 51
3 44 51 61
3 44 31 40
3 34 53 55
3 34 55 43
3 59 43 55
3 34 43 30
3 84 107 102
3 48 54 38
3 38 54 37
3 37 54 46
3 68 72 54
3 68 54 63
3 84 68 107
3 107 68 79
3 79 68 63
3 72 84 90
3 91 72 90
3 41 57 56
3 56 57 76
3 76 57 75
3 53 41 56
3 70 53 56
3 76 70 56
3 26 41 34
3 34 41 53
3 41 37 49
3 41 49 57
3 57 49 67
3 57 67 75
3 67 49 62
3 94 89 62
3 67 62 89
3 50 39 44
3 45 60 52
3 45 52 36
3 45 50 60
3 58 82 73
3 101 74 95
3 100 95 74
3 24 19 31
3 33 24 44
3 20 24 33
3 21 27 29
3 29 22 21
3 21 22 10
3 27 20 33
3 27 33 29
3 29 33 39
3 23 14 22
3 23 22 32
3 32 22 36
3 36 42 32
3 32 42 23
3 73 92 64
3 79 64 92
3 105 79 92
3 87 74 69
3 87 69 93
3 87 93 109
3 100 87 109
3 87 100 74
3 69 74 53
3 19 30 31
3 30 19 18
3 30 18 26
3 18 19 9
3 2 4 0
3 4 3 0
3 2 0 5
3 4 9 15
3 4 15 12
3 4 12 3
3 0 3 1
3 5 0 1
3 1 3 6
3 1 6 10
3 5 1 10
3 3 12 13
3 6 3 13
3 6 13 10
3 4 2 9
3 23 38 25
3 38 23 35
3 63 48 47
3 63 47 64
3 47 58 64
3 17 18 8
3 17 8 7
3 17 7 16
3 17 26 18
3 18 9 8
3 11 23 25
3 16 11 25
3 11 16 7
3 16 25 28
3 46 72 71
3 106 75 104
3 37 41 28
3 86 103 81
3 81 103 94
3 94 66 81
3 81 66 86
