ply
format ascii 1.0
comment Generated by PyMesh
element vertex 174
property float x
property float y
property float z
property float nx
property float ny
property float nz
element face 327
property list uchar int vertex_indices
end_header
-15.6615 -13.451 6.55475 0.651625 -0.0982242 -0.752155
-14.9621 -13.321 7.748 0.99373 -0.101835 -0.0461542
-16.202 -14.757 6.7335 0.693306 -0.281304 -0.663472
-16.6131 -12.3586 6.12388 0.345698 -0.0165249 -0.9382
-15.5191 -12.0419 7.088 0.91038 0.0224387 -0.413164
-17.024 -14.482 6.2055 0.297968 -0.0577432 -0.952828
-15.4423 -12.6602 8.57187 0.852243 -0.0237596 0.522606
-15.9945 -15.913 7.365 0.922354 -0.288572 -0.256885
-15.515 -10.8661 6.57281 0.48398 -0.503505 -0.715714
-17.642 -15.301 5.926 0.277019 -0.12556 -0.952625
-15.4785 -14.6277 7.97256 0.911759 -0.386778 0.138194
-15.7753 -13.6415 9.037 0.598663 -0.155371 0.785788
-18.3609 -14.2872 5.9515 -0.00733023 -0.0488615 -0.998779
-15.0331 -10.8427 8.19519 0.794612 -0.606942 0.0145697
-17.6164 -10.9056 6.06619 0.183887 -0.0585972 -0.981199
-18.3759 -12.6317 6.00986 0.0137997 -0.00136579 -0.999904
-15.7953 -11.7142 9.2675 0.362476 -0.599477 0.71361
-14.7054 -10.5063 5.86097 -0.4303 -0.792922 -0.431412
-16.563 -16.835 6.796 0.653131 -0.583754 -0.48234
-14.445 -10.3615 6.8575 0.282855 -0.951239 0.123036
-16.33 -16.601 8.361 0.615923 -0.571743 0.541986
-16.3779 -15.1609 8.73063 0.603037 -0.285722 0.744788
-16.3687 -9.7295 6.31975 0.0285716 0.0449732 -0.99858
-16.9205 -12.4824 9.382 0.135998 -0.151947 0.978988
-17.8595 -9.8705 5.769 0.224566 0.00574713 -0.974442
-19.0273 -15.927 6.49744 -0.528751 -0.455518 -0.716189
-17.671 -16.924 6.2925 -0.019153 -0.60768 -0.793951
-18.8111 -11.0901 5.96569 -0.0226724 -0.183419 -0.982773
-14.1222 -10.2362 9.119 0.317312 -0.932536 -0.172307
-13.9075 -10.017 7.865 0.259067 -0.965505 0.0261541
-17.3923 -14.1713 9.258 0.0915104 -0.0876395 0.99194
-19.9883 -14.2528 6.0595 -0.390303 -0.208518 -0.896763
-20.1175 -13.1535 6.00425 -0.293098 0.0207855 -0.955856
-17.0993 -11.123 9.728 0.050641 -0.657794 0.751493
-13.372 -10.6006 6.02413 -0.0596607 -0.878413 0.474163
-18.0556 -12.7589 9.22262 -0.0476964 -0.0733478 0.996165
-15.5977 -11.0153 10.756 -0.0446271 -0.998487 -0.032134
-18.546 -17.069 6.767 -0.520319 -0.750265 -0.407887
-17.671 -17.4522 7.593 -0.0242997 -0.998533 0.0483818
-18.9745 -9.794 5.5925 -0.196269 0.14308 -0.970055
-13.6117 -11.175 4.89675 -0.696635 -0.71703 -0.0238453
-19.9814 -11.0499 6.23387 -0.420198 0.121153 -0.899308
-12.8769 -10.1391 6.88319 0.131502 -0.934215 0.331585
-17.0509 -8.59725 6.72237 -0.122438 0.665458 -0.736325
-18.2376 -8.663 6.14975 0.134453 0.637763 -0.758407
-17.892 -15.428 9.281 0.116394 -0.190557 0.974751
-18.2342 -11.6804 9.38488 0.0164741 -0.403704 0.914741
-13.8919 -10.6025 10.1834 0.261635 -0.89178 -0.369156
-14.4462 -9.07288 4.63263 -0.778934 -0.231027 -0.582999
-19.2083 -16.5305 7.822 -0.776665 -0.627934 0.0499063
-15.3691 -8.4265 6.08112 -0.674685 0.13659 -0.725358
-18.6268 -14.3872 9.21212 -0.221777 -0.135436 0.965646
-16.8307 -10.4169 10.779 -0.153617 -0.908316 0.389055
-12.506 -9.99162 7.804 0.635587 -0.747884 0.191569
-20.522 -15.3763 7.039 -0.592351 -0.755004 -0.281227
-20.9698 -12.8448 6.57812 -0.735286 -0.113084 -0.668256
-12.6095 -10.0452 9.3735 0.542641 -0.838511 -0.0493975
-18.546 -16.659 8.829 -0.355854 -0.558254 0.74948
-19.5457 -15.5938 8.26275 -0.595623 -0.639314 0.486324
-19.798 -9.5555 6.1505 -0.685014 0.268413 -0.677282
-21.1752 -14.5775 7.42725 -0.952801 -0.297653 -0.0597687
-12.859 -11.912 4.451 -0.309202 -0.947626 -0.0799973
-11.812 -9.762 7.06 0.615945 -0.653441 0.440031
-16.3965 -7.80387 7.19375 -0.64199 0.406949 -0.649801
-21.079 -11.3485 6.5885 -0.682771 0.396006 -0.614006
-19.2903 -8.58975 6.42 -0.340881 0.769253 -0.540417
-18.0842 -8.20588 7.21425 -0.134937 0.904376 -0.404841
-13.2327 -11.0689 3.64887 -0.603856 -0.520526 -0.603664
-19.4322 -12.1868 9.29225 -0.212148 -0.370685 0.904205
-17.9295 -10.4807 10.9862 0.203772 -0.92024 0.334119
-13.6791 -9.44462 3.96638 -0.784663 -0.0162267 -0.619709
-11.751 -10.7425 5.8105 0.396025 -0.647829 0.650755
-14.344 -11.6005 11.3425 0.168142 -0.957274 -0.235276
-18.9158 -11.0653 10.1265 0.121158 -0.873156 0.472144
-14.8977 -7.449 5.739 -0.628185 0.379633 -0.679163
-14.569 -7.8455 4.5965 -0.689979 0.36658 -0.624138
-12.9436 -10.2224 11.019 0.731517 -0.668141 -0.135903
-15.1456 -11.1446 12.3993 -0.2113 -0.771271 0.600411
-20.5295 -15.273 8.13 -0.617464 -0.670725 0.410933
-12.0107 -11.6585 5.02125 0.0771251 -0.882121 0.464665
-21.6275 -12.2069 7.23287 -0.991279 -0.0642374 -0.115063
-12.103 -9.03475 9.50412 0.980273 -0.191873 0.0474305
-21.2681 -11.1785 7.83337 -0.94573 0.273552 -0.175396
-17.3449 -10.0703 12.3079 0.0072831 -0.933307 0.359005
-20.1029 -8.894 7.0315 -0.638649 0.687559 -0.345528
-15.9235 -6.88912 6.91913 -0.76091 0.44196 -0.475066
-11.9443 -11.6205 3.769 0.0721648 -0.886644 -0.456788
-21.0296 -13.5229 8.1485 -0.891521 -0.183854 0.413991
-11.4354 -8.68175 7.05188 0.906893 -0.122837 0.403059
-20.5295 -14.376 8.6625 -0.55913 -0.270747 0.783626
-11.8993 -8.36287 8.442 0.964895 -0.0701074 0.253104
-16.797 -7.092 8.42344 -0.523127 0.761681 -0.382335
-13.5262 -11.3118 12.1214 0.505235 -0.737635 0.447921
-19.0802 -8.20569 8.0365 -0.410943 0.896665 -0.164671
-13.0129 -10.0099 2.87462 -0.573655 -0.0963802 -0.813407
-20.1047 -10.9861 10.3837 0.0714146 -0.930488 0.359294
-13.316 -8.237 3.639 -0.437458 0.564787 -0.699748
-11.9755 -8.58128 10.676 0.966685 -0.248206 -0.0625664
-18.2022 -7.71938 8.54775 -0.409342 0.880558 -0.238866
-13.02 -10.359 12.2035 0.696805 -0.463734 0.547187
-10.49 -10.6082 5.22475 0.703015 -0.398245 0.589212
-12.197 -9.42212 11.7636 0.862853 -0.415286 0.288135
-21.2463 -12.4145 8.2945 -0.828679 -0.207472 0.519853
-20.8336 -9.35913 7.769 -0.790303 0.559278 -0.250258
-15.342 -10.0555 13.1505 -0.0446152 -0.133316 0.990069
-13.3769 -7.07369 4.50744 -0.112079 0.745032 -0.657546
-10.8741 -11.4235 4.4755 0.475498 -0.856857 0.199244
-13.6648 -6.5765 6.081 0.0196493 0.899341 -0.436807
-12.649 -8.50275 2.91175 -0.315555 0.609038 -0.727666
-10.6932 -9.33603 5.83038 0.856452 0.0908443 0.508171
-15.0556 -5.97862 6.50075 -0.215017 0.789825 -0.574408
-14.3614 -9.91488 12.9845 0.234477 -0.201325 0.951046
-12.3398 -7.645 9.37088 0.924471 0.364109 0.113044
-11.8895 -10.1025 2.57025 0.0482922 -0.387864 -0.920451
-16.3324 -9.57938 12.9113 0.0748673 -0.400341 0.913303
-21.215 -11.1318 9.35975 -0.744433 -0.667498 -0.0163054
-10.8845 -11.1531 3.41825 0.454185 -0.617366 -0.64232
-20.4727 -10.84 11.5573 0.178683 -0.983373 0.0324074
-11.8705 -7.17175 8.259 0.864563 0.350963 0.359662
-19.6565 -10.831 12.367 0.274914 -0.94072 0.198669
-17.5917 -7.18325 9.48575 -0.378216 0.888554 -0.259664
-11.4478 -7.79975 5.989 0.823888 0.557988 -0.0992903
-16.2255 -6.05162 9.27262 -0.461001 0.876281 -0.140032
-13.2242 -9.37725 12.7205 0.361253 -0.155347 0.919437
-18.8803 -10.169 13.2294 0.33354 -0.863241 0.378902
-11.8664 -7.89288 11.6814 0.925801 0.288131 0.244691
-10.0812 -9.64756 4.613 0.930022 0.363453 0.0544062
-14.932 -5.647 7.568 -0.296399 0.936559 -0.187094
-17.514 -9.25963 14.049 0.49165 -0.685061 0.537562
-12.2902 -7.80613 4.51762 0.383876 0.81815 -0.428101
-9.833 -10.511 4.03075 0.936734 -0.324897 -0.130271
-20.2418 -8.73088 8.9535 -0.578139 0.774489 -0.256755
-11.8837 -9.04 2.4785 0.153279 0.291459 -0.944223
-11.6785 -6.84125 6.825 0.838956 0.538302 -0.0799012
-12.8751 -6.93699 9.90541 0.835044 0.540928 0.100493
-21.2008 -9.84212 9.65075 -0.859396 0.384081 -0.337521
-12.423 -8.28925 12.7095 0.46641 0.0899128 0.879987
-12.376 -7.104 5.54775 0.484044 0.783913 -0.38882
-15.1096 -5.77063 8.9065 -0.310933 0.949581 0.0402105
-11.257 -8.62237 3.36025 0.542133 0.720849 -0.431819
-12.6625 -6.508 8.608 0.680533 0.704461 0.201519
-10.9235 -8.4425 4.6665 0.712314 0.697913 -0.0743393
-16.241 -8.311 13.189 0.560006 -0.0170981 0.828312
-12.2273 -6.29025 7.618 0.471934 0.879836 0.0562706
-14.4009 -8.38313 12.5551 0.107231 0.209066 0.972005
-17.3175 -6.78494 10.7539 -0.388625 0.920736 -0.0348559
-10.5933 -9.69675 3.23019 0.696395 0.171832 -0.696784
-21.614 -11.3695 11.8645 0.106096 -0.993403 0.0435226
-13.272 -6.136 7.7405 0.294234 0.941491 -0.164379
-21.034 -11.12 12.8165 0.113043 -0.956829 0.267767
-20.5748 -10.6032 13.6053 0.165732 -0.814987 0.555274
-14.104 -5.607 8.4465 0.193419 0.970278 -0.145428
-17.4771 -8.27312 14.8329 0.768646 0.0622127 0.636642
-15.9875 -6.25688 10.7812 -0.121422 0.969182 0.214344
-13.458 -6.166 10.4875 0.45716 0.797129 0.394449
-22.468 -10.2434 10.5262 -0.807436 0.0115416 -0.589843
-22.2157 -11.2505 11.018 -0.570993 -0.788321 -0.229164
-13.0522 -7.41862 12.387 0.195902 0.639444 0.74346
-12.7347 -6.67925 11.2995 0.542763 0.809233 0.224834
-19.1464 -7.52119 10.2719 -0.399648 0.857733 -0.323382
-13.241 -5.649 9.247 0.614975 0.780192 0.114477
-19.3897 -9.711 14.9198 0.116296 -0.788879 0.603444
-18.7665 -7.0945 11.2499 -0.299586 0.93472 -0.191174
-22.5958 -11.0782 12.0903 -0.547987 -0.836459 -0.00682782
-14.301 -5.57575 9.97925 -0.0692064 0.947961 0.310774
-20.3319 -8.01456 10.5962 -0.518208 0.814055 -0.262249
-21.3429 -8.80112 10.9245 -0.570952 0.665772 -0.480377
-14.464 -7.162 12.191 0.114718 0.636867 0.762391
-18.7052 -8.91075 15.6088 0.310808 -0.574763 0.756998
-15.3359 -7.39187 12.6465 0.325666 0.554776 0.765614
-17.1421 -6.82312 12.0845 -0.152349 0.98768 0.0357603
-21.971 -11.1005 13.301 -0.106652 -0.920423 0.376093
-16.9757 -6.96663 13.2185 0.376412 0.835002 0.401355
-16.148 -6.504 11.925 -0.00710704 0.953404 0.301612
3 119 161 150
3 147 119 149
3 119 150 149
3 147 156 115
3 68 115 102
3 102 115 82
3 156 155 115
3 155 166 135
3 166 131 135
3 124 83 128
3 114 83 77
3 77 83 36
3 69 83 119
3 83 124 119
3 117 73 119
3 119 73 69
3 117 95 73
3 68 87 89
3 102 80 87
3 87 80 55
3 87 55 60
3 55 64 41
3 64 82 41
3 41 82 59
3 59 82 103
3 84 103 93
3 131 165 159
3 93 131 98
3 91 120 145
3 162 145 120
3 170 172 173
3 173 172 169
3 172 152 142
3 172 142 169
3 152 128 142
3 142 128 114
3 144 114 104
3 144 111 123
3 69 73 33
3 33 73 46
3 33 46 23
3 23 46 35
3 51 45 30
3 45 51 57
3 51 35 68
3 51 58 57
3 57 58 49
3 78 54 58
3 58 54 25
3 58 25 49
3 31 60 55
3 25 31 12
3 25 12 9
3 15 41 27
3 27 41 39
3 41 59 39
3 59 84 65
3 65 66 44
3 66 98 91
3 91 122 138
3 85 91 127
3 138 127 91
3 153 138 122
3 153 145 173
3 167 169 144
3 144 157 167
3 136 125 157
3 97 101 76
3 76 56 97
3 81 97 56
3 76 101 99
3 99 101 123
3 123 111 99
3 76 47 56
3 76 72 47
3 47 72 36
3 23 6 16
3 21 30 45
3 21 7 10
3 10 7 2
3 7 9 2
3 2 9 5
3 5 9 12
3 5 12 15
3 4 3 8
3 3 14 8
3 24 14 27
3 24 27 39
3 50 17 22
3 24 44 22
3 50 43 63
3 85 74 63
3 74 110 107
3 74 107 75
3 75 107 105
3 127 148 110
3 107 110 148
3 148 143 107
3 151 127 138
3 160 140 151
3 148 151 140
3 140 143 148
3 134 140 160
3 140 118 143
3 97 81 112
3 90 81 53
3 56 53 81
3 6 1 4
3 13 6 4
3 1 0 4
3 17 34 19
3 17 19 8
3 79 34 40
3 34 17 40
3 17 48 40
3 40 48 70
3 40 70 67
3 70 48 75
3 48 50 75
3 70 105 96
3 70 96 108
3 96 105 129
3 96 129 108
3 105 137 129
3 133 137 107
3 133 121 137
3 133 88 121
3 88 109 121
3 88 53 62
3 109 88 71
3 62 71 88
3 62 53 42
3 42 71 62
3 100 109 71
3 71 106 100
3 109 126 141
3 126 109 100
3 121 129 137
3 139 146 132
3 146 113 132
3 119 124 161
3 117 119 147
3 95 117 147
3 95 115 68
3 115 95 147
3 82 115 135
3 82 135 103
3 135 115 155
3 131 103 135
3 165 131 166
3 162 159 165
3 114 128 83
3 52 36 83
3 52 83 69
3 68 46 73
3 68 73 95
3 68 35 46
3 131 93 103
3 91 98 120
3 162 120 159
3 173 145 170
3 169 142 144
3 114 144 142
3 16 36 52
3 16 52 33
3 69 33 52
3 16 33 23
3 63 91 85
3 24 22 14
3 14 22 8
3 8 22 17
3 43 50 22
3 43 22 44
3 63 43 91
3 91 43 66
3 66 43 44
3 50 63 74
3 75 50 74
3 151 148 127
3 112 118 140
3 112 140 134
3 90 112 81
3 13 29 28
3 28 29 56
3 56 29 53
3 36 13 28
3 47 36 28
3 56 47 28
3 6 13 16
3 16 13 36
3 13 8 19
3 13 19 29
3 29 19 42
3 29 42 53
3 42 19 34
3 112 90 118
3 79 71 34
3 42 34 71
3 147 149 163
3 171 163 149
3 171 149 150
3 163 155 156
3 163 156 147
3 128 161 124
3 128 152 168
3 128 168 161
3 102 87 68
3 80 82 64
3 80 64 55
3 80 102 82
3 59 103 84
3 159 120 131
3 98 131 120
3 145 162 170
3 114 77 104
3 104 111 144
3 111 104 77
3 51 30 35
3 89 51 68
3 58 51 89
3 54 78 60
3 60 31 54
3 54 31 25
3 78 58 89
3 78 89 60
3 60 89 87
3 15 12 31
3 15 31 32
3 32 31 55
3 55 41 32
3 32 41 15
3 84 93 65
3 66 65 93
3 98 66 93
3 145 122 91
3 153 122 145
3 101 125 136
3 136 123 101
3 101 97 125
3 136 157 144
3 136 144 123
3 92 77 72
3 92 72 76
3 92 76 99
3 111 92 99
3 92 111 77
3 72 77 36
3 30 23 35
3 23 30 11
3 23 11 6
3 11 30 21
3 7 20 18
3 20 38 18
3 7 18 9
3 20 21 45
3 20 45 57
3 20 57 38
3 18 38 26
3 9 18 26
3 26 38 37
3 26 37 25
3 9 26 25
3 38 57 49
3 37 38 49
3 37 49 25
3 20 7 21
3 15 14 3
3 14 15 27
3 44 24 39
3 44 39 65
3 39 59 65
3 110 85 127
3 110 74 85
3 154 160 164
3 160 151 164
3 164 151 138
3 160 154 134
3 125 158 157
3 125 112 158
3 112 125 97
3 1 11 10
3 1 10 2
3 1 2 0
3 1 6 11
3 11 21 10
3 5 15 3
3 0 5 3
3 5 0 2
3 0 3 4
3 17 50 48
3 105 107 137
3 105 70 75
3 107 143 133
3 143 118 133
3 133 118 90
3 133 90 88
3 90 53 88
3 8 13 4
3 67 86 61
3 61 86 79
3 79 40 61
3 61 40 67
3 70 94 67
3 67 94 113
3 86 67 113
3 86 113 116
3 86 116 106
3 86 106 79
3 79 106 71
3 116 113 146
3 146 139 126
3 126 139 141
3 141 139 129
3 139 132 108
3 132 94 108
3 108 129 139
3 132 113 94
3 70 108 94
3 129 121 141
3 141 121 109
3 130 106 116
3 130 116 146
3 130 146 126
3 130 126 100
3 130 100 106
3 158 112 134
3 158 134 154
