ply
format ascii 1.0
comment Generated by PyMesh
element vertex 161
property float x
property float y
property float z
property float nx
property float ny
property float nz
element face 294
property list uchar int vertex_indices
end_header
-12.423 -8.28925 12.7095 0.46641 0.0899128 0.879987
-13.0522 -7.41862 12.387 0.195902 0.639444 0.74346
-11.8664 -7.89288 11.6814 0.925801 0.288131 0.244691
-13.2242 -9.37725 12.7205 0.361253 -0.155347 0.919437
-12.197 -9.42212 11.7636 0.862853 -0.415286 0.288135
-14.4009 -8.38313 12.5551 0.107231 0.209066 0.972005
-11.9755 -8.58128 10.676 0.966685 -0.248206 -0.0625664
-12.7347 -6.67925 11.2995 0.542763 0.809233 0.224834
-13.02 -10.359 12.2035 0.696805 -0.463734 0.547187
-14.464 -7.162 12.191 0.114718 0.636867 0.762391
-14.3614 -9.91488 12.9845 0.234477 -0.201325 0.951046
-12.9436 -10.2224 11.019 0.731517 -0.668141 -0.135903
-14.7009 -6.59762 11.1679 0.0296261 0.873256 0.48636
-15.3359 -7.39187 12.6465 0.325666 0.554776 0.765614
-13.5262 -11.3118 12.1214 0.505235 -0.737635 0.447921
-12.3398 -7.645 9.37088 0.924471 0.364109 0.113044
-15.342 -10.0555 13.1505 -0.0446152 -0.133316 0.990069
-13.458 -6.166 10.4875 0.45716 0.797129 0.394449
-12.103 -9.03475 9.50412 0.980273 -0.191873 0.0474305
-12.8751 -6.93699 9.90541 0.835044 0.540928 0.100493
-16.241 -8.311 13.189 0.560006 -0.0170981 0.828312
-13.8919 -10.6025 10.1834 0.261635 -0.89178 -0.369156
-15.1456 -11.1446 12.3993 -0.2113 -0.771271 0.600411
-16.3324 -9.57938 12.9113 0.0748673 -0.400341 0.913303
-12.6095 -10.0452 9.3735 0.542641 -0.838511 -0.0493975
-15.9875 -6.25688 10.7812 -0.121422 0.969182 0.214344
-14.344 -11.6005 11.3425 0.168142 -0.957274 -0.235276
-16.148 -6.504 11.925 -0.00710704 0.953404 0.301612
-14.301 -5.57575 9.97925 -0.0692064 0.947961 0.310774
-11.8993 -8.36287 8.442 0.964895 -0.0701074 0.253104
-11.8705 -7.17175 8.259 0.864563 0.350963 0.359662
-12.6625 -6.508 8.608 0.680533 0.704461 0.201519
-13.241 -5.649 9.247 0.614975 0.780192 0.114477
-16.9757 -6.96663 13.2185 0.376412 0.835002 0.401355
-14.1222 -10.2362 9.119 0.317312 -0.932536 -0.172307
-17.3449 -10.0703 12.3079 0.0072831 -0.933307 0.359005
-12.506 -9.99162 7.804 0.635587 -0.747884 0.191569
-17.514 -9.25963 14.049 0.49165 -0.685061 0.537562
-15.1096 -5.77063 8.9065 -0.310933 0.949581 0.0402105
-17.1421 -6.82312 12.0845 -0.152349 0.98768 0.0357603
-15.5977 -11.0153 10.756 -0.0446271 -0.998487 -0.032134
-17.4771 -8.27312 14.8329 0.768646 0.0622127 0.636642
-12.2273 -6.29025 7.618 0.471934 0.879836 0.0562706
-13.272 -6.136 7.7405 0.294234 0.941491 -0.164379
-17.3175 -6.78494 10.7539 -0.388625 0.920736 -0.0348559
-14.104 -5.607 8.4465 0.193419 0.970278 -0.145428
-16.2255 -6.05162 9.27262 -0.461001 0.876281 -0.140032
-11.4354 -8.68175 7.05188 0.906893 -0.122837 0.403059
-11.6785 -6.84125 6.825 0.838956 0.538302 -0.0799012
-17.718 -6.87575 14.2485 0.512979 0.736748 0.440518
-13.9075 -10.017 7.865 0.259067 -0.965505 0.0261541
-12.8769 -10.1391 6.88319 0.131502 -0.934215 0.331585
-15.0331 -10.8427 8.19519 0.794612 -0.606942 0.0145697
-11.812 -9.762 7.06 0.615945 -0.653441 0.440031
-18.6612 -6.53963 13.6825 -0.000841628 0.999542 0.0302569
-18.7201 -6.78025 12.6282 -0.152706 0.974744 -0.162957
-17.9295 -10.4807 10.9862 0.203772 -0.92024 0.334119
-14.932 -5.647 7.568 -0.296399 0.936559 -0.187094
-16.8307 -10.4169 10.779 -0.153617 -0.908316 0.389055
-18.8803 -10.169 13.2294 0.33354 -0.863241 0.378902
-17.5917 -7.18325 9.48575 -0.378216 0.888554 -0.259664
-15.7953 -11.7142 9.2675 0.362476 -0.599477 0.71361
-18.7052 -8.91075 15.6088 0.310808 -0.574763 0.756998
-18.7665 -7.0945 11.2499 -0.299586 0.93472 -0.191174
-11.4478 -7.79975 5.989 0.823888 0.557988 -0.0992903
-14.445 -10.3615 6.8575 0.282855 -0.951239 0.123036
-16.797 -7.092 8.42344 -0.523127 0.761681 -0.382335
-18.577 -7.85475 16.1035 0.252151 0.0676973 0.965317
-13.372 -10.6006 6.02413 -0.0596607 -0.878413 0.474163
-19.3897 -9.711 14.9198 0.116296 -0.788879 0.603444
-12.376 -7.104 5.54775 0.484044 0.783913 -0.38882
-13.6648 -6.5765 6.081 0.0196493 0.899341 -0.436807
-10.6932 -9.33603 5.83038 0.856452 0.0908443 0.508171
-19.6565 -10.831 12.367 0.274914 -0.94072 0.198669
-18.9241 -6.96331 15.3907 -0.0184397 0.791083 0.61143
-15.0556 -5.97862 6.50075 -0.215017 0.789825 -0.574408
-19.8096 -7.3305 12.1806 -0.422493 0.867754 -0.261729
-11.751 -10.7425 5.8105 0.396025 -0.647829 0.650755
-15.515 -10.8661 6.57281 0.48398 -0.503505 -0.715714
-15.5191 -12.0419 7.088 0.91038 0.0224387 -0.413164
-18.9158 -11.0653 10.1265 0.121158 -0.873156 0.472144
-17.0993 -11.123 9.728 0.050641 -0.657794 0.751493
-15.4423 -12.6602 8.57187 0.852243 -0.0237596 0.522606
-19.6926 -8.51519 15.6915 -0.354727 -0.0505206 0.933604
-14.7054 -10.5063 5.86097 -0.4303 -0.792922 -0.431412
-18.2022 -7.71938 8.54775 -0.409342 0.880558 -0.238866
-19.1464 -7.52119 10.2719 -0.399648 0.857733 -0.323382
-15.9235 -6.88912 6.91913 -0.76091 0.44196 -0.475066
-16.9205 -12.4824 9.382 0.135998 -0.151947 0.978988
-20.559 -7.1895 13.942 -0.497218 0.864605 0.072329
-13.6117 -11.175 4.89675 -0.696635 -0.71703 -0.0238453
-12.2902 -7.80613 4.51762 0.383876 0.81815 -0.428101
-20.4727 -10.84 11.5573 0.178683 -0.983373 0.0324074
-16.3965 -7.80387 7.19375 -0.64199 0.406949 -0.649801
-20.5565 -9.0725 15.2525 -0.414445 -0.295017 0.86093
-10.9235 -8.4425 4.6665 0.712314 0.697913 -0.0743393
-13.3769 -7.07369 4.50744 -0.112079 0.745032 -0.657546
-10.0812 -9.64756 4.613 0.930022 0.363453 0.0544062
-10.49 -10.6082 5.22475 0.703015 -0.398245 0.589212
-20.2059 -7.42238 15.0086 -0.50206 0.590406 0.631946
-14.8977 -7.449 5.739 -0.628185 0.379633 -0.679163
-21.034 -11.12 12.8165 0.113043 -0.956829 0.267767
-20.5748 -10.6032 13.6053 0.165732 -0.814987 0.555274
-12.0107 -11.6585 5.02125 0.0771251 -0.882121 0.464665
-20.3319 -8.01456 10.5962 -0.518208 0.814055 -0.262249
-18.2342 -11.6804 9.38488 0.0164741 -0.403704 0.914741
-20.1047 -10.9861 10.3837 0.0714146 -0.930488 0.359294
-15.7753 -13.6415 9.037 0.598663 -0.155371 0.785788
-14.9621 -13.321 7.748 0.99373 -0.101835 -0.0461542
-18.0842 -8.20588 7.21425 -0.134937 0.904376 -0.404841
-21.3085 -9.72125 14.475 -0.296893 -0.396969 0.868487
-16.3687 -9.7295 6.31975 0.0285716 0.0449732 -0.99858
-19.0802 -8.20569 8.0365 -0.410943 0.896665 -0.164671
-16.6131 -12.3586 6.12388 0.345698 -0.0165249 -0.9382
-15.6615 -13.451 6.55475 0.651625 -0.0982242 -0.752155
-19.4322 -12.1868 9.29225 -0.212148 -0.370685 0.904205
-17.0509 -8.59725 6.72237 -0.122438 0.665458 -0.736325
-14.569 -7.8455 4.5965 -0.689979 0.36658 -0.624138
-10.8741 -11.4235 4.4755 0.475498 -0.856857 0.199244
-21.614 -11.3695 11.8645 0.106096 -0.993403 0.0435226
-18.0556 -12.7589 9.22262 -0.0476964 -0.0733478 0.996165
-21.0061 -8.00712 14.7624 -0.648611 0.390745 0.653164
-12.859 -11.912 4.451 -0.309202 -0.947626 -0.0799973
-9.833 -10.511 4.03075 0.936734 -0.324897 -0.130271
-13.2327 -11.0689 3.64887 -0.603856 -0.520526 -0.603664
-21.971 -11.1005 13.301 -0.106652 -0.920423 0.376093
-13.316 -8.237 3.639 -0.437458 0.564787 -0.699748
-17.6164 -10.9056 6.06619 0.183887 -0.0585972 -0.981199
-15.3691 -8.4265 6.08112 -0.674685 0.13659 -0.725358
-11.257 -8.62237 3.36025 0.542133 0.720849 -0.431819
-20.2418 -8.73088 8.9535 -0.578139 0.774489 -0.256755
-21.94 -8.28475 12.0583 -0.558803 0.808481 -0.184656
-14.4462 -9.07288 4.63263 -0.778934 -0.231027 -0.582999
-17.3923 -14.1713 9.258 0.0915104 -0.0876395 0.99194
-21.3429 -8.80112 10.9245 -0.570952 0.665772 -0.480377
-10.5933 -9.69675 3.23019 0.696395 0.171832 -0.696784
-11.9443 -11.6205 3.769 0.0721648 -0.886644 -0.456788
-21.89 -8.36 13.2975 -0.697337 0.699089 0.158102
-12.649 -8.50275 2.91175 -0.315555 0.609038 -0.727666
-18.2376 -8.663 6.14975 0.134453 0.637763 -0.758407
-13.6791 -9.44462 3.96638 -0.784663 -0.0162267 -0.619709
-22.25 -10.51 14.0815 -0.21873 -0.517828 0.82705
-22.2157 -11.2505 11.018 -0.570993 -0.788321 -0.229164
-22.5958 -11.0782 12.0903 -0.547987 -0.836459 -0.00682782
-10.8845 -11.1531 3.41825 0.454185 -0.617366 -0.64232
-15.4785 -14.6277 7.97256 0.911759 -0.386778 0.138194
-21.215 -11.1318 9.35975 -0.744433 -0.667498 -0.0163054
-22.5636 -9.17675 13.9983 -0.683619 0.390177 0.616787
-19.2903 -8.58975 6.42 -0.340881 0.769253 -0.540417
-16.202 -14.757 6.7335 0.693306 -0.281304 -0.663472
-16.3779 -15.1609 8.73063 0.603037 -0.285722 0.744788
-17.8595 -9.8705 5.769 0.224566 0.00574713 -0.974442
-20.1029 -8.894 7.0315 -0.638649 0.687559 -0.345528
-17.024 -14.482 6.2055 0.297968 -0.0577432 -0.952828
-18.3759 -12.6317 6.00986 0.0137997 -0.00136579 -0.999904
-13.0129 -10.0099 2.87462 -0.573655 -0.0963802 -0.813407
-11.8837 -9.04 2.4785 0.153279 0.291459 -0.944223
-18.8111 -11.0901 5.96569 -0.0226724 -0.183419 -0.982773
-18.6268 -14.3872 9.21212 -0.221777 -0.135436 0.965646
-23.1501 -10.4362 13.4981 -0.8196 -0.412353 0.39777
-20.8336 -9.35913 7.769 -0.790303 0.559278 -0.250258
3 137 147 121
3 121 147 110
3 147 141 110
3 141 125 102
3 125 159 143
3 134 76 104
3 76 131 89
3 89 131 137
3 89 121 99
3 94 83 121
3 74 99 83
3 121 83 99
3 94 69 83
3 73 69 102
3 119 73 101
3 73 102 101
3 119 142 146
3 104 76 63
3 55 76 89
3 49 74 41
3 59 35 37
3 23 35 22
3 22 35 40
3 56 35 73
3 35 59 73
3 92 80 73
3 73 80 56
3 92 106 80
3 152 160 112
3 130 104 86
3 112 130 85
3 66 60 44
3 63 44 60
3 33 39 55
3 39 33 27
3 27 33 13
3 33 41 20
3 33 20 13
3 41 37 20
3 20 37 23
3 5 23 16
3 5 10 3
3 56 80 81
3 81 80 105
3 81 105 88
3 88 105 120
3 158 120 115
3 148 109 139
3 109 85 66
3 66 46 38
3 87 66 57
3 38 57 66
3 25 38 46
3 25 44 27
3 12 27 13
3 12 13 9
3 9 1 12
3 9 13 5
3 5 1 9
3 0 2 1
3 6 4 11
3 11 24 6
3 18 6 24
3 11 4 8
3 8 4 3
3 3 10 8
3 11 21 24
3 11 26 21
3 21 26 40
3 88 82 61
3 79 113 78
3 113 127 78
3 151 127 157
3 128 84 111
3 151 139 111
3 128 116 93
3 87 100 93
3 100 75 71
3 100 71 117
3 117 71 96
3 57 43 75
3 71 75 43
3 43 42 71
3 45 57 38
3 32 31 45
3 43 45 31
3 31 42 43
3 19 31 32
3 31 30 42
3 7 17 12
3 6 18 15
3 29 18 36
3 24 36 18
3 82 108 79
3 52 82 79
3 108 114 79
3 84 68 65
3 84 65 78
3 103 68 90
3 68 84 90
3 84 132 90
3 90 132 140
3 90 140 124
3 140 132 117
3 132 128 117
3 140 96 126
3 140 126 138
3 126 96 91
3 126 91 138
3 96 70 91
3 48 70 71
3 48 64 70
3 48 47 64
3 47 72 64
3 47 36 53
3 72 47 77
3 53 77 47
3 53 36 51
3 51 77 53
3 98 72 77
3 77 118 98
3 72 97 95
3 97 72 98
3 64 91 70
3 129 135 156
3 147 137 131
3 141 102 110
3 73 59 69
3 92 73 119
3 106 92 119
3 106 146 115
3 146 106 119
3 104 130 134
3 63 86 104
3 23 37 35
3 58 40 35
3 58 35 56
3 115 105 80
3 115 80 106
3 115 120 105
3 130 112 160
3 66 85 60
3 63 60 86
3 27 44 39
3 13 20 5
3 23 5 20
3 61 40 58
3 61 58 81
3 56 81 58
3 61 81 88
3 93 66 87
3 12 28 38
3 12 38 25
3 27 12 25
3 17 28 12
3 151 111 127
3 127 111 78
3 78 111 84
3 116 128 111
3 116 111 139
3 93 116 66
3 66 116 109
3 109 116 139
3 128 93 100
3 117 128 100
3 45 43 57
3 15 30 31
3 15 31 19
3 29 15 18
3 52 50 34
3 34 50 24
3 24 50 36
3 40 52 34
3 21 40 34
3 24 21 34
3 82 52 61
3 61 52 40
3 52 78 65
3 52 65 50
3 50 65 51
3 50 51 36
3 51 65 68
3 15 29 30
3 103 77 68
3 51 68 77
3 159 125 141
3 159 141 147
3 134 131 76
3 69 94 110
3 110 94 121
3 137 121 89
3 119 101 143
3 125 143 101
3 125 101 102
3 143 142 119
3 55 89 54
3 54 74 49
3 74 54 89
3 74 89 99
3 67 74 83
3 67 83 62
3 67 62 41
3 41 74 67
3 37 69 59
3 37 41 62
3 37 62 69
3 69 62 83
3 86 60 130
3 85 130 60
3 76 55 63
3 44 63 39
3 55 39 63
3 41 33 49
3 54 49 33
3 33 55 54
3 23 22 16
3 16 10 5
3 10 16 22
3 158 133 120
3 152 112 148
3 109 148 112
3 85 109 112
3 44 46 66
3 25 46 44
3 4 2 0
3 0 3 4
3 4 6 2
3 0 1 5
3 0 5 3
3 14 22 26
3 14 26 11
3 14 11 8
3 10 14 8
3 14 10 22
3 26 22 40
3 133 88 120
3 88 133 107
3 88 107 82
3 107 133 150
3 154 127 113
3 127 154 157
3 75 87 57
3 75 100 87
3 17 32 28
3 32 45 28
3 28 45 38
3 32 17 19
3 2 7 1
3 2 15 7
3 7 12 1
3 15 2 6
3 108 107 145
3 108 145 149
3 108 149 114
3 108 82 107
3 107 150 145
3 153 154 113
3 114 153 113
3 153 114 149
3 114 113 79
3 84 128 132
3 96 71 70
3 96 140 117
3 71 42 48
3 42 30 48
3 48 30 29
3 48 29 47
3 29 36 47
3 78 52 79
3 124 136 122
3 122 136 103
3 103 90 122
3 122 90 124
3 140 155 124
3 136 144 118
3 136 118 103
3 103 118 77
3 135 129 97
3 97 129 95
3 95 129 91
3 129 156 138
3 156 155 138
3 138 91 129
3 140 138 155
3 91 64 95
3 95 64 72
3 123 118 144
3 123 144 135
3 123 135 97
3 123 97 98
3 123 98 118
3 7 15 19
3 7 19 17
3 110 102 69
