ply
format ascii 1.0
comment Generated by PyMesh
element vertex 159
property float x
property float y
property float z
property float nx
property float ny
property float nz
element face 290
property list uchar int vertex_indices
end_header
-14.104 -5.607 8.4465 0.193419 0.970278 -0.145428
-15.1096 -5.77063 8.9065 -0.310933 0.949581 0.0402105
-13.241 -5.649 9.247 0.614975 0.780192 0.114477
-14.932 -5.647 7.568 -0.296399 0.936559 -0.187094
-13.272 -6.136 7.7405 0.294234 0.941491 -0.164379
-14.301 -5.57575 9.97925 -0.0692064 0.947961 0.310774
-12.6625 -6.508 8.608 0.680533 0.704461 0.201519
-12.2273 -6.29025 7.618 0.471934 0.879836 0.0562706
-16.2255 -6.05162 9.27262 -0.461001 0.876281 -0.140032
-15.0556 -5.97862 6.50075 -0.215017 0.789825 -0.574408
-13.458 -6.166 10.4875 0.45716 0.797129 0.394449
-12.8751 -6.93699 9.90541 0.835044 0.540928 0.100493
-11.8705 -7.17175 8.259 0.864563 0.350963 0.359662
-15.9235 -6.88912 6.91913 -0.76091 0.44196 -0.475066
-13.6648 -6.5765 6.081 0.0196493 0.899341 -0.436807
-12.3398 -7.645 9.37088 0.924471 0.364109 0.113044
-14.7009 -6.59762 11.1679 0.0296261 0.873256 0.48636
-15.9875 -6.25688 10.7812 -0.121422 0.969182 0.214344
-16.797 -7.092 8.42344 -0.523127 0.761681 -0.382335
-11.6785 -6.84125 6.825 0.838956 0.538302 -0.0799012
-12.7347 -6.67925 11.2995 0.542763 0.809233 0.224834
-16.3965 -7.80387 7.19375 -0.64199 0.406949 -0.649801
-14.8977 -7.449 5.739 -0.628185 0.379633 -0.679163
-11.8993 -8.36287 8.442 0.964895 -0.0701074 0.253104
-17.3175 -6.78494 10.7539 -0.388625 0.920736 -0.0348559
-14.464 -7.162 12.191 0.114718 0.636867 0.762391
-16.148 -6.504 11.925 -0.00710704 0.953404 0.301612
-12.376 -7.104 5.54775 0.484044 0.783913 -0.38882
-12.103 -9.03475 9.50412 0.980273 -0.191873 0.0474305
-17.5917 -7.18325 9.48575 -0.378216 0.888554 -0.259664
-13.3769 -7.07369 4.50744 -0.112079 0.745032 -0.657546
-11.4478 -7.79975 5.989 0.823888 0.557988 -0.0992903
-11.9755 -8.58128 10.676 0.966685 -0.248206 -0.0625664
-18.2022 -7.71938 8.54775 -0.409342 0.880558 -0.238866
-15.3359 -7.39187 12.6465 0.325666 0.554776 0.765614
-13.0522 -7.41862 12.387 0.195902 0.639444 0.74346
-17.0509 -8.59725 6.72237 -0.122438 0.665458 -0.736325
-14.569 -7.8455 4.5965 -0.689979 0.36658 -0.624138
-15.3691 -8.4265 6.08112 -0.674685 0.13659 -0.725358
-11.4354 -8.68175 7.05188 0.906893 -0.122837 0.403059
-11.8664 -7.89288 11.6814 0.925801 0.288131 0.244691
-18.0842 -8.20588 7.21425 -0.134937 0.904376 -0.404841
-17.1421 -6.82312 12.0845 -0.152349 0.98768 0.0357603
-14.4009 -8.38313 12.5551 0.107231 0.209066 0.972005
-12.6095 -10.0452 9.3735 0.542641 -0.838511 -0.0493975
-12.2902 -7.80613 4.51762 0.383876 0.81815 -0.428101
-12.506 -9.99162 7.804 0.635587 -0.747884 0.191569
-18.7665 -7.0945 11.2499 -0.299586 0.93472 -0.191174
-19.0802 -8.20569 8.0365 -0.410943 0.896665 -0.164671
-16.9757 -6.96663 13.2185 0.376412 0.835002 0.401355
-13.316 -8.237 3.639 -0.437458 0.564787 -0.699748
-12.197 -9.42212 11.7636 0.862853 -0.415286 0.288135
-12.423 -8.28925 12.7095 0.46641 0.0899128 0.879987
-10.9235 -8.4425 4.6665 0.712314 0.697913 -0.0743393
-16.241 -8.311 13.189 0.560006 -0.0170981 0.828312
-14.4462 -9.07288 4.63263 -0.778934 -0.231027 -0.582999
-10.6932 -9.33603 5.83038 0.856452 0.0908443 0.508171
-11.812 -9.762 7.06 0.615945 -0.653441 0.440031
-19.1464 -7.52119 10.2719 -0.399648 0.857733 -0.323382
-18.2376 -8.663 6.14975 0.134453 0.637763 -0.758407
-16.3687 -9.7295 6.31975 0.0285716 0.0449732 -0.99858
-12.9436 -10.2224 11.019 0.731517 -0.668141 -0.135903
-12.8769 -10.1391 6.88319 0.131502 -0.934215 0.331585
-19.2903 -8.58975 6.42 -0.340881 0.769253 -0.540417
-13.6791 -9.44462 3.96638 -0.784663 -0.0162267 -0.619709
-12.649 -8.50275 2.91175 -0.315555 0.609038 -0.727666
-18.7201 -6.78025 12.6282 -0.152706 0.974744 -0.162957
-20.2418 -8.73088 8.9535 -0.578139 0.774489 -0.256755
-13.2242 -9.37725 12.7205 0.361253 -0.155347 0.919437
-14.1222 -10.2362 9.119 0.317312 -0.932536 -0.172307
-14.3614 -9.91488 12.9845 0.234477 -0.201325 0.951046
-13.9075 -10.017 7.865 0.259067 -0.965505 0.0261541
-13.8919 -10.6025 10.1834 0.261635 -0.89178 -0.369156
-19.8096 -7.3305 12.1806 -0.422493 0.867754 -0.261729
-17.718 -6.87575 14.2485 0.512979 0.736748 0.440518
-14.7054 -10.5063 5.86097 -0.4303 -0.792922 -0.431412
-11.257 -8.62237 3.36025 0.542133 0.720849 -0.431819
-13.02 -10.359 12.2035 0.696805 -0.463734 0.547187
-20.1029 -8.894 7.0315 -0.638649 0.687559 -0.345528
-15.342 -10.0555 13.1505 -0.0446152 -0.133316 0.990069
-16.3324 -9.57938 12.9113 0.0748673 -0.400341 0.913303
-11.751 -10.7425 5.8105 0.396025 -0.647829 0.650755
-10.0812 -9.64756 4.613 0.930022 0.363453 0.0544062
-20.3319 -8.01456 10.5962 -0.518208 0.814055 -0.262249
-17.8595 -9.8705 5.769 0.224566 0.00574713 -0.974442
-10.49 -10.6082 5.22475 0.703015 -0.398245 0.589212
-18.6612 -6.53963 13.6825 -0.000841628 0.999542 0.0302569
-18.9745 -9.794 5.5925 -0.196269 0.14308 -0.970055
-15.515 -10.8661 6.57281 0.48398 -0.503505 -0.715714
-13.372 -10.6006 6.02413 -0.0596607 -0.878413 0.474163
-19.798 -9.5555 6.1505 -0.685014 0.268413 -0.677282
-20.8336 -9.35913 7.769 -0.790303 0.559278 -0.250258
-11.8837 -9.04 2.4785 0.153279 0.291459 -0.944223
-17.514 -9.25963 14.049 0.49165 -0.685061 0.537562
-17.4771 -8.27312 14.8329 0.768646 0.0622127 0.636642
-17.6164 -10.9056 6.06619 0.183887 -0.0585972 -0.981199
-13.5262 -11.3118 12.1214 0.505235 -0.737635 0.447921
-14.445 -10.3615 6.8575 0.282855 -0.951239 0.123036
-13.0129 -10.0099 2.87462 -0.573655 -0.0963802 -0.813407
-13.6117 -11.175 4.89675 -0.696635 -0.71703 -0.0238453
-15.0331 -10.8427 8.19519 0.794612 -0.606942 0.0145697
-14.344 -11.6005 11.3425 0.168142 -0.957274 -0.235276
-10.5933 -9.69675 3.23019 0.696395 0.171832 -0.696784
-13.2327 -11.0689 3.64887 -0.603856 -0.520526 -0.603664
-9.833 -10.511 4.03075 0.936734 -0.324897 -0.130271
-15.1456 -11.1446 12.3993 -0.2113 -0.771271 0.600411
-21.2008 -9.84212 9.65075 -0.859396 0.384081 -0.337521
-12.0107 -11.6585 5.02125 0.0771251 -0.882121 0.464665
-17.3449 -10.0703 12.3079 0.0072831 -0.933307 0.359005
-18.9241 -6.96331 15.3907 -0.0184397 0.791083 0.61143
-10.8741 -11.4235 4.4755 0.475498 -0.856857 0.199244
-21.3429 -8.80112 10.9245 -0.570952 0.665772 -0.480377
-15.5977 -11.0153 10.756 -0.0446271 -0.998487 -0.032134
-20.559 -7.1895 13.942 -0.497218 0.864605 0.072329
-11.8895 -10.1025 2.57025 0.0482922 -0.387864 -0.920451
-15.5191 -12.0419 7.088 0.91038 0.0224387 -0.413164
-18.8111 -11.0901 5.96569 -0.0226724 -0.183419 -0.982773
-19.9814 -11.0499 6.23387 -0.420198 0.121153 -0.899308
-21.94 -8.28475 12.0583 -0.558803 0.808481 -0.184656
-18.7052 -8.91075 15.6088 0.310808 -0.574763 0.756998
-12.859 -11.912 4.451 -0.309202 -0.947626 -0.0799973
-16.6131 -12.3586 6.12388 0.345698 -0.0165249 -0.9382
-18.577 -7.85475 16.1035 0.252151 0.0676973 0.965317
-21.2681 -11.1785 7.83337 -0.94573 0.273552 -0.175396
-18.8803 -10.169 13.2294 0.33354 -0.863241 0.378902
-10.8845 -11.1531 3.41825 0.454185 -0.617366 -0.64232
-21.215 -11.1318 9.35975 -0.744433 -0.667498 -0.0163054
-18.3759 -12.6317 6.00986 0.0137997 -0.00136579 -0.999904
-11.9443 -11.6205 3.769 0.0721648 -0.886644 -0.456788
-15.7953 -11.7142 9.2675 0.362476 -0.599477 0.71361
-19.3897 -9.711 14.9198 0.116296 -0.788879 0.603444
-20.2059 -7.42238 15.0086 -0.50206 0.590406 0.631946
-22.468 -10.2434 10.5262 -0.807436 0.0115416 -0.589843
-17.9295 -10.4807 10.9862 0.203772 -0.92024 0.334119
-21.0061 -8.00712 14.7624 -0.648611 0.390745 0.653164
-16.8307 -10.4169 10.779 -0.153617 -0.908316 0.389055
-15.4423 -12.6602 8.57187 0.852243 -0.0237596 0.522606
-21.079 -11.3485 6.5885 -0.682771 0.396006 -0.614006
-19.6926 -8.51519 15.6915 -0.354727 -0.0505206 0.933604
-22.8326 -9.38325 11.3923 -0.723974 0.485879 -0.489677
-15.6615 -13.451 6.55475 0.651625 -0.0982242 -0.752155
-14.9621 -13.321 7.748 0.99373 -0.101835 -0.0461542
-21.89 -8.36 13.2975 -0.697337 0.699089 0.158102
-21.6275 -12.2069 7.23287 -0.991279 -0.0642374 -0.115063
-23.1583 -9.1395 12.735 -0.882032 0.469308 0.0420707
-21.2463 -12.4145 8.2945 -0.828679 -0.207472 0.519853
-19.6565 -10.831 12.367 0.274914 -0.94072 0.198669
-22.2157 -11.2505 11.018 -0.570993 -0.788321 -0.229164
-16.9205 -12.4824 9.382 0.135998 -0.151947 0.978988
-20.9698 -12.8448 6.57812 -0.735286 -0.113084 -0.668256
-20.1047 -10.9861 10.3837 0.0714146 -0.930488 0.359294
-20.1175 -13.1535 6.00425 -0.293098 0.0207855 -0.955856
-20.5565 -9.0725 15.2525 -0.414445 -0.295017 0.86093
-15.7753 -13.6415 9.037 0.598663 -0.155371 0.785788
-17.0993 -11.123 9.728 0.050641 -0.657794 0.751493
-18.3609 -14.2872 5.9515 -0.00733023 -0.0488615 -0.998779
-22.5636 -9.17675 13.9983 -0.683619 0.390177 0.616787
-18.9158 -11.0653 10.1265 0.121158 -0.873156 0.472144
-23.2505 -10.1637 12.119 -0.959695 -0.166601 -0.226338
3 142 156 134
3 158 144 139
3 144 156 118
3 111 73 83
3 73 118 113
3 113 118 142
3 113 134 131
3 152 138 134
3 109 131 138
3 134 138 131
3 152 130 138
3 145 126 123
3 147 132 126
3 132 111 106
3 111 67 106
3 83 73 47
3 66 73 113
3 74 109 94
3 124 108 93
3 80 108 105
3 105 108 112
3 133 108 146
3 108 124 146
3 146 157 133
3 149 137 117
3 137 123 117
3 117 123 90
3 90 123 91
3 78 91 48
3 67 83 58
3 48 67 33
3 18 29 24
3 47 24 29
3 49 42 66
3 42 49 26
3 26 49 34
3 49 94 54
3 49 54 34
3 94 93 54
3 54 93 80
3 43 80 79
3 43 70 68
3 133 157 154
3 127 117 116
3 116 117 87
3 117 90 87
3 90 78 63
3 63 41 59
3 41 33 18
3 18 8 1
3 13 18 3
3 1 3 18
3 17 1 8
3 17 24 26
3 16 26 34
3 16 34 25
3 25 35 16
3 25 34 43
3 43 35 25
3 52 40 35
3 32 51 61
3 61 44 32
3 28 32 44
3 61 51 77
3 77 51 68
3 68 70 77
3 61 72 44
3 61 101 72
3 72 101 112
3 148 136 129
3 115 121 88
3 121 95 88
3 84 95 116
3 84 116 87
3 38 75 60
3 84 59 60
3 38 36 21
3 13 22 21
3 22 9 14
3 22 14 37
3 37 14 30
3 3 4 9
3 14 9 4
3 4 7 14
3 0 3 1
3 2 6 0
3 4 0 6
3 6 7 4
3 11 6 2
3 6 12 7
3 20 10 16
3 32 28 15
3 23 28 46
3 44 46 28
3 136 141 115
3 100 136 115
3 141 140 115
3 75 89 97
3 75 97 88
3 107 89 99
3 89 75 99
3 75 55 99
3 99 55 64
3 99 64 103
3 64 55 37
3 55 38 37
3 64 30 50
3 64 50 65
3 50 30 45
3 50 45 65
3 30 27 45
3 19 27 14
3 19 31 27
3 19 39 31
3 39 56 31
3 39 46 57
3 56 39 81
3 57 81 39
3 57 46 62
3 62 81 57
3 85 56 81
3 81 110 85
3 56 82 53
3 82 56 85
3 31 45 27
3 76 102 92
3 102 114 92
3 156 142 118
3 146 124 130
3 123 126 106
3 123 106 91
3 106 126 132
3 67 91 106
3 83 67 111
3 47 58 83
3 80 93 108
3 135 112 108
3 135 108 133
3 67 48 91
3 18 33 29
3 47 29 58
3 26 24 42
3 34 54 43
3 80 43 54
3 129 112 135
3 129 135 154
3 133 154 135
3 129 154 148
3 21 18 13
3 16 5 1
3 16 1 17
3 26 16 17
3 10 5 16
3 84 60 95
3 95 60 88
3 88 60 75
3 36 38 60
3 36 60 59
3 21 36 18
3 18 36 41
3 41 36 59
3 38 21 22
3 37 38 22
3 0 4 3
3 15 12 6
3 15 6 11
3 23 15 28
3 100 71 69
3 69 71 44
3 44 71 46
3 112 100 69
3 72 112 69
3 44 72 69
3 136 100 129
3 129 100 112
3 100 88 97
3 100 97 71
3 71 97 62
3 71 62 46
3 62 97 89
3 15 23 12
3 107 81 89
3 62 89 81
3 111 118 73
3 142 134 113
3 139 111 132
3 158 139 132
3 118 111 139
3 118 139 144
3 66 113 86
3 86 109 74
3 109 86 113
3 109 113 131
3 122 109 138
3 122 138 119
3 122 119 94
3 94 109 122
3 93 130 124
3 93 94 119
3 93 119 130
3 130 119 138
3 143 123 137
3 143 137 149
3 143 145 123
3 90 91 78
3 58 29 67
3 33 67 29
3 73 66 47
3 24 47 42
3 66 42 47
3 94 49 74
3 86 74 49
3 49 66 86
3 80 105 79
3 79 70 43
3 70 79 105
3 149 117 151
3 151 117 127
3 78 48 63
3 41 63 48
3 33 41 48
3 24 8 18
3 17 8 24
3 51 40 52
3 52 68 51
3 51 32 40
3 52 35 43
3 52 43 68
3 96 105 101
3 96 101 61
3 96 61 77
3 70 96 77
3 96 70 105
3 101 105 112
3 148 153 136
3 127 95 121
3 95 127 116
3 59 84 87
3 59 87 63
3 87 90 63
3 9 13 3
3 9 22 13
3 10 2 5
3 2 0 5
3 5 0 1
3 2 10 11
3 40 20 35
3 40 15 20
3 20 16 35
3 15 40 32
3 141 136 153
3 140 121 115
3 75 38 55
3 30 14 27
3 30 64 37
3 14 7 19
3 7 12 19
3 19 12 23
3 19 23 39
3 23 46 39
3 88 100 115
3 103 128 120
3 120 128 107
3 107 99 120
3 120 99 103
3 64 98 103
3 103 98 114
3 128 103 114
3 128 114 125
3 128 125 110
3 128 110 107
3 107 110 81
3 125 114 102
3 102 76 82
3 82 76 53
3 53 76 45
3 76 92 65
3 92 98 65
3 65 45 76
3 92 114 98
3 64 65 98
3 45 31 53
3 53 31 56
3 104 110 125
3 104 125 102
3 104 102 82
3 104 82 85
3 104 85 110
3 20 15 11
3 20 11 10
