ply
format ascii 1.0
comment Generated by PyMesh
element vertex 127
property float x
property float y
property float z
property float nx
property float ny
property float nz
element face 225
property list uchar int vertex_indices
end_header
-10.8741 -11.4235 4.4755 0.475498 -0.856857 0.199244
-10.8845 -11.1531 3.41825 0.454185 -0.617366 -0.64232
-10.49 -10.6082 5.22475 0.703015 -0.398245 0.589212
-12.0107 -11.6585 5.02125 0.0771251 -0.882121 0.464665
-11.9443 -11.6205 3.769 0.0721648 -0.886644 -0.456788
-9.833 -10.511 4.03075 0.936734 -0.324897 -0.130271
-11.751 -10.7425 5.8105 0.396025 -0.647829 0.650755
-12.859 -11.912 4.451 -0.309202 -0.947626 -0.0799973
-10.0812 -9.64756 4.613 0.930022 0.363453 0.0544062
-10.5933 -9.69675 3.23019 0.696395 0.171832 -0.696784
-10.6932 -9.33603 5.83038 0.856452 0.0908443 0.508171
-13.2327 -11.0689 3.64887 -0.603856 -0.520526 -0.603664
-11.8895 -10.1025 2.57025 0.0482922 -0.387864 -0.920451
-13.6117 -11.175 4.89675 -0.696635 -0.71703 -0.0238453
-13.372 -10.6006 6.02413 -0.0596607 -0.878413 0.474163
-11.812 -9.762 7.06 0.615945 -0.653441 0.440031
-12.8769 -10.1391 6.88319 0.131502 -0.934215 0.331585
-11.8837 -9.04 2.4785 0.153279 0.291459 -0.944223
-10.9235 -8.4425 4.6665 0.712314 0.697913 -0.0743393
-11.257 -8.62237 3.36025 0.542133 0.720849 -0.431819
-13.0129 -10.0099 2.87462 -0.573655 -0.0963802 -0.813407
-11.4354 -8.68175 7.05188 0.906893 -0.122837 0.403059
-11.4478 -7.79975 5.989 0.823888 0.557988 -0.0992903
-12.506 -9.99162 7.804 0.635587 -0.747884 0.191569
-13.6791 -9.44462 3.96638 -0.784663 -0.0162267 -0.619709
-14.7054 -10.5063 5.86097 -0.4303 -0.792922 -0.431412
-14.445 -10.3615 6.8575 0.282855 -0.951239 0.123036
-13.9075 -10.017 7.865 0.259067 -0.965505 0.0261541
-12.649 -8.50275 2.91175 -0.315555 0.609038 -0.727666
-14.4462 -9.07288 4.63263 -0.778934 -0.231027 -0.582999
-12.2902 -7.80613 4.51762 0.383876 0.81815 -0.428101
-12.376 -7.104 5.54775 0.484044 0.783913 -0.38882
-11.6785 -6.84125 6.825 0.838956 0.538302 -0.0799012
-11.8993 -8.36287 8.442 0.964895 -0.0701074 0.253104
-15.515 -10.8661 6.57281 0.48398 -0.503505 -0.715714
-13.316 -8.237 3.639 -0.437458 0.564787 -0.699748
-12.6095 -10.0452 9.3735 0.542641 -0.838511 -0.0493975
-14.1222 -10.2362 9.119 0.317312 -0.932536 -0.172307
-15.0331 -10.8427 8.19519 0.794612 -0.606942 0.0145697
-14.569 -7.8455 4.5965 -0.689979 0.36658 -0.624138
-12.103 -9.03475 9.50412 0.980273 -0.191873 0.0474305
-16.3687 -9.7295 6.31975 0.0285716 0.0449732 -0.99858
-13.3769 -7.07369 4.50744 -0.112079 0.745032 -0.657546
-12.2273 -6.29025 7.618 0.471934 0.879836 0.0562706
-15.3691 -8.4265 6.08112 -0.674685 0.13659 -0.725358
-11.8705 -7.17175 8.259 0.864563 0.350963 0.359662
-12.3398 -7.645 9.37088 0.924471 0.364109 0.113044
-15.5191 -12.0419 7.088 0.91038 0.0224387 -0.413164
-13.6648 -6.5765 6.081 0.0196493 0.899341 -0.436807
-13.8919 -10.6025 10.1834 0.261635 -0.89178 -0.369156
-16.6131 -12.3586 6.12388 0.345698 -0.0165249 -0.9382
-14.8977 -7.449 5.739 -0.628185 0.379633 -0.679163
-11.9755 -8.58128 10.676 0.966685 -0.248206 -0.0625664
-12.9436 -10.2224 11.019 0.731517 -0.668141 -0.135903
-15.7953 -11.7142 9.2675 0.362476 -0.599477 0.71361
-13.272 -6.136 7.7405 0.294234 0.941491 -0.164379
-12.6625 -6.508 8.608 0.680533 0.704461 0.201519
-17.0509 -8.59725 6.72237 -0.122438 0.665458 -0.736325
-17.6164 -10.9056 6.06619 0.183887 -0.0585972 -0.981199
-12.8751 -6.93699 9.90541 0.835044 0.540928 0.100493
-17.8595 -9.8705 5.769 0.224566 0.00574713 -0.974442
-15.4423 -12.6602 8.57187 0.852243 -0.0237596 0.522606
-16.3965 -7.80387 7.19375 -0.64199 0.406949 -0.649801
-15.5977 -11.0153 10.756 -0.0446271 -0.998487 -0.032134
-15.6615 -13.451 6.55475 0.651625 -0.0982242 -0.752155
-14.9621 -13.321 7.748 0.99373 -0.101835 -0.0461542
-18.2376 -8.663 6.14975 0.134453 0.637763 -0.758407
-15.0556 -5.97862 6.50075 -0.215017 0.789825 -0.574408
-13.02 -10.359 12.2035 0.696805 -0.463734 0.547187
-11.8664 -7.89288 11.6814 0.925801 0.288131 0.244691
-14.344 -11.6005 11.3425 0.168142 -0.957274 -0.235276
-12.197 -9.42212 11.7636 0.862853 -0.415286 0.288135
-14.104 -5.607 8.4465 0.193419 0.970278 -0.145428
-13.241 -5.649 9.247 0.614975 0.780192 0.114477
-18.0842 -8.20588 7.21425 -0.134937 0.904376 -0.404841
-18.8111 -11.0901 5.96569 -0.0226724 -0.183419 -0.982773
-13.458 -6.166 10.4875 0.45716 0.797129 0.394449
-12.7347 -6.67925 11.2995 0.542763 0.809233 0.224834
-16.9205 -12.4824 9.382 0.135998 -0.151947 0.978988
-18.9745 -9.794 5.5925 -0.196269 0.14308 -0.970055
-15.7753 -13.6415 9.037 0.598663 -0.155371 0.785788
-15.9235 -6.88912 6.91913 -0.76091 0.44196 -0.475066
-17.0993 -11.123 9.728 0.050641 -0.657794 0.751493
-13.5262 -11.3118 12.1214 0.505235 -0.737635 0.447921
-18.3759 -12.6317 6.00986 0.0137997 -0.00136579 -0.999904
-14.932 -5.647 7.568 -0.296399 0.936559 -0.187094
-19.2903 -8.58975 6.42 -0.340881 0.769253 -0.540417
-17.024 -14.482 6.2055 0.297968 -0.0577432 -0.952828
-16.8307 -10.4169 10.779 -0.153617 -0.908316 0.389055
-16.797 -7.092 8.42344 -0.523127 0.761681 -0.382335
-16.202 -14.757 6.7335 0.693306 -0.281304 -0.663472
-15.4785 -14.6277 7.97256 0.911759 -0.386778 0.138194
-13.2242 -9.37725 12.7205 0.361253 -0.155347 0.919437
-12.423 -8.28925 12.7095 0.46641 0.0899128 0.879987
-15.1096 -5.77063 8.9065 -0.310933 0.949581 0.0402105
-15.1456 -11.1446 12.3993 -0.2113 -0.771271 0.600411
-19.798 -9.5555 6.1505 -0.685014 0.268413 -0.677282
-14.301 -5.57575 9.97925 -0.0692064 0.947961 0.310774
-19.9814 -11.0499 6.23387 -0.420198 0.121153 -0.899308
-13.0522 -7.41862 12.387 0.195902 0.639444 0.74346
-18.0556 -12.7589 9.22262 -0.0476964 -0.0733478 0.996165
-19.0802 -8.20569 8.0365 -0.410943 0.896665 -0.164671
-14.3614 -9.91488 12.9845 0.234477 -0.201325 0.951046
-18.2022 -7.71938 8.54775 -0.409342 0.880558 -0.238866
-14.7009 -6.59762 11.1679 0.0296261 0.873256 0.48636
-18.2342 -11.6804 9.38488 0.0164741 -0.403704 0.914741
-20.1029 -8.894 7.0315 -0.638649 0.687559 -0.345528
-17.642 -15.301 5.926 0.277019 -0.12556 -0.952625
-16.3779 -15.1609 8.73063 0.603037 -0.285722 0.744788
-17.3923 -14.1713 9.258 0.0915104 -0.0876395 0.99194
-17.9295 -10.4807 10.9862 0.203772 -0.92024 0.334119
-17.3449 -10.0703 12.3079 0.0072831 -0.933307 0.359005
-18.3609 -14.2872 5.9515 -0.00733023 -0.0488615 -0.998779
-18.9158 -11.0653 10.1265 0.121158 -0.873156 0.472144
-17.5917 -7.18325 9.48575 -0.378216 0.888554 -0.259664
-20.1175 -13.1535 6.00425 -0.293098 0.0207855 -0.955856
-15.9945 -15.913 7.365 0.922354 -0.288572 -0.256885
-16.2255 -6.05162 9.27262 -0.461001 0.876281 -0.140032
-15.342 -10.0555 13.1505 -0.0446152 -0.133316 0.990069
-21.079 -11.3485 6.5885 -0.682771 0.396006 -0.614006
-14.4009 -8.38313 12.5551 0.107231 0.209066 0.972005
-19.9883 -14.2528 6.0595 -0.390303 -0.208518 -0.896763
-14.464 -7.162 12.191 0.114718 0.636867 0.762391
-19.4322 -12.1868 9.29225 -0.212148 -0.370685 0.904205
-20.8336 -9.35913 7.769 -0.790303 0.559278 -0.250258
-20.2418 -8.73088 8.9535 -0.578139 0.774489 -0.256755
-15.9875 -6.25688 10.7812 -0.121422 0.969182 0.214344
3 95 111 63
3 106 124 101
3 101 125 103
3 120 102 92
3 110 113 82
3 82 113 105
3 82 105 78
3 78 105 100
3 84 98 75
3 75 98 79
3 98 96 79
3 96 106 86
3 86 74 66
3 74 103 89
3 89 117 94
3 81 89 85
3 94 85 89
3 126 94 117
3 122 99 104
3 120 99 122
3 93 69 99
3 52 71 53
3 53 36 52
3 40 52 36
3 53 71 68
3 68 71 92
3 92 102 68
3 53 49 36
3 53 70 49
3 49 70 63
3 78 61 54
3 108 116 91
3 91 116 90
3 116 107 90
3 90 107 87
3 87 107 112
3 87 112 84
3 47 50 34
3 50 58 34
3 60 58 75
3 60 75 79
3 44 25 41
3 60 66 41
3 44 57 62
3 81 51 62
3 51 67 48
3 51 48 39
3 39 48 42
3 85 55 67
3 48 67 55
3 55 43 48
3 72 85 94
3 73 56 72
3 55 72 56
3 56 43 55
3 59 56 73
3 56 45 43
3 77 76 104
3 52 40 46
3 33 40 23
3 36 23 40
3 61 65 47
3 38 61 47
3 65 64 47
3 25 14 26
3 25 26 34
3 3 14 13
3 14 25 13
3 25 29 13
3 13 29 24
3 13 24 11
3 24 29 39
3 29 44 39
3 24 42 35
3 24 35 28
3 35 42 30
3 35 30 28
3 42 31 30
3 32 31 48
3 32 22 31
3 32 21 22
3 21 10 22
3 21 23 15
3 10 21 6
3 15 6 21
3 15 23 16
3 16 6 15
3 2 10 6
3 6 0 2
3 10 8 18
3 8 10 2
3 22 30 31
3 19 9 17
3 9 12 17
3 88 63 111
3 88 111 110
3 123 105 113
3 123 100 105
3 125 101 124
3 89 103 114
3 54 63 88
3 54 88 82
3 110 82 88
3 54 82 78
3 62 89 81
3 104 97 94
3 104 94 126
3 76 97 104
3 60 41 58
3 58 41 34
3 34 41 25
3 57 44 41
3 57 41 66
3 62 57 89
3 89 57 74
3 74 57 66
3 44 62 51
3 39 44 51
3 72 55 85
3 46 45 56
3 46 56 59
3 33 46 40
3 38 27 37
3 37 27 36
3 36 27 23
3 63 38 37
3 49 63 37
3 36 49 37
3 61 38 54
3 54 38 63
3 38 34 26
3 38 26 27
3 27 26 16
3 27 16 23
3 16 26 14
3 46 33 45
3 3 6 14
3 16 14 6
3 96 124 106
3 103 125 114
3 118 102 120
3 102 118 95
3 84 112 121
3 84 121 115
3 115 98 84
3 106 101 86
3 74 86 101
3 103 74 101
3 71 69 93
3 93 92 71
3 71 52 69
3 93 99 120
3 93 120 92
3 83 95 70
3 83 70 53
3 83 53 68
3 102 83 68
3 83 102 95
3 70 95 63
3 109 78 100
3 78 109 80
3 78 80 61
3 80 109 108
3 84 58 50
3 58 84 75
3 66 60 79
3 66 79 86
3 79 96 86
3 67 81 85
3 67 51 81
3 76 73 97
3 73 72 97
3 97 72 94
3 73 76 59
3 69 77 99
3 69 46 77
3 77 104 99
3 46 69 52
3 65 80 91
3 65 91 90
3 65 90 64
3 65 61 80
3 80 108 91
3 87 84 50
3 64 87 50
3 87 64 90
3 64 50 47
3 25 44 29
3 42 48 31
3 42 24 39
3 48 43 32
3 43 45 32
3 32 45 33
3 32 33 21
3 33 23 21
3 34 38 47
3 11 4 7
3 7 4 3
3 3 13 7
3 7 13 11
3 24 20 11
3 11 20 12
3 4 11 12
3 4 12 1
3 4 1 0
3 4 0 3
3 3 0 6
3 1 12 9
3 9 19 8
3 8 19 18
3 18 19 30
3 19 17 28
3 17 20 28
3 28 30 19
3 17 12 20
3 24 28 20
3 30 22 18
3 18 22 10
3 5 0 1
3 5 1 9
3 5 9 8
3 5 8 2
3 5 2 0
3 77 46 59
3 77 59 76
