ply
format ascii 1.0
comment Generated by PyMesh
element vertex 164
property float x
property float y
property float z
property float nx
property float ny
property float nz
element face 308
property list uchar int vertex_indices
end_header
-16.148 -6.504 11.925 -0.00710704 0.953404 0.301612
-17.1421 -6.82312 12.0845 -0.152349 0.98768 0.0357603
-15.9875 -6.25688 10.7812 -0.121422 0.969182 0.214344
-15.3359 -7.39187 12.6465 0.325666 0.554776 0.765614
-16.9757 -6.96663 13.2185 0.376412 0.835002 0.401355
-14.7009 -6.59762 11.1679 0.0296261 0.873256 0.48636
-17.3175 -6.78494 10.7539 -0.388625 0.920736 -0.0348559
-14.464 -7.162 12.191 0.114718 0.636867 0.762391
-16.2255 -6.05162 9.27262 -0.461001 0.876281 -0.140032
-18.7201 -6.78025 12.6282 -0.152706 0.974744 -0.162957
-14.4009 -8.38313 12.5551 0.107231 0.209066 0.972005
-16.241 -8.311 13.189 0.560006 -0.0170981 0.828312
-17.718 -6.87575 14.2485 0.512979 0.736748 0.440518
-18.7665 -7.0945 11.2499 -0.299586 0.93472 -0.191174
-17.5917 -7.18325 9.48575 -0.378216 0.888554 -0.259664
-13.458 -6.166 10.4875 0.45716 0.797129 0.394449
-14.301 -5.57575 9.97925 -0.0692064 0.947961 0.310774
-15.1096 -5.77063 8.9065 -0.310933 0.949581 0.0402105
-18.6612 -6.53963 13.6825 -0.000841628 0.999542 0.0302569
-12.7347 -6.67925 11.2995 0.542763 0.809233 0.224834
-17.4771 -8.27312 14.8329 0.768646 0.0622127 0.636642
-13.0522 -7.41862 12.387 0.195902 0.639444 0.74346
-19.8096 -7.3305 12.1806 -0.422493 0.867754 -0.261729
-19.1464 -7.52119 10.2719 -0.399648 0.857733 -0.323382
-16.797 -7.092 8.42344 -0.523127 0.761681 -0.382335
-16.3324 -9.57938 12.9113 0.0748673 -0.400341 0.913303
-12.8751 -6.93699 9.90541 0.835044 0.540928 0.100493
-18.2022 -7.71938 8.54775 -0.409342 0.880558 -0.238866
-13.2242 -9.37725 12.7205 0.361253 -0.155347 0.919437
-14.3614 -9.91488 12.9845 0.234477 -0.201325 0.951046
-14.104 -5.607 8.4465 0.193419 0.970278 -0.145428
-13.241 -5.649 9.247 0.614975 0.780192 0.114477
-18.9241 -6.96331 15.3907 -0.0184397 0.791083 0.61143
-17.514 -9.25963 14.049 0.49165 -0.685061 0.537562
-14.932 -5.647 7.568 -0.296399 0.936559 -0.187094
-12.423 -8.28925 12.7095 0.46641 0.0899128 0.879987
-15.342 -10.0555 13.1505 -0.0446152 -0.133316 0.990069
-20.3319 -8.01456 10.5962 -0.518208 0.814055 -0.262249
-20.559 -7.1895 13.942 -0.497218 0.864605 0.072329
-11.8664 -7.89288 11.6814 0.925801 0.288131 0.244691
-12.3398 -7.645 9.37088 0.924471 0.364109 0.113044
-18.7052 -8.91075 15.6088 0.310808 -0.574763 0.756998
-17.3449 -10.0703 12.3079 0.0072831 -0.933307 0.359005
-19.0802 -8.20569 8.0365 -0.410943 0.896665 -0.164671
-13.02 -10.359 12.2035 0.696805 -0.463734 0.547187
-18.577 -7.85475 16.1035 0.252151 0.0676973 0.965317
-16.3965 -7.80387 7.19375 -0.64199 0.406949 -0.649801
-12.6625 -6.508 8.608 0.680533 0.704461 0.201519
-13.272 -6.136 7.7405 0.294234 0.941491 -0.164379
-18.0842 -8.20588 7.21425 -0.134937 0.904376 -0.404841
-12.197 -9.42212 11.7636 0.862853 -0.415286 0.288135
-15.0556 -5.97862 6.50075 -0.215017 0.789825 -0.574408
-15.9235 -6.88912 6.91913 -0.76091 0.44196 -0.475066
-15.1456 -11.1446 12.3993 -0.2113 -0.771271 0.600411
-20.2059 -7.42238 15.0086 -0.50206 0.590406 0.631946
-20.2418 -8.73088 8.9535 -0.578139 0.774489 -0.256755
-21.3429 -8.80112 10.9245 -0.570952 0.665772 -0.480377
-13.5262 -11.3118 12.1214 0.505235 -0.737635 0.447921
-21.0061 -8.00712 14.7624 -0.648611 0.390745 0.653164
-19.6926 -8.51519 15.6915 -0.354727 -0.0505206 0.933604
-21.94 -8.28475 12.0583 -0.558803 0.808481 -0.184656
-17.0509 -8.59725 6.72237 -0.122438 0.665458 -0.736325
-11.9755 -8.58128 10.676 0.966685 -0.248206 -0.0625664
-18.8803 -10.169 13.2294 0.33354 -0.863241 0.378902
-11.8993 -8.36287 8.442 0.964895 -0.0701074 0.253104
-11.8705 -7.17175 8.259 0.864563 0.350963 0.359662
-19.3897 -9.711 14.9198 0.116296 -0.788879 0.603444
-12.9436 -10.2224 11.019 0.731517 -0.668141 -0.135903
-12.103 -9.03475 9.50412 0.980273 -0.191873 0.0474305
-12.2273 -6.29025 7.618 0.471934 0.879836 0.0562706
-18.2376 -8.663 6.14975 0.134453 0.637763 -0.758407
-17.9295 -10.4807 10.9862 0.203772 -0.92024 0.334119
-21.89 -8.36 13.2975 -0.697337 0.699089 0.158102
-20.1029 -8.894 7.0315 -0.638649 0.687559 -0.345528
-16.8307 -10.4169 10.779 -0.153617 -0.908316 0.389055
-19.2903 -8.58975 6.42 -0.340881 0.769253 -0.540417
-15.3691 -8.4265 6.08112 -0.674685 0.13659 -0.725358
-14.344 -11.6005 11.3425 0.168142 -0.957274 -0.235276
-13.6648 -6.5765 6.081 0.0196493 0.899341 -0.436807
-20.5565 -9.0725 15.2525 -0.414445 -0.295017 0.86093
-14.8977 -7.449 5.739 -0.628185 0.379633 -0.679163
-20.8336 -9.35913 7.769 -0.790303 0.559278 -0.250258
-15.5977 -11.0153 10.756 -0.0446271 -0.998487 -0.032134
-16.3687 -9.7295 6.31975 0.0285716 0.0449732 -0.99858
-21.2008 -9.84212 9.65075 -0.859396 0.384081 -0.337521
-19.6565 -10.831 12.367 0.274914 -0.94072 0.198669
-11.6785 -6.84125 6.825 0.838956 0.538302 -0.0799012
-22.8326 -9.38325 11.3923 -0.723974 0.485879 -0.489677
-12.6095 -10.0452 9.3735 0.542641 -0.838511 -0.0493975
-13.8919 -10.6025 10.1834 0.261635 -0.89178 -0.369156
-23.1583 -9.1395 12.735 -0.882032 0.469308 0.0420707
-22.468 -10.2434 10.5262 -0.807436 0.0115416 -0.589843
-21.3085 -9.72125 14.475 -0.296893 -0.396969 0.868487
-11.4354 -8.68175 7.05188 0.906893 -0.122837 0.403059
-19.798 -9.5555 6.1505 -0.685014 0.268413 -0.677282
-22.5636 -9.17675 13.9983 -0.683619 0.390177 0.616787
-17.8595 -9.8705 5.769 0.224566 0.00574713 -0.974442
-18.9158 -11.0653 10.1265 0.121158 -0.873156 0.472144
-17.0993 -11.123 9.728 0.050641 -0.657794 0.751493
-18.9745 -9.794 5.5925 -0.196269 0.14308 -0.970055
-12.506 -9.99162 7.804 0.635587 -0.747884 0.191569
-20.5748 -10.6032 13.6053 0.165732 -0.814987 0.555274
-14.569 -7.8455 4.5965 -0.689979 0.36658 -0.624138
-12.376 -7.104 5.54775 0.484044 0.783913 -0.38882
-20.4727 -10.84 11.5573 0.178683 -0.983373 0.0324074
-23.2505 -10.1637 12.119 -0.959695 -0.166601 -0.226338
-13.3769 -7.07369 4.50744 -0.112079 0.745032 -0.657546
-14.4462 -9.07288 4.63263 -0.778934 -0.231027 -0.582999
-21.215 -11.1318 9.35975 -0.744433 -0.667498 -0.0163054
-11.4478 -7.79975 5.989 0.823888 0.557988 -0.0992903
-14.1222 -10.2362 9.119 0.317312 -0.932536 -0.172307
-22.2157 -11.2505 11.018 -0.570993 -0.788321 -0.229164
-11.812 -9.762 7.06 0.615945 -0.653441 0.440031
-15.515 -10.8661 6.57281 0.48398 -0.503505 -0.715714
-21.034 -11.12 12.8165 0.113043 -0.956829 0.267767
-15.7953 -11.7142 9.2675 0.362476 -0.599477 0.71361
-17.6164 -10.9056 6.06619 0.183887 -0.0585972 -0.981199
-22.25 -10.51 14.0815 -0.21873 -0.517828 0.82705
-12.8769 -10.1391 6.88319 0.131502 -0.934215 0.331585
-21.2681 -11.1785 7.83337 -0.94573 0.273552 -0.175396
-14.7054 -10.5063 5.86097 -0.4303 -0.792922 -0.431412
-18.2342 -11.6804 9.38488 0.0164741 -0.403704 0.914741
-23.1501 -10.4362 13.4981 -0.8196 -0.412353 0.39777
-20.1047 -10.9861 10.3837 0.0714146 -0.930488 0.359294
-10.6932 -9.33603 5.83038 0.856452 0.0908443 0.508171
-19.9814 -11.0499 6.23387 -0.420198 0.121153 -0.899308
-18.8111 -11.0901 5.96569 -0.0226724 -0.183419 -0.982773
-16.9205 -12.4824 9.382 0.135998 -0.151947 0.978988
-13.9075 -10.017 7.865 0.259067 -0.965505 0.0261541
-22.5958 -11.0782 12.0903 -0.547987 -0.836459 -0.00682782
-19.4322 -12.1868 9.29225 -0.212148 -0.370685 0.904205
-21.614 -11.3695 11.8645 0.106096 -0.993403 0.0435226
-21.971 -11.1005 13.301 -0.106652 -0.920423 0.376093
-12.2902 -7.80613 4.51762 0.383876 0.81815 -0.428101
-13.6791 -9.44462 3.96638 -0.784663 -0.0162267 -0.619709
-15.0331 -10.8427 8.19519 0.794612 -0.606942 0.0145697
-14.445 -10.3615 6.8575 0.282855 -0.951239 0.123036
-11.751 -10.7425 5.8105 0.396025 -0.647829 0.650755
-15.5191 -12.0419 7.088 0.91038 0.0224387 -0.413164
-13.372 -10.6006 6.02413 -0.0596607 -0.878413 0.474163
-13.316 -8.237 3.639 -0.437458 0.564787 -0.699748
-15.4423 -12.6602 8.57187 0.852243 -0.0237596 0.522606
-18.0556 -12.7589 9.22262 -0.0476964 -0.0733478 0.996165
-21.6275 -12.2069 7.23287 -0.991279 -0.0642374 -0.115063
-21.079 -11.3485 6.5885 -0.682771 0.396006 -0.614006
-10.9235 -8.4425 4.6665 0.712314 0.697913 -0.0743393
-21.2463 -12.4145 8.2945 -0.828679 -0.207472 0.519853
-13.6117 -11.175 4.89675 -0.696635 -0.71703 -0.0238453
-10.0812 -9.64756 4.613 0.930022 0.363453 0.0544062
-10.49 -10.6082 5.22475 0.703015 -0.398245 0.589212
-16.6131 -12.3586 6.12388 0.345698 -0.0165249 -0.9382
-18.3759 -12.6317 6.00986 0.0137997 -0.00136579 -0.999904
-15.7753 -13.6415 9.037 0.598663 -0.155371 0.785788
-17.3923 -14.1713 9.258 0.0915104 -0.0876395 0.99194
-12.649 -8.50275 2.91175 -0.315555 0.609038 -0.727666
-13.0129 -10.0099 2.87462 -0.573655 -0.0963802 -0.813407
-14.9621 -13.321 7.748 0.99373 -0.101835 -0.0461542
-12.0107 -11.6585 5.02125 0.0771251 -0.882121 0.464665
-20.9698 -12.8448 6.57812 -0.735286 -0.113084 -0.668256
-20.1175 -13.1535 6.00425 -0.293098 0.0207855 -0.955856
-13.2327 -11.0689 3.64887 -0.603856 -0.520526 -0.603664
-21.0296 -13.5229 8.1485 -0.891521 -0.183854 0.413991
-11.257 -8.62237 3.36025 0.542133 0.720849 -0.431819
-15.6615 -13.451 6.55475 0.651625 -0.0982242 -0.752155
3 72 95 58
3 58 95 92
3 95 117 92
3 117 132 101
3 132 122 129
3 105 90 87
3 90 95 60
3 56 22 37
3 22 60 38
3 38 60 72
3 38 58 54
3 79 59 58
3 32 54 59
3 58 59 54
3 79 66 59
3 85 66 101
3 131 85 114
3 85 101 114
3 131 111 108
3 130 108 146
3 146 108 119
3 111 91 108
3 91 56 84
3 56 55 84
3 37 22 13
3 9 22 38
3 12 32 20
3 63 42 33
3 25 42 53
3 53 42 82
3 71 42 85
3 42 63 85
3 104 97 85
3 85 97 71
3 104 123 97
3 146 143 161
3 161 143 158
3 158 144 125
3 144 119 125
3 125 119 94
3 94 119 81
3 73 81 43
3 55 37 23
3 43 55 27
3 24 14 6
3 13 6 14
3 4 1 9
3 1 4 0
3 0 4 3
3 4 20 11
3 4 11 3
3 20 33 11
3 11 33 25
3 10 25 36
3 10 29 28
3 71 97 98
3 98 97 121
3 98 121 127
3 127 121 142
3 151 125 126
3 126 125 99
3 125 94 99
3 94 73 75
3 75 49 70
3 49 27 24
3 24 8 17
3 52 24 34
3 17 34 24
3 2 17 8
3 2 6 0
3 5 0 3
3 5 3 7
3 7 21 5
3 7 3 10
3 10 21 7
3 35 39 21
3 62 50 67
3 67 88 62
3 68 62 88
3 67 50 44
3 44 50 28
3 28 29 44
3 67 89 88
3 67 77 89
3 89 77 82
3 127 141 115
3 138 150 113
3 150 116 113
3 96 116 126
3 96 126 99
3 76 120 83
3 96 70 83
3 76 61 46
3 52 80 46
3 80 51 78
3 80 78 102
3 102 78 106
3 34 48 51
3 78 51 48
3 48 69 78
3 30 34 17
3 31 47 30
3 48 30 47
3 47 69 48
3 26 47 31
3 47 65 69
3 19 15 5
3 62 68 40
3 64 68 100
3 88 100 68
3 141 156 138
3 135 141 138
3 156 163 138
3 120 139 136
3 120 136 113
3 157 139 147
3 139 120 147
3 120 107 147
3 147 107 134
3 147 134 160
3 134 107 102
3 107 76 102
3 134 106 140
3 134 140 154
3 140 106 133
3 140 133 154
3 106 103 133
3 86 103 78
3 86 109 103
3 86 93 109
3 93 124 109
3 93 100 112
3 124 93 137
3 112 137 93
3 112 100 118
3 118 137 112
3 149 124 137
3 124 148 145
3 148 124 149
3 109 133 103
3 95 72 60
3 117 101 92
3 85 63 66
3 104 85 131
3 123 104 131
3 123 108 130
3 108 123 131
3 119 108 84
3 119 84 81
3 84 108 91
3 55 81 84
3 37 55 56
3 13 23 37
3 25 33 42
3 74 82 42
3 74 42 71
3 130 121 97
3 130 97 123
3 130 142 121
3 55 43 81
3 24 27 14
3 13 14 23
3 0 6 1
3 3 11 10
3 25 10 11
3 115 82 74
3 115 74 98
3 71 98 74
3 115 98 127
3 46 24 52
3 5 16 17
3 5 17 2
3 0 5 2
3 15 16 5
3 96 83 116
3 116 83 113
3 113 83 120
3 61 76 83
3 61 83 70
3 46 61 24
3 24 61 49
3 49 61 70
3 76 46 80
3 102 76 80
3 30 48 34
3 40 65 47
3 40 47 26
3 64 40 68
3 135 128 110
3 110 128 88
3 88 128 100
3 82 135 110
3 89 82 110
3 88 89 110
3 141 135 115
3 115 135 82
3 135 113 136
3 135 136 128
3 128 136 118
3 128 118 100
3 118 136 139
3 40 64 65
3 157 137 139
3 118 139 137
3 95 90 122
3 122 105 129
3 122 132 117
3 122 117 95
3 122 90 105
3 56 60 22
3 66 79 92
3 92 79 58
3 72 58 38
3 131 114 129
3 132 129 114
3 132 114 101
3 87 56 91
3 105 87 91
3 105 91 129
3 129 91 111
3 129 111 131
3 60 56 87
3 60 87 90
3 9 38 18
3 18 32 12
3 32 18 38
3 32 38 54
3 45 32 59
3 45 59 41
3 45 41 20
3 20 32 45
3 33 66 63
3 33 20 41
3 33 41 66
3 66 41 59
3 146 161 130
3 143 119 144
3 143 144 158
3 143 146 119
3 94 81 73
3 23 14 55
3 27 55 14
3 22 9 13
3 6 13 1
3 9 1 13
3 20 4 12
3 18 12 4
3 4 9 18
3 25 53 36
3 36 29 10
3 29 36 53
3 158 125 159
3 159 125 151
3 73 43 75
3 49 75 43
3 27 49 43
3 6 8 24
3 2 8 6
3 50 39 35
3 35 28 50
3 50 62 39
3 35 21 10
3 35 10 28
3 57 53 77
3 57 77 67
3 57 67 44
3 29 57 44
3 57 29 53
3 77 53 82
3 153 127 142
3 127 153 152
3 127 152 141
3 151 116 150
3 116 151 126
3 70 96 99
3 70 99 75
3 99 94 75
3 51 52 34
3 51 80 52
3 15 31 16
3 31 30 16
3 16 30 17
3 31 15 26
3 39 19 21
3 39 40 19
3 19 5 21
3 40 39 62
3 156 141 152
3 163 150 138
3 120 76 107
3 106 78 103
3 106 134 102
3 78 69 86
3 69 65 86
3 86 65 64
3 86 64 93
3 64 100 93
3 113 135 138
3 134 155 160
3 148 162 145
3 145 162 133
3 154 133 162
3 134 154 155
3 133 109 145
3 145 109 124
3 19 40 26
3 19 26 15
3 92 101 66
