ply
format ascii 1.0
comment Generated by PyMesh
element vertex 132
property float x
property float y
property float z
property float nx
property float ny
property float nz
element face 236
property list uchar int vertex_indices
end_header
-10.49 -10.6082 5.22475 0.703015 -0.398245 0.589212
-10.8741 -11.4235 4.4755 0.475498 -0.856857 0.199244
-10.0812 -9.64756 4.613 0.930022 0.363453 0.0544062
-9.833 -10.511 4.03075 0.936734 -0.324897 -0.130271
-11.751 -10.7425 5.8105 0.396025 -0.647829 0.650755
-10.6932 -9.33603 5.83038 0.856452 0.0908443 0.508171
-10.8845 -11.1531 3.41825 0.454185 -0.617366 -0.64232
-12.0107 -11.6585 5.02125 0.0771251 -0.882121 0.464665
-11.9443 -11.6205 3.769 0.0721648 -0.886644 -0.456788
-10.9235 -8.4425 4.6665 0.712314 0.697913 -0.0743393
-10.5933 -9.69675 3.23019 0.696395 0.171832 -0.696784
-11.812 -9.762 7.06 0.615945 -0.653441 0.440031
-11.4354 -8.68175 7.05188 0.906893 -0.122837 0.403059
-13.372 -10.6006 6.02413 -0.0596607 -0.878413 0.474163
-12.8769 -10.1391 6.88319 0.131502 -0.934215 0.331585
-11.4478 -7.79975 5.989 0.823888 0.557988 -0.0992903
-11.257 -8.62237 3.36025 0.542133 0.720849 -0.431819
-12.859 -11.912 4.451 -0.309202 -0.947626 -0.0799973
-13.2327 -11.0689 3.64887 -0.603856 -0.520526 -0.603664
-11.8895 -10.1025 2.57025 0.0482922 -0.387864 -0.920451
-12.506 -9.99162 7.804 0.635587 -0.747884 0.191569
-13.6117 -11.175 4.89675 -0.696635 -0.71703 -0.0238453
-12.2902 -7.80613 4.51762 0.383876 0.81815 -0.428101
-11.8837 -9.04 2.4785 0.153279 0.291459 -0.944223
-12.376 -7.104 5.54775 0.484044 0.783913 -0.38882
-14.7054 -10.5063 5.86097 -0.4303 -0.792922 -0.431412
-14.445 -10.3615 6.8575 0.282855 -0.951239 0.123036
-11.6785 -6.84125 6.825 0.838956 0.538302 -0.0799012
-13.9075 -10.017 7.865 0.259067 -0.965505 0.0261541
-11.8993 -8.36287 8.442 0.964895 -0.0701074 0.253104
-12.649 -8.50275 2.91175 -0.315555 0.609038 -0.727666
-13.0129 -10.0099 2.87462 -0.573655 -0.0963802 -0.813407
-13.3769 -7.07369 4.50744 -0.112079 0.745032 -0.657546
-15.515 -10.8661 6.57281 0.48398 -0.503505 -0.715714
-12.2273 -6.29025 7.618 0.471934 0.879836 0.0562706
-13.6791 -9.44462 3.96638 -0.784663 -0.0162267 -0.619709
-12.6095 -10.0452 9.3735 0.542641 -0.838511 -0.0493975
-13.316 -8.237 3.639 -0.437458 0.564787 -0.699748
-11.8705 -7.17175 8.259 0.864563 0.350963 0.359662
-12.3398 -7.645 9.37088 0.924471 0.364109 0.113044
-12.103 -9.03475 9.50412 0.980273 -0.191873 0.0474305
-14.1222 -10.2362 9.119 0.317312 -0.932536 -0.172307
-13.6648 -6.5765 6.081 0.0196493 0.899341 -0.436807
-15.0331 -10.8427 8.19519 0.794612 -0.606942 0.0145697
-16.3687 -9.7295 6.31975 0.0285716 0.0449732 -0.99858
-14.4462 -9.07288 4.63263 -0.778934 -0.231027 -0.582999
-15.3691 -8.4265 6.08112 -0.674685 0.13659 -0.725358
-13.272 -6.136 7.7405 0.294234 0.941491 -0.164379
-12.6625 -6.508 8.608 0.680533 0.704461 0.201519
-12.8751 -6.93699 9.90541 0.835044 0.540928 0.100493
-15.5191 -12.0419 7.088 0.91038 0.0224387 -0.413164
-14.569 -7.8455 4.5965 -0.689979 0.36658 -0.624138
-13.8919 -10.6025 10.1834 0.261635 -0.89178 -0.369156
-11.9755 -8.58128 10.676 0.966685 -0.248206 -0.0625664
-12.9436 -10.2224 11.019 0.731517 -0.668141 -0.135903
-14.8977 -7.449 5.739 -0.628185 0.379633 -0.679163
-16.6131 -12.3586 6.12388 0.345698 -0.0165249 -0.9382
-15.0556 -5.97862 6.50075 -0.215017 0.789825 -0.574408
-15.7953 -11.7142 9.2675 0.362476 -0.599477 0.71361
-17.0509 -8.59725 6.72237 -0.122438 0.665458 -0.736325
-17.6164 -10.9056 6.06619 0.183887 -0.0585972 -0.981199
-14.104 -5.607 8.4465 0.193419 0.970278 -0.145428
-15.4423 -12.6602 8.57187 0.852243 -0.0237596 0.522606
-13.241 -5.649 9.247 0.614975 0.780192 0.114477
-17.8595 -9.8705 5.769 0.224566 0.00574713 -0.974442
-13.458 -6.166 10.4875 0.45716 0.797129 0.394449
-12.7347 -6.67925 11.2995 0.542763 0.809233 0.224834
-11.8664 -7.89288 11.6814 0.925801 0.288131 0.244691
-15.5977 -11.0153 10.756 -0.0446271 -0.998487 -0.032134
-16.3965 -7.80387 7.19375 -0.64199 0.406949 -0.649801
-15.6615 -13.451 6.55475 0.651625 -0.0982242 -0.752155
-14.932 -5.647 7.568 -0.296399 0.936559 -0.187094
-14.9621 -13.321 7.748 0.99373 -0.101835 -0.0461542
-12.197 -9.42212 11.7636 0.862853 -0.415286 0.288135
-18.2376 -8.663 6.14975 0.134453 0.637763 -0.758407
-13.02 -10.359 12.2035 0.696805 -0.463734 0.547187
-14.344 -11.6005 11.3425 0.168142 -0.957274 -0.235276
-15.9235 -6.88912 6.91913 -0.76091 0.44196 -0.475066
-18.0842 -8.20588 7.21425 -0.134937 0.904376 -0.404841
-16.9205 -12.4824 9.382 0.135998 -0.151947 0.978988
-18.8111 -11.0901 5.96569 -0.0226724 -0.183419 -0.982773
-15.1096 -5.77063 8.9065 -0.310933 0.949581 0.0402105
-13.5262 -11.3118 12.1214 0.505235 -0.737635 0.447921
-15.7753 -13.6415 9.037 0.598663 -0.155371 0.785788
-18.9745 -9.794 5.5925 -0.196269 0.14308 -0.970055
-17.0993 -11.123 9.728 0.050641 -0.657794 0.751493
-14.301 -5.57575 9.97925 -0.0692064 0.947961 0.310774
-18.3759 -12.6317 6.00986 0.0137997 -0.00136579 -0.999904
-13.0522 -7.41862 12.387 0.195902 0.639444 0.74346
-12.423 -8.28925 12.7095 0.46641 0.0899128 0.879987
-14.7009 -6.59762 11.1679 0.0296261 0.873256 0.48636
-16.8307 -10.4169 10.779 -0.153617 -0.908316 0.389055
-19.2903 -8.58975 6.42 -0.340881 0.769253 -0.540417
-17.024 -14.482 6.2055 0.297968 -0.0577432 -0.952828
-13.2242 -9.37725 12.7205 0.361253 -0.155347 0.919437
-16.797 -7.092 8.42344 -0.523127 0.761681 -0.382335
-16.202 -14.757 6.7335 0.693306 -0.281304 -0.663472
-15.4785 -14.6277 7.97256 0.911759 -0.386778 0.138194
-15.1456 -11.1446 12.3993 -0.2113 -0.771271 0.600411
-19.798 -9.5555 6.1505 -0.685014 0.268413 -0.677282
-18.0556 -12.7589 9.22262 -0.0476964 -0.0733478 0.996165
-19.9814 -11.0499 6.23387 -0.420198 0.121153 -0.899308
-14.3614 -9.91488 12.9845 0.234477 -0.201325 0.951046
-16.2255 -6.05162 9.27262 -0.461001 0.876281 -0.140032
-19.0802 -8.20569 8.0365 -0.410943 0.896665 -0.164671
-18.2022 -7.71938 8.54775 -0.409342 0.880558 -0.238866
-18.2342 -11.6804 9.38488 0.0164741 -0.403704 0.914741
-20.1029 -8.894 7.0315 -0.638649 0.687559 -0.345528
-14.464 -7.162 12.191 0.114718 0.636867 0.762391
-17.9295 -10.4807 10.9862 0.203772 -0.92024 0.334119
-16.3779 -15.1609 8.73063 0.603037 -0.285722 0.744788
-17.3923 -14.1713 9.258 0.0915104 -0.0876395 0.99194
-17.3449 -10.0703 12.3079 0.0072831 -0.933307 0.359005
-17.642 -15.301 5.926 0.277019 -0.12556 -0.952625
-15.9875 -6.25688 10.7812 -0.121422 0.969182 0.214344
-18.9158 -11.0653 10.1265 0.121158 -0.873156 0.472144
-18.3609 -14.2872 5.9515 -0.00733023 -0.0488615 -0.998779
-14.4009 -8.38313 12.5551 0.107231 0.209066 0.972005
-17.5917 -7.18325 9.48575 -0.378216 0.888554 -0.259664
-16.148 -6.504 11.925 -0.00710704 0.953404 0.301612
-20.1175 -13.1535 6.00425 -0.293098 0.0207855 -0.955856
-15.9945 -15.913 7.365 0.922354 -0.288572 -0.256885
-15.342 -10.0555 13.1505 -0.0446152 -0.133316 0.990069
-15.3359 -7.39187 12.6465 0.325666 0.554776 0.765614
-21.079 -11.3485 6.5885 -0.682771 0.396006 -0.614006
-19.9883 -14.2528 6.0595 -0.390303 -0.208518 -0.896763
-19.4322 -12.1868 9.29225 -0.212148 -0.370685 0.904205
-20.8336 -9.35913 7.769 -0.790303 0.559278 -0.250258
-20.2418 -8.73088 8.9535 -0.578139 0.774489 -0.256755
-18.6268 -14.3872 9.21212 -0.221777 -0.135436 0.965646
-16.3324 -9.57938 12.9113 0.0748673 -0.400341 0.913303
-17.892 -15.428 9.281 0.116394 -0.190557 0.974751
3 130 112 98
3 98 112 68
3 107 127 104
3 104 128 105
3 117 130 122
3 117 102 94
3 109 115 85
3 85 115 106
3 85 106 79
3 79 106 100
3 129 131 111
3 129 100 126
3 87 101 80
3 80 101 84
3 101 99 84
3 99 107 92
3 92 78 74
3 78 105 95
3 95 103 81
3 77 95 71
3 81 71 95
3 114 81 103
3 90 119 123
3 90 123 108
3 108 88 90
3 108 123 117
3 117 88 108
3 89 67 88
3 53 73 54
3 54 36 53
3 40 53 36
3 54 73 75
3 75 73 94
3 94 102 75
3 54 52 36
3 54 76 52
3 52 76 68
3 79 62 58
3 110 111 131
3 110 121 97
3 97 121 96
3 121 113 96
3 96 113 93
3 93 113 116
3 93 116 87
3 50 56 33
3 56 60 33
3 64 60 80
3 64 80 84
3 46 25 44
3 64 74 44
3 46 59 69
3 77 55 69
3 55 57 42
3 55 42 51
3 51 42 32
3 71 47 57
3 42 57 47
3 47 34 42
3 61 71 81
3 63 48 61
3 47 61 48
3 48 34 47
3 49 48 63
3 48 38 34
3 66 65 90
3 53 40 39
3 29 40 20
3 36 20 40
3 62 72 50
3 43 62 50
3 72 70 50
3 25 13 26
3 25 26 33
3 7 13 21
3 13 25 21
3 25 45 21
3 21 45 35
3 21 35 18
3 35 45 51
3 45 46 51
3 35 32 37
3 35 37 30
3 37 32 22
3 37 22 30
3 32 24 22
3 27 24 42
3 27 15 24
3 27 12 15
3 12 5 15
3 12 20 11
3 5 12 4
3 11 4 12
3 11 20 14
3 14 4 11
3 0 5 4
3 4 1 0
3 5 2 9
3 2 5 0
3 15 22 24
3 16 10 23
3 10 19 23
3 91 68 112
3 91 112 109
3 126 106 115
3 126 100 106
3 128 104 127
3 95 105 118
3 58 68 91
3 58 91 85
3 109 85 91
3 58 85 79
3 69 95 77
3 90 86 81
3 90 81 114
3 119 90 114
3 65 86 90
3 64 44 60
3 60 44 33
3 33 44 25
3 59 46 44
3 59 44 74
3 69 59 95
3 95 59 78
3 78 59 74
3 46 69 55
3 51 46 55
3 61 47 71
3 39 38 48
3 39 48 49
3 29 39 40
3 43 28 41
3 41 28 36
3 36 28 20
3 68 43 41
3 52 68 41
3 36 52 41
3 62 43 58
3 58 43 68
3 43 33 26
3 43 26 28
3 28 26 14
3 28 14 20
3 14 26 13
3 39 29 38
3 7 4 13
3 14 13 4
3 99 127 107
3 105 128 118
3 130 98 122
3 122 102 117
3 102 122 98
3 129 111 100
3 87 116 125
3 87 125 120
3 120 101 87
3 107 104 92
3 78 92 104
3 105 78 104
3 73 67 89
3 89 94 73
3 73 53 67
3 89 88 117
3 89 117 94
3 82 98 76
3 82 76 54
3 82 54 75
3 102 82 75
3 82 102 98
3 76 98 68
3 111 79 100
3 79 111 83
3 79 83 62
3 83 111 110
3 87 60 56
3 60 87 80
3 74 64 84
3 74 84 92
3 84 99 92
3 57 77 71
3 57 55 77
3 65 63 86
3 63 61 86
3 86 61 81
3 63 65 49
3 67 66 88
3 67 39 66
3 66 90 88
3 39 67 53
3 72 83 97
3 72 97 96
3 72 96 70
3 72 62 83
3 83 110 97
3 93 87 56
3 70 93 56
3 93 70 96
3 70 56 50
3 25 46 45
3 32 42 24
3 32 35 51
3 42 34 27
3 34 38 27
3 27 38 29
3 27 29 12
3 29 20 12
3 33 43 50
3 18 8 17
3 17 8 7
3 7 21 17
3 17 21 18
3 35 31 18
3 18 31 19
3 8 18 19
3 8 19 6
3 8 6 1
3 8 1 7
3 7 1 4
3 6 19 10
3 10 16 2
3 2 16 9
3 9 16 22
3 16 23 30
3 23 31 30
3 30 22 16
3 23 19 31
3 35 30 31
3 22 15 9
3 9 15 5
3 3 1 6
3 3 6 10
3 3 10 2
3 3 2 0
3 3 0 1
3 66 39 49
3 66 49 65
