ply
format ascii 1.0
comment Generated by PyMesh
element vertex 144
property float x
property float y
property float z
property float nx
property float ny
property float nz
element face 268
property list uchar int vertex_indices
end_header
-22.5958 -11.0782 12.0903 -0.547987 -0.836459 -0.00682782
-21.614 -11.3695 11.8645 0.106096 -0.993403 0.0435226
-23.2505 -10.1637 12.119 -0.959695 -0.166601 -0.226338
-22.2157 -11.2505 11.018 -0.570993 -0.788321 -0.229164
-21.971 -11.1005 13.301 -0.106652 -0.920423 0.376093
-23.1501 -10.4362 13.4981 -0.8196 -0.412353 0.39777
-21.034 -11.12 12.8165 0.113043 -0.956829 0.267767
-22.468 -10.2434 10.5262 -0.807436 0.0115416 -0.589843
-22.8326 -9.38325 11.3923 -0.723974 0.485879 -0.489677
-23.1583 -9.1395 12.735 -0.882032 0.469308 0.0420707
-20.4727 -10.84 11.5573 0.178683 -0.983373 0.0324074
-22.25 -10.51 14.0815 -0.21873 -0.517828 0.82705
-20.5748 -10.6032 13.6053 0.165732 -0.814987 0.555274
-21.215 -11.1318 9.35975 -0.744433 -0.667498 -0.0163054
-22.5636 -9.17675 13.9983 -0.683619 0.390177 0.616787
-19.6565 -10.831 12.367 0.274914 -0.94072 0.198669
-20.1047 -10.9861 10.3837 0.0714146 -0.930488 0.359294
-21.2008 -9.84212 9.65075 -0.859396 0.384081 -0.337521
-21.3429 -8.80112 10.9245 -0.570952 0.665772 -0.480377
-21.3085 -9.72125 14.475 -0.296893 -0.396969 0.868487
-21.94 -8.28475 12.0583 -0.558803 0.808481 -0.184656
-21.89 -8.36 13.2975 -0.697337 0.699089 0.158102
-18.9158 -11.0653 10.1265 0.121158 -0.873156 0.472144
-18.8803 -10.169 13.2294 0.33354 -0.863241 0.378902
-21.2681 -11.1785 7.83337 -0.94573 0.273552 -0.175396
-19.3897 -9.711 14.9198 0.116296 -0.788879 0.603444
-21.2463 -12.4145 8.2945 -0.828679 -0.207472 0.519853
-20.5565 -9.0725 15.2525 -0.414445 -0.295017 0.86093
-19.4322 -12.1868 9.29225 -0.212148 -0.370685 0.904205
-20.3319 -8.01456 10.5962 -0.518208 0.814055 -0.262249
-20.2418 -8.73088 8.9535 -0.578139 0.774489 -0.256755
-21.0061 -8.00712 14.7624 -0.648611 0.390745 0.653164
-20.8336 -9.35913 7.769 -0.790303 0.559278 -0.250258
-17.9295 -10.4807 10.9862 0.203772 -0.92024 0.334119
-17.3449 -10.0703 12.3079 0.0072831 -0.933307 0.359005
-18.2342 -11.6804 9.38488 0.0164741 -0.403704 0.914741
-21.6275 -12.2069 7.23287 -0.991279 -0.0642374 -0.115063
-21.079 -11.3485 6.5885 -0.682771 0.396006 -0.614006
-21.0296 -13.5229 8.1485 -0.891521 -0.183854 0.413991
-18.7052 -8.91075 15.6088 0.310808 -0.574763 0.756998
-19.6926 -8.51519 15.6915 -0.354727 -0.0505206 0.933604
-19.8096 -7.3305 12.1806 -0.422493 0.867754 -0.261729
-20.2059 -7.42238 15.0086 -0.50206 0.590406 0.631946
-20.559 -7.1895 13.942 -0.497218 0.864605 0.072329
-17.0993 -11.123 9.728 0.050641 -0.657794 0.751493
-19.1464 -7.52119 10.2719 -0.399648 0.857733 -0.323382
-17.514 -9.25963 14.049 0.49165 -0.685061 0.537562
-18.0556 -12.7589 9.22262 -0.0476964 -0.0733478 0.996165
-20.1029 -8.894 7.0315 -0.638649 0.687559 -0.345528
-16.8307 -10.4169 10.779 -0.153617 -0.908316 0.389055
-19.0802 -8.20569 8.0365 -0.410943 0.896665 -0.164671
-19.9814 -11.0499 6.23387 -0.420198 0.121153 -0.899308
-16.3324 -9.57938 12.9113 0.0748673 -0.400341 0.913303
-18.7665 -7.0945 11.2499 -0.299586 0.93472 -0.191174
-20.9698 -12.8448 6.57812 -0.735286 -0.113084 -0.668256
-20.5295 -14.376 8.6625 -0.55913 -0.270747 0.783626
-16.9205 -12.4824 9.382 0.135998 -0.151947 0.978988
-21.1752 -14.5775 7.42725 -0.952801 -0.297653 -0.0597687
-18.577 -7.85475 16.1035 0.252151 0.0676973 0.965317
-19.798 -9.5555 6.1505 -0.685014 0.268413 -0.677282
-18.6268 -14.3872 9.21212 -0.221777 -0.135436 0.965646
-18.2022 -7.71938 8.54775 -0.409342 0.880558 -0.238866
-18.7201 -6.78025 12.6282 -0.152706 0.974744 -0.162957
-19.2903 -8.58975 6.42 -0.340881 0.769253 -0.540417
-17.4771 -8.27312 14.8329 0.768646 0.0622127 0.636642
-18.9241 -6.96331 15.3907 -0.0184397 0.791083 0.61143
-15.7953 -11.7142 9.2675 0.362476 -0.599477 0.71361
-18.0842 -8.20588 7.21425 -0.134937 0.904376 -0.404841
-15.5977 -11.0153 10.756 -0.0446271 -0.998487 -0.032134
-18.8111 -11.0901 5.96569 -0.0226724 -0.183419 -0.982773
-15.342 -10.0555 13.1505 -0.0446152 -0.133316 0.990069
-17.3923 -14.1713 9.258 0.0915104 -0.0876395 0.99194
-15.1456 -11.1446 12.3993 -0.2113 -0.771271 0.600411
-20.5295 -15.273 8.13 -0.617464 -0.670725 0.410933
-20.1175 -13.1535 6.00425 -0.293098 0.0207855 -0.955856
-17.5917 -7.18325 9.48575 -0.378216 0.888554 -0.259664
-16.241 -8.311 13.189 0.560006 -0.0170981 0.828312
-20.522 -15.3763 7.039 -0.592351 -0.755004 -0.281227
-18.6612 -6.53963 13.6825 -0.000841628 0.999542 0.0302569
-18.9745 -9.794 5.5925 -0.196269 0.14308 -0.970055
-17.3175 -6.78494 10.7539 -0.388625 0.920736 -0.0348559
-17.892 -15.428 9.281 0.116394 -0.190557 0.974751
-19.5457 -15.5938 8.26275 -0.595623 -0.639314 0.486324
-18.2376 -8.663 6.14975 0.134453 0.637763 -0.758407
-17.1421 -6.82312 12.0845 -0.152349 0.98768 0.0357603
-19.9883 -14.2528 6.0595 -0.390303 -0.208518 -0.896763
-15.7753 -13.6415 9.037 0.598663 -0.155371 0.785788
-15.4423 -12.6602 8.57187 0.852243 -0.0237596 0.522606
-16.797 -7.092 8.42344 -0.523127 0.761681 -0.382335
-18.3759 -12.6317 6.00986 0.0137997 -0.00136579 -0.999904
-14.3614 -9.91488 12.9845 0.234477 -0.201325 0.951046
-17.0509 -8.59725 6.72237 -0.122438 0.665458 -0.736325
-17.6164 -10.9056 6.06619 0.183887 -0.0585972 -0.981199
-17.718 -6.87575 14.2485 0.512979 0.736748 0.440518
-14.4009 -8.38313 12.5551 0.107231 0.209066 0.972005
-16.9757 -6.96663 13.2185 0.376412 0.835002 0.401355
-15.0331 -10.8427 8.19519 0.794612 -0.606942 0.0145697
-14.344 -11.6005 11.3425 0.168142 -0.957274 -0.235276
-17.8595 -9.8705 5.769 0.224566 0.00574713 -0.974442
-15.3359 -7.39187 12.6465 0.325666 0.554776 0.765614
-16.3779 -15.1609 8.73063 0.603037 -0.285722 0.744788
-18.546 -16.659 8.829 -0.355854 -0.558254 0.74948
-13.5262 -11.3118 12.1214 0.505235 -0.737635 0.447921
-13.8919 -10.6025 10.1834 0.261635 -0.89178 -0.369156
-19.2083 -16.5305 7.822 -0.776665 -0.627934 0.0499063
-16.148 -6.504 11.925 -0.00710704 0.953404 0.301612
-15.9875 -6.25688 10.7812 -0.121422 0.969182 0.214344
-19.0273 -15.927 6.49744 -0.528751 -0.455518 -0.716189
-14.9621 -13.321 7.748 0.99373 -0.101835 -0.0461542
-16.3965 -7.80387 7.19375 -0.64199 0.406949 -0.649801
-14.1222 -10.2362 9.119 0.317312 -0.932536 -0.172307
-13.2242 -9.37725 12.7205 0.361253 -0.155347 0.919437
-15.4785 -14.6277 7.97256 0.911759 -0.386778 0.138194
-16.2255 -6.05162 9.27262 -0.461001 0.876281 -0.140032
-18.3609 -14.2872 5.9515 -0.00733023 -0.0488615 -0.998779
-14.464 -7.162 12.191 0.114718 0.636867 0.762391
-15.5191 -12.0419 7.088 0.91038 0.0224387 -0.413164
-16.3687 -9.7295 6.31975 0.0285716 0.0449732 -0.99858
-13.02 -10.359 12.2035 0.696805 -0.463734 0.547187
-15.9235 -6.88912 6.91913 -0.76091 0.44196 -0.475066
-16.6131 -12.3586 6.12388 0.345698 -0.0165249 -0.9382
-16.33 -16.601 8.361 0.615923 -0.571743 0.541986
-13.9075 -10.017 7.865 0.259067 -0.965505 0.0261541
-13.0522 -7.41862 12.387 0.195902 0.639444 0.74346
-15.3691 -8.4265 6.08112 -0.674685 0.13659 -0.725358
-14.445 -10.3615 6.8575 0.282855 -0.951239 0.123036
-12.9436 -10.2224 11.019 0.731517 -0.668141 -0.135903
-15.1096 -5.77063 8.9065 -0.310933 0.949581 0.0402105
-15.515 -10.8661 6.57281 0.48398 -0.503505 -0.715714
-18.546 -17.069 6.767 -0.520319 -0.750265 -0.407887
-15.9945 -15.913 7.365 0.922354 -0.288572 -0.256885
-12.423 -8.28925 12.7095 0.46641 0.0899128 0.879987
-17.024 -14.482 6.2055 0.297968 -0.0577432 -0.952828
-14.7009 -6.59762 11.1679 0.0296261 0.873256 0.48636
-17.671 -17.4522 7.593 -0.0242997 -0.998533 0.0483818
-12.6095 -10.0452 9.3735 0.542641 -0.838511 -0.0493975
-14.932 -5.647 7.568 -0.296399 0.936559 -0.187094
-15.6615 -13.451 6.55475 0.651625 -0.0982242 -0.752155
-17.642 -15.301 5.926 0.277019 -0.12556 -0.952625
-17.671 -16.924 6.2925 -0.019153 -0.60768 -0.793951
-12.197 -9.42212 11.7636 0.862853 -0.415286 0.288135
-16.202 -14.757 6.7335 0.693306 -0.281304 -0.663472
-15.0556 -5.97862 6.50075 -0.215017 0.789825 -0.574408
-14.7054 -10.5063 5.86097 -0.4303 -0.792922 -0.431412
3 21 14 31
3 31 14 19
3 14 11 19
3 11 4 12
3 4 5 0
3 2 9 8
3 9 14 20
3 18 41 29
3 41 20 43
3 43 20 21
3 43 31 42
3 27 40 31
3 65 42 40
3 31 40 42
3 27 25 40
3 15 25 12
3 1 15 6
3 15 12 6
3 1 3 13
3 28 13 26
3 26 13 24
3 3 7 13
3 7 18 17
3 18 30 17
3 29 41 53
3 62 41 43
3 93 65 64
3 23 34 46
3 52 34 72
3 72 34 68
3 33 34 15
3 34 23 15
3 10 22 15
3 15 22 33
3 10 16 22
3 28 38 55
3 26 36 38
3 38 36 54
3 38 54 57
3 54 37 51
3 37 24 51
3 51 24 59
3 59 24 32
3 48 32 50
3 30 29 45
3 50 30 61
3 88 75 80
3 53 80 75
3 95 84 62
3 84 95 105
3 105 95 99
3 95 64 76
3 95 76 99
3 64 46 76
3 76 46 52
3 94 52 70
3 94 90 111
3 33 22 44
3 44 22 35
3 44 35 56
3 56 35 47
3 60 81 71
3 81 60 101
3 60 47 28
3 60 82 101
3 101 82 104
3 73 77 82
3 82 77 107
3 82 107 104
3 85 57 54
3 107 85 114
3 107 114 138
3 89 51 69
3 69 51 79
3 51 59 79
3 59 48 63
3 63 67 83
3 67 61 88
3 88 113 127
3 119 88 136
3 127 136 88
3 106 127 113
3 106 80 105
3 133 105 99
3 133 99 115
3 115 123 133
3 115 99 94
3 94 123 115
3 126 140 118
3 118 140 111
3 111 90 118
3 126 103 135
3 126 97 103
3 103 97 68
3 56 87 66
3 100 71 81
3 100 130 112
3 112 130 141
3 130 138 141
3 141 138 132
3 132 138 114
3 132 114 89
3 116 120 128
3 120 92 128
3 98 92 69
3 98 69 79
3 124 143 117
3 98 83 117
3 124 91 109
3 87 108 116
3 96 87 116
3 108 137 116
3 143 125 128
3 14 21 20
3 11 12 19
3 15 23 25
3 10 15 1
3 16 10 1
3 16 13 28
3 13 16 1
3 24 13 17
3 24 17 32
3 17 13 7
3 30 32 17
3 29 30 18
3 53 45 29
3 52 46 34
3 49 68 34
3 49 34 33
3 28 35 22
3 28 22 16
3 28 47 35
3 30 50 32
3 88 61 75
3 53 75 45
3 105 80 84
3 99 76 94
3 52 94 76
3 66 68 49
3 66 49 44
3 33 44 49
3 66 44 56
3 109 88 119
3 133 127 106
3 105 133 106
3 98 117 92
3 92 117 128
3 128 117 143
3 91 124 117
3 91 117 83
3 109 91 88
3 88 91 67
3 67 91 83
3 96 122 110
3 110 122 135
3 68 96 110
3 103 68 110
3 135 103 110
3 87 96 66
3 66 96 68
3 96 128 125
3 96 125 122
3 14 9 5
3 5 2 0
3 5 4 11
3 5 11 14
3 5 9 2
3 18 20 41
3 25 27 19
3 19 27 31
3 21 31 43
3 1 6 0
3 4 0 6
3 4 6 12
3 8 18 7
3 2 8 7
3 2 7 0
3 0 7 3
3 0 3 1
3 20 18 8
3 20 8 9
3 62 43 78
3 78 65 93
3 65 78 43
3 65 43 42
3 58 65 40
3 58 40 39
3 58 39 64
3 64 65 58
3 46 25 23
3 46 64 39
3 46 39 25
3 25 39 40
3 26 38 28
3 36 24 37
3 36 37 54
3 36 26 24
3 59 32 48
3 45 75 30
3 61 30 75
3 41 62 53
3 80 53 84
3 62 84 53
3 64 95 93
3 78 93 95
3 95 62 78
3 52 72 70
3 70 90 94
3 90 70 72
3 60 71 47
3 55 60 28
3 82 60 55
3 77 73 57
3 57 85 77
3 77 85 107
3 73 82 55
3 73 55 57
3 57 55 38
3 89 114 85
3 89 85 74
3 74 85 54
3 54 51 74
3 74 51 89
3 48 50 63
3 67 63 50
3 61 67 50
3 80 113 88
3 106 113 80
3 131 111 140
3 131 123 94
3 131 94 111
3 102 72 97
3 102 97 126
3 102 126 118
3 90 102 118
3 102 90 72
3 97 72 68
3 71 56 47
3 56 71 86
3 56 86 87
3 86 71 100
3 121 100 81
3 121 81 101
3 121 101 134
3 139 134 129
3 139 129 107
3 138 139 107
3 134 101 104
3 129 134 104
3 129 104 107
3 121 130 100
3 89 92 120
3 92 89 69
3 83 98 79
3 83 79 63
3 79 59 63
3 142 119 136
3 108 86 112
3 108 112 141
3 108 141 137
3 108 87 86
3 86 100 112
3 132 89 120
3 137 132 120
3 132 137 141
3 137 120 116
3 128 96 116
3 19 12 25
