ply
format ascii 1.0
comment Generated by PyMesh
element vertex 126
property float x
property float y
property float z
property float nx
property float ny
property float nz
element face 227
property list uchar int vertex_indices
end_header
-21.0061 -8.00712 14.7624 -0.648611 0.390745 0.653164
-20.2059 -7.42238 15.0086 -0.50206 0.590406 0.631946
-20.559 -7.1895 13.942 -0.497218 0.864605 0.072329
-20.5565 -9.0725 15.2525 -0.414445 -0.295017 0.86093
-19.6926 -8.51519 15.6915 -0.354727 -0.0505206 0.933604
-21.89 -8.36 13.2975 -0.697337 0.699089 0.158102
-21.3085 -9.72125 14.475 -0.296893 -0.396969 0.868487
-22.5636 -9.17675 13.9983 -0.683619 0.390177 0.616787
-18.9241 -6.96331 15.3907 -0.0184397 0.791083 0.61143
-19.3897 -9.711 14.9198 0.116296 -0.788879 0.603444
-18.7052 -8.91075 15.6088 0.310808 -0.574763 0.756998
-21.94 -8.28475 12.0583 -0.558803 0.808481 -0.184656
-18.577 -7.85475 16.1035 0.252151 0.0676973 0.965317
-22.25 -10.51 14.0815 -0.21873 -0.517828 0.82705
-19.8096 -7.3305 12.1806 -0.422493 0.867754 -0.261729
-20.5748 -10.6032 13.6053 0.165732 -0.814987 0.555274
-18.6612 -6.53963 13.6825 -0.000841628 0.999542 0.0302569
-23.1583 -9.1395 12.735 -0.882032 0.469308 0.0420707
-18.7201 -6.78025 12.6282 -0.152706 0.974744 -0.162957
-23.1501 -10.4362 13.4981 -0.8196 -0.412353 0.39777
-21.971 -11.1005 13.301 -0.106652 -0.920423 0.376093
-17.718 -6.87575 14.2485 0.512979 0.736748 0.440518
-21.034 -11.12 12.8165 0.113043 -0.956829 0.267767
-17.4771 -8.27312 14.8329 0.768646 0.0622127 0.636642
-21.3429 -8.80112 10.9245 -0.570952 0.665772 -0.480377
-18.8803 -10.169 13.2294 0.33354 -0.863241 0.378902
-22.8326 -9.38325 11.3923 -0.723974 0.485879 -0.489677
-18.7665 -7.0945 11.2499 -0.299586 0.93472 -0.191174
-23.2505 -10.1637 12.119 -0.959695 -0.166601 -0.226338
-17.514 -9.25963 14.049 0.49165 -0.685061 0.537562
-19.6565 -10.831 12.367 0.274914 -0.94072 0.198669
-20.3319 -8.01456 10.5962 -0.518208 0.814055 -0.262249
-16.9757 -6.96663 13.2185 0.376412 0.835002 0.401355
-17.1421 -6.82312 12.0845 -0.152349 0.98768 0.0357603
-22.5958 -11.0782 12.0903 -0.547987 -0.836459 -0.00682782
-21.614 -11.3695 11.8645 0.106096 -0.993403 0.0435226
-19.1464 -7.52119 10.2719 -0.399648 0.857733 -0.323382
-22.468 -10.2434 10.5262 -0.807436 0.0115416 -0.589843
-20.4727 -10.84 11.5573 0.178683 -0.983373 0.0324074
-21.2008 -9.84212 9.65075 -0.859396 0.384081 -0.337521
-17.3175 -6.78494 10.7539 -0.388625 0.920736 -0.0348559
-17.3449 -10.0703 12.3079 0.0072831 -0.933307 0.359005
-16.148 -6.504 11.925 -0.00710704 0.953404 0.301612
-22.2157 -11.2505 11.018 -0.570993 -0.788321 -0.229164
-16.241 -8.311 13.189 0.560006 -0.0170981 0.828312
-16.3324 -9.57938 12.9113 0.0748673 -0.400341 0.913303
-20.2418 -8.73088 8.9535 -0.578139 0.774489 -0.256755
-17.5917 -7.18325 9.48575 -0.378216 0.888554 -0.259664
-15.3359 -7.39187 12.6465 0.325666 0.554776 0.765614
-17.9295 -10.4807 10.9862 0.203772 -0.92024 0.334119
-18.9158 -11.0653 10.1265 0.121158 -0.873156 0.472144
-20.1047 -10.9861 10.3837 0.0714146 -0.930488 0.359294
-21.215 -11.1318 9.35975 -0.744433 -0.667498 -0.0163054
-15.9875 -6.25688 10.7812 -0.121422 0.969182 0.214344
-15.342 -10.0555 13.1505 -0.0446152 -0.133316 0.990069
-14.464 -7.162 12.191 0.114718 0.636867 0.762391
-16.8307 -10.4169 10.779 -0.153617 -0.908316 0.389055
-14.7009 -6.59762 11.1679 0.0296261 0.873256 0.48636
-18.2022 -7.71938 8.54775 -0.409342 0.880558 -0.238866
-20.8336 -9.35913 7.769 -0.790303 0.559278 -0.250258
-16.797 -7.092 8.42344 -0.523127 0.761681 -0.382335
-16.2255 -6.05162 9.27262 -0.461001 0.876281 -0.140032
-19.0802 -8.20569 8.0365 -0.410943 0.896665 -0.164671
-14.4009 -8.38313 12.5551 0.107231 0.209066 0.972005
-21.2681 -11.1785 7.83337 -0.94573 0.273552 -0.175396
-18.2342 -11.6804 9.38488 0.0164741 -0.403704 0.914741
-15.1456 -11.1446 12.3993 -0.2113 -0.771271 0.600411
-14.3614 -9.91488 12.9845 0.234477 -0.201325 0.951046
-19.4322 -12.1868 9.29225 -0.212148 -0.370685 0.904205
-17.0993 -11.123 9.728 0.050641 -0.657794 0.751493
-15.5977 -11.0153 10.756 -0.0446271 -0.998487 -0.032134
-21.2463 -12.4145 8.2945 -0.828679 -0.207472 0.519853
-20.1029 -8.894 7.0315 -0.638649 0.687559 -0.345528
-13.0522 -7.41862 12.387 0.195902 0.639444 0.74346
-15.1096 -5.77063 8.9065 -0.310933 0.949581 0.0402105
-18.0842 -8.20588 7.21425 -0.134937 0.904376 -0.404841
-13.458 -6.166 10.4875 0.45716 0.797129 0.394449
-18.0556 -12.7589 9.22262 -0.0476964 -0.0733478 0.996165
-16.3965 -7.80387 7.19375 -0.64199 0.406949 -0.649801
-14.301 -5.57575 9.97925 -0.0692064 0.947961 0.310774
-21.6275 -12.2069 7.23287 -0.991279 -0.0642374 -0.115063
-21.079 -11.3485 6.5885 -0.682771 0.396006 -0.614006
-13.2242 -9.37725 12.7205 0.361253 -0.155347 0.919437
-15.9235 -6.88912 6.91913 -0.76091 0.44196 -0.475066
-14.344 -11.6005 11.3425 0.168142 -0.957274 -0.235276
-16.9205 -12.4824 9.382 0.135998 -0.151947 0.978988
-12.7347 -6.67925 11.2995 0.542763 0.809233 0.224834
-19.2903 -8.58975 6.42 -0.340881 0.769253 -0.540417
-19.798 -9.5555 6.1505 -0.685014 0.268413 -0.677282
-13.5262 -11.3118 12.1214 0.505235 -0.737635 0.447921
-15.7953 -11.7142 9.2675 0.362476 -0.599477 0.71361
-21.0296 -13.5229 8.1485 -0.891521 -0.183854 0.413991
-13.02 -10.359 12.2035 0.696805 -0.463734 0.547187
-12.423 -8.28925 12.7095 0.46641 0.0899128 0.879987
-17.0509 -8.59725 6.72237 -0.122438 0.665458 -0.736325
-19.9814 -11.0499 6.23387 -0.420198 0.121153 -0.899308
-14.104 -5.607 8.4465 0.193419 0.970278 -0.145428
-12.8751 -6.93699 9.90541 0.835044 0.540928 0.100493
-18.2376 -8.663 6.14975 0.134453 0.637763 -0.758407
-14.932 -5.647 7.568 -0.296399 0.936559 -0.187094
-13.8919 -10.6025 10.1834 0.261635 -0.89178 -0.369156
-20.9698 -12.8448 6.57812 -0.735286 -0.113084 -0.668256
-13.241 -5.649 9.247 0.614975 0.780192 0.114477
-11.8664 -7.89288 11.6814 0.925801 0.288131 0.244691
-18.9745 -9.794 5.5925 -0.196269 0.14308 -0.970055
-18.6268 -14.3872 9.21212 -0.221777 -0.135436 0.965646
-17.3923 -14.1713 9.258 0.0915104 -0.0876395 0.99194
-14.1222 -10.2362 9.119 0.317312 -0.932536 -0.172307
-15.0556 -5.97862 6.50075 -0.215017 0.789825 -0.574408
-15.3691 -8.4265 6.08112 -0.674685 0.13659 -0.725358
-20.5295 -14.376 8.6625 -0.55913 -0.270747 0.783626
-12.197 -9.42212 11.7636 0.862853 -0.415286 0.288135
-12.9436 -10.2224 11.019 0.731517 -0.668141 -0.135903
-15.4423 -12.6602 8.57187 0.852243 -0.0237596 0.522606
-15.0331 -10.8427 8.19519 0.794612 -0.606942 0.0145697
-21.1752 -14.5775 7.42725 -0.952801 -0.297653 -0.0597687
-14.8977 -7.449 5.739 -0.628185 0.379633 -0.679163
-15.7753 -13.6415 9.037 0.598663 -0.155371 0.785788
-18.8111 -11.0901 5.96569 -0.0226724 -0.183419 -0.982773
-12.3398 -7.645 9.37088 0.924471 0.364109 0.113044
-13.272 -6.136 7.7405 0.294234 0.941491 -0.164379
-16.3687 -9.7295 6.31975 0.0285716 0.0449732 -0.99858
-20.1175 -13.1535 6.00425 -0.293098 0.0207855 -0.955856
-17.8595 -9.8705 5.769 0.224566 0.00574713 -0.974442
-12.6625 -6.508 8.608 0.680533 0.704461 0.201519
-11.9755 -8.58128 10.676 0.966685 -0.248206 -0.0625664
3 5 7 0
3 0 7 6
3 7 13 6
3 13 20 15
3 20 19 34
3 28 17 26
3 17 7 11
3 24 14 31
3 14 11 2
3 2 11 5
3 2 0 1
3 3 4 0
3 8 1 4
3 0 4 1
3 3 9 4
3 30 9 15
3 35 30 22
3 30 15 22
3 35 43 52
3 68 52 71
3 71 52 64
3 43 37 52
3 37 24 39
3 24 46 39
3 31 14 27
3 18 14 2
3 21 8 23
3 25 41 29
3 45 41 66
3 66 41 70
3 49 41 30
3 41 25 30
3 38 50 30
3 30 50 49
3 38 51 50
3 68 91 110
3 71 80 91
3 91 80 101
3 91 101 115
3 101 81 95
3 81 64 95
3 95 64 88
3 88 64 59
3 72 59 62
3 46 31 36
3 62 46 58
3 60 47 40
3 27 40 47
3 32 33 18
3 33 32 42
3 42 32 48
3 32 23 44
3 32 44 48
3 23 29 44
3 44 29 45
3 63 45 54
3 63 67 82
3 49 50 69
3 69 50 65
3 69 65 85
3 85 65 77
3 105 77 68
3 118 95 104
3 95 88 104
3 88 72 87
3 87 75 98
3 75 58 60
3 60 61 74
3 83 60 99
3 74 99 60
3 53 74 61
3 53 40 42
3 57 42 48
3 57 48 55
3 55 73 57
3 55 48 63
3 63 73 55
3 93 103 73
3 125 111 112
3 112 111 92
3 92 111 82
3 82 67 92
3 112 84 100
3 100 84 70
3 85 113 90
3 123 118 104
3 123 98 121
3 109 94 78
3 83 116 78
3 99 120 108
3 96 99 74
3 102 124 96
3 120 96 124
3 97 124 102
3 86 76 57
3 7 5 11
3 13 15 6
3 30 25 9
3 38 30 35
3 51 38 35
3 51 52 68
3 52 51 35
3 64 52 39
3 64 39 59
3 39 52 37
3 46 59 39
3 31 46 24
3 27 36 31
3 45 29 41
3 56 70 41
3 56 41 49
3 68 65 50
3 68 50 51
3 68 77 65
3 46 62 59
3 60 58 47
3 27 47 36
3 42 40 33
3 48 44 63
3 45 63 44
3 90 70 56
3 90 56 69
3 49 69 56
3 90 69 85
3 78 60 83
3 57 79 74
3 57 74 53
3 42 57 53
3 76 79 57
3 94 109 121
3 94 121 98
3 78 94 60
3 60 94 75
3 75 94 98
3 109 78 116
3 96 120 99
3 119 124 97
3 70 114 107
3 100 70 107
3 113 114 90
3 90 114 70
3 7 17 19
3 19 28 34
3 19 20 13
3 19 13 7
3 19 17 28
3 24 11 14
3 9 3 6
3 6 3 0
3 5 0 2
3 35 22 34
3 20 34 22
3 20 22 15
3 26 24 37
3 28 26 37
3 28 37 34
3 34 37 43
3 34 43 35
3 11 24 26
3 11 26 17
3 18 2 16
3 16 8 21
3 8 16 2
3 8 2 1
3 12 8 4
3 12 4 10
3 12 10 23
3 23 8 12
3 29 9 25
3 29 23 10
3 29 10 9
3 9 10 4
3 71 91 68
3 80 64 81
3 80 81 101
3 80 71 64
3 88 59 72
3 36 47 46
3 58 46 47
3 14 18 27
3 40 27 33
3 18 33 27
3 23 32 21
3 16 21 32
3 32 18 16
3 45 66 54
3 54 67 63
3 67 54 66
3 105 106 77
3 110 105 68
3 115 110 91
3 101 95 122
3 72 62 87
3 75 87 62
3 58 75 62
3 40 61 60
3 53 61 40
3 111 103 93
3 93 82 111
3 111 125 103
3 93 73 63
3 93 63 82
3 89 66 84
3 89 84 112
3 89 112 92
3 67 89 92
3 89 67 66
3 84 66 70
3 106 85 77
3 85 106 117
3 85 117 113
3 98 123 104
3 98 104 87
3 104 88 87
3 108 83 99
3 108 116 83
3 76 102 79
3 102 96 79
3 79 96 74
3 102 76 97
3 103 86 73
3 103 119 86
3 86 57 73
3 119 103 125
3 86 119 97
3 86 97 76
3 6 15 9
