ply
format ascii 1.0
comment Generated by PyMesh
element vertex 156
property float x
property float y
property float z
property float nx
property float ny
property float nz
element face 290
property list uchar int vertex_indices
end_header
-21.6275 -12.2069 7.23287 -0.991279 -0.0642374 -0.115063
-20.9698 -12.8448 6.57812 -0.735286 -0.113084 -0.668256
-21.2463 -12.4145 8.2945 -0.828679 -0.207472 0.519853
-21.079 -11.3485 6.5885 -0.682771 0.396006 -0.614006
-21.2681 -11.1785 7.83337 -0.94573 0.273552 -0.175396
-21.0296 -13.5229 8.1485 -0.891521 -0.183854 0.413991
-20.1175 -13.1535 6.00425 -0.293098 0.0207855 -0.955856
-19.9814 -11.0499 6.23387 -0.420198 0.121153 -0.899308
-21.215 -11.1318 9.35975 -0.744433 -0.667498 -0.0163054
-20.5295 -14.376 8.6625 -0.55913 -0.270747 0.783626
-19.9883 -14.2528 6.0595 -0.390303 -0.208518 -0.896763
-21.1752 -14.5775 7.42725 -0.952801 -0.297653 -0.0597687
-20.8336 -9.35913 7.769 -0.790303 0.559278 -0.250258
-19.4322 -12.1868 9.29225 -0.212148 -0.370685 0.904205
-21.2008 -9.84212 9.65075 -0.859396 0.384081 -0.337521
-18.8111 -11.0901 5.96569 -0.0226724 -0.183419 -0.982773
-20.5295 -15.273 8.13 -0.617464 -0.670725 0.410933
-19.798 -9.5555 6.1505 -0.685014 0.268413 -0.677282
-18.3759 -12.6317 6.00986 0.0137997 -0.00136579 -0.999904
-20.522 -15.3763 7.039 -0.592351 -0.755004 -0.281227
-18.9745 -9.794 5.5925 -0.196269 0.14308 -0.970055
-20.1029 -8.894 7.0315 -0.638649 0.687559 -0.345528
-20.1047 -10.9861 10.3837 0.0714146 -0.930488 0.359294
-19.5457 -15.5938 8.26275 -0.595623 -0.639314 0.486324
-18.2342 -11.6804 9.38488 0.0164741 -0.403704 0.914741
-18.3609 -14.2872 5.9515 -0.00733023 -0.0488615 -0.998779
-20.2418 -8.73088 8.9535 -0.578139 0.774489 -0.256755
-22.468 -10.2434 10.5262 -0.807436 0.0115416 -0.589843
-22.2157 -11.2505 11.018 -0.570993 -0.788321 -0.229164
-18.9158 -11.0653 10.1265 0.121158 -0.873156 0.472144
-18.0556 -12.7589 9.22262 -0.0476964 -0.0733478 0.996165
-18.6268 -14.3872 9.21212 -0.221777 -0.135436 0.965646
-17.6164 -10.9056 6.06619 0.183887 -0.0585972 -0.981199
-19.0273 -15.927 6.49744 -0.528751 -0.455518 -0.716189
-19.2903 -8.58975 6.42 -0.340881 0.769253 -0.540417
-21.3429 -8.80112 10.9245 -0.570952 0.665772 -0.480377
-17.8595 -9.8705 5.769 0.224566 0.00574713 -0.974442
-19.0802 -8.20569 8.0365 -0.410943 0.896665 -0.164671
-21.614 -11.3695 11.8645 0.106096 -0.993403 0.0435226
-20.4727 -10.84 11.5573 0.178683 -0.983373 0.0324074
-19.2083 -16.5305 7.822 -0.776665 -0.627934 0.0499063
-18.2376 -8.663 6.14975 0.134453 0.637763 -0.758407
-17.642 -15.301 5.926 0.277019 -0.12556 -0.952625
-16.6131 -12.3586 6.12388 0.345698 -0.0165249 -0.9382
-17.0993 -11.123 9.728 0.050641 -0.657794 0.751493
-22.5958 -11.0782 12.0903 -0.547987 -0.836459 -0.00682782
-16.9205 -12.4824 9.382 0.135998 -0.151947 0.978988
-17.024 -14.482 6.2055 0.297968 -0.0577432 -0.952828
-22.8326 -9.38325 11.3923 -0.723974 0.485879 -0.489677
-18.546 -16.659 8.829 -0.355854 -0.558254 0.74948
-17.3923 -14.1713 9.258 0.0915104 -0.0876395 0.99194
-17.892 -15.428 9.281 0.116394 -0.190557 0.974751
-17.9295 -10.4807 10.9862 0.203772 -0.92024 0.334119
-18.546 -17.069 6.767 -0.520319 -0.750265 -0.407887
-18.2022 -7.71938 8.54775 -0.409342 0.880558 -0.238866
-20.3319 -8.01456 10.5962 -0.518208 0.814055 -0.262249
-21.034 -11.12 12.8165 0.113043 -0.956829 0.267767
-23.2505 -10.1637 12.119 -0.959695 -0.166601 -0.226338
-18.0842 -8.20588 7.21425 -0.134937 0.904376 -0.404841
-21.94 -8.28475 12.0583 -0.558803 0.808481 -0.184656
-16.3687 -9.7295 6.31975 0.0285716 0.0449732 -0.99858
-17.671 -16.924 6.2925 -0.019153 -0.60768 -0.793951
-19.6565 -10.831 12.367 0.274914 -0.94072 0.198669
-19.1464 -7.52119 10.2719 -0.399648 0.857733 -0.323382
-17.0509 -8.59725 6.72237 -0.122438 0.665458 -0.736325
-16.202 -14.757 6.7335 0.693306 -0.281304 -0.663472
-15.515 -10.8661 6.57281 0.48398 -0.503505 -0.715714
-16.8307 -10.4169 10.779 -0.153617 -0.908316 0.389055
-21.971 -11.1005 13.301 -0.106652 -0.920423 0.376093
-15.7953 -11.7142 9.2675 0.362476 -0.599477 0.71361
-15.5191 -12.0419 7.088 0.91038 0.0224387 -0.413164
-15.6615 -13.451 6.55475 0.651625 -0.0982242 -0.752155
-17.671 -17.4522 7.593 -0.0242997 -0.998533 0.0483818
-23.1583 -9.1395 12.735 -0.882032 0.469308 0.0420707
-23.1501 -10.4362 13.4981 -0.8196 -0.412353 0.39777
-20.5748 -10.6032 13.6053 0.165732 -0.814987 0.555274
-15.7753 -13.6415 9.037 0.598663 -0.155371 0.785788
-16.3779 -15.1609 8.73063 0.603037 -0.285722 0.744788
-15.4423 -12.6602 8.57187 0.852243 -0.0237596 0.522606
-17.5917 -7.18325 9.48575 -0.378216 0.888554 -0.259664
-19.8096 -7.3305 12.1806 -0.422493 0.867754 -0.261729
-17.3449 -10.0703 12.3079 0.0072831 -0.933307 0.359005
-21.89 -8.36 13.2975 -0.697337 0.699089 0.158102
-18.7665 -7.0945 11.2499 -0.299586 0.93472 -0.191174
-16.563 -16.835 6.796 0.653131 -0.583754 -0.48234
-16.797 -7.092 8.42344 -0.523127 0.761681 -0.382335
-18.8803 -10.169 13.2294 0.33354 -0.863241 0.378902
-16.3965 -7.80387 7.19375 -0.64199 0.406949 -0.649801
-15.9945 -15.913 7.365 0.922354 -0.288572 -0.256885
-14.7054 -10.5063 5.86097 -0.4303 -0.792922 -0.431412
-14.445 -10.3615 6.8575 0.282855 -0.951239 0.123036
-15.3691 -8.4265 6.08112 -0.674685 0.13659 -0.725358
-16.33 -16.601 8.361 0.615923 -0.571743 0.541986
-22.25 -10.51 14.0815 -0.21873 -0.517828 0.82705
-15.4785 -14.6277 7.97256 0.911759 -0.386778 0.138194
-15.5977 -11.0153 10.756 -0.0446271 -0.998487 -0.032134
-15.0331 -10.8427 8.19519 0.794612 -0.606942 0.0145697
-14.9621 -13.321 7.748 0.99373 -0.101835 -0.0461542
-22.5636 -9.17675 13.9983 -0.683619 0.390177 0.616787
-18.7201 -6.78025 12.6282 -0.152706 0.974744 -0.162957
-16.3324 -9.57938 12.9113 0.0748673 -0.400341 0.913303
-21.3085 -9.72125 14.475 -0.296893 -0.396969 0.868487
-17.3175 -6.78494 10.7539 -0.388625 0.920736 -0.0348559
-15.9235 -6.88912 6.91913 -0.76091 0.44196 -0.475066
-20.559 -7.1895 13.942 -0.497218 0.864605 0.072329
-14.8977 -7.449 5.739 -0.628185 0.379633 -0.679163
-16.2255 -6.05162 9.27262 -0.461001 0.876281 -0.140032
-13.9075 -10.017 7.865 0.259067 -0.965505 0.0261541
-13.372 -10.6006 6.02413 -0.0596607 -0.878413 0.474163
-19.3897 -9.711 14.9198 0.116296 -0.788879 0.603444
-21.0061 -8.00712 14.7624 -0.648611 0.390745 0.653164
-17.514 -9.25963 14.049 0.49165 -0.685061 0.537562
-17.1421 -6.82312 12.0845 -0.152349 0.98768 0.0357603
-13.6117 -11.175 4.89675 -0.696635 -0.71703 -0.0238453
-12.8769 -10.1391 6.88319 0.131502 -0.934215 0.331585
-14.569 -7.8455 4.5965 -0.689979 0.36658 -0.624138
-18.6612 -6.53963 13.6825 -0.000841628 0.999542 0.0302569
-14.344 -11.6005 11.3425 0.168142 -0.957274 -0.235276
-14.4462 -9.07288 4.63263 -0.778934 -0.231027 -0.582999
-15.342 -10.0555 13.1505 -0.0446152 -0.133316 0.990069
-14.1222 -10.2362 9.119 0.317312 -0.932536 -0.172307
-15.1096 -5.77063 8.9065 -0.310933 0.949581 0.0402105
-15.1456 -11.1446 12.3993 -0.2113 -0.771271 0.600411
-20.5565 -9.0725 15.2525 -0.414445 -0.295017 0.86093
-16.241 -8.311 13.189 0.560006 -0.0170981 0.828312
-20.2059 -7.42238 15.0086 -0.50206 0.590406 0.631946
-13.8919 -10.6025 10.1834 0.261635 -0.89178 -0.369156
-15.9875 -6.25688 10.7812 -0.121422 0.969182 0.214344
-14.932 -5.647 7.568 -0.296399 0.936559 -0.187094
-15.0556 -5.97862 6.50075 -0.215017 0.789825 -0.574408
-16.148 -6.504 11.925 -0.00710704 0.953404 0.301612
-18.7052 -8.91075 15.6088 0.310808 -0.574763 0.756998
-16.9757 -6.96663 13.2185 0.376412 0.835002 0.401355
-12.506 -9.99162 7.804 0.635587 -0.747884 0.191569
-17.4771 -8.27312 14.8329 0.768646 0.0622127 0.636642
-12.859 -11.912 4.451 -0.309202 -0.947626 -0.0799973
-13.6648 -6.5765 6.081 0.0196493 0.899341 -0.436807
-11.812 -9.762 7.06 0.615945 -0.653441 0.440031
-19.6926 -8.51519 15.6915 -0.354727 -0.0505206 0.933604
-13.2327 -11.0689 3.64887 -0.603856 -0.520526 -0.603664
-14.3614 -9.91488 12.9845 0.234477 -0.201325 0.951046
-13.6791 -9.44462 3.96638 -0.784663 -0.0162267 -0.619709
-11.751 -10.7425 5.8105 0.396025 -0.647829 0.650755
-17.718 -6.87575 14.2485 0.512979 0.736748 0.440518
-13.5262 -11.3118 12.1214 0.505235 -0.737635 0.447921
-14.104 -5.607 8.4465 0.193419 0.970278 -0.145428
-14.4009 -8.38313 12.5551 0.107231 0.209066 0.972005
-18.9241 -6.96331 15.3907 -0.0184397 0.791083 0.61143
-12.6095 -10.0452 9.3735 0.542641 -0.838511 -0.0493975
-12.0107 -11.6585 5.02125 0.0771251 -0.882121 0.464665
-13.3769 -7.07369 4.50744 -0.112079 0.745032 -0.657546
-14.301 -5.57575 9.97925 -0.0692064 0.947961 0.310774
-15.3359 -7.39187 12.6465 0.325666 0.554776 0.765614
-12.9436 -10.2224 11.019 0.731517 -0.668141 -0.135903
-14.7009 -6.59762 11.1679 0.0296261 0.873256 0.48636
-18.577 -7.85475 16.1035 0.252151 0.0676973 0.965317
3 82 98 110
3 110 98 101
3 98 93 101
3 93 68 75
3 68 74 45
3 57 73 48
3 73 98 59
3 35 80 55
3 80 59 104
3 104 59 82
3 104 110 125
3 123 138 110
3 147 125 138
3 110 138 125
3 123 109 138
3 62 109 75
3 38 62 56
3 62 75 56
3 38 28 8
3 13 8 2
3 2 8 4
3 28 27 8
3 27 35 14
3 35 26 14
3 55 80 83
3 99 80 104
3 143 147 134
3 86 81 111
3 100 81 122
3 122 81 95
3 52 81 62
3 81 86 62
3 39 29 62
3 62 29 52
3 39 22 29
3 13 5 9
3 2 0 5
3 5 0 1
3 5 1 11
3 1 3 7
3 3 4 7
3 7 4 17
3 17 4 12
3 21 12 37
3 26 55 63
3 37 26 54
3 85 79 102
3 83 102 79
3 132 112 99
3 112 132 130
3 130 132 152
3 132 134 124
3 132 124 152
3 134 111 124
3 124 111 100
3 146 100 119
3 52 29 44
3 44 29 24
3 44 24 46
3 46 24 30
3 31 51 50
3 51 31 49
3 31 30 13
3 31 23 49
3 49 23 40
3 16 19 23
3 23 19 33
3 23 33 40
3 10 11 1
3 33 10 25
3 33 25 42
3 18 7 15
3 15 7 20
3 7 17 20
3 17 21 34
3 34 58 41
3 58 54 85
3 85 106 121
3 103 85 128
3 121 128 85
3 127 121 106
3 127 102 130
3 154 130 152
3 153 126 148
3 153 117 126
3 126 117 95
3 46 78 69
3 77 50 51
3 77 88 94
3 94 88 65
3 88 42 65
3 65 42 47
3 47 42 25
3 47 25 18
3 70 43 66
3 43 32 66
3 36 32 15
3 36 15 20
3 91 89 60
3 36 41 60
3 91 64 87
3 103 105 87
3 105 129 136
3 105 136 115
3 115 136 150
3 145 128 121
3 78 97 70
3 96 78 70
3 97 71 70
3 89 108 90
3 89 90 66
3 149 108 113
3 108 89 113
3 89 118 113
3 113 118 141
3 113 141 139
3 141 118 115
3 118 91 115
3 137 133 114
3 114 142 137
3 98 82 59
3 93 75 101
3 62 86 109
3 39 62 38
3 22 39 38
3 22 8 13
3 8 22 38
3 4 8 14
3 4 14 12
3 14 8 27
3 26 12 14
3 55 26 35
3 83 63 55
3 100 111 81
3 67 95 81
3 67 81 52
3 13 24 29
3 13 29 22
3 13 30 24
3 26 37 12
3 85 54 79
3 83 79 63
3 130 102 112
3 152 124 146
3 100 146 124
3 69 95 67
3 69 67 44
3 52 44 67
3 69 44 46
3 87 85 103
3 154 151 121
3 154 121 127
3 130 154 127
3 36 60 32
3 32 60 66
3 66 60 89
3 64 91 60
3 64 60 41
3 87 64 85
3 85 64 58
3 58 64 41
3 91 87 105
3 115 91 105
3 96 107 120
3 120 107 148
3 148 107 133
3 95 96 120
3 126 95 120
3 148 126 120
3 78 96 69
3 69 96 95
3 96 66 90
3 96 90 107
3 107 90 114
3 107 114 133
3 114 90 108
3 149 142 108
3 114 108 142
3 98 73 74
3 74 57 45
3 74 68 93
3 74 93 98
3 74 73 57
3 35 59 80
3 109 123 101
3 101 123 110
3 82 110 104
3 38 56 45
3 68 45 56
3 68 56 75
3 48 35 27
3 57 48 27
3 57 27 45
3 45 27 28
3 45 28 38
3 59 35 48
3 59 48 73
3 99 104 116
3 116 147 143
3 147 116 104
3 147 104 125
3 155 147 138
3 155 138 131
3 155 131 134
3 134 147 155
3 111 109 86
3 111 134 131
3 111 131 109
3 109 131 138
3 2 5 13
3 0 4 3
3 0 3 1
3 0 2 4
3 17 12 21
3 63 79 26
3 54 26 79
3 80 99 83
3 102 83 112
3 99 112 83
3 134 132 143
3 116 143 132
3 132 99 116
3 100 122 119
3 119 140 146
3 140 119 122
3 31 50 30
3 9 31 13
3 23 31 9
3 19 16 11
3 11 10 19
3 19 10 33
3 16 23 9
3 16 9 11
3 11 9 5
3 18 25 10
3 18 10 6
3 6 10 1
3 1 7 6
3 6 7 18
3 21 37 34
3 58 34 37
3 54 58 37
3 102 106 85
3 127 106 102
3 144 122 117
3 144 117 153
3 144 140 122
3 117 122 95
3 50 46 30
3 46 50 76
3 46 76 78
3 76 50 77
3 88 92 84
3 92 72 84
3 88 84 42
3 92 77 51
3 92 51 49
3 92 49 72
3 84 72 61
3 42 84 61
3 61 72 53
3 61 53 33
3 42 61 33
3 72 49 40
3 53 72 40
3 53 40 33
3 92 88 77
3 18 32 43
3 32 18 15
3 41 36 20
3 41 20 34
3 20 17 34
3 129 103 128
3 129 105 103
3 151 145 121
3 97 76 94
3 97 94 65
3 97 65 71
3 97 78 76
3 76 77 94
3 47 18 43
3 71 47 43
3 47 71 65
3 71 43 70
3 89 91 118
3 150 141 115
3 66 96 70
3 149 113 135
3 135 113 139
3 101 75 109
