ply
format ascii 1.0
comment Generated by PyMesh
element vertex 195
property float x
property float y
property float z
property float nx
property float ny
property float nz
element face 386
property list uchar int vertex_indices
end_header
-16.9205 -12.4824 9.382 0.135998 -0.151947 0.978988
-18.0556 -12.7589 9.22262 -0.0476964 -0.0733478 0.996165
-15.7953 -11.7142 9.2675 0.362476 -0.599477 0.71361
-17.0993 -11.123 9.728 0.050641 -0.657794 0.751493
-18.2342 -11.6804 9.38488 0.0164741 -0.403704 0.914741
-15.7753 -13.6415 9.037 0.598663 -0.155371 0.785788
-15.4423 -12.6602 8.57187 0.852243 -0.0237596 0.522606
-17.3923 -14.1713 9.258 0.0915104 -0.0876395 0.99194
-19.4322 -12.1868 9.29225 -0.212148 -0.370685 0.904205
-16.8307 -10.4169 10.779 -0.153617 -0.908316 0.389055
-18.9158 -11.0653 10.1265 0.121158 -0.873156 0.472144
-14.9621 -13.321 7.748 0.99373 -0.101835 -0.0461542
-18.6268 -14.3872 9.21212 -0.221777 -0.135436 0.965646
-15.0331 -10.8427 8.19519 0.794612 -0.606942 0.0145697
-15.5977 -11.0153 10.756 -0.0446271 -0.998487 -0.032134
-17.9295 -10.4807 10.9862 0.203772 -0.92024 0.334119
-17.892 -15.428 9.281 0.116394 -0.190557 0.974751
-15.4785 -14.6277 7.97256 0.911759 -0.386778 0.138194
-16.3779 -15.1609 8.73063 0.603037 -0.285722 0.744788
-15.5191 -12.0419 7.088 0.91038 0.0224387 -0.413164
-20.1047 -10.9861 10.3837 0.0714146 -0.930488 0.359294
-15.6615 -13.451 6.55475 0.651625 -0.0982242 -0.752155
-17.3449 -10.0703 12.3079 0.0072831 -0.933307 0.359005
-14.1222 -10.2362 9.119 0.317312 -0.932536 -0.172307
-13.9075 -10.017 7.865 0.259067 -0.965505 0.0261541
-14.445 -10.3615 6.8575 0.282855 -0.951239 0.123036
-14.344 -11.6005 11.3425 0.168142 -0.957274 -0.235276
-18.546 -16.659 8.829 -0.355854 -0.558254 0.74948
-16.202 -14.757 6.7335 0.693306 -0.281304 -0.663472
-15.515 -10.8661 6.57281 0.48398 -0.503505 -0.715714
-15.9945 -15.913 7.365 0.922354 -0.288572 -0.256885
-19.5457 -15.5938 8.26275 -0.595623 -0.639314 0.486324
-15.1456 -11.1446 12.3993 -0.2113 -0.771271 0.600411
-21.215 -11.1318 9.35975 -0.744433 -0.667498 -0.0163054
-21.2463 -12.4145 8.2945 -0.828679 -0.207472 0.519853
-16.33 -16.601 8.361 0.615923 -0.571743 0.541986
-16.6131 -12.3586 6.12388 0.345698 -0.0165249 -0.9382
-20.4727 -10.84 11.5573 0.178683 -0.983373 0.0324074
-13.8919 -10.6025 10.1834 0.261635 -0.89178 -0.369156
-20.5295 -14.376 8.6625 -0.55913 -0.270747 0.783626
-21.0296 -13.5229 8.1485 -0.891521 -0.183854 0.413991
-19.6565 -10.831 12.367 0.274914 -0.94072 0.198669
-14.7054 -10.5063 5.86097 -0.4303 -0.792922 -0.431412
-17.024 -14.482 6.2055 0.297968 -0.0577432 -0.952828
-16.3324 -9.57938 12.9113 0.0748673 -0.400341 0.913303
-13.5262 -11.3118 12.1214 0.505235 -0.737635 0.447921
-20.5295 -15.273 8.13 -0.617464 -0.670725 0.410933
-19.2083 -16.5305 7.822 -0.776665 -0.627934 0.0499063
-12.506 -9.99162 7.804 0.635587 -0.747884 0.191569
-12.8769 -10.1391 6.88319 0.131502 -0.934215 0.331585
-13.372 -10.6006 6.02413 -0.0596607 -0.878413 0.474163
-16.563 -16.835 6.796 0.653131 -0.583754 -0.48234
-21.6275 -12.2069 7.23287 -0.991279 -0.0642374 -0.115063
-12.6095 -10.0452 9.3735 0.542641 -0.838511 -0.0493975
-16.3687 -9.7295 6.31975 0.0285716 0.0449732 -0.99858
-21.2008 -9.84212 9.65075 -0.859396 0.384081 -0.337521
-15.342 -10.0555 13.1505 -0.0446152 -0.133316 0.990069
-21.2681 -11.1785 7.83337 -0.94573 0.273552 -0.175396
-21.614 -11.3695 11.8645 0.106096 -0.993403 0.0435226
-18.8803 -10.169 13.2294 0.33354 -0.863241 0.378902
-12.9436 -10.2224 11.019 0.731517 -0.668141 -0.135903
-20.522 -15.3763 7.039 -0.592351 -0.755004 -0.281227
-17.671 -17.4522 7.593 -0.0242997 -0.998533 0.0483818
-17.514 -9.25963 14.049 0.49165 -0.685061 0.537562
-21.1752 -14.5775 7.42725 -0.952801 -0.297653 -0.0597687
-14.3614 -9.91488 12.9845 0.234477 -0.201325 0.951046
-17.642 -15.301 5.926 0.277019 -0.12556 -0.952625
-17.6164 -10.9056 6.06619 0.183887 -0.0585972 -0.981199
-19.0273 -15.927 6.49744 -0.528751 -0.455518 -0.716189
-21.034 -11.12 12.8165 0.113043 -0.956829 0.267767
-18.3759 -12.6317 6.00986 0.0137997 -0.00136579 -0.999904
-20.5748 -10.6032 13.6053 0.165732 -0.814987 0.555274
-22.468 -10.2434 10.5262 -0.807436 0.0115416 -0.589843
-22.2157 -11.2505 11.018 -0.570993 -0.788321 -0.229164
-20.9698 -12.8448 6.57812 -0.735286 -0.113084 -0.668256
-13.02 -10.359 12.2035 0.696805 -0.463734 0.547187
-11.812 -9.762 7.06 0.615945 -0.653441 0.440031
-16.241 -8.311 13.189 0.560006 -0.0170981 0.828312
-18.3609 -14.2872 5.9515 -0.00733023 -0.0488615 -0.998779
-12.103 -9.03475 9.50412 0.980273 -0.191873 0.0474305
-17.671 -16.924 6.2925 -0.019153 -0.60768 -0.793951
-21.079 -11.3485 6.5885 -0.682771 0.396006 -0.614006
-13.6117 -11.175 4.89675 -0.696635 -0.71703 -0.0238453
-22.5958 -11.0782 12.0903 -0.547987 -0.836459 -0.00682782
-18.546 -17.069 6.767 -0.520319 -0.750265 -0.407887
-17.0509 -8.59725 6.72237 -0.122438 0.665458 -0.736325
-14.4462 -9.07288 4.63263 -0.778934 -0.231027 -0.582999
-11.751 -10.7425 5.8105 0.396025 -0.647829 0.650755
-12.197 -9.42212 11.7636 0.862853 -0.415286 0.288135
-17.4771 -8.27312 14.8329 0.768646 0.0622127 0.636642
-13.2242 -9.37725 12.7205 0.361253 -0.155347 0.919437
-21.971 -11.1005 13.301 -0.106652 -0.920423 0.376093
-17.8595 -9.8705 5.769 0.224566 0.00574713 -0.974442
-11.4354 -8.68175 7.05188 0.906893 -0.122837 0.403059
-11.8993 -8.36287 8.442 0.964895 -0.0701074 0.253104
-20.2418 -8.73088 8.9535 -0.578139 0.774489 -0.256755
-15.3691 -8.4265 6.08112 -0.674685 0.13659 -0.725358
-21.3429 -8.80112 10.9245 -0.570952 0.665772 -0.480377
-18.8111 -11.0901 5.96569 -0.0226724 -0.183419 -0.982773
-20.1175 -13.1535 6.00425 -0.293098 0.0207855 -0.955856
-19.9883 -14.2528 6.0595 -0.390303 -0.208518 -0.896763
-12.0107 -11.6585 5.02125 0.0771251 -0.882121 0.464665
-19.3897 -9.711 14.9198 0.116296 -0.788879 0.603444
-14.4009 -8.38313 12.5551 0.107231 0.209066 0.972005
-20.8336 -9.35913 7.769 -0.790303 0.559278 -0.250258
-22.8326 -9.38325 11.3923 -0.723974 0.485879 -0.489677
-11.9755 -8.58128 10.676 0.966685 -0.248206 -0.0625664
-21.3085 -9.72125 14.475 -0.296893 -0.396969 0.868487
-19.9814 -11.0499 6.23387 -0.420198 0.121153 -0.899308
-18.2376 -8.663 6.14975 0.134453 0.637763 -0.758407
-23.2505 -10.1637 12.119 -0.959695 -0.166601 -0.226338
-12.859 -11.912 4.451 -0.309202 -0.947626 -0.0799973
-18.7052 -8.91075 15.6088 0.310808 -0.574763 0.756998
-15.3359 -7.39187 12.6465 0.325666 0.554776 0.765614
-22.25 -10.51 14.0815 -0.21873 -0.517828 0.82705
-13.2327 -11.0689 3.64887 -0.603856 -0.520526 -0.603664
-16.9757 -6.96663 13.2185 0.376412 0.835002 0.401355
-12.3398 -7.645 9.37088 0.924471 0.364109 0.113044
-13.6791 -9.44462 3.96638 -0.784663 -0.0162267 -0.619709
-16.3965 -7.80387 7.19375 -0.64199 0.406949 -0.649801
-18.0842 -8.20588 7.21425 -0.134937 0.904376 -0.404841
-14.569 -7.8455 4.5965 -0.689979 0.36658 -0.624138
-18.9745 -9.794 5.5925 -0.196269 0.14308 -0.970055
-23.1501 -10.4362 13.4981 -0.8196 -0.412353 0.39777
-14.8977 -7.449 5.739 -0.628185 0.379633 -0.679163
-19.798 -9.5555 6.1505 -0.685014 0.268413 -0.677282
-11.8705 -7.17175 8.259 0.864563 0.350963 0.359662
-10.49 -10.6082 5.22475 0.703015 -0.398245 0.589212
-12.423 -8.28925 12.7095 0.46641 0.0899128 0.879987
-11.4478 -7.79975 5.989 0.823888 0.557988 -0.0992903
-20.3319 -8.01456 10.5962 -0.518208 0.814055 -0.262249
-11.8664 -7.89288 11.6814 0.925801 0.288131 0.244691
-17.718 -6.87575 14.2485 0.512979 0.736748 0.440518
-20.1029 -8.894 7.0315 -0.638649 0.687559 -0.345528
-21.94 -8.28475 12.0583 -0.558803 0.808481 -0.184656
-11.9443 -11.6205 3.769 0.0721648 -0.886644 -0.456788
-10.8741 -11.4235 4.4755 0.475498 -0.856857 0.199244
-14.464 -7.162 12.191 0.114718 0.636867 0.762391
-10.6932 -9.33603 5.83038 0.856452 0.0908443 0.508171
-19.0802 -8.20569 8.0365 -0.410943 0.896665 -0.164671
-20.5565 -9.0725 15.2525 -0.414445 -0.295017 0.86093
-18.577 -7.85475 16.1035 0.252151 0.0676973 0.965317
-19.2903 -8.58975 6.42 -0.340881 0.769253 -0.540417
-19.6926 -8.51519 15.6915 -0.354727 -0.0505206 0.933604
-23.1583 -9.1395 12.735 -0.882032 0.469308 0.0420707
-11.6785 -6.84125 6.825 0.838956 0.538302 -0.0799012
-12.8751 -6.93699 9.90541 0.835044 0.540928 0.100493
-22.5636 -9.17675 13.9983 -0.683619 0.390177 0.616787
-13.0522 -7.41862 12.387 0.195902 0.639444 0.74346
-18.9241 -6.96331 15.3907 -0.0184397 0.791083 0.61143
-15.9235 -6.88912 6.91913 -0.76091 0.44196 -0.475066
-17.1421 -6.82312 12.0845 -0.152349 0.98768 0.0357603
-16.797 -7.092 8.42344 -0.523127 0.761681 -0.382335
-16.148 -6.504 11.925 -0.00710704 0.953404 0.301612
-13.0129 -10.0099 2.87462 -0.573655 -0.0963802 -0.813407
-19.1464 -7.52119 10.2719 -0.399648 0.857733 -0.323382
-13.316 -8.237 3.639 -0.437458 0.564787 -0.699748
-21.0061 -8.00712 14.7624 -0.648611 0.390745 0.653164
-12.6625 -6.508 8.608 0.680533 0.704461 0.201519
-12.2273 -6.29025 7.618 0.471934 0.879836 0.0562706
-18.2022 -7.71938 8.54775 -0.409342 0.880558 -0.238866
-10.0812 -9.64756 4.613 0.930022 0.363453 0.0544062
-13.3769 -7.07369 4.50744 -0.112079 0.745032 -0.657546
-14.7009 -6.59762 11.1679 0.0296261 0.873256 0.48636
-19.8096 -7.3305 12.1806 -0.422493 0.867754 -0.261729
-18.6612 -6.53963 13.6825 -0.000841628 0.999542 0.0302569
-10.8845 -11.1531 3.41825 0.454185 -0.617366 -0.64232
-9.833 -10.511 4.03075 0.936734 -0.324897 -0.130271
-12.376 -7.104 5.54775 0.484044 0.783913 -0.38882
-12.649 -8.50275 2.91175 -0.315555 0.609038 -0.727666
-18.7201 -6.78025 12.6282 -0.152706 0.974744 -0.162957
-21.89 -8.36 13.2975 -0.697337 0.699089 0.158102
-13.6648 -6.5765 6.081 0.0196493 0.899341 -0.436807
-11.8895 -10.1025 2.57025 0.0482922 -0.387864 -0.920451
-15.0556 -5.97862 6.50075 -0.215017 0.789825 -0.574408
-10.9235 -8.4425 4.6665 0.712314 0.697913 -0.0743393
-12.7347 -6.67925 11.2995 0.542763 0.809233 0.224834
-13.458 -6.166 10.4875 0.45716 0.797129 0.394449
-12.2902 -7.80613 4.51762 0.383876 0.81815 -0.428101
-20.2059 -7.42238 15.0086 -0.50206 0.590406 0.631946
-17.5917 -7.18325 9.48575 -0.378216 0.888554 -0.259664
-15.9875 -6.25688 10.7812 -0.121422 0.969182 0.214344
-18.7665 -7.0945 11.2499 -0.299586 0.93472 -0.191174
-17.3175 -6.78494 10.7539 -0.388625 0.920736 -0.0348559
-13.241 -5.649 9.247 0.614975 0.780192 0.114477
-13.272 -6.136 7.7405 0.294234 0.941491 -0.164379
-20.559 -7.1895 13.942 -0.497218 0.864605 0.072329
-16.2255 -6.05162 9.27262 -0.461001 0.876281 -0.140032
-11.8837 -9.04 2.4785 0.153279 0.291459 -0.944223
-14.932 -5.647 7.568 -0.296399 0.936559 -0.187094
-10.5933 -9.69675 3.23019 0.696395 0.171832 -0.696784
-14.104 -5.607 8.4465 0.193419 0.970278 -0.145428
-11.257 -8.62237 3.36025 0.542133 0.720849 -0.431819
-14.301 -5.57575 9.97925 -0.0692064 0.947961 0.310774
-15.1096 -5.77063 8.9065 -0.310933 0.949581 0.0402105
3 171 147 157
3 157 147 107
3 147 114 107
3 114 91 71
3 91 123 83
3 110 144 105
3 144 147 134
3 97 164 130
3 164 134 186
3 186 134 171
3 186 157 179
3 140 143 157
3 149 179 143
3 157 143 179
3 140 102 143
3 41 102 71
3 58 41 69
3 41 71 69
3 58 73 33
3 8 33 34
3 34 33 57
3 73 72 33
3 72 97 55
3 97 95 55
3 130 164 182
3 170 164 186
3 132 149 89
3 59 22 63
3 44 22 32
3 32 22 14
3 15 22 41
3 22 59 41
3 37 10 41
3 41 10 15
3 37 20 10
3 8 40 39
3 34 52 40
3 40 52 74
3 40 74 64
3 74 81 108
3 81 57 108
3 108 57 125
3 125 57 104
3 133 104 139
3 95 130 155
3 139 95 160
3 152 180 183
3 182 183 180
3 116 151 170
3 151 116 153
3 153 116 113
3 116 89 77
3 116 77 113
3 89 63 77
3 77 63 44
3 103 44 56
3 103 65 90
3 15 10 3
3 3 10 4
3 3 4 0
3 0 4 1
3 12 16 7
3 16 12 27
3 12 1 8
3 12 31 27
3 27 31 47
3 46 61 31
3 31 61 68
3 31 68 47
3 100 64 74
3 68 100 78
3 68 78 66
3 70 108 98
3 98 108 122
3 108 125 122
3 125 133 142
3 142 120 109
3 120 160 152
3 152 187 194
3 150 152 189
3 194 189 152
3 181 194 187
3 181 183 153
3 163 153 113
3 163 113 137
3 137 148 163
3 137 113 103
3 103 148 137
3 128 131 148
3 106 88 60
3 60 53 106
3 79 106 53
3 60 88 75
3 75 88 90
3 90 65 75
3 60 38 53
3 60 26 38
3 38 26 14
3 0 6 2
3 18 7 16
3 18 30 17
3 17 30 28
3 30 66 28
3 28 66 43
3 43 66 78
3 43 78 70
3 19 36 29
3 36 67 29
3 92 67 98
3 92 98 122
3 96 42 54
3 92 109 54
3 96 85 119
3 150 124 119
3 124 174 172
3 124 172 121
3 121 172 162
3 189 185 174
3 172 174 185
3 185 159 172
3 191 189 194
3 184 158 191
3 185 191 158
3 158 159 185
3 146 158 184
3 158 126 159
3 176 177 163
3 106 79 117
3 94 79 48
3 53 48 79
3 6 11 19
3 13 6 19
3 11 21 19
3 42 50 25
3 42 25 29
3 101 50 82
3 50 42 82
3 42 86 82
3 82 86 118
3 82 118 115
3 118 86 121
3 86 96 121
3 118 162 156
3 118 156 169
3 156 162 178
3 156 178 169
3 162 168 178
3 145 168 172
3 145 129 168
3 145 93 129
3 93 138 129
3 93 48 76
3 138 93 87
3 76 87 93
3 76 48 49
3 49 87 76
3 127 138 87
3 87 136 127
3 138 161 175
3 161 138 127
3 129 178 168
3 192 190 188
3 190 173 188
3 147 171 134
3 114 71 107
3 41 59 102
3 37 41 58
3 20 37 58
3 20 33 8
3 33 20 58
3 57 33 55
3 57 55 104
3 55 33 72
3 95 104 55
3 130 95 97
3 182 155 130
3 44 63 22
3 9 14 22
3 9 22 15
3 8 4 10
3 8 10 20
3 8 1 4
3 95 139 104
3 152 160 180
3 182 180 155
3 153 183 151
3 113 77 103
3 44 103 77
3 2 14 9
3 2 9 3
3 15 3 9
3 2 3 0
3 119 152 150
3 163 193 194
3 163 194 181
3 153 163 181
3 177 193 163
3 92 54 67
3 67 54 29
3 29 54 42
3 85 96 54
3 85 54 109
3 119 85 152
3 152 85 120
3 120 85 109
3 96 119 124
3 121 96 124
3 191 185 189
3 117 126 158
3 117 158 146
3 94 117 79
3 13 24 23
3 23 24 53
3 53 24 48
3 14 13 23
3 38 14 23
3 53 38 23
3 6 13 2
3 2 13 14
3 13 29 25
3 13 25 24
3 24 25 49
3 24 49 48
3 49 25 50
3 117 94 126
3 101 87 50
3 49 50 87
3 147 144 123
3 123 110 83
3 123 91 114
3 123 114 147
3 123 144 110
3 97 134 164
3 102 140 107
3 107 140 157
3 171 157 186
3 58 69 83
3 91 83 69
3 91 69 71
3 105 97 72
3 110 105 72
3 110 72 83
3 83 72 73
3 83 73 58
3 134 97 105
3 134 105 144
3 170 186 165
3 165 149 132
3 149 165 186
3 149 186 179
3 141 149 143
3 141 143 112
3 141 112 89
3 89 149 141
3 63 102 59
3 63 89 112
3 63 112 102
3 102 112 143
3 34 40 8
3 52 57 81
3 52 81 74
3 52 34 57
3 125 104 133
3 155 180 95
3 160 95 180
3 164 170 182
3 183 182 151
3 170 151 182
3 89 116 132
3 165 132 116
3 116 170 165
3 44 32 56
3 56 65 103
3 65 56 32
3 12 7 1
3 39 12 8
3 31 12 39
3 61 46 64
3 64 100 61
3 61 100 68
3 46 31 39
3 46 39 64
3 64 39 40
3 70 78 100
3 70 100 99
3 99 100 74
3 74 108 99
3 99 108 70
3 133 139 142
3 120 142 139
3 160 120 139
3 183 187 152
3 181 187 183
3 88 131 128
3 128 90 88
3 88 106 131
3 128 148 103
3 128 103 90
3 45 32 26
3 45 26 60
3 45 60 75
3 65 45 75
3 45 65 32
3 26 32 14
3 7 0 1
3 0 7 5
3 0 5 6
3 5 7 18
3 30 35 51
3 35 62 51
3 30 51 66
3 35 18 16
3 35 16 27
3 35 27 62
3 51 62 80
3 66 51 80
3 80 62 84
3 80 84 68
3 66 80 68
3 62 27 47
3 84 62 47
3 84 47 68
3 35 30 18
3 70 67 36
3 67 70 98
3 109 92 122
3 109 122 142
3 122 125 142
3 174 150 189
3 174 124 150
3 177 184 193
3 184 191 193
3 193 191 194
3 184 177 146
3 131 176 148
3 131 117 176
3 176 163 148
3 117 131 106
3 11 5 17
3 11 17 28
3 11 28 21
3 11 6 5
3 5 18 17
3 43 70 36
3 21 43 36
3 43 21 28
3 21 36 19
3 42 96 86
3 162 172 168
3 162 118 121
3 172 159 145
3 159 126 145
3 145 126 94
3 145 94 93
3 94 48 93
3 29 13 19
3 115 135 111
3 111 135 101
3 101 82 111
3 111 82 115
3 118 154 115
3 115 154 173
3 135 115 173
3 135 173 166
3 135 166 136
3 135 136 101
3 101 136 87
3 166 173 190
3 190 192 161
3 161 192 175
3 175 192 178
3 192 188 169
3 188 154 169
3 169 178 192
3 188 173 154
3 118 169 154
3 178 129 175
3 175 129 138
3 167 136 166
3 167 166 190
3 167 190 161
3 167 161 127
3 167 127 136
3 176 117 146
3 176 146 177
3 107 71 102
