ply
format ascii 1.0
comment Generated by PyMesh
element vertex 200
property float x
property float y
property float z
property float charge
property float ddc
property float hbond
property float hphob
property float rho
property float si
property float theta
property float nx
property float ny
property float nz
element face 344
property list uchar int vertex_indices
end_header
-3.95025 -4.98125 4.1915 0.403797 0 0.703378 -1 1e-08 -0.439848 2.22045e-16 -0.364018 0.223478 0.904184
-4.09312 -6.05037 4.4095 0.490923 0.210944 0 -1 1.10043 -0.999878 2.06122 -0.137521 0.544987 0.827089
-4.75725 -4.3725 3.745 0.240903 -0.0461224 0 -1 1.10507 0.137715 2.22045e-16 -0.31198 0.546455 0.77721
-5.116 -5.535 4.308 0.53344 -0.435017 0.132085 -1 1.29583 -0.573461 1.08228 0.188106 0.463336 0.865988
-2.817 -4.43525 4.809 0.438413 -0.389261 0.745353 -1 1.40131 -0.632374 3.8385 -0.582432 0.0504241 0.811314
-4.05363 -3.21913 3.93375 0.0999057 -0.250151 0 -1 1.78387 0.525863 5.22403 -0.710511 0.29783 0.637551
-2.69287 -5.83144 5.22319 0.455863 -0.18801 0.425143 -1 1.83527 -0.739062 3.04419 -0.654214 0.459018 0.601088
-4.98606 -4.13831 2.75444 0.0453553 0.288389 0 -1 2.14834 -0.448578 6.08112 -0.707196 0.630495 0.319921
-5.07044 -6.35375 5.00331 0.6309 -0.397941 0.265465 -0.957747 2.28357 -0.625621 1.69263 0.358455 0.754102 0.55031
-3.716 -6.85975 5.448 0.579937 -0.207361 0.268141 -1 2.47003 -0.999864 2.43139 -0.263335 0.865654 0.425791
-6.183 -5.011 4.536 0.226191 -0.392794 0.967173 -1 2.50623 0.0722563 0.863297 0.30348 0.907268 0.291145
-3.12075 -3.278 4.64725 0.334693 -0.264966 0 -1 2.60865 0.461773 4.5273 -0.612575 0.0962018 0.784536
-1.81662 -4.56588 5.56887 0.41354 -0.215344 0.340609 -1 2.66434 -0.672701 3.59522 -0.783066 0.239221 0.574091
-3.2065 -2.32675 4.27975 0.130018 -0.131912 0 -1 3.06203 0.539275 4.77662 -0.661631 0.374437 0.649648
-2.88225 -6.48225 6.32975 0.59626 -0.190242 0.800479 -1 3.13292 0.105173 2.76282 -0.654714 0.679947 0.330186
-4.561 -3.0465 2.529 0.146464 0.243221 0.0175719 -1 3.28738 0.268546 5.62265 -0.805122 0.509933 0.302898
-3.709 -1.9195 3.02475 -0.0954547 0.189499 0 -1 3.40686 0.676436 5.16073 -0.766861 0.573532 0.288072
-6.11369 -4.90406 2.41894 0.0869857 0.308854 0 -1 3.55208 0.106526 0.168689 -0.720725 0.693096 -0.0131379
-1.476 -3.1625 5.95813 0.62033 -0.148275 0.397828 -1 3.57816 0.0432137 4.01766 -0.693237 0.143144 0.706351
-6.624 -4.5115 5.5635 0.468287 -0.523371 0 -0.866667 3.73086 0.1465 1.07872 0.517749 0.639978 -0.567772
-1.69987 -5.249 6.81862 0.450617 -0.225417 0.09057 -0.79922 3.80267 -0.615685 3.25018 -0.818807 0.560268 0.125122
-5.76875 -4.03025 1.206 -0.335113 0.0968698 0.547276 -1 3.88672 -0.502144 6.09458 -0.659128 0.428587 0.617951
-5.19125 -3.15313 1.31638 -0.263014 0.0820788 0 -0.777778 3.90353 -0.201481 5.83342 -0.612573 0.506803 0.606552
-7.58725 -5.17525 4.094 -0.0551233 0.405307 0.672859 -1 3.98753 0.185181 0.733938 -0.109349 0.717811 -0.687598
-4.69228 -7.21006 6.58134 0.7131 -0.240179 0.096704 -0.777778 4.00636 -0.0381626 2.12213 0.412367 0.69768 0.585829
-6.111 -5.624 6.089 0.57352 -0.519493 0.517632 -0.801127 4.17738 -0.586464 1.43455 0.902457 0.418943 -0.100291
-2.81013 -7.37475 7.02338 0.598937 0.0937823 0.0306396 -1 4.26556 -0.310992 2.61641 -0.632572 0.310152 0.709689
-0.949313 -4.12856 7.11919 0.359443 -0.190025 0 -0.584002 4.49381 -0.611672 3.59978 -0.913709 0.35722 0.193727
-2.3525 -6.17938 7.56938 0.610377 -0.212176 0.281908 -0.506213 4.5146 0.253721 2.93874 -0.928894 0.314033 0.196315
-2.31381 -1.10175 4.2515 0.100769 -0.118787 0 -1 4.57805 0.465965 4.70376 -0.672386 0.636115 0.37849
-0.7125 -3.14287 6.77037 0.40072 -0.168824 0 -1 4.69308 -0.786713 3.84724 -0.909629 0.176453 0.376085
-6.46925 -5.10881 1.25181 -0.019668 0.135658 0 -0.880138 4.78923 -0.259342 0.0274164 -0.779521 0.411465 0.472275
-1.8625 -1.868 5.281 0.414427 -0.0894806 0 -1 4.79964 0.454107 4.39807 -0.642916 0.358324 0.676951
-4.00506 -2.0625 1.51047 -0.0901213 0.144169 0.0411343 -0.905249 4.8088 -0.520918 5.46466 -0.716805 0.620311 0.318442
-7.5915 -4.8935 5.11925 -0.00991547 -0.409726 0.514298 -0.866667 4.86194 -0.813618 0.945448 0.355514 0.720587 -0.595285
-0.945625 -1.96769 6.20687 0.41249 -0.114943 0 -1 4.90885 0.0726819 4.11535 -0.792355 0.33976 0.506693
-4.77881 -2.13075 0.714437 -0.363993 0.0622738 0 -0.777778 5.1596 -0.109836 5.63908 -0.286221 0.75919 0.584558
-7.01625 -5.99675 3.2625 0.0142378 0.392199 -0.13483 -0.961342 5.20138 -0.678956 0.442713 -0.752426 0.433991 -0.495487
-6.1225 -2.22088 0.649594 -0.113871 -0.0202623 0 -0.777778 5.38033 0.61095 5.82098 -0.336361 0.46711 0.817722
-6.4485 -3.06988 6.36562 0.82373 -0.421415 0.232478 -0.866667 5.38992 0.999867 1.24074 0.581447 0.599726 -0.549771
-5.79563 -5.69025 7.32412 0.66977 -0.402405 0.297821 -0.863844 5.45385 0.225146 1.71029 0.957859 0.0303151 0.285636
-8.94312 -4.58262 4.06213 -0.560117 -0.371132 -0.0572364 -0.777778 5.4676 0.0691205 0.801032 0.560501 0.160938 -0.812366
-7.69875 -3.17213 5.98338 0.781853 -0.358969 0.112886 -0.866667 5.49871 0.118032 1.13398 0.299425 0.616534 -0.728169
-8.35437 -4.16412 4.94775 -0.453847 -0.355476 -0.475452 -0.816929 5.51715 -0.0223487 0.915687 0.570471 0.599126 -0.561793
-4.2395 -8.5735 7.08169 0.515497 -0.107449 0 -0.918367 5.52765 -0.999835 2.2578 0.129076 0.635443 0.761282
-7.96863 -6.67513 3.78638 -0.661683 0.324928 -0.306906 -0.777778 5.56541 -0.999901 0.565334 -0.299107 0.692448 -0.656544
-7.02675 -3.451 0.24375 -0.00575907 -0.0727716 0 -0.777778 5.57314 -0.510175 6.03857 -0.433467 0.192387 0.880394
-2.162 -8.0945 7.9165 0.50133 -0.147506 0 -0.0888889 5.58305 -0.999892 2.55041 -0.909633 0.295624 0.291845
-1.74025 -0.45925 3.509 0.184182 0.137187 0 -1 5.71519 0.0285848 4.7362 -0.563464 0.812844 0.147625
-7.35575 -6.70587 2.56169 -0.151647 0.228463 0 -0.485396 5.74516 -0.712272 0.330689 -0.706322 0.699094 -0.111252
-9.01975 -6.191 4.01325 -0.53754 -0.351599 0 -0.777778 5.74546 -0.871548 0.698214 0.243692 0.223039 -0.943858
-3.356 -0.991 0.877 -0.00981507 0.138823 0.581518 -1 5.77319 0.31769 5.31409 -0.552038 0.825476 0.117657
-1.46512 -0.271688 4.48956 0.241391 -0.0967846 0 -1 5.78881 0.332596 4.59504 -0.643815 0.680922 0.349067
-6.22325 -6.96025 7.58225 0.517227 -0.284608 0 -0.777778 5.85246 -0.999844 1.93228 0.827747 0.0783912 0.555599
-2.18438 -7.15963 8.50113 0.52569 -0.201664 0 -0.0888889 5.87743 -0.211752 2.80966 -0.97819 -0.0684411 0.19611
-2.309 -6.189 8.945 0.43995 -0.215136 0 -0.0888889 5.89094 0.159897 2.98636 -0.990824 0.123307 -0.0553434
-1.03 -3.787 8.5425 0.191599 -0.246473 -0.000550657 -0.0888889 5.95975 -0.66072 3.56384 -0.841293 0.29785 -0.451123
-7.0405 -6.171 0.85725 -0.132005 0.0610577 0.00973336 -0.850191 6.05819 -0.999867 0.0274164 -0.60925 0.463412 0.643478
-5.61875 -4.25737 7.6965 1 -0.42585 0.473898 -0.866667 6.10253 0.429686 1.71029 0.978629 0.118664 -0.167943
-7.47038 -4.79637 0.310625 -0.0074969 -0.0733129 0.103803 -0.00718982 6.19838 -0.545855 0.0274164 -0.358296 0.193719 0.913289
-0.620125 -2.47038 8.16737 0.103473 -0.194955 -0.60344 -0.38732 6.24627 -0.131727 3.56384 -0.933496 0.310793 -0.178866
-6.109 -8.09013 8.2005 0.609747 -0.200648 0.0100599 -0.777778 6.33086 -0.999782 1.93228 0.704026 0.548252 0.451407
-3.04312 -9.22025 8.00725 0.43946 -0.0603888 0 0.844444 6.36988 -0.999875 2.55041 -0.450346 0.747347 0.488529
-6.187 -2.8705 7.317 0.785327 -0.321235 0.122961 -0.866667 6.39653 0.873616 1.24074 0.76518 0.638045 -0.0860097
-0.04025 -0.651 6.15987 0.19916 0.0342218 0 -1 6.50747 0.193422 4.11535 -0.333882 0.706318 0.62421
-7.93925 -3.85125 0.11075 0.212988 -0.101542 0.0293317 0.688447 6.5784 -0.337917 6.03857 -0.00853468 0.131053 0.991339
-6.2445 -5.67425 8.35825 0.839817 -0.350038 0.48189 -0.866667 6.58131 -0.593974 1.71029 0.940384 -0.316391 0.124801
-5.4955 -1.4115 -0.29125 -0.232636 0.069364 0 -0.777778 6.58872 0.709193 5.82098 -0.0858229 0.803203 0.58949
-0.030375 -1.28225 7.4885 0.122921 -0.125194 0.00467234 -0.980047 6.62644 0.180699 4.11535 -0.531229 0.845946 0.0465979
-8.9555 -3.102 5.67 -0.219211 -0.271788 -0.300687 -0.821164 6.79584 -0.278896 1.13398 0.401153 0.74822 -0.528435
-7.487 -6.942 1.53 -0.053482 0.139028 0 -0.355556 6.81164 -0.882381 0.330689 -0.35587 0.914039 0.194652
-4.0535 -1.33875 -0.59325 -0.5297 0.0464944 0.271773 -0.877113 6.85175 -0.834148 5.31409 -0.436978 0.713172 0.548121
-8.796 -7.136 2.874 -0.135071 -0.195177 -0.000741121 -0.36136 6.88047 -0.830724 0.565334 -0.102779 0.977726 -0.182997
-2.459 -0.96725 0.22375 -0.103466 0.272728 0.228537 -1 6.88311 0.116399 5.31409 0.479699 0.647816 -0.591796
-0.718125 0.07225 3.22962 0.185243 0.151116 0.0196117 -1 6.90063 0.40985 4.7362 -0.184456 0.982365 -0.0305915
-9.66475 -6.88675 3.34425 -0.183105 -0.239171 0 -0.415662 6.90635 -0.846726 0.698214 0.304819 0.803747 -0.510956
-9.5915 -3.258 3.9775 -0.310933 -0.266778 -0.124325 -0.777778 6.94482 0.126382 0.801032 0.845598 0.469669 -0.25372
-7.87075 -2.471 -0.24225 -0.0111764 -0.0571915 -7.6934e-05 0.477402 6.95478 0.0453187 6.03857 -0.0733341 0.381608 0.921411
-0.8 0.19875 5.3555 0.085571 0.0803217 0 -1 6.97774 0.999928 4.59504 -0.210525 0.880777 0.42416
-5.05225 -9.12525 8.24525 0.259349 -0.156421 0.0785852 0.778944 7.05043 -0.999817 2.2578 0.439157 0.814084 0.380011
-2.21075 -0.4225 1.029 -0.00208364 0.233512 0 -1 7.06079 0.59718 5.31409 0.0284243 0.863057 -0.504307
-2.13225 -8.094 9.39625 0.419197 -0.134411 0 0.107925 7.0631 -0.0980801 2.80966 -0.947777 0.184363 0.260248
-10.316 -5.06875 3.35775 -0.325391 -0.304521 0 -0.809818 7.0854 -0.68097 0.801032 0.673115 -0.274309 -0.686783
-3.26675 -0.6875 -0.423 -0.190921 0.164422 0.722465 -0.983376 7.11113 0.282955 5.31409 0.350569 0.931317 0.0987386
-8.982 -2.2765 6.4235 0.0985167 -0.254661 0 -0.866667 7.12432 0.225585 1.13398 0.208589 0.693139 -0.689962
-7.16125 -2.234 7.76575 0.524633 -0.240604 0.104137 -0.866667 7.16955 0.213785 1.24074 0.557123 0.812604 -0.171138
-6.60156 -7.33588 8.79594 0.630253 -0.276135 0 -0.256651 7.17808 -0.999867 1.93228 0.994857 0.0992303 0.0203263
-8.17025 -1.88312 7.04 0.270622 -0.255609 0.232979 -0.866667 7.23085 0.677647 1.13398 0.329029 0.739171 -0.587679
-10.0218 -4.13219 2.61144 0.0095534 -0.282404 0 -0.866667 7.33065 0.0786728 0.801032 0.962657 -0.158563 -0.21943
-1.72213 0.01675 1.9555 0.108835 0.18784 0.0848011 -1 7.34008 0.64803 4.7362 -0.115851 0.963367 -0.241872
-0.033125 0.231 4.12725 0.321074 0.16591 0 -1 7.34912 0.559973 4.59504 0.120133 0.987108 -0.105764
-3.82663 -9.5445 8.57913 0.41984 -0.120607 0 0.913713 7.35949 -0.8139 2.2578 -0.0289599 0.975135 0.219709
-2.77375 -9.09387 9.28175 0.433723 -0.100528 0 0.844444 7.38218 -0.218317 2.55041 -0.625672 0.758327 0.182961
-6.14975 -8.38775 9.2365 0.642467 -0.228984 0 0.597371 7.40953 -0.682244 1.93228 0.864514 0.496605 -0.0774548
-1.90625 -6.818 10.2917 0.36039 -0.164542 -0.276012 -0.372184 7.43089 -0.273895 2.98636 -0.962724 -0.18519 0.197148
-2.61469 -4.94441 9.86416 0.323553 -0.275589 0 -0.0888889 7.46806 0.0684234 2.98636 -0.775368 -0.219062 -0.592297
-0.47025 -1.53 9.122 -0.106855 -0.143857 -0.47734 -0.0888889 7.59464 0.17356 3.56384 -0.559631 0.807507 -0.186402
-10.6788 -6.08825 3.1925 -0.175523 -0.25135 0 -0.808804 7.59928 -0.999887 0.698214 0.935904 0.144782 -0.321127
-5.08962 -0.708 -1.25075 -0.420573 0.0276676 0 -0.777778 7.60557 -0.212369 5.63908 -0.202241 0.655467 0.727642
-8.57725 -6.64775 0.646625 -0.127634 -0.0545292 -0.299851 -0.308876 7.68092 -0.999849 0.330689 -0.0512426 0.665153 0.744947
-8.98287 -5.23313 0.23775 0.130226 -0.109876 0.930694 0.933333 7.77436 -0.704501 6.03857 0.158983 0.123591 0.979515
-6.351 -2.99425 8.68025 0.534287 -0.245264 0 -0.533636 7.77517 -0.0896829 1.24074 0.659098 0.746601 -0.0904267
-9.09463 -4.06313 0.420875 0.0468347 -0.149553 0.286718 0.933333 7.79329 -0.0197131 6.03857 0.454619 0.0457582 0.88951
0.959188 -0.337687 5.328 0.221576 0.1181 0 -1 7.84503 0.471389 4.11535 0.259281 0.892907 0.368089
-9.886 -2.553 5.83125 -0.130164 -0.214555 0 -0.84122 7.8882 -0.205416 1.13398 0.231542 0.833637 -0.501436
-5.271 -4.34734 9.45378 0.429117 -0.353165 0 -0.2 7.89614 0.0790899 1.71029 0.716884 -0.165769 -0.677199
-1.62925 -2.0845 9.506 -0.3736 -0.192566 -0.239979 -0.0888889 7.96649 0.693731 3.56384 -0.672234 0.587866 -0.450016
-6.17556 -5.75075 9.81419 0.51025 -0.30457 0 -0.0888889 8.04089 -0.485206 1.71029 0.879245 -0.409227 -0.243849
1.475 -1.086 6.477 0.206609 0.109415 0 -1 8.11551 -0.482249 4.11535 0.0342105 0.968835 0.245335
-7.654 -1.03075 -1.2925 -0.123922 -0.0616875 0 -0.202515 8.12507 -0.20787 5.82098 0.112016 0.560975 0.820219
-8.44675 -1.73325 -0.95075 -0.044929 -0.095279 0 0.686873 8.12867 -0.999883 6.03857 0.355633 0.467696 0.809188
-1.71375 -7.84975 10.351 0.248422 -0.133752 -0.236758 -0.347251 8.13377 -0.791293 2.80966 -0.959066 -0.0283712 0.281756
-3.848 -0.135 -1.112 -0.47056 -0.0929525 -0 -0.777778 8.16841 0.162781 5.31409 0.267886 0.359465 0.89388
-0.191813 -0.267 2.11812 0.0607867 0.248202 0.659205 -1 8.17638 0.662065 4.7362 0.49384 0.656019 -0.570755
-9.01025 -3.051 -0.00325 0.00687743 -0.143257 -0.00186698 0.933333 8.25554 -0.690882 6.03857 0.548127 0.175649 0.817743
1.572 -0.953875 7.497 0.332302 0.143267 0.197939 -0.676238 8.26213 0.159922 4.11535 0.0473165 0.987682 -0.149147
-6.27887 -7.16625 9.82987 0.573587 -0.259769 0 -0.0888889 8.2744 -0.176118 1.93228 0.968248 0.150609 -0.199533
-9.6935 -7.11513 1.80638 -0.246053 -0.152544 -0.0592266 -0.306607 8.27538 -0.999868 0.565334 0.37578 0.909047 0.180065
-5.27969 -9.23044 9.6165 0.54384 -0.152486 0 1 8.32914 -0.152386 2.2578 0.552825 0.793218 0.255323
-10.4152 -2.56775 4.9595 -0.10965 -0.146964 -0.00293626 -0.85504 8.40058 -0.197551 0.801032 0.427255 0.881527 0.200905
-3.57711 -9.55381 9.77205 0.436577 -0.0817649 0 0.913024 8.42972 0.132051 2.55041 -0.197054 0.922204 0.33273
-2.55194 -2.87169 10.2829 0.0562423 -0.221703 -0.338533 -0.154071 8.44633 -0.147396 3.56384 -0.412992 0.578452 -0.703442
-9.34125 -2.11262 0.184 -0.431947 -0.152996 -0.332379 0.933333 8.5272 -0.137948 6.03857 0.722449 0.297005 0.624384
1.37888 -0.50825 8.64587 0.109163 0.121578 0.781538 -0.0888889 8.60749 0.999862 4.11535 0.0043209 0.99807 -0.0619493
-10.0621 -2.179 2.79284 0.659237 -0.233909 0 -0.866667 8.61489 -0.0770625 0.801032 0.993385 0.114721 0.00508027
-2.011 -5.875 11.0615 0.37523 -0.213744 -0.0252554 -0.253553 8.6527 -0.495688 2.98636 -0.733903 -0.671001 -0.105567
-0.79975 -1.2305 1.11688 0.0412627 0.301404 0 -1 8.68913 0.551999 5.31409 0.507433 0.424111 -0.750095
-10.148 -1.38462 7.12813 0.016896 -0.210039 0 -0.866667 8.75266 -0.219836 1.13398 0.229914 0.611414 -0.757174
-1.88644 -9.22363 10.6494 0.397807 -0.0374572 0 0.844444 8.76805 -0.0799102 2.80966 -0.616614 0.425512 0.662365
-8.26437 -1.01525 8.31125 0.0134116 -0.171529 0 -0.866667 8.77297 0.802344 1.13398 0.555904 0.831173 -0.0110874
-5.77 -8.44 10.563 0.568423 -0.204218 0 -0.0888889 8.79031 0.23855 1.93228 0.951713 0.306736 0.0124313
-9.93338 -3.12075 1.56225 0.172188 -0.215043 -0.272166 -0.275322 8.79066 -0.198487 0.801032 0.938129 0.0129367 0.346044
-10.2933 -1.5525 3.79225 0.2774 -0.14857 0.732195 -0.866667 8.79835 0.441177 0.801032 0.67929 0.548711 0.487321
-9.72725 -6.4445 0.72725 -0.414443 -0.124157 -0.747204 -0.2 8.85152 -0.999881 0.330689 0.485707 0.408432 0.772833
1.19456 -0.592 3.51119 0.232144 0.245699 0 -1 8.95039 0.293775 4.59504 0.551665 0.532234 -0.642178
-3.3405 -0.993 -2.2375 -0.62862 0.202535 -0.839383 -0.777778 8.95265 -0.15661 5.31409 0.971253 0.231919 0.0536805
-3.67925 -5.23994 10.9784 0.37313 -0.281658 0 -0.2 9.03719 -0.054301 2.98636 -0.0577555 -0.859388 -0.508052
-8.08497 -1.88934 9.36447 0.207993 -0.138471 0 -0.866667 9.04783 -0.139227 1.24074 0.524179 0.786561 0.326433
-10.269 -4.94088 1.079 -0.0595383 -0.202898 0.202432 -0.319053 9.08092 -0.592599 0.801032 0.843489 -0.184587 0.504435
-0.426 -1.17206 10.6077 -0.082501 -0.114443 0 -0.0888889 9.12349 0.701762 3.56384 -0.363504 0.925447 -0.106831
-1.7585 -6.495 11.9974 0.3505 -0.151272 0 -1 9.17318 0.0230992 2.98636 -0.875271 -0.44215 0.195971
-6.951 -2.5145 9.9525 0.198646 -0.150036 0 -0.2 9.26137 -0.0955885 1.24074 0.21621 0.976343 0.00262576
-5.82725 -2.50425 9.9965 0.16658 -0.2122 0 -0.2 9.27415 0.279194 1.24074 0.185066 0.85031 -0.49267
-1.463 -8.376 11.3333 0.176508 0.113873 -0.105314 -1 9.27602 0.32598 2.80966 -0.806276 -0.255371 0.533577
-6.10838 -7.2915 10.8197 0.50502 -0.215562 0 -0.0888889 9.28658 0.0510481 1.93228 0.978062 0.207388 -0.01962
0.94725 -0.8885 9.82619 0.196768 -0.10638 0.025898 -0.0888889 9.30248 0.0536257 3.56384 -0.162998 0.986589 -0.00857057
2.43925 -0.98075 5.77775 0.0355903 0.140115 0 -1 9.31125 0.262274 4.11535 0.418149 0.902916 0.0994703
-6.23525 -0.18375 -2.40925 -0.563093 -0.0344207 0 -0.600144 9.31713 -0.999877 5.63908 -0.181898 0.37108 0.910611
-11.3241 -2.33512 5.93962 -0.0451153 -0.160482 0 -0.866667 9.34674 -0.709798 1.13398 0.252521 0.915196 -0.314085
2.086 -0.48375 4.345 0.0228864 0.169917 0 -1 9.34747 0.65583 4.59504 0.497996 0.855802 -0.140014
-9.39925 -0.69575 8.29525 0.0114345 -0.182885 0 -0.866667 9.35122 0.0238771 1.13398 0.516402 0.75225 -0.409204
-2.9805 -2.35 -1.91 -0.58718 0.255945 -0.581509 -0.777778 9.35991 -0.0849309 5.31409 0.87559 0.263953 -0.404562
-3.67 -3.37725 10.0363 0.238417 -0.297692 0 -0.2 9.36524 0.259178 2.98636 0.0528347 0.22804 -0.972217
-10.5968 -5.89213 1.39713 -0.152711 -0.183321 0 -0.2 9.40719 -0.811398 0.698214 0.886917 0.280722 0.366841
-1.51519 -3.31188 -0.343688 -0.615773 0.331876 -0.637992 -0.769004 9.47348 -0.0481116 5.31409 0.552474 0.313317 -0.772402
-4.73887 -2.95038 10.0363 0.168411 -0.272514 0 -0.2 9.50051 0.440618 2.98636 0.215907 0.495566 -0.841308
-8.1475 0.257 -1.40625 -0.118517 -0.127627 0 0.933333 9.50883 -0.368021 5.82098 0.639815 0.0485671 0.766993
-5.43231 1.03325 -1.99637 -0.784353 -0.0238254 -0.0505004 -0.777778 9.5305 0.10826 5.63908 -0.348452 0.365504 0.863127
-1.991 -1.967 11.037 -0.109312 -0.143692 0 -0.2 9.54403 0.0152856 3.56384 -0.456314 0.833743 -0.310886
-4.34269 -10.1756 10.3532 0.501757 -0.0597222 0 0.960233 9.57448 -0.382665 2.55041 0.0574804 0.76062 0.646648
-9.791 -1.14225 0.369 -0.197152 -0.15662 -0.0115317 0.933333 9.61261 -0.427001 6.03857 0.830387 0.309634 0.463232
-4.378 1.20725 -1.419 -0.689753 -0.0427394 -0.684071 -0.777778 9.6438 0.903658 5.31409 -0.00825931 0.568714 0.822494
-3.648 -2.5685 10.791 0.102482 -0.188654 0 -0.2 9.6919 0.243116 3.56384 0.0512143 0.888126 -0.456737
-3.155 0.989 -1.892 -0.615977 0.142005 -0.367727 -0.777778 9.70204 0.999893 5.31409 0.806638 0.316079 0.499429
-0.231688 -2.14738 1.6635 -0.134305 0.333376 0 -1 9.78595 -0.471375 5.31409 0.59426 0.351451 -0.723421
-9.48994 -0.521375 -0.427875 -0.143644 -0.132544 -0.00798084 0.933333 9.81102 -0.577059 6.03857 0.666526 0.0853102 0.740584
-4.92338 -5.55363 11.0901 0.315841 -0.276151 0 -0.2 9.83943 0.080399 1.71029 0.467586 -0.821285 -0.326885
-11.3206 -1.394 4.09538 0.428673 -0.0595578 0.301046 -0.866667 9.8811 0.406092 0.801032 0.0982185 0.706631 0.700733
-5.6675 -9.7635 11.0267 0.39355 -0.148034 0 0.661547 9.8858 -0.536952 2.2578 0.829797 0.432144 0.353113
-10.0174 -1.68037 1.3035 0.77966 -0.191279 -0.0571727 -0.218217 9.90462 -0.118848 6.03857 0.938772 0.263775 0.221652
-11.189 -0.84225 7.053 -0.0315099 -0.194091 0 -0.866667 9.92888 0.617094 1.13398 0.0537119 0.434125 -0.89925
3.03312 -1.56288 8.17488 0.181967 0.13918 0 -0.227267 9.98413 0.0566503 4.11535 0.589905 0.806294 0.0436145
-11.926 -2.06175 4.8235 0.08382 -0.0931856 0 0.844444 9.99966 -0.421432 0.801032 0.214942 0.911725 0.350082
-2.68963 -5.70463 12.3524 0.373157 -0.213079 0 -0.2 10.121 -0.389516 2.98636 -0.260663 -0.948494 -0.180039
-9.06 -0.9825 9.4 0.0107298 -0.13883 0 -0.866667 10.1219 0.0899438 1.13398 0.709073 0.625695 0.325148
-10.2015 -0.57325 2.828 0.422387 -0.166151 0.39001 -0.866667 10.1757 0.999895 0.801032 0.802382 0.564311 0.194259
-6.14825 -6.61194 11.79 0.412833 -0.221673 0 -0.120257 10.1964 -0.444363 1.93228 0.929507 -0.355159 -0.0993885
-3.2205 -1.95 -3.059 -0.40365 0.193291 -0.0983638 -0.777778 10.2196 -0.527029 5.31409 0.974372 0.0321083 0.222639
-10.5411 0.020375 7.60388 -0.0416343 -0.197551 0 -0.866667 10.2872 0.287834 1.13398 0.449597 0.384052 -0.806453
-1.33125 -10.4866 11.3071 0.442793 0.0238812 0 0.844444 10.2964 -0.463431 2.80966 -0.287108 0.373615 0.882032
0.656875 -0.954625 11.0969 0.257629 -0.0809206 0 -0.0888889 10.3315 0.407777 3.56384 -0.172353 0.969797 0.17259
-3.47725 -2.18625 11.8475 0.0116938 -0.148146 0 -0.2 10.389 -0.07272 3.56384 -0.3464 0.841313 -0.414969
-0.571625 -9.07475 11.6154 0.316279 0.0911523 -0.00596384 -0.972213 10.4064 -0.150563 2.80966 -0.446835 -0.276825 0.850709
-1.52013 -6.21325 13.1946 0.52676 -0.163418 0 -0.2 10.426 -0.524356 2.98636 -0.53448 -0.837967 0.110193
2.82544 -1.15769 9.54619 0.00558137 0.13258 0 -0.0888889 10.4309 0.459066 4.11535 0.599762 0.800153 -0.00639302
-3.0865 -3.384 -2.202 -0.471853 0.271505 -0.0270624 -0.777778 10.4396 -0.207393 5.31409 0.949757 -0.133184 -0.283239
-2.97831 -0.11725 -3.39812 -0.588107 0.171183 0 -0.777778 10.451 -0.0838444 5.31409 0.986663 0.11596 0.114233
0.797 -2.31962 2.351 -0.0210074 0.294633 0 -1 10.4666 -0.218159 4.7362 0.561588 0.496239 -0.662092
2.8865 -1.308 4.4665 -0.0228323 0.208563 0 -1 10.5029 0.87811 4.59504 0.783732 0.484477 -0.388647
-6.90462 0.9615 -2.46444 -0.30026 -0.0765691 0 -0.661351 10.5549 -0.328281 5.82098 0.290027 0.277456 0.915916
-0.950875 -7.54581 12.4346 0.0322214 0.125166 -0.245019 -1 10.5687 0.0521168 2.98636 -0.632297 -0.545991 0.549632
-2.3095 -3.191 -1.331 -0.780727 0.31989 0 -0.777778 10.5817 0.480397 5.31409 0.714555 -0.166744 -0.679417
-7.71462 1.13538 -1.85662 -0.139904 -0.118354 0 0.933333 10.5867 0.177244 5.82098 0.70913 0.255348 0.657215
-0.977813 -1.33644 11.9819 0.0576827 -0.118332 0 -0.155669 10.6134 -0.143982 3.56384 -0.0664935 0.980925 -0.18266
2.24275 -1.929 3.53975 0.0433147 0.262291 0 -1 10.6495 0.604271 4.59504 0.6933 0.212984 -0.688457
-3.665 1.752 -2.3 -0.70351 0.0895837 -0.719077 -0.777778 10.7064 0.417711 5.31409 0.41392 0.754312 0.509591
-2.33325 -1.6125 12.1005 0.0651217 -0.14686 0.0357752 -0.134356 10.7161 -0.221343 3.56384 -0.27871 0.82363 -0.493918
-9.14338 -2.21881 10.6134 0.047993 -0.106949 0 -0.866667 10.7177 -0.594547 1.24074 0.525658 0.686227 0.502768
-6.2165 -2.099 11.352 -0.0479317 -0.112429 0 -0.2 10.7415 0.734313 1.24074 -0.0671779 0.99727 0.0306544
-10.1615 0.4705 8.58675 -0.04119 -0.173631 0 -0.866667 10.7746 -0.215396 1.13398 0.911713 0.337515 -0.234228
3 175 124 169
3 131 124 88
3 124 132 76
3 76 132 119
3 119 69 76
3 127 178 150
3 127 150 87
3 87 150 129
3 156 165 109
3 122 165 160
3 160 169 122
3 131 88 138
3 138 102 131
3 41 88 76
3 23 41 43
3 43 69 42
3 69 104 84
3 42 84 87
3 84 127 87
3 87 129 85
3 87 85 42
3 129 137 85
3 174 137 129
3 174 129 150
3 150 199 174
3 199 150 178
3 195 157 161
3 186 112 135
3 135 112 83
3 135 83 151
3 51 73 83
3 36 98 67
3 112 157 98
3 67 98 109
3 67 38 36
3 51 36 33
3 36 38 22
3 36 22 33
3 22 15 33
3 65 100 59
3 70 117 72
3 17 10 7
3 7 10 2
3 7 2 5
3 2 10 3
3 2 3 0
3 5 2 0
3 58 19 39
3 42 39 19
3 19 34 42
3 58 39 63
3 63 85 101
3 105 101 142
3 105 155 152
3 155 142 162
3 33 15 16
3 16 5 13
3 5 11 13
3 4 18 11
3 20 6 14
3 14 24 26
3 24 53 61
3 53 24 40
3 40 24 25
3 66 58 105
3 105 152 136
3 55 95 56
3 152 162 121
3 106 121 158
3 162 152 155
3 126 164 73
3 73 80 126
3 126 80 89
3 48 51 29
3 29 51 16
3 48 29 52
3 29 13 32
3 56 27 20
3 20 28 55
3 28 26 54
3 28 54 55
3 24 61 44
3 166 105 136
3 55 94 95
3 94 111 140
3 140 111 143
3 54 81 94
3 111 128 143
3 120 118 159
3 92 91 120
3 91 118 120
3 61 79 44
3 116 130 93
3 118 130 168
3 168 159 118
3 173 140 183
3 182 143 128
3 35 60 68
3 106 96 60
3 60 96 68
3 96 145 123
3 193 139 158
3 158 196 193
3 113 164 126
3 187 164 113
3 89 74 113
3 89 48 74
3 74 48 52
3 108 64 68
3 64 35 68
3 52 32 35
3 52 29 32
3 108 68 115
3 115 68 123
3 171 146 115
3 184 123 145
3 180 145 139
3 17 31 49
3 72 49 70
3 88 124 76
3 119 104 69
3 167 172 119
3 167 119 132
3 119 148 104
3 104 148 127
3 119 172 148
3 189 192 156
3 110 109 165
3 77 110 122
3 122 110 165
3 109 110 77
3 109 77 38
3 131 122 169
3 124 131 169
3 114 122 131
3 114 131 102
3 100 138 133
3 133 138 153
3 102 138 100
3 117 133 153
3 117 153 97
3 117 97 75
3 88 82 97
3 88 97 138
3 138 97 153
3 41 50 82
3 41 82 88
3 50 41 23
3 10 23 19
3 19 23 34
3 23 43 34
3 42 34 43
3 42 69 84
3 101 141 142
3 141 101 137
3 85 137 101
3 197 137 174
3 177 186 135
3 177 135 151
3 51 71 36
3 36 71 98
3 98 71 112
3 83 112 71
3 83 71 51
3 109 98 147
3 156 109 189
3 189 109 147
3 189 147 157
3 157 147 98
3 38 21 22
3 31 17 21
3 59 31 46
3 21 46 31
3 46 21 38
3 65 59 46
3 122 114 77
3 77 46 38
3 46 77 65
3 65 77 102
3 102 77 114
3 70 57 99
3 99 57 100
3 57 59 100
3 49 31 57
3 49 57 70
3 59 57 31
3 117 70 99
3 117 99 133
3 133 99 100
3 72 117 75
3 50 75 97
3 50 97 82
3 49 72 45
3 45 75 50
3 75 45 72
3 37 45 23
3 23 45 50
3 37 49 45
3 17 49 37
3 0 3 1
3 1 3 8
3 40 25 58
3 10 8 3
3 8 10 24
3 24 10 25
3 58 25 19
3 19 25 10
3 105 58 101
3 101 58 63
3 185 151 191
3 151 185 177
3 164 154 73
3 16 51 33
3 18 13 11
3 20 12 6
3 6 12 4
3 4 12 18
3 14 6 9
3 9 6 1
3 9 1 8
3 1 6 0
3 4 0 6
3 14 9 24
3 8 24 9
3 24 44 26
3 61 53 86
3 53 40 66
3 107 116 86
3 107 86 66
3 53 66 86
3 66 105 107
3 136 152 95
3 106 56 121
3 121 95 152
3 95 121 56
3 158 121 181
3 158 181 196
3 181 121 162
3 35 32 18
3 30 35 18
3 27 30 18
3 12 20 27
3 12 27 18
3 47 54 26
3 81 54 47
3 81 47 92
3 62 92 47
3 62 47 26
3 62 26 44
3 91 92 62
3 79 91 44
3 44 91 62
3 61 86 93
3 93 86 116
3 144 116 176
3 176 116 107
3 176 107 166
3 105 166 107
3 173 136 125
3 173 125 140
3 95 94 125
3 95 125 136
3 125 94 140
3 128 111 81
3 128 81 92
3 81 111 94
3 79 118 91
3 118 79 61
3 118 61 93
3 118 93 130
3 183 140 190
3 128 179 182
3 60 30 27
3 60 27 56
3 60 56 106
3 35 30 60
3 123 68 96
3 139 145 96
3 103 64 108
3 146 108 115
3 103 108 146
3 21 17 7
3 21 7 22
3 22 7 15
3 124 175 132
3 170 178 127
3 43 76 69
3 43 41 76
3 104 127 84
3 163 161 112
3 163 112 186
3 163 195 161
3 157 112 161
3 38 67 109
3 65 102 100
3 10 17 23
3 37 23 17
3 39 42 85
3 39 85 63
3 142 155 105
3 162 142 198
3 83 73 151
3 151 73 154
3 151 154 191
3 80 73 51
3 16 15 5
3 15 7 5
3 0 4 5
3 11 5 4
3 40 58 66
3 51 89 80
3 89 51 48
3 29 16 13
3 20 14 28
3 26 28 14
3 54 94 55
3 56 20 55
3 96 106 139
3 139 106 158
3 126 89 113
3 74 52 90
3 134 90 149
3 103 149 90
3 78 64 103
3 78 103 90
3 78 90 52
3 64 78 52
3 64 52 35
3 13 18 32
3 144 130 116
3 143 190 140
3 143 182 190
3 115 123 171
3 171 123 184
3 180 139 193
3 90 134 113
3 90 113 74
3 113 134 187
3 149 103 146
3 134 149 188
3 134 188 194
3 146 188 149
3 128 92 120
3 128 120 159
