ply
format ascii 1.0
comment Generated by PyMesh
element vertex 200
property float x
property float y
property float z
property float charge
property float ddc
property float hbond
property float hphob
property float rho
property float si
property float theta
property float nx
property float ny
property float nz
element face 333
property list uchar int vertex_indices
end_header
-0.7125 -3.14287 6.77037 0.40072 0 0 -1 1e-08 -0.786713 2.22045e-16 -0.909629 0.176453 0.376085
-0.949313 -4.12856 7.11919 0.359443 -0.107988 0 -0.584002 1.07207 -0.611672 2.96099 -0.913709 0.35722 0.193727
-1.476 -3.1625 5.95813 0.62033 -0.436475 0.397828 -1 1.11492 0.0432137 1.17104 -0.693237 0.143144 0.706351
-0.945625 -1.96769 6.20687 0.41249 -0.170208 0 -1 1.32398 0.0726819 2.22045e-16 -0.792355 0.33976 0.506693
-0.620125 -2.47038 8.16737 0.103473 -0.312889 -0.60344 -0.38732 1.55319 -0.131727 4.64273 -0.933496 0.310793 -0.178866
-1.69987 -5.249 6.81862 0.450617 -0.128551 0.09057 -0.79922 2.45376 -0.615685 2.66342 -0.818807 0.560268 0.125122
-1.03 -3.787 8.5425 0.191599 -0.39669 -0.000550657 -0.0888889 2.53801 -0.66072 3.77224 -0.841293 0.29785 -0.451123
-1.81662 -4.56588 5.56887 0.41354 -0.140994 0.340609 -1 2.61059 -0.672701 2.0366 -0.783066 0.239221 0.574091
-1.8625 -1.868 5.281 0.414427 -0.197408 0 -1 2.62609 0.454107 0.591141 -0.642916 0.358324 0.676951
-0.47025 -1.53 9.122 -0.106855 -0.265512 -0.47734 -0.0888889 2.90155 0.17356 4.7465 -0.559631 0.807507 -0.186402
-0.04025 -0.651 6.15987 0.19916 0.280485 0 -1 2.9226 0.193422 5.93586 -0.333882 0.706318 0.62421
-0.030375 -1.28225 7.4885 0.122921 0.321916 0.00467234 -0.980047 3.04156 0.180699 5.38629 -0.531229 0.845946 0.0465979
-3.12075 -3.278 4.64725 0.334693 -0.187846 0 -1 3.22133 0.461773 1.35359 -0.612575 0.0962018 0.784536
-1.62925 -2.0845 9.506 -0.3736 -0.26899 -0.239979 -0.0888889 3.27341 0.693731 4.36417 -0.672234 0.587866 -0.450016
-2.817 -4.43525 4.809 0.438413 -0.208478 0.745353 -1 3.29177 -0.632374 1.73178 -0.582432 0.0504241 0.811314
-3.2065 -2.32675 4.27975 0.130018 -0.115245 0 -1 3.66641 0.539275 1.07054 -0.661631 0.374437 0.649648
-1.46512 -0.271688 4.48956 0.241391 0.114874 0 -1 3.79288 0.332596 0.311275 -0.643815 0.680922 0.349067
-2.3525 -6.17938 7.56938 0.610377 0.0327639 0.281908 -0.506213 3.81581 0.253721 2.79793 -0.928894 0.314033 0.196315
-2.31381 -1.10175 4.2515 0.100769 0.105598 0 -1 3.98649 0.465965 0.652403 -0.672386 0.636115 0.37849
-2.69287 -5.83144 5.22319 0.455863 -0.108821 0.425143 -1 4.18823 -0.739062 2.12773 -0.654214 0.459018 0.601088
-2.88225 -6.48225 6.32975 0.59626 -0.105186 0.800479 -1 4.23082 0.105173 2.47164 -0.654714 0.679947 0.330186
0.959188 -0.337687 5.328 0.221576 0.359164 0 -1 4.26015 0.471389 5.95518 0.259281 0.892907 0.368089
-0.8 0.19875 5.3555 0.085571 0.243213 0 -1 4.3177 0.999928 6.26976 -0.210525 0.880777 0.42416
-4.05363 -3.21913 3.93375 0.0999057 -0.0868596 0 -1 4.39726 0.525863 1.33596 -0.710511 0.29783 0.637551
-0.426 -1.17206 10.6077 -0.082501 0.206934 0 -0.0888889 4.4304 0.701762 4.64711 -0.363504 0.925447 -0.106831
1.475 -1.086 6.477 0.206609 0.373036 0 -1 4.53064 -0.482249 5.65043 0.0342105 0.968835 0.245335
0.94725 -0.8885 9.82619 0.196768 0.248152 0.025898 -0.0888889 4.60939 0.0536257 4.91433 -0.162998 0.986589 -0.00857057
1.572 -0.953875 7.497 0.332302 0.379523 0.197939 -0.676238 4.67726 0.159922 5.44855 0.0473165 0.987682 -0.149147
-3.95025 -4.98125 4.1915 0.403797 -0.178046 0.703378 -1 4.69308 -0.439848 1.75116 -0.364018 0.223478 0.904184
-2.55194 -2.87169 10.2829 0.0562423 -0.287638 -0.338533 -0.154071 4.71376 -0.147396 4.0381 -0.412992 0.578452 -0.703442
-1.74025 -0.45925 3.509 0.184182 0.138668 0 -1 4.82843 0.0285848 0.469909 -0.563464 0.812844 0.147625
-1.991 -1.967 11.037 -0.109312 -0.196596 0 -0.2 4.85095 0.0152856 4.30285 -0.456314 0.833743 -0.310886
-2.309 -6.189 8.945 0.43995 0.10523 0 -0.0888889 4.85712 0.159897 3.15334 -0.990824 0.123307 -0.0553434
-2.61469 -4.94441 9.86416 0.323553 -0.261413 0 -0.0888889 4.90394 0.0684234 3.54158 -0.775368 -0.219062 -0.592297
1.37888 -0.50825 8.64587 0.109163 0.305148 0.781538 -0.0888889 5.02262 0.999862 5.19596 0.0043209 0.99807 -0.0619493
-3.709 -1.9195 3.02475 -0.0954547 0.0549435 0 -1 5.07828 0.676436 1.02482 -0.766861 0.573532 0.288072
-2.18438 -7.15963 8.50113 0.52569 0.0919865 0 -0.0888889 5.17864 -0.211752 3.02091 -0.97819 -0.0684411 0.19611
-2.81013 -7.37475 7.02338 0.598937 -0.101806 0.0306396 -1 5.20737 -0.310992 2.61617 -0.632572 0.310152 0.709689
-0.718125 0.07225 3.22962 0.185243 0.212774 0.0196117 -1 5.29745 0.40985 0.267989 -0.184456 0.982365 -0.0305915
-0.033125 0.231 4.12725 0.321074 0.293476 0 -1 5.35319 0.559973 0.0652021 0.120133 0.987108 -0.105764
-3.716 -6.85975 5.448 0.579937 -0.168039 0.268141 -1 5.50169 -0.999864 2.24598 -0.263335 0.865654 0.425791
0.656875 -0.954625 11.0969 0.257629 0.192609 0 -0.0888889 5.63838 0.407777 4.73539 -0.172353 0.969797 0.17259
2.43925 -0.98075 5.77775 0.0355903 0.365629 0 -1 5.72638 0.262274 5.70679 0.418149 0.902916 0.0994703
-4.75725 -4.3725 3.745 0.240903 -0.149695 0 -1 5.76143 0.137715 1.56565 -0.31198 0.546455 0.77721
2.086 -0.48375 4.345 0.0228864 0.340125 0 -1 5.7626 0.65583 6.01493 0.497996 0.855802 -0.140014
-4.09312 -6.05037 4.4095 0.490923 -0.186721 0 -1 5.79352 -0.999878 1.95648 -0.137521 0.544987 0.827089
-4.561 -3.0465 2.529 0.146464 -0.0344706 0.0175719 -1 5.90077 0.268546 1.19723 -0.805122 0.509933 0.302898
-0.977813 -1.33644 11.9819 0.0576827 -0.20961 0 -0.155669 5.92035 -0.143982 4.33483 -0.0664935 0.980925 -0.18266
-3.648 -2.5685 10.791 0.102482 -0.26614 0 -0.2 5.95932 0.243116 4.00415 0.0512143 0.888126 -0.456737
-3.67 -3.37725 10.0363 0.238417 -0.360872 0 -0.2 5.96534 0.259178 3.8646 0.0528347 0.22804 -0.972217
-5.116 -5.535 4.308 0.53344 -0.219296 0.132085 -1 5.98892 -0.573461 1.78613 0.188106 0.463336 0.865988
-2.33325 -1.6125 12.1005 0.0651217 -0.193942 0.0357752 -0.134356 6.02306 -0.221343 4.30285 -0.27871 0.82363 -0.493918
-4.98606 -4.13831 2.75444 0.0453553 -0.0589906 0 -1 6.15939 -0.448578 1.56565 -0.707196 0.630495 0.319921
-4.69228 -7.21006 6.58134 0.7131 -0.243013 0.096704 -0.777778 6.19785 -0.0381626 2.24598 0.412367 0.69768 0.585829
-2.162 -8.0945 7.9165 0.50133 0.00814033 0 -0.0888889 6.28149 -0.999892 3.02091 -0.909633 0.295624 0.291845
2.11538 -0.606875 10.9895 0.0126506 0.219538 0 -0.0888889 6.28185 0.999888 4.73539 0.181246 0.959523 0.21556
-1.90625 -6.818 10.2917 0.36039 0.102094 -0.276012 -0.372184 6.39707 -0.273895 3.15334 -0.962724 -0.18519 0.197148
3.03312 -1.56288 8.17488 0.181967 0.366849 0 -0.227267 6.39926 0.0566503 5.44855 0.589905 0.806294 0.0436145
-1.72213 0.01675 1.9555 0.108835 0.194968 0.0848011 -1 6.45332 0.64803 0.267989 -0.115851 0.963367 -0.241872
-3.67925 -5.23994 10.9784 0.37313 -0.299844 0 -0.2 6.47307 -0.054301 3.54158 -0.0577555 -0.859388 -0.508052
-2.13225 -8.094 9.39625 0.419197 0.0284739 0 0.107925 6.47363 -0.0980801 3.02091 -0.947777 0.184363 0.260248
2.82544 -1.15769 9.54619 0.00558137 0.324329 0 -0.0888889 6.52732 0.459066 5.19596 0.599762 0.800153 -0.00639302
-2.011 -5.875 11.0615 0.37523 0.208753 -0.0252554 -0.253553 6.53614 -0.495688 3.54158 -0.733903 -0.671001 -0.105567
-3.47725 -2.18625 11.8475 0.0116938 -0.176924 0 -0.2 6.55797 -0.07272 4.00415 -0.3464 0.841313 -0.414969
-0.191813 -0.267 2.11812 0.0607867 0.304169 0.659205 -1 6.5732 0.662065 0.267989 0.49384 0.656019 -0.570755
-4.00506 -2.0625 1.51047 -0.0901213 -0.0535232 0.0411343 -0.905249 6.62784 -0.520918 1.19723 -0.716805 0.620311 0.318442
1.33506 -1.27988 11.9929 0.171192 0.214598 0 -0.184761 6.80823 0.187838 4.73539 0.263704 0.797677 0.542376
2.8865 -1.308 4.4665 -0.0228323 0.391402 0 -1 6.918 0.87811 6.01493 0.783732 0.484477 -0.388647
1.19456 -0.592 3.51119 0.232144 0.381469 0 -1 6.95446 0.293775 6.01493 0.551665 0.532234 -0.642178
-5.07044 -6.35375 5.00331 0.6309 -0.235763 0.265465 -0.957747 6.97665 -0.625621 1.78613 0.358455 0.754102 0.55031
-4.2395 -8.5735 7.08169 0.515497 -0.178773 0 -0.918367 7.07379 -0.999835 2.61617 0.129076 0.635443 0.761282
-4.73887 -2.95038 10.0363 0.168411 -0.308914 0 -0.2 7.11629 0.440618 3.8646 0.215907 0.495566 -0.841308
-3.15875 -1.42963 12.8542 0.0612547 -0.14772 0.542764 0.4 7.15573 0.166984 4.30285 -0.499533 0.666475 -0.553423
-6.183 -5.011 4.536 0.226191 -0.214075 0.967173 -1 7.19931 0.0722563 1.78613 0.30348 0.907268 0.291145
-1.63806 -0.748062 12.9071 0.207123 -0.21144 0 0.0257813 7.20024 0.00689755 4.33483 -0.00624998 0.683988 -0.729466
3.51962 -1.40988 6.73475 -0.0179534 0.332987 0 -1 7.23211 0.492425 5.70679 0.511254 0.858688 0.0357044
-5.19125 -3.15313 1.31638 -0.263014 -0.0633003 0 -0.777778 7.27155 -0.201481 1.19723 -0.612573 0.506803 0.606552
-3.04312 -9.22025 8.00725 0.43946 -0.0955714 0 0.844444 7.31169 -0.999875 2.61617 -0.450346 0.747347 0.488529
3.3575 -2.14669 5.14825 -0.036672 0.401085 -0.0594659 -0.569476 7.33848 -0.208989 5.70679 0.717591 0.496725 -0.488187
-3.356 -0.991 0.877 -0.00981507 0.0921485 0.581518 -1 7.44462 0.31769 1.02482 -0.552038 0.825476 0.117657
-1.71375 -7.84975 10.351 0.248422 0.0613551 -0.236758 -0.347251 7.4483 -0.791293 3.02091 -0.959066 -0.0283712 0.281756
-0.27 -0.883 13.3573 0.187824 -0.241088 0 -0.2 7.53229 -0.074031 4.33483 0.52276 0.654727 -0.545943
-6.11369 -4.90406 2.41894 0.0869857 -0.071307 0 -1 7.56312 0.106526 1.56565 -0.720725 0.693096 -0.0131379
-2.21075 -0.4225 1.029 -0.00208364 0.204606 0 -1 7.58915 0.59718 0.267989 0.0284243 0.863057 -0.504307
3.34275 -2.1375 9.62875 -0.085986 0.360531 0 -0.0888889 7.63838 0.296307 5.19596 0.924517 0.35699 0.133518
-2.77375 -9.09387 9.28175 0.433723 -0.0762169 0 0.844444 7.6671 -0.218317 3.02091 -0.625672 0.758327 0.182961
-1.7585 -6.495 11.9974 0.3505 0.124306 0 -1 7.68682 0.0230992 3.54158 -0.875271 -0.44215 0.195971
3.03731 -1.60906 11.3639 0.0088269 0.280602 0 -0.0888889 7.69412 0.999849 4.73539 0.822196 0.430406 0.372484
-4.77881 -2.13075 0.714437 -0.363993 -0.107559 0 -0.777778 7.74005 -0.109836 1.19723 -0.286221 0.75919 0.584558
-4.92338 -5.55363 11.0901 0.315841 -0.291271 0 -0.2 7.76099 0.080399 3.54158 0.467586 -0.821285 -0.326885
3.951 -2.715 8.351 0.00131711 0.338153 0 -1 7.8828 -0.112759 5.44855 0.766733 0.415315 0.489524
-5.76875 -4.03025 1.206 -0.335113 -0.0530975 0.547276 -1 7.89776 -0.502144 1.19723 -0.659128 0.428587 0.617951
-5.271 -4.34734 9.45378 0.429117 -0.359451 0 -0.2 7.92585 0.0790899 3.8646 0.716884 -0.165769 -0.677199
0.721 -1.61625 13.153 0.124071 0.230919 0 -0.2 8.00259 -0.13008 4.33483 0.550536 0.834086 0.034786
-2.68963 -5.70463 12.3524 0.373157 0.233814 0 -0.2 8.00447 -0.389516 3.54158 -0.260663 -0.948494 -0.180039
-6.22325 -6.96025 7.58225 0.517227 -0.26016 0 -0.777778 8.04395 -0.999844 2.24598 0.827747 0.0783912 0.555599
-0.79975 -1.2305 1.11688 0.0412627 0.294059 0 -1 8.08991 0.551999 0.267989 0.507433 0.424111 -0.750095
-1.88644 -9.22363 10.6494 0.397807 0.0630723 0 0.844444 8.17859 -0.0799102 3.02091 -0.616614 0.425512 0.662365
2.24275 -1.929 3.53975 0.0433147 0.412656 0 -1 8.20599 0.604271 6.01493 0.6933 0.212984 -0.688457
-5.79563 -5.69025 7.32412 0.66977 -0.328199 0.297821 -0.863844 8.21748 0.225146 2.24598 0.957859 0.0303151 0.285636
-5.82725 -2.50425 9.9965 0.16658 -0.236301 0 -0.2 8.27977 0.279194 4.00415 0.185066 0.85031 -0.49267
-1.22113 0.0809375 13.5485 0.0400333 -0.222707 0 0.4 8.32827 -0.0746796 4.33483 0.27894 0.353428 -0.892906
-3.82663 -9.5445 8.57913 0.41984 -0.146966 0 0.913713 8.33447 -0.8139 2.61617 -0.0289599 0.975135 0.219709
-4.69075 -2.53175 13.1115 -0.183255 -0.120166 0 -0.2 8.34393 -0.383292 4.00415 -0.350228 0.931539 -0.0978508
-6.111 -5.624 6.089 0.57352 -0.308009 0.517632 -0.801127 8.38205 -0.586464 1.78613 0.902457 0.418943 -0.100291
-3.69738 -1.33834 13.9881 0.059151 -0.103199 0.407209 0.4 8.41438 -0.414425 4.30285 -0.730711 0.470451 -0.494709
-6.624 -4.5115 5.5635 0.468287 -0.272598 0 -0.866667 8.42395 0.1465 1.78613 0.517749 0.639978 -0.567772
-0.231688 -2.14738 1.6635 -0.134305 0.345958 0 -1 8.50817 -0.471375 0.267989 0.59426 0.351451 -0.723421
-6.109 -8.09013 8.2005 0.609747 -0.216841 0.0100599 -0.777778 8.52235 -0.999782 2.24598 0.704026 0.548252 0.451407
-2.459 -0.96725 0.22375 -0.103466 0.23454 0.228537 -1 8.55453 0.116399 1.02482 0.479699 0.647816 -0.591796
4.56938 -2.1575 7.145 -0.258245 0.268064 -0.840588 -0.0888889 8.5846 0.365915 5.70679 0.477344 0.777147 0.410104
-1.463 -8.376 11.3333 0.176508 0.091205 -0.105314 -1 8.59055 0.32598 3.02091 -0.806276 -0.255371 0.533577
-5.05225 -9.12525 8.24525 0.259349 -0.188128 0.0785852 0.778944 8.59657 -0.999817 2.61617 0.439157 0.814084 0.380011
-6.2165 -2.099 11.352 -0.0479317 -0.151215 0 -0.2 8.62997 0.734313 4.00415 -0.0671779 0.99727 0.0306544
-5.308 -5.77575 12.31 0.303794 -0.236752 0 -0.2 8.64403 -0.624294 3.54158 0.323934 -0.933786 -0.152023
-7.58725 -5.17525 4.094 -0.0551233 -0.172693 0.672859 -1 8.68061 0.185181 1.78613 -0.109349 0.717811 -0.687598
-3.57711 -9.55381 9.77205 0.436577 -0.119416 0 0.913024 8.71464 0.132051 3.02091 -0.197054 0.922204 0.33273
-6.1225 -2.22088 0.649594 -0.113871 -0.0934501 0 -0.777778 8.74834 0.61095 1.19723 -0.336361 0.46711 0.817722
4.58988 -2.194 5.96825 -0.29524 0.289985 -0.031074 -0.0888889 8.76437 0.528813 5.70679 0.446627 0.807744 -0.384803
-3.26675 -0.6875 -0.423 -0.190921 0.17395 0.722465 -0.983376 8.78255 0.282955 1.02482 0.350569 0.931317 0.0987386
-6.46925 -5.10881 1.25181 -0.019668 -0.0263797 0 -0.880138 8.80027 -0.259342 1.56565 -0.779521 0.411465 0.472275
3.2995 -3.28081 4.22056 -0.0171617 0.339948 -0.081763 -0.27626 8.80484 -0.705001 5.70679 0.431314 0.725613 -0.536147
0.797 -2.31962 2.351 -0.0210074 0.369829 0 -1 8.86345 -0.218159 6.01493 0.561588 0.496239 -0.662092
-1.52013 -6.21325 13.1946 0.52676 0.172991 0 -0.2 8.93961 -0.524356 3.54158 -0.53448 -0.837967 0.110193
2.98381 -2.79806 11.9629 -0.0177105 0.27255 0 -0.0888889 9.02656 0.0389693 4.73539 0.843361 0.450121 0.293484
4.801 -3.417 7.9905 -0.255546 0.289164 -0.0430202 -0.207648 9.04266 0.395068 5.44855 0.640606 0.00382163 0.76786
-0.950875 -7.54581 12.4346 0.0322214 0.13215 -0.245019 -1 9.08239 0.0521168 3.54158 -0.632297 -0.545991 0.549632
3.38225 -3.56625 9.8885 -0.149365 0.368366 0 -0.0888889 9.09109 -0.133335 5.19596 0.981964 0.029861 0.186693
-4.0535 -1.33875 -0.59325 -0.5297 -0.0774009 0.271773 -0.877113 9.10867 -0.834148 1.02482 -0.436978 0.713172 0.548121
-2.78744 -5.99862 13.4154 0.311591 0.217111 0 -0.2 9.1117 -0.106675 3.54158 -0.0566234 -0.97951 -0.193273
2.2445 -2.9305 13.324 -0.0321753 0.20797 -0.242896 -0.0993964 9.11549 -0.199769 4.73539 0.529716 0.796814 0.29067
-5.4955 -1.4115 -0.29125 -0.232636 -0.112158 0 -0.777778 9.16917 0.709193 1.19723 -0.0858229 0.803203 0.58949
-7.01625 -5.99675 3.2625 0.0142378 0.105538 -0.13483 -0.961342 9.21242 -0.678956 1.78613 -0.752426 0.433991 -0.495487
-0.118719 0.483594 14.4014 -0.026709 -0.225892 0 0.4 9.25873 0.265661 4.33483 0.788998 0.16338 -0.592275
-2.90569 0.68025 13.7451 0.049932 -0.168828 0 0.4 9.28571 0.0684272 4.33483 -0.312653 0.115108 -0.942867
1.93 -2.83469 3.00187 -0.0310662 0.383407 0 -1 9.30481 -0.431676 6.01493 0.642221 0.532358 -0.551496
-6.2445 -5.67425 8.35825 0.839817 -0.310561 0.48189 -0.866667 9.34494 -0.593974 3.8646 0.940384 -0.316391 0.124801
-6.60156 -7.33588 8.79594 0.630253 -0.256108 0 -0.256651 9.36957 -0.999867 2.24598 0.994857 0.0992303 0.0203263
-6.951 -2.5145 9.9525 0.198646 -0.187299 0 -0.2 9.40443 -0.0955885 4.00415 0.21621 0.976343 0.00262576
-5.72906 -2.47112 12.6509 -0.209615 -0.136189 0 -0.2 9.48143 -0.310485 4.00415 -0.0788777 0.986902 0.140719
-4.765 -2.518 14.248 -0.200502 -0.106716 0 -0.2 9.48293 -0.84256 4.00415 -0.364464 0.919285 -0.148599
1.41825 -2.4965 14.165 -0.0174466 0.220416 -0.188425 -0.2 9.51426 -0.577821 4.33483 0.754722 0.655694 0.021473
-6.14825 -6.61194 11.79 0.412833 -0.243391 0 -0.120257 9.52456 -0.444363 3.54158 0.929507 -0.355159 -0.0993885
-7.5915 -4.8935 5.11925 -0.00991547 -0.217729 0.514298 -0.866667 9.55503 -0.813618 1.78613 0.355514 0.720587 -0.595285
-6.17556 -5.75075 9.81419 0.51025 -0.294811 0 -0.0888889 9.55953 -0.485206 3.8646 0.879245 -0.409227 -0.243849
-7.02675 -3.451 0.24375 -0.00575907 -0.0824706 0 -0.777778 9.58418 -0.510175 1.19723 -0.433467 0.192387 0.880394
-6.14975 -8.38775 9.2365 0.642467 -0.227185 0 0.597371 9.60102 -0.682244 2.24598 0.864514 0.496605 -0.0774548
0.46425 -2.99225 1.5145 -0.251264 0.298938 0 -0.711111 9.61285 -0.809341 0.267989 0.421954 0.7304 -0.537095
-5.725 -6.1115 13.164 0.28495 -0.229631 0 -0.199861 9.65197 -0.999881 3.54158 0.778413 -0.53643 -0.326062
-3.83075 -0.304 14.6757 -0.026281 -0.133185 -0.0434052 0.446411 9.66355 -0.560929 4.30285 -0.607594 -0.0369576 -0.793388
-1.33125 -10.4866 11.3071 0.442793 0.0967535 0 0.844444 9.70695 -0.463431 3.02091 -0.287108 0.373615 0.882032
-5.61875 -4.25737 7.6965 1 -0.379541 0.473898 -0.866667 9.70849 0.429686 3.8646 0.978629 0.118664 -0.167943
-7.35575 -6.70587 2.56169 -0.151647 -0.0677277 0 -0.485396 9.75621 -0.712272 1.56565 -0.706322 0.699094 -0.111252
-0.571625 -9.07475 11.6154 0.316279 0.121628 -0.00596384 -0.972213 9.75776 -0.150563 3.02091 -0.446835 -0.276825 0.850709
-6.351 -2.99425 8.68025 0.534287 -0.277685 0 -0.533636 9.77875 -0.0896829 4.00415 0.659098 0.746601 -0.0904267
0.461 -0.8215 15.4971 -0.179853 0.201103 -0.262187 -0.00454918 9.79434 0.0375989 4.33483 0.923269 0.377674 0.0702589
-3.848 -0.135 -1.112 -0.47056 -0.144598 -0 -0.777778 9.83983 0.162781 1.02482 0.267886 0.359465 0.89388
-4.34269 -10.1756 10.3532 0.501757 -0.126199 0 0.960233 9.8594 -0.382665 3.02091 0.0574804 0.76062 0.646648
-0.271 -3.04275 0.64975 -0.37428 0.262302 0.0291624 -0.711111 9.86128 0.25987 0.267989 0.384615 0.696939 -0.605266
5.789 -2.766 7.347 -0.314824 0.251009 -0.107915 -0.0888889 9.96248 0.999906 5.70679 0.725753 0.605547 0.326489
-1.30175 1.72675 13.5933 -0.0387437 -0.197631 0 0.4 9.97667 0.635166 4.33483 0.251486 0.358882 -0.898865
-5.27969 -9.23044 9.6165 0.54384 -0.186772 0 1 9.99053 -0.152386 2.61617 0.552825 0.793218 0.255323
-7.0405 -6.171 0.85725 -0.132005 -0.0501683 0.00973336 -0.850191 10.0692 -0.999867 1.56565 -0.60925 0.463412 0.643478
-6.4485 -3.06988 6.36562 0.82373 -0.299867 0.232478 -0.866667 10.083 0.999867 1.78613 0.581447 0.599726 -0.549771
2.16725 -3.2545 14.2727 -0.0208384 0.183137 -0.619423 -0.0888889 10.121 -0.966658 4.73539 0.449237 0.890676 0.069866
4.55513 -3.31725 4.62625 0.0671633 0.267042 0 -0.0888889 10.1249 -0.0338406 5.70679 0.275363 0.784037 -0.556292
-8.94312 -4.58262 4.06213 -0.560117 -0.209573 -0.0572364 -0.777778 10.1607 0.0691205 1.78613 0.560501 0.160938 -0.812366
-5.08962 -0.708 -1.25075 -0.420573 -0.0921337 0 -0.777778 10.186 -0.212369 1.19723 -0.202241 0.655467 0.727642
-7.69875 -3.17213 5.98338 0.781853 -0.227935 0.112886 -0.866667 10.1918 0.118032 1.78613 0.299425 0.616534 -0.728169
-7.47038 -4.79637 0.310625 -0.0074969 -0.0865232 0.103803 -0.00718982 10.2094 -0.545855 1.56565 -0.358296 0.193719 0.913289
-8.35437 -4.16412 4.94775 -0.453847 -0.217236 -0.475452 -0.816929 10.2102 -0.0223487 1.78613 0.570471 0.599126 -0.561793
5.7045 -3.07 5.55463 -0.45736 0.267811 -0.172694 -0.0888889 10.2411 0.573495 5.70679 0.719507 0.621293 -0.31033
-7.96863 -6.67513 3.78638 -0.661683 -0.13779 -0.306906 -0.777778 10.2585 -0.999901 1.78613 -0.299107 0.692448 -0.656544
2.9005 -3.68187 2.7575 -0.311577 0.293793 -0.0161175 -0.711111 10.3735 -0.667032 5.70679 0.500525 0.809439 -0.307056
4.131 -4.5865 8.162 -0.181636 0.34325 -0.081085 -0.963871 10.4014 -0.204549 5.44855 0.692427 -0.488939 0.53055
-1.91937 -6.21275 14.6142 0.51438 -0.175513 0.0700813 -0.50916 10.4143 -0.761247 3.54158 -0.314087 -0.892927 -0.322539
-9.01975 -6.191 4.01325 -0.53754 -0.182527 0 -0.777778 10.4385 -0.871548 1.78613 0.243692 0.223039 -0.943858
3.53444 -5.20062 8.8055 -0.491873 0.371097 -0.276743 -1 10.4437 -0.0669946 5.44855 0.903262 -0.309875 0.296809
0.17625 0.576688 15.5509 -0.020969 0.193793 0 0.4 10.4491 0.545594 4.33483 0.950339 0.299197 0.0856599
-6.27887 -7.16625 9.82987 0.573587 -0.257534 0 -0.0888889 10.4659 -0.176118 3.8646 0.968248 0.150609 -0.199533
-7.99203 -2.64528 11.2072 0.106454 -0.130354 0 -0.2 10.4933 -0.397675 4.00415 -0.0144315 0.992396 0.122235
-4.83238 -6.22475 14.045 0.203985 -0.207103 0 -0.172968 10.4982 -0.343419 3.54158 0.337459 -0.863933 -0.373821
-7.93925 -3.85125 0.11075 0.212988 -0.115413 0.0293317 0.688447 10.5894 -0.337917 1.19723 -0.00853468 0.131053 0.991339
2.12 -3.379 1.85 -0.0173511 0.28179 0 -0.711111 10.5929 0.441136 6.01493 0.473772 0.786326 -0.396523
-4.75675 0.05125 15.3105 -0.106209 -0.130716 -0.141506 0.669609 10.6057 -0.407501 4.30285 -0.547288 -0.301542 -0.780735
-5.15737 -2.20863 15.3814 -0.0770677 -0.123202 -0.423582 0.4 10.6122 -0.999859 4.00415 -0.285748 0.688131 -0.666951
-3.3405 -0.993 -2.2375 -0.62862 -0.195622 -0.839383 -0.777778 10.6241 -0.15661 1.02482 0.971253 0.231919 0.0536805
5.075 -4.83475 7.323 -0.039832 0.266378 0 -0.0888889 10.6335 0.179471 5.44855 0.483645 -0.344107 0.804784
-5.90675 -2.65587 14.3011 -0.117535 -0.13003 0 -0.2 10.6342 -0.7564 4.00415 0.000315313 0.991663 -0.12886
3.73475 -3.857 12.9416 -0.590933 0.237876 -0.122123 -0.0888889 10.6523 0.40094 4.73539 0.852845 0.491264 -0.17696
-4.18175 0.935375 14.1839 -0.0221448 -0.173101 0 0.924198 10.659 -0.18944 4.33483 -0.205217 -0.606615 -0.768052
-3.302 -11.1471 11.4605 0.51537 -0.103362 0 0.844444 10.7008 -0.374138 3.02091 -0.0613465 0.694598 0.716778
-6.10838 -7.2915 10.8197 0.50502 -0.240219 0 -0.0888889 10.7098 0.0510481 3.54158 0.978062 0.207388 -0.01962
-7.87075 -2.471 -0.24225 -0.0111764 -0.102188 -7.6934e-05 0.477402 10.7268 0.0453187 1.19723 -0.0733341 0.381608 0.921411
-0.2655 1.9445 14.1663 -0.044284 -0.20484 0 0.4 10.7457 0.999923 4.33483 0.782728 0.426397 -0.453346
4.43038 -4.26412 2.94825 -0.266973 0.254197 -0.311906 -0.402171 10.7707 0.259001 5.70679 0.492359 0.69592 -0.522761
3.376 -4.46012 11.5696 -0.191809 0.299585 0 -0.819122 10.779 -0.278033 4.73539 0.97427 0.16452 -0.154046
3.295 -5.288 10.0361 -0.0684253 0.346714 0 -1 10.8214 -0.371073 5.19596 0.995543 0.0721233 -0.0607706
-7.487 -6.942 1.53 -0.053482 -0.085235 0 -0.355556 10.8227 -0.882381 1.56565 -0.35587 0.914039 0.194652
-8.08497 -1.88934 9.36447 0.207993 -0.187935 0 -0.866667 10.8266 -0.139227 4.00415 0.524179 0.786561 0.326433
3 115 166 170
3 100 138 180
3 186 156 119
3 79 109 119
3 88 167 131
3 131 117 88
3 79 88 65
3 88 117 76
3 88 76 65
3 76 46 65
3 82 73 52
3 52 73 43
3 52 43 23
3 43 73 50
3 43 50 28
3 23 43 28
3 151 106 163
3 168 163 106
3 106 143 168
3 92 154 100
3 92 71 49
3 71 100 48
3 48 113 103
3 113 139 103
3 139 113 180
3 140 139 188
3 65 46 35
3 35 23 15
3 23 12 15
3 14 2 12
3 5 19 20
3 20 53 37
3 53 95 108
3 95 53 99
3 99 53 104
3 136 151 92
3 92 49 59
3 32 33 6
3 49 48 29
3 13 29 31
3 48 49 71
3 63 103 72
3 96 107 109
3 109 83 96
3 96 83 58
3 30 79 18
3 18 79 35
3 30 18 16
3 18 15 8
3 6 1 5
3 5 17 32
3 17 37 36
3 17 36 32
3 53 108 70
3 89 92 59
3 59 94 114
3 32 56 33
3 56 80 86
3 86 80 111
3 36 60 56
3 80 97 111
3 116 161 157
3 85 102 116
3 102 161 116
3 108 112 70
3 181 94 129
3 94 86 123
3 123 129 94
3 153 111 97
3 3 4 11
3 13 9 4
3 4 9 11
3 9 26 34
3 47 24 31
3 31 51 47
3 74 47 51
3 74 51 72
3 74 134 101
3 134 105 149
3 134 149 190
3 160 133 101
3 101 133 81
3 81 133 155
3 64 107 96
3 122 107 64
3 58 38 64
3 58 30 38
3 38 30 16
3 25 10 11
3 10 3 11
3 16 8 3
3 16 18 8
3 25 11 27
3 27 11 34
3 57 42 27
3 57 75 42
3 61 34 26
3 61 26 55
3 41 26 24
3 55 41 66
3 93 66 47
3 47 81 93
3 81 155 93
3 135 122 68
3 98 67 78
3 165 121 118
3 78 118 121
3 78 67 42
3 42 75 78
3 118 75 110
3 61 84 57
3 57 84 90
3 189 124 130
3 87 66 124
3 124 66 130
3 130 66 93
3 130 93 141
3 78 135 98
3 165 118 171
3 187 125 174
3 174 125 177
3 110 90 125
3 127 90 84
3 124 189 196
3 41 55 26
3 82 120 152
3 176 166 115
3 73 115 106
3 106 115 143
3 115 170 143
3 168 143 170
3 154 138 100
3 138 154 199
3 180 138 199
3 79 128 88
3 88 128 167
3 167 128 156
3 119 156 128
3 119 128 79
3 117 91 76
3 120 82 91
3 169 120 145
3 91 145 120
3 145 91 117
3 182 169 145
3 193 145 117
3 145 193 182
3 152 120 162
3 152 162 198
3 169 162 120
3 132 172 115
3 115 172 176
3 132 152 172
3 82 152 132
3 28 50 45
3 45 50 69
3 99 104 151
3 73 69 50
3 69 73 53
3 53 73 104
3 151 104 106
3 106 104 73
3 92 151 154
3 140 103 139
3 35 79 65
3 2 15 12
3 5 7 19
3 19 7 14
3 14 7 2
3 20 19 40
3 40 19 45
3 40 45 69
3 45 19 28
3 14 28 19
3 20 40 53
3 69 53 40
3 53 70 37
3 108 95 137
3 95 99 136
3 144 179 137
3 144 137 136
3 95 136 137
3 136 92 144
3 59 49 33
3 13 6 29
3 29 33 49
3 33 29 6
3 31 29 63
3 31 63 51
3 63 29 48
3 72 51 63
3 105 72 103
3 140 105 103
3 184 105 185
3 185 105 140
3 185 140 188
3 147 158 107
3 3 8 2
3 0 3 2
3 1 0 2
3 7 5 1
3 7 1 2
3 54 36 37
3 60 36 54
3 60 54 85
3 77 85 54
3 77 54 37
3 77 37 70
3 102 85 77
3 112 102 70
3 70 102 77
3 108 137 146
3 146 137 179
3 192 179 142
3 142 179 144
3 142 144 89
3 92 89 144
3 89 114 142
3 94 59 62
3 94 62 86
3 33 56 62
3 33 62 59
3 62 56 86
3 97 80 60
3 97 60 85
3 60 80 56
3 112 161 102
3 161 112 108
3 161 108 146
3 148 142 114
3 148 114 181
3 123 86 126
3 97 150 153
3 97 191 150
3 175 129 123
3 4 0 1
3 4 1 6
3 4 6 13
3 3 0 4
3 34 11 9
3 24 26 9
3 184 190 149
3 184 149 105
3 122 183 147
3 122 147 107
3 21 10 25
3 42 25 27
3 101 81 74
3 74 81 47
3 141 93 155
3 133 178 155
3 135 173 183
3 122 135 183
3 118 78 75
3 21 25 42
3 90 110 75
3 90 75 57
3 164 130 141
3 165 195 121
3 121 135 78
3 135 121 173
3 173 121 195
3 90 177 125
3 127 177 90
3 196 197 127
3 127 197 177
3 91 82 52
3 91 52 76
3 76 52 46
3 73 82 115
3 132 115 82
3 100 71 92
3 180 113 100
3 48 100 113
3 83 109 79
3 35 46 23
3 46 52 23
3 28 14 23
3 12 23 14
3 99 151 136
3 103 63 48
3 79 58 83
3 58 79 30
3 18 35 15
3 5 20 17
3 37 17 20
3 89 59 114
3 36 56 32
3 6 5 32
3 9 13 24
3 24 13 31
3 105 134 72
3 74 72 134
3 160 101 134
3 194 178 133
3 194 133 160
3 96 58 64
3 38 16 39
3 68 39 44
3 21 44 39
3 22 10 21
3 22 21 39
3 22 39 16
3 10 22 16
3 10 16 3
3 15 2 8
3 114 94 181
3 111 126 86
3 111 153 126
3 97 157 191
3 27 34 57
3 57 34 61
3 41 24 47
3 66 41 47
3 39 68 64
3 39 64 38
3 64 68 122
3 44 21 42
3 68 44 67
3 68 67 98
3 42 67 44
3 55 66 87
3 87 61 55
3 135 68 98
3 159 171 118
3 159 118 110
3 125 159 110
3 124 127 87
3 87 127 84
3 87 84 61
3 124 196 127
3 97 85 116
3 97 116 157
