ply
format ascii 1.0
comment Generated by PyMesh
element vertex 200
property float x
property float y
property float z
property float charge
property float ddc
property float hbond
property float hphob
property float rho
property float si
property float theta
property float nx
property float ny
property float nz
element face 344
property list uchar int vertex_indices
end_header
-9.65375 -0.18225 9.868 -0.0384657 0 0 -0.866667 1e-08 0.035881 2.22045e-16 0.944339 0.32223 0.066263
-9.96212 0.7785 9.82487 -0.0460157 -0.41782 0 -0.866667 1.00995 -0.429738 3.63442 0.984476 0.0508648 -0.167988
-9.64669 -1.105 10.3852 -0.036121 0.414482 0 -0.866667 1.05783 -0.146609 2.22045e-16 0.861516 0.199114 0.467058
-9.06 -0.9825 9.4 0.0107298 -0.365593 0 -0.866667 1.10089 0.0899438 1.10756 0.709073 0.625695 0.325148
-9.76156 0.291438 11.3061 -0.0964303 -0.492673 0 0.4 1.51794 -0.15531 4.86296 0.936059 -0.348835 -0.0459032
-10.1615 0.4705 8.58675 -0.04119 0.206144 0 -0.866667 1.52496 -0.215396 2.65038 0.911713 0.337515 -0.234228
-10.237 -1.322 11.2058 -0.214441 0.176202 -0.238289 -0.866667 2.09173 -0.926325 5.80772 0.927756 0.180387 0.326696
-9.66938 1.7765 10.3371 -0.0597057 -0.532089 0 0.4 2.16929 -0.672893 4.00672 0.732011 -0.557361 -0.391801
-9.39925 -0.69575 8.29525 0.0114345 0.43442 0 -0.866667 2.2916 0.0238771 1.81323 0.516402 0.75225 -0.409204
-9.14338 -2.21881 10.6134 0.047993 -0.29254 0 -0.866667 2.3012 -0.594547 0.173831 0.525658 0.686227 0.502768
-8.08497 -1.88934 9.36447 0.207993 -0.258537 0 -0.866667 2.43292 -0.139227 0.766081 0.524179 0.786561 0.326433
-8.26437 -1.01525 8.31125 0.0134116 -0.257419 0 -0.866667 2.44977 0.802344 1.30118 0.555904 0.831173 -0.0110874
-10.1956 -0.223 12.1319 -0.318546 -0.304743 -0.563898 -0.758511 2.58329 -0.999829 5.22619 0.948219 -0.288896 -0.131983
-10.5411 0.020375 7.60388 -0.0416343 0.409401 0 -0.866667 2.67071 0.287834 2.43953 0.449597 0.384052 -0.806453
-10.2965 1.40625 7.82575 -0.117352 0.461447 0 -0.777778 2.73862 -0.0680291 2.96561 0.562055 -0.588037 -0.581642
-8.74413 1.04475 11.6525 -0.0659547 -0.5711 0 0.4 2.83043 0.178468 4.63448 0.462599 -0.739102 -0.489623
-8.84081 0.750188 12.7536 -0.0905627 -0.385838 0 0.4 3.29374 -0.0673089 4.90335 0.626112 -0.771068 -0.115926
-9.33762 2.37037 9.08325 0.0137652 -0.534911 -0.193176 -0.777778 3.59579 -0.78017 3.6351 0.361501 -0.930176 -0.0639541
-7.99203 -2.64528 11.2072 0.106454 -0.341163 0 -0.2 3.66505 -0.397675 0.193778 -0.0144315 0.992396 0.122235
-8.25669 2.225 10.649 -0.118063 -0.556323 0 0.4 3.68393 -0.654195 4.1772 0.102 -0.921986 -0.373547
-9.42325 -2.72775 11.9522 -0.069941 -0.155951 0 -0.779522 3.76056 -0.999869 6.10238 0.61736 0.784708 -0.0556738
-10.5476 1.928 6.92238 -0.116807 0.471403 0 -0.777778 3.81163 0.595931 3.01837 -0.197212 -0.846173 -0.495074
-10.148 -1.38462 7.12813 0.016896 0.363799 0 -0.866667 3.83994 -0.219836 1.98174 0.229914 0.611414 -0.757174
-6.951 -2.5145 9.9525 0.198646 -0.257168 0 -0.2 3.85507 -0.0955885 0.567789 0.21621 0.976343 0.00262576
-11.189 -0.84225 7.053 -0.0315099 0.398305 0 -0.866667 3.88206 0.617094 2.27304 0.0537119 0.434125 -0.89925
-11.8252 -0.017625 7.72687 -0.0253071 0.441033 0 -0.866667 3.96124 -0.496865 2.50461 0.0271841 0.356959 -0.933724
-8.17025 -1.88312 7.04 0.270622 0.263669 0.232979 -0.866667 3.99189 0.677647 1.46572 0.329029 0.739171 -0.587679
-10.1517 -1.443 12.8884 -0.57693 -0.158733 -0.0908054 -0.810518 4.01948 -0.920442 5.56755 0.884903 0.208359 -0.416574
-9.43606 -0.117812 13.4581 -0.329975 -0.242088 -0.0503273 0.201144 4.11521 -0.30643 5.22505 0.804556 -0.193789 -0.561369
-7.16125 -2.234 7.76575 0.524633 -0.158098 0.104137 -0.866667 4.18176 0.213785 1.1371 0.557123 0.812604 -0.171138
-11.772 1.0155 8.0525 -0.120183 0.49708 0 -0.777813 4.28173 -0.688054 2.76191 -0.0128847 -0.133187 -0.991007
-6.351 -2.99425 8.68025 0.534287 -0.104951 0 -0.533636 4.59986 -0.0896829 0.843172 0.659098 0.746601 -0.0904267
-8.7625 2.4195 8.222 -0.157419 -0.466921 0 -0.777778 4.61927 0.0662672 3.50009 0.280303 -0.957877 -0.062466
-7.03288 1.72438 11.6827 -0.088661 -0.423564 0 -0.777778 4.67195 0.110981 4.45608 0.166318 -0.974006 -0.15379
-8.04775 1.27894 13.8454 -0.0537283 -0.308642 0 0.652107 4.74307 -0.659816 4.90266 0.402317 -0.81053 -0.425655
-8.85525 2.47675 6.7845 -0.14394 -0.317819 0 -0.777778 4.81404 0.66176 3.28547 0.496342 -0.751685 -0.434297
-7.16862 2.01875 10.3194 -0.231346 -0.521708 0 -0.777778 4.83938 0.403521 4.13163 -0.1478 -0.973047 -0.177015
-7.6435 1.70875 13.037 -0.0383143 -0.327634 0 0.173561 4.85346 -0.768098 4.75762 0.439389 -0.897843 -0.0285534
-8.909 0.4065 14.286 -0.223873 -0.23364 -0.102703 -0.210171 4.86569 -0.729122 5.10805 0.73117 -0.497013 -0.4673
-8.029 2.4285 9.085 -0.602413 -0.542192 -0.00413286 -0.777778 4.9057 -0.728005 3.80217 -0.0963041 -0.992581 -0.0742225
-5.82725 -2.50425 9.9965 0.16658 -0.231405 0 -0.2 4.97972 0.279194 0.59496 0.185066 0.85031 -0.49267
-10.4847 2.58538 5.91437 -0.144598 0.347211 0 -0.777778 5.0167 0.999835 3.06733 -0.122722 -0.723589 -0.679234
-12.2112 -1.32056 6.83494 -0.0297725 0.263331 0 -0.464164 5.0315 -0.41028 2.24842 0.212442 0.686723 -0.695183
-8.982 -2.2765 6.4235 0.0985167 0.266097 0 -0.866667 5.08448 0.225585 1.67021 0.208589 0.693139 -0.689962
-9.30481 -1.76231 13.5004 -0.51173 -0.195781 -0.615631 -0.777778 5.11205 -0.45824 5.66812 0.595097 0.508562 -0.622273
-8.49575 -2.5645 12.975 -0.0942213 -0.244263 -0.18369 -0.368789 5.1509 -0.54535 5.99682 0.186533 0.919786 -0.345252
-11.8441 3.039 6.80875 -0.203605 0.382199 0 -0.777778 5.20747 -0.129084 2.945 -0.620274 -0.445901 -0.645316
-6.187 -2.8705 7.317 0.785327 -0.0658664 0.122961 -0.866667 5.42903 0.873616 1.05148 0.76518 0.638045 -0.0860097
-12.7525 1.6205 7.86925 -0.21949 0.303112 0 -0.789078 5.44835 -0.999865 2.75257 0.455324 -0.33272 -0.825819
-13.1676 -0.608 7.422 -0.051514 0.237723 0 0.191585 5.45908 -0.999878 2.43706 0.357549 0.532034 -0.767528
-6.2165 -2.099 11.352 -0.0479317 -0.275547 0 -0.2 5.52835 0.734313 0.316921 -0.0671779 0.99727 0.0306544
-9.886 -2.553 5.83125 -0.130164 0.213625 0 -0.84122 5.60506 -0.205416 1.81196 0.231542 0.833637 -0.501436
-7.69875 -3.17213 5.98338 0.781853 0.197025 0.112886 -0.866667 5.72403 0.118032 1.41959 0.299425 0.616534 -0.728169
-11.3241 -2.33512 5.93962 -0.0451153 0.195347 0 -0.866667 5.76327 -0.709798 2.08818 0.252521 0.915196 -0.314085
-7.8825 2.953 7.627 -0.35799 -0.310797 -0.320025 -0.777778 5.80799 0.118567 3.53629 0.482397 -0.698784 -0.528199
-8.64675 -1.3 14.493 -0.307199 -0.172084 -0.805512 -0.777778 5.87351 -0.640637 5.51597 0.694924 0.166547 -0.69953
-7.07212 2.2745 8.75 -0.65835 -0.443505 0 -0.777778 5.93115 0.371183 3.76864 0.0164395 -0.918462 -0.395167
-7.47087 -2.52638 13.4104 -0.0864843 -0.202616 0 -0.2 5.93217 -0.109034 6.08085 0.181217 0.970668 -0.157999
-5.77275 1.7585 11.7533 -0.103253 -0.338042 0 -0.777778 5.93451 0.612708 4.47662 0.118718 -0.992596 -0.0256668
-6.4485 -3.06988 6.36562 0.82373 0.133373 0.232478 -0.866667 5.96139 0.999867 1.18055 0.581447 0.599726 -0.549771
-8.03256 0.0735625 15.0258 -0.074313 -0.221124 0 0.317122 6.05997 -0.424753 5.10805 0.517041 -0.337749 -0.786508
-6.464 1.99188 13.131 0.00731747 -0.317284 0 0.0184685 6.0701 -0.596023 4.75762 0.114109 -0.94543 -0.305189
-13.9104 0.437875 7.28562 -0.00133665 0.182461 -0.107561 -0.515387 6.14075 -0.886426 2.43706 0.703222 -0.0278299 -0.710425
-4.73887 -2.95038 10.0363 0.168411 -0.205567 0 -0.2 6.15666 0.440618 0.59496 0.215907 0.495566 -0.841308
-8.9555 -3.102 5.67 -0.219211 0.169102 -0.300687 -0.821164 6.20248 -0.278896 1.81196 0.401153 0.74822 -0.528435
-10.4535 3.562 5.2365 -0.40259 0.276995 -0.020679 -0.777778 6.20593 0.339339 3.06733 -0.0918272 -0.622429 -0.77727
-11.5653 3.48875 5.81225 -0.266687 0.32685 -0.304965 -0.777778 6.33575 0.449653 2.945 -0.579591 -0.556343 -0.595447
-5.72906 -2.47112 12.6509 -0.209615 -0.218565 0 -0.2 6.35497 -0.310485 0.316921 -0.0788777 0.986902 0.140719
-5.61875 -4.25737 7.6965 1 0.060155 0.473898 -0.866667 6.36038 0.429686 1.05148 0.978629 0.118664 -0.167943
-12.902 2.5225 6.736 -0.14208 0.221681 -0.151781 -0.647524 6.38697 0.302932 2.945 0.196229 0.5215 -0.83038
-8.757 3.626 5.702 -0.359417 -0.234604 -0.0132736 -0.777778 6.39588 0.402406 3.28547 0.435516 -0.646049 -0.626855
-8.06475 3.8725 6.61625 -0.538687 -0.196425 -0.346584 -0.777778 6.4269 -0.224496 3.53629 0.721615 -0.50556 -0.472948
-5.271 -4.34734 9.45378 0.429117 0.157853 0 -0.2 6.49607 0.0790899 0.843172 0.716884 -0.165769 -0.677199
-10.4152 -2.56775 4.9595 -0.10965 -0.128249 -0.00293626 -0.85504 6.62497 -0.197551 1.81196 0.427255 0.881527 0.200905
-12.9301 -1.75412 5.27763 0.055192 0.131405 0 0.844444 6.80068 -0.491279 2.24842 0.392603 0.909855 -0.134266
-11.8689 4.45662 6.01137 -0.555843 0.308617 -0.669681 -0.777778 6.83415 0.190311 2.945 -0.97975 -0.146072 -0.136939
-5.243 2.07262 9.748 -0.325034 -0.30796 0 -0.777778 6.84871 0.477433 4.13163 0.239633 -0.959016 -0.151212
-7.07575 3.65275 7.62 -0.740467 -0.25813 -0.904836 -0.777778 6.87595 0.119565 3.53629 0.364177 -0.385337 -0.847874
-4.76137 2.07962 11.2802 -0.115962 -0.229975 0 -0.777778 7.00603 0.343031 4.47662 0.554042 -0.813106 -0.178594
-6.0835 2.4585 8.3595 -0.411577 -0.34843 0 -0.777778 7.00991 0.629984 3.76864 0.00776644 -0.751767 -0.659383
-7.06962 -2.47638 14.4404 -0.0257032 -0.156145 0.0962312 -0.376944 7.0387 -0.731081 6.08085 0.328211 0.848099 -0.415938
-14.1081 -0.705312 6.13575 -0.0413883 0.0993023 0 0.844444 7.05547 -0.618693 2.43706 0.681977 0.608786 -0.405324
-11.926 -2.06175 4.8235 0.08382 -0.15715 0 0.844444 7.06047 -0.421432 2.08818 0.214942 0.911725 0.350082
-9.9465 4.2475 4.6095 -0.413987 0.214856 0 -0.777778 7.26427 0.720842 3.06733 0.189179 -0.524338 -0.83023
-5.53575 1.5295 13.741 -0.000628653 -0.289285 0 0.933333 7.27324 -0.198105 4.75762 -0.121869 -0.773495 -0.621975
-7.49125 -1.47625 15.2793 0.247017 -0.150762 0.704737 -0.777778 7.28223 -0.569798 5.51597 0.469884 0.554722 -0.686653
-12.064 5.0585 7.27075 -0.250833 0.29873 -0.213023 -0.777778 7.29078 0.274147 2.945 -0.952995 0.260046 -0.155489
-3.648 -2.5685 10.791 0.102482 -0.173621 0 -0.2 7.30017 0.243116 0.59496 0.0512143 0.888126 -0.456737
-8.35437 -4.16412 4.94775 -0.453847 0.117018 -0.475452 -0.816929 7.30087 -0.0223487 1.41959 0.570471 0.599126 -0.561793
-3.67 -3.37725 10.0363 0.238417 -0.201701 0 -0.2 7.30762 0.259178 0.59496 0.0528347 0.22804 -0.972217
-8.35363 4.39925 5.14475 -0.531723 0.178865 0 -0.777778 7.43085 0.851259 3.28547 0.553966 -0.450632 -0.700037
-12.7896 3.62538 8.75081 -0.293787 0.341365 0 -0.777778 7.44564 -0.241884 2.945 -0.765524 0.594507 -0.246039
-6.624 -4.5115 5.5635 0.468287 0.117168 0 -0.866667 7.49188 0.1465 1.18055 0.517749 0.639978 -0.567772
-4.69075 -2.53175 13.1115 -0.183255 -0.21804 0 -0.2 7.49247 -0.383292 0.316921 -0.350228 0.931539 -0.0978508
-13.8658 1.50719 6.11602 -0.169738 0.176125 -0.703426 -0.0888889 7.52827 0.499377 2.75257 0.630547 -0.151743 -0.761173
-6.8605 -0.341 15.9435 0.0436187 -0.186464 0.47085 -0.777778 7.60521 -0.759795 5.10805 0.396037 -0.188333 -0.898713
-4.70913 2.10713 12.9949 -0.0695653 -0.243902 0 0.112684 7.60616 -0.234144 4.47662 0.223145 -0.9024 -0.368619
-11.603 4.374 4.8655 -0.544517 0.27304 -0.294271 -0.777778 7.63245 0.623084 2.945 -0.684768 -0.45324 -0.570672
-7.5915 -4.8935 5.11925 -0.00991547 0.133791 0.514298 -0.866667 7.65311 -0.813618 1.41959 0.355514 0.720587 -0.595285
-5.90675 -2.65587 14.3011 -0.117535 -0.177041 0 -0.2 7.73677 -0.7564 6.08085 0.000315313 0.991663 -0.12886
-6.381 0.66075 15.2494 0.00722077 -0.259429 0 0.933333 7.82701 -0.597313 5.10805 -0.00666402 -0.786907 -0.617035
-5.79563 -5.69025 7.32412 0.66977 0.0580345 0.297821 -0.863844 7.85139 0.225146 1.05148 0.957859 0.0303151 0.285636
-10.6316 4.90987 4.26475 -0.710273 0.214332 0 -0.777778 7.87709 0.999848 3.06733 -0.153342 -0.327044 -0.932485
-14.5444 0.792437 5.67956 -0.376103 0.132385 0 -0.0888889 7.90344 -0.0231478 2.43706 0.686624 0.134 -0.714557
-6.316 4.25462 7.96925 -0.486033 -0.194241 -0.309796 -0.777778 7.90621 -0.437401 3.53629 0.432233 0.0561925 -0.900009
-14.443 2.761 6.594 -0.38545 0.155969 -0.219677 -0.0888889 7.95277 0.181744 2.945 0.215701 0.836854 -0.503138
-13.8581 -1.44 4.66538 0.100743 0.106394 0 0.844444 7.95598 -0.668488 2.24842 0.426011 0.902856 -0.0580203
-7.23431 5.14437 6.95969 -0.428093 -0.14257 -0.71813 -0.709978 7.98422 -0.250998 3.53629 0.767064 -0.239082 -0.595359
-5.0945 2.38025 8.52125 -0.57556 -0.276393 -0.0940975 -0.777778 8.0151 0.999876 3.76864 0.251057 -0.772446 -0.583351
-9.5915 -3.258 3.9775 -0.310933 0.0522193 -0.124325 -0.777778 8.01725 0.126382 1.81196 0.845598 0.469669 -0.25372
-6.2445 -5.67425 8.35825 0.839817 0.106545 0.48189 -0.866667 8.04473 -0.593974 1.05148 0.940384 -0.316391 0.124801
-12.8094 -1.55587 3.96275 0.584057 0.158645 0 0.0253213 8.13589 -0.393132 2.08818 0.0341578 0.890859 0.452993
-10.2933 -1.5525 3.79225 0.2774 -0.0801682 0.732195 -0.866667 8.17676 0.441177 1.81196 0.67929 0.548711 0.487321
-12.039 5.279 4.954 -0.595307 0.243482 -0.547507 -0.777778 8.18443 0.999918 2.945 -0.827558 0.0859997 -0.554754
-6.17556 -5.75075 9.81419 0.51025 0.131072 0 -0.0888889 8.20419 -0.485206 0.843172 0.879245 -0.409227 -0.243849
-11.3206 -1.394 4.09538 0.428673 -0.176005 0.301046 -0.866667 8.21916 0.406092 2.08818 0.0982185 0.706631 0.700733
-4.765 -2.518 14.248 -0.200502 -0.201813 0 -0.2 8.22107 -0.84256 6.08085 -0.364464 0.919285 -0.148599
-7.404 5.35675 5.69225 -0.672713 0.0985616 0 -0.777778 8.29595 0.945768 3.53629 0.866794 -0.042413 -0.49686
-9.3315 5.115 4.558 -0.495773 0.161925 -0.00951552 -0.777778 8.3289 0.356181 3.06733 0.245796 0.272585 -0.930205
-5.345 0.7695 14.552 -0.0206934 -0.271783 0 0.933333 8.40094 0.669516 4.75762 -0.203801 -0.759961 -0.617191
-11.782 6.02275 5.83525 -0.639807 0.220021 -0.0828157 -0.777778 8.41254 0.675799 2.945 -0.750238 0.660008 -0.0391494
-3.47725 -2.18625 11.8475 0.0116938 -0.210647 0 -0.2 8.4366 -0.07272 0.59496 -0.3464 0.841313 -0.414969
-4.11125 3.07125 10.2505 -0.46734 -0.104235 -0.675989 -0.700584 8.43951 0.336372 4.47662 0.957848 -0.280915 0.0601128
-8.94312 -4.58262 4.06213 -0.560117 0.134471 -0.0572364 -0.777778 8.44371 0.0691205 1.41959 0.560501 0.160938 -0.812366
-13.8701 2.99756 8.51681 -0.193334 0.226577 0 -0.0888889 8.46884 -0.262751 2.945 -0.142611 0.977424 -0.155899
-5.118 3.48338 7.91625 -0.76351 -0.199756 -0.83427 -0.777778 8.48607 0.703956 3.76864 0.3476 -0.00663432 -0.937619
-6.111 -5.624 6.089 0.57352 0.0238776 0.517632 -0.801127 8.52696 -0.586464 1.18055 0.902457 0.418943 -0.100291
-3.975 2.80675 8.89725 -0.39338 -0.165143 -0.127209 -0.777778 8.54298 0.999908 3.76864 0.737058 -0.577521 -0.351019
-2.55194 -2.87169 10.2829 0.0562423 -0.204347 -0.338533 -0.154071 8.54574 -0.147396 0.59496 -0.412992 0.578452 -0.703442
-4.92338 -5.55363 11.0901 0.315841 0.186287 0 -0.2 8.55848 0.080399 0.843172 0.467586 -0.821285 -0.326885
-11.2725 6.02675 6.95225 -0.402317 0.229535 0 -0.777778 8.58129 -0.0883652 2.945 -0.651179 0.756352 -0.0624358
-8.154 5.62925 4.9585 -0.6357 0.131977 -0.589474 -0.777778 8.69079 0.773757 3.28547 0.487731 0.237295 -0.840124
-7.58725 -5.17525 4.094 -0.0551233 0.167132 0.672859 -1 8.71638 0.185181 1.41959 -0.109349 0.717811 -0.687598
-6.183 -5.011 4.536 0.226191 -0.104227 0.967173 -1 8.71652 0.0722563 1.18055 0.30348 0.907268 0.291145
-3.53912 2.96525 12.1566 -0.429103 -0.147324 -0.08843 0.764851 8.7514 0.402783 4.47662 0.718337 -0.495399 -0.488439
-5.719 -0.127 16.1567 -0.0384123 -0.223299 0 0.798507 8.786 -0.999911 5.10805 -0.158741 -0.406461 -0.899773
-4.18175 0.935375 14.1839 -0.0221448 -0.243962 0 0.924198 8.81676 -0.18944 4.47662 -0.205217 -0.606615 -0.768052
-14.7852 -0.784187 4.49475 0.00400147 0.108017 0 0.844444 8.83242 0.0403944 2.43706 0.464565 0.736913 -0.491058
-3.67925 -5.23994 10.9784 0.37313 0.213581 0 -0.2 8.87407 -0.054301 0.843172 -0.0577555 -0.859388 -0.508052
-12.3279 5.34275 8.80737 -0.160305 0.300961 0 -0.777778 8.8756 0.255709 2.945 -0.942109 0.304513 -0.140363
-10.645 5.9255 4.375 -0.724443 0.157069 -0.811839 -0.777778 8.89877 0.999881 3.06733 -0.0344231 0.632272 -0.773982
-12.2979 4.56763 9.75062 -0.034719 0.339151 0 -0.777778 8.90483 -0.609261 2.945 -0.921539 0.38484 -0.0516091
-3.42144 2.20444 13.4284 -0.243935 -0.184728 -0.116342 0.9093 8.96834 -0.172714 4.47662 0.306256 -0.504535 -0.80725
-4.036 3.906 11.0367 -0.250796 -0.0837502 -0.968542 0.866969 8.98621 0.119188 4.47662 0.922986 0.0195298 -0.384338
-5.79569 -1.33506 16.1006 -0.0309629 -0.197418 0 0.4 9.07035 -0.999871 5.51597 -0.124208 0.290816 -0.948682
-5.429 4.95425 8.40075 -0.562883 -0.154874 -0.0550604 -0.437804 9.11553 -0.0837108 3.53629 0.475472 0.186093 -0.859823
-5.15737 -2.20863 15.3814 -0.0770677 -0.195469 -0.423582 0.4 9.12553 -0.999859 6.08085 -0.285748 0.688131 -0.666951
-15.492 0.30625 4.979 -0.11645 0.147785 -0.107947 0.207219 9.17824 -0.164592 2.43706 0.289495 0.420678 -0.859781
-2.61469 -4.94441 9.86416 0.323553 -0.225848 0 -0.0888889 9.2048 0.0684234 0.59496 -0.775368 -0.219062 -0.592297
-6.22325 -6.96025 7.58225 0.517227 0.0729265 0 -0.777778 9.21608 -0.999844 1.05148 0.827747 0.0783912 0.555599
-3.69738 -1.33834 13.9881 0.059151 -0.238163 0.407209 0.4 9.27557 -0.414425 0.316921 -0.730711 0.470451 -0.494709
-15.1858 2.894 7.7125 -0.210843 0.16672 0 -0.0888889 9.30202 -0.0658839 2.945 -0.00947681 0.999775 -0.0189785
-13.6785 3.17697 10.3589 -0.170747 0.28169 0 0.4 9.33698 -0.598024 2.945 -0.451069 0.856867 -0.249629
-7.367 6.4385 6.487 -0.3572 0.11197 0 -0.355556 9.36835 0.148679 3.53629 0.623885 0.266605 -0.734635
-10.0621 -2.179 2.79284 0.659237 0.0397811 0 -0.866667 9.37875 -0.0770625 1.81196 0.993385 0.114721 0.00508027
-3.15875 -1.42963 12.8542 0.0612547 -0.217148 0.542764 0.4 9.39717 0.166984 0.316921 -0.499533 0.666475 -0.553423
-14.9157 2.36625 5.18775 -0.398783 0.135097 -0.578594 -0.0888889 9.48796 0.999927 2.945 0.411699 0.439075 -0.798572
-14.0004 -1.2465 3.14462 0.222393 0.157711 0.329181 -0.0603 9.49559 0.140179 2.08818 -0.201598 0.97649 -0.0763313
-10.2015 -0.57325 2.828 0.422387 -0.034121 0.39001 -0.866667 9.55413 0.999895 1.81196 0.802382 0.564311 0.194259
-4.75675 0.05125 15.3105 -0.106209 -0.250166 -0.141506 0.669609 9.56293 -0.407501 5.10805 -0.547288 -0.301542 -0.780735
-6.27887 -7.16625 9.82987 0.573587 0.0473832 0 -0.0888889 9.62355 -0.176118 0.843172 0.968248 0.150609 -0.199533
-16.0572 3.09856 6.26538 -0.171421 0.113193 0 -0.0888889 9.63431 0.461206 2.945 0.249499 0.951271 -0.181198
-3.84325 3.8935 8.8005 -0.580343 -0.0550573 -0.0671802 -0.777778 9.64196 0.999899 3.76864 0.93407 0.220152 -0.281153
-10.0218 -4.13219 2.61144 0.0095534 0.0753958 0 -0.866667 9.69519 0.0786728 1.81196 0.962657 -0.158563 -0.21943
-5.69325 5.91012 8.27106 -0.0838067 -0.134105 0 -0.355556 9.70053 -0.401032 3.53629 0.664743 -0.134648 -0.734838
-10.7517 6.57113 5.28162 -0.86777 0.151481 -0.444705 -0.777778 9.70434 0.714546 2.945 -0.134944 0.945994 -0.294764
-11.2399 6.44119 8.00706 -0.265659 0.23739 -0.193671 -0.355556 9.71507 -0.183723 2.945 -0.640372 0.571702 -0.512914
-8.1755 6.5375 5.8575 -0.752853 0.134265 -0.522422 -0.777778 9.71606 0.561442 3.53629 0.223966 0.704156 -0.673798
-2.33325 -1.6125 12.1005 0.0651217 -0.179182 0.0357752 -0.134356 9.74118 -0.221343 0.59496 -0.27871 0.82363 -0.493918
-11.7758 -0.279312 3.14 0.854883 -0.158075 0 -0.866667 9.7562 0.999845 2.08818 -0.00178891 0.88621 0.46328
-12.7701 4.45734 10.9467 -0.44154 0.293876 -0.48994 0.4 9.79393 -0.519931 2.945 -0.67112 0.633468 -0.385118
-6.60156 -7.33588 8.79594 0.630253 0.0388057 0 -0.256651 9.79974 -0.999867 1.05148 0.994857 0.0992303 0.0203263
-16.1251 1.68275 5.02975 -0.269491 0.141737 -0.691391 -0.0888889 9.83049 0.151968 2.43706 0.234927 0.412359 -0.88021
-1.991 -1.967 11.037 -0.109312 -0.188024 0 -0.2 9.85027 0.0152856 0.59496 -0.456314 0.833743 -0.310886
-5.308 -5.77575 12.31 0.303794 0.195901 0 -0.2 9.85672 -0.624294 0.843172 0.323934 -0.933786 -0.152023
-4.69228 -7.21006 6.58134 0.7131 -0.0849019 0.096704 -0.777778 9.87102 -0.0381626 1.05148 0.412367 0.69768 0.585829
-6.276 6.75625 7.29 -0.0832723 -0.126716 0 -0.355556 9.88832 0.424057 3.53629 0.643872 -0.169955 -0.746019
-5.116 -5.535 4.308 0.53344 -0.120448 0.132085 -1 9.92691 -0.573461 1.18055 0.188106 0.463336 0.865988
-1.62925 -2.0845 9.506 -0.3736 -0.204352 -0.239979 -0.0888889 9.98609 0.693731 0.59496 -0.672234 0.587866 -0.450016
-4.20325 4.8255 11.4265 -0.220652 -0.0567849 -0.405314 0.0119865 9.99883 -0.206258 4.47662 0.840367 0.417559 -0.345583
-10.0577 6.56725 6.45975 -0.561 0.174323 0 -0.777778 9.99919 -0.126621 2.945 -0.210526 0.902033 -0.376849
-7.01625 -5.99675 3.2625 0.0142378 0.192253 -0.13483 -0.961342 10.0173 -0.678956 1.41959 -0.752426 0.433991 -0.495487
-9.01975 -6.191 4.01325 -0.53754 0.146646 0 -0.777778 10.0547 -0.871548 1.41959 0.243692 0.223039 -0.943858
-10.316 -5.06875 3.35775 -0.325391 0.127331 0 -0.809818 10.0615 -0.68097 1.41959 0.673115 -0.274309 -0.686783
-15.2448 -1.23069 3.41056 0.048606 0.131389 0 0.844444 10.0918 -0.038896 2.43706 0.0852382 0.833163 -0.546419
-16.0082 -0.4055 4.35575 -0.0124302 0.134069 0 0.844444 10.1202 -0.127104 2.43706 0.172664 0.668476 -0.723414
-4.4855 4.7605 10.415 -0.342483 -0.027773 -0.01597 -0.777778 10.1346 -0.396687 4.47662 0.953016 0.288411 -0.0926233
-2.90569 0.68025 13.7451 0.049932 -0.20702 0 0.4 10.1901 0.0684272 4.47662 -0.312653 0.115108 -0.942867
-3.83075 -0.304 14.6757 -0.026281 -0.239253 -0.0434052 0.446411 10.1956 -0.560929 4.47662 -0.607594 -0.0369576 -0.793388
-4.487 4.90325 9.013 -0.565527 -0.0722877 0 -0.492269 10.2402 0.272477 3.53629 0.825406 0.350902 -0.442236
-7.96863 -6.67513 3.78638 -0.661683 0.160443 -0.306906 -0.777778 10.2943 -0.999901 1.41959 -0.299107 0.692448 -0.656544
-6.14825 -6.61194 11.79 0.412833 0.100964 0 -0.120257 10.322 -0.444363 0.843172 0.929507 -0.355159 -0.0993885
-2.55225 3.71012 13.1695 -0.505203 -0.0596684 -0.724129 0.933333 10.3497 0.504424 4.47662 0.925513 0.107021 -0.36328
-15.4395 2.9975 9.6085 -0.070256 0.193607 0 -0.0888889 10.3806 0.494399 2.945 -0.220153 0.972298 0.0785505
-3.25887 4.56738 12.2809 -0.43913 -0.0640022 -0.328631 0.933333 10.3826 0.662804 4.47662 0.800686 0.402702 -0.443545
-8.00813 7.16913 6.77863 -0.261378 0.150731 0 -0.40282 10.3832 -0.257784 3.53629 0.0891756 0.582075 -0.80823
-12.2732 6.7865 9.30125 -0.52438 0.251038 -0.541137 -0.355556 10.4025 0.910872 2.945 -0.920716 0.281233 -0.270537
-2.06519 2.4575 13.891 -0.0912767 -0.093789 0 0.4 10.4235 0.0798758 4.47662 0.582739 0.418386 -0.696684
-4.75725 -4.3725 3.745 0.240903 -0.160278 0 -1 10.4676 0.137715 1.18055 -0.31198 0.546455 0.77721
-6.109 -8.09013 8.2005 0.609747 -0.0522141 0.0100599 -0.777778 10.5091 -0.999782 1.05148 0.704026 0.548252 0.451407
3 137 157 184
3 157 137 106
3 103 137 147
3 137 184 185
3 137 185 147
3 103 147 172
3 24 42 25
3 105 151 124
3 86 91 139
3 139 91 141
3 91 170 141
3 154 112 109
3 109 112 73
3 73 64 109
3 22 13 8
3 22 8 26
3 26 8 11
3 49 42 81
3 41 66 65
3 66 75 97
3 66 46 75
3 75 86 120
3 139 130 86
3 130 120 86
3 166 139 196
3 123 163 109
3 132 123 88
3 88 64 52
3 64 51 43
3 52 43 26
3 43 22 26
3 26 11 29
3 26 29 52
3 11 10 29
3 40 23 18
3 3 10 11
3 2 3 0
3 3 11 8
3 0 3 5
3 8 5 3
3 5 8 13
3 35 32 14
3 35 54 32
3 39 32 56
3 54 56 32
3 56 54 77
3 35 14 21
3 35 41 70
3 70 41 65
3 70 90 71
3 90 118 131
3 140 118 102
3 118 83 102
3 83 65 102
3 102 65 66
3 118 140 180
3 165 180 140
3 180 167 118
3 165 120 180
3 198 133 177
3 68 92 59
3 52 59 92
3 92 98 52
3 68 59 47
3 47 29 31
3 72 31 40
3 72 63 89
3 63 40 87
3 87 50 93
3 50 67 93
3 67 50 18
3 116 67 99
3 18 45 57
3 2 0 4
3 1 4 0
3 39 56 36
3 56 77 79
3 79 77 125
3 77 104 125
3 107 77 71
3 117 153 107
3 153 176 107
3 167 153 117
3 153 167 195
3 175 149 199
3 149 175 101
3 101 175 126
3 110 68 72
3 72 89 138
3 89 87 128
3 178 128 173
3 87 89 63
3 121 93 155
3 159 146 144
3 57 80 99
3 95 85 60
3 95 60 100
3 55 44 28
3 60 34 61
3 16 15 33
3 33 15 19
3 33 19 36
3 36 76 33
3 33 76 78
3 79 108 76
3 108 79 125
3 78 76 122
3 122 186 143
3 194 134 143
3 189 125 145
3 134 142 96
3 134 96 78
3 142 197 187
3 134 192 142
3 142 192 197
3 129 72 138
3 187 150 188
3 187 188 136
3 96 136 84
3 96 84 61
3 78 96 58
3 61 58 96
3 61 84 100
3 119 100 84
3 58 61 33
3 111 169 157
3 111 157 106
3 111 106 74
3 81 74 106
3 81 106 137
3 103 81 137
3 151 105 161
3 193 124 151
3 170 91 152
3 152 124 193
3 124 152 91
3 115 111 82
3 82 111 74
3 111 115 169
3 42 74 81
3 49 62 25
3 62 103 94
3 103 62 81
3 81 62 49
3 94 48 62
3 62 48 25
3 46 48 69
3 69 48 94
3 124 69 105
3 46 91 86
3 124 91 69
3 69 91 46
3 163 154 109
3 73 51 64
3 22 53 42
3 22 42 24
3 115 82 73
3 115 73 112
3 73 53 51
3 51 53 22
3 73 82 53
3 42 53 74
3 74 53 82
3 5 13 14
3 25 14 13
3 14 46 21
3 48 46 30
3 14 30 46
3 30 14 25
3 48 30 25
3 42 49 25
3 75 46 86
3 166 130 139
3 180 120 130
3 180 130 166
3 123 182 183
3 123 183 163
3 182 123 132
3 133 132 92
3 92 132 98
3 132 88 98
3 52 98 88
3 52 64 43
3 31 23 40
3 23 31 10
3 29 10 31
3 18 23 10
3 9 18 10
3 9 3 2
3 9 10 3
3 0 5 1
3 1 5 14
3 1 14 7
3 7 14 17
3 39 17 32
3 32 17 14
3 77 54 71
3 35 71 54
3 70 71 35
3 181 190 132
3 132 190 182
3 101 126 68
3 175 133 126
3 68 126 92
3 92 126 133
3 72 68 31
3 31 68 47
3 116 93 67
3 55 85 44
3 44 85 45
3 85 57 45
3 57 85 80
3 6 9 2
3 12 4 16
3 4 12 6
3 4 6 2
3 15 16 4
3 4 1 7
3 4 7 15
3 7 17 19
3 19 17 39
3 7 19 15
3 36 19 39
3 125 104 145
3 145 104 164
3 164 104 107
3 164 107 176
3 107 104 77
3 199 149 171
3 149 101 110
3 114 160 171
3 114 171 110
3 149 110 171
3 110 72 114
3 138 89 148
3 128 148 89
3 173 128 121
3 173 121 168
3 121 128 87
3 155 168 121
3 150 155 93
3 116 150 93
3 159 150 146
3 146 150 116
3 146 116 99
3 144 146 85
3 146 80 85
3 99 80 146
3 159 135 100
3 95 135 144
3 159 144 135
3 119 159 100
3 95 144 85
3 95 100 135
3 60 85 55
3 34 60 38
3 34 38 16
3 16 38 28
3 28 38 60
3 28 60 55
3 27 12 28
3 27 28 44
3 28 12 16
3 6 12 20
3 9 6 20
3 12 27 20
3 9 20 18
3 18 20 45
3 45 20 44
3 27 44 20
3 37 34 16
3 61 34 37
3 61 37 33
3 33 37 16
3 134 78 143
3 143 78 122
3 179 194 143
3 186 179 143
3 191 160 114
3 191 114 129
3 72 129 114
3 129 174 191
3 159 119 136
3 159 136 188
3 159 188 150
3 142 187 136
3 136 96 142
3 156 105 103
3 156 103 172
3 172 105 156
3 172 161 105
3 154 158 112
3 169 112 158
3 169 115 112
3 13 24 25
3 24 13 22
3 66 41 46
3 46 41 21
3 88 109 64
3 88 123 109
3 51 22 43
3 41 35 21
3 83 118 90
3 65 83 70
3 90 70 83
3 120 165 140
3 102 97 113
3 140 102 113
3 120 140 113
3 120 113 75
3 102 66 97
3 97 75 113
3 59 52 29
3 59 29 47
3 40 63 72
3 18 50 40
3 87 40 50
3 67 18 57
3 117 90 131
3 131 167 117
3 71 117 107
3 71 90 117
3 131 118 167
3 101 68 110
3 93 121 87
3 57 99 67
3 56 79 76
3 36 56 76
3 127 108 125
3 162 127 125
3 162 125 189
3 162 189 186
3 122 162 186
3 122 127 162
3 76 127 122
3 127 76 108
3 194 192 134
3 129 138 174
3 150 187 155
3 119 84 136
3 61 100 60
3 58 33 78
3 105 69 94
3 105 94 103
