ply
format ascii 1.0
comment Generated by PyMesh
element vertex 91
property float x
property float y
property float z
property float nx
property float ny
property float nz
element face 168
property list uchar int vertex_indices
end_header
-2.68175 -10.0616 18.0147 -0.147886 -0.169386 -0.974391
-1.69675 -10.2355 17.6903 -0.451623 0.102526 -0.886298
-3.79075 -10.2222 18.0065 0.409482 -0.0532152 -0.910765
-2.77225 -11.4105 17.805 -0.18764 0.469214 -0.862919
-3.23534 -8.48941 17.304 0.0843109 -0.374124 -0.923538
-1.70119 -8.70938 17.1994 -0.367204 -0.522871 -0.769264
-3.862 -11.6217 17.6195 0.410813 0.59085 -0.694355
-3.116 -12.246 16.7978 0.255258 0.896528 -0.36205
-4.66625 -11.0845 16.892 0.873862 0.373752 -0.310925
-4.30062 -7.94225 17.1379 0.324397 -0.263037 -0.908613
-4.86794 -9.33075 16.6371 0.851016 0.0549026 -0.522261
-1.40675 -8.23525 16.089 -0.400395 -0.658658 -0.637066
-0.464 -8.9755 16.604 -0.386586 -0.387961 -0.836683
-1.62603 -12.0646 16.4171 -0.241147 0.799142 -0.550654
-0.125625 -11.4201 16.4508 -0.505807 0.513905 -0.692864
-2.83406 -7.02481 16.3614 -0.213924 -0.73017 -0.648913
-3.354 -12.5258 15.707 0.334248 0.942454 0.00765007
-4.7185 -11.2759 15.6766 0.793706 0.608294 -0.00312074
-5.04875 -7.88225 16.3645 0.850945 -0.254382 -0.459545
-4.4885 -6.99975 16.5465 0.437605 -0.720127 -0.538441
-1.08025 -12.5326 15.4539 -0.267539 0.945742 -0.184376
-1.30838 -7.12044 15.2753 -0.452784 -0.683757 -0.572243
0.859375 -9.032 16.0446 -0.710914 -0.271388 -0.648807
0.578125 -10.3691 16.4349 -0.656737 0.0802966 -0.749832
-2.44412 -12.6461 15.2684 0.108394 0.994106 0.00173444
-4.8805 -10.495 14.9487 0.932964 0.341581 -0.11358
0.717875 -8.19975 15.5052 -0.62321 -0.649262 -0.435968
-5.26237 -9.369 14.8328 0.932581 0.232313 -0.276268
0.243813 -11.8969 14.8194 -0.612517 0.78779 -0.0648907
-3.731 -6.37675 15.2506 0.146035 -0.903592 -0.402736
1.146 -10.677 15.4235 -0.849498 0.391589 -0.353568
-4.87 -7.05025 15.4299 0.602014 -0.722362 -0.340253
-4.07681 -11.5229 14.4209 0.611204 0.778348 0.143542
-2.7135 -12.04 14.0715 0.366581 0.883477 0.291696
-0.731875 -12.3286 14.3022 -0.356289 0.916199 0.183404
-1.91937 -6.21275 14.6142 -0.314087 -0.892927 -0.322539
1.30375 -9.7405 15.091 -0.953067 -0.0709761 -0.294322
-5.70131 -7.94219 14.2342 0.924738 -0.100025 -0.367226
-5.41463 -10.342 13.8094 0.814785 0.508942 -0.277674
0.35525 -11.5347 13.7522 -0.562823 0.806709 0.18014
-1.66 -12.3445 13.6494 0.0749592 0.965726 0.248506
0.031 -7.35913 13.8882 -0.612271 -0.790601 0.00867966
1.367 -8.79813 14.2028 -0.938835 -0.300511 -0.168172
-3.58612 -11.5753 13.3752 0.367699 0.920854 0.129709
1.3825 -10.685 14.0083 -0.884948 0.461274 -0.0639818
-0.595 -12.0105 13.363 -0.371538 0.892576 0.255475
-4.83238 -6.22475 14.045 0.337459 -0.863933 -0.373821
-4.754 -10.953 13.301 0.543967 0.839005 -0.01308
-1.52013 -6.21325 13.1946 -0.53448 -0.837967 0.110193
-2.78744 -5.99862 13.4154 -0.0566234 -0.97951 -0.193273
-6.0635 -9.55275 13.222 0.961183 0.228341 -0.154877
-6.14838 -8.3445 12.8004 0.998638 0.0306221 -0.0422442
1.14525 -8.562 12.9073 -0.669011 -0.647723 0.364526
0.863875 -10.9526 12.4683 -0.584743 0.680737 0.441217
-0.359 -11.5591 12.3024 -0.345776 0.698796 0.626197
-5.65947 -10.4865 12.0315 0.739189 0.670298 0.0655765
1.891 -9.97425 13.0087 -0.975146 0.0577273 0.213912
-1.37625 -11.8694 12.1976 -0.0962332 0.842831 0.529505
-5.725 -6.1115 13.164 0.778413 -0.53643 -0.326062
-2.527 -11.704 12.3365 0.176489 0.927301 0.330096
-0.950875 -7.54581 12.4346 -0.632297 -0.545991 0.549632
-2.68963 -5.70463 12.3524 -0.260663 -0.948494 -0.180039
-1.7585 -6.495 11.9974 -0.875271 -0.44215 0.195971
-4.3105 -11.2565 11.5763 0.336622 0.872277 0.354709
-5.308 -5.77575 12.31 0.323934 -0.933786 -0.152023
-0.02625 -10.5835 11.7972 -0.321326 0.311059 0.894423
1.0125 -9.58212 11.8576 -0.547629 -0.0482876 0.835327
-5.6675 -9.7635 11.0267 0.829797 0.432144 0.353113
-3.302 -11.1471 11.4605 -0.0613465 0.694598 0.716778
-6.14825 -6.61194 11.79 0.929507 -0.355159 -0.0993885
-1.33125 -10.4866 11.3071 -0.287108 0.373615 0.882032
-2.011 -5.875 11.0615 -0.733903 -0.671001 -0.105567
-1.463 -8.376 11.3333 -0.806276 -0.255371 0.533577
-6.10838 -7.2915 10.8197 0.978062 0.207388 -0.01962
-0.571625 -9.07475 11.6154 -0.446835 -0.276825 0.850709
-5.77 -8.44 10.563 0.951713 0.306736 0.0124313
-4.92338 -5.55363 11.0901 0.467586 -0.821285 -0.326885
-3.67925 -5.23994 10.9784 -0.0577555 -0.859388 -0.508052
-4.34269 -10.1756 10.3532 0.0574804 0.76062 0.646648
-1.90625 -6.818 10.2917 -0.962724 -0.18519 0.197148
-1.71375 -7.84975 10.351 -0.959066 -0.0283712 0.281756
-5.27969 -9.23044 9.6165 0.552825 0.793218 0.255323
-6.27887 -7.16625 9.82987 0.968248 0.150609 -0.199533
-1.88644 -9.22363 10.6494 -0.616614 0.425512 0.662365
-6.14975 -8.38775 9.2365 0.864514 0.496605 -0.0774548
-2.61469 -4.94441 9.86416 -0.775368 -0.219062 -0.592297
-3.57711 -9.55381 9.77205 -0.197054 0.922204 0.33273
-2.13225 -8.094 9.39625 -0.947777 0.184363 0.260248
-6.17556 -5.75075 9.81419 0.879245 -0.409227 -0.243849
-2.309 -6.189 8.945 -0.990824 0.123307 -0.0553434
-6.60156 -7.33588 8.79594 0.994857 0.0992303 0.0203263
3 77 61 64
3 89 79 85
3 79 80 62
3 62 80 72
3 80 83 72
3 86 81 78
3 82 75 84
3 81 75 67
3 67 78 81
3 73 51 75
3 67 75 51
3 46 61 49
3 61 62 48
3 48 49 61
3 41 60 52
3 74 52 60
3 65 74 70
3 74 72 83
3 67 50 55
3 51 37 50
3 46 49 29
3 29 49 35
3 35 21 15
3 15 29 35
3 15 11 5
3 4 15 5
3 5 11 12
3 44 53 39
3 57 70 68
3 57 68 59
3 40 59 43
3 43 63 47
3 43 32 33
3 25 32 38
3 47 38 32
3 38 37 27
3 37 31 18
3 37 46 31
3 29 31 46
3 37 18 10
3 37 10 27
3 2 4 0
3 1 12 14
3 1 14 13
3 42 44 36
3 34 28 39
3 34 39 45
3 17 32 25
3 25 10 8
3 88 82 90
3 84 90 82
3 73 82 69
3 69 82 88
3 69 88 76
3 76 64 69
3 61 77 71
3 61 71 62
3 85 79 71
3 85 71 77
3 71 79 62
3 83 80 87
3 87 80 79
3 81 84 75
3 69 51 73
3 51 69 58
3 58 69 64
3 58 64 46
3 48 62 60
3 35 41 21
3 48 41 35
3 41 48 60
3 66 52 74
3 66 74 65
3 83 70 74
3 83 68 70
3 78 63 68
3 63 78 67
3 63 67 55
3 38 47 55
3 38 55 50
3 38 50 37
3 58 37 51
3 46 37 58
3 35 49 48
3 29 15 31
3 31 15 19
3 31 19 18
3 15 4 9
3 15 9 19
3 19 9 18
3 22 26 36
3 26 22 12
3 26 12 11
3 42 36 26
3 42 26 52
3 52 26 41
3 41 26 21
3 21 26 11
3 44 56 53
3 53 56 66
3 56 52 66
3 65 53 66
3 42 52 56
3 42 56 44
3 45 39 53
3 45 53 54
3 54 53 65
3 57 45 54
3 57 54 70
3 70 54 65
3 45 57 40
3 59 40 57
3 63 43 59
3 63 59 68
3 55 47 63
3 4 10 9
3 9 10 18
3 8 6 7
3 6 8 2
3 4 2 10
3 10 2 8
3 0 3 2
3 2 3 6
3 7 6 3
3 7 3 13
3 1 3 0
3 12 1 5
3 5 1 0
3 5 0 4
3 23 14 12
3 30 14 23
3 30 23 36
3 36 23 22
3 22 23 12
3 28 14 30
3 28 30 44
3 44 30 36
3 40 34 45
3 13 20 24
3 24 20 40
3 24 40 33
3 40 20 34
3 13 16 7
3 16 24 33
3 24 16 13
3 17 7 16
3 17 16 32
3 32 16 33
3 8 7 17
3 25 8 17
3 20 13 14
3 20 28 34
3 28 20 14
3 76 77 64
3 73 75 82
3 64 61 46
3 72 60 62
3 72 74 60
3 83 78 68
3 67 51 50
3 21 11 15
3 47 32 43
3 44 39 28
3 43 33 40
3 38 27 25
3 25 27 10
3 1 13 3
3 83 86 78
