ply
format ascii 1.0
comment Generated by PyMesh
element vertex 177
property float x
property float y
property float z
property float nx
property float ny
property float nz
element face 301
property list uchar int vertex_indices
end_header
-10.1517 -1.443 12.8884 0.884903 0.208359 -0.416574
-9.30481 -1.76231 13.5004 0.595097 0.508562 -0.622273
-10.1956 -0.223 12.1319 0.948219 -0.288896 -0.131983
-9.43606 -0.117812 13.4581 0.804556 -0.193789 -0.561369
-9.42325 -2.72775 11.9522 0.61736 0.784708 -0.0556738
-8.49575 -2.5645 12.975 0.186533 0.919786 -0.345252
-8.64675 -1.3 14.493 0.694924 0.166547 -0.69953
-9.76156 0.291438 11.3061 0.936059 -0.348835 -0.0459032
-8.909 0.4065 14.286 0.73117 -0.497013 -0.4673
-10.237 -1.322 11.2058 0.927756 0.180387 0.326696
-8.84081 0.750188 12.7536 0.626112 -0.771068 -0.115926
-9.14338 -2.21881 10.6134 0.525658 0.686227 0.502768
-7.99203 -2.64528 11.2072 -0.0144315 0.992396 0.122235
-7.47087 -2.52638 13.4104 0.181217 0.970668 -0.157999
-7.49125 -1.47625 15.2793 0.469884 0.554722 -0.686653
-8.03256 0.0735625 15.0258 0.517041 -0.337749 -0.786508
-8.74413 1.04475 11.6525 0.462599 -0.739102 -0.489623
-9.64669 -1.105 10.3852 0.861516 0.199114 0.467058
-9.65375 -0.18225 9.868 0.944339 0.32223 0.066263
-8.04775 1.27894 13.8454 0.402317 -0.81053 -0.425655
-9.96212 0.7785 9.82487 0.984476 0.0508648 -0.167988
-9.66938 1.7765 10.3371 0.732011 -0.557361 -0.391801
-7.6435 1.70875 13.037 0.439389 -0.897843 -0.0285534
-7.06962 -2.47638 14.4404 0.328211 0.848099 -0.415938
-8.08497 -1.88934 9.36447 0.524179 0.786561 0.326433
-9.06 -0.9825 9.4 0.709073 0.625695 0.325148
-6.951 -2.5145 9.9525 0.21621 0.976343 0.00262576
-6.8605 -0.341 15.9435 0.396037 -0.188333 -0.898713
-7.03288 1.72438 11.6827 0.166318 -0.974006 -0.15379
-6.2165 -2.099 11.352 -0.0671779 0.99727 0.0306544
-5.90675 -2.65587 14.3011 0.000315313 0.991663 -0.12886
-5.72906 -2.47112 12.6509 -0.0788777 0.986902 0.140719
-10.1615 0.4705 8.58675 0.911713 0.337515 -0.234228
-8.25669 2.225 10.649 0.102 -0.921986 -0.373547
-6.381 0.66075 15.2494 -0.00666402 -0.786907 -0.617035
-5.79569 -1.33506 16.1006 -0.124208 0.290816 -0.948682
-6.464 1.99188 13.131 0.114109 -0.94543 -0.305189
-9.33762 2.37037 9.08325 0.361501 -0.930176 -0.0639541
-5.82725 -2.50425 9.9965 0.185066 0.85031 -0.49267
-5.15737 -2.20863 15.3814 -0.285748 0.688131 -0.666951
-9.39925 -0.69575 8.29525 0.516402 0.75225 -0.409204
-10.2965 1.40625 7.82575 0.562055 -0.588037 -0.581642
-8.26437 -1.01525 8.31125 0.555904 0.831173 -0.0110874
-5.719 -0.127 16.1567 -0.158741 -0.406461 -0.899773
-4.765 -2.518 14.248 -0.364464 0.919285 -0.148599
-5.77275 1.7585 11.7533 0.118718 -0.992596 -0.0256668
-6.351 -2.99425 8.68025 0.659098 0.746601 -0.0904267
-4.69075 -2.53175 13.1115 -0.350228 0.931539 -0.0978508
-10.5411 0.020375 7.60388 0.449597 0.384052 -0.806453
-7.16862 2.01875 10.3194 -0.1478 -0.973047 -0.177015
-8.7625 2.4195 8.222 0.280303 -0.957877 -0.062466
-5.345 0.7695 14.552 -0.203801 -0.759961 -0.617191
-7.16125 -2.234 7.76575 0.557123 0.812604 -0.171138
-5.53575 1.5295 13.741 -0.121869 -0.773495 -0.621975
-8.029 2.4285 9.085 -0.0963041 -0.992581 -0.0742225
-4.73887 -2.95038 10.0363 0.215907 0.495566 -0.841308
-4.75675 0.05125 15.3105 -0.547288 -0.301542 -0.780735
-10.5476 1.928 6.92238 -0.197212 -0.846173 -0.495074
-4.70913 2.10713 12.9949 0.223145 -0.9024 -0.368619
-4.76137 2.07962 11.2802 0.554042 -0.813106 -0.178594
-10.148 -1.38462 7.12813 0.229914 0.611414 -0.757174
-11.189 -0.84225 7.053 0.0537119 0.434125 -0.89925
-11.772 1.0155 8.0525 -0.0128847 -0.133187 -0.991007
-8.17025 -1.88312 7.04 0.329029 0.739171 -0.587679
-11.8252 -0.017625 7.72687 0.0271841 0.356959 -0.933724
-5.271 -4.34734 9.45378 0.716884 -0.165769 -0.677199
-5.243 2.07262 9.748 0.239633 -0.959016 -0.151212
-6.187 -2.8705 7.317 0.76518 0.638045 -0.0860097
-3.648 -2.5685 10.791 0.0512143 0.888126 -0.456737
-7.8825 2.953 7.627 0.482397 -0.698784 -0.528199
-4.18175 0.935375 14.1839 -0.205217 -0.606615 -0.768052
-3.69738 -1.33834 13.9881 -0.730711 0.470451 -0.494709
-7.07212 2.2745 8.75 0.0164395 -0.918462 -0.395167
-3.67 -3.37725 10.0363 0.0528347 0.22804 -0.972217
-8.85525 2.47675 6.7845 0.496342 -0.751685 -0.434297
-5.61875 -4.25737 7.6965 0.978629 0.118664 -0.167943
-3.47725 -2.18625 11.8475 -0.3464 0.841313 -0.414969
-3.83075 -0.304 14.6757 -0.607594 -0.0369576 -0.793388
-3.15875 -1.42963 12.8542 -0.499533 0.666475 -0.553423
-10.4847 2.58538 5.91437 -0.122722 -0.723589 -0.679234
-6.4485 -3.06988 6.36562 0.581447 0.599726 -0.549771
-11.8441 3.039 6.80875 -0.620274 -0.445901 -0.645316
-3.42144 2.20444 13.4284 0.306256 -0.504535 -0.80725
-7.69875 -3.17213 5.98338 0.299425 0.616534 -0.728169
-12.2112 -1.32056 6.83494 0.212442 0.686723 -0.695183
-8.982 -2.2765 6.4235 0.208589 0.693139 -0.689962
-12.7525 1.6205 7.86925 0.455324 -0.33272 -0.825819
-7.07575 3.65275 7.62 0.364177 -0.385337 -0.847874
-3.53912 2.96525 12.1566 0.718337 -0.495399 -0.488439
-4.11125 3.07125 10.2505 0.957848 -0.280915 0.0601128
-6.0835 2.4585 8.3595 0.00776644 -0.751767 -0.659383
-5.0945 2.38025 8.52125 0.251057 -0.772446 -0.583351
-2.55194 -2.87169 10.2829 -0.412992 0.578452 -0.703442
-13.1676 -0.608 7.422 0.357549 0.532034 -0.767528
-8.06475 3.8725 6.61625 0.721615 -0.50556 -0.472948
-2.90569 0.68025 13.7451 -0.312653 0.115108 -0.942867
-9.886 -2.553 5.83125 0.231542 0.833637 -0.501436
-4.036 3.906 11.0367 0.922986 0.0195298 -0.384338
-2.33325 -1.6125 12.1005 -0.27871 0.82363 -0.493918
-3.975 2.80675 8.89725 0.737058 -0.577521 -0.351019
-6.17556 -5.75075 9.81419 0.879245 -0.409227 -0.243849
-11.3241 -2.33512 5.93962 0.252521 0.915196 -0.314085
-10.4535 3.562 5.2365 -0.0918272 -0.622429 -0.77727
-5.79563 -5.69025 7.32412 0.957859 0.0303151 0.285636
-8.757 3.626 5.702 0.435516 -0.646049 -0.626855
-11.5653 3.48875 5.81225 -0.579591 -0.556343 -0.595447
-6.2445 -5.67425 8.35825 0.940384 -0.316391 0.124801
-12.902 2.5225 6.736 0.196229 0.5215 -0.83038
-4.92338 -5.55363 11.0901 0.467586 -0.821285 -0.326885
-13.9104 0.437875 7.28562 0.703222 -0.0278299 -0.710425
-1.991 -1.967 11.037 -0.456314 0.833743 -0.310886
-8.9555 -3.102 5.67 0.401153 0.74822 -0.528435
-6.316 4.25462 7.96925 0.432233 0.0561925 -0.900009
-1.63806 -0.748062 12.9071 -0.00624998 0.683988 -0.729466
-2.61469 -4.94441 9.86416 -0.775368 -0.219062 -0.592297
-6.624 -4.5115 5.5635 0.517749 0.639978 -0.567772
-3.67925 -5.23994 10.9784 -0.0577555 -0.859388 -0.508052
-2.06519 2.4575 13.891 0.582739 0.418386 -0.696684
-11.8689 4.45662 6.01137 -0.97975 -0.146072 -0.136939
-5.118 3.48338 7.91625 0.3476 -0.00663432 -0.937619
-6.111 -5.624 6.089 0.902457 0.418943 -0.100291
-8.35437 -4.16412 4.94775 0.570471 0.599126 -0.561793
-10.4152 -2.56775 4.9595 0.427255 0.881527 0.200905
-4.20325 4.8255 11.4265 0.840367 0.417559 -0.345583
-2.55225 3.71012 13.1695 0.925513 0.107021 -0.36328
-1.62925 -2.0845 9.506 -0.672234 0.587866 -0.450016
-7.23431 5.14437 6.95969 0.767064 -0.239082 -0.595359
-12.9301 -1.75412 5.27763 0.392603 0.909855 -0.134266
-3.84325 3.8935 8.8005 0.93407 0.220152 -0.281153
-4.4855 4.7605 10.415 0.953016 0.288411 -0.0926233
-9.9465 4.2475 4.6095 0.189179 -0.524338 -0.83023
-3.25887 4.56738 12.2809 0.800686 0.402702 -0.443545
-12.064 5.0585 7.27075 -0.952995 0.260046 -0.155489
-7.5915 -4.8935 5.11925 0.355514 0.720587 -0.595285
-8.35363 4.39925 5.14475 0.553966 -0.450632 -0.700037
-14.1081 -0.705312 6.13575 0.681977 0.608786 -0.405324
-11.926 -2.06175 4.8235 0.214942 0.911725 0.350082
-12.7896 3.62538 8.75081 -0.765524 0.594507 -0.246039
-0.977813 -1.33644 11.9819 -0.0664935 0.980925 -0.18266
-6.27887 -7.16625 9.82987 0.968248 0.150609 -0.199533
-13.8658 1.50719 6.11602 0.630547 -0.151743 -0.761173
-11.603 4.374 4.8655 -0.684768 -0.45324 -0.570672
-6.22325 -6.96025 7.58225 0.827747 0.0783912 0.555599
-1.22113 0.0809375 13.5485 0.27894 0.353428 -0.892906
-7.404 5.35675 5.69225 0.866794 -0.042413 -0.49686
-5.308 -5.77575 12.31 0.323934 -0.933786 -0.152023
-5.429 4.95425 8.40075 0.475472 0.186093 -0.859823
-1.30175 1.72675 13.5933 0.251486 0.358882 -0.898865
-10.6316 4.90987 4.26475 -0.153342 -0.327044 -0.932485
-14.443 2.761 6.594 0.215701 0.836854 -0.503138
-6.183 -5.011 4.536 0.30348 0.907268 0.291145
-6.60156 -7.33588 8.79594 0.994857 0.0992303 0.0203263
-0.27 -0.883 13.3573 0.52276 0.654727 -0.545943
-8.94312 -4.58262 4.06213 0.560501 0.160938 -0.812366
-2.66225 3.6205 14.2621 0.891561 0.452106 -0.0268244
-1.03 -3.787 8.5425 -0.841293 0.29785 -0.451123
-12.039 5.279 4.954 -0.827558 0.0859997 -0.554754
-2.309 -6.189 8.945 -0.990824 0.123307 -0.0553434
-6.14825 -6.61194 11.79 0.929507 -0.355159 -0.0993885
-2.011 -5.875 11.0615 -0.733903 -0.671001 -0.105567
-14.5444 0.792437 5.67956 0.686624 0.134 -0.714557
-4.69228 -7.21006 6.58134 0.412367 0.69768 0.585829
-9.3315 5.115 4.558 0.245796 0.272585 -0.930205
-13.8581 -1.44 4.66538 0.426011 0.902856 -0.0580203
-0.426 -1.17206 10.6077 -0.363504 0.925447 -0.106831
-5.69325 5.91012 8.27106 0.664743 -0.134648 -0.734838
-9.5915 -3.258 3.9775 0.845598 0.469669 -0.25372
-7.58725 -5.17525 4.094 -0.109349 0.717811 -0.687598
-3.95775 5.3385 12.688 0.646367 0.75457 -0.113288
-4.487 4.90325 9.013 0.825406 0.350902 -0.442236
-11.782 6.02275 5.83525 -0.750238 0.660008 -0.0391494
-4.608 6.026 11.9055 0.68848 0.718403 0.0994643
-0.47025 -1.53 9.122 -0.559631 0.807507 -0.186402
-13.8701 2.99756 8.51681 -0.142611 0.977424 -0.155899
-12.8094 -1.55587 3.96275 0.0341578 0.890859 0.452993
-2.68963 -5.70463 12.3524 -0.260663 -0.948494 -0.180039
-6.10838 -7.2915 10.8197 0.978062 0.207388 -0.01962
3 61 84 64
3 122 111 166
3 60 48 40
3 60 40 63
3 63 40 42
3 93 84 135
3 79 105 102
3 105 118 141
3 105 81 118
3 118 132 170
3 167 153 121
3 121 111 83
3 111 96 85
3 83 85 63
3 85 60 63
3 63 42 52
3 63 52 83
3 42 24 52
3 38 26 12
3 25 24 42
3 17 25 18
3 25 42 40
3 18 25 32
3 40 32 25
3 32 40 48
3 74 50 41
3 74 69 50
3 54 50 72
3 69 72 50
3 72 69 87
3 74 41 57
3 74 79 104
3 104 79 102
3 104 134 94
3 162 130 148
3 130 102 148
3 148 102 105
3 75 115 80
3 83 80 115
3 115 133 83
3 75 80 67
3 67 52 46
3 65 46 38
3 65 55 73
3 55 38 68
3 68 29 47
3 29 31 47
3 31 29 12
3 44 31 30
3 12 5 13
3 17 18 7
3 20 7 18
3 54 72 49
3 72 87 90
3 90 87 119
3 87 112 119
3 126 87 94
3 142 161 103
3 103 161 120
3 106 75 65
3 65 73 116
3 157 114 155
3 73 68 92
3 125 92 110
3 68 73 55
3 76 47 78
3 56 39 35
3 13 23 30
3 27 14 15
3 27 15 34
3 6 1 3
3 15 19 36
3 10 16 28
3 28 16 33
3 28 33 49
3 49 66 28
3 28 66 59
3 90 91 66
3 91 90 119
3 59 66 89
3 89 129 97
3 131 88 97
3 169 119 146
3 123 171 168
3 168 131 123
3 88 82 58
3 88 58 59
3 82 117 95
3 95 117 147
3 88 124 82
3 82 124 117
3 124 154 117
3 108 65 116
3 116 175 145
3 138 164 110
3 110 98 138
3 113 138 98
3 113 98 78
3 113 95 143
3 95 71 77
3 95 77 70
3 58 70 53
3 58 53 36
3 59 58 45
3 36 45 58
3 36 53 34
3 51 34 53
3 45 36 28
3 174 163 127
3 135 127 163
3 136 174 127
3 84 127 135
3 93 109 64
3 109 160 140
3 160 109 135
3 135 109 93
3 140 86 109
3 109 86 64
3 81 86 107
3 107 86 140
3 173 107 149
3 81 137 132
3 173 137 107
3 107 137 81
3 122 96 111
3 60 101 84
3 60 84 61
3 122 101 96
3 96 101 60
3 122 136 101
3 84 101 127
3 127 101 136
3 32 48 41
3 64 41 48
3 41 81 57
3 86 81 62
3 41 62 81
3 62 41 64
3 86 62 64
3 84 93 64
3 118 81 132
3 150 167 115
3 115 167 133
3 167 121 133
3 83 133 121
3 83 111 85
3 46 26 38
3 26 46 24
3 52 24 46
3 12 26 24
3 11 12 24
3 11 25 17
3 11 24 25
3 18 32 20
3 20 32 41
3 20 41 21
3 21 41 37
3 54 37 50
3 50 37 41
3 87 69 94
3 74 94 69
3 104 94 74
3 103 120 75
3 161 150 120
3 75 120 115
3 115 120 150
3 65 75 46
3 46 75 67
3 44 47 31
3 6 14 1
3 1 14 5
3 14 13 5
3 13 14 23
3 9 11 17
3 2 7 10
3 7 2 9
3 7 9 17
3 16 10 7
3 7 20 21
3 7 21 16
3 21 37 33
3 33 37 54
3 21 33 16
3 49 33 54
3 119 112 146
3 146 112 165
3 165 112 126
3 126 112 87
3 142 103 106
3 100 139 151
3 100 151 106
3 142 106 151
3 106 65 100
3 116 73 114
3 125 155 92
3 92 114 73
3 114 92 155
3 110 92 76
3 110 76 98
3 76 92 68
3 78 98 76
3 71 78 47
3 44 71 47
3 56 71 39
3 39 71 44
3 39 44 30
3 35 39 14
3 39 23 14
3 30 23 39
3 56 43 34
3 27 43 35
3 56 35 43
3 51 56 34
3 27 35 14
3 27 34 43
3 15 14 6
3 19 15 8
3 19 8 10
3 10 8 3
3 3 8 15
3 3 15 6
3 0 2 3
3 0 3 1
3 3 2 10
3 9 2 4
3 11 9 4
3 2 0 4
3 11 4 12
3 12 4 5
3 5 4 1
3 0 1 4
3 22 19 10
3 36 19 22
3 36 22 28
3 28 22 10
3 88 59 97
3 97 59 89
3 123 131 97
3 129 123 97
3 176 139 158
3 158 139 100
3 158 100 108
3 65 108 100
3 108 145 158
3 175 116 159
3 114 159 116
3 56 51 70
3 56 70 77
3 56 77 71
3 82 95 70
3 70 58 82
3 143 152 113
3 113 152 138
3 48 61 64
3 61 48 60
3 105 79 81
3 81 79 57
3 121 166 111
3 121 153 166
3 96 60 85
3 79 74 57
3 130 162 134
3 102 130 104
3 134 104 130
3 148 141 156
3 170 156 118
3 148 105 141
3 141 118 156
3 80 83 52
3 80 52 67
3 38 55 65
3 12 29 38
3 68 38 29
3 31 12 13
3 94 144 126
3 94 134 144
3 103 75 106
3 47 76 68
3 13 30 31
3 72 90 66
3 49 72 66
3 99 91 119
3 128 99 119
3 128 119 169
3 128 169 129
3 89 128 129
3 89 99 128
3 66 99 89
3 99 66 91
3 131 124 88
3 108 116 145
3 172 125 164
3 164 125 110
3 71 95 78
3 113 78 95
3 51 53 70
3 36 34 15
3 45 28 59
3 147 143 95
3 149 107 140
3 149 140 160
