ply
format ascii 1.0
comment Generated by PyMesh
element vertex 200
property float x
property float y
property float z
property float charge
property float ddc
property float hbond
property float hphob
property float rho
property float si
property float theta
property float nx
property float ny
property float nz
element face 338
property list uchar int vertex_indices
end_header
-5.82725 -2.50425 9.9965 0.16658 0 0 -0.2 1e-08 0.279194 2.22045e-16 0.185066 0.85031 -0.49267
-6.951 -2.5145 9.9525 0.198646 0.441925 0 -0.2 1.12466 -0.0955885 2.22045e-16 0.21621 0.976343 0.00262576
-4.73887 -2.95038 10.0363 0.168411 0.432 0 -0.2 1.17694 0.440618 3.15918 0.215907 0.495566 -0.841308
-6.2165 -2.099 11.352 -0.0479317 0.429639 0 -0.2 1.46735 0.734313 1.41903 -0.0671779 0.99727 0.0306544
-6.351 -2.99425 8.68025 0.534287 -0.362597 0 -0.533636 1.49898 -0.0896829 5.15797 0.659098 0.746601 -0.0904267
-5.271 -4.34734 9.45378 0.429117 0.556346 0 -0.2 2.00023 0.0790899 4.02108 0.716884 -0.165769 -0.677199
-3.648 -2.5685 10.791 0.102482 -0.101501 0 -0.2 2.32045 0.243116 2.58541 0.0512143 0.888126 -0.456737
-3.67 -3.37725 10.0363 0.238417 0.352917 0 -0.2 2.3279 0.259178 3.08784 0.0528347 0.22804 -0.972217
-7.99203 -2.64528 11.2072 0.106454 0.273619 0 -0.2 2.48434 -0.397675 0.669377 -0.0144315 0.992396 0.122235
-8.08497 -1.88934 9.36447 0.207993 -0.344234 0 -0.866667 2.5468 -0.139227 6.15083 0.524179 0.786561 0.326433
-6.187 -2.8705 7.317 0.785327 -0.238024 0.122961 -0.866667 2.87762 0.873616 5.14032 0.76518 0.638045 -0.0860097
-5.72906 -2.47112 12.6509 -0.209615 0.272717 0 -0.2 2.90374 -0.310485 1.51012 -0.0788777 0.986902 0.140719
-7.16125 -2.234 7.76575 0.524633 -0.156067 0.104137 -0.866667 2.938 0.213785 5.44044 0.557123 0.812604 -0.171138
-5.61875 -4.25737 7.6965 1 0.360756 0.473898 -0.866667 3.25949 0.429686 4.64488 0.978629 0.118664 -0.167943
-3.47725 -2.18625 11.8475 0.0116938 -0.209265 0 -0.2 3.45688 -0.07272 2.33697 -0.3464 0.841313 -0.414969
-2.55194 -2.87169 10.2829 0.0562423 -0.234618 -0.338533 -0.154071 3.56602 -0.147396 2.77038 -0.412992 0.578452 -0.703442
-6.17556 -5.75075 9.81419 0.51025 0.428331 0 -0.0888889 3.70836 -0.485206 3.92399 0.879245 -0.409227 -0.243849
-4.69075 -2.53175 13.1115 -0.183255 0.222747 0 -0.2 3.83611 -0.383292 1.8066 -0.350228 0.931539 -0.0978508
-9.14338 -2.21881 10.6134 0.047993 0.299669 0 -0.866667 3.84819 -0.594547 0.422478 0.525658 0.686227 0.502768
-9.06 -0.9825 9.4 0.0107298 -0.25606 0 -0.866667 3.87883 0.0899438 6.24543 0.709073 0.625695 0.325148
-6.4485 -3.06988 6.36562 0.82373 0.104964 0.232478 -0.866667 3.88423 0.999867 5.09689 0.581447 0.599726 -0.549771
-8.26437 -1.01525 8.31125 0.0134116 -0.161379 0 -0.866667 3.9272 0.802344 5.87746 0.555904 0.831173 -0.0110874
-6.2445 -5.67425 8.35825 0.839817 0.405178 0.48189 -0.866667 3.97725 -0.593974 4.35025 0.940384 -0.316391 0.124801
-4.92338 -5.55363 11.0901 0.315841 0.497948 0 -0.2 4.06264 0.080399 3.86741 0.467586 -0.821285 -0.326885
-9.42325 -2.72775 11.9522 -0.069941 -0.130849 0 -0.779522 4.09996 -0.999869 0.714706 0.61736 0.784708 -0.0556738
-2.61469 -4.94441 9.86416 0.323553 0.371218 0 -0.0888889 4.22508 0.0684234 3.50177 -0.775368 -0.219062 -0.592297
-8.17025 -1.88312 7.04 0.270622 0.041944 0.232979 -0.866667 4.22948 0.677647 5.51422 0.329029 0.739171 -0.587679
-8.49575 -2.5645 12.975 -0.0942213 0.0442482 -0.18369 -0.368789 4.32428 -0.54535 0.815601 0.186533 0.919786 -0.345252
-3.67925 -5.23994 10.9784 0.37313 0.478695 0 -0.2 4.37823 -0.054301 3.69005 -0.0577555 -0.859388 -0.508052
-5.90675 -2.65587 14.3011 -0.117535 0.108625 0 -0.2 4.57373 -0.7564 1.50108 0.000315313 0.991663 -0.12886
-5.79563 -5.69025 7.32412 0.66977 0.311688 0.297821 -0.863844 4.7505 0.225146 4.26451 0.957859 0.0303151 0.285636
-7.47087 -2.52638 13.4104 -0.0864843 0.0933739 0 -0.2 4.75146 -0.109034 0.87689 0.181217 0.970668 -0.157999
-3.15875 -1.42963 12.8542 0.0612547 -0.198022 0.542764 0.4 4.75586 0.166984 2.17416 -0.499533 0.666475 -0.553423
-2.33325 -1.6125 12.1005 0.0651217 -0.134153 0.0357752 -0.134356 4.76146 -0.221343 2.35371 -0.27871 0.82363 -0.493918
-4.765 -2.518 14.248 -0.200502 0.165556 0 -0.2 4.76984 -0.84256 0.509685 -0.364464 0.919285 -0.148599
-1.991 -1.967 11.037 -0.109312 -0.187985 0 -0.2 4.87054 0.0152856 2.68582 -0.456314 0.833743 -0.310886
-9.65375 -0.18225 9.868 -0.0384657 -0.222524 0 -0.866667 4.97972 0.035881 0.554099 0.944339 0.32223 0.066263
-1.62925 -2.0845 9.506 -0.3736 -0.231939 -0.239979 -0.0888889 5.00636 0.693731 3.96818 -0.672234 0.587866 -0.450016
-7.69875 -3.17213 5.98338 0.781853 0.0758975 0.112886 -0.866667 5.02267 0.118032 5.26317 0.299425 0.616534 -0.728169
-9.64669 -1.105 10.3852 -0.036121 -0.311691 0 -0.866667 5.03201 -0.146609 0.426582 0.861516 0.199114 0.467058
-9.39925 -0.69575 8.29525 0.0114345 -0.0592376 0 -0.866667 5.06954 0.0238771 6.04897 0.516402 0.75225 -0.409204
-6.27887 -7.16625 9.82987 0.573587 0.215149 0 -0.0888889 5.12771 -0.176118 3.44916 0.968248 0.150609 -0.199533
-8.982 -2.2765 6.4235 0.0985167 0.0570913 0 -0.866667 5.32207 0.225585 5.4557 0.208589 0.693139 -0.689962
-5.308 -5.77575 12.31 0.303794 0.445371 0 -0.2 5.36088 -0.624294 3.65442 0.323934 -0.933786 -0.152023
-10.237 -1.322 11.2058 -0.214441 -0.257964 -0.238289 -0.866667 5.38156 -0.926325 0.465282 0.927756 0.180387 0.326696
-6.111 -5.624 6.089 0.57352 0.166809 0.517632 -0.801127 5.42607 -0.586464 3.48185 0.902457 0.418943 -0.100291
-6.22325 -6.96025 7.58225 0.517227 0.273033 0 -0.777778 5.47939 -0.999844 3.42509 0.827747 0.0783912 0.555599
-6.624 -4.5115 5.5635 0.468287 0.0655552 0 -0.866667 5.54328 0.1465 4.9068 0.517749 0.639978 -0.567772
-9.30481 -1.76231 13.5004 -0.51173 -0.0960224 -0.615631 -0.777778 5.57893 -0.45824 0.611577 0.595097 0.508562 -0.622273
-3.69738 -1.33834 13.9881 0.059151 -0.230306 0.407209 0.4 5.61921 -0.414425 6.10612 -0.730711 0.470451 -0.494709
-6.60156 -7.33588 8.79594 0.630253 0.225819 0 -0.256651 5.63992 -0.999867 4.30531 0.994857 0.0992303 0.0203263
-7.06962 -2.47638 14.4404 -0.0257032 0.0157911 0.0962312 -0.376944 5.75859 -0.731081 0.417698 0.328211 0.848099 -0.415938
-2.309 -6.189 8.945 0.43995 -0.291399 0 -0.0888889 5.8022 0.159897 3.72563 -0.990824 0.123307 -0.0553434
-6.14825 -6.61194 11.79 0.412833 0.31307 0 -0.120257 5.82621 -0.444363 3.58187 0.929507 -0.355159 -0.0993885
-10.1517 -1.443 12.8884 -0.57693 -0.164506 -0.0908054 -0.810518 5.84858 -0.920442 0.651185 0.884903 0.208359 -0.416574
-2.011 -5.875 11.0615 0.37523 0.356329 -0.0252554 -0.253553 5.85727 -0.495688 3.83599 -0.733903 -0.671001 -0.105567
-10.1615 0.4705 8.58675 -0.04119 -0.154062 0 -0.866667 5.8753 -0.215396 0.663922 0.911713 0.337515 -0.234228
-5.15737 -2.20863 15.3814 -0.0770677 -0.113694 -0.423582 0.4 5.96249 -0.999859 1.64715 -0.285748 0.688131 -0.666951
-9.96212 0.7785 9.82487 -0.0460157 -0.207747 0 -0.866667 5.98967 -0.429738 0.692336 0.984476 0.0508648 -0.167988
-1.03 -3.787 8.5425 0.191599 -0.24059 -0.000550657 -0.0888889 6.0526 -0.66072 3.96818 -0.841293 0.29785 -0.451123
-1.63806 -0.748062 12.9071 0.207123 -0.0770998 0 0.0257813 6.13301 0.00689755 2.35371 -0.00624998 0.683988 -0.729466
-2.68963 -5.70463 12.3524 0.373157 0.372877 0 -0.2 6.13412 -0.389516 3.83599 -0.260663 -0.948494 -0.180039
-6.10838 -7.2915 10.8197 0.50502 0.214116 0 -0.0888889 6.13989 0.0510481 3.44916 0.978062 0.207388 -0.01962
-0.977813 -1.33644 11.9819 0.0576827 -0.0881352 0 -0.155669 6.1498 -0.143982 2.35371 -0.0664935 0.980925 -0.18266
-10.148 -1.38462 7.12813 0.016896 0.0694677 0 -0.866667 6.27099 -0.219836 6.04897 0.229914 0.611414 -0.757174
-1.90625 -6.818 10.2917 0.36039 0.298503 -0.276012 -0.372184 6.27325 -0.273895 3.83599 -0.962724 -0.18519 0.197148
-8.9555 -3.102 5.67 -0.219211 -0.0298816 -0.300687 -0.821164 6.3198 -0.278896 5.4557 0.401153 0.74822 -0.528435
-0.47025 -1.53 9.122 -0.106855 -0.160915 -0.47734 -0.0888889 6.34734 0.17356 3.96818 -0.559631 0.807507 -0.186402
-5.725 -6.1115 13.164 0.28495 0.305676 0 -0.199861 6.36882 -0.999881 3.65442 0.778413 -0.53643 -0.326062
-9.886 -2.553 5.83125 -0.130164 0.0100459 0 -0.84122 6.43761 -0.205416 5.4557 0.231542 0.833637 -0.501436
-6.14975 -8.38775 9.2365 0.642467 0.131536 0 0.597371 6.49183 -0.682244 4.30531 0.864514 0.496605 -0.0774548
-9.76156 0.291438 11.3061 -0.0964303 -0.283858 0 0.4 6.49766 -0.15531 0.554099 0.936059 -0.348835 -0.0459032
-10.5411 0.020375 7.60388 -0.0416343 -0.100513 0 -0.866667 6.58435 0.287834 0.663922 0.449597 0.384052 -0.806453
-8.35437 -4.16412 4.94775 -0.453847 0.0655686 -0.475452 -0.816929 6.5995 -0.0223487 5.26317 0.570471 0.599126 -0.561793
-7.5915 -4.8935 5.11925 -0.00991547 0.0326673 0.514298 -0.866667 6.67436 -0.813618 4.9068 0.355514 0.720587 -0.595285
-0.426 -1.17206 10.6077 -0.082501 -0.133086 0 -0.0888889 6.6776 0.701762 2.68582 -0.363504 0.925447 -0.106831
-5.77 -8.44 10.563 0.568423 0.164656 0 -0.0888889 6.68298 0.23855 3.44916 0.951713 0.306736 0.0124313
-6.109 -8.09013 8.2005 0.609747 0.179475 0.0100599 -0.777778 6.71976 -0.999782 4.30531 0.704026 0.548252 0.451407
-0.620125 -2.47038 8.16737 0.103473 -0.245492 -0.60344 -0.38732 6.72659 -0.131727 3.96818 -0.933496 0.310793 -0.178866
-10.1956 -0.223 12.1319 -0.318546 -0.251672 -0.563898 -0.758511 6.72724 -0.999829 0.651185 0.948219 -0.288896 -0.131983
-6.183 -5.011 4.536 0.226191 -0.12706 0.967173 -1 6.76792 0.0722563 4.9068 0.30348 0.907268 0.291145
-4.69228 -7.21006 6.58134 0.7131 -0.181137 0.096704 -0.777778 6.77014 -0.0381626 3.42509 0.412367 0.69768 0.585829
-8.64675 -1.3 14.493 -0.307199 -0.150799 -0.805512 -0.777778 6.85643 -0.640637 0.611577 0.694924 0.166547 -0.69953
-3.83075 -0.304 14.6757 -0.026281 -0.232249 -0.0434052 0.446411 6.86839 -0.560929 6.10612 -0.607594 -0.0369576 -0.793388
-2.18438 -7.15963 8.50113 0.52569 0.276774 0 -0.0888889 6.87676 -0.211752 3.72563 -0.97819 -0.0684411 0.19611
-7.49125 -1.47625 15.2793 0.247017 -0.0715154 0.704737 -0.777778 6.89529 -0.569798 0.417698 0.469884 0.554722 -0.686653
-1.7585 -6.495 11.9974 0.3505 0.305971 0 -1 7.00795 0.0230992 3.83599 -0.875271 -0.44215 0.195971
-2.90569 0.68025 13.7451 0.049932 -0.18304 0 0.4 7.06006 0.0684272 6.10612 -0.312653 0.115108 -0.942867
-10.2965 1.40625 7.82575 -0.117352 -0.23038 0 -0.777778 7.08896 -0.0680291 0.663922 0.562055 -0.588037 -0.581642
-9.66938 1.7765 10.3371 -0.0597057 -0.254678 0 0.4 7.14902 -0.672893 0.692336 0.732011 -0.557361 -0.391801
-2.3525 -6.17938 7.56938 0.610377 -0.263218 0.281908 -0.506213 7.17854 0.253721 3.72563 -0.928894 0.314033 0.196315
-4.83238 -6.22475 14.045 0.203985 0.305032 0 -0.172968 7.21508 -0.343419 3.65442 0.337459 -0.863933 -0.373821
-9.43606 -0.117812 13.4581 -0.329975 -0.209302 -0.0503273 0.201144 7.2292 -0.30643 0.651185 0.804556 -0.193789 -0.561369
-2.78744 -5.99862 13.4154 0.311591 0.324492 0 -0.2 7.24136 -0.106675 3.83599 -0.0566234 -0.97951 -0.193273
-1.22113 0.0809375 13.5485 0.0400333 -0.100902 0 0.4 7.26104 -0.0746796 2.35371 0.27894 0.353428 -0.892906
-5.79569 -1.33506 16.1006 -0.0309629 -0.133767 0 0.4 7.26165 -0.999871 1.64715 -0.124208 0.290816 -0.948682
-1.71375 -7.84975 10.351 0.248422 0.249977 -0.236758 -0.347251 7.32448 -0.791293 3.83599 -0.959066 -0.0283712 0.281756
-7.58725 -5.17525 4.094 -0.0551233 0.0688485 0.672859 -1 7.42154 0.185181 4.9068 -0.109349 0.717811 -0.687598
-11.189 -0.84225 7.053 -0.0315099 0.0995235 0 -0.866667 7.44721 0.617094 0.663922 0.0537119 0.434125 -0.89925
-10.4152 -2.56775 4.9595 -0.10965 -0.101005 -0.00293626 -0.85504 7.45752 -0.197551 5.4557 0.427255 0.881527 0.200905
-0.949313 -4.12856 7.11919 0.359443 -0.245801 0 -0.584002 7.51854 -0.611672 3.96818 -0.913709 0.35722 0.193727
-0.27 -0.883 13.3573 0.187824 0.0466516 0 -0.2 7.57955 -0.074031 2.35371 0.52276 0.654727 -0.545943
-1.52013 -6.21325 13.1946 0.52676 0.299133 0 -0.2 7.66243 -0.524356 3.83599 -0.53448 -0.837967 0.110193
-8.94312 -4.58262 4.06213 -0.560117 0.115092 -0.0572364 -0.777778 7.74235 0.0691205 5.26317 0.560501 0.160938 -0.812366
-5.27969 -9.23044 9.6165 0.54384 0.114799 0 1 7.76129 -0.152386 4.30531 0.552825 0.793218 0.255323
-8.74413 1.04475 11.6525 -0.0659547 -0.32489 0 0.4 7.81015 0.178468 0.554099 0.462599 -0.739102 -0.489623
-4.75675 0.05125 15.3105 -0.106209 -0.240538 -0.141506 0.669609 7.81055 -0.407501 6.10612 -0.547288 -0.301542 -0.780735
-6.14838 -8.3445 12.8004 0.305386 0.179021 0 -0.0888889 7.83187 -0.577007 3.58187 0.998638 0.0306221 -0.0422442
-2.13225 -8.094 9.39625 0.419197 -0.233527 0 0.107925 7.8484 -0.0980801 3.72563 -0.947777 0.184363 0.260248
-11.8252 -0.017625 7.72687 -0.0253071 0.103782 0 -0.866667 7.87489 -0.496865 0.663922 0.0271841 0.356959 -0.933724
0.656875 -0.954625 11.0969 0.257629 -0.118017 0 -0.0888889 7.88558 0.407777 2.68582 -0.172353 0.969797 0.17259
-11.3241 -2.33512 5.93962 -0.0451153 -0.025869 0 -0.866667 7.89615 -0.709798 5.4557 0.252521 0.915196 -0.314085
-5.116 -5.535 4.308 0.53344 -0.214403 0.132085 -1 7.97831 -0.573461 4.9068 0.188106 0.463336 0.865988
-2.162 -8.0945 7.9165 0.50133 -0.216169 0 -0.0888889 7.9796 -0.999892 3.72563 -0.909633 0.295624 0.291845
0.94725 -0.8885 9.82619 0.196768 -0.0943717 0.025898 -0.0888889 8.05517 0.0536257 3.96818 -0.162998 0.986589 -0.00857057
-0.030375 -1.28225 7.4885 0.122921 -0.149597 0.00467234 -0.980047 8.05707 0.180699 3.96818 -0.531229 0.845946 0.0465979
-5.6675 -9.7635 11.0267 0.39355 0.145769 0 0.661547 8.0891 -0.536952 3.44916 0.829797 0.432144 0.353113
-9.5915 -3.258 3.9775 -0.310933 -0.099117 -0.124325 -0.777778 8.13457 0.126382 5.4557 0.845598 0.469669 -0.25372
-10.5476 1.928 6.92238 -0.116807 -0.24411 0 -0.777778 8.16197 0.595931 0.663922 -0.197212 -0.846173 -0.495074
-5.05225 -9.12525 8.24525 0.259349 -0.125497 0.0785852 0.778944 8.1997 -0.999817 4.30531 0.439157 0.814084 0.380011
-1.69987 -5.249 6.81862 0.450617 -0.217474 0.09057 -0.79922 8.20556 -0.615685 3.72563 -0.818807 0.560268 0.125122
0.721 -1.61625 13.153 0.124071 0.0781621 0 -0.2 8.23204 -0.13008 2.35371 0.550536 0.834086 0.034786
-4.18175 0.935375 14.1839 -0.0221448 -0.274031 0 0.924198 8.2472 -0.18944 6.10612 -0.205217 -0.606615 -0.768052
-8.84081 0.750188 12.7536 -0.0905627 -0.322119 0 0.4 8.27347 -0.0673089 0.651185 0.626112 -0.771068 -0.115926
-0.7125 -3.14287 6.77037 0.40072 -0.263579 0 -1 8.27977 -0.786713 3.96818 -0.909629 0.176453 0.376085
-4.2395 -8.5735 7.08169 0.515497 -0.181689 0 -0.918367 8.29143 -0.999835 4.30531 0.129076 0.635443 0.761282
-3.716 -6.85975 5.448 0.579937 -0.157854 0.268141 -1 8.30646 -0.999864 3.42509 -0.263335 0.865654 0.425791
-8.909 0.4065 14.286 -0.223873 -0.233448 -0.102703 -0.210171 8.3419 -0.729122 0.651185 0.73117 -0.497013 -0.4673
-6.8605 -0.341 15.9435 0.0436187 -0.174228 0.47085 -0.777778 8.35398 -0.759795 1.64715 0.396037 -0.188333 -0.898713
-12.2112 -1.32056 6.83494 -0.0297725 0.0386455 0 -0.464164 8.3559 -0.41028 0.663922 0.212442 0.686723 -0.695183
-0.950875 -7.54581 12.4346 0.0322214 0.262013 -0.245019 -1 8.40352 0.0521168 3.83599 -0.632297 -0.545991 0.549632
-8.03256 0.0735625 15.0258 -0.074313 -0.204272 0 0.317122 8.45261 -0.424753 0.611577 0.517041 -0.337749 -0.786508
1.33506 -1.27988 11.9929 0.171192 0.134471 0 -0.184761 8.46339 0.187838 2.35371 0.263704 0.797677 0.542376
-1.463 -8.376 11.3333 0.176508 0.247262 -0.105314 -1 8.46673 0.32598 3.83599 -0.806276 -0.255371 0.533577
-5.719 -0.127 16.1567 -0.0384123 -0.210017 0 0.798507 8.47344 -0.999911 1.64715 -0.158741 -0.406461 -0.899773
-5.70131 -7.94219 14.2342 0.465197 0.165549 0 -0.0888889 8.4895 -0.359134 3.65442 0.924738 -0.100025 -0.367226
-2.81013 -7.37475 7.02338 0.598937 -0.245112 0.0306396 -1 8.49589 -0.310992 3.72563 -0.632572 0.310152 0.709689
1.37888 -0.50825 8.64587 0.109163 -0.0682465 0.781538 -0.0888889 8.51297 0.999862 3.96818 0.0043209 0.99807 -0.0619493
-4.75725 -4.3725 3.745 0.240903 -0.213419 0 -1 8.51896 0.137715 4.9068 -0.31198 0.546455 0.77721
-2.88225 -6.48225 6.32975 0.59626 -0.201461 0.800479 -1 8.56022 0.105173 3.72563 -0.654714 0.679947 0.330186
-5.07044 -6.35375 5.00331 0.6309 -0.161673 0.265465 -0.957747 8.57323 -0.625621 4.9068 0.358455 0.754102 0.55031
-9.33762 2.37037 9.08325 0.0137652 -0.29869 -0.193176 -0.777778 8.57551 -0.78017 0.692336 0.361501 -0.930176 -0.0639541
-11.772 1.0155 8.0525 -0.120183 -0.158779 0 -0.777813 8.63208 -0.688054 0.663922 -0.0128847 -0.133187 -0.991007
-8.25669 2.225 10.649 -0.118063 -0.330523 0 0.4 8.66365 -0.654195 0.692336 0.102 -0.921986 -0.373547
-3.42144 2.20444 13.4284 -0.243935 -0.219446 -0.116342 0.9093 8.70002 -0.172714 6.10612 0.306256 -0.504535 -0.80725
-0.118719 0.483594 14.4014 -0.026709 0.109231 0 0.4 8.71186 0.265661 2.35371 0.788998 0.16338 -0.592275
-7.01625 -5.99675 3.2625 0.0142378 0.144454 -0.13483 -0.961342 8.72242 -0.678956 4.9068 -0.752426 0.433991 -0.495487
-1.91937 -6.21275 14.6142 0.51438 0.258624 0.0700813 -0.50916 8.73686 -0.761247 3.83599 -0.314087 -0.892927 -0.322539
-1.88644 -9.22363 10.6494 0.397807 0.192172 0 0.844444 8.74096 -0.0799102 3.83599 -0.616614 0.425512 0.662365
-0.945625 -1.96769 6.20687 0.41249 -0.247259 0 -1 8.77652 0.0726819 3.96818 -0.792355 0.33976 0.506693
-4.87 -7.05025 15.4299 0.42535 0.223429 0 -0.0888889 8.82778 -0.21173 3.65442 0.602014 -0.722362 -0.340253
-3.731 -6.37675 15.2506 0.378683 0.254825 0 -0.2 8.85508 -0.78274 3.65442 0.146035 -0.903592 -0.402736
-6.11369 -4.90406 2.41894 0.0869857 -0.139568 0 -1 8.88881 0.106526 4.9068 -0.720725 0.693096 -0.0131379
-1.30175 1.72675 13.5933 -0.0387437 -0.08973 0 0.4 8.90944 0.635166 6.10612 0.251486 0.358882 -0.898865
-8.7625 2.4195 8.222 -0.157419 -0.3067 0 -0.777778 8.96961 0.0662672 0.663922 0.280303 -0.957877 -0.062466
-7.96863 -6.67513 3.78638 -0.661683 0.0804439 -0.306906 -0.777778 8.99942 -0.999901 4.9068 -0.299107 0.692448 -0.656544
-10.2933 -1.5525 3.79225 0.2774 -0.139714 0.732195 -0.866667 9.00931 0.441177 5.4557 0.67929 0.548711 0.487321
-5.345 0.7695 14.552 -0.0206934 -0.297514 0 0.933333 9.0094 0.669516 6.10612 -0.203801 -0.759961 -0.617191
-2.06519 2.4575 13.891 -0.0912767 -0.0767453 0 0.4 9.03144 0.0798758 6.10612 0.582739 0.418386 -0.696684
-2.77375 -9.09387 9.28175 0.433723 -0.153451 0 0.844444 9.04187 -0.218317 3.72563 -0.625672 0.758327 0.182961
-11.926 -2.06175 4.8235 0.08382 -0.103147 0 0.844444 9.0566 -0.421432 5.4557 0.214942 0.911725 0.350082
-4.98606 -4.13831 2.75444 0.0453553 -0.171531 0 -1 9.08486 -0.448578 4.9068 -0.707196 0.630495 0.319921
-6.0635 -9.55275 13.222 0.51936 0.124529 0 -0.0888889 9.11438 -0.999827 3.58187 0.961183 0.228341 -0.154877
-1.476 -3.1625 5.95813 0.62033 -0.280834 0.397828 -1 9.11814 0.0432137 3.96818 -0.693237 0.143144 0.706351
-4.09312 -6.05037 4.4095 0.490923 -0.203743 0 -1 9.12818 -0.999878 4.9068 -0.137521 0.544987 0.827089
-8.85525 2.47675 6.7845 -0.14394 -0.240925 0 -0.777778 9.16438 0.66176 0.663922 0.496342 -0.751685 -0.434297
-11.3206 -1.394 4.09538 0.428673 -0.14647 0.301046 -0.866667 9.17337 0.406092 5.4557 0.0982185 0.706631 0.700733
-9.01975 -6.191 4.01325 -0.53754 0.100568 0 -0.777778 9.17947 -0.871548 4.9068 0.243692 0.223039 -0.943858
-3.95025 -4.98125 4.1915 0.403797 -0.248637 0.703378 -1 9.27415 -0.439848 4.9068 -0.364018 0.223478 0.904184
-4.34269 -10.1756 10.3532 0.501757 0.145914 0 0.960233 9.28248 -0.382665 4.30531 0.0574804 0.76062 0.646648
-5.65947 -10.4865 12.0315 0.227417 0.087925 -0.128585 -0.0888889 9.32701 -0.867021 3.44916 0.739189 0.670298 0.0655765
-1.81662 -4.56588 5.56887 0.41354 -0.254108 0.340609 -1 9.34801 -0.672701 3.72563 -0.783066 0.239221 0.574091
-10.316 -5.06875 3.35775 -0.325391 0.142398 0 -0.809818 9.36015 -0.68097 5.26317 0.673115 -0.274309 -0.686783
-10.4847 2.58538 5.91437 -0.144598 -0.202744 0 -0.777778 9.36704 0.999835 0.663922 -0.122722 -0.723589 -0.679234
-13.1676 -0.608 7.422 -0.051514 -0.0540553 0 0.191585 9.37273 -0.999878 0.663922 0.357549 0.532034 -0.767528
2.11538 -0.606875 10.9895 0.0126506 0.0855241 0 -0.0888889 9.38881 0.999888 2.68582 0.181246 0.959523 0.21556
-3.04312 -9.22025 8.00725 0.43946 -0.160376 0 0.844444 9.41206 -0.999875 3.72563 -0.450346 0.747347 0.488529
-3.57711 -9.55381 9.77205 0.436577 -0.126707 0 0.913024 9.50127 0.132051 4.30531 -0.197054 0.922204 0.33273
-0.04025 -0.651 6.15987 0.19916 -0.175581 0 -1 9.52807 0.193422 3.96818 -0.333882 0.706318 0.62421
-3.82663 -9.5445 8.57913 0.41984 -0.1031 0 0.913713 9.53738 -0.8139 4.30531 -0.0289599 0.975135 0.219709
-6.381 0.66075 15.2494 0.00722077 -0.268853 0 0.933333 9.54647 -0.597313 1.64715 -0.00666402 -0.786907 -0.617035
-11.8441 3.039 6.80875 -0.203605 0.179643 0 -0.777778 9.55781 -0.129084 0.663922 -0.620274 -0.445901 -0.645316
-10.0218 -4.13219 2.61144 0.0095534 -0.142504 0 -0.866667 9.60539 0.0786728 5.26317 0.962657 -0.158563 -0.21943
-0.571625 -9.07475 11.6154 0.316279 0.218778 -0.00596384 -0.972213 9.63394 -0.150563 3.83599 -0.446835 -0.276825 0.850709
-8.04775 1.27894 13.8454 -0.0537283 -0.283153 0 0.652107 9.6446 -0.659816 0.651185 0.402317 -0.81053 -0.425655
-7.03288 1.72438 11.6827 -0.088661 -0.391092 0 -0.777778 9.65167 0.110981 0.692336 0.166318 -0.974006 -0.15379
1.572 -0.953875 7.497 0.332302 -0.0533114 0.197939 -0.676238 9.69277 0.159922 3.96818 0.0473165 0.987682 -0.149147
0.031 -7.35913 13.8882 0.636333 0.224321 0.318217 -0.960587 9.71185 -0.484615 3.83599 -0.612271 -0.790601 0.00867966
-12.9301 -1.75412 5.27763 0.055192 -0.0422142 0 0.844444 9.72783 -0.491279 5.4557 0.392603 0.909855 -0.134266
1.41825 -2.4965 14.165 -0.0174466 0.0845134 -0.188425 -0.2 9.74371 -0.577821 2.35371 0.754722 0.655694 0.021473
-12.7525 1.6205 7.86925 -0.21949 -0.148128 0 -0.789078 9.76264 -0.999865 0.663922 0.455324 -0.33272 -0.825819
-2.69287 -5.83144 5.22319 0.455863 -0.222588 0.425143 -1 9.77437 -0.739062 3.72563 -0.654214 0.459018 0.601088
-7.35575 -6.70587 2.56169 -0.151647 -0.12209 0 -0.485396 9.77563 -0.712272 4.9068 -0.706322 0.699094 -0.111252
-5.53575 1.5295 13.741 -0.000628653 -0.302422 0 0.933333 9.79072 -0.198105 6.10612 -0.121869 -0.773495 -0.621975
-10.0621 -2.179 2.79284 0.659237 -0.133966 0 -0.866667 9.80464 -0.0770625 5.4557 0.993385 0.114721 0.00508027
-7.16862 2.01875 10.3194 -0.231346 -0.398171 0 -0.777778 9.81911 0.403521 0.692336 -0.1478 -0.973047 -0.177015
-7.6435 1.70875 13.037 -0.0383143 -0.326494 0 0.173561 9.83318 -0.768098 0.651185 0.439389 -0.897843 -0.0285534
0.461 -0.8215 15.4971 -0.179853 0.112279 -0.262187 -0.00454918 9.8416 0.0375989 2.35371 0.923269 0.377674 0.0702589
1.475 -1.086 6.477 0.206609 -0.0933333 0 -1 9.8813 -0.482249 3.96818 0.0342105 0.968835 0.245335
-4.05363 -3.21913 3.93375 0.0999057 -0.248705 0 -1 9.88313 0.525863 4.9068 -0.710511 0.29783 0.637551
3 98 129 109
3 194 156 117
3 117 156 99
3 99 66 117
3 64 72 40
3 64 40 26
3 26 40 21
3 103 182 117
3 97 103 73
3 73 66 38
3 66 69 42
3 38 42 26
3 42 64 26
3 26 21 12
3 26 12 38
3 21 9 12
3 0 1 8
3 19 9 21
3 39 19 36
3 19 21 40
3 36 19 56
3 40 56 19
3 56 40 72
3 165 154 88
3 165 88 118
3 152 80 161
3 161 80 138
3 161 138 199
3 138 80 112
3 138 112 168
3 199 138 168
3 13 47 20
3 38 20 47
3 47 74 38
3 13 20 10
3 10 12 4
3 5 4 0
3 5 2 7
3 2 0 6
3 6 3 17
3 3 11 17
3 11 3 8
3 34 11 29
3 8 27 31
3 39 36 71
3 58 71 36
3 120 191 139
3 139 81 136
3 81 46 77
3 46 81 30
3 30 81 45
3 22 13 5
3 5 7 28
3 52 25 59
3 7 6 15
3 37 15 35
3 6 7 2
3 14 17 32
3 106 57 95
3 31 51 29
3 128 85 131
3 128 131 180
3 82 48 92
3 123 105 185
3 185 105 143
3 185 143 195
3 144 158 87
3 87 158 153
3 59 100 120
3 120 90 52
3 90 136 84
3 90 84 52
3 81 77 125
3 23 5 28
3 28 61 43
3 52 65 25
3 65 96 86
3 86 96 133
3 84 108 65
3 96 148 133
3 177 104 169
3 159 179 177
3 179 104 177
3 77 119 125
3 41 76 70
3 104 76 116
3 116 169 104
3 62 107 76
3 116 76 107
3 91 61 93
3 61 86 102
3 102 93 61
3 183 133 148
3 116 162 170
3 107 135 162
3 91 93 151
3 151 93 147
3 135 91 150
3 151 150 91
3 149 78 115
3 37 67 78
3 78 67 115
3 67 114 137
3 63 75 35
3 35 33 63
3 60 63 33
3 60 33 32
3 60 87 94
3 87 49 83
3 87 83 122
3 157 180 193
3 153 145 94
3 94 145 101
3 101 145 197
3 198 178 115
3 178 149 115
3 198 115 186
3 186 115 137
3 110 114 75
3 175 110 132
3 121 132 63
3 63 101 121
3 101 197 121
3 110 175 114
3 182 194 117
3 99 69 66
3 64 111 129
3 64 129 98
3 166 160 99
3 166 99 156
3 99 111 69
3 69 111 64
3 99 160 111
3 129 111 188
3 188 111 160
3 56 72 88
3 109 88 72
3 88 181 118
3 190 181 142
3 88 142 181
3 142 88 109
3 190 142 109
3 129 174 109
3 103 167 172
3 103 172 182
3 167 103 97
3 80 97 47
3 47 97 74
3 97 73 74
3 38 74 73
3 38 66 42
3 4 1 0
3 1 4 9
3 12 9 4
3 8 1 9
3 18 8 9
3 18 19 39
3 18 9 19
3 36 56 58
3 58 56 88
3 58 88 89
3 89 88 141
3 154 141 88
3 146 155 97
3 97 155 167
3 146 192 155
3 152 192 146
3 168 112 164
3 164 112 140
3 30 45 13
3 80 140 112
3 140 80 81
3 81 80 45
3 13 45 47
3 47 45 80
3 5 13 4
3 4 13 10
3 34 17 11
3 82 85 48
3 48 85 27
3 85 31 27
3 31 85 51
3 44 18 39
3 79 71 123
3 71 79 44
3 71 44 39
3 105 123 71
3 71 58 89
3 71 89 105
3 89 141 143
3 89 143 105
3 120 171 191
3 139 191 126
3 126 191 164
3 126 164 140
3 164 191 168
3 139 126 81
3 140 81 126
3 81 125 136
3 77 46 50
3 46 30 22
3 16 41 50
3 16 50 22
3 46 22 50
3 22 5 16
3 28 7 25
3 37 59 15
3 15 25 7
3 25 15 59
3 35 15 14
3 35 14 33
3 14 15 6
3 32 33 14
3 49 32 17
3 34 49 17
3 106 49 57
3 57 49 34
3 57 34 29
3 95 57 85
3 57 51 85
3 29 51 57
3 106 134 180
3 128 134 95
3 106 95 134
3 157 106 180
3 128 95 85
3 128 180 134
3 131 85 82
3 184 131 127
3 184 127 123
3 123 127 92
3 92 127 131
3 92 131 82
3 54 79 92
3 54 92 48
3 92 79 123
3 44 79 24
3 18 44 24
3 79 54 24
3 18 24 8
3 8 24 27
3 27 24 48
3 54 48 24
3 196 184 123
3 185 196 123
3 124 149 163
3 100 124 163
3 171 120 100
3 171 100 163
3 113 84 136
3 108 84 113
3 108 113 159
3 176 159 113
3 176 113 136
3 176 136 125
3 179 159 176
3 119 179 125
3 125 179 176
3 77 50 70
3 70 50 41
3 62 41 53
3 53 41 16
3 53 16 23
3 5 23 16
3 23 43 53
3 61 28 55
3 61 55 86
3 25 65 55
3 25 55 28
3 55 65 86
3 148 96 108
3 148 108 159
3 108 96 65
3 119 104 179
3 104 119 77
3 104 77 70
3 104 70 76
3 53 107 62
3 107 53 68
3 68 53 43
3 68 43 91
3 102 86 130
3 102 187 147
3 187 102 130
3 68 135 107
3 91 135 68
3 147 93 102
3 78 124 100
3 78 100 59
3 78 59 37
3 149 124 78
3 137 115 67
3 75 114 67
3 106 157 122
3 106 122 83
3 106 83 49
3 144 87 122
3 94 101 60
3 60 101 63
3 189 121 197
3 72 98 109
3 98 72 64
3 181 173 118
3 73 117 66
3 73 103 117
3 69 64 42
3 173 165 118
3 80 152 97
3 146 97 152
3 20 38 12
3 20 12 10
3 0 2 5
3 8 3 0
3 6 0 3
3 11 8 31
3 30 13 22
3 17 14 6
3 31 29 11
3 120 139 90
3 136 90 139
3 23 28 43
3 84 65 52
3 59 120 52
3 67 37 75
3 75 37 35
3 49 87 32
3 60 32 87
3 157 193 122
3 153 94 87
3 62 76 41
3 43 61 91
3 133 130 86
3 133 183 130
3 116 107 162
3 110 75 63
3 132 110 63
3 148 159 177
3 148 177 169
