ply
format ascii 1.0
comment Generated by PyMesh
element vertex 200
property float x
property float y
property float z
property float charge
property float ddc
property float hbond
property float hphob
property float rho
property float si
property float theta
property float nx
property float ny
property float nz
element face 359
property list uchar int vertex_indices
end_header
-2.68963 -5.70463 12.3524 0.373157 0 0 -0.2 1e-08 -0.389516 2.22045e-16 -0.260663 -0.948494 -0.180039
-2.78744 -5.99862 13.4154 0.311591 0.385871 0 -0.2 1.10723 -0.106675 3.7324 -0.0566234 -0.97951 -0.193273
-1.7585 -6.495 11.9974 0.3505 -0.533014 0 -1 1.27189 0.0230992 1.96674 -0.875271 -0.44215 0.195971
-2.011 -5.875 11.0615 0.37523 -0.230358 -0.0252554 -0.253553 1.46833 -0.495688 1.07228 -0.733903 -0.671001 -0.105567
-1.52013 -6.21325 13.1946 0.52676 0.162798 0 -0.2 1.52831 -0.524356 2.86082 -0.53448 -0.837967 0.110193
-3.67925 -5.23994 10.9784 0.37313 0.318472 0 -0.2 1.75589 -0.054301 2.22045e-16 -0.0577555 -0.859388 -0.508052
-1.91937 -6.21275 14.6142 0.51438 -0.101879 0.0700813 -0.50916 2.60273 -0.761247 3.40578 -0.314087 -0.892927 -0.322539
-5.308 -5.77575 12.31 0.303794 -0.302366 0 -0.2 2.61968 -0.624294 5.31442 0.323934 -0.933786 -0.152023
-0.950875 -7.54581 12.4346 0.0322214 -0.30391 -0.245019 -1 2.66746 0.0521168 2.37233 -0.632297 -0.545991 0.549632
-1.90625 -6.818 10.2917 0.36039 -0.368576 -0.276012 -0.372184 2.69014 -0.273895 1.34017 -0.962724 -0.18519 0.197148
-4.83238 -6.22475 14.045 0.203985 -0.302398 0 -0.172968 2.77971 -0.343419 4.59309 0.337459 -0.863933 -0.373821
-4.92338 -5.55363 11.0901 0.315841 -0.372029 0 -0.2 3.04381 0.080399 5.77544 0.467586 -0.821285 -0.326885
-2.61469 -4.94441 9.86416 0.323553 0.331625 0 -0.0888889 3.10052 0.0684234 0.610736 -0.775368 -0.219062 -0.592297
-3.731 -6.37675 15.2506 0.378683 -0.213183 0 -0.2 3.20515 -0.78274 4.10307 0.146035 -0.903592 -0.402736
-1.463 -8.376 11.3333 0.176508 -0.310976 -0.105314 -1 3.28845 0.32598 1.98506 -0.806276 -0.255371 0.533577
-1.71375 -7.84975 10.351 0.248422 -0.343522 -0.236758 -0.347251 3.40449 -0.791293 1.6305 -0.959066 -0.0283712 0.281756
0.031 -7.35913 13.8882 0.636333 -0.061256 0.318217 -0.960587 3.57773 -0.484615 2.86876 -0.612271 -0.790601 0.00867966
-5.725 -6.1115 13.164 0.28495 -0.411899 0 -0.199861 3.62761 -0.999881 5.03578 0.778413 -0.53643 -0.326062
-3.67 -3.37725 10.0363 0.238417 0.433245 0 -0.2 3.8433 0.259178 0.205652 0.0528347 0.22804 -0.972217
-1.30838 -7.12044 15.2753 0.716963 -0.137761 0.477581 -0.777778 3.88112 -0.300777 3.34698 -0.452784 -0.683757 -0.572243
-6.14825 -6.61194 11.79 0.412833 -0.411484 0 -0.120257 3.91414 -0.444363 5.36782 0.929507 -0.355159 -0.0993885
-5.271 -4.34734 9.45378 0.429117 0.361269 0 -0.2 4.13389 0.0790899 6.05543 0.716884 -0.165769 -0.677199
-2.309 -6.189 8.945 0.43995 -0.32666 0 -0.0888889 4.23009 0.159897 1.00132 -0.990824 0.123307 -0.0553434
-2.13225 -8.094 9.39625 0.419197 -0.319429 0 0.107925 4.26528 -0.0980801 1.46824 -0.947777 0.184363 0.260248
-4.87 -7.05025 15.4299 0.42535 -0.274627 0 -0.0888889 4.39242 -0.21173 4.31916 0.602014 -0.722362 -0.340253
-0.571625 -9.07475 11.6154 0.316279 -0.283066 -0.00596384 -0.972213 4.44301 -0.150563 2.15916 -0.446835 -0.276825 0.850709
-1.88644 -9.22363 10.6494 0.397807 -0.383117 0 0.844444 4.457 -0.0799102 1.8156 -0.616614 0.425512 0.662365
-2.18438 -7.15963 8.50113 0.52569 -0.243312 0 -0.0888889 4.5341 -0.211752 1.19277 -0.97819 -0.0684411 0.19611
-5.70131 -7.94219 14.2342 0.465197 -0.383674 0 -0.0888889 4.71373 -0.359134 4.65299 0.924738 -0.100025 -0.367226
-2.83406 -7.02481 16.3614 0.508743 -0.141717 0.125341 -0.777778 4.73553 -0.497239 3.81015 -0.213924 -0.73017 -0.648913
-6.17556 -5.75075 9.81419 0.51025 -0.331245 0 -0.0888889 4.84236 -0.485206 5.80243 0.879245 -0.409227 -0.243849
-3.648 -2.5685 10.791 0.102482 0.514258 0 -0.2 4.9497 0.243116 0.231206 0.0512143 0.888126 -0.456737
-4.73887 -2.95038 10.0363 0.168411 0.408195 0 -0.2 4.99425 0.440618 0.0459928 0.215907 0.495566 -0.841308
1.14525 -8.562 12.9073 0.701093 -0.12003 0.394016 -1 5.0444 -0.868068 2.57815 -0.669011 -0.647723 0.364526
-2.55194 -2.87169 10.2829 0.0562423 0.445971 -0.338533 -0.154071 5.09488 -0.147396 0.382487 -0.412992 0.578452 -0.703442
-6.10838 -7.2915 10.8197 0.50502 -0.44438 0 -0.0888889 5.09942 0.0510481 5.43 0.978062 0.207388 -0.01962
-1.40675 -8.23525 16.089 0.725003 -0.119213 0.431927 -0.777778 5.2648 0.999761 3.47289 -0.400395 -0.658658 -0.637066
-2.77375 -9.09387 9.28175 0.433723 -0.365296 0 0.844444 5.45875 -0.218317 1.52717 -0.625672 0.758327 0.182961
-1.03 -3.787 8.5425 0.191599 0.278511 -0.000550657 -0.0888889 5.46645 -0.66072 0.663053 -0.841293 0.29785 -0.451123
0.717875 -8.19975 15.5052 0.615783 -0.0787848 0.45129 -0.784236 5.52532 -0.999819 3.02487 -0.62321 -0.649262 -0.435968
-4.4885 -6.99975 16.5465 0.454337 -0.211888 0 0.0897651 5.57347 -0.999917 4.14941 0.437605 -0.720127 -0.538441
-2.3525 -6.17938 7.56938 0.610377 -0.273337 0.281908 -0.506213 5.60643 0.253721 1.06617 -0.928894 0.314033 0.196315
-2.162 -8.0945 7.9165 0.50133 -0.260688 0 -0.0888889 5.63695 -0.999892 1.26319 -0.909633 0.295624 0.291845
-5.04875 -7.88225 16.3645 0.37142 -0.290684 0 -0.0888889 5.6564 -0.724377 4.29836 0.850945 -0.254382 -0.459545
-6.14838 -8.3445 12.8004 0.305386 -0.394194 0 -0.0888889 5.9198 -0.577007 4.97904 0.998638 0.0306221 -0.0422442
-5.61875 -4.25737 7.6965 1 -0.308399 0.473898 -0.866667 5.92751 0.429686 0.0317492 0.978629 0.118664 -0.167943
-6.27887 -7.16625 9.82987 0.573587 -0.381703 0 -0.0888889 5.95533 -0.176118 5.64025 0.968248 0.150609 -0.199533
-1.33125 -10.4866 11.3071 0.442793 -0.317981 0 0.844444 5.98536 -0.463431 1.95856 -0.287108 0.373615 0.882032
-6.351 -2.99425 8.68025 0.534287 0.33747 0 -0.533636 6.0301 -0.0896829 0.0317492 0.659098 0.746601 -0.0904267
-0.02625 -10.5835 11.7972 0.48142 -0.281391 0 0.844444 6.05757 -0.487368 1.95856 -0.321326 0.311059 0.894423
-3.47725 -2.18625 11.8475 0.0116938 0.479461 0 -0.2 6.08613 -0.07272 0.231206 -0.3464 0.841313 -0.414969
-6.2445 -5.67425 8.35825 0.839817 -0.286866 0.48189 -0.866667 6.1109 -0.593974 5.80243 0.940384 -0.316391 0.124801
1.0125 -9.58212 11.8576 0.541577 -0.236095 0 0.844444 6.12394 -0.999884 2.57815 -0.547629 -0.0482876 0.835327
-5.82725 -2.50425 9.9965 0.16658 0.371489 0 -0.2 6.13412 0.279194 0.0459928 0.185066 0.85031 -0.49267
-2.81013 -7.37475 7.02338 0.598937 -0.261454 0.0306396 -1 6.15323 -0.310992 1.26319 -0.632572 0.310152 0.709689
-5.26237 -9.369 14.8328 0.507297 -0.349812 0 0.78746 6.32208 -0.00494616 4.65299 0.932581 0.232313 -0.276268
-5.77 -8.44 10.563 0.568423 -0.412155 0 -0.0888889 6.32393 0.23855 5.43 0.951713 0.306736 0.0124313
1.367 -8.79813 14.2028 0.718097 -0.137514 0.843431 -0.613031 6.37978 -0.559924 2.57815 -0.938835 -0.300511 -0.168172
-3.57711 -9.55381 9.77205 0.436577 -0.397409 0 0.913024 6.39016 0.132051 1.52717 -0.197054 0.922204 0.33273
-1.991 -1.967 11.037 -0.109312 0.427428 0 -0.2 6.3994 0.0152856 0.382487 -0.456314 0.833743 -0.310886
-1.70119 -8.70938 17.1994 0.389983 -0.127943 -0.101352 -0.270878 6.50757 -0.548145 3.47289 -0.367204 -0.522871 -0.769264
-3.23534 -8.48941 17.304 0.459237 -0.191191 0 1 6.52286 -0.219011 3.81015 0.0843109 -0.374124 -0.923538
0.859375 -9.032 16.0446 0.606747 -0.136915 0.111683 -0.67574 6.52713 -0.952634 3.02487 -0.710914 -0.271388 -0.648807
-1.62925 -2.0845 9.506 -0.3736 0.320271 -0.239979 -0.0888889 6.53523 0.693731 0.382487 -0.672234 0.587866 -0.450016
-0.464 -8.9755 16.604 0.345343 -0.14909 -0.748025 -0.777778 6.5694 -0.275687 3.47289 -0.386586 -0.387961 -0.836683
-4.30062 -7.94225 17.1379 0.42654 -0.229924 0 1 6.63169 -0.999876 4.29836 0.324397 -0.263037 -0.908613
-1.69987 -5.249 6.81862 0.450617 0.265989 0.09057 -0.79922 6.63345 -0.615685 1.06617 -0.818807 0.560268 0.125122
1.891 -9.97425 13.0087 0.663363 -0.17735 0 -0.795671 6.64467 -0.999902 2.57815 -0.975146 0.0577273 0.213912
-6.0635 -9.55275 13.222 0.51936 -0.347613 0 -0.0888889 6.65013 -0.999827 4.97904 0.961183 0.228341 -0.154877
-3.04312 -9.22025 8.00725 0.43946 -0.309936 0 0.844444 6.76752 -0.999875 1.52717 -0.450346 0.747347 0.488529
-6.60156 -7.33588 8.79594 0.630253 -0.318501 0 -0.256651 6.77392 -0.999867 5.64025 0.994857 0.0992303 0.0203263
-3.82663 -9.5445 8.57913 0.41984 -0.351322 0 0.913713 6.80237 -0.8139 1.52717 -0.0289599 0.975135 0.219709
-0.620125 -2.47038 8.16737 0.103473 0.224802 -0.60344 -0.38732 6.89551 -0.131727 0.663053 -0.933496 0.310793 -0.178866
-0.949313 -4.12856 7.11919 0.359443 0.235443 0 -0.584002 6.9324 -0.611672 0.663053 -0.913709 0.35722 0.193727
-3.302 -11.1471 11.4605 0.51537 -0.329363 0 0.844444 6.97919 -0.374138 1.95856 -0.0613465 0.694598 0.716778
-2.88225 -6.48225 6.32975 0.59626 -0.268674 0.800479 -1 6.98811 0.105173 1.06617 -0.654714 0.679947 0.330186
-4.34269 -10.1756 10.3532 0.501757 -0.364448 0 0.960233 7.10787 -0.382665 1.52717 0.0574804 0.76062 0.646648
-4.86794 -9.33075 16.6371 0.158079 -0.275784 0 0.933333 7.14138 -0.363641 4.29836 0.851016 0.0549026 -0.522261
-5.41463 -10.342 13.8094 0.499113 -0.33956 0 0.271149 7.16765 -0.471593 4.65299 0.814785 0.508942 -0.277674
-0.359 -11.5591 12.3024 0.46941 -0.277592 0 0.0556884 7.2055 -0.631845 1.95856 -0.345776 0.698796 0.626197
1.30375 -9.7405 15.091 0.842973 -0.151668 0.804214 -0.177778 7.22495 -0.763863 3.02487 -0.953067 -0.0709761 -0.294322
0.863875 -10.9526 12.4683 0.536653 -0.262043 0 -0.405929 7.23185 -0.802259 1.95856 -0.584743 0.680737 0.441217
-5.79563 -5.69025 7.32412 0.66977 -0.293888 0.297821 -0.863844 7.23836 0.225146 0.0317492 0.957859 0.0303151 0.285636
-6.951 -2.5145 9.9525 0.198646 0.33875 0 -0.2 7.25878 -0.0955885 0.0459928 0.21621 0.976343 0.00262576
-6.14975 -8.38775 9.2365 0.642467 -0.355778 0 0.597371 7.31944 -0.682244 5.64025 0.864514 0.496605 -0.0774548
-3.15875 -1.42963 12.8542 0.0612547 0.369757 0.542764 0.4 7.38511 0.166984 0.231206 -0.499533 0.666475 -0.553423
-2.33325 -1.6125 12.1005 0.0651217 0.425004 0.0357752 -0.134356 7.39071 -0.221343 0.231206 -0.27871 0.82363 -0.493918
-6.187 -2.8705 7.317 0.785327 0.288947 0.122961 -0.866667 7.40874 0.873616 0.0317492 0.76518 0.638045 -0.0860097
-7.16125 -2.234 7.76575 0.524633 0.271045 0.104137 -0.866667 7.46912 0.213785 0.0317492 0.557123 0.812604 -0.171138
-4.69075 -2.53175 13.1115 -0.183255 0.473296 0 -0.2 7.49399 -0.383292 0.231206 -0.350228 0.931539 -0.0978508
-4.8805 -10.495 14.9487 0.529893 -0.315762 0 0.933333 7.51671 0.0710405 4.65299 0.932964 0.341581 -0.11358
-6.2165 -2.099 11.352 -0.0479317 0.373697 0 -0.2 7.60148 0.734313 0.0459928 -0.0671779 0.99727 0.0306544
-6.22325 -6.96025 7.58225 0.517227 -0.287728 0 -0.777778 7.61304 -0.999844 5.64025 0.827747 0.0783912 0.555599
-1.37625 -11.8694 12.1976 0.44997 -0.297579 0 0.172882 7.6307 -0.701319 1.95856 -0.0962332 0.842831 0.529505
-5.27969 -9.23044 9.6165 0.54384 -0.386087 0 1 7.65098 -0.152386 5.43 0.552825 0.793218 0.255323
-5.6675 -9.7635 11.0267 0.39355 -0.365424 0 0.661547 7.73006 -0.536952 4.97904 0.829797 0.432144 0.353113
-6.109 -8.09013 8.2005 0.609747 -0.328225 0.0100599 -0.777778 7.85376 -0.999782 5.64025 0.704026 0.548252 0.451407
-0.47025 -1.53 9.122 -0.106855 0.29465 -0.47734 -0.0888889 7.8762 0.17356 0.663053 -0.559631 0.807507 -0.186402
-6.4485 -3.06988 6.36562 0.82373 0.246345 0.232478 -0.866667 7.8947 0.999867 0.0317492 0.581447 0.599726 -0.549771
-0.977813 -1.33644 11.9819 0.0576827 0.403757 0 -0.155669 7.92157 -0.143982 0.382487 -0.0664935 0.980925 -0.18266
0.578125 -10.3691 16.4349 0.671563 -0.165219 0.772204 -0.777778 7.94814 -0.790541 3.02487 -0.656737 0.0802966 -0.749832
1.3825 -10.685 14.0083 0.679477 -0.211177 0 -0.777778 7.97243 -0.469737 2.57815 -0.884948 0.461274 -0.0639818
-4.3105 -11.2565 11.5763 0.575097 -0.339761 0 -0.0888889 8.00019 -0.758212 1.95856 0.336622 0.872277 0.354709
-0.7125 -3.14287 6.77037 0.40072 -0.193374 0 -1 8.00447 -0.786713 0.663053 -0.909629 0.176453 0.376085
-4.2395 -8.5735 7.08169 0.515497 -0.298606 0 -0.918367 8.01965 -0.999835 1.52717 0.129076 0.635443 0.761282
-1.81662 -4.56588 5.56887 0.41354 -0.195337 0.340609 -1 8.06249 -0.672701 1.06617 -0.783066 0.239221 0.574091
-4.69228 -7.21006 6.58134 0.7131 -0.307954 0.096704 -0.777778 8.0936 -0.0381626 1.26319 0.412367 0.69768 0.585829
-6.111 -5.624 6.089 0.57352 -0.26395 0.517632 -0.801127 8.09408 -0.586464 0.0317492 0.902457 0.418943 -0.100291
-1.69675 -10.2355 17.6903 0.185506 -0.175256 -0.96332 -0.155556 8.11071 -0.618305 3.47289 -0.451623 0.102526 -0.886298
-5.05225 -9.12525 8.24525 0.259349 -0.339266 0.0785852 0.778944 8.14005 -0.999817 1.52717 0.439157 0.814084 0.380011
-8.08497 -1.88934 9.36447 0.207993 0.273993 0 -0.866667 8.19704 -0.139227 0.0459928 0.524179 0.786561 0.326433
-4.754 -10.953 13.301 0.49652 -0.348538 0 -0.0888889 8.2012 -0.214181 4.65299 0.543967 0.839005 -0.01308
-0.426 -1.17206 10.6077 -0.082501 0.336749 0 -0.0888889 8.20646 0.701762 0.382487 -0.363504 0.925447 -0.106831
-5.65947 -10.4865 12.0315 0.227417 -0.349327 -0.128585 -0.0888889 8.21615 -0.867021 4.97904 0.739189 0.670298 0.0655765
1.146 -10.677 15.4235 0.742833 -0.192239 0.919687 -0.770309 8.23117 -0.870795 3.02487 -0.849498 0.391589 -0.353568
-3.716 -6.85975 5.448 0.579937 -0.259792 0.268141 -1 8.25899 -0.999864 1.06617 -0.263335 0.865654 0.425791
-2.527 -11.704 12.3365 0.47286 -0.327872 0 0.377778 8.27461 -0.344293 1.95856 0.176489 0.927301 0.330096
-2.69287 -5.83144 5.22319 0.455863 -0.214821 0.425143 -1 8.28576 -0.739062 1.06617 -0.654214 0.459018 0.601088
-6.624 -4.5115 5.5635 0.468287 0.234382 0 -0.866667 8.29917 0.1465 0.0317492 0.517749 0.639978 -0.567772
-2.68175 -10.0616 18.0147 0.35608 -0.160825 -0.163447 0.805938 8.33486 -0.999815 3.47289 -0.147886 -0.169386 -0.974391
-0.595 -12.0105 13.363 0.571243 -0.269548 0 -0.777778 8.38208 -0.55804 1.95856 -0.371538 0.892576 0.255475
-0.030375 -1.28225 7.4885 0.122921 0.244214 0.00467234 -0.980047 8.38559 0.180699 0.663053 -0.531229 0.845946 0.0465979
-3.79075 -10.2222 18.0065 0.518913 -0.196007 0 1 8.47339 -0.999869 4.29836 0.409482 -0.0532152 -0.910765
-1.476 -3.1625 5.95813 0.62033 -0.191103 0.397828 -1 8.532 0.0432137 0.663053 -0.693237 0.143144 0.706351
-4.7185 -11.2759 15.6766 0.578807 -0.28693 0 0.933333 8.59647 -0.73533 4.65299 0.793706 0.608294 -0.00312074
-7.99203 -2.64528 11.2072 0.106454 0.311187 0 -0.2 8.61847 -0.397675 0.0459928 -0.0144315 0.992396 0.122235
-5.72906 -2.47112 12.6509 -0.209615 0.431944 0 -0.2 8.63149 -0.310485 0.231206 -0.0788777 0.986902 0.140719
-4.765 -2.518 14.248 -0.200502 0.423209 0 -0.2 8.63299 -0.84256 0.231206 -0.364464 0.919285 -0.148599
-3.69738 -1.33834 13.9881 0.059151 0.297885 0.407209 0.4 8.64376 -0.414425 0.231206 -0.730711 0.470451 -0.494709
0.35525 -11.5347 13.7522 0.667707 -0.254744 0 -0.777778 8.7305 -0.291285 1.95856 -0.562823 0.806709 0.18014
-8.17025 -1.88312 7.04 0.270622 0.217709 0.232979 -0.866667 8.7606 0.677647 0.0317492 0.329029 0.739171 -0.587679
-1.63806 -0.748062 12.9071 0.207123 0.340311 0 0.0257813 8.76226 0.00689755 0.231206 -0.00624998 0.683988 -0.729466
-4.07681 -11.5229 14.4209 0.577033 -0.314781 0 -0.0320473 8.92421 -0.205529 4.65299 0.611204 0.778348 0.143542
-4.66625 -11.0845 16.892 0.400423 -0.251834 0 0.924591 8.92499 -0.999824 4.29836 0.873862 0.373752 -0.310925
-0.945625 -1.96769 6.20687 0.41249 0.190364 0 -1 8.94544 0.0726819 0.663053 -0.792355 0.33976 0.506693
-0.125625 -11.4201 16.4508 0.673607 -0.200598 0.224245 -0.755853 9.04206 -0.666246 3.02487 -0.505807 0.513905 -0.692864
-1.66 -12.3445 13.6494 0.337317 -0.285767 0 -0.213366 9.1844 -0.547249 1.95856 0.0749592 0.965726 0.248506
-8.26437 -1.01525 8.31125 0.0134116 0.23921 0 -0.866667 9.20111 0.802344 0.0317492 0.555904 0.831173 -0.0110874
-7.69875 -3.17213 5.98338 0.781853 0.209916 0.112886 -0.866667 9.20607 0.118032 0.0317492 0.299425 0.616534 -0.728169
-2.817 -4.43525 4.809 0.438413 -0.172921 0.745353 -1 9.32551 -0.632374 1.06617 -0.582432 0.0504241 0.811314
-0.731875 -12.3286 14.3022 0.31214 -0.253855 0 -0.777778 9.38309 -0.760783 1.95856 -0.356289 0.916199 0.183404
0.656875 -0.954625 11.0969 0.257629 0.318378 0 -0.0888889 9.41444 0.407777 0.382487 -0.172353 0.969797 0.17259
-7.5915 -4.8935 5.11925 -0.00991547 0.211472 0.514298 -0.866667 9.43025 -0.813618 0.0317492 0.355514 0.720587 -0.595285
-6.183 -5.011 4.536 0.226191 -0.231246 0.967173 -1 9.52381 0.0722563 0.0317492 0.30348 0.907268 0.291145
-3.58612 -11.5753 13.3752 0.592123 -0.331404 0 -0.0888889 9.52661 -0.179518 1.95856 0.367699 0.920854 0.129709
-9.06 -0.9825 9.4 0.0107298 0.23154 0 -0.866667 9.52907 0.0899438 0.0459928 0.709073 0.625695 0.325148
-0.27 -0.883 13.3573 0.187824 0.340754 0 -0.2 9.5335 -0.074031 0.382487 0.52276 0.654727 -0.545943
0.94725 -0.8885 9.82619 0.196768 0.288981 0.025898 -0.0888889 9.58404 0.0536257 0.663053 -0.162998 0.986589 -0.00857057
-4.09312 -6.05037 4.4095 0.490923 -0.215784 0 -1 9.62859 -0.999878 1.06617 -0.137521 0.544987 0.827089
-2.90569 0.68025 13.7451 0.049932 0.197829 0 0.4 9.68931 0.0684272 0.231206 -0.312653 0.115108 -0.942867
-2.77225 -11.4105 17.805 0.318332 -0.19751 -0.902352 -0.0792444 9.70296 -0.999855 3.47289 -0.18764 0.469214 -0.862919
-5.07044 -6.35375 5.00331 0.6309 -0.251239 0.265465 -0.957747 9.7717 -0.625621 1.06617 0.358455 0.754102 0.55031
-5.90675 -2.65587 14.3011 -0.117535 0.397565 0 -0.2 9.78426 -0.7564 0.231206 0.000315313 0.991663 -0.12886
0.243813 -11.8969 14.8194 0.741507 -0.229503 0 -0.777778 9.82261 -0.780262 3.02487 -0.612517 0.78779 -0.0648907
-8.982 -2.2765 6.4235 0.0985167 0.193389 0 -0.866667 9.85319 0.225585 0.0317492 0.208589 0.693139 -0.689962
-0.04025 -0.651 6.15987 0.19916 0.208541 0 -1 9.85658 0.193422 0.663053 -0.333882 0.706318 0.62421
-9.14338 -2.21881 10.6134 0.047993 -0.259217 0 -0.866667 9.86695 -0.594547 0.0459928 0.525658 0.686227 0.502768
-5.15737 -2.20863 15.3814 -0.0770677 0.317546 -0.423582 0.4 9.87165 -0.999859 0.231206 -0.285748 0.688131 -0.666951
-1.22113 0.0809375 13.5485 0.0400333 0.267618 0 0.4 9.89029 -0.0746796 0.231206 0.27894 0.353428 -0.892906
-3.83075 -0.304 14.6757 -0.026281 0.180592 -0.0434052 0.446411 9.89293 -0.560929 0.231206 -0.607594 -0.0369576 -0.793388
-3.862 -11.6217 17.6195 0.456137 -0.224877 0 0.844444 9.92716 -0.999908 4.29836 0.410813 0.59085 -0.694355
0.721 -1.61625 13.153 0.124071 0.370664 0 -0.2 10.0038 -0.13008 0.382487 0.550536 0.834086 0.034786
1.572 -0.953875 7.497 0.332302 0.241063 0.197939 -0.676238 10.0213 0.159922 0.663053 0.0473165 0.987682 -0.149147
1.37888 -0.50825 8.64587 0.109163 0.255394 0.781538 -0.0888889 10.0418 0.999862 0.663053 0.0043209 0.99807 -0.0619493
-1.8625 -1.868 5.281 0.414427 0.183375 0 -1 10.0432 0.454107 0.663053 -0.642916 0.358324 0.676951
-3.95025 -4.98125 4.1915 0.403797 -0.182163 0.703378 -1 10.121 -0.439848 1.06617 -0.364018 0.223478 0.904184
-7.58725 -5.17525 4.094 -0.0551233 0.179601 0.672859 -1 10.1774 0.185181 0.0317492 -0.109349 0.717811 -0.687598
1.475 -1.086 6.477 0.206609 0.227579 0 -1 10.2098 -0.482249 0.663053 0.0342105 0.968835 0.245335
-9.42325 -2.72775 11.9522 -0.069941 -0.269064 0 -0.779522 10.2341 -0.999869 0.0459928 0.61736 0.784708 -0.0556738
1.33506 -1.27988 11.9929 0.171192 0.324445 0 -0.184761 10.2352 0.187838 0.382487 0.263704 0.797677 0.542376
-1.62603 -12.0646 16.4171 0.82776 -0.228623 0 -0.155556 10.3404 -0.320341 3.47289 -0.241147 0.799142 -0.550654
-2.7135 -12.04 14.0715 0.477123 -0.303242 0 -0.0888889 10.3594 0.363528 1.95856 0.366581 0.883477 0.291696
-9.39925 -0.69575 8.29525 0.0114345 0.206622 0 -0.866667 10.3802 0.0238771 0.0317492 0.516402 0.75225 -0.409204
-3.354 -12.5258 15.707 0.242015 -0.260939 0 0.844444 10.4472 -0.99985 4.65299 0.334248 0.942454 0.00765007
-8.49575 -2.5645 12.975 -0.0942213 0.290051 -0.18369 -0.368789 10.4584 -0.54535 0.0459928 0.186533 0.919786 -0.345252
-8.35437 -4.16412 4.94775 -0.453847 0.196265 -0.475452 -0.816929 10.4995 -0.0223487 0.0317492 0.570471 0.599126 -0.561793
-8.9555 -3.102 5.67 -0.219211 0.19789 -0.300687 -0.821164 10.5032 -0.278896 0.0317492 0.401153 0.74822 -0.528435
-7.47087 -2.52638 13.4104 -0.0864843 0.335212 0 -0.2 10.5325 -0.109034 0.231206 0.181217 0.970668 -0.157999
-3.12075 -3.278 4.64725 0.334693 -0.16564 0 -1 10.5328 0.461773 0.663053 -0.612575 0.0962018 0.784536
-1.08025 -12.5326 15.4539 0.558363 -0.239032 -0.201973 -0.583904 10.6035 -0.999834 1.95856 -0.267539 0.945742 -0.184376
-9.65375 -0.18225 9.868 -0.0384657 -0.201576 0 -0.866667 10.63 0.035881 0.0459928 0.944339 0.32223 0.066263
-9.64669 -1.105 10.3852 -0.036121 -0.210988 0 -0.866667 10.6823 -0.146609 0.0459928 0.861516 0.199114 0.467058
-5.116 -5.535 4.308 0.53344 -0.213019 0.132085 -1 10.7342 -0.573461 0.0317492 0.188106 0.463336 0.865988
-3.116 -12.246 16.7978 0.290008 -0.243425 0 0.844444 10.7796 -0.684144 4.29836 0.255258 0.896528 -0.36205
-10.148 -1.38462 7.12813 0.016896 0.174542 0 -0.866667 10.8021 -0.219836 0.0317492 0.229914 0.611414 -0.757174
-4.75675 0.05125 15.3105 -0.106209 0.128789 -0.141506 0.669609 10.8351 -0.407501 0.231206 -0.547288 -0.301542 -0.780735
2.11538 -0.606875 10.9895 0.0126506 0.276861 0 -0.0888889 10.9177 0.999888 0.382487 0.181246 0.959523 0.21556
-9.886 -2.553 5.83125 -0.130164 0.184536 0 -0.84122 10.9687 -0.205416 0.0317492 0.231542 0.833637 -0.501436
-7.06962 -2.47638 14.4404 -0.0257032 0.329462 0.0962312 -0.376944 10.9691 -0.731081 0.231206 0.328211 0.848099 -0.415938
-2.44412 -12.6461 15.2684 0.373663 -0.260234 0.245125 -0.124628 11.0084 -0.577566 1.95856 0.108394 0.994106 0.00173444
-4.18175 0.935375 14.1839 -0.0221448 0.105495 0 0.924198 11.0626 -0.18944 0.231206 -0.205217 -0.606615 -0.768052
-3.2065 -2.32675 4.27975 0.130018 -0.169331 0 -1 11.0835 0.539275 0.663053 -0.661631 0.374437 0.649648
-5.79569 -1.33506 16.1006 -0.0309629 0.224419 0 0.4 11.1708 -0.999871 0.231206 -0.124208 0.290816 -0.948682
0.959188 -0.337687 5.328 0.221576 0.206457 0 -1 11.1941 0.471389 0.663053 0.259281 0.892907 0.368089
-4.75725 -4.3725 3.745 0.240903 -0.188997 0 -1 11.2261 0.137715 0.0317492 -0.31198 0.546455 0.77721
-0.8 0.19875 5.3555 0.085571 0.198816 0 -1 11.2517 0.999928 0.663053 -0.210525 0.880777 0.42416
-0.118719 0.483594 14.4014 -0.026709 0.241844 0 0.4 11.2599 0.265661 0.382487 0.788998 0.16338 -0.592275
-4.05363 -3.21913 3.93375 0.0999057 -0.160018 0 -1 11.2683 0.525863 1.06617 -0.710511 0.29783 0.637551
-3.42144 2.20444 13.4284 -0.243935 0.136558 -0.116342 0.9093 11.3293 -0.172714 0.231206 0.306256 -0.504535 -0.80725
-10.237 -1.322 11.2058 -0.214441 -0.205186 -0.238289 -0.866667 11.4003 -0.926325 0.0459928 0.927756 0.180387 0.326696
3 184 172 130
3 130 172 137
3 175 176 138
3 176 187 154
3 138 154 130
3 154 184 130
3 130 137 88
3 130 88 138
3 137 110 88
3 53 83 125
3 145 110 137
3 181 145 180
3 145 137 172
3 194 143 182
3 194 182 165
3 197 194 165
3 45 118 98
3 138 98 118
3 118 142 138
3 45 98 87
3 87 88 48
3 21 48 53
3 21 32 18
3 32 53 31
3 31 91 89
3 91 126 89
3 126 91 125
3 127 126 152
3 125 174 177
3 197 178 191
3 139 123 178
3 66 117 75
3 75 106 54
3 106 92 96
3 92 106 82
3 82 106 107
3 51 45 21
3 21 18 5
3 22 12 38
3 18 31 34
3 63 34 59
3 31 18 32
3 50 89 85
3 185 157 192
3 177 188 152
3 38 73 66
3 66 41 22
3 41 54 27
3 41 27 22
3 106 96 104
3 11 21 5
3 5 0 7
3 22 9 12
3 9 15 2
3 2 15 14
3 27 23 9
3 15 26 14
3 58 94 76
3 37 71 58
3 71 94 58
3 96 109 104
3 46 56 84
3 94 56 95
3 95 76 94
3 35 44 56
3 95 56 44
3 10 0 1
3 0 2 4
3 4 1 0
3 16 8 33
3 25 33 8
3 49 25 47
3 25 14 26
3 95 68 113
3 44 28 68
3 10 1 13
3 13 1 6
3 6 19 29
3 29 13 6
3 29 36 60
3 61 29 60
3 60 36 64
3 101 81 129
3 93 47 74
3 93 74 116
3 136 116 144
3 144 102 111
3 144 132 171
3 90 132 78
3 111 78 132
3 78 28 55
3 28 24 43
3 28 10 24
3 13 24 10
3 28 43 77
3 28 77 55
3 122 61 119
3 108 64 135
3 108 135 170
3 57 101 80
3 140 153 129
3 140 129 120
3 124 132 90
3 90 77 133
3 134 72 121
3 63 97 72
3 72 97 121
3 97 147 163
3 99 112 59
3 59 86 99
3 131 99 86
3 131 86 85
3 131 149 158
3 149 128 159
3 149 159 190
3 158 196 146
3 167 155 121
3 155 134 121
3 167 121 162
3 162 121 163
3 141 147 112
3 186 141 169
3 161 169 99
3 99 146 161
3 141 186 147
3 143 166 118
3 118 166 142
3 166 175 142
3 138 142 175
3 138 176 154
3 48 83 53
3 83 48 110
3 88 110 48
3 125 83 110
3 156 125 110
3 156 145 181
3 156 110 145
3 165 182 148
3 148 182 151
3 82 107 45
3 143 151 182
3 151 143 106
3 106 143 107
3 45 107 118
3 118 107 143
3 21 45 48
3 48 45 87
3 127 89 126
3 199 156 181
3 123 191 178
3 66 105 117
3 117 105 139
3 139 105 123
3 75 117 115
3 115 117 148
3 115 148 151
3 148 117 165
3 139 165 117
3 75 115 106
3 151 106 115
3 106 104 54
3 96 92 70
3 92 82 51
3 30 46 70
3 30 70 51
3 92 51 70
3 51 21 30
3 5 18 12
3 63 38 34
3 34 12 18
3 12 34 38
3 59 34 50
3 59 50 86
3 50 34 31
3 85 86 50
3 128 85 89
3 127 128 89
3 185 128 157
3 157 128 127
3 157 127 152
3 152 188 157
3 156 199 168
3 156 168 125
3 125 168 174
3 134 164 123
3 103 134 123
3 73 103 123
3 105 66 73
3 105 73 123
3 42 27 54
3 23 27 42
3 23 42 37
3 69 37 42
3 69 42 54
3 69 54 104
3 71 37 69
3 109 71 104
3 104 71 69
3 96 70 84
3 84 70 46
3 35 46 20
3 20 46 30
3 20 30 11
3 21 11 30
3 11 7 20
3 0 5 3
3 0 3 2
3 12 9 3
3 12 3 5
3 3 9 2
3 26 15 23
3 26 23 37
3 23 15 9
3 109 94 71
3 94 109 96
3 94 96 84
3 94 84 56
3 20 44 35
3 44 20 17
3 17 20 7
3 17 7 10
3 4 2 8
3 6 16 19
3 4 16 6
3 16 4 8
3 52 33 25
3 52 25 49
3 26 47 25
3 26 74 47
3 76 102 74
3 102 76 95
3 102 95 113
3 78 111 113
3 78 113 68
3 78 68 28
3 17 28 44
3 10 28 17
3 6 1 4
3 13 29 24
3 24 29 40
3 24 40 43
3 29 61 65
3 29 65 40
3 40 65 43
3 62 39 80
3 39 62 64
3 39 64 36
3 57 80 39
3 57 39 33
3 33 39 16
3 16 39 19
3 19 39 36
3 101 67 81
3 81 67 52
3 67 33 52
3 49 81 52
3 57 33 67
3 57 67 101
3 120 129 81
3 120 81 79
3 79 81 49
3 93 120 79
3 93 79 47
3 47 79 49
3 120 93 136
3 116 136 93
3 102 144 116
3 102 116 74
3 113 111 102
3 61 77 65
3 65 77 43
3 133 160 183
3 160 133 122
3 61 122 77
3 77 122 133
3 119 150 122
3 122 150 160
3 183 160 150
3 183 150 170
3 108 150 119
3 64 108 60
3 60 108 119
3 60 119 61
3 100 135 64
3 114 135 100
3 114 100 80
3 80 100 62
3 62 100 64
3 153 135 114
3 153 114 101
3 101 114 80
3 136 140 120
3 170 179 189
3 189 179 136
3 189 136 171
3 136 179 140
3 170 173 183
3 173 189 171
3 189 173 170
3 124 183 173
3 124 173 132
3 132 173 171
3 133 183 124
3 90 133 124
3 179 170 135
3 179 153 140
3 153 179 135
3 72 103 73
3 72 73 38
3 72 38 63
3 134 103 72
3 163 121 97
3 112 147 97
3 185 190 159
3 185 159 128
3 198 149 190
3 193 155 167
3 158 146 131
3 131 146 99
3 187 184 154
3 98 138 88
3 98 88 87
3 53 32 21
3 125 91 53
3 31 53 91
3 126 125 177
3 165 139 197
3 178 197 139
3 82 45 51
3 89 50 31
3 177 152 126
3 66 75 41
3 54 41 75
3 11 5 7
3 27 9 22
3 38 66 22
3 97 63 112
3 112 63 59
3 128 149 85
3 131 85 149
3 195 155 193
3 191 123 164
3 35 56 46
3 7 0 10
3 14 8 2
3 14 25 8
3 26 76 74
3 95 44 68
3 19 36 29
3 111 132 144
3 101 129 153
3 144 171 136
3 78 55 90
3 90 55 77
3 108 170 150
3 141 112 99
3 169 141 99
3 26 37 58
3 26 58 76
