ply
format ascii 1.0
comment Generated by PyMesh
element vertex 185
property float x
property float y
property float z
property float nx
property float ny
property float nz
element face 332
property list uchar int vertex_indices
end_header
-5.77 -8.44 10.563 0.951713 0.306736 0.0124313
-6.10838 -7.2915 10.8197 0.978062 0.207388 -0.01962
-5.27969 -9.23044 9.6165 0.552825 0.793218 0.255323
-6.14975 -8.38775 9.2365 0.864514 0.496605 -0.0774548
-5.6675 -9.7635 11.0267 0.829797 0.432144 0.353113
-6.27887 -7.16625 9.82987 0.968248 0.150609 -0.199533
-6.14838 -8.3445 12.8004 0.998638 0.0306221 -0.0422442
-6.14825 -6.61194 11.79 0.929507 -0.355159 -0.0993885
-6.109 -8.09013 8.2005 0.704026 0.548252 0.451407
-6.60156 -7.33588 8.79594 0.994857 0.0992303 0.0203263
-5.65947 -10.4865 12.0315 0.739189 0.670298 0.0655765
-5.05225 -9.12525 8.24525 0.439157 0.814084 0.380011
-4.34269 -10.1756 10.3532 0.0574804 0.76062 0.646648
-6.17556 -5.75075 9.81419 0.879245 -0.409227 -0.243849
-3.57711 -9.55381 9.77205 -0.197054 0.922204 0.33273
-3.82663 -9.5445 8.57913 -0.0289599 0.975135 0.219709
-4.3105 -11.2565 11.5763 0.336622 0.872277 0.354709
-6.0635 -9.55275 13.222 0.961183 0.228341 -0.154877
-5.308 -5.77575 12.31 0.323934 -0.933786 -0.152023
-6.22325 -6.96025 7.58225 0.827747 0.0783912 0.555599
-5.70131 -7.94219 14.2342 0.924738 -0.100025 -0.367226
-5.725 -6.1115 13.164 0.778413 -0.53643 -0.326062
-2.77375 -9.09387 9.28175 -0.625672 0.758327 0.182961
-3.04312 -9.22025 8.00725 -0.450346 0.747347 0.488529
-4.92338 -5.55363 11.0901 0.467586 -0.821285 -0.326885
-4.2395 -8.5735 7.08169 0.129076 0.635443 0.761282
-4.754 -10.953 13.301 0.543967 0.839005 -0.01308
-6.2445 -5.67425 8.35825 0.940384 -0.316391 0.124801
-5.41463 -10.342 13.8094 0.814785 0.508942 -0.277674
-3.302 -11.1471 11.4605 -0.0613465 0.694598 0.716778
-5.271 -4.34734 9.45378 0.716884 -0.165769 -0.677199
-4.69228 -7.21006 6.58134 0.412367 0.69768 0.585829
-1.88644 -9.22363 10.6494 -0.616614 0.425512 0.662365
-5.79563 -5.69025 7.32412 0.957859 0.0303151 0.285636
-4.83238 -6.22475 14.045 0.337459 -0.863933 -0.373821
-2.13225 -8.094 9.39625 -0.947777 0.184363 0.260248
-5.26237 -9.369 14.8328 0.932581 0.232313 -0.276268
-3.67925 -5.23994 10.9784 -0.0577555 -0.859388 -0.508052
-3.58612 -11.5753 13.3752 0.367699 0.920854 0.129709
-2.527 -11.704 12.3365 0.176489 0.927301 0.330096
-4.87 -7.05025 15.4299 0.602014 -0.722362 -0.340253
-2.162 -8.0945 7.9165 -0.909633 0.295624 0.291845
-4.07681 -11.5229 14.4209 0.611204 0.778348 0.143542
-4.8805 -10.495 14.9487 0.932964 0.341581 -0.11358
-5.61875 -4.25737 7.6965 0.978629 0.118664 -0.167943
-5.04875 -7.88225 16.3645 0.850945 -0.254382 -0.459545
-2.81013 -7.37475 7.02338 -0.632572 0.310152 0.709689
-1.463 -8.376 11.3333 -0.806276 -0.255371 0.533577
-4.73887 -2.95038 10.0363 0.215907 0.495566 -0.841308
-3.716 -6.85975 5.448 -0.263335 0.865654 0.425791
-2.68963 -5.70463 12.3524 -0.260663 -0.948494 -0.180039
-1.71375 -7.84975 10.351 -0.959066 -0.0283712 0.281756
-6.111 -5.624 6.089 0.902457 0.418943 -0.100291
-1.33125 -10.4866 11.3071 -0.287108 0.373615 0.882032
-6.351 -2.99425 8.68025 0.659098 0.746601 -0.0904267
-2.18438 -7.15963 8.50113 -0.97819 -0.0684411 0.19611
-5.07044 -6.35375 5.00331 0.358455 0.754102 0.55031
-0.571625 -9.07475 11.6154 -0.446835 -0.276825 0.850709
-3.67 -3.37725 10.0363 0.0528347 0.22804 -0.972217
-1.37625 -11.8694 12.1976 -0.0962332 0.842831 0.529505
-2.7135 -12.04 14.0715 0.366581 0.883477 0.291696
-5.82725 -2.50425 9.9965 0.185066 0.85031 -0.49267
-4.4885 -6.99975 16.5465 0.437605 -0.720127 -0.538441
-4.86794 -9.33075 16.6371 0.851016 0.0549026 -0.522261
-2.88225 -6.48225 6.32975 -0.654714 0.679947 0.330186
-4.7185 -11.2759 15.6766 0.793706 0.608294 -0.00312074
-3.731 -6.37675 15.2506 0.146035 -0.903592 -0.402736
-1.90625 -6.818 10.2917 -0.962724 -0.18519 0.197148
-2.61469 -4.94441 9.86416 -0.775368 -0.219062 -0.592297
-4.30062 -7.94225 17.1379 0.324397 -0.263037 -0.908613
-1.66 -12.3445 13.6494 0.0749592 0.965726 0.248506
-2.011 -5.875 11.0615 -0.733903 -0.671001 -0.105567
-2.78744 -5.99862 13.4154 -0.0566234 -0.97951 -0.193273
-3.354 -12.5258 15.707 0.334248 0.942454 0.00765007
-2.3525 -6.17938 7.56938 -0.928894 0.314033 0.196315
-6.187 -2.8705 7.317 0.76518 0.638045 -0.0860097
-1.7585 -6.495 11.9974 -0.875271 -0.44215 0.195971
-0.950875 -7.54581 12.4346 -0.632297 -0.545991 0.549632
-3.648 -2.5685 10.791 0.0512143 0.888126 -0.456737
-2.309 -6.189 8.945 -0.990824 0.123307 -0.0553434
-4.09312 -6.05037 4.4095 -0.137521 0.544987 0.827089
-5.116 -5.535 4.308 0.188106 0.463336 0.865988
-0.359 -11.5591 12.3024 -0.345776 0.698796 0.626197
-6.624 -4.5115 5.5635 0.517749 0.639978 -0.567772
-4.66625 -11.0845 16.892 0.873862 0.373752 -0.310925
-2.83406 -7.02481 16.3614 -0.213924 -0.73017 -0.648913
-2.69287 -5.83144 5.22319 -0.654214 0.459018 0.601088
-6.951 -2.5145 9.9525 0.21621 0.976343 0.00262576
-1.52013 -6.21325 13.1946 -0.53448 -0.837967 0.110193
-2.55194 -2.87169 10.2829 -0.412992 0.578452 -0.703442
-0.02625 -10.5835 11.7972 -0.321326 0.311059 0.894423
-6.4485 -3.06988 6.36562 0.581447 0.599726 -0.549771
-7.16125 -2.234 7.76575 0.557123 0.812604 -0.171138
-2.44412 -12.6461 15.2684 0.108394 0.994106 0.00173444
-6.183 -5.011 4.536 0.30348 0.907268 0.291145
-0.595 -12.0105 13.363 -0.371538 0.892576 0.255475
-6.2165 -2.099 11.352 -0.0671779 0.99727 0.0306544
1.0125 -9.58212 11.8576 -0.547629 -0.0482876 0.835327
-0.731875 -12.3286 14.3022 -0.356289 0.916199 0.183404
-3.23534 -8.48941 17.304 0.0843109 -0.374124 -0.923538
-1.69987 -5.249 6.81862 -0.818807 0.560268 0.125122
-3.116 -12.246 16.7978 0.255258 0.896528 -0.36205
-3.79075 -10.2222 18.0065 0.409482 -0.0532152 -0.910765
-8.08497 -1.88934 9.36447 0.524179 0.786561 0.326433
-1.91937 -6.21275 14.6142 -0.314087 -0.892927 -0.322539
-3.95025 -4.98125 4.1915 -0.364018 0.223478 0.904184
-3.47725 -2.18625 11.8475 -0.3464 0.841313 -0.414969
1.14525 -8.562 12.9073 -0.669011 -0.647723 0.364526
-7.5915 -4.8935 5.11925 0.355514 0.720587 -0.595285
-3.862 -11.6217 17.6195 0.410813 0.59085 -0.694355
-4.75725 -4.3725 3.745 -0.31198 0.546455 0.77721
-1.08025 -12.5326 15.4539 -0.267539 0.945742 -0.184376
0.863875 -10.9526 12.4683 -0.584743 0.680737 0.441217
-7.99203 -2.64528 11.2072 -0.0144315 0.992396 0.122235
-1.991 -1.967 11.037 -0.456314 0.833743 -0.310886
0.35525 -11.5347 13.7522 -0.562823 0.806709 0.18014
-2.817 -4.43525 4.809 -0.582432 0.0504241 0.811314
-8.17025 -1.88312 7.04 0.329029 0.739171 -0.587679
-7.69875 -3.17213 5.98338 0.299425 0.616534 -0.728169
-1.62925 -2.0845 9.506 -0.672234 0.587866 -0.450016
-1.81662 -4.56588 5.56887 -0.783066 0.239221 0.574091
-1.03 -3.787 8.5425 -0.841293 0.29785 -0.451123
0.031 -7.35913 13.8882 -0.612271 -0.790601 0.00867966
-1.62603 -12.0646 16.4171 -0.241147 0.799142 -0.550654
0.243813 -11.8969 14.8194 -0.612517 0.78779 -0.0648907
-7.58725 -5.17525 4.094 -0.109349 0.717811 -0.687598
-5.72906 -2.47112 12.6509 -0.0788777 0.986902 0.140719
-1.30838 -7.12044 15.2753 -0.452784 -0.683757 -0.572243
-1.40675 -8.23525 16.089 -0.400395 -0.658658 -0.637066
-8.26437 -1.01525 8.31125 0.555904 0.831173 -0.0110874
-2.68175 -10.0616 18.0147 -0.147886 -0.169386 -0.974391
1.891 -9.97425 13.0087 -0.975146 0.0577273 0.213912
-1.70119 -8.70938 17.1994 -0.367204 -0.522871 -0.769264
-0.949313 -4.12856 7.11919 -0.913709 0.35722 0.193727
-8.35437 -4.16412 4.94775 0.570471 0.599126 -0.561793
-2.77225 -11.4105 17.805 -0.18764 0.469214 -0.862919
-4.98606 -4.13831 2.75444 -0.707196 0.630495 0.319921
-9.06 -0.9825 9.4 0.709073 0.625695 0.325148
-3.15875 -1.42963 12.8542 -0.499533 0.666475 -0.553423
-2.33325 -1.6125 12.1005 -0.27871 0.82363 -0.493918
1.367 -8.79813 14.2028 -0.938835 -0.300511 -0.168172
-6.11369 -4.90406 2.41894 -0.720725 0.693096 -0.0131379
-4.69075 -2.53175 13.1115 -0.350228 0.931539 -0.0978508
-4.05363 -3.21913 3.93375 -0.710511 0.29783 0.637551
-8.982 -2.2765 6.4235 0.208589 0.693139 -0.689962
-9.14338 -2.21881 10.6134 0.525658 0.686227 0.502768
-3.12075 -3.278 4.64725 -0.612575 0.0962018 0.784536
1.3825 -10.685 14.0083 -0.884948 0.461274 -0.0639818
-8.9555 -3.102 5.67 0.401153 0.74822 -0.528435
-0.47025 -1.53 9.122 -0.559631 0.807507 -0.186402
-0.977813 -1.33644 11.9819 -0.0664935 0.980925 -0.18266
-9.42325 -2.72775 11.9522 0.61736 0.784708 -0.0556738
-0.620125 -2.47038 8.16737 -0.933496 0.310793 -0.178866
-7.01625 -5.99675 3.2625 -0.752426 0.433991 -0.495487
-1.69675 -10.2355 17.6903 -0.451623 0.102526 -0.886298
-1.476 -3.1625 5.95813 -0.693237 0.143144 0.706351
-0.125625 -11.4201 16.4508 -0.505807 0.513905 -0.692864
-9.39925 -0.69575 8.29525 0.516402 0.75225 -0.409204
-0.464 -8.9755 16.604 -0.386586 -0.387961 -0.836683
-0.7125 -3.14287 6.77037 -0.909629 0.176453 0.376085
-0.426 -1.17206 10.6077 -0.363504 0.925447 -0.106831
-8.49575 -2.5645 12.975 0.186533 0.919786 -0.345252
-8.94312 -4.58262 4.06213 0.560501 0.160938 -0.812366
-7.96863 -6.67513 3.78638 -0.299107 0.692448 -0.656544
1.146 -10.677 15.4235 -0.849498 0.391589 -0.353568
-9.65375 -0.18225 9.868 0.944339 0.32223 0.066263
-9.64669 -1.105 10.3852 0.861516 0.199114 0.467058
-5.90675 -2.65587 14.3011 0.000315313 0.991663 -0.12886
-4.561 -3.0465 2.529 -0.805122 0.509933 0.302898
-9.01975 -6.191 4.01325 0.243692 0.223039 -0.943858
-4.765 -2.518 14.248 -0.364464 0.919285 -0.148599
-10.148 -1.38462 7.12813 0.229914 0.611414 -0.757174
0.717875 -8.19975 15.5052 -0.62321 -0.649262 -0.435968
-3.69738 -1.33834 13.9881 -0.730711 0.470451 -0.494709
-6.46925 -5.10881 1.25181 -0.779521 0.411465 0.472275
-7.47087 -2.52638 13.4104 0.181217 0.970668 -0.157999
1.30375 -9.7405 15.091 -0.953067 -0.0709761 -0.294322
-1.63806 -0.748062 12.9071 -0.00624998 0.683988 -0.729466
-3.2065 -2.32675 4.27975 -0.661631 0.374437 0.649648
-9.886 -2.553 5.83125 0.231542 0.833637 -0.501436
-5.76875 -4.03025 1.206 -0.659128 0.428587 0.617951
-9.5915 -3.258 3.9775 0.845598 0.469669 -0.25372
-5.19125 -3.15313 1.31638 -0.612573 0.506803 0.606552
-7.35575 -6.70587 2.56169 -0.706322 0.699094 -0.111252
-10.237 -1.322 11.2058 0.927756 0.180387 0.326696
3 171 157 117
3 117 157 129
3 125 162 134
3 134 148 118
3 148 179 144
3 118 144 117
3 144 171 117
3 117 129 92
3 117 92 118
3 129 103 92
3 61 87 113
3 137 103 129
3 166 137 165
3 137 129 157
3 141 94 136
3 136 94 110
3 136 110 143
3 110 94 81
3 110 81 105
3 143 110 105
3 44 83 91
3 118 91 83
3 83 108 118
3 44 91 75
3 75 92 54
3 30 54 61
3 30 48 58
3 48 61 78
3 78 96 142
3 96 126 142
3 126 96 113
3 170 126 167
3 113 161 175
3 143 146 178
3 116 155 146
3 100 86 64
3 64 31 46
3 31 19 8
3 19 31 33
3 33 31 52
3 27 44 30
3 30 58 37
3 79 68 121
3 58 78 89
3 119 89 114
3 78 58 48
3 106 142 138
3 121 133 100
3 100 74 79
3 74 46 55
3 74 55 79
3 31 8 25
3 24 30 37
3 37 50 18
3 79 67 68
3 67 51 76
3 76 51 47
3 55 35 67
3 51 32 47
3 14 2 12
3 22 15 14
3 15 2 14
3 8 11 25
3 5 0 3
3 2 0 4
3 4 12 2
3 1 6 0
3 4 0 6
3 34 50 72
3 50 76 88
3 88 72 50
3 122 77 107
3 57 107 77
3 90 57 53
3 57 47 32
3 4 17 10
3 6 20 17
3 34 72 66
3 66 72 104
3 104 127 85
3 85 66 104
3 85 128 132
3 99 85 132
3 132 128 158
3 147 112 115
3 59 53 29
3 59 29 39
3 70 39 38
3 38 16 26
3 38 42 60
3 43 42 28
3 26 28 42
3 28 20 36
3 20 40 45
3 20 34 40
3 66 40 34
3 20 45 63
3 20 63 36
3 102 99 130
3 154 158 156
3 154 156 123
3 140 147 176
3 98 124 115
3 98 115 95
3 65 42 43
3 43 63 84
3 119 149 152
3 150 160 114
3 114 139 150
3 177 150 139
3 177 139 138
3 141 174 183
3 169 162 125
3 94 125 83
3 83 125 108
3 125 134 108
3 118 108 134
3 118 148 144
3 54 87 61
3 87 54 103
3 92 103 54
3 113 87 103
3 145 113 103
3 145 137 166
3 145 103 137
3 174 141 180
3 153 163 125
3 125 163 169
3 153 183 163
3 141 183 153
3 105 81 80
3 80 81 56
3 33 52 44
3 94 56 81
3 56 94 31
3 31 94 52
3 44 52 83
3 83 52 94
3 30 44 54
3 54 44 75
3 170 142 126
3 184 145 166
3 155 178 146
3 100 120 86
3 86 120 116
3 116 120 155
3 64 86 49
3 49 86 80
3 49 80 56
3 80 86 105
3 116 105 86
3 64 49 31
3 56 31 49
3 31 25 46
3 8 19 9
3 19 33 27
3 13 5 9
3 13 9 27
3 19 27 9
3 27 30 13
3 37 58 68
3 119 121 89
3 89 68 58
3 68 89 121
3 114 89 106
3 114 106 139
3 106 89 78
3 138 139 106
3 173 138 142
3 170 173 142
3 145 184 151
3 145 151 113
3 113 151 161
3 133 159 155
3 120 100 133
3 120 133 155
3 41 55 46
3 35 55 41
3 35 41 22
3 23 22 41
3 23 41 46
3 23 46 25
3 15 22 23
3 11 15 25
3 25 15 23
3 8 9 3
3 3 9 5
3 1 5 7
3 7 5 13
3 7 13 24
3 30 24 13
3 24 18 7
3 50 37 71
3 50 71 76
3 68 67 71
3 68 71 37
3 71 67 76
3 32 51 35
3 32 35 22
3 35 51 67
3 11 2 15
3 2 11 8
3 2 8 3
3 2 3 0
3 7 6 1
3 6 7 21
3 21 7 18
3 21 18 34
3 88 76 77
3 104 122 127
3 88 122 104
3 122 88 77
3 97 107 57
3 97 57 90
3 32 53 57
3 32 29 53
3 12 16 29
3 16 12 4
3 16 4 10
3 28 26 10
3 28 10 17
3 28 17 20
3 21 20 6
3 34 20 21
3 104 72 88
3 66 85 40
3 40 85 62
3 40 62 45
3 85 99 69
3 85 69 62
3 62 69 45
3 172 158 128
3 140 176 172
3 140 172 107
3 107 172 122
3 122 172 127
3 127 172 128
3 147 131 112
3 112 131 97
3 131 107 97
3 90 112 97
3 140 107 131
3 140 131 147
3 95 115 112
3 95 112 82
3 82 112 90
3 59 95 82
3 59 82 53
3 53 82 90
3 95 59 70
3 39 70 59
3 16 38 39
3 16 39 29
3 10 26 16
3 99 63 69
3 69 63 45
3 84 109 101
3 109 84 102
3 99 102 63
3 63 102 84
3 130 135 102
3 102 135 109
3 101 109 135
3 101 135 123
3 154 135 130
3 158 154 132
3 132 154 130
3 132 130 99
3 124 156 164
3 124 164 147
3 147 164 176
3 70 98 95
3 123 111 93
3 93 111 70
3 93 70 60
3 70 111 98
3 123 73 101
3 73 93 60
3 93 73 123
3 65 101 73
3 65 73 42
3 42 73 60
3 84 101 65
3 43 84 65
3 111 123 156
3 111 124 98
3 124 111 156
3 152 159 133
3 152 133 121
3 152 121 119
3 180 141 136
3 180 136 182
3 182 136 168
3 134 181 148
3 134 162 181
3 179 171 144
3 94 141 125
3 153 125 141
3 91 118 92
3 91 92 75
3 61 48 30
3 113 96 61
3 78 61 96
3 126 113 175
3 168 136 143
3 105 116 143
3 146 143 116
3 33 44 27
3 142 106 78
3 175 167 126
3 100 64 74
3 46 74 64
3 24 37 18
3 55 67 79
3 121 100 79
3 149 119 160
3 160 119 114
3 1 0 5
3 18 50 34
3 47 77 76
3 47 57 77
3 32 12 29
3 4 6 17
3 127 128 85
3 26 42 38
3 147 115 124
3 38 60 70
3 28 36 43
3 43 36 63
3 154 123 135
3 32 22 14
3 32 14 12
