ply
format ascii 1.0
comment Generated by PyMesh
element vertex 200
property float x
property float y
property float z
property float charge
property float ddc
property float hbond
property float hphob
property float rho
property float si
property float theta
property float nx
property float ny
property float nz
element face 328
property list uchar int vertex_indices
end_header
-0.47025 -1.53 9.122 -0.106855 0 -0.47734 -0.0888889 1e-08 0.17356 2.22045e-16 -0.559631 0.807507 -0.186402
-1.62925 -2.0845 9.506 -0.3736 0.325248 -0.239979 -0.0888889 1.34097 0.693731 2.22045e-16 -0.672234 0.587866 -0.450016
-0.620125 -2.47038 8.16737 0.103473 0.513863 -0.60344 -0.38732 1.34837 -0.131727 4.96866 -0.933496 0.310793 -0.178866
-0.426 -1.17206 10.6077 -0.082501 0.105987 0 -0.0888889 1.52885 0.701762 1.39123 -0.363504 0.925447 -0.106831
0.94725 -0.8885 9.82619 0.196768 0.228598 0.025898 -0.0888889 1.70784 0.0536257 2.31886 -0.162998 0.986589 -0.00857057
-0.030375 -1.28225 7.4885 0.122921 -0.114898 0.00467234 -0.980047 1.70973 0.180699 3.95241 -0.531229 0.845946 0.0465979
1.37888 -0.50825 8.64587 0.109163 0.246568 0.781538 -0.0888889 2.16563 0.999862 2.93768 0.0043209 0.99807 -0.0619493
0.656875 -0.954625 11.0969 0.257629 0.20228 0 -0.0888889 2.73683 0.407777 1.80583 -0.172353 0.969797 0.17259
-1.03 -3.787 8.5425 0.191599 0.299269 -0.000550657 -0.0888889 2.77743 -0.66072 5.44926 -0.841293 0.29785 -0.451123
-2.55194 -2.87169 10.2829 0.0562423 -0.228851 -0.338533 -0.154071 2.78132 -0.147396 0.0499792 -0.412992 0.578452 -0.703442
-0.7125 -3.14287 6.77037 0.40072 0.330901 0 -1 2.90155 -0.786713 4.836 -0.909629 0.176453 0.376085
-1.991 -1.967 11.037 -0.109312 -0.0686762 0 -0.2 2.91851 0.0152856 0.535556 -0.456314 0.833743 -0.310886
-0.977813 -1.33644 11.9819 0.0576827 -0.15652 0 -0.155669 3.0188 -0.143982 1.16232 -0.0664935 0.980925 -0.18266
-0.04025 -0.651 6.15987 0.19916 -0.25749 0 -1 3.18073 0.193422 4.01703 -0.333882 0.706318 0.62421
-0.949313 -4.12856 7.11919 0.359443 0.219737 0 -0.584002 3.33749 -0.611672 5.08492 -0.913709 0.35722 0.193727
1.572 -0.953875 7.497 0.332302 0.211743 0.197939 -0.676238 3.34543 0.159922 3.3446 0.0473165 0.987682 -0.149147
2.11538 -0.606875 10.9895 0.0126506 0.235298 0 -0.0888889 3.3803 0.999888 2.17026 0.181246 0.959523 0.21556
-0.945625 -1.96769 6.20687 0.41249 -0.294797 0 -1 3.3983 0.0726819 4.43818 -0.792355 0.33976 0.506693
1.475 -1.086 6.477 0.206609 0.203742 0 -1 3.53396 -0.482249 3.57902 0.0342105 0.968835 0.245335
2.82544 -1.15769 9.54619 0.00558137 0.332603 0 -0.0888889 3.62577 0.459066 2.60466 0.599762 0.800153 -0.00639302
1.33506 -1.27988 11.9929 0.171192 0.303548 0 -0.184761 3.90668 0.187838 1.84562 0.263704 0.797677 0.542376
-1.476 -3.1625 5.95813 0.62033 -0.304419 0.397828 -1 4.01648 0.0432137 4.70005 -0.693237 0.143144 0.706351
-3.648 -2.5685 10.791 0.102482 -0.169907 0 -0.2 4.02689 0.243116 0.131163 0.0512143 0.888126 -0.456737
-3.67 -3.37725 10.0363 0.238417 -0.308359 0 -0.2 4.0329 0.259178 6.27038 0.0528347 0.22804 -0.972217
-2.33325 -1.6125 12.1005 0.0651217 -0.117563 0.0357752 -0.134356 4.09062 -0.221343 0.679557 -0.27871 0.82363 -0.493918
3.03312 -1.56288 8.17488 0.181967 0.305733 0 -0.227267 4.1832 0.0566503 2.96877 0.589905 0.806294 0.0436145
-1.63806 -0.748062 12.9071 0.207123 -0.193873 0 0.0257813 4.29868 0.00689755 1.13957 -0.00624998 0.683988 -0.729466
0.959188 -0.337687 5.328 0.221576 -0.217817 0 -1 4.51828 0.471389 3.78796 0.259281 0.892907 0.368089
-0.8 0.19875 5.3555 0.085571 -0.154533 0 -1 4.57583 0.999928 4.03087 -0.210525 0.880777 0.42416
-3.47725 -2.18625 11.8475 0.0116938 -0.0753131 0 -0.2 4.62553 -0.07272 0.403953 -0.3464 0.841313 -0.414969
-0.27 -0.883 13.3573 0.187824 -0.260464 0 -0.2 4.63073 -0.074031 1.35873 0.52276 0.654727 -0.545943
-1.8625 -1.868 5.281 0.414427 -0.236941 0 -1 4.70514 0.454107 4.51849 -0.642916 0.358324 0.676951
-1.69987 -5.249 6.81862 0.450617 0.112175 0.09057 -0.79922 4.71918 -0.615685 5.16602 -0.818807 0.560268 0.125122
2.43925 -0.98075 5.77775 0.0355903 0.213632 0 -1 4.72971 0.262274 3.45528 0.418149 0.902916 0.0994703
3.34275 -2.1375 9.62875 -0.085986 0.394447 0 -0.0888889 4.73683 0.296307 2.63204 0.924517 0.35699 0.133518
3.03731 -1.60906 11.3639 0.0088269 0.356415 0 -0.0888889 4.79257 0.999849 2.23372 0.822196 0.430406 0.372484
-2.61469 -4.94441 9.86416 0.323553 0.290647 0 -0.0888889 4.89684 0.0684234 5.89431 -0.775368 -0.219062 -0.592297
0.721 -1.61625 13.153 0.124071 0.254149 0 -0.2 5.10104 -0.13008 1.61066 0.550536 0.834086 0.034786
-1.81662 -4.56588 5.56887 0.41354 0.203063 0.340609 -1 5.16696 -0.672701 4.90749 -0.783066 0.239221 0.574091
-4.73887 -2.95038 10.0363 0.168411 -0.230938 0 -0.2 5.18386 0.440618 0.0397465 0.215907 0.495566 -0.841308
-3.15875 -1.42963 12.8542 0.0612547 -0.0970021 0.542764 0.4 5.2233 0.166984 0.61999 -0.499533 0.666475 -0.553423
-1.46512 -0.271688 4.48956 0.241391 -0.110988 0 -1 5.40875 0.332596 0.864557 -0.643815 0.680922 0.349067
-1.22113 0.0809375 13.5485 0.0400333 -0.249314 0 0.4 5.42672 -0.0746796 1.33238 0.27894 0.353428 -0.892906
-2.309 -6.189 8.945 0.43995 0.176046 0 -0.0888889 5.52833 0.159897 5.60523 -0.990824 0.123307 -0.0553434
3.951 -2.715 8.351 0.00131711 0.320028 0 -1 5.66674 -0.112759 2.8712 0.766733 0.415315 0.489524
3.51962 -1.40988 6.73475 -0.0179534 0.221421 0 -1 5.71096 0.492425 3.13485 0.511254 0.858688 0.0357044
-5.271 -4.34734 9.45378 0.429117 -0.300216 0 -0.2 5.99341 0.0790899 6.21042 0.716884 -0.165769 -0.677199
2.086 -0.48375 4.345 0.0228864 0.181253 0 -1 6.02073 0.65583 3.78796 0.497996 0.855802 -0.140014
-0.033125 0.231 4.12725 0.321074 0.120078 0 -1 6.02419 0.559973 4.03087 0.120133 0.987108 -0.105764
-2.31381 -1.10175 4.2515 0.100769 -0.113606 0 -1 6.06554 0.465965 0.864557 -0.672386 0.636115 0.37849
-2.3525 -6.17938 7.56938 0.610377 0.146277 0.281908 -0.506213 6.08123 0.253721 5.16602 -0.928894 0.314033 0.196315
-3.67925 -5.23994 10.9784 0.37313 0.344079 0 -0.2 6.12031 -0.054301 5.89431 -0.0577555 -0.859388 -0.508052
-3.12075 -3.278 4.64725 0.334693 -0.219652 0 -1 6.12288 0.461773 4.70005 -0.612575 0.0962018 0.784536
2.98381 -2.79806 11.9629 -0.0177105 0.316634 0 -0.0888889 6.12501 0.0389693 2.23372 0.843361 0.450121 0.293484
2.8865 -1.308 4.4665 -0.0228323 0.236593 0 -1 6.15326 0.87811 3.45528 0.783732 0.484477 -0.388647
3.38225 -3.56625 9.8885 -0.149365 0.390845 0 -0.0888889 6.18954 -0.133335 2.63204 0.981964 0.029861 0.186693
-2.817 -4.43525 4.809 0.438413 -0.219526 0.745353 -1 6.19332 -0.632374 4.90749 -0.582432 0.0504241 0.811314
2.2445 -2.9305 13.324 -0.0321753 0.216057 -0.242896 -0.0993964 6.21394 -0.199769 1.61066 0.529716 0.796814 0.29067
3.3575 -2.14669 5.14825 -0.036672 0.236914 -0.0594659 -0.569476 6.34181 -0.208989 3.45528 0.717591 0.496725 -0.488187
-5.82725 -2.50425 9.9965 0.16658 -0.139443 0 -0.2 6.34734 0.279194 0.0397465 0.185066 0.85031 -0.49267
-0.118719 0.483594 14.4014 -0.026709 -0.270153 0 0.4 6.35718 0.265661 1.33238 0.788998 0.16338 -0.592275
-2.90569 0.68025 13.7451 0.049932 -0.194005 0 0.4 6.38416 0.0684272 1.33238 -0.312653 0.115108 -0.942867
-4.69075 -2.53175 13.1115 -0.183255 -0.0302854 0 -0.2 6.41149 -0.383292 0.403953 -0.350228 0.931539 -0.0978508
-3.2065 -2.32675 4.27975 0.130018 -0.167828 0 -1 6.44275 0.539275 4.51849 -0.661631 0.374437 0.649648
-1.74025 -0.45925 3.509 0.184182 -0.0519432 0 -1 6.4443 0.0285848 0.864557 -0.563464 0.812844 0.147625
-3.69738 -1.33834 13.9881 0.059151 -0.0965881 0.407209 0.4 6.48194 -0.414425 0.61999 -0.730711 0.470451 -0.494709
-2.88225 -6.48225 6.32975 0.59626 0.0858636 0.800479 -1 6.49623 0.105173 5.16602 -0.654714 0.679947 0.330186
-2.011 -5.875 11.0615 0.37523 0.308153 -0.0252554 -0.253553 6.52904 -0.495688 5.89431 -0.733903 -0.671001 -0.105567
-2.18438 -7.15963 8.50113 0.52569 0.184515 0 -0.0888889 6.60288 -0.211752 5.60523 -0.97819 -0.0684411 0.19611
1.41825 -2.4965 14.165 -0.0174466 0.23456 -0.188425 -0.2 6.61271 -0.577821 1.61066 0.754722 0.655694 0.021473
-2.69287 -5.83144 5.22319 0.455863 -0.138209 0.425143 -1 6.68658 -0.739062 4.90749 -0.654214 0.459018 0.601088
-6.2165 -2.099 11.352 -0.0479317 -0.0794763 0 -0.2 6.69753 0.734313 0.0397465 -0.0671779 0.99727 0.0306544
4.801 -3.417 7.9905 -0.255546 0.296249 -0.0430202 -0.207648 6.8266 0.395068 2.8712 0.640606 0.00382163 0.76786
0.461 -0.8215 15.4971 -0.179853 0.2342 -0.262187 -0.00454918 6.89279 0.0375989 1.35873 0.923269 0.377674 0.0702589
-0.718125 0.07225 3.22962 0.185243 -0.0593526 0.0196117 -1 6.91332 0.40985 0.864557 -0.184456 0.982365 -0.0305915
-1.90625 -6.818 10.2917 0.36039 0.211702 -0.276012 -0.372184 6.94502 -0.273895 5.60523 -0.962724 -0.18519 0.197148
4.56938 -2.1575 7.145 -0.258245 0.207275 -0.840588 -0.0888889 7.06346 0.365915 3.13485 0.477344 0.777147 0.410104
-1.30175 1.72675 13.5933 -0.0387437 -0.209675 0 0.4 7.07512 0.635166 1.33238 0.251486 0.358882 -0.898865
2.16725 -3.2545 14.2727 -0.0208384 0.161747 -0.619423 -0.0888889 7.21941 -0.966658 1.61066 0.449237 0.890676 0.069866
4.58988 -2.194 5.96825 -0.29524 0.16318 -0.031074 -0.0888889 7.24323 0.528813 3.13485 0.446627 0.807744 -0.384803
1.19456 -0.592 3.51119 0.232144 0.203675 0 -1 7.24613 0.293775 3.78796 0.551665 0.532234 -0.642178
-4.05363 -3.21913 3.93375 0.0999057 -0.150649 0 -1 7.29881 0.525863 4.51849 -0.710511 0.29783 0.637551
-4.92338 -5.55363 11.0901 0.315841 0.307523 0 -0.2 7.40823 0.080399 6.21042 0.467586 -0.821285 -0.326885
2.24275 -1.929 3.53975 0.0433147 0.234665 0 -1 7.44125 0.604271 3.45528 0.6933 0.212984 -0.688457
-6.951 -2.5145 9.9525 0.198646 -0.112647 0 -0.2 7.47199 -0.0955885 0.0397465 0.21621 0.976343 0.00262576
-2.81013 -7.37475 7.02338 0.598937 0.154087 0.0306396 -1 7.47279 -0.310992 5.60523 -0.632572 0.310152 0.709689
0.17625 0.576688 15.5509 -0.020969 0.231243 0 0.4 7.54756 0.545594 1.33238 0.950339 0.299197 0.0856599
-5.72906 -2.47112 12.6509 -0.209615 -0.0827087 0 -0.2 7.549 -0.310485 0.403953 -0.0788777 0.986902 0.140719
-4.765 -2.518 14.248 -0.200502 -0.0226606 0 -0.2 7.5505 -0.84256 0.61999 -0.364464 0.919285 -0.148599
-3.95025 -4.98125 4.1915 0.403797 -0.177367 0.703378 -1 7.59464 -0.439848 4.90749 -0.364018 0.223478 0.904184
-1.7585 -6.495 11.9974 0.3505 0.236396 0 -1 7.67972 0.0230992 5.89431 -0.875271 -0.44215 0.195971
-6.17556 -5.75075 9.81419 0.51025 -0.262684 0 -0.0888889 7.70154 -0.485206 6.21042 0.879245 -0.409227 -0.243849
-2.162 -8.0945 7.9165 0.50133 0.118777 0 -0.0888889 7.70573 -0.999892 5.60523 -0.909633 0.295624 0.291845
-3.83075 -0.304 14.6757 -0.026281 -0.167107 -0.0434052 0.446411 7.73112 -0.560929 0.61999 -0.607594 -0.0369576 -0.793388
3.73475 -3.857 12.9416 -0.590933 0.228462 -0.122123 -0.0888889 7.75077 0.40094 2.23372 0.852845 0.491264 -0.17696
-4.18175 0.935375 14.1839 -0.0221448 -0.239155 0 0.924198 7.75746 -0.18944 1.33238 -0.205217 -0.606615 -0.768052
-3.716 -6.85975 5.448 0.579937 -0.0857914 0.268141 -1 7.76711 -0.999864 4.90749 -0.263335 0.865654 0.425791
-5.61875 -4.25737 7.6965 1 -0.275514 0.473898 -0.866667 7.78703 0.429686 6.21042 0.978629 0.118664 -0.167943
3.2995 -3.28081 4.22056 -0.0171617 0.158556 -0.081763 -0.27626 7.80816 -0.705001 3.45528 0.431314 0.725613 -0.536147
-0.2655 1.9445 14.1663 -0.044284 -0.226424 0 0.4 7.84414 0.999923 1.33238 0.782728 0.426397 -0.453346
-6.351 -2.99425 8.68025 0.534287 -0.192123 0 -0.533636 7.84631 -0.0896829 6.21042 0.659098 0.746601 -0.0904267
-3.709 -1.9195 3.02475 -0.0954547 -0.08401 0 -1 7.85462 0.676436 4.51849 -0.766861 0.573532 0.288072
-2.68963 -5.70463 12.3524 0.373157 0.317318 0 -0.2 7.8762 -0.389516 5.89431 -0.260663 -0.948494 -0.180039
3.376 -4.46012 11.5696 -0.191809 0.300526 0 -0.819122 7.87742 -0.278033 2.23372 0.97427 0.16452 -0.154046
-2.13225 -8.094 9.39625 0.419197 0.132875 0 0.107925 7.89788 -0.0980801 5.60523 -0.947777 0.184363 0.260248
3.295 -5.288 10.0361 -0.0684253 0.313251 0 -1 7.9198 -0.371073 2.63204 0.995543 0.0721233 -0.0607706
-6.2445 -5.67425 8.35825 0.839817 -0.262474 0.48189 -0.866667 7.97043 -0.593974 6.21042 0.940384 -0.316391 0.124801
1.949 -2.88838 15.3646 0.0469567 0.136353 -0.0190359 -0.104029 7.98176 -0.297325 1.61066 0.418269 0.908187 -0.0157375
-1.71375 -7.84975 10.351 0.248422 0.164845 -0.236758 -0.347251 7.99625 -0.791293 5.60523 -0.959066 -0.0283712 0.281756
-3.42144 2.20444 13.4284 -0.243935 -0.266635 -0.116342 0.9093 8.02411 -0.172714 1.33238 0.306256 -0.504535 -0.80725
1.0885 -1.792 15.59 -0.344987 0.209129 -0.1352 -0.2 8.05221 0.485408 1.61066 0.785731 0.548415 0.286124
-1.72213 0.01675 1.9555 0.108835 0.0555139 0.0848011 -1 8.06919 0.64803 0.864557 -0.115851 0.963367 -0.241872
-0.191813 -0.267 2.11812 0.0607867 0.154411 0.659205 -1 8.10019 0.662065 0.864557 0.49384 0.656019 -0.570755
3.53444 -5.20062 8.8055 -0.491873 0.344919 -0.276743 -1 8.15606 -0.0669946 2.8712 0.903262 -0.309875 0.296809
-2.06519 2.4575 13.891 -0.0912767 -0.201154 0 0.4 8.17305 0.0798758 1.33238 0.582739 0.418386 -0.696684
5.789 -2.766 7.347 -0.314824 0.202209 -0.107915 -0.0888889 8.17346 0.999906 2.8712 0.725753 0.605547 0.326489
4.131 -4.5865 8.162 -0.181636 0.342392 -0.081085 -0.963871 8.18529 -0.204549 2.8712 0.692427 -0.488939 0.53055
3.62036 -3.47747 14.6618 0.0186754 0.109628 -0.123995 0.241489 8.2094 0.0811992 1.61066 0.240951 0.885612 -0.397031
-5.308 -5.77575 12.31 0.303794 0.273943 0 -0.2 8.29127 -0.624294 6.21042 0.323934 -0.933786 -0.152023
-4.09312 -6.05037 4.4095 0.490923 -0.145294 0 -1 8.32082 -0.999878 4.90749 -0.137521 0.544987 0.827089
5.075 -4.83475 7.323 -0.039832 0.271477 0 -0.0888889 8.4174 0.179471 2.8712 0.483645 -0.344107 0.804784
-4.69228 -7.21006 6.58134 0.7131 -0.157242 0.096704 -0.777778 8.46326 -0.0381626 5.16602 0.412367 0.69768 0.585829
1.93 -2.83469 3.00187 -0.0310662 0.187246 0 -1 8.54007 -0.431676 3.45528 0.642221 0.532358 -0.551496
-7.99203 -2.64528 11.2072 0.106454 -0.0728933 0 -0.2 8.56083 -0.397675 0.0397465 -0.0144315 0.992396 0.122235
0.352625 -2.17337 16.6042 -0.222807 0.183466 -0.770097 -0.2 8.64349 -0.632978 1.35873 0.727082 0.546677 0.415326
-4.75725 -4.3725 3.745 0.240903 -0.133364 0 -1 8.66299 0.137715 4.90749 -0.31198 0.546455 0.77721
-4.75675 0.05125 15.3105 -0.106209 -0.171177 -0.141506 0.669609 8.67328 -0.407501 0.61999 -0.547288 -0.301542 -0.780735
-5.15737 -2.20863 15.3814 -0.0770677 -0.0746636 -0.423582 0.4 8.67973 -0.999859 0.61999 -0.285748 0.688131 -0.666951
-5.90675 -2.65587 14.3011 -0.117535 -0.0687258 0 -0.2 8.70177 -0.7564 0.61999 0.000315313 0.991663 -0.12886
5.7045 -3.07 5.55463 -0.45736 0.171866 -0.172694 -0.0888889 8.71999 0.573495 3.13485 0.719507 0.621293 -0.31033
-0.144 -1.296 17.223 0.0337867 0.205783 0 0.4 8.78221 -0.671859 1.35873 0.973384 0.143414 0.178763
-0.3905 1.08862 16.5249 0.0325132 0.181945 0 0.4 8.78529 0.16957 1.33238 0.735052 0.490011 0.468602
-0.048625 -0.01975 17.1349 0.090348 0.190242 0.17214 0.4 8.78617 0.315266 1.35873 0.914035 0.335831 0.227503
-4.561 -3.0465 2.529 0.146464 -0.0811723 0.0175719 -1 8.80232 0.268546 4.51849 -0.805122 0.509933 0.302898
-0.5245 2.303 15.0765 -0.041517 0.155875 0 0.4 8.84601 0.563277 1.33238 0.599448 0.783212 -0.165048
-5.116 -5.535 4.308 0.53344 -0.164984 0.132085 -1 8.89047 -0.573461 4.90749 0.188106 0.463336 0.865988
-8.08497 -1.88934 9.36447 0.207993 -0.14847 0 -0.866667 8.89414 -0.139227 0.0397465 0.524179 0.786561 0.326433
-1.52013 -6.21325 13.1946 0.52676 0.271652 0 -0.2 8.93251 -0.524356 5.89431 -0.53448 -0.837967 0.110193
-2.78744 -5.99862 13.4154 0.311591 0.285003 0 -0.2 8.98343 -0.106675 5.89431 -0.0566234 -0.97951 -0.193273
-5.345 0.7695 14.552 -0.0206934 -0.222899 0 0.933333 8.98879 0.669516 1.33238 -0.203801 -0.759961 -0.617191
4.55513 -3.31725 4.62625 0.0671633 0.126296 0 -0.0888889 8.99361 -0.0338406 3.13485 0.275363 0.784037 -0.556292
6.1595 -4.17625 6.47725 -0.279388 0.223921 -0.612511 -0.0888889 8.99729 0.468503 2.8712 0.935132 0.079417 0.345284
-4.98606 -4.13831 2.75444 0.0453553 -0.0676175 0 -1 9.06094 -0.448578 4.51849 -0.707196 0.630495 0.319921
-0.950875 -7.54581 12.4346 0.0322214 0.227721 -0.245019 -1 9.07529 0.0521168 5.89431 -0.632297 -0.545991 0.549632
-2.77375 -9.09387 9.28175 0.433723 0.0461689 0 0.844444 9.09135 -0.218317 5.60523 -0.625672 0.758327 0.182961
-5.79563 -5.69025 7.32412 0.66977 -0.247466 0.297821 -0.863844 9.09789 0.225146 6.21042 0.957859 0.0303151 0.285636
-6.27887 -7.16625 9.82987 0.573587 -0.200623 0 -0.0888889 9.12089 -0.176118 6.21042 0.968248 0.150609 -0.199533
2.5135 -2.826 16.3565 0.292314 0.0480686 0.566351 -0.0888889 9.12475 0.112942 1.61066 -0.15571 0.98591 -0.0611299
-3.04312 -9.22025 8.00725 0.43946 0.0790125 0 0.844444 9.13818 -0.999875 5.60523 -0.450346 0.747347 0.488529
-1.463 -8.376 11.3333 0.176508 0.183862 -0.105314 -1 9.13849 0.32598 5.60523 -0.806276 -0.255371 0.533577
4.334 -4.923 13.6318 -0.21716 0.183441 0 0.388329 9.15499 -0.23039 2.23372 0.722507 0.41949 -0.549556
-6.14825 -6.61194 11.79 0.412833 -0.232031 0 -0.120257 9.1718 -0.444363 6.21042 0.929507 -0.355159 -0.0993885
3.19675 -6.351 9.321 0.00861873 0.282066 -0.0916526 -1 9.20471 -0.160782 2.8712 0.938843 -0.0469551 -0.341129
-2.21075 -0.4225 1.029 -0.00208364 0.0765609 0 -1 9.20502 0.59718 0.864557 0.0284243 0.863057 -0.504307
-6.187 -2.8705 7.317 0.785327 -0.209464 0.122961 -0.866667 9.22496 0.873616 6.21042 0.76518 0.638045 -0.0860097
3.77225 -5.45375 12.3988 -0.159891 0.230537 -0.0337584 -0.437629 9.23089 -0.86638 2.23372 0.905747 0.275174 -0.322337
-5.07044 -6.35375 5.00331 0.6309 -0.141961 0.265465 -0.957747 9.27982 -0.625621 4.90749 0.358455 0.754102 0.55031
-7.16125 -2.234 7.76575 0.524633 -0.154482 0.104137 -0.866667 9.28534 0.213785 6.21042 0.557123 0.812604 -0.171138
-5.725 -6.1115 13.164 0.28495 0.235437 0 -0.199861 9.2992 -0.999881 6.21042 0.778413 -0.53643 -0.326062
-5.53575 1.5295 13.741 -0.000628653 -0.231195 0 0.933333 9.30099 -0.198105 1.33238 -0.121869 -0.773495 -0.621975
-4.2395 -8.5735 7.08169 0.515497 -0.136756 0 -0.918367 9.3392 -0.999835 5.60523 0.129076 0.635443 0.761282
0.797 -2.31962 2.351 -0.0210074 0.177978 0 -1 9.3648 -0.218159 3.78796 0.561588 0.496239 -0.662092
2.9005 -3.68187 2.7575 -0.311577 0.135188 -0.0161175 -0.711111 9.37679 -0.667032 3.45528 0.500525 0.809439 -0.307056
-4.70913 2.10713 12.9949 -0.0695653 -0.281211 0 0.112684 9.3863 -0.234144 1.33238 0.223145 -0.9024 -0.368619
-4.00506 -2.0625 1.51047 -0.0901213 -0.0669535 0.0411343 -0.905249 9.40418 -0.520918 4.51849 -0.716805 0.620311 0.318442
-1.88644 -9.22363 10.6494 0.397807 0.115744 0 0.844444 9.41273 -0.0799102 5.60523 -0.616614 0.425512 0.662365
3.832 -5.48088 7.36075 0.108934 0.318175 -0.378924 -0.502949 9.42275 -0.435702 2.8712 0.520322 -0.631237 0.575156
-7.47087 -2.52638 13.4104 -0.0864843 -0.0838741 0 -0.2 9.44999 -0.109034 0.403953 0.181217 0.970668 -0.157999
-6.22325 -6.96025 7.58225 0.517227 -0.209895 0 -0.777778 9.47257 -0.999844 6.21042 0.827747 0.0783912 0.555599
-3.53912 2.96525 12.1566 -0.429103 -0.296826 -0.08843 0.764851 9.51077 0.402783 1.33238 0.718337 -0.495399 -0.488439
-2.66225 3.6205 14.2621 -0.273342 -0.191456 -0.58913 0.933333 9.53201 -0.527157 1.33238 0.891561 0.452106 -0.0268244
-0.72125 2.289 16.1483 -0.0342737 0.167383 0 0.4 9.57103 0.999841 1.33238 0.68701 0.597577 0.413423
-3.356 -0.991 0.877 -0.00981507 -0.0309876 0.581518 -1 9.57812 0.31769 0.864557 -0.552038 0.825476 0.117657
3.88753 -6.41787 11.1377 0.0691513 0.189864 0 -1 9.60539 -0.312038 2.63204 0.75268 0.565796 -0.336671
-0.79975 -1.2305 1.11688 0.0412627 0.156055 0 -1 9.6169 0.551999 0.864557 0.507433 0.424111 -0.750095
-6.60156 -7.33588 8.79594 0.630253 -0.199287 0 -0.256651 9.6331 -0.999867 6.21042 0.994857 0.0992303 0.0203263
3.59375 -2.9025 16.001 0.233453 -0.047012 0 0.4 9.66706 -0.467417 1.61066 -0.181211 0.922536 -0.34072
5.9565 -5.4905 6.71725 -0.00323546 0.225275 0 -0.0888889 9.67198 0.624057 2.8712 0.534816 -0.240216 0.810104
4.86562 -4.26638 14.4727 -0.0185187 0.145403 0 0.4 9.69561 -0.036087 1.61066 0.371503 0.450611 -0.811748
-2.55225 3.71012 13.1695 -0.505203 -0.234085 -0.724129 0.933333 9.69845 0.504424 1.33238 0.925513 0.107021 -0.36328
-6.4485 -3.06988 6.36562 0.82373 -0.174986 0.232478 -0.866667 9.75423 0.999867 6.21042 0.581447 0.599726 -0.549771
4.43038 -4.26412 2.94825 -0.266973 0.128768 -0.311906 -0.402171 9.77401 0.259001 3.45528 0.492359 0.69592 -0.522761
2.12 -3.379 1.85 -0.0173511 0.127149 0 -0.711111 9.82816 0.441136 3.45528 0.473772 0.786326 -0.396523
0.06575 -2.3305 17.754 -0.0134932 0.153692 0 -0.303251 9.83891 -0.999892 1.35873 0.80471 0.588191 -0.0804567
-7.06962 -2.47638 14.4404 -0.0257032 -0.102322 0.0962312 -0.376944 9.88662 -0.731081 0.61999 0.328211 0.848099 -0.415938
-9.14338 -2.21881 10.6134 0.047993 -0.139059 0 -0.866667 9.92468 -0.594547 0.0397465 0.525658 0.686227 0.502768
-6.111 -5.624 6.089 0.57352 -0.193473 0.517632 -0.801127 9.9536 -0.586464 6.21042 0.902457 0.418943 -0.100291
-5.719 -0.127 16.1567 -0.0384123 -0.169421 0 0.798507 9.96702 -0.999911 0.61999 -0.158741 -0.406461 -0.899773
-5.79569 -1.33506 16.1006 -0.0309629 -0.119426 0 0.4 9.97889 -0.999871 0.61999 -0.124208 0.290816 -0.948682
6.10675 -4.163 5.05475 -0.00255543 0.188749 0 -0.0888889 9.9874 0.682375 3.13485 0.941025 0.309323 -0.13708
-0.39 0.413 18.214 0.164824 0.136405 0.742411 0.4 9.99789 0.620247 1.35873 0.73976 0.671908 0.0359859
-0.231688 -2.14738 1.6635 -0.134305 0.178394 0 -1 10.0352 -0.471375 0.864557 0.59426 0.351451 -0.723421
-6.183 -5.011 4.536 0.226191 -0.113304 0.967173 -1 10.1009 0.0722563 4.90749 0.30348 0.907268 0.291145
-2.197 3.26238 15.6433 -0.0775123 -0.16076 0 0.615136 10.1059 -0.0857681 1.33238 0.795622 0.605712 0.00992048
-6.10838 -7.2915 10.8197 0.50502 -0.196596 0 -0.0888889 10.1331 0.0510481 6.21042 0.978062 0.207388 -0.01962
-3.57711 -9.55381 9.77205 0.436577 -0.0664412 0 0.913024 10.1389 0.132051 5.60523 -0.197054 0.922204 0.33273
-4.83238 -6.22475 14.045 0.203985 0.238057 0 -0.172968 10.1455 -0.343419 6.21042 0.337459 -0.863933 -0.373821
-6.624 -4.5115 5.5635 0.468287 -0.145717 0 -0.866667 10.1587 0.1465 6.21042 0.517749 0.639978 -0.567772
-3.82663 -9.5445 8.57913 0.41984 -0.0702395 0 0.913713 10.161 -0.8139 5.60523 -0.0289599 0.975135 0.219709
-5.19125 -3.15313 1.31638 -0.263014 -0.0903078 0 -0.777778 10.1731 -0.201481 4.51849 -0.612573 0.506803 0.606552
3 59 84 123
3 199 133 164
3 142 192 125
3 142 125 81
3 125 192 135
3 125 135 89
3 81 125 89
3 97 197 180
3 97 180 154
3 154 157 100
3 46 100 59
3 46 39 23
3 39 59 22
3 22 71 62
3 71 87 62
3 87 71 123
3 88 87 128
3 164 133 101
3 101 81 63
3 81 52 63
3 56 21 52
3 32 70 66
3 66 121 85
3 168 121 145
3 145 121 186
3 106 97 46
3 46 23 51
3 43 36 8
3 23 22 9
3 1 9 11
3 22 23 39
3 29 62 40
3 126 127 188
3 167 184 128
3 169 109 163
3 109 114 61
3 61 114 77
3 169 179 109
3 109 179 114
3 179 170 114
3 77 114 134
3 134 114 193
3 174 153 111
3 64 172 49
3 49 172 101
3 64 49 41
3 49 63 31
3 8 14 32
3 32 50 43
3 50 85 68
3 50 68 43
3 82 46 51
3 51 102 118
3 43 75 36
3 75 108 90
3 90 108 149
3 68 104 75
3 108 165 149
3 144 198 195
3 196 102 138
3 102 90 137
3 137 138 102
3 17 2 5
3 1 0 2
3 2 0 5
3 0 4 6
3 12 3 11
3 11 24 12
3 26 12 24
3 26 24 40
3 26 61 42
3 61 65 93
3 61 93 95
3 163 95 159
3 77 60 42
3 42 60 30
3 30 60 73
3 86 131 132
3 112 191 174
3 161 191 112
3 111 74 112
3 111 64 74
3 74 64 41
3 18 13 5
3 13 17 5
3 41 31 17
3 41 49 31
3 18 5 15
3 15 5 6
3 25 33 15
3 25 45 33
3 19 6 4
3 19 4 16
3 7 4 3
3 16 7 20
3 37 20 12
3 12 30 37
3 30 73 37
3 73 130 124
3 110 73 124
3 122 161 80
3 83 54 58
3 140 98 79
3 58 79 98
3 58 54 33
3 33 45 58
3 79 45 76
3 19 34 25
3 25 34 44
3 94 53 57
3 35 20 53
3 53 20 57
3 57 20 37
3 57 37 69
3 69 110 107
3 110 124 107
3 58 122 83
3 140 79 129
3 129 141 189
3 141 120 177
3 120 72 116
3 116 72 113
3 76 44 72
3 55 44 34
3 53 94 103
3 103 155 105
3 105 155 173
3 155 94 150
3 150 94 117
3 117 178 150
3 94 57 117
3 107 147 176
3 120 116 166
3 116 113 166
3 152 113 105
3 7 16 4
3 100 84 59
3 84 100 136
3 157 136 100
3 123 84 136
3 185 123 136
3 89 135 119
3 119 135 156
3 145 186 97
3 192 156 135
3 156 192 121
3 121 192 186
3 97 186 197
3 197 186 192
3 46 97 100
3 100 97 154
3 88 62 87
3 101 172 164
3 21 63 52
3 32 38 70
3 70 38 56
3 56 38 21
3 66 70 96
3 96 70 119
3 96 119 156
3 119 70 89
3 56 89 70
3 66 96 121
3 156 121 96
3 121 160 85
3 168 145 106
3 91 146 175
3 91 175 106
3 168 106 175
3 106 46 91
3 51 23 36
3 1 8 9
3 9 36 23
3 36 9 8
3 11 9 29
3 11 29 24
3 29 9 22
3 40 24 29
3 65 40 62
3 88 65 62
3 126 65 127
3 127 65 88
3 127 88 128
3 128 184 127
3 126 188 187
3 193 114 170
3 17 31 21
3 10 17 21
3 14 10 21
3 38 32 14
3 38 14 21
3 92 68 85
3 104 68 92
3 104 92 144
3 148 144 92
3 148 92 85
3 148 85 160
3 198 144 148
3 160 198 148
3 194 146 151
3 151 146 91
3 151 91 82
3 46 82 91
3 82 118 151
3 102 51 67
3 102 67 90
3 36 75 67
3 36 67 51
3 67 75 90
3 165 108 104
3 165 104 144
3 104 108 75
3 158 151 118
3 158 118 196
3 137 90 143
3 2 10 14
3 2 14 8
3 2 8 1
3 17 10 2
3 6 5 0
3 3 4 0
3 126 139 95
3 126 95 93
3 126 93 65
3 109 61 95
3 95 163 109
3 27 13 18
3 33 18 15
3 42 30 26
3 26 30 12
3 69 37 73
3 60 86 73
3 130 183 124
3 122 162 182
3 161 122 182
3 79 58 45
3 27 18 33
3 44 76 45
3 44 45 25
3 78 57 69
3 117 57 78
3 117 78 107
3 107 78 69
3 140 181 98
3 98 122 58
3 122 98 162
3 162 98 181
3 44 113 72
3 55 113 44
3 176 117 107
3 173 152 105
3 103 105 55
3 55 105 113
3 199 142 133
3 180 157 154
3 59 39 46
3 123 71 59
3 22 59 71
3 87 123 167
3 101 133 81
3 133 142 81
3 89 56 81
3 52 81 56
3 145 97 106
3 62 29 22
3 167 128 87
3 172 111 153
3 111 172 64
3 49 101 63
3 32 66 50
3 85 50 66
3 82 51 118
3 68 75 43
3 8 32 43
3 0 1 3
3 3 1 11
3 65 61 40
3 26 40 61
3 139 159 95
3 77 42 61
3 99 134 86
3 99 86 60
3 99 60 77
3 99 77 134
3 134 193 171
3 134 171 86
3 131 86 171
3 174 111 112
3 74 41 48
3 80 48 47
3 27 47 48
3 28 13 27
3 28 27 48
3 28 48 41
3 13 28 41
3 13 41 17
3 63 21 31
3 118 102 196
3 149 143 90
3 15 6 25
3 25 6 19
3 7 3 12
3 20 7 12
3 132 73 86
3 73 132 130
3 48 80 112
3 48 112 74
3 112 80 161
3 47 27 33
3 80 47 54
3 80 54 83
3 33 54 47
3 16 20 35
3 35 19 16
3 69 73 110
3 122 80 83
3 141 129 115
3 141 115 72
3 115 129 79
3 115 79 76
3 72 115 76
3 72 120 141
3 53 55 35
3 35 55 34
3 35 34 19
3 103 94 155
3 53 103 55
3 165 144 195
