ply
format ascii 1.0
comment Generated by PyMesh
element vertex 192
property float x
property float y
property float z
property float nx
property float ny
property float nz
element face 317
property list uchar int vertex_indices
end_header
-5.90675 -2.65587 14.3011 0.000315313 0.991663 -0.12886
-4.765 -2.518 14.248 -0.364464 0.919285 -0.148599
-7.06962 -2.47638 14.4404 0.328211 0.848099 -0.415938
-5.15737 -2.20863 15.3814 -0.285748 0.688131 -0.666951
-5.72906 -2.47112 12.6509 -0.0788777 0.986902 0.140719
-7.47087 -2.52638 13.4104 0.181217 0.970668 -0.157999
-4.69075 -2.53175 13.1115 -0.350228 0.931539 -0.0978508
-7.49125 -1.47625 15.2793 0.469884 0.554722 -0.686653
-5.79569 -1.33506 16.1006 -0.124208 0.290816 -0.948682
-3.69738 -1.33834 13.9881 -0.730711 0.470451 -0.494709
-8.49575 -2.5645 12.975 0.186533 0.919786 -0.345252
-6.2165 -2.099 11.352 -0.0671779 0.99727 0.0306544
-4.75675 0.05125 15.3105 -0.547288 -0.301542 -0.780735
-5.719 -0.127 16.1567 -0.158741 -0.406461 -0.899773
-8.64675 -1.3 14.493 0.694924 0.166547 -0.69953
-3.83075 -0.304 14.6757 -0.607594 -0.0369576 -0.793388
-6.8605 -0.341 15.9435 0.396037 -0.188333 -0.898713
-3.15875 -1.42963 12.8542 -0.499533 0.666475 -0.553423
-7.99203 -2.64528 11.2072 -0.0144315 0.992396 0.122235
-3.47725 -2.18625 11.8475 -0.3464 0.841313 -0.414969
-9.30481 -1.76231 13.5004 0.595097 0.508562 -0.622273
-8.03256 0.0735625 15.0258 0.517041 -0.337749 -0.786508
-9.42325 -2.72775 11.9522 0.61736 0.784708 -0.0556738
-5.82725 -2.50425 9.9965 0.185066 0.85031 -0.49267
-3.648 -2.5685 10.791 0.0512143 0.888126 -0.456737
-5.345 0.7695 14.552 -0.203801 -0.759961 -0.617191
-2.90569 0.68025 13.7451 -0.312653 0.115108 -0.942867
-2.33325 -1.6125 12.1005 -0.27871 0.82363 -0.493918
-4.18175 0.935375 14.1839 -0.205217 -0.606615 -0.768052
-10.1517 -1.443 12.8884 0.884903 0.208359 -0.416574
-6.381 0.66075 15.2494 -0.00666402 -0.786907 -0.617035
-8.909 0.4065 14.286 0.73117 -0.497013 -0.4673
-9.14338 -2.21881 10.6134 0.525658 0.686227 0.502768
-1.63806 -0.748062 12.9071 -0.00624998 0.683988 -0.729466
-6.951 -2.5145 9.9525 0.21621 0.976343 0.00262576
-9.43606 -0.117812 13.4581 0.804556 -0.193789 -0.561369
-4.73887 -2.95038 10.0363 0.215907 0.495566 -0.841308
-1.991 -1.967 11.037 -0.456314 0.833743 -0.310886
-8.04775 1.27894 13.8454 0.402317 -0.81053 -0.425655
-3.67 -3.37725 10.0363 0.0528347 0.22804 -0.972217
-5.53575 1.5295 13.741 -0.121869 -0.773495 -0.621975
-2.55194 -2.87169 10.2829 -0.412992 0.578452 -0.703442
-8.08497 -1.88934 9.36447 0.524179 0.786561 0.326433
-6.351 -2.99425 8.68025 0.659098 0.746601 -0.0904267
-10.237 -1.322 11.2058 0.927756 0.180387 0.326696
-0.977813 -1.33644 11.9819 -0.0664935 0.980925 -0.18266
-5.271 -4.34734 9.45378 0.716884 -0.165769 -0.677199
-3.42144 2.20444 13.4284 0.306256 -0.504535 -0.80725
-9.64669 -1.105 10.3852 0.861516 0.199114 0.467058
-10.1956 -0.223 12.1319 0.948219 -0.288896 -0.131983
-1.22113 0.0809375 13.5485 0.27894 0.353428 -0.892906
-1.30175 1.72675 13.5933 0.251486 0.358882 -0.898865
-7.6435 1.70875 13.037 0.439389 -0.897843 -0.0285534
-2.06519 2.4575 13.891 0.582739 0.418386 -0.696684
-4.70913 2.10713 12.9949 0.223145 -0.9024 -0.368619
-8.84081 0.750188 12.7536 0.626112 -0.771068 -0.115926
-0.27 -0.883 13.3573 0.52276 0.654727 -0.545943
-9.06 -0.9825 9.4 0.709073 0.625695 0.325148
-6.464 1.99188 13.131 0.114109 -0.94543 -0.305189
-1.62925 -2.0845 9.506 -0.672234 0.587866 -0.450016
-8.26437 -1.01525 8.31125 0.555904 0.831173 -0.0110874
-6.187 -2.8705 7.317 0.76518 0.638045 -0.0860097
-7.16125 -2.234 7.76575 0.557123 0.812604 -0.171138
-0.426 -1.17206 10.6077 -0.363504 0.925447 -0.106831
-9.65375 -0.18225 9.868 0.944339 0.32223 0.066263
-9.76156 0.291438 11.3061 0.936059 -0.348835 -0.0459032
-5.61875 -4.25737 7.6965 0.978629 0.118664 -0.167943
-2.61469 -4.94441 9.86416 -0.775368 -0.219062 -0.592297
-3.67925 -5.23994 10.9784 -0.0577555 -0.859388 -0.508052
-0.2655 1.9445 14.1663 0.782728 0.426397 -0.453346
-3.53912 2.96525 12.1566 0.718337 -0.495399 -0.488439
-8.74413 1.04475 11.6525 0.462599 -0.739102 -0.489623
-0.118719 0.483594 14.4014 0.788998 0.16338 -0.592275
-2.66225 3.6205 14.2621 0.891561 0.452106 -0.0268244
-6.17556 -5.75075 9.81419 0.879245 -0.409227 -0.243849
-2.55225 3.71012 13.1695 0.925513 0.107021 -0.36328
-9.39925 -0.69575 8.29525 0.516402 0.75225 -0.409204
0.721 -1.61625 13.153 0.550536 0.834086 0.034786
-7.03288 1.72438 11.6827 0.166318 -0.974006 -0.15379
0.656875 -0.954625 11.0969 -0.172353 0.969797 0.17259
-6.4485 -3.06988 6.36562 0.581447 0.599726 -0.549771
-1.03 -3.787 8.5425 -0.841293 0.29785 -0.451123
-6.2445 -5.67425 8.35825 0.940384 -0.316391 0.124801
-4.92338 -5.55363 11.0901 0.467586 -0.821285 -0.326885
-0.5245 2.303 15.0765 0.599448 0.783212 -0.165048
-5.77275 1.7585 11.7533 0.118718 -0.992596 -0.0256668
-4.76137 2.07962 11.2802 0.554042 -0.813106 -0.178594
-0.47025 -1.53 9.122 -0.559631 0.807507 -0.186402
-9.96212 0.7785 9.82487 0.984476 0.0508648 -0.167988
-8.17025 -1.88312 7.04 0.329029 0.739171 -0.587679
-2.197 3.26238 15.6433 0.795622 0.605712 0.00992048
1.33506 -1.27988 11.9929 0.263704 0.797677 0.542376
-0.620125 -2.47038 8.16737 -0.933496 0.310793 -0.178866
-10.1615 0.4705 8.58675 0.911713 0.337515 -0.234228
0.94725 -0.8885 9.82619 -0.162998 0.986589 -0.00857057
-5.79563 -5.69025 7.32412 0.957859 0.0303151 0.285636
0.17625 0.576688 15.5509 0.950339 0.299197 0.0856599
0.461 -0.8215 15.4971 0.923269 0.377674 0.0702589
-2.309 -6.189 8.945 -0.990824 0.123307 -0.0553434
-2.011 -5.875 11.0615 -0.733903 -0.671001 -0.105567
-9.66938 1.7765 10.3371 0.732011 -0.557361 -0.391801
-7.69875 -3.17213 5.98338 0.299425 0.616534 -0.728169
-4.036 3.906 11.0367 0.922986 0.0195298 -0.384338
-6.27887 -7.16625 9.82987 0.968248 0.150609 -0.199533
-3.25887 4.56738 12.2809 0.800686 0.402702 -0.443545
-0.72125 2.289 16.1483 0.68701 0.597577 0.413423
-8.25669 2.225 10.649 0.102 -0.921986 -0.373547
-2.68963 -5.70463 12.3524 -0.260663 -0.948494 -0.180039
-7.16862 2.01875 10.3194 -0.1478 -0.973047 -0.177015
-3.34713 4.98025 13.9406 0.690626 0.722087 -0.0403192
-10.5411 0.020375 7.60388 0.449597 0.384052 -0.806453
-1.90625 -6.818 10.2917 -0.962724 -0.18519 0.197148
-8.982 -2.2765 6.4235 0.208589 0.693139 -0.689962
1.41825 -2.4965 14.165 0.754722 0.655694 0.021473
-10.148 -1.38462 7.12813 0.229914 0.611414 -0.757174
-5.308 -5.77575 12.31 0.323934 -0.933786 -0.152023
2.11538 -0.606875 10.9895 0.181246 0.959523 0.21556
-0.949313 -4.12856 7.11919 -0.913709 0.35722 0.193727
-6.111 -5.624 6.089 0.902457 0.418943 -0.100291
-6.22325 -6.96025 7.58225 0.827747 0.0783912 0.555599
-6.624 -4.5115 5.5635 0.517749 0.639978 -0.567772
-6.60156 -7.33588 8.79594 0.994857 0.0992303 0.0203263
-4.11125 3.07125 10.2505 0.957848 -0.280915 0.0601128
-2.635 4.1795 16.67 0.976227 0.215117 -0.0265578
-5.243 2.07262 9.748 0.239633 -0.959016 -0.151212
-2.38525 3.11525 17.1514 0.907728 0.15737 0.388928
-10.2965 1.40625 7.82575 0.562055 -0.588037 -0.581642
-6.14825 -6.61194 11.79 0.929507 -0.355159 -0.0993885
2.2445 -2.9305 13.324 0.529716 0.796814 0.29067
-0.030375 -1.28225 7.4885 -0.531229 0.845946 0.0465979
-2.18438 -7.15963 8.50113 -0.97819 -0.0684411 0.19611
1.37888 -0.50825 8.64587 0.0043209 0.99807 -0.0619493
1.0885 -1.792 15.59 0.785731 0.548415 0.286124
-1.7585 -6.495 11.9974 -0.875271 -0.44215 0.195971
-0.3905 1.08862 16.5249 0.735052 0.490011 0.468602
-4.20325 4.8255 11.4265 0.840367 0.417559 -0.345583
-0.7125 -3.14287 6.77037 -0.909629 0.176453 0.376085
3.03731 -1.60906 11.3639 0.822196 0.430406 0.372484
-6.10838 -7.2915 10.8197 0.978062 0.207388 -0.01962
-4.4855 4.7605 10.415 0.953016 0.288411 -0.0926233
-2.3525 -6.17938 7.56938 -0.928894 0.314033 0.196315
-3.95775 5.3385 12.688 0.646367 0.75457 -0.113288
-1.69987 -5.249 6.81862 -0.818807 0.560268 0.125122
-2.78744 -5.99862 13.4154 -0.0566234 -0.97951 -0.193273
-8.9555 -3.102 5.67 0.401153 0.74822 -0.528435
-3.2905 5.03075 15.7904 0.787444 0.554987 -0.26818
-1.71375 -7.84975 10.351 -0.959066 -0.0283712 0.281756
-5.725 -6.1115 13.164 0.778413 -0.53643 -0.326062
2.16725 -3.2545 14.2727 0.449237 0.890676 0.069866
-9.33762 2.37037 9.08325 0.361501 -0.930176 -0.0639541
-2.09125 1.976 17.3424 0.608348 0.545546 0.576448
-9.886 -2.553 5.83125 0.231542 0.833637 -0.501436
-6.14975 -8.38775 9.2365 0.864514 0.496605 -0.0774548
-11.189 -0.84225 7.053 0.0537119 0.434125 -0.89925
-0.048625 -0.01975 17.1349 0.914035 0.335831 0.227503
2.98381 -2.79806 11.9629 0.843361 0.450121 0.293484
2.82544 -1.15769 9.54619 0.599762 0.800153 -0.00639302
-0.945625 -1.96769 6.20687 -0.792355 0.33976 0.506693
0.352625 -2.17337 16.6042 0.727082 0.546677 0.415326
-11.8252 -0.017625 7.72687 0.0271841 0.356959 -0.933724
-8.35437 -4.16412 4.94775 0.570471 0.599126 -0.561793
-7.5915 -4.8935 5.11925 0.355514 0.720587 -0.595285
-5.77 -8.44 10.563 0.951713 0.306736 0.0124313
1.949 -2.88838 15.3646 0.418269 0.908187 -0.0157375
-0.144 -1.296 17.223 0.973384 0.143414 0.178763
-6.109 -8.09013 8.2005 0.704026 0.548252 0.451407
-1.52013 -6.21325 13.1946 -0.53448 -0.837967 0.110193
-6.183 -5.011 4.536 0.30348 0.907268 0.291145
-4.69228 -7.21006 6.58134 0.412367 0.69768 0.585829
-8.029 2.4285 9.085 -0.0963041 -0.992581 -0.0742225
-7.07212 2.2745 8.75 0.0164395 -0.918462 -0.395167
-10.5476 1.928 6.92238 -0.197212 -0.846173 -0.495074
-2.13225 -8.094 9.39625 -0.947777 0.184363 0.260248
-1.476 -3.1625 5.95813 -0.693237 0.143144 0.706351
-5.0945 2.38025 8.52125 0.251057 -0.772446 -0.583351
-4.19763 5.60075 15.3389 0.500062 0.824202 -0.265761
-2.162 -8.0945 7.9165 -0.909633 0.295624 0.291845
-2.41925 5.115 17.606 0.946864 0.319901 -0.0333402
-3.975 2.80675 8.89725 0.737058 -0.577521 -0.351019
1.572 -0.953875 7.497 0.0473165 0.987682 -0.149147
-4.83238 -6.22475 14.045 0.337459 -0.863933 -0.373821
-3.36337 2.64575 18.0592 0.902201 0.0508714 0.428306
-1.81662 -4.56588 5.56887 -0.783066 0.239221 0.574091
-11.3241 -2.33512 5.93962 0.252521 0.915196 -0.314085
-0.04025 -0.651 6.15987 -0.333882 0.706318 0.62421
-11.772 1.0155 8.0525 -0.0128847 -0.133187 -0.991007
-3.84325 3.8935 8.8005 0.93407 0.220152 -0.281153
-6.0835 2.4585 8.3595 0.00776644 -0.751767 -0.659383
-4.608 6.026 11.9055 0.68848 0.718403 0.0994643
-5.1055 5.892 13.079 0.455329 0.8685 0.195915
-12.2112 -1.32056 6.83494 0.212442 0.686723 -0.695183
-7.58725 -5.17525 4.094 -0.109349 0.717811 -0.687598
3 153 190 159
3 114 110 76
3 114 76 89
3 89 76 60
3 160 144 101
3 144 151 112
3 101 112 89
3 112 114 89
3 89 60 62
3 89 62 101
3 60 42 62
3 23 34 18
3 57 42 60
3 48 57 64
3 57 60 76
3 64 57 93
3 76 93 57
3 93 76 110
3 66 120 80
3 101 80 120
3 120 161 101
3 66 80 61
3 61 62 43
3 46 43 23
3 46 36 39
3 36 23 24
3 24 11 6
3 11 4 6
3 4 11 18
3 1 4 0
3 18 10 5
3 48 64 65
3 88 65 64
3 169 170 108
3 189 141 188
3 145 109 175
3 168 119 165
3 119 168 95
3 95 168 118
3 82 66 46
3 46 39 68
3 98 67 81
3 39 24 41
3 59 41 37
3 24 39 36
3 19 6 17
3 12 3 8
3 5 2 0
3 16 7 21
3 16 21 30
3 14 20 35
3 21 38 58
3 55 71 78
3 78 71 106
3 78 106 108
3 108 124 78
3 78 124 86
3 187 174 124
3 86 124 122
3 122 139 102
3 104 70 102
3 135 188 141
3 141 104 135
3 70 47 54
3 70 54 86
3 47 53 26
3 26 53 51
3 70 75 47
3 47 75 53
3 75 73 53
3 51 53 84
3 84 53 90
3 75 109 73
3 73 109 90
3 90 109 145
3 123 90 145
3 177 123 145
3 90 125 150
3 81 117 142
3 142 140 98
3 140 130 98
3 83 46 68
3 68 107 115
3 98 111 67
3 111 146 133
3 130 172 111
3 103 162 152
3 180 107 143
3 107 133 166
3 166 143 107
3 157 92 129
3 59 87 92
3 92 87 129
3 87 94 131
3 45 63 37
3 37 27 45
3 33 45 27
3 33 27 17
3 33 26 50
3 26 9 15
3 26 15 28
3 54 28 40
3 54 40 58
3 86 54 85
3 58 85 54
3 58 40 30
3 25 30 40
3 85 58 78
3 51 72 50
3 50 72 56
3 56 72 97
3 96 134 154
3 184 157 129
3 179 129 131
3 156 131 94
3 156 94 116
3 79 94 63
3 116 79 91
3 77 91 45
3 45 56 77
3 56 97 77
3 97 164 158
3 132 97 158
3 137 91 155
3 155 91 128
3 128 91 77
3 128 77 113
3 113 132 163
3 132 158 163
3 79 116 94
3 114 183 190
3 114 190 153
3 151 183 114
3 93 110 126
3 159 126 110
3 185 126 159
3 167 191 120
3 120 191 161
3 191 160 161
3 101 161 160
3 101 144 112
3 43 34 23
3 34 43 42
3 62 42 43
3 18 34 42
3 32 18 42
3 32 57 48
3 32 42 57
3 64 93 88
3 88 93 126
3 88 126 100
3 100 126 149
3 95 118 66
3 168 167 118
3 66 118 120
3 120 118 167
3 46 66 43
3 43 66 61
3 1 6 4
3 14 7 20
3 20 7 10
3 7 5 10
3 5 7 2
3 44 32 48
3 49 65 55
3 65 49 44
3 65 44 48
3 71 55 65
3 65 88 100
3 65 100 71
3 100 149 106
3 106 149 169
3 100 106 71
3 108 106 169
3 165 119 121
3 119 95 82
3 74 103 121
3 74 121 82
3 119 82 121
3 82 46 74
3 68 39 67
3 59 81 41
3 41 67 39
3 67 41 81
3 37 41 19
3 37 19 27
3 19 41 24
3 17 27 19
3 9 17 6
3 1 9 6
3 12 9 3
3 3 9 1
3 3 1 0
3 8 3 7
3 3 2 7
3 0 2 3
3 12 13 30
3 16 13 8
3 12 8 13
3 25 12 30
3 16 8 7
3 16 30 13
3 21 7 14
3 38 21 31
3 38 31 55
3 55 31 35
3 35 31 21
3 35 21 14
3 29 49 35
3 29 35 20
3 35 49 55
3 44 49 22
3 32 44 22
3 49 29 22
3 32 22 18
3 18 22 10
3 10 22 20
3 29 20 22
3 52 38 55
3 58 38 52
3 58 52 78
3 78 52 55
3 70 86 102
3 102 86 122
3 135 104 102
3 139 135 102
3 90 53 73
3 125 90 123
3 181 150 125
3 136 157 173
3 117 136 173
3 182 142 117
3 182 117 173
3 172 130 176
3 165 121 152
3 152 121 103
3 138 103 127
3 127 103 74
3 127 74 83
3 46 83 74
3 83 115 127
3 107 68 99
3 107 99 133
3 67 111 99
3 67 99 68
3 99 111 133
3 172 146 111
3 147 127 115
3 147 115 180
3 92 136 117
3 92 117 81
3 92 81 59
3 157 136 92
3 131 129 87
3 63 94 87
3 12 25 28
3 12 28 15
3 12 15 9
3 47 26 28
3 28 54 47
3 50 56 33
3 33 56 45
3 113 77 97
3 72 96 97
3 148 128 113
3 163 148 113
3 110 153 159
3 153 110 114
3 151 114 112
3 80 101 62
3 80 62 61
3 23 36 46
3 18 11 23
3 24 23 11
3 4 18 5
3 189 109 141
3 95 66 82
3 6 19 24
3 5 0 4
3 170 187 124
3 108 170 124
3 122 186 139
3 122 178 186
3 124 178 122
3 178 124 174
3 75 104 109
3 104 75 70
3 104 141 109
3 83 68 115
3 130 111 98
3 81 142 98
3 87 59 63
3 63 59 37
3 9 26 17
3 33 17 26
3 25 40 28
3 58 30 21
3 85 78 86
3 51 50 26
3 69 84 96
3 69 96 72
3 69 72 51
3 69 51 84
3 84 90 105
3 84 105 96
3 134 96 105
3 90 150 105
3 150 134 105
3 138 162 103
3 115 107 180
3 79 63 45
3 91 79 45
3 154 97 96
3 97 154 164
3 116 91 137
3 137 156 116
3 113 97 132
