ply
format ascii 1.0
comment Generated by PyMesh
element vertex 186
property float x
property float y
property float z
property float nx
property float ny
property float nz
element face 308
property list uchar int vertex_indices
end_header
-8.49575 -2.5645 12.975 0.186533 0.919786 -0.345252
-7.47087 -2.52638 13.4104 0.181217 0.970668 -0.157999
-9.30481 -1.76231 13.5004 0.595097 0.508562 -0.622273
-9.42325 -2.72775 11.9522 0.61736 0.784708 -0.0556738
-7.99203 -2.64528 11.2072 -0.0144315 0.992396 0.122235
-7.06962 -2.47638 14.4404 0.328211 0.848099 -0.415938
-10.1517 -1.443 12.8884 0.884903 0.208359 -0.416574
-8.64675 -1.3 14.493 0.694924 0.166547 -0.69953
-7.49125 -1.47625 15.2793 0.469884 0.554722 -0.686653
-9.14338 -2.21881 10.6134 0.525658 0.686227 0.502768
-9.43606 -0.117812 13.4581 0.804556 -0.193789 -0.561369
-5.90675 -2.65587 14.3011 0.000315313 0.991663 -0.12886
-5.72906 -2.47112 12.6509 -0.0788777 0.986902 0.140719
-10.237 -1.322 11.2058 0.927756 0.180387 0.326696
-6.951 -2.5145 9.9525 0.21621 0.976343 0.00262576
-6.2165 -2.099 11.352 -0.0671779 0.99727 0.0306544
-10.1956 -0.223 12.1319 0.948219 -0.288896 -0.131983
-8.08497 -1.88934 9.36447 0.524179 0.786561 0.326433
-8.909 0.4065 14.286 0.73117 -0.497013 -0.4673
-4.765 -2.518 14.248 -0.364464 0.919285 -0.148599
-9.64669 -1.105 10.3852 0.861516 0.199114 0.467058
-8.03256 0.0735625 15.0258 0.517041 -0.337749 -0.786508
-4.69075 -2.53175 13.1115 -0.350228 0.931539 -0.0978508
-8.84081 0.750188 12.7536 0.626112 -0.771068 -0.115926
-6.8605 -0.341 15.9435 0.396037 -0.188333 -0.898713
-5.15737 -2.20863 15.3814 -0.285748 0.688131 -0.666951
-5.82725 -2.50425 9.9965 0.185066 0.85031 -0.49267
-9.06 -0.9825 9.4 0.709073 0.625695 0.325148
-5.79569 -1.33506 16.1006 -0.124208 0.290816 -0.948682
-9.76156 0.291438 11.3061 0.936059 -0.348835 -0.0459032
-6.351 -2.99425 8.68025 0.659098 0.746601 -0.0904267
-9.65375 -0.18225 9.868 0.944339 0.32223 0.066263
-8.26437 -1.01525 8.31125 0.555904 0.831173 -0.0110874
-8.74413 1.04475 11.6525 0.462599 -0.739102 -0.489623
-8.04775 1.27894 13.8454 0.402317 -0.81053 -0.425655
-5.719 -0.127 16.1567 -0.158741 -0.406461 -0.899773
-4.73887 -2.95038 10.0363 0.215907 0.495566 -0.841308
-6.381 0.66075 15.2494 -0.00666402 -0.786907 -0.617035
-3.69738 -1.33834 13.9881 -0.730711 0.470451 -0.494709
-7.16125 -2.234 7.76575 0.557123 0.812604 -0.171138
-7.6435 1.70875 13.037 0.439389 -0.897843 -0.0285534
-9.39925 -0.69575 8.29525 0.516402 0.75225 -0.409204
-3.47725 -2.18625 11.8475 -0.3464 0.841313 -0.414969
-3.15875 -1.42963 12.8542 -0.499533 0.666475 -0.553423
-9.96212 0.7785 9.82487 0.984476 0.0508648 -0.167988
-5.271 -4.34734 9.45378 0.716884 -0.165769 -0.677199
-6.187 -2.8705 7.317 0.76518 0.638045 -0.0860097
-3.648 -2.5685 10.791 0.0512143 0.888126 -0.456737
-7.03288 1.72438 11.6827 0.166318 -0.974006 -0.15379
-4.75675 0.05125 15.3105 -0.547288 -0.301542 -0.780735
-10.1615 0.4705 8.58675 0.911713 0.337515 -0.234228
-9.66938 1.7765 10.3371 0.732011 -0.557361 -0.391801
-3.67 -3.37725 10.0363 0.0528347 0.22804 -0.972217
-5.61875 -4.25737 7.6965 0.978629 0.118664 -0.167943
-8.17025 -1.88312 7.04 0.329029 0.739171 -0.587679
-5.345 0.7695 14.552 -0.203801 -0.759961 -0.617191
-3.83075 -0.304 14.6757 -0.607594 -0.0369576 -0.793388
-8.25669 2.225 10.649 0.102 -0.921986 -0.373547
-6.464 1.99188 13.131 0.114109 -0.94543 -0.305189
-2.33325 -1.6125 12.1005 -0.27871 0.82363 -0.493918
-10.5411 0.020375 7.60388 0.449597 0.384052 -0.806453
-10.148 -1.38462 7.12813 0.229914 0.611414 -0.757174
-6.4485 -3.06988 6.36562 0.581447 0.599726 -0.549771
-5.53575 1.5295 13.741 -0.121869 -0.773495 -0.621975
-2.55194 -2.87169 10.2829 -0.412992 0.578452 -0.703442
-1.991 -1.967 11.037 -0.456314 0.833743 -0.310886
-1.63806 -0.748062 12.9071 -0.00624998 0.683988 -0.729466
-5.77275 1.7585 11.7533 0.118718 -0.992596 -0.0256668
-10.2965 1.40625 7.82575 0.562055 -0.588037 -0.581642
-7.69875 -3.17213 5.98338 0.299425 0.616534 -0.728169
-8.982 -2.2765 6.4235 0.208589 0.693139 -0.689962
-2.90569 0.68025 13.7451 -0.312653 0.115108 -0.942867
-7.16862 2.01875 10.3194 -0.1478 -0.973047 -0.177015
-4.18175 0.935375 14.1839 -0.205217 -0.606615 -0.768052
-6.17556 -5.75075 9.81419 0.879245 -0.409227 -0.243849
-9.33762 2.37037 9.08325 0.361501 -0.930176 -0.0639541
-5.79563 -5.69025 7.32412 0.957859 0.0303151 0.285636
-6.2445 -5.67425 8.35825 0.940384 -0.316391 0.124801
-4.92338 -5.55363 11.0901 0.467586 -0.821285 -0.326885
-11.189 -0.84225 7.053 0.0537119 0.434125 -0.89925
-8.029 2.4285 9.085 -0.0963041 -0.992581 -0.0742225
-2.61469 -4.94441 9.86416 -0.775368 -0.219062 -0.592297
-0.977813 -1.33644 11.9819 -0.0664935 0.980925 -0.18266
-11.8252 -0.017625 7.72687 0.0271841 0.356959 -0.933724
-4.70913 2.10713 12.9949 0.223145 -0.9024 -0.368619
-3.67925 -5.23994 10.9784 -0.0577555 -0.859388 -0.508052
-4.76137 2.07962 11.2802 0.554042 -0.813106 -0.178594
-1.22113 0.0809375 13.5485 0.27894 0.353428 -0.892906
-10.5476 1.928 6.92238 -0.197212 -0.846173 -0.495074
-6.111 -5.624 6.089 0.902457 0.418943 -0.100291
-9.886 -2.553 5.83125 0.231542 0.833637 -0.501436
-8.9555 -3.102 5.67 0.401153 0.74822 -0.528435
-6.624 -4.5115 5.5635 0.517749 0.639978 -0.567772
-1.62925 -2.0845 9.506 -0.672234 0.587866 -0.450016
-8.7625 2.4195 8.222 0.280303 -0.957877 -0.062466
-5.243 2.07262 9.748 0.239633 -0.959016 -0.151212
-0.27 -0.883 13.3573 0.52276 0.654727 -0.545943
-11.3241 -2.33512 5.93962 0.252521 0.915196 -0.314085
-11.772 1.0155 8.0525 -0.0128847 -0.133187 -0.991007
-8.35437 -4.16412 4.94775 0.570471 0.599126 -0.561793
-12.2112 -1.32056 6.83494 0.212442 0.686723 -0.695183
-6.27887 -7.16625 9.82987 0.968248 0.150609 -0.199533
-0.426 -1.17206 10.6077 -0.363504 0.925447 -0.106831
-7.07212 2.2745 8.75 0.0164395 -0.918462 -0.395167
-3.42144 2.20444 13.4284 0.306256 -0.504535 -0.80725
-6.22325 -6.96025 7.58225 0.827747 0.0783912 0.555599
-5.308 -5.77575 12.31 0.323934 -0.933786 -0.152023
-7.5915 -4.8935 5.11925 0.355514 0.720587 -0.595285
-1.30175 1.72675 13.5933 0.251486 0.358882 -0.898865
-2.06519 2.4575 13.891 0.582739 0.418386 -0.696684
-8.85525 2.47675 6.7845 0.496342 -0.751685 -0.434297
-6.60156 -7.33588 8.79594 0.994857 0.0992303 0.0203263
-10.4152 -2.56775 4.9595 0.427255 0.881527 0.200905
-10.4847 2.58538 5.91437 -0.122722 -0.723589 -0.679234
-13.1676 -0.608 7.422 0.357549 0.532034 -0.767528
-1.03 -3.787 8.5425 -0.841293 0.29785 -0.451123
-2.309 -6.189 8.945 -0.990824 0.123307 -0.0553434
-6.14825 -6.61194 11.79 0.929507 -0.355159 -0.0993885
-2.011 -5.875 11.0615 -0.733903 -0.671001 -0.105567
-6.183 -5.011 4.536 0.30348 0.907268 0.291145
-4.69228 -7.21006 6.58134 0.412367 0.69768 0.585829
-11.8441 3.039 6.80875 -0.620274 -0.445901 -0.645316
-7.8825 2.953 7.627 0.482397 -0.698784 -0.528199
-0.118719 0.483594 14.4014 0.788998 0.16338 -0.592275
-3.53912 2.96525 12.1566 0.718337 -0.495399 -0.488439
-4.11125 3.07125 10.2505 0.957848 -0.280915 0.0601128
-0.47025 -1.53 9.122 -0.559631 0.807507 -0.186402
-5.0945 2.38025 8.52125 0.251057 -0.772446 -0.583351
0.721 -1.61625 13.153 0.550536 0.834086 0.034786
-2.68963 -5.70463 12.3524 -0.260663 -0.948494 -0.180039
-6.10838 -7.2915 10.8197 0.978062 0.207388 -0.01962
-12.7525 1.6205 7.86925 0.455324 -0.33272 -0.825819
0.656875 -0.954625 11.0969 -0.172353 0.969797 0.17259
-8.94312 -4.58262 4.06213 0.560501 0.160938 -0.812366
-11.926 -2.06175 4.8235 0.214942 0.911725 0.350082
-6.0835 2.4585 8.3595 0.00776644 -0.751767 -0.659383
-1.90625 -6.818 10.2917 -0.962724 -0.18519 0.197148
-5.725 -6.1115 13.164 0.778413 -0.53643 -0.326062
-13.9104 0.437875 7.28562 0.703222 -0.0278299 -0.710425
-0.620125 -2.47038 8.16737 -0.933496 0.310793 -0.178866
-9.5915 -3.258 3.9775 0.845598 0.469669 -0.25372
-7.58725 -5.17525 4.094 -0.109349 0.717811 -0.687598
-4.036 3.906 11.0367 0.922986 0.0195298 -0.384338
-6.14975 -8.38775 9.2365 0.864514 0.496605 -0.0774548
-3.975 2.80675 8.89725 0.737058 -0.577521 -0.351019
-6.109 -8.09013 8.2005 0.704026 0.548252 0.451407
1.33506 -1.27988 11.9929 0.263704 0.797677 0.542376
-0.2655 1.9445 14.1663 0.782728 0.426397 -0.453346
-5.77 -8.44 10.563 0.951713 0.306736 0.0124313
0.94725 -0.8885 9.82619 -0.162998 0.986589 -0.00857057
-12.9301 -1.75412 5.27763 0.392603 0.909855 -0.134266
-2.66225 3.6205 14.2621 0.891561 0.452106 -0.0268244
-2.18438 -7.15963 8.50113 -0.97819 -0.0684411 0.19611
-10.4535 3.562 5.2365 -0.0918272 -0.622429 -0.77727
-2.55225 3.71012 13.1695 0.925513 0.107021 -0.36328
-7.07575 3.65275 7.62 0.364177 -0.385337 -0.847874
-1.7585 -6.495 11.9974 -0.875271 -0.44215 0.195971
-11.5653 3.48875 5.81225 -0.579591 -0.556343 -0.595447
0.461 -0.8215 15.4971 0.923269 0.377674 0.0702589
-5.116 -5.535 4.308 0.188106 0.463336 0.865988
-12.902 2.5225 6.736 0.196229 0.5215 -0.83038
-8.757 3.626 5.702 0.435516 -0.646049 -0.626855
-8.06475 3.8725 6.61625 0.721615 -0.50556 -0.472948
0.17625 0.576688 15.5509 0.950339 0.299197 0.0856599
-2.3525 -6.17938 7.56938 -0.928894 0.314033 0.196315
-14.1081 -0.705312 6.13575 0.681977 0.608786 -0.405324
-10.2933 -1.5525 3.79225 0.67929 0.548711 0.487321
-4.83238 -6.22475 14.045 0.337459 -0.863933 -0.373821
-0.5245 2.303 15.0765 0.599448 0.783212 -0.165048
-2.78744 -5.99862 13.4154 -0.0566234 -0.97951 -0.193273
-0.949313 -4.12856 7.11919 -0.913709 0.35722 0.193727
-1.71375 -7.84975 10.351 -0.959066 -0.0283712 0.281756
-5.118 3.48338 7.91625 0.3476 -0.00663432 -0.937619
-11.3206 -1.394 4.09538 0.0982185 0.706631 0.700733
-4.2395 -8.5735 7.08169 0.129076 0.635443 0.761282
-2.197 3.26238 15.6433 0.795622 0.605712 0.00992048
-3.716 -6.85975 5.448 -0.263335 0.865654 0.425791
-4.20325 4.8255 11.4265 0.840367 0.417559 -0.345583
-12.8094 -1.55587 3.96275 0.0341578 0.890859 0.452993
-11.8689 4.45662 6.01137 -0.97975 -0.146072 -0.136939
1.41825 -2.4965 14.165 0.754722 0.655694 0.021473
-3.84325 3.8935 8.8005 0.93407 0.220152 -0.281153
-4.4855 4.7605 10.415 0.953016 0.288411 -0.0926233
2.11538 -0.606875 10.9895 0.181246 0.959523 0.21556
-4.75725 -4.3725 3.745 -0.31198 0.546455 0.77721
-1.52013 -6.21325 13.1946 -0.53448 -0.837967 0.110193
3 79 100 83
3 140 166 112
3 112 91 140
3 61 60 41
3 61 41 54
3 54 41 32
3 114 100 165
3 113 157 153
3 157 121 179
3 141 133 99
3 99 91 69
3 91 90 70
3 69 70 54
3 70 61 54
3 54 32 39
3 54 39 69
3 32 17 39
3 26 14 4
3 27 17 32
3 20 27 31
3 27 32 41
3 31 27 50
3 41 50 27
3 50 41 60
3 110 94 68
3 110 122 94
3 80 94 103
3 122 103 94
3 103 122 155
3 110 68 88
3 110 113 161
3 161 113 153
3 184 119 159
3 53 92 62
3 69 62 92
3 92 107 69
3 53 62 46
3 46 39 30
3 45 30 26
3 45 36 52
3 36 26 47
3 47 15 22
3 15 12 22
3 12 15 4
3 19 12 11
3 4 0 1
3 20 31 29
3 44 29 31
3 80 103 72
3 103 155 135
3 135 155 172
3 120 105 145
3 105 120 76
3 76 120 89
3 77 53 45
3 45 52 85
3 116 81 115
3 52 47 64
3 93 64 65
3 47 52 36
3 42 22 43
3 49 25 28
3 1 5 11
3 24 8 21
3 24 21 37
3 7 2 10
3 21 34 58
3 23 33 48
3 48 33 57
3 48 57 72
3 72 95 48
3 48 95 86
3 135 127 95
3 127 135 172
3 86 95 125
3 125 182 142
3 124 104 84
3 124 84 86
3 104 109 71
3 71 109 108
3 124 154 104
3 104 154 109
3 154 151 109
3 108 109 168
3 168 109 175
3 164 152 116
3 120 145 174
3 78 45 85
3 85 129 106
3 116 136 81
3 136 171 156
3 101 148 143
3 167 129 169
3 129 156 185
3 185 169 129
3 93 126 139
3 82 102 65
3 65 59 82
3 66 82 59
3 66 59 43
3 66 71 87
3 71 38 56
3 71 56 73
3 84 73 63
3 84 63 58
3 86 84 67
3 58 67 84
3 58 63 37
3 55 37 63
3 67 58 48
3 108 123 87
3 87 123 96
3 96 123 158
3 132 149 102
3 183 132 146
3 128 146 82
3 82 96 128
3 96 158 128
3 132 183 149
3 173 178 134
3 134 178 150
3 100 150 165
3 114 138 83
3 165 138 114
3 138 131 83
3 121 131 160
3 112 90 91
3 61 97 100
3 61 100 79
3 173 134 112
3 173 112 166
3 112 97 90
3 90 97 61
3 112 134 97
3 100 97 150
3 150 97 134
3 50 60 68
3 83 68 60
3 68 121 88
3 131 121 98
3 68 98 121
3 98 68 83
3 131 98 83
3 100 114 83
3 119 141 92
3 92 141 107
3 141 99 107
3 69 107 99
3 69 91 70
3 30 14 26
3 14 30 17
3 39 17 30
3 4 14 17
3 9 4 17
3 9 27 20
3 9 17 27
3 31 50 44
3 44 50 68
3 44 68 51
3 51 68 75
3 80 75 94
3 94 75 68
3 155 122 162
3 110 162 122
3 161 162 110
3 76 89 53
3 120 119 89
3 53 89 92
3 92 89 119
3 45 53 30
3 30 53 46
3 19 22 12
3 7 8 2
3 2 8 0
3 8 1 0
3 1 8 5
3 13 9 20
3 16 29 23
3 29 16 13
3 29 13 20
3 33 23 29
3 29 44 51
3 29 51 33
3 51 75 57
3 57 75 80
3 51 57 33
3 72 57 80
3 145 105 111
3 105 76 77
3 74 101 111
3 74 111 77
3 105 77 111
3 77 45 74
3 85 52 81
3 93 115 64
3 64 81 52
3 81 64 115
3 65 64 42
3 65 42 59
3 42 64 47
3 43 59 42
3 38 43 22
3 19 38 22
3 49 38 25
3 25 38 19
3 25 19 11
3 28 25 8
3 25 5 8
3 11 5 25
3 49 35 37
3 24 35 28
3 49 28 35
3 55 49 37
3 24 28 8
3 24 37 35
3 21 8 7
3 34 21 18
3 34 18 23
3 23 18 10
3 10 18 21
3 10 21 7
3 6 16 10
3 6 10 2
3 10 16 23
3 13 16 3
3 9 13 3
3 16 6 3
3 9 3 4
3 4 3 0
3 0 3 2
3 6 2 3
3 40 34 23
3 58 34 40
3 58 40 48
3 48 40 23
3 124 86 142
3 142 86 125
3 182 177 142
3 175 109 151
3 145 111 143
3 143 111 101
3 130 101 117
3 117 101 74
3 117 74 78
3 45 78 74
3 78 106 117
3 129 85 118
3 129 118 156
3 81 136 118
3 81 118 85
3 118 136 156
3 137 117 106
3 137 106 167
3 139 170 115
3 139 115 93
3 102 149 126
3 49 55 73
3 49 73 56
3 49 56 38
3 104 71 73
3 73 84 104
3 87 96 66
3 66 96 82
3 180 128 158
3 123 163 158
3 60 79 83
3 79 60 61
3 157 113 121
3 121 113 88
3 99 140 91
3 99 133 140
3 90 61 70
3 113 110 88
3 62 69 39
3 62 39 46
3 26 36 45
3 4 15 26
3 47 26 15
3 12 4 1
3 76 53 77
3 22 42 47
3 1 11 12
3 103 135 95
3 72 103 95
3 144 127 172
3 181 144 172
3 125 181 182
3 125 144 181
3 95 144 125
3 144 95 127
3 78 85 106
3 152 136 116
3 126 93 102
3 102 93 65
3 38 71 43
3 66 43 71
3 55 63 73
3 58 37 21
3 67 48 86
3 108 87 71
3 147 168 163
3 147 163 123
3 147 123 108
3 147 108 168
3 130 148 101
3 106 129 167
3 132 102 82
3 146 132 82
