ply
format ascii 1.0
comment Generated by PyMesh
element vertex 200
property float x
property float y
property float z
property float charge
property float ddc
property float hbond
property float hphob
property float rho
property float si
property float theta
property float nx
property float ny
property float nz
element face 328
property list uchar int vertex_indices
end_header
-4.765 -2.518 14.248 -0.200502 0 0 -0.2 1e-08 -0.84256 2.22045e-16 -0.364464 0.919285 -0.148599
-4.69075 -2.53175 13.1115 -0.183255 -0.1951 0 -0.2 1.13901 -0.383292 5.28641 -0.350228 0.931539 -0.0978508
-5.90675 -2.65587 14.3011 -0.117535 -0.253367 0 -0.2 1.15127 -0.7564 1.22837 0.000315313 0.991663 -0.12886
-5.15737 -2.20863 15.3814 -0.0770677 -0.364254 -0.423582 0.4 1.23865 -0.999859 2.28926 -0.285748 0.688131 -0.666951
-3.69738 -1.33834 13.9881 0.059151 -0.437407 0.407209 0.4 1.61213 -0.414425 3.90388 -0.730711 0.470451 -0.494709
-5.72906 -2.47112 12.6509 -0.209615 -0.24673 0 -0.2 1.8661 -0.310485 2.22045e-16 -0.0788777 0.986902 0.140719
-7.06962 -2.47638 14.4404 -0.0257032 -0.252322 0.0962312 -0.376944 2.33613 -0.731081 1.37985 0.328211 0.848099 -0.415938
-5.79569 -1.33506 16.1006 -0.0309629 -0.380838 0 0.4 2.53782 -0.999871 2.31503 -0.124208 0.290816 -0.948682
-3.83075 -0.304 14.6757 -0.026281 -0.471598 -0.0434052 0.446411 2.8613 -0.560929 3.44891 -0.607594 -0.0369576 -0.793388
-3.15875 -1.42963 12.8542 0.0612547 -0.191118 0.542764 0.4 2.87077 0.166984 4.47184 -0.499533 0.666475 -0.553423
-3.47725 -2.18625 11.8475 0.0116938 0.0690278 0 -0.2 2.92496 -0.07272 4.96596 -0.3464 0.841313 -0.414969
-7.47087 -2.52638 13.4104 -0.0864843 -0.154897 0 -0.2 2.95587 -0.109034 0.965531 0.181217 0.970668 -0.157999
-6.2165 -2.099 11.352 -0.0479317 -0.11241 0 -0.2 3.30249 0.734313 6.17324 -0.0671779 0.99727 0.0306544
-4.75675 0.05125 15.3105 -0.106209 -0.489453 -0.141506 0.669609 3.53486 -0.407501 2.99905 -0.547288 -0.301542 -0.780735
-3.648 -2.5685 10.791 0.102482 0.0922216 0 -0.2 3.68329 0.243116 5.31774 0.0512143 0.888126 -0.456737
-7.49125 -1.47625 15.2793 0.247017 -0.28822 0.704737 -0.777778 3.68688 -0.569798 1.77436 0.469884 0.554722 -0.686653
-5.719 -0.127 16.1567 -0.0384123 -0.458719 0 0.798507 3.74961 -0.999911 2.55304 -0.158741 -0.406461 -0.899773
-2.90569 0.68025 13.7451 0.049932 -0.28035 0 0.4 3.79399 0.0684272 3.75526 -0.312653 0.115108 -0.942867
-6.8605 -0.341 15.9435 0.0436187 -0.410013 0.47085 -0.777778 4.00296 -0.759795 2.24699 0.396037 -0.188333 -0.898713
-2.33325 -1.6125 12.1005 0.0651217 0.0696893 0.0357752 -0.134356 4.00345 -0.221343 4.63647 -0.27871 0.82363 -0.493918
-8.49575 -2.5645 12.975 -0.0942213 -0.108076 -0.18369 -0.368789 4.07005 -0.54535 0.928872 0.186533 0.919786 -0.345252
-4.18175 0.935375 14.1839 -0.0221448 -0.459138 0 0.924198 4.24012 -0.18944 3.32194 -0.205217 -0.606615 -0.768052
-1.63806 -0.748062 12.9071 0.207123 0.144456 0 0.0257813 4.53806 0.00689755 4.30723 -0.00624998 0.683988 -0.729466
-7.99203 -2.64528 11.2072 0.106454 -0.106101 0 -0.2 4.55602 -0.397675 0.389906 -0.0144315 0.992396 0.122235
-1.991 -1.967 11.037 -0.109312 -0.0563486 0 -0.2 4.63199 0.0152856 4.8499 -0.456314 0.833743 -0.310886
-5.345 0.7695 14.552 -0.0206934 -0.513157 0 0.933333 4.73371 0.669516 2.96762 -0.203801 -0.759961 -0.617191
-5.82725 -2.50425 9.9965 0.16658 0.108202 0 -0.2 4.76984 0.279194 6.08748 0.185066 0.85031 -0.49267
-3.67 -3.37725 10.0363 0.238417 0.23004 0 -0.2 4.7897 0.259178 5.4065 0.0528347 0.22804 -0.972217
-2.55194 -2.87169 10.2829 0.0562423 0.125391 -0.338533 -0.154071 4.86764 -0.147396 5.16097 -0.412992 0.578452 -0.703442
-4.73887 -2.95038 10.0363 0.168411 0.197172 0 -0.2 5.06366 0.440618 5.64617 0.215907 0.495566 -0.841308
-8.64675 -1.3 14.493 -0.307199 -0.311813 -0.805512 -0.777778 5.0956 -0.640637 1.63617 0.694924 0.166547 -0.69953
-6.381 0.66075 15.2494 0.00722077 -0.475508 0 0.933333 5.12146 -0.597313 2.62154 -0.00666402 -0.786907 -0.617035
-9.30481 -1.76231 13.5004 -0.51173 -0.21207 -0.615631 -0.777778 5.3247 -0.45824 1.24161 0.595097 0.508562 -0.622273
-8.03256 0.0735625 15.0258 -0.074313 -0.366477 0 0.317122 5.34796 -0.424753 2.08589 0.517041 -0.337749 -0.786508
-0.977813 -1.33644 11.9819 0.0576827 0.0451359 0 -0.155669 5.39179 -0.143982 4.5287 -0.0664935 0.980925 -0.18266
-3.42144 2.20444 13.4284 -0.243935 -0.324898 -0.116342 0.9093 5.43395 -0.172714 3.50867 0.306256 -0.504535 -0.80725
-9.42325 -2.72775 11.9522 -0.069941 -0.172324 0 -0.779522 5.46039 -0.999869 0.782388 0.61736 0.784708 -0.0556738
-1.22113 0.0809375 13.5485 0.0400333 0.220259 0 0.4 5.59276 -0.0746796 4.09544 0.27894 0.353428 -0.892906
-1.30175 1.72675 13.5933 -0.0387437 0.175185 0 0.4 5.71514 0.635166 3.84533 0.251486 0.358882 -0.898865
-2.06519 2.4575 13.891 -0.0912767 0.184605 0 0.4 5.76537 0.0798758 3.69363 0.582739 0.418386 -0.696684
-5.53575 1.5295 13.741 -0.000628653 -0.41861 0 0.933333 5.78364 -0.198105 3.01552 -0.121869 -0.773495 -0.621975
-6.951 -2.5145 9.9525 0.198646 -0.111932 0 -0.2 5.8945 -0.0955885 6.25493 0.21621 0.976343 0.00262576
-9.14338 -2.21881 10.6134 0.047993 -0.197277 0 -0.866667 5.91986 -0.594547 0.525521 0.525658 0.686227 0.502768
-0.27 -0.883 13.3573 0.187824 0.173954 0 -0.2 5.98459 -0.074031 4.30299 0.52276 0.654727 -0.545943
-4.70913 2.10713 12.9949 -0.0695653 -0.394152 0 0.112684 5.99079 -0.234144 3.23404 0.223145 -0.9024 -0.368619
-1.62925 -2.0845 9.506 -0.3736 -0.101152 -0.239979 -0.0888889 6.20952 0.693731 5.16097 -0.672234 0.587866 -0.450016
-6.351 -2.99425 8.68025 0.534287 -0.16081 0 -0.533636 6.26882 -0.0896829 6.25493 0.659098 0.746601 -0.0904267
-10.1517 -1.443 12.8884 -0.57693 -0.236441 -0.0908054 -0.810518 6.41728 -0.920442 1.24161 0.884903 0.208359 -0.416574
-0.426 -1.17206 10.6077 -0.082501 -0.0381245 0 -0.0888889 6.43904 0.701762 4.5287 -0.363504 0.925447 -0.106831
-8.909 0.4065 14.286 -0.223873 -0.341355 -0.102703 -0.210171 6.54224 -0.729122 2.08589 0.73117 -0.497013 -0.4673
-8.08497 -1.88934 9.36447 0.207993 -0.166281 0 -0.866667 6.54994 -0.139227 6.25493 0.524179 0.786561 0.326433
-5.271 -4.34734 9.45378 0.429117 0.291243 0 -0.2 6.66802 0.0790899 5.64617 0.716884 -0.165769 -0.677199
-2.61469 -4.94441 9.86416 0.323553 0.23912 0 -0.0888889 6.68688 0.0684234 5.4065 -0.775368 -0.219062 -0.592297
-9.43606 -0.117812 13.4581 -0.329975 -0.292638 -0.0503273 0.201144 6.8539 -0.30643 1.24161 0.804556 -0.193789 -0.561369
-3.67925 -5.23994 10.9784 0.37313 0.41218 0 -0.2 6.8771 -0.054301 5.4065 -0.0577555 -0.859388 -0.508052
-0.2655 1.9445 14.1663 -0.044284 0.18101 0 0.4 6.91912 0.999923 3.84533 0.782728 0.426397 -0.453346
-3.53912 2.96525 12.1566 -0.429103 -0.287774 -0.08843 0.764851 6.92061 0.402783 3.50867 0.718337 -0.495399 -0.488439
-6.464 1.99188 13.131 0.00731747 -0.38528 0 0.0184685 6.98678 -0.596023 3.01552 0.114109 -0.94543 -0.305189
-8.04775 1.27894 13.8454 -0.0537283 -0.368807 0 0.652107 7.03512 -0.659816 2.08589 0.402317 -0.81053 -0.425655
-0.118719 0.483594 14.4014 -0.026709 0.237494 0 0.4 7.04358 0.265661 4.09544 0.788998 0.16338 -0.592275
-2.66225 3.6205 14.2621 -0.273342 0.192824 -0.58913 0.933333 7.12433 -0.527157 3.69363 0.891561 0.452106 -0.0268244
-9.64669 -1.105 10.3852 -0.036121 -0.237866 0 -0.866667 7.16323 -0.146609 0.525521 0.861516 0.199114 0.467058
-2.55225 3.71012 13.1695 -0.505203 -0.21265 -0.724129 0.933333 7.19167 0.504424 3.69363 0.925513 0.107021 -0.36328
0.721 -1.61625 13.153 0.124071 0.150906 0 -0.2 7.23418 -0.13008 4.30299 0.550536 0.834086 0.034786
-10.237 -1.322 11.2058 -0.214441 -0.237446 -0.238289 -0.866667 7.24797 -0.926325 0.525521 0.927756 0.180387 0.326696
0.656875 -0.954625 11.0969 0.257629 -0.0722534 0 -0.0888889 7.28947 0.407777 4.5287 -0.172353 0.969797 0.17259
-1.03 -3.787 8.5425 0.191599 -0.128192 -0.000550657 -0.0888889 7.35422 -0.66072 5.16097 -0.841293 0.29785 -0.451123
-0.5245 2.303 15.0765 -0.041517 0.132293 0 0.4 7.48604 0.563277 3.84533 0.599448 0.783212 -0.165048
-0.47025 -1.53 9.122 -0.106855 -0.0533172 -0.47734 -0.0888889 7.5505 0.17356 5.16097 -0.559631 0.807507 -0.186402
-6.187 -2.8705 7.317 0.785327 -0.14983 0.122961 -0.866667 7.64746 0.873616 6.25493 0.76518 0.638045 -0.0860097
-9.06 -0.9825 9.4 0.0107298 -0.175204 0 -0.866667 7.65415 0.0899438 0.525521 0.709073 0.625695 0.325148
-5.77275 1.7585 11.7533 -0.103253 -0.390047 0 -0.777778 7.66244 0.612708 3.23404 0.118718 -0.992596 -0.0256668
-2.197 3.26238 15.6433 -0.0775123 0.173043 0 0.615136 7.69818 -0.0857681 3.69363 0.795622 0.605712 0.00992048
1.33506 -1.27988 11.9929 0.171192 0.147703 0 -0.184761 7.70538 0.187838 4.5287 0.263704 0.797677 0.542376
-4.76137 2.07962 11.2802 -0.115962 -0.349957 0 -0.777778 7.70651 0.343031 3.23404 0.554042 -0.813106 -0.178594
-7.16125 -2.234 7.76575 0.524633 -0.11705 0.104137 -0.866667 7.70784 0.213785 6.25493 0.557123 0.812604 -0.171138
-10.1956 -0.223 12.1319 -0.318546 -0.272194 -0.563898 -0.758511 7.85346 -0.999829 1.24161 0.948219 -0.288896 -0.131983
-0.620125 -2.47038 8.16737 0.103473 -0.12748 -0.60344 -0.38732 7.92975 -0.131727 5.16097 -0.933496 0.310793 -0.178866
-8.26437 -1.01525 8.31125 0.0134116 -0.11969 0 -0.866667 7.93034 0.802344 6.25493 0.555904 0.831173 -0.0110874
-5.61875 -4.25737 7.6965 1 0.214324 0.473898 -0.866667 8.02934 0.429686 6.25493 0.978629 0.118664 -0.167943
-7.6435 1.70875 13.037 -0.0383143 -0.373718 0 0.173561 8.03595 -0.768098 3.01552 0.439389 -0.897843 -0.0285534
0.94725 -0.8885 9.82619 0.196768 -0.0398039 0.025898 -0.0888889 8.04434 0.0536257 4.5287 -0.162998 0.986589 -0.00857057
-8.84081 0.750188 12.7536 -0.0905627 -0.352051 0 0.4 8.11419 -0.0673089 2.08589 0.626112 -0.771068 -0.115926
-4.92338 -5.55363 11.0901 0.315841 0.430245 0 -0.2 8.16502 0.080399 5.4065 0.467586 -0.821285 -0.326885
-9.65375 -0.18225 9.868 -0.0384657 -0.197065 0 -0.866667 8.22107 0.035881 0.525521 0.944339 0.32223 0.066263
0.17625 0.576688 15.5509 -0.020969 0.233252 0 0.4 8.23397 0.545594 4.09544 0.950339 0.299197 0.0856599
0.461 -0.8215 15.4971 -0.179853 0.236412 -0.262187 -0.00454918 8.24665 0.0375989 4.30299 0.923269 0.377674 0.0702589
-2.309 -6.189 8.945 0.43995 0.16344 0 -0.0888889 8.264 0.159897 5.4065 -0.990824 0.123307 -0.0553434
-2.011 -5.875 11.0615 0.37523 0.312836 -0.0252554 -0.253553 8.31908 -0.495688 5.4065 -0.733903 -0.671001 -0.105567
-6.17556 -5.75075 9.81419 0.51025 0.30741 0 -0.0888889 8.37614 -0.485206 5.64617 0.879245 -0.409227 -0.243849
-4.036 3.906 11.0367 -0.250796 -0.204398 -0.968542 0.866969 8.4653 0.119188 3.50867 0.922986 0.0195298 -0.384338
-3.25887 4.56738 12.2809 -0.43913 -0.156171 -0.328631 0.933333 8.55181 0.662804 3.69363 0.800686 0.402702 -0.443545
-7.03288 1.72438 11.6827 -0.088661 -0.357458 0 -0.777778 8.56562 0.110981 3.01552 0.166318 -0.974006 -0.15379
-0.72125 2.289 16.1483 -0.0342737 0.183658 0 0.4 8.57584 0.999841 3.84533 0.68701 0.597577 0.413423
-2.68963 -5.70463 12.3524 0.373157 0.442422 0 -0.2 8.63299 -0.389516 5.4065 -0.260663 -0.948494 -0.180039
-6.2445 -5.67425 8.35825 0.839817 0.257358 0.48189 -0.866667 8.64503 -0.593974 5.64617 0.940384 -0.316391 0.124801
-6.4485 -3.06988 6.36562 0.82373 0.113704 0.232478 -0.866667 8.65407 0.999867 6.25493 0.581447 0.599726 -0.549771
-3.34713 4.98025 13.9406 -0.22497 0.128412 -0.00143782 0.933333 8.6804 0.474327 3.69363 0.690626 0.722087 -0.0403192
-1.90625 -6.818 10.2917 0.36039 0.217608 -0.276012 -0.372184 8.73505 -0.273895 5.4065 -0.962724 -0.18519 0.197148
1.41825 -2.4965 14.165 -0.0174466 0.173482 -0.188425 -0.2 8.74585 -0.577821 4.30299 0.754722 0.655694 0.021473
2.11538 -0.606875 10.9895 0.0126506 0.0833996 0 -0.0888889 8.7927 0.999888 4.5287 0.181246 0.959523 0.21556
-0.949313 -4.12856 7.11919 0.359443 -0.122379 0 -0.584002 8.82017 -0.611672 5.16097 -0.913709 0.35722 0.193727
-9.76156 0.291438 11.3061 -0.0964303 -0.271594 0 0.4 8.83992 -0.15531 0.525521 0.936059 -0.348835 -0.0459032
-9.39925 -0.69575 8.29525 0.0114345 -0.100726 0 -0.866667 8.84486 0.0238771 0.525521 0.516402 0.75225 -0.409204
-8.17025 -1.88312 7.04 0.270622 0.0833413 0.232979 -0.866667 8.99932 0.677647 6.25493 0.329029 0.739171 -0.587679
-5.308 -5.77575 12.31 0.303794 0.508953 0 -0.2 9.04806 -0.624294 5.4065 0.323934 -0.933786 -0.152023
-2.635 4.1795 16.67 -0.279625 -0.192391 -0.821095 -0.703502 9.14285 -0.0520369 3.69363 0.976227 0.215117 -0.0265578
-2.38525 3.11525 17.1514 -0.092415 0.226923 -0.0187242 0.352111 9.22509 0.273169 3.69363 0.907728 0.15737 0.388928
-9.96212 0.7785 9.82487 -0.0460157 -0.19891 0 -0.866667 9.23102 -0.429738 0.525521 0.984476 0.0508648 -0.167988
2.2445 -2.9305 13.324 -0.0321753 0.136757 -0.242896 -0.0993964 9.25348 -0.199769 4.30299 0.529716 0.796814 0.29067
-8.74413 1.04475 11.6525 -0.0659547 -0.30627 0 0.4 9.2581 0.178468 2.08589 0.462599 -0.739102 -0.489623
-0.030375 -1.28225 7.4885 0.122921 -0.0544213 0.00467234 -0.980047 9.26023 0.180699 5.16097 -0.531229 0.845946 0.0465979
-4.11125 3.07125 10.2505 -0.46734 -0.251236 -0.675989 -0.700584 9.27694 0.336372 3.23404 0.957848 -0.280915 0.0601128
-5.243 2.07262 9.748 -0.325034 -0.302645 0 -0.777778 9.31264 0.477433 3.23404 0.239633 -0.959016 -0.151212
-2.18438 -7.15963 8.50113 0.52569 0.170459 0 -0.0888889 9.33856 -0.211752 5.4065 -0.97819 -0.0684411 0.19611
1.37888 -0.50825 8.64587 0.109163 0.0394104 0.781538 -0.0888889 9.35737 0.999862 4.5287 0.0043209 0.99807 -0.0619493
1.0885 -1.792 15.59 -0.344987 0.203623 -0.1352 -0.2 9.40607 0.485408 4.30299 0.785731 0.548415 0.286124
-1.7585 -6.495 11.9974 0.3505 0.290284 0 -1 9.46976 0.0230992 5.4065 -0.875271 -0.44215 0.195971
-0.3905 1.08862 16.5249 0.0325132 0.213837 0 0.4 9.47169 0.16957 4.09544 0.735052 0.490011 0.468602
-4.20325 4.8255 11.4265 -0.220652 -0.151181 -0.405314 0.0119865 9.47792 -0.206258 3.50867 0.840367 0.417559 -0.345583
-0.7125 -3.14287 6.77037 0.40072 -0.141714 0 -1 9.48293 -0.786713 5.16097 -0.909629 0.176453 0.376085
-5.79563 -5.69025 7.32412 0.66977 -0.208176 0.297821 -0.863844 9.52034 0.225146 5.64617 0.957859 0.0303151 0.285636
3.03731 -1.60906 11.3639 0.0088269 0.160475 0 -0.0888889 9.54974 0.999849 4.5287 0.822196 0.430406 0.372484
-4.4855 4.7605 10.415 -0.342483 -0.165711 -0.01597 -0.777778 9.61366 -0.396687 3.50867 0.953016 0.288411 -0.0926233
-2.3525 -6.17938 7.56938 0.610377 -0.130828 0.281908 -0.506213 9.64034 0.253721 5.4065 -0.928894 0.314033 0.196315
-10.1615 0.4705 8.58675 -0.04119 -0.154256 0 -0.866667 9.65062 -0.215396 0.525521 0.911713 0.337515 -0.234228
-3.95775 5.3385 12.688 -0.27018 -0.113751 -0.1101 0.636236 9.6693 0.263018 3.69363 0.646367 0.75457 -0.113288
-1.69987 -5.249 6.81862 0.450617 -0.09471 0.09057 -0.79922 9.71175 -0.615685 5.16097 -0.818807 0.560268 0.125122
-2.78744 -5.99862 13.4154 0.311591 0.469171 0 -0.2 9.74023 -0.106675 5.4065 -0.0566234 -0.97951 -0.193273
-3.2905 5.03075 15.7904 -0.174915 -0.138843 -0.0880181 0.570087 9.78253 0.0588696 3.69363 0.787444 0.554987 -0.26818
-1.71375 -7.84975 10.351 0.248422 0.182522 -0.236758 -0.347251 9.78628 -0.791293 5.4065 -0.959066 -0.0283712 0.281756
-7.69875 -3.17213 5.98338 0.781853 0.0863699 0.112886 -0.866667 9.79251 0.118032 6.25493 0.299425 0.616534 -0.728169
-6.27887 -7.16625 9.82987 0.573587 0.217909 0 -0.0888889 9.7955 -0.176118 5.64617 0.968248 0.150609 -0.199533
2.16725 -3.2545 14.2727 -0.0208384 0.110985 -0.619423 -0.0888889 9.81691 -0.966658 4.30299 0.449237 0.890676 0.069866
-2.09125 1.976 17.3424 -0.0178084 0.208581 0 0.480791 9.83194 -0.304671 3.69363 0.608348 0.545546 0.576448
-6.14825 -6.61194 11.79 0.412833 0.350712 0 -0.120257 9.92859 -0.444363 5.4065 0.929507 -0.355159 -0.0993885
-0.048625 -0.01975 17.1349 0.090348 0.22945 0.17214 0.4 9.94141 0.315266 4.30299 0.914035 0.335831 0.227503
2.98381 -2.79806 11.9629 -0.0177105 0.16276 0 -0.0888889 9.94684 0.0389693 4.5287 0.843361 0.450121 0.293484
2.82544 -1.15769 9.54619 0.00558137 0.098637 0 -0.0888889 9.96227 0.459066 4.5287 0.599762 0.800153 -0.00639302
-7.16862 2.01875 10.3194 -0.231346 -0.294898 0 -0.777778 9.96693 0.403521 3.01552 -0.1478 -0.973047 -0.177015
-0.945625 -1.96769 6.20687 0.41249 -0.127244 0 -1 9.97968 0.0726819 5.16097 -0.792355 0.33976 0.506693
0.352625 -2.17337 16.6042 -0.222807 0.221789 -0.770097 -0.2 9.99735 -0.632978 4.30299 0.727082 0.546677 0.415326
-5.725 -6.1115 13.164 0.28495 0.459893 0 -0.199861 10.056 -0.999881 5.4065 0.778413 -0.53643 -0.326062
-8.982 -2.2765 6.4235 0.0985167 0.0723573 0 -0.866667 10.0919 0.225585 6.25493 0.208589 0.693139 -0.689962
1.949 -2.88838 15.3646 0.0469567 0.103965 -0.0190359 -0.104029 10.1149 -0.297325 4.30299 0.418269 0.908187 -0.0157375
-0.144 -1.296 17.223 0.0337867 0.269108 0 0.4 10.1361 -0.671859 4.30299 0.973384 0.143414 0.178763
-6.22325 -6.96025 7.58225 0.517227 -0.196695 0 -0.777778 10.1472 -0.999844 5.64617 0.827747 0.0783912 0.555599
-1.52013 -6.21325 13.1946 0.52676 0.364859 0 -0.2 10.1613 -0.524356 5.4065 -0.53448 -0.837967 0.110193
-6.111 -5.624 6.089 0.57352 -0.142739 0.517632 -0.801127 10.1959 -0.586464 6.25493 0.902457 0.418943 -0.100291
-8.25669 2.225 10.649 -0.118063 -0.272753 0 0.4 10.244 -0.654195 3.01552 0.102 -0.921986 -0.373547
-6.60156 -7.33588 8.79594 0.630253 0.20194 0 -0.256651 10.3077 -0.999867 5.64617 0.994857 0.0992303 0.0203263
-2.13225 -8.094 9.39625 0.419197 0.148695 0 0.107925 10.3102 -0.0980801 5.4065 -0.947777 0.184363 0.260248
-6.624 -4.5115 5.5635 0.468287 0.0937863 0 -0.866667 10.3131 0.1465 6.25493 0.517749 0.639978 -0.567772
-10.5411 0.020375 7.60388 -0.0416343 -0.110987 0 -0.866667 10.3597 0.287834 0.525521 0.449597 0.384052 -0.806453
-9.66938 1.7765 10.3371 -0.0597057 -0.233605 0 0.4 10.3904 -0.672893 0.525521 0.732011 -0.557361 -0.391801
-10.148 -1.38462 7.12813 0.016896 0.0814427 0 -0.866667 10.3932 -0.219836 0.525521 0.229914 0.611414 -0.757174
-1.476 -3.1625 5.95813 0.62033 -0.150656 0.397828 -1 10.4198 0.0432137 5.16097 -0.693237 0.143144 0.706351
-4.19763 5.60075 15.3389 0.0318166 -0.090523 0 0.0206054 10.4307 -0.0974179 3.69363 0.500062 0.824202 -0.265761
-2.162 -8.0945 7.9165 0.50133 -0.123591 0 -0.0888889 10.4414 -0.999892 5.4065 -0.909633 0.295624 0.291845
-2.41925 5.115 17.606 -0.458127 -0.156296 -0.0345117 -0.777778 10.4837 0.999897 3.69363 0.946864 0.319901 -0.0333402
-5.0945 2.38025 8.52125 -0.57556 -0.237743 -0.0940975 -0.777778 10.5861 0.999876 3.23404 0.251057 -0.772446 -0.583351
1.572 -0.953875 7.497 0.332302 0.0341651 0.197939 -0.676238 10.6047 0.159922 4.5287 0.0473165 0.987682 -0.149147
-3.36337 2.64575 18.0592 -0.108321 0.244396 0 0.933333 10.6397 -0.99988 3.69363 0.902201 0.0508714 0.428306
-1.81662 -4.56588 5.56887 0.41354 -0.131173 0.340609 -1 10.6496 -0.672701 5.16097 -0.783066 0.239221 0.574091
-3.975 2.80675 8.89725 -0.39338 -0.236313 -0.127209 -0.777778 10.6625 0.999908 3.23404 0.737058 -0.577521 -0.351019
-0.04025 -0.651 6.15987 0.19916 -0.0988469 0 -1 10.7312 0.193422 5.16097 -0.333882 0.706318 0.62421
-6.10838 -7.2915 10.8197 0.50502 0.238342 0 -0.0888889 10.8077 0.0510481 5.64617 0.978062 0.207388 -0.01962
-4.608 6.026 11.9055 -0.0887107 -0.115546 0 -0.777778 10.8323 0.451738 3.69363 0.68848 0.718403 0.0994643
-5.1055 5.892 13.079 -0.0616007 -0.0995289 0 -0.648622 10.8404 -0.306029 3.69363 0.455329 0.8685 0.195915
-10.2965 1.40625 7.82575 -0.117352 -0.186089 0 -0.777778 10.8643 -0.0680291 0.525521 0.562055 -0.588037 -0.581642
-0.950875 -7.54581 12.4346 0.0322214 0.265202 -0.245019 -1 10.8653 0.0521168 5.4065 -0.632297 -0.545991 0.549632
-4.83238 -6.22475 14.045 0.203985 0.507259 0 -0.172968 10.9023 -0.343419 5.4065 0.337459 -0.863933 -0.373821
-1.463 -8.376 11.3333 0.176508 0.21145 -0.105314 -1 10.9285 0.32598 5.4065 -0.806276 -0.255371 0.533577
-2.81013 -7.37475 7.02338 0.598937 -0.138874 0.0306396 -1 10.9577 -0.310992 5.4065 -0.632572 0.310152 0.709689
-3.84325 3.8935 8.8005 -0.580343 -0.161548 -0.0671802 -0.777778 10.9653 0.999899 3.23404 0.93407 0.220152 -0.281153
-1.338 1.19181 17.6868 0.0735857 0.160749 -0.0216339 0.4 10.9725 -0.18988 3.69363 0.566838 0.78206 0.258992
-6.0835 2.4585 8.3595 -0.411577 -0.222145 0 -0.777778 10.981 0.629984 3.23404 0.00776644 -0.751767 -0.659383
-2.90875 4.09081 18.5298 -0.48005 0.197963 0 -0.777778 10.9931 0.149452 3.69363 0.93335 0.0431182 0.356369
-2.88225 -6.48225 6.32975 0.59626 -0.0869509 0.800479 -1 11.022 0.105173 5.4065 -0.654714 0.679947 0.330186
-4.487 4.90325 9.013 -0.565527 -0.134012 0 -0.492269 11.0229 0.272477 3.50867 0.825406 0.350902 -0.442236
3.73475 -3.857 12.9416 -0.590933 0.135366 -0.122123 -0.0888889 11.0494 0.40094 4.30299 0.852845 0.491264 -0.17696
3.34275 -2.1375 9.62875 -0.085986 0.145639 0 -0.0888889 11.0733 0.296307 4.5287 0.924517 0.35699 0.133518
1.475 -1.086 6.477 0.206609 -0.0595182 0 -1 11.0845 -0.482249 5.16097 0.0342105 0.968835 0.245335
-4.76788 6.18337 10.7781 -0.0368843 -0.150658 0 -0.777778 11.0851 0.0710087 3.50867 0.95694 0.275616 0.0911152
-8.9555 -3.102 5.67 -0.219211 -0.0735989 -0.300687 -0.821164 11.0896 -0.278896 6.25493 0.401153 0.74822 -0.528435
-0.39 0.413 18.214 0.164824 0.160682 0.742411 0.4 11.1531 0.620247 4.30299 0.73976 0.671908 0.0359859
-6.14975 -8.38775 9.2365 0.642467 0.153083 0 0.597371 11.1596 -0.682244 5.64617 0.864514 0.496605 -0.0774548
0.06575 -2.3305 17.754 -0.0134932 0.18654 0 -0.303251 11.1928 -0.999892 4.30299 0.80471 0.588191 -0.0804567
-1.88644 -9.22363 10.6494 0.397807 -0.140206 0 0.844444 11.2028 -0.0799102 5.4065 -0.616614 0.425512 0.662365
-9.886 -2.553 5.83125 -0.130164 -0.0529967 0 -0.84122 11.2075 -0.205416 0.525521 0.231542 0.833637 -0.501436
-3.367 6.027 16.8283 -0.213069 -0.108262 0 -0.777778 11.2232 0.41346 3.69363 0.674356 0.599216 -0.431491
-1.91937 -6.21275 14.6142 0.51438 0.389719 0.0700813 -0.50916 11.2357 -0.761247 5.4065 -0.314087 -0.892927 -0.322539
3.62036 -3.47747 14.6618 0.0186754 0.0580666 -0.123995 0.241489 11.2489 0.0811992 4.30299 0.240951 0.885612 -0.397031
2.5135 -2.826 16.3565 0.292314 0.0326415 0.566351 -0.0888889 11.2579 0.112942 4.30299 -0.15571 0.98591 -0.0611299
-1.8625 -1.868 5.281 0.414427 -0.126226 0 -1 11.2865 0.454107 5.16097 -0.642916 0.358324 0.676951
-5.77 -8.44 10.563 0.568423 0.194894 0 -0.0888889 11.3508 0.23855 5.64617 0.951713 0.306736 0.0124313
-2.85106 1.43381 18.5451 0.00659263 0.146339 0 0.663833 11.3544 -0.999878 3.69363 0.570784 0.815801 0.0931418
-8.35437 -4.16412 4.94775 -0.453847 0.0903233 -0.475452 -0.816929 11.3693 -0.0223487 6.25493 0.570471 0.599126 -0.561793
3.03312 -1.56288 8.17488 0.181967 0.0904335 0 -0.227267 11.3749 0.0566503 4.5287 0.589905 0.806294 0.0436145
-6.109 -8.09013 8.2005 0.609747 -0.150581 0.0100599 -0.777778 11.3876 -0.999782 5.64617 0.704026 0.548252 0.451407
3 155 153 103
3 155 103 104
3 104 103 78
3 197 184 131
3 184 189 143
3 131 143 104
3 143 155 104
3 104 78 75
3 104 75 131
3 78 50 75
3 26 41 23
3 70 50 78
3 61 70 84
3 70 78 103
3 84 70 125
3 103 125 70
3 125 103 153
3 79 152 96
3 131 96 152
3 79 96 69
3 69 75 46
3 51 46 26
3 51 29 27
3 29 26 14
3 14 12 1
3 12 5 1
3 5 12 23
3 0 5 2
3 23 20 11
3 61 84 102
3 108 102 84
3 168 126 167
3 129 97 157
3 157 190 129
3 95 79 51
3 51 27 54
3 87 52 66
3 27 14 28
3 45 28 24
3 14 27 29
3 10 1 9
3 13 3 7
3 11 6 2
3 18 15 33
3 18 33 31
3 30 32 53
3 33 58 57
3 82 110 92
3 92 110 149
3 92 149 139
3 139 113 92
3 92 113 74
3 176 160 113
3 74 113 112
3 112 123 90
3 91 56 90
3 119 123 183
3 119 167 126
3 126 91 119
3 56 35 44
3 56 44 74
3 35 39 17
3 17 39 38
3 56 62 35
3 35 62 39
3 62 60 39
3 38 39 67
3 67 39 72
3 62 97 60
3 60 97 72
3 72 97 129
3 106 72 129
3 159 106 129
3 159 177 106
3 106 177 107
3 72 107 134
3 66 101 127
3 127 124 87
3 124 173 114
3 124 114 87
3 83 51 54
3 54 94 105
3 87 98 52
3 98 130 117
3 117 130 172
3 114 151 98
3 130 188 172
3 132 195 186
3 171 94 128
3 94 117 147
3 147 128 94
3 140 77 111
3 45 68 77
3 77 68 111
3 68 81 115
3 34 48 24
3 24 19 34
3 22 34 19
3 22 19 9
3 22 17 37
3 17 4 8
3 17 8 21
3 44 21 40
3 44 40 57
3 74 44 71
3 57 71 44
3 57 40 31
3 25 31 40
3 71 57 92
3 38 59 37
3 37 59 43
3 43 59 86
3 85 118 136
3 134 175 118
3 182 165 111
3 165 140 111
3 182 111 161
3 161 111 115
3 138 115 81
3 138 81 100
3 65 81 48
3 100 65 73
3 63 73 34
3 34 43 63
3 43 86 63
3 86 145 141
3 116 86 141
3 138 181 198
3 180 137 109
3 122 73 137
3 137 73 109
3 109 73 63
3 109 63 99
3 99 116 144
3 116 141 144
3 180 109 192
3 65 100 81
3 125 153 169
3 131 184 143
3 46 41 26
3 41 46 50
3 75 50 46
3 23 41 50
3 42 23 50
3 42 70 61
3 42 50 70
3 84 125 108
3 108 125 169
3 108 169 154
3 121 148 79
3 79 148 152
3 51 79 46
3 46 79 69
3 0 1 5
3 30 15 32
3 32 15 20
3 15 11 20
3 11 15 6
3 64 42 61
3 76 102 82
3 102 76 64
3 102 64 61
3 110 82 102
3 102 108 154
3 102 154 110
3 154 149 110
3 199 146 150
3 146 121 95
3 89 132 150
3 89 150 95
3 146 95 150
3 95 51 89
3 54 27 52
3 45 66 28
3 28 52 27
3 52 28 66
3 24 28 10
3 24 10 19
3 10 28 14
3 9 19 10
3 4 9 1
3 0 4 1
3 13 4 3
3 3 4 0
3 3 0 2
3 7 3 15
3 3 6 15
3 2 6 3
3 13 16 31
3 18 16 7
3 13 7 16
3 25 13 31
3 18 7 15
3 18 31 16
3 33 15 30
3 58 33 49
3 58 49 82
3 82 49 53
3 53 49 33
3 53 33 30
3 47 76 53
3 47 53 32
3 53 76 82
3 64 76 36
3 42 64 36
3 76 47 36
3 42 36 23
3 23 36 20
3 20 36 32
3 47 32 36
3 80 58 82
3 57 58 80
3 57 80 92
3 92 80 82
3 56 74 90
3 90 74 112
3 119 91 90
3 123 119 90
3 183 123 179
3 72 39 60
3 107 72 106
3 162 134 107
3 162 107 177
3 140 194 156
3 120 140 156
3 101 120 156
3 163 127 101
3 163 101 156
3 158 114 173
3 151 114 158
3 199 150 186
3 186 150 132
3 166 132 135
3 135 132 89
3 135 89 83
3 51 83 89
3 83 105 135
3 94 54 88
3 94 88 117
3 52 98 88
3 52 88 54
3 88 98 117
3 188 130 151
3 151 130 98
3 142 135 105
3 142 105 171
3 147 117 170
3 191 128 147
3 77 120 101
3 77 101 66
3 77 66 45
3 140 120 77
3 115 111 68
3 48 81 68
3 13 25 21
3 13 21 8
3 13 8 4
3 35 17 21
3 21 44 35
3 136 118 175
3 136 175 185
3 196 134 162
3 175 134 196
3 37 43 22
3 22 43 34
3 99 63 86
3 59 85 86
3 145 187 141
3 133 109 99
3 192 109 133
3 192 133 144
3 144 133 99
3 189 155 143
3 96 131 75
3 96 75 69
3 26 29 51
3 23 12 26
3 14 26 12
3 5 23 11
3 168 97 126
3 121 79 95
3 1 10 14
3 11 2 5
3 174 179 123
3 112 174 123
3 112 164 174
3 113 164 112
3 164 113 160
3 119 183 167
3 62 91 97
3 91 62 56
3 91 126 97
3 190 159 129
3 127 178 124
3 173 124 178
3 83 54 105
3 114 98 87
3 66 127 87
3 68 45 48
3 48 45 24
3 4 17 9
3 22 9 17
3 25 40 21
3 57 31 33
3 71 92 74
3 38 37 17
3 55 67 85
3 55 85 59
3 55 59 38
3 55 38 67
3 67 72 93
3 67 93 85
3 118 85 93
3 72 134 93
3 134 118 93
3 166 195 132
3 105 94 171
3 172 170 117
3 161 115 198
3 198 115 138
3 65 48 34
3 73 65 34
3 136 86 85
3 86 136 145
3 100 73 122
3 122 138 100
3 99 86 116
3 122 181 138
