ply
format ascii 1.0
comment Generated by PyMesh
element vertex 118
property float x
property float y
property float z
property float nx
property float ny
property float nz
element face 219
property list uchar int vertex_indices
end_header
0.863875 -10.9526 12.4683 -0.584743 0.680737 0.441217
-0.02625 -10.5835 11.7972 -0.321326 0.311059 0.894423
-0.359 -11.5591 12.3024 -0.345776 0.698796 0.626197
0.35525 -11.5347 13.7522 -0.562823 0.806709 0.18014
1.0125 -9.58212 11.8576 -0.547629 -0.0482876 0.835327
1.891 -9.97425 13.0087 -0.975146 0.0577273 0.213912
1.3825 -10.685 14.0083 -0.884948 0.461274 -0.0639818
-0.595 -12.0105 13.363 -0.371538 0.892576 0.255475
-1.37625 -11.8694 12.1976 -0.0962332 0.842831 0.529505
-1.33125 -10.4866 11.3071 -0.287108 0.373615 0.882032
0.243813 -11.8969 14.8194 -0.612517 0.78779 -0.0648907
-0.571625 -9.07475 11.6154 -0.446835 -0.276825 0.850709
-0.731875 -12.3286 14.3022 -0.356289 0.916199 0.183404
1.14525 -8.562 12.9073 -0.669011 -0.647723 0.364526
1.146 -10.677 15.4235 -0.849498 0.391589 -0.353568
1.30375 -9.7405 15.091 -0.953067 -0.0709761 -0.294322
-1.66 -12.3445 13.6494 0.0749592 0.965726 0.248506
1.367 -8.79813 14.2028 -0.938835 -0.300511 -0.168172
-2.527 -11.704 12.3365 0.176489 0.927301 0.330096
-1.463 -8.376 11.3333 -0.806276 -0.255371 0.533577
-1.88644 -9.22363 10.6494 -0.616614 0.425512 0.662365
-1.08025 -12.5326 15.4539 -0.267539 0.945742 -0.184376
0.578125 -10.3691 16.4349 -0.656737 0.0802966 -0.749832
-2.7135 -12.04 14.0715 0.366581 0.883477 0.291696
0.859375 -9.032 16.0446 -0.710914 -0.271388 -0.648807
-0.125625 -11.4201 16.4508 -0.505807 0.513905 -0.692864
-0.950875 -7.54581 12.4346 -0.632297 -0.545991 0.549632
-3.302 -11.1471 11.4605 -0.0613465 0.694598 0.716778
0.717875 -8.19975 15.5052 -0.62321 -0.649262 -0.435968
0.031 -7.35913 13.8882 -0.612271 -0.790601 0.00867966
-2.44412 -12.6461 15.2684 0.108394 0.994106 0.00173444
-1.71375 -7.84975 10.351 -0.959066 -0.0283712 0.281756
-3.58612 -11.5753 13.3752 0.367699 0.920854 0.129709
-1.62603 -12.0646 16.4171 -0.241147 0.799142 -0.550654
-4.3105 -11.2565 11.5763 0.336622 0.872277 0.354709
-2.77375 -9.09387 9.28175 -0.625672 0.758327 0.182961
-0.464 -8.9755 16.604 -0.386586 -0.387961 -0.836683
-2.13225 -8.094 9.39625 -0.947777 0.184363 0.260248
-4.07681 -11.5229 14.4209 0.611204 0.778348 0.143542
-1.7585 -6.495 11.9974 -0.875271 -0.44215 0.195971
-3.354 -12.5258 15.707 0.334248 0.942454 0.00765007
-3.57711 -9.55381 9.77205 -0.197054 0.922204 0.33273
-1.90625 -6.818 10.2917 -0.962724 -0.18519 0.197148
-1.52013 -6.21325 13.1946 -0.53448 -0.837967 0.110193
-4.754 -10.953 13.301 0.543967 0.839005 -0.01308
-4.34269 -10.1756 10.3532 0.0574804 0.76062 0.646648
-1.69675 -10.2355 17.6903 -0.451623 0.102526 -0.886298
-1.30838 -7.12044 15.2753 -0.452784 -0.683757 -0.572243
-3.116 -12.246 16.7978 0.255258 0.896528 -0.36205
-1.40675 -8.23525 16.089 -0.400395 -0.658658 -0.637066
-3.04312 -9.22025 8.00725 -0.450346 0.747347 0.488529
-3.82663 -9.5445 8.57913 -0.0289599 0.975135 0.219709
-2.18438 -7.15963 8.50113 -0.97819 -0.0684411 0.19611
-2.011 -5.875 11.0615 -0.733903 -0.671001 -0.105567
-1.70119 -8.70938 17.1994 -0.367204 -0.522871 -0.769264
-5.65947 -10.4865 12.0315 0.739189 0.670298 0.0655765
-2.68963 -5.70463 12.3524 -0.260663 -0.948494 -0.180039
-4.8805 -10.495 14.9487 0.932964 0.341581 -0.11358
-1.91937 -6.21275 14.6142 -0.314087 -0.892927 -0.322539
-4.7185 -11.2759 15.6766 0.793706 0.608294 -0.00312074
-2.162 -8.0945 7.9165 -0.909633 0.295624 0.291845
-2.77225 -11.4105 17.805 -0.18764 0.469214 -0.862919
-5.41463 -10.342 13.8094 0.814785 0.508942 -0.277674
-2.78744 -5.99862 13.4154 -0.0566234 -0.97951 -0.193273
-2.309 -6.189 8.945 -0.990824 0.123307 -0.0553434
-5.6675 -9.7635 11.0267 0.829797 0.432144 0.353113
-2.68175 -10.0616 18.0147 -0.147886 -0.169386 -0.974391
-5.27969 -9.23044 9.6165 0.552825 0.793218 0.255323
-3.862 -11.6217 17.6195 0.410813 0.59085 -0.694355
-2.61469 -4.94441 9.86416 -0.775368 -0.219062 -0.592297
-5.05225 -9.12525 8.24525 0.439157 0.814084 0.380011
-5.26237 -9.369 14.8328 0.932581 0.232313 -0.276268
-2.3525 -6.17938 7.56938 -0.928894 0.314033 0.196315
-4.66625 -11.0845 16.892 0.873862 0.373752 -0.310925
-2.81013 -7.37475 7.02338 -0.632572 0.310152 0.709689
-6.0635 -9.55275 13.222 0.961183 0.228341 -0.154877
-4.2395 -8.5735 7.08169 0.129076 0.635443 0.761282
-2.83406 -7.02481 16.3614 -0.213924 -0.73017 -0.648913
-3.23534 -8.48941 17.304 0.0843109 -0.374124 -0.923538
-3.79075 -10.2222 18.0065 0.409482 -0.0532152 -0.910765
-3.67925 -5.23994 10.9784 -0.0577555 -0.859388 -0.508052
-6.14975 -8.38775 9.2365 0.864514 0.496605 -0.0774548
-5.77 -8.44 10.563 0.951713 0.306736 0.0124313
-3.731 -6.37675 15.2506 0.146035 -0.903592 -0.402736
-4.86794 -9.33075 16.6371 0.851016 0.0549026 -0.522261
-4.83238 -6.22475 14.045 0.337459 -0.863933 -0.373821
-2.88225 -6.48225 6.32975 -0.654714 0.679947 0.330186
-6.109 -8.09013 8.2005 0.704026 0.548252 0.451407
-1.69987 -5.249 6.81862 -0.818807 0.560268 0.125122
-5.308 -5.77575 12.31 0.323934 -0.933786 -0.152023
-5.70131 -7.94219 14.2342 0.924738 -0.100025 -0.367226
-6.14838 -8.3445 12.8004 0.998638 0.0306221 -0.0422442
-4.30062 -7.94225 17.1379 0.324397 -0.263037 -0.908613
-3.67 -3.37725 10.0363 0.0528347 0.22804 -0.972217
-4.92338 -5.55363 11.0901 0.467586 -0.821285 -0.326885
-4.69228 -7.21006 6.58134 0.412367 0.69768 0.585829
-6.60156 -7.33588 8.79594 0.994857 0.0992303 0.0203263
-2.55194 -2.87169 10.2829 -0.412992 0.578452 -0.703442
-6.10838 -7.2915 10.8197 0.978062 0.207388 -0.01962
-4.4885 -6.99975 16.5465 0.437605 -0.720127 -0.538441
-6.27887 -7.16625 9.82987 0.968248 0.150609 -0.199533
-1.03 -3.787 8.5425 -0.841293 0.29785 -0.451123
-4.87 -7.05025 15.4299 0.602014 -0.722362 -0.340253
-5.04875 -7.88225 16.3645 0.850945 -0.254382 -0.459545
-5.725 -6.1115 13.164 0.778413 -0.53643 -0.326062
-3.716 -6.85975 5.448 -0.263335 0.865654 0.425791
-2.69287 -5.83144 5.22319 -0.654214 0.459018 0.601088
-6.22325 -6.96025 7.58225 0.827747 0.0783912 0.555599
-6.14825 -6.61194 11.79 0.929507 -0.355159 -0.0993885
-3.648 -2.5685 10.791 0.0512143 0.888126 -0.456737
-0.949313 -4.12856 7.11919 -0.913709 0.35722 0.193727
-4.73887 -2.95038 10.0363 0.215907 0.495566 -0.841308
-1.81662 -4.56588 5.56887 -0.783066 0.239221 0.574091
-5.271 -4.34734 9.45378 0.716884 -0.165769 -0.677199
-1.991 -1.967 11.037 -0.456314 0.833743 -0.310886
-1.62925 -2.0845 9.506 -0.672234 0.587866 -0.450016
-6.17556 -5.75075 9.81419 0.879245 -0.409227 -0.243849
-0.620125 -2.47038 8.16737 -0.933496 0.310793 -0.178866
3 113 111 93
3 88 106 86
3 86 95 74
3 95 107 87
3 113 93 80
3 64 69 101
3 93 109 97
3 115 97 114
3 109 93 111
3 101 110 88
3 88 72 64
3 72 74 52
3 72 52 64
3 95 87 76
3 94 113 80
3 80 56 89
3 64 42 69
3 42 31 39
3 39 31 19
3 52 37 42
3 31 20 19
3 41 67 45
3 35 51 41
3 51 67 41
3 87 70 76
3 100 82 81
3 67 82 65
3 65 45 67
3 98 91 82
3 65 82 91
3 85 56 63
3 56 39 43
3 43 63 56
3 29 26 13
3 11 13 26
3 1 11 9
3 11 19 20
3 65 75 55
3 91 90 75
3 85 63 83
3 83 63 58
3 58 47 77
3 77 83 58
3 77 49 54
3 78 77 54
3 54 49 36
3 6 0 3
3 8 9 27
3 8 27 18
3 16 18 32
3 32 34 44
3 32 38 23
3 57 38 62
3 44 62 38
3 62 90 71
3 90 102 103
3 90 85 102
3 83 102 85
3 90 103 84
3 90 84 71
3 79 78 66
3 46 36 25
3 46 25 33
3 17 6 15
3 12 10 3
3 12 3 7
3 59 38 57
3 57 84 73
3 88 112 106
3 86 106 105
3 86 105 95
3 95 76 74
3 87 107 96
3 116 100 96
3 80 93 69
3 115 101 97
3 97 69 93
3 69 97 101
3 112 88 110
3 60 52 74
3 37 52 60
3 37 60 35
3 50 35 60
3 50 60 74
3 50 74 76
3 51 35 50
3 70 51 76
3 76 51 50
3 87 96 81
3 81 96 100
3 98 100 108
3 108 100 116
3 108 116 94
3 113 94 116
3 94 89 108
3 56 80 53
3 56 53 39
3 69 42 53
3 69 53 80
3 53 42 39
3 20 31 37
3 20 37 35
3 37 31 42
3 70 67 51
3 67 70 87
3 67 87 81
3 67 81 82
3 108 91 98
3 91 108 104
3 104 108 89
3 104 89 85
3 43 39 26
3 58 29 47
3 43 29 58
3 29 43 26
3 4 13 11
3 4 11 1
3 20 9 11
3 20 27 9
3 45 34 27
3 34 45 65
3 34 65 55
3 62 44 55
3 62 55 75
3 62 75 90
3 104 90 91
3 85 90 104
3 58 63 43
3 83 77 102
3 102 77 99
3 102 99 103
3 77 78 92
3 77 92 99
3 99 92 103
3 24 28 15
3 28 24 36
3 28 36 49
3 17 15 28
3 17 28 13
3 13 28 29
3 29 28 47
3 47 28 49
3 6 5 0
3 0 5 4
3 5 13 4
3 1 0 4
3 17 13 5
3 17 5 6
3 7 3 0
3 7 0 2
3 2 0 1
3 8 7 2
3 8 2 9
3 9 2 1
3 7 8 16
3 18 16 8
3 34 32 18
3 34 18 27
3 55 44 34
3 78 84 92
3 92 84 103
3 73 68 48
3 68 73 79
3 78 79 84
3 84 79 73
3 66 61 79
3 79 61 68
3 48 68 61
3 48 61 33
3 46 61 66
3 36 46 54
3 54 46 66
3 54 66 78
3 22 25 36
3 14 25 22
3 14 22 15
3 15 22 24
3 24 22 36
3 10 25 14
3 10 14 6
3 6 14 15
3 16 12 7
3 33 21 30
3 30 21 16
3 30 16 23
3 16 21 12
3 33 40 48
3 40 30 23
3 30 40 33
3 59 48 40
3 59 40 38
3 38 40 23
3 73 48 59
3 57 73 59
3 21 33 25
3 21 10 12
3 10 21 25
3 117 110 101
3 117 101 115
3 88 86 72
3 74 72 86
3 94 80 89
3 52 42 64
3 101 88 64
3 98 82 100
3 89 56 85
3 19 26 39
3 19 11 26
3 20 45 27
3 65 91 75
3 47 49 77
3 44 38 32
3 6 3 10
3 32 23 16
3 62 71 57
3 57 71 84
3 46 33 61
3 20 35 41
3 20 41 45
