ply
format ascii 1.0
comment Generated by PyMesh
element vertex 200
property float x
property float y
property float z
property float charge
property float ddc
property float hbond
property float hphob
property float rho
property float si
property float theta
property float nx
property float ny
property float nz
element face 338
property list uchar int vertex_indices
end_header
-7.5915 -4.8935 5.11925 -0.00991547 0 0.514298 -0.866667 1e-08 -0.813618 2.22045e-16 0.355514 0.720587 -0.595285
-7.58725 -5.17525 4.094 -0.0551233 0.462152 0.672859 -1 1.06327 0.185181 1.91393 -0.109349 0.717811 -0.687598
-8.35437 -4.16412 4.94775 -0.453847 -0.221543 -0.475452 -0.816929 1.06929 -0.0223487 3.74171 0.570471 0.599126 -0.561793
-6.624 -4.5115 5.5635 0.468287 0.150645 0 -0.866667 1.13108 0.1465 2.22045e-16 0.517749 0.639978 -0.567772
-7.69875 -3.17213 5.98338 0.781853 -0.101338 0.112886 -0.866667 1.92908 0.118032 4.84209 0.299425 0.616534 -0.728169
-8.94312 -4.58262 4.06213 -0.560117 0.365839 -0.0572364 -0.777778 2.21213 0.0691205 3.14182 0.560501 0.160938 -0.812366
-6.183 -5.011 4.536 0.226191 -0.584697 0.967173 -1 2.35572 0.0722563 0.782295 0.30348 0.907268 0.291145
-7.01625 -5.99675 3.2625 0.0142378 0.520313 -0.13483 -0.961342 2.36415 -0.678956 1.86367 -0.752426 0.433991 -0.495487
-6.111 -5.624 6.089 0.57352 0.407211 0.517632 -0.801127 2.46411 -0.586464 0.04729 0.902457 0.418943 -0.100291
-8.9555 -3.102 5.67 -0.219211 0.0283493 -0.300687 -0.821164 2.48742 -0.278896 4.21491 0.401153 0.74822 -0.528435
-7.96863 -6.67513 3.78638 -0.661683 0.298859 -0.306906 -0.777778 2.64115 -0.999901 2.15635 -0.299107 0.692448 -0.656544
-6.4485 -3.06988 6.36562 0.82373 0.0993858 0.232478 -0.866667 2.79013 0.999867 5.41796 0.581447 0.599726 -0.549771
-9.01975 -6.191 4.01325 -0.53754 0.283941 0 -0.777778 2.8212 -0.871548 2.57367 0.243692 0.223039 -0.943858
-9.5915 -3.258 3.9775 -0.310933 -0.223377 -0.124325 -0.777778 2.88393 0.126382 3.61083 0.845598 0.469669 -0.25372
-6.11369 -4.90406 2.41894 0.0869857 -0.399777 0 -1 3.31066 0.106526 1.47087 -0.720725 0.693096 -0.0131379
-7.35575 -6.70587 2.56169 -0.151647 -0.373839 0 -0.485396 3.41736 -0.712272 1.97581 -0.706322 0.699094 -0.111252
-5.61875 -4.25737 7.6965 1 0.288089 0.473898 -0.866667 3.50274 0.429686 5.79801 0.978629 0.118664 -0.167943
-8.982 -2.2765 6.4235 0.0985167 0.0609481 0 -0.866667 3.55468 0.225585 4.50343 0.208589 0.693139 -0.689962
-5.116 -5.535 4.308 0.53344 -0.552395 0.132085 -1 3.56611 -0.573461 0.708424 0.188106 0.463336 0.865988
-9.886 -2.553 5.83125 -0.130164 0.0578124 0 -0.84122 3.57977 -0.205416 4.23398 0.231542 0.833637 -0.501436
-8.17025 -1.88312 7.04 0.270622 0.0122605 0.232979 -0.866667 3.66122 0.677647 4.80288 0.329029 0.739171 -0.587679
-5.79563 -5.69025 7.32412 0.66977 0.425453 0.297821 -0.863844 3.74058 0.225146 6.14699 0.957859 0.0303151 0.285636
-6.187 -2.8705 7.317 0.785327 0.193688 0.122961 -0.866667 3.79674 0.873616 5.43718 0.76518 0.638045 -0.0860097
-10.316 -5.06875 3.35775 -0.325391 0.322834 0 -0.809818 3.82993 -0.68097 2.99327 0.673115 -0.274309 -0.686783
-8.796 -7.136 2.874 -0.135071 -0.196925 -0.000741121 -0.36136 3.95621 -0.830724 2.28452 -0.102779 0.977726 -0.182997
-9.66475 -6.88675 3.34425 -0.183105 -0.0369015 0 -0.415662 3.98208 -0.846726 2.5136 0.304819 0.803747 -0.510956
-7.16125 -2.234 7.76575 0.524633 0.121622 0.104137 -0.866667 4.01374 0.213785 5.119 0.557123 0.812604 -0.171138
-10.0218 -4.13219 2.61144 0.0095534 -0.314237 0 -0.866667 4.07518 0.0786728 3.17667 0.962657 -0.158563 -0.21943
-4.75725 -4.3725 3.745 0.240903 -0.479454 0 -1 4.10675 0.137715 0.922757 -0.31198 0.546455 0.77721
-5.07044 -6.35375 5.00331 0.6309 0.388294 0.265465 -0.957747 4.16103 -0.625621 0.564272 0.358455 0.754102 0.55031
-10.4152 -2.56775 4.9595 -0.10965 0.218465 -0.00293626 -0.85504 4.1965 -0.197551 3.97175 0.427255 0.881527 0.200905
-7.487 -6.942 1.53 -0.053482 -0.261165 0 -0.355556 4.48383 -0.882381 2.04696 -0.35587 0.914039 0.194652
-6.46925 -5.10881 1.25181 -0.019668 -0.394458 0 -0.880138 4.5478 -0.259342 1.67654 -0.779521 0.411465 0.472275
-10.0621 -2.179 2.79284 0.659237 -0.241767 0 -0.866667 4.554 -0.0770625 3.43023 0.993385 0.114721 0.00508027
-4.69228 -7.21006 6.58134 0.7131 0.292901 0.096704 -0.777778 4.64832 -0.0381626 0.176836 0.412367 0.69768 0.585829
-4.98606 -4.13831 2.75444 0.0453553 -0.39124 0 -1 4.67266 -0.448578 1.16102 -0.707196 0.630495 0.319921
-10.6788 -6.08825 3.1925 -0.175523 -0.222074 0 -0.808804 4.67502 -0.999887 2.78853 0.935904 0.144782 -0.321127
-4.09312 -6.05037 4.4095 0.490923 -0.401868 0 -1 4.71597 -0.999878 0.632366 -0.137521 0.544987 0.827089
-10.2933 -1.5525 3.79225 0.2774 -0.250448 0.732195 -0.866667 4.73746 0.441177 3.68073 0.67929 0.548711 0.487321
-5.76875 -4.03025 1.206 -0.335113 -0.365269 0.547276 -1 4.84485 -0.502144 1.51036 -0.659128 0.428587 0.617951
-3.95025 -4.98125 4.1915 0.403797 -0.460612 0.703378 -1 4.86194 -0.439848 0.797704 -0.364018 0.223478 0.904184
-6.2445 -5.67425 8.35825 0.839817 0.384253 0.48189 -0.866667 4.86804 -0.593974 6.02487 0.940384 -0.316391 0.124801
-11.3241 -2.33512 5.93962 -0.0451153 0.0758686 0 -0.866667 5.03832 -0.709798 4.16399 0.252521 0.915196 -0.314085
-6.22325 -6.96025 7.58225 0.517227 0.396475 0 -0.777778 5.10527 -0.999844 6.16621 0.827747 0.0783912 0.555599
-6.351 -2.99425 8.68025 0.534287 0.135002 0 -0.533636 5.17539 -0.0896829 5.39737 0.659098 0.746601 -0.0904267
-10.148 -1.38462 7.12813 0.016896 -0.0526356 0 -0.866667 5.18303 -0.219836 4.51776 0.229914 0.611414 -0.757174
-8.26437 -1.01525 8.31125 0.0134116 0.120202 0 -0.866667 5.20334 0.802344 4.89823 0.555904 0.831173 -0.0110874
-7.0405 -6.171 0.85725 -0.132005 -0.35465 0.00973336 -0.850191 5.23135 -0.999867 1.91257 -0.60925 0.463412 0.643478
-5.271 -4.34734 9.45378 0.429117 0.194072 0 -0.2 5.29636 0.0790899 5.74046 0.716884 -0.165769 -0.677199
-9.6935 -7.11513 1.80638 -0.246053 -0.173782 -0.0592266 -0.306607 5.35111 -0.999868 2.41627 0.37578 0.909047 0.180065
-4.05363 -3.21913 3.93375 0.0999057 -0.411791 0 -1 5.47093 0.525863 0.972096 -0.710511 0.29783 0.637551
-9.93338 -3.12075 1.56225 0.172188 -0.281707 -0.272166 -0.275322 5.53519 -0.198487 3.07644 0.938129 0.0129367 0.346044
-3.716 -6.85975 5.448 0.579937 -0.27496 0.268141 -1 5.67374 -0.999864 0.442606 -0.263335 0.865654 0.425791
-9.39925 -0.69575 8.29525 0.0114345 0.0408725 0 -0.866667 5.78158 0.0238771 4.81207 0.516402 0.75225 -0.409204
-11.926 -2.06175 4.8235 0.08382 0.185647 0 0.844444 5.79558 -0.421432 3.98384 0.214942 0.911725 0.350082
-11.3206 -1.394 4.09538 0.428673 0.251334 0.301046 -0.866667 5.82021 0.406092 3.81617 0.0982185 0.706631 0.700733
-10.269 -4.94088 1.079 -0.0595383 -0.308024 0.202432 -0.319053 5.82545 -0.592599 2.81818 0.843489 -0.184587 0.504435
-4.561 -3.0465 2.529 0.146464 -0.338334 0.0175719 -1 5.86578 0.268546 1.15844 -0.805122 0.509933 0.302898
-8.08497 -1.88934 9.36447 0.207993 0.176658 0 -0.866667 5.89203 -0.139227 5.14868 0.524179 0.786561 0.326433
-5.19125 -3.15313 1.31638 -0.263014 -0.32293 0 -0.777778 5.9008 -0.201481 1.35738 -0.612573 0.506803 0.606552
-8.57725 -6.64775 0.646625 -0.127634 -0.284031 -0.299851 -0.308876 5.91756 -0.999849 2.23113 -0.0512426 0.665153 0.744947
-7.47038 -4.79637 0.310625 -0.0074969 -0.362802 0.103803 -0.00718982 5.95696 -0.545855 2.07731 -0.358296 0.193719 0.913289
-10.2015 -0.57325 2.828 0.422387 -0.162754 0.39001 -0.866667 6.11483 0.999895 3.68073 0.802382 0.564311 0.194259
-10.0174 -1.68037 1.3035 0.77966 -0.195845 -0.0571727 -0.218217 6.12523 -0.118848 3.07644 0.938772 0.263775 0.221652
-4.2395 -8.5735 7.08169 0.515497 0.2555 0 -0.918367 6.16961 -0.999835 0.176836 0.129076 0.635443 0.761282
-2.817 -4.43525 4.809 0.438413 -0.37805 0.745353 -1 6.26325 -0.632374 0.797704 -0.582432 0.0504241 0.811314
-6.17556 -5.75075 9.81419 0.51025 0.258659 0 -0.0888889 6.32762 -0.485206 6.02487 0.879245 -0.409227 -0.243849
-2.69287 -5.83144 5.22319 0.455863 -0.318116 0.425143 -1 6.35021 -0.739062 0.442606 -0.654214 0.459018 0.601088
-11.189 -0.84225 7.053 -0.0315099 -0.0928947 0 -0.866667 6.35925 0.617094 4.51776 0.0537119 0.434125 -0.89925
-6.109 -8.09013 8.2005 0.609747 0.234907 0.0100599 -0.777778 6.3983 -0.999782 6.16621 0.704026 0.548252 0.451407
-6.60156 -7.33588 8.79594 0.630253 0.23633 0 -0.256651 6.43089 -0.999867 6.16621 0.994857 0.0992303 0.0203263
-10.5968 -5.89213 1.39713 -0.152711 -0.238878 0 -0.2 6.48293 -0.811398 2.81818 0.886917 0.280722 0.366841
-7.02675 -3.451 0.24375 -0.00575907 -0.342285 0 -0.777778 6.53127 -0.510175 2.07731 -0.433467 0.192387 0.880394
-9.06 -0.9825 9.4 0.0107298 0.162633 0 -0.866667 6.55222 0.0899438 4.81207 0.709073 0.625695 0.325148
-2.81013 -7.37475 7.02338 0.598937 0.295188 0.0306396 -1 6.58868 -0.310992 0.176836 -0.632572 0.310152 0.709689
-2.88225 -6.48225 6.32975 0.59626 -0.268315 0.800479 -1 6.61535 0.105173 0.442606 -0.654714 0.679947 0.330186
-9.72725 -6.4445 0.72725 -0.414443 -0.272317 -0.747204 -0.2 6.6221 -0.999881 2.23113 0.485707 0.408432 0.772833
-3.12075 -3.278 4.64725 0.334693 -0.376025 0 -1 6.64686 0.461773 0.972096 -0.612575 0.0962018 0.784536
-12.2112 -1.32056 6.83494 -0.0297725 0.0325739 0 -0.464164 6.6563 -0.41028 4.16399 0.212442 0.686723 -0.695183
-6.951 -2.5145 9.9525 0.198646 0.120639 0 -0.2 6.66158 -0.0955885 5.14868 0.21621 0.976343 0.00262576
-5.82725 -2.50425 9.9965 0.16658 0.0421974 0 -0.2 6.67436 0.279194 5.39737 0.185066 0.85031 -0.49267
-10.5411 0.020375 7.60388 -0.0416343 -0.0665425 0 -0.866667 6.71759 0.287834 4.81207 0.449597 0.384052 -0.806453
-3.2065 -2.32675 4.27975 0.130018 -0.319248 0 -1 6.74908 0.539275 0.972096 -0.661631 0.374437 0.649648
-6.1225 -2.22088 0.649594 -0.113871 -0.293565 0 -0.777778 6.77061 0.61095 1.35738 -0.336361 0.46711 0.817722
-11.7758 -0.279312 3.14 0.854883 0.171477 0 -0.866667 6.79762 0.999845 3.81617 -0.00178891 0.88621 0.46328
-12.9301 -1.75412 5.27763 0.055192 0.0782161 0 0.844444 6.86999 -0.491279 3.98384 0.392603 0.909855 -0.134266
-4.73887 -2.95038 10.0363 0.168411 -0.0631201 0 -0.2 6.90073 0.440618 5.74046 0.215907 0.495566 -0.841308
-7.93925 -3.85125 0.11075 0.212988 -0.33605 0.0293317 0.688447 7.03075 -0.337917 2.07731 -0.00853468 0.131053 0.991339
-3.709 -1.9195 3.02475 -0.0954547 -0.270563 0 -1 7.09391 0.676436 1.15844 -0.766861 0.573532 0.288072
-12.8094 -1.55587 3.96275 0.584057 0.174625 0 0.0253213 7.1287 -0.393132 3.98384 0.0341578 0.890859 0.452993
-4.77881 -2.13075 0.714437 -0.363993 -0.226435 0 -0.777778 7.15687 -0.109836 1.35738 -0.286221 0.75919 0.584558
-10.1615 0.4705 8.58675 -0.04119 -0.109009 0 -0.866667 7.205 -0.215396 4.81207 0.911713 0.337515 -0.234228
-9.791 -1.14225 0.369 -0.197152 -0.188578 -0.0115317 0.933333 7.2271 -0.427001 3.07644 0.830387 0.309634 0.463232
-9.09463 -4.06313 0.420875 0.0468347 -0.32427 0.286718 0.933333 7.23646 -0.0197131 2.81818 0.454619 0.0457582 0.88951
-3.67 -3.37725 10.0363 0.238417 -0.109295 0 -0.2 7.25687 0.259178 5.74046 0.0528347 0.22804 -0.972217
-10.691 -0.335375 1.73388 0.958493 -0.114467 0 -0.866667 7.33683 0.189273 3.68073 0.448943 0.8829 0.137613
-9.34125 -2.11262 0.184 -0.431947 -0.223796 -0.332379 0.933333 7.34254 -0.137948 3.07644 0.722449 0.297005 0.624384
-9.01025 -3.051 -0.00325 0.00687743 -0.269017 -0.00186698 0.933333 7.35393 -0.690882 3.07644 0.548127 0.175649 0.817743
-4.92338 -5.55363 11.0901 0.315841 0.238781 0 -0.2 7.35877 0.080399 5.74046 0.467586 -0.821285 -0.326885
-4.00506 -2.0625 1.51047 -0.0901213 -0.243046 0.0411343 -0.905249 7.3872 -0.520918 1.15844 -0.716805 0.620311 0.318442
-8.98287 -5.23313 0.23775 0.130226 -0.331389 0.930694 0.933333 7.38982 -0.704501 2.23113 0.158983 0.123591 0.979515
-6.14975 -8.38775 9.2365 0.642467 0.132689 0 0.597371 7.47697 -0.682244 6.16621 0.864514 0.496605 -0.0774548
-1.81662 -4.56588 5.56887 0.41354 -0.293581 0.340609 -1 7.52628 -0.672701 0.797704 -0.783066 0.239221 0.574091
-6.27887 -7.16625 9.82987 0.573587 0.169205 0 -0.0888889 7.52721 -0.176118 6.16621 0.968248 0.150609 -0.199533
-9.14338 -2.21881 10.6134 0.047993 0.173825 0 -0.866667 7.56194 -0.594547 5.14868 0.525658 0.686227 0.502768
-11.8252 -0.017625 7.72687 -0.0253071 -0.0881613 0 -0.866667 7.59975 -0.496865 4.51776 0.0271841 0.356959 -0.933724
-9.65375 -0.18225 9.868 -0.0384657 0.136327 0 -0.866667 7.65311 0.035881 4.81207 0.944339 0.32223 0.066263
-3.67925 -5.23994 10.9784 0.37313 0.232826 0 -0.2 7.67436 -0.054301 5.74046 -0.0577555 -0.859388 -0.508052
-5.05225 -9.12525 8.24525 0.259349 0.165706 0.0785852 0.778944 7.69239 -0.999817 6.16621 0.439157 0.814084 0.380011
-9.64669 -1.105 10.3852 -0.036121 0.186834 0 -0.866667 7.7054 -0.146609 4.81207 0.861516 0.199114 0.467058
-3.04312 -9.22025 8.00725 0.43946 0.195173 0 0.844444 7.81468 -0.999875 0.176836 -0.450346 0.747347 0.488529
-7.99203 -2.64528 11.2072 0.106454 0.130045 0 -0.2 7.88595 -0.397675 5.14868 -0.0144315 0.992396 0.122235
-2.162 -8.0945 7.9165 0.50133 -0.233154 0 -0.0888889 7.90617 -0.999892 0.176836 -0.909633 0.295624 0.291845
-7.87075 -2.471 -0.24225 -0.0111764 -0.272328 -7.6934e-05 0.477402 7.91291 0.0453187 2.07731 -0.0733341 0.381608 0.921411
-2.3525 -6.17938 7.56938 0.610377 -0.264797 0.281908 -0.506213 7.98024 0.253721 0.442606 -0.928894 0.314033 0.196315
-13.1676 -0.608 7.422 -0.051514 -0.0362152 0 0.191585 7.98562 -0.999878 4.16399 0.357549 0.532034 -0.767528
-3.82663 -9.5445 8.57913 0.41984 0.134486 0 0.913713 8.00144 -0.8139 0.176836 -0.0289599 0.975135 0.219709
-13.8581 -1.44 4.66538 0.100743 0.0775152 0 0.844444 8.02528 -0.668488 3.98384 0.426011 0.902856 -0.0580203
-6.2165 -2.099 11.352 -0.0479317 0.114864 0 -0.2 8.14171 0.734313 5.39737 -0.0671779 0.99727 0.0306544
-10.2965 1.40625 7.82575 -0.117352 -0.17995 0 -0.777778 8.14226 -0.0680291 4.81207 0.562055 -0.588037 -0.581642
-5.4955 -1.4115 -0.29125 -0.232636 -0.186066 0 -0.777778 8.16108 0.709193 1.35738 -0.0858229 0.803203 0.58949
-10.3167 0.154938 0.410812 -0.00988727 -0.191585 0 0.933333 8.18795 0.10778 3.07644 0.382916 0.44075 0.811859
-2.18438 -7.15963 8.50113 0.52569 -0.258108 0 -0.0888889 8.20781 -0.211752 0.176836 -0.97819 -0.0684411 0.19611
-12.7356 -0.284438 2.06681 1 0.145103 0.367462 -0.866667 8.2374 0.557901 3.81617 -0.510527 0.858012 0.0563733
-2.31381 -1.10175 4.2515 0.100769 -0.216596 0 -1 8.2651 0.465965 0.972096 -0.672386 0.636115 0.37849
-3.648 -2.5685 10.791 0.102482 -0.0521008 0 -0.2 8.28109 0.243116 5.74046 0.0512143 0.888126 -0.456737
-9.48994 -0.521375 -0.427875 -0.143644 -0.204812 -0.00798084 0.933333 8.2812 -0.577059 3.07644 0.666526 0.0853102 0.740584
-1.69987 -5.249 6.81862 0.450617 -0.226786 0.09057 -0.79922 8.31761 -0.615685 0.442606 -0.818807 0.560268 0.125122
-5.27969 -9.23044 9.6165 0.54384 0.128967 0 1 8.39658 -0.152386 6.16621 0.552825 0.793218 0.255323
-1.476 -3.1625 5.95813 0.62033 -0.275854 0.397828 -1 8.4401 0.0432137 0.972096 -0.693237 0.143144 0.706351
-6.14825 -6.61194 11.79 0.412833 0.185823 0 -0.120257 8.48312 -0.444363 6.02487 0.929507 -0.355159 -0.0993885
-1.8625 -1.868 5.281 0.414427 -0.255612 0 -1 8.48669 0.454107 0.972096 -0.642916 0.358324 0.676951
-9.96212 0.7785 9.82487 -0.0460157 -0.12928 0 -0.866667 8.49634 -0.429738 4.81207 0.984476 0.0508648 -0.167988
-2.55194 -2.87169 10.2829 0.0562423 -0.107584 -0.338533 -0.154071 8.50845 -0.147396 5.74046 -0.412992 0.578452 -0.703442
-6.10838 -7.2915 10.8197 0.50502 0.153437 0 -0.0888889 8.53939 0.0510481 6.16621 0.978062 0.207388 -0.01962
-14.0004 -1.2465 3.14462 0.222393 0.105272 0.329181 -0.0603 8.60637 0.140179 3.98384 -0.201598 0.97649 -0.0763313
-5.308 -5.77575 12.31 0.303794 0.225582 0 -0.2 8.65701 -0.624294 5.74046 0.323934 -0.933786 -0.152023
-14.1081 -0.705312 6.13575 -0.0413883 -0.0481412 0 0.844444 8.66555 -0.618693 3.98384 0.681977 0.608786 -0.405324
-11.772 1.0155 8.0525 -0.120183 -0.131213 0 -0.777813 8.68429 -0.688054 4.51776 -0.0128847 -0.133187 -0.991007
-10.237 -1.322 11.2058 -0.214441 0.15874 -0.238289 -0.866667 8.73929 -0.926325 5.14868 0.927756 0.180387 0.326696
-3.356 -0.991 0.877 -0.00981507 -0.16242 0.581518 -1 8.79101 0.31769 1.15844 -0.552038 0.825476 0.117657
-8.44675 -1.73325 -0.95075 -0.044929 -0.205052 0 0.686873 8.83643 -0.999883 3.07644 0.355633 0.467696 0.809188
-4.0535 -1.33875 -0.59325 -0.5297 -0.182649 0.271773 -0.877113 8.84902 -0.834148 1.35738 -0.436978 0.713172 0.548121
-5.77 -8.44 10.563 0.568423 0.137838 0 -0.0888889 8.85775 0.23855 6.16621 0.951713 0.306736 0.0124313
-9.42325 -2.72775 11.9522 -0.069941 0.0789328 0 -0.779522 9.0213 -0.999869 5.14868 0.61736 0.784708 -0.0556738
-2.77375 -9.09387 9.28175 0.433723 -0.164665 0 0.844444 9.12345 -0.218317 0.176836 -0.625672 0.758327 0.182961
-2.61469 -4.94441 9.86416 0.323553 -0.215847 0 -0.0888889 9.15405 0.0684234 5.74046 -0.775368 -0.219062 -0.592297
-9.76156 0.291438 11.3061 -0.0964303 -0.158651 0 0.4 9.17105 -0.15531 4.81207 0.936059 -0.348835 -0.0459032
-14.7852 -0.784187 4.49475 0.00400147 -0.01578 0 0.844444 9.17364 0.0403944 3.98384 0.464565 0.736913 -0.491058
-12.1654 -0.134563 0.59775 0.310373 -0.138666 0 -0.602758 9.20899 -0.20691 3.81617 -0.184122 0.914384 0.360556
-10.5476 1.928 6.92238 -0.116807 -0.218593 0 -0.777778 9.21527 0.595931 4.81207 -0.197212 -0.846173 -0.495074
-3.57711 -9.55381 9.77205 0.436577 0.141842 0 0.913024 9.22022 0.132051 0.176836 -0.197054 0.922204 0.33273
-13.9104 0.437875 7.28562 -0.00133665 -0.0974246 -0.107561 -0.515387 9.27566 -0.886426 4.16399 0.703222 -0.0278299 -0.710425
-2.309 -6.189 8.945 0.43995 -0.237343 0 -0.0888889 9.28237 0.159897 0.442606 -0.990824 0.123307 -0.0553434
-0.949313 -4.12856 7.11919 0.359443 -0.221271 0 -0.584002 9.35575 -0.611672 0.442606 -0.913709 0.35722 0.193727
-2.13225 -8.094 9.39625 0.419197 -0.216622 0 0.107925 9.38622 -0.0980801 0.176836 -0.947777 0.184363 0.260248
-1.74025 -0.45925 3.509 0.184182 -0.158061 0 -1 9.40224 0.0285848 0.972096 -0.563464 0.812844 0.147625
-3.47725 -2.18625 11.8475 0.0116938 -0.0893573 0 -0.2 9.41751 -0.07272 5.74046 -0.3464 0.841313 -0.414969
-5.08962 -0.708 -1.25075 -0.420573 -0.178315 0 -0.777778 9.41818 -0.212369 1.35738 -0.202241 0.655467 0.727642
-2.68963 -5.70463 12.3524 0.373157 0.208823 0 -0.2 9.43025 -0.389516 5.74046 -0.260663 -0.948494 -0.180039
-2.011 -5.875 11.0615 0.37523 -0.224345 -0.0252554 -0.253553 9.46133 -0.495688 5.74046 -0.733903 -0.671001 -0.105567
-1.46512 -0.271688 4.48956 0.241391 -0.178837 0 -1 9.47587 0.332596 0.972096 -0.643815 0.680922 0.349067
-12.7525 1.6205 7.86925 -0.21949 -0.124328 0 -0.789078 9.48751 -0.999865 4.51776 0.455324 -0.33272 -0.825819
-7.654 -1.03075 -1.2925 -0.123922 -0.191643 0 -0.202515 9.51535 -0.20787 1.35738 0.112016 0.560975 0.820219
-0.7125 -3.14287 6.77037 0.40072 -0.23187 0 -1 9.55503 -0.786713 0.972096 -0.909629 0.176453 0.376085
-5.72906 -2.47112 12.6509 -0.209615 0.109506 0 -0.2 9.5781 -0.310485 5.39737 -0.0788777 0.986902 0.140719
-9.66938 1.7765 10.3371 -0.0597057 -0.154278 0 0.4 9.65569 -0.672893 4.81207 0.732011 -0.557361 -0.391801
-5.725 -6.1115 13.164 0.28495 0.161673 0 -0.199861 9.66494 -0.999881 5.74046 0.778413 -0.53643 -0.326062
-9.78337 1.537 0.0225 -0.0576957 -0.180358 0 0.933333 9.7194 0.801991 3.07644 0.151962 0.40634 0.900997
-8.49575 -2.5645 12.975 -0.0942213 0.0433555 -0.18369 -0.368789 9.72589 -0.54535 5.14868 0.186533 0.919786 -0.345252
-0.945625 -1.96769 6.20687 0.41249 -0.223122 0 -1 9.7708 0.0726819 0.972096 -0.792355 0.33976 0.506693
-11.5837 0.804875 -0.364781 0.0424273 -0.18021 0 0.933333 9.80945 -0.532001 3.07644 -0.177687 0.424567 0.88779
-1.991 -1.967 11.037 -0.109312 -0.101264 0 -0.2 9.81298 0.0152856 5.74046 -0.456314 0.833743 -0.310886
-15.2448 -1.23069 3.41056 0.048606 0.0354911 0 0.844444 9.87897 -0.038896 3.98384 0.0852382 0.833163 -0.546419
-3.26675 -0.6875 -0.423 -0.190921 -0.0868139 0.722465 -0.983376 9.88443 0.282955 1.35738 0.350569 0.931317 0.0987386
-2.459 -0.96725 0.22375 -0.103466 0.0165152 0.228537 -1 9.90093 0.116399 1.15844 0.479699 0.647816 -0.591796
-14.8632 -2.0145 2.5555 0.203232 0.0661379 0 -0.866667 9.90303 -0.999893 3.98384 -0.0716199 0.936068 -0.344452
-4.34269 -10.1756 10.3532 0.501757 0.156234 0 0.960233 9.91777 -0.382665 6.16621 0.0574804 0.76062 0.646648
-14.0072 -1.766 1.929 0.340547 0.142039 0.24787 -0.866667 9.92836 -0.999845 3.98384 -0.564007 0.82571 0.0100052
-1.62925 -2.0845 9.506 -0.3736 -0.133847 -0.239979 -0.0888889 9.9488 0.693731 5.74046 -0.672234 0.587866 -0.450016
-5.6675 -9.7635 11.0267 0.39355 0.137011 0 0.661547 9.95324 -0.536952 6.16621 0.829797 0.432144 0.353113
-9.33762 2.37037 9.08325 0.0137652 -0.204988 -0.193176 -0.777778 9.99437 -0.78017 4.81207 0.361501 -0.930176 -0.0639541
-8.7625 2.4195 8.222 -0.157419 -0.219534 0 -0.777778 10.0229 0.0662672 4.81207 0.280303 -0.957877 -0.062466
-1.90625 -6.818 10.2917 0.36039 -0.226147 -0.276012 -0.372184 10.0518 -0.273895 5.74046 -0.962724 -0.18519 0.197148
-2.21075 -0.4225 1.029 -0.00208364 -0.0465162 0 -1 10.0786 0.59718 1.15844 0.0284243 0.863057 -0.504307
-8.1475 0.257 -1.40625 -0.118517 -0.183894 0 0.933333 10.1157 -0.368021 3.07644 0.639815 0.0485671 0.766993
-8.73175 1.1705 -0.438 -0.0793117 -0.178827 0 0.933333 10.1352 0.943708 3.07644 0.681616 0.0924561 0.725845
-7.47087 -2.52638 13.4104 -0.0864843 0.0608889 0 -0.2 10.1531 -0.109034 5.14868 0.181217 0.970668 -0.157999
-3.848 -0.135 -1.112 -0.47056 -0.175318 -0 -0.777778 10.1758 0.162781 1.35738 0.267886 0.359465 0.89388
-10.1956 -0.223 12.1319 -0.318546 -0.14175 -0.563898 -0.758511 10.1771 -0.999829 5.14868 0.948219 -0.288896 -0.131983
-13.7577 -0.968125 0.519875 0.170954 0.158135 0.593731 -0.734193 10.2135 -0.424253 3.81617 -0.434134 0.734102 0.522132
-8.85525 2.47675 6.7845 -0.14394 -0.19433 0 -0.777778 10.2177 0.66176 4.81207 0.496342 -0.751685 -0.434297
-14.5444 0.792437 5.67956 -0.376103 -0.0758828 0 -0.0888889 10.2909 -0.0231478 3.98384 0.686624 0.134 -0.714557
-11.0332 1.93575 -0.51475 -0.0305404 -0.162983 0 0.933333 10.319 0.136074 3.07644 -0.0650819 0.467147 0.881781
-10.4847 2.58538 5.91437 -0.144598 -0.190213 0 -0.777778 10.4203 0.999835 4.81207 -0.122722 -0.723589 -0.679234
-1.71375 -7.84975 10.351 0.248422 0.208754 -0.236758 -0.347251 10.4569 -0.791293 0.176836 -0.959066 -0.0283712 0.281756
-16.0082 -0.4055 4.35575 -0.0124302 0.0261032 0 0.844444 10.4614 -0.127104 3.98384 0.172664 0.668476 -0.723414
-8.74413 1.04475 11.6525 -0.0659547 -0.165022 0 0.4 10.4835 0.178468 4.81207 0.462599 -0.739102 -0.489623
-6.14838 -8.3445 12.8004 0.305386 0.12643 0 -0.0888889 10.4888 -0.577007 6.02487 0.998638 0.0306221 -0.0422442
-4.69075 -2.53175 13.1115 -0.183255 0.101106 0 -0.2 10.5105 -0.383292 5.39737 -0.350228 0.931539 -0.0978508
3 148 135 173
3 135 148 117
3 123 135 84
3 148 173 196
3 149 123 84
3 68 78 105
3 193 121 168
3 95 62 63
3 62 33 63
3 51 33 27
3 33 38 13
3 13 38 30
3 30 9 13
3 45 81 53
3 45 53 20
3 20 53 46
3 115 78 137
3 185 126 163
3 96 126 92
3 186 168 121
3 63 121 95
3 92 63 96
3 51 27 56
3 56 93 51
3 5 27 13
3 1 5 2
3 2 9 4
3 9 19 17
3 4 17 20
3 17 45 20
3 20 46 26
3 20 26 4
3 46 58 26
3 80 79 111
3 73 58 46
3 109 73 106
3 73 46 53
3 106 73 91
3 53 91 73
3 91 53 81
3 191 182 119
3 191 119 150
3 140 175 174
3 90 158 120
3 120 158 163
3 120 83 90
3 140 90 99
3 90 83 59
3 90 59 99
3 59 57 99
3 87 100 61
3 31 49 24
3 14 6 35
3 35 6 28
3 35 28 50
3 28 6 18
3 28 18 40
3 50 28 40
3 16 3 11
3 4 11 3
3 3 0 4
3 16 11 22
3 22 26 44
3 48 44 80
3 48 86 94
3 86 80 125
3 125 118 199
3 118 165 199
3 165 118 111
3 111 169 187
3 109 106 147
3 132 147 106
3 99 57 88
3 88 50 82
3 50 77 82
3 65 129 77
3 127 67 75
3 75 34 74
3 34 43 69
3 43 34 21
3 21 34 8
3 41 16 48
3 48 94 107
3 94 125 133
3 179 133 172
3 125 94 86
3 156 140 124
3 124 140 88
3 156 124 161
3 124 82 131
3 127 114 153
3 114 74 122
3 114 122 153
3 34 69 64
3 98 48 107
3 107 159 136
3 153 183 146
3 122 155 183
3 151 128 177
3 145 116 151
3 116 128 151
3 69 108 64
3 103 143 101
3 128 143 180
3 180 177 128
3 134 198 143
3 180 143 198
3 161 131 170
3 161 124 131
3 14 32 15
3 24 15 31
3 176 135 178
3 178 135 123
3 135 176 173
3 89 84 135
3 89 135 117
3 89 117 85
3 137 85 117
3 137 117 148
3 192 137 148
3 149 190 123
3 178 123 190
3 55 89 54
3 54 89 85
3 89 55 84
3 78 85 137
3 115 152 105
3 192 152 137
3 137 152 115
3 152 162 105
3 121 193 171
3 121 171 149
3 121 149 95
3 27 33 13
3 30 19 9
3 45 42 78
3 45 78 68
3 55 54 30
3 55 30 38
3 30 42 19
3 19 42 45
3 30 54 42
3 78 42 85
3 85 42 54
3 91 81 119
3 105 119 81
3 138 119 105
3 162 138 105
3 78 115 105
3 141 163 126
3 113 141 96
3 96 141 126
3 163 141 113
3 163 113 83
3 63 92 121
3 121 92 126
3 121 126 186
3 51 96 63
3 33 51 63
3 97 96 51
3 97 51 93
3 100 56 76
3 76 56 71
3 93 56 100
3 49 76 71
3 49 71 36
3 49 36 25
3 27 23 36
3 27 36 56
3 56 36 71
3 5 12 23
3 5 23 27
3 12 5 1
3 6 1 3
3 3 1 0
3 1 2 0
3 4 0 2
3 4 9 17
3 44 79 80
3 79 44 58
3 26 58 44
3 111 79 58
3 104 111 58
3 104 73 109
3 104 58 73
3 106 91 132
3 132 91 119
3 132 119 166
3 166 119 181
3 182 181 119
3 140 142 90
3 90 142 158
3 158 142 188
3 174 188 142
3 174 142 140
3 83 39 59
3 32 14 39
3 61 32 72
3 39 72 32
3 72 39 83
3 87 61 72
3 96 97 113
3 113 72 83
3 72 113 87
3 87 113 93
3 93 113 97
3 31 47 60
3 60 47 100
3 47 61 100
3 15 32 47
3 15 47 31
3 61 47 32
3 49 31 60
3 49 60 76
3 76 60 100
3 24 49 25
3 12 25 36
3 12 36 23
3 15 24 10
3 10 25 12
3 25 10 24
3 7 10 1
3 1 10 12
3 7 15 10
3 14 15 7
3 40 18 37
3 37 18 29
3 21 8 16
3 6 29 18
3 29 6 34
3 34 6 8
3 16 8 3
3 3 8 6
3 48 16 44
3 44 16 22
3 139 104 109
3 147 189 139
3 147 139 109
3 147 132 166
3 147 166 197
3 88 140 99
3 129 82 77
3 127 102 67
3 67 102 65
3 65 102 129
3 75 67 52
3 52 67 37
3 52 37 29
3 37 67 40
3 65 40 67
3 75 52 34
3 29 34 52
3 34 64 74
3 69 43 70
3 43 21 41
3 66 103 70
3 66 70 41
3 43 41 70
3 41 48 66
3 107 94 146
3 133 146 94
3 172 133 157
3 157 133 125
3 139 189 144
3 104 139 144
3 104 144 111
3 111 144 169
3 170 131 129
3 164 170 129
3 154 164 129
3 102 127 154
3 102 154 129
3 112 122 74
3 155 122 112
3 155 112 145
3 110 145 112
3 110 112 74
3 110 74 64
3 116 145 110
3 108 116 64
3 64 116 110
3 69 70 101
3 101 70 103
3 134 103 130
3 130 103 66
3 130 66 98
3 48 98 66
3 98 136 130
3 159 107 160
3 146 183 160
3 146 160 107
3 155 195 183
3 108 128 116
3 128 108 69
3 128 69 101
3 128 101 143
3 130 198 134
3 198 130 167
3 167 130 136
3 39 14 35
3 39 35 59
3 59 35 57
3 95 149 84
3 33 62 38
3 84 38 62
3 62 95 84
3 84 55 38
3 81 68 105
3 68 81 45
3 186 126 185
3 2 13 9
3 2 5 13
3 19 45 17
3 194 191 150
3 83 120 163
3 87 93 100
3 6 14 1
3 7 1 14
3 11 4 26
3 11 26 22
3 80 86 48
3 111 118 80
3 125 80 118
3 165 111 187
3 184 175 140
3 88 57 50
3 57 35 50
3 40 65 50
3 77 50 65
3 21 16 41
3 199 157 125
3 124 88 82
3 127 75 114
3 74 114 75
3 98 107 136
3 122 183 153
3 82 129 131
3 134 143 103
