ply
format ascii 1.0
comment Generated by PyMesh
element vertex 200
property float x
property float y
property float z
property float charge
property float ddc
property float hbond
property float hphob
property float rho
property float si
property float theta
property float nx
property float ny
property float nz
element face 357
property list uchar int vertex_indices
end_header
-1.90625 -6.818 10.2917 0.36039 0 -0.276012 -0.372184 1e-08 -0.273895 2.22045e-16 -0.962724 -0.18519 0.197148
-1.71375 -7.84975 10.351 0.248422 -0.138164 -0.236758 -0.347251 1.05123 -0.791293 2.34103 -0.959066 -0.0283712 0.281756
-2.011 -5.875 11.0615 0.37523 -0.538725 -0.0252554 -0.253553 1.22181 -0.495688 4.46634 -0.733903 -0.671001 -0.105567
-2.309 -6.189 8.945 0.43995 0.222858 0 -0.0888889 1.53995 0.159897 2.22045e-16 -0.990824 0.123307 -0.0553434
-2.13225 -8.094 9.39625 0.419197 -0.206042 0 0.107925 1.57515 -0.0980801 1.53949 -0.947777 0.184363 0.260248
-1.7585 -6.495 11.9974 0.3505 -0.189459 0 -1 1.74229 0.0230992 3.75775 -0.875271 -0.44215 0.195971
-2.18438 -7.15963 8.50113 0.52569 -0.0339725 0 -0.0888889 1.84397 -0.211752 0.644019 -0.97819 -0.0684411 0.19611
-2.61469 -4.94441 9.86416 0.323553 0.390946 0 -0.0888889 2.04817 0.0684234 5.42162 -0.775368 -0.219062 -0.592297
-1.463 -8.376 11.3333 0.176508 0.215084 -0.105314 -1 2.19348 0.32598 2.67636 -0.806276 -0.255371 0.533577
-1.88644 -9.22363 10.6494 0.397807 -0.336689 0 0.844444 2.46771 -0.0799102 2.21802 -0.616614 0.425512 0.662365
-2.68963 -5.70463 12.3524 0.373157 -0.463782 0 -0.2 2.69014 -0.389516 4.13366 -0.260663 -0.948494 -0.180039
-2.77375 -9.09387 9.28175 0.433723 -0.361508 0 0.844444 2.76862 -0.218317 1.62704 -0.625672 0.758327 0.182961
-2.3525 -6.17938 7.56938 0.610377 0.157204 0.281908 -0.506213 2.91629 0.253721 0.372008 -0.928894 0.314033 0.196315
-2.162 -8.0945 7.9165 0.50133 -0.163898 0 -0.0888889 2.94681 -0.999892 0.992166 -0.909633 0.295624 0.291845
-1.52013 -6.21325 13.1946 0.52676 -0.280381 0 -0.2 2.99508 -0.524356 3.73346 -0.53448 -0.837967 0.110193
-3.67925 -5.23994 10.9784 0.37313 -0.550072 0 -0.2 3.00878 -0.054301 4.84026 -0.0577555 -0.859388 -0.508052
-0.950875 -7.54581 12.4346 0.0322214 0.267199 -0.245019 -1 3.13785 0.0521168 3.23287 -0.632297 -0.545991 0.549632
-0.571625 -9.07475 11.6154 0.316279 0.295808 -0.00596384 -0.972213 3.36069 -0.150563 2.68553 -0.446835 -0.276825 0.850709
-2.81013 -7.37475 7.02338 0.598937 -0.224095 0.0306396 -1 3.4631 -0.310992 0.730766 -0.632572 0.310152 0.709689
-2.78744 -5.99862 13.4154 0.311591 -0.390297 0 -0.2 3.79737 -0.106675 3.98778 -0.0566234 -0.97951 -0.193273
-3.57711 -9.55381 9.77205 0.436577 -0.405458 0 0.913024 3.81615 0.132051 1.73267 -0.197054 0.922204 0.33273
-1.69987 -5.249 6.81862 0.450617 0.185533 0.09057 -0.79922 3.94331 -0.615685 0.176171 -0.818807 0.560268 0.125122
-3.67 -3.37725 10.0363 0.238417 0.408615 0 -0.2 3.94536 0.259178 5.25902 0.0528347 0.22804 -0.972217
-1.33125 -10.4866 11.3071 0.442793 -0.287175 0 0.844444 3.99607 -0.463431 2.38687 -0.287108 0.373615 0.882032
-3.04312 -9.22025 8.00725 0.43946 -0.304572 0 0.844444 4.07739 -0.999875 1.26919 -0.450346 0.747347 0.488529
-3.82663 -9.5445 8.57913 0.41984 -0.387974 0 0.913713 4.11223 -0.8139 1.45472 -0.0289599 0.975135 0.219709
-2.55194 -2.87169 10.2829 0.0562423 0.315565 -0.338533 -0.154071 4.1637 -0.147396 5.46778 -0.412992 0.578452 -0.703442
-1.03 -3.787 8.5425 0.191599 0.213808 -0.000550657 -0.0888889 4.29085 -0.66072 5.9031 -0.841293 0.29785 -0.451123
-4.92338 -5.55363 11.0901 0.315841 -0.498511 0 -0.2 4.2967 0.080399 4.75144 0.467586 -0.821285 -0.326885
-2.88225 -6.48225 6.32975 0.59626 -0.215643 0.800479 -1 4.29798 0.105173 0.499603 -0.654714 0.679947 0.330186
-1.91937 -6.21275 14.6142 0.51438 -0.258464 0.0700813 -0.50916 4.46975 -0.761247 3.7647 -0.314087 -0.892927 -0.322539
0.031 -7.35913 13.8882 0.636333 0.187872 0.318217 -0.960587 4.90191 -0.484615 3.39028 -0.612271 -0.790601 0.00867966
-4.34269 -10.1756 10.3532 0.501757 -0.347408 0 0.960233 4.96091 -0.382665 1.85468 0.0574804 0.76062 0.646648
-0.02625 -10.5835 11.7972 0.48142 0.238343 0 0.844444 4.97525 -0.487368 2.61463 -0.321326 0.311059 0.894423
-3.302 -11.1471 11.4605 0.51537 -0.285982 0 0.844444 4.98989 -0.374138 2.14301 -0.0613465 0.694598 0.716778
1.0125 -9.58212 11.8576 0.541577 0.182844 0 0.844444 5.04162 -0.999884 2.7854 -0.547629 -0.0482876 0.835327
-3.648 -2.5685 10.791 0.102482 0.341577 0 -0.2 5.05176 0.243116 5.30107 0.0512143 0.888126 -0.456737
-4.73887 -2.95038 10.0363 0.168411 0.351484 0 -0.2 5.09631 0.440618 5.18769 0.215907 0.495566 -0.841308
-5.308 -5.77575 12.31 0.303794 -0.382396 0 -0.2 5.17974 -0.624294 4.49594 0.323934 -0.933786 -0.152023
-0.949313 -4.12856 7.11919 0.359443 0.114738 0 -0.584002 5.325 -0.611672 6.19675 -0.913709 0.35722 0.193727
-4.2395 -8.5735 7.08169 0.515497 -0.337466 0 -0.918367 5.32951 -0.999835 1.06771 0.129076 0.635443 0.761282
-1.81662 -4.56588 5.56887 0.41354 -0.109662 0.340609 -1 5.37235 -0.672701 0.175038 -0.783066 0.239221 0.574091
-5.271 -4.34734 9.45378 0.429117 -0.445448 0 -0.2 5.38678 0.0790899 5.02214 0.716884 -0.165769 -0.677199
-4.69228 -7.21006 6.58134 0.7131 -0.357782 0.096704 -0.777778 5.40346 -0.0381626 0.75709 0.412367 0.69768 0.585829
-5.05225 -9.12525 8.24525 0.259349 -0.388592 0.0785852 0.778944 5.44991 -0.999817 1.341 0.439157 0.814084 0.380011
-1.991 -1.967 11.037 -0.109312 0.243942 0 -0.2 5.46822 0.0152856 5.45791 -0.456314 0.833743 -0.310886
-4.83238 -6.22475 14.045 0.203985 -0.334246 0 -0.172968 5.46985 -0.343419 4.11002 0.337459 -0.863933 -0.373821
1.14525 -8.562 12.9073 0.701093 0.144151 0.394016 -1 5.51479 -0.868068 3.05313 -0.669011 -0.647723 0.364526
-5.27969 -9.23044 9.6165 0.54384 -0.425163 0 1 5.55613 -0.152386 1.61784 0.552825 0.793218 0.255323
-3.716 -6.85975 5.448 0.579937 -0.241303 0.268141 -1 5.56885 -0.999864 0.560676 -0.263335 0.865654 0.425791
-2.69287 -5.83144 5.22319 0.455863 -0.151666 0.425143 -1 5.59562 -0.739062 0.414836 -0.654214 0.459018 0.601088
-1.62925 -2.0845 9.506 -0.3736 0.207942 -0.239979 -0.0888889 5.60405 0.693731 5.63818 -0.672234 0.587866 -0.450016
-1.37625 -11.8694 12.1976 0.44997 -0.250062 0 0.172882 5.64141 -0.701319 2.35217 -0.0962332 0.842831 0.529505
-0.620125 -2.47038 8.16737 0.103473 0.113267 -0.60344 -0.38732 5.71991 -0.131727 5.89119 -0.933496 0.310793 -0.178866
-1.30838 -7.12044 15.2753 0.716963 -0.212738 0.477581 -0.777778 5.74814 -0.300777 3.91312 -0.452784 -0.683757 -0.572243
-0.359 -11.5591 12.3024 0.46941 -0.210566 0 0.0556884 5.75281 -0.631845 2.48376 -0.345776 0.698796 0.626197
-3.731 -6.37675 15.2506 0.378683 -0.279495 0 -0.2 5.89528 -0.78274 3.9272 0.146035 -0.903592 -0.402736
-4.3105 -11.2565 11.5763 0.575097 -0.318638 0 -0.0888889 6.0109 -0.758212 2.14301 0.336622 0.872277 0.354709
-6.14825 -6.61194 11.79 0.412833 -0.430455 0 -0.120257 6.06027 -0.444363 4.49594 0.929507 -0.355159 -0.0993885
-6.17556 -5.75075 9.81419 0.51025 -0.434398 0 -0.0888889 6.09524 -0.485206 5.02214 0.879245 -0.409227 -0.243849
-3.47725 -2.18625 11.8475 0.0116938 0.253085 0 -0.2 6.10638 -0.07272 5.30107 -0.3464 0.841313 -0.414969
0.863875 -10.9526 12.4683 0.536653 -0.172381 0 -0.405929 6.14953 -0.802259 2.61463 -0.584743 0.680737 0.441217
-5.725 -6.1115 13.164 0.28495 -0.387156 0 -0.199861 6.18768 -0.999881 4.49594 0.778413 -0.53643 -0.326062
-5.82725 -2.50425 9.9965 0.16658 0.284326 0 -0.2 6.27325 0.279194 5.18769 0.185066 0.85031 -0.49267
-2.527 -11.704 12.3365 0.47286 -0.294405 0 0.377778 6.28532 -0.344293 2.35217 0.176489 0.927301 0.330096
-0.7125 -3.14287 6.77037 0.40072 0.0706943 0 -1 6.39707 -0.786713 6.19675 -0.909629 0.176453 0.376085
-5.6675 -9.7635 11.0267 0.39355 -0.392796 0 0.661547 6.50316 -0.536952 1.85468 0.829797 0.432144 0.353113
1.891 -9.97425 13.0087 0.663363 -0.0336202 0 -0.795671 6.54181 -0.999902 2.7854 -0.975146 0.0577273 0.213912
-2.83406 -7.02481 16.3614 0.508743 -0.207541 0.125341 -0.777778 6.60255 -0.497239 3.9272 -0.213924 -0.73017 -0.648913
-2.817 -4.43525 4.809 0.438413 -0.126824 0.745353 -1 6.63537 -0.632374 0.175038 -0.582432 0.0504241 0.811314
-2.33325 -1.6125 12.1005 0.0651217 0.2456 0.0357752 -0.134356 6.64033 -0.221343 5.45791 -0.27871 0.82363 -0.493918
-6.14975 -8.38775 9.2365 0.642467 -0.42189 0 0.597371 6.82559 -0.682244 1.61784 0.864514 0.496605 -0.0774548
0.717875 -8.19975 15.5052 0.615783 -0.146508 0.45129 -0.784236 6.8495 -0.999819 3.39028 -0.62321 -0.649262 -0.435968
1.367 -8.79813 14.2028 0.718097 -0.0709349 0.843431 -0.613031 6.85018 -0.559924 3.05313 -0.938835 -0.300511 -0.168172
-1.476 -3.1625 5.95813 0.62033 -0.115732 0.397828 -1 6.86802 0.0432137 0.175038 -0.693237 0.143144 0.706351
-5.77 -8.44 10.563 0.568423 -0.472185 0 -0.0888889 6.88318 0.23855 1.61784 0.951713 0.306736 0.0124313
-0.595 -12.0105 13.363 0.571243 -0.192553 0 -0.777778 6.92939 -0.55804 2.48376 -0.371538 0.892576 0.255475
-6.109 -8.09013 8.2005 0.609747 -0.376557 0.0100599 -0.777778 6.92984 -0.999782 1.341 0.704026 0.548252 0.451407
-4.09312 -6.05037 4.4095 0.490923 -0.198665 0 -1 6.93845 -0.999878 0.560676 -0.137521 0.544987 0.827089
-0.47025 -1.53 9.122 -0.106855 0.193979 -0.47734 -0.0888889 6.94502 0.17356 5.63818 -0.559631 0.807507 -0.186402
-0.977813 -1.33644 11.9819 0.0576827 0.254481 0 -0.155669 6.99039 -0.143982 5.45791 -0.0664935 0.980925 -0.18266
-5.07044 -6.35375 5.00331 0.6309 -0.26575 0.265465 -0.957747 7.08156 -0.625621 0.560676 0.358455 0.754102 0.55031
-4.87 -7.05025 15.4299 0.42535 -0.297095 0 -0.0888889 7.08255 -0.21173 3.9272 0.602014 -0.722362 -0.340253
-1.40675 -8.23525 16.089 0.725003 -0.188619 0.431927 -0.777778 7.13182 0.999761 3.91312 -0.400395 -0.658658 -0.637066
-5.61875 -4.25737 7.6965 1 -0.384361 0.473898 -0.866667 7.18039 0.429686 5.02214 0.978629 0.118664 -0.167943
-1.66 -12.3445 13.6494 0.337317 -0.234646 0 -0.213366 7.19511 -0.547249 2.35217 0.0749592 0.965726 0.248506
-0.030375 -1.28225 7.4885 0.122921 0.166418 0.00467234 -0.980047 7.20998 0.180699 5.89119 -0.531229 0.845946 0.0465979
-6.10838 -7.2915 10.8197 0.50502 -0.467476 0 -0.0888889 7.24554 0.0510481 4.49594 0.978062 0.207388 -0.01962
-6.22325 -6.96025 7.58225 0.517227 -0.363651 0 -0.777778 7.24956 -0.999844 0.75709 0.827747 0.0783912 0.555599
-0.426 -1.17206 10.6077 -0.082501 0.214084 0 -0.0888889 7.27528 0.701762 5.45791 -0.363504 0.925447 -0.106831
-6.351 -2.99425 8.68025 0.534287 -0.308102 0 -0.533636 7.28298 -0.0896829 5.02214 0.659098 0.746601 -0.0904267
-6.2445 -5.67425 8.35825 0.839817 -0.394245 0.48189 -0.866667 7.36379 -0.593974 5.02214 0.940384 -0.316391 0.124801
-6.951 -2.5145 9.9525 0.198646 0.246165 0 -0.2 7.39791 -0.0955885 5.18769 0.21621 0.976343 0.00262576
-5.70131 -7.94219 14.2342 0.465197 -0.353922 0 -0.0888889 7.40387 -0.359134 4.11002 0.924738 -0.100025 -0.367226
-3.15875 -1.42963 12.8542 0.0612547 0.193572 0.542764 0.4 7.40536 0.166984 5.45791 -0.499533 0.666475 -0.553423
-5.79563 -5.69025 7.32412 0.66977 -0.387024 0.297821 -0.863844 7.42309 0.225146 0.75709 0.957859 0.0303151 0.285636
-3.95025 -4.98125 4.1915 0.403797 -0.151377 0.703378 -1 7.43089 -0.439848 0.414836 -0.364018 0.223478 0.904184
-6.27887 -7.16625 9.82987 0.573587 -0.453383 0 -0.0888889 7.51459 -0.176118 1.61784 0.968248 0.150609 -0.199533
-6.111 -5.624 6.089 0.57352 -0.325857 0.517632 -0.801127 7.58766 -0.586464 0.75709 0.902457 0.418943 -0.100291
-4.69075 -2.53175 13.1115 -0.183255 0.216025 0 -0.2 7.59605 -0.383292 5.30107 -0.350228 0.931539 -0.0978508
-5.65947 -10.4865 12.0315 0.227417 -0.342732 -0.128585 -0.0888889 7.62949 -0.867021 2.14301 0.739189 0.670298 0.0655765
0.35525 -11.5347 13.7522 0.667707 -0.162959 0 -0.777778 7.64817 -0.291285 2.48376 -0.562823 0.806709 0.18014
-0.945625 -1.96769 6.20687 0.41249 0.0936724 0 -1 7.72105 0.0726819 5.89119 -0.792355 0.33976 0.506693
-6.2165 -2.099 11.352 -0.0479317 0.224417 0 -0.2 7.72241 0.734313 5.18769 -0.0671779 0.99727 0.0306544
-3.58612 -11.5753 13.3752 0.592123 -0.288385 0 -0.0888889 7.77435 -0.179518 2.35217 0.367699 0.920854 0.129709
1.3825 -10.685 14.0083 0.679477 -0.102287 0 -0.777778 7.7964 -0.469737 2.61463 -0.884948 0.461274 -0.0639818
-4.754 -10.953 13.301 0.49652 -0.309463 0 -0.0888889 7.81739 -0.214181 2.14301 0.543967 0.839005 -0.01308
-3.12075 -3.278 4.64725 0.334693 -0.109563 0 -1 7.84271 0.461773 0.175038 -0.612575 0.0962018 0.784536
0.859375 -9.032 16.0446 0.606747 -0.130183 0.111683 -0.67574 7.85131 -0.952634 3.39028 -0.710914 -0.271388 -0.648807
-0.731875 -12.3286 14.3022 0.31214 -0.175583 0 -0.777778 7.9304 -0.760783 2.48376 -0.356289 0.916199 0.183404
-6.60156 -7.33588 8.79594 0.630253 -0.401594 0 -0.256651 8.00968 -0.999867 1.61784 0.994857 0.0992303 0.0203263
-1.63806 -0.748062 12.9071 0.207123 0.235288 0 0.0257813 8.01188 0.00689755 5.45791 -0.00624998 0.683988 -0.729466
-6.14838 -8.3445 12.8004 0.305386 -0.386264 0 -0.0888889 8.06593 -0.577007 4.49594 0.998638 0.0306221 -0.0422442
-5.116 -5.535 4.308 0.53344 -0.213577 0.132085 -1 8.08832 -0.573461 0.560676 0.188106 0.463336 0.865988
1.30375 -9.7405 15.091 0.842973 -0.0735466 0.804214 -0.177778 8.14669 -0.763863 3.05313 -0.953067 -0.0709761 -0.294322
-4.4885 -6.99975 16.5465 0.454337 -0.249849 0 0.0897651 8.26361 -0.999917 3.9272 0.437605 -0.720127 -0.538441
-5.04875 -7.88225 16.3645 0.37142 -0.280157 0 -0.0888889 8.34653 -0.724377 3.9272 0.850945 -0.254382 -0.459545
-2.7135 -12.04 14.0715 0.477123 -0.259319 0 -0.0888889 8.37016 0.363528 2.35217 0.366581 0.883477 0.291696
-1.70119 -8.70938 17.1994 0.389983 -0.166468 -0.101352 -0.270878 8.37459 -0.548145 3.91312 -0.367204 -0.522871 -0.769264
-1.8625 -1.868 5.281 0.414427 0.109681 0 -1 8.37918 0.454107 0.175038 -0.642916 0.358324 0.676951
-3.23534 -8.48941 17.304 0.459237 -0.211195 0 1 8.38988 -0.219011 3.9272 0.0843109 -0.374124 -0.923538
-0.464 -8.9755 16.604 0.345343 -0.176029 -0.748025 -0.777778 8.43642 -0.275687 3.91312 -0.386586 -0.387961 -0.836683
0.656875 -0.954625 11.0969 0.257629 0.210952 0 -0.0888889 8.48326 0.407777 5.45791 -0.172353 0.969797 0.17259
-4.30062 -7.94225 17.1379 0.42654 -0.231559 0 1 8.49871 -0.999876 3.9272 0.324397 -0.263037 -0.908613
-4.75725 -4.3725 3.745 0.240903 -0.14844 0 -1 8.53597 0.137715 0.414836 -0.31198 0.546455 0.77721
-4.05363 -3.21913 3.93375 0.0999057 -0.0893953 0 -1 8.57812 0.525863 0.175038 -0.710511 0.29783 0.637551
-0.27 -0.883 13.3573 0.187824 0.267398 0 -0.2 8.60232 -0.074031 5.45791 0.52276 0.654727 -0.545943
0.94725 -0.8885 9.82619 0.196768 0.21103 0.025898 -0.0888889 8.65286 0.0536257 5.63818 -0.162998 0.986589 -0.00857057
-6.187 -2.8705 7.317 0.785327 -0.293669 0.122961 -0.866667 8.66163 0.873616 5.02214 0.76518 0.638045 -0.0860097
-3.69738 -1.33834 13.9881 0.059151 0.13624 0.407209 0.4 8.66401 -0.414425 5.45791 -0.730711 0.470451 -0.494709
-0.04025 -0.651 6.15987 0.19916 0.149412 0 -1 8.68098 0.193422 5.89119 -0.333882 0.706318 0.62421
-7.16125 -2.234 7.76575 0.524633 -0.247014 0.104137 -0.866667 8.72201 0.213785 5.02214 0.557123 0.812604 -0.171138
-5.72906 -2.47112 12.6509 -0.209615 0.229004 0 -0.2 8.73355 -0.310485 5.30107 -0.0788777 0.986902 0.140719
-4.765 -2.518 14.248 -0.200502 0.193072 0 -0.2 8.73505 -0.84256 5.30107 -0.364464 0.919285 -0.148599
-6.0635 -9.55275 13.222 0.51936 -0.345867 0 -0.0888889 8.74383 -0.999827 1.85468 0.961183 0.228341 -0.154877
-6.183 -5.011 4.536 0.226191 -0.223087 0.967173 -1 8.7563 0.0722563 0.560676 0.30348 0.907268 0.291145
-7.99203 -2.64528 11.2072 0.106454 -0.198707 0 -0.2 8.7576 -0.397675 5.18769 -0.0144315 0.992396 0.122235
0.243813 -11.8969 14.8194 0.741507 -0.142216 0 -0.777778 8.78066 -0.780262 2.48376 -0.612517 0.78779 -0.0648907
-8.08497 -1.88934 9.36447 0.207993 -0.221559 0 -0.866667 8.82005 -0.139227 5.18769 0.524179 0.786561 0.326433
1.572 -0.953875 7.497 0.332302 0.210183 0.197939 -0.676238 8.84568 0.159922 5.89119 0.0473165 0.987682 -0.149147
-5.41463 -10.342 13.8094 0.499113 -0.32084 0 0.271149 8.85093 -0.471593 2.14301 0.814785 0.508942 -0.277674
-3.2065 -2.32675 4.27975 0.130018 -0.0994887 0 -1 8.86608 0.539275 0.175038 -0.661631 0.374437 0.649648
-6.624 -4.5115 5.5635 0.468287 -0.260028 0 -0.866667 8.9207 0.1465 0.75709 0.517749 0.639978 -0.567772
-4.07681 -11.5229 14.4209 0.577033 -0.275893 0 -0.0320473 8.93064 -0.205529 2.35217 0.611204 0.778348 0.143542
-5.26237 -9.369 14.8328 0.507297 -0.321873 0 0.78746 9.01221 -0.00494616 4.11002 0.932581 0.232313 -0.276268
-2.44412 -12.6461 15.2684 0.373663 -0.204396 0.245125 -0.124628 9.0191 -0.577566 2.35217 0.108394 0.994106 0.00173444
1.475 -1.086 6.477 0.206609 0.194594 0 -1 9.03421 -0.482249 5.89119 0.0342105 0.968835 0.245335
0.721 -1.61625 13.153 0.124071 0.278791 0 -0.2 9.07263 -0.13008 5.45791 0.550536 0.834086 0.034786
-1.08025 -12.5326 15.4539 0.558363 -0.172548 -0.201973 -0.583904 9.09976 -0.999834 2.48376 -0.267539 0.945742 -0.184376
1.37888 -0.50825 8.64587 0.109163 0.20709 0.781538 -0.0888889 9.11065 0.999862 5.89119 0.0043209 0.99807 -0.0619493
-1.22113 0.0809375 13.5485 0.0400333 0.224315 0 0.4 9.13992 -0.0746796 5.45791 0.27894 0.353428 -0.892906
-6.4485 -3.06988 6.36562 0.82373 0.263712 0.232478 -0.866667 9.14759 0.999867 5.02214 0.581447 0.599726 -0.549771
1.146 -10.677 15.4235 0.742833 -0.106038 0.919687 -0.770309 9.15291 -0.870795 3.05313 -0.849498 0.391589 -0.353568
0.578125 -10.3691 16.4349 0.671563 -0.133372 0.772204 -0.777778 9.27232 -0.790541 3.05313 -0.656737 0.0802966 -0.749832
1.33506 -1.27988 11.9929 0.171192 0.239433 0 -0.184761 9.30398 0.187838 5.45791 0.263704 0.797677 0.542376
-4.98606 -4.13831 2.75444 0.0453553 0.0953509 0 -1 9.57924 -0.448578 0.414836 -0.707196 0.630495 0.319921
-2.90569 0.68025 13.7451 0.049932 -0.159282 0 0.4 9.70956 0.0684272 5.45791 -0.312653 0.115108 -0.942867
-2.31381 -1.10175 4.2515 0.100769 0.101669 0 -1 9.73958 0.465965 0.175038 -0.672386 0.636115 0.37849
-4.86794 -9.33075 16.6371 0.158079 -0.264091 0 0.933333 9.83151 -0.363641 3.9272 0.851016 0.0549026 -0.522261
-5.90675 -2.65587 14.3011 -0.117535 0.215804 0 -0.2 9.88632 -0.7564 5.30107 0.000315313 0.991663 -0.12886
-3.83075 -0.304 14.6757 -0.026281 -0.128948 -0.0434052 0.446411 9.91318 -0.560929 5.45791 -0.607594 -0.0369576 -0.793388
-5.15737 -2.20863 15.3814 -0.0770677 -0.179308 -0.423582 0.4 9.97371 -0.999859 5.30107 -0.285748 0.688131 -0.666951
-1.69675 -10.2355 17.6903 0.185506 -0.148206 -0.96332 -0.155556 9.97773 -0.618305 3.91312 -0.451623 0.102526 -0.886298
2.11538 -0.606875 10.9895 0.0126506 0.213725 0 -0.0888889 9.98649 0.999888 5.45791 0.181246 0.959523 0.21556
-8.17025 -1.88312 7.04 0.270622 0.202474 0.232979 -0.866667 10.0135 0.677647 5.02214 0.329029 0.739171 -0.587679
0.959188 -0.337687 5.328 0.221576 0.186536 0 -1 10.0185 0.471389 5.89119 0.259281 0.892907 0.368089
-3.354 -12.5258 15.707 0.242015 -0.212546 0 0.844444 10.0363 -0.99985 2.35217 0.334248 0.942454 0.00765007
-7.5915 -4.8935 5.11925 -0.00991547 -0.221856 0.514298 -0.866667 10.0518 -0.813618 0.75709 0.355514 0.720587 -0.595285
-0.8 0.19875 5.3555 0.085571 0.149145 0 -1 10.0761 0.999928 5.89119 -0.210525 0.880777 0.42416
-4.561 -3.0465 2.529 0.146464 0.0744624 0.0175719 -1 10.0816 0.268546 0.175038 -0.805122 0.509933 0.302898
-4.8805 -10.495 14.9487 0.529893 -0.299382 0 0.933333 10.1185 0.0710405 4.11002 0.932964 0.341581 -0.11358
-9.14338 -2.21881 10.6134 0.047993 -0.202627 0 -0.866667 10.1214 -0.594547 5.18769 0.525658 0.686227 0.502768
-9.06 -0.9825 9.4 0.0107298 -0.199642 0 -0.866667 10.1521 0.0899438 5.18769 0.709073 0.625695 0.325148
-1.46512 -0.271688 4.48956 0.241391 0.101755 0 -1 10.1899 0.332596 5.89119 -0.643815 0.680922 0.349067
-8.26437 -1.01525 8.31125 0.0134116 -0.205722 0 -0.866667 10.2004 0.802344 5.02214 0.555904 0.831173 -0.0110874
-3.709 -1.9195 3.02475 -0.0954547 0.0827599 0 -1 10.2011 0.676436 0.175038 -0.766861 0.573532 0.288072
-2.68175 -10.0616 18.0147 0.35608 -0.168704 -0.163447 0.805938 10.2019 -0.999815 3.91312 -0.147886 -0.169386 -0.974391
2.43925 -0.98075 5.77775 0.0355903 0.202673 0 -1 10.23 0.262274 5.89119 0.418149 0.902916 0.0994703
-7.58725 -5.17525 4.094 -0.0551233 0.173734 0.672859 -1 10.2376 0.185181 0.560676 -0.109349 0.717811 -0.687598
-1.62603 -12.0646 16.4171 0.82776 -0.172148 0 -0.155556 10.3017 -0.320341 2.48376 -0.241147 0.799142 -0.550654
-0.118719 0.483594 14.4014 -0.026709 0.227295 0 0.4 10.3288 0.265661 5.45791 0.788998 0.16338 -0.592275
-3.79075 -10.2222 18.0065 0.518913 -0.204066 0 1 10.3404 -0.999869 3.9272 0.409482 -0.0532152 -0.910765
-4.7185 -11.2759 15.6766 0.578807 -0.255481 0 0.933333 10.3623 -0.73533 2.35217 0.793706 0.608294 -0.00312074
-9.42325 -2.72775 11.9522 -0.069941 -0.212321 0 -0.779522 10.3732 -0.999869 5.18769 0.61736 0.784708 -0.0556738
-7.69875 -3.17213 5.98338 0.781853 0.214205 0.112886 -0.866667 10.459 0.118032 5.02214 0.299425 0.616534 -0.728169
-0.125625 -11.4201 16.4508 0.673607 -0.149437 0.224245 -0.755853 10.52 -0.666246 2.48376 -0.505807 0.513905 -0.692864
3.03312 -1.56288 8.17488 0.181967 0.243237 0 -0.227267 10.5677 0.0566503 5.89119 0.589905 0.806294 0.0436145
2.82544 -1.15769 9.54619 0.00558137 0.247859 0 -0.0888889 10.5708 0.459066 5.63818 0.599762 0.800153 -0.00639302
1.41825 -2.4965 14.165 -0.0174466 0.285005 -0.188425 -0.2 10.5843 -0.577821 5.45791 0.754722 0.655694 0.021473
-8.49575 -2.5645 12.975 -0.0942213 -0.199052 -0.18369 -0.368789 10.5975 -0.54535 5.18769 0.186533 0.919786 -0.345252
-7.47087 -2.52638 13.4104 -0.0864843 -0.212084 0 -0.2 10.6346 -0.109034 5.30107 0.181217 0.970668 -0.157999
-1.30175 1.72675 13.5933 -0.0387437 0.185566 0 0.4 10.7883 0.635166 5.45791 0.251486 0.358882 -0.898865
-4.75675 0.05125 15.3105 -0.106209 -0.118585 -0.141506 0.669609 10.8553 -0.407501 5.45791 -0.547288 -0.301542 -0.780735
0.461 -0.8215 15.4971 -0.179853 0.237526 -0.262187 -0.00454918 10.8644 0.0375989 5.45791 0.923269 0.377674 0.0702589
-1.74025 -0.45925 3.509 0.184182 0.110537 0 -1 10.8767 0.0285848 0.175038 -0.563464 0.812844 0.147625
-6.11369 -4.90406 2.41894 0.0869857 0.0964916 0 -1 10.8772 0.106526 0.414836 -0.720725 0.693096 -0.0131379
-7.06962 -2.47638 14.4404 -0.0257032 -0.218911 0.0962312 -0.376944 11.0712 -0.731081 5.30107 0.328211 0.848099 -0.415938
-4.18175 0.935375 14.1839 -0.0221448 -0.146089 0 0.924198 11.0829 -0.18944 5.45791 -0.205217 -0.606615 -0.768052
2.2445 -2.9305 13.324 -0.0321753 0.274721 -0.242896 -0.0993964 11.0919 -0.199769 5.45791 0.529716 0.796814 0.29067
-8.982 -2.2765 6.4235 0.0985167 0.181766 0 -0.866667 11.1061 0.225585 5.02214 0.208589 0.693139 -0.689962
3 184 199 164
3 164 174 131
3 164 131 184
3 174 138 131
3 63 92 136
3 172 138 174
3 195 135 155
3 155 135 124
3 155 124 125
3 124 135 113
3 124 113 96
3 125 124 96
3 84 142 151
3 184 151 142
3 142 167 184
3 84 151 128
3 128 131 90
3 42 90 63
3 42 37 22
3 37 63 36
3 36 103 99
3 103 132 99
3 132 103 136
3 133 132 159
3 136 189 190
3 175 125 141
3 125 107 141
3 69 74 107
3 21 50 29
3 29 43 18
3 43 88 77
3 88 43 95
3 95 43 98
3 91 84 42
3 42 22 15
3 3 7 27
3 22 36 26
3 51 26 45
3 36 22 37
3 60 99 94
3 190 196 159
3 194 157 173
3 157 141 119
3 27 39 21
3 21 12 3
3 12 18 6
3 12 6 3
3 43 77 40
3 28 42 15
3 15 10 38
3 3 0 7
3 0 1 5
3 5 1 8
3 6 4 0
3 1 9 8
3 20 48 32
3 11 25 20
3 25 48 20
3 77 44 40
3 97 75 71
3 48 75 66
3 66 32 48
3 87 112 75
3 66 75 112
3 46 10 19
3 10 5 14
3 14 19 10
3 31 16 47
3 17 47 16
3 33 17 23
3 17 8 9
3 66 134 100
3 112 93 134
3 46 19 56
3 56 19 30
3 30 54 68
3 68 56 30
3 68 83 118
3 120 68 118
3 118 83 121
3 105 61 101
3 52 23 34
3 52 34 64
3 85 64 104
3 104 57 106
3 104 143 117
3 170 143 140
3 106 140 143
3 140 93 144
3 93 82 116
3 93 46 82
3 56 82 46
3 93 116 158
3 93 158 144
3 181 120 176
3 162 121 185
3 162 185 179
3 73 105 114
3 109 137 101
3 109 101 76
3 182 143 170
3 102 53 86
3 51 79 53
3 53 79 86
3 79 127 149
3 80 89 45
3 45 70 80
3 111 80 70
3 111 70 94
3 111 156 150
3 156 129 160
3 156 160 197
3 191 180 150
3 150 180 126
3 126 180 193
3 146 130 86
3 130 102 86
3 173 119 102
3 173 157 119
3 146 86 139
3 139 86 149
3 186 177 139
3 187 149 127
3 187 127 163
3 122 127 89
3 163 122 154
3 147 154 80
3 80 126 147
3 126 193 147
3 198 154 147
3 198 147 188
3 122 163 127
3 135 178 142
3 142 178 167
3 90 92 63
3 92 90 138
3 131 138 90
3 136 92 138
3 171 136 138
3 171 138 172
3 96 113 78
3 78 113 81
3 95 98 84
3 135 81 113
3 81 135 43
3 43 135 98
3 84 98 142
3 142 98 135
3 42 84 90
3 90 84 128
3 133 99 132
3 74 141 107
3 21 41 50
3 50 41 69
3 69 41 74
3 29 50 49
3 49 50 78
3 49 78 81
3 78 50 96
3 69 96 50
3 29 49 43
3 81 43 49
3 43 40 18
3 77 88 110
3 88 95 91
3 59 97 110
3 59 110 91
3 88 91 110
3 91 42 59
3 15 22 7
3 51 27 26
3 26 7 22
3 7 26 27
3 45 26 60
3 45 60 70
3 60 26 36
3 94 70 60
3 129 94 99
3 133 129 99
3 192 129 161
3 161 129 133
3 161 133 159
3 159 196 161
3 171 183 136
3 136 183 189
3 102 119 74
3 65 102 74
3 39 65 74
3 41 21 39
3 41 39 74
3 13 6 18
3 4 6 13
3 4 13 11
3 24 11 13
3 24 13 18
3 24 18 40
3 25 11 24
3 44 25 40
3 40 25 24
3 77 110 71
3 71 110 97
3 87 97 58
3 58 97 59
3 58 59 28
3 42 28 59
3 28 38 58
3 10 15 2
3 10 2 5
3 7 0 2
3 7 2 15
3 2 0 5
3 9 1 4
3 9 4 11
3 4 1 0
3 44 48 25
3 48 44 77
3 48 77 71
3 48 71 75
3 58 112 87
3 112 58 62
3 62 58 38
3 62 38 46
3 14 5 16
3 30 31 54
3 14 31 30
3 31 14 16
3 35 47 17
3 35 17 33
3 9 23 17
3 9 34 23
3 32 57 34
3 57 32 66
3 57 66 100
3 140 106 100
3 140 100 134
3 140 134 93
3 62 93 112
3 46 93 62
3 30 19 14
3 56 68 82
3 82 68 115
3 82 115 116
3 68 120 123
3 68 123 115
3 115 123 116
3 108 72 114
3 72 108 121
3 72 121 83
3 73 114 72
3 73 72 47
3 47 72 31
3 31 72 54
3 54 72 83
3 105 67 61
3 61 67 35
3 67 47 35
3 33 61 35
3 73 47 67
3 73 67 105
3 76 101 61
3 76 61 55
3 55 61 33
3 52 76 55
3 52 55 23
3 23 55 33
3 76 52 85
3 64 85 52
3 57 104 64
3 57 64 34
3 100 106 57
3 120 158 123
3 123 158 116
3 120 181 158
3 121 162 118
3 118 162 176
3 118 176 120
3 153 185 121
3 152 185 153
3 152 153 114
3 114 153 108
3 108 153 121
3 137 185 152
3 137 152 105
3 105 152 114
3 85 109 76
3 179 148 145
3 145 148 85
3 145 85 117
3 85 148 109
3 166 145 117
3 145 166 179
3 182 166 143
3 143 166 117
3 148 179 185
3 148 137 109
3 137 148 185
3 53 65 39
3 53 39 27
3 53 27 51
3 102 65 53
3 149 86 79
3 89 127 79
3 192 197 160
3 192 160 129
3 165 130 146
3 177 146 139
3 150 126 111
3 111 126 80
3 188 147 193
3 165 146 177
3 135 195 178
3 151 184 131
3 151 131 128
3 63 37 42
3 136 103 63
3 36 63 103
3 132 136 190
3 175 169 125
3 169 155 125
3 96 69 125
3 107 125 69
3 95 84 91
3 99 60 36
3 190 159 132
3 157 175 141
3 21 29 12
3 18 12 29
3 28 15 38
3 6 0 3
3 27 21 3
3 79 51 89
3 89 51 45
3 129 156 94
3 111 94 156
3 191 150 156
3 168 130 165
3 130 168 173
3 130 173 102
3 141 74 119
3 87 75 97
3 38 10 46
3 8 16 5
3 8 17 16
3 9 32 34
3 66 112 134
3 54 83 68
3 106 143 104
3 105 101 137
3 104 117 85
3 140 144 170
3 170 144 158
3 139 149 186
3 186 149 187
3 122 89 80
3 154 122 80
3 9 11 20
3 9 20 32
