ply
format ascii 1.0
comment Generated by PyMesh
element vertex 200
property float x
property float y
property float z
property float charge
property float ddc
property float hbond
property float hphob
property float rho
property float si
property float theta
property float nx
property float ny
property float nz
element face 343
property list uchar int vertex_indices
end_header
-6.22325 -6.96025 7.58225 0.517227 0 0 -0.777778 1e-08 -0.999844 2.22045e-16 0.827747 0.0783912 0.555599
-6.109 -8.09013 8.2005 0.609747 -0.332791 0.0100599 -0.777778 1.29303 -0.999782 4.58284 0.704026 0.548252 0.451407
-6.60156 -7.33588 8.79594 0.630253 -0.209187 0 -0.256651 1.32562 -0.999867 3.79567 0.994857 0.0992303 0.0203263
-5.79563 -5.69025 7.32412 0.66977 -0.164841 0.297821 -0.863844 1.36469 0.225146 1.47738 0.957859 0.0303151 0.285636
-6.2445 -5.67425 8.35825 0.839817 -0.385875 0.48189 -0.866667 1.50214 -0.593974 2.3784 0.940384 -0.316391 0.124801
-4.69228 -7.21006 6.58134 0.7131 -0.416296 0.096704 -0.777778 1.8461 -0.0381626 2.22045e-16 0.412367 0.69768 0.585829
-6.14975 -8.38775 9.2365 0.642467 -0.188504 0 0.597371 2.3717 -0.682244 4.2289 0.864514 0.496605 -0.0774548
-6.27887 -7.16625 9.82987 0.573587 -0.202403 0 -0.0888889 2.42194 -0.176118 3.69213 0.968248 0.150609 -0.199533
-6.111 -5.624 6.089 0.57352 0.192264 0.517632 -0.801127 2.64116 -0.586464 1.12109 0.902457 0.418943 -0.100291
-5.05225 -9.12525 8.24525 0.259349 -0.299549 0.0785852 0.778944 2.77296 -0.999817 4.87917 0.439157 0.814084 0.380011
-5.61875 -4.25737 7.6965 1 -0.157203 0.473898 -0.866667 2.8557 0.429686 1.87625 0.978629 0.118664 -0.167943
-6.17556 -5.75075 9.81419 0.51025 -0.32426 0 -0.0888889 2.96172 -0.485206 3.0683 0.879245 -0.409227 -0.243849
-5.27969 -9.23044 9.6165 0.54384 -0.208295 0 1 3.2913 -0.152386 4.48893 0.552825 0.793218 0.255323
-4.2395 -8.5735 7.08169 0.515497 -0.396344 0 -0.918367 3.36739 -0.999835 5.51357 0.129076 0.635443 0.761282
-3.716 -6.85975 5.448 0.579937 -0.41296 0.268141 -1 3.38243 -0.999864 0.0939385 -0.263335 0.865654 0.425791
-6.10838 -7.2915 10.8197 0.50502 -0.0833911 0 -0.0888889 3.43412 0.0510481 3.77705 0.978062 0.207388 -0.01962
-5.271 -4.34734 9.45378 0.429117 -0.30894 0 -0.2 3.47915 0.0790899 2.50369 0.716884 -0.165769 -0.677199
-5.07044 -6.35375 5.00331 0.6309 -0.285569 0.265465 -0.957747 3.68089 -0.625621 0.38456 0.358455 0.754102 0.55031
-5.77 -8.44 10.563 0.568423 -0.0714482 0 -0.0888889 3.75247 0.23855 4.10749 0.951713 0.306736 0.0124313
-2.81013 -7.37475 7.02338 0.598937 -0.470089 0.0306396 -1 3.78647 -0.310992 5.85476 -0.632572 0.310152 0.709689
-2.88225 -6.48225 6.32975 0.59626 -0.458433 0.800479 -1 3.81313 0.105173 6.11914 -0.654714 0.679947 0.330186
-6.624 -4.5115 5.5635 0.468287 0.310732 0 -0.866667 3.97419 0.1465 1.22177 0.517749 0.639978 -0.567772
-3.82663 -9.5445 8.57913 0.41984 -0.329636 0 0.913713 4.11064 -0.8139 5.02539 -0.0289599 0.975135 0.219709
-6.183 -5.011 4.536 0.226191 0.252514 0.967173 -1 4.31232 0.0722563 0.917746 0.30348 0.907268 0.291145
-6.187 -2.8705 7.317 0.785327 0.131214 0.122961 -0.866667 4.40177 0.873616 1.79794 0.76518 0.638045 -0.0860097
-6.14825 -6.61194 11.79 0.412833 -0.165044 0 -0.120257 4.46312 -0.444363 3.52134 0.929507 -0.355159 -0.0993885
-6.351 -2.99425 8.68025 0.534287 0.160316 0 -0.533636 4.61622 -0.0896829 2.09625 0.659098 0.746601 -0.0904267
-4.09312 -6.05037 4.4095 0.490923 -0.319856 0 -1 4.75203 -0.999878 0.341944 -0.137521 0.544987 0.827089
-5.116 -5.535 4.308 0.53344 -0.266226 0.132085 -1 4.75601 -0.573461 0.605133 0.188106 0.463336 0.865988
-4.92338 -5.55363 11.0901 0.315841 -0.325861 0 -0.2 4.76026 0.080399 3.08879 0.467586 -0.821285 -0.326885
-4.34269 -10.1756 10.3532 0.501757 -0.235365 0 0.960233 4.8125 -0.382665 4.61792 0.0574804 0.76062 0.646648
-6.4485 -3.06988 6.36562 0.82373 0.22979 0.232478 -0.866667 4.8229 0.999867 1.60832 0.581447 0.599726 -0.549771
-5.6675 -9.7635 11.0267 0.39355 -0.0528692 0 0.661547 4.84797 -0.536952 4.29064 0.829797 0.432144 0.353113
-2.69287 -5.83144 5.22319 0.455863 -0.374033 0.425143 -1 4.85034 -0.739062 0.0391004 -0.654214 0.459018 0.601088
-3.04312 -9.22025 8.00725 0.43946 -0.38046 0 0.844444 5.01247 -0.999875 5.28554 -0.450346 0.747347 0.488529
-3.57711 -9.55381 9.77205 0.436577 -0.306812 0 0.913024 5.03129 0.132051 4.84745 -0.197054 0.922204 0.33273
-4.73887 -2.95038 10.0363 0.168411 -0.269088 0 -0.2 5.08352 0.440618 2.43887 0.215907 0.495566 -0.841308
-2.162 -8.0945 7.9165 0.50133 -0.436722 0 -0.0888889 5.10395 -0.999892 5.52169 -0.909633 0.295624 0.291845
-7.5915 -4.8935 5.11925 -0.00991547 0.321869 0.514298 -0.866667 5.10527 -0.813618 1.21403 0.355514 0.720587 -0.595285
-2.3525 -6.17938 7.56938 0.610377 -0.472841 0.281908 -0.506213 5.17803 0.253721 5.91671 -0.928894 0.314033 0.196315
-2.18438 -7.15963 8.50113 0.52569 -0.468238 0 -0.0888889 5.4056 -0.211752 5.6079 -0.97819 -0.0684411 0.19611
-3.67 -3.37725 10.0363 0.238417 -0.298648 0 -0.2 5.43966 0.259178 2.56471 0.0528347 0.22804 -0.972217
-2.77375 -9.09387 9.28175 0.433723 -0.37379 0 0.844444 5.45425 -0.218317 5.08008 -0.625672 0.758327 0.182961
-5.82725 -2.50425 9.9965 0.16658 0.238414 0 -0.2 5.47939 0.279194 2.31179 0.185066 0.85031 -0.49267
-1.69987 -5.249 6.81862 0.450617 -0.364872 0.09057 -0.79922 5.59019 -0.615685 6.16886 -0.818807 0.560268 0.125122
-7.16125 -2.234 7.76575 0.524633 0.165022 0.104137 -0.866667 5.64904 0.213785 2.23446 0.557123 0.812604 -0.171138
-6.14838 -8.3445 12.8004 0.305386 -0.0680237 0 -0.0888889 5.67768 -0.577007 3.84807 0.998638 0.0306221 -0.0422442
-7.69875 -3.17213 5.98338 0.781853 0.279175 0.112886 -0.866667 5.74205 0.118032 1.43316 0.299425 0.616534 -0.728169
-5.308 -5.77575 12.31 0.303794 -0.280563 0 -0.2 5.75758 -0.624294 3.30608 0.323934 -0.933786 -0.152023
-7.58725 -5.17525 4.094 -0.0551233 0.35605 0.672859 -1 5.79362 0.185181 0.979619 -0.109349 0.717811 -0.687598
-3.95025 -4.98125 4.1915 0.403797 -0.321434 0.703378 -1 5.85246 -0.439848 0.41385 -0.364018 0.223478 0.904184
-3.67925 -5.23994 10.9784 0.37313 -0.364671 0 -0.2 5.85715 -0.054301 2.94949 -0.0577555 -0.859388 -0.508052
-5.725 -6.1115 13.164 0.28495 -0.173836 0 -0.199861 5.98544 -0.999881 3.42958 0.778413 -0.53643 -0.326062
-4.75725 -4.3725 3.745 0.240903 -0.2861 0 -1 6.06335 0.137715 0.41385 -0.31198 0.546455 0.77721
-5.65947 -10.4865 12.0315 0.227417 -0.0871799 -0.128585 -0.0888889 6.08588 -0.867021 4.29064 0.739189 0.670298 0.0655765
-6.951 -2.5145 9.9525 0.198646 0.20645 0 -0.2 6.10242 -0.0955885 2.31179 0.21621 0.976343 0.00262576
-8.35437 -4.16412 4.94775 -0.453847 0.216752 -0.475452 -0.816929 6.17456 -0.0223487 1.21403 0.570471 0.599126 -0.561793
-2.817 -4.43525 4.809 0.438413 -0.322377 0.745353 -1 6.31195 -0.632374 0.41385 -0.582432 0.0504241 0.811314
-1.81662 -4.56588 5.56887 0.41354 -0.323969 0.340609 -1 6.42798 -0.672701 6.16886 -0.783066 0.239221 0.574091
-6.11369 -4.90406 2.41894 0.0869857 0.312059 0 -1 6.43321 0.106526 0.917746 -0.720725 0.693096 -0.0131379
-4.3105 -11.2565 11.5763 0.575097 -0.141141 0 -0.0888889 6.44509 -0.758212 4.61792 0.336622 0.872277 0.354709
-3.648 -2.5685 10.791 0.102482 -0.215573 0 -0.2 6.46388 0.243116 2.56471 0.0512143 0.888126 -0.456737
-2.309 -6.189 8.945 0.43995 -0.463677 0 -0.0888889 6.48015 0.159897 5.6079 -0.990824 0.123307 -0.0553434
-2.13225 -8.094 9.39625 0.419197 -0.408428 0 0.107925 6.584 -0.0980801 5.08008 -0.947777 0.184363 0.260248
-3.302 -11.1471 11.4605 0.51537 -0.185554 0 0.844444 6.61609 -0.374138 4.61792 -0.0613465 0.694598 0.716778
-4.98606 -4.13831 2.75444 0.0453553 0.294852 0 -1 6.62926 -0.448578 0.41385 -0.707196 0.630495 0.319921
-2.55194 -2.87169 10.2829 0.0562423 -0.27469 -0.338533 -0.154071 6.69125 -0.147396 2.56471 -0.412992 0.578452 -0.703442
-8.08497 -1.88934 9.36447 0.207993 0.119736 0 -0.866667 6.78316 -0.139227 2.23446 0.524179 0.786561 0.326433
-8.17025 -1.88312 7.04 0.270622 0.208768 0.232979 -0.866667 6.94051 0.677647 2.23446 0.329029 0.739171 -0.587679
-6.2165 -2.099 11.352 -0.0479317 0.206326 0 -0.2 6.94674 0.734313 2.31179 -0.0671779 0.99727 0.0306544
-6.0635 -9.55275 13.222 0.51936 -0.0646612 0 -0.0888889 6.96019 -0.999827 3.84807 0.961183 0.228341 -0.154877
-1.88644 -9.22363 10.6494 0.397807 -0.280166 0 0.844444 6.96445 -0.0799102 5.08008 -0.616614 0.425512 0.662365
-0.949313 -4.12856 7.11919 0.359443 -0.308799 0 -0.584002 6.97188 -0.611672 6.16886 -0.913709 0.35722 0.193727
-8.9555 -3.102 5.67 -0.219211 0.208703 -0.300687 -0.821164 7.03918 -0.278896 1.43316 0.401153 0.74822 -0.528435
-7.01625 -5.99675 3.2625 0.0142378 0.412183 -0.13483 -0.961342 7.0945 -0.678956 0.979619 -0.752426 0.433991 -0.495487
-5.70131 -7.94219 14.2342 0.465197 -0.104654 0 -0.0888889 7.23252 -0.359134 3.84807 0.924738 -0.100025 -0.367226
-4.83238 -6.22475 14.045 0.203985 -0.211777 0 -0.172968 7.24471 -0.343419 3.42958 0.337459 -0.863933 -0.373821
-1.90625 -6.818 10.2917 0.36039 -0.382283 -0.276012 -0.372184 7.24956 -0.273895 5.6079 -0.962724 -0.18519 0.197148
-8.94312 -4.58262 4.06213 -0.560117 0.223241 -0.0572364 -0.777778 7.27369 0.0691205 0.979619 0.560501 0.160938 -0.812366
-2.61469 -4.94441 9.86416 0.323553 -0.415717 0 -0.0888889 7.33685 0.0684234 2.94949 -0.775368 -0.219062 -0.592297
-8.982 -2.2765 6.4235 0.0985167 0.227609 0 -0.866667 7.36765 0.225585 1.43316 0.208589 0.693139 -0.689962
-7.96863 -6.67513 3.78638 -0.661683 0.380224 -0.306906 -0.777778 7.37151 -0.999901 0.979619 -0.299107 0.692448 -0.656544
-8.26437 -1.01525 8.31125 0.0134116 0.116951 0 -0.866667 7.38103 0.802344 2.23446 0.555904 0.831173 -0.0110874
-4.05363 -3.21913 3.93375 0.0999057 -0.299349 0 -1 7.42753 0.525863 0.41385 -0.710511 0.29783 0.637551
-3.12075 -3.278 4.64725 0.334693 -0.292166 0 -1 7.51928 0.461773 0.41385 -0.612575 0.0962018 0.784536
-9.01975 -6.191 4.01325 -0.53754 0.299307 0 -0.777778 7.55155 -0.871548 0.979619 0.243692 0.223039 -0.943858
-3.47725 -2.18625 11.8475 0.0116938 -0.223815 0 -0.2 7.60031 -0.07272 2.56471 -0.3464 0.841313 -0.414969
-2.68963 -5.70463 12.3524 0.373157 -0.287911 0 -0.2 7.61304 -0.389516 2.94949 -0.260663 -0.948494 -0.180039
-2.011 -5.875 11.0615 0.37523 -0.348246 -0.0252554 -0.253553 7.64412 -0.495688 2.94949 -0.733903 -0.671001 -0.105567
-1.71375 -7.84975 10.351 0.248422 -0.357135 -0.236758 -0.347251 7.65468 -0.791293 5.08008 -0.959066 -0.0283712 0.281756
-6.46925 -5.10881 1.25181 -0.019668 0.263393 0 -0.880138 7.67036 -0.259342 0.917746 -0.779521 0.411465 0.472275
-4.754 -10.953 13.301 0.49652 -0.105648 0 -0.0888889 7.71349 -0.214181 4.29064 0.543967 0.839005 -0.01308
-7.99203 -2.64528 11.2072 0.106454 0.205249 0 -0.2 7.73799 -0.397675 2.31179 -0.0144315 0.992396 0.122235
-4.561 -3.0465 2.529 0.146464 -0.266767 0.0175719 -1 7.82238 0.268546 0.41385 -0.805122 0.509933 0.302898
-5.41463 -10.342 13.8094 0.499113 -0.0835404 0 0.271149 7.88637 -0.471593 3.84807 0.814785 0.508942 -0.277674
-2.527 -11.704 12.3365 0.47286 -0.133207 0 0.377778 7.91152 -0.344293 4.61792 0.176489 0.927301 0.330096
-1.476 -3.1625 5.95813 0.62033 -0.269703 0.397828 -1 7.92365 0.0432137 6.16886 -0.693237 0.143144 0.706351
-1.03 -3.787 8.5425 0.191599 -0.309986 -0.000550657 -0.0888889 7.94772 -0.66072 6.16886 -0.841293 0.29785 -0.451123
-5.76875 -4.03025 1.206 -0.335113 -0.234393 0.547276 -1 7.9674 -0.502144 0.917746 -0.659128 0.428587 0.617951
-9.5915 -3.258 3.9775 -0.310933 0.0895683 -0.124325 -0.777778 7.9892 0.126382 1.21403 0.845598 0.469669 -0.25372
-1.991 -1.967 11.037 -0.109312 -0.217412 0 -0.2 7.99577 0.0152856 2.56471 -0.456314 0.833743 -0.310886
-0.7125 -3.14287 6.77037 0.40072 -0.274297 0 -1 8.04395 -0.786713 6.16886 -0.909629 0.176453 0.376085
-9.06 -0.9825 9.4 0.0107298 0.0649823 0 -0.866667 8.11519 0.0899438 2.23446 0.709073 0.625695 0.325148
-9.886 -2.553 5.83125 -0.130164 0.197071 0 -0.84122 8.13153 -0.205416 1.43316 0.231542 0.833637 -0.501436
-1.62925 -2.0845 9.506 -0.3736 -0.256063 -0.239979 -0.0888889 8.13159 0.693731 2.56471 -0.672234 0.587866 -0.450016
-1.463 -8.376 11.3333 0.176508 -0.295244 -0.105314 -1 8.133 0.32598 5.08008 -0.806276 -0.255371 0.533577
-7.35575 -6.70587 2.56169 -0.151647 0.337644 0 -0.485396 8.14771 -0.712272 0.979619 -0.706322 0.699094 -0.111252
-5.72906 -2.47112 12.6509 -0.209615 0.185396 0 -0.2 8.38313 -0.310485 2.31179 -0.0788777 0.986902 0.140719
-5.19125 -3.15313 1.31638 -0.263014 -0.217606 0 -0.777778 8.38445 -0.201481 0.41385 -0.612573 0.506803 0.606552
-3.58612 -11.5753 13.3752 0.592123 -0.112777 0 -0.0888889 8.41039 -0.179518 4.61792 0.367699 0.920854 0.129709
-9.14338 -2.21881 10.6134 0.047993 0.102815 0 -0.866667 8.45307 -0.594547 2.23446 0.525658 0.686227 0.502768
-1.33125 -10.4866 11.3071 0.442793 -0.195381 0 0.844444 8.49282 -0.463431 5.08008 -0.287108 0.373615 0.882032
-3.2065 -2.32675 4.27975 0.130018 -0.256694 0 -1 8.54265 0.539275 0.41385 -0.661631 0.374437 0.649648
-9.39925 -0.69575 8.29525 0.0114345 0.131089 0 -0.866667 8.56013 0.0238771 2.23446 0.516402 0.75225 -0.409204
-0.571625 -9.07475 11.6154 0.316279 -0.220379 -0.00596384 -0.972213 8.60276 -0.150563 5.08008 -0.446835 -0.276825 0.850709
-8.796 -7.136 2.874 -0.135071 0.249386 -0.000741121 -0.36136 8.68656 -0.830724 0.979619 -0.102779 0.977726 -0.182997
-9.66475 -6.88675 3.34425 -0.183105 0.206962 0 -0.415662 8.71244 -0.846726 0.979619 0.304819 0.803747 -0.510956
-2.78744 -5.99862 13.4154 0.311591 -0.23994 0 -0.2 8.72028 -0.106675 2.94949 -0.0566234 -0.97951 -0.193273
-10.4152 -2.56775 4.9595 -0.10965 0.122775 -0.00293626 -0.85504 8.74826 -0.197551 1.43316 0.427255 0.881527 0.200905
-1.7585 -6.495 11.9974 0.3505 -0.308168 0 -1 8.7948 0.0230992 2.94949 -0.875271 -0.44215 0.195971
-1.37625 -11.8694 12.1976 0.44997 -0.147463 0 0.172882 8.80094 -0.701319 4.61792 -0.0962332 0.842831 0.529505
-5.26237 -9.369 14.8328 0.507297 -0.0677681 0 0.78746 8.84086 -0.00494616 3.84807 0.932581 0.232313 -0.276268
-4.87 -7.05025 15.4299 0.42535 -0.148641 0 -0.0888889 8.85741 -0.21173 3.42958 0.602014 -0.722362 -0.340253
-3.731 -6.37675 15.2506 0.378683 -0.190704 0 -0.2 8.88471 -0.78274 3.42958 0.146035 -0.903592 -0.402736
-10.316 -5.06875 3.35775 -0.325391 0.178296 0 -0.809818 8.89149 -0.68097 0.979619 0.673115 -0.274309 -0.686783
-3.15875 -1.42963 12.8542 0.0612547 -0.205895 0.542764 0.4 8.89929 0.166984 2.56471 -0.499533 0.666475 -0.553423
-2.33325 -1.6125 12.1005 0.0651217 -0.191466 0.0357752 -0.134356 8.90489 -0.221343 2.56471 -0.27871 0.82363 -0.493918
-7.0405 -6.171 0.85725 -0.132005 0.236114 0.00973336 -0.850191 8.93932 -0.999867 0.979619 -0.60925 0.463412 0.643478
-0.620125 -2.47038 8.16737 0.103473 -0.266306 -0.60344 -0.38732 8.961 -0.131727 6.16886 -0.933496 0.310793 -0.178866
-10.148 -1.38462 7.12813 0.016896 0.187077 0 -0.866667 8.98202 -0.219836 1.43316 0.229914 0.611414 -0.757174
-4.69075 -2.53175 13.1115 -0.183255 0.206362 0 -0.2 9.00817 -0.383292 2.56471 -0.350228 0.931539 -0.0978508
-3.709 -1.9195 3.02475 -0.0954547 -0.239346 0 -1 9.05051 0.676436 0.41385 -0.766861 0.573532 0.288072
-7.47038 -4.79637 0.310625 -0.0074969 -0.189646 0.103803 -0.00718982 9.07951 -0.545855 0.917746 -0.358296 0.193719 0.913289
-10.0218 -4.13219 2.61144 0.0095534 0.0902589 0 -0.866667 9.13674 0.0786728 0.979619 0.962657 -0.158563 -0.21943
-4.07681 -11.5229 14.4209 0.577033 -0.0739421 0 -0.0320473 9.14092 -0.205529 4.29064 0.611204 0.778348 0.143542
-1.52013 -6.21325 13.1946 0.52676 -0.249299 0 -0.2 9.14135 -0.524356 2.94949 -0.53448 -0.837967 0.110193
-4.8805 -10.495 14.9487 0.529893 -0.0447081 0 0.933333 9.15393 0.0710405 3.84807 0.932964 0.341581 -0.11358
-7.487 -6.942 1.53 -0.053482 0.235106 0 -0.355556 9.21419 -0.882381 0.979619 -0.35587 0.914039 0.194652
-9.65375 -0.18225 9.868 -0.0384657 0.0243209 0 -0.866667 9.21608 0.035881 2.23446 0.944339 0.32223 0.066263
-0.945625 -1.96769 6.20687 0.41249 -0.236788 0 -1 9.25434 0.0726819 6.16886 -0.792355 0.33976 0.506693
-9.64669 -1.105 10.3852 -0.036121 0.0326678 0 -0.866667 9.26837 -0.146609 2.23446 0.861516 0.199114 0.467058
-4.00506 -2.0625 1.51047 -0.0901213 -0.209088 0.0411343 -0.905249 9.34381 -0.520918 0.41385 -0.716805 0.620311 0.318442
-9.42325 -2.72775 11.9522 -0.069941 0.100548 0 -0.779522 9.35361 -0.999869 2.31179 0.61736 0.784708 -0.0556738
-10.6788 -6.08825 3.1925 -0.175523 0.0912337 0 -0.808804 9.40537 -0.999887 0.979619 0.935904 0.144782 -0.321127
-1.8625 -1.868 5.281 0.414427 -0.231499 0 -1 9.43481 0.454107 6.16886 -0.642916 0.358324 0.676951
-5.04875 -7.88225 16.3645 0.37142 -0.0977994 0 -0.0888889 9.46133 -0.724377 3.84807 0.850945 -0.254382 -0.459545
-0.47025 -1.53 9.122 -0.106855 -0.205195 -0.47734 -0.0888889 9.47257 0.17356 2.56471 -0.559631 0.807507 -0.186402
-0.977813 -1.33644 11.9819 0.0576827 -0.148133 0 -0.155669 9.51794 -0.143982 2.56471 -0.0664935 0.980925 -0.18266
-8.49575 -2.5645 12.975 -0.0942213 0.159277 -0.18369 -0.368789 9.57793 -0.54535 2.31179 0.186533 0.919786 -0.345252
-11.3241 -2.33512 5.93962 -0.0451153 0.156189 0 -0.866667 9.59007 -0.709798 1.43316 0.252521 0.915196 -0.314085
-0.950875 -7.54581 12.4346 0.0322214 -0.248369 -0.245019 -1 9.60417 0.0521168 5.08008 -0.632297 -0.545991 0.549632
-1.66 -12.3445 13.6494 0.337317 -0.120305 0 -0.213366 9.61024 -0.547249 4.61792 0.0749592 0.965726 0.248506
-2.7135 -12.04 14.0715 0.477123 -0.0952255 0 -0.0888889 9.61962 0.363528 4.61792 0.366581 0.883477 0.291696
-4.77881 -2.13075 0.714437 -0.363993 -0.16047 0 -0.777778 9.64052 -0.109836 0.41385 -0.286221 0.75919 0.584558
-7.02675 -3.451 0.24375 -0.00575907 -0.184877 0 -0.777778 9.65383 -0.510175 0.917746 -0.433467 0.192387 0.880394
-10.0621 -2.179 2.79284 0.659237 0.0362091 0 -0.866667 9.65927 -0.0770625 1.21403 0.993385 0.114721 0.00508027
-0.426 -1.17206 10.6077 -0.082501 -0.172504 0 -0.0888889 9.80283 0.701762 2.56471 -0.363504 0.925447 -0.106831
-10.2933 -1.5525 3.79225 0.2774 0.0595869 0.732195 -0.866667 9.84273 0.441177 1.43316 0.67929 0.548711 0.487321
-6.1225 -2.22088 0.649594 -0.113871 -0.168173 0 -0.777778 9.86124 0.61095 0.41385 -0.336361 0.46711 0.817722
-0.359 -11.5591 12.3024 0.46941 -0.159925 0 0.0556884 9.86961 -0.631845 5.08008 -0.345776 0.698796 0.626197
-0.02625 -10.5835 11.7972 0.48142 -0.170195 0 0.844444 9.89018 -0.487368 5.08008 -0.321326 0.311059 0.894423
-10.1615 0.4705 8.58675 -0.04119 0.0576073 0 -0.866667 9.98356 -0.215396 2.23446 0.911713 0.337515 -0.234228
-10.237 -1.322 11.2058 -0.214441 -0.0138103 -0.238289 -0.866667 9.98644 -0.926325 2.23446 0.927756 0.180387 0.326696
-7.47087 -2.52638 13.4104 -0.0864843 0.150602 0 -0.2 10.0051 -0.109034 2.31179 0.181217 0.970668 -0.157999
-4.4885 -6.99975 16.5465 0.454337 -0.147156 0 0.0897651 10.0385 -0.999917 3.42958 0.437605 -0.720127 -0.538441
-5.90675 -2.65587 14.3011 -0.117535 0.156687 0 -0.2 10.0531 -0.7564 2.31179 0.000315313 0.991663 -0.12886
-2.31381 -1.10175 4.2515 0.100769 -0.213042 0 -1 10.0587 0.465965 0.41385 -0.672386 0.636115 0.37849
-10.5411 0.020375 7.60388 -0.0416343 0.142127 0 -0.866667 10.0749 0.287834 2.23446 0.449597 0.384052 -0.806453
-9.6935 -7.11513 1.80638 -0.246053 0.128683 -0.0592266 -0.306607 10.0815 -0.999868 0.979619 0.37578 0.909047 0.180065
-4.86794 -9.33075 16.6371 0.158079 -0.084234 0 0.933333 10.1302 -0.363641 3.84807 0.851016 0.0549026 -0.522261
-4.765 -2.518 14.248 -0.200502 -0.186056 0 -0.2 10.1472 -0.84256 2.31179 -0.364464 0.919285 -0.148599
-7.93925 -3.85125 0.11075 0.212988 -0.146267 0.0293317 0.688447 10.1533 -0.337917 0.917746 -0.00853468 0.131053 0.991339
-3.69738 -1.33834 13.9881 0.059151 -0.20668 0.407209 0.4 10.1579 -0.414425 2.56471 -0.730711 0.470451 -0.494709
-11.189 -0.84225 7.053 -0.0315099 0.184493 0 -0.866667 10.1582 0.617094 1.43316 0.0537119 0.434125 -0.89925
-0.595 -12.0105 13.363 0.571243 -0.153088 0 -0.777778 10.2111 -0.55804 4.61792 -0.371538 0.892576 0.255475
-1.91937 -6.21275 14.6142 0.51438 -0.215887 0.0700813 -0.50916 10.2158 -0.761247 2.94949 -0.314087 -0.892927 -0.322539
-9.96212 0.7785 9.82487 -0.0460157 -0.051952 0 -0.866667 10.226 -0.429738 2.23446 0.984476 0.0508648 -0.167988
-4.7185 -11.2759 15.6766 0.578807 -0.0493024 0 0.933333 10.2337 -0.73533 3.84807 0.793706 0.608294 -0.00312074
-1.63806 -0.748062 12.9071 0.207123 -0.151785 0 0.0257813 10.2764 0.00689755 2.56471 -0.00624998 0.683988 -0.729466
1.0125 -9.58212 11.8576 0.541577 -0.184563 0 0.844444 10.2837 -0.999884 5.08008 -0.547629 -0.0482876 0.835327
-11.926 -2.06175 4.8235 0.08382 0.122911 0 0.844444 10.3473 -0.421432 1.43316 0.214942 0.911725 0.350082
-0.030375 -1.28225 7.4885 0.122921 -0.189982 0.00467234 -0.980047 10.4511 0.180699 6.16886 -0.531229 0.845946 0.0465979
-2.83406 -7.02481 16.3614 0.508743 -0.186634 0.125341 -0.777778 10.4526 -0.497239 3.42958 -0.213924 -0.73017 -0.648913
-11.3206 -1.394 4.09538 0.428673 0.127188 0.301046 -0.866667 10.4641 0.406092 1.43316 0.0982185 0.706631 0.700733
-4.30062 -7.94225 17.1379 0.42654 -0.143268 0 1 10.539 -0.999876 3.84807 0.324397 -0.263037 -0.908613
-8.57725 -6.64775 0.646625 -0.127634 -0.161243 -0.299851 -0.308876 10.562 -0.999849 0.979619 -0.0512426 0.665153 0.744947
-9.93338 -3.12075 1.56225 0.172188 -0.0320819 -0.272166 -0.275322 10.5967 -0.198487 0.979619 0.938129 0.0129367 0.346044
-8.98287 -5.23313 0.23775 0.130226 -0.134056 0.930694 0.933333 10.6555 -0.704501 0.917746 0.158983 0.123591 0.979515
-9.76156 0.291438 11.3061 -0.0964303 -0.0749864 0 0.4 10.734 -0.15531 2.23446 0.936059 -0.348835 -0.0459032
-0.731875 -12.3286 14.3022 0.31214 -0.142624 0 -0.777778 10.7451 -0.760783 4.61792 -0.356289 0.916199 0.183404
-3.356 -0.991 0.877 -0.00981507 0.169863 0.581518 -1 10.7476 0.31769 0.41385 -0.552038 0.825476 0.117657
1.14525 -8.562 12.9073 0.701093 -0.199714 0.394016 -1 10.8117 -0.868068 5.08008 -0.669011 -0.647723 0.364526
-9.30481 -1.76231 13.5004 -0.51173 -0.114366 -0.615631 -0.777778 10.8326 -0.45824 2.31179 0.595097 0.508562 -0.622273
-0.04025 -0.651 6.15987 0.19916 -0.156675 0 -1 10.853 0.193422 6.16886 -0.333882 0.706318 0.62421
-10.269 -4.94088 1.079 -0.0595383 -0.0650175 0.202432 -0.319053 10.887 -0.592599 0.979619 0.843489 -0.184587 0.504435
-3.354 -12.5258 15.707 0.242015 -0.0923754 0 0.844444 10.9248 -0.99985 4.29064 0.334248 0.942454 0.00765007
-2.44412 -12.6461 15.2684 0.373663 -0.110818 0.245125 -0.124628 10.988 -0.577566 4.61792 0.108394 0.994106 0.00173444
0.656875 -0.954625 11.0969 0.257629 -0.13527 0 -0.0888889 11.0108 0.407777 2.56471 -0.172353 0.969797 0.17259
-7.87075 -2.471 -0.24225 -0.0111764 -0.133299 -7.6934e-05 0.477402 11.0355 0.0453187 0.917746 -0.0733341 0.381608 0.921411
0.863875 -10.9526 12.4683 0.536653 -0.167881 0 -0.405929 11.0645 -0.802259 5.08008 -0.584743 0.680737 0.441217
3 186 155 133
3 155 157 99
3 99 157 118
3 118 73 99
3 129 167 113
3 129 113 68
3 68 113 82
3 186 133 194
3 78 133 99
3 49 78 56
3 56 73 47
3 73 103 80
3 47 80 68
3 80 129 68
3 68 82 45
3 68 45 47
3 82 67 45
3 43 55 92
3 102 67 82
3 140 102 138
3 102 82 113
3 138 102 161
3 113 161 102
3 161 113 167
3 190 153 141
3 153 158 108
3 153 108 141
3 108 93 141
3 171 187 132
3 137 168 115
3 59 23 65
3 65 23 53
3 65 53 83
3 53 23 28
3 53 28 50
3 83 53 50
3 10 21 31
3 47 31 21
3 21 38 47
3 10 31 24
3 24 45 26
3 16 26 43
3 16 36 41
3 36 43 61
3 61 69 130
3 69 107 130
3 107 69 92
3 170 107 165
3 92 148 163
3 140 138 188
3 176 188 138
3 141 93 131
3 131 83 112
3 83 84 112
3 57 96 84
3 44 33 20
3 20 5 19
3 5 0 1
3 0 5 3
3 3 5 8
3 4 10 16
3 16 41 51
3 62 79 97
3 41 61 66
3 104 66 100
3 61 41 36
3 86 130 125
3 166 190 131
3 166 112 144
3 97 72 44
3 44 39 62
3 39 19 40
3 39 40 62
3 5 1 13
3 29 16 51
3 51 87 48
3 62 77 79
3 77 89 119
3 119 89 105
3 40 63 77
3 89 71 105
3 35 12 30
3 42 22 35
3 22 12 35
3 1 9 13
3 7 18 6
3 12 18 32
3 32 30 12
3 15 46 18
3 32 18 46
3 76 87 117
3 87 119 135
3 135 117 87
3 114 191 150
3 160 114 111
3 114 105 71
3 32 70 54
3 46 75 70
3 76 117 123
3 123 117 175
3 182 123 175
3 120 111 64
3 120 64 95
3 151 95 109
3 109 60 91
3 109 134 152
3 136 134 94
3 91 94 134
3 94 75 121
3 75 122 145
3 75 76 122
3 123 122 76
3 75 145 169
3 75 169 121
3 177 134 136
3 139 128 181
3 104 146 128
3 128 146 181
3 147 156 100
3 100 126 147
3 178 147 126
3 178 126 125
3 193 139 181
3 59 90 106
3 115 106 137
3 133 155 99
3 118 103 73
3 183 180 118
3 183 118 157
3 118 149 103
3 103 149 129
3 118 180 149
3 168 143 116
3 133 124 143
3 133 143 194
3 78 85 124
3 78 124 133
3 85 78 49
3 23 49 21
3 21 49 38
3 49 56 38
3 47 38 56
3 47 73 80
3 26 55 43
3 55 26 67
3 45 67 26
3 92 55 67
3 110 92 67
3 110 102 140
3 110 67 102
3 138 161 176
3 158 98 108
3 90 59 98
3 132 90 154
3 98 154 90
3 154 98 158
3 171 132 154
3 198 154 158
3 154 198 171
3 137 127 185
3 185 127 187
3 127 132 187
3 106 90 127
3 106 127 137
3 132 127 90
3 168 137 185
3 115 168 116
3 85 116 143
3 85 143 124
3 106 115 81
3 81 116 85
3 116 81 115
3 74 81 49
3 49 81 85
3 74 106 81
3 59 106 74
3 50 28 27
3 27 28 17
3 3 8 10
3 23 17 28
3 17 23 5
3 5 23 8
3 10 8 21
3 21 8 23
3 16 10 26
3 26 10 24
3 170 130 107
3 162 110 140
3 188 162 140
3 131 190 141
3 96 112 84
3 44 58 33
3 33 58 57
3 57 58 96
3 20 33 14
3 14 33 27
3 14 27 17
3 27 33 50
3 57 50 33
3 20 14 5
3 17 5 14
3 5 13 19
3 1 0 2
3 0 3 4
3 11 7 2
3 11 2 4
3 0 4 2
3 4 16 11
3 51 41 79
3 104 97 66
3 66 79 41
3 79 66 97
3 100 66 86
3 100 86 126
3 86 66 61
3 125 126 86
3 172 125 130
3 170 172 130
3 110 162 142
3 110 142 92
3 92 142 148
3 148 142 192
3 139 144 96
3 101 139 96
3 72 101 96
3 58 44 72
3 58 72 96
3 37 40 19
3 63 40 37
3 63 37 42
3 34 42 37
3 34 37 19
3 34 19 13
3 22 42 34
3 9 22 13
3 13 22 34
3 1 2 6
3 6 2 7
3 15 7 25
3 25 7 11
3 25 11 29
3 16 29 11
3 29 48 25
3 87 51 88
3 87 88 119
3 79 77 88
3 79 88 51
3 88 77 119
3 71 89 63
3 71 63 42
3 63 89 77
3 9 12 22
3 12 9 1
3 12 1 6
3 12 6 18
3 25 46 15
3 46 25 52
3 52 25 48
3 52 48 76
3 135 119 150
3 179 191 114
3 179 114 160
3 71 111 114
3 71 64 111
3 30 60 64
3 60 30 32
3 60 32 54
3 94 91 54
3 94 54 70
3 94 70 75
3 52 75 46
3 76 75 52
3 175 117 135
3 123 182 122
3 122 182 164
3 122 164 145
3 182 184 164
3 164 184 145
3 160 199 179
3 174 199 159
3 159 199 160
3 120 174 159
3 120 159 111
3 111 159 160
3 174 120 151
3 95 151 120
3 60 109 95
3 60 95 64
3 54 91 60
3 184 169 145
3 151 189 174
3 196 151 152
3 195 196 152
3 177 195 134
3 134 195 152
3 128 101 72
3 128 72 97
3 128 97 104
3 139 101 128
3 98 59 65
3 98 65 108
3 108 65 93
3 173 167 129
3 56 99 73
3 56 78 99
3 103 129 80
3 23 59 49
3 74 49 59
3 31 47 45
3 31 45 24
3 43 36 16
3 92 69 43
3 61 43 69
3 107 92 163
3 131 93 83
3 93 65 83
3 50 57 83
3 84 83 57
3 3 10 4
3 130 86 61
3 163 165 107
3 166 131 112
3 44 20 39
3 19 39 20
3 29 51 48
3 40 77 62
3 97 44 62
3 146 104 156
3 156 104 100
3 112 96 144
3 15 18 7
3 48 87 76
3 105 150 119
3 105 114 150
3 71 30 64
3 32 46 70
3 91 134 109
3 109 152 151
3 94 121 136
3 136 121 169
3 197 156 147
3 71 42 35
3 71 35 30
