ply
format ascii 1.0
comment Generated by PyMesh
element vertex 124
property float x
property float y
property float z
property float nx
property float ny
property float nz
element face 231
property list uchar int vertex_indices
end_header
-4.754 -10.953 13.301 0.543967 0.839005 -0.01308
-5.41463 -10.342 13.8094 0.814785 0.508942 -0.277674
-3.58612 -11.5753 13.3752 0.367699 0.920854 0.129709
-4.07681 -11.5229 14.4209 0.611204 0.778348 0.143542
-5.65947 -10.4865 12.0315 0.739189 0.670298 0.0655765
-4.3105 -11.2565 11.5763 0.336622 0.872277 0.354709
-6.0635 -9.55275 13.222 0.961183 0.228341 -0.154877
-4.8805 -10.495 14.9487 0.932964 0.341581 -0.11358
-5.26237 -9.369 14.8328 0.932581 0.232313 -0.276268
-2.7135 -12.04 14.0715 0.366581 0.883477 0.291696
-2.527 -11.704 12.3365 0.176489 0.927301 0.330096
-3.302 -11.1471 11.4605 -0.0613465 0.694598 0.716778
-4.7185 -11.2759 15.6766 0.793706 0.608294 -0.00312074
-5.6675 -9.7635 11.0267 0.829797 0.432144 0.353113
-3.354 -12.5258 15.707 0.334248 0.942454 0.00765007
-1.66 -12.3445 13.6494 0.0749592 0.965726 0.248506
-4.34269 -10.1756 10.3532 0.0574804 0.76062 0.646648
-5.70131 -7.94219 14.2342 0.924738 -0.100025 -0.367226
-6.14838 -8.3445 12.8004 0.998638 0.0306221 -0.0422442
-2.44412 -12.6461 15.2684 0.108394 0.994106 0.00173444
-1.37625 -11.8694 12.1976 -0.0962332 0.842831 0.529505
-4.66625 -11.0845 16.892 0.873862 0.373752 -0.310925
-5.77 -8.44 10.563 0.951713 0.306736 0.0124313
-4.86794 -9.33075 16.6371 0.851016 0.0549026 -0.522261
-3.116 -12.246 16.7978 0.255258 0.896528 -0.36205
-5.27969 -9.23044 9.6165 0.552825 0.793218 0.255323
-0.731875 -12.3286 14.3022 -0.356289 0.916199 0.183404
-0.595 -12.0105 13.363 -0.371538 0.892576 0.255475
-3.57711 -9.55381 9.77205 -0.197054 0.922204 0.33273
-1.33125 -10.4866 11.3071 -0.287108 0.373615 0.882032
-0.359 -11.5591 12.3024 -0.345776 0.698796 0.626197
-1.62603 -12.0646 16.4171 -0.241147 0.799142 -0.550654
-4.87 -7.05025 15.4299 0.602014 -0.722362 -0.340253
-1.08025 -12.5326 15.4539 -0.267539 0.945742 -0.184376
-3.862 -11.6217 17.6195 0.410813 0.59085 -0.694355
-1.88644 -9.22363 10.6494 -0.616614 0.425512 0.662365
-4.83238 -6.22475 14.045 0.337459 -0.863933 -0.373821
-6.10838 -7.2915 10.8197 0.978062 0.207388 -0.01962
-6.14825 -6.61194 11.79 0.929507 -0.355159 -0.0993885
-5.725 -6.1115 13.164 0.778413 -0.53643 -0.326062
-2.77375 -9.09387 9.28175 -0.625672 0.758327 0.182961
-6.14975 -8.38775 9.2365 0.864514 0.496605 -0.0774548
0.35525 -11.5347 13.7522 -0.562823 0.806709 0.18014
-2.77225 -11.4105 17.805 -0.18764 0.469214 -0.862919
-5.04875 -7.88225 16.3645 0.850945 -0.254382 -0.459545
0.243813 -11.8969 14.8194 -0.612517 0.78779 -0.0648907
-3.79075 -10.2222 18.0065 0.409482 -0.0532152 -0.910765
-3.82663 -9.5445 8.57913 -0.0289599 0.975135 0.219709
-5.05225 -9.12525 8.24525 0.439157 0.814084 0.380011
-6.27887 -7.16625 9.82987 0.968248 0.150609 -0.199533
-4.30062 -7.94225 17.1379 0.324397 -0.263037 -0.908613
-0.02625 -10.5835 11.7972 -0.321326 0.311059 0.894423
-3.23534 -8.48941 17.304 0.0843109 -0.374124 -0.923538
-4.4885 -6.99975 16.5465 0.437605 -0.720127 -0.538441
-6.109 -8.09013 8.2005 0.704026 0.548252 0.451407
0.863875 -10.9526 12.4683 -0.584743 0.680737 0.441217
-1.463 -8.376 11.3333 -0.806276 -0.255371 0.533577
-3.731 -6.37675 15.2506 0.146035 -0.903592 -0.402736
-0.571625 -9.07475 11.6154 -0.446835 -0.276825 0.850709
-5.308 -5.77575 12.31 0.323934 -0.933786 -0.152023
-1.71375 -7.84975 10.351 -0.959066 -0.0283712 0.281756
-0.125625 -11.4201 16.4508 -0.505807 0.513905 -0.692864
-2.13225 -8.094 9.39625 -0.947777 0.184363 0.260248
-3.04312 -9.22025 8.00725 -0.450346 0.747347 0.488529
-2.68175 -10.0616 18.0147 -0.147886 -0.169386 -0.974391
-6.60156 -7.33588 8.79594 0.994857 0.0992303 0.0203263
1.3825 -10.685 14.0083 -0.884948 0.461274 -0.0639818
-6.17556 -5.75075 9.81419 0.879245 -0.409227 -0.243849
-4.92338 -5.55363 11.0901 0.467586 -0.821285 -0.326885
-1.69675 -10.2355 17.6903 -0.451623 0.102526 -0.886298
-4.2395 -8.5735 7.08169 0.129076 0.635443 0.761282
1.146 -10.677 15.4235 -0.849498 0.391589 -0.353568
-2.162 -8.0945 7.9165 -0.909633 0.295624 0.291845
-2.83406 -7.02481 16.3614 -0.213924 -0.73017 -0.648913
-2.78744 -5.99862 13.4154 -0.0566234 -0.97951 -0.193273
1.0125 -9.58212 11.8576 -0.547629 -0.0482876 0.835327
-6.22325 -6.96025 7.58225 0.827747 0.0783912 0.555599
-1.70119 -8.70938 17.1994 -0.367204 -0.522871 -0.769264
-1.90625 -6.818 10.2917 -0.962724 -0.18519 0.197148
1.891 -9.97425 13.0087 -0.975146 0.0577273 0.213912
-0.950875 -7.54581 12.4346 -0.632297 -0.545991 0.549632
0.578125 -10.3691 16.4349 -0.656737 0.0802966 -0.749832
-2.18438 -7.15963 8.50113 -0.97819 -0.0684411 0.19611
-2.68963 -5.70463 12.3524 -0.260663 -0.948494 -0.180039
1.30375 -9.7405 15.091 -0.953067 -0.0709761 -0.294322
-1.91937 -6.21275 14.6142 -0.314087 -0.892927 -0.322539
-1.7585 -6.495 11.9974 -0.875271 -0.44215 0.195971
-3.67925 -5.23994 10.9784 -0.0577555 -0.859388 -0.508052
-6.2445 -5.67425 8.35825 0.940384 -0.316391 0.124801
-4.69228 -7.21006 6.58134 0.412367 0.69768 0.585829
-2.81013 -7.37475 7.02338 -0.632572 0.310152 0.709689
1.14525 -8.562 12.9073 -0.669011 -0.647723 0.364526
-1.52013 -6.21325 13.1946 -0.53448 -0.837967 0.110193
-5.271 -4.34734 9.45378 0.716884 -0.165769 -0.677199
1.367 -8.79813 14.2028 -0.938835 -0.300511 -0.168172
-2.011 -5.875 11.0615 -0.733903 -0.671001 -0.105567
-1.40675 -8.23525 16.089 -0.400395 -0.658658 -0.637066
-5.79563 -5.69025 7.32412 0.957859 0.0303151 0.285636
-2.309 -6.189 8.945 -0.990824 0.123307 -0.0553434
-0.464 -8.9755 16.604 -0.386586 -0.387961 -0.836683
-1.30838 -7.12044 15.2753 -0.452784 -0.683757 -0.572243
0.859375 -9.032 16.0446 -0.710914 -0.271388 -0.648807
-2.3525 -6.17938 7.56938 -0.928894 0.314033 0.196315
0.031 -7.35913 13.8882 -0.612271 -0.790601 0.00867966
-2.61469 -4.94441 9.86416 -0.775368 -0.219062 -0.592297
-2.88225 -6.48225 6.32975 -0.654714 0.679947 0.330186
0.717875 -8.19975 15.5052 -0.62321 -0.649262 -0.435968
-3.716 -6.85975 5.448 -0.263335 0.865654 0.425791
-5.61875 -4.25737 7.6965 0.978629 0.118664 -0.167943
-6.111 -5.624 6.089 0.902457 0.418943 -0.100291
-4.73887 -2.95038 10.0363 0.215907 0.495566 -0.841308
-5.07044 -6.35375 5.00331 0.358455 0.754102 0.55031
-3.67 -3.37725 10.0363 0.0528347 0.22804 -0.972217
-1.69987 -5.249 6.81862 -0.818807 0.560268 0.125122
-6.351 -2.99425 8.68025 0.659098 0.746601 -0.0904267
-5.82725 -2.50425 9.9965 0.185066 0.85031 -0.49267
-2.69287 -5.83144 5.22319 -0.654214 0.459018 0.601088
-4.09312 -6.05037 4.4095 -0.137521 0.544987 0.827089
-5.116 -5.535 4.308 0.188106 0.463336 0.865988
-6.624 -4.5115 5.5635 0.517749 0.639978 -0.567772
-3.648 -2.5685 10.791 0.0512143 0.888126 -0.456737
-6.187 -2.8705 7.317 0.76518 0.638045 -0.0860097
-2.55194 -2.87169 10.2829 -0.412992 0.578452 -0.703442
-1.03 -3.787 8.5425 -0.841293 0.29785 -0.451123
3 93 114 115
3 93 110 112
3 110 115 120
3 113 116 105
3 105 89 90
3 89 76 54
3 76 89 97
3 97 89 109
3 88 108 93
3 93 112 87
3 98 104 123
3 112 120 122
3 120 112 110
3 113 102 98
3 102 90 82
3 102 82 98
3 89 54 70
3 68 93 87
3 87 83 59
3 98 78 104
3 78 60 86
3 86 60 56
3 82 62 78
3 60 35 56
3 28 25 16
3 40 47 28
3 47 25 28
3 54 48 70
3 49 22 41
3 25 22 13
3 13 16 25
3 37 18 22
3 13 22 18
3 36 83 74
3 83 86 92
3 92 74 83
3 103 80 91
3 58 91 80
3 51 58 29
3 58 56 35
3 13 6 4
3 18 17 6
3 36 74 57
3 57 74 85
3 85 100 73
3 73 57 85
3 73 96 77
3 52 73 77
3 77 96 99
3 66 55 42
3 20 29 11
3 20 11 10
3 15 10 2
3 2 5 0
3 2 3 9
3 7 3 1
3 0 1 3
3 1 17 8
3 17 32 44
3 17 36 32
3 57 32 36
3 17 44 23
3 17 23 8
3 46 52 64
3 69 99 61
3 69 61 31
3 94 66 84
3 26 45 42
3 26 42 27
3 12 3 7
3 7 23 21
3 117 118 111
3 97 109 108
3 108 109 119
3 93 108 114
3 114 108 121
3 105 116 107
3 107 116 117
3 107 117 111
3 105 107 89
3 111 89 107
3 89 70 90
3 54 76 65
3 76 97 88
3 67 49 65
3 67 65 88
3 76 88 65
3 88 93 67
3 87 112 104
3 122 104 112
3 104 122 123
3 72 82 90
3 62 82 72
3 62 72 40
3 63 40 72
3 63 72 90
3 63 90 70
3 47 40 63
3 48 47 70
3 70 47 63
3 54 65 41
3 41 65 49
3 37 49 38
3 38 49 67
3 38 67 68
3 93 68 67
3 68 59 38
3 83 87 95
3 83 95 86
3 104 78 95
3 104 95 87
3 95 78 86
3 35 60 62
3 35 62 40
3 62 60 78
3 48 25 47
3 25 48 54
3 25 54 41
3 25 41 22
3 38 18 37
3 18 38 39
3 39 38 59
3 39 59 36
3 92 86 80
3 85 103 100
3 92 103 85
3 103 92 80
3 75 91 58
3 75 58 51
3 35 29 58
3 35 11 29
3 16 5 11
3 5 16 13
3 5 13 4
3 1 0 4
3 1 4 6
3 1 6 17
3 39 17 18
3 36 17 39
3 85 74 92
3 57 73 32
3 32 73 53
3 32 53 44
3 73 52 50
3 73 50 53
3 53 50 44
3 101 106 84
3 106 101 99
3 106 99 96
3 94 84 106
3 94 106 91
3 91 106 103
3 103 106 100
3 100 106 96
3 66 79 55
3 55 79 75
3 79 91 75
3 51 55 75
3 94 91 79
3 94 79 66
3 27 42 55
3 27 55 30
3 30 55 51
3 20 27 30
3 20 30 29
3 29 30 51
3 27 20 15
3 10 15 20
3 5 2 10
3 5 10 11
3 4 0 5
3 52 23 50
3 50 23 44
3 21 34 24
3 34 21 46
3 52 46 23
3 23 46 21
3 64 43 46
3 46 43 34
3 24 34 43
3 24 43 31
3 69 43 64
3 99 69 77
3 77 69 64
3 77 64 52
3 81 61 99
3 71 61 81
3 71 81 84
3 84 81 101
3 101 81 99
3 45 61 71
3 45 71 66
3 66 71 84
3 15 26 27
3 31 33 19
3 19 33 15
3 19 15 9
3 15 33 26
3 31 14 24
3 14 19 9
3 19 14 31
3 12 24 14
3 12 14 3
3 3 14 9
3 21 24 12
3 7 21 12
3 33 31 61
3 33 45 26
3 45 33 61
3 115 110 93
3 97 108 88
3 113 105 102
3 90 102 105
3 68 87 59
3 82 78 98
3 123 113 98
3 37 22 49
3 59 83 36
3 56 80 86
3 56 58 80
3 35 16 11
3 13 18 6
3 100 96 73
3 0 3 2
3 66 42 45
3 2 9 15
3 1 8 7
3 7 8 23
3 69 31 43
3 35 40 28
3 35 28 16
