ply
format ascii 1.0
comment Generated by PyMesh
element vertex 167
property float x
property float y
property float z
property float nx
property float ny
property float nz
element face 273
property list uchar int vertex_indices
end_header
-7.06962 -2.47638 14.4404 0.328211 0.848099 -0.415938
-7.47087 -2.52638 13.4104 0.181217 0.970668 -0.157999
-5.90675 -2.65587 14.3011 0.000315313 0.991663 -0.12886
-7.49125 -1.47625 15.2793 0.469884 0.554722 -0.686653
-5.15737 -2.20863 15.3814 -0.285748 0.688131 -0.666951
-8.49575 -2.5645 12.975 0.186533 0.919786 -0.345252
-4.765 -2.518 14.248 -0.364464 0.919285 -0.148599
-8.64675 -1.3 14.493 0.694924 0.166547 -0.69953
-6.8605 -0.341 15.9435 0.396037 -0.188333 -0.898713
-5.72906 -2.47112 12.6509 -0.0788777 0.986902 0.140719
-8.03256 0.0735625 15.0258 0.517041 -0.337749 -0.786508
-5.79569 -1.33506 16.1006 -0.124208 0.290816 -0.948682
-7.99203 -2.64528 11.2072 -0.0144315 0.992396 0.122235
-4.69075 -2.53175 13.1115 -0.350228 0.931539 -0.0978508
-9.30481 -1.76231 13.5004 0.595097 0.508562 -0.622273
-9.42325 -2.72775 11.9522 0.61736 0.784708 -0.0556738
-3.69738 -1.33834 13.9881 -0.730711 0.470451 -0.494709
-5.719 -0.127 16.1567 -0.158741 -0.406461 -0.899773
-6.381 0.66075 15.2494 -0.00666402 -0.786907 -0.617035
-8.909 0.4065 14.286 0.73117 -0.497013 -0.4673
-6.2165 -2.099 11.352 -0.0671779 0.99727 0.0306544
-4.75675 0.05125 15.3105 -0.547288 -0.301542 -0.780735
-9.43606 -0.117812 13.4581 0.804556 -0.193789 -0.561369
-10.1517 -1.443 12.8884 0.884903 0.208359 -0.416574
-8.04775 1.27894 13.8454 0.402317 -0.81053 -0.425655
-9.14338 -2.21881 10.6134 0.525658 0.686227 0.502768
-6.951 -2.5145 9.9525 0.21621 0.976343 0.00262576
-3.83075 -0.304 14.6757 -0.607594 -0.0369576 -0.793388
-3.15875 -1.42963 12.8542 -0.499533 0.666475 -0.553423
-3.47725 -2.18625 11.8475 -0.3464 0.841313 -0.414969
-8.08497 -1.88934 9.36447 0.524179 0.786561 0.326433
-5.345 0.7695 14.552 -0.203801 -0.759961 -0.617191
-10.237 -1.322 11.2058 0.927756 0.180387 0.326696
-7.6435 1.70875 13.037 0.439389 -0.897843 -0.0285534
-5.82725 -2.50425 9.9965 0.185066 0.85031 -0.49267
-8.84081 0.750188 12.7536 0.626112 -0.771068 -0.115926
-9.64669 -1.105 10.3852 0.861516 0.199114 0.467058
-4.18175 0.935375 14.1839 -0.205217 -0.606615 -0.768052
-10.1956 -0.223 12.1319 0.948219 -0.288896 -0.131983
-3.648 -2.5685 10.791 0.0512143 0.888126 -0.456737
-5.53575 1.5295 13.741 -0.121869 -0.773495 -0.621975
-2.90569 0.68025 13.7451 -0.312653 0.115108 -0.942867
-6.464 1.99188 13.131 0.114109 -0.94543 -0.305189
-2.33325 -1.6125 12.1005 -0.27871 0.82363 -0.493918
-9.06 -0.9825 9.4 0.709073 0.625695 0.325148
-6.351 -2.99425 8.68025 0.659098 0.746601 -0.0904267
-8.26437 -1.01525 8.31125 0.555904 0.831173 -0.0110874
-1.63806 -0.748062 12.9071 -0.00624998 0.683988 -0.729466
-4.73887 -2.95038 10.0363 0.215907 0.495566 -0.841308
-8.74413 1.04475 11.6525 0.462599 -0.739102 -0.489623
-1.991 -1.967 11.037 -0.456314 0.833743 -0.310886
-9.65375 -0.18225 9.868 0.944339 0.32223 0.066263
-9.76156 0.291438 11.3061 0.936059 -0.348835 -0.0459032
-3.67 -3.37725 10.0363 0.0528347 0.22804 -0.972217
-2.55194 -2.87169 10.2829 -0.412992 0.578452 -0.703442
-7.03288 1.72438 11.6827 0.166318 -0.974006 -0.15379
-7.16125 -2.234 7.76575 0.557123 0.812604 -0.171138
-4.70913 2.10713 12.9949 0.223145 -0.9024 -0.368619
-3.42144 2.20444 13.4284 0.306256 -0.504535 -0.80725
-9.39925 -0.69575 8.29525 0.516402 0.75225 -0.409204
-5.77275 1.7585 11.7533 0.118718 -0.992596 -0.0256668
-0.977813 -1.33644 11.9819 -0.0664935 0.980925 -0.18266
-5.271 -4.34734 9.45378 0.716884 -0.165769 -0.677199
-6.187 -2.8705 7.317 0.76518 0.638045 -0.0860097
-1.22113 0.0809375 13.5485 0.27894 0.353428 -0.892906
-9.96212 0.7785 9.82487 0.984476 0.0508648 -0.167988
-1.30175 1.72675 13.5933 0.251486 0.358882 -0.898865
-2.06519 2.4575 13.891 0.582739 0.418386 -0.696684
-5.61875 -4.25737 7.6965 0.978629 0.118664 -0.167943
-8.17025 -1.88312 7.04 0.329029 0.739171 -0.587679
-0.27 -0.883 13.3573 0.52276 0.654727 -0.545943
-10.1615 0.4705 8.58675 0.911713 0.337515 -0.234228
-1.62925 -2.0845 9.506 -0.672234 0.587866 -0.450016
-8.25669 2.225 10.649 0.102 -0.921986 -0.373547
-7.16862 2.01875 10.3194 -0.1478 -0.973047 -0.177015
-9.66938 1.7765 10.3371 0.732011 -0.557361 -0.391801
-0.426 -1.17206 10.6077 -0.363504 0.925447 -0.106831
-4.76137 2.07962 11.2802 0.554042 -0.813106 -0.178594
-6.4485 -3.06988 6.36562 0.581447 0.599726 -0.549771
-3.53912 2.96525 12.1566 0.718337 -0.495399 -0.488439
-2.61469 -4.94441 9.86416 -0.775368 -0.219062 -0.592297
-10.5411 0.020375 7.60388 0.449597 0.384052 -0.806453
-10.148 -1.38462 7.12813 0.229914 0.611414 -0.757174
-3.67925 -5.23994 10.9784 -0.0577555 -0.859388 -0.508052
-0.2655 1.9445 14.1663 0.782728 0.426397 -0.453346
-7.69875 -3.17213 5.98338 0.299425 0.616534 -0.728169
-0.118719 0.483594 14.4014 0.788998 0.16338 -0.592275
-8.982 -2.2765 6.4235 0.208589 0.693139 -0.689962
-2.55225 3.71012 13.1695 0.925513 0.107021 -0.36328
-2.66225 3.6205 14.2621 0.891561 0.452106 -0.0268244
-6.17556 -5.75075 9.81419 0.879245 -0.409227 -0.243849
0.721 -1.61625 13.153 0.550536 0.834086 0.034786
0.656875 -0.954625 11.0969 -0.172353 0.969797 0.17259
-10.2965 1.40625 7.82575 0.562055 -0.588037 -0.581642
-1.03 -3.787 8.5425 -0.841293 0.29785 -0.451123
-6.2445 -5.67425 8.35825 0.940384 -0.316391 0.124801
-5.79563 -5.69025 7.32412 0.957859 0.0303151 0.285636
-4.92338 -5.55363 11.0901 0.467586 -0.821285 -0.326885
-0.5245 2.303 15.0765 0.599448 0.783212 -0.165048
-5.243 2.07262 9.748 0.239633 -0.959016 -0.151212
-0.47025 -1.53 9.122 -0.559631 0.807507 -0.186402
-2.197 3.26238 15.6433 0.795622 0.605712 0.00992048
1.33506 -1.27988 11.9929 0.263704 0.797677 0.542376
-9.33762 2.37037 9.08325 0.361501 -0.930176 -0.0639541
-8.029 2.4285 9.085 -0.0963041 -0.992581 -0.0742225
-7.07212 2.2745 8.75 0.0164395 -0.918462 -0.395167
-0.620125 -2.47038 8.16737 -0.933496 0.310793 -0.178866
0.94725 -0.8885 9.82619 -0.162998 0.986589 -0.00857057
-11.189 -0.84225 7.053 0.0537119 0.434125 -0.89925
-6.111 -5.624 6.089 0.902457 0.418943 -0.100291
-4.11125 3.07125 10.2505 0.957848 -0.280915 0.0601128
-11.8252 -0.017625 7.72687 0.0271841 0.356959 -0.933724
-9.886 -2.553 5.83125 0.231542 0.833637 -0.501436
-8.9555 -3.102 5.67 0.401153 0.74822 -0.528435
-6.624 -4.5115 5.5635 0.517749 0.639978 -0.567772
-4.036 3.906 11.0367 0.922986 0.0195298 -0.384338
0.17625 0.576688 15.5509 0.950339 0.299197 0.0856599
0.461 -0.8215 15.4971 0.923269 0.377674 0.0702589
-2.309 -6.189 8.945 -0.990824 0.123307 -0.0553434
-3.25887 4.56738 12.2809 0.800686 0.402702 -0.443545
-2.011 -5.875 11.0615 -0.733903 -0.671001 -0.105567
-10.5476 1.928 6.92238 -0.197212 -0.846173 -0.495074
-6.27887 -7.16625 9.82987 0.968248 0.150609 -0.199533
-8.35437 -4.16412 4.94775 0.570471 0.599126 -0.561793
-0.72125 2.289 16.1483 0.68701 0.597577 0.413423
-2.68963 -5.70463 12.3524 -0.260663 -0.948494 -0.180039
-3.34713 4.98025 13.9406 0.690626 0.722087 -0.0403192
-1.90625 -6.818 10.2917 -0.962724 -0.18519 0.197148
1.41825 -2.4965 14.165 0.754722 0.655694 0.021473
-6.22325 -6.96025 7.58225 0.827747 0.0783912 0.555599
-5.308 -5.77575 12.31 0.323934 -0.933786 -0.152023
2.11538 -0.606875 10.9895 0.181246 0.959523 0.21556
-11.3241 -2.33512 5.93962 0.252521 0.915196 -0.314085
-5.0945 2.38025 8.52125 0.251057 -0.772446 -0.583351
-0.949313 -4.12856 7.11919 -0.913709 0.35722 0.193727
-8.7625 2.4195 8.222 0.280303 -0.957877 -0.062466
-11.772 1.0155 8.0525 -0.0128847 -0.133187 -0.991007
-7.5915 -4.8935 5.11925 0.355514 0.720587 -0.595285
-6.0835 2.4585 8.3595 0.00776644 -0.751767 -0.659383
-12.2112 -1.32056 6.83494 0.212442 0.686723 -0.695183
-6.60156 -7.33588 8.79594 0.994857 0.0992303 0.0203263
-2.635 4.1795 16.67 0.976227 0.215117 -0.0265578
-10.4152 -2.56775 4.9595 0.427255 0.881527 0.200905
-3.975 2.80675 8.89725 0.737058 -0.577521 -0.351019
-2.38525 3.11525 17.1514 0.907728 0.15737 0.388928
-4.20325 4.8255 11.4265 0.840367 0.417559 -0.345583
-6.14825 -6.61194 11.79 0.929507 -0.355159 -0.0993885
2.2445 -2.9305 13.324 0.529716 0.796814 0.29067
-0.030375 -1.28225 7.4885 -0.531229 0.845946 0.0465979
-2.18438 -7.15963 8.50113 -0.97819 -0.0684411 0.19611
1.37888 -0.50825 8.64587 0.0043209 0.99807 -0.0619493
-4.4855 4.7605 10.415 0.953016 0.288411 -0.0926233
1.0885 -1.792 15.59 0.785731 0.548415 0.286124
-7.8825 2.953 7.627 0.482397 -0.698784 -0.528199
-3.95775 5.3385 12.688 0.646367 0.75457 -0.113288
-8.85525 2.47675 6.7845 0.496342 -0.751685 -0.434297
-6.183 -5.011 4.536 0.30348 0.907268 0.291145
-4.69228 -7.21006 6.58134 0.412367 0.69768 0.585829
-1.7585 -6.495 11.9974 -0.875271 -0.44215 0.195971
-0.3905 1.08862 16.5249 0.735052 0.490011 0.468602
-0.7125 -3.14287 6.77037 -0.909629 0.176453 0.376085
3.03731 -1.60906 11.3639 0.822196 0.430406 0.372484
-6.10838 -7.2915 10.8197 0.978062 0.207388 -0.01962
-10.4847 2.58538 5.91437 -0.122722 -0.723589 -0.679234
-13.1676 -0.608 7.422 0.357549 0.532034 -0.767528
-2.3525 -6.17938 7.56938 -0.928894 0.314033 0.196315
-7.07575 3.65275 7.62 0.364177 -0.385337 -0.847874
3 108 139 111
3 82 81 59
3 82 59 69
3 69 59 46
3 123 113 85
3 113 112 87
3 85 87 69
3 87 82 69
3 69 46 56
3 69 56 85
3 46 30 56
3 34 26 12
3 44 30 46
3 36 44 51
3 44 46 59
3 51 44 71
3 59 71 44
3 71 59 81
3 155 135 93
3 155 153 135
3 104 135 105
3 153 105 135
3 105 153 166
3 155 93 121
3 68 114 78
3 85 78 114
3 114 137 85
3 68 78 63
3 63 56 45
3 62 45 34
3 62 48 53
3 48 34 39
3 39 20 13
3 20 9 13
3 9 20 12
3 6 9 2
3 12 5 1
3 36 51 52
3 65 52 51
3 104 105 74
3 105 166 138
3 129 157 96
3 96 157 109
3 95 68 62
3 62 53 83
3 118 80 94
3 53 39 54
3 72 54 50
3 39 53 48
3 29 13 28
3 21 4 11
3 1 0 2
3 8 3 10
3 8 10 18
3 7 14 22
3 10 24 42
3 35 49 55
3 55 49 73
3 55 73 74
3 74 99 55
3 55 99 77
3 138 133 99
3 77 99 110
3 110 151 115
3 119 79 115
3 154 119 145
3 79 58 57
3 79 57 77
3 58 67 41
3 41 67 66
3 79 88 58
3 58 88 67
3 88 89 67
3 66 67 98
3 98 67 101
3 88 126 89
3 89 126 101
3 165 149 118
3 97 62 83
3 83 125 130
3 118 127 80
3 72 100 106
3 106 100 148
3 100 107 150
3 61 76 50
3 50 43 61
3 47 61 43
3 47 43 28
3 47 41 64
3 41 16 27
3 41 27 37
3 57 37 40
3 57 40 42
3 77 57 60
3 42 60 57
3 42 40 18
3 31 18 40
3 60 42 55
3 66 86 64
3 64 86 70
3 70 86 117
3 92 107 76
3 131 92 102
3 91 102 61
3 61 70 91
3 70 117 91
3 147 102 91
3 147 91 128
3 92 131 107
3 142 112 113
3 82 132 139
3 82 139 108
3 142 132 112
3 112 132 82
3 71 81 93
3 111 93 81
3 136 93 111
3 139 164 111
3 85 137 123
3 85 113 87
3 45 26 34
3 26 45 30
3 56 30 45
3 12 26 30
3 25 12 30
3 25 44 36
3 25 30 44
3 51 71 65
3 65 71 93
3 65 93 75
3 75 93 103
3 104 103 135
3 135 103 93
3 96 109 68
3 157 156 109
3 68 109 114
3 114 109 156
3 62 68 45
3 45 68 63
3 6 13 9
3 7 3 14
3 14 3 5
3 3 1 5
3 1 3 0
3 32 25 36
3 38 52 35
3 52 38 32
3 52 32 36
3 49 35 52
3 52 65 75
3 52 75 49
3 75 103 73
3 73 103 104
3 75 73 49
3 74 73 104
3 129 96 95
3 90 122 140
3 90 140 95
3 129 95 140
3 95 62 90
3 83 53 80
3 72 94 54
3 54 80 53
3 80 54 94
3 50 54 29
3 50 29 43
3 29 54 39
3 28 43 29
3 16 28 13
3 6 16 13
3 21 16 4
3 4 16 6
3 4 6 2
3 11 4 3
3 4 0 3
3 2 0 4
3 21 17 18
3 8 17 11
3 21 11 17
3 31 21 18
3 8 11 3
3 8 18 17
3 10 3 7
3 24 10 19
3 24 19 35
3 35 19 22
3 22 19 10
3 22 10 7
3 23 38 22
3 23 22 14
3 22 38 35
3 32 38 15
3 25 32 15
3 38 23 15
3 25 15 12
3 12 15 5
3 5 15 14
3 23 14 15
3 33 24 35
3 42 24 33
3 42 33 55
3 55 33 35
3 79 77 115
3 115 77 110
3 145 119 115
3 151 145 115
3 101 67 89
3 144 101 141
3 162 122 146
3 146 122 90
3 146 90 97
3 62 97 90
3 97 130 146
3 125 83 120
3 125 120 158
3 80 127 120
3 80 120 83
3 120 127 158
3 106 160 134
3 106 134 94
3 106 94 72
3 150 148 100
3 76 107 100
3 21 31 37
3 21 37 27
3 21 27 16
3 58 41 37
3 37 57 58
3 64 70 47
3 47 70 61
3 128 91 117
3 86 116 117
3 81 108 111
3 108 81 82
3 112 82 87
3 163 155 121
3 78 85 56
3 78 56 63
3 34 48 62
3 12 20 34
3 39 34 20
3 9 12 1
3 96 68 95
3 13 29 39
3 1 2 9
3 105 138 99
3 74 105 99
3 99 143 110
3 143 99 133
3 88 119 126
3 119 88 79
3 119 154 126
3 97 83 130
3 149 127 118
3 100 72 76
3 76 72 50
3 16 41 28
3 47 28 41
3 31 40 37
3 42 18 10
3 60 55 77
3 66 64 41
3 84 98 116
3 84 116 86
3 84 86 66
3 84 66 98
3 98 101 124
3 98 124 116
3 159 116 124
3 92 76 61
3 102 92 61
3 131 102 161
3 128 117 152
