ply
format ascii 1.0
comment Generated by PyMesh
element vertex 195
property float x
property float y
property float z
property float nx
property float ny
property float nz
element face 334
property list uchar int vertex_indices
end_header
-3.84325 3.8935 8.8005 0.93407 0.220152 -0.281153
-3.975 2.80675 8.89725 0.737058 -0.577521 -0.351019
-4.487 4.90325 9.013 0.825406 0.350902 -0.442236
-5.118 3.48338 7.91625 0.3476 -0.00663432 -0.937619
-4.11125 3.07125 10.2505 0.957848 -0.280915 0.0601128
-4.4855 4.7605 10.415 0.953016 0.288411 -0.0926233
-5.429 4.95425 8.40075 0.475472 0.186093 -0.859823
-5.0945 2.38025 8.52125 0.251057 -0.772446 -0.583351
-5.243 2.07262 9.748 0.239633 -0.959016 -0.151212
-4.036 3.906 11.0367 0.922986 0.0195298 -0.384338
-4.7865 6.549 9.07625 0.87788 0.0796129 -0.472216
-4.20325 4.8255 11.4265 0.840367 0.417559 -0.345583
-6.316 4.25462 7.96925 0.432233 0.0561925 -0.900009
-6.0835 2.4585 8.3595 0.00776644 -0.751767 -0.659383
-4.76137 2.07962 11.2802 0.554042 -0.813106 -0.178594
-5.69325 5.91012 8.27106 0.664743 -0.134648 -0.734838
-4.76788 6.18337 10.7781 0.95694 0.275616 0.0911152
-7.07575 3.65275 7.62 0.364177 -0.385337 -0.847874
-5.27513 7.20762 8.28475 0.841788 -0.0813768 -0.533639
-7.07212 2.2745 8.75 0.0164395 -0.918462 -0.395167
-4.85875 7.80931 9.67869 0.929939 0.367517 -0.0120459
-3.25887 4.56738 12.2809 0.800686 0.402702 -0.443545
-4.608 6.026 11.9055 0.68848 0.718403 0.0994643
-3.95775 5.3385 12.688 0.646367 0.75457 -0.113288
-3.53912 2.96525 12.1566 0.718337 -0.495399 -0.488439
-5.77275 1.7585 11.7533 0.118718 -0.992596 -0.0256668
-7.23431 5.14437 6.95969 0.767064 -0.239082 -0.595359
-7.8825 2.953 7.627 0.482397 -0.698784 -0.528199
-6.276 6.75625 7.29 0.643872 -0.169955 -0.746019
-7.16862 2.01875 10.3194 -0.1478 -0.973047 -0.177015
-4.70913 2.10713 12.9949 0.223145 -0.9024 -0.368619
-5.77775 6.86275 11.781 0.440652 0.711641 0.547168
-5.20937 7.63662 11.2535 0.574562 0.510636 0.639632
-8.06475 3.8725 6.61625 0.721615 -0.50556 -0.472948
-8.029 2.4285 9.085 -0.0963041 -0.992581 -0.0742225
-5.84188 7.74475 7.4035 0.638548 0.0627964 -0.767016
-5.3165 8.4395 8.21025 0.854661 0.47559 -0.208251
-7.03288 1.72438 11.6827 0.166318 -0.974006 -0.15379
-5.1055 5.892 13.079 0.455329 0.8685 0.195915
-2.55225 3.71012 13.1695 0.925513 0.107021 -0.36328
-3.34713 4.98025 13.9406 0.690626 0.722087 -0.0403192
-6.00637 8.64087 10.2828 0.523481 0.755728 0.3935
-8.7625 2.4195 8.222 0.280303 -0.957877 -0.062466
-3.42144 2.20444 13.4284 0.306256 -0.504535 -0.80725
-6.839 7.65975 6.9485 0.198143 0.304855 -0.931559
-7.404 5.35675 5.69225 0.866794 -0.042413 -0.49686
-8.25669 2.225 10.649 0.102 -0.921986 -0.373547
-6.464 1.99188 13.131 0.114109 -0.94543 -0.305189
-8.85525 2.47675 6.7845 0.496342 -0.751685 -0.434297
-7.367 6.4385 6.487 0.623885 0.266605 -0.734635
-8.757 3.626 5.702 0.435516 -0.646049 -0.626855
-5.53575 1.5295 13.741 -0.121869 -0.773495 -0.621975
-5.98362 9.13437 7.87575 0.444164 0.707763 -0.549354
-6.9995 6.861 12.373 0.417845 0.848023 0.32598
-9.33762 2.37037 9.08325 0.361501 -0.930176 -0.0639541
-6.98825 7.71238 11.3588 0.284614 0.651543 0.703197
-8.35363 4.39925 5.14475 0.553966 -0.450632 -0.700037
-6.11206 6.23981 13.6939 0.492597 0.870215 0.00860477
-4.18175 0.935375 14.1839 -0.205217 -0.606615 -0.768052
-6.1695 9.04912 9.29037 0.568239 0.813934 0.120896
-2.66225 3.6205 14.2621 0.891561 0.452106 -0.0268244
-7.6435 1.70875 13.037 0.439389 -0.897843 -0.0285534
-8.154 5.62925 4.9585 0.487731 0.237295 -0.840124
-8.00813 7.16913 6.77863 0.0891756 0.582075 -0.80823
-8.1755 6.5375 5.8575 0.223966 0.704156 -0.673798
-8.01325 8.09675 7.26675 -0.110508 0.426356 -0.89778
-2.06519 2.4575 13.891 0.582739 0.418386 -0.696684
-8.74413 1.04475 11.6525 0.462599 -0.739102 -0.489623
-5.345 0.7695 14.552 -0.203801 -0.759961 -0.617191
-7.34856 8.94588 7.58531 0.00316209 0.609961 -0.792425
-9.66938 1.7765 10.3371 0.732011 -0.557361 -0.391801
-7.30084 9.63909 10.101 0.256348 0.82636 0.501413
-2.90569 0.68025 13.7451 -0.312653 0.115108 -0.942867
-4.19763 5.60075 15.3389 0.500062 0.824202 -0.265761
-3.2905 5.03075 15.7904 0.787444 0.554987 -0.26818
-10.2965 1.40625 7.82575 0.562055 -0.588037 -0.581642
-7.47188 7.151 13.6548 0.544142 0.812959 -0.207381
-8.84081 0.750188 12.7536 0.626112 -0.771068 -0.115926
-10.5476 1.928 6.92238 -0.197212 -0.846173 -0.495074
-8.04775 1.27894 13.8454 0.402317 -0.81053 -0.425655
-10.4847 2.58538 5.91437 -0.122722 -0.723589 -0.679234
-9.9465 4.2475 4.6095 0.189179 -0.524338 -0.83023
-10.4535 3.562 5.2365 -0.0918272 -0.622429 -0.77727
-9.3315 5.115 4.558 0.245796 0.272585 -0.930205
-3.83075 -0.304 14.6757 -0.607594 -0.0369576 -0.793388
-6.381 0.66075 15.2494 -0.00666402 -0.786907 -0.617035
-5.46769 6.15487 15.12 0.580072 0.666175 -0.46875
-4.75675 0.05125 15.3105 -0.547288 -0.301542 -0.780735
-8.48444 8.68206 11.2883 -0.0303837 0.788039 0.614875
-2.197 3.26238 15.6433 0.795622 0.605712 0.00992048
-8.68637 7.91437 12.41 0.187094 0.937683 0.292825
-1.30175 1.72675 13.5933 0.251486 0.358882 -0.898865
-7.73769 9.7905 8.77725 0.116574 0.961753 -0.247873
-9.16069 7.77887 7.31219 -0.293187 0.555426 -0.778167
-6.46075 7.34425 15.0022 0.612647 0.369034 -0.698912
-8.62575 9.22075 7.83475 -0.17969 0.663586 -0.726199
-9.76156 0.291438 11.3061 0.936059 -0.348835 -0.0459032
-9.96212 0.7785 9.82487 0.984476 0.0508648 -0.167988
-8.34 7.827 13.885 0.153029 0.790694 -0.592778
-10.6316 4.90987 4.26475 -0.153342 -0.327044 -0.932485
-10.1615 0.4705 8.58675 0.911713 0.337515 -0.234228
-8.74687 9.88813 9.95938 -0.229567 0.938821 0.256736
-9.43606 -0.117812 13.4581 0.804556 -0.193789 -0.561369
-10.0577 6.56725 6.45975 -0.210526 0.902033 -0.376849
-2.635 4.1795 16.67 0.976227 0.215117 -0.0265578
-8.03256 0.0735625 15.0258 0.517041 -0.337749 -0.786508
-3.367 6.027 16.8283 0.674356 0.599216 -0.431491
-10.5411 0.020375 7.60388 0.449597 0.384052 -0.806453
-8.909 0.4065 14.286 0.73117 -0.497013 -0.4673
-0.5245 2.303 15.0765 0.599448 0.783212 -0.165048
-11.5653 3.48875 5.81225 -0.579591 -0.556343 -0.595447
-11.772 1.0155 8.0525 -0.0128847 -0.133187 -0.991007
-1.22113 0.0809375 13.5485 0.27894 0.353428 -0.892906
-3.69738 -1.33834 13.9881 -0.730711 0.470451 -0.494709
-6.8605 -0.341 15.9435 0.396037 -0.188333 -0.898713
-5.17562 7.00044 15.9454 0.675958 0.215163 -0.70483
-10.645 5.9255 4.375 -0.0344231 0.632272 -0.773982
-11.8441 3.039 6.80875 -0.620274 -0.445901 -0.645316
-5.719 -0.127 16.1567 -0.158741 -0.406461 -0.899773
-0.2655 1.9445 14.1663 0.782728 0.426397 -0.453346
-10.1956 -0.223 12.1319 0.948219 -0.288896 -0.131983
-1.63806 -0.748062 12.9071 -0.00624998 0.683988 -0.729466
-9.56978 8.76334 10.6072 -0.435297 0.765146 0.474413
-9.65375 -0.18225 9.868 0.944339 0.32223 0.066263
-10.1516 7.43925 8.09725 -0.58113 0.598494 -0.551447
-2.41925 5.115 17.606 0.946864 0.319901 -0.0333402
-9.7625 8.8535 8.09175 -0.653999 0.514323 -0.554759
-9.191 9.576 8.86175 -0.48816 0.860309 -0.146865
-3.15875 -1.42963 12.8542 -0.499533 0.666475 -0.553423
-11.8252 -0.017625 7.72687 0.0271841 0.356959 -0.933724
-2.38525 3.11525 17.1514 0.907728 0.15737 0.388928
-6.77525 8.904 14.8905 0.496822 0.375713 -0.782309
-5.94338 8.841 15.6267 0.483475 0.522815 -0.70208
-0.72125 2.289 16.1483 0.68701 0.597577 0.413423
-5.79569 -1.33506 16.1006 -0.124208 0.290816 -0.948682
-11.603 4.374 4.8655 -0.684768 -0.45324 -0.570672
-8.97962 8.52525 14.8597 -0.344471 0.632082 -0.694127
-0.118719 0.483594 14.4014 0.788998 0.16338 -0.592275
-11.8689 4.45662 6.01137 -0.97975 -0.146072 -0.136939
-3.33737 6.21163 17.9622 0.871393 0.435716 0.225446
-10.4219 7.59394 11.6545 -0.475359 0.792366 0.382348
-9.64669 -1.105 10.3852 0.861516 0.199114 0.467058
-10.237 -1.322 11.2058 0.927756 0.180387 0.326696
-11.189 -0.84225 7.053 0.0537119 0.434125 -0.89925
-9.39925 -0.69575 8.29525 0.516402 0.75225 -0.409204
-10.6187 7.35112 12.9097 -0.341562 0.888869 -0.305364
-10.7517 6.57113 5.28162 -0.134944 0.945994 -0.294764
-12.7525 1.6205 7.86925 0.455324 -0.33272 -0.825819
-2.09125 1.976 17.3424 0.608348 0.545546 0.576448
-11.2725 6.02675 6.95225 -0.651179 0.756352 -0.0624358
-12.039 5.279 4.954 -0.827558 0.0859997 -0.554754
-5.15737 -2.20863 15.3814 -0.285748 0.688131 -0.666951
-10.1517 -1.443 12.8884 0.884903 0.208359 -0.416574
-0.27 -0.883 13.3573 0.52276 0.654727 -0.545943
-9.30481 -1.76231 13.5004 0.595097 0.508562 -0.622273
-10.148 -1.38462 7.12813 0.229914 0.611414 -0.757174
-8.64675 -1.3 14.493 0.694924 0.166547 -0.69953
-12.902 2.5225 6.736 0.196229 0.5215 -0.83038
-9.06 -0.9825 9.4 0.709073 0.625695 0.325148
-7.49125 -1.47625 15.2793 0.469884 0.554722 -0.686653
-4.27525 7.4175 17.1348 0.881196 0.288923 -0.374189
-0.977813 -1.33644 11.9819 -0.0664935 0.980925 -0.18266
-4.4895 8.2295 16.274 0.79566 0.0361973 -0.60466
-2.90875 4.09081 18.5298 0.93335 0.0431182 0.356369
-2.33325 -1.6125 12.1005 -0.27871 0.82363 -0.493918
-11.782 6.02275 5.83525 -0.750238 0.660008 -0.0391494
-4.765 -2.518 14.248 -0.364464 0.919285 -0.148599
-10.3313 8.12687 14.4859 -0.139308 0.912618 -0.384347
-10.6712 8.19556 9.98812 -0.582228 0.812063 0.0395587
-11.2399 6.44119 8.00706 -0.640372 0.571702 -0.512914
-7.95125 9.7215 14.9788 -0.0982968 0.625131 -0.774305
-3.47725 -2.18625 11.8475 -0.3464 0.841313 -0.414969
0.17625 0.576688 15.5509 0.950339 0.299197 0.0856599
-4.69075 -2.53175 13.1115 -0.350228 0.931539 -0.0978508
-3.36337 2.64575 18.0592 0.902201 0.0508714 0.428306
-13.1676 -0.608 7.422 0.357549 0.532034 -0.767528
-11.0813 7.83838 13.6729 -0.209665 0.873412 -0.439536
-12.2112 -1.32056 6.83494 0.212442 0.686723 -0.695183
-0.3905 1.08862 16.5249 0.735052 0.490011 0.468602
-11.552 7.828 9.1795 -0.544276 0.733891 -0.406408
-9.14338 -2.21881 10.6134 0.525658 0.686227 0.502768
-8.26437 -1.01525 8.31125 0.555904 0.831173 -0.0110874
-1.338 1.19181 17.6868 0.566838 0.78206 0.258992
-12.064 5.0585 7.27075 -0.952995 0.260046 -0.155489
-4.666 9.239 16.255 0.725725 0.545581 -0.419123
-9.92925 8.98263 15.8398 -0.614991 0.601834 -0.509492
-12.7896 3.62538 8.75081 -0.765524 0.594507 -0.246039
-8.76306 9.92069 15.5294 -0.338152 0.577076 -0.743395
-3.67794 5.24069 19.2511 0.805453 0.408726 0.429172
0.721 -1.61625 13.153 0.550536 0.834086 0.034786
-8.49575 -2.5645 12.975 0.186533 0.919786 -0.345252
-5.90675 -2.65587 14.3011 0.000315313 0.991663 -0.12886
-4.21081 6.394 19.4189 0.8054 0.327139 0.494278
-2.85106 1.43381 18.5451 0.570784 0.815801 0.0931418
-11.5858 6.328 11.7092 -0.79402 0.602138 0.0834353
3 143 177 129
3 167 145 176
3 140 145 90
3 155 107 144
3 80 110 82
3 110 138 135
3 110 117 138
3 138 183 165
3 149 165 183
3 124 179 168
3 168 126 124
3 168 127 126
3 127 168 122
3 122 168 140
3 122 88 71
3 131 94 98
3 76 98 94
3 170 136 187
3 141 158 123
3 158 181 144
3 123 158 100
3 144 100 158
3 100 144 107
3 48 42 75
3 48 27 42
3 34 42 19
3 27 19 42
3 19 27 17
3 48 75 78
3 48 80 50
3 50 80 82
3 50 56 33
3 56 83 62
3 116 83 99
3 83 81 99
3 81 82 99
3 99 82 110
3 83 116 103
3 146 103 116
3 103 64 83
3 146 165 103
3 95 65 93
3 95 69 65
3 92 52 69
3 92 127 101
3 92 71 59
3 52 92 59
3 41 59 71
3 88 90 55
3 57 53 76
3 76 94 57
3 94 132 162
3 115 162 160
3 115 160 106
3 106 160 139
3 141 123 96
3 97 96 123
3 34 19 29
3 19 17 13
3 13 17 3
3 17 12 3
3 26 17 33
3 45 49 26
3 49 28 26
3 64 49 45
3 28 49 44
3 49 64 63
3 44 49 63
3 65 44 63
3 35 28 44
3 18 15 28
3 18 35 36
3 36 20 18
3 10 18 20
3 20 36 41
3 59 41 36
3 16 32 31
3 16 31 22
3 31 32 55
3 31 55 53
3 38 23 22
3 74 40 73
3 40 57 73
3 73 57 86
3 73 86 106
3 73 106 74
3 139 192 188
3 171 173 128
3 87 151 134
3 114 159 105
3 114 105 85
3 156 154 102
3 105 79 47
3 77 67 37
3 37 67 46
3 37 46 29
3 29 8 37
3 37 8 14
3 13 7 8
3 7 13 3
3 14 8 4
3 4 5 9
3 21 24 9
3 11 5 16
3 2 6 10
3 10 6 15
3 2 3 6
3 10 15 18
3 11 22 23
3 23 21 11
3 24 43 30
3 24 30 14
3 43 66 72
3 72 66 91
3 24 39 43
3 43 39 66
3 39 60 66
3 91 66 109
3 109 66 89
3 39 40 60
3 60 40 89
3 89 40 74
3 104 89 74
3 125 104 74
3 125 163 104
3 104 163 130
3 89 130 148
3 121 161 164
3 121 164 128
3 121 72 112
3 72 113 84
3 72 84 58
3 30 58 51
3 30 51 47
3 14 30 25
3 47 25 30
3 47 51 85
3 68 85 51
3 25 47 37
3 91 137 112
3 112 137 153
3 148 182 178
3 161 153 189
3 117 147 157
3 117 186 183
3 157 186 117
3 145 140 194
3 167 98 145
3 145 98 90
3 136 98 167
3 185 136 167
3 136 185 187
3 155 177 143
3 100 107 75
3 129 75 107
3 75 117 78
3 147 117 111
3 75 111 117
3 111 75 129
3 147 111 129
3 177 175 129
3 138 117 183
3 103 165 149
3 103 149 169
3 169 124 103
3 103 124 93
3 179 124 169
3 98 76 90
3 132 94 131
3 180 158 141
3 123 100 97
3 97 100 75
3 97 75 70
3 70 75 54
3 34 54 42
3 42 54 75
3 17 27 33
3 48 33 27
3 50 33 48
3 93 64 103
3 63 64 93
3 63 93 65
3 55 32 41
3 41 71 55
3 88 55 71
3 53 55 90
3 76 53 90
3 86 57 94
3 115 86 94
3 115 94 162
3 106 86 115
3 156 159 154
3 154 159 190
3 142 180 141
3 120 96 77
3 96 120 142
3 96 142 141
3 67 77 96
3 96 97 70
3 96 70 67
3 70 54 46
3 46 54 34
3 70 46 67
3 29 46 34
3 3 12 6
3 6 12 15
3 15 12 26
3 15 26 28
3 26 12 17
3 57 22 31
3 53 57 31
3 22 57 38
3 128 164 171
3 113 128 173
3 166 113 173
3 87 113 151
3 151 113 166
3 151 166 191
3 134 151 159
3 87 118 85
3 114 118 134
3 87 134 118
3 68 87 85
3 114 134 159
3 114 85 118
3 105 159 156
3 79 105 108
3 79 108 77
3 77 108 102
3 102 108 105
3 102 105 156
3 152 120 102
3 152 102 154
3 102 120 77
3 61 79 77
3 47 79 61
3 47 61 37
3 37 61 77
3 24 14 9
3 9 14 4
3 11 21 9
3 5 11 9
3 16 5 2
3 16 2 10
3 89 66 60
3 130 89 104
3 174 148 130
3 174 130 163
3 87 68 58
3 87 58 84
3 87 84 113
3 43 72 58
3 58 30 43
3 193 148 174
3 182 148 193
3 112 153 121
3 121 153 161
3 107 143 129
3 143 107 155
3 110 80 117
3 117 80 78
3 90 88 140
3 140 88 122
3 136 170 98
3 98 170 131
3 80 48 78
3 81 83 56
3 82 81 50
3 56 50 81
3 165 146 116
3 99 135 150
3 116 99 150
3 165 116 150
3 165 150 138
3 99 110 135
3 135 138 150
3 95 93 126
3 126 93 124
3 126 127 95
3 122 101 127
3 127 92 95
3 95 92 69
3 71 92 101
3 101 122 71
3 184 162 132
3 45 56 62
3 62 64 45
3 33 45 26
3 33 56 45
3 62 83 64
3 65 69 44
3 28 35 18
3 59 36 52
3 36 35 52
3 52 35 44
3 52 44 69
3 32 16 20
3 41 32 20
3 57 40 38
3 38 40 23
3 19 13 8
3 29 19 8
3 1 7 3
3 0 1 3
3 0 3 2
3 0 2 5
3 4 0 5
3 4 1 0
3 8 1 4
3 1 8 7
3 10 20 16
3 11 16 22
3 39 21 40
3 21 39 24
3 21 23 40
3 125 106 139
3 139 163 125
3 106 125 74
3 139 188 163
3 113 72 128
3 121 128 72
3 68 51 58
3 47 85 105
3 25 37 14
3 91 112 72
3 119 109 172
3 119 172 137
3 119 137 91
3 119 91 109
3 109 89 133
3 109 133 172
3 178 172 133
3 89 148 133
3 148 178 133
