ply
format ascii 1.0
comment Generated by PyMesh
element vertex 200
property float x
property float y
property float z
property float charge
property float ddc
property float hbond
property float hphob
property float rho
property float si
property float theta
property float nx
property float ny
property float nz
element face 333
property list uchar int vertex_indices
end_header
-6.187 -2.8705 7.317 0.785327 0 0.122961 -0.866667 1e-08 0.873616 2.22045e-16 0.76518 0.638045 -0.0860097
-6.4485 -3.06988 6.36562 0.82373 0.253834 0.232478 -0.866667 1.00661 0.999867 1.61843 0.581447 0.599726 -0.549771
-7.16125 -2.234 7.76575 0.524633 0.216236 0.104137 -0.866667 1.24727 0.213785 3.37174 0.557123 0.812604 -0.171138
-6.351 -2.99425 8.68025 0.534287 0.18879 0 -0.533636 1.37864 -0.0896829 4.70964 0.659098 0.746601 -0.0904267
-5.61875 -4.25737 7.6965 1 0.396847 0.473898 -0.866667 1.54607 0.429686 2.22045e-16 0.978629 0.118664 -0.167943
-7.69875 -3.17213 5.98338 0.781853 0.277705 0.112886 -0.866667 2.31798 0.118032 2.09789 0.299425 0.616534 -0.728169
-8.17025 -1.88312 7.04 0.270622 0.206966 0.232979 -0.866667 2.53874 0.677647 2.91994 0.329029 0.739171 -0.587679
-6.624 -4.5115 5.5635 0.468287 0.123397 0 -0.866667 2.66566 0.1465 1.2288 0.517749 0.639978 -0.567772
-6.951 -2.5145 9.9525 0.198646 0.24262 0 -0.2 2.86484 -0.0955885 4.46795 0.21621 0.976343 0.00262576
-5.82725 -2.50425 9.9965 0.16658 -0.21165 0 -0.2 2.87762 0.279194 4.80546 0.185066 0.85031 -0.49267
-8.26437 -1.01525 8.31125 0.0134116 0.133001 0 -0.866667 2.97926 0.802344 3.46453 0.555904 0.831173 -0.0110874
-5.79563 -5.69025 7.32412 0.66977 0.316796 0.297821 -0.863844 3.03708 0.225146 0.270752 0.957859 0.0303151 0.285636
-8.08497 -1.88934 9.36447 0.207993 0.232998 0 -0.866667 3.12555 -0.139227 3.94765 0.524179 0.786561 0.326433
-6.2445 -5.67425 8.35825 0.839817 0.362671 0.48189 -0.866667 3.23042 -0.593974 6.21425 0.940384 -0.316391 0.124801
-5.271 -4.34734 9.45378 0.429117 0.319414 0 -0.2 3.27485 0.0790899 5.54993 0.716884 -0.165769 -0.677199
-8.9555 -3.102 5.67 -0.219211 0.115871 -0.300687 -0.821164 3.61511 -0.278896 2.27485 0.401153 0.74822 -0.528435
-8.982 -2.2765 6.4235 0.0985167 0.204174 0 -0.866667 3.63133 0.225585 2.62048 0.208589 0.693139 -0.689962
-6.111 -5.624 6.089 0.57352 0.124959 0.517632 -0.801127 3.71265 -0.586464 0.72784 0.902457 0.418943 -0.100291
-7.5915 -4.8935 5.11925 -0.00991547 0.133956 0.514298 -0.866667 3.79674 -0.813618 1.51646 0.355514 0.720587 -0.595285
-6.183 -5.011 4.536 0.226191 -0.221673 0.967173 -1 3.8903 0.0722563 1.11404 0.30348 0.907268 0.291145
-8.35437 -4.16412 4.94775 -0.453847 0.0783245 -0.475452 -0.816929 3.89481 -0.0223487 1.82521 0.570471 0.599126 -0.561793
-4.73887 -2.95038 10.0363 0.168411 -0.233539 0 -0.2 4.05456 0.440618 5.11084 0.215907 0.495566 -0.841308
-9.39925 -0.69575 8.29525 0.0114345 0.0569685 0 -0.866667 4.15836 0.0238771 3.34349 0.516402 0.75225 -0.409204
-9.06 -0.9825 9.4 0.0107298 0.161824 0 -0.866667 4.32814 0.0899438 3.67058 0.709073 0.625695 0.325148
-6.2165 -2.099 11.352 -0.0479317 0.222648 0 -0.2 4.34497 0.734313 4.71019 -0.0671779 0.99727 0.0306544
-6.22325 -6.96025 7.58225 0.517227 0.256878 0 -0.777778 4.40177 -0.999844 0.148809 0.827747 0.0783912 0.555599
-7.99203 -2.64528 11.2072 0.106454 0.212014 0 -0.2 4.50042 -0.397675 4.31532 -0.0144315 0.992396 0.122235
-7.58725 -5.17525 4.094 -0.0551233 0.210997 0.672859 -1 4.54392 0.185181 1.45705 -0.109349 0.717811 -0.687598
-10.148 -1.38462 7.12813 0.016896 0.150261 0 -0.866667 4.58025 -0.219836 2.96719 0.229914 0.611414 -0.757174
-6.17556 -5.75075 9.81419 0.51025 0.280248 0 -0.0888889 4.69 -0.485206 5.90784 0.879245 -0.409227 -0.243849
-9.886 -2.553 5.83125 -0.130164 0.133354 0 -0.84122 4.70746 -0.205416 2.57945 0.231542 0.833637 -0.501436
-9.14338 -2.21881 10.6134 0.047993 0.189119 0 -0.866667 4.79546 -0.594547 4.00136 0.525658 0.686227 0.502768
-6.60156 -7.33588 8.79594 0.630253 0.149911 0 -0.256651 4.98543 -0.999867 6.25452 0.994857 0.0992303 0.0203263
-8.94312 -4.58262 4.06213 -0.560117 0.151614 -0.0572364 -0.777778 5.03766 0.0691205 1.74977 0.560501 0.160938 -0.812366
-4.69228 -7.21006 6.58134 0.7131 -0.205614 0.096704 -0.777778 5.05671 -0.0381626 0.483711 0.412367 0.69768 0.585829
-5.116 -5.535 4.308 0.53344 -0.314192 0.132085 -1 5.10069 -0.573461 1.0386 0.188106 0.463336 0.865988
-3.648 -2.5685 10.791 0.102482 -0.16306 0 -0.2 5.19807 0.243116 5.08913 0.0512143 0.888126 -0.456737
-3.67 -3.37725 10.0363 0.238417 -0.267719 0 -0.2 5.20552 0.259178 5.27222 0.0528347 0.22804 -0.972217
-10.4152 -2.56775 4.9595 -0.10965 0.131551 -0.00293626 -0.85504 5.32419 -0.197551 2.49436 0.427255 0.881527 0.200905
-4.92338 -5.55363 11.0901 0.315841 0.308218 0 -0.2 5.33726 0.080399 5.66111 0.467586 -0.821285 -0.326885
-9.65375 -0.18225 9.868 -0.0384657 -0.110739 0 -0.866667 5.42903 0.035881 3.67029 0.944339 0.32223 0.066263
-9.5915 -3.258 3.9775 -0.310933 -0.0496784 -0.124325 -0.777778 5.42988 0.126382 1.96188 0.845598 0.469669 -0.25372
-9.64669 -1.105 10.3852 -0.036121 0.186184 0 -0.866667 5.48132 -0.146609 3.77644 0.861516 0.199114 0.467058
-10.1615 0.4705 8.58675 -0.04119 -0.0715634 0 -0.866667 5.58179 -0.215396 3.46035 0.911713 0.337515 -0.234228
-4.75725 -4.3725 3.745 0.240903 -0.362358 0 -1 5.64134 0.137715 1.13784 -0.31198 0.546455 0.77721
-3.67925 -5.23994 10.9784 0.37313 0.335596 0 -0.2 5.65285 -0.054301 2.13823 -0.0577555 -0.859388 -0.508052
-10.5411 0.020375 7.60388 -0.0416343 0.114328 0 -0.866667 5.67317 0.287834 3.19202 0.449597 0.384052 -0.806453
-6.109 -8.09013 8.2005 0.609747 0.147683 0.0100599 -0.777778 5.6948 -0.999782 0.153533 0.704026 0.548252 0.451407
-5.07044 -6.35375 5.00331 0.6309 -0.218362 0.265465 -0.957747 5.69561 -0.625621 0.903773 0.358455 0.754102 0.55031
-11.189 -0.84225 7.053 -0.0315099 0.163935 0 -0.866667 5.75647 0.617094 2.9901 0.0537119 0.434125 -0.89925
-5.72906 -2.47112 12.6509 -0.209615 0.180385 0 -0.2 5.78136 -0.310485 4.69987 -0.0788777 0.986902 0.140719
-7.01625 -5.99675 3.2625 0.0142378 0.284009 -0.13483 -0.961342 5.8448 -0.678956 1.41126 -0.752426 0.433991 -0.495487
-6.11369 -4.90406 2.41894 0.0869857 -0.273706 0 -1 6.01119 0.106526 1.41126 -0.720725 0.693096 -0.0131379
-6.27887 -7.16625 9.82987 0.573587 0.115315 0 -0.0888889 6.08175 -0.176118 6.25452 0.968248 0.150609 -0.199533
-9.42325 -2.72775 11.9522 -0.069941 0.0558232 0 -0.779522 6.11604 -0.999869 4.00136 0.61736 0.784708 -0.0556738
-7.96863 -6.67513 3.78638 -0.661683 0.191387 -0.306906 -0.777778 6.1218 -0.999901 1.41126 -0.299107 0.692448 -0.656544
-11.3241 -2.33512 5.93962 -0.0451153 0.0976626 0 -0.866667 6.166 -0.709798 2.49436 0.252521 0.915196 -0.314085
-4.98606 -4.13831 2.75444 0.0453553 -0.316139 0 -1 6.20724 -0.448578 1.13784 -0.707196 0.630495 0.319921
-6.14975 -8.38775 9.2365 0.642467 0.0568427 0 0.597371 6.21208 -0.682244 0.153533 0.864514 0.496605 -0.0774548
-4.09312 -6.05037 4.4095 0.490923 -0.297515 0 -1 6.25056 -0.999878 1.0386 -0.137521 0.544987 0.827089
-9.01975 -6.191 4.01325 -0.53754 0.159425 0 -0.777778 6.30185 -0.871548 1.74977 0.243692 0.223039 -0.943858
-10.237 -1.322 11.2058 -0.214441 0.142598 -0.238289 -0.866667 6.32883 -0.926325 3.77644 0.927756 0.180387 0.326696
-3.47725 -2.18625 11.8475 0.0116938 -0.200169 0 -0.2 6.3345 -0.07272 5.08913 -0.3464 0.841313 -0.414969
-8.49575 -2.5645 12.975 -0.0942213 0.0950559 -0.18369 -0.368789 6.34036 -0.54535 4.31532 0.186533 0.919786 -0.345252
-3.95025 -4.98125 4.1915 0.403797 -0.382188 0.703378 -1 6.39653 -0.439848 1.13784 -0.364018 0.223478 0.904184
-9.96212 0.7785 9.82487 -0.0460157 -0.115938 0 -0.866667 6.43898 -0.429738 3.67029 0.984476 0.0508648 -0.167988
-2.55194 -2.87169 10.2829 0.0562423 -0.250132 -0.338533 -0.154071 6.44364 -0.147396 5.08913 -0.412992 0.578452 -0.703442
-4.2395 -8.5735 7.08169 0.515497 -0.203187 0 -0.918367 6.578 -0.999835 0.483711 0.129076 0.635443 0.761282
-3.716 -6.85975 5.448 0.579937 -0.245295 0.268141 -1 6.59304 -0.999864 0.903773 -0.263335 0.865654 0.425791
-5.308 -5.77575 12.31 0.303794 0.278368 0 -0.2 6.6355 -0.624294 5.66111 0.323934 -0.933786 -0.152023
-10.316 -5.06875 3.35775 -0.325391 0.160513 0 -0.809818 6.65545 -0.68097 1.74977 0.673115 -0.274309 -0.686783
-12.2112 -1.32056 6.83494 -0.0297725 0.0979034 0 -0.464164 6.66516 -0.41028 2.9901 0.212442 0.686723 -0.695183
-4.69075 -2.53175 13.1115 -0.183255 0.185123 0 -0.2 6.71373 -0.383292 4.69987 -0.350228 0.931539 -0.0978508
-7.47087 -2.52638 13.4104 -0.0864843 0.101694 0 -0.2 6.76754 -0.109034 4.69987 0.181217 0.970668 -0.157999
-10.2965 1.40625 7.82575 -0.117352 -0.211971 0 -0.777778 6.79545 -0.0680291 3.46035 0.562055 -0.588037 -0.581642
-6.14825 -6.61194 11.79 0.412833 0.179525 0 -0.120257 6.8455 -0.444363 5.66111 0.929507 -0.355159 -0.0993885
-10.2933 -1.5525 3.79225 0.2774 -0.146802 0.732195 -0.866667 6.87598 0.441177 2.49436 0.67929 0.548711 0.487321
-7.35575 -6.70587 2.56169 -0.151647 0.22827 0 -0.485396 6.89801 -0.712272 1.41126 -0.706322 0.699094 -0.111252
-10.0218 -4.13219 2.61144 0.0095534 -0.136874 0 -0.866667 6.9007 0.0786728 1.96188 0.962657 -0.158563 -0.21943
-11.926 -2.06175 4.8235 0.08382 0.138269 0 0.844444 6.92326 -0.421432 2.49436 0.214942 0.911725 0.350082
-9.76156 0.291438 11.3061 -0.0964303 -0.169657 0 0.4 6.94697 -0.15531 3.67029 0.936059 -0.348835 -0.0459032
-11.8252 -0.017625 7.72687 -0.0253071 0.149666 0 -0.866667 6.96371 -0.496865 2.9901 0.0271841 0.356959 -0.933724
-2.81013 -7.37475 7.02338 0.598937 -0.304422 0.0306396 -1 6.99708 -0.310992 0.483711 -0.632572 0.310152 0.709689
-4.05363 -3.21913 3.93375 0.0999057 -0.433011 0 -1 7.00551 0.525863 1.13784 -0.710511 0.29783 0.637551
-2.88225 -6.48225 6.32975 0.59626 -0.30073 0.800479 -1 7.02374 0.105173 0.483711 -0.654714 0.679947 0.330186
-11.3206 -1.394 4.09538 0.428673 0.19063 0.301046 -0.866667 7.04004 0.406092 2.49436 0.0982185 0.706631 0.700733
-6.10838 -7.2915 10.8197 0.50502 0.106374 0 -0.0888889 7.09394 0.0510481 6.25452 0.978062 0.207388 -0.01962
-10.0621 -2.179 2.79284 0.659237 -0.114737 0 -0.866667 7.09994 -0.0770625 1.96188 0.993385 0.114721 0.00508027
-2.61469 -4.94441 9.86416 0.323553 -0.355415 0 -0.0888889 7.1027 0.0684234 2.13823 -0.775368 -0.219062 -0.592297
-5.05225 -9.12525 8.24525 0.259349 -0.119905 0.0785852 0.778944 7.17473 -0.999817 0.153533 0.439157 0.814084 0.380011
-6.46925 -5.10881 1.25181 -0.019668 -0.261586 0 -0.880138 7.24834 -0.259342 1.41126 -0.779521 0.411465 0.472275
-4.561 -3.0465 2.529 0.146464 -0.322645 0.0175719 -1 7.40037 0.268546 1.13784 -0.805122 0.509933 0.302898
-2.68963 -5.70463 12.3524 0.373157 0.275409 0 -0.2 7.40874 -0.389516 2.13823 -0.260663 -0.948494 -0.180039
-8.796 -7.136 2.874 -0.135071 0.131386 -0.000741121 -0.36136 7.43686 -0.830724 1.41126 -0.102779 0.977726 -0.182997
-2.011 -5.875 11.0615 0.37523 0.306852 -0.0252554 -0.253553 7.43982 -0.495688 2.13823 -0.733903 -0.671001 -0.105567
-5.90675 -2.65587 14.3011 -0.117535 0.11495 0 -0.2 7.45135 -0.7564 4.69987 0.000315313 0.991663 -0.12886
-9.66475 -6.88675 3.34425 -0.183105 0.0698042 0 -0.415662 7.46274 -0.846726 1.74977 0.304819 0.803747 -0.510956
-5.27969 -9.23044 9.6165 0.54384 0.0904333 0 1 7.48154 -0.152386 0.153533 0.552825 0.793218 0.255323
-5.76875 -4.03025 1.206 -0.335113 -0.267002 0.547276 -1 7.54539 -0.502144 1.13784 -0.659128 0.428587 0.617951
-5.77 -8.44 10.563 0.568423 0.083419 0 -0.0888889 7.59285 0.23855 0.153533 0.951713 0.306736 0.0124313
-9.30481 -1.76231 13.5004 -0.51173 -0.048537 -0.615631 -0.777778 7.595 -0.45824 4.31532 0.595097 0.508562 -0.622273
-9.66938 1.7765 10.3371 -0.0597057 -0.18332 0 0.4 7.59832 -0.672893 3.67029 0.732011 -0.557361 -0.391801
-3.15875 -1.42963 12.8542 0.0612547 -0.188079 0.542764 0.4 7.63348 0.166984 5.08913 -0.499533 0.666475 -0.553423
-2.33325 -1.6125 12.1005 0.0651217 -0.160473 0.0357752 -0.134356 7.63908 -0.221343 5.08913 -0.27871 0.82363 -0.493918
-5.725 -6.1115 13.164 0.28495 0.176009 0 -0.199861 7.64343 -0.999881 5.66111 0.778413 -0.53643 -0.326062
-4.765 -2.518 14.248 -0.200502 0.156799 0 -0.2 7.64746 -0.84256 4.69987 -0.364464 0.919285 -0.148599
-1.991 -1.967 11.037 -0.109312 -0.205752 0 -0.2 7.74816 0.0152856 5.08913 -0.456314 0.833743 -0.310886
-10.6788 -6.08825 3.1925 -0.175523 0.0798214 0 -0.808804 7.75013 -0.999887 1.74977 0.935904 0.144782 -0.321127
-10.1956 -0.223 12.1319 -0.318546 -0.144351 -0.563898 -0.758511 7.7666 -0.999829 3.77644 0.948219 -0.288896 -0.131983
-2.817 -4.43525 4.809 0.438413 -0.40362 0.745353 -1 7.79784 -0.632374 1.13784 -0.582432 0.0504241 0.811314
-10.1517 -1.443 12.8884 -0.57693 -0.0687241 -0.0908054 -0.810518 7.86466 -0.920442 4.00136 0.884903 0.208359 -0.416574
-10.5476 1.928 6.92238 -0.116807 -0.268238 0 -0.777778 7.86846 0.595931 3.46035 -0.197212 -0.846173 -0.495074
-7.06962 -2.47638 14.4404 -0.0257032 -0.0601308 0.0962312 -0.376944 7.87407 -0.731081 4.69987 0.328211 0.848099 -0.415938
-1.62925 -2.0845 9.506 -0.3736 -0.268723 -0.239979 -0.0888889 7.88398 0.693731 5.08913 -0.672234 0.587866 -0.450016
-2.69287 -5.83144 5.22319 0.455863 -0.327129 0.425143 -1 7.88479 -0.739062 1.0386 -0.654214 0.459018 0.601088
-5.19125 -3.15313 1.31638 -0.263014 -0.264715 0 -0.777778 7.96243 -0.201481 1.13784 -0.612573 0.506803 0.606552
-7.487 -6.942 1.53 -0.053482 -0.167479 0 -0.355556 7.96448 -0.882381 1.41126 -0.35587 0.914039 0.194652
-13.1676 -0.608 7.422 -0.051514 0.0773343 0 0.191585 7.99448 -0.999878 2.9901 0.357549 0.532034 -0.767528
-12.9301 -1.75412 5.27763 0.055192 0.0628944 0 0.844444 7.99767 -0.491279 2.49436 0.392603 0.909855 -0.134266
-11.772 1.0155 8.0525 -0.120183 0.181583 0 -0.777813 8.04824 -0.688054 2.9901 -0.0128847 -0.133187 -0.991007
-3.12075 -3.278 4.64725 0.334693 -0.440504 0 -1 8.18144 0.461773 1.13784 -0.612575 0.0962018 0.784536
-3.04312 -9.22025 8.00725 0.43946 -0.198044 0 0.844444 8.22308 -0.999875 0.483711 -0.450346 0.747347 0.488529
-10.2015 -0.57325 2.828 0.422387 -0.0830743 0.39001 -0.866667 8.25335 0.999895 2.49436 0.802382 0.564311 0.194259
-12.8094 -1.55587 3.96275 0.584057 0.13952 0 0.0253213 8.25638 -0.393132 2.49436 0.0341578 0.890859 0.452993
-8.74413 1.04475 11.6525 -0.0659547 -0.22088 0 0.4 8.25946 0.178468 3.67029 0.462599 -0.739102 -0.489623
-3.2065 -2.32675 4.27975 0.130018 -0.394489 0 -1 8.28367 0.539275 1.13784 -0.661631 0.374437 0.649648
-2.162 -8.0945 7.9165 0.50133 -0.264925 0 -0.0888889 8.31456 -0.999892 0.483711 -0.909633 0.295624 0.291845
-9.93338 -3.12075 1.56225 0.172188 -0.138242 -0.272166 -0.275322 8.36071 -0.198487 1.96188 0.938129 0.0129367 0.346044
-2.3525 -6.17938 7.56938 0.610377 -0.342622 0.281908 -0.506213 8.38864 0.253721 0.483711 -0.928894 0.314033 0.196315
-3.82663 -9.5445 8.57913 0.41984 -0.134449 0 0.913713 8.40984 -0.8139 0.153533 -0.0289599 0.975135 0.219709
-4.83238 -6.22475 14.045 0.203985 0.20252 0 -0.172968 8.48969 -0.343419 5.66111 0.337459 -0.863933 -0.373821
-3.69738 -1.33834 13.9881 0.059151 -0.198648 0.407209 0.4 8.49683 -0.414425 4.69987 -0.730711 0.470451 -0.494709
-2.78744 -5.99862 13.4154 0.311591 0.234082 0 -0.2 8.51597 -0.106675 2.13823 -0.0566234 -0.97951 -0.193273
-7.0405 -6.171 0.85725 -0.132005 -0.223845 0.00973336 -0.850191 8.5173 -0.999867 1.41126 -0.60925 0.463412 0.643478
-11.7758 -0.279312 3.14 0.854883 0.145269 0 -0.866667 8.57708 0.999845 2.49436 -0.00178891 0.88621 0.46328
-1.7585 -6.495 11.9974 0.3505 0.267539 0 -1 8.5905 0.0230992 2.13823 -0.875271 -0.44215 0.195971
-2.18438 -7.15963 8.50113 0.52569 -0.316006 0 -0.0888889 8.61621 -0.211752 0.483711 -0.97819 -0.0684411 0.19611
-3.709 -1.9195 3.02475 -0.0954547 -0.314595 0 -1 8.6285 0.676436 1.13784 -0.766861 0.573532 0.288072
-9.33762 2.37037 9.08325 0.0137652 -0.255566 -0.193176 -0.777778 8.64755 -0.78017 3.46035 0.361501 -0.930176 -0.0639541
-10.269 -4.94088 1.079 -0.0595383 -0.152378 0.202432 -0.319053 8.65098 -0.592599 1.96188 0.843489 -0.184587 0.504435
-7.47038 -4.79637 0.310625 -0.0074969 -0.228572 0.103803 -0.00718982 8.65749 -0.545855 1.41126 -0.358296 0.193719 0.913289
-1.90625 -6.818 10.2917 0.36039 -0.294393 -0.276012 -0.372184 8.66163 -0.273895 2.13823 -0.962724 -0.18519 0.197148
-10.0174 -1.68037 1.3035 0.77966 -0.0977654 -0.0571727 -0.218217 8.67117 -0.118848 1.96188 0.938772 0.263775 0.221652
-8.7625 2.4195 8.222 -0.157419 -0.280871 0 -0.777778 8.6761 0.0662672 3.46035 0.280303 -0.957877 -0.062466
-2.309 -6.189 8.945 0.43995 -0.333151 0 -0.0888889 8.67982 0.159897 2.13823 -0.990824 0.123307 -0.0553434
-8.84081 0.750188 12.7536 -0.0905627 -0.202589 0 0.4 8.72277 -0.0673089 3.67029 0.626112 -0.771068 -0.115926
-14.1081 -0.705312 6.13575 -0.0413883 0.0105285 0 0.844444 8.77837 -0.618693 2.9901 0.681977 0.608786 -0.405324
-1.69987 -5.249 6.81862 0.450617 -0.310095 0.09057 -0.79922 8.8008 -0.615685 0.483711 -0.818807 0.560268 0.125122
-9.6935 -7.11513 1.80638 -0.246053 -0.0841847 -0.0592266 -0.306607 8.83177 -0.999868 1.41126 0.37578 0.909047 0.180065
-5.15737 -2.20863 15.3814 -0.0770677 -0.127598 -0.423582 0.4 8.84011 -0.999859 4.69987 -0.285748 0.688131 -0.666951
-6.14838 -8.3445 12.8004 0.305386 0.0951067 0 -0.0888889 8.85116 -0.577007 5.66111 0.998638 0.0306221 -0.0422442
-12.7525 1.6205 7.86925 -0.21949 -0.140509 0 -0.789078 8.85146 -0.999865 2.9901 0.455324 -0.33272 -0.825819
-8.85525 2.47675 6.7845 -0.14394 -0.235068 0 -0.777778 8.87087 0.66176 3.46035 0.496342 -0.751685 -0.434297
-8.64675 -1.3 14.493 -0.307199 -0.0779397 -0.805512 -0.777778 8.87251 -0.640637 4.31532 0.694924 0.166547 -0.69953
-7.49125 -1.47625 15.2793 0.247017 -0.0531287 0.704737 -0.777778 8.91136 -0.569798 4.69987 0.469884 0.554722 -0.686653
-4.00506 -2.0625 1.51047 -0.0901213 -0.248213 0.0411343 -0.905249 8.92179 -0.520918 1.13784 -0.716805 0.620311 0.318442
-1.03 -3.787 8.5425 0.191599 -0.293735 -0.000550657 -0.0888889 8.93022 -0.66072 5.08913 -0.841293 0.29785 -0.451123
-1.52013 -6.21325 13.1946 0.52676 0.240018 0 -0.2 8.93705 -0.524356 2.13823 -0.53448 -0.837967 0.110193
-5.6675 -9.7635 11.0267 0.39355 0.0920095 0 0.661547 8.99897 -0.536952 0.153533 0.829797 0.432144 0.353113
-4.34269 -10.1756 10.3532 0.501757 0.143909 0 0.960233 9.00273 -0.382665 0.153533 0.0574804 0.76062 0.646648
-1.63806 -0.748062 12.9071 0.207123 -0.108032 0 0.0257813 9.01063 0.00689755 5.08913 -0.00624998 0.683988 -0.729466
-0.977813 -1.33644 11.9819 0.0576827 -0.118358 0 -0.155669 9.02742 -0.143982 5.08913 -0.0664935 0.980925 -0.18266
-1.81662 -4.56588 5.56887 0.41354 -0.355149 0.340609 -1 9.06086 -0.672701 1.13784 -0.783066 0.239221 0.574091
-10.4847 2.58538 5.91437 -0.144598 -0.229996 0 -0.777778 9.07353 0.999835 3.46035 -0.122722 -0.723589 -0.679234
-8.25669 2.225 10.649 -0.118063 -0.260015 0 0.4 9.11296 -0.654195 3.67029 0.102 -0.921986 -0.373547
-13.9104 0.437875 7.28562 -0.00133665 -0.0917872 -0.107561 -0.515387 9.14321 -0.886426 2.9901 0.703222 -0.0278299 -0.710425
-13.8581 -1.44 4.66538 0.100743 0.0560333 0 0.844444 9.15297 -0.668488 2.49436 0.426011 0.902856 -0.0580203
-4.77881 -2.13075 0.714437 -0.363993 -0.197904 0 -0.777778 9.2185 -0.109836 1.13784 -0.286221 0.75919 0.584558
-3.57711 -9.55381 9.77205 0.436577 -0.150928 0 0.913024 9.22152 0.132051 0.153533 -0.197054 0.922204 0.33273
-0.47025 -1.53 9.122 -0.106855 -0.207456 -0.47734 -0.0888889 9.22496 0.17356 5.08913 -0.559631 0.807507 -0.186402
-7.02675 -3.451 0.24375 -0.00575907 -0.239497 0 -0.777778 9.23181 -0.510175 1.13784 -0.433467 0.192387 0.880394
-9.43606 -0.117812 13.4581 -0.329975 -0.116892 -0.0503273 0.201144 9.24527 -0.30643 3.77644 0.804556 -0.193789 -0.561369
-11.8441 3.039 6.80875 -0.203605 0.21184 0 -0.777778 9.2643 -0.129084 3.46035 -0.620274 -0.445901 -0.645316
-8.57725 -6.64775 0.646625 -0.127634 -0.16257 -0.299851 -0.308876 9.39821 -0.999849 1.41126 -0.0512426 0.665153 0.744947
-6.1225 -2.22088 0.649594 -0.113871 -0.231335 0 -0.777778 9.43923 0.61095 1.13784 -0.336361 0.46711 0.817722
-10.691 -0.335375 1.73388 0.958493 -0.0759682 0 -0.866667 9.47535 0.189273 2.49436 0.448943 0.8829 0.137613
-2.77375 -9.09387 9.28175 0.433723 -0.192938 0 0.844444 9.53185 -0.218317 0.153533 -0.625672 0.758327 0.182961
-0.426 -1.17206 10.6077 -0.082501 -0.163367 0 -0.0888889 9.55522 0.701762 5.08913 -0.363504 0.925447 -0.106831
-10.5968 -5.89213 1.39713 -0.152711 -0.100633 0 -0.2 9.55804 -0.811398 1.96188 0.886917 0.280722 0.366841
-0.620125 -2.47038 8.16737 0.103473 -0.295619 -0.60344 -0.38732 9.60421 -0.131727 5.08913 -0.933496 0.310793 -0.178866
-1.71375 -7.84975 10.351 0.248422 -0.25655 -0.236758 -0.347251 9.71286 -0.791293 2.13823 -0.959066 -0.0283712 0.281756
-7.93925 -3.85125 0.11075 0.212988 -0.210875 0.0293317 0.688447 9.73129 -0.337917 1.41126 -0.00853468 0.131053 0.991339
-14.0004 -1.2465 3.14462 0.222393 0.109977 0.329181 -0.0603 9.73406 0.140179 2.49436 -0.201598 0.97649 -0.0763313
-3.83075 -0.304 14.6757 -0.026281 -0.18938 -0.0434052 0.446411 9.74601 -0.560929 4.69987 -0.607594 -0.0369576 -0.793388
-5.70131 -7.94219 14.2342 0.465197 0.0903073 0 -0.0888889 9.76412 -0.359134 5.66111 0.924738 -0.100025 -0.367226
-9.791 -1.14225 0.369 -0.197152 -0.107944 -0.0115317 0.933333 9.77304 -0.427001 1.96188 0.830387 0.309634 0.463232
-2.13225 -8.094 9.39625 0.419197 -0.260181 0 0.107925 9.79461 -0.0980801 2.13823 -0.947777 0.184363 0.260248
-2.31381 -1.10175 4.2515 0.100769 -0.293281 0 -1 9.79969 0.465965 1.13784 -0.672386 0.636115 0.37849
-8.029 2.4285 9.085 -0.602413 -0.311476 -0.00413286 -0.777778 9.80874 -0.728005 3.46035 -0.0963041 -0.992581 -0.0742225
-7.8825 2.953 7.627 -0.35799 -0.225748 -0.320025 -0.777778 9.86481 0.118567 3.46035 0.482397 -0.698784 -0.528199
-2.90569 0.68025 13.7451 0.049932 -0.160904 0 0.4 9.93768 0.0684272 5.08913 -0.312653 0.115108 -0.942867
-1.476 -3.1625 5.95813 0.62033 -0.366527 0.397828 -1 9.97469 0.0432137 1.13784 -0.693237 0.143144 0.706351
-0.950875 -7.54581 12.4346 0.0322214 0.228396 -0.245019 -1 9.98606 0.0521168 2.13823 -0.632297 -0.545991 0.549632
-1.91937 -6.21275 14.6142 0.51438 0.201973 0.0700813 -0.50916 10.0115 -0.761247 2.13823 -0.314087 -0.892927 -0.322539
-12.7356 -0.284438 2.06681 1 0.146206 0.367462 -0.866667 10.0169 0.557901 2.49436 -0.510527 0.858012 0.0563733
-1.8625 -1.868 5.281 0.414427 -0.347267 0 -1 10.0213 0.454107 1.13784 -0.642916 0.358324 0.676951
-9.34125 -2.11262 0.184 -0.431947 -0.128875 -0.332379 0.933333 10.0486 -0.137948 1.96188 0.722449 0.297005 0.624384
-9.09463 -4.06313 0.420875 0.0468347 -0.181248 0.286718 0.933333 10.062 -0.0197131 1.96188 0.454619 0.0457582 0.88951
-7.03288 1.72438 11.6827 -0.088661 -0.26703 0 -0.777778 10.101 0.110981 3.67029 0.166318 -0.974006 -0.15379
-4.87 -7.05025 15.4299 0.42535 0.148126 0 -0.0888889 10.1024 -0.21173 5.66111 0.602014 -0.722362 -0.340253
3 194 182 134
3 49 71 81
3 175 122 142
3 122 87 142
3 127 87 78
3 87 76 41
3 41 76 38
3 38 15 41
3 28 46 22
3 28 22 6
3 6 22 10
3 117 71 146
3 185 142 196
3 127 78 139
3 139 197 127
3 33 78 41
3 27 33 20
3 20 15 5
3 15 30 16
3 5 16 6
3 16 28 6
3 6 10 2
3 6 2 5
3 10 12 2
3 9 8 26
3 23 12 10
3 42 23 40
3 23 10 22
3 40 23 43
3 22 43 23
3 43 22 46
3 152 143 74
3 152 189 143
3 152 74 111
3 167 174 115
3 167 115 155
3 115 91 155
3 116 148 93
3 52 19 57
3 57 19 44
3 57 44 83
3 44 19 35
3 44 35 64
3 83 44 64
3 4 7 1
3 5 1 7
3 7 18 5
3 4 1 0
3 0 2 3
3 14 3 9
3 14 21 37
3 21 9 36
3 36 24 72
3 24 50 72
3 50 24 26
3 105 50 95
3 26 63 73
3 42 40 80
3 65 80 40
3 155 91 137
3 137 83 125
3 83 120 125
3 109 191 120
3 147 114 84
3 84 34 82
3 34 25 47
3 25 34 11
3 11 34 17
3 13 4 14
3 14 37 45
3 144 88 156
3 37 36 66
3 113 66 106
3 36 37 21
3 62 72 102
3 73 112 95
3 153 100 171
3 145 124 198
3 198 124 164
3 187 125 195
3 147 128 144
3 128 82 136
3 128 136 144
3 34 47 67
3 39 14 45
3 45 92 69
3 144 141 88
3 141 180 135
3 136 186 141
3 168 97 159
3 176 129 168
3 129 97 168
3 47 89 67
3 53 99 58
3 97 99 158
3 158 159 97
3 86 150 99
3 158 99 150
3 130 92 132
3 92 135 157
3 157 132 92
3 184 130 199
3 113 169 179
3 161 177 106
3 106 103 161
3 160 161 103
3 160 103 102
3 190 131 183
3 52 90 77
3 93 77 116
3 123 134 182
3 123 182 166
3 123 166 118
3 146 118 166
3 85 123 79
3 79 123 118
3 123 85 134
3 71 118 146
3 117 165 81
3 146 165 117
3 165 151 81
3 78 87 41
3 38 30 15
3 28 56 71
3 28 71 49
3 85 79 38
3 85 38 76
3 38 56 30
3 30 56 28
3 38 79 56
3 71 56 118
3 118 56 79
3 43 46 74
3 81 74 46
3 74 172 111
3 151 172 119
3 74 119 172
3 119 74 81
3 151 119 81
3 71 117 81
3 127 196 142
3 87 127 142
3 148 178 107
3 148 107 96
3 78 70 107
3 78 107 139
3 139 107 178
3 33 60 70
3 33 70 78
3 60 33 27
3 19 27 7
3 7 27 18
3 27 20 18
3 5 18 20
3 5 15 16
3 3 8 9
3 8 3 12
3 2 12 3
3 26 8 12
3 31 26 12
3 31 23 42
3 31 12 23
3 40 43 65
3 65 43 74
3 65 74 101
3 101 74 138
3 188 138 143
3 143 138 74
3 174 98 115
3 90 52 98
3 140 90 170
3 98 170 90
3 170 98 174
3 181 140 170
3 116 133 173
3 77 90 133
3 77 133 116
3 140 133 90
3 148 116 173
3 93 148 96
3 60 96 107
3 60 107 70
3 77 93 55
3 55 96 60
3 96 55 93
3 51 55 27
3 27 55 60
3 51 77 55
3 52 77 51
3 64 35 59
3 59 35 48
3 11 17 4
3 19 48 35
3 48 19 34
3 34 19 17
3 4 17 7
3 7 17 19
3 14 4 3
3 3 4 0
3 105 72 50
3 153 154 100
3 100 154 63
3 154 73 63
3 73 154 112
3 61 31 42
3 108 80 145
3 80 108 61
3 80 61 42
3 124 145 80
3 80 65 101
3 80 101 124
3 101 138 164
3 164 138 188
3 101 164 124
3 191 125 120
3 147 162 114
3 114 162 109
3 109 162 191
3 84 114 68
3 68 114 59
3 68 59 48
3 59 114 64
3 109 64 114
3 84 68 34
3 48 34 68
3 34 67 82
3 47 25 32
3 25 11 13
3 29 53 32
3 29 32 13
3 25 13 32
3 13 14 29
3 45 37 88
3 113 156 66
3 66 88 37
3 88 66 156
3 106 66 62
3 106 62 103
3 62 66 36
3 102 103 62
3 131 102 72
3 105 131 72
3 149 131 105
3 149 105 95
3 149 112 154
3 95 112 149
3 110 108 171
3 110 171 100
3 171 108 145
3 61 108 54
3 31 61 54
3 108 110 54
3 31 54 26
3 26 54 63
3 63 54 100
3 110 100 54
3 126 136 82
3 186 136 126
3 186 126 176
3 121 176 126
3 121 126 82
3 121 82 67
3 129 176 121
3 89 129 67
3 67 129 121
3 47 32 58
3 58 32 53
3 86 53 75
3 75 53 29
3 75 29 39
3 14 39 29
3 39 69 75
3 92 45 94
3 92 94 135
3 88 141 94
3 88 94 45
3 94 141 135
3 186 180 141
3 89 97 129
3 97 89 47
3 97 47 58
3 97 58 99
3 75 150 86
3 150 75 104
3 104 75 69
3 104 69 130
3 157 135 192
3 104 184 150
3 130 184 104
3 193 132 157
3 179 156 113
3 98 52 57
3 98 57 115
3 115 57 91
3 87 122 76
3 134 76 122
3 122 175 134
3 134 85 76
3 46 49 81
3 49 46 28
3 172 163 111
3 20 41 15
3 20 33 41
3 30 28 16
3 163 152 111
3 19 52 27
3 51 27 52
3 1 5 2
3 1 2 0
3 9 21 14
3 26 24 9
3 36 9 24
3 50 26 73
3 137 91 83
3 91 57 83
3 64 109 83
3 120 83 109
3 11 4 13
3 72 62 36
3 73 95 50
3 187 137 125
3 147 84 128
3 82 128 84
3 39 45 69
3 136 141 144
3 156 147 144
3 169 113 177
3 177 113 106
3 131 190 102
3 160 102 190
3 125 191 195
3 86 99 53
3 69 92 130
