ply
format ascii 1.0
comment Generated by PyMesh
element vertex 200
property float x
property float y
property float z
property float charge
property float ddc
property float hbond
property float hphob
property float rho
property float si
property float theta
property float nx
property float ny
property float nz
element face 347
property list uchar int vertex_indices
end_header
-5.308 -5.77575 12.31 0.303794 0 0 -0.2 1e-08 -0.624294 2.22045e-16 0.323934 -0.933786 -0.152023
-5.725 -6.1115 13.164 0.28495 -0.219873 0 -0.199861 1.00794 -0.999881 2.81035 0.778413 -0.53643 -0.326062
-6.14825 -6.61194 11.79 0.412833 -0.387435 0 -0.120257 1.29446 -0.444363 4.19028 0.929507 -0.355159 -0.0993885
-4.92338 -5.55363 11.0901 0.315841 -0.158859 0 -0.2 1.29824 0.080399 5.64426 0.467586 -0.821285 -0.326885
-4.83238 -6.22475 14.045 0.203985 -0.186416 0 -0.172968 1.8542 -0.343419 2.18536 0.337459 -0.863933 -0.373821
-3.67925 -5.23994 10.9784 0.37313 -0.3409 0 -0.2 2.17096 -0.054301 2.22045e-16 -0.0577555 -0.859388 -0.508052
-6.10838 -7.2915 10.8197 0.50502 -0.447572 0 -0.0888889 2.47974 0.0510481 4.20473 0.978062 0.207388 -0.01962
-2.68963 -5.70463 12.3524 0.373157 -0.35844 0 -0.2 2.61968 -0.389516 0.867918 -0.260663 -0.948494 -0.180039
-6.17556 -5.75075 9.81419 0.51025 -0.146893 0 -0.0888889 3.09678 -0.485206 5.06585 0.879245 -0.409227 -0.243849
-5.70131 -7.94219 14.2342 0.465197 -0.230412 0 -0.0888889 3.12862 -0.359134 2.79198 0.924738 -0.100025 -0.367226
-6.14838 -8.3445 12.8004 0.305386 -0.313922 0 -0.0888889 3.30012 -0.577007 3.35021 0.998638 0.0306221 -0.0422442
-6.27887 -7.16625 9.82987 0.573587 -0.307839 0 -0.0888889 3.33565 -0.176118 4.56293 0.968248 0.150609 -0.199533
-5.271 -4.34734 9.45378 0.429117 0.206784 0 -0.2 3.36065 0.0790899 5.53748 0.716884 -0.165769 -0.677199
-4.87 -7.05025 15.4299 0.42535 -0.0151882 0 -0.0888889 3.4669 -0.21173 2.32499 0.602014 -0.722362 -0.340253
-3.731 -6.37675 15.2506 0.378683 -0.158798 0 -0.2 3.4942 -0.78274 1.93361 0.146035 -0.903592 -0.402736
-5.77 -8.44 10.563 0.568423 -0.344103 0 -0.0888889 3.70426 0.23855 4.1106 0.951713 0.306736 0.0124313
-2.78744 -5.99862 13.4154 0.311591 -0.273297 0 -0.2 3.72691 -0.106675 1.30953 -0.0566234 -0.97951 -0.193273
-2.61469 -4.94441 9.86416 0.323553 -0.40782 0 -0.0888889 3.74009 0.0684234 0.13197 -0.775368 -0.219062 -0.592297
-1.7585 -6.495 11.9974 0.3505 -0.44458 0 -1 3.89157 0.0230992 0.831095 -0.875271 -0.44215 0.195971
-2.011 -5.875 11.0615 0.37523 -0.393205 -0.0252554 -0.253553 3.95793 -0.495688 0.513549 -0.733903 -0.671001 -0.105567
-1.52013 -6.21325 13.1946 0.52676 -0.319608 0 -0.2 4.14799 -0.524356 1.12698 -0.53448 -0.837967 0.110193
-3.67 -3.37725 10.0363 0.238417 0.349174 0 -0.2 4.25837 0.259178 5.99799 0.0528347 0.22804 -0.972217
-6.60156 -7.33588 8.79594 0.630253 -0.231734 0 -0.256651 4.43196 -0.999867 4.66697 0.994857 0.0992303 0.0203263
-6.2445 -5.67425 8.35825 0.839817 -0.161393 0.48189 -0.866667 4.55636 -0.593974 5.08374 0.940384 -0.316391 0.124801
-6.0635 -9.55275 13.222 0.51936 -0.252846 0 -0.0888889 4.58263 -0.999827 3.24218 0.961183 0.228341 -0.154877
-4.4885 -6.99975 16.5465 0.454337 -0.0683669 0 0.0897651 4.64795 -0.999917 2.27297 0.437605 -0.720127 -0.538441
-6.14975 -8.38775 9.2365 0.642467 -0.302308 0 0.597371 4.69977 -0.682244 4.42448 0.864514 0.496605 -0.0774548
-5.04875 -7.88225 16.3645 0.37142 -0.114243 0 -0.0888889 4.73088 -0.724377 2.38223 0.850945 -0.254382 -0.459545
-5.26237 -9.369 14.8328 0.507297 -0.22424 0 0.78746 4.73697 -0.00494616 2.82591 0.932581 0.232313 -0.276268
-4.73887 -2.95038 10.0363 0.168411 0.376385 0 -0.2 4.96501 0.440618 5.78703 0.215907 0.495566 -0.841308
-5.27969 -9.23044 9.6165 0.54384 -0.366117 0 1 5.03131 -0.152386 4.19286 0.552825 0.793218 0.255323
-2.83406 -7.02481 16.3614 0.508743 -0.187068 0.125341 -0.777778 5.06212 -0.497239 1.95983 -0.213924 -0.73017 -0.648913
-5.6675 -9.7635 11.0267 0.39355 -0.316309 0 0.661547 5.11038 -0.536952 3.75546 0.829797 0.432144 0.353113
-5.61875 -4.25737 7.6965 1 0.185657 0.473898 -0.866667 5.15426 0.429686 5.34103 0.978629 0.118664 -0.167943
-1.90625 -6.818 10.2917 0.36039 -0.429546 -0.276012 -0.372184 5.17974 -0.273895 0.457469 -0.962724 -0.18519 0.197148
-1.91937 -6.21275 14.6142 0.51438 -0.235392 0.0700813 -0.50916 5.22241 -0.761247 1.47834 -0.314087 -0.892927 -0.322539
-6.351 -2.99425 8.68025 0.534287 0.313264 0 -0.533636 5.25685 -0.0896829 5.43161 0.659098 0.746601 -0.0904267
-0.950875 -7.54581 12.4346 0.0322214 -0.327361 -0.245019 -1 5.28714 0.0521168 0.963613 -0.632297 -0.545991 0.549632
-2.309 -6.189 8.945 0.43995 -0.407621 0 -0.0888889 5.31721 0.159897 0.233274 -0.990824 0.123307 -0.0553434
-5.82725 -2.50425 9.9965 0.16658 0.403932 0 -0.2 5.36088 0.279194 5.67364 0.185066 0.85031 -0.49267
-3.648 -2.5685 10.791 0.102482 0.435393 0 -0.2 5.36477 0.243116 5.99253 0.0512143 0.888126 -0.456737
-2.55194 -2.87169 10.2829 0.0562423 0.380325 -0.338533 -0.154071 5.50995 -0.147396 6.13158 -0.412992 0.578452 -0.703442
-6.109 -8.09013 8.2005 0.609747 -0.306753 0.0100599 -0.777778 5.51181 -0.999782 4.54726 0.704026 0.548252 0.451407
-5.41463 -10.342 13.8094 0.499113 -0.255589 0 0.271149 5.58254 -0.471593 3.14685 0.814785 0.508942 -0.277674
-5.79563 -5.69025 7.32412 0.66977 -0.199201 0.297821 -0.863844 5.68382 0.225146 5.0366 0.957859 0.0303151 0.285636
-6.22325 -6.96025 7.58225 0.517227 -0.238219 0 -0.777778 5.75758 -0.999844 4.82557 0.827747 0.0783912 0.555599
-4.30062 -7.94225 17.1379 0.42654 -0.150522 0 1 5.77639 -0.999876 2.34878 0.324397 -0.263037 -0.908613
-1.463 -8.376 11.3333 0.176508 -0.364831 -0.105314 -1 5.90813 0.32598 3.8546 -0.806276 -0.255371 0.533577
-4.8805 -10.495 14.9487 0.529893 -0.203902 0 0.933333 5.9316 0.0710405 2.94298 0.932964 0.341581 -0.11358
-1.71375 -7.84975 10.351 0.248422 -0.399212 -0.236758 -0.347251 6.02417 -0.791293 0.457469 -0.959066 -0.0283712 0.281756
-4.86794 -9.33075 16.6371 0.158079 -0.145918 0 0.933333 6.0263 -0.363641 2.38223 0.851016 0.0549026 -0.522261
-1.03 -3.787 8.5425 0.191599 -0.297102 -0.000550657 -0.0888889 6.10602 -0.66072 0.13197 -0.841293 0.29785 -0.451123
-5.65947 -10.4865 12.0315 0.227417 -0.302171 -0.128585 -0.0888889 6.14865 -0.867021 3.75546 0.739189 0.670298 0.0655765
0.031 -7.35913 13.8882 0.636333 -0.2232 0.318217 -0.960587 6.19741 -0.484615 0.963613 -0.612271 -0.790601 0.00867966
-2.18438 -7.15963 8.50113 0.52569 -0.353488 0 -0.0888889 6.39177 -0.211752 0.233274 -0.97819 -0.0684411 0.19611
-5.05225 -9.12525 8.24525 0.259349 -0.31864 0.0785852 0.778944 6.42526 -0.999817 4.19286 0.439157 0.814084 0.380011
-6.951 -2.5145 9.9525 0.198646 0.405434 0 -0.2 6.48554 -0.0955885 5.67364 0.21621 0.976343 0.00262576
-1.30838 -7.12044 15.2753 0.716963 -0.217689 0.477581 -0.777778 6.50079 -0.300777 1.47834 -0.452784 -0.683757 -0.572243
-3.47725 -2.18625 11.8475 0.0116938 0.453045 0 -0.2 6.5012 -0.07272 5.99253 -0.3464 0.841313 -0.414969
-4.34269 -10.1756 10.3532 0.501757 -0.375343 0 0.960233 6.5525 -0.382665 4.19286 0.0574804 0.76062 0.646648
-4.754 -10.953 13.301 0.49652 -0.297344 0 -0.0888889 6.61609 -0.214181 3.14685 0.543967 0.839005 -0.01308
-6.187 -2.8705 7.317 0.785327 0.234211 0.122961 -0.866667 6.6355 0.873616 5.43161 0.76518 0.638045 -0.0860097
-2.3525 -6.17938 7.56938 0.610377 -0.345693 0.281908 -0.506213 6.69355 0.253721 0.233274 -0.928894 0.314033 0.196315
-7.16125 -2.234 7.76575 0.524633 0.252364 0.104137 -0.866667 6.69588 0.213785 5.43161 0.557123 0.812604 -0.171138
-2.13225 -8.094 9.39625 0.419197 -0.389266 0 0.107925 6.75489 -0.0980801 0.457469 -0.947777 0.184363 0.260248
-3.57711 -9.55381 9.77205 0.436577 -0.398142 0 0.913024 6.77129 0.132051 4.19286 -0.197054 0.922204 0.33273
-1.991 -1.967 11.037 -0.109312 0.362738 0 -0.2 6.81447 0.0152856 6.13158 -0.456314 0.833743 -0.310886
-6.2165 -2.099 11.352 -0.0479317 0.479831 0 -0.2 6.82823 0.734313 5.67364 -0.0671779 0.99727 0.0306544
-3.82663 -9.5445 8.57913 0.41984 -0.342176 0 0.913713 6.84408 -0.8139 4.19286 -0.0289599 0.975135 0.219709
-3.23534 -8.48941 17.304 0.459237 -0.147618 0 1 6.84945 -0.219011 2.34878 0.0843109 -0.374124 -0.923538
-1.62925 -2.0845 9.506 -0.3736 0.312149 -0.239979 -0.0888889 6.9503 0.693731 6.13158 -0.672234 0.587866 -0.450016
-1.40675 -8.23525 16.089 0.725003 -0.18291 0.431927 -0.777778 6.9533 0.999761 1.95983 -0.400395 -0.658658 -0.637066
-6.111 -5.624 6.089 0.57352 -0.187186 0.517632 -0.801127 6.96029 -0.586464 5.0366 0.902457 0.418943 -0.100291
-4.7185 -11.2759 15.6766 0.578807 -0.209776 0 0.933333 7.01136 -0.73533 2.94298 0.793706 0.608294 -0.00312074
-0.571625 -9.07475 11.6154 0.316279 -0.282653 -0.00596384 -0.972213 7.06269 -0.150563 3.8546 -0.446835 -0.276825 0.850709
-1.88644 -9.22363 10.6494 0.397807 -0.379432 0 0.844444 7.07668 -0.0799102 3.8546 -0.616614 0.425512 0.662365
-6.4485 -3.06988 6.36562 0.82373 0.200595 0.232478 -0.866667 7.12146 0.999867 5.34103 0.581447 0.599726 -0.549771
-4.3105 -11.2565 11.5763 0.575097 -0.30932 0 -0.0888889 7.20144 -0.758212 3.75546 0.336622 0.872277 0.354709
-1.70119 -8.70938 17.1994 0.389983 -0.166229 -0.101352 -0.270878 7.25834 -0.548145 1.95983 -0.367204 -0.522871 -0.769264
-4.07681 -11.5229 14.4209 0.577033 -0.248495 0 -0.0320473 7.3391 -0.205529 2.94298 0.611204 0.778348 0.143542
-8.08497 -1.88934 9.36447 0.207993 0.289704 0 -0.866667 7.42379 -0.139227 5.43161 0.524179 0.786561 0.326433
-2.162 -8.0945 7.9165 0.50133 -0.329631 0 -0.0888889 7.49461 -0.999892 0.233274 -0.909633 0.295624 0.291845
-6.624 -4.5115 5.5635 0.468287 0.197013 0 -0.866667 7.52593 0.1465 5.34103 0.517749 0.639978 -0.567772
-0.620125 -2.47038 8.16737 0.103473 -0.265173 -0.60344 -0.38732 7.53508 -0.131727 6.13158 -0.933496 0.310793 -0.178866
-0.949313 -4.12856 7.11919 0.359443 -0.279061 0 -0.584002 7.57196 -0.611672 0.233274 -0.913709 0.35722 0.193727
-4.69228 -7.21006 6.58134 0.7131 -0.282783 0.096704 -0.777778 7.60368 -0.0381626 4.82557 0.412367 0.69768 0.585829
1.14525 -8.562 12.9073 0.701093 -0.20841 0.394016 -1 7.66407 -0.868068 0.963613 -0.669011 -0.647723 0.364526
-1.69987 -5.249 6.81862 0.450617 -0.300088 0.09057 -0.79922 7.72057 -0.615685 0.233274 -0.818807 0.560268 0.125122
-4.2395 -8.5735 7.08169 0.515497 -0.296894 0 -0.918367 7.74349 -0.999835 4.54726 0.129076 0.635443 0.761282
-3.15875 -1.42963 12.8542 0.0612547 0.368917 0.542764 0.4 7.80018 0.166984 5.99253 -0.499533 0.666475 -0.553423
-2.33325 -1.6125 12.1005 0.0651217 0.350218 0.0357752 -0.134356 7.80578 -0.221343 5.99253 -0.27871 0.82363 -0.493918
-4.66625 -11.0845 16.892 0.400423 -0.157037 0 0.924591 7.80992 -0.999824 2.94298 0.873862 0.373752 -0.310925
-2.77375 -9.09387 9.28175 0.433723 -0.386886 0 0.844444 7.81882 -0.218317 0.457469 -0.625672 0.758327 0.182961
-7.99203 -2.64528 11.2072 0.106454 0.438024 0 -0.2 7.84522 -0.397675 5.67364 -0.0144315 0.992396 0.122235
-3.04312 -9.22025 8.00725 0.43946 -0.332689 0 0.844444 7.86686 -0.999875 4.19286 -0.450346 0.747347 0.488529
-4.69075 -2.53175 13.1115 -0.183255 0.56631 0 -0.2 7.90906 -0.383292 5.99253 -0.350228 0.931539 -0.0978508
-3.58612 -11.5753 13.3752 0.592123 -0.277789 0 -0.0888889 7.9415 -0.179518 3.14685 0.367699 0.920854 0.129709
-3.79075 -10.2222 18.0065 0.518913 -0.124425 0 1 7.98341 -0.999869 2.34878 0.409482 -0.0532152 -0.910765
-8.17025 -1.88312 7.04 0.270622 0.210479 0.232979 -0.866667 7.98735 0.677647 5.43161 0.329029 0.739171 -0.587679
-2.81013 -7.37475 7.02338 0.598937 -0.316478 0.0306396 -1 8.0109 -0.310992 0.233274 -0.632572 0.310152 0.709689
-2.88225 -6.48225 6.32975 0.59626 -0.308009 0.800479 -1 8.07523 0.105173 0.233274 -0.654714 0.679947 0.330186
0.717875 -8.19975 15.5052 0.615783 -0.175299 0.45129 -0.784236 8.145 -0.999819 1.47834 -0.62321 -0.649262 -0.435968
-3.302 -11.1471 11.4605 0.51537 -0.32273 0 0.844444 8.22245 -0.374138 3.75546 -0.0613465 0.694598 0.716778
-0.464 -8.9755 16.604 0.345343 -0.165717 -0.748025 -0.777778 8.2579 -0.275687 1.95983 -0.386586 -0.387961 -0.836683
-5.72906 -2.47112 12.6509 -0.209615 0.565137 0 -0.2 8.26462 -0.310485 5.67364 -0.0788777 0.986902 0.140719
-0.47025 -1.53 9.122 -0.106855 0.269265 -0.47734 -0.0888889 8.29127 0.17356 6.13158 -0.559631 0.807507 -0.186402
-0.977813 -1.33644 11.9819 0.0576827 0.295127 0 -0.155669 8.33664 -0.143982 6.13158 -0.0664935 0.980925 -0.18266
-8.26437 -1.01525 8.31125 0.0134116 0.227772 0 -0.866667 8.42787 0.802344 5.43161 0.555904 0.831173 -0.0110874
-7.69875 -3.17213 5.98338 0.781853 0.197224 0.112886 -0.866667 8.43283 0.118032 5.34103 0.299425 0.616534 -0.728169
-1.33125 -10.4866 11.3071 0.442793 -0.296729 0 0.844444 8.60504 -0.463431 3.8546 -0.287108 0.373615 0.882032
-0.426 -1.17206 10.6077 -0.082501 0.278079 0 -0.0888889 8.62153 0.701762 6.13158 -0.363504 0.925447 -0.106831
-6.183 -5.011 4.536 0.226191 -0.223036 0.967173 -1 8.63144 0.0722563 5.0366 0.30348 0.907268 0.291145
-0.7125 -3.14287 6.77037 0.40072 -0.248945 0 -1 8.64403 -0.786713 6.13158 -0.909629 0.176453 0.376085
-7.5915 -4.8935 5.11925 -0.00991547 0.19526 0.514298 -0.866667 8.65701 -0.813618 5.34103 0.355514 0.720587 -0.595285
-2.68175 -10.0616 18.0147 0.35608 -0.152922 -0.163447 0.805938 8.66145 -0.999815 2.34878 -0.147886 -0.169386 -0.974391
-0.02625 -10.5835 11.7972 0.48142 -0.257424 0 0.844444 8.67725 -0.487368 3.8546 -0.321326 0.311059 0.894423
1.0125 -9.58212 11.8576 0.541577 -0.239811 0 0.844444 8.74362 -0.999884 3.8546 -0.547629 -0.0482876 0.835327
-9.06 -0.9825 9.4 0.0107298 0.218793 0 -0.866667 8.75582 0.0899438 5.43161 0.709073 0.625695 0.325148
-2.7135 -12.04 14.0715 0.477123 -0.245582 0 -0.0888889 8.83846 0.363528 2.94298 0.366581 0.883477 0.291696
-1.69675 -10.2355 17.6903 0.185506 -0.187594 -0.96332 -0.155556 8.86148 -0.618305 1.95983 -0.451623 0.102526 -0.886298
-3.354 -12.5258 15.707 0.242015 -0.218564 0 0.844444 8.86204 -0.99985 2.94298 0.334248 0.942454 0.00765007
1.367 -8.79813 14.2028 0.718097 -0.215904 0.843431 -0.613031 8.99946 -0.559924 0.963613 -0.938835 -0.300511 -0.168172
-3.862 -11.6217 17.6195 0.456137 -0.171022 0 0.844444 9.02015 -0.999908 2.94298 0.410813 0.59085 -0.694355
-0.030375 -1.28225 7.4885 0.122921 0.23394 0.00467234 -0.980047 9.02515 0.180699 6.13158 -0.531229 0.845946 0.0465979
-4.765 -2.518 14.248 -0.200502 0.500477 0 -0.2 9.04806 -0.84256 5.99253 -0.364464 0.919285 -0.148599
-3.69738 -1.33834 13.9881 0.059151 0.362237 0.407209 0.4 9.05883 -0.414425 5.99253 -0.730711 0.470451 -0.494709
-8.982 -2.2765 6.4235 0.0985167 0.194744 0 -0.866667 9.07995 0.225585 5.43161 0.208589 0.693139 -0.689962
-9.14338 -2.21881 10.6134 0.047993 0.293642 0 -0.866667 9.09371 -0.594547 5.43161 0.525658 0.686227 0.502768
-3.716 -6.85975 5.448 0.579937 -0.274239 0.268141 -1 9.14001 -0.999864 4.82557 -0.263335 0.865654 0.425791
0.859375 -9.032 16.0446 0.606747 -0.184285 0.111683 -0.67574 9.14681 -0.952634 1.47834 -0.710914 -0.271388 -0.648807
-1.81662 -4.56588 5.56887 0.41354 -0.249843 0.340609 -1 9.14961 -0.672701 0.233274 -0.783066 0.239221 0.574091
-1.476 -3.1625 5.95813 0.62033 -0.23853 0.397828 -1 9.17156 0.0432137 0.233274 -0.693237 0.143144 0.706351
-1.63806 -0.748062 12.9071 0.207123 0.254232 0 0.0257813 9.17733 0.00689755 5.99253 -0.00624998 0.683988 -0.729466
-2.527 -11.704 12.3365 0.47286 -0.276901 0 0.377778 9.19117 -0.344293 3.14685 0.176489 0.927301 0.330096
-3.116 -12.246 16.7978 0.290008 -0.201752 0 0.844444 9.19452 -0.684144 2.94298 0.255258 0.896528 -0.36205
1.891 -9.97425 13.0087 0.663363 -0.222309 0 -0.795671 9.26435 -0.999902 0.963613 -0.975146 0.0577273 0.213912
-2.69287 -5.83144 5.22319 0.455863 -0.259801 0.425143 -1 9.37288 -0.739062 0.233274 -0.654214 0.459018 0.601088
-7.58725 -5.17525 4.094 -0.0551233 0.193389 0.672859 -1 9.40418 0.185181 5.34103 -0.109349 0.717811 -0.687598
-5.07044 -6.35375 5.00331 0.6309 -0.234046 0.265465 -0.957747 9.43847 -0.625621 4.82557 0.358455 0.754102 0.55031
-9.42325 -2.72775 11.9522 -0.069941 0.294608 0 -0.779522 9.46084 -0.999869 5.67364 0.61736 0.784708 -0.0556738
-2.77225 -11.4105 17.805 0.318332 -0.186309 -0.902352 -0.0792444 9.56138 -0.999855 2.94298 -0.18764 0.469214 -0.862919
-0.945625 -1.96769 6.20687 0.41249 -0.231751 0 -1 9.58501 0.0726819 6.13158 -0.792355 0.33976 0.506693
-9.39925 -0.69575 8.29525 0.0114345 0.191597 0 -0.866667 9.60698 0.0238771 5.43161 0.516402 0.75225 -0.409204
-8.49575 -2.5645 12.975 -0.0942213 0.369147 -0.18369 -0.368789 9.68516 -0.54535 5.67364 0.186533 0.919786 -0.345252
-8.35437 -4.16412 4.94775 -0.453847 0.163875 -0.475452 -0.816929 9.72629 -0.0223487 5.34103 0.570471 0.599126 -0.561793
-8.9555 -3.102 5.67 -0.219211 0.185532 -0.300687 -0.821164 9.72996 -0.278896 5.34103 0.401153 0.74822 -0.528435
-0.359 -11.5591 12.3024 0.46941 -0.256517 0 0.0556884 9.82518 -0.631845 3.8546 -0.345776 0.698796 0.626197
0.656875 -0.954625 11.0969 0.257629 0.247592 0 -0.0888889 9.82951 0.407777 6.13158 -0.172353 0.969797 0.17259
-5.116 -5.535 4.308 0.53344 -0.214328 0.132085 -1 9.84184 -0.573461 5.0366 0.188106 0.463336 0.865988
1.30375 -9.7405 15.091 0.842973 -0.209034 0.804214 -0.177778 9.84463 -0.763863 0.963613 -0.953067 -0.0709761 -0.294322
0.863875 -10.9526 12.4683 0.536653 -0.247557 0 -0.405929 9.85153 -0.802259 3.8546 -0.584743 0.680737 0.441217
-9.65375 -0.18225 9.868 -0.0384657 0.151675 0 -0.866667 9.85672 0.035881 5.43161 0.944339 0.32223 0.066263
-2.44412 -12.6461 15.2684 0.373663 -0.225684 0.245125 -0.124628 9.87926 -0.577566 2.94298 0.108394 0.994106 0.00173444
-9.64669 -1.105 10.3852 -0.036121 0.181996 0 -0.866667 9.90901 -0.146609 5.43161 0.861516 0.199114 0.467058
-5.90675 -2.65587 14.3011 -0.117535 0.486138 0 -0.2 9.93461 -0.7564 5.67364 0.000315313 0.991663 -0.12886
-0.27 -0.883 13.3573 0.187824 0.195336 0 -0.2 9.94857 -0.074031 6.13158 0.52276 0.654727 -0.545943
0.94725 -0.8885 9.82619 0.196768 0.228016 0.025898 -0.0888889 9.99911 0.0536257 6.13158 -0.162998 0.986589 -0.00857057
0.578125 -10.3691 16.4349 0.671563 -0.185047 0.772204 -0.777778 10.0063 -0.790541 1.95983 -0.656737 0.0802966 -0.749832
-1.66 -12.3445 13.6494 0.337317 -0.242358 0 -0.213366 10.0135 -0.547249 2.94298 0.0749592 0.965726 0.248506
-10.148 -1.38462 7.12813 0.016896 0.174024 0 -0.866667 10.0289 -0.219836 5.43161 0.229914 0.611414 -0.757174
-2.90569 0.68025 13.7451 0.049932 0.200151 0 0.4 10.1044 0.0684272 5.99253 -0.312653 0.115108 -0.942867
-7.47087 -2.52638 13.4104 -0.0864843 0.430184 0 -0.2 10.1123 -0.109034 5.67364 0.181217 0.970668 -0.157999
-9.886 -2.553 5.83125 -0.130164 0.187417 0 -0.84122 10.1955 -0.205416 5.43161 0.231542 0.833637 -0.501436
-1.37625 -11.8694 12.1976 0.44997 -0.262996 0 0.172882 10.2504 -0.701319 3.8546 -0.0962332 0.842831 0.529505
-5.15737 -2.20863 15.3814 -0.0770677 0.363332 -0.423582 0.4 10.2867 -0.999859 5.99253 -0.285748 0.688131 -0.666951
-1.22113 0.0809375 13.5485 0.0400333 0.174307 0 0.4 10.3054 -0.0746796 5.99253 0.27894 0.353428 -0.892906
-3.83075 -0.304 14.6757 -0.026281 0.243497 -0.0434052 0.446411 10.308 -0.560929 5.99253 -0.607594 -0.0369576 -0.793388
-4.75725 -4.3725 3.745 0.240903 -0.219582 0 -1 10.3825 0.137715 5.0366 -0.31198 0.546455 0.77721
-2.817 -4.43525 4.809 0.438413 -0.226999 0.745353 -1 10.4126 -0.632374 0.233274 -0.582432 0.0504241 0.811314
0.721 -1.61625 13.153 0.124071 0.214356 0 -0.2 10.4189 -0.13008 6.13158 0.550536 0.834086 0.034786
1.37888 -0.50825 8.64587 0.109163 0.197996 0.781538 -0.0888889 10.4569 0.999862 6.13158 0.0043209 0.99807 -0.0619493
-0.04025 -0.651 6.15987 0.19916 -0.203596 0 -1 10.4961 0.193422 6.13158 -0.333882 0.706318 0.62421
-4.09312 -6.05037 4.4095 0.490923 -0.232322 0 -1 10.5096 -0.999878 4.82557 -0.137521 0.544987 0.827089
1.3825 -10.685 14.0083 0.679477 -0.228358 0 -0.777778 10.5921 -0.469737 0.963613 -0.884948 0.461274 -0.0639818
-10.237 -1.322 11.2058 -0.214441 0.167464 -0.238289 -0.866667 10.6271 -0.926325 5.43161 0.927756 0.180387 0.326696
1.33506 -1.27988 11.9929 0.171192 0.220153 0 -0.184761 10.6502 0.187838 6.13158 0.263704 0.797677 0.542376
1.572 -0.953875 7.497 0.332302 0.186018 0.197939 -0.676238 10.6608 0.159922 6.13158 0.0473165 0.987682 -0.149147
-1.8625 -1.868 5.281 0.414427 -0.221081 0 -1 10.6827 0.454107 6.13158 -0.642916 0.358324 0.676951
-7.01625 -5.99675 3.2625 0.0142378 0.196321 -0.13483 -0.961342 10.7051 -0.678956 5.34103 -0.752426 0.433991 -0.495487
-0.125625 -11.4201 16.4508 0.673607 -0.197084 0.224245 -0.755853 10.7306 -0.666246 1.95983 -0.505807 0.513905 -0.692864
-1.62603 -12.0646 16.4171 0.82776 -0.210457 0 -0.155556 10.743 -0.320341 2.94298 -0.241147 0.799142 -0.550654
-10.1615 0.4705 8.58675 -0.04119 0.123745 0 -0.866667 10.7523 -0.215396 5.43161 0.911713 0.337515 -0.234228
-6.11369 -4.90406 2.41894 0.0869857 0.198001 0 -1 10.7523 0.106526 5.0366 -0.720725 0.693096 -0.0131379
1.475 -1.086 6.477 0.206609 0.184577 0 -1 10.8494 -0.482249 6.13158 0.0342105 0.968835 0.245335
1.146 -10.677 15.4235 0.742833 -0.213023 0.919687 -0.770309 10.8508 -0.870795 0.963613 -0.849498 0.391589 -0.353568
-9.96212 0.7785 9.82487 -0.0460157 0.100366 0 -0.866667 10.8667 -0.429738 5.43161 0.984476 0.0508648 -0.167988
-8.94312 -4.58262 4.06213 -0.560117 0.110778 -0.0572364 -0.777778 10.8691 0.0691205 5.34103 0.560501 0.160938 -0.812366
-9.30481 -1.76231 13.5004 -0.51173 0.217046 -0.615631 -0.777778 10.9398 -0.45824 5.67364 0.595097 0.508562 -0.622273
-4.98606 -4.13831 2.75444 0.0453553 -0.205903 0 -1 10.9484 -0.448578 5.0366 -0.707196 0.630495 0.319921
-7.96863 -6.67513 3.78638 -0.661683 0.191629 -0.306906 -0.777778 10.9821 -0.999901 5.34103 -0.299107 0.692448 -0.656544
-0.595 -12.0105 13.363 0.571243 -0.250156 0 -0.777778 11.0018 -0.55804 3.8546 -0.371538 0.892576 0.255475
-7.06962 -2.47638 14.4404 -0.0257032 0.369154 0.0962312 -0.376944 11.1195 -0.731081 5.67364 0.328211 0.848099 -0.415938
-10.5411 0.020375 7.60388 -0.0416343 0.133198 0 -0.866667 11.1218 0.287834 5.43161 0.449597 0.384052 -0.806453
-3.95025 -4.98125 4.1915 0.403797 -0.220818 0.703378 -1 11.1377 -0.439848 5.0366 -0.364018 0.223478 0.904184
-0.731875 -12.3286 14.3022 0.31214 -0.238569 0 -0.777778 11.1483 -0.760783 2.94298 -0.356289 0.916199 0.183404
-9.01975 -6.191 4.01325 -0.53754 0.131231 0 -0.777778 11.1621 -0.871548 5.34103 0.243692 0.223039 -0.943858
-11.189 -0.84225 7.053 -0.0315099 0.151762 0 -0.866667 11.2051 0.617094 5.43161 0.0537119 0.434125 -0.89925
-10.1517 -1.443 12.8884 -0.57693 0.146235 -0.0908054 -0.810518 11.2095 -0.920442 5.67364 0.884903 0.208359 -0.416574
-10.4152 -2.56775 4.9595 -0.10965 0.176739 -0.00293626 -0.85504 11.2154 -0.197551 5.43161 0.427255 0.881527 0.200905
-4.75675 0.05125 15.3105 -0.106209 0.203601 -0.141506 0.669609 11.2502 -0.407501 5.99253 -0.547288 -0.301542 -0.780735
3 159 192 142
3 159 142 98
3 98 142 107
3 137 186 144
3 144 145 108
3 145 162 126
3 108 126 98
3 126 159 98
3 98 107 63
3 98 63 108
3 107 80 63
3 39 56 93
3 117 80 107
3 153 117 151
3 117 107 142
3 151 117 181
3 142 181 117
3 181 142 192
3 182 111 188
3 188 111 167
3 167 111 148
3 167 148 193
3 33 82 76
3 108 76 82
3 82 113 108
3 33 76 61
3 61 63 36
3 12 36 39
3 12 29 21
3 29 39 40
3 40 67 95
3 67 104 95
3 104 67 93
3 124 104 154
3 93 143 161
3 87 136 100
3 100 85 99
3 85 45 42
3 45 85 44
3 44 85 72
3 23 33 12
3 12 21 5
3 38 17 51
3 21 40 41
3 70 41 66
3 40 21 29
3 58 95 89
3 161 191 154
3 51 84 87
3 87 62 38
3 62 99 54
3 62 54 38
3 85 42 88
3 3 12 5
3 5 7 0
3 38 34 17
3 34 49 18
3 18 49 47
3 54 64 34
3 49 75 47
3 65 30 59
3 92 68 65
3 68 30 65
3 42 55 88
3 11 15 26
3 30 15 32
3 32 59 30
3 6 10 15
3 32 15 10
3 4 7 16
3 7 18 20
3 20 16 7
3 53 37 86
3 74 86 37
3 115 74 109
3 74 47 75
3 32 24 52
3 10 9 24
3 4 16 14
3 14 16 35
3 35 57 31
3 31 14 35
3 31 71 78
3 69 31 78
3 78 71 103
3 163 109 102
3 163 102 133
3 158 133 96
3 96 77 60
3 96 79 118
3 48 79 43
3 60 43 79
3 43 9 28
3 9 13 27
3 9 4 13
3 14 13 4
3 9 27 50
3 9 50 28
3 97 69 114
3 119 103 179
3 119 179 180
3 121 173 149
3 73 79 48
3 48 50 91
3 141 83 123
3 70 105 83
3 83 105 123
3 105 156 170
3 106 110 66
3 66 90 106
3 132 106 90
3 132 90 89
3 132 160 165
3 160 125 166
3 183 171 123
3 171 141 123
3 183 123 176
3 176 123 170
3 147 156 110
3 169 175 106
3 106 155 169
3 198 162 145
3 195 186 137
3 111 137 82
3 82 137 113
3 137 144 113
3 108 113 144
3 108 145 126
3 36 56 39
3 56 36 80
3 63 80 36
3 93 56 80
3 127 93 80
3 127 117 153
3 127 80 117
3 151 181 185
3 178 189 137
3 137 189 195
3 193 148 172
3 172 148 138
3 44 72 33
3 111 138 148
3 138 111 85
3 85 111 72
3 33 72 82
3 82 72 111
3 12 33 36
3 36 33 61
3 124 95 104
3 174 127 153
3 87 130 136
3 136 130 168
3 168 130 131
3 100 136 128
3 128 136 172
3 128 172 138
3 172 136 193
3 168 193 136
3 100 128 85
3 138 85 128
3 85 88 99
3 42 45 22
3 45 44 23
3 8 11 22
3 8 22 23
3 45 23 22
3 23 12 8
3 5 21 17
3 70 51 41
3 41 17 21
3 17 41 51
3 66 41 58
3 66 58 90
3 58 41 40
3 89 90 58
3 125 89 95
3 124 125 95
3 199 125 164
3 164 125 124
3 164 124 154
3 154 191 164
3 127 174 139
3 127 139 93
3 93 139 143
3 143 139 187
3 197 187 139
3 141 177 131
3 112 141 131
3 84 112 131
3 130 87 84
3 130 84 131
3 81 54 99
3 64 54 81
3 64 81 92
3 94 92 81
3 94 81 99
3 94 99 88
3 68 92 94
3 55 68 88
3 88 68 94
3 42 22 26
3 26 22 11
3 6 11 2
3 2 11 8
3 2 8 3
3 12 3 8
3 3 0 2
3 7 5 19
3 7 19 18
3 17 34 19
3 17 19 5
3 19 34 18
3 75 49 64
3 75 64 92
3 64 49 34
3 55 30 68
3 30 55 42
3 30 42 26
3 30 26 15
3 2 10 6
3 10 2 1
3 1 2 0
3 1 0 4
3 20 18 37
3 35 53 57
3 20 53 35
3 53 20 37
3 116 86 74
3 116 74 115
3 75 109 74
3 75 102 109
3 59 77 102
3 77 59 32
3 77 32 52
3 43 60 52
3 43 52 24
3 43 24 9
3 1 9 10
3 4 9 1
3 35 16 20
3 14 31 13
3 13 31 25
3 13 25 27
3 31 69 46
3 31 46 25
3 25 46 27
3 129 101 149
3 101 129 103
3 101 103 71
3 121 149 101
3 121 101 86
3 86 101 53
3 53 101 57
3 57 101 71
3 173 135 150
3 150 135 116
3 135 86 116
3 115 150 116
3 121 86 135
3 121 135 173
3 190 150 146
3 146 150 115
3 163 190 146
3 163 146 109
3 109 146 115
3 190 163 158
3 133 158 163
3 77 96 133
3 77 133 102
3 52 60 77
3 69 50 46
3 46 50 27
3 91 122 134
3 122 91 97
3 69 97 50
3 50 97 91
3 114 140 97
3 97 140 122
3 134 122 140
3 134 140 180
3 119 140 114
3 103 119 78
3 78 119 114
3 78 114 69
3 157 179 103
3 184 179 157
3 184 157 149
3 149 157 129
3 129 157 103
3 173 184 149
3 158 194 190
3 152 158 118
3 180 120 134
3 120 152 118
3 152 120 180
3 73 134 120
3 73 120 79
3 79 120 118
3 91 134 73
3 48 91 73
3 83 112 84
3 83 84 51
3 83 51 70
3 141 112 83
3 170 123 105
3 110 156 105
3 199 166 125
3 165 155 132
3 132 155 106
3 196 192 159
3 162 159 126
3 111 182 137
3 178 137 182
3 76 108 63
3 76 63 61
3 39 29 12
3 93 67 39
3 40 39 67
3 104 93 161
3 44 33 23
3 95 58 40
3 161 154 104
3 87 100 62
3 99 62 100
3 3 5 0
3 54 34 38
3 51 87 38
3 105 70 110
3 110 70 66
3 125 160 89
3 132 89 160
3 6 15 11
3 0 7 4
3 47 37 18
3 47 74 37
3 75 59 102
3 32 10 24
3 57 71 31
3 60 79 96
3 96 118 158
3 43 28 48
3 48 28 50
3 119 180 140
3 147 110 106
3 175 147 106
3 75 92 65
3 75 65 59
