ply
format ascii 1.0
comment Generated by PyMesh
element vertex 200
property float x
property float y
property float z
property float charge
property float ddc
property float hbond
property float hphob
property float rho
property float si
property float theta
property float nx
property float ny
property float nz
element face 344
property list uchar int vertex_indices
end_header
-5.79563 -5.69025 7.32412 0.66977 0 0.297821 -0.863844 1e-08 0.225146 2.22045e-16 0.957859 0.0303151 0.285636
-6.2445 -5.67425 8.35825 0.839817 0.465237 0.48189 -0.866667 1.12746 -0.593974 5.07173 0.940384 -0.316391 0.124801
-6.111 -5.624 6.089 0.57352 0.32349 0.517632 -0.801127 1.27647 -0.586464 2.40622 0.902457 0.418943 -0.100291
-6.22325 -6.96025 7.58225 0.517227 0.26033 0 -0.777778 1.36469 -0.999844 2.22045e-16 0.827747 0.0783912 0.555599
-5.61875 -4.25737 7.6965 1 -0.280934 0.473898 -0.866667 1.49101 0.429686 3.94769 0.978629 0.118664 -0.167943
-4.69228 -7.21006 6.58134 0.7131 -0.402264 0.096704 -0.777778 2.01963 -0.0381626 1.05128 0.412367 0.69768 0.585829
-6.17556 -5.75075 9.81419 0.51025 -0.309124 0 -0.0888889 2.58704 -0.485206 5.21037 0.879245 -0.409227 -0.243849
-6.624 -4.5115 5.5635 0.468287 0.448899 0 -0.866667 2.6095 0.1465 2.75565 0.517749 0.639978 -0.567772
-6.109 -8.09013 8.2005 0.609747 -0.185984 0.0100599 -0.777778 2.65772 -0.999782 6.28189 0.704026 0.548252 0.451407
-6.60156 -7.33588 8.79594 0.630253 -0.104797 0 -0.256651 2.69031 -0.999867 5.8654 0.994857 0.0992303 0.0203263
-6.183 -5.011 4.536 0.226191 0.332796 0.967173 -1 2.94762 0.0722563 2.33334 0.30348 0.907268 0.291145
-6.187 -2.8705 7.317 0.785327 0.204591 0.122961 -0.866667 3.03708 0.873616 3.67272 0.76518 0.638045 -0.0860097
-5.271 -4.34734 9.45378 0.429117 -0.39484 0 -0.2 3.10447 0.0790899 4.63255 0.716884 -0.165769 -0.677199
-6.351 -2.99425 8.68025 0.534287 0.230611 0 -0.533636 3.25152 -0.0896829 4.08383 0.659098 0.746601 -0.0904267
-6.4485 -3.06988 6.36562 0.82373 0.336313 0.232478 -0.866667 3.4582 0.999867 3.36112 0.581447 0.599726 -0.549771
-4.2395 -8.5735 7.08169 0.515497 -0.324621 0 -0.918367 3.54093 -0.999835 0.627503 0.129076 0.635443 0.761282
-3.716 -6.85975 5.448 0.579937 -0.460869 0.268141 -1 3.55596 -0.999864 1.32708 -0.263335 0.865654 0.425791
-6.14975 -8.38775 9.2365 0.642467 -0.134917 0 0.597371 3.73639 -0.682244 6.04404 0.864514 0.496605 -0.0774548
-7.5915 -4.8935 5.11925 -0.00991547 0.390988 0.514298 -0.866667 3.74058 -0.813618 2.81964 0.355514 0.720587 -0.595285
-6.27887 -7.16625 9.82987 0.573587 -0.150981 0 -0.0888889 3.78663 -0.176118 5.66283 0.968248 0.150609 -0.199533
-5.07044 -6.35375 5.00331 0.6309 -0.345395 0.265465 -0.957747 3.85442 -0.625621 1.69693 0.358455 0.754102 0.55031
-2.81013 -7.37475 7.02338 0.598937 -0.480742 0.0306396 -1 3.96 -0.310992 0.88408 -0.632572 0.310152 0.709689
-2.88225 -6.48225 6.32975 0.59626 -0.528237 0.800479 -1 3.98667 0.105173 1.09939 -0.654714 0.679947 0.330186
-5.05225 -9.12525 8.24525 0.259349 -0.224258 0.0785852 0.778944 4.13765 -0.999817 0.184928 0.439157 0.814084 0.380011
-5.116 -5.535 4.308 0.53344 -0.329636 0.132085 -1 4.15802 -0.573461 1.9748 0.188106 0.463336 0.865988
-7.16125 -2.234 7.76575 0.524633 0.224854 0.104137 -0.866667 4.28434 0.213785 3.7095 0.557123 0.812604 -0.171138
-7.69875 -3.17213 5.98338 0.781853 0.362447 0.112886 -0.866667 4.37735 0.118032 3.15419 0.299425 0.616534 -0.728169
-4.92338 -5.55363 11.0901 0.315841 -0.325962 0 -0.2 4.38558 0.080399 5.15966 0.467586 -0.821285 -0.326885
-7.58725 -5.17525 4.094 -0.0551233 0.403341 0.672859 -1 4.42893 0.185181 2.59154 -0.109349 0.717811 -0.687598
-5.27969 -9.23044 9.6165 0.54384 -0.169148 0 1 4.656 -0.152386 6.19864 0.552825 0.793218 0.255323
-4.75725 -4.3725 3.745 0.240903 -0.358003 0 -1 4.69866 0.137715 2.0327 -0.31198 0.546455 0.77721
-4.73887 -2.95038 10.0363 0.168411 -0.336159 0 -0.2 4.70884 0.440618 4.58586 0.215907 0.495566 -0.841308
-6.951 -2.5145 9.9525 0.198646 0.256714 0 -0.2 4.73772 -0.0955885 4.17697 0.21621 0.976343 0.00262576
-6.14825 -6.61194 11.79 0.412833 -0.141675 0 -0.120257 4.74255 -0.444363 5.4979 0.929507 -0.355159 -0.0993885
-5.82725 -2.50425 9.9965 0.16658 0.300046 0 -0.2 4.7505 0.279194 4.3515 0.185066 0.85031 -0.49267
-6.10838 -7.2915 10.8197 0.50502 -0.0685452 0 -0.0888889 4.79881 0.0510481 5.68387 0.978062 0.207388 -0.01962
-8.35437 -4.16412 4.94775 -0.453847 0.256522 -0.475452 -0.816929 4.80987 -0.0223487 2.91272 0.570471 0.599126 -0.561793
-4.09312 -6.05037 4.4095 0.490923 -0.378095 0 -1 4.92556 -0.999878 1.6858 -0.137521 0.544987 0.827089
-2.69287 -5.83144 5.22319 0.455863 -0.444058 0.425143 -1 5.02387 -0.739062 1.37979 -0.654214 0.459018 0.601088
-3.67 -3.37725 10.0363 0.238417 -0.3641 0 -0.2 5.06498 0.259178 4.76777 0.0528347 0.22804 -0.972217
-6.11369 -4.90406 2.41894 0.0869857 0.354068 0 -1 5.06852 0.106526 2.34561 -0.720725 0.693096 -0.0131379
-5.77 -8.44 10.563 0.568423 -0.0603557 0 -0.0888889 5.11717 0.23855 5.92241 0.951713 0.306736 0.0124313
-3.04312 -9.22025 8.00725 0.43946 -0.336934 0 0.844444 5.186 -0.999875 0.485917 -0.450346 0.747347 0.488529
-4.98606 -4.13831 2.75444 0.0453553 0.350591 0 -1 5.26456 -0.448578 2.11987 -0.707196 0.630495 0.319921
-2.162 -8.0945 7.9165 0.50133 -0.423761 0 -0.0888889 5.27749 -0.999892 0.659057 -0.909633 0.295624 0.291845
-2.3525 -6.17938 7.56938 0.610377 -0.540274 0.281908 -0.506213 5.35156 0.253721 0.916306 -0.928894 0.314033 0.196315
-3.82663 -9.5445 8.57913 0.41984 -0.277947 0 0.913713 5.37276 -0.8139 0.309531 -0.0289599 0.975135 0.219709
-8.08497 -1.88934 9.36447 0.207993 0.150331 0 -0.866667 5.41847 -0.139227 3.94735 0.524179 0.786561 0.326433
-3.95025 -4.98125 4.1915 0.403797 -0.397258 0.703378 -1 5.45385 -0.439848 1.80219 -0.364018 0.223478 0.904184
-3.67925 -5.23994 10.9784 0.37313 -0.386278 0 -0.2 5.48247 -0.054301 5.10386 -0.0577555 -0.859388 -0.508052
-8.17025 -1.88312 7.04 0.270622 0.260591 0.232979 -0.866667 5.57582 0.677647 3.49988 0.329029 0.739171 -0.587679
-2.18438 -7.15963 8.50113 0.52569 -0.47806 0 -0.0888889 5.57913 -0.211752 0.683496 -0.97819 -0.0684411 0.19611
-8.9555 -3.102 5.67 -0.219211 0.248919 -0.300687 -0.821164 5.67448 -0.278896 2.96323 0.401153 0.74822 -0.528435
-5.308 -5.77575 12.31 0.303794 -0.26937 0 -0.2 5.68382 -0.624294 5.31462 0.323934 -0.933786 -0.152023
-7.01625 -5.99675 3.2625 0.0142378 0.440103 -0.13483 -0.961342 5.72981 -0.678956 2.56443 -0.752426 0.433991 -0.495487
-1.69987 -5.249 6.81862 0.450617 -0.436195 0.09057 -0.79922 5.76372 -0.615685 1.09191 -0.818807 0.560268 0.125122
-8.94312 -4.58262 4.06213 -0.560117 0.241216 -0.0572364 -0.777778 5.909 0.0691205 2.7952 0.560501 0.160938 -0.812366
-8.982 -2.2765 6.4235 0.0985167 0.271663 0 -0.866667 6.00296 0.225585 3.49988 0.208589 0.693139 -0.689962
-7.96863 -6.67513 3.78638 -0.661683 0.379204 -0.306906 -0.777778 6.00681 -0.999901 2.56443 -0.299107 0.692448 -0.656544
-8.26437 -1.01525 8.31125 0.0134116 0.147045 0 -0.866667 6.01634 0.802344 3.94735 0.555904 0.831173 -0.0110874
-4.05363 -3.21913 3.93375 0.0999057 -0.376468 0 -1 6.06283 0.525863 2.0327 -0.710511 0.29783 0.637551
-3.648 -2.5685 10.791 0.102482 -0.259709 0 -0.2 6.0892 0.243116 4.76777 0.0512143 0.888126 -0.456737
-4.34269 -10.1756 10.3532 0.501757 -0.201925 0 0.960233 6.17719 -0.382665 6.19864 0.0574804 0.76062 0.646648
-9.01975 -6.191 4.01325 -0.53754 0.29722 0 -0.777778 6.18686 -0.871548 2.7952 0.243692 0.223039 -0.943858
-5.6675 -9.7635 11.0267 0.39355 -0.0523528 0 0.661547 6.21267 -0.536952 5.92241 0.829797 0.432144 0.353113
-6.2165 -2.099 11.352 -0.0479317 0.242629 0 -0.2 6.21785 0.734313 4.3515 -0.0671779 0.99727 0.0306544
-5.725 -6.1115 13.164 0.28495 -0.160909 0 -0.199861 6.26487 -0.999881 5.31462 0.778413 -0.53643 -0.326062
-6.46925 -5.10881 1.25181 -0.019668 0.286514 0 -0.880138 6.30566 -0.259342 2.34561 -0.779521 0.411465 0.472275
-2.55194 -2.87169 10.2829 0.0562423 -0.326502 -0.338533 -0.154071 6.31657 -0.147396 4.76777 -0.412992 0.578452 -0.703442
-7.99203 -2.64528 11.2072 0.106454 0.232855 0 -0.2 6.3733 -0.397675 4.17697 -0.0144315 0.992396 0.122235
-3.57711 -9.55381 9.77205 0.436577 -0.267852 0 0.913024 6.39598 0.132051 0.309531 -0.197054 0.922204 0.33273
-4.561 -3.0465 2.529 0.146464 -0.317924 0.0175719 -1 6.45769 0.268546 2.11987 -0.805122 0.509933 0.302898
-2.817 -4.43525 4.809 0.438413 -0.400695 0.745353 -1 6.48548 -0.632374 1.80219 -0.582432 0.0504241 0.811314
-2.77375 -9.09387 9.28175 0.433723 -0.338038 0 0.844444 6.49477 -0.218317 0.485917 -0.625672 0.758327 0.182961
-1.81662 -4.56588 5.56887 0.41354 -0.392986 0.340609 -1 6.60151 -0.672701 1.09191 -0.783066 0.239221 0.574091
-5.76875 -4.03025 1.206 -0.335113 -0.263278 0.547276 -1 6.60271 -0.502144 2.34561 -0.659128 0.428587 0.617951
-9.5915 -3.258 3.9775 -0.310933 0.102841 -0.124325 -0.777778 6.62451 0.126382 2.7952 0.845598 0.469669 -0.25372
-2.309 -6.189 8.945 0.43995 -0.506868 0 -0.0888889 6.65369 0.159897 0.683496 -0.990824 0.123307 -0.0553434
-6.14838 -8.3445 12.8004 0.305386 -0.054553 0 -0.0888889 6.74821 -0.577007 5.4979 0.998638 0.0306221 -0.0422442
-9.06 -0.9825 9.4 0.0107298 0.0821925 0 -0.866667 6.7505 0.0899438 3.94735 0.709073 0.625695 0.325148
-2.13225 -8.094 9.39625 0.419197 -0.391633 0 0.107925 6.75754 -0.0980801 0.683496 -0.947777 0.184363 0.260248
-9.886 -2.553 5.83125 -0.130164 0.226628 0 -0.84122 6.76683 -0.205416 2.96323 0.231542 0.833637 -0.501436
-7.35575 -6.70587 2.56169 -0.151647 0.34569 0 -0.485396 6.78302 -0.712272 2.56443 -0.706322 0.699094 -0.111252
-2.61469 -4.94441 9.86416 0.323553 -0.473932 0 -0.0888889 6.96217 0.0684234 5.10386 -0.775368 -0.219062 -0.592297
-5.19125 -3.15313 1.31638 -0.263014 -0.249594 0 -0.777778 7.01975 -0.201481 2.11987 -0.612573 0.506803 0.606552
-9.14338 -2.21881 10.6134 0.047993 0.119856 0 -0.866667 7.08838 -0.594547 3.94735 0.525658 0.686227 0.502768
-0.949313 -4.12856 7.11919 0.359443 -0.367309 0 -0.584002 7.14541 -0.611672 1.09191 -0.913709 0.35722 0.193727
-9.39925 -0.69575 8.29525 0.0114345 0.154231 0 -0.866667 7.19544 0.0238771 3.49988 0.516402 0.75225 -0.409204
-3.47725 -2.18625 11.8475 0.0116938 -0.257781 0 -0.2 7.22563 -0.07272 4.76777 -0.3464 0.841313 -0.414969
-2.68963 -5.70463 12.3524 0.373157 -0.290704 0 -0.2 7.23836 -0.389516 5.10386 -0.260663 -0.948494 -0.180039
-3.12075 -3.278 4.64725 0.334693 -0.369222 0 -1 7.23876 0.461773 2.0327 -0.612575 0.0962018 0.784536
-2.011 -5.875 11.0615 0.37523 -0.361774 -0.0252554 -0.253553 7.26944 -0.495688 5.10386 -0.733903 -0.671001 -0.105567
-8.796 -7.136 2.874 -0.135071 0.248237 -0.000741121 -0.36136 7.32187 -0.830724 2.56443 -0.102779 0.977726 -0.182997
-3.2065 -2.32675 4.27975 0.130018 -0.320119 0 -1 7.34099 0.539275 2.0327 -0.661631 0.374437 0.649648
-9.66475 -6.88675 3.34425 -0.183105 0.205101 0 -0.415662 7.34774 -0.846726 2.7952 0.304819 0.803747 -0.510956
-10.4152 -2.56775 4.9595 -0.10965 0.142732 -0.00293626 -0.85504 7.38356 -0.197551 2.96323 0.427255 0.881527 0.200905
-1.90625 -6.818 10.2917 0.36039 -0.388585 -0.276012 -0.372184 7.42309 -0.273895 0.683496 -0.962724 -0.18519 0.197148
-5.65947 -10.4865 12.0315 0.227417 -0.0818096 -0.128585 -0.0888889 7.45057 -0.867021 5.92241 0.739189 0.670298 0.0655765
-4.83238 -6.22475 14.045 0.203985 -0.201135 0 -0.172968 7.52413 -0.343419 5.31462 0.337459 -0.863933 -0.373821
-10.316 -5.06875 3.35775 -0.325391 0.178237 0 -0.809818 7.5268 -0.68097 2.7952 0.673115 -0.274309 -0.686783
-7.0405 -6.171 0.85725 -0.132005 0.247223 0.00973336 -0.850191 7.57462 -0.999867 2.34561 -0.60925 0.463412 0.643478
-10.148 -1.38462 7.12813 0.016896 0.21243 0 -0.866667 7.61733 -0.219836 3.49988 0.229914 0.611414 -0.757174
-1.991 -1.967 11.037 -0.109312 -0.252892 0 -0.2 7.62109 0.0152856 4.76777 -0.456314 0.833743 -0.310886
-5.72906 -2.47112 12.6509 -0.209615 0.209323 0 -0.2 7.65424 -0.310485 4.3515 -0.0788777 0.986902 0.140719
-3.709 -1.9195 3.02475 -0.0954547 -0.288966 0 -1 7.68582 0.676436 2.11987 -0.766861 0.573532 0.288072
-7.47038 -4.79637 0.310625 -0.0074969 -0.202353 0.103803 -0.00718982 7.71482 -0.545855 2.34561 -0.358296 0.193719 0.913289
-1.62925 -2.0845 9.506 -0.3736 -0.305025 -0.239979 -0.0888889 7.75691 0.693731 4.76777 -0.672234 0.587866 -0.450016
-10.0218 -4.13219 2.61144 0.0095534 0.0892751 0 -0.866667 7.77204 0.0786728 2.7952 0.962657 -0.158563 -0.21943
-4.3105 -11.2565 11.5763 0.575097 -0.128638 0 -0.0888889 7.80978 -0.758212 6.19864 0.336622 0.872277 0.354709
-1.71375 -7.84975 10.351 0.248422 -0.348226 -0.236758 -0.347251 7.82821 -0.791293 0.683496 -0.959066 -0.0283712 0.281756
-7.487 -6.942 1.53 -0.053482 0.242039 0 -0.355556 7.84949 -0.882381 2.56443 -0.35587 0.914039 0.194652
-9.65375 -0.18225 9.868 -0.0384657 0.0303389 0 -0.866667 7.85139 0.035881 3.94735 0.944339 0.32223 0.066263
-9.64669 -1.105 10.3852 -0.036121 0.0358412 0 -0.866667 7.90368 -0.146609 3.94735 0.861516 0.199114 0.467058
-4.00506 -2.0625 1.51047 -0.0901213 -0.243165 0.0411343 -0.905249 7.97911 -0.520918 2.11987 -0.716805 0.620311 0.318442
-3.302 -11.1471 11.4605 0.51537 -0.16795 0 0.844444 7.98079 -0.374138 6.19864 -0.0613465 0.694598 0.716778
-9.42325 -2.72775 11.9522 -0.069941 0.112464 0 -0.779522 7.98892 -0.999869 3.94735 0.61736 0.784708 -0.0556738
-6.0635 -9.55275 13.222 0.51936 -0.0566224 0 -0.0888889 8.03071 -0.999827 5.4979 0.961183 0.228341 -0.154877
-10.6788 -6.08825 3.1925 -0.175523 0.0883967 0 -0.808804 8.04068 -0.999887 2.7952 0.935904 0.144782 -0.321127
-1.476 -3.1625 5.95813 0.62033 -0.329299 0.397828 -1 8.09718 0.0432137 1.09191 -0.693237 0.143144 0.706351
-1.03 -3.787 8.5425 0.191599 -0.364817 -0.000550657 -0.0888889 8.12125 -0.66072 1.09191 -0.841293 0.29785 -0.451123
-1.88644 -9.22363 10.6494 0.397807 -0.262952 0 0.844444 8.1302 -0.0799102 0.485917 -0.616614 0.425512 0.662365
-8.49575 -2.5645 12.975 -0.0942213 0.172354 -0.18369 -0.368789 8.21324 -0.54535 4.17697 0.186533 0.919786 -0.345252
-0.7125 -3.14287 6.77037 0.40072 -0.326432 0 -1 8.21748 -0.786713 1.09191 -0.909629 0.176453 0.376085
-11.3241 -2.33512 5.93962 -0.0451153 0.1735 0 -0.866667 8.22538 -0.709798 2.96323 0.252521 0.915196 -0.314085
-4.77881 -2.13075 0.714437 -0.363993 -0.185011 0 -0.777778 8.27582 -0.109836 2.11987 -0.286221 0.75919 0.584558
-7.02675 -3.451 0.24375 -0.00575907 -0.202396 0 -0.777778 8.28913 -0.510175 2.34561 -0.433467 0.192387 0.880394
-10.0621 -2.179 2.79284 0.659237 0.0356355 0 -0.866667 8.29458 -0.0770625 2.7952 0.993385 0.114721 0.00508027
-5.70131 -7.94219 14.2342 0.465197 -0.0932961 0 -0.0888889 8.30304 -0.359134 5.31462 0.924738 -0.100025 -0.367226
-2.78744 -5.99862 13.4154 0.311591 -0.236314 0 -0.2 8.3456 -0.106675 5.10386 -0.0566234 -0.97951 -0.193273
-1.7585 -6.495 11.9974 0.3505 -0.310542 0 -1 8.42012 0.0230992 5.10386 -0.875271 -0.44215 0.195971
-10.2933 -1.5525 3.79225 0.2774 0.0720381 0.732195 -0.866667 8.47804 0.441177 2.96323 0.67929 0.548711 0.487321
-6.1225 -2.22088 0.649594 -0.113871 -0.190625 0 -0.777778 8.49655 0.61095 2.11987 -0.336361 0.46711 0.817722
-3.15875 -1.42963 12.8542 0.0612547 -0.230515 0.542764 0.4 8.52461 0.166984 4.76777 -0.499533 0.666475 -0.553423
-2.33325 -1.6125 12.1005 0.0651217 -0.21823 0.0357752 -0.134356 8.53021 -0.221343 4.76777 -0.27871 0.82363 -0.493918
-4.69075 -2.53175 13.1115 -0.183255 0.229348 0 -0.2 8.58661 -0.383292 4.76777 -0.350228 0.931539 -0.0978508
-10.1615 0.4705 8.58675 -0.04119 0.0652713 0 -0.866667 8.61886 -0.215396 3.94735 0.911713 0.337515 -0.234228
-10.237 -1.322 11.2058 -0.214441 0.011963 -0.238289 -0.866667 8.62174 -0.926325 3.94735 0.927756 0.180387 0.326696
-7.47087 -2.52638 13.4104 -0.0864843 0.164833 0 -0.2 8.64042 -0.109034 4.17697 0.181217 0.970668 -0.157999
-10.5411 0.020375 7.60388 -0.0416343 0.15856 0 -0.866667 8.71025 0.287834 3.49988 0.449597 0.384052 -0.806453
-9.6935 -7.11513 1.80638 -0.246053 0.133105 -0.0592266 -0.306607 8.71677 -0.999868 2.56443 0.37578 0.909047 0.180065
-1.52013 -6.21325 13.1946 0.52676 -0.249049 0 -0.2 8.76667 -0.524356 5.10386 -0.53448 -0.837967 0.110193
-7.93925 -3.85125 0.11075 0.212988 -0.157223 0.0293317 0.688447 8.78861 -0.337917 2.34561 -0.00853468 0.131053 0.991339
-11.189 -0.84225 7.053 -0.0315099 0.202803 0 -0.866667 8.79355 0.617094 3.49988 0.0537119 0.434125 -0.89925
-2.31381 -1.10175 4.2515 0.100769 -0.258437 0 -1 8.85701 0.465965 2.0327 -0.672386 0.636115 0.37849
-9.96212 0.7785 9.82487 -0.0460157 -0.0539814 0 -0.866667 8.86133 -0.429738 3.94735 0.984476 0.0508648 -0.167988
-1.463 -8.376 11.3333 0.176508 -0.283169 -0.105314 -1 8.97046 0.32598 0.683496 -0.806276 -0.255371 0.533577
-11.926 -2.06175 4.8235 0.08382 0.13679 0 0.844444 8.98264 -0.421432 2.96323 0.214942 0.911725 0.350082
-4.754 -10.953 13.301 0.49652 -0.100076 0 -0.0888889 9.07819 -0.214181 5.92241 0.543967 0.839005 -0.01308
-1.8625 -1.868 5.281 0.414427 -0.283523 0 -1 9.0786 0.454107 2.0327 -0.642916 0.358324 0.676951
-0.47025 -1.53 9.122 -0.106855 -0.240996 -0.47734 -0.0888889 9.09789 0.17356 4.76777 -0.559631 0.807507 -0.186402
-11.3206 -1.394 4.09538 0.428673 0.141993 0.301046 -0.866667 9.09941 0.406092 2.96323 0.0982185 0.706631 0.700733
-0.620125 -2.47038 8.16737 0.103473 -0.314292 -0.60344 -0.38732 9.13453 -0.131727 1.09191 -0.933496 0.310793 -0.178866
-4.87 -7.05025 15.4299 0.42535 -0.137971 0 -0.0888889 9.13684 -0.21173 5.31462 0.602014 -0.722362 -0.340253
-0.977813 -1.33644 11.9819 0.0576827 -0.16944 0 -0.155669 9.14326 -0.143982 4.76777 -0.0664935 0.980925 -0.18266
-3.731 -6.37675 15.2506 0.378683 -0.183289 0 -0.2 9.16414 -0.78274 5.31462 0.146035 -0.903592 -0.402736
-8.57725 -6.64775 0.646625 -0.127634 -0.166527 -0.299851 -0.308876 9.19735 -0.999849 2.56443 -0.0512426 0.665153 0.744947
-5.41463 -10.342 13.8094 0.499113 -0.0779915 0 0.271149 9.20926 -0.471593 5.92241 0.814785 0.508942 -0.277674
-9.93338 -3.12075 1.56225 0.172188 -0.027722 -0.272166 -0.275322 9.23205 -0.198487 2.7952 0.938129 0.0129367 0.346044
-2.527 -11.704 12.3365 0.47286 -0.126036 0 0.377778 9.27622 -0.344293 6.19864 0.176489 0.927301 0.330096
-8.98287 -5.23313 0.23775 0.130226 -0.139184 0.930694 0.933333 9.29079 -0.704501 2.34561 0.158983 0.123591 0.979515
-5.90675 -2.65587 14.3011 -0.117535 0.170148 0 -0.2 9.32423 -0.7564 4.3515 0.000315313 0.991663 -0.12886
-9.76156 0.291438 11.3061 -0.0964303 -0.0750021 0 0.4 9.36933 -0.15531 3.94735 0.936059 -0.348835 -0.0459032
-3.356 -0.991 0.877 -0.00981507 0.195893 0.581518 -1 9.38292 0.31769 2.11987 -0.552038 0.825476 0.117657
-0.945625 -1.96769 6.20687 0.41249 -0.284541 0 -1 9.42787 0.0726819 1.09191 -0.792355 0.33976 0.506693
-0.426 -1.17206 10.6077 -0.082501 -0.199231 0 -0.0888889 9.42815 0.701762 4.76777 -0.363504 0.925447 -0.106831
-9.30481 -1.76231 13.5004 -0.51173 -0.121553 -0.615631 -0.777778 9.46788 -0.45824 4.17697 0.595097 0.508562 -0.622273
-4.765 -2.518 14.248 -0.200502 -0.20188 0 -0.2 9.52034 -0.84256 4.3515 -0.364464 0.919285 -0.148599
-10.269 -4.94088 1.079 -0.0595383 -0.0612495 0.202432 -0.319053 9.52232 -0.592599 2.7952 0.843489 -0.184587 0.504435
-1.33125 -10.4866 11.3071 0.442793 -0.183114 0 0.844444 9.65857 -0.463431 0.485917 -0.287108 0.373615 0.882032
-7.87075 -2.471 -0.24225 -0.0111764 -0.146476 -7.6934e-05 0.477402 9.67077 0.0453187 2.34561 -0.0733341 0.381608 0.921411
-12.2112 -1.32056 6.83494 -0.0297725 0.165998 0 -0.464164 9.70224 -0.41028 3.49988 0.212442 0.686723 -0.695183
-5.4955 -1.4115 -0.29125 -0.232636 0.143088 0 -0.777778 9.70494 0.709193 2.11987 -0.0858229 0.803203 0.58949
-10.1517 -1.443 12.8884 -0.57693 -0.0804122 -0.0908054 -0.810518 9.73754 -0.920442 3.94735 0.884903 0.208359 -0.416574
-7.06962 -2.47638 14.4404 -0.0257032 -0.141223 0.0962312 -0.376944 9.74695 -0.731081 4.17697 0.328211 0.848099 -0.415938
-0.571625 -9.07475 11.6154 0.316279 -0.210945 -0.00596384 -0.972213 9.76851 -0.150563 0.485917 -0.446835 -0.276825 0.850709
-3.58612 -11.5753 13.3752 0.592123 -0.1075 0 -0.0888889 9.77508 -0.179518 6.19864 0.367699 0.920854 0.129709
-3.69738 -1.33834 13.9881 0.059151 -0.225535 0.407209 0.4 9.78325 -0.414425 4.76777 -0.730711 0.470451 -0.494709
-0.950875 -7.54581 12.4346 0.0322214 -0.243604 -0.245019 -1 9.81569 0.0521168 5.10386 -0.632297 -0.545991 0.549632
-10.2965 1.40625 7.82575 -0.117352 -0.142706 0 -0.777778 9.83253 -0.0680291 3.94735 0.562055 -0.588037 -0.581642
-1.91937 -6.21275 14.6142 0.51438 -0.212861 0.0700813 -0.50916 9.84109 -0.761247 5.10386 -0.314087 -0.892927 -0.322539
-10.5968 -5.89213 1.39713 -0.152711 -0.0214447 0 -0.2 9.84859 -0.811398 2.7952 0.886917 0.280722 0.366841
-10.2015 -0.57325 2.828 0.422387 0.0494586 0.39001 -0.866667 9.8554 0.999895 2.96323 0.802382 0.564311 0.194259
-10.0174 -1.68037 1.3035 0.77966 0.00875887 -0.0571727 -0.218217 9.86581 -0.118848 2.7952 0.938772 0.263775 0.221652
-1.63806 -0.748062 12.9071 0.207123 -0.16976 0 0.0257813 9.90176 0.00689755 4.76777 -0.00624998 0.683988 -0.729466
-5.26237 -9.369 14.8328 0.507297 -0.0621795 0 0.78746 9.91139 -0.00494616 5.31462 0.932581 0.232313 -0.276268
-4.0535 -1.33875 -0.59325 -0.5297 -0.16435 0.271773 -0.877113 9.96797 -0.834148 2.11987 -0.436978 0.713172 0.548121
-9.72725 -6.4445 0.72725 -0.414443 -0.0954323 -0.747204 -0.2 9.98776 -0.999881 2.56443 0.485707 0.408432 0.772833
-1.74025 -0.45925 3.509 0.184182 -0.214401 0 -1 9.99415 0.0285848 2.0327 -0.563464 0.812844 0.147625
-11.8252 -0.017625 7.72687 -0.0253071 0.18151 0 -0.866667 10.0008 -0.496865 3.49988 0.0271841 0.356959 -0.933724
-9.09463 -4.06313 0.420875 0.0468347 -0.10587 0.286718 0.933333 10.0035 -0.0197131 2.34561 0.454619 0.0457582 0.88951
-9.66938 1.7765 10.3371 -0.0597057 -0.112811 0 0.4 10.0207 -0.672893 3.94735 0.732011 -0.557361 -0.391801
-12.9301 -1.75412 5.27763 0.055192 0.11693 0 0.844444 10.057 -0.491279 2.96323 0.392603 0.909855 -0.134266
-10.1956 -0.223 12.1319 -0.318546 -0.0719246 -0.563898 -0.758511 10.0595 -0.999829 3.94735 0.948219 -0.288896 -0.131983
-1.46512 -0.271688 4.48956 0.241391 -0.222873 0 -1 10.0678 0.332596 2.0327 -0.643815 0.680922 0.349067
-1.37625 -11.8694 12.1976 0.44997 -0.14004 0 0.172882 10.1656 -0.701319 6.19864 -0.0962332 0.842831 0.529505
-12.8094 -1.55587 3.96275 0.584057 0.1328 0 0.0253213 10.3158 -0.393132 2.96323 0.0341578 0.890859 0.452993
-4.4885 -6.99975 16.5465 0.454337 -0.139031 0 0.0897651 10.3179 -0.999917 5.31462 0.437605 -0.720127 -0.538441
-5.04875 -7.88225 16.3645 0.37142 -0.0899732 0 -0.0888889 10.4008 -0.724377 5.31462 0.850945 -0.254382 -0.459545
-4.8805 -10.495 14.9487 0.529893 -0.0426244 0 0.933333 10.4768 0.0710405 5.92241 0.932964 0.341581 -0.11358
-2.459 -0.96725 0.22375 -0.103466 0.115768 0.228537 -1 10.4928 0.116399 2.11987 0.479699 0.647816 -0.591796
3 142 170 188
3 181 126 182
3 157 126 107
3 126 130 76
3 76 130 95
3 95 52 76
3 101 138 87
3 101 87 50
3 50 87 59
3 157 107 167
3 167 189 157
3 56 107 76
3 28 56 36
3 36 52 26
3 52 81 57
3 26 57 50
3 57 101 50
3 50 59 25
3 50 25 26
3 59 47 25
3 34 32 69
3 79 47 59
3 112 79 111
3 79 59 87
3 111 79 135
3 87 135 79
3 135 87 138
3 171 131 124
3 162 124 113
3 124 131 84
3 124 84 113
3 84 71 113
3 141 159 105
3 110 139 92
3 40 10 43
3 43 10 30
3 43 30 60
3 30 10 24
3 30 24 48
3 60 30 48
3 4 7 14
3 26 14 7
3 7 18 26
3 4 14 11
3 11 25 13
3 12 13 34
3 12 31 39
3 31 34 61
3 61 65 134
3 65 103 134
3 103 65 69
3 166 103 160
3 69 121 137
3 112 111 161
3 144 161 111
3 113 71 104
3 104 60 93
3 60 90 93
3 72 118 90
3 55 38 22
3 22 5 21
3 5 3 8
3 3 5 0
3 0 5 2
3 1 4 12
3 12 39 49
3 77 83 119
3 39 61 68
3 106 68 102
3 61 39 31
3 88 134 132
3 137 173 160
3 187 162 143
3 143 162 104
3 187 143 193
3 143 93 148
3 119 86 55
3 55 45 77
3 45 21 51
3 45 51 77
3 5 8 15
3 27 12 49
3 49 89 53
3 77 96 83
3 96 109 129
3 129 109 145
3 51 80 96
3 109 120 145
3 70 29 62
3 73 46 70
3 46 29 70
3 8 23 15
3 19 41 17
3 29 41 64
3 64 62 29
3 35 78 41
3 64 41 78
3 98 89 128
3 89 129 140
3 140 128 89
3 174 145 120
3 64 116 97
3 78 127 116
3 98 128 154
3 154 128 179
3 194 168 114
3 194 114 158
3 175 108 147
3 156 127 184
3 127 152 197
3 127 98 152
3 154 152 98
3 106 149 151
3 153 164 102
3 102 133 153
3 183 153 133
3 183 133 132
3 193 148 163
3 193 143 148
3 40 67 82
3 92 82 110
3 150 195 146
3 146 195 191
3 107 126 76
3 95 81 52
3 101 123 170
3 101 170 142
3 150 146 95
3 150 95 130
3 95 123 81
3 81 123 101
3 95 146 123
3 170 123 191
3 191 123 146
3 135 138 178
3 188 178 138
3 126 157 182
3 159 167 186
3 186 167 180
3 189 167 159
3 139 186 180
3 139 180 117
3 139 117 94
3 107 99 117
3 107 117 167
3 167 117 180
3 56 63 99
3 56 99 107
3 63 56 28
3 10 28 7
3 7 28 18
3 28 36 18
3 26 18 36
3 26 52 57
3 13 32 34
3 32 13 47
3 25 47 13
3 69 32 47
3 85 69 47
3 85 79 112
3 85 47 79
3 111 135 144
3 144 135 178
3 144 178 190
3 162 185 124
3 131 75 84
3 67 40 75
3 105 67 125
3 75 125 67
3 125 75 131
3 141 105 125
3 169 125 131
3 125 169 141
3 141 169 189
3 110 100 155
3 155 100 159
3 100 105 159
3 82 67 100
3 82 100 110
3 105 100 67
3 139 110 155
3 139 155 186
3 186 155 159
3 92 139 94
3 63 94 117
3 63 117 99
3 82 92 58
3 58 94 63
3 94 58 92
3 54 58 28
3 28 58 63
3 54 82 58
3 40 82 54
3 48 24 37
3 37 24 20
3 0 2 4
3 10 20 24
3 20 10 5
3 5 10 2
3 4 2 7
3 7 2 10
3 12 4 13
3 13 4 11
3 166 134 103
3 136 85 112
3 161 192 136
3 161 136 112
3 161 144 190
3 104 162 113
3 118 93 90
3 55 74 38
3 38 74 72
3 72 74 118
3 22 38 16
3 16 38 37
3 16 37 20
3 37 38 48
3 72 48 38
3 22 16 5
3 20 5 16
3 5 15 21
3 8 3 9
3 3 0 1
3 6 19 9
3 6 9 1
3 3 1 9
3 1 12 6
3 49 39 83
3 106 119 68
3 68 83 39
3 83 68 119
3 102 68 88
3 102 88 133
3 88 68 61
3 132 133 88
3 176 132 134
3 166 176 134
3 136 192 115
3 85 136 115
3 192 172 115
3 85 115 69
3 69 115 121
3 121 115 165
3 172 165 115
3 163 148 118
3 122 163 118
3 86 122 118
3 74 55 86
3 74 86 118
3 44 51 21
3 80 51 44
3 80 44 73
3 42 73 44
3 42 44 21
3 42 21 15
3 46 73 42
3 23 46 15
3 15 46 42
3 8 9 17
3 17 9 19
3 35 19 33
3 33 19 6
3 33 6 27
3 12 27 6
3 27 53 33
3 89 49 91
3 89 91 129
3 83 96 91
3 83 91 49
3 91 96 129
3 120 109 80
3 120 80 73
3 80 109 96
3 23 29 46
3 29 23 8
3 29 8 17
3 29 17 41
3 33 78 35
3 78 33 66
3 66 33 53
3 66 53 98
3 140 129 177
3 120 168 174
3 120 114 168
3 62 108 114
3 108 62 64
3 108 64 97
3 156 147 97
3 156 97 116
3 156 116 127
3 66 127 78
3 98 127 66
3 179 128 140
3 152 196 197
3 108 175 158
3 108 158 114
3 97 147 108
3 151 122 86
3 151 86 119
3 151 119 106
3 163 122 151
3 75 40 43
3 75 43 84
3 84 43 71
3 126 181 130
3 138 142 188
3 142 138 101
3 36 76 52
3 36 56 76
3 81 101 57
3 141 189 159
3 10 40 28
3 54 28 40
3 14 26 25
3 14 25 11
3 34 31 12
3 69 65 34
3 61 34 65
3 103 69 137
3 104 71 60
3 71 43 60
3 48 72 60
3 90 60 72
3 0 4 1
3 134 88 61
3 137 160 103
3 143 104 93
3 55 22 45
3 21 45 22
3 27 49 53
3 51 96 77
3 119 55 77
3 149 106 164
3 164 106 102
3 93 118 148
3 35 41 19
3 53 89 98
3 145 177 129
3 145 174 177
3 120 62 114
3 64 78 116
3 156 184 198
3 120 73 70
3 120 70 62
