ply
format ascii 1.0
comment Generated by PyMesh
element vertex 200
property float x
property float y
property float z
property float charge
property float ddc
property float hbond
property float hphob
property float rho
property float si
property float theta
property float nx
property float ny
property float nz
element face 325
property list uchar int vertex_indices
end_header
-3.15875 -1.42963 12.8542 0.0612547 0 0.542764 0.4 1e-08 0.166984 2.22045e-16 -0.499533 0.666475 -0.553423
-2.33325 -1.6125 12.1005 0.0651217 0.0996282 0.0357752 -0.134356 1.13268 -0.221343 5.22225 -0.27871 0.82363 -0.493918
-3.69738 -1.33834 13.9881 0.059151 0.378208 0.407209 0.4 1.25864 -0.414425 2.16395 -0.730711 0.470451 -0.494709
-3.47725 -2.18625 11.8475 0.0116938 -0.118986 0 -0.2 1.29898 -0.07272 2.22045e-16 -0.3464 0.841313 -0.414969
-1.63806 -0.748062 12.9071 0.207123 0.241011 0 0.0257813 1.66728 0.00689755 4.29456 -0.00624998 0.683988 -0.729466
-4.69075 -2.53175 13.1115 -0.183255 0.251876 0 -0.2 1.9047 -0.383292 1.13653 -0.350228 0.931539 -0.0978508
-2.90569 0.68025 13.7451 0.049932 -0.328905 0 0.4 2.3042 0.0684272 3.23942 -0.312653 0.115108 -0.942867
-1.991 -1.967 11.037 -0.109312 -0.119518 0 -0.2 2.30478 0.0152856 5.52406 -0.456314 0.833743 -0.310886
-3.648 -2.5685 10.791 0.102482 -0.18109 0 -0.2 2.43541 0.243116 0.0869364 0.0512143 0.888126 -0.456737
-3.83075 -0.304 14.6757 -0.026281 -0.388086 -0.0434052 0.446411 2.50782 -0.560929 2.57578 -0.607594 -0.0369576 -0.793388
-0.977813 -1.33644 11.9819 0.0576827 0.218744 0 -0.155669 2.52101 -0.143982 4.84854 -0.0664935 0.980925 -0.18266
-1.22113 0.0809375 13.5485 0.0400333 0.324822 0 0.4 2.79532 -0.0746796 3.94993 0.27894 0.353428 -0.892906
-4.765 -2.518 14.248 -0.200502 0.179201 0 -0.2 2.87077 -0.84256 1.53625 -0.364464 0.919285 -0.148599
-5.72906 -2.47112 12.6509 -0.209615 -0.2784 0 -0.2 3.04221 -0.310485 1.09873 -0.0788777 0.986902 0.140719
-0.27 -0.883 13.3573 0.187824 0.29652 0 -0.2 3.11382 -0.074031 4.3557 0.52276 0.654727 -0.545943
-2.55194 -2.87169 10.2829 0.0562423 0.0819599 -0.338533 -0.154071 3.24166 -0.147396 5.94477 -0.412992 0.578452 -0.703442
-4.75675 0.05125 15.3105 -0.106209 -0.335979 -0.141506 0.669609 3.44998 -0.407501 2.39822 -0.547288 -0.301542 -0.780735
-5.15737 -2.20863 15.3814 -0.0770677 -0.0473621 -0.423582 0.4 3.45643 -0.999859 1.79415 -0.285748 0.688131 -0.666951
-3.67 -3.37725 10.0363 0.238417 0.229317 0 -0.2 3.54182 0.259178 6.25639 0.0528347 0.22804 -0.972217
-4.18175 0.935375 14.1839 -0.0221448 -0.479981 0 0.924198 3.6775 -0.18944 2.84279 -0.205217 -0.606615 -0.768052
-4.73887 -2.95038 10.0363 0.168411 0.194723 0 -0.2 3.81577 0.440618 0.210461 0.215907 0.495566 -0.841308
-1.62925 -2.0845 9.506 -0.3736 -0.0996124 -0.239979 -0.0888889 3.88232 0.693731 5.64734 -0.672234 0.587866 -0.450016
-3.42144 2.20444 13.4284 -0.243935 -0.393157 -0.116342 0.9093 3.94415 -0.172714 3.13557 0.306256 -0.504535 -0.80725
-0.426 -1.17206 10.6077 -0.082501 -0.132289 0 -0.0888889 4.01096 0.701762 5.15694 -0.363504 0.925447 -0.106831
-5.90675 -2.65587 14.3011 -0.117535 -0.178271 0 -0.2 4.02204 -0.7564 1.49008 0.000315313 0.991663 -0.12886
-1.30175 1.72675 13.5933 -0.0387437 -0.21637 0 0.4 4.22535 0.635166 3.61679 0.251486 0.358882 -0.898865
-0.118719 0.483594 14.4014 -0.026709 0.330111 0 0.4 4.24614 0.265661 4.00976 0.788998 0.16338 -0.592275
-6.2165 -2.099 11.352 -0.0479317 -0.197842 0 -0.2 4.27346 0.734313 0.774531 -0.0671779 0.99727 0.0306544
-2.06519 2.4575 13.891 -0.0912767 0.242158 0 0.4 4.27558 0.0798758 3.40469 0.582739 0.418386 -0.696684
0.721 -1.61625 13.153 0.124071 0.276855 0 -0.2 4.36341 -0.13008 4.54482 0.550536 0.834086 0.034786
0.656875 -0.954625 11.0969 0.257629 -0.182242 0 -0.0888889 4.4187 0.407777 4.98693 -0.172353 0.969797 0.17259
-5.345 0.7695 14.552 -0.0206934 -0.432268 0 0.933333 4.64883 0.669516 2.59637 -0.203801 -0.759961 -0.617191
-5.719 -0.127 16.1567 -0.0384123 -0.281908 0 0.798507 4.74372 -0.999911 2.21285 -0.158741 -0.406461 -0.899773
-5.79569 -1.33506 16.1006 -0.0309629 -0.157705 0 0.4 4.75559 -0.999871 1.99134 -0.124208 0.290816 -0.948682
-5.82725 -2.50425 9.9965 0.16658 -0.135831 0 -0.2 4.75586 0.279194 0.464148 0.185066 0.85031 -0.49267
1.33506 -1.27988 11.9929 0.171192 0.273551 0 -0.184761 4.83461 0.187838 4.79988 0.263704 0.797677 0.542376
-7.47087 -2.52638 13.4104 -0.0864843 -0.154994 0 -0.2 4.94321 -0.109034 1.33447 0.181217 0.970668 -0.157999
-6.381 0.66075 15.2494 0.00722077 -0.350464 0 0.933333 5.1859 -0.597313 2.37551 -0.00666402 -0.786907 -0.617035
-7.06962 -2.47638 14.4404 -0.0257032 -0.161348 0.0962312 -0.376944 5.2069 -0.731081 1.53203 0.328211 0.848099 -0.415938
-5.53575 1.5295 13.741 -0.000628653 -0.398193 0 0.933333 5.22103 -0.198105 2.70698 -0.121869 -0.773495 -0.621975
-0.47025 -1.53 9.122 -0.106855 -0.0903894 -0.47734 -0.0888889 5.2233 0.17356 5.41637 -0.559631 0.807507 -0.186402
-4.70913 2.10713 12.9949 -0.0695653 -0.457571 0 0.112684 5.30634 -0.234144 2.90486 0.223145 -0.9024 -0.368619
-2.61469 -4.94441 9.86416 0.323553 0.229289 0 -0.0888889 5.35719 0.0684234 6.07938 -0.775368 -0.219062 -0.592297
0.461 -0.8215 15.4971 -0.179853 0.324926 -0.262187 -0.00454918 5.37588 0.0375989 4.23978 0.923269 0.377674 0.0702589
-5.271 -4.34734 9.45378 0.429117 0.287104 0 -0.2 5.42014 0.0790899 0.274202 0.716884 -0.165769 -0.677199
-0.2655 1.9445 14.1663 -0.044284 0.256652 0 0.4 5.42933 0.999923 3.75024 0.782728 0.426397 -0.453346
-3.53912 2.96525 12.1566 -0.429103 -0.369951 -0.08843 0.764851 5.43081 0.402783 3.07127 0.718337 -0.495399 -0.488439
0.17625 0.576688 15.5509 -0.020969 0.321336 0 0.4 5.43653 0.545594 4.02578 0.950339 0.299197 0.0856599
-0.620125 -2.47038 8.16737 0.103473 -0.150645 -0.60344 -0.38732 5.60255 -0.131727 5.59197 -0.933496 0.310793 -0.178866
0.94725 -0.8885 9.82619 0.196768 -0.119699 0.025898 -0.0888889 5.61626 0.0536257 5.15727 -0.162998 0.986589 -0.00857057
-3.67925 -5.23994 10.9784 0.37313 0.384682 0 -0.2 5.62922 -0.054301 6.24464 -0.0577555 -0.859388 -0.508052
-2.66225 3.6205 14.2621 -0.273342 0.26301 -0.58913 0.933333 5.63454 -0.527157 3.3898 0.891561 0.452106 -0.0268244
-2.55225 3.71012 13.1695 -0.505203 -0.27944 -0.724129 0.933333 5.70188 0.504424 3.26932 0.925513 0.107021 -0.36328
-1.03 -3.787 8.5425 0.191599 -0.126306 -0.000550657 -0.0888889 5.72824 -0.66072 5.80449 -0.841293 0.29785 -0.451123
-7.99203 -2.64528 11.2072 0.106454 -0.149605 0 -0.2 5.73212 -0.397675 0.926736 -0.0144315 0.992396 0.122235
1.41825 -2.4965 14.165 -0.0174466 0.256379 -0.188425 -0.2 5.87508 -0.577821 4.50235 0.754722 0.655694 0.021473
-6.951 -2.5145 9.9525 0.198646 -0.167722 0 -0.2 5.88052 -0.0955885 0.585937 0.21621 0.976343 0.00262576
-7.49125 -1.47625 15.2793 0.247017 -0.173595 0.704737 -0.777778 5.90465 -0.569798 1.77412 0.469884 0.554722 -0.686653
2.11538 -0.606875 10.9895 0.0126506 0.168479 0 -0.0888889 5.92193 0.999888 4.91864 0.181246 0.959523 0.21556
-6.8605 -0.341 15.9435 0.0436187 -0.254869 0.47085 -0.777778 5.92451 -0.759795 2.08549 0.396037 -0.188333 -0.898713
-0.5245 2.303 15.0765 -0.041517 0.202392 0 0.4 5.99625 0.563277 3.68972 0.599448 0.783212 -0.165048
-8.49575 -2.5645 12.975 -0.0942213 -0.1099 -0.18369 -0.368789 6.05739 -0.54535 1.33447 0.186533 0.919786 -0.345252
-2.197 3.26238 15.6433 -0.0775123 0.232256 0 0.615136 6.20839 -0.0857681 3.3898 0.795622 0.605712 0.00992048
-6.351 -2.99425 8.68025 0.534287 -0.202828 0 -0.533636 6.25484 -0.0896829 0.585937 0.659098 0.746601 -0.0904267
2.2445 -2.9305 13.324 -0.0321753 0.216487 -0.242896 -0.0993964 6.38271 -0.199769 4.50235 0.529716 0.796814 0.29067
-6.464 1.99188 13.131 0.00731747 -0.374414 0 0.0184685 6.42416 -0.596023 2.70698 0.114109 -0.94543 -0.305189
1.0885 -1.792 15.59 -0.344987 0.281872 -0.1352 -0.2 6.5353 0.485408 4.23978 0.785731 0.548415 0.286124
-0.3905 1.08862 16.5249 0.0325132 0.288683 0 0.4 6.67425 0.16957 4.02578 0.735052 0.490011 0.468602
3.03731 -1.60906 11.3639 0.0088269 0.23982 0 -0.0888889 6.67896 0.999849 4.91864 0.822196 0.430406 0.372484
-4.92338 -5.55363 11.0901 0.315841 0.37243 0 -0.2 6.91714 0.080399 6.24464 0.467586 -0.821285 -0.326885
1.37888 -0.50825 8.64587 0.109163 0.10363 0.781538 -0.0888889 6.92929 0.999862 5.15727 0.0043209 0.99807 -0.0619493
-0.030375 -1.28225 7.4885 0.122921 -0.100386 0.00467234 -0.980047 6.93303 0.180699 5.59197 -0.531229 0.845946 0.0465979
-2.309 -6.189 8.945 0.43995 0.16465 0 -0.0888889 6.93431 0.159897 6.07938 -0.990824 0.123307 -0.0553434
2.16725 -3.2545 14.2727 -0.0208384 0.175953 -0.619423 -0.0888889 6.94614 -0.966658 4.50235 0.449237 0.890676 0.069866
-8.03256 0.0735625 15.0258 -0.074313 -0.256535 0 0.317122 6.95294 -0.424753 2.08549 0.517041 -0.337749 -0.786508
-4.036 3.906 11.0367 -0.250796 -0.260444 -0.968542 0.866969 6.97551 0.119188 3.07127 0.922986 0.0195298 -0.384338
-5.77275 1.7585 11.7533 -0.103253 -0.442357 0 -0.777778 6.97798 0.612708 2.90486 0.118718 -0.992596 -0.0256668
-2.011 -5.875 11.0615 0.37523 0.31311 -0.0252554 -0.253553 6.98938 -0.495688 6.07938 -0.733903 -0.671001 -0.105567
-4.76137 2.07962 11.2802 -0.115962 -0.444711 0 -0.777778 7.02205 0.343031 2.90486 0.554042 -0.813106 -0.178594
-3.25887 4.56738 12.2809 -0.43913 -0.201511 -0.328631 0.933333 7.06201 0.662804 3.26932 0.800686 0.402702 -0.443545
2.98381 -2.79806 11.9629 -0.0177105 0.235293 0 -0.0888889 7.07607 0.0389693 4.79988 0.843361 0.450121 0.293484
-0.72125 2.289 16.1483 -0.0342737 0.25763 0 0.4 7.08605 0.999841 3.68972 0.68701 0.597577 0.413423
-9.14338 -2.21881 10.6134 0.047993 -0.212976 0 -0.866667 7.09597 -0.594547 0.926736 0.525658 0.686227 0.502768
0.352625 -2.17337 16.6042 -0.222807 0.28183 -0.770097 -0.2 7.12658 -0.632978 4.23978 0.727082 0.546677 0.415326
-6.17556 -5.75075 9.81419 0.51025 0.283756 0 -0.0888889 7.12826 -0.485206 0.274202 0.879245 -0.409227 -0.243849
-0.048625 -0.01975 17.1349 0.090348 0.282224 0.17214 0.4 7.14397 0.315266 4.02578 0.914035 0.335831 0.227503
-0.7125 -3.14287 6.77037 0.40072 -0.18045 0 -1 7.15573 -0.786713 5.59197 -0.909629 0.176453 0.376085
-3.34713 4.98025 13.9406 -0.22497 0.178706 -0.00143782 0.933333 7.1906 0.474327 3.3898 0.690626 0.722087 -0.0403192
-0.949313 -4.12856 7.11919 0.359443 -0.150417 0 -0.584002 7.19419 -0.611672 5.80449 -0.913709 0.35722 0.193727
-5.61875 -4.25737 7.6965 1 -0.239542 0.473898 -0.866667 7.21375 0.429686 0.274202 0.978629 0.118664 -0.167943
1.949 -2.88838 15.3646 0.0469567 0.161615 -0.0190359 -0.104029 7.24413 -0.297325 4.50235 0.418269 0.908187 -0.0157375
-0.144 -1.296 17.223 0.0337867 0.307708 0 0.4 7.2653 -0.671859 4.23978 0.973384 0.143414 0.178763
-8.08497 -1.88934 9.36447 0.207993 -0.204621 0 -0.866667 7.30266 -0.139227 0.585937 0.524179 0.786561 0.326433
-9.30481 -1.76231 13.5004 -0.51173 -0.159325 -0.615631 -0.777778 7.31203 -0.45824 1.33447 0.595097 0.508562 -0.622273
-8.64675 -1.3 14.493 -0.307199 -0.21222 -0.805512 -0.777778 7.31338 -0.640637 1.77412 0.694924 0.166547 -0.69953
-9.42325 -2.72775 11.9522 -0.069941 -0.168634 0 -0.779522 7.34774 -0.999869 0.926736 0.61736 0.784708 -0.0556738
-2.68963 -5.70463 12.3524 0.373157 0.403879 0 -0.2 7.38511 -0.389516 6.24464 -0.260663 -0.948494 -0.180039
-6.2445 -5.67425 8.35825 0.839817 -0.262286 0.48189 -0.866667 7.39715 -0.593974 0.274202 0.940384 -0.316391 0.124801
-1.90625 -6.818 10.2917 0.36039 0.220772 -0.276012 -0.372184 7.40536 -0.273895 6.07938 -0.962724 -0.18519 0.197148
2.82544 -1.15769 9.54619 0.00558137 0.160405 0 -0.0888889 7.53419 0.459066 4.91864 0.599762 0.800153 -0.00639302
-6.187 -2.8705 7.317 0.785327 -0.188034 0.122961 -0.866667 7.63348 0.873616 0.585937 0.76518 0.638045 -0.0860097
-7.6435 1.70875 13.037 -0.0383143 -0.348554 0 0.173561 7.64081 -0.768098 2.70698 0.439389 -0.897843 -0.0285534
-0.945625 -1.96769 6.20687 0.41249 -0.17276 0 -1 7.65248 0.0726819 5.59197 -0.792355 0.33976 0.506693
-2.635 4.1795 16.67 -0.279625 0.224752 -0.821095 -0.703502 7.65306 -0.0520369 3.3898 0.976227 0.215117 -0.0265578
-7.16125 -2.234 7.76575 0.524633 -0.151428 0.104137 -0.866667 7.69386 0.213785 0.585937 0.557123 0.812604 -0.171138
-2.38525 3.11525 17.1514 -0.092415 0.266963 -0.0187242 0.352111 7.7353 0.273169 3.3898 0.907728 0.15737 0.388928
-5.308 -5.77575 12.31 0.303794 0.382459 0 -0.2 7.80018 -0.624294 6.24464 0.323934 -0.933786 -0.152023
-4.20325 4.8255 11.4265 -0.220652 -0.193776 -0.405314 0.0119865 7.98813 -0.206258 3.07127 0.840367 0.417559 -0.345583
-7.03288 1.72438 11.6827 -0.088661 -0.360883 0 -0.777778 8.00301 0.110981 2.70698 0.166318 -0.974006 -0.15379
-2.18438 -7.15963 8.50113 0.52569 0.175401 0 -0.0888889 8.00887 -0.211752 6.07938 -0.97819 -0.0684411 0.19611
-1.69987 -5.249 6.81862 0.450617 -0.115081 0.09057 -0.79922 8.08577 -0.615685 5.80449 -0.818807 0.560268 0.125122
-4.4855 4.7605 10.415 -0.342483 -0.215563 -0.01597 -0.777778 8.12387 -0.396687 3.07127 0.953016 0.288411 -0.0926233
-4.11125 3.07125 10.2505 -0.46734 -0.336971 -0.675989 -0.700584 8.12467 0.336372 3.07127 0.957848 -0.280915 0.0601128
-1.7585 -6.495 11.9974 0.3505 0.282493 0 -1 8.14006 0.0230992 6.07938 -0.875271 -0.44215 0.195971
-8.909 0.4065 14.286 -0.223873 -0.268014 -0.102703 -0.210171 8.14722 -0.729122 2.08549 0.73117 -0.497013 -0.4673
1.572 -0.953875 7.497 0.332302 0.0851096 0.197939 -0.676238 8.1766 0.159922 5.15727 0.0473165 0.987682 -0.149147
-1.338 1.19181 17.6868 0.0735857 0.211363 -0.0216339 0.4 8.17705 -0.18988 4.02578 0.566838 0.78206 0.258992
3.73475 -3.857 12.9416 -0.590933 0.176683 -0.122123 -0.0888889 8.17867 0.40094 4.50235 0.852845 0.491264 -0.17696
-3.95775 5.3385 12.688 -0.27018 -0.160057 -0.1101 0.636236 8.17951 0.263018 3.26932 0.646367 0.75457 -0.113288
-1.476 -3.1625 5.95813 0.62033 -0.196445 0.397828 -1 8.27065 0.0432137 5.59197 -0.693237 0.143144 0.706351
-3.2905 5.03075 15.7904 -0.174915 0.168182 -0.0880181 0.570087 8.29274 0.0588696 3.3898 0.787444 0.554987 -0.26818
-8.04775 1.27894 13.8454 -0.0537283 -0.307771 0 0.652107 8.30217 -0.659816 2.70698 0.402317 -0.81053 -0.425655
-2.3525 -6.17938 7.56938 0.610377 -0.14512 0.281908 -0.506213 8.31065 0.253721 6.07938 -0.928894 0.314033 0.196315
0.06575 -2.3305 17.754 -0.0134932 0.212585 0 -0.303251 8.322 -0.999892 4.23978 0.80471 0.588191 -0.0804567
-9.64669 -1.105 10.3852 -0.036121 -0.241637 0 -0.866667 8.33934 -0.146609 0.926736 0.861516 0.199114 0.467058
-2.09125 1.976 17.3424 -0.0178084 0.260612 0 0.480791 8.34214 -0.304671 3.68972 0.608348 0.545546 0.576448
-0.39 0.413 18.214 0.164824 0.197073 0.742411 0.4 8.35569 0.620247 4.02578 0.73976 0.671908 0.0359859
3.62036 -3.47747 14.6618 0.0186754 0.0858655 -0.123995 0.241489 8.37817 0.0811992 4.50235 0.240951 0.885612 -0.397031
2.5135 -2.826 16.3565 0.292314 0.0838285 0.566351 -0.0888889 8.38712 0.112942 4.50235 -0.15571 0.98591 -0.0611299
-0.04025 -0.651 6.15987 0.19916 -0.157698 0 -1 8.40403 0.193422 5.59197 -0.333882 0.706318 0.62421
-10.1517 -1.443 12.8884 -0.57693 -0.194944 -0.0908054 -0.810518 8.40461 -0.920442 0.926736 0.884903 0.208359 -0.416574
-1.71375 -7.84975 10.351 0.248422 0.183462 -0.236758 -0.347251 8.45659 -0.791293 6.07938 -0.959066 -0.0283712 0.281756
-2.78744 -5.99862 13.4154 0.311591 0.389502 0 -0.2 8.49234 -0.106675 6.24464 -0.0566234 -0.97951 -0.193273
3.34275 -2.1375 9.62875 -0.085986 0.206211 0 -0.0888889 8.51834 0.296307 4.91864 0.924517 0.35699 0.133518
-5.79563 -5.69025 7.32412 0.66977 -0.23003 0.297821 -0.863844 8.52461 0.225146 0.274202 0.957859 0.0303151 0.285636
-6.27887 -7.16625 9.82987 0.573587 -0.208069 0 -0.0888889 8.54761 -0.176118 0.274202 0.968248 0.150609 -0.199533
-5.243 2.07262 9.748 -0.325034 -0.363061 0 -0.777778 8.62818 0.477433 2.90486 0.239633 -0.959016 -0.151212
-10.237 -1.322 11.2058 -0.214441 -0.22783 -0.238289 -0.866667 8.62934 -0.926325 0.926736 0.927756 0.180387 0.326696
-9.06 -0.9825 9.4 0.0107298 -0.201636 0 -0.866667 8.63469 0.0899438 0.585937 0.709073 0.625695 0.325148
-6.4485 -3.06988 6.36562 0.82373 -0.127444 0.232478 -0.866667 8.64009 0.999867 0.274202 0.581447 0.599726 -0.549771
-6.14825 -6.61194 11.79 0.412833 0.289352 0 -0.120257 8.68071 -0.444363 6.24464 0.929507 -0.355159 -0.0993885
-8.26437 -1.01525 8.31125 0.0134116 -0.154671 0 -0.866667 8.68306 0.802344 0.585937 0.555904 0.831173 -0.0110874
1.475 -1.086 6.477 0.206609 -0.114855 0 -1 8.75726 -0.482249 5.59197 0.0342105 0.968835 0.245335
-5.725 -6.1115 13.164 0.28495 0.324517 0 -0.199861 8.80812 -0.999881 6.24464 0.778413 -0.53643 -0.326062
3.376 -4.46012 11.5696 -0.191809 0.206138 0 -0.819122 8.82848 -0.278033 4.79988 0.97427 0.16452 -0.154046
-0.0955 -1.19987 18.8434 0.0164916 0.203007 0.159773 -0.0159916 8.88927 -0.492711 4.23978 0.9086 0.355301 -0.21956
-6.22325 -6.96025 7.58225 0.517227 -0.213032 0 -0.777778 8.89929 -0.999844 0.274202 0.827747 0.0783912 0.555599
-1.52013 -6.21325 13.1946 0.52676 0.342461 0 -0.2 8.91342 -0.524356 6.24464 -0.53448 -0.837967 0.110193
1.27025 -3.06025 17.866 -0.0368557 0.101242 0.273255 -0.475084 8.92122 -0.839104 4.23978 0.193959 0.966159 -0.170048
-4.19763 5.60075 15.3389 0.0318166 0.119877 0 0.0206054 8.94092 -0.0974179 3.3898 0.500062 0.824202 -0.265761
3.03312 -1.56288 8.17488 0.181967 0.143635 0 -0.227267 8.94686 0.0566503 4.91864 0.589905 0.806294 0.0436145
-1.8625 -1.868 5.281 0.414427 -0.171277 0 -1 8.95932 0.454107 5.59197 -0.642916 0.358324 0.676951
-9.43606 -0.117812 13.4581 -0.329975 -0.23307 -0.0503273 0.201144 8.9623 -0.30643 1.77412 0.804556 -0.193789 -0.561369
-2.13225 -8.094 9.39625 0.419197 0.152195 0 0.107925 8.98051 -0.0980801 6.07938 -0.947777 0.184363 0.260248
-8.17025 -1.88312 7.04 0.270622 -0.089232 0.232979 -0.866667 8.98534 0.677647 0.585937 0.329029 0.739171 -0.587679
-2.41925 5.115 17.606 -0.458127 0.180598 -0.0345117 -0.777778 8.99388 0.999897 3.3898 0.946864 0.319901 -0.0333402
3.59375 -2.9025 16.001 0.233453 0.0414438 0 0.4 9.00777 -0.467417 4.50235 -0.181211 0.922536 -0.34072
-1.81662 -4.56588 5.56887 0.41354 -0.162383 0.340609 -1 9.02366 -0.672701 5.80449 -0.783066 0.239221 0.574091
-6.60156 -7.33588 8.79594 0.630253 -0.201994 0 -0.256651 9.05983 -0.999867 0.274202 0.994857 0.0992303 0.0203263
-2.162 -8.0945 7.9165 0.50133 -0.132365 0 -0.0888889 9.11171 -0.999892 6.07938 -0.909633 0.295624 0.291845
-3.36337 2.64575 18.0592 -0.108321 0.263256 0 0.933333 9.14996 -0.99988 3.3898 0.902201 0.0508714 0.428306
3.38225 -3.56625 9.8885 -0.149365 0.225561 0 -0.0888889 9.15412 -0.133335 4.91864 0.981964 0.029861 0.186693
-8.84081 0.750188 12.7536 -0.0905627 -0.30689 0 0.4 9.20052 -0.0673089 2.70698 0.626112 -0.771068 -0.115926
-0.3745 0.1745 19.2265 -0.060378 0.198649 -0.603755 0.4 9.2697 -0.0339224 4.02578 0.929815 0.352107 -0.107073
-4.608 6.026 11.9055 -0.0887107 -0.16041 0 -0.777778 9.34255 0.451738 3.26932 0.68848 0.718403 0.0994643
-5.1055 5.892 13.079 -0.0616007 -0.145676 0 -0.648622 9.35058 -0.306029 3.3898 0.455329 0.8685 0.195915
-6.111 -5.624 6.089 0.57352 -0.162203 0.517632 -0.801127 9.38033 -0.586464 0.274202 0.902457 0.418943 -0.100291
-9.65375 -0.18225 9.868 -0.0384657 -0.20692 0 -0.866667 9.39717 0.035881 0.926736 0.944339 0.32223 0.066263
-7.16862 2.01875 10.3194 -0.231346 -0.304008 0 -0.777778 9.40432 0.403521 2.70698 -0.1478 -0.973047 -0.177015
0.5025 -2.1185 18.7365 -0.127629 0.113395 -0.194862 -0.777778 9.4179 -0.477351 4.23978 0.432772 0.748696 -0.502157
-2.90875 4.09081 18.5298 -0.48005 0.218176 0 -0.777778 9.50328 0.149452 3.3898 0.93335 0.0431182 0.356369
-3.975 2.80675 8.89725 -0.39338 -0.296746 -0.127209 -0.777778 9.51024 0.999908 3.07127 0.737058 -0.577521 -0.351019
-4.487 4.90325 9.013 -0.565527 -0.166607 0 -0.492269 9.53312 0.272477 3.07127 0.825406 0.350902 -0.442236
-0.950875 -7.54581 12.4346 0.0322214 0.264875 -0.245019 -1 9.53563 0.0521168 6.07938 -0.632297 -0.545991 0.549632
-6.10838 -7.2915 10.8197 0.50502 -0.223567 0 -0.0888889 9.5598 0.0510481 0.274202 0.978062 0.207388 -0.01962
4.334 -4.923 13.6318 -0.21716 0.136113 0 0.388329 9.58289 -0.23039 4.50235 0.722507 0.41949 -0.549556
-6.624 -4.5115 5.5635 0.468287 -0.102032 0 -0.866667 9.58542 0.1465 0.274202 0.517749 0.639978 -0.567772
-4.76788 6.18337 10.7781 -0.0368843 -0.190813 0 -0.777778 9.59531 0.0710087 3.07127 0.95694 0.275616 0.0911152
-1.463 -8.376 11.3333 0.176508 0.211762 -0.105314 -1 9.59884 0.32598 6.07938 -0.806276 -0.255371 0.533577
-1.19175 1.08975 19.1073 -0.155673 0.126697 -0.305806 0.4 9.6087 0.164129 4.02578 0.46256 0.861148 -0.210861
3.3245 -2.42438 17.1964 0.0549257 0.0323618 0.0560605 -0.144931 9.62181 0.0252702 4.50235 -0.441055 0.838739 -0.319354
-2.81013 -7.37475 7.02338 0.598937 -0.163354 0.0306396 -1 9.628 -0.310992 6.07938 -0.632572 0.310152 0.709689
-4.83238 -6.22475 14.045 0.203985 0.339883 0 -0.172968 9.65438 -0.343419 6.24464 0.337459 -0.863933 -0.373821
2.482 -2.9365 17.625 0.19241 0.0398609 0.501398 -0.115884 9.66081 -0.884664 4.50235 -0.387638 0.880611 -0.27251
-8.25669 2.225 10.649 -0.118063 -0.26329 0 0.4 9.68136 -0.654195 2.70698 0.102 -0.921986 -0.373547
-2.88225 -6.48225 6.32975 0.59626 -0.112481 0.800479 -1 9.69233 0.105173 5.80449 -0.654714 0.679947 0.330186
-3.367 6.027 16.8283 -0.213069 -0.124041 0 -0.777778 9.73344 0.41346 3.3898 0.674356 0.599216 -0.431491
0.959188 -0.337687 5.328 0.221576 -0.128265 0 -1 9.74158 0.471389 5.59197 0.259281 0.892907 0.368089
-7.69875 -3.17213 5.98338 0.781853 -0.0825309 0.112886 -0.866667 9.77853 0.118032 0.585937 0.299425 0.616534 -0.728169
-0.8 0.19875 5.3555 0.085571 -0.123065 0 -1 9.79913 0.999928 5.59197 -0.210525 0.880777 0.42416
-3.84325 3.8935 8.8005 -0.580343 -0.211485 -0.0671802 -0.777778 9.81299 0.999899 3.07127 0.93407 0.220152 -0.281153
-9.39925 -0.69575 8.29525 0.0114345 -0.113682 0 -0.866667 9.8254 0.0238771 0.585937 0.516402 0.75225 -0.409204
-10.1956 -0.223 12.1319 -0.318546 -0.240108 -0.563898 -0.758511 9.84079 -0.999829 0.926736 0.948219 -0.288896 -0.131983
-8.74413 1.04475 11.6525 -0.0659547 -0.274308 0 0.4 9.84453 0.178468 2.70698 0.462599 -0.739102 -0.489623
4.86562 -4.26638 14.4727 -0.0185187 0.0961968 0 0.4 9.86438 -0.036087 4.50235 0.371503 0.450611 -0.811748
-2.85106 1.43381 18.5451 0.00659263 0.176625 0 0.663833 9.86457 -0.999878 3.68972 0.570784 0.815801 0.0931418
3.77225 -5.45375 12.3988 -0.159891 0.170563 -0.0337584 -0.437629 9.86557 -0.86638 4.50235 0.905747 0.275174 -0.322337
-1.88644 -9.22363 10.6494 0.397807 0.156106 0 0.844444 9.87307 -0.0799102 6.07938 -0.616614 0.425512 0.662365
-5.0945 2.38025 8.52125 -0.57556 -0.270734 -0.0940975 -0.777778 9.9016 0.999876 2.90486 0.251057 -0.772446 -0.583351
-6.14975 -8.38775 9.2365 0.642467 -0.158792 0 0.597371 9.91173 -0.682244 0.274202 0.864514 0.496605 -0.0774548
3 154 191 141
3 154 141 104
3 154 104 188
3 141 92 104
3 34 56 54
3 138 92 141
3 124 138 167
3 138 141 191
3 89 176 139
3 188 139 176
3 89 139 100
3 100 104 63
3 44 63 34
3 44 20 18
3 20 34 8
3 8 27 5
3 27 13 5
3 13 27 54
3 12 13 24
3 54 61 36
3 165 118 164
3 120 87 149
3 149 186 120
3 97 89 44
3 44 18 50
3 72 42 53
3 18 8 15
3 21 15 7
3 8 18 20
3 3 5 0
3 16 17 33
3 36 38 24
3 59 57 74
3 59 74 37
3 94 93 152
3 74 121 65
3 162 193 108
3 108 193 184
3 108 184 168
3 168 136 108
3 108 136 78
3 78 136 112
3 112 111 75
3 79 46 75
3 107 111 177
3 107 164 118
3 118 79 107
3 46 22 41
3 46 41 78
3 22 28 6
3 6 28 25
3 46 52 22
3 22 52 28
3 52 51 28
3 25 28 60
3 60 28 62
3 52 87 51
3 51 87 62
3 62 87 120
3 103 62 120
3 155 103 120
3 155 170 103
3 103 170 105
3 62 105 125
3 53 88 110
3 110 122 72
3 122 181 109
3 122 109 72
3 69 44 50
3 50 96 106
3 72 98 42
3 98 131 113
3 113 131 178
3 109 153 98
3 131 197 178
3 182 96 132
3 96 113 147
3 147 132 96
3 102 48 71
3 21 40 48
3 48 40 71
3 40 49 70
3 10 23 7
3 7 1 10
3 4 10 1
3 4 1 0
3 4 6 11
3 6 2 9
3 6 9 19
3 41 19 39
3 41 39 65
3 78 41 76
3 65 76 41
3 65 39 37
3 31 37 39
3 76 65 108
3 25 26 11
3 11 26 14
3 14 26 43
3 47 67 85
3 125 116 67
3 142 129 71
3 129 102 71
3 142 71 115
3 115 71 70
3 99 70 49
3 99 49 58
3 30 49 23
3 58 30 35
3 29 35 10
3 10 14 29
3 14 43 29
3 43 91 83
3 66 43 83
3 91 163 145
3 163 126 179
3 99 133 150
3 117 80 64
3 68 35 80
3 80 35 64
3 64 35 29
3 64 29 55
3 55 66 90
3 66 83 90
3 80 117 144
3 196 117 175
3 175 117 127
3 127 194 175
3 117 64 127
3 90 128 156
3 180 128 183
3 30 58 49
3 63 56 34
3 56 63 92
3 104 92 63
3 54 56 92
3 82 54 92
3 82 138 124
3 82 92 138
3 134 166 89
3 89 166 176
3 44 89 63
3 63 89 100
3 12 5 13
3 94 57 93
3 93 57 61
3 57 36 61
3 36 57 38
3 137 82 124
3 146 134 97
3 84 135 158
3 84 158 97
3 146 97 158
3 97 44 84
3 50 18 42
3 21 53 15
3 15 42 18
3 42 15 53
3 7 15 3
3 7 3 1
3 3 15 8
3 0 1 3
3 2 0 5
3 12 2 5
3 16 2 17
3 17 2 12
3 17 12 24
3 33 17 57
3 17 38 57
3 24 38 17
3 16 32 37
3 59 32 33
3 16 33 32
3 31 16 37
3 59 33 57
3 59 37 32
3 74 57 94
3 121 74 114
3 121 114 162
3 162 114 152
3 152 114 74
3 152 74 94
3 130 192 152
3 130 152 93
3 152 192 162
3 137 192 95
3 82 137 95
3 192 130 95
3 82 95 54
3 54 95 61
3 61 95 93
3 130 93 95
3 101 121 162
3 65 121 101
3 65 101 108
3 108 101 162
3 46 78 75
3 75 78 112
3 107 79 75
3 111 107 75
3 177 111 172
3 62 28 51
3 105 62 103
3 160 125 105
3 160 105 170
3 102 151 119
3 86 102 119
3 88 86 119
3 157 110 88
3 157 88 119
3 159 109 181
3 153 109 159
3 199 158 135
3 174 135 140
3 140 135 84
3 140 84 69
3 44 69 84
3 69 106 140
3 96 50 77
3 96 77 113
3 42 98 77
3 42 77 50
3 77 98 113
3 197 131 153
3 153 131 98
3 143 140 106
3 143 106 182
3 147 113 173
3 48 86 88
3 48 88 53
3 48 53 21
3 102 86 48
3 70 71 40
3 23 49 40
3 16 31 19
3 16 19 9
3 16 9 2
3 22 6 19
3 19 41 22
3 85 67 116
3 85 116 126
3 179 126 116
3 195 179 116
3 195 125 160
3 116 125 195
3 187 129 142
3 11 14 4
3 4 14 10
3 55 29 43
3 26 47 43
3 148 83 123
3 148 123 169
3 91 123 83
3 145 169 123
3 123 91 145
3 73 64 55
3 127 64 73
3 127 73 90
3 90 73 55
3 83 148 90
3 90 148 128
3 148 183 128
3 156 127 90
3 180 156 128
3 139 188 104
3 139 104 100
3 34 20 44
3 54 27 34
3 8 34 27
3 13 54 36
3 165 87 118
3 134 89 97
3 5 3 8
3 36 24 13
3 190 172 111
3 112 190 111
3 112 171 190
3 136 171 112
3 171 136 198
3 107 177 164
3 52 79 87
3 79 52 46
3 79 118 87
3 186 155 120
3 110 185 122
3 181 122 185
3 69 50 106
3 109 98 72
3 53 110 72
3 40 21 23
3 23 21 7
3 2 6 0
3 4 0 6
3 31 39 19
3 65 37 74
3 76 108 78
3 25 11 6
3 45 60 47
3 45 47 26
3 45 26 25
3 45 25 60
3 60 62 81
3 60 81 47
3 67 47 81
3 62 125 81
3 125 67 81
3 189 129 187
3 106 96 182
3 178 173 113
3 115 70 150
3 150 70 99
3 30 23 10
3 35 30 10
3 85 43 47
3 43 85 91
3 126 163 85
3 85 163 91
3 58 35 68
3 68 99 58
3 55 43 66
3 80 161 68
3 68 161 133
3 68 133 99
3 144 117 196
3 80 144 161
