ply
format ascii 1.0
comment Generated by PyMesh
element vertex 200
property float x
property float y
property float z
property float charge
property float ddc
property float hbond
property float hphob
property float rho
property float si
property float theta
property float nx
property float ny
property float nz
element face 336
property list uchar int vertex_indices
end_header
-3.67 -3.37725 10.0363 0.238417 0 0 -0.2 1e-08 0.259178 2.22045e-16 0.0528347 0.22804 -0.972217
-3.648 -2.5685 10.791 0.102482 0.593017 0 -0.2 1.10641 0.243116 1.94868 0.0512143 0.888126 -0.456737
-4.73887 -2.95038 10.0363 0.168411 -0.253604 0 -0.2 1.15096 0.440618 0.704771 0.215907 0.495566 -0.841308
-2.55194 -2.87169 10.2829 0.0562423 -0.348486 -0.338533 -0.154071 1.25158 -0.147396 2.98971 -0.412992 0.578452 -0.703442
-2.61469 -4.94441 9.86416 0.323553 0.532621 0 -0.0888889 1.89718 0.0684234 4.30414 -0.775368 -0.219062 -0.592297
-5.271 -4.34734 9.45378 0.429117 -0.509901 0 -0.2 1.96051 0.0790899 2.22045e-16 0.716884 -0.165769 -0.677199
-3.67925 -5.23994 10.9784 0.37313 0.642488 0 -0.2 2.0874 -0.054301 5.09596 -0.0577555 -0.859388 -0.508052
-3.47725 -2.18625 11.8475 0.0116938 0.32441 0 -0.2 2.24283 -0.07272 2.11113 -0.3464 0.841313 -0.414969
-5.82725 -2.50425 9.9965 0.16658 0.276183 0 -0.2 2.3279 0.279194 0.747716 0.185066 0.85031 -0.49267
-1.991 -1.967 11.037 -0.109312 0.342168 0 -0.2 2.55611 0.0152856 2.70064 -0.456314 0.833743 -0.310886
-1.62925 -2.0845 9.506 -0.3736 -0.315829 -0.239979 -0.0888889 2.69193 0.693731 3.07068 -0.672234 0.587866 -0.450016
-4.92338 -5.55363 11.0901 0.315841 0.539185 0 -0.2 3.37532 0.080399 5.53581 0.467586 -0.821285 -0.326885
-6.951 -2.5145 9.9525 0.198646 0.323726 0 -0.2 3.45255 -0.0955885 0.740354 0.21621 0.976343 0.00262576
-2.309 -6.189 8.945 0.43995 -0.391525 0 -0.0888889 3.4743 0.159897 4.26291 -0.990824 0.123307 -0.0553434
-2.011 -5.875 11.0615 0.37523 0.477321 -0.0252554 -0.253553 3.52938 -0.495688 4.68175 -0.733903 -0.671001 -0.105567
-3.15875 -1.42963 12.8542 0.0612547 0.177332 0.542764 0.4 3.54182 0.166984 2.12137 -0.499533 0.666475 -0.553423
-2.33325 -1.6125 12.1005 0.0651217 0.203254 0.0357752 -0.134356 3.54741 -0.221343 2.39068 -0.27871 0.82363 -0.493918
-4.69075 -2.53175 13.1115 -0.183255 0.297987 0 -0.2 3.65069 -0.383292 1.75508 -0.350228 0.931539 -0.0978508
-6.17556 -5.75075 9.81419 0.51025 0.409746 0 -0.0888889 3.66863 -0.485206 5.96934 0.879245 -0.409227 -0.243849
-1.03 -3.787 8.5425 0.191599 -0.298132 -0.000550657 -0.0888889 3.73816 -0.66072 3.64199 -0.841293 0.29785 -0.451123
-5.61875 -4.25737 7.6965 1 -0.412795 0.473898 -0.866667 3.75413 0.429686 0.107984 0.978629 0.118664 -0.167943
-6.2165 -2.099 11.352 -0.0479317 0.34997 0 -0.2 3.77705 0.734313 1.15919 -0.0671779 0.99727 0.0306544
-6.351 -2.99425 8.68025 0.534287 -0.374239 0 -0.533636 3.82687 -0.0896829 0.442799 0.659098 0.746601 -0.0904267
-2.68963 -5.70463 12.3524 0.373157 0.456158 0 -0.2 3.8433 -0.389516 4.98402 -0.260663 -0.948494 -0.180039
-6.2445 -5.67425 8.35825 0.839817 -0.420607 0.48189 -0.866667 3.93752 -0.593974 6.14097 0.940384 -0.316391 0.124801
-1.90625 -6.818 10.2917 0.36039 0.399707 -0.276012 -0.372184 3.94536 -0.273895 4.51325 -0.962724 -0.18519 0.197148
-0.47025 -1.53 9.122 -0.106855 -0.251359 -0.47734 -0.0888889 4.0329 0.17356 3.11011 -0.559631 0.807507 -0.186402
-0.977813 -1.33644 11.9819 0.0576827 0.234287 0 -0.155669 4.07827 -0.143982 2.60815 -0.0664935 0.980925 -0.18266
-5.308 -5.77575 12.31 0.303794 0.432999 0 -0.2 4.25837 -0.624294 5.41212 0.323934 -0.933786 -0.152023
-0.426 -1.17206 10.6077 -0.082501 0.250126 0 -0.0888889 4.36316 0.701762 2.84629 -0.363504 0.925447 -0.106831
-0.620125 -2.47038 8.16737 0.103473 -0.309403 -0.60344 -0.38732 4.41215 -0.131727 3.38672 -0.933496 0.310793 -0.178866
-2.18438 -7.15963 8.50113 0.52569 -0.348868 0 -0.0888889 4.54886 -0.211752 4.38461 -0.97819 -0.0684411 0.19611
-1.7585 -6.495 11.9974 0.3505 0.390345 0 -1 4.68006 0.0230992 4.72822 -0.875271 -0.44215 0.195971
-5.72906 -2.47112 12.6509 -0.209615 0.344619 0 -0.2 4.7882 -0.310485 1.45075 -0.0788777 0.986902 0.140719
-4.765 -2.518 14.248 -0.200502 0.215358 0 -0.2 4.7897 -0.84256 1.7224 -0.364464 0.919285 -0.148599
-3.69738 -1.33834 13.9881 0.059151 0.177267 0.407209 0.4 4.80046 -0.414425 1.97985 -0.730711 0.470451 -0.494709
-7.99203 -2.64528 11.2072 0.106454 0.259139 0 -0.2 4.81224 -0.397675 0.98855 -0.0144315 0.992396 0.122235
-2.3525 -6.17938 7.56938 0.610377 -0.355454 0.281908 -0.506213 4.85064 0.253721 4.25119 -0.928894 0.314033 0.196315
-8.08497 -1.88934 9.36447 0.207993 -0.299644 0 -0.866667 4.8747 -0.139227 0.716895 0.524179 0.786561 0.326433
-1.63806 -0.748062 12.9071 0.207123 0.0728486 0 0.0257813 4.91896 0.00689755 2.38007 -0.00624998 0.683988 -0.729466
-2.78744 -5.99862 13.4154 0.311591 0.359882 0 -0.2 4.95053 -0.106675 4.96085 -0.0566234 -0.97951 -0.193273
-1.71375 -7.84975 10.351 0.248422 0.31802 -0.236758 -0.347251 4.99658 -0.791293 4.57684 -0.959066 -0.0283712 0.281756
-5.79563 -5.69025 7.32412 0.66977 -0.388884 0.297821 -0.863844 5.06498 0.225146 6.14275 0.957859 0.0303151 0.285636
-6.27887 -7.16625 9.82987 0.573587 -0.276965 0 -0.0888889 5.08799 -0.176118 5.81268 0.968248 0.150609 -0.199533
-6.14825 -6.61194 11.79 0.412833 0.336606 0 -0.120257 5.1389 -0.444363 5.5562 0.929507 -0.355159 -0.0993885
-0.949313 -4.12856 7.11919 0.359443 -0.343229 0 -0.584002 5.20411 -0.611672 3.71287 -0.913709 0.35722 0.193727
-6.187 -2.8705 7.317 0.785327 -0.316027 0.122961 -0.866667 5.20552 0.873616 0.361012 0.76518 0.638045 -0.0860097
-7.16125 -2.234 7.76575 0.524633 -0.239625 0.104137 -0.866667 5.2659 0.213785 0.473919 0.557123 0.812604 -0.171138
-5.725 -6.1115 13.164 0.28495 0.301649 0 -0.199861 5.2663 -0.999881 5.41075 0.778413 -0.53643 -0.326062
-1.52013 -6.21325 13.1946 0.52676 0.354356 0 -0.2 5.3716 -0.524356 4.82979 -0.53448 -0.837967 0.110193
-6.22325 -6.96025 7.58225 0.517227 -0.345947 0 -0.777778 5.43966 -0.999844 5.96952 0.827747 0.0783912 0.555599
-2.13225 -8.094 9.39625 0.419197 0.296727 0 0.107925 5.5205 -0.0980801 4.54211 -0.947777 0.184363 0.260248
0.656875 -0.954625 11.0969 0.257629 0.239407 0 -0.0888889 5.57114 0.407777 2.79336 -0.172353 0.969797 0.17259
-6.60156 -7.33588 8.79594 0.630253 -0.283303 0 -0.256651 5.6002 -0.999867 5.8652 0.994857 0.0992303 0.0203263
-2.162 -8.0945 7.9165 0.50133 -0.273513 0 -0.0888889 5.65171 -0.999892 4.42991 -0.909633 0.295624 0.291845
-0.27 -0.883 13.3573 0.187824 0.13458 0 -0.2 5.69021 -0.074031 2.36516 0.52276 0.654727 -0.545943
-6.4485 -3.06988 6.36562 0.82373 -0.163376 0.232478 -0.866667 5.72132 0.999867 0.290807 0.581447 0.599726 -0.549771
0.94725 -0.8885 9.82619 0.196768 0.202772 0.025898 -0.0888889 5.74074 0.0536257 2.94951 -0.162998 0.986589 -0.00857057
-0.030375 -1.28225 7.4885 0.122921 -0.232824 0.00467234 -0.980047 5.74264 0.180699 3.31042 -0.531229 0.845946 0.0465979
-2.90569 0.68025 13.7451 0.049932 -0.0719975 0 0.4 5.84601 0.0684272 2.17234 -0.312653 0.115108 -0.942867
-1.69987 -5.249 6.81862 0.450617 -0.305621 0.09057 -0.79922 5.87766 -0.615685 3.98945 -0.818807 0.560268 0.125122
-6.111 -5.624 6.089 0.57352 -0.243166 0.517632 -0.801127 5.9207 -0.586464 6.16325 0.902457 0.418943 -0.100291
-5.90675 -2.65587 14.3011 -0.117535 0.19809 0 -0.2 5.94097 -0.7564 1.56346 0.000315313 0.991663 -0.12886
-0.7125 -3.14287 6.77037 0.40072 -0.352857 0 -1 5.96534 -0.786713 3.5739 -0.909629 0.176453 0.376085
-5.15737 -2.20863 15.3814 -0.0770677 0.0745858 -0.423582 0.4 6.02835 -0.999859 1.7224 -0.285748 0.688131 -0.666951
-1.22113 0.0809375 13.5485 0.0400333 0.0627254 0 0.4 6.047 -0.0746796 2.38007 0.27894 0.353428 -0.892906
-3.83075 -0.304 14.6757 -0.026281 -0.129957 -0.0434052 0.446411 6.04964 -0.560929 1.97985 -0.607594 -0.0369576 -0.793388
-0.950875 -7.54581 12.4346 0.0322214 0.332783 -0.245019 -1 6.07562 0.0521168 4.72822 -0.632297 -0.545991 0.549632
-6.10838 -7.2915 10.8197 0.50502 -0.295102 0 -0.0888889 6.10017 0.0510481 5.81268 0.978062 0.207388 -0.01962
-4.83238 -6.22475 14.045 0.203985 0.286276 0 -0.172968 6.11256 -0.343419 5.41075 0.337459 -0.863933 -0.373821
-6.624 -4.5115 5.5635 0.468287 -0.128303 0 -0.866667 6.12579 0.1465 6.16325 0.517749 0.639978 -0.567772
-1.463 -8.376 11.3333 0.176508 0.312766 -0.105314 -1 6.13883 0.32598 4.57684 -0.806276 -0.255371 0.533577
0.721 -1.61625 13.153 0.124071 0.210686 0 -0.2 6.16052 -0.13008 2.36516 0.550536 0.834086 0.034786
-2.81013 -7.37475 7.02338 0.598937 -0.33803 0.0306396 -1 6.16799 -0.310992 4.42991 -0.632572 0.310152 0.709689
-9.14338 -2.21881 10.6134 0.047993 -0.275061 0 -0.866667 6.17609 -0.594547 0.98855 0.525658 0.686227 0.502768
1.37888 -0.50825 8.64587 0.109163 0.171327 0.781538 -0.0888889 6.19853 0.999862 2.94951 0.0043209 0.99807 -0.0619493
-9.06 -0.9825 9.4 0.0107298 -0.246866 0 -0.866667 6.20673 0.0899438 0.716895 0.709073 0.625695 0.325148
-2.88225 -6.48225 6.32975 0.59626 -0.284781 0.800479 -1 6.23233 0.105173 4.25119 -0.654714 0.679947 0.330186
-8.26437 -1.01525 8.31125 0.0134116 -0.21292 0 -0.866667 6.25509 0.802344 0.716895 0.555904 0.831173 -0.0110874
1.33506 -1.27988 11.9929 0.171192 0.26517 0 -0.184761 6.39186 0.187838 2.79336 0.263704 0.797677 0.542376
-1.88644 -9.22363 10.6494 0.397807 0.270764 0 0.844444 6.41306 -0.0799102 4.57684 -0.616614 0.425512 0.662365
-9.42325 -2.72775 11.9522 -0.069941 -0.187716 0 -0.779522 6.42786 -0.999869 0.98855 0.61736 0.784708 -0.0556738
-1.91937 -6.21275 14.6142 0.51438 0.257884 0.0700813 -0.50916 6.44603 -0.761247 4.82979 -0.314087 -0.892927 -0.322539
-6.14975 -8.38775 9.2365 0.642467 -0.219984 0 0.597371 6.45211 -0.682244 5.8652 0.864514 0.496605 -0.0774548
-0.945625 -1.96769 6.20687 0.41249 -0.324594 0 -1 6.46208 0.0726819 3.5739 -0.792355 0.33976 0.506693
-8.17025 -1.88312 7.04 0.270622 -0.105788 0.232979 -0.866667 6.55737 0.677647 0.473919 0.329029 0.739171 -0.587679
-5.77 -8.44 10.563 0.568423 -0.248786 0 -0.0888889 6.64326 0.23855 5.81268 0.951713 0.306736 0.0124313
-8.49575 -2.5645 12.975 -0.0942213 0.138114 -0.18369 -0.368789 6.65218 -0.54535 0.98855 0.186533 0.919786 -0.345252
-6.109 -8.09013 8.2005 0.609747 -0.278063 0.0100599 -0.777778 6.68004 -0.999782 5.8652 0.704026 0.548252 0.451407
-7.47087 -2.52638 13.4104 -0.0864843 0.185814 0 -0.2 6.6892 -0.109034 1.56346 0.181217 0.970668 -0.157999
-2.77375 -9.09387 9.28175 0.433723 -0.217934 0 0.844444 6.71397 -0.218317 4.54211 -0.625672 0.758327 0.182961
-1.476 -3.1625 5.95813 0.62033 -0.37828 0.397828 -1 6.80371 0.0432137 3.5739 -0.693237 0.143144 0.706351
-4.75675 0.05125 15.3105 -0.106209 -0.138051 -0.141506 0.669609 6.9918 -0.407501 1.97985 -0.547288 -0.301542 -0.780735
-7.69875 -3.17213 5.98338 0.781853 -0.0777759 0.112886 -0.866667 7.03269 0.118032 0.290807 0.299425 0.616534 -0.728169
-1.81662 -4.56588 5.56887 0.41354 -0.332612 0.340609 -1 7.03358 -0.672701 3.98945 -0.783066 0.239221 0.574091
-3.731 -6.37675 15.2506 0.378683 0.238042 0 -0.2 7.04844 -0.78274 4.96085 0.146035 -0.903592 -0.402736
2.11538 -0.606875 10.9895 0.0126506 0.195192 0 -0.0888889 7.07437 0.999888 2.79336 0.181246 0.959523 0.21556
-3.04312 -9.22025 8.00725 0.43946 -0.238597 0 0.844444 7.08416 -0.999875 4.42991 -0.450346 0.747347 0.488529
-4.69228 -7.21006 6.58134 0.7131 -0.301803 0.096704 -0.777778 7.08462 -0.0381626 5.96952 0.412367 0.69768 0.585829
-7.06962 -2.47638 14.4404 -0.0257032 0.134062 0.0962312 -0.376944 7.12583 -0.731081 1.56346 0.328211 0.848099 -0.415938
-6.14838 -8.3445 12.8004 0.305386 0.228966 0 -0.0888889 7.14456 -0.577007 5.5562 0.998638 0.0306221 -0.0422442
-0.04025 -0.651 6.15987 0.19916 -0.264568 0 -1 7.21363 0.193422 3.31042 -0.333882 0.706318 0.62421
-4.18175 0.935375 14.1839 -0.0221448 -0.174447 0 0.924198 7.21932 -0.18944 2.17234 -0.205217 -0.606615 -0.768052
-7.5915 -4.8935 5.11925 -0.00991547 -0.0923747 0.514298 -0.866667 7.25687 -0.813618 6.16325 0.355514 0.720587 -0.595285
-0.571625 -9.07475 11.6154 0.316279 0.288949 -0.00596384 -0.972213 7.30604 -0.150563 4.57684 -0.446835 -0.276825 0.850709
-9.65375 -0.18225 9.868 -0.0384657 -0.206328 0 -0.866667 7.30762 0.035881 0.716895 0.944339 0.32223 0.066263
-5.79569 -1.33506 16.1006 -0.0309629 -0.0226288 0 0.4 7.32751 -0.999871 1.7224 -0.124208 0.290816 -0.948682
-6.183 -5.011 4.536 0.226191 -0.21404 0.967173 -1 7.35043 0.0722563 6.16325 0.30348 0.907268 0.291145
-9.64669 -1.105 10.3852 -0.036121 -0.260345 0 -0.866667 7.35991 -0.146609 0.716895 0.861516 0.199114 0.467058
1.572 -0.953875 7.497 0.332302 0.1506 0.197939 -0.676238 7.37833 0.159922 3.31042 0.0473165 0.987682 -0.149147
-5.70131 -7.94219 14.2342 0.465197 0.189507 0 -0.0888889 7.38699 -0.359134 5.41075 0.924738 -0.100025 -0.367226
-9.39925 -0.69575 8.29525 0.0114345 -0.126261 0 -0.866667 7.39744 0.0238771 0.716895 0.516402 0.75225 -0.409204
-0.118719 0.483594 14.4014 -0.026709 0.137768 0 0.4 7.41665 0.265661 2.36516 0.788998 0.16338 -0.592275
0.031 -7.35913 13.8882 0.636333 0.24248 0.318217 -0.960587 7.42103 -0.484615 4.82979 -0.612271 -0.790601 0.00867966
-3.42144 2.20444 13.4284 -0.243935 -0.153072 -0.116342 0.9093 7.48597 -0.172714 2.17234 0.306256 -0.504535 -0.80725
-3.716 -6.85975 5.448 0.579937 -0.246067 0.268141 -1 7.5032 -0.999864 4.25119 -0.263335 0.865654 0.425791
-2.69287 -5.83144 5.22319 0.455863 -0.294987 0.425143 -1 7.52998 -0.739062 3.98945 -0.654214 0.459018 0.601088
1.475 -1.086 6.477 0.206609 -0.191676 0 -1 7.56686 -0.482249 3.31042 0.0342105 0.968835 0.245335
-8.982 -2.2765 6.4235 0.0985167 -0.0671512 0 -0.866667 7.64997 0.225585 0.473919 0.208589 0.693139 -0.689962
2.82544 -1.15769 9.54619 0.00558137 0.170991 0 -0.0888889 7.65867 0.459066 2.94951 0.599762 0.800153 -0.00639302
1.41825 -2.4965 14.165 -0.0174466 0.189835 -0.188425 -0.2 7.67218 -0.577821 2.36516 0.754722 0.655694 0.021473
-1.30175 1.72675 13.5933 -0.0387437 0.0476342 0 0.4 7.69539 0.635166 2.17234 0.251486 0.358882 -0.898865
-10.237 -1.322 11.2058 -0.214441 -0.22874 -0.238289 -0.866667 7.70945 -0.926325 0.98855 0.927756 0.180387 0.326696
-5.27969 -9.23044 9.6165 0.54384 -0.224038 0 1 7.72157 -0.152386 5.8652 0.552825 0.793218 0.255323
-1.30838 -7.12044 15.2753 0.716963 0.177835 0.477581 -0.777778 7.72441 -0.300777 4.82979 -0.452784 -0.683757 -0.572243
-4.87 -7.05025 15.4299 0.42535 0.216578 0 -0.0888889 7.72526 -0.21173 5.41075 0.602014 -0.722362 -0.340253
-3.57711 -9.55381 9.77205 0.436577 -0.217048 0 0.913024 7.76151 0.132051 4.54211 -0.197054 0.922204 0.33273
-1.8625 -1.868 5.281 0.414427 -0.317953 0 -1 7.76892 0.454107 3.5739 -0.642916 0.358324 0.676951
-2.06519 2.4575 13.891 -0.0912767 0.0940633 0 0.4 7.8174 0.0798758 2.17234 0.582739 0.418386 -0.696684
-9.30481 -1.76231 13.5004 -0.51173 -0.105454 -0.615631 -0.777778 7.90682 -0.45824 0.98855 0.595097 0.508562 -0.622273
-1.33125 -10.4866 11.3071 0.442793 0.237369 0 0.844444 7.94143 -0.463431 4.57684 -0.287108 0.373615 0.882032
0.461 -0.8215 15.4971 -0.179853 0.189489 -0.262187 -0.00454918 7.95226 0.0375989 2.36516 0.923269 0.377674 0.0702589
-7.58725 -5.17525 4.094 -0.0551233 -0.0504857 0.672859 -1 8.00405 0.185181 6.16325 -0.109349 0.717811 -0.687598
-4.2395 -8.5735 7.08169 0.515497 -0.281493 0 -0.918367 8.0344 -0.999835 4.42991 0.129076 0.635443 0.761282
-5.6675 -9.7635 11.0267 0.39355 0.227727 0 0.661547 8.04938 -0.536952 5.81268 0.829797 0.432144 0.353113
-3.82663 -9.5445 8.57913 0.41984 -0.197771 0 0.913713 8.05759 -0.8139 4.42991 -0.0289599 0.975135 0.219709
-5.05225 -9.12525 8.24525 0.259349 -0.231958 0.0785852 0.778944 8.15997 -0.999817 5.8652 0.439157 0.814084 0.380011
-10.1517 -1.443 12.8884 -0.57693 -0.147683 -0.0908054 -0.810518 8.17648 -0.920442 0.98855 0.884903 0.208359 -0.416574
2.2445 -2.9305 13.324 -0.0321753 0.204149 -0.242896 -0.0993964 8.17981 -0.199769 2.36516 0.529716 0.796814 0.29067
-5.345 0.7695 14.552 -0.0206934 -0.192704 0 0.933333 8.19065 0.669516 2.17234 -0.203801 -0.759961 -0.617191
-10.1615 0.4705 8.58675 -0.04119 -0.153955 0 -0.866667 8.2032 -0.215396 0.716895 0.911713 0.337515 -0.234228
3.03312 -1.56288 8.17488 0.181967 0.16857 0 -0.227267 8.2161 0.0566503 2.94951 0.589905 0.806294 0.0436145
3.03731 -1.60906 11.3639 0.0088269 0.219745 0 -0.0888889 8.23622 0.999849 2.79336 0.822196 0.430406 0.372484
-5.719 -0.127 16.1567 -0.0384123 -0.11543 0 0.798507 8.28553 -0.999911 1.97985 -0.158741 -0.406461 -0.899773
-2.817 -4.43525 4.809 0.438413 -0.33921 0.745353 -1 8.2966 -0.632374 3.98945 -0.582432 0.0504241 0.811314
-9.96212 0.7785 9.82487 -0.0460157 -0.176353 0 -0.866667 8.31757 -0.429738 0.716895 0.984476 0.0508648 -0.167988
-8.35437 -4.16412 4.94775 -0.453847 -0.106119 -0.475452 -0.816929 8.32616 -0.0223487 0.290807 0.570471 0.599126 -0.561793
-8.9555 -3.102 5.67 -0.219211 -0.0988735 -0.300687 -0.821164 8.32982 -0.278896 0.290807 0.401153 0.74822 -0.528435
-6.0635 -9.55275 13.222 0.51936 0.174304 0 -0.0888889 8.42706 -0.999827 5.5562 0.961183 0.228341 -0.154877
1.14525 -8.562 12.9073 0.701093 0.231561 0.394016 -1 8.45256 -0.868068 4.72822 -0.669011 -0.647723 0.364526
-7.49125 -1.47625 15.2793 0.247017 -0.0869148 0.704737 -0.777778 8.47657 -0.569798 1.56346 0.469884 0.554722 -0.686653
0.959188 -0.337687 5.328 0.221576 -0.1918 0 -1 8.55119 0.471389 3.31042 0.259281 0.892907 0.368089
-5.116 -5.535 4.308 0.53344 -0.284347 0.132085 -1 8.56082 -0.573461 6.16325 0.188106 0.463336 0.865988
-2.83406 -7.02481 16.3614 0.508743 0.161931 0.125341 -0.777778 8.57882 -0.497239 4.82979 -0.213924 -0.73017 -0.648913
-10.148 -1.38462 7.12813 0.016896 -0.0509854 0 -0.866667 8.59888 -0.219836 0.473919 0.229914 0.611414 -0.757174
0.17625 0.576688 15.5509 -0.020969 0.182004 0 0.4 8.60704 0.545594 2.36516 0.950339 0.299197 0.0856599
-0.8 0.19875 5.3555 0.085571 -0.215815 0 -1 8.60874 0.999928 3.31042 -0.210525 0.880777 0.42416
2.98381 -2.79806 11.9629 -0.0177105 0.215853 0 -0.0888889 8.63333 0.0389693 2.79336 0.843361 0.450121 0.293484
-6.381 0.66075 15.2494 0.00722077 -0.174416 0 0.933333 8.72772 -0.597313 2.17234 -0.00666402 -0.786907 -0.617035
2.16725 -3.2545 14.2727 -0.0208384 0.165684 -0.619423 -0.0888889 8.74324 -0.966658 2.36516 0.449237 0.890676 0.069866
2.43925 -0.98075 5.77775 0.0355903 0.154875 0 -1 8.76261 0.262274 3.31042 0.418149 0.902916 0.0994703
-5.53575 1.5295 13.741 -0.000628653 -0.191407 0 0.933333 8.76284 -0.198105 2.17234 -0.121869 -0.773495 -0.621975
-9.886 -2.553 5.83125 -0.130164 -0.0855252 0 -0.84122 8.76551 -0.205416 0.473919 0.231542 0.833637 -0.501436
3.34275 -2.1375 9.62875 -0.085986 0.200726 0 -0.0888889 8.76973 0.296307 2.94951 0.924517 0.35699 0.133518
-6.8605 -0.341 15.9435 0.0436187 -0.103312 0.47085 -0.777778 8.79266 -0.759795 1.7224 0.396037 -0.188333 -0.898713
-9.76156 0.291438 11.3061 -0.0964303 -0.210956 0 0.4 8.82556 -0.15531 0.716895 0.936059 -0.348835 -0.0459032
-4.70913 2.10713 12.9949 -0.0695653 -0.2305 0 0.112684 8.84815 -0.234144 2.17234 0.223145 -0.9024 -0.368619
-4.09312 -6.05037 4.4095 0.490923 -0.278358 0 -1 8.8728 -0.999878 3.98945 -0.137521 0.544987 0.827089
-0.2655 1.9445 14.1663 -0.044284 0.126579 0 0.4 8.89937 0.999923 2.17234 0.782728 0.426397 -0.453346
-4.34269 -10.1756 10.3532 0.501757 -0.232831 0 0.960233 8.90626 -0.382665 4.54211 0.0574804 0.76062 0.646648
-4.4885 -6.99975 16.5465 0.454337 0.173186 0 0.0897651 8.90632 -0.999917 5.41075 0.437605 -0.720127 -0.538441
-3.12075 -3.278 4.64725 0.334693 -0.333561 0 -1 8.91012 0.461773 3.5739 -0.612575 0.0962018 0.784536
-10.5411 0.020375 7.60388 -0.0416343 -0.0646157 0 -0.866667 8.91225 0.287834 0.716895 0.449597 0.384052 -0.806453
-5.07044 -6.35375 5.00331 0.6309 -0.257778 0.265465 -0.957747 8.91941 -0.625621 6.16325 0.358455 0.754102 0.55031
-0.02625 -10.5835 11.7972 0.48142 0.220399 0 0.844444 8.9206 -0.487368 4.57684 -0.321326 0.311059 0.894423
-1.46512 -0.271688 4.48956 0.241391 -0.209185 0 -1 8.93098 0.332596 3.31042 -0.643815 0.680922 0.349067
-3.302 -11.1471 11.4605 0.51537 0.207941 0 0.844444 8.93525 -0.374138 4.57684 -0.0613465 0.694598 0.716778
-3.53912 2.96525 12.1566 -0.429103 -0.190234 -0.08843 0.764851 8.97263 0.402783 2.17234 0.718337 -0.495399 -0.488439
1.0125 -9.58212 11.8576 0.541577 0.233902 0 0.844444 8.98698 -0.999884 4.57684 -0.547629 -0.0482876 0.835327
-5.04875 -7.88225 16.3645 0.37142 0.1544 0 -0.0888889 8.98925 -0.724377 5.41075 0.850945 -0.254382 -0.459545
-5.26237 -9.369 14.8328 0.507297 0.151736 0 0.78746 8.99533 -0.00494616 5.41075 0.932581 0.232313 -0.276268
1.949 -2.88838 15.3646 0.0469567 0.144387 -0.0190359 -0.104029 9.04124 -0.297325 2.36516 0.418269 0.908187 -0.0157375
-10.1956 -0.223 12.1319 -0.318546 -0.192856 -0.563898 -0.758511 9.05513 -0.999829 0.98855 0.948219 -0.288896 -0.131983
-4.75725 -4.3725 3.745 0.240903 -0.263933 0 -1 9.10147 0.137715 6.16325 -0.31198 0.546455 0.77721
-1.40675 -8.23525 16.089 0.725003 0.144 0.431927 -0.777778 9.1081 0.999761 4.82979 -0.400395 -0.658658 -0.637066
1.0885 -1.792 15.59 -0.344987 0.195865 -0.1352 -0.2 9.11168 0.485408 2.36516 0.785731 0.548415 0.286124
-2.31381 -1.10175 4.2515 0.100769 -0.226059 0 -1 9.12932 0.465965 3.5739 -0.672386 0.636115 0.37849
-2.66225 3.6205 14.2621 -0.273342 0.157168 -0.58913 0.933333 9.17635 -0.527157 2.17234 0.891561 0.452106 -0.0268244
-8.64675 -1.3 14.493 -0.307199 -0.117524 -0.805512 -0.777778 9.18433 -0.640637 1.56346 0.694924 0.166547 -0.69953
-2.55225 3.71012 13.1695 -0.505203 0.149065 -0.724129 0.933333 9.24369 0.504424 2.17234 0.925513 0.107021 -0.36328
-5.65947 -10.4865 12.0315 0.227417 -0.167509 -0.128585 -0.0888889 9.28729 -0.867021 5.81268 0.739189 0.670298 0.0655765
-7.01625 -5.99675 3.2625 0.0142378 -0.10068 -0.13483 -0.961342 9.30493 -0.678956 6.16325 -0.752426 0.433991 -0.495487
-3.2065 -2.32675 4.27975 0.130018 -0.284115 0 -1 9.35519 0.539275 3.5739 -0.661631 0.374437 0.649648
-3.95025 -4.98125 4.1915 0.403797 -0.304109 0.703378 -1 9.36524 -0.439848 3.98945 -0.364018 0.223478 0.904184
0.717875 -8.19975 15.5052 0.615783 0.152529 0.45129 -0.784236 9.36862 -0.999819 4.82979 -0.62321 -0.649262 -0.435968
-10.2965 1.40625 7.82575 -0.117352 -0.145145 0 -0.777778 9.41686 -0.0680291 0.716895 0.562055 -0.588037 -0.581642
-0.5245 2.303 15.0765 -0.041517 0.128279 0 0.4 9.46629 0.563277 2.17234 0.599448 0.783212 -0.165048
-8.94312 -4.58262 4.06213 -0.560117 -0.0842164 -0.0572364 -0.777778 9.469 0.0691205 0.290807 0.560501 0.160938 -0.812366
-6.11369 -4.90406 2.41894 0.0869857 -0.140335 0 -1 9.47132 0.106526 6.16325 -0.720725 0.693096 -0.0131379
-9.66938 1.7765 10.3371 -0.0597057 -0.171749 0 0.4 9.47691 -0.672893 0.716895 0.732011 -0.557361 -0.391801
3 154 172 111
3 154 111 85
3 85 111 78
3 132 197 146
3 146 147 93
3 147 162 118
3 93 118 85
3 118 154 85
3 85 78 47
3 85 47 93
3 78 38 47
3 8 12 36
3 76 38 78
3 108 76 105
3 76 78 111
3 105 76 140
3 111 140 76
3 140 111 172
3 183 107 152
3 183 152 193
3 20 70 56
3 93 56 70
3 70 103 93
3 20 56 46
3 46 47 22
3 5 22 8
3 5 2 0
3 2 8 1
3 1 21 17
3 21 33 17
3 33 21 36
3 34 33 62
3 36 87 89
3 108 105 165
3 145 165 105
3 144 91 171
3 60 116 77
3 77 98 73
3 98 50 88
3 50 98 42
3 42 98 61
3 24 20 5
3 5 0 6
3 13 4 19
3 0 1 3
3 10 3 9
3 1 0 2
3 7 17 15
3 92 64 106
3 89 99 62
3 177 114 166
3 114 128 59
3 59 128 121
3 177 189 114
3 114 189 128
3 189 187 128
3 121 128 196
3 186 192 127
3 19 45 60
3 60 37 13
3 37 73 31
3 37 31 13
3 98 88 133
3 11 5 6
3 6 23 28
3 13 25 4
3 25 41 32
3 32 41 71
3 31 51 25
3 41 80 71
3 126 123 169
3 90 135 126
3 135 123 126
3 88 136 133
3 43 86 83
3 123 86 134
3 134 169 123
3 68 100 86
3 134 86 100
3 69 23 40
3 23 32 49
3 49 40 23
3 113 67 149
3 104 149 67
3 174 104 130
3 104 71 80
3 134 148 190
3 100 110 148
3 69 40 95
3 95 40 82
3 82 124 153
3 153 95 82
3 110 125 179
3 110 69 125
3 95 125 69
3 84 30 58
3 10 26 30
3 30 26 58
3 26 57 75
3 27 29 9
3 9 16 27
3 39 27 16
3 39 16 15
3 39 59 65
3 59 35 66
3 59 66 102
3 166 102 161
3 139 158 161
3 121 112 65
3 65 112 55
3 55 112 131
3 117 101 58
3 101 84 58
3 175 127 84
3 175 186 127
3 117 58 109
3 109 58 75
3 141 160 109
3 119 75 57
3 119 57 96
3 52 57 29
3 96 52 79
3 72 79 27
3 27 55 72
3 55 131 72
3 119 163 141
3 142 79 157
3 157 79 138
3 138 79 72
3 138 72 120
3 120 185 181
3 52 96 57
3 140 172 195
3 107 132 70
3 70 132 103
3 132 146 103
3 93 103 146
3 93 147 118
3 22 12 8
3 12 22 38
3 47 38 22
3 36 12 38
3 74 36 38
3 74 76 108
3 74 38 76
3 105 140 145
3 145 140 195
3 145 195 199
3 193 152 167
3 167 152 173
3 42 61 20
3 107 173 152
3 173 107 98
3 98 107 61
3 20 61 70
3 70 61 107
3 5 20 22
3 22 20 46
3 34 17 33
3 188 150 129
3 129 150 87
3 150 89 87
3 89 150 99
3 122 74 108
3 165 182 122
3 165 122 108
3 165 145 199
3 91 192 171
3 60 94 116
3 116 94 144
3 144 94 91
3 77 116 115
3 115 116 167
3 115 167 173
3 167 116 193
3 144 193 116
3 77 115 98
3 173 98 115
3 98 133 73
3 88 50 53
3 50 42 24
3 18 43 53
3 18 53 24
3 50 24 53
3 24 5 18
3 6 0 4
3 10 19 3
3 3 4 0
3 4 3 19
3 9 3 7
3 9 7 16
3 7 3 1
3 15 16 7
3 35 15 17
3 34 35 17
3 92 35 64
3 64 35 34
3 64 34 62
3 106 64 150
3 64 99 150
3 62 99 64
3 92 143 158
3 164 143 106
3 92 106 143
3 139 92 158
3 164 106 150
3 164 158 143
3 122 182 81
3 74 122 81
3 182 137 81
3 74 81 36
3 36 81 87
3 87 81 129
3 137 129 81
3 84 127 91
3 63 84 91
3 45 63 91
3 94 60 45
3 94 45 91
3 54 31 73
3 51 31 54
3 51 54 90
3 97 90 54
3 97 54 73
3 97 73 133
3 135 90 97
3 136 135 133
3 133 135 97
3 88 53 83
3 83 53 43
3 68 43 44
3 44 43 18
3 44 18 11
3 5 11 18
3 11 28 44
3 23 6 14
3 23 14 32
3 4 25 14
3 4 14 6
3 14 25 32
3 80 41 51
3 80 51 90
3 51 41 25
3 136 123 135
3 123 136 88
3 123 88 83
3 123 83 86
3 44 100 68
3 100 44 48
3 48 44 28
3 48 28 69
3 49 32 67
3 82 113 124
3 49 113 82
3 113 49 67
3 178 149 104
3 178 104 174
3 80 130 104
3 80 176 130
3 48 110 100
3 69 110 48
3 82 40 49
3 95 153 125
3 125 153 170
3 125 170 179
3 149 194 113
3 113 194 124
3 124 194 184
3 30 63 45
3 30 45 19
3 30 19 10
3 84 63 30
3 75 58 26
3 29 57 26
3 92 139 102
3 92 102 66
3 92 66 35
3 114 59 102
3 102 166 114
3 151 101 117
3 160 117 109
3 65 55 39
3 39 55 27
3 120 72 131
3 112 155 131
3 151 117 160
3 159 138 120
3 181 159 120
3 162 154 118
3 107 198 132
3 191 132 198
3 56 93 47
3 56 47 46
3 8 2 5
3 36 21 8
3 1 8 21
3 33 36 89
3 42 20 24
3 17 7 1
3 89 62 33
3 60 77 37
3 73 37 77
3 11 6 28
3 31 25 13
3 19 60 13
3 26 10 29
3 29 10 9
3 35 59 15
3 39 15 59
3 139 161 102
3 121 65 59
3 168 196 155
3 168 155 112
3 168 112 121
3 168 121 196
3 156 101 151
3 101 156 175
3 101 175 84
3 192 91 127
3 68 86 43
3 28 23 69
3 71 67 32
3 71 104 67
3 80 169 176
3 134 100 148
3 124 184 153
3 109 75 141
3 141 75 119
3 52 29 27
3 79 52 27
3 96 79 142
3 142 119 96
3 120 131 185
3 142 163 119
3 80 90 126
3 80 126 169
