ply
format ascii 1.0
comment Generated by PyMesh
element vertex 200
property float x
property float y
property float z
property float charge
property float ddc
property float hbond
property float hphob
property float rho
property float si
property float theta
property float nx
property float ny
property float nz
element face 341
property list uchar int vertex_indices
end_header
-3.648 -2.5685 10.791 0.102482 0 0 -0.2 1e-08 0.243116 2.22045e-16 0.0512143 0.888126 -0.456737
-3.67 -3.37725 10.0363 0.238417 0.557541 0 -0.2 1.10641 0.259178 5.3035 0.0528347 0.22804 -0.972217
-3.47725 -2.18625 11.8475 0.0116938 0.304456 0 -0.2 1.13643 -0.07272 2.56637 -0.3464 0.841313 -0.414969
-2.55194 -2.87169 10.2829 0.0562423 -0.251831 -0.338533 -0.154071 1.24557 -0.147396 4.18204 -0.412992 0.578452 -0.703442
-4.73887 -2.95038 10.0363 0.168411 -0.332899 0 -0.2 1.38036 0.440618 2.22045e-16 0.215907 0.495566 -0.841308
-5.82725 -2.50425 9.9965 0.16658 -0.167809 0 -0.2 2.32045 0.279194 0.452117 0.185066 0.85031 -0.49267
-3.15875 -1.42963 12.8542 0.0612547 0.159032 0.542764 0.4 2.43541 0.166984 2.4904 -0.499533 0.666475 -0.553423
-2.33325 -1.6125 12.1005 0.0651217 0.116172 0.0357752 -0.134356 2.44101 -0.221343 2.92044 -0.27871 0.82363 -0.493918
-4.69075 -2.53175 13.1115 -0.183255 0.252134 0 -0.2 2.54429 -0.383292 1.8895 -0.350228 0.931539 -0.0978508
-1.991 -1.967 11.037 -0.109312 -0.274822 0 -0.2 2.55009 0.0152856 3.43354 -0.456314 0.833743 -0.310886
-6.2165 -2.099 11.352 -0.0479317 0.281962 0 -0.2 2.67064 0.734313 1.03012 -0.0671779 0.99727 0.0306544
-1.62925 -2.0845 9.506 -0.3736 -0.242735 -0.239979 -0.0888889 2.68591 0.693731 3.89634 -0.672234 0.587866 -0.450016
-5.271 -4.34734 9.45378 0.429117 0.450011 0 -0.2 2.98473 0.0790899 6.09348 0.716884 -0.165769 -0.677199
-2.61469 -4.94441 9.86416 0.323553 0.415825 0 -0.0888889 3.00359 0.0684234 4.92319 -0.775368 -0.219062 -0.592297
-3.67925 -5.23994 10.9784 0.37313 0.59714 0 -0.2 3.19381 -0.054301 5.3884 -0.0577555 -0.859388 -0.508052
-6.951 -2.5145 9.9525 0.198646 -0.234643 0 -0.2 3.44511 -0.0955885 0.540892 0.21621 0.976343 0.00262576
-5.72906 -2.47112 12.6509 -0.209615 0.305144 0 -0.2 3.68179 -0.310485 1.50651 -0.0788777 0.986902 0.140719
-4.765 -2.518 14.248 -0.200502 0.164557 0 -0.2 3.68329 -0.84256 1.86976 -0.364464 0.919285 -0.148599
-3.69738 -1.33834 13.9881 0.059151 0.195 0.407209 0.4 3.69405 -0.414425 2.23386 -0.730711 0.470451 -0.494709
-1.03 -3.787 8.5425 0.191599 -0.232731 -0.000550657 -0.0888889 3.73215 -0.66072 4.349 -0.841293 0.29785 -0.451123
-1.63806 -0.748062 12.9071 0.207123 0.0447014 0 0.0257813 3.81256 0.00689755 2.84727 -0.00624998 0.683988 -0.729466
-6.351 -2.99425 8.68025 0.534287 -0.28564 0 -0.533636 3.81943 -0.0896829 0.313968 0.659098 0.746601 -0.0904267
-0.977813 -1.33644 11.9819 0.0576827 0.174213 0 -0.155669 3.82935 -0.143982 3.18471 -0.0664935 0.980925 -0.18266
-0.47025 -1.53 9.122 -0.106855 -0.172451 -0.47734 -0.0888889 4.02689 0.17356 3.81235 -0.559631 0.807507 -0.186402
-0.426 -1.17206 10.6077 -0.082501 -0.180906 0 -0.0888889 4.35715 0.701762 3.48642 -0.363504 0.925447 -0.106831
-0.620125 -2.47038 8.16737 0.103473 -0.255104 -0.60344 -0.38732 4.40614 -0.131727 4.07138 -0.933496 0.310793 -0.178866
-4.92338 -5.55363 11.0901 0.315841 0.521657 0 -0.2 4.48173 0.080399 5.68724 0.467586 -0.821285 -0.326885
-7.99203 -2.64528 11.2072 0.106454 0.193267 0 -0.2 4.53395 -0.397675 0.916689 -0.0144315 0.992396 0.122235
-2.309 -6.189 8.945 0.43995 0.283169 0 -0.0888889 4.58071 0.159897 4.82112 -0.990824 0.123307 -0.0553434
-2.011 -5.875 11.0615 0.37523 0.43853 -0.0252554 -0.253553 4.63578 -0.495688 5.1459 -0.733903 -0.671001 -0.105567
-6.17556 -5.75075 9.81419 0.51025 0.3796 0 -0.0888889 4.69285 -0.485206 5.9838 0.879245 -0.409227 -0.243849
-2.90569 0.68025 13.7451 0.049932 -0.155912 0 0.4 4.73961 0.0684272 2.51071 -0.312653 0.115108 -0.942867
-5.61875 -4.25737 7.6965 1 -0.339173 0.473898 -0.866667 4.77834 0.429686 0.0117783 0.978629 0.118664 -0.167943
-5.90675 -2.65587 14.3011 -0.117535 0.147769 0 -0.2 4.83456 -0.7564 1.65599 0.000315313 0.991663 -0.12886
-8.08497 -1.88934 9.36447 0.207993 -0.254459 0 -0.866667 4.86725 -0.139227 0.61298 0.524179 0.786561 0.326433
-5.15737 -2.20863 15.3814 -0.0770677 0.0312269 -0.423582 0.4 4.92195 -0.999859 1.88302 -0.285748 0.688131 -0.666951
-1.22113 0.0809375 13.5485 0.0400333 -0.133787 0 0.4 4.94059 -0.0746796 2.79378 0.27894 0.353428 -0.892906
-3.83075 -0.304 14.6757 -0.026281 -0.201387 -0.0434052 0.446411 4.94323 -0.560929 2.2639 -0.607594 -0.0369576 -0.793388
-2.68963 -5.70463 12.3524 0.373157 0.4824 0 -0.2 4.9497 -0.389516 5.37176 -0.260663 -0.948494 -0.180039
-6.2445 -5.67425 8.35825 0.839817 -0.360104 0.48189 -0.866667 4.96174 -0.593974 6.10695 0.940384 -0.316391 0.124801
-1.90625 -6.818 10.2917 0.36039 0.325717 -0.276012 -0.372184 5.05176 -0.273895 5.01765 -0.962724 -0.18519 0.197148
-6.187 -2.8705 7.317 0.785327 -0.250599 0.122961 -0.866667 5.19807 0.873616 0.281172 0.76518 0.638045 -0.0860097
-0.949313 -4.12856 7.11919 0.359443 -0.252736 0 -0.584002 5.19809 -0.611672 4.33148 -0.913709 0.35722 0.193727
-7.16125 -2.234 7.76575 0.524633 -0.185244 0.104137 -0.866667 5.25845 0.213785 0.377678 0.557123 0.812604 -0.171138
-0.27 -0.883 13.3573 0.187824 0.148644 0 -0.2 5.2591 -0.074031 2.98115 0.52276 0.654727 -0.545943
-5.308 -5.77575 12.31 0.303794 0.460136 0 -0.2 5.36477 -0.624294 5.64607 0.323934 -0.933786 -0.152023
0.656875 -0.954625 11.0969 0.257629 0.190153 0 -0.0888889 5.56513 0.407777 3.38388 -0.172353 0.969797 0.17259
-7.47087 -2.52638 13.4104 -0.0864843 0.140334 0 -0.2 5.58279 -0.109034 1.40954 0.181217 0.970668 -0.157999
-2.18438 -7.15963 8.50113 0.52569 0.270845 0 -0.0888889 5.65526 -0.211752 4.8666 -0.97819 -0.0684411 0.19611
0.94725 -0.8885 9.82619 0.196768 -0.14225 0.025898 -0.0888889 5.73472 0.0536257 3.57051 -0.162998 0.986589 -0.00857057
-0.030375 -1.28225 7.4885 0.122921 -0.162711 0.00467234 -0.980047 5.73662 0.180699 3.94628 -0.531229 0.845946 0.0465979
-1.7585 -6.495 11.9974 0.3505 0.360855 0 -1 5.78646 0.0230992 5.18372 -0.875271 -0.44215 0.195971
-4.75675 0.05125 15.3105 -0.106209 -0.208628 -0.141506 0.669609 5.88539 -0.407501 2.0392 -0.547288 -0.301542 -0.780735
-9.14338 -2.21881 10.6134 0.047993 -0.244817 0 -0.866667 5.8978 -0.594547 0.888749 0.525658 0.686227 0.502768
0.721 -1.61625 13.153 0.124071 0.196148 0 -0.2 5.91159 -0.13008 3.09522 0.550536 0.834086 0.034786
-2.3525 -6.17938 7.56938 0.610377 -0.248047 0.281908 -0.506213 5.95705 0.253721 4.76814 -0.928894 0.314033 0.196315
-0.7125 -3.14287 6.77037 0.40072 -0.281564 0 -1 5.95932 -0.786713 4.16882 -0.909629 0.176453 0.376085
-7.06962 -2.47638 14.4404 -0.0257032 -0.109054 0.0962312 -0.376944 6.01942 -0.731081 1.40954 0.328211 0.848099 -0.415938
-2.78744 -5.99862 13.4154 0.311591 0.403313 0 -0.2 6.05693 -0.106675 5.37176 -0.0566234 -0.97951 -0.193273
-5.79563 -5.69025 7.32412 0.66977 -0.314372 0.297821 -0.863844 6.0892 0.225146 6.10695 0.957859 0.0303151 0.285636
-1.69987 -5.249 6.81862 0.450617 -0.204612 0.09057 -0.79922 6.08967 -0.615685 4.76814 -0.818807 0.560268 0.125122
-1.71375 -7.84975 10.351 0.248422 0.259887 -0.236758 -0.347251 6.10299 -0.791293 5.01765 -0.959066 -0.0283712 0.281756
-6.27887 -7.16625 9.82987 0.573587 0.248141 0 -0.0888889 6.1122 -0.176118 5.9838 0.968248 0.150609 -0.199533
-4.18175 0.935375 14.1839 -0.0221448 -0.273392 0 0.924198 6.11291 -0.18944 2.51071 -0.205217 -0.606615 -0.768052
1.33506 -1.27988 11.9929 0.171192 0.242008 0 -0.184761 6.14294 0.187838 3.38388 0.263704 0.797677 0.542376
-9.42325 -2.72775 11.9522 -0.069941 -0.165712 0 -0.779522 6.14956 -0.999869 0.888749 0.61736 0.784708 -0.0556738
1.37888 -0.50825 8.64587 0.109163 0.116365 0.781538 -0.0888889 6.19252 0.999862 3.57051 0.0043209 0.99807 -0.0619493
-9.06 -0.9825 9.4 0.0107298 -0.225862 0 -0.866667 6.19928 0.0899438 0.61298 0.709073 0.625695 0.325148
-6.4485 -3.06988 6.36562 0.82373 -0.141221 0.232478 -0.866667 6.20468 0.999867 0.281172 0.581447 0.599726 -0.549771
-5.79569 -1.33506 16.1006 -0.0309629 -0.0888165 0 0.4 6.22111 -0.999871 1.88302 -0.124208 0.290816 -0.948682
-6.14825 -6.61194 11.79 0.412833 0.334843 0 -0.120257 6.2453 -0.444363 5.64607 0.929507 -0.355159 -0.0993885
-8.26437 -1.01525 8.31125 0.0134116 -0.17628 0 -0.866667 6.24765 0.802344 0.61298 0.555904 0.831173 -0.0110874
-5.725 -6.1115 13.164 0.28495 0.337624 0 -0.199861 6.37271 -0.999881 5.64607 0.778413 -0.53643 -0.326062
-8.49575 -2.5645 12.975 -0.0942213 -0.0936645 -0.18369 -0.368789 6.37389 -0.54535 1.40954 0.186533 0.919786 -0.345252
-3.42144 2.20444 13.4284 -0.243935 -0.241783 -0.116342 0.9093 6.37956 -0.172714 2.51071 0.306256 -0.504535 -0.80725
-0.118719 0.483594 14.4014 -0.026709 0.184904 0 0.4 6.39141 0.265661 2.79378 0.788998 0.16338 -0.592275
-0.945625 -1.96769 6.20687 0.41249 -0.261451 0 -1 6.45607 0.0726819 4.16882 -0.792355 0.33976 0.506693
-6.22325 -6.96025 7.58225 0.517227 -0.281097 0 -0.777778 6.46388 -0.999844 6.10695 0.827747 0.0783912 0.555599
-1.52013 -6.21325 13.1946 0.52676 0.369481 0 -0.2 6.47801 -0.524356 5.18372 -0.53448 -0.837967 0.110193
-8.17025 -1.88312 7.04 0.270622 -0.0805414 0.232979 -0.866667 6.54993 0.677647 0.377678 0.329029 0.739171 -0.587679
-1.30175 1.72675 13.5933 -0.0387437 -0.103925 0 0.4 6.58899 0.635166 2.79378 0.251486 0.358882 -0.898865
-6.60156 -7.33588 8.79594 0.630253 -0.246989 0 -0.256651 6.62442 -0.999867 6.10695 0.994857 0.0992303 0.0203263
-2.13225 -8.094 9.39625 0.419197 0.22837 0 0.107925 6.62691 -0.0980801 4.8666 -0.947777 0.184363 0.260248
-2.06519 2.4575 13.891 -0.0912767 -0.128824 0 0.4 6.71099 0.0798758 2.51071 0.582739 0.418386 -0.696684
-2.162 -8.0945 7.9165 0.50133 -0.203859 0 -0.0888889 6.75811 -0.999892 4.8666 -0.909633 0.295624 0.291845
-1.476 -3.1625 5.95813 0.62033 -0.299054 0.397828 -1 6.79769 0.0432137 4.16882 -0.693237 0.143144 0.706351
-6.111 -5.624 6.089 0.57352 -0.200473 0.517632 -0.801127 6.94492 -0.586464 0.0117783 0.902457 0.418943 -0.100291
-1.81662 -4.56588 5.56887 0.41354 -0.252099 0.340609 -1 7.02756 -0.672701 4.33148 -0.783066 0.239221 0.574091
2.11538 -0.606875 10.9895 0.0126506 0.159111 0 -0.0888889 7.06836 0.999888 3.38388 0.181246 0.959523 0.21556
-5.345 0.7695 14.552 -0.0206934 -0.281086 0 0.933333 7.08424 0.669516 2.0392 -0.203801 -0.759961 -0.617191
-6.10838 -7.2915 10.8197 0.50502 0.261909 0 -0.0888889 7.12439 0.0510481 5.9838 0.978062 0.207388 -0.01962
-9.64669 -1.105 10.3852 -0.036121 -0.259393 0 -0.866667 7.14117 -0.146609 0.888749 0.861516 0.199114 0.467058
-6.624 -4.5115 5.5635 0.468287 -0.106274 0 -0.866667 7.15001 0.1465 0.0117783 0.517749 0.639978 -0.567772
-5.719 -0.127 16.1567 -0.0384123 -0.185541 0 0.798507 7.17913 -0.999911 2.0392 -0.158741 -0.406461 -0.899773
-0.950875 -7.54581 12.4346 0.0322214 0.310729 -0.245019 -1 7.18203 0.0521168 5.18372 -0.632297 -0.545991 0.549632
-0.04025 -0.651 6.15987 0.19916 -0.211829 0 -1 7.20762 0.193422 3.94628 -0.333882 0.706318 0.62421
-4.83238 -6.22475 14.045 0.203985 0.33552 0 -0.172968 7.21897 -0.343419 5.64607 0.337459 -0.863933 -0.373821
-1.463 -8.376 11.3333 0.176508 0.271553 -0.105314 -1 7.24524 0.32598 5.18372 -0.806276 -0.255371 0.533577
-2.81013 -7.37475 7.02338 0.598937 -0.247104 0.0306396 -1 7.2744 -0.310992 4.76814 -0.632572 0.310152 0.709689
-9.65375 -0.18225 9.868 -0.0384657 -0.210227 0 -0.866667 7.30017 0.035881 0.888749 0.944339 0.32223 0.066263
-2.88225 -6.48225 6.32975 0.59626 -0.188053 0.800479 -1 7.33873 0.105173 4.76814 -0.654714 0.679947 0.330186
-7.69875 -3.17213 5.98338 0.781853 -0.0724807 0.112886 -0.866667 7.34312 0.118032 0.377678 0.299425 0.616534 -0.728169
-7.49125 -1.47625 15.2793 0.247017 -0.105661 0.704737 -0.777778 7.37017 -0.569798 1.40954 0.469884 0.554722 -0.686653
1.572 -0.953875 7.497 0.332302 -0.0956527 0.197939 -0.676238 7.37232 0.159922 3.94628 0.0473165 0.987682 -0.149147
-9.39925 -0.69575 8.29525 0.0114345 -0.108002 0 -0.866667 7.38999 0.0238771 0.61298 0.516402 0.75225 -0.409204
1.41825 -2.4965 14.165 -0.0174466 0.186123 -0.188425 -0.2 7.42326 -0.577821 3.09522 0.754722 0.655694 0.021473
-10.237 -1.322 11.2058 -0.214441 -0.232225 -0.238289 -0.866667 7.43116 -0.926325 0.888749 0.927756 0.180387 0.326696
-6.14975 -8.38775 9.2365 0.642467 -0.18233 0 0.597371 7.47632 -0.682244 5.9838 0.864514 0.496605 -0.0774548
-1.88644 -9.22363 10.6494 0.397807 0.210098 0 0.844444 7.51947 -0.0799102 5.01765 -0.616614 0.425512 0.662365
0.461 -0.8215 15.4971 -0.179853 0.206926 -0.262187 -0.00454918 7.52115 0.0375989 2.98115 0.923269 0.377674 0.0702589
-1.91937 -6.21275 14.6142 0.51438 0.300178 0.0700813 -0.50916 7.55243 -0.761247 5.37176 -0.314087 -0.892927 -0.322539
1.475 -1.086 6.477 0.206609 -0.140161 0 -1 7.56085 -0.482249 3.94628 0.0342105 0.968835 0.245335
0.17625 0.576688 15.5509 -0.020969 0.203035 0 0.4 7.5818 0.545594 2.79378 0.950339 0.299197 0.0856599
-6.381 0.66075 15.2494 0.00722077 -0.247839 0 0.933333 7.62131 -0.597313 2.0392 -0.00666402 -0.786907 -0.617035
-9.30481 -1.76231 13.5004 -0.51173 -0.121648 -0.615631 -0.777778 7.62853 -0.45824 1.40954 0.595097 0.508562 -0.622273
-8.982 -2.2765 6.4235 0.0985167 -0.0509165 0 -0.866667 7.64252 0.225585 0.377678 0.208589 0.693139 -0.689962
2.82544 -1.15769 9.54619 0.00558137 0.147754 0 -0.0888889 7.65266 0.459066 3.57051 0.599762 0.800153 -0.00639302
-5.53575 1.5295 13.741 -0.000628653 -0.278985 0 0.933333 7.65644 -0.198105 2.0392 -0.121869 -0.773495 -0.621975
-5.77 -8.44 10.563 0.568423 0.216891 0 -0.0888889 7.66747 0.23855 5.9838 0.951713 0.306736 0.0124313
-6.8605 -0.341 15.9435 0.0436187 -0.168151 0.47085 -0.777778 7.68626 -0.759795 2.0392 0.396037 -0.188333 -0.898713
-6.109 -8.09013 8.2005 0.609747 -0.215125 0.0100599 -0.777778 7.70426 -0.999782 6.10695 0.704026 0.548252 0.451407
-4.70913 2.10713 12.9949 -0.0695653 -0.321932 0 0.112684 7.74175 -0.234144 2.51071 0.223145 -0.9024 -0.368619
-1.8625 -1.868 5.281 0.414427 -0.254407 0 -1 7.76291 0.454107 4.16882 -0.642916 0.358324 0.676951
-0.2655 1.9445 14.1663 -0.044284 0.151415 0 0.4 7.79296 0.999923 2.79378 0.782728 0.426397 -0.453346
-2.77375 -9.09387 9.28175 0.433723 -0.145282 0 0.844444 7.82038 -0.218317 4.8666 -0.625672 0.758327 0.182961
-3.53912 2.96525 12.1566 -0.429103 -0.264314 -0.08843 0.764851 7.86622 0.402783 2.51071 0.718337 -0.495399 -0.488439
-10.1517 -1.443 12.8884 -0.57693 -0.17002 -0.0908054 -0.810518 7.89819 -0.920442 0.888749 0.884903 0.208359 -0.416574
2.2445 -2.9305 13.324 -0.0321753 0.182536 -0.242896 -0.0993964 7.93088 -0.199769 3.09522 0.529716 0.796814 0.29067
3.03731 -1.60906 11.3639 0.0088269 0.213862 0 -0.0888889 7.98729 0.999849 3.38388 0.822196 0.430406 0.372484
-2.69287 -5.83144 5.22319 0.455863 -0.214131 0.425143 -1 8.05708 -0.739062 4.76814 -0.654214 0.459018 0.601088
-2.66225 3.6205 14.2621 -0.273342 0.174033 -0.58913 0.933333 8.06995 -0.527157 2.51071 0.891561 0.452106 -0.0268244
-4.69228 -7.21006 6.58134 0.7131 -0.215947 0.096704 -0.777778 8.10884 -0.0381626 6.10695 0.412367 0.69768 0.585829
-2.55225 3.71012 13.1695 -0.505203 -0.186928 -0.724129 0.933333 8.13729 0.504424 2.51071 0.925513 0.107021 -0.36328
-3.731 -6.37675 15.2506 0.378683 0.286339 0 -0.2 8.15485 -0.78274 5.37176 0.146035 -0.903592 -0.402736
-3.04312 -9.22025 8.00725 0.43946 -0.165675 0 0.844444 8.19057 -0.999875 4.8666 -0.450346 0.747347 0.488529
-10.1615 0.4705 8.58675 -0.04119 -0.160152 0 -0.866667 8.19575 -0.215396 0.61298 0.911713 0.337515 -0.234228
3.03312 -1.56288 8.17488 0.181967 0.141253 0 -0.227267 8.21009 0.0566503 3.57051 0.589905 0.806294 0.0436145
-6.14838 -8.3445 12.8004 0.305386 0.223416 0 -0.0888889 8.25096 -0.577007 5.64607 0.998638 0.0306221 -0.0422442
-7.5915 -4.8935 5.11925 -0.00991547 -0.0687831 0.514298 -0.866667 8.28109 -0.813618 0.0117783 0.355514 0.720587 -0.595285
-2.817 -4.43525 4.809 0.438413 -0.267025 0.745353 -1 8.29058 -0.632374 4.33148 -0.582432 0.0504241 0.811314
-9.96212 0.7785 9.82487 -0.0460157 -0.194979 0 -0.866667 8.31012 -0.429738 0.888749 0.984476 0.0508648 -0.167988
-0.5245 2.303 15.0765 -0.041517 0.124548 0 0.4 8.35988 0.563277 2.79378 0.599448 0.783212 -0.165048
-6.183 -5.011 4.536 0.226191 -0.149477 0.967173 -1 8.37465 0.0722563 0.0117783 0.30348 0.907268 0.291145
2.98381 -2.79806 11.9629 -0.0177105 0.208432 0 -0.0888889 8.3844 0.0389693 3.38388 0.843361 0.450121 0.293484
-0.571625 -9.07475 11.6154 0.316279 0.255198 -0.00596384 -0.972213 8.41245 -0.150563 5.18372 -0.446835 -0.276825 0.850709
-5.70131 -7.94219 14.2342 0.465197 0.206339 0 -0.0888889 8.49339 -0.359134 5.64607 0.924738 -0.100025 -0.367226
2.16725 -3.2545 14.2727 -0.0208384 0.140789 -0.619423 -0.0888889 8.49432 -0.966658 3.09522 0.449237 0.890676 0.069866
0.031 -7.35913 13.8882 0.636333 0.254884 0.318217 -0.960587 8.52743 -0.484615 5.18372 -0.612271 -0.790601 0.00867966
0.959188 -0.337687 5.328 0.221576 -0.150093 0 -1 8.54517 0.471389 3.94628 0.259281 0.892907 0.368089
-10.148 -1.38462 7.12813 0.016896 -0.0527315 0 -0.866667 8.59144 -0.219836 0.377678 0.229914 0.611414 -0.757174
-0.8 0.19875 5.3555 0.085571 -0.164327 0 -1 8.60272 0.999928 3.94628 -0.210525 0.880777 0.42416
-3.716 -6.85975 5.448 0.579937 -0.16203 0.268141 -1 8.60961 -0.999864 4.76814 -0.263335 0.865654 0.425791
-8.9555 -3.102 5.67 -0.219211 -0.0756979 -0.300687 -0.821164 8.64025 -0.278896 0.377678 0.401153 0.74822 -0.528435
-2.197 3.26238 15.6433 -0.0775123 0.150586 0 0.615136 8.6438 -0.0857681 2.51071 0.795622 0.605712 0.00992048
1.0885 -1.792 15.59 -0.344987 0.197845 -0.1352 -0.2 8.68057 0.485408 3.09522 0.785731 0.548415 0.286124
-5.27969 -9.23044 9.6165 0.54384 -0.166317 0 1 8.74578 -0.152386 5.9838 0.552825 0.793218 0.255323
2.43925 -0.98075 5.77775 0.0355903 0.120075 0 -1 8.75659 0.262274 3.94628 0.418149 0.902916 0.0994703
-9.886 -2.553 5.83125 -0.130164 -0.052829 0 -0.84122 8.75806 -0.205416 0.377678 0.231542 0.833637 -0.501436
3.34275 -2.1375 9.62875 -0.085986 0.195022 0 -0.0888889 8.76372 0.296307 3.57051 0.924517 0.35699 0.133518
-10.1956 -0.223 12.1319 -0.318546 -0.223709 -0.563898 -0.758511 8.77684 -0.999829 0.888749 0.948219 -0.288896 -0.131983
-8.64675 -1.3 14.493 -0.307199 -0.15873 -0.805512 -0.777778 8.7789 -0.640637 1.40954 0.694924 0.166547 -0.69953
1.949 -2.88838 15.3646 0.0469567 0.121368 -0.0190359 -0.104029 8.79231 -0.297325 3.09522 0.418269 0.908187 -0.0157375
-9.76156 0.291438 11.3061 -0.0964303 -0.2432 0 0.4 8.81786 -0.15531 0.888749 0.936059 -0.348835 -0.0459032
-0.3905 1.08862 16.5249 0.0325132 0.193019 0 0.4 8.81952 0.16957 2.79378 0.735052 0.490011 0.468602
-1.30838 -7.12044 15.2753 0.716963 0.213197 0.477581 -0.777778 8.83082 -0.300777 5.37176 -0.452784 -0.683757 -0.572243
-4.87 -7.05025 15.4299 0.42535 0.253397 0 -0.0888889 8.83167 -0.21173 5.64607 0.602014 -0.722362 -0.340253
-6.464 1.99188 13.131 0.00731747 -0.296309 0 0.0184685 8.85957 -0.596023 2.0392 0.114109 -0.94543 -0.305189
-3.57711 -9.55381 9.77205 0.436577 -0.144772 0 0.913024 8.86791 0.132051 4.8666 -0.197054 0.922204 0.33273
-3.12075 -3.278 4.64725 0.334693 -0.266589 0 -1 8.9041 0.461773 4.16882 -0.612575 0.0962018 0.784536
-10.5411 0.020375 7.60388 -0.0416343 -0.0868954 0 -0.866667 8.9048 0.287834 0.61298 0.449597 0.384052 -0.806453
-8.35437 -4.16412 4.94775 -0.453847 -0.0952389 -0.475452 -0.816929 8.91995 -0.0223487 0.377678 0.570471 0.599126 -0.561793
-1.46512 -0.271688 4.48956 0.241391 -0.161227 0 -1 8.92496 0.332596 3.94628 -0.643815 0.680922 0.349067
-7.58725 -5.17525 4.094 -0.0551233 0.00460573 0.672859 -1 9.02827 0.185181 0.0117783 -0.109349 0.717811 -0.687598
-8.03256 0.0735625 15.0258 -0.074313 -0.189493 0 0.317122 9.03125 -0.424753 2.0392 0.517041 -0.337749 -0.786508
-1.33125 -10.4866 11.3071 0.442793 0.193375 0 0.844444 9.04783 -0.463431 5.01765 -0.287108 0.373615 0.882032
-5.6675 -9.7635 11.0267 0.39355 0.192658 0 0.661547 9.0736 -0.536952 5.9838 0.829797 0.432144 0.353113
-2.31381 -1.10175 4.2515 0.100769 -0.172526 0 -1 9.12331 0.465965 4.16882 -0.672386 0.636115 0.37849
-4.2395 -8.5735 7.08169 0.515497 -0.205961 0 -0.918367 9.14081 -0.999835 4.76814 0.129076 0.635443 0.761282
-3.82663 -9.5445 8.57913 0.41984 -0.126913 0 0.913713 9.16399 -0.8139 4.8666 -0.0289599 0.975135 0.219709
-5.05225 -9.12525 8.24525 0.259349 -0.167543 0.0785852 0.778944 9.18419 -0.999817 6.10695 0.439157 0.814084 0.380011
0.352625 -2.17337 16.6042 -0.222807 0.198195 -0.770097 -0.2 9.27185 -0.632978 2.98115 0.727082 0.546677 0.415326
-9.43606 -0.117812 13.4581 -0.329975 -0.194126 -0.0503273 0.201144 9.2788 -0.30643 1.40954 0.804556 -0.193789 -0.561369
-0.048625 -0.01975 17.1349 0.090348 0.186254 0.17214 0.4 9.28924 0.315266 2.98115 0.914035 0.335831 0.227503
-3.2065 -2.32675 4.27975 0.130018 -0.223884 0 -1 9.34918 0.539275 4.16882 -0.661631 0.374437 0.649648
-10.2965 1.40625 7.82575 -0.117352 -0.180326 0 -0.777778 9.40941 -0.0680291 0.61298 0.562055 -0.588037 -0.581642
-0.144 -1.296 17.223 0.0337867 0.204135 0 0.4 9.41057 -0.671859 2.98115 0.973384 0.143414 0.178763
-4.036 3.906 11.0367 -0.250796 -0.201811 -0.968542 0.866969 9.41092 0.119188 2.51071 0.922986 0.0195298 -0.384338
-5.77275 1.7585 11.7533 -0.103253 -0.377709 0 -0.777778 9.41339 0.612708 2.51071 0.118718 -0.992596 -0.0256668
-0.72125 2.289 16.1483 -0.0342737 0.175484 0 0.4 9.44968 0.999841 2.79378 0.68701 0.597577 0.413423
-4.76137 2.07962 11.2802 -0.115962 -0.366621 0 -0.777778 9.45746 0.343031 2.51071 0.554042 -0.813106 -0.178594
-9.66938 1.7765 10.3371 -0.0597057 -0.212288 0 0.4 9.46947 -0.672893 0.888749 0.732011 -0.557361 -0.391801
-3.25887 4.56738 12.2809 -0.43913 -0.13991 -0.328631 0.933333 9.49742 0.662804 2.51071 0.800686 0.402702 -0.443545
-6.0635 -9.55275 13.222 0.51936 0.169022 0 -0.0888889 9.53347 -0.999827 5.64607 0.961183 0.228341 -0.154877
1.14525 -8.562 12.9073 0.701093 0.226296 0.394016 -1 9.55897 -0.868068 5.18372 -0.669011 -0.647723 0.364526
-5.116 -5.535 4.308 0.53344 -0.218778 0.132085 -1 9.58504 -0.573461 0.0117783 0.188106 0.463336 0.865988
-3.34713 4.98025 13.9406 -0.22497 0.127326 -0.00143782 0.933333 9.62601 0.474327 2.51071 0.690626 0.722087 -0.0403192
-2.83406 -7.02481 16.3614 0.508743 0.203589 0.125341 -0.777778 9.68523 -0.497239 5.37176 -0.213924 -0.73017 -0.648913
-4.09312 -6.05037 4.4095 0.490923 -0.207025 0 -1 9.69131 -0.999878 4.76814 -0.137521 0.544987 0.827089
-3.95025 -4.98125 4.1915 0.403797 -0.237163 0.703378 -1 9.6919 -0.439848 4.33148 -0.364018 0.223478 0.904184
3.951 -2.715 8.351 0.00131711 0.188512 0 -1 9.69363 -0.112759 3.57051 0.766733 0.415315 0.489524
3 149 169 104
3 149 104 79
3 79 104 71
3 170 152 101
3 152 157 115
3 101 115 79
3 115 149 79
3 79 71 43
3 79 43 101
3 71 34 43
3 5 15 27
3 67 34 71
3 91 67 99
3 67 71 104
3 99 67 135
3 104 135 67
3 135 104 169
3 32 92 68
3 101 68 92
3 92 138 101
3 32 68 41
3 41 43 21
3 12 21 5
3 12 4 1
3 4 5 0
3 0 10 8
3 10 16 8
3 16 10 27
3 17 16 33
3 27 73 47
3 91 99 162
3 140 162 99
3 139 85 168
3 60 129 100
3 100 131 98
3 131 77 120
3 77 131 59
3 59 131 86
3 39 32 12
3 12 1 14
3 28 13 19
3 1 0 3
3 11 3 9
3 0 1 4
3 2 8 6
3 52 35 69
3 47 57 33
3 119 102 173
3 119 173 113
3 160 114 181
3 191 125 186
3 125 74 121
3 125 121 189
3 74 83 31
3 31 83 80
3 125 132 74
3 74 132 83
3 132 130 83
3 80 83 141
3 141 83 153
3 132 195 130
3 130 195 153
3 176 183 122
3 19 42 60
3 60 55 28
3 55 98 48
3 55 48 28
3 131 120 177
3 26 12 14
3 14 38 45
3 28 40 13
3 40 61 51
3 51 61 97
3 48 82 40
3 61 108 97
3 124 178 167
3 178 155 167
3 120 179 177
3 62 118 107
3 155 118 175
3 90 137 118
3 175 118 137
3 96 38 58
3 38 51 78
3 78 58 38
3 147 94 193
3 144 193 94
3 144 97 108
3 137 145 192
3 96 58 133
3 133 58 110
3 110 164 196
3 196 133 110
3 145 96 165
3 133 165 96
3 76 25 50
3 11 23 25
3 25 23 50
3 23 49 66
3 22 24 9
3 9 7 22
3 20 22 7
3 20 7 6
3 20 31 36
3 31 18 37
3 31 37 63
3 121 63 117
3 121 117 166
3 189 121 187
3 166 187 121
3 166 117 113
3 89 113 117
3 80 75 36
3 36 75 44
3 44 75 109
3 112 163 182
3 111 95 50
3 95 76 50
3 171 122 76
3 171 176 122
3 111 50 103
3 103 50 66
3 136 156 103
3 116 66 49
3 116 49 88
3 46 49 24
3 88 46 64
3 54 64 22
3 22 44 54
3 44 109 54
3 109 185 180
3 154 109 180
3 116 158 136
3 136 158 199
3 128 64 143
3 143 64 127
3 127 64 54
3 127 54 105
3 105 154 161
3 154 180 161
3 46 88 49
3 135 169 184
3 142 172 92
3 92 172 138
3 172 170 138
3 101 138 170
3 101 152 115
3 21 15 5
3 15 21 34
3 43 34 21
3 27 15 34
3 53 27 34
3 53 67 91
3 53 34 67
3 99 135 140
3 140 135 184
3 140 184 190
3 198 194 197
3 59 86 32
3 131 142 86
3 32 86 92
3 92 86 142
3 12 32 21
3 21 32 41
3 17 8 16
3 160 102 114
3 114 102 73
3 102 47 73
3 47 102 57
3 106 53 91
3 162 159 106
3 162 106 91
3 162 140 190
3 85 183 168
3 60 87 129
3 129 87 139
3 139 87 85
3 100 129 151
3 151 129 197
3 197 129 198
3 139 198 129
3 100 151 131
3 131 177 98
3 120 77 81
3 77 59 39
3 30 62 81
3 30 81 39
3 77 39 81
3 39 12 30
3 14 1 13
3 11 19 3
3 3 13 1
3 13 3 19
3 9 3 2
3 9 2 7
3 2 3 0
3 6 7 2
3 18 6 8
3 17 18 8
3 52 18 35
3 35 18 17
3 35 17 33
3 69 35 102
3 35 57 102
3 33 57 35
3 52 93 113
3 119 93 69
3 52 69 93
3 89 52 113
3 119 69 102
3 119 113 93
3 173 102 160
3 181 173 160
3 126 159 181
3 126 181 114
3 106 159 65
3 53 106 65
3 159 126 65
3 53 65 27
3 27 65 73
3 73 65 114
3 126 114 65
3 125 189 186
3 153 83 130
3 76 122 85
3 56 76 85
3 42 56 85
3 87 60 42
3 87 42 85
3 84 48 98
3 82 48 84
3 82 84 124
3 134 124 84
3 134 84 98
3 134 98 177
3 178 124 134
3 179 178 177
3 177 178 134
3 120 81 107
3 107 81 62
3 90 62 70
3 70 62 30
3 70 30 26
3 12 26 30
3 26 45 70
3 38 14 29
3 38 29 51
3 13 40 29
3 13 29 14
3 29 40 51
3 108 61 82
3 108 82 124
3 82 61 40
3 179 155 178
3 155 179 120
3 155 120 107
3 155 107 118
3 70 137 90
3 137 70 72
3 72 70 45
3 72 45 96
3 78 51 94
3 110 147 164
3 78 147 110
3 147 78 94
3 108 174 144
3 72 145 137
3 96 145 72
3 110 58 78
3 133 196 165
3 25 56 42
3 25 42 19
3 25 19 11
3 76 56 25
3 66 50 23
3 24 49 23
3 52 89 63
3 52 63 37
3 52 37 18
3 74 31 63
3 63 121 74
3 148 95 111
3 156 111 103
3 36 44 20
3 20 44 22
3 105 54 109
3 75 112 109
3 148 111 156
3 146 127 105
3 161 146 105
3 157 149 115
3 68 101 43
3 68 43 41
3 5 4 12
3 27 10 5
3 0 5 10
3 16 27 47
3 59 32 39
3 8 2 0
3 47 33 16
3 132 191 195
3 191 132 125
3 60 100 55
3 98 55 100
3 26 14 45
3 48 40 28
3 19 60 28
3 23 11 24
3 24 11 9
3 18 31 6
3 20 6 31
3 89 117 63
3 166 113 173
3 80 36 31
3 123 141 112
3 123 112 75
3 123 75 80
3 123 80 141
3 141 153 188
3 141 188 112
3 163 112 188
3 150 95 148
3 95 150 171
3 95 171 76
3 183 85 122
3 90 118 62
3 45 38 96
3 97 94 51
3 97 144 94
3 175 137 192
3 103 66 136
3 136 66 116
3 46 24 22
3 64 46 22
3 182 109 112
3 109 182 185
3 88 64 128
3 128 116 88
3 105 109 154
3 128 158 116
3 108 124 167
