ply
format ascii 1.0
comment Generated by PyMesh
element vertex 200
property float x
property float y
property float z
property float charge
property float ddc
property float hbond
property float hphob
property float rho
property float si
property float theta
property float nx
property float ny
property float nz
element face 335
property list uchar int vertex_indices
end_header
-5.72906 -2.47112 12.6509 -0.209615 0 0 -0.2 1e-08 -0.310485 2.22045e-16 -0.0788777 0.986902 0.140719
-4.69075 -2.53175 13.1115 -0.183255 -0.214731 0 -0.2 1.1375 -0.383292 4.18291 -0.350228 0.931539 -0.0978508
-6.2165 -2.099 11.352 -0.0479317 -0.0730077 0 -0.2 1.43639 0.734313 2.22045e-16 -0.0671779 0.99727 0.0306544
-5.90675 -2.65587 14.3011 -0.117535 -0.080444 0 -0.2 1.66999 -0.7564 2.69499 0.000315313 0.991663 -0.12886
-4.765 -2.518 14.248 -0.200502 -0.146138 0 -0.2 1.8661 -0.84256 3.42365 -0.364464 0.919285 -0.148599
-7.47087 -2.52638 13.4104 -0.0864843 -0.164748 0 -0.2 1.901 -0.109034 1.78376 0.181217 0.970668 -0.157999
-7.99203 -2.64528 11.2072 0.106454 -0.0781999 0 -0.2 2.68991 -0.397675 0.805636 -0.0144315 0.992396 0.122235
-7.06962 -2.47638 14.4404 -0.0257032 -0.262048 0.0962312 -0.376944 2.85485 -0.731081 2.23842 0.328211 0.848099 -0.415938
-5.82725 -2.50425 9.9965 0.16658 0.20487 0 -0.2 2.90374 0.279194 6.09239 0.185066 0.85031 -0.49267
-3.69738 -1.33834 13.9881 0.059151 -0.340838 0.407209 0.4 2.9206 -0.414425 3.82306 -0.730711 0.470451 -0.494709
-3.47725 -2.18625 11.8475 0.0116938 -0.185824 0 -0.2 2.92346 -0.07272 4.74731 -0.3464 0.841313 -0.414969
-8.49575 -2.5645 12.975 -0.0942213 -0.150955 -0.18369 -0.368789 3.01518 -0.54535 1.49965 0.186533 0.919786 -0.345252
-3.15875 -1.42963 12.8542 0.0612547 -0.252785 0.542764 0.4 3.04221 0.166984 4.29656 -0.499533 0.666475 -0.553423
-5.15737 -2.20863 15.3814 -0.0770677 -0.248997 -0.423582 0.4 3.05875 -0.999859 3.04889 -0.285748 0.688131 -0.666951
-3.648 -2.5685 10.791 0.102482 0.15794 0 -0.2 3.68179 0.243116 5.20826 0.0512143 0.888126 -0.456737
-6.951 -2.5145 9.9525 0.198646 -0.114392 0 -0.2 4.0284 -0.0955885 0.207135 0.21621 0.976343 0.00262576
-7.49125 -1.47625 15.2793 0.247017 -0.289837 0.704737 -0.777778 4.04482 -0.569798 2.32266 0.469884 0.554722 -0.686653
-9.14338 -2.21881 10.6134 0.047993 -0.227819 0 -0.866667 4.05376 -0.594547 0.857793 0.525658 0.686227 0.502768
-4.73887 -2.95038 10.0363 0.168411 0.346042 0 -0.2 4.08068 0.440618 5.67573 0.215907 0.495566 -0.841308
-3.83075 -0.304 14.6757 -0.026281 -0.384578 -0.0434052 0.446411 4.16978 -0.560929 3.60214 -0.607594 -0.0369576 -0.793388
-2.33325 -1.6125 12.1005 0.0651217 -0.138511 0.0357752 -0.134356 4.17488 -0.221343 4.53076 -0.27871 0.82363 -0.493918
-9.30481 -1.76231 13.5004 -0.51173 -0.274145 -0.615631 -0.777778 4.26983 -0.45824 1.67428 0.595097 0.508562 -0.622273
-9.42325 -2.72775 11.9522 -0.069941 -0.202223 0 -0.779522 4.30553 -0.999869 1.20012 0.61736 0.784708 -0.0556738
-5.79569 -1.33506 16.1006 -0.0309629 -0.311106 0 0.4 4.35791 -0.999871 2.8809 -0.124208 0.290816 -0.948682
-6.351 -2.99425 8.68025 0.534287 0.200703 0 -0.533636 4.40272 -0.0896829 0.0110129 0.659098 0.746601 -0.0904267
-1.991 -1.967 11.037 -0.109312 -0.109696 0 -0.2 4.63048 0.0152856 4.76883 -0.456314 0.833743 -0.310886
-8.08497 -1.88934 9.36447 0.207993 -0.190037 0 -0.866667 4.68384 -0.139227 0.456925 0.524179 0.786561 0.326433
-1.63806 -0.748062 12.9071 0.207123 0.167119 0 0.0257813 4.70949 0.00689755 4.31607 -0.00624998 0.683988 -0.729466
-3.67 -3.37725 10.0363 0.238417 0.347886 0 -0.2 4.7882 0.259178 5.39275 0.0528347 0.22804 -0.972217
-2.55194 -2.87169 10.2829 0.0562423 0.205546 -0.338533 -0.154071 4.86614 -0.147396 5.11278 -0.412992 0.578452 -0.703442
-5.271 -4.34734 9.45378 0.429117 0.415737 0 -0.2 4.90398 0.0790899 5.9282 0.716884 -0.165769 -0.677199
-2.90569 0.68025 13.7451 0.049932 -0.28784 0 0.4 5.10247 0.0684272 3.84482 -0.312653 0.115108 -0.942867
-4.75675 0.05125 15.3105 -0.106209 -0.406303 -0.141506 0.669609 5.11194 -0.407501 3.28737 -0.547288 -0.301542 -0.780735
-9.64669 -1.105 10.3852 -0.036121 -0.288742 0 -0.866667 5.29713 -0.146609 0.889434 0.861516 0.199114 0.467058
-10.1517 -1.443 12.8884 -0.57693 -0.29019 -0.0908054 -0.810518 5.3624 -0.920442 1.52303 0.884903 0.208359 -0.416574
-8.64675 -1.3 14.493 -0.307199 -0.362485 -0.805512 -0.777778 5.45355 -0.640637 2.03504 0.694924 0.166547 -0.69953
-6.8605 -0.341 15.9435 0.0436187 -0.375919 0.47085 -0.777778 5.50352 -0.759795 2.63425 0.396037 -0.188333 -0.898713
-4.18175 0.935375 14.1839 -0.0221448 -0.432631 0 0.924198 5.54859 -0.18944 3.48408 -0.205217 -0.606615 -0.768052
-0.977813 -1.33644 11.9819 0.0576827 0.0265675 0 -0.155669 5.56322 -0.143982 4.53828 -0.0664935 0.980925 -0.18266
-5.719 -0.127 16.1567 -0.0384123 -0.386555 0 0.798507 5.5697 -0.999911 2.96407 -0.158741 -0.406461 -0.899773
-10.237 -1.322 11.2058 -0.214441 -0.282834 -0.238289 -0.866667 5.58713 -0.926325 1.08719 0.927756 0.180387 0.326696
-8.03256 0.0735625 15.0258 -0.074313 -0.393118 0 0.317122 5.7059 -0.424753 2.37809 0.517041 -0.337749 -0.786508
-6.187 -2.8705 7.317 0.785327 0.176922 0.122961 -0.866667 5.78136 0.873616 6.23387 0.76518 0.638045 -0.0860097
-9.06 -0.9825 9.4 0.0107298 -0.200968 0 -0.866667 5.78805 0.0899438 0.644952 0.709073 0.625695 0.325148
-1.22113 0.0809375 13.5485 0.0400333 0.212963 0 0.4 5.83753 -0.0746796 4.1744 0.27894 0.353428 -0.892906
-7.16125 -2.234 7.76575 0.524633 -0.138354 0.104137 -0.866667 5.84174 0.213785 0.137436 0.557123 0.812604 -0.171138
-9.43606 -0.117812 13.4581 -0.329975 -0.354274 -0.0503273 0.201144 5.9201 -0.30643 1.81383 0.804556 -0.193789 -0.561369
-8.26437 -1.01525 8.31125 0.0134116 -0.132387 0 -0.866667 6.06423 0.802344 0.644952 0.555904 0.831173 -0.0110874
-0.27 -0.883 13.3573 0.187824 0.151745 0 -0.2 6.15603 -0.074031 4.1744 0.52276 0.654727 -0.545943
-5.61875 -4.25737 7.6965 1 0.266532 0.473898 -0.866667 6.16324 0.429686 6.23387 0.978629 0.118664 -0.167943
-1.62925 -2.0845 9.506 -0.3736 -0.152286 -0.239979 -0.0888889 6.20802 0.693731 5.11278 -0.672234 0.587866 -0.450016
-5.345 0.7695 14.552 -0.0206934 -0.487011 0 0.933333 6.31079 0.669516 3.28737 -0.203801 -0.759961 -0.617191
-9.65375 -0.18225 9.868 -0.0384657 -0.236572 0 -0.866667 6.35497 0.035881 0.889434 0.944339 0.32223 0.066263
-0.426 -1.17206 10.6077 -0.082501 -0.0445816 0 -0.0888889 6.43754 0.701762 4.53828 -0.363504 0.925447 -0.106831
-6.17556 -5.75075 9.81419 0.51025 0.396367 0 -0.0888889 6.6121 -0.485206 5.9282 0.879245 -0.409227 -0.243849
-2.61469 -4.94441 9.86416 0.323553 0.304105 0 -0.0888889 6.68538 0.0684234 5.39275 -0.775368 -0.219062 -0.592297
-3.42144 2.20444 13.4284 -0.243935 -0.326995 -0.116342 0.9093 6.74242 -0.172714 3.84482 0.306256 -0.504535 -0.80725
-6.4485 -3.06988 6.36562 0.82373 0.147454 0.232478 -0.866667 6.78797 0.999867 6.23387 0.581447 0.599726 -0.549771
-10.1956 -0.223 12.1319 -0.318546 -0.33146 -0.563898 -0.758511 6.79859 -0.999829 1.52303 0.948219 -0.288896 -0.131983
-6.381 0.66075 15.2494 0.00722077 -0.452776 0 0.933333 6.81318 -0.597313 2.63425 -0.00666402 -0.786907 -0.617035
-3.67925 -5.23994 10.9784 0.37313 0.497347 0 -0.2 6.8756 -0.054301 5.39275 -0.0577555 -0.859388 -0.508052
-6.2445 -5.67425 8.35825 0.839817 0.31436 0.48189 -0.866667 6.88099 -0.593974 5.9282 0.940384 -0.316391 0.124801
-8.909 0.4065 14.286 -0.223873 -0.383445 -0.102703 -0.210171 6.90018 -0.729122 1.81383 0.73117 -0.497013 -0.4673
-4.92338 -5.55363 11.0901 0.315841 0.541912 0 -0.2 6.96638 0.080399 5.9282 0.467586 -0.821285 -0.326885
-9.76156 0.291438 11.3061 -0.0964303 -0.336103 0 0.4 6.97382 -0.15531 0.889434 0.936059 -0.348835 -0.0459032
-9.39925 -0.69575 8.29525 0.0114345 -0.127419 0 -0.866667 6.97876 0.0238771 0.644952 0.516402 0.75225 -0.409204
-1.30175 1.72675 13.5933 -0.0387437 -0.18006 0 0.4 7.02362 0.635166 4.1744 0.251486 0.358882 -0.898865
-2.06519 2.4575 13.891 -0.0912767 -0.17627 0 0.4 7.07385 0.0798758 3.84482 0.582739 0.418386 -0.696684
-5.53575 1.5295 13.741 -0.000628653 -0.446051 0 0.933333 7.09211 -0.198105 3.48408 -0.121869 -0.773495 -0.621975
-8.17025 -1.88312 7.04 0.270622 0.119344 0.232979 -0.866667 7.13322 0.677647 0.137436 0.329029 0.739171 -0.587679
-8.84081 0.750188 12.7536 -0.0905627 -0.427023 0 0.4 7.18661 -0.0673089 1.81383 0.626112 -0.771068 -0.115926
-0.118719 0.483594 14.4014 -0.026709 0.203165 0 0.4 7.28835 0.265661 4.1744 0.788998 0.16338 -0.592275
-4.70913 2.10713 12.9949 -0.0695653 -0.41423 0 0.112684 7.29926 -0.234144 3.48408 0.223145 -0.9024 -0.368619
-1.03 -3.787 8.5425 0.191599 -0.168711 -0.000550657 -0.0888889 7.35272 -0.66072 5.11278 -0.841293 0.29785 -0.451123
-9.96212 0.7785 9.82487 -0.0460157 -0.240379 0 -0.866667 7.36491 -0.429738 0.889434 0.984476 0.0508648 -0.167988
-8.04775 1.27894 13.8454 -0.0537283 -0.41811 0 0.652107 7.39306 -0.659816 2.37809 0.402317 -0.81053 -0.425655
0.721 -1.61625 13.153 0.124071 0.106003 0 -0.2 7.40562 -0.13008 4.53828 0.550536 0.834086 0.034786
0.656875 -0.954625 11.0969 0.257629 -0.0358903 0 -0.0888889 7.46091 0.407777 4.53828 -0.172353 0.969797 0.17259
-0.47025 -1.53 9.122 -0.106855 -0.0774603 -0.47734 -0.0888889 7.549 0.17356 5.11278 -0.559631 0.807507 -0.186402
-5.79563 -5.69025 7.32412 0.66977 0.238176 0.297821 -0.863844 7.65424 0.225146 6.23387 0.957859 0.0303151 0.285636
-10.1615 0.4705 8.58675 -0.04119 -0.183776 0 -0.866667 7.78452 -0.215396 0.644952 0.911713 0.337515 -0.234228
1.33506 -1.27988 11.9929 0.171192 0.102798 0 -0.184761 7.87681 0.187838 4.53828 0.263704 0.797677 0.542376
-7.69875 -3.17213 5.98338 0.781853 0.12452 0.112886 -0.866667 7.92641 0.118032 0.137436 0.299425 0.616534 -0.728169
-0.620125 -2.47038 8.16737 0.103473 -0.157412 -0.60344 -0.38732 7.92825 -0.131727 5.11278 -0.933496 0.310793 -0.178866
-6.27887 -7.16625 9.82987 0.573587 0.250499 0 -0.0888889 8.03145 -0.176118 5.9282 0.968248 0.150609 -0.199533
0.94725 -0.8885 9.82619 0.196768 -0.00958727 0.025898 -0.0888889 8.04284 0.0536257 4.53828 -0.162998 0.986589 -0.00857057
-8.982 -2.2765 6.4235 0.0985167 0.109177 0 -0.866667 8.22581 0.225585 0.137436 0.208589 0.693139 -0.689962
-0.2655 1.9445 14.1663 -0.044284 0.157452 0 0.4 8.22759 0.999923 4.1744 0.782728 0.426397 -0.453346
-3.53912 2.96525 12.1566 -0.429103 -0.298798 -0.08843 0.764851 8.22908 0.402783 3.84482 0.718337 -0.495399 -0.488439
-2.309 -6.189 8.945 0.43995 0.196686 0 -0.0888889 8.2625 0.159897 5.39275 -0.990824 0.123307 -0.0553434
-5.308 -5.77575 12.31 0.303794 0.590312 0 -0.2 8.26462 -0.624294 5.9282 0.323934 -0.933786 -0.152023
-8.74413 1.04475 11.6525 -0.0659547 -0.395542 0 0.4 8.28631 0.178468 1.81383 0.462599 -0.739102 -0.489623
-6.464 1.99188 13.131 0.00731747 -0.432116 0 0.0184685 8.29525 -0.596023 3.48408 0.114109 -0.94543 -0.305189
-2.011 -5.875 11.0615 0.37523 0.33562 -0.0252554 -0.253553 8.31758 -0.495688 5.39275 -0.733903 -0.671001 -0.105567
-6.111 -5.624 6.089 0.57352 0.160358 0.517632 -0.801127 8.32981 -0.586464 6.23387 0.902457 0.418943 -0.100291
-6.22325 -6.96025 7.58225 0.517227 0.213746 0 -0.777778 8.38313 -0.999844 5.9282 0.827747 0.0783912 0.555599
-7.6435 1.70875 13.037 -0.0383143 -0.42687 0 0.173561 8.3939 -0.768098 2.37809 0.439389 -0.897843 -0.0285534
0.461 -0.8215 15.4971 -0.179853 0.173217 -0.262187 -0.00454918 8.41808 0.0375989 4.1744 0.923269 0.377674 0.0702589
-2.66225 3.6205 14.2621 -0.273342 0.163165 -0.58913 0.933333 8.4328 -0.527157 3.84482 0.891561 0.452106 -0.0268244
-6.624 -4.5115 5.5635 0.468287 0.118965 0 -0.866667 8.44702 0.1465 6.23387 0.517749 0.639978 -0.567772
0.17625 0.576688 15.5509 -0.020969 0.176523 0 0.4 8.47873 0.545594 4.1744 0.950339 0.299197 0.0856599
-10.5411 0.020375 7.60388 -0.0416343 0.150569 0 -0.866667 8.49357 0.287834 0.644952 0.449597 0.384052 -0.806453
-2.55225 3.71012 13.1695 -0.505203 -0.200775 -0.724129 0.933333 8.50014 0.504424 3.84482 0.925513 0.107021 -0.36328
-9.66938 1.7765 10.3371 -0.0597057 -0.28792 0 0.4 8.52426 -0.672893 0.889434 0.732011 -0.557361 -0.391801
-10.148 -1.38462 7.12813 0.016896 0.120818 0 -0.866667 8.52709 -0.219836 0.644952 0.229914 0.611414 -0.757174
-6.60156 -7.33588 8.79594 0.630253 0.227694 0 -0.256651 8.54366 -0.999867 5.9282 0.994857 0.0992303 0.0203263
-2.68963 -5.70463 12.3524 0.373157 0.438141 0 -0.2 8.63149 -0.389516 5.39275 -0.260663 -0.948494 -0.180039
-6.14825 -6.61194 11.79 0.412833 0.401218 0 -0.120257 8.72995 -0.444363 5.9282 0.929507 -0.355159 -0.0993885
-1.90625 -6.818 10.2917 0.36039 0.235545 -0.276012 -0.372184 8.73355 -0.273895 5.39275 -0.962724 -0.18519 0.197148
-0.5245 2.303 15.0765 -0.041517 0.100749 0 0.4 8.79451 0.563277 4.1744 0.599448 0.783212 -0.165048
-0.949313 -4.12856 7.11919 0.359443 -0.140136 0 -0.584002 8.81866 -0.611672 5.11278 -0.913709 0.35722 0.193727
1.41825 -2.4965 14.165 -0.0174466 0.128252 -0.188425 -0.2 8.91729 -0.577821 4.53828 0.754722 0.655694 0.021473
2.11538 -0.606875 10.9895 0.0126506 0.0495553 0 -0.0888889 8.96414 0.999888 4.53828 0.181246 0.959523 0.21556
-5.77275 1.7585 11.7533 -0.103253 -0.462087 0 -0.777778 8.97091 0.612708 3.48408 0.118718 -0.992596 -0.0256668
-10.2965 1.40625 7.82575 -0.117352 -0.233424 0 -0.777778 8.99818 -0.0680291 0.644952 0.562055 -0.588037 -0.581642
-2.197 3.26238 15.6433 -0.0775123 0.134691 0 0.615136 9.00666 -0.0857681 3.84482 0.795622 0.605712 0.00992048
-4.76137 2.07962 11.2802 -0.115962 -0.397588 0 -0.777778 9.01498 0.343031 3.48408 0.554042 -0.813106 -0.178594
-6.10838 -7.2915 10.8197 0.50502 0.260462 0 -0.0888889 9.04364 0.0510481 5.9282 0.978062 0.207388 -0.01962
-8.9555 -3.102 5.67 -0.219211 0.095616 -0.300687 -0.821164 9.22354 -0.278896 0.137436 0.401153 0.74822 -0.528435
-0.030375 -1.28225 7.4885 0.122921 -0.0582194 0.00467234 -0.980047 9.25873 0.180699 5.11278 -0.531229 0.845946 0.0465979
-5.725 -6.1115 13.164 0.28495 0.486885 0 -0.199861 9.27256 -0.999881 5.9282 0.778413 -0.53643 -0.326062
-2.18438 -7.15963 8.50113 0.52569 0.193223 0 -0.0888889 9.33706 -0.211752 5.39275 -0.97819 -0.0684411 0.19611
-9.886 -2.553 5.83125 -0.130164 0.0728908 0 -0.84122 9.34135 -0.205416 0.137436 0.231542 0.833637 -0.501436
1.37888 -0.50825 8.64587 0.109163 0.014378 0.781538 -0.0888889 9.35587 0.999862 4.53828 0.0043209 0.99807 -0.0619493
-6.14975 -8.38775 9.2365 0.642467 0.1605 0 0.597371 9.39557 -0.682244 5.9282 0.864514 0.496605 -0.0774548
2.2445 -2.9305 13.324 -0.0321753 0.0949568 -0.242896 -0.0993964 9.42491 -0.199769 4.53828 0.529716 0.796814 0.29067
-1.7585 -6.495 11.9974 0.3505 0.288616 0 -1 9.46826 0.0230992 5.39275 -0.875271 -0.44215 0.195971
-0.7125 -3.14287 6.77037 0.40072 -0.157085 0 -1 9.48143 -0.786713 5.11278 -0.909629 0.176453 0.376085
-7.03288 1.72438 11.6827 -0.088661 -0.441809 0 -0.777778 9.50275 0.110981 1.81383 0.166318 -0.974006 -0.15379
-8.35437 -4.16412 4.94775 -0.453847 0.112541 -0.475452 -0.816929 9.50325 -0.0223487 0.137436 0.570471 0.599126 -0.561793
1.0885 -1.792 15.59 -0.344987 0.142629 -0.1352 -0.2 9.57751 0.485408 4.1744 0.785731 0.548415 0.286124
-7.5915 -4.8935 5.11925 -0.00991547 0.0937202 0.514298 -0.866667 9.5781 -0.813618 6.23387 0.355514 0.720587 -0.595285
-5.77 -8.44 10.563 0.568423 0.200931 0 -0.0888889 9.58672 0.23855 5.9282 0.951713 0.306736 0.0124313
-6.109 -8.09013 8.2005 0.609747 0.148253 0.0100599 -0.777778 9.62351 -0.999782 5.9282 0.704026 0.548252 0.451407
-2.3525 -6.17938 7.56938 0.610377 -0.15253 0.281908 -0.506213 9.63884 0.253721 5.39275 -0.928894 0.314033 0.196315
-6.183 -5.011 4.536 0.226191 -0.0651512 0.967173 -1 9.67166 0.0722563 6.23387 0.30348 0.907268 0.291145
-4.69228 -7.21006 6.58134 0.7131 -0.114035 0.096704 -0.777778 9.67388 -0.0381626 6.23387 0.412367 0.69768 0.585829
-11.189 -0.84225 7.053 -0.0315099 0.127703 0 -0.866667 9.70331 0.617094 0.644952 0.0537119 0.434125 -0.89925
-1.69987 -5.249 6.81862 0.450617 -0.111023 0.09057 -0.79922 9.71025 -0.615685 5.11278 -0.818807 0.560268 0.125122
-0.3905 1.08862 16.5249 0.0325132 0.149596 0 0.4 9.71646 0.16957 4.1744 0.735052 0.490011 0.468602
3.03731 -1.60906 11.3639 0.0088269 0.13214 0 -0.0888889 9.72117 0.999849 4.53828 0.822196 0.430406 0.372484
-2.78744 -5.99862 13.4154 0.311591 0.424392 0 -0.2 9.73873 -0.106675 5.39275 -0.0566234 -0.97951 -0.193273
-4.036 3.906 11.0367 -0.250796 -0.214763 -0.968542 0.866969 9.77377 0.119188 3.84482 0.922986 0.0195298 -0.384338
-11.8252 -0.017625 7.72687 -0.0253071 0.132457 0 -0.866667 9.7841 -0.496865 0.644952 0.0271841 0.356959 -0.933724
-1.71375 -7.84975 10.351 0.248422 0.192648 -0.236758 -0.347251 9.78478 -0.791293 5.39275 -0.959066 -0.0283712 0.281756
-3.25887 4.56738 12.2809 -0.43913 -0.154571 -0.328631 0.933333 9.86028 0.662804 3.84482 0.800686 0.402702 -0.443545
-0.72125 2.289 16.1483 -0.0342737 0.130801 0 0.4 9.88431 0.999841 4.1744 0.68701 0.597577 0.413423
-8.25669 2.225 10.649 -0.118063 -0.342446 0 0.4 9.91038 -0.654195 1.81383 0.102 -0.921986 -0.373547
-9.33762 2.37037 9.08325 0.0137652 -0.282304 -0.193176 -0.777778 9.95075 -0.78017 0.889434 0.361501 -0.930176 -0.0639541
2.82544 -1.15769 9.54619 0.00558137 0.0808131 0 -0.0888889 9.96077 0.459066 4.53828 0.599762 0.800153 -0.00639302
-0.945625 -1.96769 6.20687 0.41249 -0.136517 0 -1 9.97818 0.0726819 5.11278 -0.792355 0.33976 0.506693
2.16725 -3.2545 14.2727 -0.0208384 0.0727467 -0.619423 -0.0888889 9.98835 -0.966658 4.53828 0.449237 0.890676 0.069866
-3.34713 4.98025 13.9406 -0.22497 0.107307 -0.00143782 0.933333 9.98887 0.474327 3.84482 0.690626 0.722087 -0.0403192
-10.5476 1.928 6.92238 -0.116807 -0.217631 0 -0.777778 10.0712 0.595931 0.644952 -0.197212 -0.846173 -0.495074
2.98381 -2.79806 11.9629 -0.0177105 0.132345 0 -0.0888889 10.1183 0.0389693 4.53828 0.843361 0.450121 0.293484
-4.83238 -6.22475 14.045 0.203985 0.471615 0 -0.172968 10.1188 -0.343419 5.9282 0.337459 -0.863933 -0.373821
-1.52013 -6.21325 13.1946 0.52676 0.333038 0 -0.2 10.1598 -0.524356 5.39275 -0.53448 -0.837967 0.110193
0.352625 -2.17337 16.6042 -0.222807 0.146843 -0.770097 -0.2 10.1688 -0.632978 4.1744 0.727082 0.546677 0.415326
-0.048625 -0.01975 17.1349 0.090348 0.164229 0.17214 0.4 10.1862 0.315266 4.1744 0.914035 0.335831 0.227503
1.949 -2.88838 15.3646 0.0469567 0.066567 -0.0190359 -0.104029 10.2863 -0.297325 4.53828 0.418269 0.908187 -0.0157375
-0.144 -1.296 17.223 0.0337867 0.191634 0 0.4 10.3075 -0.671859 4.1744 0.973384 0.143414 0.178763
-2.13225 -8.094 9.39625 0.419197 0.161959 0 0.107925 10.3087 -0.0980801 5.39275 -0.947777 0.184363 0.260248
-7.58725 -5.17525 4.094 -0.0551233 0.0745171 0.672859 -1 10.3253 0.185181 6.23387 -0.109349 0.717811 -0.687598
-10.4152 -2.56775 4.9595 -0.10965 -0.0681141 -0.00293626 -0.85504 10.3613 -0.197551 0.137436 0.427255 0.881527 0.200905
-1.476 -3.1625 5.95813 0.62033 -0.161013 0.397828 -1 10.4183 0.0432137 5.11278 -0.693237 0.143144 0.706351
-2.162 -8.0945 7.9165 0.50133 0.136216 0 -0.0888889 10.4399 -0.999892 5.39275 -0.909633 0.295624 0.291845
-11.3241 -2.33512 5.93962 -0.0451153 -0.051851 0 -0.866667 10.4504 -0.709798 0.644952 0.252521 0.915196 -0.314085
-2.635 4.1795 16.67 -0.279625 -0.160271 -0.821095 -0.703502 10.4513 -0.0520369 3.84482 0.976227 0.215117 -0.0265578
-2.38525 3.11525 17.1514 -0.092415 0.176297 -0.0187242 0.352111 10.5336 0.273169 3.84482 0.907728 0.15737 0.388928
-11.772 1.0155 8.0525 -0.120183 0.175008 0 -0.777813 10.5413 -0.688054 0.644952 -0.0128847 -0.133187 -0.991007
-4.11125 3.07125 10.2505 -0.46734 -0.266985 -0.675989 -0.700584 10.5854 0.336372 3.48408 0.957848 -0.280915 0.0601128
1.572 -0.953875 7.497 0.332302 0.0204446 0.197939 -0.676238 10.6032 0.159922 4.53828 0.0473165 0.987682 -0.149147
-12.2112 -1.32056 6.83494 -0.0297725 0.0883097 0 -0.464164 10.612 -0.41028 0.644952 0.212442 0.686723 -0.695183
-5.243 2.07262 9.748 -0.325034 -0.366569 0 -0.777778 10.6211 0.477433 3.48408 0.239633 -0.959016 -0.151212
-8.94312 -4.58262 4.06213 -0.560117 0.138983 -0.0572364 -0.777778 10.6461 0.0691205 0.137436 0.560501 0.160938 -0.812366
-1.81662 -4.56588 5.56887 0.41354 -0.142323 0.340609 -1 10.6481 -0.672701 5.11278 -0.783066 0.239221 0.574091
-5.27969 -9.23044 9.6165 0.54384 0.10325 0 1 10.665 -0.152386 5.9282 0.552825 0.793218 0.255323
-0.04025 -0.651 6.15987 0.19916 -0.0877665 0 -1 10.7297 0.193422 5.11278 -0.333882 0.706318 0.62421
-6.14838 -8.3445 12.8004 0.305386 0.249862 0 -0.0888889 10.7356 -0.577007 5.9282 0.998638 0.0306221 -0.0422442
-4.20325 4.8255 11.4265 -0.220652 -0.15235 -0.405314 0.0119865 10.7864 -0.206258 3.84482 0.840367 0.417559 -0.345583
-0.950875 -7.54581 12.4346 0.0322214 0.248525 -0.245019 -1 10.8638 0.0521168 5.39275 -0.632297 -0.545991 0.549632
-8.7625 2.4195 8.222 -0.157419 -0.273908 0 -0.777778 10.8788 0.0662672 0.644952 0.280303 -0.957877 -0.062466
-5.116 -5.535 4.308 0.53344 -0.124604 0.132085 -1 10.8821 -0.573461 6.23387 0.188106 0.463336 0.865988
-7.16862 2.01875 10.3194 -0.231346 -0.374143 0 -0.777778 10.9041 0.403521 1.81383 -0.1478 -0.973047 -0.177015
-4.4855 4.7605 10.415 -0.342483 -0.16685 -0.01597 -0.777778 10.9221 -0.396687 3.84482 0.953016 0.288411 -0.0926233
-1.463 -8.376 11.3333 0.176508 0.208616 -0.105314 -1 10.927 0.32598 5.39275 -0.806276 -0.255371 0.533577
-2.81013 -7.37475 7.02338 0.598937 -0.143677 0.0306396 -1 10.9562 -0.310992 5.39275 -0.632572 0.310152 0.709689
-3.95775 5.3385 12.688 -0.27018 -0.0999073 -0.1101 0.636236 10.9778 0.263018 3.84482 0.646367 0.75457 -0.113288
-5.6675 -9.7635 11.0267 0.39355 0.157214 0 0.661547 10.9928 -0.536952 5.9282 0.829797 0.432144 0.353113
-2.88225 -6.48225 6.32975 0.59626 -0.0918097 0.800479 -1 11.0205 0.105173 5.39275 -0.654714 0.679947 0.330186
-9.5915 -3.258 3.9775 -0.310933 -0.116592 -0.124325 -0.777778 11.0383 0.126382 0.137436 0.845598 0.469669 -0.25372
3.34275 -2.1375 9.62875 -0.085986 0.129006 0 -0.0888889 11.0718 0.296307 4.53828 0.924517 0.35699 0.133518
-8.85525 2.47675 6.7845 -0.14394 -0.227429 0 -0.777778 11.0736 0.66176 0.644952 0.496342 -0.751685 -0.434297
1.475 -1.086 6.477 0.206609 -0.0357499 0 -1 11.083 -0.482249 5.11278 0.0342105 0.968835 0.245335
-3.2905 5.03075 15.7904 -0.174915 -0.120659 -0.0880181 0.570087 11.091 0.0588696 3.84482 0.787444 0.554987 -0.26818
-5.05225 -9.12525 8.24525 0.259349 -0.0913292 0.0785852 0.778944 11.1034 -0.999817 5.9282 0.439157 0.814084 0.380011
-2.09125 1.976 17.3424 -0.0178084 0.143377 0 0.480791 11.1404 -0.304671 4.1744 0.608348 0.545546 0.576448
-4.2395 -8.5735 7.08169 0.515497 -0.110748 0 -0.918367 11.1952 -0.999835 6.23387 0.129076 0.635443 0.761282
-1.88644 -9.22363 10.6494 0.397807 0.130436 0 0.844444 11.2013 -0.0799102 5.39275 -0.616614 0.425512 0.662365
-3.716 -6.85975 5.448 0.579937 -0.0605061 0.268141 -1 11.2102 -0.999864 6.23387 -0.263335 0.865654 0.425791
3 137 172 143
3 163 118 190
3 104 101 65
3 104 65 69
3 69 65 47
3 162 174 129
3 129 118 82
3 118 122 86
3 82 86 69
3 86 104 69
3 69 47 45
3 69 45 82
3 47 26 45
3 8 15 6
3 43 26 47
3 33 43 52
3 43 47 65
3 52 43 80
3 65 80 43
3 80 65 101
3 192 181 114
3 192 114 153
3 49 99 57
3 82 57 99
3 99 131 82
3 49 57 42
3 42 45 24
3 30 24 8
3 30 18 28
3 18 8 14
3 14 2 1
3 2 0 1
3 0 2 6
3 4 0 3
3 6 11 5
3 33 52 64
3 74 64 52
3 189 136 186
3 136 95 133
3 95 136 79
3 79 136 94
3 61 49 30
3 30 28 60
3 89 55 73
3 28 14 29
3 50 29 25
3 14 28 18
3 10 1 12
3 32 13 23
3 5 7 3
3 36 16 41
3 36 41 59
3 35 21 46
3 41 75 92
3 70 91 128
3 128 91 147
3 128 147 183
3 183 173 128
3 128 173 116
3 116 173 170
3 170 184 142
3 145 88 142
3 187 145 179
3 88 56 72
3 88 72 116
3 56 67 31
3 31 67 66
3 88 102 56
3 56 102 67
3 102 98 67
3 66 67 109
3 109 67 115
3 102 152 98
3 98 152 115
3 115 152 194
3 167 115 194
3 115 168 196
3 73 110 138
3 138 134 89
3 134 186 121
3 134 121 89
3 136 133 197
3 63 30 60
3 60 106 90
3 89 108 55
3 108 144 126
3 126 144 185
3 121 161 108
3 144 198 185
3 133 195 197
3 84 132 124
3 176 132 188
3 117 178 132
3 188 132 178
3 155 106 141
3 106 126 156
3 156 141 106
3 150 83 119
3 50 78 83
3 83 78 119
3 78 85 123
3 38 53 25
3 25 20 38
3 27 38 20
3 27 20 12
3 27 31 44
3 31 9 19
3 31 19 37
3 72 37 68
3 72 68 92
3 116 72 113
3 92 113 72
3 92 68 59
3 51 59 68
3 113 92 128
3 66 71 44
3 44 71 48
3 48 71 97
3 100 139 158
3 193 177 119
3 177 150 119
3 193 119 171
3 171 119 123
3 149 123 85
3 149 85 112
3 77 85 53
3 112 77 81
3 76 81 38
3 38 48 76
3 48 97 76
3 97 160 157
3 130 97 157
3 140 81 154
3 154 81 125
3 125 81 76
3 125 76 111
3 111 130 159
3 130 157 159
3 77 112 85
3 163 122 118
3 104 166 172
3 104 172 137
3 163 166 122
3 122 166 104
3 80 101 114
3 143 114 101
3 169 114 143
3 135 162 99
3 99 162 131
3 162 129 131
3 82 131 129
3 82 118 86
3 24 15 8
3 15 24 26
3 45 26 24
3 6 15 26
3 17 6 26
3 17 43 33
3 17 26 43
3 52 80 74
3 74 80 114
3 74 114 103
3 103 114 148
3 181 148 114
3 79 94 49
3 136 135 94
3 49 94 99
3 99 94 135
3 30 49 24
3 24 49 42
3 4 1 0
3 35 16 21
3 21 16 11
3 16 5 11
3 5 16 7
3 40 17 33
3 58 64 70
3 64 58 40
3 64 40 33
3 91 70 64
3 64 74 103
3 64 103 91
3 103 148 147
3 103 147 91
3 189 199 136
3 136 197 186
3 133 95 105
3 95 79 61
3 54 84 105
3 54 105 61
3 95 61 105
3 61 30 54
3 60 28 55
3 50 73 29
3 29 55 28
3 55 29 73
3 25 29 10
3 25 10 20
3 10 29 14
3 12 20 10
3 9 12 1
3 4 9 1
3 32 9 13
3 13 9 4
3 13 4 3
3 23 13 16
3 13 7 16
3 3 7 13
3 32 39 59
3 36 39 23
3 32 23 39
3 51 32 59
3 36 23 16
3 36 59 39
3 41 16 35
3 75 41 62
3 75 62 70
3 70 62 46
3 46 62 41
3 46 41 35
3 34 58 46
3 34 46 21
3 46 58 70
3 40 58 22
3 17 40 22
3 58 34 22
3 17 22 6
3 6 22 11
3 11 22 21
3 34 21 22
3 96 75 70
3 92 75 96
3 92 96 128
3 128 96 70
3 88 116 142
3 142 116 170
3 179 145 142
3 184 179 142
3 115 67 98
3 168 115 167
3 127 150 164
3 110 127 164
3 175 138 110
3 175 110 164
3 165 121 186
3 161 121 165
3 133 105 124
3 124 105 84
3 117 84 107
3 107 84 54
3 107 54 63
3 30 63 54
3 63 90 107
3 106 60 93
3 106 93 126
3 55 108 93
3 55 93 60
3 93 108 126
3 198 144 161
3 161 144 108
3 176 195 133
3 176 133 124
3 176 124 132
3 107 178 117
3 178 107 120
3 120 107 90
3 120 90 155
3 156 126 180
3 83 127 110
3 83 110 73
3 83 73 50
3 150 127 83
3 123 119 78
3 53 85 78
3 32 51 37
3 32 37 19
3 32 19 9
3 56 31 37
3 37 72 56
3 44 48 27
3 27 48 38
3 111 76 97
3 71 100 97
3 151 125 111
3 159 151 111
3 101 137 143
3 137 101 104
3 129 190 118
3 129 174 190
3 122 104 86
3 57 82 45
3 57 45 42
3 8 18 30
3 6 2 8
3 14 8 2
3 0 6 5
3 79 49 61
3 1 10 14
3 5 3 0
3 102 145 152
3 145 102 88
3 145 187 152
3 138 189 134
3 186 134 189
3 63 60 90
3 121 108 89
3 73 138 89
3 78 50 53
3 53 50 25
3 9 31 12
3 27 12 31
3 51 68 37
3 92 59 41
3 113 128 116
3 66 44 31
3 87 109 100
3 87 100 71
3 87 71 66
3 87 66 109
3 109 115 146
3 109 146 100
3 139 100 146
3 115 196 146
3 196 139 146
3 117 132 84
3 90 106 155
3 185 180 126
3 77 53 38
3 81 77 38
3 158 97 100
3 97 158 160
3 112 81 140
3 140 149 112
3 111 97 130
3 140 191 149
