ply
format ascii 1.0
comment Generated by PyMesh
element vertex 200
property float x
property float y
property float z
property float charge
property float ddc
property float hbond
property float hphob
property float rho
property float si
property float theta
property float nx
property float ny
property float nz
element face 342
property list uchar int vertex_indices
end_header
-6.60156 -7.33588 8.79594 0.630253 0 0 -0.256651 1e-08 -0.999867 2.22045e-16 0.994857 0.0992303 0.0203263
-6.109 -8.09013 8.2005 0.609747 -0.511253 0.0100599 -0.777778 1.07984 -0.999782 2.22045e-16 0.704026 0.548252 0.451407
-6.27887 -7.16625 9.82987 0.573587 -0.286516 0 -0.0888889 1.09632 -0.176118 4.05551 0.968248 0.150609 -0.199533
-6.14975 -8.38775 9.2365 0.642467 -0.293779 0 0.597371 1.22664 -0.682244 5.29909 0.864514 0.496605 -0.0774548
-6.22325 -6.96025 7.58225 0.517227 -0.367044 0 -0.777778 1.32562 -0.999844 1.19217 0.827747 0.0783912 0.555599
-6.2445 -5.67425 8.35825 0.839817 -0.299348 0.48189 -0.866667 1.75502 -0.593974 2.12892 0.940384 -0.316391 0.124801
-6.17556 -5.75075 9.81419 0.51025 -0.371183 0 -0.0888889 1.93157 -0.485206 3.04603 0.879245 -0.409227 -0.243849
-6.10838 -7.2915 10.8197 0.50502 -0.0619499 0 -0.0888889 2.1085 0.0510481 4.2377 0.978062 0.207388 -0.01962
-5.27969 -9.23044 9.6165 0.54384 -0.299694 0 1 2.4961 -0.152386 5.36961 0.552825 0.793218 0.255323
-5.05225 -9.12525 8.24525 0.259349 -0.350346 0.0785852 0.778944 2.55977 -0.999817 5.97212 0.439157 0.814084 0.380011
-5.77 -8.44 10.563 0.568423 -0.062388 0 -0.0888889 2.60742 0.23855 4.79641 0.951713 0.306736 0.0124313
-5.79563 -5.69025 7.32412 0.66977 -0.106615 0.297821 -0.863844 2.69031 0.225146 1.6036 0.957859 0.0303151 0.285636
-6.14825 -6.61194 11.79 0.412833 -0.193315 0 -0.120257 3.1375 -0.444363 3.8577 0.929507 -0.355159 -0.0993885
-4.69228 -7.21006 6.58134 0.7131 -0.301824 0.096704 -0.777778 3.17172 -0.0381626 0.800371 0.412367 0.69768 0.585829
-4.2395 -8.5735 7.08169 0.515497 -0.362221 0 -0.918367 3.31153 -0.999835 0.208041 0.129076 0.635443 0.761282
-5.61875 -4.25737 7.6965 1 0.0853375 0.473898 -0.866667 3.43936 0.429686 2.05252 0.978629 0.118664 -0.167943
-5.271 -4.34734 9.45378 0.429117 -0.271913 0 -0.2 3.63969 0.0790899 2.68797 0.716884 -0.165769 -0.677199
-4.92338 -5.55363 11.0901 0.315841 -0.365507 0 -0.2 3.73011 0.080399 3.30427 0.467586 -0.821285 -0.326885
-3.82663 -9.5445 8.57913 0.41984 -0.356329 0 0.913713 3.89745 -0.8139 5.92598 -0.0289599 0.975135 0.219709
-6.111 -5.624 6.089 0.57352 0.0943015 0.517632 -0.801127 3.96678 -0.586464 1.47143 0.902457 0.418943 -0.100291
-5.6675 -9.7635 11.0267 0.39355 -0.105225 0 0.661547 4.01354 -0.536952 4.98913 0.829797 0.432144 0.353113
-4.34269 -10.1756 10.3532 0.501757 -0.302931 0 0.960233 4.0173 -0.382665 5.36459 0.0574804 0.76062 0.646648
-3.57711 -9.55381 9.77205 0.436577 -0.358202 0 0.913024 4.23609 0.132051 5.63721 -0.197054 0.922204 0.33273
-6.14838 -8.3445 12.8004 0.305386 -0.0564843 0 -0.0888889 4.35207 -0.577007 4.37359 0.998638 0.0306221 -0.0422442
-5.308 -5.77575 12.31 0.303794 -0.329952 0 -0.2 4.43196 -0.624294 3.61763 0.323934 -0.933786 -0.152023
-5.725 -6.1115 13.164 0.28495 -0.19126 0 -0.199861 4.65982 -0.999881 3.81798 0.778413 -0.53643 -0.326062
-3.716 -6.85975 5.448 0.579937 -0.322795 0.268141 -1 4.70805 -0.999864 0.801039 -0.263335 0.865654 0.425791
-3.04312 -9.22025 8.00725 0.43946 -0.382113 0 0.844444 4.92023 -0.999875 6.16918 -0.450346 0.747347 0.488529
-6.187 -2.8705 7.317 0.785327 0.109233 0.122961 -0.866667 4.98543 0.873616 2.06393 0.76518 0.638045 -0.0860097
-5.07044 -6.35375 5.00331 0.6309 -0.221676 0.265465 -0.957747 5.00651 -0.625621 0.941017 0.358455 0.754102 0.55031
-3.67925 -5.23994 10.9784 0.37313 -0.381868 0 -0.2 5.01803 -0.054301 3.18122 -0.0577555 -0.859388 -0.508052
-2.81013 -7.37475 7.02338 0.598937 -0.410062 0.0306396 -1 5.11208 -0.310992 0.435967 -0.632572 0.310152 0.709689
-2.88225 -6.48225 6.32975 0.59626 -0.375968 0.800479 -1 5.13875 0.105173 0.634506 -0.654714 0.679947 0.330186
-6.351 -2.99425 8.68025 0.534287 0.150408 0 -0.533636 5.19988 -0.0896829 2.34101 0.659098 0.746601 -0.0904267
-2.77375 -9.09387 9.28175 0.433723 -0.398931 0 0.844444 5.24107 -0.218317 5.86005 -0.625672 0.758327 0.182961
-4.73887 -2.95038 10.0363 0.168411 -0.253539 0 -0.2 5.24405 0.440618 2.69892 0.215907 0.495566 -0.841308
-5.65947 -10.4865 12.0315 0.227417 -0.112645 -0.128585 -0.0888889 5.25145 -0.867021 4.913 0.739189 0.670298 0.0655765
-6.624 -4.5115 5.5635 0.468287 0.214982 0 -0.866667 5.29981 0.1465 1.60358 0.517749 0.639978 -0.567772
-6.4485 -3.06988 6.36562 0.82373 0.175193 0.232478 -0.866667 5.40656 0.999867 1.93544 0.581447 0.599726 -0.549771
-3.67 -3.37725 10.0363 0.238417 -0.279452 0 -0.2 5.6002 0.259178 2.77395 0.0528347 0.22804 -0.972217
-6.0635 -9.55275 13.222 0.51936 -0.0532613 0 -0.0888889 5.63457 -0.999827 4.57289 0.961183 0.228341 -0.154877
-6.183 -5.011 4.536 0.226191 0.20212 0.967173 -1 5.63793 0.0722563 1.38509 0.30348 0.907268 0.291145
-5.82725 -2.50425 9.9965 0.16658 0.234382 0 -0.2 5.63992 0.279194 2.5943 0.185066 0.85031 -0.49267
-4.3105 -11.2565 11.5763 0.575097 -0.178719 0 -0.0888889 5.64989 -0.758212 5.16834 0.336622 0.872277 0.354709
-3.302 -11.1471 11.4605 0.51537 -0.226904 0 0.844444 5.82089 -0.374138 5.07806 -0.0613465 0.694598 0.716778
-5.70131 -7.94219 14.2342 0.465197 -0.102655 0 -0.0888889 5.9069 -0.359134 4.22933 0.924738 -0.100025 -0.367226
-4.83238 -6.22475 14.045 0.203985 -0.236467 0 -0.172968 5.91909 -0.343419 3.82957 0.337459 -0.863933 -0.373821
-4.09312 -6.05037 4.4095 0.490923 -0.261573 0 -1 6.07764 -0.999878 0.941017 -0.137521 0.544987 0.827089
-5.116 -5.535 4.308 0.53344 -0.221222 0.132085 -1 6.08163 -0.573461 0.941017 0.188106 0.463336 0.865988
-1.88644 -9.22363 10.6494 0.397807 -0.313729 0 0.844444 6.16925 -0.0799102 5.86005 -0.616614 0.425512 0.662365
-2.69287 -5.83144 5.22319 0.455863 -0.311979 0.425143 -1 6.17595 -0.739062 0.634506 -0.654214 0.459018 0.601088
-7.16125 -2.234 7.76575 0.524633 0.150004 0.104137 -0.866667 6.2327 0.213785 2.06393 0.557123 0.812604 -0.171138
-2.162 -8.0945 7.9165 0.50133 -0.412414 0 -0.0888889 6.35268 -0.999892 0.435967 -0.909633 0.295624 0.291845
-7.5915 -4.8935 5.11925 -0.00991547 0.23598 0.514298 -0.866667 6.43089 -0.813618 1.60358 0.355514 0.720587 -0.595285
-2.13225 -8.094 9.39625 0.419197 -0.421169 0 0.107925 6.43454 -0.0980801 5.86005 -0.947777 0.184363 0.260248
-2.3525 -6.17938 7.56938 0.610377 -0.41693 0.281908 -0.506213 6.50365 0.253721 0.634506 -0.928894 0.314033 0.196315
-2.61469 -4.94441 9.86416 0.323553 -0.404754 0 -0.0888889 6.58715 0.0684234 3.18122 -0.775368 -0.219062 -0.592297
-3.648 -2.5685 10.791 0.102482 0.214565 0 -0.2 6.62442 0.243116 2.77395 0.0512143 0.888126 -0.456737
-6.951 -2.5145 9.9525 0.198646 0.21793 0 -0.2 6.68608 -0.0955885 2.5943 0.21621 0.976343 0.00262576
-7.69875 -3.17213 5.98338 0.781853 0.223464 0.112886 -0.866667 6.71793 0.118032 1.93544 0.299425 0.616534 -0.728169
-2.18438 -7.15963 8.50113 0.52569 -0.445008 0 -0.0888889 6.73121 -0.211752 0.435967 -0.97819 -0.0684411 0.19611
-2.68963 -5.70463 12.3524 0.373157 -0.309916 0 -0.2 6.77392 -0.389516 3.18122 -0.260663 -0.948494 -0.180039
-2.011 -5.875 11.0615 0.37523 -0.362725 -0.0252554 -0.253553 6.805 -0.495688 3.18122 -0.733903 -0.671001 -0.105567
-5.41463 -10.342 13.8094 0.499113 -0.0863312 0 0.271149 6.81313 -0.471593 4.57289 0.814785 0.508942 -0.277674
-2.55194 -2.87169 10.2829 0.0562423 -0.265482 -0.338533 -0.154071 6.85178 -0.147396 2.77395 -0.412992 0.578452 -0.703442
-4.754 -10.953 13.301 0.49652 -0.127346 0 -0.0888889 6.87906 -0.214181 4.913 0.543967 0.839005 -0.01308
-1.69987 -5.249 6.81862 0.450617 -0.321208 0.09057 -0.79922 6.91581 -0.615685 0.634506 -0.818807 0.560268 0.125122
-6.2165 -2.099 11.352 -0.0479317 0.223877 0 -0.2 7.10728 0.734313 2.5943 -0.0671779 0.99727 0.0306544
-2.527 -11.704 12.3365 0.47286 -0.157714 0 0.377778 7.11632 -0.344293 5.07806 0.176489 0.927301 0.330096
-7.58725 -5.17525 4.094 -0.0551233 0.272773 0.672859 -1 7.11924 0.185181 1.38509 -0.109349 0.717811 -0.687598
-3.95025 -4.98125 4.1915 0.403797 -0.26752 0.703378 -1 7.17808 -0.439848 0.941017 -0.364018 0.223478 0.904184
-1.463 -8.376 11.3333 0.176508 -0.323802 -0.105314 -1 7.3378 0.32598 5.86005 -0.806276 -0.255371 0.533577
-8.08497 -1.88934 9.36447 0.207993 0.134548 0 -0.866667 7.36682 -0.139227 2.34101 0.524179 0.786561 0.326433
-4.75725 -4.3725 3.745 0.240903 -0.242106 0 -1 7.38897 0.137715 1.38509 -0.31198 0.546455 0.77721
-8.35437 -4.16412 4.94775 -0.453847 0.165444 -0.475452 -0.816929 7.50018 -0.0223487 1.60358 0.570471 0.599126 -0.561793
-1.71375 -7.84975 10.351 0.248422 -0.378888 -0.236758 -0.347251 7.50521 -0.791293 5.86005 -0.959066 -0.0283712 0.281756
-5.26237 -9.369 14.8328 0.507297 -0.0596636 0 0.78746 7.51525 -0.00494616 4.22933 0.932581 0.232313 -0.276268
-8.17025 -1.88312 7.04 0.270622 0.18302 0.232979 -0.866667 7.52418 0.677647 2.06393 0.329029 0.739171 -0.587679
-4.87 -7.05025 15.4299 0.42535 -0.159915 0 -0.0888889 7.53179 -0.21173 3.82957 0.602014 -0.722362 -0.340253
-3.731 -6.37675 15.2506 0.378683 -0.207092 0 -0.2 7.55909 -0.78274 3.82957 0.146035 -0.903592 -0.402736
-3.58612 -11.5753 13.3752 0.592123 -0.134898 0 -0.0888889 7.61519 -0.179518 5.16834 0.367699 0.920854 0.129709
-2.817 -4.43525 4.809 0.438413 -0.275584 0.745353 -1 7.63757 -0.632374 0.634506 -0.582432 0.0504241 0.811314
-1.33125 -10.4866 11.3071 0.442793 -0.224095 0 0.844444 7.69762 -0.463431 5.07806 -0.287108 0.373615 0.882032
-1.81662 -4.56588 5.56887 0.41354 -0.283654 0.340609 -1 7.7536 -0.672701 0.634506 -0.783066 0.239221 0.574091
-6.11369 -4.90406 2.41894 0.0869857 0.257984 0 -1 7.75883 0.106526 1.38509 -0.720725 0.693096 -0.0131379
-3.47725 -2.18625 11.8475 0.0116938 -0.230129 0 -0.2 7.76084 -0.07272 2.77395 -0.3464 0.841313 -0.414969
-2.309 -6.189 8.945 0.43995 -0.443486 0 -0.0888889 7.80577 0.159897 0.435967 -0.990824 0.123307 -0.0553434
-0.571625 -9.07475 11.6154 0.316279 -0.243121 -0.00596384 -0.972213 7.80756 -0.150563 5.86005 -0.446835 -0.276825 0.850709
-2.78744 -5.99862 13.4154 0.311591 -0.26064 0 -0.2 7.88116 -0.106675 3.82957 -0.0566234 -0.97951 -0.193273
-4.98606 -4.13831 2.75444 0.0453553 -0.248354 0 -1 7.95487 -0.448578 1.38509 -0.707196 0.630495 0.319921
-1.7585 -6.495 11.9974 0.3505 -0.33416 0 -1 7.95568 0.0230992 3.18122 -0.875271 -0.44215 0.195971
-8.26437 -1.01525 8.31125 0.0134116 0.115834 0 -0.866667 7.96469 0.802344 2.06393 0.555904 0.831173 -0.0110874
-1.37625 -11.8694 12.1976 0.44997 -0.170178 0 0.172882 8.00574 -0.701319 5.07806 -0.0962332 0.842831 0.529505
-1.90625 -6.818 10.2917 0.36039 -0.39884 -0.276012 -0.372184 8.00968 -0.273895 5.86005 -0.962724 -0.18519 0.197148
-8.9555 -3.102 5.67 -0.219211 0.175582 -0.300687 -0.821164 8.01506 -0.278896 1.93544 0.401153 0.74822 -0.528435
-4.8805 -10.495 14.9487 0.529893 -0.0368841 0 0.933333 8.08069 0.0710405 4.57289 0.932964 0.341581 -0.11358
-7.99203 -2.64528 11.2072 0.106454 0.231107 0 -0.2 8.12427 -0.397675 2.5943 -0.0144315 0.992396 0.122235
-5.04875 -7.88225 16.3645 0.37142 -0.0959102 0 -0.0888889 8.13571 -0.724377 4.22933 0.850945 -0.254382 -0.459545
-1.991 -1.967 11.037 -0.109312 -0.217576 0 -0.2 8.15631 0.0152856 2.77395 -0.456314 0.833743 -0.310886
-1.62925 -2.0845 9.506 -0.3736 -0.244665 -0.239979 -0.0888889 8.29213 0.693731 2.77395 -0.672234 0.587866 -0.450016
-0.949313 -4.12856 7.11919 0.359443 -0.282129 0 -0.584002 8.29749 -0.611672 0.634506 -0.913709 0.35722 0.193727
-1.52013 -6.21325 13.1946 0.52676 -0.269142 0 -0.2 8.30223 -0.524356 3.18122 -0.53448 -0.837967 0.110193
-4.07681 -11.5229 14.4209 0.577033 -0.0906976 0 -0.0320473 8.30649 -0.205529 4.913 0.611204 0.778348 0.143542
-8.982 -2.2765 6.4235 0.0985167 0.198748 0 -0.866667 8.34353 0.225585 1.93544 0.208589 0.693139 -0.689962
-7.01625 -5.99675 3.2625 0.0142378 0.322585 -0.13483 -0.961342 8.42012 -0.678956 1.38509 -0.752426 0.433991 -0.495487
-5.72906 -2.47112 12.6509 -0.209615 0.208776 0 -0.2 8.54366 -0.310485 2.5943 -0.0788777 0.986902 0.140719
-8.94312 -4.58262 4.06213 -0.560117 0.16966 -0.0572364 -0.777778 8.59931 0.0691205 1.38509 0.560501 0.160938 -0.812366
-7.96863 -6.67513 3.78638 -0.661683 0.298241 -0.306906 -0.777778 8.69712 -0.999901 1.38509 -0.299107 0.692448 -0.656544
-9.06 -0.9825 9.4 0.0107298 0.078793 0 -0.866667 8.69885 0.0899438 2.34101 0.709073 0.625695 0.325148
-4.4885 -6.99975 16.5465 0.454337 -0.155649 0 0.0897651 8.71285 -0.999917 3.82957 0.437605 -0.720127 -0.538441
-4.05363 -3.21913 3.93375 0.0999057 -0.257352 0 -1 8.75314 0.525863 1.38509 -0.710511 0.29783 0.637551
-4.86794 -9.33075 16.6371 0.158079 -0.0798815 0 0.933333 8.80458 -0.363641 4.22933 0.851016 0.0549026 -0.522261
-0.950875 -7.54581 12.4346 0.0322214 -0.271628 -0.245019 -1 8.80897 0.0521168 5.86005 -0.632297 -0.545991 0.549632
-1.66 -12.3445 13.6494 0.337317 -0.138358 0 -0.213366 8.81504 -0.547249 5.07806 0.0749592 0.965726 0.248506
-2.7135 -12.04 14.0715 0.477123 -0.114717 0 -0.0888889 8.82442 0.363528 5.16834 0.366581 0.883477 0.291696
-3.12075 -3.278 4.64725 0.334693 -0.255071 0 -1 8.8449 0.461773 0.634506 -0.612575 0.0962018 0.784536
-9.01975 -6.191 4.01325 -0.53754 0.233675 0 -0.777778 8.87717 -0.871548 1.38509 0.243692 0.223039 -0.943858
-1.03 -3.787 8.5425 0.191599 -0.28743 -0.000550657 -0.0888889 8.95308 -0.66072 2.77395 -0.841293 0.29785 -0.451123
-6.46925 -5.10881 1.25181 -0.019668 -0.228844 0 -0.880138 8.99598 -0.259342 1.38509 -0.779521 0.411465 0.472275
-9.14338 -2.21881 10.6134 0.047993 0.127346 0 -0.866667 9.03674 -0.594547 2.34101 0.525658 0.686227 0.502768
-3.15875 -1.42963 12.8542 0.0612547 -0.211043 0.542764 0.4 9.05983 0.166984 2.77395 -0.499533 0.666475 -0.553423
-2.33325 -1.6125 12.1005 0.0651217 -0.193083 0.0357752 -0.134356 9.06542 -0.221343 2.77395 -0.27871 0.82363 -0.493918
-0.359 -11.5591 12.3024 0.46941 -0.180244 0 0.0556884 9.07441 -0.631845 5.07806 -0.345776 0.698796 0.626197
-0.02625 -10.5835 11.7972 0.48142 -0.191386 0 0.844444 9.09498 -0.487368 5.07806 -0.321326 0.311059 0.894423
-9.886 -2.553 5.83125 -0.130164 0.175868 0 -0.84122 9.10741 -0.205416 1.93544 0.231542 0.833637 -0.501436
-2.83406 -7.02481 16.3614 0.508743 -0.200004 0.125341 -0.777778 9.12701 -0.497239 3.82957 -0.213924 -0.73017 -0.648913
-9.39925 -0.69575 8.29525 0.0114345 0.121719 0 -0.866667 9.1438 0.0238771 2.06393 0.516402 0.75225 -0.409204
-4.561 -3.0465 2.529 0.146464 -0.230559 0.0175719 -1 9.148 0.268546 1.38509 -0.805122 0.509933 0.302898
-4.7185 -11.2759 15.6766 0.578807 -0.0555385 0 0.933333 9.16045 -0.73533 4.57289 0.793706 0.608294 -0.00312074
-4.69075 -2.53175 13.1115 -0.183255 0.225932 0 -0.2 9.1687 -0.383292 2.77395 -0.350228 0.931539 -0.0978508
-4.30062 -7.94225 17.1379 0.42654 -0.149297 0 1 9.21342 -0.999876 4.22933 0.324397 -0.263037 -0.908613
-1.476 -3.1625 5.95813 0.62033 -0.246103 0.397828 -1 9.24926 0.0432137 0.634506 -0.693237 0.143144 0.706351
-5.76875 -4.03025 1.206 -0.335113 -0.207065 0.547276 -1 9.29302 -0.502144 1.38509 -0.659128 0.428587 0.617951
-9.5915 -3.258 3.9775 -0.310933 0.0665952 -0.124325 -0.777778 9.31482 0.126382 1.60358 0.845598 0.469669 -0.25372
-0.7125 -3.14287 6.77037 0.40072 -0.253174 0 -1 9.36957 -0.786713 0.634506 -0.909629 0.176453 0.376085
-1.91937 -6.21275 14.6142 0.51438 -0.231329 0.0700813 -0.50916 9.37665 -0.761247 3.82957 -0.314087 -0.892927 -0.322539
-0.595 -12.0105 13.363 0.571243 -0.17069 0 -0.777778 9.41585 -0.55804 5.07806 -0.371538 0.892576 0.255475
-7.35575 -6.70587 2.56169 -0.151647 0.279289 0 -0.485396 9.47333 -0.712272 1.38509 -0.706322 0.699094 -0.111252
1.0125 -9.58212 11.8576 0.541577 -0.20022 0 0.844444 9.4885 -0.999884 5.07806 -0.547629 -0.0482876 0.835327
-10.148 -1.38462 7.12813 0.016896 0.169828 0 -0.866667 9.56569 -0.219836 1.93544 0.229914 0.611414 -0.757174
-0.47025 -1.53 9.122 -0.106855 -0.197777 -0.47734 -0.0888889 9.6331 0.17356 2.77395 -0.559631 0.807507 -0.186402
-0.977813 -1.33644 11.9819 0.0576827 -0.150502 0 -0.155669 9.67847 -0.143982 2.77395 -0.0664935 0.980925 -0.18266
-5.19125 -3.15313 1.31638 -0.263014 -0.194303 0 -0.777778 9.71007 -0.201481 1.38509 -0.612573 0.506803 0.606552
-10.4152 -2.56775 4.9595 -0.10965 0.120827 -0.00293626 -0.85504 9.72414 -0.197551 1.93544 0.427255 0.881527 0.200905
-9.42325 -2.72775 11.9522 -0.069941 0.111389 0 -0.779522 9.73988 -0.999869 2.5943 0.61736 0.784708 -0.0556738
-9.65375 -0.18225 9.868 -0.0384657 0.0159688 0 -0.866667 9.79974 0.035881 2.34101 0.944339 0.32223 0.066263
-9.64669 -1.105 10.3852 -0.036121 0.0526406 0 -0.866667 9.85204 -0.146609 2.34101 0.861516 0.199114 0.467058
-3.2065 -2.32675 4.27975 0.130018 -0.228953 0 -1 9.86827 0.539275 1.38509 -0.661631 0.374437 0.649648
-0.731875 -12.3286 14.3022 0.31214 -0.159145 0 -0.777778 9.94986 -0.760783 5.07806 -0.356289 0.916199 0.183404
-0.426 -1.17206 10.6077 -0.082501 -0.171857 0 -0.0888889 9.96336 0.701762 2.77395 -0.363504 0.925447 -0.106831
-8.49575 -2.5645 12.975 -0.0942213 0.174259 -0.18369 -0.368789 9.9642 -0.54535 2.5943 0.186533 0.919786 -0.345252
-8.796 -7.136 2.874 -0.135071 0.214298 -0.000741121 -0.36136 10.0122 -0.830724 1.38509 -0.102779 0.977726 -0.182997
-0.620125 -2.47038 8.16737 0.103473 -0.249478 -0.60344 -0.38732 10.0124 -0.131727 2.77395 -0.933496 0.310793 -0.178866
1.14525 -8.562 12.9073 0.701093 -0.210963 0.394016 -1 10.0165 -0.868068 5.86005 -0.669011 -0.647723 0.364526
-9.66475 -6.88675 3.34425 -0.183105 0.173639 0 -0.415662 10.0381 -0.846726 1.38509 0.304819 0.803747 -0.510956
-3.354 -12.5258 15.707 0.242015 -0.105948 0 0.844444 10.0904 -0.99985 4.913 0.334248 0.942454 0.00765007
-4.66625 -11.0845 16.892 0.400423 -0.0506465 0 0.924591 10.1227 -0.999824 4.57289 0.873862 0.373752 -0.310925
-2.44412 -12.6461 15.2684 0.373663 -0.125481 0.245125 -0.124628 10.1928 -0.577566 5.16834 0.108394 0.994106 0.00173444
-5.90675 -2.65587 14.3011 -0.117535 0.175095 0 -0.2 10.2137 -0.7564 2.5943 0.000315313 0.991663 -0.12886
-10.316 -5.06875 3.35775 -0.325391 0.140348 0 -0.809818 10.2171 -0.68097 1.38509 0.673115 -0.274309 -0.686783
-7.0405 -6.171 0.85725 -0.132005 -0.21013 0.00973336 -0.850191 10.2649 -0.999867 1.38509 -0.60925 0.463412 0.643478
0.863875 -10.9526 12.4683 0.536653 -0.183044 0 -0.405929 10.2693 -0.802259 5.07806 -0.584743 0.680737 0.441217
-4.765 -2.518 14.248 -0.200502 0.204679 0 -0.2 10.3077 -0.84256 2.5943 -0.364464 0.919285 -0.148599
-3.69738 -1.33834 13.9881 0.059151 -0.21612 0.407209 0.4 10.3185 -0.414425 2.77395 -0.730711 0.470451 -0.494709
0.031 -7.35913 13.8882 0.636333 -0.224272 0.318217 -0.960587 10.3517 -0.484615 3.18122 -0.612271 -0.790601 0.00867966
-3.709 -1.9195 3.02475 -0.0954547 -0.211934 0 -1 10.3761 0.676436 1.38509 -0.766861 0.573532 0.288072
-7.47087 -2.52638 13.4104 -0.0864843 0.168243 0 -0.2 10.3914 -0.109034 2.5943 0.181217 0.970668 -0.157999
-7.47038 -4.79637 0.310625 -0.0074969 -0.174666 0.103803 -0.00718982 10.4051 -0.545855 1.38509 -0.358296 0.193719 0.913289
-3.23534 -8.48941 17.304 0.459237 -0.160595 0 1 10.4225 -0.219011 4.22933 0.0843109 -0.374124 -0.923538
-1.63806 -0.748062 12.9071 0.207123 -0.149067 0 0.0257813 10.437 0.00689755 2.77395 -0.00624998 0.683988 -0.729466
-10.0218 -4.13219 2.61144 0.0095534 0.0634461 0 -0.866667 10.4624 0.0786728 1.38509 0.962657 -0.158563 -0.21943
-7.487 -6.942 1.53 -0.053482 0.205513 0 -0.355556 10.5398 -0.882381 1.38509 -0.35587 0.914039 0.194652
0.35525 -11.5347 13.7522 0.667707 -0.173262 0 -0.777778 10.5476 -0.291285 5.07806 -0.562823 0.806709 0.18014
-11.3241 -2.33512 5.93962 -0.0451153 0.146926 0 -0.866667 10.566 -0.709798 1.93544 0.252521 0.915196 -0.314085
-10.1615 0.4705 8.58675 -0.04119 0.0433611 0 -0.866667 10.5672 -0.215396 2.34101 0.911713 0.337515 -0.234228
-10.237 -1.322 11.2058 -0.214441 0.0300898 -0.238289 -0.866667 10.5701 -0.926325 2.34101 0.927756 0.180387 0.326696
-0.945625 -1.96769 6.20687 0.41249 -0.220704 0 -1 10.58 0.0726819 0.634506 -0.792355 0.33976 0.506693
-1.30838 -7.12044 15.2753 0.716963 -0.216707 0.477581 -0.777778 10.655 -0.300777 3.82957 -0.452784 -0.683757 -0.572243
-10.5411 0.020375 7.60388 -0.0416343 0.126811 0 -0.866667 10.6586 0.287834 2.06393 0.449597 0.384052 -0.806453
-4.00506 -2.0625 1.51047 -0.0901213 -0.187057 0.0411343 -0.905249 10.6694 -0.520918 1.38509 -0.716805 0.620311 0.318442
-1.08025 -12.5326 15.4539 0.558363 -0.1459 -0.201973 -0.583904 10.7197 -0.999834 5.07806 -0.267539 0.945742 -0.184376
-10.6788 -6.08825 3.1925 -0.175523 0.061995 0 -0.808804 10.731 -0.999887 1.38509 0.935904 0.144782 -0.321127
-11.189 -0.84225 7.053 -0.0315099 0.169873 0 -0.866667 10.7419 0.617094 1.93544 0.0537119 0.434125 -0.89925
-1.8625 -1.868 5.281 0.414427 -0.21362 0 -1 10.7604 0.454107 0.634506 -0.642916 0.358324 0.676951
-3.79075 -10.2222 18.0065 0.518913 -0.118749 0 1 10.7617 -0.999869 4.22933 0.409482 -0.0532152 -0.910765
-9.96212 0.7785 9.82487 -0.0460157 -0.0360588 0 -0.866667 10.8097 -0.429738 2.34101 0.984476 0.0508648 -0.167988
-4.77881 -2.13075 0.714437 -0.363993 -0.148576 0 -0.777778 10.9661 -0.109836 1.38509 -0.286221 0.75919 0.584558
-7.02675 -3.451 0.24375 -0.00575907 -0.170503 0 -0.777778 10.9794 -0.510175 1.38509 -0.433467 0.192387 0.880394
-10.0621 -2.179 2.79284 0.659237 0.0163648 0 -0.866667 10.9849 -0.0770625 1.60358 0.993385 0.114721 0.00508027
1.891 -9.97425 13.0087 0.663363 -0.19875 0 -0.795671 10.9887 -0.999902 5.07806 -0.975146 0.0577273 0.213912
-1.40675 -8.23525 16.089 0.725003 -0.198514 0.431927 -0.777778 11.0182 0.999761 3.82957 -0.400395 -0.658658 -0.637066
0.243813 -11.8969 14.8194 0.741507 -0.166385 0 -0.777778 11.1355 -0.780262 5.07806 -0.612517 0.78779 -0.0648907
-10.2933 -1.5525 3.79225 0.2774 0.0691504 0.732195 -0.866667 11.1684 0.441177 1.60358 0.67929 0.548711 0.487321
0.656875 -0.954625 11.0969 0.257629 -0.138538 0 -0.0888889 11.1713 0.407777 2.77395 -0.172353 0.969797 0.17259
-6.1225 -2.22088 0.649594 -0.113871 -0.156818 0 -0.777778 11.1869 0.61095 1.38509 -0.336361 0.46711 0.817722
-9.30481 -1.76231 13.5004 -0.51173 -0.112648 -0.615631 -0.777778 11.2188 -0.45824 2.5943 0.595097 0.508562 -0.622273
-3.116 -12.246 16.7978 0.290008 -0.109857 0 0.844444 11.2414 -0.684144 4.57289 0.255258 0.896528 -0.36205
-0.27 -0.883 13.3573 0.187824 -0.090024 0 -0.2 11.2904 -0.074031 2.77395 0.52276 0.654727 -0.545943
-9.76156 0.291438 11.3061 -0.0964303 -0.0670952 0 0.4 11.3177 -0.15531 2.34101 0.936059 -0.348835 -0.0459032
-11.926 -2.06175 4.8235 0.08382 0.125142 0 0.844444 11.3232 -0.421432 1.93544 0.214942 0.911725 0.350082
3 188 192 133
3 133 192 143
3 143 94 133
3 139 178 126
3 139 126 77
3 77 126 91
3 106 170 133
3 69 106 74
3 74 94 59
3 94 124 103
3 59 103 77
3 103 139 77
3 77 91 51
3 77 51 59
3 91 72 51
3 42 58 96
3 108 72 91
3 146 108 145
3 108 91 126
3 145 108 174
3 126 174 108
3 174 126 178
3 186 194 142
3 186 142 179
3 142 127 179
3 84 41 89
3 89 41 73
3 89 73 110
3 73 41 48
3 73 48 70
3 110 73 70
3 15 37 38
3 59 38 37
3 37 53 59
3 15 38 28
3 28 51 33
3 16 33 42
3 16 35 39
3 35 42 57
3 57 67 129
3 67 105 129
3 105 67 96
3 162 105 158
3 96 150 166
3 146 145 198
3 185 198 145
3 179 127 165
3 165 110 147
3 110 115 147
3 81 131 115
3 66 50 32
3 32 13 31
3 13 4 1
3 4 13 11
3 11 13 19
3 5 15 16
3 16 39 30
3 86 56 117
3 39 57 64
3 99 64 98
3 57 39 35
3 85 129 120
3 117 100 66
3 66 55 86
3 55 31 60
3 55 60 86
3 13 1 14
3 17 16 30
3 30 61 24
3 86 93 56
3 93 75 90
3 90 75 71
3 60 54 93
3 75 49 71
3 22 8 21
3 34 18 22
3 18 8 22
3 1 9 14
3 2 10 3
3 8 10 20
3 20 21 8
3 7 23 10
3 20 10 23
3 46 61 88
3 61 90 101
3 101 88 61
3 164 112 153
3 87 153 112
3 123 87 82
3 87 71 49
3 20 40 36
3 23 45 40
3 46 88 79
3 79 88 135
3 135 177 125
3 125 79 135
3 92 82 44
3 92 44 68
3 113 68 80
3 80 43 65
3 80 102 114
3 95 102 63
3 65 63 102
3 63 45 76
3 45 78 97
3 45 46 78
3 79 78 46
3 45 97 111
3 45 111 76
3 148 191 172
3 148 172 136
3 128 102 95
3 95 111 156
3 99 140 152
3 141 149 98
3 98 121 141
3 169 141 121
3 169 121 120
3 84 118 137
3 151 137 171
3 170 188 133
3 143 124 94
3 143 173 124
3 124 173 139
3 143 199 173
3 170 159 181
3 106 116 159
3 106 159 170
3 116 106 69
3 41 69 37
3 37 69 53
3 69 74 53
3 59 53 74
3 59 94 103
3 33 58 42
3 58 33 72
3 51 72 33
3 96 58 72
3 119 96 72
3 119 108 146
3 119 72 108
3 145 174 185
3 194 132 142
3 118 84 132
3 167 118 187
3 132 187 118
3 187 132 194
3 137 118 160
3 137 160 171
3 167 160 118
3 116 154 181
3 116 181 159
3 137 151 107
3 107 154 116
3 154 107 151
3 104 107 69
3 69 107 116
3 104 137 107
3 84 137 104
3 70 48 47
3 47 48 29
3 11 19 15
3 41 29 48
3 29 41 13
3 13 41 19
3 15 19 37
3 37 19 41
3 16 15 33
3 33 15 28
3 162 129 105
3 175 119 146
3 198 175 146
3 131 147 115
3 66 83 50
3 50 83 81
3 81 83 131
3 32 50 26
3 26 50 47
3 26 47 29
3 47 50 70
3 81 70 50
3 32 26 13
3 29 13 26
3 13 14 31
3 1 4 0
3 4 11 5
3 6 2 0
3 6 0 5
3 4 5 0
3 5 16 6
3 30 39 56
3 99 117 64
3 64 56 39
3 56 64 117
3 98 64 85
3 98 85 121
3 85 64 57
3 120 121 85
3 163 120 129
3 162 163 129
3 119 175 144
3 119 144 96
3 96 144 150
3 150 144 195
3 176 183 131
3 134 176 131
3 100 134 131
3 83 66 100
3 83 100 131
3 52 60 31
3 54 60 52
3 54 52 34
3 27 34 52
3 27 52 31
3 27 31 14
3 18 34 27
3 9 18 14
3 14 18 27
3 1 0 3
3 3 0 2
3 7 2 12
3 12 2 6
3 12 6 17
3 16 17 6
3 17 24 12
3 61 30 62
3 61 62 90
3 56 93 62
3 56 62 30
3 62 93 90
3 49 75 54
3 49 54 34
3 54 75 93
3 9 8 18
3 8 9 1
3 8 1 3
3 8 3 10
3 12 23 7
3 23 12 25
3 25 12 24
3 25 24 46
3 101 90 112
3 135 164 177
3 101 164 135
3 164 101 112
3 138 153 87
3 138 87 123
3 49 82 87
3 49 44 82
3 21 43 44
3 43 21 20
3 43 20 36
3 63 65 36
3 63 36 40
3 63 40 45
3 25 45 23
3 46 45 25
3 135 88 101
3 79 125 78
3 78 125 109
3 78 109 97
3 125 168 130
3 125 130 109
3 109 130 97
3 161 189 138
3 189 153 138
3 123 161 138
3 136 172 161
3 136 161 122
3 122 161 123
3 92 136 122
3 92 122 82
3 82 122 123
3 136 92 113
3 68 113 92
3 43 80 68
3 43 68 44
3 36 65 43
3 168 111 130
3 130 111 97
3 168 184 111
3 111 184 156
3 113 148 136
3 157 180 113
3 157 113 114
3 113 180 148
3 155 157 114
3 128 196 155
3 128 155 102
3 102 155 114
3 156 196 128
3 95 156 128
3 180 191 148
3 152 134 100
3 152 100 117
3 152 117 99
3 176 134 152
3 169 197 141
3 132 84 89
3 132 89 142
3 142 89 127
3 182 178 139
3 74 133 94
3 74 106 133
3 124 139 103
3 41 84 69
3 104 69 84
3 38 59 51
3 38 51 28
3 42 35 16
3 96 67 42
3 57 42 67
3 105 96 166
3 165 127 110
3 127 89 110
3 70 81 110
3 115 110 81
3 11 15 5
3 129 85 57
3 166 158 105
3 66 32 55
3 31 55 32
3 17 30 24
3 60 93 86
3 117 66 86
3 140 99 149
3 149 99 98
3 147 131 183
3 7 10 2
3 24 61 46
3 71 112 90
3 71 87 112
3 49 21 44
3 20 23 40
3 177 190 125
3 65 102 80
3 80 114 113
3 63 76 95
3 95 76 111
3 193 149 141
3 49 34 22
3 49 22 21
