ply
format ascii 1.0
comment Generated by PyMesh
element vertex 171
property float x
property float y
property float z
property float nx
property float ny
property float nz
element face 294
property list uchar int vertex_indices
end_header
-9.43606 -0.117812 13.4581 0.804556 -0.193789 -0.561369
-8.909 0.4065 14.286 0.73117 -0.497013 -0.4673
-8.84081 0.750188 12.7536 0.626112 -0.771068 -0.115926
-10.1956 -0.223 12.1319 0.948219 -0.288896 -0.131983
-10.1517 -1.443 12.8884 0.884903 0.208359 -0.416574
-9.30481 -1.76231 13.5004 0.595097 0.508562 -0.622273
-8.64675 -1.3 14.493 0.694924 0.166547 -0.69953
-8.03256 0.0735625 15.0258 0.517041 -0.337749 -0.786508
-8.74413 1.04475 11.6525 0.462599 -0.739102 -0.489623
-8.04775 1.27894 13.8454 0.402317 -0.81053 -0.425655
-9.76156 0.291438 11.3061 0.936059 -0.348835 -0.0459032
-7.6435 1.70875 13.037 0.439389 -0.897843 -0.0285534
-8.49575 -2.5645 12.975 0.186533 0.919786 -0.345252
-10.237 -1.322 11.2058 0.927756 0.180387 0.326696
-7.49125 -1.47625 15.2793 0.469884 0.554722 -0.686653
-9.42325 -2.72775 11.9522 0.61736 0.784708 -0.0556738
-7.03288 1.72438 11.6827 0.166318 -0.974006 -0.15379
-6.8605 -0.341 15.9435 0.396037 -0.188333 -0.898713
-6.381 0.66075 15.2494 -0.00666402 -0.786907 -0.617035
-9.64669 -1.105 10.3852 0.861516 0.199114 0.467058
-7.47087 -2.52638 13.4104 0.181217 0.970668 -0.157999
-8.25669 2.225 10.649 0.102 -0.921986 -0.373547
-6.464 1.99188 13.131 0.114109 -0.94543 -0.305189
-9.65375 -0.18225 9.868 0.944339 0.32223 0.066263
-9.96212 0.7785 9.82487 0.984476 0.0508648 -0.167988
-9.66938 1.7765 10.3371 0.732011 -0.557361 -0.391801
-9.14338 -2.21881 10.6134 0.525658 0.686227 0.502768
-7.06962 -2.47638 14.4404 0.328211 0.848099 -0.415938
-7.99203 -2.64528 11.2072 -0.0144315 0.992396 0.122235
-5.719 -0.127 16.1567 -0.158741 -0.406461 -0.899773
-5.77275 1.7585 11.7533 0.118718 -0.992596 -0.0256668
-7.16862 2.01875 10.3194 -0.1478 -0.973047 -0.177015
-5.79569 -1.33506 16.1006 -0.124208 0.290816 -0.948682
-5.345 0.7695 14.552 -0.203801 -0.759961 -0.617191
-9.06 -0.9825 9.4 0.709073 0.625695 0.325148
-5.53575 1.5295 13.741 -0.121869 -0.773495 -0.621975
-10.1615 0.4705 8.58675 0.911713 0.337515 -0.234228
-9.33762 2.37037 9.08325 0.361501 -0.930176 -0.0639541
-5.15737 -2.20863 15.3814 -0.285748 0.688131 -0.666951
-4.75675 0.05125 15.3105 -0.547288 -0.301542 -0.780735
-8.029 2.4285 9.085 -0.0963041 -0.992581 -0.0742225
-5.90675 -2.65587 14.3011 0.000315313 0.991663 -0.12886
-4.70913 2.10713 12.9949 0.223145 -0.9024 -0.368619
-4.76137 2.07962 11.2802 0.554042 -0.813106 -0.178594
-5.72906 -2.47112 12.6509 -0.0788777 0.986902 0.140719
-8.08497 -1.88934 9.36447 0.524179 0.786561 0.326433
-5.243 2.07262 9.748 0.239633 -0.959016 -0.151212
-10.2965 1.40625 7.82575 0.562055 -0.588037 -0.581642
-9.39925 -0.69575 8.29525 0.516402 0.75225 -0.409204
-4.18175 0.935375 14.1839 -0.205217 -0.606615 -0.768052
-6.951 -2.5145 9.9525 0.21621 0.976343 0.00262576
-8.26437 -1.01525 8.31125 0.555904 0.831173 -0.0110874
-7.07212 2.2745 8.75 0.0164395 -0.918462 -0.395167
-10.5411 0.020375 7.60388 0.449597 0.384052 -0.806453
-6.2165 -2.099 11.352 -0.0671779 0.99727 0.0306544
-8.7625 2.4195 8.222 0.280303 -0.957877 -0.062466
-3.83075 -0.304 14.6757 -0.607594 -0.0369576 -0.793388
-4.765 -2.518 14.248 -0.364464 0.919285 -0.148599
-4.69075 -2.53175 13.1115 -0.350228 0.931539 -0.0978508
-3.42144 2.20444 13.4284 0.306256 -0.504535 -0.80725
-5.82725 -2.50425 9.9965 0.185066 0.85031 -0.49267
-10.5476 1.928 6.92238 -0.197212 -0.846173 -0.495074
-3.53912 2.96525 12.1566 0.718337 -0.495399 -0.488439
-4.11125 3.07125 10.2505 0.957848 -0.280915 0.0601128
-5.0945 2.38025 8.52125 0.251057 -0.772446 -0.583351
-6.0835 2.4585 8.3595 0.00776644 -0.751767 -0.659383
-2.90569 0.68025 13.7451 -0.312653 0.115108 -0.942867
-3.69738 -1.33834 13.9881 -0.730711 0.470451 -0.494709
-11.189 -0.84225 7.053 0.0537119 0.434125 -0.89925
-7.8825 2.953 7.627 0.482397 -0.698784 -0.528199
-11.772 1.0155 8.0525 -0.0128847 -0.133187 -0.991007
-6.351 -2.99425 8.68025 0.659098 0.746601 -0.0904267
-10.148 -1.38462 7.12813 0.229914 0.611414 -0.757174
-4.036 3.906 11.0367 0.922986 0.0195298 -0.384338
-11.8252 -0.017625 7.72687 0.0271841 0.356959 -0.933724
-3.975 2.80675 8.89725 0.737058 -0.577521 -0.351019
-8.17025 -1.88312 7.04 0.329029 0.739171 -0.587679
-7.16125 -2.234 7.76575 0.557123 0.812604 -0.171138
-8.85525 2.47675 6.7845 0.496342 -0.751685 -0.434297
-7.07575 3.65275 7.62 0.364177 -0.385337 -0.847874
-4.73887 -2.95038 10.0363 0.215907 0.495566 -0.841308
-10.4847 2.58538 5.91437 -0.122722 -0.723589 -0.679234
-2.06519 2.4575 13.891 0.582739 0.418386 -0.696684
-11.8441 3.039 6.80875 -0.620274 -0.445901 -0.645316
-5.118 3.48338 7.91625 0.3476 -0.00663432 -0.937619
-3.47725 -2.18625 11.8475 -0.3464 0.841313 -0.414969
-4.20325 4.8255 11.4265 0.840367 0.417559 -0.345583
-2.55225 3.71012 13.1695 0.925513 0.107021 -0.36328
-3.15875 -1.42963 12.8542 -0.499533 0.666475 -0.553423
-12.2112 -1.32056 6.83494 0.212442 0.686723 -0.695183
-12.7525 1.6205 7.86925 0.455324 -0.33272 -0.825819
-3.84325 3.8935 8.8005 0.93407 0.220152 -0.281153
-4.4855 4.7605 10.415 0.953016 0.288411 -0.0926233
-3.25887 4.56738 12.2809 0.800686 0.402702 -0.443545
-8.982 -2.2765 6.4235 0.208589 0.693139 -0.689962
-8.06475 3.8725 6.61625 0.721615 -0.50556 -0.472948
-5.271 -4.34734 9.45378 0.716884 -0.165769 -0.677199
-6.187 -2.8705 7.317 0.76518 0.638045 -0.0860097
-3.648 -2.5685 10.791 0.0512143 0.888126 -0.456737
-6.316 4.25462 7.96925 0.432233 0.0561925 -0.900009
-13.1676 -0.608 7.422 0.357549 0.532034 -0.767528
-1.22113 0.0809375 13.5485 0.27894 0.353428 -0.892906
-3.67 -3.37725 10.0363 0.0528347 0.22804 -0.972217
-5.61875 -4.25737 7.6965 0.978629 0.118664 -0.167943
-1.30175 1.72675 13.5933 0.251486 0.358882 -0.898865
-9.886 -2.553 5.83125 0.231542 0.833637 -0.501436
-8.757 3.626 5.702 0.435516 -0.646049 -0.626855
-10.4535 3.562 5.2365 -0.0918272 -0.622429 -0.77727
-7.69875 -3.17213 5.98338 0.299425 0.616534 -0.728169
-11.3241 -2.33512 5.93962 0.252521 0.915196 -0.314085
-1.63806 -0.748062 12.9071 -0.00624998 0.683988 -0.729466
-6.4485 -3.06988 6.36562 0.581447 0.599726 -0.549771
-11.5653 3.48875 5.81225 -0.579591 -0.556343 -0.595447
-12.902 2.5225 6.736 0.196229 0.5215 -0.83038
-2.66225 3.6205 14.2621 0.891561 0.452106 -0.0268244
-7.23431 5.14437 6.95969 0.767064 -0.239082 -0.595359
-13.9104 0.437875 7.28562 0.703222 -0.0278299 -0.710425
-2.33325 -1.6125 12.1005 -0.27871 0.82363 -0.493918
-3.95775 5.3385 12.688 0.646367 0.75457 -0.113288
-4.487 4.90325 9.013 0.825406 0.350902 -0.442236
-8.9555 -3.102 5.67 0.401153 0.74822 -0.528435
-4.608 6.026 11.9055 0.68848 0.718403 0.0994643
-5.429 4.95425 8.40075 0.475472 0.186093 -0.859823
-11.8689 4.45662 6.01137 -0.97975 -0.146072 -0.136939
-4.76788 6.18337 10.7781 0.95694 0.275616 0.0911152
-2.55194 -2.87169 10.2829 -0.412992 0.578452 -0.703442
-1.991 -1.967 11.037 -0.456314 0.833743 -0.310886
-2.197 3.26238 15.6433 0.795622 0.605712 0.00992048
-0.5245 2.303 15.0765 0.599448 0.783212 -0.165048
-3.34713 4.98025 13.9406 0.690626 0.722087 -0.0403192
-10.4152 -2.56775 4.9595 0.427255 0.881527 0.200905
-8.35363 4.39925 5.14475 0.553966 -0.450632 -0.700037
-12.9301 -1.75412 5.27763 0.392603 0.909855 -0.134266
-9.9465 4.2475 4.6095 0.189179 -0.524338 -0.83023
-12.064 5.0585 7.27075 -0.952995 0.260046 -0.155489
-0.2655 1.9445 14.1663 0.782728 0.426397 -0.453346
-0.27 -0.883 13.3573 0.52276 0.654727 -0.545943
-6.17556 -5.75075 9.81419 0.879245 -0.409227 -0.243849
-0.118719 0.483594 14.4014 0.788998 0.16338 -0.592275
-14.1081 -0.705312 6.13575 0.681977 0.608786 -0.405324
-12.7896 3.62538 8.75081 -0.765524 0.594507 -0.246039
-7.404 5.35675 5.69225 0.866794 -0.042413 -0.49686
-13.8658 1.50719 6.11602 0.630547 -0.151743 -0.761173
-0.977813 -1.33644 11.9819 -0.0664935 0.980925 -0.18266
-11.926 -2.06175 4.8235 0.214942 0.911725 0.350082
-5.79563 -5.69025 7.32412 0.957859 0.0303151 0.285636
-5.69325 5.91012 8.27106 0.664743 -0.134648 -0.734838
-11.603 4.374 4.8655 -0.684768 -0.45324 -0.570672
-6.2445 -5.67425 8.35825 0.940384 -0.316391 0.124801
-4.92338 -5.55363 11.0901 0.467586 -0.821285 -0.326885
-8.35437 -4.16412 4.94775 0.570471 0.599126 -0.561793
-7.367 6.4385 6.487 0.623885 0.266605 -0.734635
-10.6316 4.90987 4.26475 -0.153342 -0.327044 -0.932485
-2.61469 -4.94441 9.86416 -0.775368 -0.219062 -0.592297
-6.624 -4.5115 5.5635 0.517749 0.639978 -0.567772
-14.443 2.761 6.594 0.215701 0.836854 -0.503138
-5.1055 5.892 13.079 0.455329 0.8685 0.195915
-3.67925 -5.23994 10.9784 -0.0577555 -0.859388 -0.508052
-0.72125 2.289 16.1483 0.68701 0.597577 0.413423
-5.77775 6.86275 11.781 0.440652 0.711641 0.547168
-7.5915 -4.8935 5.11925 0.355514 0.720587 -0.595285
-12.039 5.279 4.954 -0.827558 0.0859997 -0.554754
-6.111 -5.624 6.089 0.902457 0.418943 -0.100291
-14.5444 0.792437 5.67956 0.686624 0.134 -0.714557
-9.3315 5.115 4.558 0.245796 0.272585 -0.930205
-13.8581 -1.44 4.66538 0.426011 0.902856 -0.0580203
-6.276 6.75625 7.29 0.643872 -0.169955 -0.746019
-4.7865 6.549 9.07625 0.87788 0.0796129 -0.472216
-8.154 5.62925 4.9585 0.487731 0.237295 -0.840124
-1.62925 -2.0845 9.506 -0.672234 0.587866 -0.450016
-11.782 6.02275 5.83525 -0.750238 0.660008 -0.0391494
3 68 89 74
3 72 53 48
3 72 48 76
3 76 48 51
3 100 89 139
3 81 112 107
3 112 123 147
3 112 83 123
3 123 134 170
3 150 120 108
3 120 105 94
3 108 94 76
3 94 72 76
3 76 51 77
3 76 77 108
3 51 45 77
3 60 50 28
3 34 45 51
3 19 34 23
3 34 51 48
3 23 34 36
3 48 36 34
3 36 48 53
3 78 55 47
3 78 69 55
3 40 55 52
3 69 52 55
3 52 69 79
3 78 47 61
3 78 81 106
3 106 81 107
3 106 131 95
3 131 164 168
3 164 133 152
3 133 107 152
3 152 107 112
3 103 154 111
3 108 111 154
3 154 160 108
3 103 111 97
3 97 77 71
3 96 71 60
3 96 80 102
3 80 60 98
3 98 54 58
3 54 44 58
3 44 54 28
3 57 44 41
3 28 12 20
3 19 23 10
3 24 10 23
3 40 52 31
3 52 79 65
3 65 79 84
3 79 99 84
3 115 79 95
3 141 151 115
3 151 166 115
3 124 159 121
3 156 118 121
3 148 103 96
3 96 102 157
3 102 98 125
3 169 125 126
3 98 102 80
3 85 58 88
3 39 38 32
3 20 27 41
3 17 14 7
3 17 7 18
3 6 5 0
3 7 9 22
3 2 8 16
3 16 8 21
3 16 21 31
3 31 46 16
3 16 46 43
3 65 64 46
3 64 65 84
3 43 46 63
3 63 92 73
3 93 62 73
3 86 92 124
3 119 122 167
3 167 122 146
3 119 84 122
3 86 121 118
3 118 93 86
3 62 59 42
3 62 42 43
3 59 82 66
3 66 82 104
3 62 87 59
3 59 87 82
3 87 114 82
3 104 82 128
3 128 82 127
3 87 129 114
3 114 129 127
3 149 96 157
3 126 117 143
3 110 143 117
3 110 117 88
3 110 66 101
3 66 67 56
3 66 56 49
3 42 49 35
3 42 35 22
3 43 42 30
3 22 30 42
3 22 35 18
3 33 18 35
3 30 22 16
3 104 138 101
3 101 138 136
3 139 132 165
3 89 132 139
3 100 116 74
3 116 163 142
3 163 116 139
3 139 116 100
3 142 90 116
3 116 90 74
3 83 90 113
3 113 90 142
3 83 140 134
3 113 140 83
3 130 105 120
3 72 109 89
3 72 89 68
3 130 109 105
3 105 109 72
3 130 144 109
3 89 109 132
3 132 109 144
3 36 53 47
3 74 47 53
3 47 83 61
3 90 83 70
3 47 70 83
3 70 47 74
3 90 70 74
3 89 100 74
3 123 83 134
3 108 160 150
3 108 120 94
3 71 50 60
3 50 71 45
3 77 45 71
3 28 50 45
3 26 28 45
3 26 34 19
3 26 45 34
3 23 36 24
3 24 36 47
3 24 47 25
3 25 47 37
3 40 37 55
3 55 37 47
3 79 69 95
3 78 95 69
3 106 95 78
3 145 162 103
3 103 162 154
3 96 103 71
3 71 103 97
3 57 58 44
3 6 14 5
3 5 14 12
3 14 20 12
3 20 14 27
3 13 26 19
3 3 10 2
3 10 3 13
3 10 13 19
3 8 2 10
3 10 24 25
3 10 25 8
3 25 37 21
3 21 37 40
3 25 21 8
3 31 21 40
3 84 99 122
3 122 99 146
3 146 99 115
3 146 115 166
3 115 99 79
3 148 96 137
3 157 102 153
3 125 153 102
3 126 125 85
3 126 85 117
3 85 125 98
3 88 117 85
3 67 88 58
3 57 67 58
3 39 67 38
3 38 67 57
3 38 57 41
3 32 38 14
3 38 27 14
3 41 27 38
3 39 29 18
3 17 29 32
3 39 32 29
3 33 39 18
3 17 32 14
3 17 18 29
3 7 14 6
3 9 7 1
3 9 1 2
3 2 1 0
3 0 1 7
3 0 7 6
3 4 3 0
3 4 0 5
3 0 3 2
3 13 3 15
3 26 13 15
3 3 4 15
3 26 15 28
3 28 15 12
3 12 15 5
3 4 5 15
3 11 9 2
3 22 9 11
3 22 11 16
3 16 11 2
3 62 43 73
3 73 43 63
3 86 93 73
3 92 86 73
3 124 92 119
3 124 119 167
3 127 82 114
3 96 149 137
3 39 33 49
3 39 49 56
3 39 56 67
3 59 66 49
3 49 42 59
3 101 136 110
3 110 136 143
3 53 68 74
3 68 53 72
3 112 81 83
3 83 81 61
3 105 72 94
3 81 78 61
3 133 164 131
3 107 133 106
3 131 106 133
3 152 147 161
3 170 161 123
3 152 112 147
3 147 123 161
3 111 108 77
3 111 77 97
3 60 80 96
3 28 54 60
3 98 60 54
3 44 28 20
3 141 131 168
3 95 141 115
3 95 131 141
3 156 129 118
3 145 103 148
3 58 85 98
3 20 41 44
3 52 65 46
3 31 52 46
3 75 64 84
3 91 75 84
3 91 84 119
3 91 119 92
3 63 91 92
3 63 75 91
3 46 75 63
3 75 46 64
3 86 124 121
3 87 93 129
3 93 87 62
3 93 118 129
3 67 66 88
3 110 88 66
3 33 35 49
3 22 18 7
3 30 16 43
3 104 101 66
3 135 138 104
3 135 104 128
3 128 127 158
3 155 113 142
3 155 142 163
