ply
format ascii 1.0
comment Generated by PyMesh
element vertex 196
property float x
property float y
property float z
property float nx
property float ny
property float nz
element face 349
property list uchar int vertex_indices
end_header
-5.725 -6.1115 13.164 0.778413 -0.53643 -0.326062
-5.308 -5.77575 12.31 0.323934 -0.933786 -0.152023
-4.83238 -6.22475 14.045 0.337459 -0.863933 -0.373821
-6.14825 -6.61194 11.79 0.929507 -0.355159 -0.0993885
-5.70131 -7.94219 14.2342 0.924738 -0.100025 -0.367226
-6.14838 -8.3445 12.8004 0.998638 0.0306221 -0.0422442
-4.92338 -5.55363 11.0901 0.467586 -0.821285 -0.326885
-6.10838 -7.2915 10.8197 0.978062 0.207388 -0.01962
-4.87 -7.05025 15.4299 0.602014 -0.722362 -0.340253
-3.731 -6.37675 15.2506 0.146035 -0.903592 -0.402736
-3.67925 -5.23994 10.9784 -0.0577555 -0.859388 -0.508052
-2.78744 -5.99862 13.4154 -0.0566234 -0.97951 -0.193273
-6.27887 -7.16625 9.82987 0.968248 0.150609 -0.199533
-6.0635 -9.55275 13.222 0.961183 0.228341 -0.154877
-2.68963 -5.70463 12.3524 -0.260663 -0.948494 -0.180039
-6.17556 -5.75075 9.81419 0.879245 -0.409227 -0.243849
-5.26237 -9.369 14.8328 0.932581 0.232313 -0.276268
-5.77 -8.44 10.563 0.951713 0.306736 0.0124313
-4.4885 -6.99975 16.5465 0.437605 -0.720127 -0.538441
-5.04875 -7.88225 16.3645 0.850945 -0.254382 -0.459545
-5.271 -4.34734 9.45378 0.716884 -0.165769 -0.677199
-2.83406 -7.02481 16.3614 -0.213924 -0.73017 -0.648913
-5.41463 -10.342 13.8094 0.814785 0.508942 -0.277674
-5.6675 -9.7635 11.0267 0.829797 0.432144 0.353113
-6.60156 -7.33588 8.79594 0.994857 0.0992303 0.0203263
-1.52013 -6.21325 13.1946 -0.53448 -0.837967 0.110193
-2.61469 -4.94441 9.86416 -0.775368 -0.219062 -0.592297
-1.91937 -6.21275 14.6142 -0.314087 -0.892927 -0.322539
-1.7585 -6.495 11.9974 -0.875271 -0.44215 0.195971
-4.8805 -10.495 14.9487 0.932964 0.341581 -0.11358
-6.14975 -8.38775 9.2365 0.864514 0.496605 -0.0774548
-2.011 -5.875 11.0615 -0.733903 -0.671001 -0.105567
-4.86794 -9.33075 16.6371 0.851016 0.0549026 -0.522261
-6.2445 -5.67425 8.35825 0.940384 -0.316391 0.124801
-5.65947 -10.4865 12.0315 0.739189 0.670298 0.0655765
-4.30062 -7.94225 17.1379 0.324397 -0.263037 -0.908613
-5.27969 -9.23044 9.6165 0.552825 0.793218 0.255323
-3.67 -3.37725 10.0363 0.0528347 0.22804 -0.972217
-4.754 -10.953 13.301 0.543967 0.839005 -0.01308
-6.109 -8.09013 8.2005 0.704026 0.548252 0.451407
-4.73887 -2.95038 10.0363 0.215907 0.495566 -0.841308
-6.22325 -6.96025 7.58225 0.827747 0.0783912 0.555599
-4.7185 -11.2759 15.6766 0.793706 0.608294 -0.00312074
-1.30838 -7.12044 15.2753 -0.452784 -0.683757 -0.572243
-5.61875 -4.25737 7.6965 0.978629 0.118664 -0.167943
-4.34269 -10.1756 10.3532 0.0574804 0.76062 0.646648
-1.90625 -6.818 10.2917 -0.962724 -0.18519 0.197148
-3.23534 -8.48941 17.304 0.0843109 -0.374124 -0.923538
-6.351 -2.99425 8.68025 0.659098 0.746601 -0.0904267
-5.79563 -5.69025 7.32412 0.957859 0.0303151 0.285636
-0.950875 -7.54581 12.4346 -0.632297 -0.545991 0.549632
-2.309 -6.189 8.945 -0.990824 0.123307 -0.0553434
-4.07681 -11.5229 14.4209 0.611204 0.778348 0.143542
-1.40675 -8.23525 16.089 -0.400395 -0.658658 -0.637066
-5.82725 -2.50425 9.9965 0.185066 0.85031 -0.49267
-3.648 -2.5685 10.791 0.0512143 0.888126 -0.456737
-2.55194 -2.87169 10.2829 -0.412992 0.578452 -0.703442
-5.05225 -9.12525 8.24525 0.439157 0.814084 0.380011
-1.70119 -8.70938 17.1994 -0.367204 -0.522871 -0.769264
-4.3105 -11.2565 11.5763 0.336622 0.872277 0.354709
0.031 -7.35913 13.8882 -0.612271 -0.790601 0.00867966
-4.66625 -11.0845 16.892 0.873862 0.373752 -0.310925
-1.463 -8.376 11.3333 -0.806276 -0.255371 0.533577
-3.58612 -11.5753 13.3752 0.367699 0.920854 0.129709
-3.79075 -10.2222 18.0065 0.409482 -0.0532152 -0.910765
-3.57711 -9.55381 9.77205 -0.197054 0.922204 0.33273
-1.71375 -7.84975 10.351 -0.959066 -0.0283712 0.281756
-3.82663 -9.5445 8.57913 -0.0289599 0.975135 0.219709
-1.03 -3.787 8.5425 -0.841293 0.29785 -0.451123
-2.18438 -7.15963 8.50113 -0.97819 -0.0684411 0.19611
-6.951 -2.5145 9.9525 0.21621 0.976343 0.00262576
-3.47725 -2.18625 11.8475 -0.3464 0.841313 -0.414969
-6.111 -5.624 6.089 0.902457 0.418943 -0.100291
-6.187 -2.8705 7.317 0.76518 0.638045 -0.0860097
-0.464 -8.9755 16.604 -0.386586 -0.387961 -0.836683
-2.3525 -6.17938 7.56938 -0.928894 0.314033 0.196315
-7.16125 -2.234 7.76575 0.557123 0.812604 -0.171138
-3.302 -11.1471 11.4605 -0.0613465 0.694598 0.716778
-2.13225 -8.094 9.39625 -0.947777 0.184363 0.260248
-1.991 -1.967 11.037 -0.456314 0.833743 -0.310886
-2.7135 -12.04 14.0715 0.366581 0.883477 0.291696
-4.69228 -7.21006 6.58134 0.412367 0.69768 0.585829
-6.2165 -2.099 11.352 -0.0671779 0.99727 0.0306544
-3.354 -12.5258 15.707 0.334248 0.942454 0.00765007
-1.62925 -2.0845 9.506 -0.672234 0.587866 -0.450016
-4.2395 -8.5735 7.08169 0.129076 0.635443 0.761282
-3.862 -11.6217 17.6195 0.410813 0.59085 -0.694355
-2.77375 -9.09387 9.28175 -0.625672 0.758327 0.182961
-2.68175 -10.0616 18.0147 -0.147886 -0.169386 -0.974391
-0.571625 -9.07475 11.6154 -0.446835 -0.276825 0.850709
-1.88644 -9.22363 10.6494 -0.616614 0.425512 0.662365
-3.04312 -9.22025 8.00725 -0.450346 0.747347 0.488529
-6.4485 -3.06988 6.36562 0.581447 0.599726 -0.549771
-3.116 -12.246 16.7978 0.255258 0.896528 -0.36205
-1.69675 -10.2355 17.6903 -0.451623 0.102526 -0.886298
0.717875 -8.19975 15.5052 -0.62321 -0.649262 -0.435968
-2.527 -11.704 12.3365 0.176489 0.927301 0.330096
-8.08497 -1.88934 9.36447 0.524179 0.786561 0.326433
-2.162 -8.0945 7.9165 -0.909633 0.295624 0.291845
-6.624 -4.5115 5.5635 0.517749 0.639978 -0.567772
-0.620125 -2.47038 8.16737 -0.933496 0.310793 -0.178866
-2.77225 -11.4105 17.805 -0.18764 0.469214 -0.862919
-0.949313 -4.12856 7.11919 -0.913709 0.35722 0.193727
1.14525 -8.562 12.9073 -0.669011 -0.647723 0.364526
-1.69987 -5.249 6.81862 -0.818807 0.560268 0.125122
-3.15875 -1.42963 12.8542 -0.499533 0.666475 -0.553423
-2.33325 -1.6125 12.1005 -0.27871 0.82363 -0.493918
-7.99203 -2.64528 11.2072 -0.0144315 0.992396 0.122235
-2.44412 -12.6461 15.2684 0.108394 0.994106 0.00173444
-4.69075 -2.53175 13.1115 -0.350228 0.931539 -0.0978508
-8.17025 -1.88312 7.04 0.329029 0.739171 -0.587679
-1.66 -12.3445 13.6494 0.0749592 0.965726 0.248506
-2.81013 -7.37475 7.02338 -0.632572 0.310152 0.709689
-2.88225 -6.48225 6.32975 -0.654714 0.679947 0.330186
0.859375 -9.032 16.0446 -0.710914 -0.271388 -0.648807
-6.183 -5.011 4.536 0.30348 0.907268 0.291145
-5.72906 -2.47112 12.6509 -0.0788777 0.986902 0.140719
-0.47025 -1.53 9.122 -0.559631 0.807507 -0.186402
-0.977813 -1.33644 11.9819 -0.0664935 0.980925 -0.18266
-3.716 -6.85975 5.448 -0.263335 0.865654 0.425791
0.578125 -10.3691 16.4349 -0.656737 0.0802966 -0.749832
-8.26437 -1.01525 8.31125 0.555904 0.831173 -0.0110874
-7.69875 -3.17213 5.98338 0.299425 0.616534 -0.728169
-1.37625 -11.8694 12.1976 -0.0962332 0.842831 0.529505
-1.33125 -10.4866 11.3071 -0.287108 0.373615 0.882032
-0.426 -1.17206 10.6077 -0.363504 0.925447 -0.106831
-0.7125 -3.14287 6.77037 -0.909629 0.176453 0.376085
-7.5915 -4.8935 5.11925 0.355514 0.720587 -0.595285
-5.07044 -6.35375 5.00331 0.358455 0.754102 0.55031
-0.02625 -10.5835 11.7972 -0.321326 0.311059 0.894423
-1.62603 -12.0646 16.4171 -0.241147 0.799142 -0.550654
1.0125 -9.58212 11.8576 -0.547629 -0.0482876 0.835327
-9.06 -0.9825 9.4 0.709073 0.625695 0.325148
1.367 -8.79813 14.2028 -0.938835 -0.300511 -0.168172
-0.030375 -1.28225 7.4885 -0.531229 0.845946 0.0465979
-4.765 -2.518 14.248 -0.364464 0.919285 -0.148599
-3.69738 -1.33834 13.9881 -0.730711 0.470451 -0.494709
-8.982 -2.2765 6.4235 0.208589 0.693139 -0.689962
-9.14338 -2.21881 10.6134 0.525658 0.686227 0.502768
1.30375 -9.7405 15.091 -0.953067 -0.0709761 -0.294322
-0.125625 -11.4201 16.4508 -0.505807 0.513905 -0.692864
-0.731875 -12.3286 14.3022 -0.356289 0.916199 0.183404
-1.81662 -4.56588 5.56887 -0.783066 0.239221 0.574091
-0.595 -12.0105 13.363 -0.371538 0.892576 0.255475
-1.476 -3.1625 5.95813 -0.693237 0.143144 0.706351
-1.63806 -0.748062 12.9071 -0.00624998 0.683988 -0.729466
-1.08025 -12.5326 15.4539 -0.267539 0.945742 -0.184376
1.891 -9.97425 13.0087 -0.975146 0.0577273 0.213912
-2.69287 -5.83144 5.22319 -0.654214 0.459018 0.601088
-7.58725 -5.17525 4.094 -0.109349 0.717811 -0.687598
-5.116 -5.535 4.308 0.188106 0.463336 0.865988
-9.42325 -2.72775 11.9522 0.61736 0.784708 -0.0556738
-0.945625 -1.96769 6.20687 -0.792355 0.33976 0.506693
1.146 -10.677 15.4235 -0.849498 0.391589 -0.353568
-9.39925 -0.69575 8.29525 0.516402 0.75225 -0.409204
-0.359 -11.5591 12.3024 -0.345776 0.698796 0.626197
-8.49575 -2.5645 12.975 0.186533 0.919786 -0.345252
-8.35437 -4.16412 4.94775 0.570471 0.599126 -0.561793
-4.09312 -6.05037 4.4095 -0.137521 0.544987 0.827089
-8.9555 -3.102 5.67 0.401153 0.74822 -0.528435
0.656875 -0.954625 11.0969 -0.172353 0.969797 0.17259
0.863875 -10.9526 12.4683 -0.584743 0.680737 0.441217
-9.65375 -0.18225 9.868 0.944339 0.32223 0.066263
-9.64669 -1.105 10.3852 0.861516 0.199114 0.467058
-5.90675 -2.65587 14.3011 0.000315313 0.991663 -0.12886
-0.27 -0.883 13.3573 0.52276 0.654727 -0.545943
-4.75725 -4.3725 3.745 -0.31198 0.546455 0.77721
0.94725 -0.8885 9.82619 -0.162998 0.986589 -0.00857057
-10.148 -1.38462 7.12813 0.229914 0.611414 -0.757174
-2.90569 0.68025 13.7451 -0.312653 0.115108 -0.942867
-7.47087 -2.52638 13.4104 0.181217 0.970668 -0.157999
-9.886 -2.553 5.83125 0.231542 0.833637 -0.501436
0.35525 -11.5347 13.7522 -0.562823 0.806709 0.18014
-5.15737 -2.20863 15.3814 -0.285748 0.688131 -0.666951
-1.22113 0.0809375 13.5485 0.27894 0.353428 -0.892906
-3.83075 -0.304 14.6757 -0.607594 -0.0369576 -0.793388
0.243813 -11.8969 14.8194 -0.612517 0.78779 -0.0648907
-6.11369 -4.90406 2.41894 -0.720725 0.693096 -0.0131379
-2.817 -4.43525 4.809 -0.582432 0.0504241 0.811314
0.721 -1.61625 13.153 0.550536 0.834086 0.034786
1.37888 -0.50825 8.64587 0.0043209 0.99807 -0.0619493
-0.04025 -0.651 6.15987 -0.333882 0.706318 0.62421
-4.98606 -4.13831 2.75444 -0.707196 0.630495 0.319921
1.3825 -10.685 14.0083 -0.884948 0.461274 -0.0639818
-10.237 -1.322 11.2058 0.927756 0.180387 0.326696
1.33506 -1.27988 11.9929 0.263704 0.797677 0.542376
1.572 -0.953875 7.497 0.0473165 0.987682 -0.149147
-1.8625 -1.868 5.281 -0.642916 0.358324 0.676951
-7.01625 -5.99675 3.2625 -0.752426 0.433991 -0.495487
-3.95025 -4.98125 4.1915 -0.364018 0.223478 0.904184
-10.1615 0.4705 8.58675 0.911713 0.337515 -0.234228
1.475 -1.086 6.477 0.0342105 0.968835 0.245335
-9.96212 0.7785 9.82487 0.984476 0.0508648 -0.167988
-8.94312 -4.58262 4.06213 0.560501 0.160938 -0.812366
-9.30481 -1.76231 13.5004 0.595097 0.508562 -0.622273
-7.96863 -6.67513 3.78638 -0.299107 0.692448 -0.656544
3 168 154 110
3 110 154 121
3 149 193 157
3 157 159 122
3 159 171 137
3 122 137 110
3 137 168 110
3 110 121 76
3 110 76 122
3 121 97 76
3 54 70 107
3 132 97 121
3 163 132 162
3 132 121 154
3 162 132 190
3 154 190 132
3 177 115 182
3 182 115 166
3 166 115 150
3 166 150 189
3 44 99 92
3 122 92 99
3 99 127 122
3 44 92 73
3 73 76 48
3 20 48 54
3 20 40 37
3 40 54 55
3 55 82 109
3 82 116 109
3 116 82 107
3 135 116 164
3 107 156 170
3 104 148 113
3 113 81 112
3 81 41 39
3 41 81 49
3 49 81 72
3 33 44 20
3 20 37 10
3 51 26 68
3 37 55 56
3 84 56 79
3 55 37 40
3 71 109 105
3 68 102 104
3 104 75 51
3 75 112 69
3 75 69 51
3 81 39 85
3 6 20 10
3 10 14 1
3 51 46 26
3 46 66 28
3 28 66 62
3 69 78 46
3 66 90 62
3 65 36 45
3 87 67 65
3 67 36 65
3 39 57 85
3 12 17 30
3 36 17 23
3 23 45 36
3 7 5 17
3 23 17 5
3 2 14 11
3 14 28 25
3 25 11 14
3 60 50 103
3 89 103 50
3 129 89 124
3 89 62 90
3 23 13 34
3 5 4 13
3 2 11 9
3 9 11 27
3 27 43 21
3 21 9 27
3 21 53 58
3 47 21 58
3 58 53 74
3 183 161 172
3 123 124 77
3 123 77 96
3 111 96 63
3 63 59 38
3 63 52 80
3 29 52 22
3 38 22 52
3 22 4 16
3 4 8 19
3 4 2 8
3 9 8 2
3 4 19 32
3 4 32 16
3 64 47 88
3 94 74 140
3 94 140 130
3 133 183 139
3 141 176 172
3 141 172 143
3 42 52 29
3 29 32 61
3 152 100 134
3 84 117 100
3 100 117 134
3 117 167 180
3 118 125 79
3 79 106 118
3 145 118 106
3 145 106 105
3 145 169 174
3 169 136 175
3 191 181 134
3 181 152 134
3 191 134 186
3 186 134 180
3 160 167 125
3 179 185 118
3 118 165 179
3 115 149 99
3 99 149 127
3 149 157 127
3 122 127 157
3 122 159 137
3 48 70 54
3 70 48 97
3 76 97 48
3 107 70 97
3 138 107 97
3 138 132 163
3 138 97 132
3 162 190 192
3 188 195 149
3 189 150 158
3 158 150 128
3 49 72 44
3 115 128 150
3 128 115 81
3 81 115 72
3 44 72 99
3 99 72 115
3 20 44 48
3 48 44 73
3 135 109 116
3 184 138 163
3 104 142 148
3 148 142 178
3 178 142 144
3 113 148 119
3 119 148 158
3 119 158 128
3 158 148 189
3 178 189 148
3 113 119 81
3 128 81 119
3 81 85 112
3 39 41 24
3 41 49 33
3 15 12 24
3 15 24 33
3 41 33 24
3 33 20 15
3 10 37 26
3 84 68 56
3 56 26 37
3 26 56 68
3 79 56 71
3 79 71 106
3 71 56 55
3 105 106 71
3 136 105 109
3 135 136 109
3 173 136 135
3 173 135 164
3 138 184 151
3 138 151 107
3 107 151 156
3 156 151 194
3 152 187 144
3 126 152 144
3 102 126 144
3 142 104 102
3 142 102 144
3 98 69 112
3 78 69 98
3 78 98 87
3 91 87 98
3 91 98 112
3 91 112 85
3 67 87 91
3 57 67 85
3 85 67 91
3 39 24 30
3 30 24 12
3 7 12 3
3 3 12 15
3 3 15 6
3 20 6 15
3 6 1 3
3 14 10 31
3 14 31 28
3 26 46 31
3 26 31 10
3 31 46 28
3 90 66 78
3 90 78 87
3 78 66 46
3 57 36 67
3 36 57 39
3 36 39 30
3 36 30 17
3 3 5 7
3 5 3 0
3 0 3 1
3 0 1 2
3 25 28 50
3 27 60 43
3 25 60 27
3 60 25 50
3 131 103 89
3 131 89 129
3 90 124 89
3 90 77 124
3 45 59 77
3 59 45 23
3 59 23 34
3 22 38 34
3 22 34 13
3 22 13 4
3 0 4 5
3 2 4 0
3 27 11 25
3 9 21 8
3 8 21 18
3 8 18 19
3 21 47 35
3 21 35 18
3 18 35 19
3 114 95 139
3 95 114 74
3 95 74 53
3 133 139 95
3 133 95 103
3 103 95 60
3 60 95 43
3 43 95 53
3 183 147 161
3 161 147 131
3 147 103 131
3 129 161 131
3 133 103 147
3 133 147 183
3 143 172 161
3 143 161 155
3 155 161 129
3 123 143 155
3 123 155 124
3 124 155 129
3 143 123 111
3 96 111 123
3 59 63 96
3 59 96 77
3 34 38 59
3 47 32 35
3 35 32 19
3 61 86 93
3 86 61 64
3 47 64 32
3 32 64 61
3 88 101 64
3 64 101 86
3 93 86 101
3 93 101 130
3 94 101 88
3 74 94 58
3 58 94 88
3 58 88 47
3 120 140 74
3 153 140 120
3 153 120 139
3 139 120 114
3 114 120 74
3 176 140 153
3 176 153 183
3 183 153 139
3 111 141 143
3 130 146 108
3 108 146 111
3 108 111 80
3 111 146 141
3 130 83 93
3 83 108 80
3 108 83 130
3 42 93 83
3 42 83 52
3 52 83 80
3 61 93 42
3 29 61 42
3 146 130 140
3 146 176 141
3 176 146 140
3 100 126 102
3 100 102 68
3 100 68 84
3 152 126 100
3 180 134 117
3 125 167 117
3 174 165 145
3 145 165 118
3 171 168 137
3 115 177 149
3 188 149 177
3 92 122 76
3 92 76 73
3 54 40 20
3 107 82 54
3 55 54 82
3 116 107 170
3 49 44 33
3 109 71 55
3 170 164 116
3 104 113 75
3 112 75 113
3 6 10 1
3 69 46 51
3 68 104 51
3 117 84 125
3 125 84 79
3 136 169 105
3 145 105 169
3 7 17 12
3 1 14 2
3 62 50 28
3 62 89 50
3 90 45 77
3 23 5 13
3 43 53 21
3 38 52 63
3 183 172 176
3 63 80 111
3 22 16 29
3 29 16 32
3 94 130 101
3 160 125 118
3 185 160 118
3 90 87 65
3 90 65 45
