ply
format ascii 1.0
comment Generated by PyMesh
element vertex 183
property float x
property float y
property float z
property float nx
property float ny
property float nz
element face 316
property list uchar int vertex_indices
end_header
-8.04775 1.27894 13.8454 0.402317 -0.81053 -0.425655
-7.6435 1.70875 13.037 0.439389 -0.897843 -0.0285534
-8.909 0.4065 14.286 0.73117 -0.497013 -0.4673
-8.84081 0.750188 12.7536 0.626112 -0.771068 -0.115926
-8.03256 0.0735625 15.0258 0.517041 -0.337749 -0.786508
-6.464 1.99188 13.131 0.114109 -0.94543 -0.305189
-9.43606 -0.117812 13.4581 0.804556 -0.193789 -0.561369
-7.03288 1.72438 11.6827 0.166318 -0.974006 -0.15379
-8.74413 1.04475 11.6525 0.462599 -0.739102 -0.489623
-5.53575 1.5295 13.741 -0.121869 -0.773495 -0.621975
-9.76156 0.291438 11.3061 0.936059 -0.348835 -0.0459032
-10.1956 -0.223 12.1319 0.948219 -0.288896 -0.131983
-6.8605 -0.341 15.9435 0.396037 -0.188333 -0.898713
-8.64675 -1.3 14.493 0.694924 0.166547 -0.69953
-7.49125 -1.47625 15.2793 0.469884 0.554722 -0.686653
-5.77275 1.7585 11.7533 0.118718 -0.992596 -0.0256668
-6.381 0.66075 15.2494 -0.00666402 -0.786907 -0.617035
-4.70913 2.10713 12.9949 0.223145 -0.9024 -0.368619
-7.16862 2.01875 10.3194 -0.1478 -0.973047 -0.177015
-10.1517 -1.443 12.8884 0.884903 0.208359 -0.416574
-9.30481 -1.76231 13.5004 0.595097 0.508562 -0.622273
-8.25669 2.225 10.649 0.102 -0.921986 -0.373547
-5.345 0.7695 14.552 -0.203801 -0.759961 -0.617191
-9.66938 1.7765 10.3371 0.732011 -0.557361 -0.391801
-5.719 -0.127 16.1567 -0.158741 -0.406461 -0.899773
-4.76137 2.07962 11.2802 0.554042 -0.813106 -0.178594
-4.18175 0.935375 14.1839 -0.205217 -0.606615 -0.768052
-10.237 -1.322 11.2058 0.927756 0.180387 0.326696
-5.79569 -1.33506 16.1006 -0.124208 0.290816 -0.948682
-7.06962 -2.47638 14.4404 0.328211 0.848099 -0.415938
-9.65375 -0.18225 9.868 0.944339 0.32223 0.066263
-9.96212 0.7785 9.82487 0.984476 0.0508648 -0.167988
-9.64669 -1.105 10.3852 0.861516 0.199114 0.467058
-3.42144 2.20444 13.4284 0.306256 -0.504535 -0.80725
-5.243 2.07262 9.748 0.239633 -0.959016 -0.151212
-4.75675 0.05125 15.3105 -0.547288 -0.301542 -0.780735
-3.53912 2.96525 12.1566 0.718337 -0.495399 -0.488439
-8.49575 -2.5645 12.975 0.186533 0.919786 -0.345252
-8.029 2.4285 9.085 -0.0963041 -0.992581 -0.0742225
-7.07212 2.2745 8.75 0.0164395 -0.918462 -0.395167
-7.47087 -2.52638 13.4104 0.181217 0.970668 -0.157999
-9.42325 -2.72775 11.9522 0.61736 0.784708 -0.0556738
-9.33762 2.37037 9.08325 0.361501 -0.930176 -0.0639541
-5.15737 -2.20863 15.3814 -0.285748 0.688131 -0.666951
-9.06 -0.9825 9.4 0.709073 0.625695 0.325148
-5.90675 -2.65587 14.3011 0.000315313 0.991663 -0.12886
-2.90569 0.68025 13.7451 -0.312653 0.115108 -0.942867
-3.83075 -0.304 14.6757 -0.607594 -0.0369576 -0.793388
-10.1615 0.4705 8.58675 0.911713 0.337515 -0.234228
-9.14338 -2.21881 10.6134 0.525658 0.686227 0.502768
-4.11125 3.07125 10.2505 0.957848 -0.280915 0.0601128
-5.0945 2.38025 8.52125 0.251057 -0.772446 -0.583351
-2.06519 2.4575 13.891 0.582739 0.418386 -0.696684
-6.0835 2.4585 8.3595 0.00776644 -0.751767 -0.659383
-4.036 3.906 11.0367 0.922986 0.0195298 -0.384338
-8.7625 2.4195 8.222 0.280303 -0.957877 -0.062466
-2.55225 3.71012 13.1695 0.925513 0.107021 -0.36328
-3.975 2.80675 8.89725 0.737058 -0.577521 -0.351019
-10.2965 1.40625 7.82575 0.562055 -0.588037 -0.581642
-3.25887 4.56738 12.2809 0.800686 0.402702 -0.443545
-7.8825 2.953 7.627 0.482397 -0.698784 -0.528199
-9.39925 -0.69575 8.29525 0.516402 0.75225 -0.409204
-4.765 -2.518 14.248 -0.364464 0.919285 -0.148599
-7.99203 -2.64528 11.2072 -0.0144315 0.992396 0.122235
-8.08497 -1.88934 9.36447 0.524179 0.786561 0.326433
-8.26437 -1.01525 8.31125 0.555904 0.831173 -0.0110874
-10.5411 0.020375 7.60388 0.449597 0.384052 -0.806453
-3.69738 -1.33834 13.9881 -0.730711 0.470451 -0.494709
-7.07575 3.65275 7.62 0.364177 -0.385337 -0.847874
-5.72906 -2.47112 12.6509 -0.0788777 0.986902 0.140719
-1.30175 1.72675 13.5933 0.251486 0.358882 -0.898865
-4.20325 4.8255 11.4265 0.840367 0.417559 -0.345583
-5.118 3.48338 7.91625 0.3476 -0.00663432 -0.937619
-4.4855 4.7605 10.415 0.953016 0.288411 -0.0926233
-1.22113 0.0809375 13.5485 0.27894 0.353428 -0.892906
-2.66225 3.6205 14.2621 0.891561 0.452106 -0.0268244
-3.84325 3.8935 8.8005 0.93407 0.220152 -0.281153
-10.5476 1.928 6.92238 -0.197212 -0.846173 -0.495074
-8.85525 2.47675 6.7845 0.496342 -0.751685 -0.434297
-3.95775 5.3385 12.688 0.646367 0.75457 -0.113288
-1.63806 -0.748062 12.9071 -0.00624998 0.683988 -0.729466
-4.69075 -2.53175 13.1115 -0.350228 0.931539 -0.0978508
-6.316 4.25462 7.96925 0.432233 0.0561925 -0.900009
-3.15875 -1.42963 12.8542 -0.499533 0.666475 -0.553423
-2.197 3.26238 15.6433 0.795622 0.605712 0.00992048
-8.06475 3.8725 6.61625 0.721615 -0.50556 -0.472948
-0.5245 2.303 15.0765 0.599448 0.783212 -0.165048
-11.189 -0.84225 7.053 0.0537119 0.434125 -0.89925
-3.34713 4.98025 13.9406 0.690626 0.722087 -0.0403192
-11.772 1.0155 8.0525 -0.0128847 -0.133187 -0.991007
-11.8252 -0.017625 7.72687 0.0271841 0.356959 -0.933724
-10.148 -1.38462 7.12813 0.229914 0.611414 -0.757174
-6.951 -2.5145 9.9525 0.21621 0.976343 0.00262576
-8.17025 -1.88312 7.04 0.329029 0.739171 -0.587679
-0.2655 1.9445 14.1663 0.782728 0.426397 -0.453346
-6.2165 -2.099 11.352 -0.0671779 0.99727 0.0306544
-7.23431 5.14437 6.95969 0.767064 -0.239082 -0.595359
-7.16125 -2.234 7.76575 0.557123 0.812604 -0.171138
-4.608 6.026 11.9055 0.68848 0.718403 0.0994643
-4.487 4.90325 9.013 0.825406 0.350902 -0.442236
-0.27 -0.883 13.3573 0.52276 0.654727 -0.545943
-10.4847 2.58538 5.91437 -0.122722 -0.723589 -0.679234
-4.76788 6.18337 10.7781 0.95694 0.275616 0.0911152
-0.118719 0.483594 14.4014 0.788998 0.16338 -0.592275
-5.429 4.95425 8.40075 0.475472 0.186093 -0.859823
-6.351 -2.99425 8.68025 0.659098 0.746601 -0.0904267
-0.977813 -1.33644 11.9819 -0.0664935 0.980925 -0.18266
-11.8441 3.039 6.80875 -0.620274 -0.445901 -0.645316
-5.1055 5.892 13.079 0.455329 0.8685 0.195915
-2.33325 -1.6125 12.1005 -0.27871 0.82363 -0.493918
-0.72125 2.289 16.1483 0.68701 0.597577 0.413423
-8.757 3.626 5.702 0.435516 -0.646049 -0.626855
-12.2112 -1.32056 6.83494 0.212442 0.686723 -0.695183
-3.47725 -2.18625 11.8475 -0.3464 0.841313 -0.414969
-12.7525 1.6205 7.86925 0.455324 -0.33272 -0.825819
-5.82725 -2.50425 9.9965 0.185066 0.85031 -0.49267
-8.982 -2.2765 6.4235 0.208589 0.693139 -0.689962
-2.635 4.1795 16.67 0.976227 0.215117 -0.0265578
-2.38525 3.11525 17.1514 0.907728 0.15737 0.388928
-8.35363 4.39925 5.14475 0.553966 -0.450632 -0.700037
-13.1676 -0.608 7.422 0.357549 0.532034 -0.767528
-5.69325 5.91012 8.27106 0.664743 -0.134648 -0.734838
-6.187 -2.8705 7.317 0.76518 0.638045 -0.0860097
-4.19763 5.60075 15.3389 0.500062 0.824202 -0.265761
-7.404 5.35675 5.69225 0.866794 -0.042413 -0.49686
-7.367 6.4385 6.487 0.623885 0.266605 -0.734635
-3.2905 5.03075 15.7904 0.787444 0.554987 -0.26818
0.17625 0.576688 15.5509 0.950339 0.299197 0.0856599
-9.886 -2.553 5.83125 0.231542 0.833637 -0.501436
-10.4535 3.562 5.2365 -0.0918272 -0.622429 -0.77727
-5.77775 6.86275 11.781 0.440652 0.711641 0.547168
0.721 -1.61625 13.153 0.550536 0.834086 0.034786
-7.69875 -3.17213 5.98338 0.299425 0.616534 -0.728169
-11.3241 -2.33512 5.93962 0.252521 0.915196 -0.314085
-11.5653 3.48875 5.81225 -0.579591 -0.556343 -0.595447
-2.09125 1.976 17.3424 0.608348 0.545546 0.576448
-12.902 2.5225 6.736 0.196229 0.5215 -0.83038
-1.991 -1.967 11.037 -0.456314 0.833743 -0.310886
-6.11206 6.23981 13.6939 0.492597 0.870215 0.00860477
-13.9104 0.437875 7.28562 0.703222 -0.0278299 -0.710425
-6.4485 -3.06988 6.36562 0.581447 0.599726 -0.549771
-3.648 -2.5685 10.791 0.0512143 0.888126 -0.456737
-4.7865 6.549 9.07625 0.87788 0.0796129 -0.472216
-5.20937 7.63662 11.2535 0.574562 0.510636 0.639632
-0.3905 1.08862 16.5249 0.735052 0.490011 0.468602
-6.276 6.75625 7.29 0.643872 -0.169955 -0.746019
-4.73887 -2.95038 10.0363 0.215907 0.495566 -0.841308
-0.426 -1.17206 10.6077 -0.363504 0.925447 -0.106831
-8.9555 -3.102 5.67 0.401153 0.74822 -0.528435
-11.8689 4.45662 6.01137 -0.97975 -0.146072 -0.136939
0.461 -0.8215 15.4971 0.923269 0.377674 0.0702589
-5.61875 -4.25737 7.6965 0.978629 0.118664 -0.167943
-4.85875 7.80931 9.67869 0.929939 0.367517 -0.0120459
-2.41925 5.115 17.606 0.946864 0.319901 -0.0333402
-5.271 -4.34734 9.45378 0.716884 -0.165769 -0.677199
-8.154 5.62925 4.9585 0.487731 0.237295 -0.840124
0.656875 -0.954625 11.0969 -0.172353 0.969797 0.17259
-8.00813 7.16913 6.77863 0.0891756 0.582075 -0.80823
-9.9465 4.2475 4.6095 0.189179 -0.524338 -0.83023
-8.1755 6.5375 5.8575 0.223966 0.704156 -0.673798
-3.36337 2.64575 18.0592 0.902201 0.0508714 0.428306
-9.3315 5.115 4.558 0.245796 0.272585 -0.930205
-12.9301 -1.75412 5.27763 0.392603 0.909855 -0.134266
-10.4152 -2.56775 4.9595 0.427255 0.881527 0.200905
-5.27513 7.20762 8.28475 0.841788 -0.0813768 -0.533639
-12.064 5.0585 7.27075 -0.952995 0.260046 -0.155489
-2.55194 -2.87169 10.2829 -0.412992 0.578452 -0.703442
-5.46769 6.15487 15.12 0.580072 0.666175 -0.46875
-14.1081 -0.705312 6.13575 0.681977 0.608786 -0.405324
-12.7896 3.62538 8.75081 -0.765524 0.594507 -0.246039
-1.338 1.19181 17.6868 0.566838 0.78206 0.258992
1.33506 -1.27988 11.9929 0.263704 0.797677 0.542376
-2.90875 4.09081 18.5298 0.93335 0.0431182 0.356369
-6.839 7.65975 6.9485 0.198143 0.304855 -0.931559
-13.8658 1.50719 6.11602 0.630547 -0.151743 -0.761173
-3.367 6.027 16.8283 0.674356 0.599216 -0.431491
-6.9995 6.861 12.373 0.417845 0.848023 0.32598
-11.926 -2.06175 4.8235 0.214942 0.911725 0.350082
-11.603 4.374 4.8655 -0.684768 -0.45324 -0.570672
-3.67 -3.37725 10.0363 0.0528347 0.22804 -0.972217
-5.84188 7.74475 7.4035 0.638548 0.0627964 -0.767016
1.41825 -2.4965 14.165 0.754722 0.655694 0.021473
-6.98825 7.71238 11.3588 0.284614 0.651543 0.703197
3 87 112 90
3 91 66 61
3 91 61 93
3 93 61 65
3 120 112 168
3 101 134 129
3 134 149 178
3 134 107 149
3 148 128 116
3 132 116 93
3 116 91 93
3 93 65 97
3 93 97 132
3 65 64 97
3 115 92 63
3 44 64 65
3 32 44 30
3 44 65 61
3 30 44 48
3 61 48 44
3 48 61 66
3 78 55 58
3 78 60 55
3 38 55 39
3 60 39 55
3 39 60 68
3 78 58 77
3 78 101 111
3 111 101 129
3 111 119 85
3 119 161 155
3 151 140 122
3 122 97 105
3 154 105 115
3 154 146 179
3 146 115 141
3 141 95 81
3 95 69 81
3 69 95 63
3 62 69 45
3 63 37 40
3 32 30 10
3 31 10 30
3 38 39 18
3 39 68 53
3 53 68 72
3 68 82 72
3 96 68 85
3 124 125 96
3 125 145 96
3 159 125 124
3 145 125 173
3 125 159 157
3 173 125 157
3 180 145 173
3 164 121 145
3 142 164 152
3 102 143 130
3 102 130 98
3 130 143 182
3 130 182 176
3 108 79 98
3 126 88 123
3 88 138 123
3 123 138 167
3 123 167 175
3 123 175 126
3 179 141 166
3 141 179 146
3 113 81 83
3 35 43 28
3 40 29 45
3 12 14 4
3 12 4 16
3 13 20 6
3 4 0 5
3 3 8 7
3 7 8 21
3 7 21 18
3 18 34 7
3 7 34 25
3 53 51 34
3 51 53 72
3 25 34 50
3 50 73 54
3 59 36 54
3 71 73 102
3 99 104 142
3 142 104 121
3 99 72 104
3 142 121 164
3 71 98 79
3 79 59 71
3 36 33 17
3 36 17 25
3 33 52 46
3 46 52 70
3 36 56 33
3 33 56 52
3 56 75 52
3 70 52 86
3 86 52 84
3 56 88 75
3 75 88 84
3 84 88 126
3 117 84 126
3 153 117 126
3 153 172 117
3 117 172 118
3 84 118 135
3 106 147 137
3 137 109 106
3 80 106 109
3 80 109 83
3 80 46 74
3 46 67 47
3 46 47 26
3 17 26 9
3 17 9 5
3 25 17 15
3 5 15 17
3 5 9 16
3 22 16 9
3 15 5 7
3 70 103 74
3 74 103 100
3 100 103 150
3 135 170 144
3 131 171 106
3 106 100 131
3 100 150 131
3 112 162 168
3 120 139 90
3 168 139 120
3 174 114 139
3 139 114 90
3 107 114 136
3 136 114 174
3 107 169 165
3 136 169 107
3 163 128 148
3 91 133 112
3 91 112 87
3 163 133 128
3 128 133 91
3 163 177 133
3 112 133 162
3 162 133 177
3 48 66 58
3 90 58 66
3 58 107 77
3 114 107 89
3 58 89 107
3 89 58 90
3 114 89 90
3 112 120 90
3 149 107 165
3 132 148 116
3 105 92 115
3 92 105 64
3 97 64 105
3 63 92 64
3 49 63 64
3 49 44 32
3 49 64 44
3 30 48 31
3 31 48 58
3 31 58 23
3 23 58 42
3 38 42 55
3 55 42 58
3 68 60 85
3 78 85 60
3 111 85 78
3 154 151 105
3 105 151 122
3 62 81 69
3 13 14 20
3 20 14 37
3 14 40 37
3 40 14 29
3 27 49 32
3 11 10 3
3 10 11 27
3 10 27 32
3 8 3 10
3 10 31 23
3 10 23 8
3 23 42 21
3 21 42 38
3 23 21 8
3 18 21 38
3 72 82 104
3 104 82 121
3 121 82 96
3 121 96 145
3 96 82 68
3 138 98 130
3 176 138 130
3 98 138 108
3 137 166 113
3 137 113 109
3 113 166 141
3 83 109 113
3 67 83 81
3 62 67 81
3 35 67 43
3 43 67 62
3 43 62 45
3 28 43 14
3 43 29 14
3 45 29 43
3 35 24 16
3 12 24 28
3 35 28 24
3 22 35 16
3 12 28 14
3 12 16 24
3 4 14 13
3 0 4 2
3 0 2 3
3 3 2 6
3 6 2 4
3 6 4 13
3 19 11 6
3 19 6 20
3 6 11 3
3 27 11 41
3 49 27 41
3 11 19 41
3 49 41 63
3 63 41 37
3 37 41 20
3 19 20 41
3 1 0 3
3 5 0 1
3 5 1 7
3 7 1 3
3 36 25 54
3 54 25 50
3 71 59 54
3 73 71 54
3 102 73 99
3 102 99 142
3 84 52 75
3 118 84 117
3 160 135 118
3 160 118 172
3 35 22 26
3 35 26 47
3 35 47 67
3 33 46 26
3 26 17 33
3 74 100 80
3 80 100 106
3 181 131 150
3 103 127 150
3 66 87 90
3 87 66 91
3 134 101 107
3 107 101 77
3 128 91 116
3 101 78 77
3 158 161 119
3 129 158 111
3 119 111 158
3 140 132 97
3 140 97 122
3 115 146 154
3 63 95 115
3 141 115 95
3 69 63 40
3 124 119 155
3 155 159 124
3 85 124 96
3 85 119 124
3 155 161 159
3 145 180 164
3 143 102 152
3 138 88 108
3 108 88 79
3 81 113 141
3 40 45 69
3 39 53 34
3 18 39 34
3 57 51 72
3 76 57 72
3 76 72 99
3 76 99 73
3 50 76 73
3 50 57 76
3 34 57 50
3 57 34 51
3 142 152 102
3 71 102 98
3 56 59 88
3 59 56 36
3 59 79 88
3 175 153 126
3 67 46 83
3 80 83 46
3 22 9 26
3 5 16 4
3 15 7 25
3 70 74 46
3 94 86 127
3 94 127 103
3 94 103 70
3 94 70 86
3 86 84 110
3 86 110 127
3 144 127 110
3 84 135 110
3 135 144 110
3 156 147 106
3 171 156 106
