ply
format ascii 1.0
comment Generated by PyMesh
element vertex 178
property float x
property float y
property float z
property float nx
property float ny
property float nz
element face 327
property list uchar int vertex_indices
end_header
-1.88644 -9.22363 10.6494 -0.616614 0.425512 0.662365
-1.463 -8.376 11.3333 -0.806276 -0.255371 0.533577
-1.71375 -7.84975 10.351 -0.959066 -0.0283712 0.281756
-1.33125 -10.4866 11.3071 -0.287108 0.373615 0.882032
-2.77375 -9.09387 9.28175 -0.625672 0.758327 0.182961
-0.571625 -9.07475 11.6154 -0.446835 -0.276825 0.850709
-2.13225 -8.094 9.39625 -0.947777 0.184363 0.260248
-3.57711 -9.55381 9.77205 -0.197054 0.922204 0.33273
-1.90625 -6.818 10.2917 -0.962724 -0.18519 0.197148
-3.302 -11.1471 11.4605 -0.0613465 0.694598 0.716778
-0.950875 -7.54581 12.4346 -0.632297 -0.545991 0.549632
-4.34269 -10.1756 10.3532 0.0574804 0.76062 0.646648
-0.02625 -10.5835 11.7972 -0.321326 0.311059 0.894423
-3.04312 -9.22025 8.00725 -0.450346 0.747347 0.488529
-3.82663 -9.5445 8.57913 -0.0289599 0.975135 0.219709
-2.18438 -7.15963 8.50113 -0.97819 -0.0684411 0.19611
-1.37625 -11.8694 12.1976 -0.0962332 0.842831 0.529505
-2.162 -8.0945 7.9165 -0.909633 0.295624 0.291845
-1.7585 -6.495 11.9974 -0.875271 -0.44215 0.195971
-0.359 -11.5591 12.3024 -0.345776 0.698796 0.626197
1.0125 -9.58212 11.8576 -0.547629 -0.0482876 0.835327
-4.3105 -11.2565 11.5763 0.336622 0.872277 0.354709
-5.27969 -9.23044 9.6165 0.552825 0.793218 0.255323
-2.011 -5.875 11.0615 -0.733903 -0.671001 -0.105567
-2.527 -11.704 12.3365 0.176489 0.927301 0.330096
1.14525 -8.562 12.9073 -0.669011 -0.647723 0.364526
-2.309 -6.189 8.945 -0.990824 0.123307 -0.0553434
0.863875 -10.9526 12.4683 -0.584743 0.680737 0.441217
-5.6675 -9.7635 11.0267 0.829797 0.432144 0.353113
-1.52013 -6.21325 13.1946 -0.53448 -0.837967 0.110193
-5.05225 -9.12525 8.24525 0.439157 0.814084 0.380011
-2.3525 -6.17938 7.56938 -0.928894 0.314033 0.196315
0.031 -7.35913 13.8882 -0.612271 -0.790601 0.00867966
-2.68963 -5.70463 12.3524 -0.260663 -0.948494 -0.180039
-0.595 -12.0105 13.363 -0.371538 0.892576 0.255475
-2.81013 -7.37475 7.02338 -0.632572 0.310152 0.709689
-2.61469 -4.94441 9.86416 -0.775368 -0.219062 -0.592297
-4.2395 -8.5735 7.08169 0.129076 0.635443 0.761282
-1.66 -12.3445 13.6494 0.0749592 0.965726 0.248506
1.891 -9.97425 13.0087 -0.975146 0.0577273 0.213912
-6.14975 -8.38775 9.2365 0.864514 0.496605 -0.0774548
-5.77 -8.44 10.563 0.951713 0.306736 0.0124313
-5.65947 -10.4865 12.0315 0.739189 0.670298 0.0655765
1.367 -8.79813 14.2028 -0.938835 -0.300511 -0.168172
-3.58612 -11.5753 13.3752 0.367699 0.920854 0.129709
-4.754 -10.953 13.301 0.543967 0.839005 -0.01308
-0.731875 -12.3286 14.3022 -0.356289 0.916199 0.183404
-3.67925 -5.23994 10.9784 -0.0577555 -0.859388 -0.508052
-2.78744 -5.99862 13.4154 -0.0566234 -0.97951 -0.193273
0.35525 -11.5347 13.7522 -0.562823 0.806709 0.18014
-2.88225 -6.48225 6.32975 -0.654714 0.679947 0.330186
-6.109 -8.09013 8.2005 0.704026 0.548252 0.451407
-1.69987 -5.249 6.81862 -0.818807 0.560268 0.125122
1.3825 -10.685 14.0083 -0.884948 0.461274 -0.0639818
-1.91937 -6.21275 14.6142 -0.314087 -0.892927 -0.322539
-2.7135 -12.04 14.0715 0.366581 0.883477 0.291696
-4.69228 -7.21006 6.58134 0.412367 0.69768 0.585829
-6.60156 -7.33588 8.79594 0.994857 0.0992303 0.0203263
-6.10838 -7.2915 10.8197 0.978062 0.207388 -0.01962
-6.27887 -7.16625 9.82987 0.968248 0.150609 -0.199533
-1.30838 -7.12044 15.2753 -0.452784 -0.683757 -0.572243
0.717875 -8.19975 15.5052 -0.62321 -0.649262 -0.435968
-5.41463 -10.342 13.8094 0.814785 0.508942 -0.277674
-3.67 -3.37725 10.0363 0.0528347 0.22804 -0.972217
-6.0635 -9.55275 13.222 0.961183 0.228341 -0.154877
-4.07681 -11.5229 14.4209 0.611204 0.778348 0.143542
1.30375 -9.7405 15.091 -0.953067 -0.0709761 -0.294322
-6.14838 -8.3445 12.8004 0.998638 0.0306221 -0.0422442
-2.44412 -12.6461 15.2684 0.108394 0.994106 0.00173444
-2.55194 -2.87169 10.2829 -0.412992 0.578452 -0.703442
-1.08025 -12.5326 15.4539 -0.267539 0.945742 -0.184376
0.243813 -11.8969 14.8194 -0.612517 0.78779 -0.0648907
-1.03 -3.787 8.5425 -0.841293 0.29785 -0.451123
-4.92338 -5.55363 11.0901 0.467586 -0.821285 -0.326885
-3.716 -6.85975 5.448 -0.263335 0.865654 0.425791
-2.69287 -5.83144 5.22319 -0.654214 0.459018 0.601088
-6.22325 -6.96025 7.58225 0.827747 0.0783912 0.555599
-5.308 -5.77575 12.31 0.323934 -0.933786 -0.152023
-0.949313 -4.12856 7.11919 -0.913709 0.35722 0.193727
-1.81662 -4.56588 5.56887 -0.783066 0.239221 0.574091
1.146 -10.677 15.4235 -0.849498 0.391589 -0.353568
-4.83238 -6.22475 14.045 0.337459 -0.863933 -0.373821
0.859375 -9.032 16.0446 -0.710914 -0.271388 -0.648807
-6.14825 -6.61194 11.79 0.929507 -0.355159 -0.0993885
-3.648 -2.5685 10.791 0.0512143 0.888126 -0.456737
-4.73887 -2.95038 10.0363 0.215907 0.495566 -0.841308
-3.354 -12.5258 15.707 0.334248 0.942454 0.00765007
-4.8805 -10.495 14.9487 0.932964 0.341581 -0.11358
-3.731 -6.37675 15.2506 0.146035 -0.903592 -0.402736
-6.17556 -5.75075 9.81419 0.879245 -0.409227 -0.243849
-1.40675 -8.23525 16.089 -0.400395 -0.658658 -0.637066
-5.26237 -9.369 14.8328 0.932581 0.232313 -0.276268
-1.62603 -12.0646 16.4171 -0.241147 0.799142 -0.550654
-5.271 -4.34734 9.45378 0.716884 -0.165769 -0.677199
-2.83406 -7.02481 16.3614 -0.213924 -0.73017 -0.648913
-4.7185 -11.2759 15.6766 0.793706 0.608294 -0.00312074
-6.2445 -5.67425 8.35825 0.940384 -0.316391 0.124801
-1.991 -1.967 11.037 -0.456314 0.833743 -0.310886
-5.07044 -6.35375 5.00331 0.358455 0.754102 0.55031
-5.70131 -7.94219 14.2342 0.924738 -0.100025 -0.367226
-1.62925 -2.0845 9.506 -0.672234 0.587866 -0.450016
-5.725 -6.1115 13.164 0.778413 -0.53643 -0.326062
-5.79563 -5.69025 7.32412 0.957859 0.0303151 0.285636
0.578125 -10.3691 16.4349 -0.656737 0.0802966 -0.749832
-0.464 -8.9755 16.604 -0.386586 -0.387961 -0.836683
-0.7125 -3.14287 6.77037 -0.909629 0.176453 0.376085
-0.620125 -2.47038 8.16737 -0.933496 0.310793 -0.178866
-4.09312 -6.05037 4.4095 -0.137521 0.544987 0.827089
-6.111 -5.624 6.089 0.902457 0.418943 -0.100291
-0.125625 -11.4201 16.4508 -0.505807 0.513905 -0.692864
-2.817 -4.43525 4.809 -0.582432 0.0504241 0.811314
-3.47725 -2.18625 11.8475 -0.3464 0.841313 -0.414969
-1.476 -3.1625 5.95813 -0.693237 0.143144 0.706351
-3.116 -12.246 16.7978 0.255258 0.896528 -0.36205
-5.82725 -2.50425 9.9965 0.185066 0.85031 -0.49267
-3.95025 -4.98125 4.1915 -0.364018 0.223478 0.904184
-4.87 -7.05025 15.4299 0.602014 -0.722362 -0.340253
-1.70119 -8.70938 17.1994 -0.367204 -0.522871 -0.769264
-5.116 -5.535 4.308 0.188106 0.463336 0.865988
-2.33325 -1.6125 12.1005 -0.27871 0.82363 -0.493918
-4.66625 -11.0845 16.892 0.873862 0.373752 -0.310925
-0.47025 -1.53 9.122 -0.559631 0.807507 -0.186402
-0.977813 -1.33644 11.9819 -0.0664935 0.980925 -0.18266
-6.183 -5.011 4.536 0.30348 0.907268 0.291145
-0.945625 -1.96769 6.20687 -0.792355 0.33976 0.506693
-4.4885 -6.99975 16.5465 0.437605 -0.720127 -0.538441
-3.12075 -3.278 4.64725 -0.612575 0.0962018 0.784536
-5.61875 -4.25737 7.6965 0.978629 0.118664 -0.167943
-6.624 -4.5115 5.5635 0.517749 0.639978 -0.567772
-4.86794 -9.33075 16.6371 0.851016 0.0549026 -0.522261
-3.23534 -8.48941 17.304 0.0843109 -0.374124 -0.923538
-0.030375 -1.28225 7.4885 -0.531229 0.845946 0.0465979
-0.426 -1.17206 10.6077 -0.363504 0.925447 -0.106831
-2.77225 -11.4105 17.805 -0.18764 0.469214 -0.862919
-6.351 -2.99425 8.68025 0.659098 0.746601 -0.0904267
-4.30062 -7.94225 17.1379 0.324397 -0.263037 -0.908613
-6.951 -2.5145 9.9525 0.21621 0.976343 0.00262576
-3.15875 -1.42963 12.8542 -0.499533 0.666475 -0.553423
-4.75725 -4.3725 3.745 -0.31198 0.546455 0.77721
-3.862 -11.6217 17.6195 0.410813 0.59085 -0.694355
-1.69675 -10.2355 17.6903 -0.451623 0.102526 -0.886298
-4.69075 -2.53175 13.1115 -0.350228 0.931539 -0.0978508
-5.04875 -7.88225 16.3645 0.850945 -0.254382 -0.459545
-1.8625 -1.868 5.281 -0.642916 0.358324 0.676951
-6.2165 -2.099 11.352 -0.0671779 0.99727 0.0306544
-4.05363 -3.21913 3.93375 -0.710511 0.29783 0.637551
-1.63806 -0.748062 12.9071 -0.00624998 0.683988 -0.729466
-3.2065 -2.32675 4.27975 -0.661631 0.374437 0.649648
-7.5915 -4.8935 5.11925 0.355514 0.720587 -0.595285
-3.79075 -10.2222 18.0065 0.409482 -0.0532152 -0.910765
-2.68175 -10.0616 18.0147 -0.147886 -0.169386 -0.974391
-4.98606 -4.13831 2.75444 -0.707196 0.630495 0.319921
-7.58725 -5.17525 4.094 -0.109349 0.717811 -0.687598
0.656875 -0.954625 11.0969 -0.172353 0.969797 0.17259
-0.27 -0.883 13.3573 0.52276 0.654727 -0.545943
-0.04025 -0.651 6.15987 -0.333882 0.706318 0.62421
0.94725 -0.8885 9.82619 -0.162998 0.986589 -0.00857057
-6.187 -2.8705 7.317 0.76518 0.638045 -0.0860097
-3.69738 -1.33834 13.9881 -0.730711 0.470451 -0.494709
-7.16125 -2.234 7.76575 0.557123 0.812604 -0.171138
-5.72906 -2.47112 12.6509 -0.0788777 0.986902 0.140719
-4.765 -2.518 14.248 -0.364464 0.919285 -0.148599
-7.99203 -2.64528 11.2072 -0.0144315 0.992396 0.122235
-6.4485 -3.06988 6.36562 0.581447 0.599726 -0.549771
-8.08497 -1.88934 9.36447 0.524179 0.786561 0.326433
1.572 -0.953875 7.497 0.0473165 0.987682 -0.149147
-7.69875 -3.17213 5.98338 0.299425 0.616534 -0.728169
1.475 -1.086 6.477 0.0342105 0.968835 0.245335
-2.31381 -1.10175 4.2515 -0.672386 0.636115 0.37849
0.721 -1.61625 13.153 0.550536 0.834086 0.034786
1.37888 -0.50825 8.64587 0.0043209 0.99807 -0.0619493
-6.11369 -4.90406 2.41894 -0.720725 0.693096 -0.0131379
-1.22113 0.0809375 13.5485 0.27894 0.353428 -0.892906
1.33506 -1.27988 11.9929 0.263704 0.797677 0.542376
-8.35437 -4.16412 4.94775 0.570471 0.599126 -0.561793
-4.561 -3.0465 2.529 -0.805122 0.509933 0.302898
-3.709 -1.9195 3.02475 -0.766861 0.573532 0.288072
-1.46512 -0.271688 4.48956 -0.643815 0.680922 0.349067
3 114 136 162
3 171 123 151
3 151 123 138
3 151 138 145
3 138 123 118
3 138 118 115
3 145 138 115
3 127 128 163
3 166 163 128
3 128 148 166
3 127 163 157
3 157 159 134
3 93 134 114
3 93 85 63
3 85 114 84
3 84 144 141
3 144 160 141
3 160 144 162
3 176 145 147
3 145 126 147
3 110 112 126
3 52 75 50
3 50 56 35
3 56 76 51
3 76 56 102
3 102 56 108
3 96 127 93
3 93 63 47
3 26 36 72
3 63 84 69
3 100 69 97
3 84 63 85
3 111 141 137
3 168 147 143
3 72 78 52
3 52 31 26
3 31 35 15
3 31 15 26
3 56 51 37
3 73 93 47
3 47 33 77
3 26 8 36
3 8 2 18
3 18 2 1
3 15 6 8
3 2 0 1
3 7 22 11
3 4 14 7
3 14 22 7
3 51 30 37
3 59 41 40
3 22 41 28
3 28 11 22
3 58 67 41
3 28 41 67
3 81 33 48
3 33 18 29
3 29 48 33
3 32 10 25
3 5 25 10
3 12 5 3
3 5 1 0
3 28 64 42
3 67 99 64
3 81 48 88
3 88 48 54
3 54 60 94
3 94 88 54
3 94 90 117
3 130 94 117
3 117 90 104
3 53 27 49
3 16 3 9
3 16 9 24
3 38 24 44
3 44 21 45
3 44 65 55
3 87 65 62
3 45 62 65
3 62 99 91
3 99 116 142
3 99 81 116
3 88 116 81
3 99 142 129
3 99 129 91
3 149 130 150
3 140 104 109
3 140 109 92
3 43 53 66
3 46 71 49
3 46 49 34
3 95 65 87
3 87 129 120
3 124 106 131
3 100 121 106
3 106 121 131
3 121 156 170
3 122 132 97
3 97 119 122
3 146 122 119
3 146 119 137
3 167 155 131
3 155 124 131
3 177 143 124
3 177 168 143
3 167 131 165
3 165 131 170
3 153 156 132
3 169 173 122
3 122 154 169
3 123 152 128
3 128 152 148
3 152 174 148
3 166 148 174
3 134 136 114
3 136 134 164
3 159 164 134
3 162 136 164
3 115 118 107
3 107 118 98
3 102 108 127
3 123 98 118
3 98 123 56
3 56 123 108
3 127 108 128
3 128 108 123
3 93 127 134
3 134 127 157
3 161 141 160
3 112 147 126
3 52 79 75
3 75 79 110
3 110 79 112
3 50 75 74
3 74 75 107
3 74 107 98
3 107 75 115
3 110 115 75
3 50 74 56
3 98 56 74
3 56 37 35
3 51 76 57
3 76 102 96
3 89 59 57
3 89 57 96
3 76 96 57
3 96 93 89
3 47 63 36
3 100 72 69
3 69 36 63
3 36 69 72
3 97 69 111
3 97 111 119
3 111 69 84
3 137 119 111
3 158 137 141
3 161 158 141
3 124 143 112
3 105 124 112
3 78 105 112
3 79 52 78
3 79 78 112
3 17 15 35
3 6 15 17
3 6 17 4
3 13 4 17
3 13 17 35
3 13 35 37
3 14 4 13
3 30 14 37
3 37 14 13
3 51 57 40
3 40 57 59
3 58 59 83
3 83 59 89
3 83 89 73
3 93 73 89
3 73 77 83
3 33 47 23
3 33 23 18
3 36 8 23
3 36 23 47
3 23 8 18
3 0 2 6
3 0 6 4
3 6 2 8
3 30 22 14
3 22 30 51
3 22 51 40
3 22 40 41
3 83 67 58
3 67 83 101
3 101 83 77
3 101 77 81
3 29 18 10
3 54 32 60
3 29 32 54
3 32 29 10
3 20 25 5
3 20 5 12
3 0 3 5
3 0 9 3
3 11 21 9
3 21 11 28
3 21 28 42
3 62 45 42
3 62 42 64
3 62 64 99
3 101 99 67
3 81 99 101
3 54 48 29
3 88 94 116
3 116 94 125
3 116 125 142
3 94 130 135
3 94 135 125
3 125 135 142
3 82 61 66
3 61 82 104
3 61 104 90
3 43 66 61
3 43 61 25
3 25 61 32
3 32 61 60
3 60 61 90
3 53 39 27
3 27 39 20
3 39 25 20
3 12 27 20
3 43 25 39
3 43 39 53
3 34 49 27
3 34 27 19
3 19 27 12
3 16 34 19
3 16 19 3
3 3 19 12
3 34 16 38
3 24 38 16
3 21 44 24
3 21 24 9
3 42 45 21
3 130 129 135
3 135 129 142
3 120 139 113
3 139 120 149
3 130 149 129
3 129 149 120
3 150 133 149
3 149 133 139
3 113 139 133
3 113 133 92
3 140 133 150
3 104 140 117
3 117 140 150
3 117 150 130
3 103 109 104
3 80 109 103
3 80 103 66
3 66 103 82
3 82 103 104
3 71 109 80
3 71 80 53
3 53 80 66
3 38 46 34
3 92 70 68
3 68 70 38
3 68 38 55
3 38 70 46
3 92 86 113
3 86 68 55
3 68 86 92
3 95 113 86
3 95 86 65
3 65 86 55
3 120 113 95
3 87 120 95
3 70 92 109
3 70 71 46
3 71 70 109
3 106 105 78
3 106 78 72
3 106 72 100
3 124 105 106
3 170 131 121
3 132 156 121
3 172 154 146
3 146 154 122
3 123 171 152
3 163 166 159
3 163 159 157
3 114 85 93
3 162 144 114
3 84 114 144
3 176 175 145
3 175 151 145
3 115 110 145
3 126 145 110
3 102 127 96
3 141 111 84
3 168 176 147
3 52 50 31
3 35 31 50
3 73 47 77
3 15 8 26
3 72 52 26
3 121 100 132
3 132 100 97
3 155 177 124
3 147 112 143
3 58 41 59
3 77 33 81
3 1 10 18
3 1 5 10
3 0 11 9
3 28 67 64
3 60 90 94
3 45 65 44
3 53 49 71
3 44 55 38
3 62 91 87
3 87 91 129
3 140 92 133
3 153 132 122
3 173 153 122
3 0 4 7
3 0 7 11
