ply
format ascii 1.0
comment Generated by PyMesh
element vertex 200
property float x
property float y
property float z
property float charge
property float ddc
property float hbond
property float hphob
property float rho
property float si
property float theta
property float nx
property float ny
property float nz
element face 342
property list uchar int vertex_indices
end_header
-6.183 -5.011 4.536 0.226191 0 0.967173 -1 1e-08 0.0722563 2.22045e-16 0.30348 0.907268 0.291145
-5.116 -5.535 4.308 0.53344 0.676694 0.132085 -1 1.21039 -0.573461 4.50436 0.188106 0.463336 0.865988
-6.624 -4.5115 5.5635 0.468287 0 0 -0.866667 1.22464 0.1465 2.27605 0.517749 0.639978 -0.567772
-7.58725 -5.17525 4.094 -0.0551233 0.655769 0.672859 -1 1.4813 0.185181 1.03995 -0.109349 0.717811 -0.687598
-6.111 -5.624 6.089 0.57352 0.620443 0.517632 -0.801127 1.67116 -0.586464 2.91272 0.902457 0.418943 -0.100291
-4.75725 -4.3725 3.745 0.240903 -0.456355 0 -1 1.75104 0.137715 5.22213 -0.31198 0.546455 0.77721
-5.07044 -6.35375 5.00331 0.6309 0.261129 0.265465 -0.957747 1.80531 -0.625621 4.02995 0.358455 0.754102 0.55031
-6.11369 -4.90406 2.41894 0.0869857 0.418892 0 -1 2.12089 0.106526 2.22045e-16 -0.720725 0.693096 -0.0131379
-4.98606 -4.13831 2.75444 0.0453553 -0.375091 0 -1 2.31694 -0.448578 5.67964 -0.707196 0.630495 0.319921
-7.5915 -4.8935 5.11925 -0.00991547 -0.590065 0.514298 -0.866667 2.35572 -0.813618 1.63596 0.355514 0.720587 -0.595285
-4.09312 -6.05037 4.4095 0.490923 0.327985 0 -1 2.36026 -0.999878 4.33518 -0.137521 0.544987 0.827089
-3.95025 -4.98125 4.1915 0.403797 -0.487965 0.703378 -1 2.50623 -0.439848 4.73435 -0.364018 0.223478 0.904184
-7.01625 -5.99675 3.2625 0.0142378 0.679657 -0.13483 -0.961342 2.78219 -0.678956 0.593317 -0.752426 0.433991 -0.495487
-6.4485 -3.06988 6.36562 0.82373 -0.370723 0.232478 -0.866667 2.88369 0.999867 2.27742 0.581447 0.599726 -0.549771
-5.79563 -5.69025 7.32412 0.66977 0.442441 0.297821 -0.863844 2.94762 0.225146 3.07344 0.957859 0.0303151 0.285636
-8.94312 -4.58262 4.06213 -0.560117 -0.494482 -0.0572364 -0.777778 2.96137 0.0691205 1.27376 0.560501 0.160938 -0.812366
-7.69875 -3.17213 5.98338 0.781853 -0.373869 0.112886 -0.866667 2.99249 0.118032 1.99963 0.299425 0.616534 -0.728169
-8.35437 -4.16412 4.94775 -0.453847 -0.421718 -0.475452 -0.816929 3.01093 -0.0223487 1.5534 0.570471 0.599126 -0.561793
-7.96863 -6.67513 3.78638 -0.661683 0.393963 -0.306906 -0.777778 3.05919 -0.999901 0.78892 -0.299107 0.692448 -0.656544
-4.05363 -3.21913 3.93375 0.0999057 -0.393408 0 -1 3.11521 0.525863 5.21745 -0.710511 0.29783 0.637551
-9.01975 -6.191 4.01325 -0.53754 0.449024 0 -0.777778 3.23924 -0.871548 1.01743 0.243692 0.223039 -0.943858
-3.716 -6.85975 5.448 0.579937 -0.129241 0.268141 -1 3.31802 -0.999864 4.0314 -0.263335 0.865654 0.425791
-4.69228 -7.21006 6.58134 0.7131 0.164934 0.096704 -0.777778 3.35284 -0.0381626 3.59849 0.412367 0.69768 0.585829
-6.46925 -5.10881 1.25181 -0.019668 0.321257 0 -0.880138 3.35804 -0.259342 0.0478765 -0.779521 0.411465 0.472275
-4.561 -3.0465 2.529 0.146464 -0.310498 0.0175719 -1 3.51007 0.268546 5.55438 -0.805122 0.509933 0.302898
-5.61875 -4.25737 7.6965 1 -0.392438 0.473898 -0.866667 3.5963 0.429686 2.74365 0.978629 0.118664 -0.167943
-5.76875 -4.03025 1.206 -0.335113 -0.286225 0.547276 -1 3.65509 -0.502144 6.06899 -0.659128 0.428587 0.617951
-7.35575 -6.70587 2.56169 -0.151647 0.317318 0 -0.485396 3.83539 -0.712272 0.493513 -0.706322 0.699094 -0.111252
-6.187 -2.8705 7.317 0.785327 -0.232883 0.122961 -0.866667 3.8903 0.873616 2.55489 0.76518 0.638045 -0.0860097
-2.817 -4.43525 4.809 0.438413 -0.372915 0.745353 -1 3.90754 -0.632374 4.64419 -0.582432 0.0504241 0.811314
-2.69287 -5.83144 5.22319 0.455863 -0.266885 0.425143 -1 3.99449 -0.739062 4.31752 -0.654214 0.459018 0.601088
-5.19125 -3.15313 1.31638 -0.263014 -0.239179 0 -0.777778 4.07213 -0.201481 5.83229 -0.612573 0.506803 0.606552
-6.2445 -5.67425 8.35825 0.839817 0.398499 0.48189 -0.866667 4.07508 -0.593974 3.10901 0.940384 -0.316391 0.124801
-8.9555 -3.102 5.67 -0.219211 -0.239163 -0.300687 -0.821164 4.28962 -0.278896 1.74559 0.401153 0.74822 -0.528435
-3.12075 -3.278 4.64725 0.334693 -0.354898 0 -1 4.29114 0.461773 5.02126 -0.612575 0.0962018 0.784536
-6.22325 -6.96025 7.58225 0.517227 0.332607 0 -0.777778 4.31232 -0.999844 3.17209 0.827747 0.0783912 0.555599
-8.796 -7.136 2.874 -0.135071 0.121077 -0.000741121 -0.36136 4.37425 -0.830724 0.69604 -0.102779 0.977726 -0.182997
-3.2065 -2.32675 4.27975 0.130018 -0.260208 0 -1 4.39337 0.539275 5.12613 -0.661631 0.374437 0.649648
-9.66475 -6.88675 3.34425 -0.183105 0.191084 0 -0.415662 4.40012 -0.846726 0.874267 0.304819 0.803747 -0.510956
-9.5915 -3.258 3.9775 -0.310933 -0.265459 -0.124325 -0.777778 4.43859 0.126382 1.43684 0.845598 0.469669 -0.25372
-10.316 -5.06875 3.35775 -0.325391 0.384336 0 -0.809818 4.57917 -0.68097 1.11154 0.673115 -0.274309 -0.686783
-2.88225 -6.48225 6.32975 0.59626 -0.199134 0.800479 -1 4.5889 0.105173 4.02763 -0.654714 0.679947 0.330186
-8.982 -2.2765 6.4235 0.0985167 -0.222755 0 -0.866667 4.61809 0.225585 1.89826 0.208589 0.693139 -0.689962
-7.0405 -6.171 0.85725 -0.132005 0.241851 0.00973336 -0.850191 4.627 -0.999867 0.226533 -0.60925 0.463412 0.643478
-7.16125 -2.234 7.76575 0.524633 -0.145666 0.104137 -0.866667 4.66332 0.213785 2.95752 0.557123 0.812604 -0.171138
-8.17025 -1.88312 7.04 0.270622 -0.19736 0.232979 -0.866667 4.72463 0.677647 3.13195 0.329029 0.739171 -0.587679
-3.709 -1.9195 3.02475 -0.0954547 -0.222701 0 -1 4.7382 0.676436 5.34125 -0.766861 0.573532 0.288072
-7.47038 -4.79637 0.310625 -0.0074969 -0.254627 0.103803 -0.00718982 4.76719 -0.545855 0.103933 -0.358296 0.193719 0.913289
-10.0218 -4.13219 2.61144 0.0095534 -0.341356 0 -0.866667 4.82442 0.0786728 5.2564 0.962657 -0.158563 -0.21943
-4.2395 -8.5735 7.08169 0.515497 0.131314 0 -0.918367 4.87413 -0.999835 2.91878 0.129076 0.635443 0.761282
-7.487 -6.942 1.53 -0.053482 0.11797 0 -0.355556 4.90187 -0.882381 0.440732 -0.35587 0.914039 0.194652
-4.00506 -2.0625 1.51047 -0.0901213 -0.185503 0.0411343 -0.905249 5.03149 -0.520918 5.60602 -0.716805 0.620311 0.318442
-10.6788 -6.08825 3.1925 -0.175523 -0.270993 0 -0.808804 5.09305 -0.999887 4.9942 0.935904 0.144782 -0.321127
-1.81662 -4.56588 5.56887 0.41354 -0.263388 0.340609 -1 5.17056 -0.672701 4.73864 -0.783066 0.239221 0.574091
-6.351 -2.99425 8.68025 0.534287 -0.14994 0 -0.533636 5.26895 -0.0896829 3.18283 0.659098 0.746601 -0.0904267
-2.81013 -7.37475 7.02338 0.598937 0.226157 0.0306396 -1 5.2932 -0.310992 3.14508 -0.632572 0.310152 0.709689
-4.77881 -2.13075 0.714437 -0.363993 -0.111663 0 -0.777778 5.3282 -0.109836 5.78764 -0.286221 0.75919 0.584558
-7.02675 -3.451 0.24375 -0.00575907 -0.245401 0 -0.777778 5.34151 -0.510175 6.18576 -0.433467 0.192387 0.880394
-9.886 -2.553 5.83125 -0.130164 -0.16359 0 -0.84122 5.38197 -0.205416 1.75199 0.231542 0.833637 -0.501436
-5.271 -4.34734 9.45378 0.429117 -0.31377 0 -0.2 5.38992 0.0790899 3.2107 0.716884 -0.165769 -0.677199
-6.17556 -5.75075 9.81419 0.51025 -0.311172 0 -0.0888889 5.53466 -0.485206 3.24115 0.879245 -0.409227 -0.243849
-6.1225 -2.22088 0.649594 -0.113871 -0.184355 0 -0.777778 5.54893 0.61095 5.96767 -0.336361 0.46711 0.817722
-6.109 -8.09013 8.2005 0.609747 0.162606 0.0100599 -0.777778 5.60534 -0.999782 3.15777 0.704026 0.548252 0.451407
-6.60156 -7.33588 8.79594 0.630253 0.261552 0 -0.256651 5.63793 -0.999867 3.09261 0.994857 0.0992303 0.0203263
-9.6935 -7.11513 1.80638 -0.246053 -0.0606075 -0.0592266 -0.306607 5.76915 -0.999868 6.07947 0.37578 0.909047 0.180065
-7.93925 -3.85125 0.11075 0.212988 -0.231965 0.0293317 0.688447 5.84099 -0.337917 0.0537512 -0.00853468 0.131053 0.991339
-10.4152 -2.56775 4.9595 -0.10965 -0.0716773 -0.00293626 -0.85504 5.89436 -0.197551 1.61275 0.427255 0.881527 0.200905
-2.31381 -1.10175 4.2515 0.100769 -0.153136 0 -1 5.90939 0.465965 5.10952 -0.672386 0.636115 0.37849
-1.69987 -5.249 6.81862 0.450617 -0.198608 0.09057 -0.79922 5.9619 -0.615685 4.23534 -0.818807 0.560268 0.125122
-2.3525 -6.17938 7.56938 0.610377 -0.240888 0.281908 -0.506213 5.97058 0.253721 2.95577 -0.928894 0.314033 0.196315
-1.476 -3.1625 5.95813 0.62033 -0.234699 0.397828 -1 6.08439 0.0432137 4.73864 -0.693237 0.143144 0.706351
-10.0621 -2.179 2.79284 0.659237 -0.247596 0 -0.866667 6.10866 -0.0770625 1.43684 0.993385 0.114721 0.00508027
-1.8625 -1.868 5.281 0.414427 -0.195091 0 -1 6.13098 0.454107 5.10952 -0.642916 0.358324 0.676951
-10.148 -1.38462 7.12813 0.016896 -0.17756 0 -0.866667 6.24644 -0.219836 1.89826 0.229914 0.611414 -0.757174
-8.57725 -6.64775 0.646625 -0.127634 -0.126618 -0.299851 -0.308876 6.24973 -0.999849 0.440732 -0.0512426 0.665153 0.744947
-8.26437 -1.01525 8.31125 0.0134116 -0.0925538 0 -0.866667 6.26675 0.802344 3.13195 0.555904 0.831173 -0.0110874
-9.93338 -3.12075 1.56225 0.172188 -0.249677 -0.272166 -0.275322 6.28443 -0.198487 5.2564 0.938129 0.0129367 0.346044
-10.2933 -1.5525 3.79225 0.2774 -0.141983 0.732195 -0.866667 6.29212 0.441177 1.61275 0.67929 0.548711 0.487321
-8.98287 -5.23313 0.23775 0.130226 -0.220556 0.930694 0.933333 6.34317 -0.704501 0.103933 0.158983 0.123591 0.979515
-5.05225 -9.12525 8.24525 0.259349 0.072924 0.0785852 0.778944 6.39691 -0.999817 3.15777 0.439157 0.814084 0.380011
-3.356 -0.991 0.877 -0.00981507 -0.108618 0.581518 -1 6.4353 0.31769 5.60602 -0.552038 0.825476 0.117657
-3.04312 -9.22025 8.00725 0.43946 0.101231 0 0.844444 6.51921 -0.999875 2.91878 -0.450346 0.747347 0.488529
-8.08497 -1.88934 9.36447 0.207993 -0.0797021 0 -0.866667 6.5416 -0.139227 2.95752 0.524179 0.786561 0.326433
-10.269 -4.94088 1.079 -0.0595383 -0.262725 0.202432 -0.319053 6.57469 -0.592599 5.2564 0.843489 -0.184587 0.504435
-2.162 -8.0945 7.9165 0.50133 -0.197887 0 -0.0888889 6.61069 -0.999892 3.14508 -0.909633 0.295624 0.291845
-6.14975 -8.38775 9.2365 0.642467 0.165787 0 0.597371 6.68402 -0.682244 3.15777 0.864514 0.496605 -0.0774548
-3.82663 -9.5445 8.57913 0.41984 -0.0180407 0 0.913713 6.70597 -0.8139 2.91878 -0.0289599 0.975135 0.219709
-7.87075 -2.471 -0.24225 -0.0111764 -0.162633 -7.6934e-05 0.477402 6.72315 0.0453187 6.18576 -0.0733341 0.381608 0.921411
-6.27887 -7.16625 9.82987 0.573587 0.223284 0 -0.0888889 6.73425 -0.176118 3.09261 0.968248 0.150609 -0.199533
-6.951 -2.5145 9.9525 0.198646 -0.0433782 0 -0.2 6.75514 -0.0955885 3.18283 0.21621 0.976343 0.00262576
-5.4955 -1.4115 -0.29125 -0.232636 -0.0714 0 -0.777778 6.75731 0.709193 5.96767 -0.0858229 0.803203 0.58949
-5.82725 -2.50425 9.9965 0.16658 -0.122696 0 -0.2 6.76792 0.279194 3.18283 0.185066 0.85031 -0.49267
-11.3241 -2.33512 5.93962 -0.0451153 -0.0956986 0 -0.866667 6.84051 -0.709798 1.61275 0.252521 0.915196 -0.314085
-9.39925 -0.69575 8.29525 0.0114345 -0.121747 0 -0.866667 6.84499 0.0238771 3.13195 0.516402 0.75225 -0.409204
-10.5968 -5.89213 1.39713 -0.152711 -0.193822 0 -0.2 6.90096 -0.811398 6.07947 0.886917 0.280722 0.366841
-2.18438 -7.15963 8.50113 0.52569 -0.246914 0 -0.0888889 6.91233 -0.211752 2.95577 -0.97819 -0.0684411 0.19611
-4.73887 -2.95038 10.0363 0.168411 -0.194765 0 -0.2 6.99429 0.440618 3.2107 0.215907 0.495566 -0.841308
-0.949313 -4.12856 7.11919 0.359443 -0.198966 0 -0.584002 7.00003 -0.611672 4.23534 -0.913709 0.35722 0.193727
-4.0535 -1.33875 -0.59325 -0.5297 -0.0999221 0.271773 -0.877113 7.02035 -0.834148 5.78764 -0.436978 0.713172 0.548121
-9.72725 -6.4445 0.72725 -0.414443 -0.16236 -0.747204 -0.2 7.04014 -0.999881 6.07947 0.485707 0.408432 0.772833
-1.74025 -0.45925 3.509 0.184182 -0.104767 0 -1 7.04653 0.0285848 5.10952 -0.563464 0.812844 0.147625
-9.09463 -4.06313 0.420875 0.0468347 -0.232534 0.286718 0.933333 7.05589 -0.0197131 0.0537512 0.454619 0.0457582 0.88951
-1.46512 -0.271688 4.48956 0.241391 -0.118969 0 -1 7.12015 0.332596 5.10952 -0.643815 0.680922 0.349067
-0.7125 -3.14287 6.77037 0.40072 -0.20697 0 -1 7.19931 -0.786713 4.23534 -0.909629 0.176453 0.376085
-4.92338 -5.55363 11.0901 0.315841 -0.285705 0 -0.2 7.3332 0.080399 3.24115 0.467586 -0.821285 -0.326885
-2.309 -6.189 8.945 0.43995 -0.233918 0 -0.0888889 7.34692 0.159897 2.95577 -0.990824 0.123307 -0.0553434
-3.67 -3.37725 10.0363 0.238417 -0.2255 0 -0.2 7.35043 0.259178 3.2107 0.0528347 0.22804 -0.972217
-11.3206 -1.394 4.09538 0.428673 -0.085641 0.301046 -0.866667 7.37488 0.406092 1.61275 0.0982185 0.706631 0.700733
-0.945625 -1.96769 6.20687 0.41249 -0.177791 0 -1 7.41508 0.0726819 5.10952 -0.792355 0.33976 0.506693
-11.189 -0.84225 7.053 -0.0315099 -0.17896 0 -0.866667 7.42266 0.617094 1.89826 0.0537119 0.434125 -0.89925
-11.926 -2.06175 4.8235 0.08382 -0.028498 0 0.844444 7.49344 -0.421432 1.61275 0.214942 0.911725 0.350082
-2.459 -0.96725 0.22375 -0.103466 0.138145 0.228537 -1 7.54521 0.116399 5.60602 0.479699 0.647816 -0.591796
-5.27969 -9.23044 9.6165 0.54384 0.0746658 0 1 7.60362 -0.152386 3.15777 0.552825 0.793218 0.255323
-9.06 -0.9825 9.4 0.0107298 -0.103191 0 -0.866667 7.61563 0.0899438 3.13195 0.709073 0.625695 0.325148
-10.2015 -0.57325 2.828 0.422387 -0.132023 0.39001 -0.866667 7.66949 0.999895 1.61275 0.802382 0.564311 0.194259
-10.0174 -1.68037 1.3035 0.77966 -0.183586 -0.0571727 -0.218217 7.67989 -0.118848 5.2564 0.938772 0.263775 0.221652
-6.14825 -6.61194 11.79 0.412833 0.215825 0 -0.120257 7.69017 -0.444363 3.24115 0.929507 -0.355159 -0.0993885
-2.21075 -0.4225 1.029 -0.00208364 0.106147 0 -1 7.72289 0.59718 5.60602 0.0284243 0.863057 -0.504307
-6.10838 -7.2915 10.8197 0.50502 0.179179 0 -0.0888889 7.74644 0.0510481 3.09261 0.978062 0.207388 -0.01962
-3.67925 -5.23994 10.9784 0.37313 -0.285911 0 -0.2 7.76792 -0.054301 3.2107 -0.0577555 -0.859388 -0.508052
-3.26675 -0.6875 -0.423 -0.190921 0.0411099 0.722465 -0.983376 7.77323 0.282955 5.78764 0.350569 0.931317 0.0987386
-5.08962 -0.708 -1.25075 -0.420573 -0.0899768 0 -0.777778 7.77417 -0.212369 5.78764 -0.202241 0.655467 0.727642
-10.5411 0.020375 7.60388 -0.0416343 -0.169689 0 -0.866667 7.781 0.287834 1.89826 0.449597 0.384052 -0.806453
-2.77375 -9.09387 9.28175 0.433723 -0.104605 0 0.844444 7.82798 -0.218317 2.91878 -0.625672 0.758327 0.182961
-8.44675 -1.73325 -0.95075 -0.044929 -0.119729 0 0.686873 7.89704 -0.999883 6.18576 0.355633 0.467696 0.809188
-3.57711 -9.55381 9.77205 0.436577 0.0414212 0 0.913024 7.92474 0.132051 2.91878 -0.197054 0.922204 0.33273
-9.01025 -3.051 -0.00325 0.00687743 -0.191316 -0.00186698 0.933333 8.02391 -0.690882 0.0537512 0.548127 0.175649 0.817743
-5.77 -8.44 10.563 0.568423 0.159796 0 -0.0888889 8.06479 0.23855 3.15777 0.951713 0.306736 0.0124313
-2.13225 -8.094 9.39625 0.419197 -0.184701 0 0.107925 8.09074 -0.0980801 2.95577 -0.947777 0.184363 0.260248
-9.34125 -2.11262 0.184 -0.431947 -0.164539 -0.332379 0.933333 8.09178 -0.137948 6.18576 0.722449 0.297005 0.624384
-9.14338 -2.21881 10.6134 0.047993 -0.0804489 0 -0.866667 8.21152 -0.594547 2.95752 0.525658 0.686227 0.502768
-0.718125 0.07225 3.22962 0.185243 -0.0497609 0.0196117 -1 8.23197 0.40985 5.10952 -0.184456 0.982365 -0.0305915
-6.2165 -2.099 11.352 -0.0479317 -0.0342598 0 -0.2 8.23527 0.734313 3.18283 -0.0671779 0.99727 0.0306544
-10.1615 0.4705 8.58675 -0.04119 -0.144073 0 -0.866667 8.26842 -0.215396 3.13195 0.911713 0.337515 -0.234228
-7.654 -1.03075 -1.2925 -0.123922 -0.099637 0 -0.202515 8.29367 -0.20787 5.96767 0.112016 0.560975 0.820219
-0.8 0.19875 5.3555 0.085571 -0.0487159 0 -1 8.30908 0.999928 5.10952 -0.210525 0.880777 0.42416
-1.03 -3.787 8.5425 0.191599 -0.20078 -0.000550657 -0.0888889 8.31942 -0.66072 4.23534 -0.841293 0.29785 -0.451123
-12.2112 -1.32056 6.83494 -0.0297725 -0.131185 0 -0.464164 8.33135 -0.41028 1.61275 0.212442 0.686723 -0.695183
-3.848 -0.135 -1.112 -0.47056 -0.117599 -0 -0.777778 8.34713 0.162781 5.78764 0.267886 0.359465 0.89388
-11.7758 -0.279312 3.14 0.854883 -0.0353572 0 -0.866667 8.35228 0.999845 1.61275 -0.00178891 0.88621 0.46328
-3.648 -2.5685 10.791 0.102482 -0.0964379 0 -0.2 8.37465 0.243116 3.2107 0.0512143 0.888126 -0.456737
-7.99203 -2.64528 11.2072 0.106454 -0.0205665 0 -0.2 8.39072 -0.397675 3.18283 -0.0144315 0.992396 0.122235
-2.55194 -2.87169 10.2829 0.0562423 -0.158411 -0.338533 -0.154071 8.60201 -0.147396 3.2107 -0.412992 0.578452 -0.703442
-5.308 -5.77575 12.31 0.303794 0.248748 0 -0.2 8.63144 -0.624294 3.24115 0.323934 -0.933786 -0.152023
-1.72213 0.01675 1.9555 0.108835 0.0713602 0.0848011 -1 8.63717 0.64803 5.10952 -0.115851 0.963367 -0.241872
-12.9301 -1.75412 5.27763 0.055192 -0.0635304 0 0.844444 8.63759 -0.491279 1.61275 0.392603 0.909855 -0.134266
-11.8252 -0.017625 7.72687 -0.0253071 -0.16085 0 -0.866667 8.66317 -0.496865 1.89826 0.0271841 0.356959 -0.933724
-0.033125 0.231 4.12725 0.321074 0.0417073 0 -1 8.68046 0.559973 5.10952 0.120133 0.987108 -0.105764
-9.65375 -0.18225 9.868 -0.0384657 -0.135928 0 -0.866667 8.71652 0.035881 3.13195 0.944339 0.32223 0.066263
-0.620125 -2.47038 8.16737 0.103473 -0.180273 -0.60344 -0.38732 8.7525 -0.131727 4.23534 -0.933496 0.310793 -0.178866
-1.90625 -6.818 10.2917 0.36039 -0.211144 -0.276012 -0.372184 8.7563 -0.273895 2.95577 -0.962724 -0.18519 0.197148
-9.64669 -1.105 10.3852 -0.036121 -0.142479 0 -0.866667 8.76881 -0.146609 3.13195 0.861516 0.199114 0.467058
-9.791 -1.14225 0.369 -0.197152 -0.151495 -0.0115317 0.933333 8.78176 -0.427001 5.2564 0.830387 0.309634 0.463232
-12.8094 -1.55587 3.96275 0.584057 -0.0323843 0 0.0253213 8.82655 -0.393132 1.61275 0.0341578 0.890859 0.452993
-10.691 -0.335375 1.73388 0.958493 -0.0540565 0 -0.866667 8.89149 0.189273 1.61275 0.448943 0.8829 0.137613
-2.61469 -4.94441 9.86416 0.323553 -0.26247 0 -0.0888889 8.92404 0.0684234 2.95577 -0.775368 -0.219062 -0.592297
-0.04025 -0.651 6.15987 0.19916 -0.0823605 0 -1 9.0137 0.193422 5.10952 -0.333882 0.706318 0.62421
-4.34269 -10.1756 10.3532 0.501757 0.0584522 0 0.960233 9.0695 -0.382665 3.15777 0.0574804 0.76062 0.646648
-0.030375 -1.28225 7.4885 0.122921 -0.0845375 0.00467234 -0.980047 9.13266 0.180699 5.10952 -0.531229 0.845946 0.0465979
-5.6675 -9.7635 11.0267 0.39355 0.114639 0 0.661547 9.16029 -0.536952 3.15777 0.829797 0.432144 0.353113
-1.71375 -7.84975 10.351 0.248422 -0.184022 -0.236758 -0.347251 9.16142 -0.791293 2.95577 -0.959066 -0.0283712 0.281756
-10.2965 1.40625 7.82575 -0.117352 -0.219083 0 -0.777778 9.20568 -0.0680291 1.89826 0.562055 -0.588037 -0.581642
-5.725 -6.1115 13.164 0.28495 -0.200597 0 -0.199861 9.21249 -0.999881 3.24115 0.778413 -0.53643 -0.326062
-0.79975 -1.2305 1.11688 0.0412627 0.161476 0 -1 9.35123 0.551999 5.60602 0.507433 0.424111 -0.750095
-1.88644 -9.22363 10.6494 0.397807 0.115371 0 0.844444 9.4634 -0.0799102 2.95577 -0.616614 0.425512 0.662365
-6.23525 -0.18375 -2.40925 -0.563093 -0.111808 0 -0.600144 9.48573 -0.999877 5.78764 -0.181898 0.37108 0.910611
-0.191813 -0.267 2.11812 0.0607867 0.118591 0.659205 -1 9.50772 0.662065 5.10952 0.49384 0.656019 -0.570755
-3.47725 -2.18625 11.8475 0.0116938 -0.0950101 0 -0.2 9.51107 -0.07272 3.2107 -0.3464 0.841313 -0.414969
-2.68963 -5.70463 12.3524 0.373157 -0.231886 0 -0.2 9.52381 -0.389516 3.2107 -0.260663 -0.948494 -0.180039
-2.011 -5.875 11.0615 0.37523 -0.239319 -0.0252554 -0.253553 9.55489 -0.495688 2.95577 -0.733903 -0.671001 -0.105567
-9.96212 0.7785 9.82487 -0.0460157 -0.154353 0 -0.866667 9.55976 -0.429738 3.13195 0.984476 0.0508648 -0.167988
-9.48994 -0.521375 -0.427875 -0.143644 -0.15719 -0.00798084 0.933333 9.57939 -0.577059 6.18576 0.666526 0.0853102 0.740584
-3.3405 -0.993 -2.2375 -0.62862 0.139015 -0.839383 -0.777778 9.61475 -0.15661 5.78764 0.971253 0.231919 0.0536805
-13.1676 -0.608 7.422 -0.051514 -0.12825 0 0.191585 9.66067 -0.999878 1.61275 0.357549 0.532034 -0.767528
-9.42325 -2.72775 11.9522 -0.069941 -0.0748063 0 -0.779522 9.67088 -0.999869 3.18283 0.61736 0.784708 -0.0556738
-5.72906 -2.47112 12.6509 -0.209615 -0.0223066 0 -0.2 9.67166 -0.310485 3.18283 -0.0788777 0.986902 0.140719
-8.1475 0.257 -1.40625 -0.118517 -0.146734 0 0.933333 9.67743 -0.368021 5.96767 0.639815 0.0485671 0.766993
-6.14838 -8.3445 12.8004 0.305386 0.149893 0 -0.0888889 9.69583 -0.577007 3.24115 0.998638 0.0306221 -0.0422442
-5.43231 1.03325 -1.99637 -0.784353 -0.109491 -0.0505004 -0.777778 9.6991 0.10826 5.78764 -0.348452 0.365504 0.863127
-10.3167 0.154938 0.410812 -0.00988727 -0.107707 0 0.933333 9.74261 0.10778 5.2564 0.382916 0.44075 0.811859
-10.237 -1.322 11.2058 -0.214441 -0.133933 -0.238289 -0.866667 9.74488 -0.926325 3.13195 0.927756 0.180387 0.326696
-11.772 1.0155 8.0525 -0.120183 -0.184336 0 -0.777813 9.7477 -0.688054 1.89826 -0.0128847 -0.133187 -0.991007
-12.7356 -0.284438 2.06681 1 0.0749244 0.367462 -0.866667 9.79206 0.557901 1.61275 -0.510527 0.858012 0.0563733
-13.8581 -1.44 4.66538 0.100743 -0.0530123 0 0.844444 9.79288 -0.668488 1.61275 0.426011 0.902856 -0.0580203
-4.378 1.20725 -1.419 -0.689753 -0.0820619 -0.684071 -0.777778 9.82253 0.903658 5.78764 -0.00825931 0.568714 0.822494
-3.155 0.989 -1.892 -0.615977 -0.108377 -0.367727 -0.777778 9.88076 0.999893 5.78764 0.806638 0.316079 0.499429
-1.991 -1.967 11.037 -0.109312 -0.0937148 0 -0.2 9.90654 0.0152856 3.2107 -0.456314 0.833743 -0.310886
-2.9805 -2.35 -1.91 -0.58718 0.160662 -0.581509 -0.777778 10.022 -0.0849309 5.78764 0.87559 0.263953 -0.404562
-1.62925 -2.0845 9.506 -0.3736 -0.148162 -0.239979 -0.0888889 10.0424 0.693731 4.23534 -0.672234 0.587866 -0.450016
-0.47025 -1.53 9.122 -0.106855 -0.0969829 -0.47734 -0.0888889 10.1009 0.17356 4.23534 -0.559631 0.807507 -0.186402
-1.51519 -3.31188 -0.343688 -0.615773 0.184483 -0.637992 -0.769004 10.1356 -0.0481116 5.60602 0.552474 0.313317 -0.772402
0.959188 -0.337687 5.328 0.221576 0.0271892 0 -1 10.1484 0.471389 5.10952 0.259281 0.892907 0.368089
-8.49575 -2.5645 12.975 -0.0942213 -0.0644325 -0.18369 -0.368789 10.2307 -0.54535 3.18283 0.186533 0.919786 -0.345252
-9.76156 0.291438 11.3061 -0.0964303 -0.170855 0 0.4 10.2345 -0.15531 3.13195 0.936059 -0.348835 -0.0459032
-10.5476 1.928 6.92238 -0.116807 -0.231379 0 -0.777778 10.2787 0.595931 1.89826 -0.197212 -0.846173 -0.495074
1.19456 -0.592 3.51119 0.232144 0.124688 0 -1 10.2817 0.293775 5.10952 0.551665 0.532234 -0.642178
-1.463 -8.376 11.3333 0.176508 0.173122 -0.105314 -1 10.3037 0.32598 2.95577 -0.806276 -0.255371 0.533577
-14.0004 -1.2465 3.14462 0.222393 0.0479546 0.329181 -0.0603 10.3042 0.140179 1.61275 -0.201598 0.97649 -0.0763313
-5.65947 -10.4865 12.0315 0.227417 0.0790653 -0.128585 -0.0888889 10.3982 -0.867021 3.15777 0.739189 0.670298 0.0655765
-14.1081 -0.705312 6.13575 -0.0413883 -0.102759 0 0.844444 10.4332 -0.618693 1.61275 0.681977 0.608786 -0.405324
3 182 197 139
3 109 137 146
3 154 114 115
3 114 71 115
3 76 71 48
3 71 77 39
3 39 77 66
3 66 33 39
3 73 122 93
3 73 93 45
3 45 93 75
3 173 137 199
3 176 171 134
3 129 171 152
3 115 179 154
3 152 115 129
3 76 48 83
3 83 101 76
3 15 48 39
3 3 15 17
3 17 33 16
3 33 58 42
3 16 42 45
3 42 73 45
3 45 75 44
3 45 44 16
3 75 82 44
3 91 89 141
3 113 82 75
3 151 113 148
3 113 75 93
3 148 113 133
3 93 133 113
3 133 93 122
3 172 138 120
3 172 120 187
3 80 111 120
3 56 121 90
3 138 178 121
3 90 121 134
3 90 61 56
3 80 56 51
3 56 61 31
3 56 31 51
3 31 24 51
3 65 78 47
3 50 64 36
3 7 0 8
3 8 0 5
3 8 5 19
3 5 0 1
3 5 1 11
3 19 5 11
3 25 2 13
3 16 13 2
3 2 9 16
3 25 13 28
3 28 44 54
3 59 54 91
3 59 96 106
3 96 91 140
3 175 132 141
3 151 148 193
3 170 193 148
3 51 24 46
3 46 19 37
3 19 34 37
3 29 70 34
3 68 30 41
3 41 22 55
3 22 35 62
3 35 22 14
3 14 22 4
3 32 25 59
3 59 106 119
3 105 155 136
3 106 140 142
3 188 142 186
3 140 106 96
3 111 117 163
3 163 117 144
3 100 80 67
3 67 80 46
3 100 67 102
3 67 37 72
3 136 97 68
3 68 69 105
3 69 55 95
3 69 95 105
3 22 62 49
3 104 59 119
3 119 168 143
3 105 150 155
3 95 128 150
3 160 164 196
3 125 112 157
3 123 86 125
3 86 112 125
3 62 79 49
3 88 127 85
3 112 127 159
3 159 157 112
3 118 177 127
3 159 127 177
3 108 149 158
3 188 189 149
3 149 189 158
3 144 131 166
3 144 100 131
3 131 100 102
3 156 108 158
3 102 72 108
3 102 67 72
3 7 23 27
3 36 27 50
3 153 139 197
3 153 197 183
3 153 183 145
3 199 145 183
3 107 153 110
3 110 153 145
3 153 107 139
3 137 145 199
3 48 71 39
3 66 58 33
3 73 92 137
3 73 137 109
3 107 110 66
3 107 66 77
3 66 92 58
3 58 92 73
3 66 110 92
3 137 92 145
3 145 92 110
3 133 122 161
3 146 161 122
3 181 161 146
3 137 173 146
3 124 134 171
3 87 124 129
3 129 124 171
3 134 124 87
3 134 87 61
3 115 152 179
3 179 152 171
3 76 129 115
3 71 76 115
3 126 129 76
3 126 76 101
3 78 83 99
3 99 83 94
3 101 83 78
3 64 99 94
3 64 94 52
3 64 52 38
3 48 40 52
3 48 52 83
3 83 52 94
3 15 20 40
3 15 40 48
3 20 15 3
3 0 3 2
3 2 3 9
3 3 17 9
3 16 9 17
3 16 33 42
3 54 89 91
3 89 54 82
3 44 82 54
3 141 89 82
3 130 141 82
3 130 113 151
3 130 82 113
3 148 133 170
3 170 133 161
3 80 98 56
3 56 98 121
3 121 98 138
3 120 138 98
3 120 98 80
3 134 121 165
3 178 165 121
3 61 26 31
3 23 7 26
3 47 23 57
3 26 57 23
3 57 26 61
3 65 47 57
3 129 126 87
3 87 57 61
3 57 87 65
3 65 87 101
3 101 87 126
3 50 43 74
3 74 43 78
3 43 47 78
3 27 23 43
3 27 43 50
3 47 43 23
3 64 50 74
3 64 74 99
3 99 74 78
3 36 64 38
3 20 38 52
3 20 52 40
3 27 36 18
3 18 38 20
3 38 18 36
3 12 18 3
3 3 18 20
3 12 27 18
3 7 27 12
3 11 1 10
3 10 1 6
3 14 4 25
3 0 6 1
3 6 0 22
3 22 0 4
3 25 4 2
3 2 4 0
3 59 25 54
3 54 25 28
3 180 130 151
3 193 180 151
3 46 80 51
3 70 37 34
3 68 53 30
3 30 53 29
3 29 53 70
3 41 30 21
3 21 30 10
3 21 10 6
3 10 30 11
3 29 11 30
3 41 21 22
3 6 22 21
3 22 49 55
3 62 35 63
3 35 14 32
3 60 88 63
3 60 63 32
3 35 32 63
3 32 59 60
3 119 106 155
3 188 136 142
3 142 155 106
3 155 142 136
3 186 142 167
3 167 142 140
3 130 180 174
3 130 174 141
3 141 174 192
3 108 72 70
3 103 108 70
3 97 103 70
3 53 68 97
3 53 97 70
3 84 95 55
3 128 95 84
3 128 84 123
3 81 123 84
3 81 84 55
3 81 55 49
3 86 123 81
3 79 86 49
3 49 86 81
3 62 63 85
3 85 63 88
3 118 88 116
3 116 88 60
3 116 60 104
3 59 104 60
3 104 143 116
3 168 119 169
3 155 150 169
3 155 169 119
3 164 160 128
3 164 128 123
3 128 160 150
3 79 112 86
3 112 79 62
3 112 62 85
3 112 85 127
3 116 177 118
3 177 116 162
3 162 116 143
3 149 103 97
3 149 97 136
3 149 136 188
3 108 103 149
3 26 7 8
3 26 8 31
3 31 8 24
3 71 114 77
3 139 77 114
3 114 154 139
3 139 107 77
3 122 109 146
3 109 122 73
3 17 39 33
3 17 15 39
3 58 73 42
3 185 184 138
3 178 138 184
3 61 90 134
3 65 101 78
3 0 7 3
3 12 3 7
3 13 16 44
3 13 44 28
3 91 96 59
3 141 132 91
3 140 91 132
3 120 111 187
3 187 111 190
3 117 111 80
3 46 24 19
3 24 8 19
3 11 29 19
3 34 19 29
3 14 25 32
3 80 144 117
3 144 80 100
3 67 46 37
3 68 41 69
3 55 69 41
3 104 119 143
3 95 150 105
3 136 68 105
3 163 144 166
3 131 102 147
3 135 156 191
3 135 191 147
3 135 147 102
3 156 135 102
3 156 102 108
3 37 70 72
3 118 127 88
3 147 195 166
3 147 166 131
3 164 123 125
3 164 125 157
