ply
format ascii 1.0
comment Generated by PyMesh
element vertex 130
property float x
property float y
property float z
property float nx
property float ny
property float nz
element face 242
property list uchar int vertex_indices
end_header
-1.37625 -11.8694 12.1976 -0.0962332 0.842831 0.529505
-0.359 -11.5591 12.3024 -0.345776 0.698796 0.626197
-2.527 -11.704 12.3365 0.176489 0.927301 0.330096
-0.595 -12.0105 13.363 -0.371538 0.892576 0.255475
-1.66 -12.3445 13.6494 0.0749592 0.965726 0.248506
-1.33125 -10.4866 11.3071 -0.287108 0.373615 0.882032
-3.302 -11.1471 11.4605 -0.0613465 0.694598 0.716778
-0.02625 -10.5835 11.7972 -0.321326 0.311059 0.894423
-0.731875 -12.3286 14.3022 -0.356289 0.916199 0.183404
0.863875 -10.9526 12.4683 -0.584743 0.680737 0.441217
0.35525 -11.5347 13.7522 -0.562823 0.806709 0.18014
-3.58612 -11.5753 13.3752 0.367699 0.920854 0.129709
-2.7135 -12.04 14.0715 0.366581 0.883477 0.291696
-4.3105 -11.2565 11.5763 0.336622 0.872277 0.354709
-1.88644 -9.22363 10.6494 -0.616614 0.425512 0.662365
-0.571625 -9.07475 11.6154 -0.446835 -0.276825 0.850709
-2.44412 -12.6461 15.2684 0.108394 0.994106 0.00173444
-1.08025 -12.5326 15.4539 -0.267539 0.945742 -0.184376
0.243813 -11.8969 14.8194 -0.612517 0.78779 -0.0648907
1.0125 -9.58212 11.8576 -0.547629 -0.0482876 0.835327
-4.07681 -11.5229 14.4209 0.611204 0.778348 0.143542
1.3825 -10.685 14.0083 -0.884948 0.461274 -0.0639818
1.891 -9.97425 13.0087 -0.975146 0.0577273 0.213912
-4.754 -10.953 13.301 0.543967 0.839005 -0.01308
-4.34269 -10.1756 10.3532 0.0574804 0.76062 0.646648
-1.463 -8.376 11.3333 -0.806276 -0.255371 0.533577
-3.354 -12.5258 15.707 0.334248 0.942454 0.00765007
-1.71375 -7.84975 10.351 -0.959066 -0.0283712 0.281756
-1.62603 -12.0646 16.4171 -0.241147 0.799142 -0.550654
-5.65947 -10.4865 12.0315 0.739189 0.670298 0.0655765
-2.77375 -9.09387 9.28175 -0.625672 0.758327 0.182961
-2.13225 -8.094 9.39625 -0.947777 0.184363 0.260248
-5.41463 -10.342 13.8094 0.814785 0.508942 -0.277674
-0.950875 -7.54581 12.4346 -0.632297 -0.545991 0.549632
-3.57711 -9.55381 9.77205 -0.197054 0.922204 0.33273
1.14525 -8.562 12.9073 -0.669011 -0.647723 0.364526
-4.8805 -10.495 14.9487 0.932964 0.341581 -0.11358
1.146 -10.677 15.4235 -0.849498 0.391589 -0.353568
-0.125625 -11.4201 16.4508 -0.505807 0.513905 -0.692864
-4.7185 -11.2759 15.6766 0.793706 0.608294 -0.00312074
-5.6675 -9.7635 11.0267 0.829797 0.432144 0.353113
1.30375 -9.7405 15.091 -0.953067 -0.0709761 -0.294322
-5.27969 -9.23044 9.6165 0.552825 0.793218 0.255323
-3.116 -12.246 16.7978 0.255258 0.896528 -0.36205
-1.90625 -6.818 10.2917 -0.962724 -0.18519 0.197148
1.367 -8.79813 14.2028 -0.938835 -0.300511 -0.168172
-3.04312 -9.22025 8.00725 -0.450346 0.747347 0.488529
-3.82663 -9.5445 8.57913 -0.0289599 0.975135 0.219709
-2.18438 -7.15963 8.50113 -0.97819 -0.0684411 0.19611
-6.0635 -9.55275 13.222 0.961183 0.228341 -0.154877
-2.162 -8.0945 7.9165 -0.909633 0.295624 0.291845
-1.7585 -6.495 11.9974 -0.875271 -0.44215 0.195971
-5.26237 -9.369 14.8328 0.932581 0.232313 -0.276268
0.578125 -10.3691 16.4349 -0.656737 0.0802966 -0.749832
-4.66625 -11.0845 16.892 0.873862 0.373752 -0.310925
-2.77225 -11.4105 17.805 -0.18764 0.469214 -0.862919
0.859375 -9.032 16.0446 -0.710914 -0.271388 -0.648807
-5.77 -8.44 10.563 0.951713 0.306736 0.0124313
-1.52013 -6.21325 13.1946 -0.53448 -0.837967 0.110193
-6.14975 -8.38775 9.2365 0.864514 0.496605 -0.0774548
0.031 -7.35913 13.8882 -0.612271 -0.790601 0.00867966
-3.862 -11.6217 17.6195 0.410813 0.59085 -0.694355
-2.011 -5.875 11.0615 -0.733903 -0.671001 -0.105567
-1.69675 -10.2355 17.6903 -0.451623 0.102526 -0.886298
-5.05225 -9.12525 8.24525 0.439157 0.814084 0.380011
0.717875 -8.19975 15.5052 -0.62321 -0.649262 -0.435968
-2.309 -6.189 8.945 -0.990824 0.123307 -0.0553434
-4.86794 -9.33075 16.6371 0.851016 0.0549026 -0.522261
-5.70131 -7.94219 14.2342 0.924738 -0.100025 -0.367226
-6.14838 -8.3445 12.8004 0.998638 0.0306221 -0.0422442
-6.109 -8.09013 8.2005 0.704026 0.548252 0.451407
-2.3525 -6.17938 7.56938 -0.928894 0.314033 0.196315
-2.68963 -5.70463 12.3524 -0.260663 -0.948494 -0.180039
-2.81013 -7.37475 7.02338 -0.632572 0.310152 0.709689
-2.61469 -4.94441 9.86416 -0.775368 -0.219062 -0.592297
-0.464 -8.9755 16.604 -0.386586 -0.387961 -0.836683
-4.2395 -8.5735 7.08169 0.129076 0.635443 0.761282
-6.10838 -7.2915 10.8197 0.978062 0.207388 -0.01962
-2.68175 -10.0616 18.0147 -0.147886 -0.169386 -0.974391
-2.78744 -5.99862 13.4154 -0.0566234 -0.97951 -0.193273
-6.60156 -7.33588 8.79594 0.994857 0.0992303 0.0203263
-3.79075 -10.2222 18.0065 0.409482 -0.0532152 -0.910765
-6.27887 -7.16625 9.82987 0.968248 0.150609 -0.199533
-1.91937 -6.21275 14.6142 -0.314087 -0.892927 -0.322539
-1.70119 -8.70938 17.1994 -0.367204 -0.522871 -0.769264
-3.67925 -5.23994 10.9784 -0.0577555 -0.859388 -0.508052
-5.04875 -7.88225 16.3645 0.850945 -0.254382 -0.459545
-1.30838 -7.12044 15.2753 -0.452784 -0.683757 -0.572243
-6.22325 -6.96025 7.58225 0.827747 0.0783912 0.555599
-2.88225 -6.48225 6.32975 -0.654714 0.679947 0.330186
-4.30062 -7.94225 17.1379 0.324397 -0.263037 -0.908613
-1.69987 -5.249 6.81862 -0.818807 0.560268 0.125122
-1.40675 -8.23525 16.089 -0.400395 -0.658658 -0.637066
-6.14825 -6.61194 11.79 0.929507 -0.355159 -0.0993885
-4.87 -7.05025 15.4299 0.602014 -0.722362 -0.340253
-3.23534 -8.48941 17.304 0.0843109 -0.374124 -0.923538
-4.69228 -7.21006 6.58134 0.412367 0.69768 0.585829
-4.83238 -6.22475 14.045 0.337459 -0.863933 -0.373821
-6.17556 -5.75075 9.81419 0.879245 -0.409227 -0.243849
-3.67 -3.37725 10.0363 0.0528347 0.22804 -0.972217
-5.725 -6.1115 13.164 0.778413 -0.53643 -0.326062
-6.2445 -5.67425 8.35825 0.940384 -0.316391 0.124801
-2.55194 -2.87169 10.2829 -0.412992 0.578452 -0.703442
-4.4885 -6.99975 16.5465 0.437605 -0.720127 -0.538441
-1.03 -3.787 8.5425 -0.841293 0.29785 -0.451123
-4.92338 -5.55363 11.0901 0.467586 -0.821285 -0.326885
-3.716 -6.85975 5.448 -0.263335 0.865654 0.425791
-3.731 -6.37675 15.2506 0.146035 -0.903592 -0.402736
-2.69287 -5.83144 5.22319 -0.654214 0.459018 0.601088
-5.79563 -5.69025 7.32412 0.957859 0.0303151 0.285636
-5.308 -5.77575 12.31 0.323934 -0.933786 -0.152023
-0.949313 -4.12856 7.11919 -0.913709 0.35722 0.193727
-2.83406 -7.02481 16.3614 -0.213924 -0.73017 -0.648913
-1.81662 -4.56588 5.56887 -0.783066 0.239221 0.574091
-3.648 -2.5685 10.791 0.0512143 0.888126 -0.456737
-4.73887 -2.95038 10.0363 0.215907 0.495566 -0.841308
-5.271 -4.34734 9.45378 0.716884 -0.165769 -0.677199
-1.991 -1.967 11.037 -0.456314 0.833743 -0.310886
-5.07044 -6.35375 5.00331 0.358455 0.754102 0.55031
-1.62925 -2.0845 9.506 -0.672234 0.587866 -0.450016
-0.7125 -3.14287 6.77037 -0.909629 0.176453 0.376085
-0.620125 -2.47038 8.16737 -0.933496 0.310793 -0.178866
-6.111 -5.624 6.089 0.902457 0.418943 -0.100291
-5.61875 -4.25737 7.6965 0.978629 0.118664 -0.167943
-4.09312 -6.05037 4.4095 -0.137521 0.544987 0.827089
-2.817 -4.43525 4.809 -0.582432 0.0504241 0.811314
-3.47725 -2.18625 11.8475 -0.3464 0.841313 -0.414969
-1.476 -3.1625 5.95813 -0.693237 0.143144 0.706351
-5.82725 -2.50425 9.9965 0.185066 0.85031 -0.49267
-3.95025 -4.98125 4.1915 -0.364018 0.223478 0.904184
3 116 115 99
3 115 128 114
3 91 108 89
3 89 96 73
3 96 88 70
3 88 96 109
3 109 96 122
3 101 123 116
3 116 99 85
3 66 74 104
3 99 114 102
3 119 102 117
3 114 99 115
3 104 111 91
3 91 71 66
3 71 73 48
3 71 48 66
3 96 70 76
3 105 116 85
3 85 72 110
3 66 44 74
3 44 27 51
3 51 27 25
3 48 31 44
3 27 14 25
3 34 42 24
3 30 47 34
3 47 42 34
3 70 64 76
3 82 57 59
3 42 57 40
3 40 24 42
3 77 69 57
3 40 57 69
3 97 72 79
3 72 51 58
3 58 79 72
3 60 33 35
3 15 35 33
3 7 15 5
3 15 25 14
3 40 49 29
3 69 68 49
3 97 79 107
3 107 79 83
3 83 87 112
3 112 107 83
3 112 92 84
3 95 112 84
3 84 92 75
3 21 9 10
3 0 5 6
3 0 6 2
3 4 2 11
3 11 13 23
3 11 20 12
3 36 20 32
3 23 32 20
3 32 68 52
3 68 94 86
3 68 97 94
3 107 94 97
3 68 86 67
3 68 67 52
3 81 95 78
3 63 75 38
3 63 38 28
3 45 21 41
3 8 18 10
3 8 10 3
3 39 20 36
3 36 67 54
3 109 122 123
3 91 113 108
3 108 113 125
3 125 113 127
3 89 108 106
3 106 108 124
3 106 124 118
3 124 108 129
3 125 129 108
3 89 106 96
3 118 96 106
3 96 76 73
3 70 88 80
3 88 109 101
3 98 82 80
3 98 80 101
3 88 101 80
3 101 116 98
3 85 99 74
3 119 104 102
3 102 74 99
3 74 102 104
3 117 102 126
3 126 102 114
3 111 120 127
3 113 91 111
3 113 111 127
3 50 48 73
3 31 48 50
3 31 50 30
3 46 30 50
3 46 50 73
3 46 73 76
3 47 30 46
3 64 47 76
3 76 47 46
3 70 80 59
3 59 80 82
3 77 82 93
3 93 82 98
3 93 98 105
3 116 105 98
3 105 110 93
3 72 85 62
3 72 62 51
3 74 44 62
3 74 62 85
3 62 44 51
3 14 27 31
3 14 31 30
3 31 27 44
3 64 42 47
3 42 64 70
3 42 70 59
3 42 59 57
3 93 69 77
3 69 93 100
3 100 93 110
3 100 110 97
3 58 51 33
3 83 60 87
3 58 60 83
3 60 58 33
3 19 35 15
3 19 15 7
3 14 5 15
3 14 6 5
3 24 13 6
3 13 24 40
3 13 40 29
3 32 23 29
3 32 29 49
3 32 49 68
3 100 68 69
3 97 68 100
3 83 79 58
3 107 112 94
3 94 112 103
3 94 103 86
3 112 95 90
3 112 90 103
3 103 90 86
3 56 65 41
3 65 56 75
3 65 75 92
3 45 41 65
3 45 65 35
3 35 65 60
3 60 65 87
3 87 65 92
3 21 22 9
3 9 22 19
3 22 35 19
3 7 9 19
3 45 35 22
3 45 22 21
3 3 10 9
3 3 9 1
3 1 9 7
3 0 3 1
3 0 1 5
3 5 1 7
3 3 0 4
3 2 4 0
3 13 11 2
3 13 2 6
3 29 23 13
3 95 67 90
3 90 67 86
3 54 61 43
3 61 54 81
3 95 81 67
3 67 81 54
3 78 55 81
3 81 55 61
3 43 61 55
3 43 55 28
3 63 55 78
3 75 63 84
3 84 63 78
3 84 78 95
3 53 38 75
3 37 38 53
3 37 53 41
3 41 53 56
3 56 53 75
3 18 38 37
3 18 37 21
3 21 37 41
3 4 8 3
3 28 17 16
3 16 17 4
3 16 4 12
3 4 17 8
3 28 26 43
3 26 16 12
3 16 26 28
3 39 43 26
3 39 26 20
3 20 26 12
3 54 43 39
3 36 54 39
3 17 28 38
3 17 18 8
3 18 17 38
3 121 120 111
3 121 111 104
3 121 104 119
3 128 115 116
3 109 123 101
3 91 89 71
3 73 71 89
3 105 85 110
3 48 44 66
3 104 91 66
3 77 57 82
3 110 72 97
3 25 33 51
3 25 15 33
3 14 24 6
3 40 69 49
3 87 92 112
3 23 20 11
3 21 10 18
3 11 12 4
3 32 52 36
3 36 52 67
3 63 28 55
3 14 30 34
3 14 34 24
