ply
format ascii 1.0
comment Generated by PyMesh
element vertex 200
property float x
property float y
property float z
property float charge
property float ddc
property float hbond
property float hphob
property float rho
property float si
property float theta
property float nx
property float ny
property float nz
element face 323
property list uchar int vertex_indices
end_header
-1.63806 -0.748062 12.9071 0.207123 0 0 0.0257813 1e-08 0.00689755 2.22045e-16 -0.00624998 0.683988 -0.729466
-1.22113 0.0809375 13.5485 0.0400333 -0.458993 0 0.4 1.12804 -0.0746796 4.04094 0.27894 0.353428 -0.892906
-0.977813 -1.33644 11.9819 0.0576827 -0.467305 0 -0.155669 1.27989 -0.143982 2.22045e-16 -0.0664935 0.980925 -0.18266
-2.33325 -1.6125 12.1005 0.0651217 -0.24224 0.0357752 -0.134356 1.37155 -0.221343 1.06169 -0.27871 0.82363 -0.493918
-0.27 -0.883 13.3573 0.187824 0.419437 0 -0.2 1.44654 -0.074031 5.13082 0.52276 0.654727 -0.545943
-3.15875 -1.42963 12.8542 0.0612547 0.281209 0.542764 0.4 1.66728 0.166984 1.85101 -0.499533 0.666475 -0.553423
-2.90569 0.68025 13.7451 0.049932 -0.325526 0 0.4 2.08547 0.0684272 3.00925 -0.312653 0.115108 -0.942867
-1.991 -1.967 11.037 -0.109312 -0.256265 0 -0.2 2.54366 0.0152856 0.718348 -0.456314 0.833743 -0.310886
-0.118719 0.483594 14.4014 -0.026709 0.410799 0 0.4 2.57886 0.265661 4.41962 0.788998 0.16338 -0.592275
-3.47725 -2.18625 11.8475 0.0116938 0.169939 0 -0.2 2.67613 -0.07272 1.39637 -0.3464 0.841313 -0.414969
0.721 -1.61625 13.153 0.124071 0.385056 0 -0.2 2.69613 -0.13008 5.49103 0.550536 0.834086 0.034786
-0.426 -1.17206 10.6077 -0.082501 -0.270651 0 -0.0888889 2.76983 0.701762 0.213544 -0.363504 0.925447 -0.106831
-1.30175 1.72675 13.5933 -0.0387437 -0.192541 0 0.4 2.77643 0.635166 3.71396 0.251486 0.358882 -0.898865
-3.69738 -1.33834 13.9881 0.059151 0.30924 0.407209 0.4 2.92593 -0.414425 2.20247 -0.730711 0.470451 -0.494709
0.656875 -0.954625 11.0969 0.257629 -0.31757 0 -0.0888889 3.17757 0.407777 6.21443 -0.172353 0.969797 0.17259
-4.18175 0.935375 14.1839 -0.0221448 -0.398176 0 0.924198 3.45878 -0.18944 2.85852 -0.205217 -0.606615 -0.768052
-4.69075 -2.53175 13.1115 -0.183255 0.202417 0 -0.2 3.57199 -0.383292 1.80568 -0.350228 0.931539 -0.0978508
1.33506 -1.27988 11.9929 0.171192 0.41131 0 -0.184761 3.59348 0.187838 5.88786 0.263704 0.797677 0.542376
0.461 -0.8215 15.4971 -0.179853 0.388708 -0.262187 -0.00454918 3.70859 0.0375989 4.8776 0.923269 0.377674 0.0702589
-3.42144 2.20444 13.4284 -0.243935 -0.362082 -0.116342 0.9093 3.72543 -0.172714 3.1745 0.306256 -0.504535 -0.80725
-3.83075 -0.304 14.6757 -0.026281 0.323581 -0.0434052 0.446411 3.72575 -0.560929 2.57667 -0.607594 -0.0369576 -0.793388
0.17625 0.576688 15.5509 -0.020969 0.388341 0 0.4 3.76924 0.545594 4.49578 0.950339 0.299197 0.0856599
-3.648 -2.5685 10.791 0.102482 -0.097288 0 -0.2 3.81256 0.243116 1.27177 0.0512143 0.888126 -0.456737
-2.55194 -2.87169 10.2829 0.0562423 0.107029 -0.338533 -0.154071 3.84818 -0.147396 0.908472 -0.412992 0.578452 -0.703442
-2.06519 2.4575 13.891 -0.0912767 -0.207526 0 0.4 3.87437 0.0798758 3.50497 0.582739 0.418386 -0.696684
-0.2655 1.9445 14.1663 -0.044284 0.281693 0 0.4 3.98041 0.999923 3.9994 0.782728 0.426397 -0.453346
-1.62925 -2.0845 9.506 -0.3736 -0.184904 -0.239979 -0.0888889 4.1212 0.693731 0.632565 -0.672234 0.587866 -0.450016
1.41825 -2.4965 14.165 -0.0174466 0.293113 -0.188425 -0.2 4.2078 -0.577821 5.34831 0.754722 0.655694 0.021473
-0.47025 -1.53 9.122 -0.106855 -0.181488 -0.47734 -0.0888889 4.29868 0.17356 0.391671 -0.559631 0.807507 -0.186402
0.94725 -0.8885 9.82619 0.196768 -0.190201 0.025898 -0.0888889 4.37513 0.0536257 0.0989222 -0.162998 0.986589 -0.00857057
-4.765 -2.518 14.248 -0.200502 0.176309 0 -0.2 4.53806 -0.84256 2.00714 -0.364464 0.919285 -0.148599
-0.5245 2.303 15.0765 -0.041517 0.220064 0 0.4 4.54732 0.563277 3.9584 0.599448 0.783212 -0.165048
2.11538 -0.606875 10.9895 0.0126506 -0.235137 0 -0.0888889 4.6808 0.999888 6.07706 0.181246 0.959523 0.21556
-5.345 0.7695 14.552 -0.0206934 -0.339662 0 0.933333 4.6901 0.669516 2.74938 -0.203801 -0.759961 -0.617191
-5.72906 -2.47112 12.6509 -0.209615 -0.202124 0 -0.2 4.70949 -0.310485 1.76873 -0.0788777 0.986902 0.140719
2.2445 -2.9305 13.324 -0.0321753 0.260647 -0.242896 -0.0993964 4.71542 -0.199769 5.53637 0.529716 0.796814 0.29067
1.0885 -1.792 15.59 -0.344987 0.331861 -0.1352 -0.2 4.86801 0.485408 5.02045 0.785731 0.548415 0.286124
-4.75675 0.05125 15.3105 -0.106209 0.278002 -0.141506 0.669609 4.90331 -0.407501 2.5568 -0.547288 -0.301542 -0.780735
-3.67 -3.37725 10.0363 0.238417 0.125603 0 -0.2 4.91896 0.259178 1.10073 0.0528347 0.22804 -0.972217
-5.53575 1.5295 13.741 -0.000628653 -0.321998 0 0.933333 5.0023 -0.198105 2.84939 -0.121869 -0.773495 -0.621975
-0.3905 1.08862 16.5249 0.0325132 0.338682 0 0.4 5.00697 0.16957 4.43264 0.735052 0.490011 0.468602
-4.70913 2.10713 12.9949 -0.0695653 -0.396595 0 0.112684 5.08761 -0.234144 3.05494 0.223145 -0.9024 -0.368619
-5.15737 -2.20863 15.3814 -0.0770677 0.0508569 -0.423582 0.4 5.12371 -0.999859 2.14741 -0.285748 0.688131 -0.666951
-4.73887 -2.95038 10.0363 0.168411 0.077045 0 -0.2 5.19292 0.440618 1.24971 0.215907 0.495566 -0.841308
-3.53912 2.96525 12.1566 -0.429103 -0.340653 -0.08843 0.764851 5.21209 0.402783 3.17867 0.718337 -0.495399 -0.488439
-2.66225 3.6205 14.2621 -0.273342 -0.255484 -0.58913 0.933333 5.23332 -0.527157 3.53918 0.891561 0.452106 -0.0268244
2.16725 -3.2545 14.2727 -0.0208384 0.199926 -0.619423 -0.0888889 5.27886 -0.966658 5.40945 0.449237 0.890676 0.069866
-2.55225 3.71012 13.1695 -0.505203 -0.263533 -0.724129 0.933333 5.39977 0.504424 3.42206 0.925513 0.107021 -0.36328
3.03731 -1.60906 11.3639 0.0088269 0.284637 0 -0.0888889 5.43784 0.999849 5.94034 0.822196 0.430406 0.372484
0.352625 -2.17337 16.6042 -0.222807 0.311724 -0.770097 -0.2 5.4593 -0.632978 4.94482 0.727082 0.546677 0.415326
-0.048625 -0.01975 17.1349 0.090348 0.306105 0.17214 0.4 5.47669 0.315266 4.67289 0.914035 0.335831 0.227503
1.949 -2.88838 15.3646 0.0469567 0.17923 -0.0190359 -0.104029 5.57685 -0.297325 5.2375 0.418269 0.908187 -0.0157375
-0.144 -1.296 17.223 0.0337867 0.32014 0 0.4 5.59801 -0.671859 4.83613 0.973384 0.143414 0.178763
-0.72125 2.289 16.1483 -0.0342737 0.298426 0 0.4 5.63712 0.999841 4.06381 0.68701 0.597577 0.413423
-0.620125 -2.47038 8.16737 0.103473 -0.212879 -0.60344 -0.38732 5.64705 -0.131727 0.526583 -0.933496 0.310793 -0.178866
1.37888 -0.50825 8.64587 0.109163 -0.137136 0.781538 -0.0888889 5.68816 0.999862 0.128276 0.0043209 0.99807 -0.0619493
-5.90675 -2.65587 14.3011 -0.117535 0.133947 0 -0.2 5.68932 -0.7564 2.12689 0.000315313 0.991663 -0.12886
-2.197 3.26238 15.6433 -0.0775123 0.229653 0 0.615136 5.80718 -0.0857681 3.71378 0.795622 0.605712 0.00992048
2.98381 -2.79806 11.9629 -0.0177105 0.267037 0 -0.0888889 5.83494 0.0389693 5.76266 0.843361 0.450121 0.293484
-6.2165 -2.099 11.352 -0.0479317 -0.159105 0 -0.2 5.94075 0.734313 1.59274 -0.0671779 0.99727 0.0306544
-6.381 0.66075 15.2494 0.00722077 -0.27246 0 0.933333 5.94369 -0.597313 2.71186 -0.00666402 -0.786907 -0.617035
-2.61469 -4.94441 9.86416 0.323553 0.222131 0 -0.0888889 5.96371 0.0684234 4.41137 -0.775368 -0.219062 -0.592297
-0.030375 -1.28225 7.4885 0.122921 -0.159287 0.00467234 -0.980047 6.00842 0.180699 0.526583 -0.531229 0.845946 0.0465979
-5.82725 -2.50425 9.9965 0.16658 -0.0667695 0 -0.2 6.13301 0.279194 1.24971 0.185066 0.85031 -0.49267
-1.03 -3.787 8.5425 0.191599 0.171354 -0.000550657 -0.0888889 6.16715 -0.66072 0.526583 -0.841293 0.29785 -0.451123
-5.719 -0.127 16.1567 -0.0384123 -0.214623 0 0.798507 6.19705 -0.999911 2.5568 -0.158741 -0.406461 -0.899773
-6.464 1.99188 13.131 0.00731747 -0.30685 0 0.0184685 6.20544 -0.596023 2.84939 0.114109 -0.94543 -0.305189
2.82544 -1.15769 9.54619 0.00558137 0.173122 0 -0.0888889 6.29306 0.459066 6.07706 0.599762 0.800153 -0.00639302
-5.79569 -1.33506 16.1006 -0.0309629 -0.0906556 0 0.4 6.42288 -0.999871 2.14741 -0.124208 0.290816 -0.948682
-1.338 1.19181 17.6868 0.0735857 0.22399 -0.0216339 0.4 6.50977 -0.18988 4.43264 0.566838 0.78206 0.258992
3.73475 -3.857 12.9416 -0.590933 0.17358 -0.122123 -0.0888889 6.51138 0.40094 5.76266 0.852845 0.491264 -0.17696
-7.47087 -2.52638 13.4104 -0.0864843 -0.107983 0 -0.2 6.61049 -0.109034 2.12689 0.181217 0.970668 -0.157999
0.06575 -2.3305 17.754 -0.0134932 0.200063 0 -0.303251 6.65472 -0.999892 4.83613 0.80471 0.588191 -0.0804567
-0.39 0.413 18.214 0.164824 0.196306 0.742411 0.4 6.68841 0.620247 4.67289 0.73976 0.671908 0.0359859
3.62036 -3.47747 14.6618 0.0186754 0.0764091 -0.123995 0.241489 6.71089 0.0811992 5.40945 0.240951 0.885612 -0.397031
2.5135 -2.826 16.3565 0.292314 0.123834 0.566351 -0.0888889 6.71984 0.112942 5.2375 -0.15571 0.98591 -0.0611299
-4.036 3.906 11.0367 -0.250796 -0.222889 -0.968542 0.866969 6.75678 0.119188 3.17867 0.922986 0.0195298 -0.384338
-5.77275 1.7585 11.7533 -0.103253 -0.369224 0 -0.777778 6.75926 0.612708 3.05494 0.118718 -0.992596 -0.0256668
-3.34713 4.98025 13.9406 -0.22497 0.165876 -0.00143782 0.933333 6.78939 0.474327 3.53918 0.690626 0.722087 -0.0403192
-5.271 -4.34734 9.45378 0.429117 0.188591 0 -0.2 6.79728 0.0790899 1.24971 0.716884 -0.165769 -0.677199
-4.76137 2.07962 11.2802 -0.115962 -0.380373 0 -0.777778 6.80333 0.343031 3.05494 0.554042 -0.813106 -0.178594
-3.25887 4.56738 12.2809 -0.43913 -0.16963 -0.328631 0.933333 6.82238 0.662804 3.42206 0.800686 0.402702 -0.443545
-7.06962 -2.47638 14.4404 -0.0257032 -0.0862098 0.0962312 -0.376944 6.87418 -0.731081 2.12689 0.328211 0.848099 -0.415938
1.572 -0.953875 7.497 0.332302 -0.101657 0.197939 -0.676238 6.93547 0.159922 0.128276 0.0473165 0.987682 -0.149147
-3.67925 -5.23994 10.9784 0.37313 0.296976 0 -0.2 7.00636 -0.054301 4.41137 -0.0577555 -0.859388 -0.508052
-2.09125 1.976 17.3424 -0.0178084 0.279159 0 0.480791 7.09222 -0.304671 4.06381 0.608348 0.545546 0.576448
-0.7125 -3.14287 6.77037 0.40072 -0.221938 0 -1 7.20024 -0.786713 0.526583 -0.909629 0.176453 0.376085
-0.0955 -1.19987 18.8434 0.0164916 0.185221 0.159773 -0.0159916 7.22199 -0.492711 4.83613 0.9086 0.355301 -0.21956
-2.635 4.1795 16.67 -0.279625 0.21225 -0.821095 -0.703502 7.25185 -0.0520369 3.71378 0.976227 0.215117 -0.0265578
-6.8605 -0.341 15.9435 0.0436187 -0.167858 0.47085 -0.777778 7.25335 -0.759795 2.71186 0.396037 -0.188333 -0.898713
1.27025 -3.06025 17.866 -0.0368557 0.105485 0.273255 -0.475084 7.25394 -0.839104 4.94482 0.193959 0.966159 -0.170048
-6.951 -2.5145 9.9525 0.198646 -0.128438 0 -0.2 7.25766 -0.0955885 1.24971 0.21621 0.976343 0.00262576
3.34275 -2.1375 9.62875 -0.085986 0.219079 0 -0.0888889 7.27721 0.296307 5.94034 0.924517 0.35699 0.133518
-2.38525 3.11525 17.1514 -0.092415 0.269898 -0.0187242 0.352111 7.33409 0.273169 3.71378 0.907728 0.15737 0.388928
3.59375 -2.9025 16.001 0.233453 0.0695547 0 0.4 7.34049 -0.467417 5.2375 -0.181211 0.922536 -0.34072
-7.99203 -2.64528 11.2072 0.106454 -0.129128 0 -0.2 7.3994 -0.397675 1.59274 -0.0144315 0.992396 0.122235
-7.6435 1.70875 13.037 -0.0383143 -0.278625 0 0.173561 7.42208 -0.768098 2.84939 0.439389 -0.897843 -0.0285534
-0.04025 -0.651 6.15987 0.19916 -0.196576 0 -1 7.47942 0.193422 0.526583 -0.333882 0.706318 0.62421
-2.309 -6.189 8.945 0.43995 0.18881 0 -0.0888889 7.54083 0.159897 4.41137 -0.990824 0.123307 -0.0553434
-7.49125 -1.47625 15.2793 0.247017 -0.0864284 0.704737 -0.777778 7.57194 -0.569798 2.14741 0.469884 0.554722 -0.686653
3.376 -4.46012 11.5696 -0.191809 0.202292 0 -0.819122 7.58735 -0.278033 5.76266 0.97427 0.16452 -0.154046
-2.011 -5.875 11.0615 0.37523 0.301028 -0.0252554 -0.253553 7.5959 -0.495688 4.41137 -0.733903 -0.671001 -0.105567
-0.3745 0.1745 19.2265 -0.060378 0.185891 -0.603755 0.4 7.60242 -0.0339224 4.67289 0.929815 0.352107 -0.107073
-6.351 -2.99425 8.68025 0.534287 -0.141485 0 -0.533636 7.63198 -0.0896829 1.24971 0.659098 0.746601 -0.0904267
-0.949313 -4.12856 7.11919 0.359443 -0.191589 0 -0.584002 7.63309 -0.611672 0.526583 -0.913709 0.35722 0.193727
-0.945625 -1.96769 6.20687 0.41249 -0.214221 0 -1 7.69698 0.0726819 0.526583 -0.792355 0.33976 0.506693
3.03312 -1.56288 8.17488 0.181967 -0.149425 0 -0.227267 7.70573 0.0566503 0.128276 0.589905 0.806294 0.0436145
-8.03256 0.0735625 15.0258 -0.074313 -0.175361 0 0.317122 7.71074 -0.424753 2.71186 0.517041 -0.337749 -0.786508
-8.49575 -2.5645 12.975 -0.0942213 -0.0693679 -0.18369 -0.368789 7.72467 -0.54535 2.12689 0.186533 0.919786 -0.345252
0.5025 -2.1185 18.7365 -0.127629 0.0843924 -0.194862 -0.777778 7.75062 -0.477351 4.83613 0.432772 0.748696 -0.502157
-4.20325 4.8255 11.4265 -0.220652 -0.160253 -0.405314 0.0119865 7.7694 -0.206258 3.17867 0.840367 0.417559 -0.345583
-7.03288 1.72438 11.6827 -0.088661 -0.293647 0 -0.777778 7.78429 0.110981 2.84939 0.166318 -0.974006 -0.15379
1.475 -1.086 6.477 0.206609 -0.139485 0 -1 7.83265 -0.482249 0.128276 0.0342105 0.968835 0.245335
-3.2905 5.03075 15.7904 -0.174915 -0.144995 -0.0880181 0.570087 7.89153 0.0588696 3.71378 0.787444 0.554987 -0.26818
-4.4855 4.7605 10.415 -0.342483 -0.187913 -0.01597 -0.777778 7.90514 -0.396687 3.17867 0.953016 0.288411 -0.0926233
-4.11125 3.07125 10.2505 -0.46734 -0.305602 -0.675989 -0.700584 7.90595 0.336372 3.17867 0.957848 -0.280915 0.0601128
3.38225 -3.56625 9.8885 -0.149365 0.23532 0 -0.0888889 7.91299 -0.133335 5.76266 0.981964 0.029861 0.186693
4.334 -4.923 13.6318 -0.21716 0.115582 0 0.388329 7.9156 -0.23039 5.76266 0.722507 0.41949 -0.549556
-3.95775 5.3385 12.688 -0.27018 -0.142134 -0.1101 0.636236 7.93987 0.263018 3.42206 0.646367 0.75457 -0.113288
-1.19175 1.08975 19.1073 -0.155673 0.11422 -0.305806 0.4 7.94142 0.164129 4.67289 0.46256 0.861148 -0.210861
3.3245 -2.42438 17.1964 0.0549257 -0.0833194 0.0560605 -0.144931 7.95452 0.0252702 5.2375 -0.441055 0.838739 -0.319354
2.482 -2.9365 17.625 0.19241 0.0869023 0.501398 -0.115884 7.99353 -0.884664 5.2375 -0.387638 0.880611 -0.27251
-1.90625 -6.818 10.2917 0.36039 0.235451 -0.276012 -0.372184 8.01188 -0.273895 4.41137 -0.962724 -0.18519 0.197148
-8.04775 1.27894 13.8454 -0.0537283 -0.23656 0 0.652107 8.08345 -0.659816 2.84939 0.402317 -0.81053 -0.425655
4.86562 -4.26638 14.4727 -0.0185187 0.0672372 0 0.4 8.19709 -0.036087 5.40945 0.371503 0.450611 -0.811748
3.77225 -5.45375 12.3988 -0.159891 0.156364 -0.0337584 -0.437629 8.19829 -0.86638 5.76266 0.905747 0.275174 -0.322337
-2.85106 1.43381 18.5451 0.00659263 0.166728 0 0.663833 8.26607 -0.999878 4.43264 0.570784 0.815801 0.0931418
-4.92338 -5.55363 11.0901 0.315841 0.271515 0 -0.2 8.29428 0.080399 4.41137 0.467586 -0.821285 -0.326885
-1.476 -3.1625 5.95813 0.62033 -0.224202 0.397828 -1 8.31516 0.0432137 0.526583 -0.693237 0.143144 0.706351
-5.243 2.07262 9.748 -0.325034 -0.319491 0 -0.777778 8.40946 0.477433 3.05494 0.239633 -0.959016 -0.151212
-6.17556 -5.75075 9.81419 0.51025 0.205528 0 -0.0888889 8.50541 -0.485206 1.24971 0.879245 -0.409227 -0.243849
-1.69987 -5.249 6.81862 0.450617 -0.150333 0.09057 -0.79922 8.52468 -0.615685 0.526583 -0.818807 0.560268 0.125122
-4.19763 5.60075 15.3389 0.0318166 0.0998696 0 0.0206054 8.53971 -0.0974179 3.71378 0.500062 0.824202 -0.265761
-5.61875 -4.25737 7.6965 1 -0.175876 0.473898 -0.866667 8.5909 0.429686 1.24971 0.978629 0.118664 -0.167943
-2.41925 5.115 17.606 -0.458127 0.168309 -0.0345117 -0.777778 8.59267 0.999897 3.71378 0.946864 0.319901 -0.0333402
-2.18438 -7.15963 8.50113 0.52569 0.192717 0 -0.0888889 8.61538 -0.211752 4.41137 -0.97819 -0.0684411 0.19611
0.22525 -0.971812 20.1914 -0.0619777 0.109426 -0.059705 -0.455691 8.62626 -0.611126 4.83613 0.704094 0.559333 -0.43749
-8.08497 -1.88934 9.36447 0.207993 -0.160305 0 -0.866667 8.67981 -0.139227 1.24971 0.524179 0.786561 0.326433
-3.36337 2.64575 18.0592 -0.108321 0.253859 0 0.933333 8.69867 -0.99988 3.71378 0.902201 0.0508714 0.428306
-1.7585 -6.495 11.9974 0.3505 0.287244 0 -1 8.74658 0.0230992 4.41137 -0.875271 -0.44215 0.195971
-2.68963 -5.70463 12.3524 0.373157 0.342194 0 -0.2 8.76226 -0.389516 4.41137 -0.260663 -0.948494 -0.180039
-9.14338 -2.21881 10.6134 0.047993 -0.168754 0 -0.866667 8.76325 -0.594547 1.59274 0.525658 0.686227 0.502768
5.57075 -3.21062 15.2423 0.0295328 0.0370869 0 0.4 8.76325 0.546595 5.40945 0.223156 0.622935 -0.749768
-6.2445 -5.67425 8.35825 0.839817 -0.203193 0.48189 -0.866667 8.7743 -0.593974 1.24971 0.940384 -0.316391 0.124801
4.5495 -1.9855 16.6176 -0.107652 -0.030936 0 0.4 8.80149 0.133603 5.2375 -0.25821 0.746666 -0.613039
3.951 -2.715 8.351 0.00131711 0.198671 0 -1 8.80564 -0.112759 5.94034 0.766733 0.415315 0.489524
0.959188 -0.337687 5.328 0.221576 -0.142282 0 -1 8.81697 0.471389 0.128276 0.259281 0.892907 0.368089
-0.23825 0.922 20.2257 -0.410897 0.127635 -0.182144 0.4 8.85769 0.999779 4.67289 0.792498 0.550928 -0.261582
2.43925 -0.98075 5.77775 0.0355903 -0.117101 0 -1 8.86126 0.262274 0.128276 0.418149 0.902916 0.0994703
-0.8 0.19875 5.3555 0.085571 -0.151404 0 -1 8.87452 0.999928 0.526583 -0.210525 0.880777 0.42416
-8.909 0.4065 14.286 -0.223873 -0.194334 -0.102703 -0.210171 8.90501 -0.729122 2.71186 0.73117 -0.497013 -0.4673
-2.3525 -6.17938 7.56938 0.610377 -0.171914 0.281908 -0.506213 8.91717 0.253721 4.41137 -0.928894 0.314033 0.196315
-5.1055 5.892 13.079 -0.0616007 0.140955 0 -0.648622 8.94937 -0.306029 3.53918 0.455329 0.8685 0.195915
2.191 -2.14725 18.9807 -0.070793 0.0403214 -0.583926 -0.562556 8.96388 -0.352784 4.94482 -0.0957863 0.874485 -0.475501
-9.30481 -1.76231 13.5004 -0.51173 -0.0886695 -0.615631 -0.777778 8.97932 -0.45824 2.12689 0.595097 0.508562 -0.622273
-8.64675 -1.3 14.493 -0.307199 -0.128245 -0.805512 -0.777778 8.98066 -0.640637 2.71186 0.694924 0.166547 -0.69953
-8.84081 0.750188 12.7536 -0.0905627 -0.234985 0 0.4 8.9818 -0.0673089 2.84939 0.626112 -0.771068 -0.115926
-1.8625 -1.868 5.281 0.414427 -0.200242 0 -1 9.00382 0.454107 0.526583 -0.642916 0.358324 0.676951
-6.187 -2.8705 7.317 0.785327 -0.137954 0.122961 -0.866667 9.01063 0.873616 1.24971 0.76518 0.638045 -0.0860097
-9.42325 -2.72775 11.9522 -0.069941 -0.116904 0 -0.779522 9.01502 -0.999869 1.59274 0.61736 0.784708 -0.0556738
-1.71375 -7.84975 10.351 0.248422 0.202086 -0.236758 -0.347251 9.06311 -0.791293 4.41137 -0.959066 -0.0283712 0.281756
-7.16125 -2.234 7.76575 0.524633 -0.107532 0.104137 -0.866667 9.07101 0.213785 1.24971 0.557123 0.812604 -0.171138
1.40413 -1.72462 19.632 -0.22836 0.0554774 -0.498518 -0.662609 9.08103 0.045232 4.83613 0.217843 0.864807 -0.452387
-2.23338 1.35363 19.531 0.003792 0.0686864 0 0.4 9.09647 -0.868716 4.67289 0.340973 0.812589 -0.472691
-2.90875 4.09081 18.5298 -0.48005 0.212465 0 -0.777778 9.10207 0.149452 3.71378 0.93335 0.0431182 0.356369
-4.608 6.026 11.9055 -0.0887107 -0.147757 0 -0.777778 9.12382 0.451738 3.42206 0.68848 0.718403 0.0994643
-5.308 -5.77575 12.31 0.303794 0.282961 0 -0.2 9.17733 -0.624294 4.41137 0.323934 -0.933786 -0.152023
-7.16862 2.01875 10.3194 -0.231346 -0.262408 0 -0.777778 9.18559 0.403521 2.84939 -0.1478 -0.973047 -0.177015
4.3265 -6.039 12.997 -0.082834 0.106332 0 -0.878544 9.19954 -0.677145 5.76266 0.72832 0.494738 -0.474114
5.79975 -4.38875 14.8188 -0.0311181 0.0634461 0 0.4 9.20077 -0.267678 5.40945 0.266424 0.319482 -0.909368
3.51962 -1.40988 6.73475 -0.0179534 -0.118069 0 -1 9.2335 0.492425 0.128276 0.511254 0.858688 0.0357044
-3.975 2.80675 8.89725 -0.39338 -0.264862 -0.127209 -0.777778 9.29152 0.999908 3.17867 0.737058 -0.577521 -0.351019
-4.487 4.90325 9.013 -0.565527 -0.133034 0 -0.492269 9.31439 0.272477 3.17867 0.825406 0.350902 -0.442236
3.295 -5.288 10.0361 -0.0684253 0.190515 0 -1 9.33193 -0.371073 5.76266 0.995543 0.0721233 -0.0607706
-3.367 6.027 16.8283 -0.213069 -0.0987453 0 -0.777778 9.33222 0.41346 3.71378 0.674356 0.599216 -0.431491
-4.76788 6.18337 10.7781 -0.0368843 -0.172536 0 -0.777778 9.37659 0.0710087 3.17867 0.95694 0.275616 0.0911152
-1.81662 -4.56588 5.56887 0.41354 -0.186781 0.340609 -1 9.46257 -0.672701 0.526583 -0.783066 0.239221 0.574091
-8.25669 2.225 10.649 -0.118063 -0.219138 0 0.4 9.46264 -0.654195 2.84939 0.102 -0.921986 -0.373547
-3.4755 2.266 19.2905 0.0129609 0.155108 0 0.148012 9.54595 -0.977855 3.71378 0.908354 0.330436 -0.256329
-2.13225 -8.094 9.39625 0.419197 0.17335 0 0.107925 9.58703 -0.0980801 4.41137 -0.947777 0.184363 0.260248
-3.84325 3.8935 8.8005 -0.580343 -0.180028 -0.0671802 -0.777778 9.59426 0.999899 3.17867 0.93407 0.220152 -0.281153
-8.74413 1.04475 11.6525 -0.0659547 -0.208111 0 0.4 9.6258 0.178468 2.84939 0.462599 -0.739102 -0.489623
-5.0945 2.38025 8.52125 -0.57556 -0.236048 -0.0940975 -0.777778 9.68288 0.999876 3.05494 0.251057 -0.772446 -0.583351
-1.46512 -0.271688 4.48956 0.241391 -0.143571 0 -1 9.70743 0.332596 0.526583 -0.643815 0.680922 0.349067
-2.162 -8.0945 7.9165 0.50133 -0.154644 0 -0.0888889 9.71823 -0.999892 4.41137 -0.909633 0.295624 0.291845
5.758 -5.855 14.327 -0.46005 0.0991047 -0.343482 0.4 9.754 0.102905 5.40945 0.667606 0.167163 -0.725506
3.88753 -6.41787 11.1377 0.0691513 0.111461 0 -1 9.78989 -0.312038 5.76266 0.75268 0.565796 -0.336671
-9.43606 -0.117812 13.4581 -0.329975 -0.159697 -0.0503273 0.201144 9.82358 -0.30643 2.71186 0.804556 -0.193789 -0.561369
-6.11206 6.23981 13.6939 0.0527213 -0.110691 0 -0.719131 9.8377 -0.455294 3.53918 0.492597 0.870215 0.00860477
6.57881 -3.59162 15.2257 -0.0127638 0.0483334 0 0.4 9.84104 0.824637 5.40945 0.336723 0.533041 -0.776199
4.5755 -1.107 17.1945 -0.246927 -0.0216593 -0.176985 -0.155556 9.8528 0.596562 5.2375 -0.204615 0.736511 -0.644736
-1.81088 2.19375 20.5491 -0.155037 0.067595 0 0.104598 9.85999 -0.0305724 4.67289 0.477195 0.570769 -0.668213
-2.78744 -5.99862 13.4154 0.311591 0.325653 0 -0.2 9.86949 -0.106675 4.41137 -0.0566234 -0.97951 -0.193273
3.53444 -5.20062 8.8055 -0.491873 0.216192 -0.276743 -1 9.87951 -0.0669946 5.76266 0.903262 -0.309875 0.296809
-5.79563 -5.69025 7.32412 0.66977 -0.184366 0.297821 -0.863844 9.90176 0.225146 1.24971 0.957859 0.0303151 0.285636
-6.27887 -7.16625 9.82987 0.573587 -0.149792 0 -0.0888889 9.92476 -0.176118 1.24971 0.968248 0.150609 -0.199533
-5.46769 6.15487 15.12 0.198913 -0.0835012 0 0.933333 9.94257 -0.611145 3.71378 0.580072 0.666175 -0.46875
4.801 -3.417 7.9905 -0.255546 0.208485 -0.0430202 -0.207648 9.9655 0.395068 5.94034 0.640606 0.00382163 0.76786
0.1755 0.1545 20.9555 -0.139361 0.108124 0 -0.711111 9.98821 -0.0391204 4.83613 0.733752 0.609029 -0.301152
-0.8645 1.716 20.741 -0.283057 0.12233 -0.212492 0.4 9.99266 0.320231 4.67289 0.771396 0.619879 -0.143866
3 63 91 95
3 158 161 103
3 79 103 63
3 79 43 38
3 43 63 22
3 22 59 16
3 59 34 16
3 34 59 95
3 30 34 56
3 95 108 71
3 152 118 165
3 113 78 132
3 78 188 132
3 132 188 196
3 132 196 174
3 132 174 113
3 143 133 79
3 79 38 84
3 98 61 64
3 38 22 23
3 26 23 7
3 22 38 43
3 9 16 5
3 37 42 68
3 71 82 56
3 89 99 107
3 89 107 60
3 155 154 187
3 107 123 66
3 156 181 111
3 111 181 177
3 111 177 167
3 167 129 111
3 111 129 80
3 80 129 115
3 115 114 76
3 81 44 76
3 110 114 175
3 110 165 118
3 118 81 110
3 44 19 41
3 44 41 80
3 19 24 6
3 6 24 12
3 44 47 19
3 19 47 24
3 47 45 24
3 12 24 31
3 31 24 57
3 47 78 45
3 45 78 57
3 57 78 113
3 88 57 113
3 134 88 113
3 134 164 88
3 88 164 93
3 57 93 85
3 64 104 131
3 131 151 98
3 151 135 98
3 127 79 84
3 84 140 166
3 98 122 61
3 122 160 139
3 135 179 122
3 105 54 62
3 26 28 54
3 54 28 62
3 28 29 55
3 2 11 7
3 7 3 2
3 0 2 3
3 0 3 5
3 0 6 1
3 6 13 20
3 6 20 15
3 41 15 39
3 41 39 66
3 80 41 77
3 66 77 41
3 66 39 60
3 33 60 39
3 77 66 111
3 12 8 1
3 1 8 4
3 4 8 18
3 21 40 50
3 85 69 40
3 112 97 62
3 97 105 62
3 183 157 105
3 112 62 83
3 83 62 55
3 106 148 83
3 106 170 148
3 67 55 29
3 67 29 32
3 14 29 11
3 32 14 17
3 10 17 2
3 2 4 10
3 4 18 10
3 18 52 49
3 36 18 49
3 52 102 87
3 109 87 136
3 136 102 147
3 102 73 119
3 102 119 147
3 67 92 106
3 106 92 145
3 70 58 35
3 48 17 58
3 58 17 35
3 35 17 10
3 35 10 27
3 27 36 51
3 36 49 51
3 116 145 92
3 58 70 100
3 100 125 173
3 173 125 186
3 125 70 117
3 117 70 74
3 74 124 117
3 70 35 74
3 51 75 94
3 74 94 144
3 120 75 121
3 185 168 117
3 124 169 185
3 74 142 124
3 189 169 142
3 14 32 29
3 103 91 63
3 91 103 137
3 161 137 103
3 95 91 137
3 141 95 137
3 79 133 103
3 103 133 158
3 30 16 34
3 155 99 154
3 154 99 108
3 99 71 108
3 71 99 82
3 165 188 152
3 143 79 130
3 84 38 61
3 26 64 23
3 23 61 38
3 61 23 64
3 7 23 9
3 7 9 3
3 9 23 22
3 5 3 9
3 13 5 16
3 30 13 16
3 37 13 42
3 42 13 30
3 42 30 56
3 68 42 99
3 42 82 99
3 56 82 42
3 37 65 60
3 89 65 68
3 37 68 65
3 33 37 60
3 89 68 99
3 89 60 65
3 107 99 155
3 123 107 150
3 123 150 156
3 156 150 187
3 187 150 107
3 187 107 155
3 141 159 95
3 95 159 108
3 108 159 154
3 96 123 156
3 66 123 96
3 66 96 111
3 111 96 156
3 44 80 76
3 76 80 115
3 110 81 76
3 114 110 76
3 175 114 172
3 57 24 45
3 93 57 88
3 138 85 93
3 138 93 164
3 126 138 178
3 105 157 128
3 86 105 128
3 104 86 128
3 176 131 104
3 176 104 128
3 179 135 184
3 79 127 130
3 140 84 101
3 140 101 139
3 61 122 101
3 61 101 84
3 101 122 139
3 179 160 122
3 54 86 104
3 54 104 64
3 54 64 26
3 105 86 54
3 55 62 28
3 11 29 28
3 37 33 15
3 37 15 20
3 37 20 13
3 19 6 15
3 15 41 19
3 50 40 69
3 50 69 73
3 119 73 69
3 163 119 126
3 126 119 69
3 126 85 138
3 69 85 126
3 191 119 163
3 146 97 112
3 148 112 83
3 1 4 0
3 0 4 2
3 27 10 18
3 8 21 18
3 90 49 72
3 90 72 109
3 90 109 153
3 52 72 49
3 87 109 72
3 72 52 87
3 136 87 102
3 198 136 147
3 146 112 148
3 145 170 106
3 46 35 27
3 74 35 46
3 74 46 51
3 51 46 27
3 49 90 51
3 51 90 75
3 153 121 90
3 90 121 75
3 145 193 197
3 116 193 145
3 186 125 168
3 117 168 125
3 94 74 51
3 144 94 120
3 120 94 75
3 100 173 116
3 116 173 193
3 142 169 124
3 63 43 79
3 95 59 63
3 22 63 59
3 34 95 71
3 188 78 152
3 152 78 118
3 194 133 143
3 16 9 22
3 71 56 34
3 180 172 114
3 115 180 114
3 115 171 180
3 129 171 115
3 171 129 182
3 110 175 165
3 47 81 78
3 81 47 44
3 81 118 78
3 174 134 113
3 127 84 166
3 135 122 98
3 64 131 98
3 28 26 11
3 11 26 7
3 13 6 5
3 0 5 6
3 33 39 15
3 66 60 107
3 77 111 80
3 12 1 6
3 25 31 21
3 25 21 8
3 25 8 12
3 25 12 31
3 31 57 53
3 31 53 21
3 40 21 53
3 57 85 53
3 85 40 53
3 149 97 146
3 97 149 183
3 97 183 105
3 83 55 106
3 106 55 67
3 14 11 2
3 17 14 2
3 50 18 21
3 18 50 52
3 73 102 50
3 50 102 52
3 119 191 147
3 199 147 191
3 32 17 48
3 48 67 32
3 27 18 36
3 58 116 48
3 48 116 92
3 48 92 67
3 100 70 125
3 58 100 116
3 117 124 185
3 74 144 142
3 109 136 162
3 109 162 153
