ply
format ascii 1.0
comment Generated by PyMesh
element vertex 200
property float x
property float y
property float z
property float charge
property float ddc
property float hbond
property float hphob
property float rho
property float si
property float theta
property float nx
property float ny
property float nz
element face 364
property list uchar int vertex_indices
end_header
-1.7585 -6.495 11.9974 0.3505 0 0 -1 1e-08 0.0230992 2.22045e-16 -0.875271 -0.44215 0.195971
-2.011 -5.875 11.0615 0.37523 0.25066 -0.0252554 -0.253553 1.15068 -0.495688 5.47514 -0.733903 -0.671001 -0.105567
-1.52013 -6.21325 13.1946 0.52676 -0.24547 0 -0.2 1.25279 -0.524356 3.15401 -0.53448 -0.837967 0.110193
-2.68963 -5.70463 12.3524 0.373157 -0.539761 0 -0.2 1.27189 -0.389516 4.25354 -0.260663 -0.948494 -0.180039
-0.950875 -7.54581 12.4346 0.0322214 0.285705 -0.245019 -1 1.39557 0.0521168 1.95223 -0.632297 -0.545991 0.549632
-1.90625 -6.818 10.2917 0.36039 -0.284016 -0.276012 -0.372184 1.74229 -0.273895 2.22045e-16 -0.962724 -0.18519 0.197148
-1.463 -8.376 11.3333 0.176508 -0.258003 -0.105314 -1 2.01656 0.32598 1.18462 -0.806276 -0.255371 0.533577
-1.71375 -7.84975 10.351 0.248422 -0.303348 -0.236758 -0.347251 2.1326 -0.791293 0.590944 -0.959066 -0.0283712 0.281756
-2.78744 -5.99862 13.4154 0.311591 -0.473708 0 -0.2 2.37913 -0.106675 3.69813 -0.0566234 -0.97951 -0.193273
-1.91937 -6.21275 14.6142 0.51438 -0.271471 0.0700813 -0.50916 2.72747 -0.761247 3.19548 -0.314087 -0.892927 -0.322539
-2.61469 -4.94441 9.86416 0.323553 0.316036 0 -0.0888889 2.78288 0.0684234 5.53174 -0.775368 -0.219062 -0.592297
-3.67925 -5.23994 10.9784 0.37313 -0.399829 0 -0.2 2.93765 -0.054301 4.96348 -0.0577555 -0.859388 -0.508052
0.031 -7.35913 13.8882 0.636333 0.0990896 0.318217 -0.960587 3.15962 -0.484615 2.50894 -0.612271 -0.790601 0.00867966
-0.571625 -9.07475 11.6154 0.316279 -0.285855 -0.00596384 -0.972213 3.17112 -0.150563 1.476 -0.446835 -0.276825 0.850709
-1.88644 -9.22363 10.6494 0.397807 -0.384538 0 0.844444 3.1851 -0.0799102 0.955455 -0.616614 0.425512 0.662365
-2.13225 -8.094 9.39625 0.419197 -0.274418 0 0.107925 3.20328 -0.0980801 0.410199 -0.947777 0.184363 0.260248
-2.309 -6.189 8.945 0.43995 0.265335 0 -0.0888889 3.28224 0.159897 6.01042 -0.990824 0.123307 -0.0553434
-2.18438 -7.15963 8.50113 0.52569 -0.169651 0 -0.0888889 3.58625 -0.211752 0.0246341 -0.97819 -0.0684411 0.19611
1.14525 -8.562 12.9073 0.701093 0.0553252 0.394016 -1 3.7725 -0.868068 2.05901 -0.669011 -0.647723 0.364526
-5.308 -5.77575 12.31 0.303794 -0.320841 0 -0.2 3.89157 -0.624294 4.42629 0.323934 -0.933786 -0.152023
-1.30838 -7.12044 15.2753 0.716963 -0.240924 0.477581 -0.777778 4.00585 -0.300777 2.96017 -0.452784 -0.683757 -0.572243
-4.83238 -6.22475 14.045 0.203985 -0.336049 0 -0.172968 4.05161 -0.343419 3.93827 0.337459 -0.863933 -0.373821
-4.92338 -5.55363 11.0901 0.315841 -0.389819 0 -0.2 4.22557 0.080399 4.74104 0.467586 -0.821285 -0.326885
-2.77375 -9.09387 9.28175 0.433723 -0.358845 0 0.844444 4.39675 -0.218317 0.582394 -0.625672 0.758327 0.182961
-3.731 -6.37675 15.2506 0.378683 -0.290264 0 -0.2 4.47704 -0.78274 3.59413 0.146035 -0.903592 -0.402736
-2.3525 -6.17938 7.56938 0.610377 0.215104 0.281908 -0.506213 4.65858 0.253721 6.14638 -0.928894 0.314033 0.196315
-3.67 -3.37725 10.0363 0.238417 0.397269 0 -0.2 4.68006 0.259178 5.24086 0.0528347 0.22804 -0.972217
-2.162 -8.0945 7.9165 0.50133 -0.215469 0 -0.0888889 4.68333 -0.999892 0.209394 -0.909633 0.295624 0.291845
-1.33125 -10.4866 11.3071 0.442793 -0.322309 0 0.844444 4.71347 -0.463431 1.25392 -0.287108 0.373615 0.882032
-0.02625 -10.5835 11.7972 0.48142 -0.28355 0 0.844444 4.78568 -0.487368 1.53059 -0.321326 0.311059 0.894423
1.0125 -9.58212 11.8576 0.541577 -0.217355 0 0.844444 4.85205 -0.999884 1.74497 -0.547629 -0.0482876 0.835327
-2.83406 -7.02481 16.3614 0.508743 -0.219478 0.125341 -0.777778 4.86026 -0.497239 3.28938 -0.213924 -0.73017 -0.648913
-2.55194 -2.87169 10.2829 0.0562423 0.37621 -0.338533 -0.154071 4.8984 -0.147396 5.40712 -0.412992 0.578452 -0.703442
-5.725 -6.1115 13.164 0.28495 -0.3891 0 -0.199861 4.89951 -0.999881 4.25059 0.778413 -0.53643 -0.326062
0.717875 -8.19975 15.5052 0.615783 -0.136242 0.45129 -0.784236 5.10721 -0.999819 2.58873 -0.62321 -0.649262 -0.435968
1.367 -8.79813 14.2028 0.718097 -0.115539 0.843431 -0.613031 5.10789 -0.559924 2.19934 -0.938835 -0.300511 -0.168172
-3.57711 -9.55381 9.77205 0.436577 -0.395195 0 0.913024 5.11827 0.132051 0.694131 -0.197054 0.922204 0.33273
-1.03 -3.787 8.5425 0.191599 0.253489 -0.000550657 -0.0888889 5.14881 -0.66072 5.68131 -0.841293 0.29785 -0.451123
-6.14825 -6.61194 11.79 0.412833 -0.393058 0 -0.120257 5.18604 -0.444363 4.50078 0.929507 -0.355159 -0.0993885
-2.81013 -7.37475 7.02338 0.598937 -0.210981 0.0306396 -1 5.20539 -0.310992 0.0640221 -0.632572 0.310152 0.709689
-5.271 -4.34734 9.45378 0.429117 -0.364589 0 -0.2 5.31565 0.0790899 4.97361 0.716884 -0.165769 -0.677199
1.891 -9.97425 13.0087 0.663363 -0.141254 0 -0.795671 5.37278 -0.999902 1.95494 -0.975146 0.0577273 0.213912
-1.40675 -8.23525 16.089 0.725003 -0.199543 0.431927 -0.777778 5.38953 0.999761 2.97506 -0.400395 -0.658658 -0.637066
-4.87 -7.05025 15.4299 0.42535 -0.311631 0 -0.0888889 5.66431 -0.21173 3.66477 0.602014 -0.722362 -0.340253
-1.69987 -5.249 6.81862 0.450617 0.22459 0.09057 -0.79922 5.6856 -0.615685 6.06409 -0.818807 0.560268 0.125122
-3.04312 -9.22025 8.00725 0.43946 -0.289311 0 0.844444 5.70552 -0.999875 0.400094 -0.450346 0.747347 0.488529
-3.302 -11.1471 11.4605 0.51537 -0.322546 0 0.844444 5.70729 -0.374138 1.07872 -0.0613465 0.694598 0.716778
-3.82663 -9.5445 8.57913 0.41984 -0.350989 0 0.913713 5.74036 -0.8139 0.515508 -0.0289599 0.975135 0.219709
-3.648 -2.5685 10.791 0.102482 0.405757 0 -0.2 5.78646 0.243116 5.14179 0.0512143 0.888126 -0.456737
-4.73887 -2.95038 10.0363 0.168411 0.358735 0 -0.2 5.83102 0.440618 5.1058 0.215907 0.495566 -0.841308
-4.34269 -10.1756 10.3532 0.501757 -0.350525 0 0.960233 5.83598 -0.382665 0.794468 0.0574804 0.76062 0.646648
-0.359 -11.5591 12.3024 0.46941 -0.277897 0 0.0556884 5.93361 -0.631845 1.47524 -0.345776 0.698796 0.626197
0.863875 -10.9526 12.4683 0.536653 -0.259971 0 -0.405929 5.95996 -0.802259 1.68706 -0.584743 0.680737 0.441217
-5.70131 -7.94219 14.2342 0.465197 -0.387381 0 -0.0888889 5.98563 -0.359134 3.8896 0.924738 -0.100025 -0.367226
-6.17556 -5.75075 9.81419 0.51025 -0.341371 0 -0.0888889 6.02411 -0.485206 4.97361 0.879245 -0.409227 -0.243849
-2.88225 -6.48225 6.32975 0.59626 -0.229357 0.800479 -1 6.04026 0.105173 0.0640221 -0.654714 0.679947 0.330186
0.859375 -9.032 16.0446 0.606747 -0.166146 0.111683 -0.67574 6.10902 -0.952634 2.58873 -0.710914 -0.271388 -0.648807
-1.991 -1.967 11.037 -0.109312 0.339804 0 -0.2 6.20293 0.0152856 5.40712 -0.456314 0.833743 -0.310886
-1.62925 -2.0845 9.506 -0.3736 0.271573 -0.239979 -0.0888889 6.33875 0.693731 5.40712 -0.672234 0.587866 -0.450016
-1.37625 -11.8694 12.1976 0.44997 -0.306551 0 0.172882 6.35881 -0.701319 1.47524 -0.0962332 0.842831 0.529505
-6.10838 -7.2915 10.8197 0.50502 -0.422732 0 -0.0888889 6.37131 0.0510481 4.50078 0.978062 0.207388 -0.01962
1.30375 -9.7405 15.091 0.842973 -0.140343 0.804214 -0.177778 6.40441 -0.763863 2.19934 -0.953067 -0.0709761 -0.294322
-4.4885 -6.99975 16.5465 0.454337 -0.261407 0 0.0897651 6.52521 -0.999917 3.66477 0.437605 -0.720127 -0.538441
-0.620125 -2.47038 8.16737 0.103473 0.180854 -0.60344 -0.38732 6.57786 -0.131727 5.68131 -0.933496 0.310793 -0.178866
-0.949313 -4.12856 7.11919 0.359443 0.183021 0 -0.584002 6.61475 -0.611672 6.06409 -0.913709 0.35722 0.193727
-1.70119 -8.70938 17.1994 0.389983 -0.182225 -0.101352 -0.270878 6.63231 -0.548145 2.97506 -0.367204 -0.522871 -0.769264
-3.23534 -8.48941 17.304 0.459237 -0.240515 0 1 6.6476 -0.219011 3.28938 0.0843109 -0.374124 -0.923538
-0.464 -8.9755 16.604 0.345343 -0.205551 -0.748025 -0.777778 6.69413 -0.275687 2.97506 -0.386586 -0.387961 -0.836683
1.3825 -10.685 14.0083 0.679477 -0.201243 0 -0.777778 6.70053 -0.469737 1.95494 -0.884948 0.461274 -0.0639818
-4.3105 -11.2565 11.5763 0.575097 -0.344457 0 -0.0888889 6.7283 -0.758212 1.07872 0.336622 0.872277 0.354709
-4.30062 -7.94225 17.1379 0.42654 -0.266372 0 1 6.75642 -0.999876 3.28938 0.324397 -0.263037 -0.908613
-3.47725 -2.18625 11.8475 0.0116938 0.353548 0 -0.2 6.84108 -0.07272 5.14179 -0.3464 0.841313 -0.414969
-5.27969 -9.23044 9.6165 0.54384 -0.382852 0 1 6.85825 -0.152386 0.794468 0.552825 0.793218 0.255323
-5.04875 -7.88225 16.3645 0.37142 -0.313353 0 -0.0888889 6.92829 -0.724377 3.66477 0.850945 -0.254382 -0.459545
-2.527 -11.704 12.3365 0.47286 -0.345395 0 0.377778 7.00272 -0.344293 1.07872 0.176489 0.927301 0.330096
-5.82725 -2.50425 9.9965 0.16658 0.311155 0 -0.2 7.00795 0.279194 5.1058 0.185066 0.85031 -0.49267
-4.2395 -8.5735 7.08169 0.515497 -0.28049 0 -0.918367 7.0718 -0.999835 0.400094 0.129076 0.635443 0.761282
-5.05225 -9.12525 8.24525 0.259349 -0.334135 0.0785852 0.778944 7.07804 -0.999817 0.515508 0.439157 0.814084 0.380011
-5.61875 -4.25737 7.6965 1 -0.309728 0.473898 -0.866667 7.10926 0.429686 4.97361 0.978629 0.118664 -0.167943
-0.595 -12.0105 13.363 0.571243 -0.27145 0 -0.777778 7.11018 -0.55804 1.47524 -0.371538 0.892576 0.255475
-1.81662 -4.56588 5.56887 0.41354 -0.142691 0.340609 -1 7.11464 -0.672701 6.06409 -0.783066 0.239221 0.574091
-4.69228 -7.21006 6.58134 0.7131 -0.292675 0.096704 -0.777778 7.14575 -0.0381626 0.0640221 0.412367 0.69768 0.585829
-6.14838 -8.3445 12.8004 0.305386 -0.390459 0 -0.0888889 7.1917 -0.577007 3.8896 0.998638 0.0306221 -0.0422442
-6.351 -2.99425 8.68025 0.534287 0.299204 0 -0.533636 7.21185 -0.0896829 4.97361 0.659098 0.746601 -0.0904267
-6.27887 -7.16625 9.82987 0.573587 -0.381356 0 -0.0888889 7.22722 -0.176118 4.50078 0.968248 0.150609 -0.199533
-6.2445 -5.67425 8.35825 0.839817 -0.295413 0.48189 -0.866667 7.29266 -0.593974 4.97361 0.940384 -0.316391 0.124801
-3.716 -6.85975 5.448 0.579937 -0.23311 0.268141 -1 7.31114 -0.999864 0.0640221 -0.263335 0.865654 0.425791
-2.69287 -5.83144 5.22319 0.455863 -0.170976 0.425143 -1 7.33791 -0.739062 6.06409 -0.654214 0.459018 0.601088
-2.33325 -1.6125 12.1005 0.0651217 0.340328 0.0357752 -0.134356 7.37503 -0.221343 5.14179 -0.27871 0.82363 -0.493918
-5.6675 -9.7635 11.0267 0.39355 -0.369319 0 0.661547 7.37824 -0.536952 0.794468 0.829797 0.432144 0.353113
1.146 -10.677 15.4235 0.742833 -0.188873 0.919687 -0.770309 7.41062 -0.870795 2.19934 -0.849498 0.391589 -0.353568
0.35525 -11.5347 13.7522 0.667707 -0.253011 0 -0.777778 7.4586 -0.291285 1.68706 -0.562823 0.806709 0.18014
0.578125 -10.3691 16.4349 0.671563 -0.185517 0.772204 -0.777778 7.53003 -0.790541 2.58873 -0.656737 0.0802966 -0.749832
-5.26237 -9.369 14.8328 0.507297 -0.364556 0 0.78746 7.59397 -0.00494616 3.8896 0.932581 0.232313 -0.276268
-5.77 -8.44 10.563 0.568423 -0.417178 0 -0.0888889 7.59583 0.23855 4.50078 0.951713 0.306736 0.0124313
-0.47025 -1.53 9.122 -0.106855 0.254892 -0.47734 -0.0888889 7.67972 0.17356 5.68131 -0.559631 0.807507 -0.186402
-0.7125 -3.14287 6.77037 0.40072 0.134598 0 -1 7.68682 -0.786713 6.06409 -0.909629 0.176453 0.376085
-0.977813 -1.33644 11.9819 0.0576827 0.343266 0 -0.155669 7.72509 -0.143982 5.40712 -0.0664935 0.980925 -0.18266
-1.66 -12.3445 13.6494 0.337317 -0.296381 0 -0.213366 7.9125 -0.547249 1.47524 0.0749592 0.965726 0.248506
-6.0635 -9.55275 13.222 0.51936 -0.359256 0 -0.0888889 7.92202 -0.999827 3.8896 0.961183 0.228341 -0.154877
-6.60156 -7.33588 8.79594 0.630253 -0.324185 0 -0.256651 7.95568 -0.999867 4.50078 0.994857 0.0992303 0.0203263
-0.426 -1.17206 10.6077 -0.082501 0.288276 0 -0.0888889 8.00998 0.701762 5.40712 -0.363504 0.925447 -0.106831
-0.030375 -1.28225 7.4885 0.122921 0.211302 0.00467234 -0.980047 8.06794 0.180699 5.68131 -0.531229 0.845946 0.0465979
-0.731875 -12.3286 14.3022 0.31214 -0.251613 0 -0.777778 8.11119 -0.760783 1.47524 -0.356289 0.916199 0.183404
-6.14975 -8.38775 9.2365 0.642467 -0.360329 0 0.597371 8.12771 -0.682244 0.794468 0.864514 0.496605 -0.0774548
-6.951 -2.5145 9.9525 0.198646 0.275282 0 -0.2 8.13261 -0.0955885 5.1058 0.21621 0.976343 0.00262576
-3.15875 -1.42963 12.8542 0.0612547 0.284225 0.542764 0.4 8.14006 0.166984 5.14179 -0.499533 0.666475 -0.553423
-1.476 -3.1625 5.95813 0.62033 -0.136145 0.397828 -1 8.21435 0.0432137 6.06409 -0.693237 0.143144 0.706351
-1.69675 -10.2355 17.6903 0.185506 -0.195206 -0.96332 -0.155556 8.23544 -0.618305 2.97506 -0.451623 0.102526 -0.886298
-4.69075 -2.53175 13.1115 -0.183255 0.324323 0 -0.2 8.33075 -0.383292 5.14179 -0.350228 0.931539 -0.0978508
-4.86794 -9.33075 16.6371 0.158079 -0.300318 0 0.933333 8.33775 -0.363641 3.66477 0.851016 0.0549026 -0.522261
-5.65947 -10.4865 12.0315 0.227417 -0.355564 -0.128585 -0.0888889 8.34688 -0.867021 1.07872 0.739189 0.670298 0.0655765
-2.817 -4.43525 4.809 0.438413 -0.125275 0.745353 -1 8.37766 -0.632374 6.06409 -0.582432 0.0504241 0.811314
-5.79563 -5.69025 7.32412 0.66977 -0.295126 0.297821 -0.863844 8.42012 0.225146 4.97361 0.957859 0.0303151 0.285636
-5.41463 -10.342 13.8094 0.499113 -0.355344 0 0.271149 8.43955 -0.471593 3.8896 0.814785 0.508942 -0.277674
-6.2165 -2.099 11.352 -0.0479317 0.282003 0 -0.2 8.45711 0.734313 5.1058 -0.0671779 0.99727 0.0306544
-2.68175 -10.0616 18.0147 0.35608 -0.196035 -0.163447 0.805938 8.45959 -0.999815 2.97506 -0.147886 -0.169386 -0.974391
-3.58612 -11.5753 13.3752 0.592123 -0.343948 0 -0.0888889 8.49175 -0.179518 1.07872 0.367699 0.920854 0.129709
-4.754 -10.953 13.301 0.49652 -0.356681 0 -0.0888889 8.53478 -0.214181 1.07872 0.543967 0.839005 -0.01308
0.243813 -11.8969 14.8194 0.741507 -0.225804 0 -0.777778 8.55072 -0.780262 1.68706 -0.612517 0.78779 -0.0648907
-6.109 -8.09013 8.2005 0.609747 -0.316374 0.0100599 -0.777778 8.55797 -0.999782 0.515508 0.704026 0.548252 0.451407
-6.187 -2.8705 7.317 0.785327 0.270227 0.122961 -0.866667 8.5905 0.873616 4.97361 0.76518 0.638045 -0.0860097
-3.79075 -10.2222 18.0065 0.518913 -0.230525 0 1 8.59812 -0.999869 3.28938 0.409482 -0.0532152 -0.910765
-0.945625 -1.96769 6.20687 0.41249 0.13888 0 -1 8.62779 0.0726819 5.68131 -0.792355 0.33976 0.506693
-7.16125 -2.234 7.76575 0.524633 0.245392 0.104137 -0.866667 8.65088 0.213785 4.97361 0.557123 0.812604 -0.171138
-4.09312 -6.05037 4.4095 0.490923 -0.185928 0 -1 8.68074 -0.999878 6.06409 -0.137521 0.544987 0.827089
-1.63806 -0.748062 12.9071 0.207123 0.30345 0 0.0257813 8.74658 0.00689755 5.14179 -0.00624998 0.683988 -0.729466
-4.8805 -10.495 14.9487 0.529893 -0.335491 0 0.933333 8.7886 0.0710405 3.8896 0.932964 0.341581 -0.11358
-6.22325 -6.96025 7.58225 0.517227 -0.281707 0 -0.777778 8.7948 -0.999844 4.97361 0.827747 0.0783912 0.555599
-0.125625 -11.4201 16.4508 0.673607 -0.213837 0.224245 -0.755853 8.79499 -0.666246 2.58873 -0.505807 0.513905 -0.692864
-5.07044 -6.35375 5.00331 0.6309 -0.234589 0.265465 -0.957747 8.82385 -0.625621 0.0640221 0.358455 0.754102 0.55031
-6.4485 -3.06988 6.36562 0.82373 0.241995 0.232478 -0.866667 9.07646 0.999867 4.97361 0.581447 0.599726 -0.549771
-2.7135 -12.04 14.0715 0.477123 -0.314891 0 -0.0888889 9.08756 0.363528 1.47524 0.366581 0.883477 0.291696
-3.95025 -4.98125 4.1915 0.403797 -0.143956 0.703378 -1 9.17318 -0.439848 6.06409 -0.364018 0.223478 0.904184
0.656875 -0.954625 11.0969 0.257629 0.278981 0 -0.0888889 9.21796 0.407777 5.40712 -0.172353 0.969797 0.17259
-6.111 -5.624 6.089 0.57352 -0.268104 0.517632 -0.801127 9.27584 -0.586464 4.97361 0.902457 0.418943 -0.100291
-1.08025 -12.5326 15.4539 0.558363 -0.241971 -0.201973 -0.583904 9.3316 -0.999834 1.47524 -0.267539 0.945742 -0.184376
-0.27 -0.883 13.3573 0.187824 0.327433 0 -0.2 9.33703 -0.074031 5.40712 0.52276 0.654727 -0.545943
-8.08497 -1.88934 9.36447 0.207993 -0.231962 0 -0.866667 9.3788 -0.139227 5.1058 0.524179 0.786561 0.326433
0.94725 -0.8885 9.82619 0.196768 0.263003 0.025898 -0.0888889 9.38756 0.0536257 5.68131 -0.162998 0.986589 -0.00857057
-3.69738 -1.33834 13.9881 0.059151 0.220811 0.407209 0.4 9.39871 -0.414425 5.14179 -0.730711 0.470451 -0.494709
-5.72906 -2.47112 12.6509 -0.209615 0.308403 0 -0.2 9.46826 -0.310485 5.14179 -0.0788777 0.986902 0.140719
-4.765 -2.518 14.248 -0.200502 0.298635 0 -0.2 9.46976 -0.84256 5.14179 -0.364464 0.919285 -0.148599
-6.624 -4.5115 5.5635 0.468287 0.234487 0 -0.866667 9.48093 0.1465 4.97361 0.517749 0.639978 -0.567772
-7.99203 -2.64528 11.2072 0.106454 0.242405 0 -0.2 9.4923 -0.397675 5.1058 -0.0144315 0.992396 0.122235
-0.04025 -0.651 6.15987 0.19916 0.174483 0 -1 9.53894 0.193422 5.68131 -0.333882 0.706318 0.62421
-3.12075 -3.278 4.64725 0.334693 -0.117688 0 -1 9.585 0.461773 6.06409 -0.612575 0.0962018 0.784536
-4.07681 -11.5229 14.4209 0.577033 -0.324834 0 -0.0320473 9.64804 -0.205529 1.07872 0.611204 0.778348 0.143542
1.572 -0.953875 7.497 0.332302 0.233232 0.197939 -0.676238 9.70364 0.159922 5.68131 0.0473165 0.987682 -0.149147
-1.8625 -1.868 5.281 0.414427 0.13664 0 -1 9.72552 0.454107 6.06409 -0.642916 0.358324 0.676951
-2.44412 -12.6461 15.2684 0.373663 -0.264221 0.245125 -0.124628 9.7365 -0.577566 1.47524 0.108394 0.994106 0.00173444
0.721 -1.61625 13.153 0.124071 0.351827 0 -0.2 9.80733 -0.13008 5.40712 0.550536 0.834086 0.034786
-2.77225 -11.4105 17.805 0.318332 -0.210942 -0.902352 -0.0792444 9.82769 -0.999855 2.97506 -0.18764 0.469214 -0.862919
-5.116 -5.535 4.308 0.53344 -0.189406 0.132085 -1 9.83061 -0.573461 6.06409 0.188106 0.463336 0.865988
1.37888 -0.50825 8.64587 0.109163 0.240511 0.781538 -0.0888889 9.84535 0.999862 5.68131 0.0043209 0.99807 -0.0619493
-4.7185 -11.2759 15.6766 0.578807 -0.296383 0 0.933333 9.86836 -0.73533 3.8896 0.793706 0.608294 -0.00312074
-1.22113 0.0809375 13.5485 0.0400333 0.263455 0 0.4 9.87462 -0.0746796 5.14179 0.27894 0.353428 -0.892906
1.475 -1.086 6.477 0.206609 0.213188 0 -1 9.89217 -0.482249 5.68131 0.0342105 0.968835 0.245335
-8.17025 -1.88312 7.04 0.270622 0.20467 0.232979 -0.866667 9.94236 0.677647 4.97361 0.329029 0.739171 -0.587679
1.33506 -1.27988 11.9929 0.171192 0.295571 0 -0.184761 10.0387 0.187838 5.40712 0.263704 0.797677 0.542376
-3.862 -11.6217 17.6195 0.456137 -0.240898 0 0.844444 10.0519 -0.999908 3.28938 0.410813 0.59085 -0.694355
-4.66625 -11.0845 16.892 0.400423 -0.270089 0 0.924591 10.1214 -0.999824 3.66477 0.873862 0.373752 -0.310925
-4.75725 -4.3725 3.745 0.240903 -0.154296 0 -1 10.2783 0.137715 6.06409 -0.31198 0.546455 0.77721
-4.05363 -3.21913 3.93375 0.0999057 -0.115344 0 -1 10.3204 0.525863 6.06409 -0.710511 0.29783 0.637551
-8.26437 -1.01525 8.31125 0.0134116 0.212846 0 -0.866667 10.3829 0.802344 4.97361 0.555904 0.831173 -0.0110874
-7.69875 -3.17213 5.98338 0.781853 0.205776 0.112886 -0.866667 10.3878 0.118032 4.97361 0.299425 0.616534 -0.728169
-1.62603 -12.0646 16.4171 0.82776 -0.237249 0 -0.155556 10.4283 -0.320341 1.47524 -0.241147 0.799142 -0.550654
-2.90569 0.68025 13.7451 0.049932 0.189879 0 0.4 10.4443 0.0684272 5.14179 -0.312653 0.115108 -0.942867
-6.183 -5.011 4.536 0.226191 -0.212611 0.967173 -1 10.4986 0.0722563 0.0640221 0.30348 0.907268 0.291145
-3.2065 -2.32675 4.27975 0.130018 0.125469 0 -1 10.6084 0.539275 6.06409 -0.661631 0.374437 0.649648
-7.5915 -4.8935 5.11925 -0.00991547 0.208912 0.514298 -0.866667 10.612 -0.813618 4.97361 0.355514 0.720587 -0.595285
-5.90675 -2.65587 14.3011 -0.117535 0.29773 0 -0.2 10.621 -0.7564 5.14179 0.000315313 0.991663 -0.12886
-3.83075 -0.304 14.6757 -0.026281 0.163021 -0.0434052 0.446411 10.6479 -0.560929 5.14179 -0.607594 -0.0369576 -0.793388
-5.15737 -2.20863 15.3814 -0.0770677 0.25453 -0.423582 0.4 10.7084 -0.999859 5.14179 -0.285748 0.688131 -0.666951
-9.06 -0.9825 9.4 0.0107298 -0.203434 0 -0.866667 10.7108 0.0899438 5.1058 0.709073 0.625695 0.325148
2.11538 -0.606875 10.9895 0.0126506 0.259372 0 -0.0888889 10.7212 0.999888 5.40712 0.181246 0.959523 0.21556
-3.354 -12.5258 15.707 0.242015 -0.264805 0 0.844444 10.7537 -0.99985 1.47524 0.334248 0.942454 0.00765007
-9.14338 -2.21881 10.6134 0.047993 -0.215775 0 -0.866667 10.8561 -0.594547 5.1058 0.525658 0.686227 0.502768
0.959188 -0.337687 5.328 0.221576 0.194279 0 -1 10.8765 0.471389 5.68131 0.259281 0.892907 0.368089
-0.8 0.19875 5.3555 0.085571 0.171605 0 -1 10.934 0.999928 5.68131 -0.210525 0.880777 0.42416
-8.982 -2.2765 6.4235 0.0985167 0.184504 0 -0.866667 11.0349 0.225585 4.97361 0.208589 0.693139 -0.689962
-0.118719 0.483594 14.4014 -0.026709 0.251217 0 0.4 11.0635 0.265661 5.40712 0.788998 0.16338 -0.592275
-2.31381 -1.10175 4.2515 0.100769 0.136136 0 -1 11.0859 0.465965 6.06409 -0.672386 0.636115 0.37849
2.43925 -0.98075 5.77775 0.0355903 0.2076 0 -1 11.0879 0.262274 5.68131 0.418149 0.902916 0.0994703
-1.46512 -0.271688 4.48956 0.241391 0.136253 0 -1 11.0967 0.332596 5.68131 -0.643815 0.680922 0.349067
-9.42325 -2.72775 11.9522 -0.069941 -0.232506 0 -0.779522 11.1079 -0.999869 5.1058 0.61736 0.784708 -0.0556738
-3.116 -12.246 16.7978 0.290008 -0.250932 0 0.844444 11.1807 -0.684144 2.97506 0.255258 0.896528 -0.36205
2.82544 -1.15769 9.54619 0.00558137 0.265697 0 -0.0888889 11.3055 0.459066 5.68131 0.599762 0.800153 -0.00639302
1.41825 -2.4965 14.165 -0.0174466 0.35865 -0.188425 -0.2 11.319 -0.577821 5.40712 0.754722 0.655694 0.021473
-4.98606 -4.13831 2.75444 0.0453553 0.126327 0 -1 11.3215 -0.448578 6.06409 -0.707196 0.630495 0.319921
-8.49575 -2.5645 12.975 -0.0942213 0.240341 -0.18369 -0.368789 11.3322 -0.54535 5.1058 0.186533 0.919786 -0.345252
-7.58725 -5.17525 4.094 -0.0551233 0.174549 0.672859 -1 11.3592 0.185181 4.97361 -0.109349 0.717811 -0.687598
-7.47087 -2.52638 13.4104 -0.0864843 0.26578 0 -0.2 11.3693 -0.109034 5.14179 0.181217 0.970668 -0.157999
3.03312 -1.56288 8.17488 0.181967 0.250805 0 -0.227267 11.4256 0.0566503 5.68131 0.589905 0.806294 0.0436145
-1.30175 1.72675 13.5933 -0.0387437 0.211807 0 0.4 11.523 0.635166 5.14179 0.251486 0.358882 -0.898865
-9.39925 -0.69575 8.29525 0.0114345 0.191506 0 -0.866667 11.562 0.0238771 4.97361 0.516402 0.75225 -0.409204
-4.75675 0.05125 15.3105 -0.106209 -0.130794 -0.141506 0.669609 11.59 -0.407501 5.14179 -0.547288 -0.301542 -0.780735
0.461 -0.8215 15.4971 -0.179853 0.279031 -0.262187 -0.00454918 11.5991 0.0375989 5.40712 0.923269 0.377674 0.0702589
-8.35437 -4.16412 4.94775 -0.453847 0.196784 -0.475452 -0.816929 11.6813 -0.0223487 4.97361 0.570471 0.599126 -0.561793
-8.9555 -3.102 5.67 -0.219211 0.190269 -0.300687 -0.821164 11.685 -0.278896 4.97361 0.401153 0.74822 -0.528435
3 158 195 164
3 198 199 165
3 165 180 158
3 158 164 124
3 158 124 165
3 164 138 124
3 75 105 144
3 174 138 164
3 174 164 195
3 189 168 162
3 189 162 163
3 162 168 153
3 162 153 133
3 163 162 133
3 78 143 131
3 165 131 143
3 143 170 165
3 78 131 121
3 121 124 83
3 40 83 75
3 40 49 26
3 49 75 48
3 48 115 109
3 115 141 109
3 141 115 144
3 142 141 171
3 144 190 192
3 163 146 169
3 112 107 146
3 44 87 55
3 55 81 39
3 81 128 120
3 128 81 113
3 113 81 135
3 85 78 40
3 40 26 11
3 16 10 37
3 26 48 32
3 58 32 57
3 48 26 49
3 71 109 106
3 182 169 149
3 37 64 44
3 44 25 16
3 25 39 17
3 25 17 16
3 81 120 76
3 22 40 11
3 11 3 19
3 16 5 10
3 5 7 0
3 0 7 6
3 17 15 5
3 7 14 6
3 36 72 50
3 23 47 36
3 47 72 36
3 120 77 76
3 84 94 104
3 72 94 89
3 89 50 72
3 60 82 94
3 89 94 82
3 21 3 8
3 3 0 2
3 2 8 3
3 12 4 18
3 13 18 4
3 29 13 28
3 13 6 14
3 89 99 111
3 82 53 99
3 21 8 24
3 24 8 9
3 9 20 31
3 31 24 9
3 31 42 65
3 66 31 65
3 65 42 67
3 68 52 91
3 59 28 46
3 59 46 74
3 98 74 117
3 117 69 118
3 117 147 132
3 127 147 114
3 118 114 147
3 114 53 93
3 53 43 73
3 53 21 43
3 24 43 21
3 53 73 110
3 53 110 93
3 122 66 116
3 108 67 129
3 108 129 166
3 35 68 61
3 103 119 91
3 103 91 79
3 155 147 127
3 127 110 161
3 123 63 102
3 58 95 63
3 63 95 102
3 95 139 154
3 97 101 57
3 57 88 97
3 126 97 88
3 126 88 106
3 126 167 156
3 167 140 172
3 194 181 156
3 156 181 137
3 137 181 197
3 157 145 102
3 145 123 102
3 184 149 123
3 184 182 149
3 157 102 148
3 148 102 154
3 193 183 148
3 187 154 139
3 187 139 175
3 134 139 101
3 175 134 159
3 151 159 97
3 97 137 151
3 137 197 151
3 134 175 139
3 168 191 143
3 143 191 170
3 191 198 170
3 165 170 198
3 165 199 180
3 83 105 75
3 105 83 138
3 124 138 83
3 144 105 138
3 177 144 138
3 177 138 174
3 133 153 125
3 125 153 130
3 113 135 78
3 168 130 153
3 130 168 81
3 81 168 135
3 78 135 143
3 143 135 168
3 40 78 83
3 83 78 121
3 142 109 141
3 107 169 146
3 44 80 87
3 87 80 112
3 112 80 107
3 55 87 86
3 86 87 125
3 86 125 130
3 125 87 133
3 112 133 87
3 55 86 81
3 130 81 86
3 81 76 39
3 120 128 100
3 128 113 85
3 54 84 100
3 54 100 85
3 128 85 100
3 85 40 54
3 11 26 10
3 58 37 32
3 32 10 26
3 10 32 37
3 57 32 71
3 57 71 88
3 71 32 48
3 106 88 71
3 140 106 109
3 142 140 109
3 196 140 173
3 173 140 142
3 173 142 171
3 177 185 144
3 144 185 190
3 123 149 107
3 96 123 107
3 64 96 107
3 80 44 64
3 80 64 107
3 27 17 39
3 15 17 27
3 15 27 23
3 45 23 27
3 45 27 39
3 45 39 76
3 47 23 45
3 77 47 76
3 76 47 45
3 120 100 104
3 104 100 84
3 60 84 38
3 38 84 54
3 38 54 22
3 40 22 54
3 22 19 38
3 3 11 1
3 3 1 0
3 10 5 1
3 10 1 11
3 1 5 0
3 14 7 15
3 14 15 23
3 15 7 5
3 77 72 47
3 72 77 120
3 72 120 104
3 72 104 94
3 38 82 60
3 82 38 33
3 33 38 19
3 33 19 21
3 2 0 4
3 9 12 20
3 2 12 9
3 12 2 4
3 30 18 13
3 30 13 29
3 14 28 13
3 14 46 28
3 50 69 46
3 69 50 89
3 69 89 111
3 114 118 111
3 114 111 99
3 114 99 53
3 33 53 82
3 21 53 33
3 9 8 2
3 24 31 43
3 43 31 62
3 43 62 73
3 31 66 70
3 31 70 62
3 62 70 73
3 56 34 61
3 34 56 67
3 34 67 42
3 35 61 34
3 35 34 18
3 18 34 12
3 12 34 20
3 20 34 42
3 68 41 52
3 52 41 30
3 41 18 30
3 29 52 30
3 35 18 41
3 35 41 68
3 79 91 52
3 79 52 51
3 51 52 29
3 59 79 51
3 59 51 28
3 28 51 29
3 79 59 98
3 74 98 59
3 69 117 74
3 69 74 46
3 111 118 69
3 66 110 70
3 70 110 73
3 161 160 186
3 160 161 122
3 66 122 110
3 110 122 161
3 116 152 122
3 122 152 160
3 186 160 152
3 186 152 166
3 108 152 116
3 67 108 65
3 65 108 116
3 65 116 66
3 92 129 67
3 90 129 92
3 90 92 61
3 61 92 56
3 56 92 67
3 119 129 90
3 119 90 68
3 68 90 61
3 98 103 79
3 166 136 150
3 150 136 98
3 150 98 132
3 98 136 103
3 166 176 186
3 176 150 132
3 150 176 166
3 155 186 176
3 155 176 147
3 147 176 132
3 161 186 155
3 127 161 155
3 136 166 129
3 136 119 103
3 119 136 129
3 63 96 64
3 63 64 37
3 63 37 58
3 123 96 63
3 154 102 95
3 101 139 95
3 196 172 140
3 178 145 157
3 183 157 148
3 156 137 126
3 126 137 97
3 188 151 197
3 178 157 183
3 131 165 124
3 131 124 121
3 75 49 40
3 144 115 75
3 48 75 115
3 141 144 192
3 133 112 163
3 146 163 112
3 113 78 85
3 109 71 48
3 192 171 141
3 44 55 25
3 39 25 55
3 22 11 19
3 17 5 16
3 37 44 16
3 95 58 101
3 101 58 57
3 140 167 106
3 126 106 167
3 194 156 167
3 179 145 178
3 145 179 184
3 145 184 123
3 169 107 149
3 60 94 84
3 19 3 21
3 6 4 0
3 6 13 4
3 14 50 46
3 89 82 99
3 20 42 31
3 118 147 117
3 68 91 119
3 117 132 98
3 114 93 127
3 127 93 110
3 108 166 152
3 148 154 193
3 193 154 187
3 134 101 97
3 159 134 97
3 14 23 36
3 14 36 50
