ply
format ascii 1.0
comment Generated by PyMesh
element vertex 112
property float x
property float y
property float z
property float nx
property float ny
property float nz
element face 211
property list uchar int vertex_indices
end_header
-4.07681 -11.5229 14.4209 0.611204 0.778348 0.143542
-3.58612 -11.5753 13.3752 0.367699 0.920854 0.129709
-4.8805 -10.495 14.9487 0.932964 0.341581 -0.11358
-4.754 -10.953 13.301 0.543967 0.839005 -0.01308
-4.7185 -11.2759 15.6766 0.793706 0.608294 -0.00312074
-2.7135 -12.04 14.0715 0.366581 0.883477 0.291696
-3.354 -12.5258 15.707 0.334248 0.942454 0.00765007
-5.41463 -10.342 13.8094 0.814785 0.508942 -0.277674
-5.26237 -9.369 14.8328 0.932581 0.232313 -0.276268
-2.527 -11.704 12.3365 0.176489 0.927301 0.330096
-4.66625 -11.0845 16.892 0.873862 0.373752 -0.310925
-1.66 -12.3445 13.6494 0.0749592 0.965726 0.248506
-2.44412 -12.6461 15.2684 0.108394 0.994106 0.00173444
-3.116 -12.246 16.7978 0.255258 0.896528 -0.36205
-5.65947 -10.4865 12.0315 0.739189 0.670298 0.0655765
-6.0635 -9.55275 13.222 0.961183 0.228341 -0.154877
-4.3105 -11.2565 11.5763 0.336622 0.872277 0.354709
-4.86794 -9.33075 16.6371 0.851016 0.0549026 -0.522261
-1.62603 -12.0646 16.4171 -0.241147 0.799142 -0.550654
-0.731875 -12.3286 14.3022 -0.356289 0.916199 0.183404
-1.37625 -11.8694 12.1976 -0.0962332 0.842831 0.529505
-0.595 -12.0105 13.363 -0.371538 0.892576 0.255475
-3.862 -11.6217 17.6195 0.410813 0.59085 -0.694355
-3.302 -11.1471 11.4605 -0.0613465 0.694598 0.716778
-1.08025 -12.5326 15.4539 -0.267539 0.945742 -0.184376
-5.70131 -7.94219 14.2342 0.924738 -0.100025 -0.367226
-2.77225 -11.4105 17.805 -0.18764 0.469214 -0.862919
-5.6675 -9.7635 11.0267 0.829797 0.432144 0.353113
-3.79075 -10.2222 18.0065 0.409482 -0.0532152 -0.910765
-6.14838 -8.3445 12.8004 0.998638 0.0306221 -0.0422442
-4.34269 -10.1756 10.3532 0.0574804 0.76062 0.646648
-0.359 -11.5591 12.3024 -0.345776 0.698796 0.626197
-5.04875 -7.88225 16.3645 0.850945 -0.254382 -0.459545
0.35525 -11.5347 13.7522 -0.562823 0.806709 0.18014
0.243813 -11.8969 14.8194 -0.612517 0.78779 -0.0648907
-4.30062 -7.94225 17.1379 0.324397 -0.263037 -0.908613
-0.125625 -11.4201 16.4508 -0.505807 0.513905 -0.692864
-3.23534 -8.48941 17.304 0.0843109 -0.374124 -0.923538
-2.68175 -10.0616 18.0147 -0.147886 -0.169386 -0.974391
-1.33125 -10.4866 11.3071 -0.287108 0.373615 0.882032
-5.77 -8.44 10.563 0.951713 0.306736 0.0124313
0.863875 -10.9526 12.4683 -0.584743 0.680737 0.441217
-5.27969 -9.23044 9.6165 0.552825 0.793218 0.255323
-1.69675 -10.2355 17.6903 -0.451623 0.102526 -0.886298
-3.57711 -9.55381 9.77205 -0.197054 0.922204 0.33273
-4.87 -7.05025 15.4299 0.602014 -0.722362 -0.340253
-4.4885 -6.99975 16.5465 0.437605 -0.720127 -0.538441
-0.02625 -10.5835 11.7972 -0.321326 0.311059 0.894423
-4.83238 -6.22475 14.045 0.337459 -0.863933 -0.373821
1.3825 -10.685 14.0083 -0.884948 0.461274 -0.0639818
-5.725 -6.1115 13.164 0.778413 -0.53643 -0.326062
-6.14825 -6.61194 11.79 0.929507 -0.355159 -0.0993885
-1.88644 -9.22363 10.6494 -0.616614 0.425512 0.662365
-6.10838 -7.2915 10.8197 0.978062 0.207388 -0.01962
0.578125 -10.3691 16.4349 -0.656737 0.0802966 -0.749832
1.146 -10.677 15.4235 -0.849498 0.391589 -0.353568
-2.83406 -7.02481 16.3614 -0.213924 -0.73017 -0.648913
-2.77375 -9.09387 9.28175 -0.625672 0.758327 0.182961
-1.70119 -8.70938 17.1994 -0.367204 -0.522871 -0.769264
-6.14975 -8.38775 9.2365 0.864514 0.496605 -0.0774548
-0.571625 -9.07475 11.6154 -0.446835 -0.276825 0.850709
-3.82663 -9.5445 8.57913 -0.0289599 0.975135 0.219709
-5.05225 -9.12525 8.24525 0.439157 0.814084 0.380011
-3.731 -6.37675 15.2506 0.146035 -0.903592 -0.402736
-6.27887 -7.16625 9.82987 0.968248 0.150609 -0.199533
-5.308 -5.77575 12.31 0.323934 -0.933786 -0.152023
1.0125 -9.58212 11.8576 -0.547629 -0.0482876 0.835327
1.891 -9.97425 13.0087 -0.975146 0.0577273 0.213912
-1.463 -8.376 11.3333 -0.806276 -0.255371 0.533577
1.30375 -9.7405 15.091 -0.953067 -0.0709761 -0.294322
-0.464 -8.9755 16.604 -0.386586 -0.387961 -0.836683
-6.109 -8.09013 8.2005 0.704026 0.548252 0.451407
-1.71375 -7.84975 10.351 -0.959066 -0.0283712 0.281756
0.859375 -9.032 16.0446 -0.710914 -0.271388 -0.648807
-4.92338 -5.55363 11.0901 0.467586 -0.821285 -0.326885
-2.13225 -8.094 9.39625 -0.947777 0.184363 0.260248
-3.04312 -9.22025 8.00725 -0.450346 0.747347 0.488529
-1.40675 -8.23525 16.089 -0.400395 -0.658658 -0.637066
1.367 -8.79813 14.2028 -0.938835 -0.300511 -0.168172
-2.78744 -5.99862 13.4154 -0.0566234 -0.97951 -0.193273
-6.60156 -7.33588 8.79594 0.994857 0.0992303 0.0203263
-6.17556 -5.75075 9.81419 0.879245 -0.409227 -0.243849
-2.162 -8.0945 7.9165 -0.909633 0.295624 0.291845
-4.2395 -8.5735 7.08169 0.129076 0.635443 0.761282
-1.30838 -7.12044 15.2753 -0.452784 -0.683757 -0.572243
1.14525 -8.562 12.9073 -0.669011 -0.647723 0.364526
-0.950875 -7.54581 12.4346 -0.632297 -0.545991 0.549632
-2.68963 -5.70463 12.3524 -0.260663 -0.948494 -0.180039
-1.90625 -6.818 10.2917 -0.962724 -0.18519 0.197148
0.717875 -8.19975 15.5052 -0.62321 -0.649262 -0.435968
-1.91937 -6.21275 14.6142 -0.314087 -0.892927 -0.322539
-6.22325 -6.96025 7.58225 0.827747 0.0783912 0.555599
-3.67925 -5.23994 10.9784 -0.0577555 -0.859388 -0.508052
-2.18438 -7.15963 8.50113 -0.97819 -0.0684411 0.19611
-1.52013 -6.21325 13.1946 -0.53448 -0.837967 0.110193
-1.7585 -6.495 11.9974 -0.875271 -0.44215 0.195971
-6.2445 -5.67425 8.35825 0.940384 -0.316391 0.124801
-2.81013 -7.37475 7.02338 -0.632572 0.310152 0.709689
-2.011 -5.875 11.0615 -0.733903 -0.671001 -0.105567
-4.69228 -7.21006 6.58134 0.412367 0.69768 0.585829
-5.271 -4.34734 9.45378 0.716884 -0.165769 -0.677199
-2.309 -6.189 8.945 -0.990824 0.123307 -0.0553434
-5.79563 -5.69025 7.32412 0.957859 0.0303151 0.285636
0.031 -7.35913 13.8882 -0.612271 -0.790601 0.00867966
-2.3525 -6.17938 7.56938 -0.928894 0.314033 0.196315
-2.61469 -4.94441 9.86416 -0.775368 -0.219062 -0.592297
-2.88225 -6.48225 6.32975 -0.654714 0.679947 0.330186
-3.67 -3.37725 10.0363 0.0528347 0.22804 -0.972217
-5.61875 -4.25737 7.6965 0.978629 0.118664 -0.167943
-3.716 -6.85975 5.448 -0.263335 0.865654 0.425791
-6.111 -5.624 6.089 0.902457 0.418943 -0.100291
-4.73887 -2.95038 10.0363 0.215907 0.495566 -0.841308
3 100 111 107
3 106 99 97
3 99 91 71
3 91 99 102
3 102 99 110
3 96 108 100
3 100 107 92
3 104 97 93
3 104 93 101
3 99 71 83
3 74 100 92
3 92 87 65
3 101 88 105
3 88 72 95
3 95 72 68
3 93 75 88
3 72 52 68
3 44 42 30
3 57 61 44
3 61 42 44
3 71 62 83
3 64 40 59
3 42 40 27
3 27 30 42
3 53 29 40
3 27 40 29
3 48 87 79
3 87 95 94
3 94 79 87
3 103 86 85
3 60 85 86
3 47 60 39
3 60 68 52
3 27 15 14
3 29 25 15
3 48 79 63
3 63 79 90
3 90 84 56
3 56 63 90
3 56 77 58
3 37 56 58
3 58 77 70
3 49 41 33
3 20 39 23
3 20 23 9
3 11 9 1
3 1 16 3
3 1 0 5
3 2 0 7
3 3 7 0
3 7 25 8
3 25 45 32
3 25 48 45
3 63 45 48
3 25 32 17
3 25 17 8
3 28 37 38
3 43 70 36
3 43 36 18
3 78 49 69
3 19 34 33
3 19 33 21
3 4 0 2
3 2 17 10
3 102 110 108
3 106 109 99
3 99 83 97
3 71 91 80
3 91 102 96
3 81 64 80
3 81 80 96
3 91 96 80
3 96 100 81
3 92 107 105
3 82 93 97
3 75 93 82
3 75 82 57
3 76 57 82
3 76 82 97
3 76 97 83
3 61 57 76
3 62 61 83
3 83 61 76
3 71 80 59
3 59 80 64
3 53 64 51
3 51 64 81
3 51 81 74
3 100 74 81
3 74 65 51
3 87 92 98
3 87 98 95
3 105 88 98
3 105 98 92
3 98 88 95
3 52 72 75
3 52 75 57
3 75 72 88
3 62 42 61
3 42 62 71
3 42 71 59
3 42 59 40
3 51 29 53
3 29 51 50
3 50 51 65
3 50 65 48
3 94 95 86
3 90 103 84
3 94 103 90
3 103 94 86
3 66 85 60
3 66 60 47
3 52 39 60
3 52 23 39
3 30 16 23
3 16 30 27
3 16 27 14
3 7 3 14
3 7 14 15
3 7 15 25
3 50 25 29
3 48 25 50
3 90 79 94
3 63 56 45
3 45 56 46
3 45 46 32
3 56 37 35
3 56 35 46
3 46 35 32
3 73 89 69
3 89 73 70
3 89 70 77
3 78 69 89
3 78 89 85
3 85 89 103
3 103 89 84
3 84 89 77
3 49 67 41
3 41 67 66
3 67 85 66
3 47 41 66
3 78 85 67
3 78 67 49
3 21 33 41
3 21 41 31
3 31 41 47
3 20 21 31
3 20 31 39
3 39 31 47
3 21 20 11
3 9 11 20
3 16 1 9
3 16 9 23
3 14 3 16
3 37 17 35
3 35 17 32
3 10 22 13
3 22 10 28
3 37 28 17
3 17 28 10
3 38 26 28
3 28 26 22
3 13 22 26
3 13 26 18
3 43 26 38
3 70 43 58
3 58 43 38
3 58 38 37
3 54 36 70
3 55 36 54
3 55 54 69
3 69 54 73
3 73 54 70
3 34 36 55
3 34 55 49
3 49 55 69
3 11 19 21
3 18 24 12
3 12 24 11
3 12 11 5
3 11 24 19
3 18 6 13
3 6 12 5
3 12 6 18
3 4 13 6
3 4 6 0
3 0 6 5
3 10 13 4
3 2 10 4
3 24 18 36
3 24 34 19
3 34 24 36
3 102 108 96
3 97 104 106
3 74 92 65
3 93 88 101
3 53 40 64
3 65 87 48
3 68 86 95
3 68 60 86
3 52 30 23
3 27 29 15
3 84 77 56
3 3 0 1
3 49 33 34
3 1 5 11
3 7 8 2
3 2 8 17
3 43 18 26
3 52 57 44
3 52 44 30
