ply
format ascii 1.0
comment Generated by PyMesh
element vertex 200
property float x
property float y
property float z
property float charge
property float ddc
property float hbond
property float hphob
property float rho
property float si
property float theta
property float nx
property float ny
property float nz
element face 343
property list uchar int vertex_indices
end_header
-0.949313 -4.12856 7.11919 0.359443 0 0 -0.584002 1e-08 -0.611672 2.22045e-16 -0.913709 0.35722 0.193727
-0.7125 -3.14287 6.77037 0.40072 -0.184091 0 -1 1.07207 -0.786713 1.84645 -0.909629 0.176453 0.376085
-1.69987 -5.249 6.81862 0.450617 -0.201383 0.09057 -0.79922 1.38169 -0.615685 4.4721 -0.818807 0.560268 0.125122
-1.03 -3.787 8.5425 0.191599 -0.482417 -0.000550657 -0.0888889 1.46594 -0.66072 2.22045e-16 -0.841293 0.29785 -0.451123
-1.476 -3.1625 5.95813 0.62033 -0.335599 0.397828 -1 1.5996 0.0432137 2.50792 -0.693237 0.143144 0.706351
-1.81662 -4.56588 5.56887 0.41354 -0.195564 0.340609 -1 1.82947 -0.672701 3.52677 -0.783066 0.239221 0.574091
-0.620125 -2.47038 8.16737 0.103473 -0.217164 -0.60344 -0.38732 1.98912 -0.131727 0.891005 -0.933496 0.310793 -0.178866
-0.945625 -1.96769 6.20687 0.41249 -0.119627 0 -1 2.39605 0.0726819 1.93211 -0.792355 0.33976 0.506693
-2.3525 -6.17938 7.56938 0.610377 0.0241619 0.281908 -0.506213 2.74374 0.253721 4.7565 -0.928894 0.314033 0.196315
-2.817 -4.43525 4.809 0.438413 -0.236308 0.745353 -1 3.09249 -0.632374 3.38495 -0.582432 0.0504241 0.811314
-1.8625 -1.868 5.281 0.414427 -0.164592 0 -1 3.11077 0.454107 2.33649 -0.642916 0.358324 0.676951
-2.88225 -6.48225 6.32975 0.59626 -0.139865 0.800479 -1 3.15874 0.105173 4.32861 -0.654714 0.679947 0.330186
-0.47025 -1.53 9.122 -0.106855 0.222219 -0.47734 -0.0888889 3.33749 0.17356 0.817234 -0.559631 0.807507 -0.186402
-2.69287 -5.83144 5.22319 0.455863 -0.146202 0.425143 -1 3.34909 -0.739062 3.88249 -0.654214 0.459018 0.601088
-0.030375 -1.28225 7.4885 0.122921 0.223018 0.00467234 -0.980047 3.4792 0.180699 1.33251 -0.531229 0.845946 0.0465979
-1.62925 -2.0845 9.506 -0.3736 -0.244068 -0.239979 -0.0888889 3.5119 0.693731 0.433003 -0.672234 0.587866 -0.450016
-3.12075 -3.278 4.64725 0.334693 -0.192173 0 -1 3.70601 0.461773 3.02658 -0.612575 0.0962018 0.784536
-2.309 -6.189 8.945 0.43995 0.123479 0 -0.0888889 3.78505 0.159897 5.21666 -0.990824 0.123307 -0.0553434
-2.61469 -4.94441 9.86416 0.323553 -0.30671 0 -0.0888889 3.83187 0.0684234 5.69708 -0.775368 -0.219062 -0.592297
-2.55194 -2.87169 10.2829 0.0562423 -0.293728 -0.338533 -0.154071 3.95252 -0.147396 0.0125139 -0.412992 0.578452 -0.703442
-0.04025 -0.651 6.15987 0.19916 0.210249 0 -1 3.99467 0.193422 1.71533 -0.333882 0.706318 0.62421
-2.18438 -7.15963 8.50113 0.52569 0.114858 0 -0.0888889 4.10657 -0.211752 5.01045 -0.97819 -0.0684411 0.19611
-2.81013 -7.37475 7.02338 0.598937 -0.143048 0.0306396 -1 4.1353 -0.310992 4.56327 -0.632572 0.310152 0.709689
-3.2065 -2.32675 4.27975 0.130018 -0.11624 0 -1 4.15109 0.539275 2.82027 -0.661631 0.374437 0.649648
-3.716 -6.85975 5.448 0.579937 -0.202601 0.268141 -1 4.42962 -0.999864 4.08335 -0.263335 0.865654 0.425791
-2.31381 -1.10175 4.2515 0.100769 0.0928897 0 -1 4.47117 0.465965 2.47858 -0.672386 0.636115 0.37849
-3.95025 -4.98125 4.1915 0.403797 -0.200314 0.703378 -1 4.49381 -0.439848 3.5185 -0.364018 0.223478 0.904184
-1.46512 -0.271688 4.48956 0.241391 0.0960114 0 -1 4.86495 0.332596 2.20534 -0.643815 0.680922 0.349067
-0.426 -1.17206 10.6077 -0.082501 0.192102 0 -0.0888889 4.86634 0.701762 0.639925 -0.363504 0.925447 -0.106831
-4.05363 -3.21913 3.93375 0.0999057 -0.0958499 0 -1 4.88194 0.525863 3.11013 -0.710511 0.29783 0.637551
-4.09312 -6.05037 4.4095 0.490923 -0.215696 0 -1 4.98333 -0.999878 3.77689 -0.137521 0.544987 0.827089
0.94725 -0.8885 9.82619 0.196768 0.222096 0.025898 -0.0888889 5.04533 0.0536257 0.857911 -0.162998 0.986589 -0.00857057
-1.991 -1.967 11.037 -0.109312 -0.191777 0 -0.2 5.08944 0.0152856 0.248776 -0.456314 0.833743 -0.310886
1.572 -0.953875 7.497 0.332302 0.30175 0.197939 -0.676238 5.11489 0.159922 1.31078 0.0473165 0.987682 -0.149147
-4.69228 -7.21006 6.58134 0.7131 -0.289528 0.096704 -0.777778 5.12577 -0.0381626 4.28757 0.412367 0.69768 0.585829
-3.648 -2.5685 10.791 0.102482 -0.273658 0 -0.2 5.19809 0.243116 6.20703 0.0512143 0.888126 -0.456737
-3.67 -3.37725 10.0363 0.238417 -0.384488 0 -0.2 5.20411 0.259178 6.03956 0.0528347 0.22804 -0.972217
-2.162 -8.0945 7.9165 0.50133 0.0124481 0 -0.0888889 5.20942 -0.999892 4.82546 -0.909633 0.295624 0.291845
1.475 -1.086 6.477 0.206609 0.289087 0 -1 5.30342 -0.482249 1.46025 0.0342105 0.968835 0.245335
-1.90625 -6.818 10.2917 0.36039 0.12202 -0.276012 -0.372184 5.325 -0.273895 5.30732 -0.962724 -0.18519 0.197148
0.959188 -0.337687 5.328 0.221576 0.282784 0 -1 5.33223 0.471389 1.70148 0.259281 0.892907 0.368089
-0.8 0.19875 5.3555 0.085571 0.193916 0 -1 5.38978 0.999928 1.95335 -0.210525 0.880777 0.42416
-3.67925 -5.23994 10.9784 0.37313 -0.339507 0 -0.2 5.401 -0.054301 5.79942 -0.0577555 -0.859388 -0.508052
-2.13225 -8.094 9.39625 0.419197 0.031904 0 0.107925 5.40156 -0.0980801 5.11466 -0.947777 0.184363 0.260248
1.37888 -0.50825 8.64587 0.109163 0.257264 0.781538 -0.0888889 5.46025 0.999862 1.11901 0.0043209 0.99807 -0.0619493
-2.011 -5.875 11.0615 0.37523 0.242612 -0.0252554 -0.253553 5.46407 -0.495688 5.59855 -0.733903 -0.671001 -0.105567
-3.709 -1.9195 3.02475 -0.0954547 0.0526306 0 -1 5.56296 0.676436 2.84627 -0.766861 0.573532 0.288072
-4.75725 -4.3725 3.745 0.240903 -0.161895 0 -1 5.59888 0.137715 3.39302 -0.31198 0.546455 0.77721
-1.74025 -0.45925 3.509 0.184182 0.115846 0 -1 5.60831 0.0285848 2.35528 -0.563464 0.812844 0.147625
-5.116 -5.535 4.308 0.53344 -0.242349 0.132085 -1 5.78964 -0.573461 3.63892 0.188106 0.463336 0.865988
-3.47725 -2.18625 11.8475 0.0116938 -0.177426 0 -0.2 5.8952 -0.07272 0.00852344 -0.3464 0.841313 -0.414969
-5.07044 -6.35375 5.00331 0.6309 -0.266596 0.265465 -0.957747 5.94233 -0.625621 3.89578 0.358455 0.754102 0.55031
-4.2395 -8.5735 7.08169 0.515497 -0.216369 0 -0.918367 6.00171 -0.999835 4.28757 0.129076 0.635443 0.761282
0.656875 -0.954625 11.0969 0.257629 0.183559 0 -0.0888889 6.07432 0.407777 0.639925 -0.172353 0.969797 0.17259
-3.04312 -9.22025 8.00725 0.43946 -0.119112 0 0.844444 6.23962 -0.999875 4.82546 -0.450346 0.747347 0.488529
-2.33325 -1.6125 12.1005 0.0651217 -0.19039 0.0357752 -0.134356 6.26155 -0.221343 0.248776 -0.27871 0.82363 -0.493918
-4.73887 -2.95038 10.0363 0.168411 -0.320375 0 -0.2 6.35506 0.440618 6.03956 0.215907 0.495566 -0.841308
-0.977813 -1.33644 11.9819 0.0576827 0.205187 0 -0.155669 6.35629 -0.143982 0.639925 -0.0664935 0.980925 -0.18266
-0.718125 0.07225 3.22962 0.185243 0.177263 0.0196117 -1 6.36953 0.40985 2.35528 -0.184456 0.982365 -0.0305915
-1.71375 -7.84975 10.351 0.248422 0.0727627 -0.236758 -0.347251 6.37623 -0.791293 5.30732 -0.959066 -0.0283712 0.281756
-4.561 -3.0465 2.529 0.146464 -0.036079 0.0175719 -1 6.38545 0.268546 2.84627 -0.805122 0.509933 0.302898
-0.033125 0.231 4.12725 0.321074 0.237221 0 -1 6.42526 0.559973 1.95335 0.120133 0.987108 -0.105764
2.43925 -0.98075 5.77775 0.0355903 0.301985 0 -1 6.49917 0.262274 1.46025 0.418149 0.902916 0.0994703
-2.77375 -9.09387 9.28175 0.433723 -0.0907513 0 0.844444 6.59503 -0.218317 5.11466 -0.625672 0.758327 0.182961
-1.7585 -6.495 11.9974 0.3505 0.141353 0 -1 6.61475 0.0230992 5.59855 -0.875271 -0.44215 0.195971
-4.98606 -4.13831 2.75444 0.0453553 -0.0620216 0 -1 6.64215 -0.448578 3.39302 -0.707196 0.630495 0.319921
-4.92338 -5.55363 11.0901 0.315841 -0.325426 0 -0.2 6.68892 0.080399 5.79942 0.467586 -0.821285 -0.326885
2.11538 -0.606875 10.9895 0.0126506 0.207801 0 -0.0888889 6.71779 0.999888 0.857911 0.181246 0.959523 0.21556
2.086 -0.48375 4.345 0.0228864 0.282633 0 -1 6.83467 0.65583 1.70148 0.497996 0.855802 -0.140014
3.03312 -1.56288 8.17488 0.181967 0.327023 0 -0.227267 6.83689 0.0566503 1.31078 0.589905 0.806294 0.0436145
-2.68963 -5.70463 12.3524 0.373157 -0.261073 0 -0.2 6.9324 -0.389516 5.59855 -0.260663 -0.948494 -0.180039
2.82544 -1.15769 9.54619 0.00558137 0.297667 0 -0.0888889 6.96326 0.459066 1.11901 0.599762 0.800153 -0.00639302
-6.22325 -6.96025 7.58225 0.517227 -0.296748 0 -0.777778 6.97188 -0.999844 4.28757 0.827747 0.0783912 0.555599
-6.183 -5.011 4.536 0.226191 -0.227714 0.967173 -1 7.00003 0.0722563 3.63892 0.30348 0.907268 0.291145
-1.88644 -9.22363 10.6494 0.397807 0.0818731 0 0.844444 7.10652 -0.0799102 5.11466 -0.616614 0.425512 0.662365
-4.00506 -2.0625 1.51047 -0.0901213 -0.052867 0.0411343 -0.905249 7.11252 -0.520918 2.84627 -0.716805 0.620311 0.318442
-5.79563 -5.69025 7.32412 0.66977 -0.371239 0.297821 -0.863844 7.14541 0.225146 4.28757 0.957859 0.0303151 0.285636
-5.271 -4.34734 9.45378 0.429117 -0.394117 0 -0.2 7.16462 0.0790899 6.03956 0.716884 -0.165769 -0.677199
-3.15875 -1.42963 12.8542 0.0612547 -0.14369 0.542764 0.4 7.19419 0.166984 0.00852344 -0.499533 0.666475 -0.553423
-1.72213 0.01675 1.9555 0.108835 0.169401 0.0848011 -1 7.2332 0.64803 2.35528 -0.115851 0.963367 -0.241872
1.33506 -1.27988 11.9929 0.171192 0.21284 0 -0.184761 7.24417 0.187838 0.639925 0.263704 0.797677 0.542376
-3.82663 -9.5445 8.57913 0.41984 -0.173264 0 0.913713 7.2624 -0.8139 4.82546 -0.0289599 0.975135 0.219709
-6.111 -5.624 6.089 0.57352 -0.337781 0.517632 -0.801127 7.30998 -0.586464 4.28757 0.902457 0.418943 -0.100291
-6.109 -8.09013 8.2005 0.609747 -0.248792 0.0100599 -0.777778 7.45027 -0.999782 4.28757 0.704026 0.548252 0.451407
-1.463 -8.376 11.3333 0.176508 0.10952 -0.105314 -1 7.51847 0.32598 5.30732 -0.806276 -0.255371 0.533577
-5.82725 -2.50425 9.9965 0.16658 -0.24147 0 -0.2 7.51854 0.279194 6.20703 0.185066 0.85031 -0.49267
-5.05225 -9.12525 8.24525 0.259349 -0.219247 0.0785852 0.778944 7.5245 -0.999817 4.28757 0.439157 0.814084 0.380011
-5.308 -5.77575 12.31 0.303794 -0.259726 0 -0.2 7.57196 -0.624294 5.79942 0.323934 -0.933786 -0.152023
-1.63806 -0.748062 12.9071 0.207123 -0.204835 0 0.0257813 7.63309 0.00689755 0.248776 -0.00624998 0.683988 -0.729466
-3.57711 -9.55381 9.77205 0.436577 -0.141232 0 0.913024 7.64257 0.132051 5.11466 -0.197054 0.922204 0.33273
-0.191813 -0.267 2.11812 0.0607867 0.260748 0.659205 -1 7.64527 0.662065 2.35528 0.49384 0.656019 -0.570755
-4.69075 -2.53175 13.1115 -0.183255 -0.123292 0 -0.2 7.68116 -0.383292 0.00852344 -0.350228 0.931539 -0.0978508
-5.19125 -3.15313 1.31638 -0.263014 -0.0682753 0 -0.777778 7.75623 -0.201481 3.39302 -0.612573 0.506803 0.606552
-1.52013 -6.21325 13.1946 0.52676 0.191502 0 -0.2 7.86754 -0.524356 5.59855 -0.53448 -0.837967 0.110193
-6.2165 -2.099 11.352 -0.0479317 -0.155537 0 -0.2 7.86873 0.734313 6.20703 -0.0671779 0.99727 0.0306544
2.8865 -1.308 4.4665 -0.0228323 0.333411 0 -1 7.92272 0.87811 1.46025 0.783732 0.484477 -0.388647
-3.356 -0.991 0.877 -0.00981507 0.084683 0.581518 -1 7.9293 0.31769 2.84627 -0.552038 0.825476 0.117657
-0.27 -0.883 13.3573 0.187824 -0.236617 0 -0.2 7.96822 -0.074031 0.639925 0.52276 0.654727 -0.545943
3.51962 -1.40988 6.73475 -0.0179534 0.291996 0 -1 8.00489 0.492425 1.46025 0.511254 0.858688 0.0357044
-0.950875 -7.54581 12.4346 0.0322214 0.152841 -0.245019 -1 8.01031 0.0521168 5.59855 -0.632297 -0.545991 0.549632
1.19456 -0.592 3.51119 0.232144 0.314338 0 -1 8.02654 0.293775 1.70148 0.551665 0.532234 -0.642178
-2.78744 -5.99862 13.4154 0.311591 -0.238261 0 -0.2 8.03963 -0.106675 5.59855 -0.0566234 -0.97951 -0.193273
-6.11369 -4.90406 2.41894 0.0869857 0.0694233 0 -1 8.04589 0.106526 3.39302 -0.720725 0.693096 -0.0131379
3.34275 -2.1375 9.62875 -0.085986 0.343235 0 -0.0888889 8.07432 0.296307 1.11901 0.924517 0.35699 0.133518
3.3575 -2.14669 5.14825 -0.036672 0.349713 -0.0594659 -0.569476 8.11127 -0.208989 1.46025 0.717591 0.496725 -0.488187
3.03731 -1.60906 11.3639 0.0088269 0.274079 0 -0.0888889 8.13006 0.999849 0.857911 0.822196 0.430406 0.372484
-6.624 -4.5115 5.5635 0.468287 -0.28408 0 -0.866667 8.22467 0.1465 3.63892 0.517749 0.639978 -0.567772
-4.77881 -2.13075 0.714437 -0.363993 -0.107029 0 -0.777778 8.22473 -0.109836 2.84627 -0.286221 0.75919 0.584558
-6.2445 -5.67425 8.35825 0.839817 -0.347369 0.48189 -0.866667 8.27287 -0.593974 4.28757 0.940384 -0.316391 0.124801
-6.60156 -7.33588 8.79594 0.630253 -0.287926 0 -0.256651 8.29749 -0.999867 4.28757 0.994857 0.0992303 0.0203263
3.951 -2.715 8.351 0.00131711 0.323125 0 -1 8.32044 -0.112759 1.31078 0.766733 0.415315 0.489524
-2.21075 -0.4225 1.029 -0.00208364 0.182008 0 -1 8.36902 0.59718 2.35528 0.0284243 0.863057 -0.504307
-5.76875 -4.03025 1.206 -0.335113 -0.0595563 0.547276 -1 8.38052 -0.502144 3.39302 -0.659128 0.428587 0.617951
0.721 -1.61625 13.153 0.124071 0.231256 0 -0.2 8.43853 -0.13008 0.639925 0.550536 0.834086 0.034786
-6.14825 -6.61194 11.79 0.412833 -0.268828 0 -0.120257 8.45249 -0.444363 5.79942 0.929507 -0.355159 -0.0993885
-3.69738 -1.33834 13.9881 0.059151 -0.098729 0.407209 0.4 8.45283 -0.414425 0.00852344 -0.730711 0.470451 -0.494709
-7.58725 -5.17525 4.094 -0.0551233 -0.175563 0.672859 -1 8.48134 0.185181 3.63892 -0.109349 0.717811 -0.687598
-6.17556 -5.75075 9.81419 0.51025 -0.327578 0 -0.0888889 8.48746 -0.485206 5.79942 0.879245 -0.409227 -0.243849
-6.14975 -8.38775 9.2365 0.642467 -0.257147 0 0.597371 8.52895 -0.682244 4.28757 0.864514 0.496605 -0.0774548
-5.725 -6.1115 13.164 0.28495 -0.249358 0 -0.199861 8.5799 -0.999881 5.79942 0.778413 -0.53643 -0.326062
-1.33125 -10.4866 11.3071 0.442793 0.116339 0 0.844444 8.63488 -0.463431 5.11466 -0.287108 0.373615 0.882032
-5.61875 -4.25737 7.6965 1 -0.41345 0.473898 -0.866667 8.63642 0.429686 4.28757 0.978629 0.118664 -0.167943
-6.951 -2.5145 9.9525 0.198646 -0.193555 0 -0.2 8.6432 -0.0955885 6.20703 0.21621 0.976343 0.00262576
-0.571625 -9.07475 11.6154 0.316279 0.144882 -0.00596384 -0.972213 8.68568 -0.150563 5.11466 -0.446835 -0.276825 0.850709
-1.22113 0.0809375 13.5485 0.0400333 -0.214649 0 0.4 8.76113 -0.0746796 0.248776 0.27894 0.353428 -0.892906
-4.34269 -10.1756 10.3532 0.501757 -0.14768 0 0.960233 8.78732 -0.382665 5.11466 0.0574804 0.76062 0.646648
-5.72906 -2.47112 12.6509 -0.209615 -0.142078 0 -0.2 8.81866 -0.310485 0.00852344 -0.0788777 0.986902 0.140719
-4.765 -2.518 14.248 -0.200502 -0.108835 0 -0.2 8.82017 -0.84256 0.00852344 -0.364464 0.919285 -0.148599
-5.27969 -9.23044 9.6165 0.54384 -0.214791 0 1 8.91845 -0.152386 5.11466 0.552825 0.793218 0.255323
-0.79975 -1.2305 1.11688 0.0412627 0.260723 0 -1 8.99663 0.551999 2.35528 0.507433 0.424111 -0.750095
-6.351 -2.99425 8.68025 0.534287 -0.289217 0 -0.533636 9.01752 -0.0896829 6.20703 0.659098 0.746601 -0.0904267
-2.459 -0.96725 0.22375 -0.103466 0.21416 0.228537 -1 9.03921 0.116399 2.84627 0.479699 0.647816 -0.591796
2.24275 -1.929 3.53975 0.0433147 0.35294 0 -1 9.21071 0.604271 1.46025 0.6933 0.212984 -0.688457
-6.1225 -2.22088 0.649594 -0.113871 -0.0961208 0 -0.777778 9.23302 0.61095 2.84627 -0.336361 0.46711 0.817722
-3.26675 -0.6875 -0.423 -0.190921 0.163201 0.722465 -0.983376 9.26723 0.282955 2.84627 0.350569 0.931317 0.0987386
-6.46925 -5.10881 1.25181 -0.019668 -0.0330911 0 -0.880138 9.28304 -0.259342 3.39302 -0.779521 0.411465 0.472275
-1.91937 -6.21275 14.6142 0.51438 -0.188349 0.0700813 -0.50916 9.34221 -0.761247 5.59855 -0.314087 -0.892927 -0.322539
-7.5915 -4.8935 5.11925 -0.00991547 -0.225264 0.514298 -0.866667 9.35575 -0.813618 3.63892 0.355514 0.720587 -0.595285
4.56938 -2.1575 7.145 -0.258245 0.250153 -0.840588 -0.0888889 9.35738 0.365915 1.46025 0.477344 0.777147 0.410104
-6.27887 -7.16625 9.82987 0.573587 -0.289237 0 -0.0888889 9.39381 -0.176118 4.28757 0.968248 0.150609 -0.199533
-4.83238 -6.22475 14.045 0.203985 -0.223625 0 -0.172968 9.42616 -0.343419 5.79942 0.337459 -0.863933 -0.373821
2.98381 -2.79806 11.9629 -0.0177105 0.275513 0 -0.0888889 9.4625 0.0389693 0.857911 0.843361 0.450121 0.293484
4.801 -3.417 7.9905 -0.255546 0.284357 -0.0430202 -0.207648 9.48029 0.395068 1.31078 0.640606 0.00382163 0.76786
-2.90569 0.68025 13.7451 0.049932 -0.160728 0 0.4 9.49839 0.0684272 0.00852344 -0.312653 0.115108 -0.942867
3.38225 -3.56625 9.8885 -0.149365 0.37056 0 -0.0888889 9.52703 -0.133335 1.11901 0.981964 0.029861 0.186693
4.58988 -2.194 5.96825 -0.29524 0.263042 -0.031074 -0.0888889 9.53715 0.528813 1.46025 0.446627 0.807744 -0.384803
2.2445 -2.9305 13.324 -0.0321753 0.21379 -0.242896 -0.0993964 9.55143 -0.199769 0.639925 0.529716 0.796814 0.29067
3.2995 -3.28081 4.22056 -0.0171617 0.307906 -0.081763 -0.27626 9.57763 -0.705001 1.46025 0.431314 0.725613 -0.536147
-0.231688 -2.14738 1.6635 -0.134305 0.306534 0 -1 9.58024 -0.471375 2.35528 0.59426 0.351451 -0.723421
-4.0535 -1.33875 -0.59325 -0.5297 -0.0771771 0.271773 -0.877113 9.59335 -0.834148 2.84627 -0.436978 0.713172 0.548121
-3.302 -11.1471 11.4605 0.51537 -0.120469 0 0.844444 9.6287 -0.374138 5.11466 -0.0613465 0.694598 0.716778
-6.10838 -7.2915 10.8197 0.50502 -0.269437 0 -0.0888889 9.63776 0.0510481 5.79942 0.978062 0.207388 -0.01962
-5.4955 -1.4115 -0.29125 -0.232636 -0.1107 0 -0.777778 9.65385 0.709193 2.84627 -0.0858229 0.803203 0.58949
-0.118719 0.483594 14.4014 -0.026709 -0.219898 0 0.4 9.69467 0.265661 0.639925 0.788998 0.16338 -0.592275
-7.01625 -5.99675 3.2625 0.0142378 0.103791 -0.13483 -0.961342 9.69518 -0.678956 3.63892 -0.752426 0.433991 -0.495487
-3.83075 -0.304 14.6757 -0.026281 -0.128369 -0.0434052 0.446411 9.70201 -0.560929 0.00852344 -0.607594 -0.0369576 -0.793388
-7.99203 -2.64528 11.2072 0.106454 -0.135466 0 -0.2 9.73204 -0.397675 6.20703 -0.0144315 0.992396 0.122235
0.031 -7.35913 13.8882 0.636333 0.156608 0.318217 -0.960587 9.77437 -0.484615 5.59855 -0.612271 -0.790601 0.00867966
-6.4485 -3.06988 6.36562 0.82373 -0.303406 0.232478 -0.866667 9.88373 0.999867 3.63892 0.581447 0.599726 -0.549771
-5.77 -8.44 10.563 0.568423 -0.256163 0 -0.0888889 9.90972 0.23855 4.28757 0.951713 0.306736 0.0124313
0.797 -2.31962 2.351 -0.0210074 0.322814 0 -1 9.93552 -0.218159 2.35528 0.561588 0.496239 -0.662092
1.41825 -2.4965 14.165 -0.0174466 0.224919 -0.188425 -0.2 9.9502 -0.577821 0.639925 0.754722 0.655694 0.021473
-8.94312 -4.58262 4.06213 -0.560117 -0.2127 -0.0572364 -0.777778 9.96141 0.0691205 3.63892 0.560501 0.160938 -0.812366
-5.90675 -2.65587 14.3011 -0.117535 -0.134226 0 -0.2 9.97144 -0.7564 0.00852344 0.000315313 0.991663 -0.12886
-7.69875 -3.17213 5.98338 0.781853 -0.229019 0.112886 -0.866667 9.99252 0.118032 3.63892 0.299425 0.616534 -0.728169
-8.35437 -4.16412 4.94775 -0.453847 -0.221654 -0.475452 -0.816929 10.011 -0.0223487 3.63892 0.570471 0.599126 -0.561793
-0.02625 -10.5835 11.7972 0.48142 0.108579 0 0.844444 10.0322 -0.487368 5.11466 -0.321326 0.311059 0.894423
-5.15737 -2.20863 15.3814 -0.0770677 -0.12326 -0.423582 0.4 10.0588 -0.999859 0.00852344 -0.285748 0.688131 -0.666951
-7.96863 -6.67513 3.78638 -0.661683 -0.141024 -0.306906 -0.777778 10.0592 -0.999901 3.63892 -0.299107 0.692448 -0.656544
-8.08497 -1.88934 9.36447 0.207993 -0.192956 0 -0.866667 10.0653 -0.139227 6.20703 0.524179 0.786561 0.326433
-7.02675 -3.451 0.24375 -0.00575907 -0.0869845 0 -0.777778 10.0669 -0.510175 3.39302 -0.433467 0.192387 0.880394
-3.731 -6.37675 15.2506 0.378683 -0.19708 0 -0.2 10.1375 -0.78274 5.59855 0.146035 -0.903592 -0.402736
-6.187 -2.8705 7.317 0.785327 -0.322106 0.122961 -0.866667 10.1825 0.873616 4.28757 0.76518 0.638045 -0.0860097
0.461 -0.8215 15.4971 -0.179853 0.202113 -0.262187 -0.00454918 10.2303 0.0375989 0.639925 0.923269 0.377674 0.0702589
-7.35575 -6.70587 2.56169 -0.151647 -0.0672526 0 -0.485396 10.239 -0.712272 3.39302 -0.706322 0.699094 -0.111252
-9.01975 -6.191 4.01325 -0.53754 -0.18728 0 -0.777778 10.2393 -0.871548 3.63892 0.243692 0.223039 -0.943858
-1.37625 -11.8694 12.1976 0.44997 -0.107999 0 0.172882 10.2802 -0.701319 5.11466 -0.0962332 0.842831 0.529505
1.93 -2.83469 3.00187 -0.0310662 0.339103 0 -1 10.3095 -0.431676 1.46025 0.642221 0.532358 -0.551496
-3.848 -0.135 -1.112 -0.47056 -0.139784 -0 -0.777778 10.3245 0.162781 2.84627 0.267886 0.359465 0.89388
-5.6675 -9.7635 11.0267 0.39355 -0.209701 0 0.661547 10.3296 -0.536952 5.11466 0.829797 0.432144 0.353113
1.0125 -9.58212 11.8576 0.541577 0.104707 0 0.844444 10.3666 -0.999884 5.11466 -0.547629 -0.0482876 0.835327
1.14525 -8.562 12.9073 0.701093 0.133556 0.394016 -1 10.3872 -0.868068 5.59855 -0.669011 -0.647723 0.364526
-0.359 -11.5591 12.3024 0.46941 -0.0848986 0 0.0556884 10.3916 -0.631845 5.11466 -0.345776 0.698796 0.626197
-1.30175 1.72675 13.5933 -0.0387437 -0.187171 0 0.4 10.4095 0.635166 0.248776 0.251486 0.358882 -0.898865
-4.3105 -11.2565 11.5763 0.575097 -0.150558 0 -0.0888889 10.4199 -0.758212 5.11466 0.336622 0.872277 0.354709
-7.16125 -2.234 7.76575 0.524633 -0.245331 0.104137 -0.866667 10.4565 0.213785 6.20703 0.557123 0.812604 -0.171138
-6.14838 -8.3445 12.8004 0.305386 -0.222562 0 -0.0888889 10.4581 -0.577007 5.79942 0.998638 0.0306221 -0.0422442
-7.0405 -6.171 0.85725 -0.132005 -0.0569834 0.00973336 -0.850191 10.552 -0.999867 3.39302 -0.60925 0.463412 0.643478
2.16725 -3.2545 14.2727 -0.0208384 0.188666 -0.619423 -0.0888889 10.5569 -0.966658 0.639925 0.449237 0.890676 0.069866
-1.30838 -7.12044 15.2753 0.716963 -0.159187 0.477581 -0.777778 10.6206 -0.300777 5.59855 -0.452784 -0.683757 -0.572243
-4.75675 0.05125 15.3105 -0.106209 -0.126957 -0.141506 0.669609 10.6442 -0.407501 0.00852344 -0.547288 -0.301542 -0.780735
-5.08962 -0.708 -1.25075 -0.420573 -0.0917612 0 -0.777778 10.6707 -0.212369 2.84627 -0.202241 0.655467 0.727642
0.46425 -2.99225 1.5145 -0.251264 0.271421 0 -0.711111 10.6849 -0.809341 2.35528 0.421954 0.7304 -0.537095
-7.47038 -4.79637 0.310625 -0.0074969 -0.0922345 0.103803 -0.00718982 10.6922 -0.545855 3.39302 -0.358296 0.193719 0.913289
-5.70131 -7.94219 14.2342 0.465197 -0.211727 0 -0.0888889 10.7006 -0.359134 5.79942 0.924738 -0.100025 -0.367226
-7.47087 -2.52638 13.4104 -0.0864843 -0.144531 0 -0.2 10.7197 -0.109034 0.00852344 0.181217 0.970668 -0.157999
5.789 -2.766 7.347 -0.314824 0.241365 -0.107915 -0.0888889 10.7353 0.999906 1.46025 0.725753 0.605547 0.326489
4.131 -4.5865 8.162 -0.181636 0.34971 -0.081085 -0.963871 10.839 -0.204549 1.31078 0.692427 -0.488939 0.53055
-4.18175 0.935375 14.1839 -0.0221448 -0.167539 0 0.924198 10.8717 -0.18944 0.00852344 -0.205217 -0.606615 -0.768052
3.53444 -5.20062 8.8055 -0.491873 0.391762 -0.276743 -1 10.8814 -0.0669946 1.31078 0.903262 -0.309875 0.296809
3 116 162 165
3 85 122 156
3 96 131 134
3 107 191 152
3 152 133 107
3 96 107 75
3 107 133 92
3 107 92 75
3 92 60 75
3 102 73 65
3 65 73 47
3 65 47 29
3 47 73 49
3 47 49 26
3 29 47 26
3 121 106 158
3 164 158 106
3 106 137 164
3 121 158 172
3 172 185 130
3 77 130 85
3 77 56 36
3 56 85 35
3 35 94 91
3 94 126 91
3 126 94 156
3 127 126 163
3 75 60 46
3 46 29 23
3 29 16 23
3 9 4 16
3 2 13 11
3 11 34 22
3 34 72 83
3 72 34 76
3 76 34 82
3 108 121 77
3 77 36 42
3 17 18 3
3 36 35 19
3 15 19 32
3 35 36 56
3 50 91 78
3 129 148 131
3 131 111 129
3 129 111 79
3 48 96 25
3 25 96 46
3 48 25 27
3 25 23 10
3 3 0 2
3 2 8 17
3 8 22 21
3 8 21 17
3 34 83 52
3 66 77 42
3 42 70 87
3 17 39 18
3 39 59 64
3 64 59 84
3 21 43 39
3 59 74 84
3 89 128 125
3 63 81 89
3 81 128 89
3 83 86 52
3 139 159 118
3 128 159 179
3 179 125 128
3 151 186 159
3 179 159 186
3 140 70 101
3 70 64 93
3 93 101 70
3 157 99 181
3 123 181 99
3 166 123 120
3 123 84 74
3 140 101 171
3 171 101 136
3 176 120 150
3 7 6 14
3 15 12 6
3 6 12 14
3 12 31 44
3 57 28 32
3 32 55 57
3 88 57 55
3 88 55 78
3 88 143 124
3 143 115 155
3 143 155 198
3 183 153 124
3 124 153 97
3 97 153 173
3 90 148 129
3 160 148 90
3 79 58 90
3 79 48 58
3 58 48 27
3 38 20 14
3 20 7 14
3 27 10 7
3 27 25 10
3 38 14 33
3 33 14 44
3 69 62 33
3 69 98 62
3 71 44 31
3 71 31 67
3 53 31 28
3 67 53 80
3 113 80 57
3 57 97 113
3 97 173 113
3 177 160 100
3 132 95 104
3 104 145 147
3 104 95 62
3 62 98 104
3 145 98 138
3 71 103 69
3 69 103 110
3 105 80 141
3 141 80 146
3 146 80 113
3 146 113 161
3 104 177 132
3 197 142 199
3 138 110 142
3 144 110 103
3 53 67 31
3 102 135 174
3 175 162 116
3 73 116 106
3 106 116 137
3 116 165 137
3 164 137 165
3 130 122 85
3 122 130 169
3 185 169 130
3 156 122 169
3 96 149 107
3 107 149 191
3 191 149 178
3 134 178 149
3 134 149 96
3 133 112 92
3 135 102 112
3 193 135 170
3 112 170 135
3 170 112 133
3 174 135 187
3 193 187 135
3 154 168 116
3 116 168 175
3 154 174 168
3 102 174 154
3 26 49 30
3 30 49 51
3 76 82 121
3 73 51 49
3 51 73 34
3 34 73 82
3 121 82 106
3 106 82 73
3 77 121 130
3 130 121 172
3 127 91 126
3 46 96 75
3 4 23 16
3 2 5 13
3 13 5 9
3 9 5 4
3 11 13 24
3 24 13 30
3 24 30 51
3 30 13 26
3 9 26 13
3 11 24 34
3 51 34 24
3 34 52 22
3 83 72 109
3 72 76 108
3 117 139 109
3 117 109 108
3 72 108 109
3 108 77 117
3 42 36 18
3 15 3 19
3 19 18 36
3 18 19 3
3 32 19 50
3 32 50 55
3 50 19 35
3 78 55 50
3 115 78 91
3 127 115 91
3 190 115 167
3 167 115 127
3 167 127 163
3 7 10 4
3 1 7 4
3 0 1 4
3 5 2 0
3 5 0 4
3 37 21 22
3 43 21 37
3 43 37 63
3 54 63 37
3 54 37 22
3 54 22 52
3 81 63 54
3 86 81 52
3 52 81 54
3 83 109 118
3 118 109 139
3 151 139 114
3 114 139 117
3 114 117 66
3 77 66 117
3 66 87 114
3 70 42 45
3 70 45 64
3 18 39 45
3 18 45 42
3 45 39 64
3 74 59 43
3 74 43 63
3 43 59 39
3 86 128 81
3 128 86 83
3 128 83 118
3 128 118 159
3 114 186 151
3 186 114 119
3 119 114 87
3 119 87 140
3 93 64 99
3 136 157 189
3 93 157 136
3 157 93 99
3 180 181 123
3 180 123 166
3 74 120 123
3 74 150 120
3 125 184 150
3 184 125 179
3 119 194 186
3 140 194 119
3 136 101 93
3 176 182 120
3 120 182 166
3 6 1 0
3 6 0 3
3 6 3 15
3 7 1 6
3 44 14 12
3 28 31 12
3 190 198 155
3 190 155 115
3 160 192 148
3 40 20 38
3 62 38 33
3 124 97 88
3 88 97 57
3 161 113 173
3 145 104 98
3 40 38 62
3 110 138 98
3 110 98 69
3 188 146 161
3 147 177 104
3 110 199 142
3 144 199 110
3 112 102 65
3 112 65 92
3 92 65 60
3 73 102 116
3 154 116 102
3 158 164 185
3 158 185 172
3 85 56 77
3 156 94 85
3 35 85 94
3 126 156 195
3 111 131 96
3 46 60 29
3 60 65 29
3 26 9 29
3 16 29 9
3 76 121 108
3 91 50 35
3 195 163 126
3 96 79 111
3 79 96 48
3 25 46 23
3 2 11 8
3 22 8 11
3 66 42 87
3 21 39 17
3 3 2 17
3 12 15 28
3 28 15 32
3 115 143 78
3 88 78 143
3 183 124 143
3 129 79 90
3 58 27 61
3 100 61 68
3 40 68 61
3 41 20 40
3 41 40 61
3 41 61 27
3 20 41 27
3 20 27 7
3 23 4 10
3 151 159 139
3 87 70 140
3 84 99 64
3 84 123 99
3 74 125 150
3 33 44 69
3 69 44 71
3 53 28 57
3 80 53 57
3 61 100 90
3 61 90 58
3 90 100 160
3 68 40 62
3 100 68 95
3 100 95 132
3 62 95 68
3 67 80 105
3 105 71 67
3 177 100 132
3 196 145 138
3 142 196 138
3 141 144 105
3 105 144 103
3 105 103 71
3 74 63 89
3 74 89 125
