ply
format ascii 1.0
comment Generated by PyMesh
element vertex 195
property float x
property float y
property float z
property float nx
property float ny
property float nz
element face 343
property list uchar int vertex_indices
end_header
-5.118 3.48338 7.91625 0.3476 -0.00663432 -0.937619
-5.0945 2.38025 8.52125 0.251057 -0.772446 -0.583351
-6.316 4.25462 7.96925 0.432233 0.0561925 -0.900009
-6.0835 2.4585 8.3595 0.00776644 -0.751767 -0.659383
-5.429 4.95425 8.40075 0.475472 0.186093 -0.859823
-3.84325 3.8935 8.8005 0.93407 0.220152 -0.281153
-3.975 2.80675 8.89725 0.737058 -0.577521 -0.351019
-4.487 4.90325 9.013 0.825406 0.350902 -0.442236
-7.07575 3.65275 7.62 0.364177 -0.385337 -0.847874
-5.243 2.07262 9.748 0.239633 -0.959016 -0.151212
-7.07212 2.2745 8.75 0.0164395 -0.918462 -0.395167
-5.69325 5.91012 8.27106 0.664743 -0.134648 -0.734838
-4.11125 3.07125 10.2505 0.957848 -0.280915 0.0601128
-7.23431 5.14437 6.95969 0.767064 -0.239082 -0.595359
-7.8825 2.953 7.627 0.482397 -0.698784 -0.528199
-4.4855 4.7605 10.415 0.953016 0.288411 -0.0926233
-8.06475 3.8725 6.61625 0.721615 -0.50556 -0.472948
-4.7865 6.549 9.07625 0.87788 0.0796129 -0.472216
-8.029 2.4285 9.085 -0.0963041 -0.992581 -0.0742225
-5.27513 7.20762 8.28475 0.841788 -0.0813768 -0.533639
-6.276 6.75625 7.29 0.643872 -0.169955 -0.746019
-4.76788 6.18337 10.7781 0.95694 0.275616 0.0911152
-4.76137 2.07962 11.2802 0.554042 -0.813106 -0.178594
-7.16862 2.01875 10.3194 -0.1478 -0.973047 -0.177015
-4.036 3.906 11.0367 0.922986 0.0195298 -0.384338
-8.7625 2.4195 8.222 0.280303 -0.957877 -0.062466
-7.404 5.35675 5.69225 0.866794 -0.042413 -0.49686
-4.20325 4.8255 11.4265 0.840367 0.417559 -0.345583
-8.85525 2.47675 6.7845 0.496342 -0.751685 -0.434297
-7.367 6.4385 6.487 0.623885 0.266605 -0.734635
-8.757 3.626 5.702 0.435516 -0.646049 -0.626855
-4.85875 7.80931 9.67869 0.929939 0.367517 -0.0120459
-9.33762 2.37037 9.08325 0.361501 -0.930176 -0.0639541
-8.35363 4.39925 5.14475 0.553966 -0.450632 -0.700037
-5.84188 7.74475 7.4035 0.638548 0.0627964 -0.767016
-6.839 7.65975 6.9485 0.198143 0.304855 -0.931559
-8.25669 2.225 10.649 0.102 -0.921986 -0.373547
-5.3165 8.4395 8.21025 0.854661 0.47559 -0.208251
-7.03288 1.72438 11.6827 0.166318 -0.974006 -0.15379
-4.608 6.026 11.9055 0.68848 0.718403 0.0994643
-5.77275 1.7585 11.7533 0.118718 -0.992596 -0.0256668
-8.154 5.62925 4.9585 0.487731 0.237295 -0.840124
-8.00813 7.16913 6.77863 0.0891756 0.582075 -0.80823
-8.1755 6.5375 5.8575 0.223966 0.704156 -0.673798
-3.25887 4.56738 12.2809 0.800686 0.402702 -0.443545
-5.77775 6.86275 11.781 0.440652 0.711641 0.547168
-5.20937 7.63662 11.2535 0.574562 0.510636 0.639632
-3.53912 2.96525 12.1566 0.718337 -0.495399 -0.488439
-3.95775 5.3385 12.688 0.646367 0.75457 -0.113288
-4.70913 2.10713 12.9949 0.223145 -0.9024 -0.368619
-10.2965 1.40625 7.82575 0.562055 -0.588037 -0.581642
-5.98362 9.13437 7.87575 0.444164 0.707763 -0.549354
-10.5476 1.928 6.92238 -0.197212 -0.846173 -0.495074
-10.4847 2.58538 5.91437 -0.122722 -0.723589 -0.679234
-9.66938 1.7765 10.3371 0.732011 -0.557361 -0.391801
-9.9465 4.2475 4.6095 0.189179 -0.524338 -0.83023
-10.4535 3.562 5.2365 -0.0918272 -0.622429 -0.77727
-9.3315 5.115 4.558 0.245796 0.272585 -0.930205
-6.00637 8.64087 10.2828 0.523481 0.755728 0.3935
-8.01325 8.09675 7.26675 -0.110508 0.426356 -0.89778
-5.1055 5.892 13.079 0.455329 0.8685 0.195915
-7.34856 8.94588 7.58531 0.00316209 0.609961 -0.792425
-7.6435 1.70875 13.037 0.439389 -0.897843 -0.0285534
-6.1695 9.04912 9.29037 0.568239 0.813934 0.120896
-6.464 1.99188 13.131 0.114109 -0.94543 -0.305189
-8.74413 1.04475 11.6525 0.462599 -0.739102 -0.489623
-9.16069 7.77887 7.31219 -0.293187 0.555426 -0.778167
-6.9995 6.861 12.373 0.417845 0.848023 0.32598
-2.55225 3.71012 13.1695 0.925513 0.107021 -0.36328
-5.53575 1.5295 13.741 -0.121869 -0.773495 -0.621975
-3.34713 4.98025 13.9406 0.690626 0.722087 -0.0403192
-6.98825 7.71238 11.3588 0.284614 0.651543 0.703197
-3.42144 2.20444 13.4284 0.306256 -0.504535 -0.80725
-10.6316 4.90987 4.26475 -0.153342 -0.327044 -0.932485
-10.1615 0.4705 8.58675 0.911713 0.337515 -0.234228
-10.0577 6.56725 6.45975 -0.210526 0.902033 -0.376849
-9.96212 0.7785 9.82487 0.984476 0.0508648 -0.167988
-8.84081 0.750188 12.7536 0.626112 -0.771068 -0.115926
-10.5411 0.020375 7.60388 0.449597 0.384052 -0.806453
-6.11206 6.23981 13.6939 0.492597 0.870215 0.00860477
-11.5653 3.48875 5.81225 -0.579591 -0.556343 -0.595447
-4.18175 0.935375 14.1839 -0.205217 -0.606615 -0.768052
-11.772 1.0155 8.0525 -0.0128847 -0.133187 -0.991007
-8.04775 1.27894 13.8454 0.402317 -0.81053 -0.425655
-8.62575 9.22075 7.83475 -0.17969 0.663586 -0.726199
-10.645 5.9255 4.375 -0.0344231 0.632272 -0.773982
-11.8441 3.039 6.80875 -0.620274 -0.445901 -0.645316
-7.30084 9.63909 10.101 0.256348 0.82636 0.501413
-9.76156 0.291438 11.3061 0.936059 -0.348835 -0.0459032
-7.73769 9.7905 8.77725 0.116574 0.961753 -0.247873
-10.1516 7.43925 8.09725 -0.58113 0.598494 -0.551447
-2.66225 3.6205 14.2621 0.891561 0.452106 -0.0268244
-11.8252 -0.017625 7.72687 0.0271841 0.356959 -0.933724
-5.345 0.7695 14.552 -0.203801 -0.759961 -0.617191
-9.7625 8.8535 8.09175 -0.653999 0.514323 -0.554759
-7.47188 7.151 13.6548 0.544142 0.812959 -0.207381
-9.65375 -0.18225 9.868 0.944339 0.32223 0.066263
-11.603 4.374 4.8655 -0.684768 -0.45324 -0.570672
-2.06519 2.4575 13.891 0.582739 0.418386 -0.696684
-11.8689 4.45662 6.01137 -0.97975 -0.146072 -0.136939
-11.189 -0.84225 7.053 0.0537119 0.434125 -0.89925
-9.39925 -0.69575 8.29525 0.516402 0.75225 -0.409204
-9.43606 -0.117812 13.4581 0.804556 -0.193789 -0.561369
-10.7517 6.57113 5.28162 -0.134944 0.945994 -0.294764
-12.7525 1.6205 7.86925 0.455324 -0.33272 -0.825819
-2.90569 0.68025 13.7451 -0.312653 0.115108 -0.942867
-11.2725 6.02675 6.95225 -0.651179 0.756352 -0.0624358
-4.19763 5.60075 15.3389 0.500062 0.824202 -0.265761
-12.039 5.279 4.954 -0.827558 0.0859997 -0.554754
-8.909 0.4065 14.286 0.73117 -0.497013 -0.4673
-3.83075 -0.304 14.6757 -0.607594 -0.0369576 -0.793388
-8.48444 8.68206 11.2883 -0.0303837 0.788039 0.614875
-8.68637 7.91437 12.41 0.187094 0.937683 0.292825
-9.191 9.576 8.86175 -0.48816 0.860309 -0.146865
-3.2905 5.03075 15.7904 0.787444 0.554987 -0.26818
-6.381 0.66075 15.2494 -0.00666402 -0.786907 -0.617035
-10.148 -1.38462 7.12813 0.229914 0.611414 -0.757174
-12.902 2.5225 6.736 0.196229 0.5215 -0.83038
-4.75675 0.05125 15.3105 -0.547288 -0.301542 -0.780735
-10.1956 -0.223 12.1319 0.948219 -0.288896 -0.131983
-5.46769 6.15487 15.12 0.580072 0.666175 -0.46875
-9.06 -0.9825 9.4 0.709073 0.625695 0.325148
-6.46075 7.34425 15.0022 0.612647 0.369034 -0.698912
-11.782 6.02275 5.83525 -0.750238 0.660008 -0.0391494
-8.03256 0.0735625 15.0258 0.517041 -0.337749 -0.786508
-11.2399 6.44119 8.00706 -0.640372 0.571702 -0.512914
-8.74687 9.88813 9.95938 -0.229567 0.938821 0.256736
-9.64669 -1.105 10.3852 0.861516 0.199114 0.467058
-8.34 7.827 13.885 0.153029 0.790694 -0.592778
-2.197 3.26238 15.6433 0.795622 0.605712 0.00992048
-1.30175 1.72675 13.5933 0.251486 0.358882 -0.898865
-13.1676 -0.608 7.422 0.357549 0.532034 -0.767528
-10.237 -1.322 11.2058 0.927756 0.180387 0.326696
-12.2112 -1.32056 6.83494 0.212442 0.686723 -0.695183
-8.26437 -1.01525 8.31125 0.555904 0.831173 -0.0110874
-11.552 7.828 9.1795 -0.544276 0.733891 -0.406408
-12.064 5.0585 7.27075 -0.952995 0.260046 -0.155489
-12.7896 3.62538 8.75081 -0.765524 0.594507 -0.246039
-3.69738 -1.33834 13.9881 -0.730711 0.470451 -0.494709
-10.6712 8.19556 9.98812 -0.582228 0.812063 0.0395587
-9.56978 8.76334 10.6072 -0.435297 0.765146 0.474413
-6.8605 -0.341 15.9435 0.396037 -0.188333 -0.898713
-5.17562 7.00044 15.9454 0.675958 0.215163 -0.70483
-10.1517 -1.443 12.8884 0.884903 0.208359 -0.416574
-13.9104 0.437875 7.28562 0.703222 -0.0278299 -0.710425
-5.719 -0.127 16.1567 -0.158741 -0.406461 -0.899773
-9.30481 -1.76231 13.5004 0.595097 0.508562 -0.622273
-2.635 4.1795 16.67 0.976227 0.215117 -0.0265578
-3.367 6.027 16.8283 0.674356 0.599216 -0.431491
-8.64675 -1.3 14.493 0.694924 0.166547 -0.69953
-0.5245 2.303 15.0765 0.599448 0.783212 -0.165048
-13.8658 1.50719 6.11602 0.630547 -0.151743 -0.761173
-1.22113 0.0809375 13.5485 0.27894 0.353428 -0.892906
-8.08497 -1.88934 9.36447 0.524179 0.786561 0.326433
-14.443 2.761 6.594 0.215701 0.836854 -0.503138
-8.982 -2.2765 6.4235 0.208589 0.693139 -0.689962
-9.14338 -2.21881 10.6134 0.525658 0.686227 0.502768
-9.886 -2.553 5.83125 0.231542 0.833637 -0.501436
-8.17025 -1.88312 7.04 0.329029 0.739171 -0.587679
-0.2655 1.9445 14.1663 0.782728 0.426397 -0.453346
-8.97962 8.52525 14.8597 -0.344471 0.632082 -0.694127
-6.77525 8.904 14.8905 0.496822 0.375713 -0.782309
-1.63806 -0.748062 12.9071 -0.00624998 0.683988 -0.729466
-10.4219 7.59394 11.6545 -0.475359 0.792366 0.382348
-11.3241 -2.33512 5.93962 0.252521 0.915196 -0.314085
-7.49125 -1.47625 15.2793 0.469884 0.554722 -0.686653
-5.94338 8.841 15.6267 0.483475 0.522815 -0.70208
-5.79569 -1.33506 16.1006 -0.124208 0.290816 -0.948682
-2.41925 5.115 17.606 0.946864 0.319901 -0.0333402
-12.2732 6.7865 9.30125 -0.920716 0.281233 -0.270537
-10.6187 7.35112 12.9097 -0.341562 0.888869 -0.305364
-12.3279 5.34275 8.80737 -0.942109 0.304513 -0.140363
-3.15875 -1.42963 12.8542 -0.499533 0.666475 -0.553423
-13.8701 2.99756 8.51681 -0.142611 0.977424 -0.155899
-2.38525 3.11525 17.1514 0.907728 0.15737 0.388928
-12.079 7.3915 10.313 -0.762608 0.580491 0.28541
-14.1081 -0.705312 6.13575 0.681977 0.608786 -0.405324
-5.15737 -2.20863 15.3814 -0.285748 0.688131 -0.666951
-0.72125 2.289 16.1483 0.68701 0.597577 0.413423
-9.42325 -2.72775 11.9522 0.61736 0.784708 -0.0556738
-0.118719 0.483594 14.4014 0.788998 0.16338 -0.592275
-12.9301 -1.75412 5.27763 0.392603 0.909855 -0.134266
-12.2979 4.56763 9.75062 -0.921539 0.38484 -0.0516091
-3.33737 6.21163 17.9622 0.871393 0.435716 0.225446
-10.3313 8.12687 14.4859 -0.139308 0.912618 -0.384347
-7.16125 -2.234 7.76575 0.557123 0.812604 -0.171138
-8.49575 -2.5645 12.975 0.186533 0.919786 -0.345252
-14.5444 0.792437 5.67956 0.686624 0.134 -0.714557
-7.95125 9.7215 14.9788 -0.0982968 0.625131 -0.774305
-2.09125 1.976 17.3424 0.608348 0.545546 0.576448
-4.4895 8.2295 16.274 0.79566 0.0361973 -0.60466
-8.9555 -3.102 5.67 0.401153 0.74822 -0.528435
-4.765 -2.518 14.248 -0.364464 0.919285 -0.148599
-10.4152 -2.56775 4.9595 0.427255 0.881527 0.200905
-4.27525 7.4175 17.1348 0.881196 0.288923 -0.374189
3 100 133 92
3 136 137 171
3 171 137 182
3 163 170 112
3 116 78 101
3 116 101 158
3 158 101 134
3 131 133 176
3 53 80 56
3 80 99 97
3 80 86 99
3 99 136 123
3 171 106 136
3 106 123 136
3 125 171 169
3 90 135 139
3 139 94 90
3 139 113 94
3 113 139 140
3 140 139 163
3 140 111 87
3 161 122 128
3 95 128 122
3 191 157 155
3 155 116 158
3 158 134 185
3 134 153 185
3 121 153 134
3 127 121 96
3 121 134 101
3 96 121 74
3 101 74 121
3 74 101 78
3 28 25 50
3 28 14 25
3 18 25 10
3 14 10 25
3 10 14 8
3 28 50 52
3 28 53 30
3 30 53 56
3 30 33 16
3 33 57 41
3 85 57 73
3 57 55 73
3 55 56 73
3 73 56 80
3 57 85 75
3 103 75 85
3 75 43 57
3 103 123 75
3 84 59 66
3 84 61 59
3 89 51 61
3 89 113 126
3 89 87 63
3 51 89 63
3 58 63 87
3 111 112 71
3 79 67 95
3 95 122 79
3 122 166 190
3 142 190 194
3 142 194 148
3 148 194 183
3 127 96 88
3 76 88 96
3 18 10 23
3 10 8 3
3 3 8 0
3 8 2 0
3 13 8 16
3 26 29 13
3 29 20 13
3 43 29 26
3 20 29 35
3 29 43 42
3 35 29 42
3 59 35 42
3 34 20 35
3 19 11 20
3 19 34 37
3 37 31 19
3 17 19 31
3 31 37 58
3 63 58 37
3 21 46 45
3 21 45 39
3 45 46 71
3 45 71 67
3 60 48 39
3 114 70 107
3 70 79 107
3 107 79 120
3 107 120 148
3 107 148 114
3 118 177 167
3 141 165 124
3 141 124 115
3 149 146 102
3 124 83 64
3 77 65 38
3 38 65 36
3 38 36 23
3 23 9 38
3 38 9 22
3 3 1 9
3 1 3 0
3 22 9 12
3 12 15 24
3 44 47 24
3 27 15 21
3 7 4 17
3 17 4 11
3 7 0 4
3 17 11 19
3 27 39 48
3 48 44 27
3 47 72 49
3 47 49 22
3 72 98 105
3 105 98 130
3 47 68 72
3 72 68 98
3 68 91 98
3 130 98 150
3 150 98 129
3 68 70 91
3 91 70 129
3 129 70 114
3 147 129 114
3 168 147 114
3 129 174 189
3 162 105 152
3 105 138 110
3 105 110 81
3 49 81 69
3 49 69 64
3 22 49 40
3 64 40 49
3 64 69 115
3 93 115 69
3 40 64 38
3 130 180 152
3 133 181 176
3 131 144 92
3 144 187 151
3 187 144 176
3 176 144 131
3 151 104 144
3 144 104 92
3 86 104 117
3 117 104 151
3 173 117 154
3 86 137 136
3 173 137 117
3 117 137 86
3 184 128 170
3 170 128 112
3 160 128 184
3 193 157 191
3 116 164 133
3 116 133 100
3 193 164 157
3 157 164 116
3 133 164 181
3 74 78 50
3 92 50 78
3 50 86 52
3 104 86 82
3 50 82 86
3 82 50 92
3 104 82 92
3 133 131 92
3 99 86 136
3 125 106 171
3 75 123 106
3 75 106 125
3 125 90 75
3 75 90 66
3 135 90 125
3 128 95 112
3 166 122 161
3 156 121 127
3 156 153 121
3 96 74 76
3 76 74 50
3 76 50 54
3 54 50 32
3 18 32 25
3 25 32 50
3 8 14 16
3 28 16 14
3 30 16 28
3 66 43 75
3 42 43 66
3 42 66 59
3 71 46 58
3 58 87 71
3 111 71 87
3 67 71 112
3 95 67 112
3 120 79 122
3 142 120 122
3 142 122 190
3 148 120 142
3 149 165 146
3 146 165 186
3 132 156 127
3 119 88 77
3 88 119 132
3 88 132 127
3 65 77 88
3 88 76 54
3 88 54 65
3 54 32 36
3 36 32 18
3 54 36 65
3 23 36 18
3 0 2 4
3 4 2 11
3 11 2 13
3 11 13 20
3 13 2 8
3 79 39 45
3 67 79 45
3 39 79 60
3 118 138 177
3 177 138 192
3 167 177 165
3 118 145 115
3 141 145 167
3 118 167 145
3 93 118 115
3 141 167 165
3 141 115 145
3 124 165 149
3 83 124 109
3 83 109 77
3 77 109 102
3 102 109 124
3 102 124 149
3 143 119 102
3 143 102 146
3 102 119 77
3 132 119 179
3 156 132 179
3 119 143 179
3 186 179 146
3 143 146 179
3 62 83 77
3 64 83 62
3 64 62 38
3 38 62 77
3 47 22 24
3 24 22 12
3 27 44 24
3 15 27 24
3 21 15 7
3 21 7 17
3 129 98 91
3 174 129 147
3 118 93 81
3 118 81 110
3 118 110 138
3 72 105 81
3 81 49 72
3 78 100 92
3 100 78 116
3 80 53 86
3 86 53 52
3 175 135 169
3 139 175 163
3 139 135 175
3 125 169 135
3 112 111 163
3 163 111 140
3 160 188 128
3 128 188 161
3 157 116 155
3 53 28 52
3 55 57 33
3 56 55 30
3 33 30 55
3 123 103 85
3 73 97 108
3 85 73 108
3 123 85 108
3 123 108 99
3 73 80 97
3 97 99 108
3 84 66 94
3 94 66 90
3 94 113 84
3 140 126 113
3 113 89 84
3 84 89 61
3 87 89 126
3 126 140 87
3 26 33 41
3 41 43 26
3 16 26 13
3 16 33 26
3 41 57 43
3 59 61 35
3 20 34 19
3 63 37 51
3 37 34 51
3 51 34 35
3 51 35 61
3 46 21 31
3 58 46 31
3 79 70 60
3 60 70 48
3 10 3 9
3 23 10 9
3 6 1 0
3 5 6 0
3 5 0 7
3 5 7 15
3 12 5 15
3 12 6 5
3 9 6 12
3 6 9 1
3 17 31 21
3 27 21 39
3 68 44 70
3 44 68 47
3 44 48 70
3 168 148 183
3 148 168 114
3 138 105 172
3 162 172 105
3 93 69 81
3 64 115 124
3 40 38 22
3 130 152 105
3 159 180 130
3 159 130 150
3 150 129 178
3 129 189 178
3 154 117 151
3 154 151 187
