ply
format ascii 1.0
comment Generated by PyMesh
element vertex 200
property float x
property float y
property float z
property float charge
property float ddc
property float hbond
property float hphob
property float rho
property float si
property float theta
property float nx
property float ny
property float nz
element face 330
property list uchar int vertex_indices
end_header
-1.22113 0.0809375 13.5485 0.0400333 0 0 0.4 1e-08 -0.0746796 2.22045e-16 0.27894 0.353428 -0.892906
-1.63806 -0.748062 12.9071 0.207123 0.177627 0 0.0257813 1.12804 0.00689755 2.22045e-16 -0.00624998 0.683988 -0.729466
-0.27 -0.883 13.3573 0.187824 0.30781 0 -0.2 1.36762 -0.074031 5.0982 0.52276 0.654727 -0.545943
-0.118719 0.483594 14.4014 -0.026709 0.538319 0 0.4 1.45082 0.265661 3.87784 0.788998 0.16338 -0.592275
-1.30175 1.72675 13.5933 -0.0387437 -0.17486 0 0.4 1.64839 0.635166 2.63874 0.251486 0.358882 -0.898865
-2.90569 0.68025 13.7451 0.049932 0.395519 0 0.4 1.79877 0.0684272 1.58829 -0.312653 0.115108 -0.942867
-0.977813 -1.33644 11.9819 0.0576827 -0.348222 0 -0.155669 2.40792 -0.143982 5.83271 -0.0664935 0.980925 -0.18266
-2.33325 -1.6125 12.1005 0.0651217 -0.230737 0.0357752 -0.134356 2.49958 -0.221343 0.0816529 -0.27871 0.82363 -0.493918
0.721 -1.61625 13.153 0.124071 0.353408 0 -0.2 2.61721 -0.13008 5.0779 0.550536 0.834086 0.034786
0.17625 0.576688 15.5509 -0.020969 0.481712 0 0.4 2.64121 0.545594 3.83371 0.950339 0.299197 0.0856599
-2.06519 2.4575 13.891 -0.0912767 -0.179931 0 0.4 2.74633 0.0798758 2.45725 0.582739 0.418386 -0.696684
-3.15875 -1.42963 12.8542 0.0612547 0.278387 0.542764 0.4 2.79532 0.166984 0.563543 -0.499533 0.666475 -0.553423
-0.2655 1.9445 14.1663 -0.044284 0.326468 0 0.4 2.85237 0.999923 3.1877 0.782728 0.426397 -0.453346
-4.18175 0.935375 14.1839 -0.0221448 0.404119 0 0.924198 3.17207 -0.18944 1.61515 -0.205217 -0.606615 -0.768052
0.461 -0.8215 15.4971 -0.179853 0.422891 -0.262187 -0.00454918 3.25079 0.0375989 4.28442 0.923269 0.377674 0.0702589
-0.5245 2.303 15.0765 -0.041517 0.274687 0 0.4 3.41929 0.563277 3.14537 0.599448 0.783212 -0.165048
-3.42144 2.20444 13.4284 -0.243935 -0.36605 -0.116342 0.9093 3.43872 -0.172714 2.02408 0.306256 -0.504535 -0.80725
-3.83075 -0.304 14.6757 -0.026281 0.352889 -0.0434052 0.446411 3.43904 -0.560929 1.31256 -0.607594 -0.0369576 -0.793388
-1.991 -1.967 11.037 -0.109312 -0.244494 0 -0.2 3.67169 0.0152856 6.17143 -0.456314 0.833743 -0.310886
-3.47725 -2.18625 11.8475 0.0116938 0.186105 0 -0.2 3.80417 -0.07272 0.325389 -0.3464 0.841313 -0.414969
-0.3905 1.08862 16.5249 0.0325132 0.421536 0 0.4 3.87893 0.16957 3.65361 0.735052 0.490011 0.468602
-0.426 -1.17206 10.6077 -0.082501 -0.277599 0 -0.0888889 3.89787 0.701762 5.84221 -0.363504 0.925447 -0.106831
1.33506 -1.27988 11.9929 0.171192 -0.405988 0 -0.184761 3.97222 0.187838 5.33267 0.263704 0.797677 0.542376
-3.69738 -1.33834 13.9881 0.059151 0.331114 0.407209 0.4 3.98063 -0.414425 0.941569 -0.730711 0.470451 -0.494709
-2.66225 3.6205 14.2621 -0.273342 -0.269864 -0.58913 0.933333 4.10529 -0.527157 2.6075 0.891561 0.452106 -0.0268244
1.41825 -2.4965 14.165 -0.0174466 0.264098 -0.188425 -0.2 4.12888 -0.577821 4.78506 0.754722 0.655694 0.021473
-2.55225 3.71012 13.1695 -0.505203 -0.255689 -0.724129 0.933333 4.27173 0.504424 2.42166 0.925513 0.107021 -0.36328
0.656875 -0.954625 11.0969 0.257629 -0.329154 0 -0.0888889 4.30561 0.407777 5.61694 -0.172353 0.969797 0.17259
-0.048625 -0.01975 17.1349 0.090348 0.338098 0.17214 0.4 4.34865 0.315266 3.90634 0.914035 0.335831 0.227503
-5.345 0.7695 14.552 -0.0206934 0.331885 0 0.933333 4.4034 0.669516 1.56366 -0.203801 -0.759961 -0.617191
1.0885 -1.792 15.59 -0.344987 0.340201 -0.1352 -0.2 4.41021 0.485408 4.39204 0.785731 0.548415 0.286124
-0.72125 2.289 16.1483 -0.0342737 0.375714 0 0.4 4.50909 0.999841 3.31362 0.68701 0.597577 0.413423
-4.75675 0.05125 15.3105 -0.106209 0.293554 -0.141506 0.669609 4.6166 -0.407501 1.36411 -0.547288 -0.301542 -0.780735
2.2445 -2.9305 13.324 -0.0321753 0.248013 -0.242896 -0.0993964 4.6365 -0.199769 4.95194 0.529716 0.796814 0.29067
-2.197 3.26238 15.6433 -0.0775123 0.254867 0 0.615136 4.67914 -0.0857681 2.88255 0.795622 0.605712 0.00992048
-4.69075 -2.53175 13.1115 -0.183255 0.209718 0 -0.2 4.70002 -0.383292 0.651923 -0.350228 0.931539 -0.0978508
-5.53575 1.5295 13.741 -0.000628653 0.311768 0 0.933333 4.71559 -0.198105 1.71549 -0.121869 -0.773495 -0.621975
-4.70913 2.10713 12.9949 -0.0695653 -0.3842 0 0.112684 4.8009 -0.234144 1.92596 0.223145 -0.9024 -0.368619
-3.53912 2.96525 12.1566 -0.429103 -0.319507 -0.08843 0.764851 4.92538 0.402783 2.14431 0.718337 -0.495399 -0.488439
-3.648 -2.5685 10.791 0.102482 -0.0975727 0 -0.2 4.94059 0.243116 0.274636 0.0512143 0.888126 -0.456737
-2.55194 -2.87169 10.2829 0.0562423 0.128531 -0.338533 -0.154071 4.97622 -0.147396 0.00181961 -0.412992 0.578452 -0.703442
0.352625 -2.17337 16.6042 -0.222807 0.31985 -0.770097 -0.2 5.0015 -0.632978 4.27175 0.727082 0.546677 0.415326
-0.144 -1.296 17.223 0.0337867 0.326596 0 0.4 5.14021 -0.671859 4.1122 0.973384 0.143414 0.178763
2.16725 -3.2545 14.2727 -0.0208384 0.194064 -0.619423 -0.0888889 5.19993 -0.966658 4.80791 0.449237 0.890676 0.069866
-1.62925 -2.0845 9.506 -0.3736 -0.196775 -0.239979 -0.0888889 5.24923 0.693731 6.11333 -0.672234 0.587866 -0.450016
-1.338 1.19181 17.6868 0.0735857 0.261421 -0.0216339 0.4 5.38173 -0.18988 3.5817 0.566838 0.78206 0.258992
2.11538 -0.606875 10.9895 0.0126506 -0.246851 0 -0.0888889 5.4105 0.999888 5.44473 0.181246 0.959523 0.21556
-0.47025 -1.53 9.122 -0.106855 -0.201506 -0.47734 -0.0888889 5.42672 0.17356 6.01031 -0.559631 0.807507 -0.186402
1.949 -2.88838 15.3646 0.0469567 0.181209 -0.0190359 -0.104029 5.49793 -0.297325 4.60778 0.418269 0.908187 -0.0157375
0.94725 -0.8885 9.82619 0.196768 -0.208167 0.025898 -0.0888889 5.50317 0.0536257 5.70561 -0.162998 0.986589 -0.00857057
-0.39 0.413 18.214 0.164824 0.208782 0.742411 0.4 5.56037 0.620247 3.80039 0.73976 0.671908 0.0359859
-4.765 -2.518 14.248 -0.200502 0.198363 0 -0.2 5.59276 -0.84256 0.835959 -0.364464 0.919285 -0.148599
-6.381 0.66075 15.2494 0.00722077 0.258902 0 0.933333 5.65699 -0.597313 1.48781 -0.00666402 -0.786907 -0.617035
-3.34713 4.98025 13.9406 -0.22497 0.169249 -0.00143782 0.933333 5.66135 0.474327 2.66365 0.690626 0.722087 -0.0403192
-3.25887 4.56738 12.2809 -0.43913 -0.145218 -0.328631 0.933333 5.69434 0.662804 2.49004 0.800686 0.402702 -0.443545
3.03731 -1.60906 11.3639 0.0088269 0.262141 0 -0.0888889 5.81657 0.999849 5.30942 0.822196 0.430406 0.372484
-5.72906 -2.47112 12.6509 -0.209615 -0.19462 0 -0.2 5.83753 -0.310485 0.634667 -0.0788777 0.986902 0.140719
-5.719 -0.127 16.1567 -0.0384123 0.206372 0 0.798507 5.91034 -0.999911 1.32777 -0.158741 -0.406461 -0.899773
-6.464 1.99188 13.131 0.00731747 -0.290108 0 0.0184685 5.91873 -0.596023 1.77112 0.114109 -0.94543 -0.305189
-2.09125 1.976 17.3424 -0.0178084 0.328367 0 0.480791 5.96419 -0.304671 3.30014 0.608348 0.545546 0.576448
-3.67 -3.37725 10.0363 0.238417 0.0806412 0 -0.2 6.047 0.259178 0.274636 0.0528347 0.22804 -0.972217
-2.635 4.1795 16.67 -0.279625 0.218264 -0.821095 -0.703502 6.12381 -0.0520369 2.88255 0.976227 0.215117 -0.0265578
-5.15737 -2.20863 15.3814 -0.0770677 0.0974454 -0.423582 0.4 6.17842 -0.999859 0.835959 -0.285748 0.688131 -0.666951
2.98381 -2.79806 11.9629 -0.0177105 0.23823 0 -0.0888889 6.19108 0.0389693 5.30942 0.843361 0.450121 0.293484
0.06575 -2.3305 17.754 -0.0134932 0.187278 0 -0.303251 6.19692 -0.999892 4.1122 0.80471 0.588191 -0.0804567
-2.38525 3.11525 17.1514 -0.092415 0.298509 -0.0187242 0.352111 6.20605 0.273169 3.30014 0.907728 0.15737 0.388928
-4.73887 -2.95038 10.0363 0.168411 0.0234573 0 -0.2 6.32095 0.440618 0.274636 0.215907 0.495566 -0.841308
3.73475 -3.857 12.9416 -0.590933 0.143592 -0.122123 -0.0888889 6.43246 0.40094 4.95194 0.852845 0.491264 -0.17696
-4.036 3.906 11.0367 -0.250796 -0.191707 -0.968542 0.866969 6.47008 0.119188 2.14431 0.922986 0.0195298 -0.384338
-5.77275 1.7585 11.7533 -0.103253 -0.341746 0 -0.777778 6.47255 0.612708 1.77112 0.118718 -0.992596 -0.0256668
-0.3745 0.1745 19.2265 -0.060378 0.181378 -0.603755 0.4 6.47438 -0.0339224 3.80039 0.929815 0.352107 -0.107073
-4.76137 2.07962 11.2802 -0.115962 -0.340907 0 -0.777778 6.51662 0.343031 1.92596 0.554042 -0.813106 -0.178594
-5.79569 -1.33506 16.1006 -0.0309629 0.0861465 0 0.4 6.52068 -0.999871 1.32777 -0.124208 0.290816 -0.948682
3.62036 -3.47747 14.6618 0.0186754 -0.0776709 -0.123995 0.241489 6.63197 0.0811992 4.80791 0.240951 0.885612 -0.397031
2.5135 -2.826 16.3565 0.292314 0.158595 0.566351 -0.0888889 6.64092 0.112942 4.60778 -0.15571 0.98591 -0.0611299
-5.90675 -2.65587 14.3011 -0.117535 0.140881 0 -0.2 6.74403 -0.7564 0.835959 0.000315313 0.991663 -0.12886
-3.2905 5.03075 15.7904 -0.174915 -0.137318 -0.0880181 0.570087 6.76349 0.0588696 2.66365 0.787444 0.554987 -0.26818
-0.0955 -1.19987 18.8434 0.0164916 0.171819 0.159773 -0.0159916 6.76419 -0.492711 4.1122 0.9086 0.355301 -0.21956
-0.620125 -2.47038 8.16737 0.103473 -0.215785 -0.60344 -0.38732 6.77509 -0.131727 6.01031 -0.933496 0.310793 -0.178866
1.27025 -3.06025 17.866 -0.0368557 0.119499 0.273255 -0.475084 6.79614 -0.839104 4.27175 0.193959 0.966159 -0.170048
-3.95775 5.3385 12.688 -0.27018 -0.138103 -0.1101 0.636236 6.81183 0.263018 2.49004 0.646367 0.75457 -0.113288
-1.19175 1.08975 19.1073 -0.155673 0.120959 -0.305806 0.4 6.81339 0.164129 3.80039 0.46256 0.861148 -0.210861
1.37888 -0.50825 8.64587 0.109163 -0.148876 0.781538 -0.0888889 6.8162 0.999862 5.70561 0.0043209 0.99807 -0.0619493
-6.8605 -0.341 15.9435 0.0436187 -0.136028 0.47085 -0.777778 6.96664 -0.759795 1.32777 0.396037 -0.188333 -0.898713
-4.20325 4.8255 11.4265 -0.220652 -0.136198 -0.405314 0.0119865 6.99375 -0.206258 2.49004 0.840367 0.417559 -0.345583
-6.2165 -2.099 11.352 -0.0479317 -0.157777 0 -0.2 7.06878 0.734313 0.634667 -0.0671779 0.99727 0.0306544
-2.61469 -4.94441 9.86416 0.323553 0.19908 0 -0.0888889 7.09174 0.0684234 0.00181961 -0.775368 -0.219062 -0.592297
2.82544 -1.15769 9.54619 0.00558137 -0.154581 0 -0.0888889 7.11071 0.459066 5.44473 0.599762 0.800153 -0.00639302
-7.6435 1.70875 13.037 -0.0383143 -0.256006 0 0.173561 7.13538 -0.768098 1.77112 0.439389 -0.897843 -0.0285534
-0.030375 -1.28225 7.4885 0.122921 -0.175265 0.00467234 -0.980047 7.13646 0.180699 6.01031 -0.531229 0.845946 0.0465979
-2.85106 1.43381 18.5451 0.00659263 0.180171 0 0.663833 7.13803 -0.999878 3.30014 0.570784 0.815801 0.0931418
-5.82725 -2.50425 9.9965 0.16658 -0.058608 0 -0.2 7.26104 0.279194 0.274636 0.185066 0.85031 -0.49267
3.59375 -2.9025 16.001 0.233453 -0.104226 0 0.4 7.26156 -0.467417 4.60778 -0.181211 0.922536 -0.34072
0.5025 -2.1185 18.7365 -0.127629 0.0683324 -0.194862 -0.777778 7.29282 -0.477351 4.1122 0.432772 0.748696 -0.502157
-1.03 -3.787 8.5425 0.191599 -0.175217 -0.000550657 -0.0888889 7.29519 -0.66072 6.11333 -0.841293 0.29785 -0.451123
-4.19763 5.60075 15.3389 0.0318166 0.09863 0 0.0206054 7.41167 -0.0974179 2.66365 0.500062 0.824202 -0.265761
-8.03256 0.0735625 15.0258 -0.074313 -0.144299 0 0.317122 7.42403 -0.424753 1.48781 0.517041 -0.337749 -0.786508
-2.41925 5.115 17.606 -0.458127 0.168799 -0.0345117 -0.777778 7.46463 0.999897 2.88255 0.946864 0.319901 -0.0333402
-7.03288 1.72438 11.6827 -0.088661 -0.268788 0 -0.777778 7.49758 0.110981 1.77112 0.166318 -0.974006 -0.15379
-3.36337 2.64575 18.0592 -0.108321 0.269579 0 0.933333 7.57063 -0.99988 3.30014 0.902201 0.0508714 0.428306
-4.4855 4.7605 10.415 -0.342483 -0.16661 -0.01597 -0.777778 7.61844 -0.396687 2.49004 0.953016 0.288411 -0.0926233
-4.11125 3.07125 10.2505 -0.46734 -0.273214 -0.675989 -0.700584 7.61924 0.336372 2.14431 0.957848 -0.280915 0.0601128
3.34275 -2.1375 9.62875 -0.085986 0.188023 0 -0.0888889 7.65595 0.296307 5.30942 0.924517 0.35699 0.133518
-0.23825 0.922 20.2257 -0.410897 0.118623 -0.182144 0.4 7.72966 0.999779 3.80039 0.792498 0.550928 -0.261582
-7.47087 -2.52638 13.4104 -0.0864843 -0.105782 0 -0.2 7.73852 -0.109034 0.634667 0.181217 0.970668 -0.157999
-8.04775 1.27894 13.8454 -0.0537283 -0.213078 0 0.652107 7.79674 -0.659816 1.77112 0.402317 -0.81053 -0.425655
-5.1055 5.892 13.079 -0.0616007 0.149128 0 -0.648622 7.82133 -0.306029 2.66365 0.455329 0.8685 0.195915
4.334 -4.923 13.6318 -0.21716 0.0833273 0 0.388329 7.83668 -0.23039 4.95194 0.722507 0.41949 -0.549556
3.3245 -2.42438 17.1964 0.0549257 -0.125976 0.0560605 -0.144931 7.8756 0.0252702 4.60778 -0.441055 0.838739 -0.319354
2.482 -2.9365 17.625 0.19241 -0.127593 0.501398 -0.115884 7.91461 -0.884664 4.60778 -0.387638 0.880611 -0.27251
-5.271 -4.34734 9.45378 0.429117 0.130802 0 -0.2 7.92532 0.0790899 0.274636 0.716884 -0.165769 -0.677199
-7.06962 -2.47638 14.4404 -0.0257032 -0.0713225 0.0962312 -0.376944 7.92889 -0.731081 0.835959 0.328211 0.848099 -0.415938
3.376 -4.46012 11.5696 -0.191809 0.163714 0 -0.819122 7.94349 -0.278033 5.30942 0.97427 0.16452 -0.154046
-2.23338 1.35363 19.531 0.003792 0.064924 0 0.4 7.96844 -0.868716 3.80039 0.340973 0.812589 -0.472691
-2.90875 4.09081 18.5298 -0.48005 0.223108 0 -0.777778 7.97403 0.149452 3.30014 0.93335 0.0431182 0.356369
-4.608 6.026 11.9055 -0.0887107 -0.145169 0 -0.777778 8.03975 0.451738 2.49004 0.68848 0.718403 0.0994643
1.572 -0.953875 7.497 0.332302 -0.110229 0.197939 -0.676238 8.06351 0.159922 5.70561 0.0473165 0.987682 -0.149147
0.22525 -0.971812 20.1914 -0.0619777 0.0917607 -0.059705 -0.455691 8.08831 -0.611126 3.80039 0.704094 0.559333 -0.43749
4.86562 -4.26638 14.4727 -0.0185187 0.0338908 0 0.4 8.11817 -0.036087 4.80791 0.371503 0.450611 -0.811748
3.77225 -5.45375 12.3988 -0.159891 0.122409 -0.0337584 -0.437629 8.11937 -0.86638 4.95194 0.905747 0.275174 -0.322337
-5.243 2.07262 9.748 -0.325034 -0.286924 0 -0.777778 8.12275 0.477433 1.92596 0.239633 -0.959016 -0.151212
-3.67925 -5.23994 10.9784 0.37313 0.235717 0 -0.2 8.1344 -0.054301 0.274636 -0.0577555 -0.859388 -0.508052
-3.367 6.027 16.8283 -0.213069 0.0853739 0 -0.777778 8.20419 0.41346 2.66365 0.674356 0.599216 -0.431491
3.38225 -3.56625 9.8885 -0.149365 0.199888 0 -0.0888889 8.29173 -0.133335 5.30942 0.981964 0.029861 0.186693
-0.7125 -3.14287 6.77037 0.40072 -0.217763 0 -1 8.32827 -0.786713 6.01031 -0.909629 0.176453 0.376085
-6.951 -2.5145 9.9525 0.198646 -0.119001 0 -0.2 8.3857 -0.0955885 0.274636 0.21621 0.976343 0.00262576
-7.49125 -1.47625 15.2793 0.247017 -0.0469839 0.704737 -0.777778 8.40996 -0.569798 1.32777 0.469884 0.554722 -0.686653
-3.4755 2.266 19.2905 0.0129609 0.143895 0 0.148012 8.41791 -0.977855 3.30014 0.908354 0.330436 -0.256329
2.191 -2.14725 18.9807 -0.070793 0.0711778 -0.583926 -0.562556 8.50608 -0.352784 4.27175 -0.0957863 0.874485 -0.475501
-7.99203 -2.64528 11.2072 0.106454 -0.129754 0 -0.2 8.52744 -0.397675 0.634667 -0.0144315 0.992396 0.122235
3.03312 -1.56288 8.17488 0.181967 -0.133414 0 -0.227267 8.55563 0.0566503 5.44473 0.589905 0.806294 0.0436145
-4.76788 6.18337 10.7781 -0.0368843 -0.160191 0 -0.777778 8.60094 0.0710087 2.49004 0.95694 0.275616 0.0911152
-0.04025 -0.651 6.15987 0.19916 -0.198441 0 -1 8.60745 0.193422 6.01031 -0.333882 0.706318 0.62421
-8.909 0.4065 14.286 -0.223873 -0.164953 -0.102703 -0.210171 8.61831 -0.729122 1.48781 0.73117 -0.497013 -0.4673
1.40413 -1.72462 19.632 -0.22836 0.0605123 -0.498518 -0.662609 8.62323 0.045232 4.1122 0.217843 0.864807 -0.452387
-2.309 -6.189 8.945 0.43995 0.184828 0 -0.0888889 8.66886 0.159897 0.00181961 -0.990824 0.123307 -0.0553434
5.57075 -3.21062 15.2423 0.0295328 0.0075545 0 0.4 8.68433 0.546595 4.80791 0.223156 0.622935 -0.749768
-8.84081 0.750188 12.7536 -0.0905627 -0.207242 0 0.4 8.69509 -0.0673089 1.77112 0.626112 -0.771068 -0.115926
-6.11206 6.23981 13.6939 0.0527213 0.112706 0 -0.719131 8.70966 -0.455294 2.66365 0.492597 0.870215 0.00860477
4.5495 -1.9855 16.6176 -0.107652 -0.0702336 0 0.4 8.72257 0.133603 4.60778 -0.25821 0.746666 -0.613039
-2.011 -5.875 11.0615 0.37523 0.262127 -0.0252554 -0.253553 8.72394 -0.495688 0.00181961 -0.733903 -0.671001 -0.105567
-1.81088 2.19375 20.5491 -0.155037 0.044239 0 0.104598 8.73196 -0.0305724 3.80039 0.477195 0.570769 -0.668213
-6.351 -2.99425 8.68025 0.534287 -0.110402 0 -0.533636 8.76002 -0.0896829 0.274636 0.659098 0.746601 -0.0904267
-0.949313 -4.12856 7.11919 0.359443 -0.192135 0 -0.584002 8.76113 -0.611672 6.01031 -0.913709 0.35722 0.193727
-5.46769 6.15487 15.12 0.198913 -0.0677165 0 0.933333 8.81453 -0.611145 2.66365 0.580072 0.666175 -0.46875
-0.945625 -1.96769 6.20687 0.41249 -0.21333 0 -1 8.82502 0.0726819 6.01031 -0.792355 0.33976 0.506693
-8.49575 -2.5645 12.975 -0.0942213 -0.0685253 -0.18369 -0.368789 8.85271 -0.54535 0.634667 0.186533 0.919786 -0.345252
-0.8645 1.716 20.741 -0.283057 0.117824 -0.212492 0.4 8.86463 0.320231 3.80039 0.771396 0.619879 -0.143866
0.1755 0.1545 20.9555 -0.139361 0.0974265 0 -0.711111 8.86669 -0.0391204 3.80039 0.733752 0.609029 -0.301152
-7.16862 2.01875 10.3194 -0.231346 -0.244335 0 -0.777778 8.89889 0.403521 1.77112 -0.1478 -0.973047 -0.177015
-3.33737 6.21163 17.9622 -0.33678 0.157095 -0.0362327 -0.777778 8.93855 0.350165 2.88255 0.871393 0.435716 0.225446
-2.81137 2.35387 20.1054 -0.0081158 -0.063158 0 -0.155556 8.94983 -0.790284 3.30014 0.585767 0.472278 -0.658658
1.475 -1.086 6.477 0.206609 -0.142576 0 -1 8.96068 -0.482249 6.01031 0.0342105 0.968835 0.245335
-3.975 2.80675 8.89725 -0.39338 -0.22781 -0.127209 -0.777778 9.00481 0.999908 2.14431 0.737058 -0.577521 -0.351019
-8.64675 -1.3 14.493 -0.307199 -0.0902907 -0.805512 -0.777778 9.02021 -0.640637 1.48781 0.694924 0.166547 -0.69953
-4.487 4.90325 9.013 -0.565527 -0.105134 0 -0.492269 9.02769 0.272477 2.49004 0.825406 0.350902 -0.442236
4.3265 -6.039 12.997 -0.082834 0.0775135 0 -0.878544 9.12062 -0.677145 4.95194 0.72832 0.494738 -0.474114
5.79975 -4.38875 14.8188 -0.0311181 0.0392991 0 0.4 9.12185 -0.267678 4.80791 0.266424 0.319482 -0.909368
-1.90625 -6.818 10.2917 0.36039 0.220934 -0.276012 -0.372184 9.13992 -0.273895 0.00181961 -0.962724 -0.18519 0.197148
-8.25669 2.225 10.649 -0.118063 -0.200201 0 0.4 9.17593 -0.654195 1.77112 0.102 -0.921986 -0.373547
3.951 -2.715 8.351 0.00131711 -0.179736 0 -1 9.18438 -0.112759 5.30942 0.766733 0.415315 0.489524
-3.84325 3.8935 8.8005 -0.580343 -0.148807 -0.0671802 -0.777778 9.30756 0.999899 2.49004 0.93407 0.220152 -0.281153
-8.74413 1.04475 11.6525 -0.0659547 -0.179907 0 0.4 9.3391 0.178468 1.77112 0.462599 -0.739102 -0.489623
-5.0945 2.38025 8.52125 -0.57556 -0.206694 -0.0940975 -0.777778 9.39617 0.999876 1.92596 0.251057 -0.772446 -0.583351
-4.92338 -5.55363 11.0901 0.315841 0.212646 0 -0.2 9.42232 0.080399 0.274636 0.467586 -0.821285 -0.326885
-1.476 -3.1625 5.95813 0.62033 -0.215308 0.397828 -1 9.4432 0.0432137 6.01031 -0.693237 0.143144 0.706351
-5.77775 6.86275 11.781 -0.0168982 -0.161905 0 -0.777778 9.48335 -0.105577 2.49004 0.440652 0.711641 0.547168
-3.67794 5.24069 19.2511 -0.294177 0.170304 -0.481839 -0.777778 9.53421 -0.0189375 3.30014 0.805453 0.408726 0.429172
-9.43606 -0.117812 13.4581 -0.329975 -0.126829 -0.0503273 0.201144 9.53688 -0.30643 1.48781 0.804556 -0.193789 -0.561369
-3.11987 3.71137 20.0474 -0.0629477 0.113496 0 -0.155556 9.55253 -0.0570462 3.30014 0.876533 0.352686 -0.327571
-6.17556 -5.75075 9.81419 0.51025 0.158203 0 -0.0888889 9.63344 -0.485206 0.274636 0.879245 -0.409227 -0.243849
-1.69987 -5.249 6.81862 0.450617 -0.155907 0.09057 -0.79922 9.65272 -0.615685 6.11333 -0.818807 0.560268 0.125122
1.11425 -0.57775 21.4215 0.00781767 0.0477912 0 -0.711111 9.65635 -0.355496 3.80039 0.472124 0.699457 -0.536525
5.758 -5.855 14.327 -0.46005 0.0722016 -0.343482 0.4 9.67508 0.102905 4.80791 0.667606 0.167163 -0.725506
3.295 -5.288 10.0361 -0.0684253 0.154721 0 -1 9.68807 -0.371073 5.30942 0.995543 0.0721233 -0.0607706
3.88753 -6.41787 11.1377 0.0691513 0.0845626 0 -1 9.71097 -0.312038 4.95194 0.75268 0.565796 -0.336671
1.72413 -1.38725 20.6644 -0.0890603 0.0543148 0 -0.279504 9.71403 -0.684148 3.80039 0.280892 0.851154 -0.443437
-5.61875 -4.25737 7.6965 1 -0.131745 0.473898 -0.866667 9.71894 0.429686 0.274636 0.978629 0.118664 -0.167943
-2.18438 -7.15963 8.50113 0.52569 0.185953 0 -0.0888889 9.74342 -0.211752 0.00181961 -0.97819 -0.0684411 0.19611
6.57881 -3.59162 15.2257 -0.0127638 0.020462 0 0.4 9.76212 0.824637 4.80791 0.336723 0.533041 -0.776199
4.5755 -1.107 17.1945 -0.246927 -0.0604327 -0.176985 -0.155556 9.77388 0.596562 4.60778 -0.204615 0.736511 -0.644736
-6.0835 2.4585 8.3595 -0.411577 -0.18324 0 -0.777778 9.79107 0.629984 1.92596 0.00776644 -0.751767 -0.659383
-8.08497 -1.88934 9.36447 0.207993 -0.141397 0 -0.866667 9.80784 -0.139227 0.634667 0.524179 0.786561 0.326433
-0.45925 0.774875 22.3522 0.00608017 0.112996 0 -0.711111 9.87267 -0.288852 3.80039 0.652221 0.752422 0.0920258
-1.7585 -6.495 11.9974 0.3505 0.261606 0 -1 9.87462 0.0230992 0.00181961 -0.875271 -0.44215 0.195971
-2.68963 -5.70463 12.3524 0.373157 0.282756 0 -0.2 9.89029 -0.389516 0.274636 -0.260663 -0.948494 -0.180039
-9.14338 -2.21881 10.6134 0.047993 -0.151702 0 -0.866667 9.89129 -0.594547 0.634667 0.525658 0.686227 0.502768
-4.27525 7.4175 17.1348 -0.165895 -0.10024 -0.621481 -0.777778 9.89308 -0.143139 2.66365 0.881196 0.288923 -0.374189
-6.2445 -5.67425 8.35825 0.839817 -0.162501 0.48189 -0.866667 9.90233 -0.593974 0.274636 0.940384 -0.316391 0.124801
3.33288 -1.3425 19.1719 -0.0239453 0.11786 -0.239518 -0.155556 9.91607 0.0340153 4.60778 -0.452619 0.86194 -0.228461
-1.21375 2.66675 21.4618 -0.0676027 0.103731 0 -0.155556 9.92079 0.324305 3.80039 0.870899 0.366681 -0.327232
0.959188 -0.337687 5.328 0.221576 -0.13879 0 -1 9.94501 0.471389 6.01031 0.259281 0.892907 0.368089
2.43925 -0.98075 5.77775 0.0355903 -0.110395 0 -1 9.9893 0.262274 5.70561 0.418149 0.902916 0.0994703
-0.8 0.19875 5.3555 0.085571 -0.157079 0 -1 10.0026 0.999928 6.01031 -0.210525 0.880777 0.42416
-5.17562 7.00044 15.9454 0.0215827 -0.0770921 0 -0.109414 10.0317 -0.326172 2.66365 0.675958 0.215163 -0.70483
-2.3525 -6.17938 7.56938 0.610377 -0.171603 0.281908 -0.506213 10.0452 0.253721 0.00181961 -0.928894 0.314033 0.196315
3.51962 -1.40988 6.73475 -0.0179534 -0.108386 0 -1 10.0834 0.492425 5.44473 0.511254 0.858688 0.0357044
-9.30481 -1.76231 13.5004 -0.51173 -0.0554433 -0.615631 -0.777778 10.1074 -0.45824 0.634667 0.595097 0.508562 -0.622273
4.846 -6.7805 12.565 0.111977 0.0817379 0 -1 10.1238 -0.426982 4.95194 0.614478 0.766546 -0.186612
-1.8625 -1.868 5.281 0.414427 -0.197738 0 -1 10.1319 0.454107 6.01031 -0.642916 0.358324 0.676951
3 91 125 129
3 194 187 122
3 122 187 150
3 110 142 91
3 110 66 60
3 66 91 39
3 39 85 35
3 85 56 35
3 56 85 129
3 51 56 75
3 129 146 104
3 131 166 115
3 106 80 115
3 76 53 95
3 53 138 95
3 95 138 144
3 95 144 122
3 95 122 76
3 188 177 110
3 110 60 121
3 135 86 94
3 60 39 40
3 44 40 18
3 39 60 66
3 19 35 11
3 32 62 72
3 104 111 75
3 83 126 96
3 83 96 52
3 154 197 168
3 96 105 58
3 137 162 98
3 98 162 159
3 98 159 149
3 149 120 98
3 98 120 71
3 181 163 120
3 71 120 101
3 101 100 68
3 54 38 68
3 84 100 131
3 84 115 80
3 80 54 84
3 38 16 37
3 38 37 71
3 16 10 5
3 5 10 4
3 38 26 16
3 16 26 10
3 26 24 10
3 4 10 15
3 15 10 34
3 26 53 24
3 24 53 34
3 34 53 76
3 61 34 76
3 97 61 76
3 97 114 61
3 61 114 65
3 34 65 59
3 114 167 169
3 94 143 171
3 171 195 135
3 195 178 135
3 164 110 121
3 135 158 86
3 145 78 89
3 44 47 78
3 78 47 89
3 47 49 82
3 6 21 18
3 18 7 6
3 1 6 7
3 1 7 11
3 1 5 0
3 5 23 17
3 5 17 13
3 37 13 36
3 37 36 58
3 71 37 69
3 58 69 37
3 58 36 52
3 29 52 36
3 69 58 98
3 4 3 0
3 0 3 2
3 2 3 14
3 9 20 28
3 59 45 20
3 152 132 89
3 132 145 89
3 152 89 116
3 116 89 82
3 130 192 116
3 130 196 192
3 87 82 49
3 87 49 46
3 27 49 21
3 46 27 22
3 8 22 6
3 6 2 8
3 2 14 8
3 14 42 41
3 30 14 41
3 42 70 77
3 93 77 117
3 117 70 103
3 70 50 81
3 70 81 103
3 147 183 103
3 148 103 183
3 147 141 190
3 87 102 130
3 130 102 160
3 67 63 33
3 55 22 63
3 63 22 33
3 33 22 8
3 33 8 25
3 25 30 48
3 30 41 48
3 123 160 102
3 63 67 112
3 112 119 174
3 174 119 175
3 119 67 107
3 107 67 73
3 73 118 107
3 67 33 73
3 48 74 92
3 73 92 139
3 108 74 109
3 109 189 108
3 139 108 189
3 173 156 107
3 118 157 173
3 73 136 118
3 179 157 136
3 27 46 49
3 142 125 91
3 125 142 182
3 129 125 182
3 186 129 182
3 122 144 194
3 110 177 142
3 51 35 56
3 154 126 197
3 197 126 146
3 126 104 146
3 104 126 111
3 138 115 166
3 115 138 106
3 188 110 170
3 121 60 86
3 44 94 40
3 40 86 60
3 86 40 94
3 18 40 19
3 18 19 7
3 19 40 39
3 11 7 19
3 23 11 35
3 51 23 35
3 32 23 62
3 62 23 51
3 62 51 75
3 72 62 126
3 62 111 126
3 75 111 62
3 32 57 52
3 83 57 72
3 32 72 57
3 29 32 52
3 83 72 126
3 83 52 57
3 96 126 154
3 105 96 133
3 105 133 137
3 137 133 168
3 168 133 96
3 168 96 154
3 88 105 137
3 58 105 88
3 58 88 98
3 98 88 137
3 38 71 68
3 68 71 101
3 84 54 68
3 100 84 68
3 131 100 155
3 34 10 24
3 65 34 61
3 99 59 65
3 99 65 114
3 90 99 127
3 169 151 127
3 151 113 90
3 99 114 169
3 99 169 127
3 127 151 90
3 141 151 169
3 145 199 165
3 124 145 165
3 143 124 165
3 110 164 170
3 185 121 140
3 185 140 184
3 86 158 140
3 86 140 121
3 140 158 184
3 78 124 143
3 78 143 94
3 78 94 44
3 145 124 78
3 82 89 47
3 21 49 47
3 32 29 13
3 32 13 17
3 32 17 23
3 16 5 13
3 13 37 16
3 28 20 45
3 28 45 50
3 81 50 45
3 113 81 90
3 90 81 45
3 90 59 99
3 45 59 90
3 141 81 113
3 141 113 151
3 191 132 152
3 192 152 116
3 0 2 1
3 1 2 6
3 25 8 14
3 3 9 14
3 79 41 64
3 79 64 93
3 79 93 128
3 42 64 41
3 77 93 64
3 64 42 77
3 117 77 70
3 134 176 128
3 117 176 134
3 176 117 172
3 172 117 148
3 148 117 103
3 191 152 192
3 160 196 130
3 43 33 25
3 73 33 43
3 73 43 48
3 48 43 25
3 41 79 48
3 48 79 74
3 189 109 128
3 128 109 79
3 79 109 74
3 175 119 156
3 175 156 198
3 107 156 119
3 92 73 48
3 139 92 108
3 108 92 74
3 112 174 123
3 136 157 118
3 91 66 110
3 129 85 91
3 39 91 85
3 56 129 104
3 138 53 106
3 106 53 80
3 35 19 39
3 104 75 56
3 161 155 100
3 101 161 100
3 101 153 161
3 120 153 101
3 153 120 163
3 84 131 115
3 26 54 53
3 54 26 38
3 54 80 53
3 97 122 150
3 150 114 97
3 122 97 76
3 150 167 114
3 178 158 135
3 94 171 135
3 47 44 21
3 21 44 18
3 23 5 11
3 1 11 5
3 29 36 13
3 58 52 96
3 69 98 71
3 4 0 5
3 12 15 9
3 12 9 3
3 12 3 4
3 12 4 15
3 15 34 31
3 15 31 9
3 20 9 31
3 34 59 31
3 59 20 31
3 193 132 191
3 116 82 130
3 130 82 87
3 27 21 6
3 22 27 6
3 28 14 9
3 14 28 42
3 50 70 28
3 28 70 42
3 81 141 103
3 147 103 141
3 46 22 55
3 55 87 46
3 25 14 30
3 63 123 55
3 55 123 102
3 55 102 87
3 112 67 119
3 63 112 123
3 107 118 173
3 73 139 136
3 93 117 134
3 93 134 128
