ply
format ascii 1.0
comment Generated by PyMesh
element vertex 200
property float x
property float y
property float z
property float charge
property float ddc
property float hbond
property float hphob
property float rho
property float si
property float theta
property float nx
property float ny
property float nz
element face 339
property list uchar int vertex_indices
end_header
-5.61875 -4.25737 7.6965 1 0 0.473898 -0.866667 1e-08 0.429686 2.22045e-16 0.978629 0.118664 -0.167943
-5.79563 -5.69025 7.32412 0.66977 0.41187 0.297821 -0.863844 1.49101 0.225146 5.08093 0.957859 0.0303151 0.285636
-6.187 -2.8705 7.317 0.785327 0.229143 0.122961 -0.866667 1.54607 0.873616 1.21361 0.76518 0.638045 -0.0860097
-6.2445 -5.67425 8.35825 0.839817 0.450393 0.48189 -0.866667 1.68435 -0.593974 4.31245 0.940384 -0.316391 0.124801
-6.351 -2.99425 8.68025 0.534287 0.278133 0 -0.533636 1.76052 -0.0896829 2.04536 0.659098 0.746601 -0.0904267
-5.271 -4.34734 9.45378 0.429117 -0.392827 0 -0.2 1.79362 0.0790899 3.09262 0.716884 -0.165769 -0.677199
-6.4485 -3.06988 6.36562 0.82373 0.262357 0.232478 -0.866667 1.9672 0.999867 0.709724 0.581447 0.599726 -0.549771
-6.111 -5.624 6.089 0.57352 -0.0703642 0.517632 -0.801127 2.16657 -0.586464 5.73103 0.902457 0.418943 -0.100291
-6.624 -4.5115 5.5635 0.468287 0.247723 0 -0.866667 2.37167 0.1465 2.22045e-16 0.517749 0.639978 -0.567772
-7.16125 -2.234 7.76575 0.524633 0.229202 0.104137 -0.866667 2.79334 0.213785 1.39693 0.557123 0.812604 -0.171138
-6.22325 -6.96025 7.58225 0.517227 0.303305 0 -0.777778 2.8557 -0.999844 4.73266 0.827747 0.0783912 0.555599
-6.17556 -5.75075 9.81419 0.51025 0.286642 0 -0.0888889 3.14392 -0.485206 3.83259 0.879245 -0.409227 -0.243849
-6.951 -2.5145 9.9525 0.198646 0.305782 0 -0.2 3.24672 -0.0955885 2.12264 0.21621 0.976343 0.00262576
-5.82725 -2.50425 9.9965 0.16658 0.315454 0 -0.2 3.25949 0.279194 2.40587 0.185066 0.85031 -0.49267
-7.69875 -3.17213 5.98338 0.781853 0.284206 0.112886 -0.866667 3.27856 0.118032 0.644189 0.299425 0.616534 -0.728169
-4.73887 -2.95038 10.0363 0.168411 -0.329572 0 -0.2 3.39798 0.440618 2.7487 0.215907 0.495566 -0.841308
-6.60156 -7.33588 8.79594 0.630253 0.108227 0 -0.256651 3.43936 -0.999867 4.38775 0.994857 0.0992303 0.0203263
-7.5915 -4.8935 5.11925 -0.00991547 0.228251 0.514298 -0.866667 3.50274 -0.813618 0.192764 0.355514 0.720587 -0.595285
-4.69228 -7.21006 6.58134 0.7131 -0.31014 0.096704 -0.777778 3.51064 -0.0381626 5.16104 0.412367 0.69768 0.585829
-6.183 -5.011 4.536 0.226191 -0.295915 0.967173 -1 3.5963 0.0722563 6.02918 0.30348 0.907268 0.291145
-3.67 -3.37725 10.0363 0.238417 -0.357679 0 -0.2 3.75413 0.259178 2.97067 0.0528347 0.22804 -0.972217
-4.92338 -5.55363 11.0901 0.315841 0.33906 0 -0.2 3.85602 0.080399 3.50731 0.467586 -0.821285 -0.326885
-8.08497 -1.88934 9.36447 0.207993 0.21247 0 -0.866667 3.92746 -0.139227 1.76826 0.524179 0.786561 0.326433
-8.17025 -1.88312 7.04 0.270622 0.219946 0.232979 -0.866667 4.08481 0.677647 1.14341 0.329029 0.739171 -0.587679
-6.109 -8.09013 8.2005 0.609747 -0.190854 0.0100599 -0.777778 4.14873 -0.999782 4.62087 0.704026 0.548252 0.451407
-3.67925 -5.23994 10.9784 0.37313 -0.398915 0 -0.2 4.17161 -0.054301 3.3669 -0.0577555 -0.859388 -0.508052
-7.58725 -5.17525 4.094 -0.0551233 0.278349 0.672859 -1 4.24992 0.185181 0.0519842 -0.109349 0.717811 -0.687598
-8.26437 -1.01525 8.31125 0.0134116 0.150492 0 -0.866667 4.52533 0.802344 1.46097 0.555904 0.831173 -0.0110874
-6.27887 -7.16625 9.82987 0.573587 0.0577829 0 -0.0888889 4.53568 -0.176118 4.12308 0.968248 0.150609 -0.199533
-8.35437 -4.16412 4.94775 -0.453847 0.136654 -0.475452 -0.816929 4.57203 -0.0223487 0.401408 0.570471 0.599126 -0.561793
-8.9555 -3.102 5.67 -0.219211 0.173573 -0.300687 -0.821164 4.57569 -0.278896 0.68438 0.401153 0.74822 -0.528435
-6.14975 -8.38775 9.2365 0.642467 -0.0495798 0 0.597371 4.66601 -0.682244 4.41208 0.864514 0.496605 -0.0774548
-6.2165 -2.099 11.352 -0.0479317 0.279743 0 -0.2 4.72685 0.734313 2.36331 -0.0671779 0.99727 0.0306544
-3.648 -2.5685 10.791 0.102482 -0.256087 0 -0.2 4.77834 0.243116 2.77598 0.0512143 0.888126 -0.456737
-5.116 -5.535 4.308 0.53344 -0.361178 0.132085 -1 4.8067 -0.573461 5.80522 0.188106 0.463336 0.865988
-7.99203 -2.64528 11.2072 0.106454 0.259969 0 -0.2 4.88229 -0.397675 2.07064 -0.0144315 0.992396 0.122235
-8.982 -2.2765 6.4235 0.0985167 0.219315 0 -0.866667 4.90417 0.225585 0.916751 0.208589 0.693139 -0.689962
-2.55194 -2.87169 10.2829 0.0562423 -0.334158 -0.338533 -0.154071 5.00571 -0.147396 2.96603 -0.412992 0.578452 -0.703442
-4.2395 -8.5735 7.08169 0.515497 -0.283525 0 -0.918367 5.03193 -0.999835 4.91786 0.129076 0.635443 0.761282
-3.716 -6.85975 5.448 0.579937 -0.366284 0.268141 -1 5.04697 -0.999864 5.2849 -0.263335 0.865654 0.425791
-5.308 -5.77575 12.31 0.303794 0.29018 0 -0.2 5.15426 -0.624294 3.40952 0.323934 -0.933786 -0.152023
-9.06 -0.9825 9.4 0.0107298 0.12995 0 -0.866667 5.25949 0.0899438 1.64953 0.709073 0.625695 0.325148
-6.14825 -6.61194 11.79 0.412833 0.151232 0 -0.120257 5.29943 -0.444363 3.84804 0.929507 -0.355159 -0.0993885
-5.07044 -6.35375 5.00331 0.6309 -0.300955 0.265465 -0.957747 5.34543 -0.625621 5.57858 0.358455 0.754102 0.55031
-4.75725 -4.3725 3.745 0.240903 -0.394703 0 -1 5.34734 0.137715 5.88175 -0.31198 0.546455 0.77721
-2.81013 -7.37475 7.02338 0.598937 -0.425195 0.0306396 -1 5.451 -0.310992 4.94728 -0.632572 0.310152 0.709689
-2.88225 -6.48225 6.32975 0.59626 -0.447661 0.800479 -1 5.47767 0.105173 5.09587 -0.654714 0.679947 0.330186
-6.10838 -7.2915 10.8197 0.50502 0.0613873 0 -0.0888889 5.54787 0.0510481 4.0613 0.978062 0.207388 -0.01962
-7.01625 -5.99675 3.2625 0.0142378 0.338689 -0.13483 -0.961342 5.5508 -0.678956 0.0954947 -0.752426 0.433991 -0.495487
-9.14338 -2.21881 10.6134 0.047993 0.179038 0 -0.866667 5.59737 -0.594547 1.83977 0.525658 0.686227 0.502768
-5.05225 -9.12525 8.24525 0.259349 -0.1829 0.0785852 0.778944 5.62866 -0.999817 4.65466 0.439157 0.814084 0.380011
-2.61469 -4.94441 9.86416 0.323553 -0.480639 0 -0.0888889 5.65131 0.0684234 3.38799 -0.775368 -0.219062 -0.592297
-9.886 -2.553 5.83125 -0.130164 0.175774 0 -0.84122 5.66805 -0.205416 0.860637 0.231542 0.833637 -0.501436
-9.39925 -0.69575 8.29525 0.0114345 0.112169 0 -0.866667 5.70443 0.0238771 1.39583 0.516402 0.75225 -0.409204
-8.94312 -4.58262 4.06213 -0.560117 0.141438 -0.0572364 -0.777778 5.71488 0.0691205 0.3122 0.560501 0.160938 -0.812366
-6.11369 -4.90406 2.41894 0.0869857 0.314211 0 -1 5.7172 0.106526 6.14771 -0.720725 0.693096 -0.0131379
-7.96863 -6.67513 3.78638 -0.661683 0.256037 -0.306906 -0.777778 5.82781 -0.999901 0.0686601 -0.299107 0.692448 -0.656544
-4.98606 -4.13831 2.75444 0.0453553 -0.347068 0 -1 5.91324 -0.448578 5.9507 -0.707196 0.630495 0.319921
-3.47725 -2.18625 11.8475 0.0116938 -0.265708 0 -0.2 5.91477 -0.07272 2.74515 -0.3464 0.841313 -0.414969
-2.68963 -5.70463 12.3524 0.373157 0.307116 0 -0.2 5.92751 -0.389516 3.47952 -0.260663 -0.948494 -0.180039
-5.27969 -9.23044 9.6165 0.54384 -0.140486 0 1 5.93547 -0.152386 4.44908 0.552825 0.793218 0.255323
-4.09312 -6.05037 4.4095 0.490923 -0.371706 0 -1 5.95656 -0.999878 5.58727 -0.137521 0.544987 0.827089
-2.011 -5.875 11.0615 0.37523 -0.373001 -0.0252554 -0.253553 5.95858 -0.495688 3.53841 -0.733903 -0.671001 -0.105567
-9.01975 -6.191 4.01325 -0.53754 0.181987 0 -0.777778 6.00785 -0.871548 0.0686601 0.243692 0.223039 -0.943858
-5.77 -8.44 10.563 0.568423 0.0505372 0 -0.0888889 6.04678 0.23855 4.0613 0.951713 0.306736 0.0124313
-3.95025 -4.98125 4.1915 0.403797 -0.433529 0.703378 -1 6.10253 -0.439848 5.58727 -0.364018 0.223478 0.904184
-10.148 -1.38462 7.12813 0.016896 0.165579 0 -0.866667 6.12632 -0.219836 1.39583 0.229914 0.611414 -0.757174
-5.725 -6.1115 13.164 0.28495 0.155881 0 -0.199861 6.1622 -0.999881 3.40952 0.778413 -0.53643 -0.326062
-5.72906 -2.47112 12.6509 -0.209615 0.233944 0 -0.2 6.16324 -0.310485 2.36331 -0.0788777 0.986902 0.140719
-10.4152 -2.56775 4.9595 -0.10965 0.145211 -0.00293626 -0.85504 6.28478 -0.197551 0.860637 0.427255 0.881527 0.200905
-1.991 -1.967 11.037 -0.109312 -0.266314 0 -0.2 6.31024 0.0152856 2.96603 -0.456314 0.833743 -0.310886
-9.65375 -0.18225 9.868 -0.0384657 0.0499121 0 -0.866667 6.36038 0.035881 1.64953 0.944339 0.32223 0.066263
-9.5915 -3.258 3.9775 -0.310933 0.0244785 -0.124325 -0.777778 6.38668 0.126382 0.3122 0.845598 0.469669 -0.25372
-9.64669 -1.105 10.3852 -0.036121 0.124713 0 -0.866667 6.41267 -0.146609 1.64953 0.861516 0.199114 0.467058
-1.62925 -2.0845 9.506 -0.3736 -0.329411 -0.239979 -0.0888889 6.44606 0.693731 2.96603 -0.672234 0.587866 -0.450016
-9.42325 -2.72775 11.9522 -0.069941 0.0934779 0 -0.779522 6.49791 -0.999869 1.83977 0.61736 0.784708 -0.0556738
-2.69287 -5.83144 5.22319 0.455863 -0.428414 0.425143 -1 6.51488 -0.739062 5.09587 -0.654214 0.459018 0.601088
-7.35575 -6.70587 2.56169 -0.151647 0.278227 0 -0.485396 6.60401 -0.712272 0.0954947 -0.706322 0.699094 -0.111252
-3.04312 -9.22025 8.00725 0.43946 -0.283703 0 0.844444 6.67701 -0.999875 4.91786 -0.450346 0.747347 0.488529
-4.05363 -3.21913 3.93375 0.0999057 -0.43722 0 -1 6.71151 0.525863 5.88175 -0.710511 0.29783 0.637551
-8.49575 -2.5645 12.975 -0.0942213 0.148048 -0.18369 -0.368789 6.72223 -0.54535 2.07064 0.186533 0.919786 -0.345252
-2.162 -8.0945 7.9165 0.50133 -0.366033 0 -0.0888889 6.76849 -0.999892 4.94728 -0.909633 0.295624 0.291845
-2.3525 -6.17938 7.56938 0.610377 -0.497374 0.281908 -0.506213 6.84257 0.253721 5.09587 -0.928894 0.314033 0.196315
-3.82663 -9.5445 8.57913 0.41984 -0.21479 0 0.913713 6.86377 -0.8139 4.65466 -0.0289599 0.975135 0.219709
-6.46925 -5.10881 1.25181 -0.019668 -0.279107 0 -0.880138 6.95434 -0.259342 6.14771 -0.779521 0.411465 0.472275
-4.83238 -6.22475 14.045 0.203985 0.201369 0 -0.172968 7.00846 -0.343419 3.40952 0.337459 -0.863933 -0.373821
-2.78744 -5.99862 13.4154 0.311591 0.248272 0 -0.2 7.03474 -0.106675 3.47952 -0.0566234 -0.97951 -0.193273
-2.18438 -7.15963 8.50113 0.52569 -0.433108 0 -0.0888889 7.07014 -0.211752 4.94728 -0.97819 -0.0684411 0.19611
-4.69075 -2.53175 13.1115 -0.183255 0.241667 0 -0.2 7.09561 -0.383292 2.74515 -0.350228 0.931539 -0.0978508
-4.561 -3.0465 2.529 0.146464 -0.332903 0.0175719 -1 7.10637 0.268546 5.9507 -0.805122 0.509933 0.302898
-1.7585 -6.495 11.9974 0.3505 -0.322275 0 -1 7.10926 0.0230992 3.53841 -0.875271 -0.44215 0.195971
-11.3241 -2.33512 5.93962 -0.0451153 0.138384 0 -0.866667 7.12659 -0.709798 0.860637 0.252521 0.915196 -0.314085
-10.1615 0.4705 8.58675 -0.04119 -0.00206266 0 -0.866667 7.12786 -0.215396 1.39583 0.911713 0.337515 -0.234228
-10.237 -1.322 11.2058 -0.214441 0.0904909 -0.238289 -0.866667 7.13074 -0.926325 1.83977 0.927756 0.180387 0.326696
-8.796 -7.136 2.874 -0.135071 0.184381 -0.000741121 -0.36136 7.14287 -0.830724 0.0686601 -0.102779 0.977726 -0.182997
-7.47087 -2.52638 13.4104 -0.0864843 0.153225 0 -0.2 7.14942 -0.109034 2.07064 0.181217 0.970668 -0.157999
-9.66475 -6.88675 3.34425 -0.183105 0.123441 0 -0.415662 7.16874 -0.846726 0.0686601 0.304819 0.803747 -0.510956
-1.90625 -6.818 10.2917 0.36039 -0.382837 -0.276012 -0.372184 7.18039 -0.273895 3.53841 -0.962724 -0.18519 0.197148
-3.15875 -1.42963 12.8542 0.0612547 -0.231459 0.542764 0.4 7.21375 0.166984 2.74515 -0.499533 0.666475 -0.553423
-10.5411 0.020375 7.60388 -0.0416343 0.112161 0 -0.866667 7.21924 0.287834 1.39583 0.449597 0.384052 -0.806453
-2.33325 -1.6125 12.1005 0.0651217 -0.213532 0.0357752 -0.134356 7.21935 -0.221343 2.74515 -0.27871 0.82363 -0.493918
-2.309 -6.189 8.945 0.43995 -0.476214 0 -0.0888889 7.22843 0.159897 3.38799 -0.990824 0.123307 -0.0553434
-5.76875 -4.03025 1.206 -0.335113 -0.274805 0.547276 -1 7.25139 -0.502144 6.14771 -0.659128 0.428587 0.617951
-1.69987 -5.249 6.81862 0.450617 -0.42915 0.09057 -0.79922 7.25473 -0.615685 5.09587 -0.818807 0.560268 0.125122
-11.189 -0.84225 7.053 -0.0315099 0.165031 0 -0.866667 7.30254 0.617094 1.39583 0.0537119 0.434125 -0.89925
-6.14838 -8.3445 12.8004 0.305386 0.0586613 0 -0.0888889 7.30509 -0.577007 3.84804 0.998638 0.0306221 -0.0422442
-10.316 -5.06875 3.35775 -0.325391 0.124813 0 -0.809818 7.33268 -0.68097 0.3122 0.673115 -0.274309 -0.686783
-9.96212 0.7785 9.82487 -0.0460157 -0.0453337 0 -0.866667 7.37033 -0.429738 1.64953 0.984476 0.0508648 -0.167988
-5.6675 -9.7635 11.0267 0.39355 0.0932274 0 0.661547 7.4529 -0.536952 4.44908 0.829797 0.432144 0.353113
-1.52013 -6.21325 13.1946 0.52676 0.266348 0 -0.2 7.45581 -0.524356 3.47952 -0.53448 -0.837967 0.110193
-4.34269 -10.1756 10.3532 0.501757 -0.195393 0 0.960233 7.45666 -0.382665 4.44908 0.0574804 0.76062 0.646648
-1.03 -3.787 8.5425 0.191599 -0.375656 -0.000550657 -0.0888889 7.49229 -0.66072 3.38799 -0.841293 0.29785 -0.451123
-2.817 -4.43525 4.809 0.438413 -0.458115 0.745353 -1 7.50384 -0.632374 5.58727 -0.582432 0.0504241 0.811314
-10.0218 -4.13219 2.61144 0.0095534 -0.0760901 0 -0.866667 7.57792 0.0786728 0.3122 0.962657 -0.158563 -0.21943
-5.19125 -3.15313 1.31638 -0.263014 -0.268797 0 -0.777778 7.66844 -0.201481 5.9507 -0.612573 0.506803 0.606552
-7.487 -6.942 1.53 -0.053482 -0.207476 0 -0.355556 7.67049 -0.882381 0.0954947 -0.35587 0.914039 0.194652
-3.57711 -9.55381 9.77205 0.436577 -0.226194 0 0.913024 7.67545 0.132051 4.44908 -0.197054 0.922204 0.33273
-0.47025 -1.53 9.122 -0.106855 -0.256191 -0.47734 -0.0888889 7.78703 0.17356 2.96603 -0.559631 0.807507 -0.186402
-0.977813 -1.33644 11.9819 0.0576827 -0.166807 0 -0.155669 7.8324 -0.143982 2.74515 -0.0664935 0.980925 -0.18266
-5.90675 -2.65587 14.3011 -0.117535 0.164001 0 -0.2 7.83323 -0.7564 2.36331 0.000315313 0.991663 -0.12886
-10.2933 -1.5525 3.79225 0.2774 -0.117637 0.732195 -0.866667 7.83657 0.441177 0.860637 0.67929 0.548711 0.487321
-10.6788 -6.08825 3.1925 -0.175523 0.0319235 0 -0.808804 7.86167 -0.999887 0.3122 0.935904 0.144782 -0.321127
-9.76156 0.291438 11.3061 -0.0964303 -0.101616 0 0.4 7.87832 -0.15531 1.64953 0.936059 -0.348835 -0.0459032
-11.926 -2.06175 4.8235 0.08382 0.146701 0 0.844444 7.88385 -0.421432 0.860637 0.214942 0.911725 0.350082
-3.12075 -3.278 4.64725 0.334693 -0.454903 0 -1 7.88744 0.461773 5.88175 -0.612575 0.0962018 0.784536
-9.30481 -1.76231 13.5004 -0.51173 -0.0711972 -0.615631 -0.777778 7.97688 -0.45824 2.07064 0.595097 0.508562 -0.622273
-2.77375 -9.09387 9.28175 0.433723 -0.281282 0 0.844444 7.98578 -0.218317 4.65466 -0.625672 0.758327 0.182961
-3.2065 -2.32675 4.27975 0.130018 -0.391007 0 -1 7.98967 0.539275 5.88175 -0.661631 0.374437 0.649648
-11.3206 -1.394 4.09538 0.428673 0.175767 0.301046 -0.866667 8.00063 0.406092 0.860637 0.0982185 0.706631 0.700733
-4.765 -2.518 14.248 -0.200502 0.204243 0 -0.2 8.02934 -0.84256 2.74515 -0.364464 0.919285 -0.148599
-10.0621 -2.179 2.79284 0.659237 -0.0501725 0 -0.866667 8.05674 -0.0770625 0.3122 0.993385 0.114721 0.00508027
-1.81662 -4.56588 5.56887 0.41354 -0.429749 0.340609 -1 8.09252 -0.672701 5.09587 -0.783066 0.239221 0.574091
-0.426 -1.17206 10.6077 -0.082501 -0.208838 0 -0.0888889 8.11729 0.701762 2.96603 -0.363504 0.925447 -0.106831
-0.620125 -2.47038 8.16737 0.103473 -0.345506 -0.60344 -0.38732 8.16628 -0.131727 2.96603 -0.933496 0.310793 -0.178866
-12.2112 -1.32056 6.83494 -0.0297725 0.123504 0 -0.464164 8.21124 -0.41028 0.860637 0.212442 0.686723 -0.695183
-7.0405 -6.171 0.85725 -0.132005 -0.242471 0.00973336 -0.850191 8.2233 -0.999867 6.14771 -0.60925 0.463412 0.643478
-1.71375 -7.84975 10.351 0.248422 -0.332504 -0.236758 -0.347251 8.23162 -0.791293 3.53841 -0.959066 -0.0283712 0.281756
-10.1517 -1.443 12.8884 -0.57693 -0.0309411 -0.0908054 -0.810518 8.24654 -0.920442 1.83977 0.884903 0.208359 -0.416574
-2.13225 -8.094 9.39625 0.419197 -0.353156 0 0.107925 8.24854 -0.0980801 3.53841 -0.947777 0.184363 0.260248
-7.06962 -2.47638 14.4404 -0.0257032 0.110062 0.0962312 -0.376944 8.25594 -0.731081 2.07064 0.328211 0.848099 -0.415938
-5.70131 -7.94219 14.2342 0.465197 0.0624969 0 -0.0888889 8.28288 -0.359134 3.40952 0.924738 -0.100025 -0.367226
-3.709 -1.9195 3.02475 -0.0954547 -0.317816 0 -1 8.3345 0.676436 5.9507 -0.766861 0.573532 0.288072
-10.2965 1.40625 7.82575 -0.117352 -0.143911 0 -0.777778 8.34152 -0.0680291 1.39583 0.562055 -0.588037 -0.581642
-7.47038 -4.79637 0.310625 -0.0074969 -0.224828 0.103803 -0.00718982 8.3635 -0.545855 6.14771 -0.358296 0.193719 0.913289
-3.69738 -1.33834 13.9881 0.059151 -0.230911 0.407209 0.4 8.4724 -0.414425 2.74515 -0.730711 0.470451 -0.494709
-0.950875 -7.54581 12.4346 0.0322214 0.262316 -0.245019 -1 8.50483 0.0521168 3.53841 -0.632297 -0.545991 0.549632
-11.8252 -0.017625 7.72687 -0.0253071 0.149327 0 -0.866667 8.50978 -0.496865 1.39583 0.0271841 0.356959 -0.933724
-9.66938 1.7765 10.3371 -0.0597057 -0.121177 0 0.4 8.52967 -0.672893 1.64953 0.732011 -0.557361 -0.391801
-1.91937 -6.21275 14.6142 0.51438 -0.215734 0.0700813 -0.50916 8.53024 -0.761247 3.47952 -0.314087 -0.892927 -0.322539
-9.6935 -7.11513 1.80638 -0.246053 -0.113608 -0.0592266 -0.306607 8.53777 -0.999868 0.0686601 0.37578 0.909047 0.180065
-10.1956 -0.223 12.1319 -0.318546 -0.0859946 -0.563898 -0.758511 8.56851 -0.999829 1.83977 0.948219 -0.288896 -0.131983
-6.0635 -9.55275 13.222 0.51936 0.0203744 0 -0.0888889 8.5876 -0.999827 3.84804 0.961183 0.228341 -0.154877
-1.63806 -0.748062 12.9071 0.207123 -0.146555 0 0.0257813 8.5909 0.00689755 2.74515 -0.00624998 0.683988 -0.729466
-4.87 -7.05025 15.4299 0.42535 0.135602 0 -0.0888889 8.62116 -0.21173 3.40952 0.602014 -0.722362 -0.340253
-4.00506 -2.0625 1.51047 -0.0901213 -0.25692 0.0411343 -0.905249 8.62779 -0.520918 5.9507 -0.716805 0.620311 0.318442
-0.949313 -4.12856 7.11919 0.359443 -0.397365 0 -0.584002 8.63642 -0.611672 5.09587 -0.913709 0.35722 0.193727
-3.731 -6.37675 15.2506 0.378683 0.18286 0 -0.2 8.64846 -0.78274 3.47952 0.146035 -0.903592 -0.402736
-5.65947 -10.4865 12.0315 0.227417 -0.0620366 -0.128585 -0.0888889 8.69081 -0.867021 4.44908 0.739189 0.670298 0.0655765
-4.77881 -2.13075 0.714437 -0.363993 -0.204786 0 -0.777778 8.9245 -0.109836 5.9507 -0.286221 0.75919 0.584558
-7.02675 -3.451 0.24375 -0.00575907 -0.22961 0 -0.777778 8.93781 -0.510175 6.14771 -0.433467 0.192387 0.880394
-12.9301 -1.75412 5.27763 0.055192 0.09469 0 0.844444 8.95826 -0.491279 0.860637 0.392603 0.909855 -0.134266
-9.93338 -3.12075 1.56225 0.172188 -0.0887886 -0.272166 -0.275322 9.03793 -0.198487 0.3122 0.938129 0.0129367 0.346044
-4.3105 -11.2565 11.5763 0.575097 -0.119993 0 -0.0888889 9.08925 -0.758212 4.44908 0.336622 0.872277 0.354709
-8.57725 -6.64775 0.646625 -0.127634 -0.175627 -0.299851 -0.308876 9.10422 -0.999849 0.0954947 -0.0512426 0.665153 0.744947
-1.463 -8.376 11.3333 0.176508 0.286388 -0.105314 -1 9.12582 0.32598 3.53841 -0.806276 -0.255371 0.533577
-6.1225 -2.22088 0.649594 -0.113871 -0.222202 0 -0.777778 9.14523 0.61095 5.9507 -0.336361 0.46711 0.817722
-8.74413 1.04475 11.6525 -0.0659547 -0.164433 0 0.4 9.19081 0.178468 1.64953 0.462599 -0.739102 -0.489623
-10.2015 -0.57325 2.828 0.422387 -0.0644492 0.39001 -0.866667 9.21393 0.999895 0.860637 0.802382 0.564311 0.194259
-12.8094 -1.55587 3.96275 0.584057 0.144756 0 0.0253213 9.21697 -0.393132 0.860637 0.0341578 0.890859 0.452993
-5.15737 -2.20863 15.3814 -0.0770677 -0.164686 -0.423582 0.4 9.22198 -0.999859 2.74515 -0.285748 0.688131 -0.666951
-8.64675 -1.3 14.493 -0.307199 -0.0676161 -0.805512 -0.777778 9.25439 -0.640637 2.07064 0.694924 0.166547 -0.69953
-3.302 -11.1471 11.4605 0.51537 -0.171191 0 0.844444 9.26026 -0.374138 4.44908 -0.0613465 0.694598 0.716778
-7.49125 -1.47625 15.2793 0.247017 -0.0795932 0.704737 -0.777778 9.29324 -0.569798 2.07064 0.469884 0.554722 -0.686653
0.656875 -0.954625 11.0969 0.257629 -0.166522 0 -0.0888889 9.32527 0.407777 2.96603 -0.172353 0.969797 0.17259
-10.269 -4.94088 1.079 -0.0595383 -0.112797 0.202432 -0.319053 9.3282 -0.592599 0.3122 0.843489 -0.184587 0.504435
-10.5476 1.928 6.92238 -0.116807 -0.207381 0 -0.777778 9.41453 0.595931 1.39583 -0.197212 -0.846173 -0.495074
-7.93925 -3.85125 0.11075 0.212988 -0.194711 0.0293317 0.688447 9.43729 -0.337917 6.14771 -0.00853468 0.131053 0.991339
-0.27 -0.883 13.3573 0.187824 -0.0683017 0 -0.2 9.44434 -0.074031 2.74515 0.52276 0.654727 -0.545943
0.94725 -0.8885 9.82619 0.196768 -0.164728 0.025898 -0.0888889 9.49487 0.0536257 2.96603 -0.162998 0.986589 -0.00857057
-0.030375 -1.28225 7.4885 0.122921 -0.244212 0.00467234 -0.980047 9.49676 0.180699 2.96603 -0.531229 0.845946 0.0465979
0.031 -7.35913 13.8882 0.636333 -0.214276 0.318217 -0.960587 9.50523 -0.484615 3.47952 -0.612271 -0.790601 0.00867966
-2.31381 -1.10175 4.2515 0.100769 -0.300264 0 -1 9.50569 0.465965 5.88175 -0.672386 0.636115 0.37849
-2.90569 0.68025 13.7451 0.049932 -0.172828 0 0.4 9.51795 0.0684272 2.74515 -0.312653 0.115108 -0.942867
-11.7758 -0.279312 3.14 0.854883 0.146634 0 -0.866667 9.53766 0.999845 0.860637 -0.00178891 0.88621 0.46328
-13.1676 -0.608 7.422 -0.051514 0.0936174 0 0.191585 9.54055 -0.999878 1.39583 0.357549 0.532034 -0.767528
-1.476 -3.1625 5.95813 0.62033 -0.404014 0.397828 -1 9.58818 0.0432137 5.09587 -0.693237 0.143144 0.706351
-11.772 1.0155 8.0525 -0.120183 0.158289 0 -0.777813 9.59431 -0.688054 1.39583 -0.0128847 -0.133187 -0.991007
-1.88644 -9.22363 10.6494 0.397807 -0.257327 0 0.844444 9.60862 -0.0799102 4.44908 -0.616614 0.425512 0.662365
-9.43606 -0.117812 13.4581 -0.329975 -0.0796553 -0.0503273 0.201144 9.62715 -0.30643 1.83977 0.804556 -0.193789 -0.561369
-10.0174 -1.68037 1.3035 0.77966 -0.057113 -0.0571727 -0.218217 9.62797 -0.118848 0.3122 0.938772 0.263775 0.221652
-8.84081 0.750188 12.7536 -0.0905627 -0.148717 0 0.4 9.65413 -0.0673089 1.64953 0.626112 -0.771068 -0.115926
-10.5968 -5.89213 1.39713 -0.152711 -0.0741194 0 -0.2 9.66958 -0.811398 0.0686601 0.886917 0.280722 0.366841
-0.7125 -3.14287 6.77037 0.40072 -0.376169 0 -1 9.70849 -0.786713 5.09587 -0.909629 0.176453 0.376085
-1.22113 0.0809375 13.5485 0.0400333 -0.106751 0 0.4 9.71894 -0.0746796 2.74515 0.27894 0.353428 -0.892906
-3.83075 -0.304 14.6757 -0.026281 -0.201888 -0.0434052 0.446411 9.72157 -0.560929 2.74515 -0.607594 -0.0369576 -0.793388
-1.8625 -1.868 5.281 0.414427 -0.355089 0 -1 9.72728 0.454107 5.88175 -0.642916 0.358324 0.676951
-5.41463 -10.342 13.8094 0.499113 -0.0218092 0 0.271149 9.76615 -0.471593 3.84804 0.814785 0.508942 -0.277674
-4.4885 -6.99975 16.5465 0.454337 0.129291 0 0.0897651 9.80221 -0.999917 3.40952 0.437605 -0.720127 -0.538441
-1.30838 -7.12044 15.2753 0.716963 -0.189657 0.477581 -0.777778 9.80862 -0.300777 3.47952 -0.452784 -0.683757 -0.572243
-9.72725 -6.4445 0.72725 -0.414443 -0.130636 -0.747204 -0.2 9.80875 -0.999881 0.0686601 0.485707 0.408432 0.772833
3 104 134 146
3 167 130 189
3 161 130 113
3 130 120 72
3 72 120 69
3 69 30 72
3 66 99 53
3 66 53 23
3 23 53 27
3 161 113 174
3 54 113 72
3 26 54 29
3 29 30 14
3 30 52 36
3 14 36 23
3 36 66 23
3 23 27 9
3 23 9 14
3 27 22 9
3 13 12 35
3 41 22 27
3 73 41 71
3 41 27 53
3 71 41 92
3 53 92 41
3 92 53 99
3 158 165 114
3 158 114 154
3 114 89 154
3 115 149 94
3 55 19 57
3 57 19 44
3 57 44 79
3 44 19 34
3 44 34 65
3 79 44 65
3 0 8 6
3 14 6 8
3 8 17 14
3 0 6 2
3 2 9 4
3 5 4 13
3 5 15 20
3 15 13 33
3 33 32 88
3 32 68 88
3 68 32 35
3 129 68 119
3 35 80 95
3 73 71 122
3 107 122 71
3 154 89 141
3 141 79 127
3 79 124 127
3 112 185 124
3 103 76 46
3 46 18 45
3 18 10 24
3 10 18 1
3 1 18 7
3 3 0 5
3 5 20 25
3 101 51 111
3 20 33 37
3 74 37 70
3 33 20 15
3 58 88 98
3 95 139 119
3 170 125 188
3 181 127 195
3 111 155 103
3 103 82 101
3 82 45 87
3 82 87 101
3 18 24 38
3 21 5 25
3 25 59 40
3 101 97 51
3 97 136 90
3 90 136 164
3 87 138 97
3 136 187 164
3 116 60 110
3 126 83 116
3 83 60 116
3 24 50 38
3 28 64 31
3 60 64 108
3 108 110 60
3 47 105 64
3 108 64 105
3 85 59 86
3 59 90 109
3 109 86 59
3 108 151 157
3 105 140 151
3 85 86 156
3 156 86 148
3 140 85 153
3 156 153 85
3 74 117 133
3 133 117 179
3 118 132 70
3 70 100 118
3 152 118 100
3 152 100 98
3 152 182 193
3 182 144 194
3 173 178 132
3 55 84 77
3 94 77 115
3 128 168 123
3 123 168 160
3 168 128 183
3 113 130 72
3 69 52 30
3 66 91 134
3 66 134 104
3 128 123 69
3 128 69 120
3 69 91 52
3 52 91 66
3 69 123 91
3 134 91 160
3 160 91 123
3 92 99 142
3 146 142 99
3 186 142 146
3 134 184 146
3 130 161 189
3 199 174 191
3 149 199 191
3 149 191 121
3 149 121 96
3 113 106 121
3 113 121 174
3 174 121 191
3 54 63 106
3 54 106 113
3 63 54 26
3 19 26 8
3 8 26 17
3 26 29 17
3 14 17 29
3 14 30 36
3 4 12 13
3 12 4 22
3 9 22 4
3 35 12 22
3 49 35 22
3 49 41 73
3 49 22 41
3 71 92 107
3 107 92 142
3 107 142 147
3 165 102 114
3 84 55 102
3 143 84 159
3 102 159 84
3 159 102 165
3 176 143 159
3 115 135 163
3 77 84 135
3 77 135 115
3 143 135 84
3 149 115 163
3 149 163 199
3 94 149 96
3 63 96 121
3 63 121 106
3 77 94 56
3 56 96 63
3 96 56 94
3 48 56 26
3 26 56 63
3 48 77 56
3 55 77 48
3 65 34 61
3 61 34 43
3 1 7 0
3 19 43 34
3 43 19 18
3 18 19 7
3 0 7 8
3 8 7 19
3 5 0 4
3 4 0 2
3 129 88 68
3 170 172 125
3 125 172 80
3 172 95 80
3 95 172 139
3 93 49 73
3 150 122 190
3 122 150 93
3 122 93 73
3 166 190 122
3 122 107 147
3 122 147 166
3 185 127 124
3 103 131 76
3 76 131 112
3 112 131 185
3 46 76 39
3 39 76 61
3 39 61 43
3 61 76 65
3 112 65 76
3 46 39 18
3 43 18 39
3 18 38 45
3 24 10 16
3 10 1 3
3 11 28 16
3 11 16 3
3 10 3 16
3 3 5 11
3 25 20 51
3 74 111 37
3 37 51 20
3 51 37 111
3 70 37 58
3 70 58 100
3 58 37 33
3 98 100 58
3 144 98 88
3 129 144 88
3 169 144 129
3 169 129 119
3 169 139 172
3 119 139 169
3 137 150 188
3 137 188 125
3 188 150 190
3 93 150 75
3 49 93 75
3 150 137 75
3 49 75 35
3 35 75 80
3 80 75 125
3 137 125 75
3 155 192 185
3 131 103 155
3 131 155 185
3 81 87 45
3 138 87 81
3 138 81 126
3 78 126 81
3 78 81 45
3 78 45 38
3 83 126 78
3 50 83 38
3 38 83 78
3 24 16 31
3 31 16 28
3 47 28 42
3 42 28 11
3 42 11 21
3 5 21 11
3 21 40 42
3 59 25 62
3 59 62 90
3 51 97 62
3 51 62 25
3 62 97 90
3 187 136 138
3 187 138 126
3 138 136 97
3 50 60 83
3 60 50 24
3 60 24 31
3 60 31 64
3 42 105 47
3 105 42 67
3 67 42 40
3 67 40 85
3 109 90 145
3 148 180 198
3 109 180 148
3 180 109 145
3 110 162 171
3 162 110 108
3 162 108 157
3 196 157 151
3 196 151 140
3 67 140 105
3 85 140 67
3 148 86 109
3 133 192 155
3 133 155 111
3 133 111 74
3 132 178 117
3 193 177 152
3 152 177 118
3 102 55 57
3 102 57 114
3 114 57 89
3 130 167 120
3 183 120 167
3 183 128 120
3 99 104 146
3 104 99 66
3 29 72 30
3 29 54 72
3 52 66 36
3 19 55 26
3 48 26 55
3 6 14 9
3 6 9 2
3 13 15 5
3 35 32 13
3 33 13 32
3 68 35 95
3 141 89 79
3 89 57 79
3 65 112 79
3 124 79 112
3 1 0 3
3 88 58 33
3 95 119 68
3 181 141 127
3 103 46 82
3 45 82 46
3 21 25 40
3 87 97 101
3 111 103 101
3 117 74 132
3 132 74 70
3 144 182 98
3 152 98 182
3 127 185 195
3 47 64 28
3 40 59 85
3 164 145 90
3 187 110 171
3 108 105 151
3 173 132 118
3 187 126 116
3 187 116 110
