ply
format ascii 1.0
comment Generated by PyMesh
element vertex 200
property float x
property float y
property float z
property float charge
property float ddc
property float hbond
property float hphob
property float rho
property float si
property float theta
property float nx
property float ny
property float nz
element face 348
property list uchar int vertex_indices
end_header
-9.76156 0.291438 11.3061 -0.0964303 0 0 0.4 1e-08 -0.15531 2.22045e-16 0.936059 -0.348835 -0.0459032
-10.1956 -0.223 12.1319 -0.318546 -0.0744751 -0.563898 -0.758511 1.06536 -0.999829 4.69529 0.948219 -0.288896 -0.131983
-8.74413 1.04475 11.6525 -0.0659547 -0.623731 0 0.4 1.31249 0.178468 3.15029 0.462599 -0.739102 -0.489623
-9.65375 -0.18225 9.868 -0.0384657 -0.389199 0 -0.866667 1.51794 0.035881 0.55586 0.944339 0.32223 0.066263
-9.96212 0.7785 9.82487 -0.0460157 0.205439 0 -0.866667 1.5721 -0.429738 1.13203 0.984476 0.0508648 -0.167988
-9.64669 -1.105 10.3852 -0.036121 -0.420353 0 -0.866667 1.67669 -0.146609 2.22045e-16 0.861516 0.199114 0.467058
-10.237 -1.322 11.2058 -0.214441 -0.346928 -0.238289 -0.866667 1.68502 -0.926325 5.68231 0.927756 0.180387 0.326696
-9.66938 1.7765 10.3371 -0.0597057 -0.284216 0 0.4 1.77563 -0.672893 1.9089 0.732011 -0.557361 -0.391801
-8.84081 0.750188 12.7536 -0.0905627 -0.349527 0 0.4 1.77581 -0.0673089 3.77625 0.626112 -0.771068 -0.115926
-10.1517 -1.443 12.8884 -0.57693 -0.246891 -0.0908054 -0.810518 2.50154 -0.920442 4.85532 0.884903 0.208359 -0.416574
-9.43606 -0.117812 13.4581 -0.329975 -0.238062 -0.0503273 0.201144 2.59727 -0.30643 4.32264 0.804556 -0.193789 -0.561369
-9.06 -0.9825 9.4 0.0107298 -0.414957 0 -0.866667 2.61883 0.0899438 0.290658 0.709073 0.625695 0.325148
-10.1615 0.4705 8.58675 -0.04119 0.224389 0 -0.866667 2.86344 -0.215396 0.976668 0.911713 0.337515 -0.234228
-9.14338 -2.21881 10.6134 0.047993 -0.441599 0 -0.866667 2.92006 -0.594547 5.91274 0.525658 0.686227 0.502768
-8.25669 2.225 10.649 -0.118063 -0.447382 0 0.4 2.93656 -0.654195 2.52908 0.102 -0.921986 -0.373547
-7.03288 1.72438 11.6827 -0.088661 -0.347625 0 -0.777778 3.15401 0.110981 3.03977 0.166318 -0.974006 -0.15379
-9.33762 2.37037 9.08325 0.0137652 -0.295007 -0.193176 -0.777778 3.20213 -0.78017 1.88966 0.361501 -0.930176 -0.0639541
-8.04775 1.27894 13.8454 -0.0537283 -0.270543 0 0.652107 3.22513 -0.659816 3.76241 0.402317 -0.81053 -0.425655
-7.6435 1.70875 13.037 -0.0383143 -0.270081 0 0.173561 3.33552 -0.768098 3.50964 0.439389 -0.897843 -0.0285534
-8.909 0.4065 14.286 -0.223873 -0.169832 -0.102703 -0.210171 3.34775 -0.729122 4.09876 0.73117 -0.497013 -0.4673
-9.42325 -2.72775 11.9522 -0.069941 -0.352645 0 -0.779522 3.4726 -0.999869 5.42763 0.61736 0.784708 -0.0556738
-9.30481 -1.76231 13.5004 -0.51173 -0.334056 -0.615631 -0.777778 3.59412 -0.45824 4.8215 0.595097 0.508562 -0.622273
-10.2965 1.40625 7.82575 -0.117352 0.199571 0 -0.777778 3.69398 -0.0680291 1.32075 0.562055 -0.588037 -0.581642
-9.39925 -0.69575 8.29525 0.0114345 0.362117 0 -0.866667 3.80954 0.0238771 0.566452 0.516402 0.75225 -0.409204
-8.08497 -1.88934 9.36447 0.207993 -0.354983 0 -0.866667 3.95086 -0.139227 6.24778 0.524179 0.786561 0.326433
-8.26437 -1.01525 8.31125 0.0134116 -0.32298 0 -0.866667 3.96771 0.802344 0.288946 0.555904 0.831173 -0.0110874
-10.5411 0.020375 7.60388 -0.0416343 0.291886 0 -0.866667 4.00919 0.287834 0.963627 0.449597 0.384052 -0.806453
-7.16862 2.01875 10.3194 -0.231346 -0.40697 0 -0.777778 4.09201 0.403521 2.59794 -0.1478 -0.973047 -0.177015
-8.7625 2.4195 8.222 -0.157419 -0.253271 0 -0.777778 4.23891 0.0662672 1.86568 0.280303 -0.957877 -0.062466
-7.99203 -2.64528 11.2072 0.106454 -0.465291 0 -0.2 4.28391 -0.397675 5.71399 -0.0144315 0.992396 0.122235
-8.64675 -1.3 14.493 -0.307199 -0.216862 -0.805512 -0.777778 4.35557 -0.640637 4.54414 0.694924 0.166547 -0.69953
-5.77275 1.7585 11.7533 -0.103253 -0.263036 0 -0.777778 4.41658 0.612708 3.09067 0.118718 -0.992596 -0.0256668
-8.029 2.4285 9.085 -0.602413 -0.365762 -0.00413286 -0.777778 4.51204 -0.728005 2.19125 -0.0963041 -0.992581 -0.0742225
-8.03256 0.0735625 15.0258 -0.074313 -0.208225 0 0.317122 4.54203 -0.424753 4.14749 0.517041 -0.337749 -0.786508
-6.464 1.99188 13.131 0.00731747 -0.271622 0 0.0184685 4.55216 -0.596023 3.35843 0.114109 -0.94543 -0.305189
-10.5476 1.928 6.92238 -0.116807 0.289651 0 -0.777778 4.76699 0.595931 1.38351 -0.197212 -0.846173 -0.495074
-8.49575 -2.5645 12.975 -0.0942213 -0.405599 -0.18369 -0.368789 4.84876 -0.54535 5.17875 0.186533 0.919786 -0.345252
-11.189 -0.84225 7.053 -0.0315099 0.305913 0 -0.866667 5.22054 0.617094 0.906135 0.0537119 0.434125 -0.89925
-11.772 1.0155 8.0525 -0.120183 0.347786 0 -0.777813 5.23709 -0.688054 1.22641 -0.0128847 -0.133187 -0.991007
-11.8252 -0.017625 7.72687 -0.0253071 0.342321 0 -0.866667 5.29972 -0.496865 1.04236 0.0271841 0.356959 -0.933724
-10.148 -1.38462 7.12813 0.016896 0.294583 0 -0.866667 5.35787 -0.219836 0.696397 0.229914 0.611414 -0.757174
-6.951 -2.5145 9.9525 0.198646 -0.343625 0 -0.2 5.373 -0.0955885 6.01963 0.21621 0.976343 0.00262576
-7.8825 2.953 7.627 -0.35799 -0.163751 -0.320025 -0.777778 5.42763 0.118567 1.95732 0.482397 -0.698784 -0.528199
-4.76137 2.07962 11.2802 -0.115962 -0.132509 0 -0.777778 5.4881 0.343031 2.97691 0.554042 -0.813106 -0.178594
-8.17025 -1.88312 7.04 0.270622 -0.255828 0.232979 -0.866667 5.50983 0.677647 0.375653 0.329029 0.739171 -0.587679
-7.07212 2.2745 8.75 -0.65835 -0.286443 0 -0.777778 5.53749 0.371183 2.2637 0.0164395 -0.918462 -0.395167
-8.85525 2.47675 6.7845 -0.14394 0.152495 0 -0.777778 5.68054 0.66176 1.68927 0.496342 -0.751685 -0.434297
-7.16125 -2.234 7.76575 0.524633 -0.226376 0.104137 -0.866667 5.6997 0.213785 0.142985 0.557123 0.812604 -0.171138
-5.53575 1.5295 13.741 -0.000628653 -0.263977 0 0.933333 5.7553 -0.198105 3.42536 -0.121869 -0.773495 -0.621975
-7.49125 -1.47625 15.2793 0.247017 -0.231377 0.704737 -0.777778 5.76429 -0.569798 4.71927 0.469884 0.554722 -0.686653
-5.243 2.07262 9.748 -0.325034 -0.199107 0 -0.777778 5.81258 0.477433 2.64585 0.239633 -0.959016 -0.151212
-7.47087 -2.52638 13.4104 -0.0864843 -0.347177 0 -0.2 5.96294 -0.109034 5.30826 0.181217 0.970668 -0.157999
-10.4847 2.58538 5.91437 -0.144598 0.226242 0 -0.777778 5.97205 0.999835 1.48739 -0.122722 -0.723589 -0.679234
-6.8605 -0.341 15.9435 0.0436187 -0.184033 0.47085 -0.777778 6.08727 -0.759795 4.71927 0.396037 -0.188333 -0.898713
-4.70913 2.10713 12.9949 -0.0695653 -0.183336 0 0.112684 6.08822 -0.234144 3.42536 0.223145 -0.9024 -0.368619
-6.351 -2.99425 8.68025 0.534287 -0.193283 0 -0.533636 6.1178 -0.0896829 0.142985 0.659098 0.746601 -0.0904267
-6.2165 -2.099 11.352 -0.0479317 -0.379983 0 -0.2 6.14721 0.734313 5.71399 -0.0671779 0.99727 0.0306544
-11.8441 3.039 6.80875 -0.203605 0.299987 0 -0.777778 6.16283 -0.129084 1.48739 -0.620274 -0.445901 -0.645316
-6.381 0.66075 15.2494 0.00722077 -0.237991 0 0.933333 6.30907 -0.597313 4.14749 -0.00666402 -0.786907 -0.617035
-12.2112 -1.32056 6.83494 -0.0297725 0.254462 0 -0.464164 6.36998 -0.41028 0.906135 0.212442 0.686723 -0.695183
-12.7525 1.6205 7.86925 -0.21949 0.19407 0 -0.789078 6.4037 -0.999865 1.22641 0.455324 -0.33272 -0.825819
-7.07575 3.65275 7.62 -0.740467 0.176042 -0.904836 -0.777778 6.49559 0.119565 1.95732 0.364177 -0.385337 -0.847874
-5.82725 -2.50425 9.9965 0.16658 -0.283679 0 -0.2 6.49766 0.279194 6.01963 0.185066 0.85031 -0.49267
-8.982 -2.2765 6.4235 0.0985167 0.244956 0 -0.866667 6.60242 0.225585 0.375653 0.208589 0.693139 -0.689962
-6.0835 2.4585 8.3595 -0.411577 -0.237711 0 -0.777778 6.61625 0.629984 2.2637 0.00776644 -0.751767 -0.659383
-13.1676 -0.608 7.422 -0.051514 0.232278 0 0.191585 6.79756 -0.999878 1.04236 0.357549 0.532034 -0.767528
-8.06475 3.8725 6.61625 -0.538687 0.0878383 -0.346584 -0.777778 6.80615 -0.224496 1.95732 0.721615 -0.50556 -0.472948
-5.345 0.7695 14.552 -0.0206934 -0.252502 0 0.933333 6.883 0.669516 3.42536 -0.203801 -0.759961 -0.617191
-6.187 -2.8705 7.317 0.785327 -0.147007 0.122961 -0.866667 6.94697 0.873616 0.142985 0.76518 0.638045 -0.0860097
-5.72906 -2.47112 12.6509 -0.209615 -0.322379 0 -0.2 6.97382 -0.310485 5.30826 -0.0788777 0.986902 0.140719
-4.11125 3.07125 10.2505 -0.46734 -0.019748 -0.675989 -0.700584 7.05853 0.336372 2.97691 0.957848 -0.280915 0.0601128
-7.06962 -2.47638 14.4404 -0.0257032 -0.265615 0.0962312 -0.376944 7.06947 -0.731081 5.30826 0.328211 0.848099 -0.415938
-5.0945 2.38025 8.52125 -0.57556 -0.175978 -0.0940975 -0.777778 7.086 0.999876 2.64585 0.251057 -0.772446 -0.583351
-9.886 -2.553 5.83125 -0.130164 0.224154 0 -0.84122 7.12299 -0.205416 0.696397 0.231542 0.833637 -0.501436
-10.4535 3.562 5.2365 -0.40259 0.191646 -0.020679 -0.777778 7.16128 0.339339 1.48739 -0.0918272 -0.622429 -0.77727
-3.53912 2.96525 12.1566 -0.429103 -0.080297 -0.08843 0.764851 7.23346 0.402783 2.97691 0.718337 -0.495399 -0.488439
-7.69875 -3.17213 5.98338 0.781853 -0.192004 0.112886 -0.866667 7.24197 0.118032 0.375653 0.299425 0.616534 -0.728169
-8.757 3.626 5.702 -0.359417 0.13147 -0.0132736 -0.777778 7.26238 0.402406 1.68927 0.435516 -0.646049 -0.626855
-5.719 -0.127 16.1567 -0.0384123 -0.22275 0 0.798507 7.26806 -0.999911 4.71927 -0.158741 -0.406461 -0.899773
-11.3241 -2.33512 5.93962 -0.0451153 0.225407 0 -0.866667 7.28121 -0.709798 0.696397 0.252521 0.915196 -0.314085
-11.5653 3.48875 5.81225 -0.266687 0.2515 -0.304965 -0.777778 7.29111 0.449653 1.48739 -0.579591 -0.556343 -0.595447
-4.18175 0.935375 14.1839 -0.0221448 -0.223611 0 0.924198 7.29882 -0.18944 3.42536 -0.205217 -0.606615 -0.768052
-12.902 2.5225 6.736 -0.14208 0.223318 -0.151781 -0.647524 7.34233 0.302932 1.22641 0.196229 0.5215 -0.83038
-3.42144 2.20444 13.4284 -0.243935 -0.147432 -0.116342 0.9093 7.4504 -0.172714 3.42536 0.306256 -0.504535 -0.80725
-4.036 3.906 11.0367 -0.250796 0.0625935 -0.968542 0.866969 7.46828 0.119188 2.97691 0.922986 0.0195298 -0.384338
-13.9104 0.437875 7.28562 -0.00133665 0.12705 -0.107561 -0.515387 7.47923 -0.886426 1.04236 0.703222 -0.0278299 -0.710425
-6.4485 -3.06988 6.36562 0.82373 -0.15441 0.232478 -0.866667 7.47933 0.999867 0.142985 0.581447 0.599726 -0.549771
-3.975 2.80675 8.89725 -0.39338 -0.0725111 -0.127209 -0.777778 7.50685 0.999908 2.64585 0.737058 -0.577521 -0.351019
-6.316 4.25462 7.96925 -0.486033 0.167108 -0.309796 -0.777778 7.52586 -0.437401 1.95732 0.432233 0.0561925 -0.900009
-5.79569 -1.33506 16.1006 -0.0309629 -0.23418 0 0.4 7.55242 -0.999871 4.71927 -0.124208 0.290816 -0.948682
-4.73887 -2.95038 10.0363 0.168411 -0.215167 0 -0.2 7.6746 0.440618 6.01963 0.215907 0.495566 -0.841308
-8.9555 -3.102 5.67 -0.219211 -0.187179 -0.300687 -0.821164 7.72042 -0.278896 0.375653 0.401153 0.74822 -0.528435
-5.90675 -2.65587 14.3011 -0.117535 -0.276546 0 -0.2 7.76754 -0.7564 5.30826 0.000315313 0.991663 -0.12886
-11.8689 4.45662 6.01137 -0.555843 0.276165 -0.669681 -0.777778 7.7895 0.190311 1.48739 -0.97975 -0.146072 -0.136939
-5.61875 -4.25737 7.6965 1 -0.0543 0.473898 -0.866667 7.87832 0.429686 0.142985 0.978629 0.118664 -0.167943
-5.271 -4.34734 9.45378 0.429117 -0.0995253 0 -0.2 8.01401 0.0790899 6.01963 0.716884 -0.165769 -0.677199
-4.75675 0.05125 15.3105 -0.106209 -0.261125 -0.141506 0.669609 8.04499 -0.407501 3.42536 -0.547288 -0.301542 -0.780735
-5.118 3.48338 7.91625 -0.76351 0.167127 -0.83427 -0.777778 8.09241 0.703956 2.64585 0.3476 -0.00663432 -0.937619
-4.69075 -2.53175 13.1115 -0.183255 -0.291392 0 -0.2 8.11133 -0.383292 5.30826 -0.350228 0.931539 -0.0978508
-7.23431 5.14437 6.95969 -0.428093 0.0813397 -0.71813 -0.709978 8.13452 -0.250998 1.95732 0.767064 -0.239082 -0.595359
-12.9301 -1.75412 5.27763 0.055192 0.182668 0 0.844444 8.13916 -0.491279 0.906135 0.392603 0.909855 -0.134266
-10.4152 -2.56775 4.9595 -0.10965 -0.18362 -0.00293626 -0.85504 8.14291 -0.197551 0.696397 0.427255 0.881527 0.200905
-5.15737 -2.20863 15.3814 -0.0770677 -0.252873 -0.423582 0.4 8.21252 -0.999859 4.71927 -0.285748 0.688131 -0.666951
-9.9465 4.2475 4.6095 -0.413987 0.144521 0 -0.777778 8.21963 0.720842 1.48739 0.189179 -0.524338 -0.83023
-12.064 5.0585 7.27075 -0.250833 0.298652 -0.213023 -0.777778 8.24614 0.274147 1.48739 -0.952995 0.260046 -0.155489
-8.35363 4.39925 5.14475 -0.531723 0.10394 0 -0.777778 8.29735 0.851259 1.68927 0.553966 -0.450632 -0.700037
-14.1081 -0.705312 6.13575 -0.0413883 0.14213 0 0.844444 8.39395 -0.618693 1.04236 0.681977 0.608786 -0.405324
-12.7896 3.62538 8.75081 -0.293787 0.373907 0 -0.777778 8.401 -0.241884 1.48739 -0.765524 0.594507 -0.246039
-4.20325 4.8255 11.4265 -0.220652 0.103035 -0.405314 0.0119865 8.4809 -0.206258 2.97691 0.840367 0.417559 -0.345583
-13.8658 1.50719 6.11602 -0.169738 0.116104 -0.703426 -0.0888889 8.48363 0.499377 1.22641 0.630547 -0.151743 -0.761173
-11.926 -2.06175 4.8235 0.08382 -0.200104 0 0.844444 8.57841 -0.421432 0.696397 0.214942 0.911725 0.350082
-11.603 4.374 4.8655 -0.544517 0.221527 -0.294271 -0.777778 8.58781 0.623084 1.48739 -0.684768 -0.45324 -0.570672
-3.84325 3.8935 8.8005 -0.580343 0.0709654 -0.0671802 -0.777778 8.60582 0.999899 2.64585 0.93407 0.220152 -0.281153
-4.4855 4.7605 10.415 -0.342483 0.0779247 -0.01597 -0.777778 8.61664 -0.396687 2.97691 0.953016 0.288411 -0.0926233
-2.90569 0.68025 13.7451 0.049932 -0.218856 0 0.4 8.67213 0.0684272 3.42536 -0.312653 0.115108 -0.942867
-7.404 5.35675 5.69225 -0.672713 0.062212 0 -0.777778 8.6752 0.945768 1.95732 0.866794 -0.042413 -0.49686
-3.83075 -0.304 14.6757 -0.026281 -0.255244 -0.0434052 0.446411 8.67763 -0.560929 3.42536 -0.607594 -0.0369576 -0.793388
-5.429 4.95425 8.40075 -0.562883 0.147746 -0.0550604 -0.437804 8.73517 -0.0837108 1.95732 0.475472 0.186093 -0.859823
-3.648 -2.5685 10.791 0.102482 -0.223788 0 -0.2 8.81786 0.243116 6.01963 0.0512143 0.888126 -0.456737
-8.35437 -4.16412 4.94775 -0.453847 -0.134864 -0.475452 -0.816929 8.8188 -0.0223487 0.375653 0.570471 0.599126 -0.561793
-3.67 -3.37725 10.0363 0.238417 -0.190402 0 -0.2 8.82556 0.259178 6.01963 0.0528347 0.22804 -0.972217
-2.55225 3.71012 13.1695 -0.505203 0.0575188 -0.724129 0.933333 8.83181 0.504424 2.97691 0.925513 0.107021 -0.36328
-10.6316 4.90987 4.26475 -0.710273 0.167585 0 -0.777778 8.83244 0.999848 1.48739 -0.153342 -0.327044 -0.932485
-4.765 -2.518 14.248 -0.200502 -0.275536 0 -0.2 8.83992 -0.84256 5.30826 -0.364464 0.919285 -0.148599
-3.25887 4.56738 12.2809 -0.43913 0.0990148 -0.328631 0.933333 8.86466 0.662804 2.97691 0.800686 0.402702 -0.443545
-2.06519 2.4575 13.891 -0.0912767 -0.119008 0 0.4 8.90555 0.0798758 3.42536 0.582739 0.418386 -0.696684
-14.443 2.761 6.594 -0.38545 0.196818 -0.219677 -0.0888889 8.90812 0.181744 1.22641 0.215701 0.836854 -0.503138
-6.624 -4.5115 5.5635 0.468287 -0.137965 0 -0.866667 9.00982 0.1465 0.142985 0.517749 0.639978 -0.567772
-12.039 5.279 4.954 -0.595307 0.225217 -0.547507 -0.777778 9.13979 0.999918 1.48739 -0.827558 0.0859997 -0.554754
-7.5915 -4.8935 5.11925 -0.00991547 -0.151555 0.514298 -0.866667 9.17105 -0.813618 0.375653 0.355514 0.720587 -0.595285
-14.5444 0.792437 5.67956 -0.376103 0.10916 0 -0.0888889 9.24193 -0.0231478 1.04236 0.686624 0.134 -0.714557
-9.3315 5.115 4.558 -0.495773 0.149749 -0.00951552 -0.777778 9.28426 0.356181 1.48739 0.245796 0.272585 -0.930205
-13.8581 -1.44 4.66538 0.100743 0.159683 0 0.844444 9.29446 -0.668488 0.906135 0.426011 0.902856 -0.0580203
-5.69325 5.91012 8.27106 -0.0838067 0.0984851 0 -0.355556 9.32018 -0.401032 1.95732 0.664743 -0.134648 -0.734838
-11.782 6.02275 5.83525 -0.639807 0.237724 -0.0828157 -0.777778 9.3679 0.675799 1.48739 -0.750238 0.660008 -0.0391494
-5.79563 -5.69025 7.32412 0.66977 -0.0547941 0.297821 -0.863844 9.36933 0.225146 0.142985 0.957859 0.0303151 0.285636
-13.8701 2.99756 8.51681 -0.193334 0.293336 0 -0.0888889 9.4242 -0.262751 1.22641 -0.142611 0.977424 -0.155899
-12.8094 -1.55587 3.96275 0.584057 -0.1915 0 0.0253213 9.47437 -0.393132 0.906135 0.0341578 0.890859 0.452993
-7.367 6.4385 6.487 -0.3572 0.1121 0 -0.355556 9.51865 0.148679 1.95732 0.623885 0.266605 -0.734635
-9.5915 -3.258 3.9775 -0.310933 -0.0930445 -0.124325 -0.777778 9.53519 0.126382 0.375653 0.845598 0.469669 -0.25372
-11.2725 6.02675 6.95225 -0.402317 0.25907 0 -0.777778 9.53665 -0.0883652 1.48739 -0.651179 0.756352 -0.0624358
-8.154 5.62925 4.9585 -0.6357 0.12264 -0.589474 -0.777778 9.55729 0.773757 1.68927 0.487731 0.237295 -0.840124
-6.2445 -5.67425 8.35825 0.839817 -0.0264814 0.48189 -0.866667 9.56267 -0.593974 0.142985 0.940384 -0.316391 0.124801
-10.2933 -1.5525 3.79225 0.2774 -0.130778 0.732195 -0.866667 9.6947 0.441177 0.696397 0.67929 0.548711 0.487321
-6.17556 -5.75075 9.81419 0.51025 0.0352979 0 -0.0888889 9.72213 -0.485206 6.01963 0.879245 -0.409227 -0.243849
-11.3206 -1.394 4.09538 0.428673 -0.198539 0.301046 -0.866667 9.7371 0.406092 0.696397 0.0982185 0.706631 0.700733
-4.487 4.90325 9.013 -0.565527 0.0986839 0 -0.492269 9.82203 0.272477 2.64585 0.825406 0.350902 -0.442236
-12.3279 5.34275 8.80737 -0.160305 0.321181 0 -0.777778 9.83095 0.255709 1.48739 -0.942109 0.304513 -0.140363
-4.608 6.026 11.9055 -0.0887107 0.132395 0 -0.777778 9.83532 0.451738 2.97691 0.68848 0.718403 0.0994643
-10.645 5.9255 4.375 -0.724443 0.168606 -0.811839 -0.777778 9.85413 0.999881 1.48739 -0.0344231 0.632272 -0.773982
-12.2979 4.56763 9.75062 -0.034719 0.382372 0 -0.777778 9.86018 -0.609261 1.48739 -0.921539 0.38484 -0.0516091
-3.95775 5.3385 12.688 -0.27018 0.1355 -0.1101 0.636236 9.86467 0.263018 2.97691 0.646367 0.75457 -0.113288
-3.69738 -1.33834 13.9881 0.059151 -0.277383 0.407209 0.4 9.89442 -0.414425 3.42536 -0.730711 0.470451 -0.494709
-3.47725 -2.18625 11.8475 0.0116938 -0.257443 0 -0.2 9.89729 -0.07272 6.01963 -0.3464 0.841313 -0.414969
-2.66225 3.6205 14.2621 -0.273342 0.0848164 -0.58913 0.933333 9.93359 -0.527157 2.97691 0.891561 0.452106 -0.0268244
-8.94312 -4.58262 4.06213 -0.560117 0.108041 -0.0572364 -0.777778 9.96165 0.0691205 0.375653 0.560501 0.160938 -0.812366
-1.30175 1.72675 13.5933 -0.0387437 -0.141718 0 0.4 10.0035 0.635166 3.42536 0.251486 0.358882 -0.898865
-3.15875 -1.42963 12.8542 0.0612547 -0.256988 0.542764 0.4 10.016 0.166984 5.30826 -0.499533 0.666475 -0.553423
-6.276 6.75625 7.29 -0.0832723 0.0907466 0 -0.355556 10.0386 0.424057 1.95732 0.643872 -0.169955 -0.746019
-6.111 -5.624 6.089 0.57352 -0.0778712 0.517632 -0.801127 10.0449 -0.586464 0.142985 0.902457 0.418943 -0.100291
-2.55194 -2.87169 10.2829 0.0562423 -0.218258 -0.338533 -0.154071 10.0634 -0.147396 6.01963 -0.412992 0.578452 -0.703442
-4.92338 -5.55363 11.0901 0.315841 0.105331 0 -0.2 10.0764 0.080399 6.01963 0.467586 -0.821285 -0.326885
-4.76788 6.18337 10.7781 -0.0368843 0.0712393 0 -0.777778 10.0881 0.0710087 2.97691 0.95694 0.275616 0.0911152
-8.1755 6.5375 5.8575 -0.752853 0.160763 -0.522422 -0.777778 10.0953 0.561442 1.95732 0.223966 0.704156 -0.673798
-14.7852 -0.784187 4.49475 0.00400147 0.139462 0 0.844444 10.1709 0.0403944 1.04236 0.464565 0.736913 -0.491058
-7.58725 -5.17525 4.094 -0.0551233 -0.169513 0.672859 -1 10.2343 0.185181 0.375653 -0.109349 0.717811 -0.687598
-6.183 -5.011 4.536 0.226191 -0.148434 0.967173 -1 10.2345 0.0722563 0.142985 0.30348 0.907268 0.291145
-15.1858 2.894 7.7125 -0.210843 0.226686 0 -0.0888889 10.2574 -0.0658839 1.22641 -0.00947681 0.999775 -0.0189785
-13.6785 3.17697 10.3589 -0.170747 0.365094 0 0.4 10.2923 -0.598024 1.48739 -0.451069 0.856867 -0.249629
-3.67925 -5.23994 10.9784 0.37313 -0.154275 0 -0.2 10.392 -0.054301 6.01963 -0.0577555 -0.859388 -0.508052
-14.9157 2.36625 5.18775 -0.398783 0.13943 -0.578594 -0.0888889 10.4433 0.999927 1.04236 0.411699 0.439075 -0.798572
-1.22113 0.0809375 13.5485 0.0400333 -0.13999 0 0.4 10.4709 -0.0746796 3.42536 0.27894 0.353428 -0.892906
-15.492 0.30625 4.979 -0.11645 0.145691 -0.107947 0.207219 10.5167 -0.164592 1.04236 0.289495 0.420678 -0.859781
-3.34713 4.98025 13.9406 -0.22497 0.121149 -0.00143782 0.933333 10.5169 0.474327 2.97691 0.690626 0.722087 -0.0403192
-8.00813 7.16913 6.77863 -0.261378 0.1689 0 -0.40282 10.5335 -0.257784 1.95732 0.0891756 0.582075 -0.80823
-4.7865 6.549 9.07625 0.0548013 0.0644874 0 -0.355556 10.5824 0.395053 1.95732 0.87788 0.0796129 -0.472216
-16.0572 3.09856 6.26538 -0.171421 0.164721 0 -0.0888889 10.5897 0.461206 1.22641 0.249499 0.951271 -0.181198
-10.7517 6.57113 5.28162 -0.86777 0.187744 -0.444705 -0.777778 10.6597 0.714546 1.48739 -0.134944 0.945994 -0.294764
-11.2399 6.44119 8.00706 -0.265659 0.260828 -0.193671 -0.355556 10.6704 -0.183723 1.48739 -0.640372 0.571702 -0.512914
-5.27513 7.20762 8.28475 0.0623973 0.058813 0 -0.355556 10.6835 0.401603 1.95732 0.841788 -0.0813768 -0.533639
-2.61469 -4.94441 9.86416 0.323553 -0.20272 0 -0.0888889 10.7227 0.0684234 6.01963 -0.775368 -0.219062 -0.592297
-6.22325 -6.96025 7.58225 0.517227 -0.0804991 0 -0.777778 10.734 -0.999844 0.142985 0.827747 0.0783912 0.555599
-12.7701 4.45734 10.9467 -0.44154 0.366732 -0.48994 0.4 10.7493 -0.519931 1.48739 -0.67112 0.633468 -0.385118
-1.63806 -0.748062 12.9071 0.207123 -0.18046 0 0.0257813 10.7576 0.00689755 3.42536 -0.00624998 0.683988 -0.729466
-14.0004 -1.2465 3.14462 0.222393 0.181859 0.329181 -0.0603 10.8341 0.140179 0.906135 -0.201598 0.97649 -0.0763313
-2.197 3.26238 15.6433 -0.0775123 0.0954397 0 0.615136 10.8384 -0.0857681 2.97691 0.795622 0.605712 0.00992048
-0.5245 2.303 15.0765 -0.041517 -0.108517 0 0.4 10.8557 0.563277 3.42536 0.599448 0.783212 -0.165048
-10.0621 -2.179 2.79284 0.659237 -0.0423786 0 -0.866667 10.8967 -0.0770625 0.696397 0.993385 0.114721 0.00508027
-6.839 7.65975 6.9485 -0.0894253 0.142232 0 -0.355556 10.9269 0.53836 1.95732 0.198143 0.304855 -0.931559
-10.0577 6.56725 6.45975 -0.561 0.211527 0 -0.777778 10.9545 -0.126621 1.48739 -0.210526 0.902033 -0.376849
-10.2015 -0.57325 2.828 0.422387 -0.102299 0.39001 -0.866667 11.0721 0.999895 0.696397 0.802382 0.564311 0.194259
-5.1055 5.892 13.079 -0.0616007 0.168043 0 -0.648622 11.1169 -0.306029 2.97691 0.455329 0.8685 0.195915
-5.84188 7.74475 7.4035 -0.0515327 0.0903273 0 -0.355556 11.1242 0.968831 1.95732 0.638548 0.0627964 -0.767016
-6.27887 -7.16625 9.82987 0.573587 -0.0510624 0 -0.0888889 11.1415 -0.176118 6.01963 0.968248 0.150609 -0.199533
-2.33325 -1.6125 12.1005 0.0651217 -0.220668 0.0357752 -0.134356 11.1487 -0.221343 6.01963 -0.27871 0.82363 -0.493918
-16.1251 1.68275 5.02975 -0.269491 0.141802 -0.691391 -0.0888889 11.169 0.151968 1.04236 0.234927 0.412359 -0.88021
-0.2655 1.9445 14.1663 -0.044284 -0.0801006 0 0.4 11.2075 0.999923 3.42536 0.782728 0.426397 -0.453346
-10.0218 -4.13219 2.61144 0.0095534 0.0187886 0 -0.866667 11.2131 0.0786728 0.375653 0.962657 -0.158563 -0.21943
-11.7758 -0.279312 3.14 0.854883 -0.187994 0 -0.866667 11.2741 0.999845 0.696397 -0.00178891 0.88621 0.46328
-5.77775 6.86275 11.781 -0.0168982 0.163234 0 -0.777778 11.2789 -0.105577 2.97691 0.440652 0.711641 0.547168
3 184 164 132
3 130 164 172
3 130 172 195
3 37 59 39
3 126 167 136
3 104 107 147
3 147 107 150
3 107 182 150
3 187 143 139
3 139 143 101
3 101 91 139
3 40 26 23
3 40 23 44
3 44 23 25
3 65 59 106
3 52 80 74
3 80 93 111
3 80 57 93
3 93 104 134
3 147 140 104
3 140 134 104
3 155 197 139
3 165 155 119
3 119 91 76
3 91 73 63
3 76 63 44
3 63 40 44
3 44 25 47
3 44 47 76
3 25 24 47
3 62 41 29
3 11 24 25
3 5 11 3
3 11 25 23
3 3 11 12
3 23 12 11
3 12 23 26
3 46 28 22
3 46 42 28
3 32 28 45
3 42 45 28
3 45 42 61
3 46 22 35
3 46 52 77
3 77 52 74
3 77 105 66
3 105 131 141
3 149 131 122
3 131 103 122
3 103 74 122
3 122 74 80
3 131 149 189
3 177 189 149
3 189 163 131
3 177 134 189
3 94 127 86
3 76 86 127
3 127 129 76
3 94 86 68
3 68 47 55
3 95 55 62
3 95 90 120
3 90 62 118
3 118 56 98
3 56 69 98
3 69 56 29
3 123 69 92
3 29 36 51
3 5 3 0
3 4 0 3
3 32 45 27
3 45 61 64
3 64 61 97
3 61 88 97
3 99 61 66
3 115 138 99
3 138 158 99
3 163 138 115
3 158 138 188
3 138 163 174
3 188 138 174
3 192 158 188
3 179 133 158
3 162 199 148
3 191 151 148
3 142 94 95
3 95 120 169
3 120 118 160
3 118 120 90
3 153 98 157
3 96 102 89
3 51 71 92
3 53 49 33
3 53 33 58
3 30 21 10
3 33 17 34
3 8 2 15
3 15 2 14
3 15 14 27
3 27 50 15
3 15 50 43
3 64 72 50
3 72 64 97
3 43 50 70
3 70 113 84
3 124 75 84
3 108 113 162
3 146 117 175
3 175 117 133
3 146 97 117
3 175 133 179
3 108 148 151
3 151 124 108
3 75 83 54
3 75 54 43
3 83 125 114
3 114 125 156
3 75 121 83
3 83 121 125
3 121 154 125
3 156 125 186
3 186 125 185
3 121 173 154
3 154 173 185
3 161 95 169
3 183 194 157
3 183 114 171
3 114 152 116
3 114 116 81
3 54 81 48
3 54 48 34
3 43 54 31
3 34 31 54
3 34 48 58
3 67 58 48
3 31 34 15
3 137 198 184
3 137 184 132
3 137 132 100
3 106 100 132
3 106 132 164
3 130 106 164
3 167 126 176
3 182 107 168
3 136 168 107
3 145 137 110
3 110 137 100
3 137 145 198
3 59 100 106
3 65 85 39
3 85 130 109
3 130 85 106
3 106 85 65
3 109 60 85
3 85 60 39
3 57 60 82
3 82 60 109
3 136 82 126
3 57 107 104
3 136 107 82
3 82 107 57
3 197 187 139
3 101 73 91
3 40 79 59
3 40 59 37
3 145 110 101
3 145 101 143
3 101 79 73
3 73 79 40
3 101 110 79
3 59 79 100
3 100 79 110
3 12 26 22
3 39 22 26
3 22 57 35
3 60 57 38
3 22 38 57
3 38 22 39
3 60 38 39
3 59 65 39
3 93 57 104
3 178 140 147
3 189 134 140
3 189 140 178
3 166 165 127
3 127 165 129
3 165 119 129
3 76 129 119
3 76 91 63
3 55 41 62
3 41 55 24
3 47 24 55
3 29 41 24
3 13 29 24
3 13 11 5
3 13 24 11
3 3 12 4
3 4 12 22
3 4 22 7
3 7 22 16
3 32 16 28
3 28 16 22
3 61 42 66
3 46 66 42
3 77 66 46
3 135 159 94
3 94 159 127
3 127 159 166
3 95 94 55
3 55 94 68
3 123 98 69
3 30 49 21
3 21 49 36
3 49 51 36
3 51 49 71
3 6 13 5
3 1 0 8
3 0 1 6
3 0 6 5
3 2 8 0
3 0 4 7
3 0 7 2
3 7 16 14
3 14 16 32
3 7 14 2
3 27 14 32
3 97 88 117
3 117 88 133
3 133 88 99
3 133 99 158
3 99 88 61
3 181 135 142
3 142 95 144
3 169 120 180
3 160 180 120
3 153 160 118
3 157 194 153
3 152 157 98
3 123 152 98
3 96 152 102
3 102 152 123
3 102 123 92
3 89 102 49
3 102 71 49
3 92 71 102
3 96 78 58
3 53 78 89
3 96 89 78
3 67 96 58
3 53 89 49
3 53 58 78
3 33 49 30
3 17 33 19
3 17 19 8
3 8 19 10
3 10 19 33
3 10 33 30
3 9 1 10
3 9 10 21
3 10 1 8
3 6 1 20
3 13 6 20
3 1 9 20
3 13 20 29
3 29 20 36
3 36 20 21
3 9 21 20
3 18 17 8
3 34 17 18
3 34 18 15
3 15 18 8
3 75 43 84
3 84 43 70
3 108 124 84
3 113 108 84
3 162 113 146
3 162 146 175
3 185 125 154
3 95 161 144
3 96 67 81
3 96 81 116
3 96 116 152
3 83 114 81
3 81 54 83
3 170 126 130
3 170 130 195
3 195 126 170
3 195 176 126
3 187 190 143
3 198 143 190
3 198 145 143
3 26 37 39
3 37 26 40
3 80 52 57
3 57 52 35
3 119 139 91
3 119 155 139
3 73 40 63
3 52 46 35
3 103 131 105
3 74 103 77
3 105 77 103
3 134 177 149
3 122 111 128
3 149 122 128
3 134 149 128
3 134 128 93
3 122 80 111
3 111 93 128
3 86 76 47
3 86 47 68
3 62 90 95
3 29 56 62
3 118 62 56
3 69 29 51
3 115 105 141
3 141 163 115
3 66 115 99
3 66 105 115
3 141 131 163
3 158 192 179
3 191 173 151
3 135 94 142
3 98 153 118
3 51 92 69
3 45 64 50
3 27 45 50
3 87 72 97
3 112 87 97
3 112 97 146
3 112 146 113
3 70 112 113
3 70 87 112
3 50 87 70
3 87 50 72
3 108 162 148
3 121 124 173
3 124 121 75
3 124 151 173
3 152 114 157
3 183 157 114
3 67 48 81
3 34 58 33
3 31 15 43
3 156 171 114
3 196 156 186
3 126 82 109
3 126 109 130
