ply
format ascii 1.0
comment Generated by PyMesh
element vertex 200
property float x
property float y
property float z
property float charge
property float ddc
property float hbond
property float hphob
property float rho
property float si
property float theta
property float nx
property float ny
property float nz
element face 327
property list uchar int vertex_indices
end_header
-9.06 -0.9825 9.4 0.0107298 0 0 -0.866667 1e-08 0.0899438 2.22045e-16 0.709073 0.625695 0.325148
-9.65375 -0.18225 9.868 -0.0384657 -0.224945 0 -0.866667 1.10089 0.035881 3.56454 0.944339 0.32223 0.066263
-9.64669 -1.105 10.3852 -0.036121 0.410603 0 -0.866667 1.15318 -0.146609 4.27656 0.861516 0.199114 0.467058
-9.39925 -0.69575 8.29525 0.0114345 0.559272 0 -0.866667 1.19071 0.0238771 1.41582 0.516402 0.75225 -0.409204
-8.08497 -1.88934 9.36447 0.207993 -0.333726 0 -0.866667 1.33203 -0.139227 2.22045e-16 0.524179 0.786561 0.326433
-8.26437 -1.01525 8.31125 0.0134116 0.320606 0 -0.866667 1.34888 0.802344 0.736851 0.555904 0.831173 -0.0110874
-9.14338 -2.21881 10.6134 0.047993 0.291319 0 -0.866667 1.73429 -0.594547 5.03334 0.525658 0.686227 0.502768
-10.1615 0.4705 8.58675 -0.04119 0.212291 0 -0.866667 1.99647 -0.215396 2.69787 0.911713 0.337515 -0.234228
-9.96212 0.7785 9.82487 -0.0460157 -0.290916 0 -0.866667 2.11084 -0.429738 3.34485 0.984476 0.0508648 -0.167988
-10.237 -1.322 11.2058 -0.214441 0.189528 -0.238289 -0.866667 2.18708 -0.926325 4.42591 0.927756 0.180387 0.326696
-9.76156 0.291438 11.3061 -0.0964303 -0.378097 0 0.4 2.61883 -0.15531 3.87438 0.936059 -0.348835 -0.0459032
-10.5411 0.020375 7.60388 -0.0416343 0.405053 0 -0.866667 2.70552 0.287834 2.16641 0.449597 0.384052 -0.806453
-10.148 -1.38462 7.12813 0.016896 0.423147 0 -0.866667 2.73904 -0.219836 1.11595 0.229914 0.611414 -0.757174
-6.951 -2.5145 9.9525 0.198646 -0.289616 0 -0.2 2.75417 -0.0955885 6.04446 0.21621 0.976343 0.00262576
-8.17025 -1.88312 7.04 0.270622 0.337694 0.232979 -0.866667 2.891 0.677647 0.775829 0.329029 0.739171 -0.587679
-7.16125 -2.234 7.76575 0.524633 -0.177653 0.104137 -0.866667 3.08087 0.213785 0.664414 0.557123 0.812604 -0.171138
-7.99203 -2.64528 11.2072 0.106454 -0.360428 0 -0.2 3.09814 -0.397675 5.36093 -0.0144315 0.992396 0.122235
-9.42325 -2.72775 11.9522 -0.069941 -0.122704 0 -0.779522 3.19365 -0.999869 4.88355 0.61736 0.784708 -0.0556738
-10.2965 1.40625 7.82575 -0.117352 -0.435786 0 -0.777778 3.21013 -0.0680291 2.71746 0.562055 -0.588037 -0.581642
-9.66938 1.7765 10.3371 -0.0597057 -0.408321 0 0.4 3.27018 -0.672893 3.42577 0.732011 -0.557361 -0.391801
-6.351 -2.99425 8.68025 0.534287 -0.102961 0 -0.533636 3.49897 -0.0896829 0.381504 0.659098 0.746601 -0.0904267
-10.1956 -0.223 12.1319 -0.318546 -0.285489 -0.563898 -0.758511 3.62485 -0.999829 4.14457 0.948219 -0.288896 -0.131983
-5.82725 -2.50425 9.9965 0.16658 -0.263957 0 -0.2 3.87883 0.279194 1.4379 0.185066 0.85031 -0.49267
-11.189 -0.84225 7.053 -0.0315099 0.409434 0 -0.866667 3.91526 0.617094 1.72727 0.0537119 0.434125 -0.89925
-8.74413 1.04475 11.6525 -0.0659547 -0.480969 0 0.4 3.93132 0.178468 3.77857 0.462599 -0.739102 -0.489623
-8.982 -2.2765 6.4235 0.0985167 0.322388 0 -0.866667 3.98359 0.225585 0.725972 0.208589 0.693139 -0.689962
-11.8252 -0.017625 7.72687 -0.0253071 0.400239 0 -0.866667 3.99606 -0.496865 2.18993 0.0271841 0.356959 -0.933724
-10.5476 1.928 6.92238 -0.116807 0.447251 0 -0.777778 4.28314 0.595931 2.70508 -0.197212 -0.846173 -0.495074
-6.187 -2.8705 7.317 0.785327 0.0628453 0.122961 -0.866667 4.32814 0.873616 1.02761 0.76518 0.638045 -0.0860097
-8.84081 0.750188 12.7536 -0.0905627 -0.355706 0 0.4 4.39464 -0.0673089 3.97917 0.626112 -0.771068 -0.115926
-9.886 -2.553 5.83125 -0.130164 0.232248 0 -0.84122 4.50416 -0.205416 0.570584 0.231542 0.833637 -0.501436
-8.49575 -2.5645 12.975 -0.0942213 -0.226201 -0.18369 -0.368789 4.58398 -0.54535 4.88243 0.186533 0.919786 -0.345252
-7.69875 -3.17213 5.98338 0.781853 0.237775 0.112886 -0.866667 4.62314 0.118032 0.777397 0.299425 0.616534 -0.728169
-11.3241 -2.33512 5.93962 -0.0451153 0.190184 0 -0.866667 4.66238 -0.709798 0.33493 0.252521 0.915196 -0.314085
-9.33762 2.37037 9.08325 0.0137652 -0.4591 -0.193176 -0.777778 4.69668 -0.78017 3.17289 0.361501 -0.930176 -0.0639541
-11.772 1.0155 8.0525 -0.120183 0.429498 0 -0.777813 4.75324 -0.688054 2.48918 -0.0128847 -0.133187 -0.991007
-8.25669 2.225 10.649 -0.118063 -0.482953 0 0.4 4.78482 -0.654195 3.49497 0.102 -0.921986 -0.373547
-12.2112 -1.32056 6.83494 -0.0297725 0.256917 0 -0.464164 4.82396 -0.41028 1.06333 0.212442 0.686723 -0.695183
-6.4485 -3.06988 6.36562 0.82373 0.162041 0.232478 -0.866667 4.8605 0.999867 0.905245 0.581447 0.599726 -0.549771
-10.1517 -1.443 12.8884 -0.57693 -0.174011 -0.0908054 -0.810518 4.94227 -0.920442 4.41097 0.884903 0.208359 -0.416574
-6.2165 -2.099 11.352 -0.0479317 -0.28116 0 -0.2 4.96144 0.734313 1.69167 -0.0671779 0.99727 0.0306544
-9.30481 -1.76231 13.5004 -0.51173 -0.18971 -0.615631 -0.777778 5.02204 -0.45824 4.51955 0.595097 0.508562 -0.622273
-4.73887 -2.95038 10.0363 0.168411 -0.241153 0 -0.2 5.05577 0.440618 1.4542 0.215907 0.495566 -0.841308
-8.7625 2.4195 8.222 -0.157419 -0.443917 0 -0.777778 5.09078 0.0662672 3.0328 0.280303 -0.957877 -0.062466
-8.9555 -3.102 5.67 -0.219211 0.191025 -0.300687 -0.821164 5.10159 -0.278896 0.630876 0.401153 0.74822 -0.528435
-9.43606 -0.117812 13.4581 -0.329975 -0.241612 -0.0503273 0.201144 5.15676 -0.30643 4.1855 0.804556 -0.193789 -0.561369
-5.61875 -4.25737 7.6965 1 0.105588 0.473898 -0.866667 5.25949 0.429686 1.09941 0.978629 0.118664 -0.167943
-8.85525 2.47675 6.7845 -0.14394 -0.332975 0 -0.777778 5.28555 0.66176 2.83787 0.496342 -0.751685 -0.434297
-7.47087 -2.52638 13.4104 -0.0864843 -0.182983 0 -0.2 5.36526 -0.109034 4.99299 0.181217 0.970668 -0.157999
-5.271 -4.34734 9.45378 0.429117 0.212586 0 -0.2 5.39518 0.0790899 1.26006 0.716884 -0.165769 -0.677199
-10.4847 2.58538 5.91437 -0.144598 0.342624 0 -0.777778 5.48821 0.999835 2.76985 -0.122722 -0.723589 -0.679234
-13.1676 -0.608 7.422 -0.051514 0.222882 0 0.191585 5.4939 -0.999878 6.16027 0.357549 0.532034 -0.767528
-10.4152 -2.56775 4.9595 -0.10965 -0.110056 -0.00293626 -0.85504 5.52408 -0.197551 0.514449 0.427255 0.881527 0.200905
-11.8441 3.039 6.80875 -0.203605 0.346763 0 -0.777778 5.67898 -0.129084 5.53709 -0.620274 -0.445901 -0.645316
-7.03288 1.72438 11.6827 -0.088661 -0.410377 0 -0.777778 5.77284 0.110981 3.67259 0.166318 -0.974006 -0.15379
-5.72906 -2.47112 12.6509 -0.209615 -0.208708 0 -0.2 5.78805 -0.310485 1.8838 -0.0788777 0.986902 0.140719
-8.04775 1.27894 13.8454 -0.0537283 -0.298475 0 0.652107 5.84396 -0.659816 4.07873 0.402317 -0.81053 -0.425655
-12.7525 1.6205 7.86925 -0.21949 0.282458 0 -0.789078 5.88381 -0.999865 2.46853 0.455324 -0.33272 -0.825819
-7.16862 2.01875 10.3194 -0.231346 -0.498187 0 -0.777778 5.94027 0.403521 3.45011 -0.1478 -0.973047 -0.177015
-7.6435 1.70875 13.037 -0.0383143 -0.315178 0 0.173561 5.95435 -0.768098 3.93482 0.439389 -0.897843 -0.0285534
-11.926 -2.06175 4.8235 0.08382 0.137583 0 0.844444 5.95958 -0.421432 0.301321 0.214942 0.911725 0.350082
-8.909 0.4065 14.286 -0.223873 -0.235687 -0.102703 -0.210171 5.96658 -0.729122 4.18119 0.73117 -0.497013 -0.4673
-8.029 2.4285 9.085 -0.602413 -0.503225 -0.00413286 -0.777778 6.00659 -0.728005 3.0328 -0.0963041 -0.992581 -0.0742225
-13.9104 0.437875 7.28562 -0.00133665 0.18659 -0.107561 -0.515387 6.17556 -0.886426 6.16027 0.703222 -0.0278299 -0.710425
-3.648 -2.5685 10.791 0.102482 -0.179557 0 -0.2 6.19928 0.243116 1.4542 0.0512143 0.888126 -0.456737
-8.35437 -4.16412 4.94775 -0.453847 0.135315 -0.475452 -0.816929 6.19997 -0.0223487 0.630876 0.570471 0.599126 -0.561793
-3.67 -3.37725 10.0363 0.238417 -0.234036 0 -0.2 6.20673 0.259178 1.4542 0.0528347 0.22804 -0.972217
-7.8825 2.953 7.627 -0.35799 -0.322474 -0.320025 -0.777778 6.2795 0.118567 3.0328 0.482397 -0.698784 -0.528199
-8.64675 -1.3 14.493 -0.307199 -0.179907 -0.805512 -0.777778 6.29955 -0.640637 4.51955 0.694924 0.166547 -0.69953
-6.624 -4.5115 5.5635 0.468287 0.135006 0 -0.866667 6.39099 0.1465 0.905245 0.517749 0.639978 -0.567772
-7.06962 -2.47638 14.4404 -0.0257032 -0.144209 0.0962312 -0.376944 6.47178 -0.731081 4.99299 0.328211 0.848099 -0.415938
-12.9301 -1.75412 5.27763 0.055192 0.112001 0 0.844444 6.49405 -0.491279 0.301321 0.392603 0.909855 -0.134266
-7.5915 -4.8935 5.11925 -0.00991547 0.14912 0.514298 -0.866667 6.55222 -0.813618 0.777397 0.355514 0.720587 -0.595285
-10.4535 3.562 5.2365 -0.40259 0.275263 -0.020679 -0.777778 6.67744 0.339339 2.76985 -0.0918272 -0.622429 -0.77727
-5.79563 -5.69025 7.32412 0.66977 0.0886825 0.297821 -0.863844 6.7505 0.225146 1.09941 0.957859 0.0303151 0.285636
-11.5653 3.48875 5.81225 -0.266687 0.308322 -0.304965 -0.777778 6.80726 0.449653 5.53709 -0.579591 -0.556343 -0.595447
-12.902 2.5225 6.736 -0.14208 0.197877 -0.151781 -0.647524 6.85848 0.302932 5.53709 0.196229 0.5215 -0.83038
-8.757 3.626 5.702 -0.359417 -0.246671 -0.0132736 -0.777778 6.8674 0.402406 2.83787 0.435516 -0.646049 -0.626855
-7.07212 2.2745 8.75 -0.65835 -0.451848 0 -0.777778 6.86763 0.371183 3.45011 0.0164395 -0.918462 -0.395167
-8.06475 3.8725 6.61625 -0.538687 -0.212653 -0.346584 -0.777778 6.89841 -0.224496 2.83787 0.721615 -0.50556 -0.472948
-9.5915 -3.258 3.9775 -0.310933 0.0664817 -0.124325 -0.777778 6.91636 0.126382 0.514449 0.845598 0.469669 -0.25372
-4.69075 -2.53175 13.1115 -0.183255 -0.214066 0 -0.2 6.92555 -0.383292 1.8838 -0.350228 0.931539 -0.0978508
-14.1081 -0.705312 6.13575 -0.0413883 0.0938782 0 0.844444 6.93716 -0.618693 6.16027 0.681977 0.608786 -0.405324
-6.2445 -5.67425 8.35825 0.839817 0.153851 0.48189 -0.866667 6.94384 -0.593974 1.09941 0.940384 -0.316391 0.124801
-5.77275 1.7585 11.7533 -0.103253 -0.346764 0 -0.777778 7.03541 0.612708 3.67259 0.118718 -0.992596 -0.0256668
-10.2933 -1.5525 3.79225 0.2774 -0.0670584 0.732195 -0.866667 7.07587 0.441177 0.514449 0.67929 0.548711 0.487321
-6.17556 -5.75075 9.81419 0.51025 0.18196 0 -0.0888889 7.1033 -0.485206 1.26006 0.879245 -0.409227 -0.243849
-11.3206 -1.394 4.09538 0.428673 -0.163596 0.301046 -0.866667 7.11827 0.406092 0.301321 0.0982185 0.706631 0.700733
-8.03256 0.0735625 15.0258 -0.074313 -0.224671 0 0.317122 7.16086 -0.424753 4.18119 0.517041 -0.337749 -0.786508
-5.90675 -2.65587 14.3011 -0.117535 -0.162831 0 -0.2 7.16986 -0.7564 1.8838 0.000315313 0.991663 -0.12886
-6.464 1.99188 13.131 0.00731747 -0.313533 0 0.0184685 7.17099 -0.596023 3.93482 0.114109 -0.94543 -0.305189
-12.8094 -1.55587 3.96275 0.584057 0.140751 0 0.0253213 7.2927 -0.393132 0.301321 0.0341578 0.890859 0.452993
-11.8689 4.45662 6.01137 -0.555843 0.279646 -0.669681 -0.777778 7.30566 0.190311 5.53709 -0.97975 -0.146072 -0.136939
-7.49125 -1.47625 15.2793 0.247017 -0.147066 0.704737 -0.777778 7.32316 -0.569798 4.99299 0.469884 0.554722 -0.686653
-3.47725 -2.18625 11.8475 0.0116938 -0.215362 0 -0.2 7.33571 -0.07272 1.4542 -0.3464 0.841313 -0.414969
-8.94312 -4.58262 4.06213 -0.560117 0.163527 -0.0572364 -0.777778 7.34282 0.0691205 0.630876 0.560501 0.160938 -0.812366
-7.07575 3.65275 7.62 -0.740467 -0.266434 -0.904836 -0.777778 7.34746 0.119565 3.0328 0.364177 -0.385337 -0.847874
-6.111 -5.624 6.089 0.57352 0.0419183 0.517632 -0.801127 7.42606 -0.586464 1.09941 0.902457 0.418943 -0.100291
-2.55194 -2.87169 10.2829 0.0562423 -0.219953 -0.338533 -0.154071 7.44485 -0.147396 1.4542 -0.412992 0.578452 -0.703442
-4.92338 -5.55363 11.0901 0.315841 0.231161 0 -0.2 7.45758 0.080399 1.26006 0.467586 -0.821285 -0.326885
-7.58725 -5.17525 4.094 -0.0551233 0.182726 0.672859 -1 7.61548 0.185181 0.630876 -0.109349 0.717811 -0.687598
-6.183 -5.011 4.536 0.226191 -0.0962967 0.967173 -1 7.61563 0.0722563 0.905245 0.30348 0.907268 0.291145
-13.8581 -1.44 4.66538 0.100743 0.0862884 0 0.844444 7.64935 -0.668488 0.301321 0.426011 0.902856 -0.0580203
-4.765 -2.518 14.248 -0.200502 -0.193934 0 -0.2 7.65415 -0.84256 1.8838 -0.364464 0.919285 -0.148599
-9.9465 4.2475 4.6095 -0.413987 0.219685 0 -0.777778 7.73578 0.720842 2.76985 0.189179 -0.524338 -0.83023
-13.8658 1.50719 6.11602 -0.169738 0.180944 -0.703426 -0.0888889 7.76093 0.499377 2.46853 0.630547 -0.151743 -0.761173
-12.064 5.0585 7.27075 -0.250833 0.258906 -0.213023 -0.777778 7.76229 0.274147 5.53709 -0.952995 0.260046 -0.155489
-3.67925 -5.23994 10.9784 0.37313 0.252077 0 -0.2 7.77318 -0.054301 1.26006 -0.0577555 -0.859388 -0.508052
-8.35363 4.39925 5.14475 -0.531723 -0.191418 0 -0.777778 7.90236 0.851259 2.83787 0.553966 -0.450632 -0.700037
-12.7896 3.62538 8.75081 -0.293787 0.275993 0 -0.777778 7.91715 -0.241884 5.53709 -0.765524 0.594507 -0.246039
-14.5444 0.792437 5.67956 -0.376103 0.13835 0 -0.0888889 7.93826 -0.0231478 6.16027 0.686624 0.134 -0.714557
-6.0835 2.4585 8.3595 -0.411577 -0.368991 0 -0.777778 7.94639 0.629984 3.45011 0.00776644 -0.751767 -0.659383
-5.243 2.07262 9.748 -0.325034 -0.333024 0 -0.777778 7.94961 0.477433 3.45011 0.239633 -0.959016 -0.151212
-2.61469 -4.94441 9.86416 0.323553 -0.253312 0 -0.0888889 8.10391 0.0684234 1.4542 -0.775368 -0.219062 -0.592297
-11.603 4.374 4.8655 -0.544517 0.260448 -0.294271 -0.777778 8.10396 0.623084 5.53709 -0.684768 -0.45324 -0.570672
-4.76137 2.07962 11.2802 -0.115962 -0.251842 0 -0.777778 8.10693 0.343031 3.67259 0.554042 -0.813106 -0.178594
-6.22325 -6.96025 7.58225 0.517227 0.0905314 0 -0.777778 8.11519 -0.999844 1.09941 0.827747 0.0783912 0.555599
-10.0621 -2.179 2.79284 0.659237 0.0686741 0 -0.866667 8.27786 -0.0770625 0.514449 0.993385 0.114721 0.00508027
-10.6316 4.90987 4.26475 -0.710273 0.211903 0 -0.777778 8.3486 0.999848 2.76985 -0.153342 -0.327044 -0.932485
-5.53575 1.5295 13.741 -0.000628653 -0.291622 0 0.933333 8.37413 -0.198105 3.93482 -0.121869 -0.773495 -0.621975
-6.316 4.25462 7.96925 -0.486033 -0.198518 -0.309796 -0.777778 8.37772 -0.437401 3.0328 0.432233 0.0561925 -0.900009
-14.443 2.761 6.594 -0.38545 0.131554 -0.219677 -0.0888889 8.42428 0.181744 5.53709 0.215701 0.836854 -0.503138
-10.2015 -0.57325 2.828 0.422387 -0.0112811 0.39001 -0.866667 8.45323 0.999895 0.514449 0.802382 0.564311 0.194259
-7.23431 5.14437 6.95969 -0.428093 -0.15557 -0.71813 -0.709978 8.45573 -0.250998 2.83787 0.767064 -0.239082 -0.595359
-6.27887 -7.16625 9.82987 0.573587 0.0772697 0 -0.0888889 8.52265 -0.176118 1.26006 0.968248 0.150609 -0.199533
-5.15737 -2.20863 15.3814 -0.0770677 -0.191223 -0.423582 0.4 8.55861 -0.999859 1.8838 -0.285748 0.688131 -0.666951
-10.0218 -4.13219 2.61144 0.0095534 0.104394 0 -0.866667 8.5943 0.0786728 0.514449 0.962657 -0.158563 -0.21943
-3.15875 -1.42963 12.8542 0.0612547 -0.219868 0.542764 0.4 8.63469 0.166984 1.8838 -0.499533 0.666475 -0.553423
-2.33325 -1.6125 12.1005 0.0651217 -0.18012 0.0357752 -0.134356 8.64029 -0.221343 1.4542 -0.27871 0.82363 -0.493918
-11.7758 -0.279312 3.14 0.854883 0.140803 0 -0.866667 8.65531 0.999845 0.301321 -0.00178891 0.88621 0.46328
-12.039 5.279 4.954 -0.595307 0.225105 -0.547507 -0.777778 8.65594 0.999918 5.53709 -0.827558 0.0859997 -0.554754
-6.60156 -7.33588 8.79594 0.630253 0.0697236 0 -0.256651 8.69885 -0.999867 1.09941 0.994857 0.0992303 0.0203263
-6.8605 -0.341 15.9435 0.0436187 -0.192413 0.47085 -0.777778 8.7061 -0.759795 4.18119 0.396037 -0.188333 -0.898713
-4.70913 2.10713 12.9949 -0.0695653 -0.254881 0 0.112684 8.70705 -0.234144 3.67259 0.223145 -0.9024 -0.368619
-3.69738 -1.33834 13.9881 0.059151 -0.238888 0.407209 0.4 8.70865 -0.414425 1.8838 -0.730711 0.470451 -0.494709
-14.7852 -0.784187 4.49475 0.00400147 0.0999515 0 0.844444 8.71411 0.0403944 6.16027 0.464565 0.736913 -0.491058
-1.991 -1.967 11.037 -0.109312 -0.190919 0 -0.2 8.74937 0.0152856 1.4542 -0.456314 0.833743 -0.310886
-5.308 -5.77575 12.31 0.303794 0.234206 0 -0.2 8.75582 -0.624294 1.26006 0.323934 -0.933786 -0.152023
-7.404 5.35675 5.69225 -0.672713 -0.113527 0 -0.777778 8.76747 0.945768 2.83787 0.866794 -0.042413 -0.49686
-4.69228 -7.21006 6.58134 0.7131 -0.0789384 0.096704 -0.777778 8.77013 -0.0381626 1.09941 0.412367 0.69768 0.585829
-14.0004 -1.2465 3.14462 0.222393 0.143735 0.329181 -0.0603 8.77038 0.140179 0.301321 -0.201598 0.97649 -0.0763313
-9.3315 5.115 4.558 -0.495773 0.159624 -0.00951552 -0.777778 8.80041 0.356181 2.76985 0.245796 0.272585 -0.930205
-5.116 -5.535 4.308 0.53344 -0.124229 0.132085 -1 8.82602 -0.573461 0.905245 0.188106 0.463336 0.865988
-11.782 6.02275 5.83525 -0.639807 0.192289 -0.0828157 -0.777778 8.88405 0.675799 5.53709 -0.750238 0.660008 -0.0391494
-1.62925 -2.0845 9.506 -0.3736 -0.215234 -0.239979 -0.0888889 8.8852 0.693731 1.4542 -0.672234 0.587866 -0.450016
-7.01625 -5.99675 3.2625 0.0142378 0.208962 -0.13483 -0.961342 8.91637 -0.678956 0.630876 -0.752426 0.433991 -0.495487
-6.381 0.66075 15.2494 0.00722077 -0.261542 0 0.933333 8.9279 -0.597313 4.18119 -0.00666402 -0.786907 -0.617035
-13.8701 2.99756 8.51681 -0.193334 0.176306 0 -0.0888889 8.94035 -0.262751 5.53709 -0.142611 0.977424 -0.155899
-5.0945 2.38025 8.52125 -0.57556 -0.303508 -0.0940975 -0.777778 8.95158 0.999876 3.45011 0.251057 -0.772446 -0.583351
-9.01975 -6.191 4.01325 -0.53754 0.169159 0 -0.777778 8.95376 -0.871548 0.630876 0.243692 0.223039 -0.943858
-10.316 -5.06875 3.35775 -0.325391 0.157106 0 -0.809818 8.96062 -0.68097 0.630876 0.673115 -0.274309 -0.686783
-11.2725 6.02675 6.95225 -0.402317 0.195601 0 -0.777778 9.0528 -0.0883652 5.53709 -0.651179 0.756352 -0.0624358
-8.154 5.62925 4.9585 -0.6357 0.134136 -0.589474 -0.777778 9.1623 0.773757 2.83787 0.487731 0.237295 -0.840124
-7.96863 -6.67513 3.78638 -0.661683 0.172394 -0.306906 -0.777778 9.19337 -0.999901 0.630876 -0.299107 0.692448 -0.656544
-5.79569 -1.33506 16.1006 -0.0309629 -0.1965 0 0.4 9.21245 -0.999871 4.99299 -0.124208 0.290816 -0.948682
-15.492 0.30625 4.979 -0.11645 0.143948 -0.107947 0.207219 9.21305 -0.164592 6.16027 0.289495 0.420678 -0.859781
-6.14825 -6.61194 11.79 0.412833 0.136409 0 -0.120257 9.22116 -0.444363 1.26006 0.929507 -0.355159 -0.0993885
-5.118 3.48338 7.91625 -0.76351 -0.210937 -0.83427 -0.777778 9.33473 0.703956 3.45011 0.3476 -0.00663432 -0.937619
-12.3279 5.34275 8.80737 -0.160305 0.253711 0 -0.777778 9.34711 0.255709 5.53709 -0.942109 0.304513 -0.140363
-4.75725 -4.3725 3.745 0.240903 -0.167064 0 -1 9.36666 0.137715 0.905245 -0.31198 0.546455 0.77721
-10.645 5.9255 4.375 -0.724443 0.145075 -0.811839 -0.777778 9.37028 0.999881 2.76985 -0.0344231 0.632272 -0.773982
-12.2979 4.56763 9.75062 -0.034719 0.275432 0 -0.777778 9.37634 -0.609261 5.53709 -0.921539 0.38484 -0.0516091
-6.109 -8.09013 8.2005 0.609747 -0.0441924 0.0100599 -0.777778 9.40822 -0.999782 1.09941 0.704026 0.548252 0.451407
-5.07044 -6.35375 5.00331 0.6309 -0.083722 0.265465 -0.957747 9.42094 -0.625621 0.905245 0.358455 0.754102 0.55031
-5.345 0.7695 14.552 -0.0206934 -0.276395 0 0.933333 9.50183 0.669516 3.93482 -0.203801 -0.759961 -0.617191
-2.68963 -5.70463 12.3524 0.373157 0.220981 0 -0.2 9.52907 -0.389516 1.26006 -0.260663 -0.948494 -0.180039
-6.10838 -7.2915 10.8197 0.50502 0.054588 0 -0.0888889 9.53484 0.0510481 1.26006 0.978062 0.207388 -0.01962
-4.11125 3.07125 10.2505 -0.46734 -0.128209 -0.675989 -0.700584 9.5404 0.336372 3.45011 0.957848 -0.280915 0.0601128
-2.011 -5.875 11.0615 0.37523 -0.227984 -0.0252554 -0.253553 9.56015 -0.495688 1.26006 -0.733903 -0.671001 -0.105567
-5.429 4.95425 8.40075 -0.562883 -0.158176 -0.0550604 -0.437804 9.58704 -0.0837108 3.0328 0.475472 0.186093 -0.859823
-14.9157 2.36625 5.18775 -0.398783 0.129254 -0.578594 -0.0888889 9.62841 0.999927 5.53709 0.411699 0.439075 -0.798572
-3.975 2.80675 8.89725 -0.39338 -0.191217 -0.127209 -0.777778 9.64387 0.999908 3.45011 0.737058 -0.577521 -0.351019
-10.691 -0.335375 1.73388 0.958493 0.0661595 0 -0.866667 9.67524 0.189273 0.514449 0.448943 0.8829 0.137613
-2.309 -6.189 8.945 0.43995 -0.2203 0 -0.0888889 9.68103 0.159897 1.4542 -0.990824 0.123307 -0.0553434
-6.11369 -4.90406 2.41894 0.0869857 -0.184083 0 -1 9.73652 0.106526 0.905245 -0.720725 0.693096 -0.0131379
-5.725 -6.1115 13.164 0.28495 0.162358 0 -0.199861 9.76376 -0.999881 1.26006 0.778413 -0.53643 -0.326062
-15.1858 2.894 7.7125 -0.210843 0.131166 0 -0.0888889 9.77353 -0.0658839 5.53709 -0.00947681 0.999775 -0.0189785
-13.6785 3.17697 10.3589 -0.170747 0.219446 0 0.4 9.80849 -0.598024 5.53709 -0.451069 0.856867 -0.249629
-9.93338 -3.12075 1.56225 0.172188 -0.0700257 -0.272166 -0.275322 9.83279 -0.198487 0.514449 0.938129 0.0129367 0.346044
-7.367 6.4385 6.487 -0.3572 0.11441 0 -0.355556 9.83986 0.148679 2.83787 0.623885 0.266605 -0.734635
-10.0174 -1.68037 1.3035 0.77966 -0.0369876 -0.0571727 -0.218217 9.84909 -0.118848 0.514449 0.938772 0.263775 0.221652
-3.53912 2.96525 12.1566 -0.429103 -0.164938 -0.08843 0.764851 9.85229 0.402783 3.67259 0.718337 -0.495399 -0.488439
-16.1251 1.68275 5.02975 -0.269491 0.135721 -0.691391 -0.0888889 9.86531 0.151968 6.16027 0.234927 0.412359 -0.88021
-6.14975 -8.38775 9.2365 0.642467 0.027161 0 0.597371 9.88677 -0.682244 1.26006 0.864514 0.496605 -0.0774548
-5.719 -0.127 16.1567 -0.0384123 -0.225996 0 0.798507 9.88689 -0.999911 4.18119 -0.158741 -0.406461 -0.899773
-4.18175 0.935375 14.1839 -0.0221448 -0.251892 0 0.924198 9.91765 -0.18944 3.93482 -0.205217 -0.606615 -0.768052
-1.03 -3.787 8.5425 0.191599 -0.209482 -0.000550657 -0.0888889 9.93143 -0.66072 1.4542 -0.841293 0.29785 -0.451123
-4.98606 -4.13831 2.75444 0.0453553 -0.185069 0 -1 9.93257 -0.448578 0.905245 -0.707196 0.630495 0.319921
-3.83075 -0.304 14.6757 -0.026281 -0.242269 -0.0434052 0.446411 9.95783 -0.560929 1.8838 -0.607594 -0.0369576 -0.793388
-7.35575 -6.70587 2.56169 -0.151647 -0.172846 0 -0.485396 9.96957 -0.712272 0.630876 -0.706322 0.699094 -0.111252
-15.2448 -1.23069 3.41056 0.048606 0.122519 0 0.844444 9.9735 -0.038896 0.301321 0.0852382 0.833163 -0.546419
-4.09312 -6.05037 4.4095 0.490923 -0.137699 0 -1 9.97589 -0.999878 0.905245 -0.137521 0.544987 0.827089
-16.0082 -0.4055 4.35575 -0.0124302 0.126803 0 0.844444 10.0019 -0.127104 6.16027 0.172664 0.668476 -0.723414
-1.63806 -0.748062 12.9071 0.207123 -0.147865 0 0.0257813 10.0118 0.00689755 1.8838 -0.00624998 0.683988 -0.729466
-0.977813 -1.33644 11.9819 0.0576827 -0.124185 0 -0.155669 10.0286 -0.143982 1.4542 -0.0664935 0.980925 -0.18266
-10.6788 -6.08825 3.1925 -0.175523 0.074015 0 -0.808804 10.0553 -0.999887 0.630876 0.935904 0.144782 -0.321127
-14.8632 -2.0145 2.5555 0.203232 0.121868 0 -0.866667 10.067 -0.999893 0.301321 -0.0716199 0.936068 -0.344452
-3.42144 2.20444 13.4284 -0.243935 -0.196342 -0.116342 0.9093 10.0692 -0.172714 3.67259 0.306256 -0.504535 -0.80725
-5.77 -8.44 10.563 0.568423 0.0343352 0 -0.0888889 10.0779 0.23855 1.26006 0.951713 0.306736 0.0124313
-4.036 3.906 11.0367 -0.250796 -0.102128 -0.968542 0.866969 10.0871 0.119188 3.67259 0.922986 0.0195298 -0.384338
3 135 140 190
3 140 135 102
3 110 135 155
3 135 190 192
3 135 192 155
3 110 155 182
3 23 37 26
3 121 176 147
3 106 109 158
3 158 109 161
3 172 122 180
3 122 117 180
3 178 117 126
3 117 85 80
3 80 85 52
3 52 44 80
3 12 11 3
3 12 3 14
3 14 3 5
3 51 37 82
3 50 75 73
3 75 92 114
3 75 53 92
3 92 106 143
3 158 151 106
3 151 143 106
3 95 126 80
3 100 95 65
3 65 44 32
3 44 30 25
3 32 25 14
3 25 12 14
3 14 5 15
3 14 15 32
3 5 4 15
3 22 13 16
3 0 4 5
3 2 0 1
3 0 5 3
3 1 0 7
3 3 7 0
3 7 3 11
3 47 43 18
3 47 67 43
3 62 43 78
3 67 78 43
3 78 67 96
3 47 18 27
3 47 50 77
3 77 50 73
3 77 108 79
3 108 141 152
3 160 141 118
3 141 104 118
3 104 73 118
3 118 73 75
3 174 101 187
3 187 101 159
3 159 101 142
3 46 69 38
3 32 38 69
3 69 72 32
3 46 38 28
3 28 15 20
3 49 20 22
3 49 42 66
3 42 22 64
3 64 40 81
3 40 55 81
3 55 40 16
3 103 55 89
3 16 31 48
3 2 1 10
3 8 10 1
3 62 78 58
3 78 96 111
3 111 96 157
3 96 120 157
3 123 96 79
3 138 179 123
3 139 116 162
3 116 139 74
3 74 139 97
3 83 46 49
3 49 66 107
3 173 113 186
3 66 64 98
3 144 98 136
3 64 66 42
3 94 81 127
3 48 70 89
3 132 93 88
3 132 88 146
3 68 41 45
3 88 56 90
3 29 24 54
3 54 24 36
3 54 36 58
3 58 112 54
3 54 112 115
3 111 148 112
3 148 111 157
3 115 112 167
3 181 197 133
3 181 133 115
3 99 49 107
3 107 165 137
3 124 198 183
3 136 128 194
3 193 194 128
3 193 128 127
3 133 185 119
3 133 119 90
3 115 133 84
3 90 84 133
3 90 119 146
3 164 146 119
3 84 90 54
3 140 196 190
3 91 129 140
3 91 140 102
3 91 102 71
3 82 71 102
3 82 102 135
3 110 82 135
3 147 177 109
3 87 91 60
3 60 91 71
3 91 87 129
3 37 71 82
3 51 63 26
3 63 110 105
3 110 63 82
3 82 63 51
3 105 57 63
3 63 57 26
3 53 57 76
3 76 57 105
3 147 76 121
3 53 109 106
3 147 109 76
3 76 109 53
3 126 117 80
3 52 30 44
3 12 33 37
3 12 37 23
3 87 60 52
3 87 52 85
3 52 33 30
3 30 33 12
3 52 60 33
3 37 33 71
3 71 33 60
3 7 11 18
3 26 18 11
3 18 53 27
3 57 53 35
3 18 35 53
3 35 18 26
3 57 35 26
3 37 51 26
3 92 53 106
3 117 178 180
3 126 150 195
3 95 149 150
3 95 150 126
3 149 95 100
3 101 100 69
3 69 100 72
3 100 65 72
3 32 72 65
3 32 44 25
3 20 13 22
3 13 20 4
3 15 4 20
3 16 13 4
3 6 16 4
3 6 0 2
3 6 4 0
3 1 7 8
3 8 7 18
3 8 18 19
3 19 18 34
3 62 34 43
3 43 34 18
3 96 67 79
3 47 79 67
3 77 79 47
3 149 195 150
3 145 153 100
3 100 153 149
3 145 189 153
3 174 189 145
3 191 142 163
3 74 97 46
3 101 163 142
3 163 101 139
3 139 101 97
3 46 97 69
3 69 97 101
3 49 46 20
3 20 46 28
3 103 81 55
3 68 93 41
3 41 93 31
3 93 48 31
3 48 93 70
3 9 6 2
3 21 10 29
3 10 21 9
3 10 9 2
3 24 29 10
3 10 8 19
3 10 19 24
3 19 34 36
3 36 34 62
3 19 36 24
3 58 36 62
3 157 120 169
3 123 120 96
3 162 116 131
3 116 74 83
3 86 124 131
3 86 131 83
3 116 83 131
3 83 49 86
3 107 66 113
3 144 186 98
3 98 113 66
3 113 98 186
3 136 98 94
3 136 94 128
3 94 98 64
3 127 128 94
3 134 127 81
3 103 134 81
3 125 134 103
3 125 103 89
3 154 125 93
3 125 70 93
3 89 70 125
3 132 184 154
3 132 154 93
3 132 146 184
3 88 93 68
3 56 88 61
3 56 61 29
3 29 61 45
3 45 61 88
3 45 88 68
3 39 21 45
3 39 45 41
3 45 21 29
3 9 21 17
3 6 9 17
3 21 39 17
3 6 17 16
3 16 17 31
3 31 17 41
3 39 41 17
3 59 56 29
3 90 56 59
3 90 59 54
3 54 59 29
3 181 115 199
3 199 115 167
3 162 131 183
3 183 131 124
3 166 124 156
3 156 124 86
3 156 86 99
3 49 99 86
3 99 137 156
3 165 107 168
3 113 168 107
3 175 156 137
3 185 133 197
3 170 121 110
3 170 110 182
3 182 121 170
3 117 122 85
3 129 85 122
3 122 172 129
3 129 87 85
3 11 23 26
3 23 11 12
3 75 50 53
3 53 50 27
3 65 80 44
3 65 95 80
3 30 12 25
3 50 47 27
3 104 141 108
3 73 104 77
3 108 77 104
3 118 114 130
3 160 118 130
3 143 160 130
3 143 130 92
3 118 75 114
3 114 92 130
3 101 174 100
3 145 100 174
3 38 32 15
3 38 15 28
3 22 42 49
3 16 40 22
3 64 22 40
3 55 16 48
3 138 108 152
3 79 138 123
3 79 108 138
3 74 46 83
3 81 94 64
3 48 89 55
3 78 111 112
3 58 78 112
3 171 148 157
3 112 171 167
3 171 112 148
3 99 107 137
3 164 119 185
3 90 146 88
3 84 54 115
3 166 198 124
3 121 76 105
3 121 105 110
