ply
format ascii 1.0
comment Generated by PyMesh
element vertex 200
property float x
property float y
property float z
property float charge
property float ddc
property float hbond
property float hphob
property float rho
property float si
property float theta
property float nx
property float ny
property float nz
element face 344
property list uchar int vertex_indices
end_header
-6.17556 -5.75075 9.81419 0.51025 0 0 -0.0888889 1e-08 -0.485206 2.22045e-16 0.879245 -0.409227 -0.243849
-6.27887 -7.16625 9.82987 0.573587 -0.263841 0 -0.0888889 1.41935 -0.176118 2.22045e-16 0.968248 0.150609 -0.199533
-6.2445 -5.67425 8.35825 0.839817 -0.229882 0.48189 -0.866667 1.45958 -0.593974 1.81625 0.940384 -0.316391 0.124801
-5.271 -4.34734 9.45378 0.429117 0.315305 0 -0.2 1.70812 0.0790899 3.1667 0.716884 -0.165769 -0.677199
-4.92338 -5.55363 11.0901 0.315841 -0.434634 0 -0.2 1.79854 0.080399 4.42558 0.467586 -0.821285 -0.326885
-6.60156 -7.33588 8.79594 0.630253 -0.202662 0 -0.256651 1.93157 -0.999867 0.661397 0.994857 0.0992303 0.0203263
-6.14825 -6.61194 11.79 0.412833 0.0769648 0 -0.120257 2.15551 -0.444363 5.38067 0.929507 -0.355159 -0.0993885
-6.10838 -7.2915 10.8197 0.50502 -0.253552 0 -0.0888889 2.43154 0.0510481 5.87002 0.978062 0.207388 -0.01962
-5.79563 -5.69025 7.32412 0.66977 -0.216569 0.297821 -0.863844 2.58704 0.225146 1.69123 0.957859 0.0303151 0.285636
-6.14975 -8.38775 9.2365 0.642467 -0.272499 0 0.597371 2.78347 -0.682244 0.345462 0.864514 0.496605 -0.0774548
-6.22325 -6.96025 7.58225 0.517227 -0.323386 0 -0.777778 2.96172 -0.999844 1.1784 0.827747 0.0783912 0.555599
-5.77 -8.44 10.563 0.568423 -0.202185 0 -0.0888889 2.97462 0.23855 6.16092 0.951713 0.306736 0.0124313
-6.109 -8.09013 8.2005 0.609747 -0.36547 0.0100599 -0.777778 3.01141 -0.999782 0.696002 0.704026 0.548252 0.451407
-3.67925 -5.23994 10.9784 0.37313 -0.440874 0 -0.2 3.08646 -0.054301 4.19133 -0.0577555 -0.859388 -0.508052
-5.308 -5.77575 12.31 0.303794 0.359818 0 -0.2 3.09678 -0.624294 4.87829 0.323934 -0.933786 -0.152023
-5.61875 -4.25737 7.6965 1 0.129936 0.473898 -0.866667 3.14392 0.429686 2.30798 0.978629 0.118664 -0.167943
-4.73887 -2.95038 10.0363 0.168411 0.385231 0 -0.2 3.31249 0.440618 3.32834 0.215907 0.495566 -0.841308
-6.351 -2.99425 8.68025 0.534287 0.341555 0 -0.533636 3.60433 -0.0896829 2.73923 0.659098 0.746601 -0.0904267
-3.67 -3.37725 10.0363 0.238417 -0.367733 0 -0.2 3.66863 0.259178 3.60679 0.0528347 0.22804 -0.972217
-5.725 -6.1115 13.164 0.28495 -0.112188 0 -0.199861 3.67783 -0.999881 5.1087 0.778413 -0.53643 -0.326062
-5.82725 -2.50425 9.9965 0.16658 0.413953 0 -0.2 3.70836 0.279194 3.09092 0.185066 0.85031 -0.49267
-6.111 -5.624 6.089 0.57352 -0.174877 0.517632 -0.801127 3.8635 -0.586464 1.71936 0.902457 0.418943 -0.100291
-5.27969 -9.23044 9.6165 0.54384 -0.328821 0 1 4.05293 -0.152386 0.175341 0.552825 0.793218 0.255323
-6.14838 -8.3445 12.8004 0.305386 -0.0761137 0 -0.0888889 4.16117 -0.577007 5.65278 0.998638 0.0306221 -0.0422442
-5.6675 -9.7635 11.0267 0.39355 -0.204896 0 0.661547 4.38074 -0.536952 6.12072 0.829797 0.432144 0.353113
-5.05225 -9.12525 8.24525 0.259349 -0.333012 0.0785852 0.778944 4.49134 -0.999817 0.515429 0.439157 0.814084 0.380011
-4.69228 -7.21006 6.58134 0.7131 -0.344679 0.096704 -0.777778 4.60667 -0.0381626 1.21699 0.412367 0.69768 0.585829
-2.61469 -4.94441 9.86416 0.323553 -0.48595 0 -0.0888889 4.65559 0.0684234 4.08019 -0.775368 -0.219062 -0.592297
-6.187 -2.8705 7.317 0.785327 0.233261 0.122961 -0.866667 4.69 0.873616 2.40274 0.76518 0.638045 -0.0860097
-3.648 -2.5685 10.791 0.102482 0.348292 0 -0.2 4.69285 0.243116 3.54042 0.0512143 0.888126 -0.456737
-6.951 -2.5145 9.9525 0.198646 0.427236 0 -0.2 4.83302 -0.0955885 2.92867 0.21621 0.976343 0.00262576
-2.68963 -5.70463 12.3524 0.373157 -0.328138 0 -0.2 4.84236 -0.389516 4.5352 -0.260663 -0.948494 -0.180039
-2.011 -5.875 11.0615 0.37523 -0.402167 -0.0252554 -0.253553 4.87343 -0.495688 4.37063 -0.733903 -0.671001 -0.105567
-2.55194 -2.87169 10.2829 0.0562423 -0.357747 -0.338533 -0.154071 4.92022 -0.147396 3.65305 -0.412992 0.578452 -0.703442
-4.83238 -6.22475 14.045 0.203985 -0.20308 0 -0.172968 4.9371 -0.343419 4.98066 0.337459 -0.863933 -0.373821
-7.16125 -2.234 7.76575 0.524633 0.2651 0.104137 -0.866667 5.04336 0.213785 2.56524 0.557123 0.812604 -0.171138
-6.4485 -3.06988 6.36562 0.82373 0.221678 0.232478 -0.866667 5.11112 0.999867 2.27157 0.581447 0.599726 -0.549771
-6.2165 -2.099 11.352 -0.0479317 0.405853 0 -0.2 5.17571 0.734313 3.20196 -0.0671779 0.99727 0.0306544
-6.624 -4.5115 5.5635 0.468287 0.232843 0 -0.866667 5.19654 0.1465 1.93909 0.517749 0.639978 -0.567772
-4.2395 -8.5735 7.08169 0.515497 -0.349132 0 -0.918367 5.24309 -0.999835 0.836375 0.129076 0.635443 0.761282
-6.0635 -9.55275 13.222 0.51936 -0.0888977 0 -0.0888889 5.44367 -0.999827 5.61003 0.961183 0.228341 -0.154877
-6.183 -5.011 4.536 0.226191 -0.261421 0.967173 -1 5.53466 0.0722563 1.7565 0.30348 0.907268 0.291145
-4.34269 -10.1756 10.3532 0.501757 -0.327117 0 0.960233 5.57412 -0.382665 0.0349914 0.0574804 0.76062 0.646648
-5.65947 -10.4865 12.0315 0.227417 -0.182 -0.128585 -0.0888889 5.61865 -0.867021 5.99892 0.739189 0.670298 0.0655765
-5.70131 -7.94219 14.2342 0.465197 -0.0428116 0 -0.0888889 5.716 -0.359134 5.32998 0.924738 -0.100025 -0.367226
-8.08497 -1.88934 9.36447 0.207993 0.280883 0 -0.866667 5.77127 -0.139227 2.78844 0.524179 0.786561 0.326433
-3.57711 -9.55381 9.77205 0.436577 -0.370975 0 0.913024 5.79292 0.132051 0.159704 -0.197054 0.922204 0.33273
-3.82663 -9.5445 8.57913 0.41984 -0.346805 0 0.913713 5.82902 -0.8139 0.382896 -0.0289599 0.975135 0.219709
-3.47725 -2.18625 11.8475 0.0116938 0.345166 0 -0.2 5.82928 -0.07272 3.63399 -0.3464 0.841313 -0.414969
-2.78744 -5.99862 13.4154 0.311591 -0.255001 0 -0.2 5.94959 -0.106675 4.67417 -0.0566234 -0.97951 -0.193273
-1.7585 -6.495 11.9974 0.3505 -0.378137 0 -1 6.02411 0.0230992 4.37063 -0.875271 -0.44215 0.195971
-1.90625 -6.818 10.2917 0.36039 -0.442279 -0.276012 -0.372184 6.09524 -0.273895 4.37063 -0.962724 -0.18519 0.197148
-3.716 -6.85975 5.448 0.579937 -0.340706 0.268141 -1 6.143 -0.999864 1.21699 -0.263335 0.865654 0.425791
-7.99203 -2.64528 11.2072 0.106454 0.411442 0 -0.2 6.1927 -0.397675 2.92867 -0.0144315 0.992396 0.122235
-1.991 -1.967 11.037 -0.109312 -0.306053 0 -0.2 6.22474 0.0152856 3.65305 -0.456314 0.833743 -0.310886
-2.309 -6.189 8.945 0.43995 -0.496864 0 -0.0888889 6.23271 0.159897 4.08019 -0.990824 0.123307 -0.0553434
-7.5915 -4.8935 5.11925 -0.00991547 0.238414 0.514298 -0.866667 6.32762 -0.813618 1.93909 0.355514 0.720587 -0.595285
-8.17025 -1.88312 7.04 0.270622 0.234975 0.232979 -0.866667 6.33483 0.677647 2.56524 0.329029 0.739171 -0.587679
-1.62925 -2.0845 9.506 -0.3736 -0.313817 -0.239979 -0.0888889 6.36056 0.693731 3.65305 -0.672234 0.587866 -0.450016
-1.52013 -6.21325 13.1946 0.52676 -0.284109 0 -0.2 6.37066 -0.524356 4.67417 -0.53448 -0.837967 0.110193
-7.69875 -3.17213 5.98338 0.781853 0.244783 0.112886 -0.866667 6.42249 0.118032 2.27157 0.299425 0.616534 -0.728169
-5.07044 -6.35375 5.00331 0.6309 -0.275 0.265465 -0.957747 6.44146 -0.625621 1.7565 0.358455 0.754102 0.55031
-4.3105 -11.2565 11.5763 0.575097 -0.226177 0 -0.0888889 6.47181 -0.758212 5.99892 0.336622 0.872277 0.354709
-2.81013 -7.37475 7.02338 0.598937 -0.408306 0.0306396 -1 6.54704 -0.310992 0.836375 -0.632572 0.310152 0.709689
-4.87 -7.05025 15.4299 0.42535 -0.106128 0 -0.0888889 6.5498 -0.21173 4.98066 0.602014 -0.722362 -0.340253
-2.88225 -6.48225 6.32975 0.59626 -0.395762 0.800479 -1 6.5737 0.105173 1.21699 -0.654714 0.679947 0.330186
-3.731 -6.37675 15.2506 0.378683 -0.179557 0 -0.2 6.5771 -0.78274 4.98066 0.146035 -0.903592 -0.402736
-5.72906 -2.47112 12.6509 -0.209615 0.373262 0 -0.2 6.6121 -0.310485 3.20196 -0.0788777 0.986902 0.140719
-5.41463 -10.342 13.8094 0.499113 -0.122291 0 0.271149 6.62223 -0.471593 5.61003 0.814785 0.508942 -0.277674
-5.116 -5.535 4.308 0.53344 -0.263721 0.132085 -1 6.74505 -0.573461 1.7565 0.188106 0.463336 0.865988
-8.26437 -1.01525 8.31125 0.0134116 0.212053 0 -0.866667 6.77535 0.802344 2.78844 0.555904 0.831173 -0.0110874
-2.77375 -9.09387 9.28175 0.433723 -0.395667 0 0.844444 6.84045 -0.218317 0.159704 -0.625672 0.758327 0.182961
-3.04312 -9.22025 8.00725 0.43946 -0.367222 0 0.844444 6.8518 -0.999875 0.382896 -0.450346 0.747347 0.488529
-7.58725 -5.17525 4.094 -0.0551233 0.253857 0.672859 -1 7.01596 0.185181 1.7565 -0.109349 0.717811 -0.687598
-1.03 -3.787 8.5425 0.191599 -0.333856 -0.000550657 -0.0888889 7.02152 -0.66072 4.08019 -0.841293 0.29785 -0.451123
-9.06 -0.9825 9.4 0.0107298 0.183765 0 -0.866667 7.1033 0.0899438 2.78844 0.709073 0.625695 0.325148
-3.15875 -1.42963 12.8542 0.0612547 -0.286263 0.542764 0.4 7.12826 0.166984 3.63399 -0.499533 0.666475 -0.553423
-2.33325 -1.6125 12.1005 0.0651217 0.269987 0.0357752 -0.134356 7.13386 -0.221343 3.63399 -0.27871 0.82363 -0.493918
-1.71375 -7.84975 10.351 0.248422 -0.399648 -0.236758 -0.347251 7.14647 -0.791293 4.37063 -0.959066 -0.0283712 0.281756
-4.69075 -2.53175 13.1115 -0.183255 0.360527 0 -0.2 7.23714 -0.383292 3.63399 -0.350228 0.931539 -0.0978508
-4.754 -10.953 13.301 0.49652 -0.17969 0 -0.0888889 7.24627 -0.214181 5.99892 0.543967 0.839005 -0.01308
-4.75725 -4.3725 3.745 0.240903 -0.277897 0 -1 7.2857 0.137715 1.7565 -0.31198 0.546455 0.77721
-2.18438 -7.15963 8.50113 0.52569 -0.44644 0 -0.0888889 7.30727 -0.211752 4.08019 -0.97819 -0.0684411 0.19611
-5.26237 -9.369 14.8328 0.507297 -0.0740696 0 0.78746 7.32435 -0.00494616 5.32998 0.932581 0.232313 -0.276268
-3.302 -11.1471 11.4605 0.51537 -0.260033 0 0.844444 7.37772 -0.374138 0.0349914 -0.0613465 0.694598 0.716778
-8.35437 -4.16412 4.94775 -0.453847 0.175871 -0.475452 -0.816929 7.3969 -0.0223487 1.93909 0.570471 0.599126 -0.561793
-0.950875 -7.54581 12.4346 0.0322214 -0.291638 -0.245019 -1 7.41968 0.0521168 4.37063 -0.632297 -0.545991 0.549632
-8.982 -2.2765 6.4235 0.0985167 0.228344 0 -0.866667 7.42742 0.225585 2.56524 0.208589 0.693139 -0.689962
-9.14338 -2.21881 10.6134 0.047993 0.261747 0 -0.866667 7.44118 -0.594547 2.78844 0.525658 0.686227 0.502768
-1.91937 -6.21275 14.6142 0.51438 -0.22385 0.0700813 -0.50916 7.44509 -0.761247 4.67417 -0.314087 -0.892927 -0.322539
-4.09312 -6.05037 4.4095 0.490923 -0.290196 0 -1 7.5126 -0.999878 1.7565 -0.137521 0.544987 0.827089
-2.3525 -6.17938 7.56938 0.610377 -0.448532 0.281908 -0.506213 7.60905 0.253721 4.08019 -0.928894 0.314033 0.196315
-2.69287 -5.83144 5.22319 0.455863 -0.333382 0.425143 -1 7.61091 -0.739062 1.21699 -0.654214 0.459018 0.601088
-6.11369 -4.90406 2.41894 0.0869857 0.257731 0 -1 7.65555 0.106526 1.7565 -0.720725 0.693096 -0.0131379
-2.13225 -8.094 9.39625 0.419197 -0.425972 0 0.107925 7.67039 -0.0980801 0.159704 -0.947777 0.184363 0.260248
-0.47025 -1.53 9.122 -0.106855 -0.256911 -0.47734 -0.0888889 7.70154 0.17356 3.65305 -0.559631 0.807507 -0.186402
-8.9555 -3.102 5.67 -0.219211 0.20644 -0.300687 -0.821164 7.71962 -0.278896 2.27157 0.401153 0.74822 -0.528435
-1.88644 -9.22363 10.6494 0.397807 -0.341287 0 0.844444 7.72608 -0.0799102 0.159704 -0.616614 0.425512 0.662365
-4.4885 -6.99975 16.5465 0.454337 -0.112558 0 0.0897651 7.73085 -0.999917 4.98066 0.437605 -0.720127 -0.538441
-0.977813 -1.33644 11.9819 0.0576827 0.220682 0 -0.155669 7.74691 -0.143982 3.63399 -0.0664935 0.980925 -0.18266
-9.42325 -2.72775 11.9522 -0.069941 0.217778 0 -0.779522 7.80832 -0.999869 2.78844 0.61736 0.784708 -0.0556738
-5.04875 -7.88225 16.3645 0.37142 -0.0406285 0 -0.0888889 7.81378 -0.724377 5.32998 0.850945 -0.254382 -0.459545
-4.98606 -4.13831 2.75444 0.0453553 -0.264169 0 -1 7.8516 -0.448578 1.7565 -0.707196 0.630495 0.319921
-2.162 -8.0945 7.9165 0.50133 -0.397581 0 -0.0888889 7.86452 -0.999892 0.382896 -0.909633 0.295624 0.291845
-4.8805 -10.495 14.9487 0.529893 -0.0804214 0 0.933333 7.88979 0.0710405 5.61003 0.932964 0.341581 -0.11358
-9.39925 -0.69575 8.29525 0.0114345 0.176313 0 -0.866667 7.95445 0.0238771 2.78844 0.516402 0.75225 -0.409204
-0.426 -1.17206 10.6077 -0.082501 -0.236843 0 -0.0888889 8.0318 0.701762 3.65305 -0.363504 0.925447 -0.106831
-8.49575 -2.5645 12.975 -0.0942213 0.274186 -0.18369 -0.368789 8.03264 -0.54535 2.92867 0.186533 0.919786 -0.345252
-1.463 -8.376 11.3333 0.176508 -0.340225 -0.105314 -1 8.04067 0.32598 0.159704 -0.806276 -0.255371 0.533577
-3.95025 -4.98125 4.1915 0.403797 -0.291234 0.703378 -1 8.04089 -0.439848 1.7565 -0.364018 0.223478 0.904184
-0.620125 -2.47038 8.16737 0.103473 -0.294698 -0.60344 -0.38732 8.08079 -0.131727 3.65305 -0.933496 0.310793 -0.178866
-2.83406 -7.02481 16.3614 0.508743 -0.181119 0.125341 -0.777778 8.14502 -0.497239 4.98066 -0.213924 -0.73017 -0.648913
-9.65375 -0.18225 9.868 -0.0384657 0.0923351 0 -0.866667 8.20419 0.035881 2.78844 0.944339 0.32223 0.066263
-9.64669 -1.105 10.3852 -0.036121 0.136074 0 -0.866667 8.25648 -0.146609 2.78844 0.861516 0.199114 0.467058
-5.90675 -2.65587 14.3011 -0.117535 0.283401 0 -0.2 8.28209 -0.7564 3.20196 0.000315313 0.991663 -0.12886
-7.01625 -5.99675 3.2625 0.0142378 0.280386 -0.13483 -0.961342 8.31685 -0.678956 1.7565 -0.752426 0.433991 -0.495487
-1.69987 -5.249 6.81862 0.450617 -0.363371 0.09057 -0.79922 8.35076 -0.615685 1.21699 -0.818807 0.560268 0.125122
-4.765 -2.518 14.248 -0.200502 0.308162 0 -0.2 8.37614 -0.84256 3.63399 -0.364464 0.919285 -0.148599
-10.148 -1.38462 7.12813 0.016896 0.191085 0 -0.866667 8.37634 -0.219836 2.56524 0.229914 0.611414 -0.757174
-3.69738 -1.33834 13.9881 0.059151 -0.281504 0.407209 0.4 8.38691 -0.414425 3.63399 -0.730711 0.470451 -0.494709
0.031 -7.35913 13.8882 0.636333 -0.22101 0.318217 -0.960587 8.42008 -0.484615 4.67417 -0.612271 -0.790601 0.00867966
-3.58612 -11.5753 13.3752 0.592123 -0.181753 0 -0.0888889 8.43711 -0.179518 5.99892 0.367699 0.920854 0.129709
-7.47087 -2.52638 13.4104 -0.0864843 0.284622 0 -0.2 8.45982 -0.109034 3.20196 0.181217 0.970668 -0.157999
-2.527 -11.704 12.3365 0.47286 -0.200158 0 0.377778 8.46154 -0.344293 0.0349914 0.176489 0.927301 0.330096
-0.949313 -4.12856 7.11919 0.359443 -0.327076 0 -0.584002 8.48746 -0.611672 4.08019 -0.913709 0.35722 0.193727
-8.94312 -4.58262 4.06213 -0.560117 0.127203 -0.0572364 -0.777778 8.49603 0.0691205 1.7565 0.560501 0.160938 -0.812366
-1.63806 -0.748062 12.9071 0.207123 -0.191797 0 0.0257813 8.50541 0.00689755 3.63399 -0.00624998 0.683988 -0.729466
-4.07681 -11.5229 14.4209 0.577033 -0.144922 0 -0.0320473 8.50855 -0.205529 5.99892 0.611204 0.778348 0.143542
-9.886 -2.553 5.83125 -0.130164 0.208515 0 -0.84122 8.54296 -0.205416 2.56524 0.231542 0.833637 -0.501436
-7.96863 -6.67513 3.78638 -0.661683 0.254722 -0.306906 -0.777778 8.59385 -0.999901 1.7565 -0.299107 0.692448 -0.656544
-4.86794 -9.33075 16.6371 0.158079 -0.0563369 0 0.933333 8.61368 -0.363641 5.32998 0.851016 0.0549026 -0.522261
-4.05363 -3.21913 3.93375 0.0999057 -0.286774 0 -1 8.64987 0.525863 1.7565 -0.710511 0.29783 0.637551
-1.30838 -7.12044 15.2753 0.716963 -0.205219 0.477581 -0.777778 8.72347 -0.300777 4.67417 -0.452784 -0.683757 -0.572243
-9.01975 -6.191 4.01325 -0.53754 0.17348 0 -0.777778 8.7739 -0.871548 1.7565 0.243692 0.223039 -0.943858
-4.30062 -7.94225 17.1379 0.42654 -0.120827 0 1 8.85929 -0.999876 5.32998 0.324397 -0.263037 -0.908613
-6.46925 -5.10881 1.25181 -0.019668 -0.228636 0 -0.880138 8.8927 -0.259342 1.7565 -0.779521 0.411465 0.472275
-4.7185 -11.2759 15.6766 0.578807 -0.106185 0 0.933333 8.96955 -0.73533 5.61003 0.793706 0.608294 -0.00312074
-10.237 -1.322 11.2058 -0.214441 0.107363 -0.238289 -0.866667 8.97455 -0.926325 2.78844 0.927756 0.180387 0.326696
-4.561 -3.0465 2.529 0.146464 -0.248326 0.0175719 -1 9.04473 0.268546 1.7565 -0.805122 0.509933 0.302898
-2.817 -4.43525 4.809 0.438413 -0.301267 0.745353 -1 9.07252 -0.632374 1.7565 -0.582432 0.0504241 0.811314
-10.1615 0.4705 8.58675 -0.04119 0.0752972 0 -0.866667 9.09977 -0.215396 2.78844 0.911713 0.337515 -0.234228
-1.81662 -4.56588 5.56887 0.41354 -0.31564 0.340609 -1 9.18855 -0.672701 1.21699 -0.783066 0.239221 0.574091
-5.76875 -4.03025 1.206 -0.335113 -0.218703 0.547276 -1 9.18975 -0.502144 1.7565 -0.659128 0.428587 0.617951
-0.571625 -9.07475 11.6154 0.316279 -0.25898 -0.00596384 -0.972213 9.19523 -0.150563 0.159704 -0.446835 -0.276825 0.850709
-9.5915 -3.258 3.9775 -0.310933 0.0976811 -0.124325 -0.777778 9.21155 0.126382 1.93909 0.845598 0.469669 -0.25372
-9.96212 0.7785 9.82487 -0.0460157 0.0367881 0 -0.866667 9.21414 -0.429738 2.78844 0.984476 0.0508648 -0.167988
0.656875 -0.954625 11.0969 0.257629 -0.199215 0 -0.0888889 9.23978 0.407777 3.65305 -0.172353 0.969797 0.17259
-1.33125 -10.4866 11.3071 0.442793 -0.252297 0 0.844444 9.25445 -0.463431 0.159704 -0.287108 0.373615 0.882032
-9.30481 -1.76231 13.5004 -0.51173 0.146726 -0.615631 -0.777778 9.28728 -0.45824 2.92867 0.595097 0.508562 -0.622273
-0.27 -0.883 13.3573 0.187824 0.123192 0 -0.2 9.35884 -0.074031 3.63399 0.52276 0.654727 -0.545943
-7.35575 -6.70587 2.56169 -0.151647 0.256672 0 -0.485396 9.37005 -0.712272 1.7565 -0.706322 0.699094 -0.111252
0.94725 -0.8885 9.82619 0.196768 -0.192252 0.025898 -0.0888889 9.40938 0.0536257 3.65305 -0.162998 0.986589 -0.00857057
-0.030375 -1.28225 7.4885 0.122921 -0.232423 0.00467234 -0.980047 9.41127 0.180699 3.65305 -0.531229 0.845946 0.0465979
-10.4152 -2.56775 4.9595 -0.10965 0.17912 -0.00293626 -0.85504 9.4287 -0.197551 2.27157 0.427255 0.881527 0.200905
-2.90569 0.68025 13.7451 0.049932 -0.183632 0 0.4 9.43246 0.0684272 3.63399 -0.312653 0.115108 -0.942867
-7.06962 -2.47638 14.4404 -0.0257032 0.219663 0.0962312 -0.376944 9.46695 -0.731081 3.20196 0.328211 0.848099 -0.415938
-10.5411 0.020375 7.60388 -0.0416343 0.131847 0 -0.866667 9.46926 0.287834 2.78844 0.449597 0.384052 -0.806453
-11.189 -0.84225 7.053 -0.0315099 0.174779 0 -0.866667 9.55256 0.617094 2.56524 0.0537119 0.434125 -0.89925
-10.1517 -1.443 12.8884 -0.57693 0.073933 -0.0908054 -0.810518 9.55694 -0.920442 2.78844 0.884903 0.208359 -0.416574
-0.7125 -3.14287 6.77037 0.40072 -0.293832 0 -1 9.55953 -0.786713 3.65305 -0.909629 0.176453 0.376085
-1.37625 -11.8694 12.1976 0.44997 -0.204616 0 0.172882 9.56256 -0.701319 0.0349914 -0.0962332 0.842831 0.529505
-5.19125 -3.15313 1.31638 -0.263014 -0.213268 0 -0.777778 9.60679 -0.201481 1.7565 -0.612573 0.506803 0.606552
-5.15737 -2.20863 15.3814 -0.0770677 0.241043 -0.423582 0.4 9.6148 -0.999859 3.63399 -0.285748 0.688131 -0.666951
-1.22113 0.0809375 13.5485 0.0400333 -0.132517 0 0.4 9.63344 -0.0746796 3.63399 0.27894 0.353428 -0.892906
-3.83075 -0.304 14.6757 -0.026281 -0.219393 -0.0434052 0.446411 9.63608 -0.560929 3.63399 -0.607594 -0.0369576 -0.793388
-2.7135 -12.04 14.0715 0.477123 -0.161207 0 -0.0888889 9.64634 0.363528 5.99892 0.366581 0.883477 0.291696
-9.76156 0.291438 11.3061 -0.0964303 -0.0274771 0 0.4 9.72213 -0.15531 2.78844 0.936059 -0.348835 -0.0459032
1.14525 -8.562 12.9073 0.701093 -0.209912 0.394016 -1 9.79662 -0.868068 4.37063 -0.669011 -0.647723 0.364526
-3.12075 -3.278 4.64725 0.334693 -0.28909 0 -1 9.8258 0.461773 1.7565 -0.612575 0.0962018 0.784536
0.721 -1.61625 13.153 0.124071 0.132746 0 -0.2 9.82915 -0.13008 3.63399 0.550536 0.834086 0.034786
1.37888 -0.50825 8.64587 0.109163 0.167608 0.781538 -0.0888889 9.86717 0.999862 3.65305 0.0043209 0.99807 -0.0619493
-8.796 -7.136 2.874 -0.135071 0.212066 -0.000741121 -0.36136 9.90891 -0.830724 1.7565 -0.102779 0.977726 -0.182997
-3.2065 -2.32675 4.27975 0.130018 -0.268427 0 -1 9.92803 0.539275 1.7565 -0.661631 0.374437 0.649648
-4.66625 -11.0845 16.892 0.400423 -0.0682297 0 0.924591 9.9318 -0.999824 5.61003 0.873862 0.373752 -0.310925
-3.23534 -8.48941 17.304 0.459237 -0.134518 0 1 9.93235 -0.219011 5.32998 0.0843109 -0.374124 -0.923538
-9.66475 -6.88675 3.34425 -0.183105 0.168773 0 -0.415662 9.93478 -0.846726 1.7565 0.304819 0.803747 -0.510956
-11.3241 -2.33512 5.93962 -0.0451153 0.184133 0 -0.866667 10.0015 -0.709798 2.56524 0.252521 0.915196 -0.314085
-1.40675 -8.23525 16.089 0.725003 -0.180237 0.431927 -0.777778 10.0362 0.999761 4.67417 -0.400395 -0.658658 -0.637066
1.33506 -1.27988 11.9929 0.171192 0.159618 0 -0.184761 10.0605 0.187838 3.63399 0.263704 0.797677 0.542376
-1.476 -3.1625 5.95813 0.62033 -0.289797 0.397828 -1 10.0871 0.0432137 4.08019 -0.693237 0.143144 0.706351
-10.316 -5.06875 3.35775 -0.325391 0.0736119 0 -0.809818 10.1138 -0.68097 1.7565 0.673115 -0.274309 -0.686783
-0.945625 -1.96769 6.20687 0.41249 -0.265857 0 -1 10.1307 0.0726819 3.65305 -0.792355 0.33976 0.506693
-1.66 -12.3445 13.6494 0.337317 -0.174289 0 -0.213366 10.1603 -0.547249 0.0349914 0.0749592 0.965726 0.248506
-7.0405 -6.171 0.85725 -0.132005 -0.21133 0.00973336 -0.850191 10.1617 -0.999867 1.7565 -0.60925 0.463412 0.643478
-3.709 -1.9195 3.02475 -0.0954547 -0.239471 0 -1 10.2729 0.676436 1.7565 -0.766861 0.573532 0.288072
-3.354 -12.5258 15.707 0.242015 -0.142006 0 0.844444 10.2925 -0.99985 5.99892 0.334248 0.942454 0.00765007
-7.47038 -4.79637 0.310625 -0.0074969 -0.183581 0.103803 -0.00718982 10.3019 -0.545855 1.7565 -0.358296 0.193719 0.913289
-10.2965 1.40625 7.82575 -0.117352 -0.0775978 0 -0.777778 10.3134 -0.0680291 2.78844 0.562055 -0.588037 -0.581642
-1.70119 -8.70938 17.1994 0.389983 -0.161146 -0.101352 -0.270878 10.3412 -0.548145 4.67417 -0.367204 -0.522871 -0.769264
-10.0218 -4.13219 2.61144 0.0095534 0.00831124 0 -0.866667 10.3591 0.0786728 1.7565 0.962657 -0.158563 -0.21943
0.717875 -8.19975 15.5052 0.615783 -0.178178 0.45129 -0.784236 10.3677 -0.999819 4.67417 -0.62321 -0.649262 -0.435968
-9.66938 1.7765 10.3371 -0.0597057 -0.0536085 0 0.4 10.3735 -0.672893 2.78844 0.732011 -0.557361 -0.391801
-10.1956 -0.223 12.1319 -0.318546 -0.0128286 -0.563898 -0.758511 10.4123 -0.999829 2.78844 0.948219 -0.288896 -0.131983
-7.487 -6.942 1.53 -0.053482 -0.210002 0 -0.355556 10.4365 -0.882381 1.7565 -0.35587 0.914039 0.194652
-12.2112 -1.32056 6.83494 -0.0297725 0.158304 0 -0.464164 10.4613 -0.41028 2.56524 0.212442 0.686723 -0.695183
-8.64675 -1.3 14.493 -0.307199 0.0993416 -0.805512 -0.777778 10.5648 -0.640637 2.92867 0.694924 0.166547 -0.69953
-4.00506 -2.0625 1.51047 -0.0901213 -0.20789 0.0411343 -0.905249 10.5661 -0.520918 1.7565 -0.716805 0.620311 0.318442
-3.79075 -10.2222 18.0065 0.518913 -0.0948621 0 1 10.5708 -0.999869 5.32998 0.409482 -0.0532152 -0.910765
-4.75675 0.05125 15.3105 -0.106209 -0.198719 -0.141506 0.669609 10.5782 -0.407501 3.63399 -0.547288 -0.301542 -0.780735
-7.49125 -1.47625 15.2793 0.247017 0.147167 0.704737 -0.777778 10.6036 -0.569798 3.20196 0.469884 0.554722 -0.686653
3 153 96 144
3 118 156 105
3 118 105 57
3 57 105 70
3 125 189 144
3 73 125 85
3 85 96 60
3 96 128 87
3 60 87 57
3 87 118 57
3 57 70 35
3 57 35 60
3 70 45 35
3 20 30 53
3 75 45 70
3 113 75 112
3 75 70 105
3 112 75 140
3 105 140 75
3 140 105 156
3 161 138 196
3 93 41 102
3 102 41 81
3 102 81 131
3 81 41 69
3 81 69 109
3 131 81 109
3 15 38 36
3 60 36 38
3 38 56 60
3 15 36 28
3 28 35 17
3 3 17 20
3 3 16 18
3 16 20 29
3 29 37 79
3 37 67 79
3 67 37 53
3 117 67 114
3 53 107 122
3 113 112 166
3 145 166 112
3 196 138 184
3 184 131 172
3 131 168 172
3 139 179 168
3 116 92 65
3 65 26 63
3 26 10 12
3 10 26 8
3 8 26 21
3 2 15 3
3 3 18 13
3 55 27 74
3 18 29 33
3 58 33 54
3 29 18 16
3 48 79 76
3 122 155 114
3 74 124 116
3 116 91 55
3 91 63 82
3 91 82 55
3 26 12 39
3 4 3 13
3 13 31 14
3 55 51 27
3 51 78 50
3 50 78 108
3 82 94 51
3 78 97 108
3 46 22 42
3 71 47 46
3 47 22 46
3 12 25 39
3 1 11 9
3 22 11 24
3 24 42 22
3 7 23 11
3 24 11 23
3 34 31 49
3 31 50 59
3 59 49 31
3 120 86 167
3 143 167 86
3 143 108 97
3 24 40 43
3 23 44 40
3 34 49 66
3 66 49 89
3 89 132 111
3 111 66 89
3 111 177 188
3 174 111 188
3 160 147 84
3 160 84 123
3 182 123 121
3 121 62 80
3 121 127 165
3 104 127 68
3 80 68 127
3 68 44 83
3 44 64 101
3 44 34 64
3 66 64 34
3 44 101 130
3 44 130 83
3 136 127 104
3 104 130 173
3 181 110 152
3 58 95 110
3 110 95 152
3 95 151 170
3 99 106 54
3 54 77 99
3 126 99 77
3 126 77 76
3 126 154 163
3 154 119 164
3 146 151 106
3 169 178 99
3 99 149 169
3 93 135 150
3 171 150 193
3 153 128 96
3 118 176 194
3 118 194 157
3 153 176 128
3 128 176 118
3 140 156 187
3 125 133 180
3 125 180 189
3 133 125 73
3 41 73 38
3 38 73 56
3 73 85 56
3 60 56 85
3 60 96 87
3 17 30 20
3 30 17 45
3 35 45 17
3 53 30 45
3 88 53 45
3 88 75 113
3 88 45 75
3 112 140 145
3 145 140 187
3 145 187 191
3 135 93 142
3 150 135 183
3 150 183 193
3 186 183 135
3 150 171 129
3 129 175 133
3 175 129 171
3 115 129 73
3 73 129 133
3 115 150 129
3 93 150 115
3 109 69 90
3 90 69 61
3 8 21 15
3 41 61 69
3 61 41 26
3 26 41 21
3 15 21 38
3 38 21 41
3 3 15 17
3 17 15 28
3 117 79 67
3 195 199 148
3 148 199 107
3 199 122 107
3 122 199 155
3 137 88 113
3 166 192 137
3 166 137 113
3 166 145 191
3 179 172 168
3 116 141 92
3 92 141 139
3 139 141 179
3 65 92 52
3 52 92 90
3 52 90 61
3 90 92 109
3 139 109 92
3 65 52 26
3 61 26 52
3 26 39 63
3 12 10 5
3 10 8 2
3 0 1 5
3 0 5 2
3 10 2 5
3 2 3 0
3 13 18 27
3 58 74 33
3 33 27 18
3 27 33 74
3 54 33 48
3 54 48 77
3 48 33 29
3 76 77 48
3 119 76 79
3 117 119 79
3 198 119 162
3 162 119 117
3 162 117 114
3 162 155 199
3 114 155 162
3 137 192 100
3 88 137 100
3 192 158 100
3 88 100 53
3 53 100 107
3 107 100 148
3 158 148 100
3 159 181 179
3 124 159 179
3 141 116 124
3 141 124 179
3 103 82 63
3 94 82 103
3 94 103 71
3 72 71 103
3 72 103 63
3 72 63 39
3 47 71 72
3 25 47 39
3 39 47 72
3 12 5 9
3 9 5 1
3 7 1 6
3 6 1 0
3 6 0 4
3 3 4 0
3 4 14 6
3 31 13 32
3 31 32 50
3 27 51 32
3 27 32 13
3 32 51 50
3 97 78 94
3 97 94 71
3 94 78 51
3 25 22 47
3 22 25 12
3 22 12 9
3 22 9 11
3 6 23 7
3 23 6 19
3 19 6 14
3 19 14 34
3 59 50 86
3 89 120 132
3 59 120 89
3 120 59 86
3 97 147 143
3 97 84 147
3 42 62 84
3 62 42 24
3 62 24 43
3 68 80 43
3 68 43 40
3 68 40 44
3 19 44 23
3 34 44 19
3 89 49 59
3 66 111 64
3 64 111 98
3 64 98 101
3 111 174 134
3 111 134 98
3 98 134 101
3 167 190 120
3 120 190 132
3 132 190 177
3 123 182 160
3 62 121 123
3 62 123 84
3 43 80 62
3 174 130 134
3 134 130 101
3 174 197 130
3 130 197 173
3 136 185 127
3 127 185 165
3 104 173 136
3 110 159 124
3 110 124 74
3 110 74 58
3 181 159 110
3 170 152 95
3 106 151 95
3 198 164 119
3 163 149 126
3 126 149 99
3 142 93 102
3 142 102 161
3 161 102 138
3 157 156 118
3 85 144 96
3 85 125 144
3 128 118 87
3 41 93 73
3 115 73 93
3 36 60 35
3 36 35 28
3 20 16 3
3 53 37 20
3 29 20 37
3 67 53 122
3 184 138 131
3 138 102 131
3 109 139 131
3 168 131 139
3 8 15 2
3 79 48 29
3 122 114 67
3 116 65 91
3 63 91 65
3 4 13 14
3 82 51 55
3 74 116 55
3 95 58 106
3 106 58 54
3 119 154 76
3 126 76 154
3 7 11 1
3 14 31 34
3 108 86 50
3 108 143 86
3 97 42 84
3 24 23 40
3 132 177 111
3 80 127 121
3 121 165 182
3 68 83 104
3 104 83 130
3 146 106 99
3 178 146 99
3 97 71 46
3 97 46 42
