ply
format ascii 1.0
comment Generated by PyMesh
element vertex 200
property float x
property float y
property float z
property float charge
property float ddc
property float hbond
property float hphob
property float rho
property float si
property float theta
property float nx
property float ny
property float nz
element face 343
property list uchar int vertex_indices
end_header
-6.27887 -7.16625 9.82987 0.573587 0 0 -0.0888889 1e-08 -0.176118 2.22045e-16 0.968248 0.150609 -0.199533
-6.10838 -7.2915 10.8197 0.50502 -0.0975334 0 -0.0888889 1.01218 0.0510481 5.41372 0.978062 0.207388 -0.01962
-6.60156 -7.33588 8.79594 0.630253 0.0435979 0 -0.256651 1.09632 -0.999867 1.88403 0.994857 0.0992303 0.0203263
-6.14975 -8.38775 9.2365 0.642467 -0.293893 0 0.597371 1.36412 -0.682244 0.968288 0.864514 0.496605 -0.0774548
-6.17556 -5.75075 9.81419 0.51025 -0.443561 0 -0.0888889 1.41935 -0.485206 3.3445 0.879245 -0.409227 -0.243849
-5.77 -8.44 10.563 0.568423 -0.114103 0 -0.0888889 1.55527 0.23855 2.22045e-16 0.951713 0.306736 0.0124313
-6.14825 -6.61194 11.79 0.412833 -0.253599 0 -0.120257 2.04118 -0.444363 4.7912 0.929507 -0.355159 -0.0993885
-6.109 -8.09013 8.2005 0.609747 -0.341462 0.0100599 -0.777778 2.17616 -0.999782 1.44504 0.704026 0.548252 0.451407
-6.22325 -6.96025 7.58225 0.517227 -0.237017 0 -0.777778 2.42194 -0.999844 2.03348 0.827747 0.0783912 0.555599
-5.27969 -9.23044 9.6165 0.54384 -0.353678 0 1 2.63358 -0.152386 0.530471 0.552825 0.793218 0.255323
-6.2445 -5.67425 8.35825 0.839817 -0.220657 0.48189 -0.866667 2.85133 -0.593974 2.66162 0.940384 -0.316391 0.124801
-5.6675 -9.7635 11.0267 0.39355 -0.154838 0 0.661547 2.96139 -0.536952 6.2619 0.829797 0.432144 0.353113
-5.271 -4.34734 9.45378 0.429117 -0.275941 0 -0.2 3.12747 0.0790899 3.3498 0.716884 -0.165769 -0.677199
-4.92338 -5.55363 11.0901 0.315841 -0.470159 0 -0.2 3.21789 0.080399 4.05993 0.467586 -0.821285 -0.326885
-6.14838 -8.3445 12.8004 0.305386 -0.0439293 0 -0.0888889 3.25575 -0.577007 5.52614 0.998638 0.0306221 -0.0422442
-5.308 -5.77575 12.31 0.303794 -0.424943 0 -0.2 3.33565 -0.624294 4.50611 0.323934 -0.933786 -0.152023
-5.725 -6.1115 13.164 0.28495 -0.225741 0 -0.199861 3.5635 -0.999881 4.80591 0.778413 -0.53643 -0.326062
-5.05225 -9.12525 8.24525 0.259349 -0.332947 0.0785852 0.778944 3.65609 -0.999817 1.0363 0.439157 0.814084 0.380011
-5.79563 -5.69025 7.32412 0.66977 -0.0887629 0.297821 -0.863844 3.78663 0.225146 2.35316 0.957859 0.0303151 0.285636
-4.34269 -10.1756 10.3532 0.501757 -0.351334 0 0.960233 4.15477 -0.382665 0.321163 0.0574804 0.76062 0.646648
-5.65947 -10.4865 12.0315 0.227417 -0.146123 -0.128585 -0.0888889 4.1993 -0.867021 6.12278 0.739189 0.670298 0.0655765
-4.69228 -7.21006 6.58134 0.7131 -0.267501 0.096704 -0.777778 4.26804 -0.0381626 1.79578 0.412367 0.69768 0.585829
-3.57711 -9.55381 9.77205 0.436577 -0.402287 0 0.913024 4.37356 0.132051 0.577146 -0.197054 0.922204 0.33273
-4.2395 -8.5735 7.08169 0.515497 -0.330533 0 -0.918367 4.40784 -0.999835 1.35227 0.129076 0.635443 0.761282
-3.82663 -9.5445 8.57913 0.41984 -0.365539 0 0.913713 4.44636 -0.8139 0.871681 -0.0289599 0.975135 0.219709
-3.67925 -5.23994 10.9784 0.37313 -0.451193 0 -0.2 4.50581 -0.054301 3.9873 -0.0577555 -0.859388 -0.508052
-5.61875 -4.25737 7.6965 1 0.0594057 0.473898 -0.866667 4.53568 0.429686 2.76659 0.978629 0.118664 -0.167943
-6.0635 -9.55275 13.222 0.51936 -0.0541692 0 -0.0888889 4.53825 -0.999827 5.74063 0.961183 0.228341 -0.154877
-4.73887 -2.95038 10.0363 0.168411 0.274309 0 -0.2 4.73184 0.440618 3.39553 0.215907 0.495566 -0.841308
-5.70131 -7.94219 14.2342 0.465197 -0.107175 0 -0.0888889 4.81058 -0.359134 5.31926 0.924738 -0.100025 -0.367226
-4.83238 -6.22475 14.045 0.203985 -0.278216 0 -0.172968 4.82277 -0.343419 4.84302 0.337459 -0.863933 -0.373821
-6.351 -2.99425 8.68025 0.534287 0.163353 0 -0.533636 5.02368 -0.0896829 3.05737 0.659098 0.746601 -0.0904267
-4.3105 -11.2565 11.5763 0.575097 -0.211683 0 -0.0888889 5.05246 -0.758212 0.049877 0.336622 0.872277 0.354709
-6.111 -5.624 6.089 0.57352 0.0815926 0.517632 -0.801127 5.0631 -0.586464 2.29364 0.902457 0.418943 -0.100291
-3.67 -3.37725 10.0363 0.238417 -0.301522 0 -0.2 5.08799 0.259178 3.55877 0.0528347 0.22804 -0.972217
-5.82725 -2.50425 9.9965 0.16658 0.256808 0 -0.2 5.12771 0.279194 3.28894 0.185066 0.85031 -0.49267
-2.77375 -9.09387 9.28175 0.433723 -0.429845 0 0.844444 5.4211 -0.218317 0.742791 -0.625672 0.758327 0.182961
-3.04312 -9.22025 8.00725 0.43946 -0.382732 0 0.844444 5.46913 -0.999875 1.03303 -0.450346 0.747347 0.488529
-5.41463 -10.342 13.8094 0.499113 -0.101602 0 0.271149 5.71681 -0.471593 5.78664 0.814785 0.508942 -0.277674
-3.716 -6.85975 5.448 0.579937 -0.294424 0.268141 -1 5.80436 -0.999864 1.71995 -0.263335 0.865654 0.425791
-4.754 -10.953 13.301 0.49652 -0.155551 0 -0.0888889 5.82691 -0.214181 6.10777 0.543967 0.839005 -0.01308
-2.68963 -5.70463 12.3524 0.373157 -0.361456 0 -0.2 5.95533 -0.389516 4.3775 -0.260663 -0.948494 -0.180039
-3.302 -11.1471 11.4605 0.51537 -0.260751 0 0.844444 5.95837 -0.374138 0.254366 -0.0613465 0.694598 0.716778
-2.61469 -4.94441 9.86416 0.323553 -0.445957 0 -0.0888889 6.07494 0.0684234 3.9873 -0.775368 -0.219062 -0.592297
-6.187 -2.8705 7.317 0.785327 0.113523 0.122961 -0.866667 6.08175 0.873616 3.05737 0.76518 0.638045 -0.0860097
-5.07044 -6.35375 5.00331 0.6309 -0.201316 0.265465 -0.957747 6.10283 -0.625621 1.71995 0.358455 0.754102 0.55031
-3.648 -2.5685 10.791 0.102482 0.242155 0 -0.2 6.1122 0.243116 3.55877 0.0512143 0.888126 -0.456737
-2.81013 -7.37475 7.02338 0.598937 -0.393997 0.0306396 -1 6.2084 -0.310992 1.35227 -0.632572 0.310152 0.709689
-2.88225 -6.48225 6.32975 0.59626 -0.35615 0.800479 -1 6.23507 0.105173 1.71995 -0.654714 0.679947 0.330186
-6.951 -2.5145 9.9525 0.198646 0.242884 0 -0.2 6.25237 -0.0955885 3.28894 0.21621 0.976343 0.00262576
-2.011 -5.875 11.0615 0.37523 -0.412806 -0.0252554 -0.253553 6.29279 -0.495688 4.3775 -0.733903 -0.671001 -0.105567
-1.88644 -9.22363 10.6494 0.397807 -0.354364 0 0.844444 6.30673 -0.0799102 0.742791 -0.616614 0.425512 0.662365
-2.55194 -2.87169 10.2829 0.0562423 -0.289508 -0.338533 -0.154071 6.33957 -0.147396 3.55877 -0.412992 0.578452 -0.703442
-6.624 -4.5115 5.5635 0.468287 0.183631 0 -0.866667 6.39613 0.1465 2.29364 0.517749 0.639978 -0.567772
-5.26237 -9.369 14.8328 0.507297 -0.0617762 0 0.78746 6.41893 -0.00494616 5.78664 0.932581 0.232313 -0.276268
-4.87 -7.05025 15.4299 0.42535 -0.176588 0 -0.0888889 6.43548 -0.21173 4.84302 0.602014 -0.722362 -0.340253
-7.16125 -2.234 7.76575 0.524633 0.153442 0.104137 -0.866667 6.46271 0.213785 3.05737 0.557123 0.812604 -0.171138
-3.731 -6.37675 15.2506 0.378683 -0.233985 0 -0.2 6.46278 -0.78274 4.84302 0.146035 -0.903592 -0.402736
-6.4485 -3.06988 6.36562 0.82373 0.160125 0.232478 -0.866667 6.50288 0.999867 2.76659 0.581447 0.599726 -0.549771
-6.2165 -2.099 11.352 -0.0479317 0.257493 0 -0.2 6.59506 0.734313 3.28894 -0.0671779 0.99727 0.0306544
-2.13225 -8.094 9.39625 0.419197 -0.456356 0 0.107925 6.61457 -0.0980801 0.742791 -0.947777 0.184363 0.260248
-6.183 -5.011 4.536 0.226191 0.185305 0.967173 -1 6.73425 0.0722563 2.29364 0.30348 0.907268 0.291145
-2.162 -8.0945 7.9165 0.50133 -0.414571 0 -0.0888889 6.90159 -0.999892 1.03303 -0.909633 0.295624 0.291845
-2.78744 -5.99862 13.4154 0.311591 -0.301436 0 -0.2 6.97435 -0.106675 4.3775 -0.0566234 -0.97951 -0.193273
-4.8805 -10.495 14.9487 0.529893 -0.0426409 0 0.933333 6.98437 0.0710405 5.78664 0.932964 0.341581 -0.11358
-3.58612 -11.5753 13.3752 0.592123 -0.160164 0 -0.0888889 7.01776 -0.179518 6.10777 0.367699 0.920854 0.129709
-5.04875 -7.88225 16.3645 0.37142 -0.0981581 0 -0.0888889 7.0394 -0.724377 5.31926 0.850945 -0.254382 -0.459545
-2.527 -11.704 12.3365 0.47286 -0.182513 0 0.377778 7.04219 -0.344293 0.254366 0.176489 0.927301 0.330096
-4.09312 -6.05037 4.4095 0.490923 -0.24015 0 -1 7.17396 -0.999878 1.71995 -0.137521 0.544987 0.827089
-5.116 -5.535 4.308 0.53344 -0.202583 0.132085 -1 7.17795 -0.573461 1.71995 0.188106 0.463336 0.865988
-8.08497 -1.88934 9.36447 0.207993 0.151094 0 -0.866667 7.19062 -0.139227 3.05737 0.524179 0.786561 0.326433
-1.7585 -6.495 11.9974 0.3505 -0.38713 0 -1 7.22722 0.0230992 4.3775 -0.875271 -0.44215 0.195971
-3.47725 -2.18625 11.8475 0.0116938 0.260672 0 -0.2 7.24863 -0.07272 3.55877 -0.3464 0.841313 -0.414969
-4.07681 -11.5229 14.4209 0.577033 -0.111974 0 -0.0320473 7.25434 -0.205529 6.10777 0.611204 0.778348 0.143542
-2.69287 -5.83144 5.22319 0.455863 -0.294473 0.425143 -1 7.27227 -0.739062 1.71995 -0.654214 0.459018 0.601088
-1.463 -8.376 11.3333 0.176508 -0.366389 -0.105314 -1 7.47527 0.32598 0.742791 -0.806276 -0.255371 0.533577
-1.52013 -6.21325 13.1946 0.52676 -0.306521 0 -0.2 7.48363 -0.524356 4.3775 -0.53448 -0.837967 0.110193
-1.90625 -6.818 10.2917 0.36039 -0.449826 -0.276012 -0.372184 7.51459 -0.273895 4.3775 -0.962724 -0.18519 0.197148
-7.5915 -4.8935 5.11925 -0.00991547 0.199474 0.514298 -0.866667 7.52721 -0.813618 2.29364 0.355514 0.720587 -0.595285
-2.3525 -6.17938 7.56938 0.610377 -0.416666 0.281908 -0.506213 7.59997 0.253721 1.71995 -0.928894 0.314033 0.196315
-7.99203 -2.64528 11.2072 0.106454 0.262726 0 -0.2 7.61205 -0.397675 3.28894 -0.0144315 0.992396 0.122235
-4.4885 -6.99975 16.5465 0.454337 -0.169213 0 0.0897651 7.61653 -0.999917 4.84302 0.437605 -0.720127 -0.538441
-1.991 -1.967 11.037 -0.109312 -0.240201 0 -0.2 7.64409 0.0152856 3.55877 -0.456314 0.833743 -0.310886
-2.309 -6.189 8.945 0.43995 -0.474045 0 -0.0888889 7.65206 0.159897 3.9873 -0.990824 0.123307 -0.0553434
-1.71375 -7.84975 10.351 0.248422 -0.42392 -0.236758 -0.347251 7.68524 -0.791293 0.742791 -0.959066 -0.0283712 0.281756
-4.86794 -9.33075 16.6371 0.158079 -0.0814939 0 0.933333 7.70826 -0.363641 5.31926 0.851016 0.0549026 -0.522261
-8.17025 -1.88312 7.04 0.270622 0.175064 0.232979 -0.866667 7.75418 0.677647 3.05737 0.329029 0.739171 -0.587679
-1.62925 -2.0845 9.506 -0.3736 -0.259943 -0.239979 -0.0888889 7.77992 0.693731 3.55877 -0.672234 0.587866 -0.450016
-7.69875 -3.17213 5.98338 0.781853 0.19992 0.112886 -0.866667 7.81425 0.118032 2.29364 0.299425 0.616534 -0.728169
-2.18438 -7.15963 8.50113 0.52569 -0.460826 0 -0.0888889 7.82753 -0.211752 0.742791 -0.97819 -0.0684411 0.19611
-1.33125 -10.4866 11.3071 0.442793 -0.251272 0 0.844444 7.83509 -0.463431 0.254366 -0.287108 0.373615 0.882032
-0.571625 -9.07475 11.6154 0.316279 -0.27021 -0.00596384 -0.972213 7.94504 -0.150563 0.742791 -0.446835 -0.276825 0.850709
-1.69987 -5.249 6.81862 0.450617 -0.320104 0.09057 -0.79922 8.01212 -0.615685 1.71995 -0.818807 0.560268 0.125122
-2.83406 -7.02481 16.3614 0.508743 -0.221946 0.125341 -0.777778 8.03069 -0.497239 4.84302 -0.213924 -0.73017 -0.648913
-5.72906 -2.47112 12.6509 -0.209615 0.248512 0 -0.2 8.03145 -0.310485 3.28894 -0.0788777 0.986902 0.140719
-4.7185 -11.2759 15.6766 0.578807 -0.070098 0 0.933333 8.06413 -0.73533 5.78664 0.793706 0.608294 -0.00312074
-4.30062 -7.94225 17.1379 0.42654 -0.161944 0 1 8.1171 -0.999876 5.31926 0.324397 -0.263037 -0.908613
-1.37625 -11.8694 12.1976 0.44997 -0.191965 0 0.172882 8.14321 -0.701319 0.254366 -0.0962332 0.842831 0.529505
-8.26437 -1.01525 8.31125 0.0134116 0.123566 0 -0.866667 8.1947 0.802344 3.05737 0.555904 0.831173 -0.0110874
-7.58725 -5.17525 4.094 -0.0551233 0.232575 0.672859 -1 8.21556 0.185181 2.29364 -0.109349 0.717811 -0.687598
-2.7135 -12.04 14.0715 0.477123 -0.135766 0 -0.0888889 8.22699 0.363528 6.10777 0.366581 0.883477 0.291696
-3.95025 -4.98125 4.1915 0.403797 -0.247432 0.703378 -1 8.2744 -0.439848 1.71995 -0.364018 0.223478 0.904184
-1.91937 -6.21275 14.6142 0.51438 -0.260198 0.0700813 -0.50916 8.38993 -0.761247 4.3775 -0.314087 -0.892927 -0.322539
-1.03 -3.787 8.5425 0.191599 -0.29879 -0.000550657 -0.0888889 8.44087 -0.66072 3.55877 -0.841293 0.29785 -0.451123
-4.75725 -4.3725 3.745 0.240903 -0.22522 0 -1 8.48529 0.137715 2.29364 -0.31198 0.546455 0.77721
-9.06 -0.9825 9.4 0.0107298 0.0923351 0 -0.866667 8.52265 0.0899438 3.05737 0.709073 0.625695 0.325148
-3.15875 -1.42963 12.8542 0.0612547 -0.23498 0.542764 0.4 8.54761 0.166984 3.55877 -0.499533 0.666475 -0.553423
-2.33325 -1.6125 12.1005 0.0651217 -0.214551 0.0357752 -0.134356 8.55321 -0.221343 3.55877 -0.27871 0.82363 -0.493918
-8.35437 -4.16412 4.94775 -0.453847 0.143183 -0.475452 -0.816929 8.5965 -0.0223487 2.29364 0.570471 0.599126 -0.561793
-0.950875 -7.54581 12.4346 0.0322214 -0.30786 -0.245019 -1 8.62278 0.0521168 4.3775 -0.632297 -0.545991 0.549632
-4.69075 -2.53175 13.1115 -0.183255 0.265286 0 -0.2 8.65649 -0.383292 3.55877 -0.350228 0.931539 -0.0978508
-2.817 -4.43525 4.809 0.438413 -0.261754 0.745353 -1 8.73388 -0.632374 1.71995 -0.582432 0.0504241 0.811314
-1.66 -12.3445 13.6494 0.337317 -0.157812 0 -0.213366 8.74091 -0.547249 0.254366 0.0749592 0.965726 0.248506
-8.982 -2.2765 6.4235 0.0985167 0.184938 0 -0.866667 8.84678 0.225585 3.05737 0.208589 0.693139 -0.689962
-1.81662 -4.56588 5.56887 0.41354 -0.276515 0.340609 -1 8.84991 -0.672701 1.71995 -0.783066 0.239221 0.574091
-6.11369 -4.90406 2.41894 0.0869857 0.23215 0 -1 8.85514 0.106526 2.29364 -0.720725 0.693096 -0.0131379
-9.14338 -2.21881 10.6134 0.047993 0.147305 0 -0.866667 8.86054 -0.594547 3.05737 0.525658 0.686227 0.502768
-4.66625 -11.0845 16.892 0.400423 -0.0541314 0 0.924591 9.02638 -0.999824 5.78664 0.873862 0.373752 -0.310925
-3.354 -12.5258 15.707 0.242015 -0.122589 0 0.844444 9.03825 -0.99985 6.10777 0.334248 0.942454 0.00765007
-4.98606 -4.13831 2.75444 0.0453553 -0.229048 0 -1 9.05119 -0.448578 2.29364 -0.707196 0.630495 0.319921
-8.9555 -3.102 5.67 -0.219211 0.160254 -0.300687 -0.821164 9.11137 -0.278896 2.29364 0.401153 0.74822 -0.528435
-0.47025 -1.53 9.122 -0.106855 -0.209748 -0.47734 -0.0888889 9.12089 0.17356 3.55877 -0.559631 0.807507 -0.186402
-0.977813 -1.33644 11.9819 0.0576827 -0.167876 0 -0.155669 9.16626 -0.143982 3.55877 -0.0664935 0.980925 -0.18266
-0.359 -11.5591 12.3024 0.46941 -0.200539 0 0.0556884 9.21189 -0.631845 0.254366 -0.345776 0.698796 0.626197
-9.42325 -2.72775 11.9522 -0.069941 0.129145 0 -0.779522 9.22767 -0.999869 3.28894 0.61736 0.784708 -0.0556738
-0.02625 -10.5835 11.7972 0.48142 -0.212309 0 0.844444 9.23245 -0.487368 0.254366 -0.321326 0.311059 0.894423
-3.23534 -8.48941 17.304 0.459237 -0.174056 0 1 9.32615 -0.219011 5.31926 0.0843109 -0.374124 -0.923538
-9.39925 -0.69575 8.29525 0.0114345 0.122657 0 -0.866667 9.3738 0.0238771 3.05737 0.516402 0.75225 -0.409204
-0.949313 -4.12856 7.11919 0.359443 -0.286461 0 -0.584002 9.39381 -0.611672 1.71995 -0.913709 0.35722 0.193727
-0.426 -1.17206 10.6077 -0.082501 -0.187011 0 -0.0888889 9.45115 0.701762 3.55877 -0.363504 0.925447 -0.106831
-8.49575 -2.5645 12.975 -0.0942213 0.198115 -0.18369 -0.368789 9.45199 -0.54535 3.28894 0.186533 0.919786 -0.345252
-0.620125 -2.47038 8.16737 0.103473 -0.257865 -0.60344 -0.38732 9.50014 -0.131727 3.55877 -0.933496 0.310793 -0.178866
-7.01625 -5.99675 3.2625 0.0142378 0.275479 -0.13483 -0.961342 9.51644 -0.678956 2.29364 -0.752426 0.433991 -0.495487
0.031 -7.35913 13.8882 0.636333 -0.246691 0.318217 -0.960587 9.53305 -0.484615 4.3775 -0.612271 -0.790601 0.00867966
-0.595 -12.0105 13.363 0.571243 -0.190049 0 -0.777778 9.55333 -0.55804 0.254366 -0.371538 0.892576 0.255475
-2.44412 -12.6461 15.2684 0.373663 -0.142671 0.245125 -0.124628 9.59538 -0.577566 6.10777 0.108394 0.994106 0.00173444
-9.65375 -0.18225 9.868 -0.0384657 0.0246544 0 -0.866667 9.62355 0.035881 3.05737 0.944339 0.32223 0.066263
1.0125 -9.58212 11.8576 0.541577 -0.218576 0 0.844444 9.62597 -0.999884 0.254366 -0.547629 -0.0482876 0.835327
-3.79075 -10.2222 18.0065 0.518913 -0.125294 0 1 9.66537 -0.999869 5.31926 0.409482 -0.0532152 -0.910765
-1.30838 -7.12044 15.2753 0.716963 -0.240316 0.477581 -0.777778 9.66831 -0.300777 4.3775 -0.452784 -0.683757 -0.572243
-9.64669 -1.105 10.3852 -0.036121 0.0634915 0 -0.866667 9.67584 -0.146609 3.05737 0.861516 0.199114 0.467058
-8.94312 -4.58262 4.06213 -0.560117 0.140318 -0.0572364 -0.777778 9.69563 0.0691205 2.29364 0.560501 0.160938 -0.812366
-5.90675 -2.65587 14.3011 -0.117535 0.207336 0 -0.2 9.70144 -0.7564 3.28894 0.000315313 0.991663 -0.12886
-7.96863 -6.67513 3.78638 -0.661683 0.249482 -0.306906 -0.777778 9.79344 -0.999901 2.29364 -0.299107 0.692448 -0.656544
-4.765 -2.518 14.248 -0.200502 0.239163 0 -0.2 9.7955 -0.84256 3.28894 -0.364464 0.919285 -0.148599
-10.148 -1.38462 7.12813 0.016896 0.161423 0 -0.866667 9.79569 -0.219836 3.05737 0.229914 0.611414 -0.757174
-3.69738 -1.33834 13.9881 0.059151 -0.241039 0.407209 0.4 9.80626 -0.414425 3.55877 -0.730711 0.470451 -0.494709
-4.05363 -3.21913 3.93375 0.0999057 -0.242877 0 -1 9.84946 0.525863 1.71995 -0.710511 0.29783 0.637551
-0.731875 -12.3286 14.3022 0.31214 -0.177371 0 -0.777778 9.87573 -0.760783 0.254366 -0.356289 0.916199 0.183404
-7.47087 -2.52638 13.4104 -0.0864843 0.197169 0 -0.2 9.87917 -0.109034 3.28894 0.181217 0.970668 -0.157999
-1.40675 -8.23525 16.089 0.725003 -0.217676 0.431927 -0.777778 9.92188 0.999761 4.84302 -0.400395 -0.658658 -0.637066
-1.63806 -0.748062 12.9071 0.207123 -0.162051 0 0.0257813 9.92476 0.00689755 3.55877 -0.00624998 0.683988 -0.729466
-3.12075 -3.278 4.64725 0.334693 -0.244632 0 -1 9.94122 0.461773 1.71995 -0.612575 0.0962018 0.784536
-9.886 -2.553 5.83125 -0.130164 0.16459 0 -0.84122 9.96232 -0.205416 3.05737 0.231542 0.833637 -0.501436
-9.01975 -6.191 4.01325 -0.53754 0.19136 0 -0.777778 9.97349 -0.871548 2.29364 0.243692 0.223039 -0.943858
-6.46925 -5.10881 1.25181 -0.019668 -0.208468 0 -0.880138 10.0923 -0.259342 2.29364 -0.779521 0.411465 0.472275
1.14525 -8.562 12.9073 0.701093 -0.228231 0.394016 -1 10.154 -0.868068 4.3775 -0.669011 -0.647723 0.364526
-3.116 -12.246 16.7978 0.290008 -0.123388 0 0.844444 10.1892 -0.684144 6.10777 0.255258 0.896528 -0.36205
-1.70119 -8.70938 17.1994 0.389983 -0.194759 -0.101352 -0.270878 10.2269 -0.548145 4.84302 -0.367204 -0.522871 -0.769264
-3.862 -11.6217 17.6195 0.456137 -0.112487 0 0.844444 10.2366 -0.999908 5.78664 0.410813 0.59085 -0.694355
-4.561 -3.0465 2.529 0.146464 -0.216226 0.0175719 -1 10.2443 0.268546 2.29364 -0.805122 0.509933 0.302898
-1.476 -3.1625 5.95813 0.62033 -0.245632 0.397828 -1 10.3456 0.0432137 1.71995 -0.693237 0.143144 0.706351
-5.76875 -4.03025 1.206 -0.335113 -0.192385 0.547276 -1 10.3893 -0.502144 2.29364 -0.659128 0.428587 0.617951
-10.237 -1.322 11.2058 -0.214441 0.0400263 -0.238289 -0.866667 10.3939 -0.926325 3.05737 0.927756 0.180387 0.326696
0.863875 -10.9526 12.4683 0.536653 -0.201188 0 -0.405929 10.4067 -0.802259 0.254366 -0.584743 0.680737 0.441217
-9.5915 -3.258 3.9775 -0.310933 0.0606811 -0.124325 -0.777778 10.4111 0.126382 2.29364 0.845598 0.469669 -0.25372
-0.7125 -3.14287 6.77037 0.40072 -0.256338 0 -1 10.4659 -0.786713 1.71995 -0.909629 0.176453 0.376085
-10.1615 0.4705 8.58675 -0.04119 0.0410528 0 -0.866667 10.5191 -0.215396 3.05737 0.911713 0.337515 -0.234228
-7.35575 -6.70587 2.56169 -0.151647 0.243619 0 -0.485396 10.5696 -0.712272 2.29364 -0.706322 0.699094 -0.111252
-9.96212 0.7785 9.82487 -0.0460157 -0.026658 0 -0.866667 10.6335 -0.429738 3.05737 0.984476 0.0508648 -0.167988
-1.08025 -12.5326 15.4539 0.558363 -0.161746 -0.201973 -0.583904 10.6456 -0.999834 0.254366 -0.267539 0.945742 -0.184376
0.656875 -0.954625 11.0969 0.257629 -0.152675 0 -0.0888889 10.6591 0.407777 3.55877 -0.172353 0.969797 0.17259
0.35525 -11.5347 13.7522 0.667707 -0.19139 0 -0.777778 10.6851 -0.291285 0.254366 -0.562823 0.806709 0.18014
-9.30481 -1.76231 13.5004 -0.51173 0.11979 -0.615631 -0.777778 10.7066 -0.45824 3.28894 0.595097 0.508562 -0.622273
-0.27 -0.883 13.3573 0.187824 -0.0976469 0 -0.2 10.7782 -0.074031 3.55877 0.52276 0.654727 -0.545943
-2.68175 -10.0616 18.0147 0.35608 -0.166025 -0.163447 0.805938 10.786 -0.999815 5.31926 -0.147886 -0.169386 -0.974391
-5.19125 -3.15313 1.31638 -0.263014 -0.18323 0 -0.777778 10.8064 -0.201481 2.29364 -0.612573 0.506803 0.606552
-10.4152 -2.56775 4.9595 -0.10965 0.120044 -0.00293626 -0.85504 10.8205 -0.197551 3.05737 0.427255 0.881527 0.200905
0.94725 -0.8885 9.82619 0.196768 -0.149675 0.025898 -0.0888889 10.8287 0.0536257 3.55877 -0.162998 0.986589 -0.00857057
-0.030375 -1.28225 7.4885 0.122921 -0.188574 0.00467234 -0.980047 10.8306 0.180699 3.55877 -0.531229 0.845946 0.0465979
-2.90569 0.68025 13.7451 0.049932 -0.174214 0 0.4 10.8518 0.0684272 3.55877 -0.312653 0.115108 -0.942867
-7.06962 -2.47638 14.4404 -0.0257032 0.162493 0.0962312 -0.376944 10.8863 -0.731081 3.28894 0.328211 0.848099 -0.415938
-10.5411 0.020375 7.60388 -0.0416343 0.120398 0 -0.866667 10.8886 0.287834 3.05737 0.449597 0.384052 -0.806453
-1.62603 -12.0646 16.4171 0.82776 -0.161134 0 -0.155556 10.9625 -0.320341 6.10777 -0.241147 0.799142 -0.550654
-3.2065 -2.32675 4.27975 0.130018 -0.222188 0 -1 10.9646 0.539275 1.71995 -0.661631 0.374437 0.649648
-11.189 -0.84225 7.053 -0.0315099 0.161044 0 -0.866667 10.9719 0.617094 3.05737 0.0537119 0.434125 -0.89925
-10.1517 -1.443 12.8884 -0.57693 -0.0638196 -0.0908054 -0.810518 10.9763 -0.920442 3.28894 0.884903 0.208359 -0.416574
-5.15737 -2.20863 15.3814 -0.0770677 -0.207603 -0.423582 0.4 11.0341 -0.999859 3.28894 -0.285748 0.688131 -0.666951
-1.22113 0.0809375 13.5485 0.0400333 -0.125084 0 0.4 11.0528 -0.0746796 3.55877 0.27894 0.353428 -0.892906
-3.83075 -0.304 14.6757 -0.026281 -0.207288 -0.0434052 0.446411 11.0554 -0.560929 3.55877 -0.607594 -0.0369576 -0.793388
0.243813 -11.8969 14.8194 0.741507 -0.182824 0 -0.777778 11.0614 -0.780262 0.254366 -0.612517 0.78779 -0.0648907
-8.796 -7.136 2.874 -0.135071 0.188919 -0.000741121 -0.36136 11.1085 -0.830724 2.29364 -0.102779 0.977726 -0.182997
1.891 -9.97425 13.0087 0.663363 -0.214335 0 -0.795671 11.1262 -0.999902 0.254366 -0.975146 0.0577273 0.213912
-9.66475 -6.88675 3.34425 -0.183105 0.151248 0 -0.415662 11.1344 -0.846726 2.29364 0.304819 0.803747 -0.510956
-9.76156 0.291438 11.3061 -0.0964303 -0.0595569 0 0.4 11.1415 -0.15531 3.05737 0.936059 -0.348835 -0.0459032
-0.464 -8.9755 16.604 0.345343 -0.188655 -0.748025 -0.777778 11.2265 -0.275687 4.84302 -0.386586 -0.387961 -0.836683
-2.77225 -11.4105 17.805 0.318332 -0.157407 -0.902352 -0.0792444 11.2433 -0.999855 5.78664 -0.18764 0.469214 -0.862919
0.721 -1.61625 13.153 0.124071 0.086418 0 -0.2 11.2485 -0.13008 3.55877 0.550536 0.834086 0.034786
1.37888 -0.50825 8.64587 0.109163 -0.12851 0.781538 -0.0888889 11.2865 0.999862 3.55877 0.0043209 0.99807 -0.0619493
-10.316 -5.06875 3.35775 -0.325391 0.113798 0 -0.809818 11.3134 -0.68097 2.29364 0.673115 -0.274309 -0.686783
3 177 120 165
3 145 182 127
3 145 127 86
3 86 127 98
3 99 141 108
3 108 120 88
3 120 153 113
3 88 113 86
3 113 145 86
3 86 98 56
3 86 56 88
3 98 70 56
3 35 49 80
3 105 70 98
3 140 105 136
3 105 98 127
3 136 105 167
3 127 167 105
3 167 127 182
3 115 61 119
3 119 61 104
3 119 104 147
3 104 61 69
3 104 69 101
3 147 104 101
3 26 53 58
3 88 58 53
3 53 78 88
3 26 58 44
3 44 56 31
3 12 31 35
3 12 28 34
3 28 35 46
3 46 59 110
3 59 94 110
3 94 59 80
3 144 94 142
3 80 130 149
3 140 136 194
3 169 194 136
3 147 152 184
3 111 161 152
3 92 74 48
3 48 21 47
3 21 8 7
3 8 21 18
3 18 21 33
3 10 26 12
3 12 34 25
3 83 43 103
3 34 46 52
3 87 52 82
3 46 34 28
3 72 110 106
3 149 181 142
3 103 128 92
3 92 79 83
3 79 47 89
3 79 89 83
3 21 7 23
3 13 12 25
3 25 41 15
3 83 77 43
3 77 84 71
3 71 84 75
3 89 60 77
3 84 51 75
3 22 9 19
3 36 24 22
3 24 9 22
3 7 17 23
3 0 5 3
3 9 5 11
3 11 19 9
3 1 14 5
3 11 5 14
3 30 41 63
3 41 71 76
3 76 63 41
3 133 109 156
3 91 156 109
3 125 91 90
3 91 75 51
3 11 27 20
3 14 29 27
3 30 63 57
3 57 63 102
3 102 139 93
3 93 57 102
3 93 150 158
3 126 93 158
3 158 150 195
3 97 90 42
3 97 42 67
3 112 67 65
3 65 32 40
3 65 73 100
3 64 73 38
3 40 38 73
3 38 29 54
3 29 55 66
3 29 30 55
3 57 55 30
3 29 66 85
3 29 85 54
3 138 126 175
3 148 190 172
3 148 172 134
3 95 73 64
3 64 85 117
3 87 121 131
3 131 121 179
3 121 178 198
3 122 129 82
3 82 107 122
3 151 122 107
3 151 107 106
3 151 180 188
3 180 146 189
3 171 178 129
3 122 174 197
3 115 155 168
3 177 153 120
3 141 154 199
3 154 141 99
3 61 99 53
3 53 99 78
3 99 108 78
3 88 78 108
3 88 120 113
3 31 49 35
3 49 31 70
3 56 70 31
3 80 49 70
3 116 80 70
3 116 105 140
3 116 70 105
3 136 167 169
3 155 115 162
3 168 191 143
3 143 193 154
3 193 143 191
3 132 143 99
3 99 143 154
3 132 168 143
3 115 168 132
3 101 69 68
3 68 69 45
3 18 33 26
3 61 45 69
3 45 61 21
3 21 61 33
3 26 33 53
3 53 33 61
3 12 26 31
3 31 26 44
3 144 110 94
3 163 116 140
3 194 163 140
3 161 184 152
3 92 114 74
3 74 114 111
3 111 114 161
3 48 74 39
3 39 74 68
3 39 68 45
3 68 74 101
3 111 101 74
3 48 39 21
3 45 21 39
3 21 23 47
3 7 8 2
3 8 18 10
3 4 0 2
3 4 2 10
3 8 10 2
3 10 12 4
3 25 34 43
3 87 103 52
3 52 43 34
3 43 52 103
3 82 52 72
3 82 72 107
3 72 52 46
3 106 107 72
3 146 106 110
3 144 146 110
3 187 146 144
3 187 144 142
3 142 181 187
3 116 163 124
3 116 124 80
3 80 124 130
3 130 124 173
3 186 173 124
3 128 166 161
3 114 92 128
3 114 128 161
3 62 89 47
3 60 89 62
3 60 62 36
3 37 36 62
3 37 62 47
3 37 47 23
3 24 36 37
3 17 24 23
3 23 24 37
3 7 2 3
3 3 2 0
3 1 0 6
3 6 0 4
3 6 4 13
3 12 13 4
3 13 15 6
3 41 25 50
3 41 50 71
3 43 77 50
3 43 50 25
3 50 77 71
3 51 84 60
3 51 60 36
3 60 84 77
3 17 9 24
3 9 17 7
3 9 7 3
3 9 3 5
3 6 14 1
3 14 6 16
3 16 6 15
3 16 15 30
3 76 71 109
3 102 133 139
3 76 133 102
3 133 76 109
3 137 156 91
3 137 91 125
3 51 90 91
3 51 42 90
3 19 32 42
3 32 19 11
3 32 11 20
3 38 40 20
3 38 20 27
3 38 27 29
3 16 29 14
3 30 29 16
3 102 63 76
3 57 93 55
3 55 93 81
3 55 81 66
3 93 126 96
3 93 96 81
3 81 96 66
3 164 192 137
3 192 156 137
3 125 164 137
3 134 172 164
3 134 164 123
3 123 164 125
3 97 134 123
3 97 123 90
3 90 123 125
3 134 97 112
3 67 112 97
3 32 65 67
3 32 67 42
3 20 40 32
3 126 85 96
3 96 85 66
3 117 159 157
3 159 117 138
3 126 138 85
3 85 138 117
3 175 196 138
3 138 196 159
3 157 159 196
3 157 196 183
3 158 175 126
3 112 148 134
3 183 170 135
3 135 170 112
3 135 112 100
3 112 170 148
3 183 118 157
3 118 135 100
3 135 118 183
3 95 157 118
3 95 118 73
3 73 118 100
3 117 157 95
3 64 117 95
3 170 190 148
3 131 166 128
3 131 128 103
3 131 103 87
3 198 179 121
3 129 178 121
3 188 174 151
3 151 174 122
3 162 115 119
3 162 119 176
3 176 119 160
3 185 182 145
3 108 165 120
3 108 141 165
3 153 145 113
3 61 115 99
3 132 99 115
3 58 88 56
3 58 56 44
3 35 28 12
3 80 59 35
3 46 35 59
3 94 80 149
3 160 119 147
3 101 111 147
3 152 147 111
3 18 26 10
3 110 72 46
3 149 142 94
3 92 48 79
3 47 79 48
3 13 25 15
3 89 77 83
3 103 92 83
3 121 87 129
3 129 87 82
3 146 180 106
3 151 106 180
3 1 5 0
3 15 41 30
3 75 109 71
3 75 91 109
3 51 19 42
3 11 14 27
3 139 150 93
3 40 73 65
3 65 100 112
3 38 54 64
3 64 54 85
3 171 129 122
3 51 36 22
3 51 22 19
