ply
format ascii 1.0
comment Generated by PyMesh
element vertex 155
property float x
property float y
property float z
property float nx
property float ny
property float nz
element face 284
property list uchar int vertex_indices
end_header
-1.91937 -6.21275 14.6142 -0.314087 -0.892927 -0.322539
-1.30838 -7.12044 15.2753 -0.452784 -0.683757 -0.572243
-1.52013 -6.21325 13.1946 -0.53448 -0.837967 0.110193
-2.78744 -5.99862 13.4154 -0.0566234 -0.97951 -0.193273
-3.731 -6.37675 15.2506 0.146035 -0.903592 -0.402736
-2.83406 -7.02481 16.3614 -0.213924 -0.73017 -0.648913
0.031 -7.35913 13.8882 -0.612271 -0.790601 0.00867966
-2.68963 -5.70463 12.3524 -0.260663 -0.948494 -0.180039
-1.40675 -8.23525 16.089 -0.400395 -0.658658 -0.637066
-1.7585 -6.495 11.9974 -0.875271 -0.44215 0.195971
-0.950875 -7.54581 12.4346 -0.632297 -0.545991 0.549632
-4.87 -7.05025 15.4299 0.602014 -0.722362 -0.340253
-4.83238 -6.22475 14.045 0.337459 -0.863933 -0.373821
0.717875 -8.19975 15.5052 -0.62321 -0.649262 -0.435968
-4.4885 -6.99975 16.5465 0.437605 -0.720127 -0.538441
-2.011 -5.875 11.0615 -0.733903 -0.671001 -0.105567
-1.70119 -8.70938 17.1994 -0.367204 -0.522871 -0.769264
-3.23534 -8.48941 17.304 0.0843109 -0.374124 -0.923538
-0.464 -8.9755 16.604 -0.386586 -0.387961 -0.836683
-4.30062 -7.94225 17.1379 0.324397 -0.263037 -0.908613
1.14525 -8.562 12.9073 -0.669011 -0.647723 0.364526
-3.67925 -5.23994 10.9784 -0.0577555 -0.859388 -0.508052
-1.90625 -6.818 10.2917 -0.962724 -0.18519 0.197148
-5.04875 -7.88225 16.3645 0.850945 -0.254382 -0.459545
-1.463 -8.376 11.3333 -0.806276 -0.255371 0.533577
0.859375 -9.032 16.0446 -0.710914 -0.271388 -0.648807
-5.725 -6.1115 13.164 0.778413 -0.53643 -0.326062
-1.71375 -7.84975 10.351 -0.959066 -0.0283712 0.281756
-0.571625 -9.07475 11.6154 -0.446835 -0.276825 0.850709
-5.70131 -7.94219 14.2342 0.924738 -0.100025 -0.367226
1.367 -8.79813 14.2028 -0.938835 -0.300511 -0.168172
-5.308 -5.77575 12.31 0.323934 -0.933786 -0.152023
1.30375 -9.7405 15.091 -0.953067 -0.0709761 -0.294322
-1.69675 -10.2355 17.6903 -0.451623 0.102526 -0.886298
-2.61469 -4.94441 9.86416 -0.775368 -0.219062 -0.592297
-4.86794 -9.33075 16.6371 0.851016 0.0549026 -0.522261
-4.92338 -5.55363 11.0901 0.467586 -0.821285 -0.326885
0.578125 -10.3691 16.4349 -0.656737 0.0802966 -0.749832
-2.68175 -10.0616 18.0147 -0.147886 -0.169386 -0.974391
-1.88644 -9.22363 10.6494 -0.616614 0.425512 0.662365
1.0125 -9.58212 11.8576 -0.547629 -0.0482876 0.835327
-3.79075 -10.2222 18.0065 0.409482 -0.0532152 -0.910765
1.891 -9.97425 13.0087 -0.975146 0.0577273 0.213912
-2.13225 -8.094 9.39625 -0.947777 0.184363 0.260248
-2.309 -6.189 8.945 -0.990824 0.123307 -0.0553434
1.146 -10.677 15.4235 -0.849498 0.391589 -0.353568
-2.18438 -7.15963 8.50113 -0.97819 -0.0684411 0.19611
-6.14825 -6.61194 11.79 0.929507 -0.355159 -0.0993885
-0.125625 -11.4201 16.4508 -0.505807 0.513905 -0.692864
-3.67 -3.37725 10.0363 0.0528347 0.22804 -0.972217
-0.02625 -10.5835 11.7972 -0.321326 0.311059 0.894423
-1.33125 -10.4866 11.3071 -0.287108 0.373615 0.882032
-6.14838 -8.3445 12.8004 0.998638 0.0306221 -0.0422442
-5.26237 -9.369 14.8328 0.932581 0.232313 -0.276268
1.3825 -10.685 14.0083 -0.884948 0.461274 -0.0639818
-5.271 -4.34734 9.45378 0.716884 -0.165769 -0.677199
-6.0635 -9.55275 13.222 0.961183 0.228341 -0.154877
-2.77225 -11.4105 17.805 -0.18764 0.469214 -0.862919
-2.77375 -9.09387 9.28175 -0.625672 0.758327 0.182961
0.863875 -10.9526 12.4683 -0.584743 0.680737 0.441217
-3.862 -11.6217 17.6195 0.410813 0.59085 -0.694355
-2.3525 -6.17938 7.56938 -0.928894 0.314033 0.196315
-4.66625 -11.0845 16.892 0.873862 0.373752 -0.310925
-2.162 -8.0945 7.9165 -0.909633 0.295624 0.291845
-5.41463 -10.342 13.8094 0.814785 0.508942 -0.277674
-6.17556 -5.75075 9.81419 0.879245 -0.409227 -0.243849
-6.10838 -7.2915 10.8197 0.978062 0.207388 -0.01962
-3.648 -2.5685 10.791 0.0512143 0.888126 -0.456737
-4.73887 -2.95038 10.0363 0.215907 0.495566 -0.841308
-2.55194 -2.87169 10.2829 -0.412992 0.578452 -0.703442
-0.359 -11.5591 12.3024 -0.345776 0.698796 0.626197
-4.8805 -10.495 14.9487 0.932964 0.341581 -0.11358
-3.57711 -9.55381 9.77205 -0.197054 0.922204 0.33273
-1.62603 -12.0646 16.4171 -0.241147 0.799142 -0.550654
-1.03 -3.787 8.5425 -0.841293 0.29785 -0.451123
0.243813 -11.8969 14.8194 -0.612517 0.78779 -0.0648907
-2.81013 -7.37475 7.02338 -0.632572 0.310152 0.709689
0.35525 -11.5347 13.7522 -0.562823 0.806709 0.18014
-1.37625 -11.8694 12.1976 -0.0962332 0.842831 0.529505
-1.08025 -12.5326 15.4539 -0.267539 0.945742 -0.184376
-3.302 -11.1471 11.4605 -0.0613465 0.694598 0.716778
-6.27887 -7.16625 9.82987 0.968248 0.150609 -0.199533
-4.34269 -10.1756 10.3532 0.0574804 0.76062 0.646648
-1.69987 -5.249 6.81862 -0.818807 0.560268 0.125122
-3.04312 -9.22025 8.00725 -0.450346 0.747347 0.488529
-3.116 -12.246 16.7978 0.255258 0.896528 -0.36205
-4.754 -10.953 13.301 0.543967 0.839005 -0.01308
-3.82663 -9.5445 8.57913 -0.0289599 0.975135 0.219709
-5.65947 -10.4865 12.0315 0.739189 0.670298 0.0655765
-5.61875 -4.25737 7.6965 0.978629 0.118664 -0.167943
-4.7185 -11.2759 15.6766 0.793706 0.608294 -0.00312074
-6.351 -2.99425 8.68025 0.659098 0.746601 -0.0904267
-3.47725 -2.18625 11.8475 -0.3464 0.841313 -0.414969
-6.2445 -5.67425 8.35825 0.940384 -0.316391 0.124801
-5.82725 -2.50425 9.9965 0.185066 0.85031 -0.49267
-5.77 -8.44 10.563 0.951713 0.306736 0.0124313
-2.88225 -6.48225 6.32975 -0.654714 0.679947 0.330186
-0.595 -12.0105 13.363 -0.371538 0.892576 0.255475
-5.6675 -9.7635 11.0267 0.829797 0.432144 0.353113
-1.991 -1.967 11.037 -0.456314 0.833743 -0.310886
-1.62925 -2.0845 9.506 -0.672234 0.587866 -0.450016
-4.07681 -11.5229 14.4209 0.611204 0.778348 0.143542
-0.731875 -12.3286 14.3022 -0.356289 0.916199 0.183404
-2.44412 -12.6461 15.2684 0.108394 0.994106 0.00173444
-4.3105 -11.2565 11.5763 0.336622 0.872277 0.354709
-0.620125 -2.47038 8.16737 -0.933496 0.310793 -0.178866
-2.527 -11.704 12.3365 0.176489 0.927301 0.330096
-0.949313 -4.12856 7.11919 -0.913709 0.35722 0.193727
-6.60156 -7.33588 8.79594 0.994857 0.0992303 0.0203263
-5.27969 -9.23044 9.6165 0.552825 0.793218 0.255323
-3.354 -12.5258 15.707 0.334248 0.942454 0.00765007
-1.66 -12.3445 13.6494 0.0749592 0.965726 0.248506
-6.14975 -8.38775 9.2365 0.864514 0.496605 -0.0774548
-3.58612 -11.5753 13.3752 0.367699 0.920854 0.129709
-4.2395 -8.5735 7.08169 0.129076 0.635443 0.761282
-5.05225 -9.12525 8.24525 0.439157 0.814084 0.380011
-5.79563 -5.69025 7.32412 0.957859 0.0303151 0.285636
-1.81662 -4.56588 5.56887 -0.783066 0.239221 0.574091
-6.951 -2.5145 9.9525 0.21621 0.976343 0.00262576
-4.69228 -7.21006 6.58134 0.412367 0.69768 0.585829
-3.15875 -1.42963 12.8542 -0.499533 0.666475 -0.553423
-2.33325 -1.6125 12.1005 -0.27871 0.82363 -0.493918
-6.187 -2.8705 7.317 0.76518 0.638045 -0.0860097
-3.716 -6.85975 5.448 -0.263335 0.865654 0.425791
-2.69287 -5.83144 5.22319 -0.654214 0.459018 0.601088
-7.16125 -2.234 7.76575 0.557123 0.812604 -0.171138
-4.69075 -2.53175 13.1115 -0.350228 0.931539 -0.0978508
-6.2165 -2.099 11.352 -0.0671779 0.99727 0.0306544
-6.22325 -6.96025 7.58225 0.827747 0.0783912 0.555599
-0.47025 -1.53 9.122 -0.559631 0.807507 -0.186402
-0.7125 -3.14287 6.77037 -0.909629 0.176453 0.376085
-0.977813 -1.33644 11.9819 -0.0664935 0.980925 -0.18266
-6.109 -8.09013 8.2005 0.704026 0.548252 0.451407
-6.4485 -3.06988 6.36562 0.581447 0.599726 -0.549771
-2.7135 -12.04 14.0715 0.366581 0.883477 0.291696
-6.111 -5.624 6.089 0.902457 0.418943 -0.100291
-0.426 -1.17206 10.6077 -0.363504 0.925447 -0.106831
-0.030375 -1.28225 7.4885 -0.531229 0.845946 0.0465979
-8.08497 -1.88934 9.36447 0.524179 0.786561 0.326433
-6.624 -4.5115 5.5635 0.517749 0.639978 -0.567772
-1.476 -3.1625 5.95813 -0.693237 0.143144 0.706351
-2.817 -4.43525 4.809 -0.582432 0.0504241 0.811314
-7.99203 -2.64528 11.2072 -0.0144315 0.992396 0.122235
-5.72906 -2.47112 12.6509 -0.0788777 0.986902 0.140719
-4.765 -2.518 14.248 -0.364464 0.919285 -0.148599
-3.69738 -1.33834 13.9881 -0.730711 0.470451 -0.494709
-0.945625 -1.96769 6.20687 -0.792355 0.33976 0.506693
-8.17025 -1.88312 7.04 0.329029 0.739171 -0.587679
-1.63806 -0.748062 12.9071 -0.00624998 0.683988 -0.729466
-4.09312 -6.05037 4.4095 -0.137521 0.544987 0.827089
-5.07044 -6.35375 5.00331 0.358455 0.754102 0.55031
-8.26437 -1.01525 8.31125 0.555904 0.831173 -0.0110874
-7.69875 -3.17213 5.98338 0.299425 0.616534 -0.728169
-3.95025 -4.98125 4.1915 -0.364018 0.223478 0.904184
0.656875 -0.954625 11.0969 -0.172353 0.969797 0.17259
3 147 151 125
3 147 125 152
3 151 138 125
3 94 118 142
3 89 139 133
3 152 133 139
3 89 133 122
3 122 125 91
3 55 91 94
3 55 68 49
3 68 94 67
3 67 127 126
3 127 143 126
3 143 127 142
3 83 124 96
3 96 119 76
3 119 128 132
3 128 119 116
3 116 119 135
3 93 89 55
3 55 49 21
3 44 34 74
3 49 67 69
3 100 69 99
3 67 49 68
3 92 126 120
3 74 107 83
3 83 61 44
3 61 76 46
3 61 46 44
3 119 132 114
3 36 55 21
3 21 7 31
3 44 22 34
3 22 27 9
3 9 27 24
3 46 43 22
3 27 39 24
3 72 109 82
3 58 87 72
3 87 109 72
3 132 115 114
3 81 95 112
3 109 95 98
3 98 82 109
3 66 52 95
3 98 95 52
3 12 7 3
3 7 9 2
3 2 3 7
3 6 10 20
3 28 20 10
3 50 28 51
3 28 24 39
3 98 56 88
3 52 29 56
3 12 3 4
3 4 3 0
3 0 1 5
3 5 4 0
3 5 8 16
3 17 5 16
3 16 8 18
3 54 59 77
3 78 51 80
3 78 80 106
3 111 106 113
3 113 104 86
3 113 101 134
3 71 101 64
3 86 64 101
3 64 29 53
3 29 11 23
3 29 12 11
3 4 11 12
3 29 23 35
3 29 35 53
3 41 17 38
3 33 18 48
3 33 48 73
3 30 54 32
3 102 75 77
3 102 77 97
3 90 101 71
3 71 35 62
3 146 105 137
3 100 129 105
3 105 129 137
3 131 136 99
3 99 121 131
3 148 131 121
3 148 121 120
3 91 118 94
3 118 91 138
3 125 138 91
3 142 118 138
3 116 135 89
3 89 135 139
3 55 89 91
3 91 89 122
3 144 126 143
3 83 117 124
3 124 117 141
3 141 117 140
3 96 124 123
3 123 124 149
3 123 149 150
3 149 124 153
3 141 153 124
3 96 123 119
3 150 119 123
3 119 114 76
3 132 128 108
3 128 116 93
3 65 81 108
3 65 108 93
3 128 93 108
3 93 55 65
3 21 49 34
3 100 74 69
3 69 34 49
3 34 69 74
3 99 69 92
3 99 92 121
3 92 69 67
3 120 121 92
3 145 120 126
3 144 145 126
3 130 146 140
3 107 130 140
3 117 83 107
3 117 107 140
3 63 46 76
3 43 46 63
3 43 63 58
3 84 58 63
3 84 63 76
3 84 76 114
3 87 58 84
3 115 87 114
3 114 87 84
3 132 108 112
3 112 108 81
3 66 81 47
3 47 81 65
3 47 65 36
3 55 36 65
3 36 31 47
3 7 21 15
3 7 15 9
3 34 22 15
3 34 15 21
3 15 22 9
3 39 27 43
3 39 43 58
3 43 27 22
3 115 109 87
3 109 115 132
3 109 132 112
3 109 112 95
3 47 52 66
3 52 47 26
3 26 47 31
3 26 31 12
3 2 9 10
3 0 6 1
3 2 6 0
3 6 2 10
3 40 20 28
3 40 28 50
3 39 51 28
3 39 80 51
3 82 104 80
3 104 82 98
3 104 98 88
3 64 86 88
3 64 88 56
3 64 56 29
3 26 29 52
3 12 29 26
3 0 3 2
3 4 5 11
3 11 5 14
3 11 14 23
3 5 17 19
3 5 19 14
3 14 19 23
3 25 13 32
3 13 25 18
3 13 18 8
3 30 32 13
3 30 13 20
3 20 13 6
3 6 13 1
3 1 13 8
3 54 42 59
3 59 42 40
3 42 20 40
3 50 59 40
3 30 20 42
3 30 42 54
3 97 77 59
3 97 59 70
3 70 59 50
3 78 97 70
3 78 70 51
3 51 70 50
3 97 78 111
3 106 111 78
3 104 113 106
3 104 106 80
3 88 86 104
3 17 35 19
3 19 35 23
3 62 60 85
3 60 62 41
3 17 41 35
3 35 41 62
3 38 57 41
3 41 57 60
3 85 60 57
3 85 57 73
3 33 57 38
3 18 33 16
3 16 33 38
3 16 38 17
3 37 48 18
3 45 48 37
3 45 37 32
3 32 37 25
3 25 37 18
3 75 48 45
3 75 45 54
3 54 45 32
3 111 102 97
3 73 79 103
3 103 79 111
3 103 111 134
3 111 79 102
3 73 110 85
3 110 103 134
3 103 110 73
3 90 85 110
3 90 110 101
3 101 110 134
3 62 85 90
3 71 62 90
3 79 73 48
3 79 75 102
3 75 79 48
3 105 130 107
3 105 107 74
3 105 74 100
3 146 130 105
3 133 152 125
3 133 125 122
3 94 68 55
3 142 127 94
3 67 94 127
3 116 89 93
3 126 92 67
3 83 96 61
3 76 61 96
3 36 21 31
3 46 22 44
3 74 83 44
3 129 100 136
3 136 100 99
3 66 95 81
3 31 7 12
3 24 10 9
3 24 28 10
3 39 82 80
3 98 52 56
3 1 8 5
3 86 101 113
3 54 77 75
3 113 134 111
3 64 53 71
3 71 53 35
3 33 73 57
3 154 136 131
3 39 58 72
3 39 72 82
