ply
format ascii 1.0
comment Generated by PyMesh
element vertex 115
property float x
property float y
property float z
property float nx
property float ny
property float nz
element face 214
property list uchar int vertex_indices
end_header
1.367 -8.79813 14.2028 -0.938835 -0.300511 -0.168172
1.30375 -9.7405 15.091 -0.953067 -0.0709761 -0.294322
1.14525 -8.562 12.9073 -0.669011 -0.647723 0.364526
0.717875 -8.19975 15.5052 -0.62321 -0.649262 -0.435968
1.891 -9.97425 13.0087 -0.975146 0.0577273 0.213912
1.3825 -10.685 14.0083 -0.884948 0.461274 -0.0639818
1.146 -10.677 15.4235 -0.849498 0.391589 -0.353568
0.859375 -9.032 16.0446 -0.710914 -0.271388 -0.648807
1.0125 -9.58212 11.8576 -0.547629 -0.0482876 0.835327
0.578125 -10.3691 16.4349 -0.656737 0.0802966 -0.749832
0.031 -7.35913 13.8882 -0.612271 -0.790601 0.00867966
0.35525 -11.5347 13.7522 -0.562823 0.806709 0.18014
0.863875 -10.9526 12.4683 -0.584743 0.680737 0.441217
-0.464 -8.9755 16.604 -0.386586 -0.387961 -0.836683
-0.571625 -9.07475 11.6154 -0.446835 -0.276825 0.850709
-0.950875 -7.54581 12.4346 -0.632297 -0.545991 0.549632
0.243813 -11.8969 14.8194 -0.612517 0.78779 -0.0648907
-1.40675 -8.23525 16.089 -0.400395 -0.658658 -0.637066
-1.30838 -7.12044 15.2753 -0.452784 -0.683757 -0.572243
-0.125625 -11.4201 16.4508 -0.505807 0.513905 -0.692864
-0.02625 -10.5835 11.7972 -0.321326 0.311059 0.894423
-0.595 -12.0105 13.363 -0.371538 0.892576 0.255475
-0.359 -11.5591 12.3024 -0.345776 0.698796 0.626197
-0.731875 -12.3286 14.3022 -0.356289 0.916199 0.183404
-1.463 -8.376 11.3333 -0.806276 -0.255371 0.533577
-1.70119 -8.70938 17.1994 -0.367204 -0.522871 -0.769264
-1.7585 -6.495 11.9974 -0.875271 -0.44215 0.195971
-1.91937 -6.21275 14.6142 -0.314087 -0.892927 -0.322539
-1.33125 -10.4866 11.3071 -0.287108 0.373615 0.882032
-1.88644 -9.22363 10.6494 -0.616614 0.425512 0.662365
-1.52013 -6.21325 13.1946 -0.53448 -0.837967 0.110193
-1.08025 -12.5326 15.4539 -0.267539 0.945742 -0.184376
-1.69675 -10.2355 17.6903 -0.451623 0.102526 -0.886298
-1.66 -12.3445 13.6494 0.0749592 0.965726 0.248506
-2.83406 -7.02481 16.3614 -0.213924 -0.73017 -0.648913
-1.37625 -11.8694 12.1976 -0.0962332 0.842831 0.529505
-1.62603 -12.0646 16.4171 -0.241147 0.799142 -0.550654
-1.71375 -7.84975 10.351 -0.959066 -0.0283712 0.281756
-2.011 -5.875 11.0615 -0.733903 -0.671001 -0.105567
-3.23534 -8.48941 17.304 0.0843109 -0.374124 -0.923538
-2.68963 -5.70463 12.3524 -0.260663 -0.948494 -0.180039
-2.68175 -10.0616 18.0147 -0.147886 -0.169386 -0.974391
-2.78744 -5.99862 13.4154 -0.0566234 -0.97951 -0.193273
-2.7135 -12.04 14.0715 0.366581 0.883477 0.291696
-2.44412 -12.6461 15.2684 0.108394 0.994106 0.00173444
-2.77375 -9.09387 9.28175 -0.625672 0.758327 0.182961
-1.90625 -6.818 10.2917 -0.962724 -0.18519 0.197148
-2.13225 -8.094 9.39625 -0.947777 0.184363 0.260248
-2.527 -11.704 12.3365 0.176489 0.927301 0.330096
-2.77225 -11.4105 17.805 -0.18764 0.469214 -0.862919
-3.731 -6.37675 15.2506 0.146035 -0.903592 -0.402736
-3.57711 -9.55381 9.77205 -0.197054 0.922204 0.33273
-3.302 -11.1471 11.4605 -0.0613465 0.694598 0.716778
-3.116 -12.246 16.7978 0.255258 0.896528 -0.36205
-4.4885 -6.99975 16.5465 0.437605 -0.720127 -0.538441
-4.30062 -7.94225 17.1379 0.324397 -0.263037 -0.908613
-3.79075 -10.2222 18.0065 0.409482 -0.0532152 -0.910765
-3.58612 -11.5753 13.3752 0.367699 0.920854 0.129709
-3.354 -12.5258 15.707 0.334248 0.942454 0.00765007
-4.34269 -10.1756 10.3532 0.0574804 0.76062 0.646648
-2.61469 -4.94441 9.86416 -0.775368 -0.219062 -0.592297
-4.87 -7.05025 15.4299 0.602014 -0.722362 -0.340253
-3.67925 -5.23994 10.9784 -0.0577555 -0.859388 -0.508052
-3.04312 -9.22025 8.00725 -0.450346 0.747347 0.488529
-3.862 -11.6217 17.6195 0.410813 0.59085 -0.694355
-3.82663 -9.5445 8.57913 -0.0289599 0.975135 0.219709
-2.18438 -7.15963 8.50113 -0.97819 -0.0684411 0.19611
-4.07681 -11.5229 14.4209 0.611204 0.778348 0.143542
-4.86794 -9.33075 16.6371 0.851016 0.0549026 -0.522261
-4.3105 -11.2565 11.5763 0.336622 0.872277 0.354709
-2.162 -8.0945 7.9165 -0.909633 0.295624 0.291845
-2.309 -6.189 8.945 -0.990824 0.123307 -0.0553434
-5.04875 -7.88225 16.3645 0.850945 -0.254382 -0.459545
-4.83238 -6.22475 14.045 0.337459 -0.863933 -0.373821
-5.27969 -9.23044 9.6165 0.552825 0.793218 0.255323
-4.754 -10.953 13.301 0.543967 0.839005 -0.01308
-5.308 -5.77575 12.31 0.323934 -0.933786 -0.152023
-4.66625 -11.0845 16.892 0.873862 0.373752 -0.310925
-4.92338 -5.55363 11.0901 0.467586 -0.821285 -0.326885
-5.6675 -9.7635 11.0267 0.829797 0.432144 0.353113
-4.7185 -11.2759 15.6766 0.793706 0.608294 -0.00312074
-5.05225 -9.12525 8.24525 0.439157 0.814084 0.380011
-2.3525 -6.17938 7.56938 -0.928894 0.314033 0.196315
-5.70131 -7.94219 14.2342 0.924738 -0.100025 -0.367226
-4.8805 -10.495 14.9487 0.932964 0.341581 -0.11358
-2.81013 -7.37475 7.02338 -0.632572 0.310152 0.709689
-4.2395 -8.5735 7.08169 0.129076 0.635443 0.761282
-3.67 -3.37725 10.0363 0.0528347 0.22804 -0.972217
-5.65947 -10.4865 12.0315 0.739189 0.670298 0.0655765
-5.725 -6.1115 13.164 0.778413 -0.53643 -0.326062
-5.41463 -10.342 13.8094 0.814785 0.508942 -0.277674
-2.55194 -2.87169 10.2829 -0.412992 0.578452 -0.703442
-5.26237 -9.369 14.8328 0.932581 0.232313 -0.276268
-6.14975 -8.38775 9.2365 0.864514 0.496605 -0.0774548
-5.77 -8.44 10.563 0.951713 0.306736 0.0124313
-1.03 -3.787 8.5425 -0.841293 0.29785 -0.451123
-6.14825 -6.61194 11.79 0.929507 -0.355159 -0.0993885
-5.271 -4.34734 9.45378 0.716884 -0.165769 -0.677199
-1.69987 -5.249 6.81862 -0.818807 0.560268 0.125122
-2.88225 -6.48225 6.32975 -0.654714 0.679947 0.330186
-6.109 -8.09013 8.2005 0.704026 0.548252 0.451407
-3.648 -2.5685 10.791 0.0512143 0.888126 -0.456737
-4.73887 -2.95038 10.0363 0.215907 0.495566 -0.841308
-6.17556 -5.75075 9.81419 0.879245 -0.409227 -0.243849
-6.0635 -9.55275 13.222 0.961183 0.228341 -0.154877
-6.14838 -8.3445 12.8004 0.998638 0.0306221 -0.0422442
-4.69228 -7.21006 6.58134 0.412367 0.69768 0.585829
-1.991 -1.967 11.037 -0.456314 0.833743 -0.310886
-6.60156 -7.33588 8.79594 0.994857 0.0992303 0.0203263
-6.10838 -7.2915 10.8197 0.978062 0.207388 -0.01962
-1.62925 -2.0845 9.506 -0.672234 0.587866 -0.450016
-6.27887 -7.16625 9.82987 0.968248 0.150609 -0.199533
-0.620125 -2.47038 8.16737 -0.933496 0.310793 -0.178866
-0.949313 -4.12856 7.11919 -0.913709 0.35722 0.193727
-3.47725 -2.18625 11.8475 -0.3464 0.841313 -0.414969
3 97 102 87
3 99 106 85
3 97 87 62
3 71 60 95
3 87 101 91
3 110 91 107
3 101 87 102
3 95 113 98
3 98 82 71
3 82 85 66
3 82 66 71
3 106 100 86
3 78 97 62
3 62 40 76
3 71 46 60
3 46 37 26
3 26 37 24
3 66 47 46
3 37 29 24
3 51 74 59
3 45 65 51
3 65 74 51
3 100 81 86
3 111 94 93
3 74 94 79
3 79 59 74
3 109 105 94
3 79 94 105
3 73 40 42
3 40 26 30
3 30 42 40
3 10 15 2
3 14 2 15
3 20 14 28
3 14 24 29
3 79 104 88
3 105 83 104
3 73 42 50
3 50 42 27
3 27 18 34
3 34 50 27
3 34 17 25
3 39 34 25
3 25 17 13
3 5 12 11
3 35 28 52
3 35 52 48
3 33 48 57
3 57 69 75
3 57 67 43
3 84 67 90
3 75 90 67
3 90 83 92
3 83 61 72
3 83 73 61
3 50 61 73
3 83 72 68
3 83 68 92
3 56 39 41
3 32 13 19
3 32 19 36
3 0 5 1
3 23 16 11
3 23 11 21
3 80 67 84
3 84 68 77
3 106 86 85
3 103 111 108
3 62 87 60
3 110 95 91
3 91 60 87
3 60 91 95
3 107 91 114
3 114 91 101
3 70 66 85
3 47 66 70
3 47 70 45
3 63 45 70
3 63 70 85
3 63 85 86
3 65 45 63
3 81 65 86
3 86 65 63
3 100 108 93
3 93 108 111
3 109 111 96
3 96 111 103
3 96 103 78
3 97 78 103
3 78 76 96
3 40 62 38
3 40 38 26
3 60 46 38
3 60 38 62
3 38 46 26
3 29 37 47
3 29 47 45
3 47 37 46
3 81 74 65
3 74 81 100
3 74 100 93
3 74 93 94
3 96 105 109
3 105 96 89
3 89 96 76
3 89 76 73
3 30 26 15
3 27 10 18
3 30 10 27
3 10 30 15
3 8 2 14
3 8 14 20
3 29 28 14
3 29 52 28
3 59 69 52
3 69 59 79
3 69 79 88
3 90 75 88
3 90 88 104
3 90 104 83
3 89 83 105
3 73 83 89
3 27 42 30
3 50 34 61
3 61 34 54
3 61 54 72
3 34 39 55
3 34 55 54
3 54 55 72
3 7 3 1
3 3 7 13
3 3 13 17
3 0 1 3
3 0 3 2
3 2 3 10
3 10 3 18
3 18 3 17
3 5 4 12
3 12 4 8
3 4 2 8
3 20 12 8
3 0 2 4
3 0 4 5
3 21 11 12
3 21 12 22
3 22 12 20
3 35 21 22
3 35 22 28
3 28 22 20
3 21 35 33
3 48 33 35
3 69 57 48
3 69 48 52
3 88 75 69
3 39 68 55
3 55 68 72
3 77 64 53
3 64 77 56
3 39 56 68
3 68 56 77
3 41 49 56
3 56 49 64
3 53 64 49
3 53 49 36
3 32 49 41
3 13 32 25
3 25 32 41
3 25 41 39
3 9 19 13
3 6 19 9
3 6 9 1
3 1 9 7
3 7 9 13
3 16 19 6
3 16 6 5
3 5 6 1
3 33 23 21
3 36 31 44
3 44 31 33
3 44 33 43
3 33 31 23
3 36 58 53
3 58 44 43
3 44 58 36
3 80 53 58
3 80 58 67
3 67 58 43
3 77 53 80
3 84 77 80
3 31 36 19
3 31 16 23
3 16 31 19
3 112 113 95
3 112 95 110
3 98 99 82
3 85 82 99
3 78 62 76
3 66 46 71
3 95 98 71
3 109 94 111
3 76 40 73
3 24 15 26
3 24 14 15
3 29 59 52
3 79 105 104
3 18 17 34
3 75 67 57
3 5 11 16
3 57 43 33
3 90 92 84
3 84 92 68
3 32 36 49
3 29 45 51
3 29 51 59
