ply
format ascii 1.0
comment Generated by PyMesh
element vertex 171
property float x
property float y
property float z
property float nx
property float ny
property float nz
element face 313
property list uchar int vertex_indices
end_header
-0.950875 -7.54581 12.4346 -0.632297 -0.545991 0.549632
-1.7585 -6.495 11.9974 -0.875271 -0.44215 0.195971
-1.463 -8.376 11.3333 -0.806276 -0.255371 0.533577
-1.52013 -6.21325 13.1946 -0.53448 -0.837967 0.110193
0.031 -7.35913 13.8882 -0.612271 -0.790601 0.00867966
-0.571625 -9.07475 11.6154 -0.446835 -0.276825 0.850709
1.14525 -8.562 12.9073 -0.669011 -0.647723 0.364526
-2.011 -5.875 11.0615 -0.733903 -0.671001 -0.105567
-1.71375 -7.84975 10.351 -0.959066 -0.0283712 0.281756
-1.88644 -9.22363 10.6494 -0.616614 0.425512 0.662365
-2.68963 -5.70463 12.3524 -0.260663 -0.948494 -0.180039
-2.78744 -5.99862 13.4154 -0.0566234 -0.97951 -0.193273
-1.91937 -6.21275 14.6142 -0.314087 -0.892927 -0.322539
-1.90625 -6.818 10.2917 -0.962724 -0.18519 0.197148
-0.02625 -10.5835 11.7972 -0.321326 0.311059 0.894423
-1.33125 -10.4866 11.3071 -0.287108 0.373615 0.882032
1.0125 -9.58212 11.8576 -0.547629 -0.0482876 0.835327
-2.13225 -8.094 9.39625 -0.947777 0.184363 0.260248
-1.30838 -7.12044 15.2753 -0.452784 -0.683757 -0.572243
0.717875 -8.19975 15.5052 -0.62321 -0.649262 -0.435968
1.367 -8.79813 14.2028 -0.938835 -0.300511 -0.168172
1.891 -9.97425 13.0087 -0.975146 0.0577273 0.213912
-2.61469 -4.94441 9.86416 -0.775368 -0.219062 -0.592297
-2.77375 -9.09387 9.28175 -0.625672 0.758327 0.182961
-3.67925 -5.23994 10.9784 -0.0577555 -0.859388 -0.508052
-0.359 -11.5591 12.3024 -0.345776 0.698796 0.626197
0.863875 -10.9526 12.4683 -0.584743 0.680737 0.441217
-3.57711 -9.55381 9.77205 -0.197054 0.922204 0.33273
-2.309 -6.189 8.945 -0.990824 0.123307 -0.0553434
0.859375 -9.032 16.0446 -0.710914 -0.271388 -0.648807
-2.18438 -7.15963 8.50113 -0.97819 -0.0684411 0.19611
1.30375 -9.7405 15.091 -0.953067 -0.0709761 -0.294322
-3.731 -6.37675 15.2506 0.146035 -0.903592 -0.402736
-1.37625 -11.8694 12.1976 -0.0962332 0.842831 0.529505
-1.40675 -8.23525 16.089 -0.400395 -0.658658 -0.637066
-4.83238 -6.22475 14.045 0.337459 -0.863933 -0.373821
-3.302 -11.1471 11.4605 -0.0613465 0.694598 0.716778
-2.162 -8.0945 7.9165 -0.909633 0.295624 0.291845
-2.83406 -7.02481 16.3614 -0.213924 -0.73017 -0.648913
-5.308 -5.77575 12.31 0.323934 -0.933786 -0.152023
-4.34269 -10.1756 10.3532 0.0574804 0.76062 0.646648
1.3825 -10.685 14.0083 -0.884948 0.461274 -0.0639818
-0.464 -8.9755 16.604 -0.386586 -0.387961 -0.836683
-3.04312 -9.22025 8.00725 -0.450346 0.747347 0.488529
-3.82663 -9.5445 8.57913 -0.0289599 0.975135 0.219709
-4.92338 -5.55363 11.0901 0.467586 -0.821285 -0.326885
-0.595 -12.0105 13.363 -0.371538 0.892576 0.255475
1.146 -10.677 15.4235 -0.849498 0.391589 -0.353568
-2.3525 -6.17938 7.56938 -0.928894 0.314033 0.196315
0.35525 -11.5347 13.7522 -0.562823 0.806709 0.18014
-3.67 -3.37725 10.0363 0.0528347 0.22804 -0.972217
0.578125 -10.3691 16.4349 -0.656737 0.0802966 -0.749832
-4.3105 -11.2565 11.5763 0.336622 0.872277 0.354709
-2.527 -11.704 12.3365 0.176489 0.927301 0.330096
-2.55194 -2.87169 10.2829 -0.412992 0.578452 -0.703442
-5.725 -6.1115 13.164 0.778413 -0.53643 -0.326062
-5.27969 -9.23044 9.6165 0.552825 0.793218 0.255323
-1.70119 -8.70938 17.1994 -0.367204 -0.522871 -0.769264
-4.87 -7.05025 15.4299 0.602014 -0.722362 -0.340253
-2.81013 -7.37475 7.02338 -0.632572 0.310152 0.709689
-1.03 -3.787 8.5425 -0.841293 0.29785 -0.451123
-6.14825 -6.61194 11.79 0.929507 -0.355159 -0.0993885
-1.66 -12.3445 13.6494 0.0749592 0.965726 0.248506
-5.271 -4.34734 9.45378 0.716884 -0.165769 -0.677199
-0.731875 -12.3286 14.3022 -0.356289 0.916199 0.183404
-5.6675 -9.7635 11.0267 0.829797 0.432144 0.353113
-4.4885 -6.99975 16.5465 0.437605 -0.720127 -0.538441
-5.05225 -9.12525 8.24525 0.439157 0.814084 0.380011
-5.70131 -7.94219 14.2342 0.924738 -0.100025 -0.367226
-3.23534 -8.48941 17.304 0.0843109 -0.374124 -0.923538
-1.69987 -5.249 6.81862 -0.818807 0.560268 0.125122
-4.30062 -7.94225 17.1379 0.324397 -0.263037 -0.908613
0.243813 -11.8969 14.8194 -0.612517 0.78779 -0.0648907
-3.648 -2.5685 10.791 0.0512143 0.888126 -0.456737
-4.73887 -2.95038 10.0363 0.215907 0.495566 -0.841308
-4.2395 -8.5735 7.08169 0.129076 0.635443 0.761282
-0.125625 -11.4201 16.4508 -0.505807 0.513905 -0.692864
-6.17556 -5.75075 9.81419 0.879245 -0.409227 -0.243849
-2.88225 -6.48225 6.32975 -0.654714 0.679947 0.330186
-1.69675 -10.2355 17.6903 -0.451623 0.102526 -0.886298
-6.14975 -8.38775 9.2365 0.864514 0.496605 -0.0774548
-1.991 -1.967 11.037 -0.456314 0.833743 -0.310886
-5.04875 -7.88225 16.3645 0.850945 -0.254382 -0.459545
-5.77 -8.44 10.563 0.951713 0.306736 0.0124313
-3.58612 -11.5753 13.3752 0.367699 0.920854 0.129709
-1.62925 -2.0845 9.506 -0.672234 0.587866 -0.450016
-6.10838 -7.2915 10.8197 0.978062 0.207388 -0.01962
-2.7135 -12.04 14.0715 0.366581 0.883477 0.291696
-5.65947 -10.4865 12.0315 0.739189 0.670298 0.0655765
-1.08025 -12.5326 15.4539 -0.267539 0.945742 -0.184376
-0.620125 -2.47038 8.16737 -0.933496 0.310793 -0.178866
-4.754 -10.953 13.301 0.543967 0.839005 -0.01308
-0.949313 -4.12856 7.11919 -0.913709 0.35722 0.193727
-2.68175 -10.0616 18.0147 -0.147886 -0.169386 -0.974391
-3.47725 -2.18625 11.8475 -0.3464 0.841313 -0.414969
-6.109 -8.09013 8.2005 0.704026 0.548252 0.451407
-5.82725 -2.50425 9.9965 0.185066 0.85031 -0.49267
-4.69228 -7.21006 6.58134 0.412367 0.69768 0.585829
-2.44412 -12.6461 15.2684 0.108394 0.994106 0.00173444
-5.61875 -4.25737 7.6965 0.978629 0.118664 -0.167943
-1.81662 -4.56588 5.56887 -0.783066 0.239221 0.574091
-6.14838 -8.3445 12.8004 0.998638 0.0306221 -0.0422442
-6.351 -2.99425 8.68025 0.659098 0.746601 -0.0904267
-6.27887 -7.16625 9.82987 0.968248 0.150609 -0.199533
-5.26237 -9.369 14.8328 0.932581 0.232313 -0.276268
-6.2445 -5.67425 8.35825 0.940384 -0.316391 0.124801
-3.716 -6.85975 5.448 -0.263335 0.865654 0.425791
-4.86794 -9.33075 16.6371 0.851016 0.0549026 -0.522261
-2.69287 -5.83144 5.22319 -0.654214 0.459018 0.601088
-2.33325 -1.6125 12.1005 -0.27871 0.82363 -0.493918
-6.60156 -7.33588 8.79594 0.994857 0.0992303 0.0203263
-4.07681 -11.5229 14.4209 0.611204 0.778348 0.143542
-6.0635 -9.55275 13.222 0.961183 0.228341 -0.154877
-3.79075 -10.2222 18.0065 0.409482 -0.0532152 -0.910765
-5.41463 -10.342 13.8094 0.814785 0.508942 -0.277674
-1.62603 -12.0646 16.4171 -0.241147 0.799142 -0.550654
-0.47025 -1.53 9.122 -0.559631 0.807507 -0.186402
-0.7125 -3.14287 6.77037 -0.909629 0.176453 0.376085
-0.977813 -1.33644 11.9819 -0.0664935 0.980925 -0.18266
-2.77225 -11.4105 17.805 -0.18764 0.469214 -0.862919
-0.426 -1.17206 10.6077 -0.363504 0.925447 -0.106831
-3.354 -12.5258 15.707 0.334248 0.942454 0.00765007
-0.030375 -1.28225 7.4885 -0.531229 0.845946 0.0465979
-6.951 -2.5145 9.9525 0.21621 0.976343 0.00262576
-3.15875 -1.42963 12.8542 -0.499533 0.666475 -0.553423
-6.22325 -6.96025 7.58225 0.827747 0.0783912 0.555599
-1.476 -3.1625 5.95813 -0.693237 0.143144 0.706351
-4.69075 -2.53175 13.1115 -0.350228 0.931539 -0.0978508
-2.817 -4.43525 4.809 -0.582432 0.0504241 0.811314
-5.79563 -5.69025 7.32412 0.957859 0.0303151 0.285636
-4.8805 -10.495 14.9487 0.932964 0.341581 -0.11358
-6.2165 -2.099 11.352 -0.0671779 0.99727 0.0306544
-6.187 -2.8705 7.317 0.76518 0.638045 -0.0860097
-0.945625 -1.96769 6.20687 -0.792355 0.33976 0.506693
-7.16125 -2.234 7.76575 0.557123 0.812604 -0.171138
-4.09312 -6.05037 4.4095 -0.137521 0.544987 0.827089
-1.63806 -0.748062 12.9071 -0.00624998 0.683988 -0.729466
-5.07044 -6.35375 5.00331 0.358455 0.754102 0.55031
-3.862 -11.6217 17.6195 0.410813 0.59085 -0.694355
-4.7185 -11.2759 15.6766 0.793706 0.608294 -0.00312074
-6.4485 -3.06988 6.36562 0.581447 0.599726 -0.549771
-4.66625 -11.0845 16.892 0.873862 0.373752 -0.310925
-3.116 -12.246 16.7978 0.255258 0.896528 -0.36205
-3.95025 -4.98125 4.1915 -0.364018 0.223478 0.904184
-6.111 -5.624 6.089 0.902457 0.418943 -0.100291
0.656875 -0.954625 11.0969 -0.172353 0.969797 0.17259
-0.27 -0.883 13.3573 0.52276 0.654727 -0.545943
-8.08497 -1.88934 9.36447 0.524179 0.786561 0.326433
0.94725 -0.8885 9.82619 -0.162998 0.986589 -0.00857057
-3.69738 -1.33834 13.9881 -0.730711 0.470451 -0.494709
-5.72906 -2.47112 12.6509 -0.0788777 0.986902 0.140719
-4.765 -2.518 14.248 -0.364464 0.919285 -0.148599
-6.624 -4.5115 5.5635 0.517749 0.639978 -0.567772
-7.99203 -2.64528 11.2072 -0.0144315 0.992396 0.122235
-0.04025 -0.651 6.15987 -0.333882 0.706318 0.62421
-3.12075 -3.278 4.64725 -0.612575 0.0962018 0.784536
1.572 -0.953875 7.497 0.0473165 0.987682 -0.149147
-1.8625 -1.868 5.281 -0.642916 0.358324 0.676951
0.721 -1.61625 13.153 0.550536 0.834086 0.034786
-5.116 -5.535 4.308 0.188106 0.463336 0.865988
1.37888 -0.50825 8.64587 0.0043209 0.99807 -0.0619493
-1.22113 0.0809375 13.5485 0.27894 0.353428 -0.892906
1.475 -1.086 6.477 0.0342105 0.968835 0.245335
-8.17025 -1.88312 7.04 0.329029 0.739171 -0.587679
1.33506 -1.27988 11.9929 0.263704 0.797677 0.542376
-4.75725 -4.3725 3.745 -0.31198 0.546455 0.77721
-4.05363 -3.21913 3.93375 -0.710511 0.29783 0.637551
-6.183 -5.011 4.536 0.30348 0.907268 0.291145
-8.26437 -1.01525 8.31125 0.555904 0.831173 -0.0110874
-7.69875 -3.17213 5.98338 0.299425 0.616534 -0.728169
-2.90569 0.68025 13.7451 -0.312653 0.115108 -0.942867
3 163 168 134
3 163 134 169
3 168 147 134
3 96 123 153
3 165 167 159
3 165 159 143
3 166 165 143
3 99 152 140
3 169 140 152
3 99 140 132
3 132 134 102
3 63 102 96
3 63 74 50
3 74 96 73
3 73 131 127
3 131 150 127
3 150 131 153
3 128 126 155
3 70 108 78
3 78 97 59
3 97 125 95
3 125 97 129
3 129 97 144
3 105 99 63
3 63 50 24
3 28 22 60
3 50 73 54
3 85 54 81
3 73 50 74
3 94 127 124
3 60 92 70
3 70 48 28
3 48 59 30
3 48 30 28
3 97 95 75
3 45 63 24
3 24 10 39
3 28 13 22
3 13 8 1
3 1 8 2
3 30 17 13
3 8 9 2
3 27 56 40
3 23 44 27
3 44 56 27
3 95 67 75
3 103 83 80
3 56 83 65
3 65 40 56
3 86 101 83
3 65 83 101
3 35 10 11
3 10 1 3
3 3 11 10
3 4 0 6
3 5 6 0
3 14 5 15
3 5 2 9
3 65 112 88
3 101 68 112
3 35 11 32
3 32 11 12
3 12 18 38
3 38 32 12
3 38 34 57
3 69 38 57
3 57 34 42
3 41 26 49
3 33 15 36
3 33 36 53
3 62 53 84
3 84 52 91
3 84 111 87
3 130 111 114
3 91 114 111
3 114 68 104
3 68 58 82
3 68 35 58
3 32 58 35
3 68 82 107
3 68 107 104
3 113 69 93
3 79 42 76
3 79 76 115
3 20 41 31
3 64 72 49
3 64 49 46
3 139 111 130
3 130 107 141
3 133 90 122
3 85 116 90
3 90 116 122
3 116 148 160
3 118 120 81
3 81 109 118
3 136 118 109
3 136 109 124
3 136 170 161
3 162 154 122
3 154 133 122
3 162 122 156
3 156 122 160
3 145 148 120
3 158 164 118
3 118 146 158
3 102 123 96
3 123 102 147
3 134 147 102
3 153 123 147
3 143 159 135
3 135 159 137
3 129 144 99
3 167 137 159
3 137 167 97
3 97 167 144
3 99 144 152
3 152 144 167
3 63 99 102
3 102 99 132
3 151 127 150
3 70 100 108
3 108 100 128
3 128 100 126
3 78 108 106
3 106 108 135
3 106 135 137
3 135 108 143
3 128 143 108
3 78 106 97
3 137 97 106
3 97 75 59
3 95 125 110
3 125 129 105
3 77 103 110
3 77 110 105
3 125 105 110
3 105 63 77
3 24 50 22
3 85 60 54
3 54 22 50
3 22 54 60
3 81 54 94
3 81 94 109
3 94 54 73
3 124 109 94
3 149 124 127
3 151 149 127
3 133 157 126
3 117 133 126
3 92 117 126
3 100 70 92
3 100 92 126
3 37 30 59
3 17 30 37
3 17 37 23
3 43 23 37
3 43 37 59
3 43 59 75
3 44 23 43
3 67 44 75
3 75 44 43
3 95 110 80
3 80 110 103
3 86 103 61
3 61 103 77
3 61 77 45
3 63 45 77
3 45 39 61
3 10 24 7
3 10 7 1
3 22 13 7
3 22 7 24
3 7 13 1
3 9 8 17
3 9 17 23
3 17 8 13
3 67 56 44
3 56 67 95
3 56 95 80
3 56 80 83
3 61 101 86
3 101 61 55
3 55 61 39
3 55 39 35
3 3 1 0
3 12 4 18
3 3 4 12
3 4 3 0
3 16 6 5
3 16 5 14
3 9 15 5
3 9 36 15
3 40 52 36
3 52 40 65
3 52 65 88
3 114 91 88
3 114 88 112
3 114 112 68
3 55 68 101
3 35 68 55
3 12 11 3
3 32 38 58
3 58 38 66
3 58 66 82
3 38 69 71
3 38 71 66
3 66 71 82
3 29 19 31
3 19 29 42
3 19 42 34
3 20 31 19
3 20 19 6
3 6 19 4
3 4 19 18
3 18 19 34
3 41 21 26
3 26 21 16
3 21 6 16
3 14 26 16
3 20 6 21
3 20 21 41
3 46 49 26
3 46 26 25
3 25 26 14
3 33 46 25
3 33 25 15
3 15 25 14
3 46 33 62
3 53 62 33
3 52 84 53
3 52 53 36
3 88 91 52
3 69 107 71
3 71 107 82
3 141 138 142
3 138 141 113
3 69 113 107
3 107 113 141
3 93 119 113
3 113 119 138
3 142 138 119
3 142 119 115
3 79 119 93
3 42 79 57
3 57 79 93
3 57 93 69
3 51 76 42
3 47 76 51
3 47 51 31
3 31 51 29
3 29 51 42
3 72 76 47
3 72 47 41
3 41 47 31
3 62 64 46
3 115 89 98
3 98 89 62
3 98 62 87
3 62 89 64
3 115 121 142
3 121 98 87
3 98 121 115
3 139 142 121
3 139 121 111
3 111 121 87
3 141 142 139
3 130 141 139
3 89 115 76
3 89 72 64
3 72 89 76
3 90 117 92
3 90 92 60
3 90 60 85
3 133 117 90
3 160 122 116
3 120 148 116
3 161 146 136
3 136 146 118
3 140 169 134
3 140 134 132
3 96 74 63
3 153 131 96
3 73 96 131
3 143 128 166
3 155 166 128
3 129 99 105
3 127 94 73
3 70 78 48
3 59 48 78
3 45 24 39
3 30 13 28
3 60 70 28
3 116 85 120
3 120 85 81
3 149 170 124
3 136 124 170
3 86 83 103
3 39 10 35
3 2 0 1
3 2 5 0
3 9 40 36
3 65 101 112
3 18 34 38
3 91 111 84
3 41 49 72
3 84 87 62
3 114 104 130
3 130 104 107
3 79 115 119
3 145 120 118
3 164 145 118
3 9 23 27
3 9 27 40
