ply
format ascii 1.0
comment Generated by PyMesh
element vertex 125
property float x
property float y
property float z
property float nx
property float ny
property float nz
element face 227
property list uchar int vertex_indices
end_header
-2.83406 -7.02481 16.3614 -0.213924 -0.73017 -0.648913
-3.731 -6.37675 15.2506 0.146035 -0.903592 -0.402736
-4.4885 -6.99975 16.5465 0.437605 -0.720127 -0.538441
-3.23534 -8.48941 17.304 0.0843109 -0.374124 -0.923538
-1.30838 -7.12044 15.2753 -0.452784 -0.683757 -0.572243
-1.40675 -8.23525 16.089 -0.400395 -0.658658 -0.637066
-4.30062 -7.94225 17.1379 0.324397 -0.263037 -0.908613
-1.91937 -6.21275 14.6142 -0.314087 -0.892927 -0.322539
-1.70119 -8.70938 17.1994 -0.367204 -0.522871 -0.769264
-4.87 -7.05025 15.4299 0.602014 -0.722362 -0.340253
-5.04875 -7.88225 16.3645 0.850945 -0.254382 -0.459545
-0.464 -8.9755 16.604 -0.386586 -0.387961 -0.836683
-4.83238 -6.22475 14.045 0.337459 -0.863933 -0.373821
-4.86794 -9.33075 16.6371 0.851016 0.0549026 -0.522261
-2.68175 -10.0616 18.0147 -0.147886 -0.169386 -0.974391
-1.52013 -6.21325 13.1946 -0.53448 -0.837967 0.110193
-2.78744 -5.99862 13.4154 -0.0566234 -0.97951 -0.193273
-3.79075 -10.2222 18.0065 0.409482 -0.0532152 -0.910765
-1.69675 -10.2355 17.6903 -0.451623 0.102526 -0.886298
0.031 -7.35913 13.8882 -0.612271 -0.790601 0.00867966
-5.70131 -7.94219 14.2342 0.924738 -0.100025 -0.367226
0.717875 -8.19975 15.5052 -0.62321 -0.649262 -0.435968
-5.725 -6.1115 13.164 0.778413 -0.53643 -0.326062
0.859375 -9.032 16.0446 -0.710914 -0.271388 -0.648807
-2.68963 -5.70463 12.3524 -0.260663 -0.948494 -0.180039
-1.7585 -6.495 11.9974 -0.875271 -0.44215 0.195971
0.578125 -10.3691 16.4349 -0.656737 0.0802966 -0.749832
-2.77225 -11.4105 17.805 -0.18764 0.469214 -0.862919
-5.308 -5.77575 12.31 0.323934 -0.933786 -0.152023
-3.862 -11.6217 17.6195 0.410813 0.59085 -0.694355
-0.950875 -7.54581 12.4346 -0.632297 -0.545991 0.549632
-4.66625 -11.0845 16.892 0.873862 0.373752 -0.310925
-5.26237 -9.369 14.8328 0.932581 0.232313 -0.276268
-6.14838 -8.3445 12.8004 0.998638 0.0306221 -0.0422442
-4.8805 -10.495 14.9487 0.932964 0.341581 -0.11358
1.367 -8.79813 14.2028 -0.938835 -0.300511 -0.168172
-0.125625 -11.4201 16.4508 -0.505807 0.513905 -0.692864
1.14525 -8.562 12.9073 -0.669011 -0.647723 0.364526
1.30375 -9.7405 15.091 -0.953067 -0.0709761 -0.294322
-6.0635 -9.55275 13.222 0.961183 0.228341 -0.154877
-6.14825 -6.61194 11.79 0.929507 -0.355159 -0.0993885
-2.011 -5.875 11.0615 -0.733903 -0.671001 -0.105567
-1.62603 -12.0646 16.4171 -0.241147 0.799142 -0.550654
1.146 -10.677 15.4235 -0.849498 0.391589 -0.353568
-3.116 -12.246 16.7978 0.255258 0.896528 -0.36205
-4.92338 -5.55363 11.0901 0.467586 -0.821285 -0.326885
-5.41463 -10.342 13.8094 0.814785 0.508942 -0.277674
-3.67925 -5.23994 10.9784 -0.0577555 -0.859388 -0.508052
-4.7185 -11.2759 15.6766 0.793706 0.608294 -0.00312074
-1.90625 -6.818 10.2917 -0.962724 -0.18519 0.197148
-1.463 -8.376 11.3333 -0.806276 -0.255371 0.533577
-4.07681 -11.5229 14.4209 0.611204 0.778348 0.143542
-1.71375 -7.84975 10.351 -0.959066 -0.0283712 0.281756
-0.571625 -9.07475 11.6154 -0.446835 -0.276825 0.850709
-6.10838 -7.2915 10.8197 0.978062 0.207388 -0.01962
1.0125 -9.58212 11.8576 -0.547629 -0.0482876 0.835327
-1.08025 -12.5326 15.4539 -0.267539 0.945742 -0.184376
1.3825 -10.685 14.0083 -0.884948 0.461274 -0.0639818
1.891 -9.97425 13.0087 -0.975146 0.0577273 0.213912
0.243813 -11.8969 14.8194 -0.612517 0.78779 -0.0648907
-4.754 -10.953 13.301 0.543967 0.839005 -0.01308
-5.65947 -10.4865 12.0315 0.739189 0.670298 0.0655765
-3.354 -12.5258 15.707 0.334248 0.942454 0.00765007
-2.44412 -12.6461 15.2684 0.108394 0.994106 0.00173444
-2.61469 -4.94441 9.86416 -0.775368 -0.219062 -0.592297
-5.77 -8.44 10.563 0.951713 0.306736 0.0124313
-5.6675 -9.7635 11.0267 0.829797 0.432144 0.353113
-1.88644 -9.22363 10.6494 -0.616614 0.425512 0.662365
-6.27887 -7.16625 9.82987 0.968248 0.150609 -0.199533
-2.13225 -8.094 9.39625 -0.947777 0.184363 0.260248
-3.58612 -11.5753 13.3752 0.367699 0.920854 0.129709
-2.309 -6.189 8.945 -0.990824 0.123307 -0.0553434
-6.17556 -5.75075 9.81419 0.879245 -0.409227 -0.243849
-5.271 -4.34734 9.45378 0.716884 -0.165769 -0.677199
-2.7135 -12.04 14.0715 0.366581 0.883477 0.291696
-2.18438 -7.15963 8.50113 -0.97819 -0.0684411 0.19611
-0.731875 -12.3286 14.3022 -0.356289 0.916199 0.183404
0.35525 -11.5347 13.7522 -0.562823 0.806709 0.18014
-3.67 -3.37725 10.0363 0.0528347 0.22804 -0.972217
-0.02625 -10.5835 11.7972 -0.321326 0.311059 0.894423
-1.33125 -10.4866 11.3071 -0.287108 0.373615 0.882032
0.863875 -10.9526 12.4683 -0.584743 0.680737 0.441217
-4.3105 -11.2565 11.5763 0.336622 0.872277 0.354709
-5.27969 -9.23044 9.6165 0.552825 0.793218 0.255323
-6.60156 -7.33588 8.79594 0.994857 0.0992303 0.0203263
-1.66 -12.3445 13.6494 0.0749592 0.965726 0.248506
-6.14975 -8.38775 9.2365 0.864514 0.496605 -0.0774548
-2.77375 -9.09387 9.28175 -0.625672 0.758327 0.182961
-4.34269 -10.1756 10.3532 0.0574804 0.76062 0.646648
-0.595 -12.0105 13.363 -0.371538 0.892576 0.255475
-2.3525 -6.17938 7.56938 -0.928894 0.314033 0.196315
-2.162 -8.0945 7.9165 -0.909633 0.295624 0.291845
-2.527 -11.704 12.3365 0.176489 0.927301 0.330096
-6.2445 -5.67425 8.35825 0.940384 -0.316391 0.124801
-3.648 -2.5685 10.791 0.0512143 0.888126 -0.456737
-4.73887 -2.95038 10.0363 0.215907 0.495566 -0.841308
-2.55194 -2.87169 10.2829 -0.412992 0.578452 -0.703442
-0.359 -11.5591 12.3024 -0.345776 0.698796 0.626197
-3.57711 -9.55381 9.77205 -0.197054 0.922204 0.33273
-1.03 -3.787 8.5425 -0.841293 0.29785 -0.451123
-2.81013 -7.37475 7.02338 -0.632572 0.310152 0.709689
-3.302 -11.1471 11.4605 -0.0613465 0.694598 0.716778
-6.109 -8.09013 8.2005 0.704026 0.548252 0.451407
-5.61875 -4.25737 7.6965 0.978629 0.118664 -0.167943
-1.37625 -11.8694 12.1976 -0.0962332 0.842831 0.529505
-6.351 -2.99425 8.68025 0.659098 0.746601 -0.0904267
-5.82725 -2.50425 9.9965 0.185066 0.85031 -0.49267
-6.22325 -6.96025 7.58225 0.827747 0.0783912 0.555599
-5.05225 -9.12525 8.24525 0.439157 0.814084 0.380011
-1.69987 -5.249 6.81862 -0.818807 0.560268 0.125122
-3.04312 -9.22025 8.00725 -0.450346 0.747347 0.488529
-3.82663 -9.5445 8.57913 -0.0289599 0.975135 0.219709
-5.79563 -5.69025 7.32412 0.957859 0.0303151 0.285636
-3.47725 -2.18625 11.8475 -0.3464 0.841313 -0.414969
-2.88225 -6.48225 6.32975 -0.654714 0.679947 0.330186
-1.991 -1.967 11.037 -0.456314 0.833743 -0.310886
-1.62925 -2.0845 9.506 -0.672234 0.587866 -0.450016
-0.620125 -2.47038 8.16737 -0.933496 0.310793 -0.178866
-0.949313 -4.12856 7.11919 -0.913709 0.35722 0.193727
-6.951 -2.5145 9.9525 0.21621 0.976343 0.00262576
-6.187 -2.8705 7.317 0.76518 0.638045 -0.0860097
-7.16125 -2.234 7.76575 0.557123 0.812604 -0.171138
-6.2165 -2.099 11.352 -0.0671779 0.99727 0.0306544
-4.2395 -8.5735 7.08169 0.129076 0.635443 0.761282
-1.81662 -4.56588 5.56887 -0.783066 0.239221 0.574091
3 120 121 105
3 73 105 106
3 73 95 78
3 95 106 94
3 93 103 73
3 73 78 47
3 71 64 99
3 78 94 96
3 116 96 115
3 94 78 95
3 99 118 109
3 109 90 71
3 90 100 75
3 90 75 71
3 45 73 47
3 47 24 28
3 71 49 64
3 49 52 25
3 25 52 50
3 75 69 49
3 52 67 50
3 98 83 88
3 87 111 98
3 111 83 98
3 102 108 123
3 68 65 86
3 83 65 66
3 66 88 83
3 54 33 65
3 66 65 33
3 12 24 16
3 24 25 15
3 15 16 24
3 19 30 37
3 53 37 30
3 79 53 80
3 53 50 67
3 66 39 61
3 33 20 39
3 12 16 1
3 1 16 7
3 7 4 0
3 0 1 7
3 0 5 8
3 3 0 8
3 8 5 11
3 57 81 77
3 104 80 101
3 104 101 92
3 85 92 70
3 70 82 60
3 70 51 74
3 34 51 46
3 60 46 51
3 46 20 32
3 20 9 10
3 20 12 9
3 1 9 12
3 20 10 13
3 20 13 32
3 17 3 14
3 18 11 36
3 18 36 42
3 35 57 38
3 76 59 77
3 76 77 89
3 48 51 34
3 34 13 31
3 105 119 106
3 73 103 105
3 105 103 120
3 102 107 84
3 107 112 93
3 72 68 84
3 72 84 93
3 107 93 84
3 93 73 72
3 47 78 64
3 116 99 96
3 96 64 78
3 64 96 99
3 115 96 113
3 113 96 94
3 124 109 118
3 91 75 100
3 69 75 91
3 69 91 87
3 110 87 91
3 110 91 100
3 110 100 123
3 111 87 110
3 108 111 123
3 123 111 110
3 102 84 86
3 86 84 68
3 54 68 40
3 40 68 72
3 40 72 45
3 73 45 72
3 45 28 40
3 24 47 41
3 24 41 25
3 64 49 41
3 64 41 47
3 41 49 25
3 67 52 69
3 67 69 87
3 69 52 49
3 108 83 111
3 83 108 102
3 83 102 86
3 83 86 65
3 40 33 54
3 33 40 22
3 22 40 28
3 22 28 12
3 15 25 30
3 7 19 4
3 15 19 7
3 19 15 30
3 55 37 53
3 55 53 79
3 67 80 53
3 67 101 80
3 88 82 101
3 82 88 66
3 82 66 61
3 46 60 61
3 46 61 39
3 46 39 20
3 22 20 33
3 12 20 22
3 7 16 15
3 1 0 9
3 9 0 2
3 9 2 10
3 0 3 6
3 0 6 2
3 2 6 10
3 23 21 38
3 21 23 11
3 21 11 5
3 35 38 21
3 35 21 37
3 37 21 19
3 19 21 4
3 4 21 5
3 57 58 81
3 81 58 55
3 58 37 55
3 79 81 55
3 35 37 58
3 35 58 57
3 89 77 81
3 89 81 97
3 97 81 79
3 104 89 97
3 104 97 80
3 80 97 79
3 89 104 85
3 92 85 104
3 82 70 92
3 82 92 101
3 61 60 82
3 3 13 6
3 6 13 10
3 31 29 44
3 29 31 17
3 3 17 13
3 13 17 31
3 14 27 17
3 17 27 29
3 44 29 27
3 44 27 42
3 18 27 14
3 11 18 8
3 8 18 14
3 8 14 3
3 26 36 11
3 43 36 26
3 43 26 38
3 38 26 23
3 23 26 11
3 59 36 43
3 59 43 57
3 57 43 38
3 85 76 89
3 42 56 63
3 63 56 85
3 63 85 74
3 85 56 76
3 42 62 44
3 62 63 74
3 63 62 42
3 48 44 62
3 48 62 51
3 51 62 74
3 31 44 48
3 34 31 48
3 56 42 36
3 56 59 76
3 59 56 36
3 117 118 99
3 117 99 116
3 106 95 73
3 94 106 122
3 112 103 93
3 109 114 90
3 100 90 114
3 45 47 28
3 75 49 71
3 99 109 71
3 54 65 68
3 28 24 12
3 50 30 25
3 50 53 30
3 67 88 101
3 66 33 39
3 4 5 0
3 60 51 70
3 57 77 59
3 70 74 85
3 46 32 34
3 34 32 13
3 18 42 27
3 67 87 98
3 67 98 88
