ply
format ascii 1.0
comment Generated by PyMesh
element vertex 93
property float x
property float y
property float z
property float nx
property float ny
property float nz
element face 170
property list uchar int vertex_indices
end_header
-0.125625 -11.4201 16.4508 -0.505807 0.513905 -0.692864
0.578125 -10.3691 16.4349 -0.656737 0.0802966 -0.749832
-1.62603 -12.0646 16.4171 -0.241147 0.799142 -0.550654
0.243813 -11.8969 14.8194 -0.612517 0.78779 -0.0648907
-1.08025 -12.5326 15.4539 -0.267539 0.945742 -0.184376
1.146 -10.677 15.4235 -0.849498 0.391589 -0.353568
-1.69675 -10.2355 17.6903 -0.451623 0.102526 -0.886298
-0.464 -8.9755 16.604 -0.386586 -0.387961 -0.836683
0.859375 -9.032 16.0446 -0.710914 -0.271388 -0.648807
1.30375 -9.7405 15.091 -0.953067 -0.0709761 -0.294322
0.35525 -11.5347 13.7522 -0.562823 0.806709 0.18014
-0.731875 -12.3286 14.3022 -0.356289 0.916199 0.183404
-2.44412 -12.6461 15.2684 0.108394 0.994106 0.00173444
-3.116 -12.246 16.7978 0.255258 0.896528 -0.36205
1.3825 -10.685 14.0083 -0.884948 0.461274 -0.0639818
-2.68175 -10.0616 18.0147 -0.147886 -0.169386 -0.974391
-2.77225 -11.4105 17.805 -0.18764 0.469214 -0.862919
-3.354 -12.5258 15.707 0.334248 0.942454 0.00765007
-1.66 -12.3445 13.6494 0.0749592 0.965726 0.248506
0.717875 -8.19975 15.5052 -0.62321 -0.649262 -0.435968
-1.40675 -8.23525 16.089 -0.400395 -0.658658 -0.637066
-1.70119 -8.70938 17.1994 -0.367204 -0.522871 -0.769264
-0.595 -12.0105 13.363 -0.371538 0.892576 0.255475
1.367 -8.79813 14.2028 -0.938835 -0.300511 -0.168172
0.863875 -10.9526 12.4683 -0.584743 0.680737 0.441217
-3.862 -11.6217 17.6195 0.410813 0.59085 -0.694355
-3.79075 -10.2222 18.0065 0.409482 -0.0532152 -0.910765
-2.7135 -12.04 14.0715 0.366581 0.883477 0.291696
1.891 -9.97425 13.0087 -0.975146 0.0577273 0.213912
-0.359 -11.5591 12.3024 -0.345776 0.698796 0.626197
-4.66625 -11.0845 16.892 0.873862 0.373752 -0.310925
-1.30838 -7.12044 15.2753 -0.452784 -0.683757 -0.572243
-3.23534 -8.48941 17.304 0.0843109 -0.374124 -0.923538
-1.37625 -11.8694 12.1976 -0.0962332 0.842831 0.529505
-4.07681 -11.5229 14.4209 0.611204 0.778348 0.143542
-4.7185 -11.2759 15.6766 0.793706 0.608294 -0.00312074
-2.527 -11.704 12.3365 0.176489 0.927301 0.330096
1.14525 -8.562 12.9073 -0.669011 -0.647723 0.364526
-0.02625 -10.5835 11.7972 -0.321326 0.311059 0.894423
0.031 -7.35913 13.8882 -0.612271 -0.790601 0.00867966
-2.83406 -7.02481 16.3614 -0.213924 -0.73017 -0.648913
-3.58612 -11.5753 13.3752 0.367699 0.920854 0.129709
1.0125 -9.58212 11.8576 -0.547629 -0.0482876 0.835327
-4.30062 -7.94225 17.1379 0.324397 -0.263037 -0.908613
-1.91937 -6.21275 14.6142 -0.314087 -0.892927 -0.322539
-4.8805 -10.495 14.9487 0.932964 0.341581 -0.11358
-4.86794 -9.33075 16.6371 0.851016 0.0549026 -0.522261
-3.302 -11.1471 11.4605 -0.0613465 0.694598 0.716778
-4.754 -10.953 13.301 0.543967 0.839005 -0.01308
-1.33125 -10.4866 11.3071 -0.287108 0.373615 0.882032
-0.571625 -9.07475 11.6154 -0.446835 -0.276825 0.850709
-5.41463 -10.342 13.8094 0.814785 0.508942 -0.277674
-3.731 -6.37675 15.2506 0.146035 -0.903592 -0.402736
-4.4885 -6.99975 16.5465 0.437605 -0.720127 -0.538441
-4.3105 -11.2565 11.5763 0.336622 0.872277 0.354709
-0.950875 -7.54581 12.4346 -0.632297 -0.545991 0.549632
-5.04875 -7.88225 16.3645 0.850945 -0.254382 -0.459545
-5.26237 -9.369 14.8328 0.932581 0.232313 -0.276268
-1.52013 -6.21325 13.1946 -0.53448 -0.837967 0.110193
-4.87 -7.05025 15.4299 0.602014 -0.722362 -0.340253
-2.78744 -5.99862 13.4154 -0.0566234 -0.97951 -0.193273
-1.463 -8.376 11.3333 -0.806276 -0.255371 0.533577
-1.88644 -9.22363 10.6494 -0.616614 0.425512 0.662365
-5.65947 -10.4865 12.0315 0.739189 0.670298 0.0655765
-6.0635 -9.55275 13.222 0.961183 0.228341 -0.154877
-4.34269 -10.1756 10.3532 0.0574804 0.76062 0.646648
-1.7585 -6.495 11.9974 -0.875271 -0.44215 0.195971
-4.83238 -6.22475 14.045 0.337459 -0.863933 -0.373821
-2.68963 -5.70463 12.3524 -0.260663 -0.948494 -0.180039
-5.70131 -7.94219 14.2342 0.924738 -0.100025 -0.367226
-5.6675 -9.7635 11.0267 0.829797 0.432144 0.353113
-1.71375 -7.84975 10.351 -0.959066 -0.0283712 0.281756
-3.57711 -9.55381 9.77205 -0.197054 0.922204 0.33273
-6.14838 -8.3445 12.8004 0.998638 0.0306221 -0.0422442
-2.011 -5.875 11.0615 -0.733903 -0.671001 -0.105567
-5.27969 -9.23044 9.6165 0.552825 0.793218 0.255323
-2.77375 -9.09387 9.28175 -0.625672 0.758327 0.182961
-2.13225 -8.094 9.39625 -0.947777 0.184363 0.260248
-5.725 -6.1115 13.164 0.778413 -0.53643 -0.326062
-1.90625 -6.818 10.2917 -0.962724 -0.18519 0.197148
-5.308 -5.77575 12.31 0.323934 -0.933786 -0.152023
-3.67925 -5.23994 10.9784 -0.0577555 -0.859388 -0.508052
-3.82663 -9.5445 8.57913 -0.0289599 0.975135 0.219709
-5.77 -8.44 10.563 0.951713 0.306736 0.0124313
-6.14975 -8.38775 9.2365 0.864514 0.496605 -0.0774548
-3.04312 -9.22025 8.00725 -0.450346 0.747347 0.488529
-2.18438 -7.15963 8.50113 -0.97819 -0.0684411 0.19611
-5.05225 -9.12525 8.24525 0.439157 0.814084 0.380011
-2.162 -8.0945 7.9165 -0.909633 0.295624 0.291845
-2.61469 -4.94441 9.86416 -0.775368 -0.219062 -0.592297
-6.14825 -6.61194 11.79 0.929507 -0.355159 -0.0993885
-6.10838 -7.2915 10.8197 0.978062 0.207388 -0.01962
-6.109 -8.09013 8.2005 0.704026 0.548252 0.451407
3 81 68 80
3 79 71 66
3 66 71 61
3 86 77 79
3 71 62 61
3 72 75 65
3 76 82 72
3 82 75 72
3 75 83 70
3 70 65 75
3 91 73 83
3 70 83 73
3 67 68 60
3 68 66 58
3 58 60 68
3 39 55 37
3 50 37 55
3 38 50 49
3 50 61 62
3 70 64 63
3 73 69 64
3 67 60 52
3 52 60 44
3 44 31 40
3 40 52 44
3 40 20 21
3 32 40 21
3 21 20 7
3 14 24 10
3 33 49 47
3 33 47 36
3 18 36 41
3 41 54 48
3 41 34 27
3 45 34 51
3 48 51 34
3 51 69 57
3 69 59 56
3 69 67 59
3 52 59 67
3 69 56 46
3 69 46 57
3 26 32 15
3 6 7 0
3 6 0 2
3 23 14 9
3 11 3 10
3 11 10 22
3 35 34 45
3 45 46 30
3 77 86 88
3 77 88 76
3 85 76 88
3 82 76 85
3 68 81 74
3 68 74 66
3 89 79 74
3 89 74 81
3 74 79 66
3 62 71 77
3 62 77 76
3 77 71 79
3 87 75 82
3 75 87 92
3 75 92 84
3 75 84 83
3 90 73 91
3 73 90 78
3 78 90 80
3 78 80 67
3 58 66 55
3 44 39 31
3 58 39 44
3 39 58 55
3 42 37 50
3 42 50 38
3 62 49 50
3 62 47 49
3 65 54 47
3 54 65 70
3 54 70 63
3 51 48 63
3 51 63 64
3 51 64 69
3 78 69 73
3 67 69 78
3 44 60 58
3 52 40 59
3 59 40 53
3 59 53 56
3 40 32 43
3 40 43 53
3 53 43 56
3 8 19 9
3 19 8 7
3 19 7 20
3 23 9 19
3 23 19 37
3 37 19 39
3 39 19 31
3 31 19 20
3 14 28 24
3 24 28 42
3 28 37 42
3 38 24 42
3 23 37 28
3 23 28 14
3 22 10 24
3 22 24 29
3 29 24 38
3 33 22 29
3 33 29 49
3 49 29 38
3 22 33 18
3 36 18 33
3 54 41 36
3 54 36 47
3 63 48 54
3 32 46 43
3 43 46 56
3 30 25 13
3 25 30 26
3 32 26 46
3 46 26 30
3 15 16 26
3 26 16 25
3 13 25 16
3 13 16 2
3 6 16 15
3 7 6 21
3 21 6 15
3 21 15 32
3 1 0 7
3 5 0 1
3 5 1 9
3 9 1 8
3 8 1 7
3 3 0 5
3 3 5 14
3 14 5 9
3 18 11 22
3 2 4 12
3 12 4 18
3 12 18 27
3 18 4 11
3 2 17 13
3 17 12 27
3 12 17 2
3 35 13 17
3 35 17 34
3 34 17 27
3 30 13 35
3 45 30 35
3 4 2 0
3 4 3 11
3 3 4 0
3 80 68 67
3 61 55 66
3 61 50 55
3 62 65 47
3 70 73 64
3 31 20 40
3 48 34 41
3 14 10 3
3 41 27 18
3 51 57 45
3 45 57 46
3 6 2 16
3 62 76 72
3 62 72 65
