ply
format ascii 1.0
comment Generated by PyMesh
element vertex 146
property float x
property float y
property float z
property float nx
property float ny
property float nz
element face 268
property list uchar int vertex_indices
end_header
0.031 -7.35913 13.8882 -0.612271 -0.790601 0.00867966
-0.950875 -7.54581 12.4346 -0.632297 -0.545991 0.549632
1.14525 -8.562 12.9073 -0.669011 -0.647723 0.364526
-1.30838 -7.12044 15.2753 -0.452784 -0.683757 -0.572243
0.717875 -8.19975 15.5052 -0.62321 -0.649262 -0.435968
-1.52013 -6.21325 13.1946 -0.53448 -0.837967 0.110193
-1.91937 -6.21275 14.6142 -0.314087 -0.892927 -0.322539
0.859375 -9.032 16.0446 -0.710914 -0.271388 -0.648807
-1.7585 -6.495 11.9974 -0.875271 -0.44215 0.195971
-1.463 -8.376 11.3333 -0.806276 -0.255371 0.533577
1.367 -8.79813 14.2028 -0.938835 -0.300511 -0.168172
-1.40675 -8.23525 16.089 -0.400395 -0.658658 -0.637066
-2.78744 -5.99862 13.4154 -0.0566234 -0.97951 -0.193273
1.0125 -9.58212 11.8576 -0.547629 -0.0482876 0.835327
1.891 -9.97425 13.0087 -0.975146 0.0577273 0.213912
-0.571625 -9.07475 11.6154 -0.446835 -0.276825 0.850709
-2.68963 -5.70463 12.3524 -0.260663 -0.948494 -0.180039
1.30375 -9.7405 15.091 -0.953067 -0.0709761 -0.294322
-0.464 -8.9755 16.604 -0.386586 -0.387961 -0.836683
-2.83406 -7.02481 16.3614 -0.213924 -0.73017 -0.648913
-3.731 -6.37675 15.2506 0.146035 -0.903592 -0.402736
-2.011 -5.875 11.0615 -0.733903 -0.671001 -0.105567
0.578125 -10.3691 16.4349 -0.656737 0.0802966 -0.749832
-1.71375 -7.84975 10.351 -0.959066 -0.0283712 0.281756
-1.88644 -9.22363 10.6494 -0.616614 0.425512 0.662365
-1.70119 -8.70938 17.1994 -0.367204 -0.522871 -0.769264
1.146 -10.677 15.4235 -0.849498 0.391589 -0.353568
-0.02625 -10.5835 11.7972 -0.321326 0.311059 0.894423
1.3825 -10.685 14.0083 -0.884948 0.461274 -0.0639818
0.863875 -10.9526 12.4683 -0.584743 0.680737 0.441217
-1.90625 -6.818 10.2917 -0.962724 -0.18519 0.197148
-1.33125 -10.4866 11.3071 -0.287108 0.373615 0.882032
-3.67925 -5.23994 10.9784 -0.0577555 -0.859388 -0.508052
-2.13225 -8.094 9.39625 -0.947777 0.184363 0.260248
-4.4885 -6.99975 16.5465 0.437605 -0.720127 -0.538441
-4.83238 -6.22475 14.045 0.337459 -0.863933 -0.373821
-3.23534 -8.48941 17.304 0.0843109 -0.374124 -0.923538
-0.125625 -11.4201 16.4508 -0.505807 0.513905 -0.692864
-4.87 -7.05025 15.4299 0.602014 -0.722362 -0.340253
-4.30062 -7.94225 17.1379 0.324397 -0.263037 -0.908613
-1.69675 -10.2355 17.6903 -0.451623 0.102526 -0.886298
-2.61469 -4.94441 9.86416 -0.775368 -0.219062 -0.592297
-0.359 -11.5591 12.3024 -0.345776 0.698796 0.626197
-2.77375 -9.09387 9.28175 -0.625672 0.758327 0.182961
0.35525 -11.5347 13.7522 -0.562823 0.806709 0.18014
-5.308 -5.77575 12.31 0.323934 -0.933786 -0.152023
0.243813 -11.8969 14.8194 -0.612517 0.78779 -0.0648907
-3.57711 -9.55381 9.77205 -0.197054 0.922204 0.33273
-2.68175 -10.0616 18.0147 -0.147886 -0.169386 -0.974391
-2.309 -6.189 8.945 -0.990824 0.123307 -0.0553434
-5.04875 -7.88225 16.3645 0.850945 -0.254382 -0.459545
-4.92338 -5.55363 11.0901 0.467586 -0.821285 -0.326885
-2.18438 -7.15963 8.50113 -0.97819 -0.0684411 0.19611
-5.725 -6.1115 13.164 0.778413 -0.53643 -0.326062
-1.37625 -11.8694 12.1976 -0.0962332 0.842831 0.529505
-0.595 -12.0105 13.363 -0.371538 0.892576 0.255475
-3.302 -11.1471 11.4605 -0.0613465 0.694598 0.716778
-2.162 -8.0945 7.9165 -0.909633 0.295624 0.291845
-4.34269 -10.1756 10.3532 0.0574804 0.76062 0.646648
-1.62603 -12.0646 16.4171 -0.241147 0.799142 -0.550654
-4.86794 -9.33075 16.6371 0.851016 0.0549026 -0.522261
-5.70131 -7.94219 14.2342 0.924738 -0.100025 -0.367226
-3.04312 -9.22025 8.00725 -0.450346 0.747347 0.488529
-3.82663 -9.5445 8.57913 -0.0289599 0.975135 0.219709
-2.77225 -11.4105 17.805 -0.18764 0.469214 -0.862919
-1.08025 -12.5326 15.4539 -0.267539 0.945742 -0.184376
-3.67 -3.37725 10.0363 0.0528347 0.22804 -0.972217
-0.731875 -12.3286 14.3022 -0.356289 0.916199 0.183404
-6.14825 -6.61194 11.79 0.929507 -0.355159 -0.0993885
-3.79075 -10.2222 18.0065 0.409482 -0.0532152 -0.910765
-5.271 -4.34734 9.45378 0.716884 -0.165769 -0.677199
-2.3525 -6.17938 7.56938 -0.928894 0.314033 0.196315
-4.3105 -11.2565 11.5763 0.336622 0.872277 0.354709
-2.527 -11.704 12.3365 0.176489 0.927301 0.330096
-1.66 -12.3445 13.6494 0.0749592 0.965726 0.248506
-2.55194 -2.87169 10.2829 -0.412992 0.578452 -0.703442
-5.27969 -9.23044 9.6165 0.552825 0.793218 0.255323
-2.81013 -7.37475 7.02338 -0.632572 0.310152 0.709689
-1.03 -3.787 8.5425 -0.841293 0.29785 -0.451123
-6.17556 -5.75075 9.81419 0.879245 -0.409227 -0.243849
-3.648 -2.5685 10.791 0.0512143 0.888126 -0.456737
-3.862 -11.6217 17.6195 0.410813 0.59085 -0.694355
-4.73887 -2.95038 10.0363 0.215907 0.495566 -0.841308
-5.6675 -9.7635 11.0267 0.829797 0.432144 0.353113
-6.10838 -7.2915 10.8197 0.978062 0.207388 -0.01962
-5.05225 -9.12525 8.24525 0.439157 0.814084 0.380011
-3.116 -12.246 16.7978 0.255258 0.896528 -0.36205
-2.44412 -12.6461 15.2684 0.108394 0.994106 0.00173444
-1.69987 -5.249 6.81862 -0.818807 0.560268 0.125122
-6.14838 -8.3445 12.8004 0.998638 0.0306221 -0.0422442
-5.26237 -9.369 14.8328 0.932581 0.232313 -0.276268
-4.2395 -8.5735 7.08169 0.129076 0.635443 0.761282
-4.66625 -11.0845 16.892 0.873862 0.373752 -0.310925
-3.354 -12.5258 15.707 0.334248 0.942454 0.00765007
-2.88225 -6.48225 6.32975 -0.654714 0.679947 0.330186
-2.7135 -12.04 14.0715 0.366581 0.883477 0.291696
-6.0635 -9.55275 13.222 0.961183 0.228341 -0.154877
-6.14975 -8.38775 9.2365 0.864514 0.496605 -0.0774548
-4.8805 -10.495 14.9487 0.932964 0.341581 -0.11358
-1.991 -1.967 11.037 -0.456314 0.833743 -0.310886
-5.77 -8.44 10.563 0.951713 0.306736 0.0124313
-3.58612 -11.5753 13.3752 0.367699 0.920854 0.129709
-1.62925 -2.0845 9.506 -0.672234 0.587866 -0.450016
-5.61875 -4.25737 7.6965 0.978629 0.118664 -0.167943
-6.27887 -7.16625 9.82987 0.968248 0.150609 -0.199533
-5.65947 -10.4865 12.0315 0.739189 0.670298 0.0655765
-6.351 -2.99425 8.68025 0.659098 0.746601 -0.0904267
-3.47725 -2.18625 11.8475 -0.3464 0.841313 -0.414969
-6.2445 -5.67425 8.35825 0.940384 -0.316391 0.124801
-5.82725 -2.50425 9.9965 0.185066 0.85031 -0.49267
-0.620125 -2.47038 8.16737 -0.933496 0.310793 -0.178866
-4.754 -10.953 13.301 0.543967 0.839005 -0.01308
-0.949313 -4.12856 7.11919 -0.913709 0.35722 0.193727
-5.41463 -10.342 13.8094 0.814785 0.508942 -0.277674
-6.109 -8.09013 8.2005 0.704026 0.548252 0.451407
-4.69228 -7.21006 6.58134 0.412367 0.69768 0.585829
-1.81662 -4.56588 5.56887 -0.783066 0.239221 0.574091
-4.7185 -11.2759 15.6766 0.793706 0.608294 -0.00312074
-6.60156 -7.33588 8.79594 0.994857 0.0992303 0.0203263
-3.716 -6.85975 5.448 -0.263335 0.865654 0.425791
-2.69287 -5.83144 5.22319 -0.654214 0.459018 0.601088
-2.33325 -1.6125 12.1005 -0.27871 0.82363 -0.493918
-4.07681 -11.5229 14.4209 0.611204 0.778348 0.143542
-5.79563 -5.69025 7.32412 0.957859 0.0303151 0.285636
-6.951 -2.5145 9.9525 0.21621 0.976343 0.00262576
-0.47025 -1.53 9.122 -0.559631 0.807507 -0.186402
-0.7125 -3.14287 6.77037 -0.909629 0.176453 0.376085
-0.977813 -1.33644 11.9819 -0.0664935 0.980925 -0.18266
-3.15875 -1.42963 12.8542 -0.499533 0.666475 -0.553423
-6.187 -2.8705 7.317 0.76518 0.638045 -0.0860097
-7.16125 -2.234 7.76575 0.557123 0.812604 -0.171138
-4.69075 -2.53175 13.1115 -0.350228 0.931539 -0.0978508
-0.426 -1.17206 10.6077 -0.363504 0.925447 -0.106831
-6.2165 -2.099 11.352 -0.0671779 0.99727 0.0306544
-6.22325 -6.96025 7.58225 0.827747 0.0783912 0.555599
-0.030375 -1.28225 7.4885 -0.531229 0.845946 0.0465979
-1.476 -3.1625 5.95813 -0.693237 0.143144 0.706351
-6.4485 -3.06988 6.36562 0.581447 0.599726 -0.549771
-2.817 -4.43525 4.809 -0.582432 0.0504241 0.811314
-6.111 -5.624 6.089 0.902457 0.418943 -0.100291
-8.08497 -1.88934 9.36447 0.524179 0.786561 0.326433
-0.945625 -1.96769 6.20687 -0.792355 0.33976 0.506693
-4.09312 -6.05037 4.4095 -0.137521 0.544987 0.827089
-6.624 -4.5115 5.5635 0.517749 0.639978 -0.567772
-1.63806 -0.748062 12.9071 -0.00624998 0.683988 -0.729466
-5.07044 -6.35375 5.00331 0.358455 0.754102 0.55031
3 103 143 137
3 103 137 129
3 129 130 106
3 70 106 109
3 70 82 66
3 82 109 80
3 80 133 131
3 88 120 94
3 94 115 77
3 115 134 114
3 134 115 123
3 123 115 139
3 108 103 70
3 70 66 32
3 49 41 78
3 66 80 75
3 102 75 99
3 80 66 82
3 107 131 128
3 78 112 88
3 88 71 49
3 71 77 52
3 71 52 49
3 115 114 91
3 51 70 32
3 32 16 45
3 49 30 41
3 30 23 8
3 8 23 9
3 52 33 30
3 23 24 9
3 47 76 58
3 43 63 47
3 63 76 47
3 114 85 91
3 104 100 97
3 76 100 83
3 83 58 76
3 84 89 100
3 83 100 89
3 35 16 12
3 16 8 5
3 5 12 16
3 0 1 2
3 15 2 1
3 27 15 31
3 15 9 24
3 83 96 105
3 89 61 96
3 35 12 20
3 20 12 6
3 6 3 19
3 19 20 6
3 19 11 25
3 36 19 25
3 25 11 18
3 28 29 44
3 54 31 56
3 54 56 73
3 74 73 101
3 101 72 111
3 101 122 95
3 98 122 113
3 111 113 122
3 113 61 90
3 61 38 50
3 61 35 38
3 20 38 35
3 61 50 60
3 61 60 90
3 69 36 48
3 40 18 37
3 40 37 59
3 10 28 17
3 67 46 44
3 67 44 55
3 117 122 98
3 98 60 92
3 141 110 135
3 102 125 110
3 110 125 135
3 127 132 99
3 99 121 127
3 144 127 121
3 144 121 128
3 106 124 109
3 124 106 140
3 130 140 106
3 123 139 103
3 103 139 143
3 70 103 106
3 106 103 129
3 88 116 120
3 120 116 138
3 138 116 136
3 94 120 119
3 119 120 142
3 119 142 145
3 94 119 115
3 145 115 119
3 115 91 77
3 114 134 118
3 134 123 108
3 79 104 118
3 79 118 108
3 134 108 118
3 108 70 79
3 32 66 41
3 102 78 75
3 75 41 66
3 41 75 78
3 99 75 107
3 99 107 121
3 107 75 80
3 128 121 107
3 126 141 136
3 112 126 136
3 116 88 112
3 116 112 136
3 57 52 77
3 33 52 57
3 33 57 43
3 62 43 57
3 62 57 77
3 62 77 91
3 63 43 62
3 85 63 91
3 91 63 62
3 114 118 97
3 97 118 104
3 84 104 68
3 68 104 79
3 68 79 51
3 70 51 79
3 51 45 68
3 16 32 21
3 16 21 8
3 41 30 21
3 41 21 32
3 21 30 8
3 24 23 33
3 24 33 43
3 33 23 30
3 85 76 63
3 76 85 114
3 76 114 97
3 76 97 100
3 68 89 84
3 89 68 53
3 53 68 45
3 53 45 35
3 5 8 1
3 6 0 3
3 5 0 6
3 0 5 1
3 13 2 15
3 13 15 27
3 24 31 15
3 24 56 31
3 58 72 56
3 72 58 83
3 72 83 105
3 113 111 105
3 113 105 96
3 113 96 61
3 53 61 89
3 35 61 53
3 6 12 5
3 20 19 38
3 38 19 34
3 38 34 50
3 19 36 39
3 19 39 34
3 34 39 50
3 7 4 17
3 4 7 18
3 4 18 11
3 10 17 4
3 10 4 2
3 2 4 0
3 0 4 3
3 3 4 11
3 28 14 29
3 29 14 13
3 14 2 13
3 27 29 13
3 10 2 14
3 10 14 28
3 55 44 29
3 55 29 42
3 42 29 27
3 54 55 42
3 54 42 31
3 31 42 27
3 55 54 74
3 73 74 54
3 72 101 73
3 72 73 56
3 105 111 72
3 36 60 39
3 39 60 50
3 92 81 86
3 81 92 69
3 36 69 60
3 60 69 92
3 48 64 69
3 69 64 81
3 86 81 64
3 86 64 59
3 40 64 48
3 18 40 25
3 25 40 48
3 25 48 36
3 22 37 18
3 26 37 22
3 26 22 17
3 17 22 7
3 7 22 18
3 46 37 26
3 46 26 28
3 28 26 17
3 74 67 55
3 59 65 87
3 87 65 74
3 87 74 95
3 74 65 67
3 59 93 86
3 93 87 95
3 87 93 59
3 117 86 93
3 117 93 122
3 122 93 95
3 92 86 117
3 98 92 117
3 65 59 37
3 65 46 67
3 46 65 37
3 110 126 112
3 110 112 78
3 110 78 102
3 141 126 110
3 137 130 129
3 109 82 70
3 80 109 133
3 123 103 108
3 131 107 80
3 88 94 71
3 77 71 94
3 51 32 45
3 52 30 49
3 78 88 49
3 125 102 132
3 132 102 99
3 84 100 104
3 45 16 35
3 9 1 8
3 9 15 1
3 24 58 56
3 83 89 96
3 3 11 19
3 111 122 101
3 28 44 46
3 101 95 74
3 113 90 98
3 98 90 60
3 40 59 64
3 24 43 47
3 24 47 58
