ply
format ascii 1.0
comment Generated by PyMesh
element vertex 163
property float x
property float y
property float z
property float nx
property float ny
property float nz
element face 296
property list uchar int vertex_indices
end_header
-6.14838 -8.3445 12.8004 0.998638 0.0306221 -0.0422442
-6.0635 -9.55275 13.222 0.961183 0.228341 -0.154877
-5.70131 -7.94219 14.2342 0.924738 -0.100025 -0.367226
-6.14825 -6.61194 11.79 0.929507 -0.355159 -0.0993885
-6.10838 -7.2915 10.8197 0.978062 0.207388 -0.01962
-5.77 -8.44 10.563 0.951713 0.306736 0.0124313
-5.725 -6.1115 13.164 0.778413 -0.53643 -0.326062
-5.6675 -9.7635 11.0267 0.829797 0.432144 0.353113
-5.41463 -10.342 13.8094 0.814785 0.508942 -0.277674
-5.65947 -10.4865 12.0315 0.739189 0.670298 0.0655765
-5.26237 -9.369 14.8328 0.932581 0.232313 -0.276268
-6.27887 -7.16625 9.82987 0.968248 0.150609 -0.199533
-4.87 -7.05025 15.4299 0.602014 -0.722362 -0.340253
-5.308 -5.77575 12.31 0.323934 -0.933786 -0.152023
-4.83238 -6.22475 14.045 0.337459 -0.863933 -0.373821
-4.754 -10.953 13.301 0.543967 0.839005 -0.01308
-5.27969 -9.23044 9.6165 0.552825 0.793218 0.255323
-6.14975 -8.38775 9.2365 0.864514 0.496605 -0.0774548
-4.8805 -10.495 14.9487 0.932964 0.341581 -0.11358
-4.92338 -5.55363 11.0901 0.467586 -0.821285 -0.326885
-5.04875 -7.88225 16.3645 0.850945 -0.254382 -0.459545
-4.34269 -10.1756 10.3532 0.0574804 0.76062 0.646648
-6.17556 -5.75075 9.81419 0.879245 -0.409227 -0.243849
-4.07681 -11.5229 14.4209 0.611204 0.778348 0.143542
-6.60156 -7.33588 8.79594 0.994857 0.0992303 0.0203263
-4.3105 -11.2565 11.5763 0.336622 0.872277 0.354709
-4.4885 -6.99975 16.5465 0.437605 -0.720127 -0.538441
-4.86794 -9.33075 16.6371 0.851016 0.0549026 -0.522261
-3.731 -6.37675 15.2506 0.146035 -0.903592 -0.402736
-6.109 -8.09013 8.2005 0.704026 0.548252 0.451407
-4.7185 -11.2759 15.6766 0.793706 0.608294 -0.00312074
-3.58612 -11.5753 13.3752 0.367699 0.920854 0.129709
-4.30062 -7.94225 17.1379 0.324397 -0.263037 -0.908613
-5.05225 -9.12525 8.24525 0.439157 0.814084 0.380011
-3.57711 -9.55381 9.77205 -0.197054 0.922204 0.33273
-3.67925 -5.23994 10.9784 -0.0577555 -0.859388 -0.508052
-3.82663 -9.5445 8.57913 -0.0289599 0.975135 0.219709
-3.302 -11.1471 11.4605 -0.0613465 0.694598 0.716778
-2.83406 -7.02481 16.3614 -0.213924 -0.73017 -0.648913
-6.2445 -5.67425 8.35825 0.940384 -0.316391 0.124801
-2.78744 -5.99862 13.4154 -0.0566234 -0.97951 -0.193273
-6.22325 -6.96025 7.58225 0.827747 0.0783912 0.555599
-4.66625 -11.0845 16.892 0.873862 0.373752 -0.310925
-5.271 -4.34734 9.45378 0.716884 -0.165769 -0.677199
-2.7135 -12.04 14.0715 0.366581 0.883477 0.291696
-2.68963 -5.70463 12.3524 -0.260663 -0.948494 -0.180039
-2.77375 -9.09387 9.28175 -0.625672 0.758327 0.182961
-3.23534 -8.48941 17.304 0.0843109 -0.374124 -0.923538
-3.354 -12.5258 15.707 0.334248 0.942454 0.00765007
-2.527 -11.704 12.3365 0.176489 0.927301 0.330096
-3.79075 -10.2222 18.0065 0.409482 -0.0532152 -0.910765
-3.04312 -9.22025 8.00725 -0.450346 0.747347 0.488529
-1.88644 -9.22363 10.6494 -0.616614 0.425512 0.662365
-4.2395 -8.5735 7.08169 0.129076 0.635443 0.761282
-1.91937 -6.21275 14.6142 -0.314087 -0.892927 -0.322539
-2.61469 -4.94441 9.86416 -0.775368 -0.219062 -0.592297
-5.79563 -5.69025 7.32412 0.957859 0.0303151 0.285636
-2.011 -5.875 11.0615 -0.733903 -0.671001 -0.105567
-1.66 -12.3445 13.6494 0.0749592 0.965726 0.248506
-1.52013 -6.21325 13.1946 -0.53448 -0.837967 0.110193
-3.862 -11.6217 17.6195 0.410813 0.59085 -0.694355
-3.116 -12.246 16.7978 0.255258 0.896528 -0.36205
-4.69228 -7.21006 6.58134 0.412367 0.69768 0.585829
-3.67 -3.37725 10.0363 0.0528347 0.22804 -0.972217
-2.44412 -12.6461 15.2684 0.108394 0.994106 0.00173444
-1.7585 -6.495 11.9974 -0.875271 -0.44215 0.195971
-2.13225 -8.094 9.39625 -0.947777 0.184363 0.260248
-5.61875 -4.25737 7.6965 0.978629 0.118664 -0.167943
-1.30838 -7.12044 15.2753 -0.452784 -0.683757 -0.572243
-1.40675 -8.23525 16.089 -0.400395 -0.658658 -0.637066
-4.73887 -2.95038 10.0363 0.215907 0.495566 -0.841308
-1.37625 -11.8694 12.1976 -0.0962332 0.842831 0.529505
-1.33125 -10.4866 11.3071 -0.287108 0.373615 0.882032
-2.68175 -10.0616 18.0147 -0.147886 -0.169386 -0.974391
-1.70119 -8.70938 17.1994 -0.367204 -0.522871 -0.769264
-1.463 -8.376 11.3333 -0.806276 -0.255371 0.533577
-6.351 -2.99425 8.68025 0.659098 0.746601 -0.0904267
-5.82725 -2.50425 9.9965 0.185066 0.85031 -0.49267
-2.162 -8.0945 7.9165 -0.909633 0.295624 0.291845
-1.71375 -7.84975 10.351 -0.959066 -0.0283712 0.281756
-2.77225 -11.4105 17.805 -0.18764 0.469214 -0.862919
-6.111 -5.624 6.089 0.902457 0.418943 -0.100291
-0.731875 -12.3286 14.3022 -0.356289 0.916199 0.183404
-1.62603 -12.0646 16.4171 -0.241147 0.799142 -0.550654
-0.595 -12.0105 13.363 -0.371538 0.892576 0.255475
-1.90625 -6.818 10.2917 -0.962724 -0.18519 0.197148
-0.571625 -9.07475 11.6154 -0.446835 -0.276825 0.850709
-2.309 -6.189 8.945 -0.990824 0.123307 -0.0553434
-3.648 -2.5685 10.791 0.0512143 0.888126 -0.456737
-2.81013 -7.37475 7.02338 -0.632572 0.310152 0.709689
-2.55194 -2.87169 10.2829 -0.412992 0.578452 -0.703442
-1.08025 -12.5326 15.4539 -0.267539 0.945742 -0.184376
-2.18438 -7.15963 8.50113 -0.97819 -0.0684411 0.19611
-0.359 -11.5591 12.3024 -0.345776 0.698796 0.626197
-0.950875 -7.54581 12.4346 -0.632297 -0.545991 0.549632
-1.69675 -10.2355 17.6903 -0.451623 0.102526 -0.886298
-3.716 -6.85975 5.448 -0.263335 0.865654 0.425791
-0.464 -8.9755 16.604 -0.386586 -0.387961 -0.836683
-6.187 -2.8705 7.317 0.76518 0.638045 -0.0860097
-5.07044 -6.35375 5.00331 0.358455 0.754102 0.55031
0.031 -7.35913 13.8882 -0.612271 -0.790601 0.00867966
-0.02625 -10.5835 11.7972 -0.321326 0.311059 0.894423
-6.951 -2.5145 9.9525 0.21621 0.976343 0.00262576
-1.03 -3.787 8.5425 -0.841293 0.29785 -0.451123
-2.88225 -6.48225 6.32975 -0.654714 0.679947 0.330186
-7.16125 -2.234 7.76575 0.557123 0.812604 -0.171138
0.35525 -11.5347 13.7522 -0.562823 0.806709 0.18014
0.243813 -11.8969 14.8194 -0.612517 0.78779 -0.0648907
-6.4485 -3.06988 6.36562 0.581447 0.599726 -0.549771
-6.2165 -2.099 11.352 -0.0671779 0.99727 0.0306544
-6.624 -4.5115 5.5635 0.517749 0.639978 -0.567772
-3.47725 -2.18625 11.8475 -0.3464 0.841313 -0.414969
-2.3525 -6.17938 7.56938 -0.928894 0.314033 0.196315
0.717875 -8.19975 15.5052 -0.62321 -0.649262 -0.435968
-0.125625 -11.4201 16.4508 -0.505807 0.513905 -0.692864
-6.183 -5.011 4.536 0.30348 0.907268 0.291145
-1.991 -1.967 11.037 -0.456314 0.833743 -0.310886
1.0125 -9.58212 11.8576 -0.547629 -0.0482876 0.835327
-1.62925 -2.0845 9.506 -0.672234 0.587866 -0.450016
-8.08497 -1.88934 9.36447 0.524179 0.786561 0.326433
0.863875 -10.9526 12.4683 -0.584743 0.680737 0.441217
-4.09312 -6.05037 4.4095 -0.137521 0.544987 0.827089
-5.116 -5.535 4.308 0.188106 0.463336 0.865988
-2.69287 -5.83144 5.22319 -0.654214 0.459018 0.601088
0.859375 -9.032 16.0446 -0.710914 -0.271388 -0.648807
-7.99203 -2.64528 11.2072 -0.0144315 0.992396 0.122235
1.14525 -8.562 12.9073 -0.669011 -0.647723 0.364526
-0.620125 -2.47038 8.16737 -0.933496 0.310793 -0.178866
0.578125 -10.3691 16.4349 -0.656737 0.0802966 -0.749832
-0.949313 -4.12856 7.11919 -0.913709 0.35722 0.193727
-8.17025 -1.88312 7.04 0.329029 0.739171 -0.587679
-7.5915 -4.8935 5.11925 0.355514 0.720587 -0.595285
1.3825 -10.685 14.0083 -0.884948 0.461274 -0.0639818
-7.69875 -3.17213 5.98338 0.299425 0.616534 -0.728169
-1.69987 -5.249 6.81862 -0.818807 0.560268 0.125122
-3.15875 -1.42963 12.8542 -0.499533 0.666475 -0.553423
-2.33325 -1.6125 12.1005 -0.27871 0.82363 -0.493918
-5.72906 -2.47112 12.6509 -0.0788777 0.986902 0.140719
-4.69075 -2.53175 13.1115 -0.350228 0.931539 -0.0978508
1.146 -10.677 15.4235 -0.849498 0.391589 -0.353568
-8.26437 -1.01525 8.31125 0.555904 0.831173 -0.0110874
-3.95025 -4.98125 4.1915 -0.364018 0.223478 0.904184
1.367 -8.79813 14.2028 -0.938835 -0.300511 -0.168172
-7.58725 -5.17525 4.094 -0.109349 0.717811 -0.687598
-0.47025 -1.53 9.122 -0.559631 0.807507 -0.186402
-0.977813 -1.33644 11.9819 -0.0664935 0.980925 -0.18266
-9.06 -0.9825 9.4 0.709073 0.625695 0.325148
1.30375 -9.7405 15.091 -0.953067 -0.0709761 -0.294322
-4.75725 -4.3725 3.745 -0.31198 0.546455 0.77721
1.891 -9.97425 13.0087 -0.975146 0.0577273 0.213912
-0.426 -1.17206 10.6077 -0.363504 0.925447 -0.106831
-2.817 -4.43525 4.809 -0.582432 0.0504241 0.811314
-0.7125 -3.14287 6.77037 -0.909629 0.176453 0.376085
-8.982 -2.2765 6.4235 0.208589 0.693139 -0.689962
-8.35437 -4.16412 4.94775 0.570471 0.599126 -0.561793
-9.14338 -2.21881 10.6134 0.525658 0.686227 0.502768
-1.81662 -4.56588 5.56887 -0.783066 0.239221 0.574091
-6.11369 -4.90406 2.41894 -0.720725 0.693096 -0.0131379
-8.9555 -3.102 5.67 0.401153 0.74822 -0.528435
-0.030375 -1.28225 7.4885 -0.531229 0.845946 0.0465979
-9.42325 -2.72775 11.9522 0.61736 0.784708 -0.0556738
-4.765 -2.518 14.248 -0.364464 0.919285 -0.148599
-3.69738 -1.33834 13.9881 -0.730711 0.470451 -0.494709
3 154 158 133
3 133 153 130
3 130 140 105
3 130 105 133
3 140 119 105
3 77 102 125
3 146 119 140
3 148 115 122
3 148 122 141
3 67 110 108
3 133 108 110
3 110 131 133
3 67 108 98
3 98 105 76
3 43 76 77
3 43 70 63
3 70 77 88
3 88 109 138
3 109 137 138
3 137 109 125
3 134 123 104
3 104 62 89
3 62 41 29
3 41 62 56
3 56 62 81
3 39 67 43
3 43 63 35
3 87 55 103
3 63 88 90
3 118 90 116
3 88 63 70
3 111 138 135
3 103 129 134
3 134 112 87
3 112 89 92
3 112 92 87
3 62 29 53
3 19 43 35
3 35 45 13
3 87 85 55
3 85 79 65
3 65 79 75
3 92 66 85
3 79 52 75
3 34 16 21
3 46 36 34
3 36 16 34
3 29 33 53
3 11 5 17
3 16 5 7
3 7 21 16
3 4 0 5
3 7 5 0
3 14 45 40
3 45 65 59
3 59 40 45
3 100 94 126
3 86 126 94
3 101 86 72
3 86 75 52
3 7 1 9
3 0 2 1
3 14 40 28
3 28 40 54
3 54 68 38
3 38 28 54
3 38 69 74
3 47 38 74
3 74 69 97
3 132 120 106
3 71 72 37
3 71 37 49
3 58 49 31
3 31 25 15
3 31 23 44
3 18 23 8
3 15 8 23
3 8 2 10
3 2 12 20
3 2 14 12
3 28 12 14
3 2 20 27
3 2 27 10
3 50 47 73
3 95 97 114
3 95 114 83
3 142 132 147
3 82 107 106
3 82 106 84
3 30 23 18
3 18 27 42
3 118 144 127
3 127 144 159
3 145 150 116
3 116 136 145
3 115 143 110
3 110 143 131
3 143 154 131
3 133 131 154
3 133 158 153
3 76 102 77
3 102 76 119
3 105 119 76
3 125 102 119
3 155 125 119
3 155 119 146
3 141 122 121
3 121 122 99
3 56 81 67
3 115 99 122
3 99 115 62
3 62 115 81
3 67 81 110
3 110 81 115
3 43 67 76
3 76 67 98
3 161 138 137
3 134 156 123
3 123 156 151
3 104 123 96
3 96 123 121
3 96 121 99
3 121 123 141
3 151 141 123
3 104 96 62
3 99 62 96
3 62 53 89
3 29 41 24
3 41 56 39
3 22 11 24
3 22 24 39
3 41 39 24
3 39 43 22
3 35 63 55
3 118 103 90
3 90 55 63
3 55 90 103
3 116 90 111
3 116 111 136
3 111 90 88
3 135 136 111
3 162 135 138
3 161 162 138
3 155 160 125
3 156 134 129
3 78 92 89
3 66 92 78
3 66 78 46
3 51 46 78
3 51 78 89
3 51 89 53
3 36 46 51
3 33 36 53
3 53 36 51
3 29 24 17
3 17 24 11
3 4 11 3
3 3 11 22
3 3 22 19
3 43 19 22
3 19 13 3
3 45 35 57
3 45 57 65
3 55 85 57
3 55 57 35
3 57 85 65
3 52 79 66
3 52 66 46
3 66 79 85
3 33 16 36
3 16 33 29
3 16 29 17
3 16 17 5
3 3 0 4
3 0 3 6
3 6 3 13
3 6 13 14
3 59 65 94
3 54 100 68
3 59 100 54
3 100 59 94
3 117 126 86
3 117 86 101
3 52 72 86
3 52 37 72
3 21 25 37
3 25 21 7
3 25 7 9
3 8 15 9
3 8 9 1
3 8 1 2
3 6 2 0
3 14 2 6
3 54 40 59
3 28 38 12
3 12 38 26
3 12 26 20
3 38 47 32
3 38 32 26
3 26 32 20
3 124 113 147
3 113 124 97
3 113 97 69
3 142 147 113
3 142 113 126
3 126 113 100
3 100 113 68
3 68 113 69
3 132 149 120
3 120 149 117
3 149 126 117
3 101 120 117
3 142 126 149
3 142 149 132
3 84 106 120
3 84 120 93
3 93 120 101
3 71 84 93
3 71 93 72
3 72 93 101
3 84 71 58
3 49 58 71
3 25 31 49
3 25 49 37
3 9 15 25
3 47 27 32
3 32 27 20
3 42 60 61
3 60 42 50
3 47 50 27
3 27 50 42
3 73 80 50
3 50 80 60
3 61 60 80
3 61 80 83
3 95 80 73
3 97 95 74
3 74 95 73
3 74 73 47
3 128 114 97
3 139 114 128
3 139 128 147
3 147 128 124
3 124 128 97
3 107 114 139
3 107 139 132
3 132 139 147
3 58 82 84
3 83 91 64
3 64 91 58
3 64 58 44
3 58 91 82
3 83 48 61
3 48 64 44
3 64 48 83
3 30 61 48
3 30 48 23
3 23 48 44
3 42 61 30
3 18 42 30
3 91 83 114
3 91 107 82
3 107 91 114
3 127 152 129
3 127 129 103
3 127 103 118
3 115 157 143
3 108 133 105
3 108 105 98
3 77 70 43
3 125 109 77
3 88 77 109
3 56 67 39
3 138 111 88
3 134 104 112
3 89 112 104
3 19 35 13
3 92 85 87
3 103 134 87
3 144 118 150
3 150 118 116
3 4 5 11
3 13 45 14
3 75 94 65
3 75 86 94
3 52 21 37
3 7 0 1
3 68 69 38
3 15 23 31
3 132 106 107
3 31 44 58
3 8 10 18
3 18 10 27
3 95 83 80
3 52 46 34
3 52 34 21
