ply
format ascii 1.0
comment Generated by PyMesh
element vertex 200
property float x
property float y
property float z
property float charge
property float ddc
property float hbond
property float hphob
property float rho
property float si
property float theta
property float nx
property float ny
property float nz
element face 345
property list uchar int vertex_indices
end_header
-4.69228 -7.21006 6.58134 0.7131 0 0.096704 -0.777778 1e-08 -0.0381626 2.22045e-16 0.412367 0.69768 0.585829
-4.2395 -8.5735 7.08169 0.515497 0.188414 0 -0.918367 1.52129 -0.999835 4.82632 0.129076 0.635443 0.761282
-3.716 -6.85975 5.448 0.579937 -0.450222 0.268141 -1 1.53633 -0.999864 0.524967 -0.263335 0.865654 0.425791
-5.07044 -6.35375 5.00331 0.6309 0.0548872 0.265465 -0.957747 1.83479 -0.625621 1.23337 0.358455 0.754102 0.55031
-6.22325 -6.96025 7.58225 0.517227 -0.412288 0 -0.777778 1.8461 -0.999844 3.42956 0.827747 0.0783912 0.555599
-2.81013 -7.37475 7.02338 0.598937 -0.55607 0.0306396 -1 1.94036 -0.310992 5.79505 -0.632572 0.310152 0.709689
-2.88225 -6.48225 6.32975 0.59626 -0.544232 0.800479 -1 1.96703 0.105173 2.22045e-16 -0.654714 0.679947 0.330186
-5.79563 -5.69025 7.32412 0.66977 -0.465577 0.297821 -0.863844 2.01963 0.225146 2.82419 0.957859 0.0303151 0.285636
-6.111 -5.624 6.089 0.57352 -0.42779 0.517632 -0.801127 2.18421 -0.586464 2.27471 0.902457 0.418943 -0.100291
-6.109 -8.09013 8.2005 0.609747 -0.170382 0.0100599 -0.777778 2.3245 -0.999782 3.94805 0.704026 0.548252 0.451407
-4.09312 -6.05037 4.4095 0.490923 -0.224726 0 -1 2.90592 -0.999878 0.94751 -0.137521 0.544987 0.827089
-5.116 -5.535 4.308 0.53344 -0.132758 0.132085 -1 2.90991 -0.573461 1.34804 0.188106 0.463336 0.865988
-2.69287 -5.83144 5.22319 0.455863 -0.378862 0.425143 -1 3.00424 -0.739062 0.431582 -0.654214 0.459018 0.601088
-5.05225 -9.12525 8.24525 0.259349 -0.110026 0.0785852 0.778944 3.04407 -0.999817 4.46011 0.439157 0.814084 0.380011
-6.2445 -5.67425 8.35825 0.839817 -0.445598 0.48189 -0.866667 3.14709 -0.593974 3.12862 0.940384 -0.316391 0.124801
-3.04312 -9.22025 8.00725 0.43946 -0.282724 0 0.844444 3.16637 -0.999875 5.0942 -0.450346 0.747347 0.488529
-6.60156 -7.33588 8.79594 0.630253 -0.357118 0 -0.256651 3.17172 -0.999867 3.67991 0.994857 0.0992303 0.0203263
-2.162 -8.0945 7.9165 0.50133 -0.46183 0 -0.0888889 3.25785 -0.999892 5.48312 -0.909633 0.295624 0.291845
-2.3525 -6.17938 7.56938 0.610377 -0.518624 0.281908 -0.506213 3.33193 0.253721 6.00399 -0.928894 0.314033 0.196315
-6.183 -5.011 4.536 0.226191 0.120798 0.967173 -1 3.35284 0.0722563 1.70918 0.30348 0.907268 0.291145
-3.82663 -9.5445 8.57913 0.41984 -0.200384 0 0.913713 3.35313 -0.8139 4.79466 -0.0289599 0.975135 0.219709
-6.14975 -8.38775 9.2365 0.642467 -0.269393 0 0.597371 3.40317 -0.682244 4.00284 0.864514 0.496605 -0.0774548
-5.61875 -4.25737 7.6965 1 -0.348281 0.473898 -0.866667 3.51064 0.429686 2.73154 0.978629 0.118664 -0.167943
-6.624 -4.5115 5.5635 0.468287 0.34577 0 -0.866667 3.51724 0.1465 2.05681 0.517749 0.639978 -0.567772
-2.18438 -7.15963 8.50113 0.52569 -0.508812 0 -0.0888889 3.55949 -0.211752 5.64774 -0.97819 -0.0684411 0.19611
-1.69987 -5.249 6.81862 0.450617 -0.362444 0.09057 -0.79922 3.74409 -0.615685 0.0246123 -0.818807 0.560268 0.125122
-3.95025 -4.98125 4.1915 0.403797 -0.273409 0.703378 -1 4.00636 -0.439848 0.971064 -0.364018 0.223478 0.904184
-4.75725 -4.3725 3.745 0.240903 -0.178886 0 -1 4.25046 0.137715 1.2468 -0.31198 0.546455 0.77721
-6.27887 -7.16625 9.82987 0.573587 -0.317264 0 -0.0888889 4.26804 -0.176118 3.7609 0.968248 0.150609 -0.199533
-5.27969 -9.23044 9.6165 0.54384 -0.114327 0 1 4.32278 -0.152386 4.33657 0.552825 0.793218 0.255323
-2.817 -4.43525 4.809 0.438413 -0.307381 0.745353 -1 4.46585 -0.632374 0.637928 -0.582432 0.0504241 0.811314
-2.77375 -9.09387 9.28175 0.433723 -0.287474 0 0.844444 4.47514 -0.218317 5.04405 -0.625672 0.758327 0.182961
-3.57711 -9.55381 9.77205 0.436577 -0.166157 0 0.913024 4.5719 0.132051 4.77852 -0.197054 0.922204 0.33273
-1.81662 -4.56588 5.56887 0.41354 -0.307843 0.340609 -1 4.58188 -0.672701 0.356538 -0.783066 0.239221 0.574091
-6.17556 -5.75075 9.81419 0.51025 -0.386354 0 -0.0888889 4.60667 -0.485206 3.43717 0.879245 -0.409227 -0.243849
-2.309 -6.189 8.945 0.43995 -0.463343 0 -0.0888889 4.63405 0.159897 5.7922 -0.990824 0.123307 -0.0553434
-7.5915 -4.8935 5.11925 -0.00991547 0.305609 0.514298 -0.866667 4.64832 -0.813618 2.04257 0.355514 0.720587 -0.595285
-2.13225 -8.094 9.39625 0.419197 -0.37391 0 0.107925 4.7379 -0.0980801 5.31489 -0.947777 0.184363 0.260248
-5.77 -8.44 10.563 0.568423 -0.214153 0 -0.0888889 4.78395 0.23855 4.11027 0.951713 0.306736 0.0124313
-7.58725 -5.17525 4.094 -0.0551233 0.323128 0.672859 -1 4.83414 0.185181 1.80612 -0.109349 0.717811 -0.687598
-6.187 -2.8705 7.317 0.785327 -0.174429 0.122961 -0.866667 5.05671 0.873616 2.57282 0.76518 0.638045 -0.0860097
-5.271 -4.34734 9.45378 0.429117 -0.388583 0 -0.2 5.12411 0.0790899 3.12253 0.716884 -0.165769 -0.677199
-0.949313 -4.12856 7.11919 0.359443 -0.286516 0 -0.584002 5.12577 -0.611672 0.107128 -0.913709 0.35722 0.193727
-6.4485 -3.06988 6.36562 0.82373 0.265196 0.232478 -0.866667 5.17629 0.999867 2.36072 0.581447 0.599726 -0.549771
-6.351 -2.99425 8.68025 0.534287 -0.154285 0 -0.533636 5.27116 -0.0896829 2.67374 0.659098 0.746601 -0.0904267
-6.10838 -7.2915 10.8197 0.50502 -0.224445 0 -0.0888889 5.28022 0.0510481 3.89245 0.978062 0.207388 -0.01962
-7.69875 -3.17213 5.98338 0.781853 0.267305 0.112886 -0.866667 5.28509 0.118032 2.17478 0.299425 0.616534 -0.728169
-4.98606 -4.13831 2.75444 0.0453553 0.228883 0 -1 5.29373 -0.448578 1.30705 -0.707196 0.630495 0.319921
-1.90625 -6.818 10.2917 0.36039 -0.354869 -0.276012 -0.372184 5.40346 -0.273895 5.48769 -0.962724 -0.18519 0.197148
-6.11369 -4.90406 2.41894 0.0869857 0.255122 0 -1 5.47373 0.106526 1.55372 -0.720725 0.693096 -0.0131379
-4.05363 -3.21913 3.93375 0.0999057 -0.238637 0 -1 5.61463 0.525863 1.0334 -0.710511 0.29783 0.637551
-3.12075 -3.278 4.64725 0.334693 -0.249556 0 -1 5.67318 0.461773 0.761913 -0.612575 0.0962018 0.784536
-4.34269 -10.1756 10.3532 0.501757 -0.0679447 0 0.960233 5.71666 -0.382665 4.59175 0.0574804 0.76062 0.646648
-8.35437 -4.16412 4.94775 -0.453847 0.239107 -0.475452 -0.816929 5.7176 -0.0223487 2.00312 0.570471 0.599126 -0.561793
-1.71375 -7.84975 10.351 0.248422 -0.320103 -0.236758 -0.347251 5.80858 -0.791293 5.31591 -0.959066 -0.0283712 0.281756
-5.6675 -9.7635 11.0267 0.39355 -0.112463 0 0.661547 5.87945 -0.536952 4.32114 0.829797 0.432144 0.353113
-1.476 -3.1625 5.95813 0.62033 -0.230698 0.397828 -1 6.07754 0.0432137 0.356538 -0.693237 0.143144 0.706351
-1.03 -3.787 8.5425 0.191599 -0.309975 -0.000550657 -0.0888889 6.10161 -0.66072 0.107128 -0.841293 0.29785 -0.451123
-1.88644 -9.22363 10.6494 0.397807 -0.192281 0 0.844444 6.11057 -0.0799102 5.31591 -0.616614 0.425512 0.662365
-7.01625 -5.99675 3.2625 0.0142378 0.380211 -0.13483 -0.961342 6.13502 -0.678956 1.80612 -0.752426 0.433991 -0.495487
-0.7125 -3.14287 6.77037 0.40072 -0.246596 0 -1 6.19785 -0.786713 0.107128 -0.909629 0.176453 0.376085
-2.61469 -4.94441 9.86416 0.323553 -0.423068 0 -0.0888889 6.21117 0.0684234 5.7922 -0.775368 -0.219062 -0.592297
-7.16125 -2.234 7.76575 0.524633 -0.14517 0.104137 -0.866667 6.30398 0.213785 2.57282 0.557123 0.812604 -0.171138
-6.14825 -6.61194 11.79 0.412833 -0.254282 0 -0.120257 6.30922 -0.444363 3.89245 0.929507 -0.355159 -0.0993885
-8.94312 -4.58262 4.06213 -0.560117 0.275145 -0.0572364 -0.777778 6.31421 0.0691205 2.00312 0.560501 0.160938 -0.812366
-4.92338 -5.55363 11.0901 0.315841 -0.371067 0 -0.2 6.40522 0.080399 3.43717 0.467586 -0.821285 -0.326885
-7.96863 -6.67513 3.78638 -0.661683 0.333276 -0.306906 -0.777778 6.41203 -0.999901 1.80612 -0.299107 0.692448 -0.656544
-4.561 -3.0465 2.529 0.146464 0.212578 0.0175719 -1 6.48685 0.268546 1.30705 -0.805122 0.509933 0.302898
-8.9555 -3.102 5.67 -0.219211 0.192558 -0.300687 -0.821164 6.58222 -0.278896 2.17478 0.401153 0.74822 -0.528435
-9.01975 -6.191 4.01325 -0.53754 0.319281 0 -0.777778 6.59207 -0.871548 1.80612 0.243692 0.223039 -0.943858
-2.011 -5.875 11.0615 0.37523 -0.35222 -0.0252554 -0.253553 6.62527 -0.495688 5.48769 -0.733903 -0.671001 -0.105567
-3.2065 -2.32675 4.27975 0.130018 -0.193391 0 -1 6.69655 0.539275 0.761913 -0.661631 0.374437 0.649648
-6.46925 -5.10881 1.25181 -0.019668 0.199448 0 -0.880138 6.71088 -0.259342 1.55372 -0.779521 0.411465 0.472275
-4.73887 -2.95038 10.0363 0.168411 -0.270799 0 -0.2 6.72847 0.440618 3.12253 0.215907 0.495566 -0.841308
-6.951 -2.5145 9.9525 0.198646 -0.113273 0 -0.2 6.75736 -0.0955885 2.67374 0.21621 0.976343 0.00262576
-5.82725 -2.50425 9.9965 0.16658 -0.193034 0 -0.2 6.77014 0.279194 2.67374 0.185066 0.85031 -0.49267
-8.982 -2.2765 6.4235 0.0985167 0.202387 0 -0.866667 6.91069 0.225585 2.17478 0.208589 0.693139 -0.689962
-1.463 -8.376 11.3333 0.176508 -0.258146 -0.105314 -1 6.95082 0.32598 5.31591 -0.806276 -0.255371 0.533577
-5.76875 -4.03025 1.206 -0.335113 0.168165 0.547276 -1 7.00792 -0.502144 1.55372 -0.659128 0.428587 0.617951
-8.17025 -1.88312 7.04 0.270622 0.190138 0.232979 -0.866667 7.01723 0.677647 2.17478 0.329029 0.739171 -0.587679
-5.19125 -3.15313 1.31638 -0.263014 0.150608 0 -0.777778 7.04892 -0.201481 1.30705 -0.612573 0.506803 0.606552
-6.14838 -8.3445 12.8004 0.305386 -0.173151 0 -0.0888889 7.05513 -0.577007 3.89245 0.998638 0.0306221 -0.0422442
-3.67 -3.37725 10.0363 0.238417 -0.321418 0 -0.2 7.08462 0.259178 3.12253 0.0528347 0.22804 -0.972217
-0.620125 -2.47038 8.16737 0.103473 -0.24507 -0.60344 -0.38732 7.1149 -0.131727 0.107128 -0.933496 0.310793 -0.178866
-5.65947 -10.4865 12.0315 0.227417 -0.103559 -0.128585 -0.0888889 7.11735 -0.867021 4.32114 0.739189 0.670298 0.0655765
-1.7585 -6.495 11.9974 0.3505 -0.280211 0 -1 7.14575 0.0230992 5.48769 -0.875271 -0.44215 0.195971
-7.35575 -6.70587 2.56169 -0.151647 0.269601 0 -0.485396 7.18823 -0.712272 1.55372 -0.706322 0.699094 -0.111252
-3.709 -1.9195 3.02475 -0.0954547 0.185306 0 -1 7.23762 0.676436 1.0334 -0.766861 0.573532 0.288072
-4.3105 -11.2565 11.5763 0.575097 -0.0510362 0 -0.0888889 7.34925 -0.758212 4.59175 0.336622 0.872277 0.354709
-0.945625 -1.96769 6.20687 0.41249 -0.189519 0 -1 7.40824 0.0726819 0.107128 -0.792355 0.33976 0.506693
-8.08497 -1.88934 9.36447 0.207993 -0.0502864 0 -0.866667 7.4381 -0.139227 2.67374 0.524179 0.786561 0.326433
-3.67925 -5.23994 10.9784 0.37313 -0.398842 0 -0.2 7.5021 -0.054301 3.12253 -0.0577555 -0.859388 -0.508052
-3.302 -11.1471 11.4605 0.51537 -0.0695006 0 0.844444 7.52026 -0.374138 4.59175 -0.0613465 0.694598 0.716778
-9.5915 -3.258 3.9775 -0.310933 -0.149513 -0.124325 -0.777778 7.53225 0.126382 2.00312 0.845598 0.469669 -0.25372
-1.8625 -1.868 5.281 0.414427 -0.173169 0 -1 7.58871 0.454107 0.761913 -0.642916 0.358324 0.676951
-5.308 -5.77575 12.31 0.303794 -0.30262 0 -0.2 7.60368 -0.624294 3.89245 0.323934 -0.933786 -0.152023
-1.33125 -10.4866 11.3071 0.442793 0.116607 0 0.844444 7.63893 -0.463431 5.31591 -0.287108 0.373615 0.882032
-9.886 -2.553 5.83125 -0.130164 0.162928 0 -0.84122 7.67457 -0.205416 2.17478 0.231542 0.833637 -0.501436
-8.796 -7.136 2.874 -0.135071 0.177408 -0.000741121 -0.36136 7.72709 -0.830724 1.80612 -0.102779 0.977726 -0.182997
-0.571625 -9.07475 11.6154 0.316279 0.190098 -0.00596384 -0.972213 7.74888 -0.150563 5.31591 -0.446835 -0.276825 0.850709
-9.66475 -6.88675 3.34425 -0.183105 0.192225 0 -0.415662 7.75296 -0.846726 1.80612 0.304819 0.803747 -0.510956
-5.725 -6.1115 13.164 0.28495 -0.236883 0 -0.199861 7.83154 -0.999881 3.89245 0.778413 -0.53643 -0.326062
-10.316 -5.06875 3.35775 -0.325391 0.241929 0 -0.809818 7.93201 -0.68097 2.00312 0.673115 -0.274309 -0.686783
-7.0405 -6.171 0.85725 -0.132005 0.160888 0.00973336 -0.850191 7.97984 -0.999867 1.55372 -0.60925 0.463412 0.643478
-4.00506 -2.0625 1.51047 -0.0901213 0.156424 0.0411343 -0.905249 8.00828 -0.520918 1.30705 -0.716805 0.620311 0.318442
-8.26437 -1.01525 8.31125 0.0134116 -0.0917684 0 -0.866667 8.03597 0.802344 2.57282 0.555904 0.831173 -0.0110874
-2.68963 -5.70463 12.3524 0.373157 -0.306647 0 -0.2 8.0936 -0.389516 5.48769 -0.260663 -0.948494 -0.180039
-3.648 -2.5685 10.791 0.102482 -0.180269 0 -0.2 8.10884 0.243116 3.12253 0.0512143 0.888126 -0.456737
-7.47038 -4.79637 0.310625 -0.0074969 -0.12789 0.103803 -0.00718982 8.12003 -0.545855 1.55372 -0.358296 0.193719 0.913289
-6.0635 -9.55275 13.222 0.51936 -0.150047 0 -0.0888889 8.12011 -0.999827 4.32114 0.961183 0.228341 -0.154877
-1.62925 -2.0845 9.506 -0.3736 -0.225994 -0.239979 -0.0888889 8.14757 0.693731 0.107128 -0.672234 0.587866 -0.450016
-10.0218 -4.13219 2.61144 0.0095534 -0.181619 0 -0.866667 8.17726 0.0786728 2.00312 0.962657 -0.158563 -0.21943
-2.31381 -1.10175 4.2515 0.100769 -0.154768 0 -1 8.21257 0.465965 0.761913 -0.672386 0.636115 0.37849
-6.2165 -2.099 11.352 -0.0479317 -0.112062 0 -0.2 8.23749 0.734313 2.67374 -0.0671779 0.99727 0.0306544
-7.487 -6.942 1.53 -0.053482 0.151782 0 -0.355556 8.25471 -0.882381 1.55372 -0.35587 0.914039 0.194652
-10.4152 -2.56775 4.9595 -0.10965 0.0620222 -0.00293626 -0.85504 8.2913 -0.197551 2.17478 0.427255 0.881527 0.200905
-4.77881 -2.13075 0.714437 -0.363993 0.0858524 0 -0.777778 8.30499 -0.109836 1.30705 -0.286221 0.75919 0.584558
-2.55194 -2.87169 10.2829 0.0562423 -0.253911 -0.338533 -0.154071 8.3267 -0.147396 3.12253 -0.412992 0.578452 -0.703442
-7.99203 -2.64528 11.2072 0.106454 0.0966306 0 -0.2 8.39294 -0.397675 2.67374 -0.0144315 0.992396 0.122235
-1.52013 -6.21325 13.1946 0.52676 -0.249615 0 -0.2 8.39854 -0.524356 5.48769 -0.53448 -0.837967 0.110193
-0.950875 -7.54581 12.4346 0.0322214 -0.229099 -0.245019 -1 8.422 0.0521168 5.31591 -0.632297 -0.545991 0.549632
-10.6788 -6.08825 3.1925 -0.175523 -0.175691 0 -0.808804 8.44589 -0.999887 1.80612 0.935904 0.144782 -0.321127
-0.47025 -1.53 9.122 -0.106855 -0.16521 -0.47734 -0.0888889 8.46326 0.17356 0.107128 -0.559631 0.807507 -0.186402
-6.1225 -2.22088 0.649594 -0.113871 -0.0976156 0 -0.777778 8.52571 0.61095 1.30705 -0.336361 0.46711 0.817722
-10.148 -1.38462 7.12813 0.016896 0.173733 0 -0.866667 8.53904 -0.219836 2.17478 0.229914 0.611414 -0.757174
-0.030375 -1.28225 7.4885 0.122921 -0.142945 0.00467234 -0.980047 8.60497 0.180699 0.107128 -0.531229 0.845946 0.0465979
-5.70131 -7.94219 14.2342 0.465197 -0.177842 0 -0.0888889 8.60996 -0.359134 3.89245 0.924738 -0.100025 -0.367226
-7.02675 -3.451 0.24375 -0.00575907 -0.127014 0 -0.777778 8.69435 -0.510175 1.55372 -0.433467 0.192387 0.880394
-4.754 -10.953 13.301 0.49652 -0.0878392 0 -0.0888889 8.74497 -0.214181 4.32114 0.543967 0.839005 -0.01308
-9.06 -0.9825 9.4 0.0107298 -0.0556901 0 -0.866667 8.77013 0.0899438 2.67374 0.709073 0.625695 0.325148
-2.527 -11.704 12.3365 0.47286 -0.0562025 0 0.377778 8.81569 -0.344293 4.59175 0.176489 0.927301 0.330096
-5.41463 -10.342 13.8094 0.499113 -0.128688 0 0.271149 8.91784 -0.471593 4.32114 0.814785 0.508942 -0.277674
-0.04025 -0.651 6.15987 0.19916 -0.0880621 0 -1 9.00686 0.193422 0.107128 -0.333882 0.706318 0.62421
-0.02625 -10.5835 11.7972 0.48142 -0.107642 0 0.844444 9.03629 -0.487368 5.31591 -0.321326 0.311059 0.894423
-4.83238 -6.22475 14.045 0.203985 -0.244843 0 -0.172968 9.09081 -0.343419 3.89245 0.337459 -0.863933 -0.373821
-9.14338 -2.21881 10.6134 0.047993 -0.0246934 0 -0.866667 9.10801 -0.594547 2.67374 0.525658 0.686227 0.502768
-9.6935 -7.11513 1.80638 -0.246053 0.071693 -0.0592266 -0.306607 9.12199 -0.999868 1.80612 0.37578 0.909047 0.180065
-11.3241 -2.33512 5.93962 -0.0451153 0.117784 0 -0.866667 9.13311 -0.709798 2.17478 0.252521 0.915196 -0.314085
-9.39925 -0.69575 8.29525 0.0114345 -0.127043 0 -0.866667 9.13759 0.0238771 2.17478 0.516402 0.75225 -0.409204
-7.93925 -3.85125 0.11075 0.212988 -0.0963391 0.0293317 0.688447 9.19383 -0.337917 1.55372 -0.00853468 0.131053 0.991339
-2.78744 -5.99862 13.4154 0.311591 -0.26465 0 -0.2 9.20083 -0.106675 5.48769 -0.0566234 -0.97951 -0.193273
-10.0621 -2.179 2.79284 0.659237 -0.126217 0 -0.866667 9.20231 -0.0770625 2.00312 0.993385 0.114721 0.00508027
-3.47725 -2.18625 11.8475 0.0116938 -0.172589 0 -0.2 9.24526 -0.07272 3.12253 -0.3464 0.841313 -0.414969
-1.37625 -11.8694 12.1976 0.44997 -0.0630269 0 0.172882 9.28427 -0.701319 4.59175 -0.0962332 0.842831 0.529505
-3.58612 -11.5753 13.3752 0.592123 -0.0670187 0 -0.0888889 9.31455 -0.179518 4.59175 0.367699 0.920854 0.129709
-1.74025 -0.45925 3.509 0.184182 0.132726 0 -1 9.34971 0.0285848 0.761913 -0.563464 0.812844 0.147625
-10.2933 -1.5525 3.79225 0.2774 -0.0427461 0.732195 -0.866667 9.38578 0.441177 2.00312 0.67929 0.548711 0.487321
-0.359 -11.5591 12.3024 0.46941 -0.0858976 0 0.0556884 9.39567 -0.631845 5.31591 -0.345776 0.698796 0.626197
-3.356 -0.991 0.877 -0.00981507 0.124638 0.581518 -1 9.41208 0.31769 1.0334 -0.552038 0.825476 0.117657
-1.46512 -0.271688 4.48956 0.241391 -0.132987 0 -1 9.41422 0.332596 0.761913 -0.643815 0.680922 0.349067
1.0125 -9.58212 11.8576 0.541577 -0.147495 0 0.844444 9.42981 -0.999884 5.31591 -0.547629 -0.0482876 0.835327
-8.57725 -6.64775 0.646625 -0.127634 0.062369 -0.299851 -0.308876 9.60257 -0.999849 1.55372 -0.0512426 0.665153 0.744947
-1.991 -1.967 11.037 -0.109312 -0.170315 0 -0.2 9.63122 0.0152856 3.12253 -0.456314 0.833743 -0.310886
-9.93338 -3.12075 1.56225 0.172188 -0.110523 -0.272166 -0.275322 9.63727 -0.198487 2.00312 0.938129 0.0129367 0.346044
-5.72906 -2.47112 12.6509 -0.209615 -0.0935969 0 -0.2 9.67388 -0.310485 2.67374 -0.0788777 0.986902 0.140719
-8.98287 -5.23313 0.23775 0.130226 -0.0885481 0.930694 0.933333 9.69601 -0.704501 1.55372 0.158983 0.123591 0.979515
-11.189 -0.84225 7.053 -0.0315099 0.173028 0 -0.866667 9.71526 0.617094 2.17478 0.0537119 0.434125 -0.89925
-5.4955 -1.4115 -0.29125 -0.232636 0.0527831 0 -0.777778 9.7341 0.709193 1.30705 -0.0858229 0.803203 0.58949
-9.65375 -0.18225 9.868 -0.0384657 -0.0950926 0 -0.866667 9.87102 0.035881 2.67374 0.944339 0.32223 0.066263
-1.91937 -6.21275 14.6142 0.51438 -0.229718 0.0700813 -0.50916 9.87321 -0.761247 5.48769 -0.314087 -0.892927 -0.322539
-11.926 -2.06175 4.8235 0.08382 0.0429141 0 0.844444 9.89038 -0.421432 2.17478 0.214942 0.911725 0.350082
-9.64669 -1.105 10.3852 -0.036121 -0.080843 0 -0.866667 9.92331 -0.146609 2.67374 0.861516 0.199114 0.467058
-10.269 -4.94088 1.079 -0.0595383 -0.122133 0.202432 -0.319053 9.92753 -0.592599 2.00312 0.843489 -0.184587 0.504435
1.14525 -8.562 12.9073 0.701093 -0.196673 0.394016 -1 9.95785 -0.868068 5.31591 -0.669011 -0.647723 0.364526
-0.426 -1.17206 10.6077 -0.082501 -0.126561 0 -0.0888889 9.99212 0.701762 0.107128 -0.363504 0.925447 -0.106831
-4.0535 -1.33875 -0.59325 -0.5297 0.0877903 0.271773 -0.877113 9.99714 -0.834148 1.30705 -0.436978 0.713172 0.548121
-11.3206 -1.394 4.09538 0.428673 0.0314484 0.301046 -0.866667 10.0071 0.406092 2.17478 0.0982185 0.706631 0.700733
-9.42325 -2.72775 11.9522 -0.069941 -0.0861323 0 -0.779522 10.0086 -0.999869 2.67374 0.61736 0.784708 -0.0556738
-10.5411 0.020375 7.60388 -0.0416343 -0.156377 0 -0.866667 10.0736 0.287834 2.17478 0.449597 0.384052 -0.806453
-7.87075 -2.471 -0.24225 -0.0111764 -0.0695647 -7.6934e-05 0.477402 10.076 0.0453187 1.55372 -0.0733341 0.381608 0.921411
0.94725 -0.8885 9.82619 0.196768 -0.097257 0.025898 -0.0888889 10.1711 0.0536257 0.107128 -0.162998 0.986589 -0.00857057
-4.07681 -11.5229 14.4209 0.577033 -0.0604773 0 -0.0320473 10.1724 -0.205529 4.32114 0.611204 0.778348 0.143542
-4.8805 -10.495 14.9487 0.529893 -0.109708 0 0.933333 10.1854 0.0710405 4.32114 0.932964 0.341581 -0.11358
0.031 -7.35913 13.8882 0.636333 -0.216026 0.318217 -0.960587 10.186 -0.484615 5.31591 -0.612271 -0.790601 0.00867966
0.863875 -10.9526 12.4683 0.536653 -0.109527 0 -0.405929 10.2106 -0.802259 5.31591 -0.584743 0.680737 0.441217
-5.26237 -9.369 14.8328 0.507297 -0.134708 0 0.78746 10.2183 -0.00494616 4.32114 0.932581 0.232313 -0.276268
-8.49575 -2.5645 12.975 -0.0942213 -0.115576 -0.18369 -0.368789 10.2329 -0.54535 2.67374 0.186533 0.919786 -0.345252
1.572 -0.953875 7.497 0.332302 -0.100138 0.197939 -0.676238 10.2407 0.159922 0.107128 0.0473165 0.987682 -0.149147
-10.5968 -5.89213 1.39713 -0.152711 -0.0880731 0 -0.2 10.2538 -0.811398 1.80612 0.886917 0.280722 0.366841
-4.87 -7.05025 15.4299 0.42535 -0.194504 0 -0.0888889 10.3177 -0.21173 3.89245 0.602014 -0.722362 -0.340253
0.959188 -0.337687 5.328 0.221576 0.0387147 0 -1 10.3444 0.471389 0.107128 0.259281 0.892907 0.368089
-9.72725 -6.4445 0.72725 -0.414443 -0.043129 -0.747204 -0.2 10.393 -0.999881 1.55372 0.485707 0.408432 0.772833
-0.8 0.19875 5.3555 0.085571 -0.076629 0 -1 10.402 0.999928 0.761913 -0.210525 0.880777 0.42416
-9.09463 -4.06313 0.420875 0.0468347 -0.0851793 0.286718 0.933333 10.4087 -0.0197131 1.55372 0.454619 0.0457582 0.88951
1.475 -1.086 6.477 0.206609 -0.0669382 0 -1 10.4292 -0.482249 0.107128 0.0342105 0.968835 0.245335
-1.66 -12.3445 13.6494 0.337317 -0.0600416 0 -0.213366 10.5144 -0.547249 4.59175 0.0749592 0.965726 0.248506
-2.459 -0.96725 0.22375 -0.103466 0.132811 0.228537 -1 10.522 0.116399 1.0334 0.479699 0.647816 -0.591796
-2.7135 -12.04 14.0715 0.477123 -0.0422379 0 -0.0888889 10.5238 0.363528 4.59175 0.366581 0.883477 0.291696
-0.718125 0.07225 3.22962 0.185243 0.101682 0.0196117 -1 10.5352 0.40985 0.761913 -0.184456 0.982365 -0.0305915
-3.15875 -1.42963 12.8542 0.0612547 -0.169154 0.542764 0.4 10.5442 0.166984 3.12253 -0.499533 0.666475 -0.553423
-2.33325 -1.6125 12.1005 0.0651217 -0.158571 0.0357752 -0.134356 10.5498 -0.221343 3.12253 -0.27871 0.82363 -0.493918
-10.1615 0.4705 8.58675 -0.04119 -0.110995 0 -0.866667 10.561 -0.215396 2.17478 0.911713 0.337515 -0.234228
-0.595 -12.0105 13.363 0.571243 -0.092533 0 -0.777778 10.5722 -0.55804 4.59175 -0.371538 0.892576 0.255475
1.37888 -0.50825 8.64587 0.109163 -0.0904395 0.781538 -0.0888889 10.586 0.999862 0.107128 0.0043209 0.99807 -0.0619493
-4.69075 -2.53175 13.1115 -0.183255 -0.130898 0 -0.2 10.6062 -0.383292 2.67374 -0.350228 0.931539 -0.0978508
-12.2112 -1.32056 6.83494 -0.0297725 0.139018 0 -0.464164 10.624 -0.41028 2.17478 0.212442 0.686723 -0.695183
-10.237 -1.322 11.2058 -0.214441 -0.0865053 -0.238289 -0.866667 10.6414 -0.926325 2.67374 0.927756 0.180387 0.326696
-7.47087 -2.52638 13.4104 -0.0864843 -0.0977083 0 -0.2 10.6601 -0.109034 2.67374 0.181217 0.970668 -0.157999
-2.21075 -0.4225 1.029 -0.00208364 0.130856 0 -1 10.6997 0.59718 1.0334 0.0284243 0.863057 -0.504307
-3.731 -6.37675 15.2506 0.378683 -0.217529 0 -0.2 10.7308 -0.78274 3.89245 0.146035 -0.903592 -0.402736
3 153 141 111
3 141 146 93
3 93 146 115
3 115 68 93
3 124 168 138
3 124 138 79
3 79 138 105
3 153 111 162
3 162 183 153
3 64 111 93
3 39 64 53
3 53 68 46
3 68 97 76
3 46 76 79
3 76 124 79
3 79 105 62
3 79 62 46
3 105 90 62
3 75 74 118
3 129 90 105
3 161 129 158
3 129 105 138
3 158 129 191
3 138 191 129
3 191 138 168
3 157 123 116
3 148 116 104
3 116 123 80
3 116 80 104
3 80 67 104
3 139 155 108
3 114 136 98
3 49 19 47
3 47 19 27
3 47 27 50
3 27 19 11
3 27 11 26
3 50 27 26
3 22 23 43
3 46 43 23
3 23 36 46
3 22 43 40
3 40 62 44
3 41 44 75
3 41 73 82
3 73 75 107
3 107 113 194
3 113 154 194
3 154 113 118
3 118 176 197
3 104 67 87
3 87 50 71
3 50 51 71
3 30 56 51
3 25 12 6
3 6 0 5
3 0 4 9
3 4 0 7
3 7 0 8
3 14 22 41
3 41 82 91
3 35 61 57
3 82 107 117
3 110 117 152
3 107 82 73
3 142 194 189
3 145 148 112
3 112 148 87
3 145 112 149
3 112 71 94
3 57 42 25
3 25 18 35
3 18 5 24
3 18 24 35
3 0 9 1
3 65 41 91
3 91 106 95
3 35 48 61
3 48 54 85
3 85 54 77
3 24 37 48
3 54 58 77
3 32 29 52
3 31 20 32
3 20 29 32
3 9 13 1
3 28 38 21
3 29 38 55
3 55 52 29
3 45 81 38
3 55 38 81
3 134 106 140
3 106 85 119
3 119 140 106
3 173 120 163
3 99 163 120
3 133 99 96
3 99 77 58
3 55 109 84
3 81 126 109
3 134 140 199
3 199 140 159
3 143 96 92
3 143 92 130
3 185 130 144
3 144 88 128
3 144 171 187
3 172 171 131
3 128 131 171
3 131 126 175
3 126 134 179
3 199 179 134
3 89 83 125
3 110 122 83
3 83 122 125
3 122 170 193
3 188 145 149
3 184 132 125
3 132 89 125
3 149 94 89
3 149 112 94
3 184 125 177
3 177 125 193
3 49 72 86
3 98 86 114
3 111 141 93
3 115 97 68
3 124 137 195
3 124 195 156
3 166 160 115
3 166 115 146
3 115 137 97
3 97 137 124
3 115 160 137
3 155 162 181
3 181 162 178
3 183 162 155
3 136 181 178
3 136 178 121
3 136 121 100
3 111 102 121
3 111 121 162
3 162 121 178
3 64 69 102
3 64 102 111
3 69 64 39
3 19 39 23
3 23 39 36
3 39 53 36
3 46 36 53
3 46 68 76
3 44 74 75
3 74 44 90
3 62 90 44
3 118 74 90
3 135 118 90
3 135 129 161
3 135 90 129
3 148 165 116
3 123 78 80
3 72 49 78
3 108 72 127
3 78 127 72
3 127 78 123
3 139 108 127
3 169 127 123
3 127 169 139
3 139 169 183
3 114 103 151
3 151 103 155
3 103 108 155
3 86 72 103
3 86 103 114
3 108 103 72
3 136 114 151
3 136 151 181
3 181 151 155
3 98 136 100
3 69 100 121
3 69 121 102
3 86 98 66
3 66 100 69
3 100 66 98
3 59 66 39
3 39 66 69
3 59 86 66
3 49 86 59
3 26 11 10
3 10 11 3
3 7 8 22
3 19 3 11
3 3 19 0
3 0 19 8
3 22 8 23
3 23 8 19
3 41 22 44
3 44 22 40
3 196 135 161
3 87 148 104
3 56 71 51
3 25 33 12
3 12 33 30
3 30 33 56
3 6 12 2
3 2 12 10
3 2 10 3
3 10 12 26
3 30 26 12
3 6 2 0
3 3 0 2
3 0 1 5
3 9 4 16
3 4 7 14
3 34 28 16
3 34 16 14
3 4 14 16
3 14 41 34
3 91 82 61
3 110 57 117
3 117 61 82
3 61 117 57
3 152 117 142
3 152 142 190
3 142 117 107
3 189 190 142
3 135 196 167
3 135 167 118
3 118 167 176
3 89 94 56
3 60 89 56
3 42 60 56
3 33 25 42
3 33 42 56
3 17 24 5
3 37 24 17
3 37 17 31
3 15 31 17
3 15 17 5
3 15 5 1
3 20 31 15
3 13 20 1
3 1 20 15
3 9 16 21
3 21 16 28
3 45 28 63
3 63 28 34
3 63 34 65
3 41 65 34
3 65 95 63
3 106 91 70
3 106 70 85
3 61 48 70
3 61 70 91
3 70 48 85
3 58 54 37
3 58 37 31
3 37 54 48
3 13 29 20
3 29 13 9
3 29 9 21
3 29 21 38
3 63 81 45
3 81 63 101
3 101 63 95
3 101 95 134
3 119 85 120
3 119 173 159
3 173 119 120
3 150 163 99
3 150 99 133
3 58 96 99
3 58 92 96
3 52 88 92
3 88 52 55
3 88 55 84
3 131 128 84
3 131 84 109
3 131 109 126
3 101 126 81
3 134 126 101
3 159 140 119
3 133 174 150
3 192 174 147
3 147 174 133
3 143 192 147
3 143 147 96
3 96 147 133
3 192 143 185
3 130 185 143
3 88 144 130
3 88 130 92
3 84 128 88
3 83 60 42
3 83 42 57
3 83 57 110
3 89 60 83
3 193 125 122
3 164 170 122
3 180 132 184
3 78 49 47
3 78 47 80
3 80 47 67
3 156 168 124
3 53 93 68
3 53 64 93
3 97 124 76
3 139 183 155
3 19 49 39
3 59 39 49
3 43 46 62
3 43 62 40
3 75 73 41
3 118 113 75
3 107 75 113
3 154 118 197
3 198 186 148
3 87 67 50
3 67 47 50
3 26 30 50
3 51 50 30
3 7 22 14
3 194 142 107
3 112 87 71
3 25 6 18
3 5 18 6
3 65 91 95
3 24 48 35
3 57 25 35
3 122 110 164
3 164 110 152
3 182 132 180
3 132 182 149
3 132 149 89
3 71 56 94
3 45 38 28
3 95 106 134
3 77 120 85
3 77 99 120
3 58 52 92
3 55 81 109
3 128 171 144
3 144 187 185
3 131 175 172
3 58 31 32
3 58 32 52
