ply
format ascii 1.0
comment Generated by PyMesh
element vertex 96
property float x
property float y
property float z
property float nx
property float ny
property float nz
element face 176
property list uchar int vertex_indices
end_header
-1.62603 -12.0646 16.4171 -0.241147 0.799142 -0.550654
-1.08025 -12.5326 15.4539 -0.267539 0.945742 -0.184376
-2.44412 -12.6461 15.2684 0.108394 0.994106 0.00173444
-3.116 -12.246 16.7978 0.255258 0.896528 -0.36205
-0.125625 -11.4201 16.4508 -0.505807 0.513905 -0.692864
-2.77225 -11.4105 17.805 -0.18764 0.469214 -0.862919
-3.354 -12.5258 15.707 0.334248 0.942454 0.00765007
-1.69675 -10.2355 17.6903 -0.451623 0.102526 -0.886298
-0.731875 -12.3286 14.3022 -0.356289 0.916199 0.183404
0.243813 -11.8969 14.8194 -0.612517 0.78779 -0.0648907
-3.862 -11.6217 17.6195 0.410813 0.59085 -0.694355
-2.7135 -12.04 14.0715 0.366581 0.883477 0.291696
0.578125 -10.3691 16.4349 -0.656737 0.0802966 -0.749832
-1.66 -12.3445 13.6494 0.0749592 0.965726 0.248506
-2.68175 -10.0616 18.0147 -0.147886 -0.169386 -0.974391
-0.595 -12.0105 13.363 -0.371538 0.892576 0.255475
1.146 -10.677 15.4235 -0.849498 0.391589 -0.353568
-4.66625 -11.0845 16.892 0.873862 0.373752 -0.310925
-3.79075 -10.2222 18.0065 0.409482 -0.0532152 -0.910765
-4.07681 -11.5229 14.4209 0.611204 0.778348 0.143542
-4.7185 -11.2759 15.6766 0.793706 0.608294 -0.00312074
-1.70119 -8.70938 17.1994 -0.367204 -0.522871 -0.769264
0.35525 -11.5347 13.7522 -0.562823 0.806709 0.18014
-3.58612 -11.5753 13.3752 0.367699 0.920854 0.129709
-0.464 -8.9755 16.604 -0.386586 -0.387961 -0.836683
0.859375 -9.032 16.0446 -0.710914 -0.271388 -0.648807
1.30375 -9.7405 15.091 -0.953067 -0.0709761 -0.294322
-0.359 -11.5591 12.3024 -0.345776 0.698796 0.626197
1.3825 -10.685 14.0083 -0.884948 0.461274 -0.0639818
-1.37625 -11.8694 12.1976 -0.0962332 0.842831 0.529505
-2.527 -11.704 12.3365 0.176489 0.927301 0.330096
-4.8805 -10.495 14.9487 0.932964 0.341581 -0.11358
-1.40675 -8.23525 16.089 -0.400395 -0.658658 -0.637066
-3.23534 -8.48941 17.304 0.0843109 -0.374124 -0.923538
-4.754 -10.953 13.301 0.543967 0.839005 -0.01308
-4.86794 -9.33075 16.6371 0.851016 0.0549026 -0.522261
0.717875 -8.19975 15.5052 -0.62321 -0.649262 -0.435968
0.863875 -10.9526 12.4683 -0.584743 0.680737 0.441217
-5.41463 -10.342 13.8094 0.814785 0.508942 -0.277674
1.367 -8.79813 14.2028 -0.938835 -0.300511 -0.168172
-0.02625 -10.5835 11.7972 -0.321326 0.311059 0.894423
1.891 -9.97425 13.0087 -0.975146 0.0577273 0.213912
-5.26237 -9.369 14.8328 0.932581 0.232313 -0.276268
-2.83406 -7.02481 16.3614 -0.213924 -0.73017 -0.648913
-4.3105 -11.2565 11.5763 0.336622 0.872277 0.354709
-3.302 -11.1471 11.4605 -0.0613465 0.694598 0.716778
-4.30062 -7.94225 17.1379 0.324397 -0.263037 -0.908613
-1.33125 -10.4866 11.3071 -0.287108 0.373615 0.882032
-1.30838 -7.12044 15.2753 -0.452784 -0.683757 -0.572243
-5.04875 -7.88225 16.3645 0.850945 -0.254382 -0.459545
-5.65947 -10.4865 12.0315 0.739189 0.670298 0.0655765
-6.0635 -9.55275 13.222 0.961183 0.228341 -0.154877
1.0125 -9.58212 11.8576 -0.547629 -0.0482876 0.835327
1.14525 -8.562 12.9073 -0.669011 -0.647723 0.364526
0.031 -7.35913 13.8882 -0.612271 -0.790601 0.00867966
-0.571625 -9.07475 11.6154 -0.446835 -0.276825 0.850709
-4.4885 -6.99975 16.5465 0.437605 -0.720127 -0.538441
-3.731 -6.37675 15.2506 0.146035 -0.903592 -0.402736
-5.70131 -7.94219 14.2342 0.924738 -0.100025 -0.367226
-4.34269 -10.1756 10.3532 0.0574804 0.76062 0.646648
-1.91937 -6.21275 14.6142 -0.314087 -0.892927 -0.322539
-1.88644 -9.22363 10.6494 -0.616614 0.425512 0.662365
-5.6675 -9.7635 11.0267 0.829797 0.432144 0.353113
-4.87 -7.05025 15.4299 0.602014 -0.722362 -0.340253
-6.14838 -8.3445 12.8004 0.998638 0.0306221 -0.0422442
-1.463 -8.376 11.3333 -0.806276 -0.255371 0.533577
-3.57711 -9.55381 9.77205 -0.197054 0.922204 0.33273
-0.950875 -7.54581 12.4346 -0.632297 -0.545991 0.549632
-1.52013 -6.21325 13.1946 -0.53448 -0.837967 0.110193
-5.27969 -9.23044 9.6165 0.552825 0.793218 0.255323
-2.78744 -5.99862 13.4154 -0.0566234 -0.97951 -0.193273
-4.83238 -6.22475 14.045 0.337459 -0.863933 -0.373821
-1.71375 -7.84975 10.351 -0.959066 -0.0283712 0.281756
-5.77 -8.44 10.563 0.951713 0.306736 0.0124313
-2.77375 -9.09387 9.28175 -0.625672 0.758327 0.182961
-2.13225 -8.094 9.39625 -0.947777 0.184363 0.260248
-5.725 -6.1115 13.164 0.778413 -0.53643 -0.326062
-6.14825 -6.61194 11.79 0.929507 -0.355159 -0.0993885
-3.82663 -9.5445 8.57913 -0.0289599 0.975135 0.219709
-6.10838 -7.2915 10.8197 0.978062 0.207388 -0.01962
-1.90625 -6.818 10.2917 -0.962724 -0.18519 0.197148
-2.68963 -5.70463 12.3524 -0.260663 -0.948494 -0.180039
-1.7585 -6.495 11.9974 -0.875271 -0.44215 0.195971
-6.14975 -8.38775 9.2365 0.864514 0.496605 -0.0774548
-5.05225 -9.12525 8.24525 0.439157 0.814084 0.380011
-5.308 -5.77575 12.31 0.323934 -0.933786 -0.152023
-3.04312 -9.22025 8.00725 -0.450346 0.747347 0.488529
-2.18438 -7.15963 8.50113 -0.97819 -0.0684411 0.19611
-6.27887 -7.16625 9.82987 0.968248 0.150609 -0.199533
-2.162 -8.0945 7.9165 -0.909633 0.295624 0.291845
-6.109 -8.09013 8.2005 0.704026 0.548252 0.451407
-2.011 -5.875 11.0615 -0.733903 -0.671001 -0.105567
-6.60156 -7.33588 8.79594 0.994857 0.0992303 0.0203263
-4.92338 -5.55363 11.0901 0.467586 -0.821285 -0.326885
-2.309 -6.189 8.945 -0.990824 0.123307 -0.0553434
-4.2395 -8.5735 7.08169 0.129076 0.635443 0.761282
3 80 72 82
3 82 72 65
3 87 75 80
3 72 61 65
3 66 69 59
3 74 78 66
3 78 69 66
3 90 84 95
3 88 73 83
3 69 73 62
3 62 59 69
3 79 64 73
3 62 73 64
3 71 81 70
3 81 82 68
3 68 70 81
3 54 67 53
3 55 53 67
3 40 55 47
3 55 65 61
3 62 51 50
3 64 58 51
3 71 70 57
3 57 70 60
3 60 48 43
3 43 57 60
3 43 32 21
3 33 43 21
3 21 32 24
3 28 37 22
3 29 47 45
3 29 45 30
3 13 30 23
3 23 44 34
3 23 19 11
3 31 19 38
3 34 38 19
3 38 58 42
3 58 63 49
3 58 71 63
3 57 63 71
3 58 49 35
3 58 35 42
3 18 33 14
3 7 24 4
3 7 4 0
3 39 28 26
3 8 9 22
3 8 22 15
3 20 19 31
3 31 35 17
3 75 87 89
3 75 89 74
3 86 74 89
3 78 74 86
3 84 78 95
3 95 78 86
3 90 92 83
3 83 92 88
3 79 88 77
3 93 85 77
3 81 91 82
3 91 80 82
3 61 72 75
3 61 75 74
3 75 72 80
3 84 69 78
3 69 84 90
3 69 90 83
3 69 83 73
3 77 64 79
3 64 77 76
3 76 77 85
3 76 85 71
3 68 82 67
3 60 54 48
3 68 54 60
3 54 68 67
3 52 53 55
3 52 55 40
3 61 47 55
3 61 45 47
3 59 44 45
3 44 59 62
3 44 62 50
3 38 34 50
3 38 50 51
3 38 51 58
3 76 58 64
3 71 58 76
3 60 70 68
3 57 43 63
3 63 43 56
3 63 56 49
3 43 33 46
3 43 46 56
3 56 46 49
3 25 36 26
3 36 25 24
3 36 24 32
3 39 26 36
3 39 36 53
3 53 36 54
3 54 36 48
3 48 36 32
3 28 41 37
3 37 41 52
3 41 53 52
3 40 37 52
3 39 53 41
3 39 41 28
3 15 22 37
3 15 37 27
3 27 37 40
3 29 15 27
3 29 27 47
3 47 27 40
3 15 29 13
3 30 13 29
3 44 23 30
3 44 30 45
3 50 34 44
3 33 35 46
3 46 35 49
3 17 10 3
3 10 17 18
3 33 18 35
3 35 18 17
3 14 5 18
3 18 5 10
3 3 10 5
3 3 5 0
3 7 5 14
3 24 7 21
3 21 7 14
3 21 14 33
3 12 4 24
3 16 4 12
3 16 12 26
3 26 12 25
3 25 12 24
3 9 4 16
3 9 16 28
3 28 16 26
3 13 8 15
3 0 1 2
3 2 1 13
3 2 13 11
3 13 1 8
3 0 6 3
3 6 2 11
3 2 6 0
3 20 3 6
3 20 6 19
3 19 6 11
3 17 3 20
3 31 17 20
3 1 0 4
3 1 9 8
3 9 1 4
3 87 80 94
3 79 73 88
3 85 81 71
3 65 67 82
3 65 55 67
3 61 59 45
3 62 64 51
3 48 32 43
3 34 19 23
3 28 22 9
3 23 11 13
3 38 42 31
3 31 42 35
3 7 0 5
3 61 74 66
3 61 66 59
