ply
format ascii 1.0
comment Generated by PyMesh
element vertex 200
property float x
property float y
property float z
property float charge
property float ddc
property float hbond
property float hphob
property float rho
property float si
property float theta
property float nx
property float ny
property float nz
element face 340
property list uchar int vertex_indices
end_header
-5.271 -4.34734 9.45378 0.429117 0 0 -0.2 1e-08 0.0790899 2.22045e-16 0.716884 -0.165769 -0.677199
-4.73887 -2.95038 10.0363 0.168411 0.487513 0 -0.2 1.60437 0.440618 1.24977 0.215907 0.495566 -0.841308
-6.17556 -5.75075 9.81419 0.51025 0.331387 0 -0.0888889 1.70812 -0.485206 4.0041 0.879245 -0.409227 -0.243849
-5.61875 -4.25737 7.6965 1 -0.298286 0.473898 -0.866667 1.79362 0.429686 5.45533 0.978629 0.118664 -0.167943
-6.351 -2.99425 8.68025 0.534287 0.500816 0 -0.533636 1.89621 -0.0896829 2.22045e-16 0.659098 0.746601 -0.0904267
-3.67 -3.37725 10.0363 0.238417 -0.421837 0 -0.2 1.96051 0.259178 1.77418 0.0528347 0.22804 -0.972217
-6.2445 -5.67425 8.35825 0.839817 -0.423793 0.48189 -0.866667 1.97701 -0.593974 4.67217 0.940384 -0.316391 0.124801
-5.82725 -2.50425 9.9965 0.16658 0.529007 0 -0.2 2.00023 0.279194 0.681376 0.185066 0.85031 -0.49267
-4.92338 -5.55363 11.0901 0.315841 0.44173 0 -0.2 2.06241 0.080399 3.22439 0.467586 -0.821285 -0.326885
-3.67925 -5.23994 10.9784 0.37313 0.49824 0 -0.2 2.378 -0.054301 2.67932 -0.0577555 -0.859388 -0.508052
-3.648 -2.5685 10.791 0.102482 0.425389 0 -0.2 2.98473 0.243116 1.47081 0.0512143 0.888126 -0.456737
-5.79563 -5.69025 7.32412 0.66977 -0.367854 0.297821 -0.863844 3.10447 0.225146 4.92897 0.957859 0.0303151 0.285636
-6.951 -2.5145 9.9525 0.198646 0.515786 0 -0.2 3.12489 -0.0955885 0.432027 0.21621 0.976343 0.00262576
-6.27887 -7.16625 9.82987 0.573587 -0.169989 0 -0.0888889 3.12747 -0.176118 4.02941 0.968248 0.150609 -0.199533
-2.55194 -2.87169 10.2829 0.0562423 -0.413954 -0.338533 -0.154071 3.21209 -0.147396 1.73529 -0.412992 0.578452 -0.703442
-6.187 -2.8705 7.317 0.785327 0.312348 0.122961 -0.866667 3.27485 0.873616 5.91828 0.76518 0.638045 -0.0860097
-7.16125 -2.234 7.76575 0.524633 0.296603 0.104137 -0.866667 3.33523 0.213785 6.15343 0.557123 0.812604 -0.171138
-5.308 -5.77575 12.31 0.303794 0.35285 0 -0.2 3.36065 -0.624294 3.27544 0.323934 -0.933786 -0.152023
-6.2165 -2.099 11.352 -0.0479317 0.478036 0 -0.2 3.46759 0.734313 0.830194 -0.0671779 0.99727 0.0306544
-6.22325 -6.96025 7.58225 0.517227 -0.358271 0 -0.777778 3.47915 -0.999844 4.58216 0.827747 0.0783912 0.555599
-6.60156 -7.33588 8.79594 0.630253 -0.212213 0 -0.256651 3.63969 -0.999867 4.29228 0.994857 0.0992303 0.0203263
-6.4485 -3.06988 6.36562 0.82373 0.184503 0.232478 -0.866667 3.76081 0.999867 5.78055 0.581447 0.599726 -0.549771
-6.14825 -6.61194 11.79 0.412833 0.194645 0 -0.120257 3.82598 -0.444363 3.58638 0.929507 -0.355159 -0.0993885
-2.61469 -4.94441 9.86416 0.323553 -0.565528 0 -0.0888889 3.85769 0.0684234 2.29226 -0.775368 -0.219062 -0.592297
-6.111 -5.624 6.089 0.57352 -0.191725 0.517632 -0.801127 3.96019 -0.586464 5.10869 0.902457 0.418943 -0.100291
-8.08497 -1.88934 9.36447 0.207993 0.34309 0 -0.866667 4.06315 -0.139227 0.229423 0.524179 0.786561 0.326433
-3.47725 -2.18625 11.8475 0.0116938 0.386602 0 -0.2 4.12115 -0.07272 1.43964 -0.3464 0.841313 -0.414969
-2.68963 -5.70463 12.3524 0.373157 0.355074 0 -0.2 4.13389 -0.389516 2.81592 -0.260663 -0.948494 -0.180039
-6.10838 -7.2915 10.8197 0.50502 0.206806 0 -0.0888889 4.13966 0.0510481 3.81662 0.978062 0.207388 -0.01962
-2.011 -5.875 11.0615 0.37523 -0.436745 -0.0252554 -0.253553 4.16497 -0.495688 2.60593 -0.733903 -0.671001 -0.105567
-6.624 -4.5115 5.5635 0.468287 0.172201 0 -0.866667 4.16528 0.1465 5.41909 0.517749 0.639978 -0.567772
-5.725 -6.1115 13.164 0.28495 0.146164 0 -0.199861 4.36858 -0.999881 3.36299 0.778413 -0.53643 -0.326062
-7.99203 -2.64528 11.2072 0.106454 0.407291 0 -0.2 4.48458 -0.397675 0.553668 -0.0144315 0.992396 0.122235
-6.14975 -8.38775 9.2365 0.642467 -0.185931 0 0.597371 4.49159 -0.682244 4.18067 0.864514 0.496605 -0.0774548
-1.991 -1.967 11.037 -0.109312 -0.351359 0 -0.2 4.51662 0.0152856 1.65598 -0.456314 0.833743 -0.310886
-8.17025 -1.88312 7.04 0.270622 0.195038 0.232979 -0.866667 4.62671 0.677647 6.1184 0.329029 0.739171 -0.587679
-1.62925 -2.0845 9.506 -0.3736 -0.367335 -0.239979 -0.0888889 4.65244 0.693731 1.7524 -0.672234 0.587866 -0.450016
-5.77 -8.44 10.563 0.568423 -0.176212 0 -0.0888889 4.68275 0.23855 3.93924 0.951713 0.306736 0.0124313
-6.109 -8.09013 8.2005 0.609747 -0.305357 0.0100599 -0.777778 4.71953 -0.999782 4.35742 0.704026 0.548252 0.451407
-5.72906 -2.47112 12.6509 -0.209615 0.40965 0 -0.2 4.90398 -0.310485 0.934296 -0.0788777 0.986902 0.140719
-8.26437 -1.01525 8.31125 0.0134116 0.23353 0 -0.866667 5.06722 0.802344 0.0824632 0.555904 0.831173 -0.0110874
-7.69875 -3.17213 5.98338 0.781853 0.18103 0.112886 -0.866667 5.07218 0.118032 5.85245 0.299425 0.616534 -0.728169
-4.69228 -7.21006 6.58134 0.7131 -0.357468 0.096704 -0.777778 5.12411 -0.0381626 4.70645 0.412367 0.69768 0.585829
-4.83238 -6.22475 14.045 0.203985 0.197593 0 -0.172968 5.21484 -0.343419 3.14729 0.337459 -0.863933 -0.373821
-2.78744 -5.99862 13.4154 0.311591 0.270559 0 -0.2 5.24112 -0.106675 2.76429 -0.0566234 -0.97951 -0.193273
-7.5915 -4.8935 5.11925 -0.00991547 0.171672 0.514298 -0.866667 5.29636 -0.813618 5.55132 0.355514 0.720587 -0.595285
-1.7585 -6.495 11.9974 0.3505 -0.390848 0 -1 5.31565 0.0230992 2.71431 -0.875271 -0.44215 0.195971
-1.90625 -6.818 10.2917 0.36039 -0.453244 -0.276012 -0.372184 5.38678 -0.273895 2.57054 -0.962724 -0.18519 0.197148
-6.183 -5.011 4.536 0.226191 -0.276274 0.967173 -1 5.38992 0.0722563 5.2127 0.30348 0.907268 0.291145
-9.06 -0.9825 9.4 0.0107298 0.22944 0 -0.866667 5.39518 0.0899438 0.271098 0.709073 0.625695 0.325148
-3.15875 -1.42963 12.8542 0.0612547 0.291594 0.542764 0.4 5.42014 0.166984 1.34278 -0.499533 0.666475 -0.553423
-2.33325 -1.6125 12.1005 0.0651217 0.281338 0.0357752 -0.134356 5.42574 -0.221343 1.49979 -0.27871 0.82363 -0.493918
-2.309 -6.189 8.945 0.43995 -0.527463 0 -0.0888889 5.43481 0.159897 2.39808 -0.990824 0.123307 -0.0553434
-4.69075 -2.53175 13.1115 -0.183255 0.379546 0 -0.2 5.52902 -0.383292 1.19621 -0.350228 0.931539 -0.0978508
-1.52013 -6.21325 13.1946 0.52676 0.304681 0 -0.2 5.6622 -0.524356 2.79834 -0.53448 -0.837967 0.110193
-1.03 -3.787 8.5425 0.191599 -0.377584 -0.000550657 -0.0888889 5.69868 -0.66072 2.0585 -0.841293 0.29785 -0.451123
-8.982 -2.2765 6.4235 0.0985167 0.173988 0 -0.866667 5.7193 0.225585 6.05485 0.208589 0.693139 -0.689962
-9.14338 -2.21881 10.6134 0.047993 0.298811 0 -0.866667 5.73306 -0.594547 0.387448 0.525658 0.686227 0.502768
-5.27969 -9.23044 9.6165 0.54384 -0.251462 0 1 5.76105 -0.152386 4.04027 0.552825 0.793218 0.255323
-6.14838 -8.3445 12.8004 0.305386 0.121532 0 -0.0888889 5.83164 -0.577007 3.66292 0.998638 0.0306221 -0.0422442
-0.47025 -1.53 9.122 -0.106855 -0.292155 -0.47734 -0.0888889 5.99341 0.17356 5.51113 -0.559631 0.807507 -0.186402
-0.977813 -1.33644 11.9819 0.0576827 0.237293 0 -0.155669 6.03879 -0.143982 1.49979 -0.0664935 0.980925 -0.18266
-7.58725 -5.17525 4.094 -0.0551233 0.194616 0.672859 -1 6.04354 0.185181 5.55132 -0.109349 0.717811 -0.687598
-5.6675 -9.7635 11.0267 0.39355 -0.193299 0 0.661547 6.08887 -0.536952 3.93924 0.829797 0.432144 0.353113
-9.42325 -2.72775 11.9522 -0.069941 0.196886 0 -0.779522 6.10019 -0.999869 0.387448 0.61736 0.784708 -0.0556738
-5.05225 -9.12525 8.24525 0.259349 -0.275302 0.0785852 0.778944 6.19946 -0.999817 4.04027 0.439157 0.814084 0.380011
-9.39925 -0.69575 8.29525 0.0114345 0.149971 0 -0.866667 6.24633 0.0238771 0.0824632 0.516402 0.75225 -0.409204
-0.426 -1.17206 10.6077 -0.082501 -0.265503 0 -0.0888889 6.32368 0.701762 5.51113 -0.363504 0.925447 -0.106831
-8.49575 -2.5645 12.975 -0.0942213 0.224469 -0.18369 -0.368789 6.32452 -0.54535 0.553668 0.186533 0.919786 -0.345252
-8.35437 -4.16412 4.94775 -0.453847 0.119872 -0.475452 -0.816929 6.36565 -0.0223487 5.55132 0.570471 0.599126 -0.561793
-8.9555 -3.102 5.67 -0.219211 0.158291 -0.300687 -0.821164 6.36931 -0.278896 6.05485 0.401153 0.74822 -0.528435
-0.620125 -2.47038 8.16737 0.103473 -0.346464 -0.60344 -0.38732 6.37266 -0.131727 5.51113 -0.933496 0.310793 -0.178866
-1.71375 -7.84975 10.351 0.248422 -0.385997 -0.236758 -0.347251 6.438 -0.791293 2.57054 -0.959066 -0.0283712 0.281756
-5.70131 -7.94219 14.2342 0.465197 0.0540778 0 -0.0888889 6.48927 -0.359134 3.66292 0.924738 -0.100025 -0.367226
-9.65375 -0.18225 9.868 -0.0384657 0.132712 0 -0.866667 6.49607 0.035881 0.271098 0.944339 0.32223 0.066263
-2.18438 -7.15963 8.50113 0.52569 -0.452209 0 -0.0888889 6.50937 -0.211752 2.39808 -0.97819 -0.0684411 0.19611
-9.64669 -1.105 10.3852 -0.036121 0.20493 0 -0.866667 6.54836 -0.146609 0.271098 0.861516 0.199114 0.467058
-5.90675 -2.65587 14.3011 -0.117535 0.26468 0 -0.2 6.57397 -0.7564 0.934296 0.000315313 0.991663 -0.12886
-5.116 -5.535 4.308 0.53344 -0.318854 0.132085 -1 6.60031 -0.573461 5.2127 0.188106 0.463336 0.865988
-4.2395 -8.5735 7.08169 0.515497 -0.337806 0 -0.918367 6.6454 -0.999835 4.70645 0.129076 0.635443 0.761282
-3.716 -6.85975 5.448 0.579937 -0.347073 0.268141 -1 6.66043 -0.999864 4.70645 -0.263335 0.865654 0.425791
-4.765 -2.518 14.248 -0.200502 0.300893 0 -0.2 6.66802 -0.84256 1.19621 -0.364464 0.919285 -0.148599
-10.148 -1.38462 7.12813 0.016896 0.136026 0 -0.866667 6.66822 -0.219836 6.05485 0.229914 0.611414 -0.757174
-3.69738 -1.33834 13.9881 0.059151 0.279602 0.407209 0.4 6.67878 -0.414425 1.34278 -0.730711 0.470451 -0.494709
-0.950875 -7.54581 12.4346 0.0322214 0.310945 -0.245019 -1 6.71121 0.0521168 2.71431 -0.632297 -0.545991 0.549632
-1.91937 -6.21275 14.6142 0.51438 0.221788 0.0700813 -0.50916 6.73662 -0.761247 2.79834 -0.314087 -0.892927 -0.322539
-7.47087 -2.52638 13.4104 -0.0864843 0.25586 0 -0.2 6.7517 -0.109034 0.934296 0.181217 0.970668 -0.157999
-1.63806 -0.748062 12.9071 0.207123 -0.170261 0 0.0257813 6.79728 0.00689755 1.49979 -0.00624998 0.683988 -0.729466
-2.3525 -6.17938 7.56938 0.610377 -0.489182 0.281908 -0.506213 6.81115 0.253721 2.39808 -0.928894 0.314033 0.196315
-4.87 -7.05025 15.4299 0.42535 0.118887 0 -0.0888889 6.82754 -0.21173 3.14729 0.602014 -0.722362 -0.340253
-9.886 -2.553 5.83125 -0.130164 0.16593 0 -0.84122 6.83484 -0.205416 6.05485 0.231542 0.833637 -0.501436
-3.731 -6.37675 15.2506 0.378683 0.174699 0 -0.2 6.85485 -0.78274 3.14729 0.146035 -0.903592 -0.402736
-5.07044 -6.35375 5.00331 0.6309 -0.302466 0.265465 -0.957747 6.9589 -0.625621 5.2127 0.358455 0.754102 0.55031
-2.13225 -8.094 9.39625 0.419197 -0.398635 0 0.107925 6.96192 -0.0980801 2.57054 -0.947777 0.184363 0.260248
-2.81013 -7.37475 7.02338 0.598937 -0.429235 0.0306396 -1 7.06447 -0.310992 4.70645 -0.632572 0.310152 0.709689
-2.88225 -6.48225 6.32975 0.59626 -0.415451 0.800479 -1 7.09114 0.105173 4.70645 -0.654714 0.679947 0.330186
-6.0635 -9.55275 13.222 0.51936 0.0892847 0 -0.0888889 7.11414 -0.999827 3.66292 0.961183 0.228341 -0.154877
-4.75725 -4.3725 3.745 0.240903 -0.326205 0 -1 7.14095 0.137715 5.2127 -0.31198 0.546455 0.77721
-0.949313 -4.12856 7.11919 0.359443 -0.38943 0 -0.584002 7.16462 -0.611672 2.0585 -0.913709 0.35722 0.193727
-10.237 -1.322 11.2058 -0.214441 0.164648 -0.238289 -0.866667 7.26643 -0.926325 0.387448 0.927756 0.180387 0.326696
-4.34269 -10.1756 10.3532 0.501757 -0.278788 0 0.960233 7.28225 -0.382665 4.04027 0.0574804 0.76062 0.646648
-5.65947 -10.4865 12.0315 0.227417 -0.14807 -0.128585 -0.0888889 7.32677 -0.867021 3.93924 0.739189 0.670298 0.0655765
-1.463 -8.376 11.3333 0.176508 -0.337865 -0.105314 -1 7.33221 0.32598 2.71431 -0.806276 -0.255371 0.533577
-7.01625 -5.99675 3.2625 0.0142378 0.23998 -0.13483 -0.961342 7.34442 -0.678956 5.55132 -0.752426 0.433991 -0.495487
-10.1615 0.4705 8.58675 -0.04119 0.0808654 0 -0.866667 7.39165 -0.215396 0.271098 0.911713 0.337515 -0.234228
-3.57711 -9.55381 9.77205 0.436577 -0.303247 0 0.913024 7.50104 0.132051 4.04027 -0.197054 0.922204 0.33273
-9.96212 0.7785 9.82487 -0.0460157 -0.0752876 0 -0.866667 7.50602 -0.429738 0.271098 0.984476 0.0508648 -0.167988
-8.94312 -4.58262 4.06213 -0.560117 0.0498209 -0.0572364 -0.777778 7.50849 0.0691205 5.55132 0.560501 0.160938 -0.812366
-6.11369 -4.90406 2.41894 0.0869857 -0.248485 0 -1 7.51081 0.106526 5.2127 -0.720725 0.693096 -0.0131379
0.656875 -0.954625 11.0969 0.257629 0.226196 0 -0.0888889 7.53165 0.407777 5.51113 -0.172353 0.969797 0.17259
-3.82663 -9.5445 8.57913 0.41984 -0.281432 0 0.913713 7.53714 -0.8139 4.04027 -0.0289599 0.975135 0.219709
-9.30481 -1.76231 13.5004 -0.51173 0.0887741 -0.615631 -0.777778 7.57916 -0.45824 0.553668 0.595097 0.508562 -0.622273
-2.162 -8.0945 7.9165 0.50133 -0.380935 0 -0.0888889 7.61222 -0.999892 2.39808 -0.909633 0.295624 0.291845
-7.96863 -6.67513 3.78638 -0.661683 0.191734 -0.306906 -0.777778 7.62142 -0.999901 5.55132 -0.299107 0.692448 -0.656544
-0.27 -0.883 13.3573 0.187824 0.10021 0 -0.2 7.65072 -0.074031 1.49979 0.52276 0.654727 -0.545943
0.94725 -0.8885 9.82619 0.196768 -0.211893 0.025898 -0.0888889 7.70125 0.0536257 5.51113 -0.162998 0.986589 -0.00857057
-0.030375 -1.28225 7.4885 0.122921 -0.267329 0.00467234 -0.980047 7.70315 0.180699 5.51113 -0.531229 0.845946 0.0465979
-4.98606 -4.13831 2.75444 0.0453553 -0.279725 0 -1 7.70686 -0.448578 5.2127 -0.707196 0.630495 0.319921
0.031 -7.35913 13.8882 0.636333 -0.226635 0.318217 -0.960587 7.71162 -0.484615 2.79834 -0.612271 -0.790601 0.00867966
-2.90569 0.68025 13.7451 0.049932 -0.16106 0 0.4 7.72434 0.0684272 1.34278 -0.312653 0.115108 -0.942867
-4.09312 -6.05037 4.4095 0.490923 -0.332736 0 -1 7.75018 -0.999878 5.2127 -0.137521 0.544987 0.827089
-7.06962 -2.47638 14.4404 -0.0257032 0.177692 0.0962312 -0.376944 7.75882 -0.731081 0.934296 0.328211 0.848099 -0.415938
-10.5411 0.020375 7.60388 -0.0416343 0.076313 0 -0.866667 7.76114 0.287834 0.0824632 0.449597 0.384052 -0.806453
-9.01975 -6.191 4.01325 -0.53754 0.0952402 0 -0.777778 7.80147 -0.871548 5.55132 0.243692 0.223039 -0.943858
-1.69987 -5.249 6.81862 0.450617 -0.409594 0.09057 -0.79922 7.83817 -0.615685 2.0585 -0.818807 0.560268 0.125122
-11.189 -0.84225 7.053 -0.0315099 0.121567 0 -0.866667 7.84444 0.617094 6.05485 0.0537119 0.434125 -0.89925
-10.1517 -1.443 12.8884 -0.57693 0.0512525 -0.0908054 -0.810518 7.84882 -0.920442 0.387448 0.884903 0.208359 -0.416574
-1.88644 -9.22363 10.6494 0.397807 -0.322462 0 0.844444 7.85448 -0.0799102 2.57054 -0.616614 0.425512 0.662365
-10.4152 -2.56775 4.9595 -0.10965 0.181217 -0.00293626 -0.85504 7.85475 -0.197551 6.05485 0.427255 0.881527 0.200905
-3.95025 -4.98125 4.1915 0.403797 -0.353349 0.703378 -1 7.89614 -0.439848 5.2127 -0.364018 0.223478 0.904184
-5.15737 -2.20863 15.3814 -0.0770677 0.201537 -0.423582 0.4 7.90667 -0.999859 1.19621 -0.285748 0.688131 -0.666951
-1.22113 0.0809375 13.5485 0.0400333 -0.0916291 0 0.4 7.92532 -0.0746796 1.49979 0.27894 0.353428 -0.892906
-0.7125 -3.14287 6.77037 0.40072 -0.36337 0 -1 7.92585 -0.786713 2.0585 -0.909629 0.176453 0.376085
-3.83075 -0.304 14.6757 -0.026281 -0.20482 -0.0434052 0.446411 7.92796 -0.560929 1.34278 -0.607594 -0.0369576 -0.793388
-4.4885 -6.99975 16.5465 0.454337 0.102545 0 0.0897651 8.0086 -0.999917 3.14729 0.437605 -0.720127 -0.538441
-9.76156 0.291438 11.3061 -0.0964303 -0.104097 0 0.4 8.01401 -0.15531 0.271098 0.936059 -0.348835 -0.0459032
-1.30838 -7.12044 15.2753 0.716963 -0.183827 0.477581 -0.777778 8.01501 -0.300777 2.79834 -0.452784 -0.683757 -0.572243
-5.04875 -7.88225 16.3645 0.37142 0.0395136 0 -0.0888889 8.09153 -0.724377 3.14729 0.850945 -0.254382 -0.459545
-5.26237 -9.369 14.8328 0.507297 0.0641692 0 0.78746 8.09761 -0.00494616 3.66292 0.932581 0.232313 -0.276268
0.721 -1.61625 13.153 0.124071 0.146981 0 -0.2 8.12103 -0.13008 1.49979 0.550536 0.834086 0.034786
-2.69287 -5.83144 5.22319 0.455863 -0.376575 0.425143 -1 8.12834 -0.739062 4.70645 -0.654214 0.459018 0.601088
-2.77375 -9.09387 9.28175 0.433723 -0.334722 0 0.844444 8.15539 -0.218317 2.57054 -0.625672 0.758327 0.182961
1.37888 -0.50825 8.64587 0.109163 -0.181073 0.781538 -0.0888889 8.15904 0.999862 5.51113 0.0043209 0.99807 -0.0619493
-4.3105 -11.2565 11.5763 0.575097 -0.192596 0 -0.0888889 8.17993 -0.758212 4.04027 0.336622 0.872277 0.354709
-9.5915 -3.258 3.9775 -0.310933 -0.0890327 -0.124325 -0.777778 8.18029 0.126382 5.55132 0.845598 0.469669 -0.25372
-3.04312 -9.22025 8.00725 0.43946 -0.329663 0 0.844444 8.29047 -0.999875 4.04027 -0.450346 0.747347 0.488529
-5.41463 -10.342 13.8094 0.499113 -0.0867517 0 0.271149 8.2927 -0.471593 3.66292 0.814785 0.508942 -0.277674
-11.3241 -2.33512 5.93962 -0.0451153 0.153344 0 -0.866667 8.29338 -0.709798 6.05485 0.252521 0.915196 -0.314085
1.33506 -1.27988 11.9929 0.171192 0.19752 0 -0.184761 8.35238 0.187838 1.49979 0.263704 0.797677 0.542376
-7.35575 -6.70587 2.56169 -0.151647 -0.227497 0 -0.485396 8.39763 -0.712272 5.55132 -0.706322 0.699094 -0.111252
-0.945625 -1.96769 6.20687 0.41249 -0.333345 0 -1 8.42259 0.0726819 5.51113 -0.792355 0.33976 0.506693
-2.83406 -7.02481 16.3614 0.508743 0.155395 0.125341 -0.777778 8.42276 -0.497239 3.14729 -0.213924 -0.73017 -0.648913
-0.571625 -9.07475 11.6154 0.316279 0.276859 -0.00596384 -0.972213 8.48676 -0.150563 2.71431 -0.446835 -0.276825 0.850709
-4.05363 -3.21913 3.93375 0.0999057 -0.343467 0 -1 8.50513 0.525863 5.2127 -0.710511 0.29783 0.637551
-10.2965 1.40625 7.82575 -0.117352 -0.0776931 0 -0.777778 8.60531 -0.0680291 0.271098 0.562055 -0.588037 -0.581642
-9.66938 1.7765 10.3371 -0.0597057 -0.0780778 0 0.4 8.66536 -0.672893 0.271098 0.732011 -0.557361 -0.391801
-10.1956 -0.223 12.1319 -0.318546 -0.0865076 -0.563898 -0.758511 8.7042 -0.999829 0.387448 0.948219 -0.288896 -0.131983
-6.46925 -5.10881 1.25181 -0.019668 -0.234764 0 -0.880138 8.74796 -0.259342 5.2127 -0.779521 0.411465 0.472275
-12.2112 -1.32056 6.83494 -0.0297725 0.112463 0 -0.464164 8.75313 -0.41028 6.05485 0.212442 0.686723 -0.695183
-1.476 -3.1625 5.95813 0.62033 -0.376603 0.397828 -1 8.76422 0.0432137 2.0585 -0.693237 0.143144 0.706351
-8.64675 -1.3 14.493 -0.307199 0.0308457 -0.805512 -0.777778 8.85667 -0.640637 0.553668 0.694924 0.166547 -0.69953
-4.75675 0.05125 15.3105 -0.106209 -0.184218 -0.141506 0.669609 8.87012 -0.407501 1.34278 -0.547288 -0.301542 -0.780735
-7.49125 -1.47625 15.2793 0.247017 0.0946262 0.704737 -0.777778 8.89552 -0.569798 0.934296 0.469884 0.554722 -0.686653
-4.561 -3.0465 2.529 0.146464 -0.269612 0.0175719 -1 8.89998 0.268546 5.2127 -0.805122 0.509933 0.302898
-8.796 -7.136 2.874 -0.135071 -0.175844 -0.000741121 -0.36136 8.93648 -0.830724 5.55132 -0.102779 0.977726 -0.182997
-4.754 -10.953 13.301 0.49652 -0.141866 0 -0.0888889 8.95439 -0.214181 3.66292 0.543967 0.839005 -0.01308
-9.66475 -6.88675 3.34425 -0.183105 -0.120133 0 -0.415662 8.96235 -0.846726 5.55132 0.304819 0.803747 -0.510956
-1.81662 -4.56588 5.56887 0.41354 -0.381851 0.340609 -1 8.99409 -0.672701 2.0585 -0.783066 0.239221 0.574091
2.11538 -0.606875 10.9895 0.0126506 0.16946 0 -0.0888889 9.03489 0.999888 5.51113 0.181246 0.959523 0.21556
-5.76875 -4.03025 1.206 -0.335113 -0.236394 0.547276 -1 9.045 -0.502144 5.2127 -0.659128 0.428587 0.617951
-11.8252 -0.017625 7.72687 -0.0253071 0.109658 0 -0.866667 9.05168 -0.496865 0.0824632 0.0271841 0.356959 -0.933724
-3.302 -11.1471 11.4605 0.51537 -0.236946 0 0.844444 9.08584 -0.374138 4.04027 -0.0613465 0.694598 0.716778
1.14525 -8.562 12.9073 0.701093 -0.221235 0.394016 -1 9.08815 -0.868068 2.71431 -0.669011 -0.647723 0.364526
-4.18175 0.935375 14.1839 -0.0221448 -0.159411 0 0.924198 9.09764 -0.18944 1.34278 -0.205217 -0.606615 -0.768052
-10.316 -5.06875 3.35775 -0.325391 0.0346487 0 -0.809818 9.12629 -0.68097 5.55132 0.673115 -0.274309 -0.686783
-4.30062 -7.94225 17.1379 0.42654 -0.0670913 0 1 9.13703 -0.999876 3.14729 0.324397 -0.263037 -0.908613
-0.04025 -0.651 6.15987 0.19916 -0.253762 0 -1 9.17415 0.193422 5.51113 -0.333882 0.706318 0.62421
-5.79569 -1.33506 16.1006 -0.0309629 -0.135901 0 0.4 9.20584 -0.999871 1.19621 -0.124208 0.290816 -0.948682
-9.43606 -0.117812 13.4581 -0.329975 -0.0270752 -0.0503273 0.201144 9.22943 -0.30643 0.387448 0.804556 -0.193789 -0.561369
-4.8805 -10.495 14.9487 0.529893 0.0798993 0 0.933333 9.29224 0.0710405 3.66292 0.932964 0.341581 -0.11358
-2.817 -4.43525 4.809 0.438413 -0.377569 0.745353 -1 9.29746 -0.632374 5.2127 -0.582432 0.0504241 0.811314
-8.74413 1.04475 11.6525 -0.0659547 -0.117316 0 0.4 9.3265 0.178468 0.271098 0.462599 -0.739102 -0.489623
1.572 -0.953875 7.497 0.332302 -0.169038 0.197939 -0.676238 9.33885 0.159922 5.51113 0.0473165 0.987682 -0.149147
-3.42144 2.20444 13.4284 -0.243935 -0.0875179 -0.116342 0.9093 9.36429 -0.172714 1.34278 0.306256 -0.504535 -0.80725
-10.0218 -4.13219 2.61144 0.0095534 -0.05801 0 -0.866667 9.37154 0.0786728 5.55132 0.962657 -0.158563 -0.21943
-0.118719 0.483594 14.4014 -0.026709 0.0221296 0 0.4 9.37614 0.265661 1.49979 0.788998 0.16338 -0.592275
-1.33125 -10.4866 11.3071 0.442793 -0.251568 0 0.844444 9.38285 -0.463431 2.57054 -0.287108 0.373615 0.882032
-4.86794 -9.33075 16.6371 0.158079 0.0185378 0 0.933333 9.38694 -0.363641 3.14729 0.851016 0.0549026 -0.522261
-1.40675 -8.23525 16.089 0.725003 -0.154723 0.431927 -0.777778 9.39869 0.999761 2.79834 -0.400395 -0.658658 -0.637066
-10.2933 -1.5525 3.79225 0.2774 -0.156891 0.732195 -0.866667 9.40655 0.441177 6.05485 0.67929 0.548711 0.487321
-11.926 -2.06175 4.8235 0.08382 0.174264 0 0.844444 9.45383 -0.421432 6.05485 0.214942 0.911725 0.350082
-5.19125 -3.15313 1.31638 -0.263014 -0.235062 0 -0.777778 9.46205 -0.201481 5.2127 -0.612573 0.506803 0.606552
-7.487 -6.942 1.53 -0.053482 -0.195095 0 -0.355556 9.4641 -0.882381 5.55132 -0.35587 0.914039 0.194652
1.475 -1.086 6.477 0.206609 -0.188126 0 -1 9.52737 -0.482249 5.51113 0.0342105 0.968835 0.245335
-11.3206 -1.394 4.09538 0.428673 0.193587 0.301046 -0.866667 9.5706 0.406092 6.05485 0.0982185 0.706631 0.700733
-1.30175 1.72675 13.5933 -0.0387437 -0.0827532 0 0.4 9.57372 0.635166 1.49979 0.251486 0.358882 -0.898865
2.82544 -1.15769 9.54619 0.00558137 0.120666 0 -0.0888889 9.61918 0.459066 5.51113 0.599762 0.800153 -0.00639302
1.41825 -2.4965 14.165 -0.0174466 0.112742 -0.188425 -0.2 9.6327 -0.577821 1.49979 0.754722 0.655694 0.021473
-10.6788 -6.08825 3.1925 -0.175523 -0.0468543 0 -0.808804 9.65529 -0.999887 5.55132 0.935904 0.144782 -0.321127
0.717875 -8.19975 15.5052 0.615783 -0.164857 0.45129 -0.784236 9.65921 -0.999819 2.79834 -0.62321 -0.649262 -0.435968
3 125 158 170
3 144 189 128
3 128 70 144
3 82 122 66
3 82 66 35
3 35 66 40
3 107 184 144
3 62 107 69
3 69 70 41
3 70 90 56
3 41 56 35
3 56 82 35
3 35 40 16
3 35 16 41
3 40 25 16
3 7 12 32
3 49 25 40
3 76 49 74
3 49 40 66
3 74 49 104
3 66 104 49
3 104 66 122
3 108 48 117
3 117 48 97
3 117 97 153
3 97 48 78
3 97 78 129
3 153 97 129
3 3 30 21
3 41 21 30
3 30 45 41
3 3 21 15
3 15 16 4
3 0 4 7
3 0 1 5
3 1 7 10
3 10 18 53
3 18 39 53
3 39 18 32
3 81 39 77
3 32 68 86
3 76 74 135
3 106 135 74
3 124 140 95
3 95 42 94
3 42 19 38
3 19 42 11
3 11 42 24
3 6 3 0
3 0 5 9
3 52 23 55
3 5 10 14
3 36 14 34
3 10 5 1
3 26 53 50
3 161 130 177
3 86 121 77
3 160 111 178
3 55 98 124
3 124 88 52
3 88 94 75
3 88 75 52
3 42 38 79
3 8 0 9
3 9 27 17
3 52 47 23
3 47 72 46
3 46 72 102
3 75 93 47
3 72 127 102
3 105 58 100
3 141 110 105
3 110 58 105
3 38 65 79
3 13 37 33
3 58 37 63
3 63 100 58
3 28 59 37
3 63 37 59
3 43 27 44
3 27 46 54
3 54 44 27
3 118 84 172
3 152 172 84
3 152 102 127
3 63 96 101
3 59 73 96
3 43 44 91
3 91 44 85
3 85 136 151
3 151 91 85
3 146 73 138
3 73 89 137
3 73 43 89
3 91 89 43
3 73 137 187
3 73 187 138
3 150 71 116
3 36 60 71
3 71 60 116
3 60 115 142
3 61 67 34
3 34 51 61
3 87 61 51
3 87 51 50
3 87 119 131
3 119 83 133
3 119 133 173
3 195 185 131
3 131 185 114
3 193 176 116
3 176 150 116
3 193 116 182
3 182 116 142
3 196 142 115
3 196 115 168
3 109 115 67
3 168 109 148
3 139 148 61
3 61 114 139
3 109 168 115
3 108 157 149
3 164 149 192
3 128 90 70
3 82 147 158
3 82 158 125
3 194 190 128
3 194 128 189
3 128 147 90
3 90 147 82
3 128 190 147
3 104 122 154
3 170 154 122
3 184 174 198
3 107 123 174
3 107 174 184
3 123 107 62
3 48 62 30
3 30 62 45
3 62 69 45
3 41 45 69
3 41 70 56
3 4 12 7
3 12 4 25
3 16 25 4
3 32 12 25
3 57 32 25
3 57 49 76
3 57 25 49
3 74 104 106
3 106 104 154
3 106 154 155
3 157 108 169
3 123 166 198
3 123 198 174
3 149 164 113
3 113 166 123
3 166 113 164
3 103 113 62
3 62 113 123
3 103 149 113
3 108 149 103
3 129 78 120
3 120 78 92
3 11 24 3
3 48 92 78
3 92 48 42
3 42 48 24
3 3 24 30
3 30 24 48
3 0 3 4
3 4 3 15
3 81 53 39
3 160 162 111
3 111 162 68
3 162 86 68
3 86 162 121
3 99 57 76
3 135 156 99
3 135 99 76
3 135 106 155
3 135 155 181
3 124 167 140
3 140 167 180
3 180 167 159
3 95 140 80
3 80 140 120
3 80 120 92
3 120 140 129
3 180 129 140
3 95 80 42
3 92 42 80
3 42 79 94
3 38 19 20
3 19 11 6
3 2 13 20
3 2 20 6
3 19 6 20
3 6 0 2
3 9 5 23
3 36 55 14
3 14 23 5
3 23 14 55
3 34 14 26
3 34 26 51
3 26 14 10
3 50 51 26
3 83 50 53
3 81 83 53
3 161 83 130
3 130 83 81
3 130 81 77
3 177 130 162
3 130 121 162
3 77 121 130
3 126 156 178
3 126 178 111
3 99 156 64
3 57 99 64
3 156 126 64
3 57 64 32
3 32 64 68
3 68 64 111
3 126 111 64
3 132 150 159
3 98 132 159
3 167 124 98
3 167 98 159
3 112 75 94
3 93 75 112
3 93 112 141
3 145 141 112
3 145 112 94
3 145 94 79
3 110 141 145
3 65 110 79
3 79 110 145
3 38 20 33
3 33 20 13
3 28 13 22
3 22 13 2
3 22 2 8
3 0 8 2
3 8 17 22
3 27 9 29
3 27 29 46
3 23 47 29
3 23 29 9
3 29 47 46
3 127 72 93
3 127 93 141
3 93 72 47
3 65 58 110
3 58 65 38
3 58 38 33
3 58 33 37
3 22 59 28
3 59 22 31
3 31 22 17
3 31 17 43
3 54 46 84
3 85 118 136
3 54 118 85
3 118 54 84
3 127 186 152
3 127 171 186
3 100 143 171
3 143 100 63
3 143 63 101
3 146 165 101
3 146 101 96
3 146 96 73
3 31 73 59
3 43 73 31
3 85 44 54
3 91 151 89
3 89 151 134
3 89 134 137
3 151 175 134
3 134 175 137
3 172 199 118
3 118 199 136
3 136 199 188
3 101 165 143
3 175 187 137
3 71 132 98
3 71 98 55
3 71 55 36
3 150 132 71
3 142 116 60
3 67 115 60
3 161 173 133
3 161 133 83
3 183 119 173
3 131 114 87
3 87 114 61
3 169 108 117
3 169 117 191
3 191 117 163
3 122 125 170
3 125 122 82
3 69 144 70
3 69 107 144
3 90 82 56
3 48 108 62
3 103 62 108
3 21 41 16
3 21 16 15
3 7 1 0
3 32 18 7
3 10 7 18
3 39 32 86
3 163 117 153
3 129 180 153
3 11 3 6
3 53 26 10
3 86 77 39
3 124 95 88
3 94 88 95
3 8 9 17
3 75 47 52
3 55 124 52
3 60 36 67
3 67 36 34
3 83 119 50
3 87 50 119
3 195 131 119
3 28 37 13
3 17 27 43
3 102 84 46
3 102 152 84
3 127 100 171
3 63 59 96
3 136 188 151
3 146 138 179
3 179 138 187
3 109 67 61
3 148 109 61
3 127 141 105
3 127 105 100
