ply
format ascii 1.0
comment Generated by PyMesh
element vertex 178
property float x
property float y
property float z
property float nx
property float ny
property float nz
element face 323
property list uchar int vertex_indices
end_header
-3.57711 -9.55381 9.77205 -0.197054 0.922204 0.33273
-2.77375 -9.09387 9.28175 -0.625672 0.758327 0.182961
-4.34269 -10.1756 10.3532 0.0574804 0.76062 0.646648
-3.82663 -9.5445 8.57913 -0.0289599 0.975135 0.219709
-5.27969 -9.23044 9.6165 0.552825 0.793218 0.255323
-1.88644 -9.22363 10.6494 -0.616614 0.425512 0.662365
-2.13225 -8.094 9.39625 -0.947777 0.184363 0.260248
-3.04312 -9.22025 8.00725 -0.450346 0.747347 0.488529
-5.05225 -9.12525 8.24525 0.439157 0.814084 0.380011
-5.6675 -9.7635 11.0267 0.829797 0.432144 0.353113
-4.3105 -11.2565 11.5763 0.336622 0.872277 0.354709
-2.162 -8.0945 7.9165 -0.909633 0.295624 0.291845
-3.302 -11.1471 11.4605 -0.0613465 0.694598 0.716778
-6.14975 -8.38775 9.2365 0.864514 0.496605 -0.0774548
-4.2395 -8.5735 7.08169 0.129076 0.635443 0.761282
-5.77 -8.44 10.563 0.951713 0.306736 0.0124313
-1.463 -8.376 11.3333 -0.806276 -0.255371 0.533577
-1.71375 -7.84975 10.351 -0.959066 -0.0283712 0.281756
-1.33125 -10.4866 11.3071 -0.287108 0.373615 0.882032
-2.18438 -7.15963 8.50113 -0.97819 -0.0684411 0.19611
-0.571625 -9.07475 11.6154 -0.446835 -0.276825 0.850709
-6.109 -8.09013 8.2005 0.704026 0.548252 0.451407
-1.90625 -6.818 10.2917 -0.962724 -0.18519 0.197148
-5.65947 -10.4865 12.0315 0.739189 0.670298 0.0655765
-2.81013 -7.37475 7.02338 -0.632572 0.310152 0.709689
-6.60156 -7.33588 8.79594 0.994857 0.0992303 0.0203263
-2.527 -11.704 12.3365 0.176489 0.927301 0.330096
-6.10838 -7.2915 10.8197 0.978062 0.207388 -0.01962
-6.27887 -7.16625 9.82987 0.968248 0.150609 -0.199533
-4.69228 -7.21006 6.58134 0.412367 0.69768 0.585829
-0.950875 -7.54581 12.4346 -0.632297 -0.545991 0.549632
-4.754 -10.953 13.301 0.543967 0.839005 -0.01308
-2.309 -6.189 8.945 -0.990824 0.123307 -0.0553434
-3.58612 -11.5753 13.3752 0.367699 0.920854 0.129709
-0.02625 -10.5835 11.7972 -0.321326 0.311059 0.894423
-2.3525 -6.17938 7.56938 -0.928894 0.314033 0.196315
-6.0635 -9.55275 13.222 0.961183 0.228341 -0.154877
-6.14838 -8.3445 12.8004 0.998638 0.0306221 -0.0422442
-6.22325 -6.96025 7.58225 0.827747 0.0783912 0.555599
-2.011 -5.875 11.0615 -0.733903 -0.671001 -0.105567
-1.37625 -11.8694 12.1976 -0.0962332 0.842831 0.529505
-1.7585 -6.495 11.9974 -0.875271 -0.44215 0.195971
-0.359 -11.5591 12.3024 -0.345776 0.698796 0.626197
1.0125 -9.58212 11.8576 -0.547629 -0.0482876 0.835327
-2.88225 -6.48225 6.32975 -0.654714 0.679947 0.330186
-6.14825 -6.61194 11.79 0.929507 -0.355159 -0.0993885
-5.41463 -10.342 13.8094 0.814785 0.508942 -0.277674
1.14525 -8.562 12.9073 -0.669011 -0.647723 0.364526
-6.17556 -5.75075 9.81419 0.879245 -0.409227 -0.243849
-2.61469 -4.94441 9.86416 -0.775368 -0.219062 -0.592297
-4.07681 -11.5229 14.4209 0.611204 0.778348 0.143542
-1.66 -12.3445 13.6494 0.0749592 0.965726 0.248506
-2.7135 -12.04 14.0715 0.366581 0.883477 0.291696
-6.2445 -5.67425 8.35825 0.940384 -0.316391 0.124801
0.863875 -10.9526 12.4683 -0.584743 0.680737 0.441217
-3.716 -6.85975 5.448 -0.263335 0.865654 0.425791
-1.52013 -6.21325 13.1946 -0.53448 -0.837967 0.110193
-1.69987 -5.249 6.81862 -0.818807 0.560268 0.125122
0.031 -7.35913 13.8882 -0.612271 -0.790601 0.00867966
-2.68963 -5.70463 12.3524 -0.260663 -0.948494 -0.180039
-0.595 -12.0105 13.363 -0.371538 0.892576 0.255475
-5.79563 -5.69025 7.32412 0.957859 0.0303151 0.285636
-5.07044 -6.35375 5.00331 0.358455 0.754102 0.55031
-5.70131 -7.94219 14.2342 0.924738 -0.100025 -0.367226
-2.69287 -5.83144 5.22319 -0.654214 0.459018 0.601088
1.891 -9.97425 13.0087 -0.975146 0.0577273 0.213912
-6.111 -5.624 6.089 0.902457 0.418943 -0.100291
-5.308 -5.77575 12.31 0.323934 -0.933786 -0.152023
-3.67925 -5.23994 10.9784 -0.0577555 -0.859388 -0.508052
-4.8805 -10.495 14.9487 0.932964 0.341581 -0.11358
-5.725 -6.1115 13.164 0.778413 -0.53643 -0.326062
-5.26237 -9.369 14.8328 0.932581 0.232313 -0.276268
-0.731875 -12.3286 14.3022 -0.356289 0.916199 0.183404
1.367 -8.79813 14.2028 -0.938835 -0.300511 -0.168172
-4.92338 -5.55363 11.0901 0.467586 -0.821285 -0.326885
-2.44412 -12.6461 15.2684 0.108394 0.994106 0.00173444
-4.7185 -11.2759 15.6766 0.793706 0.608294 -0.00312074
-1.03 -3.787 8.5425 -0.841293 0.29785 -0.451123
-4.09312 -6.05037 4.4095 -0.137521 0.544987 0.827089
-5.116 -5.535 4.308 0.188106 0.463336 0.865988
-2.78744 -5.99862 13.4154 -0.0566234 -0.97951 -0.193273
-5.271 -4.34734 9.45378 0.716884 -0.165769 -0.677199
0.35525 -11.5347 13.7522 -0.562823 0.806709 0.18014
-0.949313 -4.12856 7.11919 -0.913709 0.35722 0.193727
-5.61875 -4.25737 7.6965 0.978629 0.118664 -0.167943
1.3825 -10.685 14.0083 -0.884948 0.461274 -0.0639818
-3.354 -12.5258 15.707 0.334248 0.942454 0.00765007
-1.91937 -6.21275 14.6142 -0.314087 -0.892927 -0.322539
-1.81662 -4.56588 5.56887 -0.783066 0.239221 0.574091
-3.67 -3.37725 10.0363 0.0528347 0.22804 -0.972217
-1.08025 -12.5326 15.4539 -0.267539 0.945742 -0.184376
-6.183 -5.011 4.536 0.30348 0.907268 0.291145
-2.55194 -2.87169 10.2829 -0.412992 0.578452 -0.703442
-2.817 -4.43525 4.809 -0.582432 0.0504241 0.811314
-6.624 -4.5115 5.5635 0.517749 0.639978 -0.567772
-4.83238 -6.22475 14.045 0.337459 -0.863933 -0.373821
0.243813 -11.8969 14.8194 -0.612517 0.78779 -0.0648907
-4.87 -7.05025 15.4299 0.602014 -0.722362 -0.340253
-1.30838 -7.12044 15.2753 -0.452784 -0.683757 -0.572243
0.717875 -8.19975 15.5052 -0.62321 -0.649262 -0.435968
1.30375 -9.7405 15.091 -0.953067 -0.0709761 -0.294322
-3.95025 -4.98125 4.1915 -0.364018 0.223478 0.904184
-4.66625 -11.0845 16.892 0.873862 0.373752 -0.310925
-0.7125 -3.14287 6.77037 -0.909629 0.176453 0.376085
-0.620125 -2.47038 8.16737 -0.933496 0.310793 -0.178866
-5.04875 -7.88225 16.3645 0.850945 -0.254382 -0.459545
-4.75725 -4.3725 3.745 -0.31198 0.546455 0.77721
-3.116 -12.246 16.7978 0.255258 0.896528 -0.36205
-1.62603 -12.0646 16.4171 -0.241147 0.799142 -0.550654
-3.648 -2.5685 10.791 0.0512143 0.888126 -0.456737
-4.86794 -9.33075 16.6371 0.851016 0.0549026 -0.522261
-4.73887 -2.95038 10.0363 0.215907 0.495566 -0.841308
1.146 -10.677 15.4235 -0.849498 0.391589 -0.353568
-1.476 -3.1625 5.95813 -0.693237 0.143144 0.706351
-7.5915 -4.8935 5.11925 0.355514 0.720587 -0.595285
-6.187 -2.8705 7.317 0.76518 0.638045 -0.0860097
-3.12075 -3.278 4.64725 -0.612575 0.0962018 0.784536
-1.991 -1.967 11.037 -0.456314 0.833743 -0.310886
0.859375 -9.032 16.0446 -0.710914 -0.271388 -0.648807
-6.351 -2.99425 8.68025 0.659098 0.746601 -0.0904267
-7.58725 -5.17525 4.094 -0.109349 0.717811 -0.687598
-1.62925 -2.0845 9.506 -0.672234 0.587866 -0.450016
-4.4885 -6.99975 16.5465 0.437605 -0.720127 -0.538441
-5.82725 -2.50425 9.9965 0.185066 0.85031 -0.49267
-3.731 -6.37675 15.2506 0.146035 -0.903592 -0.402736
-0.125625 -11.4201 16.4508 -0.505807 0.513905 -0.692864
-6.4485 -3.06988 6.36562 0.581447 0.599726 -0.549771
-1.40675 -8.23525 16.089 -0.400395 -0.658658 -0.637066
-3.862 -11.6217 17.6195 0.410813 0.59085 -0.694355
-2.83406 -7.02481 16.3614 -0.213924 -0.73017 -0.648913
-7.69875 -3.17213 5.98338 0.299425 0.616534 -0.728169
-4.98606 -4.13831 2.75444 -0.707196 0.630495 0.319921
-4.30062 -7.94225 17.1379 0.324397 -0.263037 -0.908613
-3.47725 -2.18625 11.8475 -0.3464 0.841313 -0.414969
-4.05363 -3.21913 3.93375 -0.710511 0.29783 0.637551
-0.945625 -1.96769 6.20687 -0.792355 0.33976 0.506693
-6.11369 -4.90406 2.41894 -0.720725 0.693096 -0.0131379
0.578125 -10.3691 16.4349 -0.656737 0.0802966 -0.749832
-0.464 -8.9755 16.604 -0.386586 -0.387961 -0.836683
-0.47025 -1.53 9.122 -0.559631 0.807507 -0.186402
-2.77225 -11.4105 17.805 -0.18764 0.469214 -0.862919
-3.79075 -10.2222 18.0065 0.409482 -0.0532152 -0.910765
-0.030375 -1.28225 7.4885 -0.531229 0.845946 0.0465979
-3.2065 -2.32675 4.27975 -0.661631 0.374437 0.649648
-8.35437 -4.16412 4.94775 0.570471 0.599126 -0.561793
-2.33325 -1.6125 12.1005 -0.27871 0.82363 -0.493918
-7.16125 -2.234 7.76575 0.557123 0.812604 -0.171138
-6.951 -2.5145 9.9525 0.21621 0.976343 0.00262576
-1.8625 -1.868 5.281 -0.642916 0.358324 0.676951
-7.01625 -5.99675 3.2625 -0.752426 0.433991 -0.495487
-0.977813 -1.33644 11.9819 -0.0664935 0.980925 -0.18266
-3.23534 -8.48941 17.304 0.0843109 -0.374124 -0.923538
-8.94312 -4.58262 4.06213 0.560501 0.160938 -0.812366
-1.70119 -8.70938 17.1994 -0.367204 -0.522871 -0.769264
-6.2165 -2.099 11.352 -0.0671779 0.99727 0.0306544
-7.96863 -6.67513 3.78638 -0.299107 0.692448 -0.656544
-4.561 -3.0465 2.529 -0.805122 0.509933 0.302898
-1.69675 -10.2355 17.6903 -0.451623 0.102526 -0.886298
-0.426 -1.17206 10.6077 -0.363504 0.925447 -0.106831
-8.9555 -3.102 5.67 0.401153 0.74822 -0.528435
-9.01975 -6.191 4.01325 0.243692 0.223039 -0.943858
-3.15875 -1.42963 12.8542 -0.499533 0.666475 -0.553423
-6.46925 -5.10881 1.25181 -0.779521 0.411465 0.472275
-2.68175 -10.0616 18.0147 -0.147886 -0.169386 -0.974391
-4.69075 -2.53175 13.1115 -0.350228 0.931539 -0.0978508
-8.982 -2.2765 6.4235 0.208589 0.693139 -0.689962
-8.08497 -1.88934 9.36447 0.524179 0.786561 0.326433
-5.76875 -4.03025 1.206 -0.659128 0.428587 0.617951
-8.17025 -1.88312 7.04 0.329029 0.739171 -0.587679
-5.19125 -3.15313 1.31638 -0.612573 0.506803 0.606552
-3.709 -1.9195 3.02475 -0.766861 0.573532 0.288072
-0.04025 -0.651 6.15987 -0.333882 0.706318 0.62421
-7.35575 -6.70587 2.56169 -0.706322 0.699094 -0.111252
-2.31381 -1.10175 4.2515 -0.672386 0.636115 0.37849
-1.63806 -0.748062 12.9071 -0.00624998 0.683988 -0.729466
0.94725 -0.8885 9.82619 -0.162998 0.986589 -0.00857057
1.572 -0.953875 7.497 0.0473165 0.987682 -0.149147
-7.99203 -2.64528 11.2072 -0.0144315 0.992396 0.122235
3 120 152 144
3 144 159 130
3 130 165 168
3 168 146 130
3 123 147 177
3 136 91 131
3 131 91 106
3 131 106 134
3 106 91 79
3 106 79 101
3 134 106 101
3 84 94 126
3 130 126 94
3 94 114 130
3 84 126 115
3 115 146 119
3 81 119 123
3 81 111 89
3 111 123 109
3 109 154 164
3 170 134 143
3 134 116 143
3 93 113 116
3 57 64 44
3 44 29 24
3 29 38 21
3 38 29 61
3 61 29 66
3 53 84 81
3 81 89 68
3 32 49 77
3 89 109 92
3 121 92 117
3 109 89 111
3 133 164 161
3 173 143 148
3 77 83 57
3 57 35 32
3 35 24 19
3 35 19 32
3 29 21 14
3 74 81 68
3 68 59 67
3 32 22 49
3 22 17 41
3 41 17 16
3 19 6 22
3 17 5 16
3 0 4 2
3 1 3 0
3 3 4 0
3 21 8 14
3 28 15 13
3 4 15 9
3 9 2 4
3 27 37 15
3 9 15 37
3 95 59 80
3 59 41 56
3 56 80 59
3 58 30 47
3 20 47 30
3 34 20 18
3 20 16 5
3 9 36 23
3 37 63 36
3 95 80 124
3 124 80 87
3 87 98 129
3 129 124 87
3 129 127 153
3 151 129 153
3 153 127 138
3 85 54 82
3 40 18 12
3 40 12 26
3 51 26 33
3 33 10 31
3 33 50 52
3 69 50 46
3 31 46 50
3 46 63 71
3 63 97 105
3 63 95 97
3 124 97 95
3 63 105 110
3 63 110 71
3 141 151 163
3 157 138 125
3 157 125 108
3 73 85 100
3 72 96 82
3 72 82 60
3 76 50 69
3 69 110 102
3 135 104 142
3 121 139 104
3 104 139 142
3 150 158 117
3 117 145 150
3 174 150 145
3 174 145 161
3 171 135 142
3 136 162 172
3 160 152 120
3 91 120 94
3 94 120 114
3 120 144 114
3 130 114 144
3 130 159 165
3 119 147 123
3 147 119 166
3 146 166 119
3 177 147 166
3 162 136 167
3 149 155 120
3 120 155 160
3 149 172 155
3 136 172 149
3 101 79 78
3 78 79 62
3 61 66 84
3 91 62 79
3 62 91 29
3 29 91 66
3 84 66 94
3 94 66 91
3 81 84 119
3 119 84 115
3 113 143 116
3 57 88 64
3 64 88 93
3 93 88 113
3 44 64 55
3 55 64 78
3 55 78 62
3 78 64 101
3 93 101 64
3 44 55 29
3 62 29 55
3 29 14 24
3 21 38 25
3 38 61 53
3 48 28 25
3 48 25 53
3 38 53 25
3 53 81 48
3 68 89 49
3 121 77 92
3 92 49 89
3 49 92 77
3 117 92 133
3 117 133 145
3 133 92 109
3 161 145 133
3 135 148 113
3 103 135 113
3 83 103 113
3 88 57 83
3 88 83 113
3 11 19 24
3 6 19 11
3 6 11 1
3 7 1 11
3 7 11 24
3 7 24 14
3 3 1 7
3 8 3 14
3 14 3 7
3 21 25 13
3 13 25 28
3 27 28 45
3 45 28 48
3 45 48 74
3 81 74 48
3 74 67 45
3 59 68 39
3 59 39 41
3 49 22 39
3 49 39 68
3 39 22 41
3 5 17 6
3 5 6 1
3 6 17 22
3 8 4 3
3 4 8 21
3 4 21 13
3 4 13 15
3 45 37 27
3 37 45 70
3 70 45 67
3 70 67 95
3 56 41 30
3 87 58 98
3 56 58 87
3 58 56 30
3 43 47 20
3 43 20 34
3 5 18 20
3 5 12 18
3 2 10 12
3 10 2 9
3 10 9 23
3 46 31 23
3 46 23 36
3 46 36 63
3 70 63 37
3 95 63 70
3 87 80 56
3 124 129 97
3 97 129 122
3 97 122 105
3 129 151 132
3 129 132 122
3 122 132 105
3 118 99 100
3 99 118 138
3 99 138 127
3 73 100 99
3 73 99 47
3 47 99 58
3 58 99 98
3 98 99 127
3 85 65 54
3 54 65 43
3 65 47 43
3 34 54 43
3 73 47 65
3 73 65 85
3 60 82 54
3 60 54 42
3 42 54 34
3 40 60 42
3 40 42 18
3 18 42 34
3 60 40 51
3 26 51 40
3 10 33 26
3 10 26 12
3 23 31 10
3 151 110 132
3 132 110 105
3 102 128 107
3 128 102 141
3 151 141 110
3 110 141 102
3 163 140 141
3 141 140 128
3 107 128 140
3 107 140 108
3 157 140 163
3 138 157 153
3 153 157 163
3 153 163 151
3 137 125 138
3 112 125 137
3 112 137 100
3 100 137 118
3 118 137 138
3 96 125 112
3 96 112 85
3 85 112 100
3 51 72 60
3 108 90 75
3 75 90 51
3 75 51 52
3 51 90 72
3 108 86 107
3 86 75 52
3 75 86 108
3 76 107 86
3 76 86 50
3 50 86 52
3 102 107 76
3 69 102 76
3 90 108 125
3 90 96 72
3 96 90 125
3 104 103 83
3 104 83 77
3 104 77 121
3 135 103 104
3 158 175 139
3 167 136 131
3 167 131 169
3 169 131 156
3 91 136 120
3 149 120 136
3 126 130 146
3 126 146 115
3 123 111 81
3 177 154 123
3 109 123 154
3 170 156 134
3 156 131 134
3 101 93 134
3 116 134 93
3 61 84 53
3 164 133 109
3 173 170 143
3 57 44 35
3 24 35 44
3 74 68 67
3 19 22 32
3 77 57 32
3 139 121 158
3 158 121 117
3 143 113 148
3 27 15 28
3 67 59 95
3 16 30 41
3 16 20 30
3 5 2 12
3 9 37 36
3 98 127 129
3 31 50 33
3 85 82 96
3 33 52 51
3 46 71 69
3 69 71 110
3 157 108 140
3 5 1 0
3 5 0 2
