ply
format ascii 1.0
comment Generated by PyMesh
element vertex 200
property float x
property float y
property float z
property float charge
property float ddc
property float hbond
property float hphob
property float rho
property float si
property float theta
property float nx
property float ny
property float nz
element face 357
property list uchar int vertex_indices
end_header
-2.13225 -8.094 9.39625 0.419197 0 0 0.107925 1e-08 -0.0980801 2.22045e-16 -0.947777 0.184363 0.260248
-1.71375 -7.84975 10.351 0.248422 -0.265253 -0.236758 -0.347251 1.07068 -0.791293 4.25875 -0.959066 -0.0283712 0.281756
-2.77375 -9.09387 9.28175 0.433723 -0.505309 0 0.844444 1.19347 -0.218317 2.13482 -0.625672 0.758327 0.182961
-2.18438 -7.15963 8.50113 0.52569 -0.269667 0 -0.0888889 1.29499 -0.211752 2.22045e-16 -0.97819 -0.0684411 0.19611
-2.162 -8.0945 7.9165 0.50133 0.0409194 0 -0.0888889 1.48005 -0.999892 0.703408 -0.909633 0.295624 0.291845
-1.90625 -6.818 10.2917 0.36039 -0.289041 -0.276012 -0.372184 1.57515 -0.273895 5.08773 -0.962724 -0.18519 0.197148
-1.88644 -9.22363 10.6494 0.397807 0.281189 0 0.844444 1.70495 -0.0799102 3.25664 -0.616614 0.425512 0.662365
-1.463 -8.376 11.3333 0.176508 0.267405 -0.105314 -1 2.21292 0.32598 3.85877 -0.806276 -0.255371 0.533577
-3.57711 -9.55381 9.77205 0.436577 -0.470544 0 0.913024 2.241 0.132051 2.24426 -0.197054 0.922204 0.33273
-2.309 -6.189 8.945 0.43995 0.209313 0 -0.0888889 2.36955 0.159897 5.9257 -0.990824 0.123307 -0.0553434
-3.04312 -9.22025 8.00725 0.43946 -0.348024 0 0.844444 2.50224 -0.999875 1.4246 -0.450346 0.747347 0.488529
-3.82663 -9.5445 8.57913 0.41984 -0.483637 0 0.913713 2.53708 -0.8139 1.76689 -0.0289599 0.975135 0.219709
-2.3525 -6.17938 7.56938 0.610377 0.0561744 0.281908 -0.506213 2.65782 0.253721 0.163111 -0.928894 0.314033 0.196315
-2.011 -5.875 11.0615 0.37523 -0.371445 -0.0252554 -0.253553 2.79695 -0.495688 5.02887 -0.733903 -0.671001 -0.105567
-2.81013 -7.37475 7.02338 0.598937 -0.185258 0.0306396 -1 2.79754 -0.310992 0.626262 -0.632572 0.310152 0.709689
-1.7585 -6.495 11.9974 0.3505 -0.228654 0 -1 3.20328 0.0230992 4.66255 -0.875271 -0.44215 0.195971
-1.33125 -10.4866 11.3071 0.442793 0.266549 0 0.844444 3.23332 -0.463431 3.26411 -0.287108 0.373615 0.882032
-0.571625 -9.07475 11.6154 0.316279 0.302855 -0.00596384 -0.972213 3.34327 -0.150563 3.6527 -0.446835 -0.276825 0.850709
-4.34269 -10.1756 10.3532 0.501757 -0.35855 0 0.960233 3.38576 -0.382665 2.35281 0.0574804 0.76062 0.646648
-2.61469 -4.94441 9.86416 0.323553 -0.323379 0 -0.0888889 3.62332 0.0684234 5.52274 -0.775368 -0.219062 -0.592297
-0.950875 -7.54581 12.4346 0.0322214 0.263113 -0.245019 -1 3.6841 0.0521168 4.20094 -0.632297 -0.545991 0.549632
-5.05225 -9.12525 8.24525 0.259349 -0.443564 0.0785852 0.778944 3.87477 -0.999817 1.60936 0.439157 0.814084 0.380011
-2.88225 -6.48225 6.32975 0.59626 0.141845 0.800479 -1 3.93018 0.105173 0.495655 -0.654714 0.679947 0.330186
-5.27969 -9.23044 9.6165 0.54384 -0.466452 0 1 3.98099 -0.152386 1.97624 0.552825 0.793218 0.255323
-1.69987 -5.249 6.81862 0.450617 0.0995037 0.09057 -0.79922 4.01987 -0.615685 0.134026 -0.818807 0.560268 0.125122
-4.2395 -8.5735 7.08169 0.515497 -0.376316 0 -0.918367 4.14732 -0.999835 1.2217 0.129076 0.635443 0.761282
-3.302 -11.1471 11.4605 0.51537 -0.267886 0 0.844444 4.22714 -0.374138 2.77835 -0.0613465 0.694598 0.716778
-2.68963 -5.70463 12.3524 0.373157 -0.378378 0 -0.2 4.26528 -0.389516 4.8269 -0.260663 -0.948494 -0.180039
-1.52013 -6.21325 13.1946 0.52676 -0.273151 0 -0.2 4.45607 -0.524356 4.56596 -0.53448 -0.837967 0.110193
-3.67925 -5.23994 10.9784 0.37313 -0.451136 0 -0.2 4.58392 -0.054301 5.28356 -0.0577555 -0.859388 -0.508052
-0.02625 -10.5835 11.7972 0.48142 0.202469 0 0.844444 4.63068 -0.487368 3.46518 -0.321326 0.311059 0.894423
-4.69228 -7.21006 6.58134 0.7131 -0.36393 0.096704 -0.777778 4.7379 -0.0381626 0.922811 0.412367 0.69768 0.585829
-1.37625 -11.8694 12.1976 0.44997 -0.216125 0 0.172882 4.87866 -0.701319 3.12658 -0.0962332 0.842831 0.529505
-5.6675 -9.7635 11.0267 0.39355 -0.413386 0 0.661547 4.92802 -0.536952 2.20695 0.829797 0.432144 0.353113
-0.359 -11.5591 12.3024 0.46941 0.161038 0 0.0556884 4.99006 -0.631845 3.31537 -0.345776 0.698796 0.626197
-4.3105 -11.2565 11.5763 0.575097 -0.316105 0 -0.0888889 5.01835 -0.758212 2.57841 0.336622 0.872277 0.354709
1.0125 -9.58212 11.8576 0.541577 0.161977 0 0.844444 5.0242 -0.999884 3.62585 -0.547629 -0.0482876 0.835327
-1.03 -3.787 8.5425 0.191599 0.173317 -0.000550657 -0.0888889 5.12045 -0.66072 5.99331 -0.841293 0.29785 -0.451123
-3.716 -6.85975 5.448 0.579937 -0.203352 0.268141 -1 5.20106 -0.999864 0.660027 -0.263335 0.865654 0.425791
-2.69287 -5.83144 5.22319 0.455863 -0.0899824 0.425143 -1 5.22783 -0.739062 0.470966 -0.654214 0.459018 0.601088
-6.14975 -8.38775 9.2365 0.642467 -0.456093 0 0.597371 5.25045 -0.682244 1.69982 0.864514 0.496605 -0.0774548
-5.77 -8.44 10.563 0.568423 -0.492888 0 -0.0888889 5.30804 0.23855 1.9129 0.951713 0.306736 0.0124313
-6.109 -8.09013 8.2005 0.609747 -0.396787 0.0100599 -0.777778 5.3547 -0.999782 1.43015 0.704026 0.548252 0.451407
-2.78744 -5.99862 13.4154 0.311591 -0.34587 0 -0.2 5.37251 -0.106675 4.72289 -0.0566234 -0.97951 -0.193273
-0.949313 -4.12856 7.11919 0.359443 0.0368196 0 -0.584002 5.40156 -0.611672 6.23162 -0.913709 0.35722 0.193727
0.031 -7.35913 13.8882 0.636333 -0.223603 0.318217 -0.960587 5.44815 -0.484615 4.21935 -0.612271 -0.790601 0.00867966
-1.81662 -4.56588 5.56887 0.41354 -0.0531177 0.340609 -1 5.44891 -0.672701 0.185411 -0.783066 0.239221 0.574091
-3.67 -3.37725 10.0363 0.238417 -0.323744 0 -0.2 5.5205 0.259178 5.51076 0.0528347 0.22804 -0.972217
-2.527 -11.704 12.3365 0.47286 -0.274525 0 0.377778 5.52257 -0.344293 2.94521 0.176489 0.927301 0.330096
1.14525 -8.562 12.9073 0.701093 0.192354 0.394016 -1 5.55224 -0.868068 3.88426 -0.669011 -0.647723 0.364526
-2.55194 -2.87169 10.2829 0.0562423 0.224515 -0.338533 -0.154071 5.73884 -0.147396 5.62001 -0.412992 0.578452 -0.703442
0.863875 -10.9526 12.4683 0.536653 0.107447 0 -0.405929 5.80496 -0.802259 3.4557 -0.584743 0.680737 0.441217
-4.92338 -5.55363 11.0901 0.315841 -0.450556 0 -0.2 5.87184 0.080399 5.44633 0.467586 -0.821285 -0.326885
-1.91937 -6.21275 14.6142 0.51438 -0.259933 0.0700813 -0.50916 5.93074 -0.761247 4.54245 -0.314087 -0.892927 -0.322539
-5.65947 -10.4865 12.0315 0.227417 -0.344051 -0.128585 -0.0888889 6.16593 -0.867021 2.20695 0.739189 0.670298 0.0655765
-0.595 -12.0105 13.363 0.571243 -0.146001 0 -0.777778 6.16664 -0.55804 3.31537 -0.371538 0.892576 0.255475
-1.66 -12.3445 13.6494 0.337317 -0.202717 0 -0.213366 6.43235 -0.547249 3.12658 0.0749592 0.965726 0.248506
-6.60156 -7.33588 8.79594 0.630253 -0.423537 0 -0.256651 6.43454 -0.999867 1.43015 0.994857 0.0992303 0.0203263
-0.7125 -3.14287 6.77037 0.40072 -0.0147891 0 -1 6.47363 -0.786713 6.23162 -0.909629 0.176453 0.376085
1.891 -9.97425 13.0087 0.663363 -0.0403335 0 -0.795671 6.52438 -0.999902 3.62585 -0.975146 0.0577273 0.213912
-6.10838 -7.2915 10.8197 0.50502 -0.447032 0 -0.0888889 6.53256 0.0510481 1.9129 0.978062 0.207388 -0.01962
-0.620125 -2.47038 8.16737 0.103473 0.0860264 -0.60344 -0.38732 6.54951 -0.131727 5.99331 -0.933496 0.310793 -0.178866
-4.09312 -6.05037 4.4095 0.490923 -0.168666 0 -1 6.57066 -0.999878 0.660027 -0.137521 0.544987 0.827089
-5.07044 -6.35375 5.00331 0.6309 -0.248908 0.265465 -0.957747 6.57269 -0.625621 0.660027 0.358455 0.754102 0.55031
-6.22325 -6.96025 7.58225 0.517227 -0.381674 0 -0.777778 6.584 -0.999844 1.43015 0.827747 0.0783912 0.555599
-6.27887 -7.16625 9.82987 0.573587 -0.457684 0 -0.0888889 6.61457 -0.176118 1.69982 0.968248 0.150609 -0.199533
-3.648 -2.5685 10.791 0.102482 0.237035 0 -0.2 6.62691 0.243116 5.51076 0.0512143 0.888126 -0.456737
-4.73887 -2.95038 10.0363 0.168411 -0.283282 0 -0.2 6.67146 0.440618 5.51076 0.215907 0.495566 -0.841308
-2.817 -4.43525 4.809 0.438413 -0.104346 0.745353 -1 6.68944 -0.632374 0.185411 -0.582432 0.0504241 0.811314
-5.308 -5.77575 12.31 0.303794 -0.36283 0 -0.2 6.75489 -0.624294 5.44633 0.323934 -0.933786 -0.152023
-5.79563 -5.69025 7.32412 0.66977 -0.388359 0.297821 -0.863844 6.75754 0.225146 0.922811 0.957859 0.0303151 0.285636
-4.754 -10.953 13.301 0.49652 -0.292089 0 -0.0888889 6.82484 -0.214181 2.57841 0.543967 0.839005 -0.01308
1.367 -8.79813 14.2028 0.718097 -0.123662 0.843431 -0.613031 6.88763 -0.559924 3.88426 -0.938835 -0.300511 -0.168172
-6.111 -5.624 6.089 0.57352 -0.326476 0.517632 -0.801127 6.92211 -0.586464 0.922811 0.902457 0.418943 -0.100291
-1.476 -3.1625 5.95813 0.62033 -0.0741536 0.397828 -1 6.94458 0.0432137 0.185411 -0.693237 0.143144 0.706351
-5.271 -4.34734 9.45378 0.429117 -0.400588 0 -0.2 6.96192 0.0790899 5.51076 0.716884 -0.165769 -0.677199
-3.58612 -11.5753 13.3752 0.592123 -0.2661 0 -0.0888889 6.98365 -0.179518 2.94521 0.367699 0.920854 0.129709
-1.991 -1.967 11.037 -0.109312 0.154412 0 -0.2 7.04337 0.0152856 5.62001 -0.456314 0.833743 -0.310886
-4.83238 -6.22475 14.045 0.203985 -0.318619 0 -0.172968 7.04499 -0.343419 4.72289 0.337459 -0.863933 -0.373821
-3.95025 -4.98125 4.1915 0.403797 -0.1255 0.703378 -1 7.0631 -0.439848 0.470966 -0.364018 0.223478 0.904184
-1.62925 -2.0845 9.506 -0.3736 0.146372 -0.239979 -0.0888889 7.16641 0.693731 5.62001 -0.672234 0.587866 -0.450016
-0.731875 -12.3286 14.3022 0.31214 -0.132881 0 -0.777778 7.16765 -0.760783 3.31537 -0.356289 0.916199 0.183404
-6.0635 -9.55275 13.222 0.51936 -0.34074 0 -0.0888889 7.16868 -0.999827 2.20695 0.961183 0.228341 -0.154877
-1.30838 -7.12044 15.2753 0.716963 -0.2285 0.477581 -0.777778 7.20912 -0.300777 4.54245 -0.452784 -0.683757 -0.572243
-6.14838 -8.3445 12.8004 0.305386 -0.371445 0 -0.0888889 7.24983 -0.577007 1.9129 0.998638 0.0306221 -0.0422442
0.35525 -11.5347 13.7522 0.667707 -0.111032 0 -0.777778 7.29838 -0.291285 3.4557 -0.562823 0.806709 0.18014
0.717875 -8.19975 15.5052 0.615783 -0.179971 0.45129 -0.784236 7.39574 -0.999819 4.21935 -0.62321 -0.649262 -0.435968
1.3825 -10.685 14.0083 0.679477 -0.0705147 0 -0.777778 7.45183 -0.469737 3.4557 -0.884948 0.461274 -0.0639818
-3.731 -6.37675 15.2506 0.378683 -0.273637 0 -0.2 7.47043 -0.78274 4.54245 0.146035 -0.903592 -0.402736
-2.7135 -12.04 14.0715 0.477123 -0.232348 0 -0.0888889 7.60741 0.363528 2.94521 0.366581 0.883477 0.291696
-6.14825 -6.61194 11.79 0.412833 -0.404482 0 -0.120257 7.63542 -0.444363 5.44633 0.929507 -0.355159 -0.0993885
-5.116 -5.535 4.308 0.53344 -0.193257 0.132085 -1 7.64781 -0.573461 0.660027 0.188106 0.463336 0.865988
-6.17556 -5.75075 9.81419 0.51025 -0.424433 0 -0.0888889 7.67039 -0.485206 5.44633 0.879245 -0.409227 -0.243849
-3.47725 -2.18625 11.8475 0.0116938 0.169323 0 -0.2 7.68152 -0.07272 5.62001 -0.3464 0.841313 -0.414969
-5.725 -6.1115 13.164 0.28495 -0.354447 0 -0.199861 7.76282 -0.999881 5.44633 0.778413 -0.53643 -0.326062
-0.945625 -1.96769 6.20687 0.41249 0.0332584 0 -1 7.79762 0.0726819 6.23162 -0.792355 0.33976 0.506693
-5.82725 -2.50425 9.9965 0.16658 -0.222477 0 -0.2 7.8484 0.279194 5.51076 0.185066 0.85031 -0.49267
-5.41463 -10.342 13.8094 0.499113 -0.311049 0 0.271149 7.85839 -0.471593 2.57841 0.814785 0.508942 -0.277674
-6.2445 -5.67425 8.35825 0.839817 -0.398625 0.48189 -0.866667 7.885 -0.593974 1.43015 0.940384 -0.316391 0.124801
-3.12075 -3.278 4.64725 0.334693 -0.0827527 0 -1 7.89677 0.461773 0.185411 -0.612575 0.0962018 0.784536
-0.47025 -1.53 9.122 -0.106855 0.123687 -0.47734 -0.0888889 7.89788 0.17356 5.99331 -0.559631 0.807507 -0.186402
-0.030375 -1.28225 7.4885 0.122921 0.103388 0.00467234 -0.980047 8.03958 0.180699 5.99331 -0.531229 0.845946 0.0465979
-2.83406 -7.02481 16.3614 0.508743 -0.218687 0.125341 -0.777778 8.06353 -0.497239 4.54245 -0.213924 -0.73017 -0.648913
-6.183 -5.011 4.536 0.226191 -0.196487 0.967173 -1 8.09074 0.0722563 0.660027 0.30348 0.907268 0.291145
-4.07681 -11.5229 14.4209 0.577033 -0.254139 0 -0.0320473 8.13995 -0.205529 2.94521 0.611204 0.778348 0.143542
-4.75725 -4.3725 3.745 0.240903 -0.111058 0 -1 8.16817 0.137715 0.470966 -0.31198 0.546455 0.77721
1.30375 -9.7405 15.091 0.842973 -0.102314 0.804214 -0.177778 8.18414 -0.763863 3.88426 -0.953067 -0.0709761 -0.294322
-2.33325 -1.6125 12.1005 0.0651217 0.168937 0.0357752 -0.134356 8.21548 -0.221343 5.62001 -0.27871 0.82363 -0.493918
-5.61875 -4.25737 7.6965 1 -0.35897 0.473898 -0.866667 8.24854 0.429686 0.922811 0.978629 0.118664 -0.167943
-6.624 -4.5115 5.5635 0.468287 -0.250788 0 -0.866667 8.25514 0.1465 0.922811 0.517749 0.639978 -0.567772
-2.44412 -12.6461 15.2684 0.373663 -0.175542 0.245125 -0.124628 8.25635 -0.577566 3.12658 0.108394 0.994106 0.00173444
-1.08025 -12.5326 15.4539 0.558363 -0.142348 -0.201973 -0.583904 8.33701 -0.999834 3.31537 -0.267539 0.945742 -0.184376
0.243813 -11.8969 14.8194 0.741507 -0.104044 0 -0.777778 8.35332 -0.780262 3.4557 -0.612517 0.78779 -0.0648907
0.859375 -9.032 16.0446 0.606747 -0.153022 0.111683 -0.67574 8.39755 -0.952634 4.21935 -0.710914 -0.271388 -0.648807
-1.8625 -1.868 5.281 0.414427 -0.0607135 0 -1 8.45574 0.454107 0.185411 -0.642916 0.358324 0.676951
-0.977813 -1.33644 11.9819 0.0576827 0.167886 0 -0.155669 8.56554 -0.143982 5.62001 -0.0664935 0.980925 -0.18266
-1.40675 -8.23525 16.089 0.725003 -0.210827 0.431927 -0.777778 8.59281 0.999761 4.54245 -0.400395 -0.658658 -0.637066
-4.05363 -3.21913 3.93375 0.0999057 -0.0491191 0 -1 8.63219 0.525863 0.185411 -0.710511 0.29783 0.637551
-4.87 -7.05025 15.4299 0.42535 -0.285954 0 -0.0888889 8.6577 -0.21173 4.54245 0.602014 -0.722362 -0.340253
-5.70131 -7.94219 14.2342 0.465197 -0.331587 0 -0.0888889 8.80466 -0.359134 1.9129 0.924738 -0.100025 -0.367226
-0.426 -1.17206 10.6077 -0.082501 0.134738 0 -0.0888889 8.85043 0.701762 5.62001 -0.363504 0.925447 -0.106831
-6.351 -2.99425 8.68025 0.534287 -0.255411 0 -0.533636 8.85813 -0.0896829 5.51076 0.659098 0.746601 -0.0904267
1.146 -10.677 15.4235 0.742833 -0.0954915 0.919687 -0.770309 8.88668 -0.870795 3.4557 -0.849498 0.391589 -0.353568
-3.2065 -2.32675 4.27975 0.130018 -0.0547207 0 -1 8.92015 0.539275 0.185411 -0.661631 0.374437 0.649648
-6.951 -2.5145 9.9525 0.198646 -0.186873 0 -0.2 8.97306 -0.0955885 5.51076 0.21621 0.976343 0.00262576
-3.15875 -1.42963 12.8542 0.0612547 -0.139859 0.542764 0.4 8.98051 0.166984 5.62001 -0.499533 0.666475 -0.553423
-4.8805 -10.495 14.9487 0.529893 -0.285802 0 0.933333 9.12595 0.0710405 2.94521 0.932964 0.341581 -0.11358
-4.69075 -2.53175 13.1115 -0.183255 0.137141 0 -0.2 9.1712 -0.383292 5.51076 -0.350228 0.931539 -0.0978508
-0.464 -8.9755 16.604 0.345343 -0.191587 -0.748025 -0.777778 9.18627 -0.275687 4.21935 -0.386586 -0.387961 -0.836683
-4.98606 -4.13831 2.75444 0.0453553 0.052667 0 -1 9.21144 -0.448578 0.470966 -0.707196 0.630495 0.319921
-3.354 -12.5258 15.707 0.242015 -0.187254 0 0.844444 9.27356 -0.99985 3.12658 0.334248 0.942454 0.00765007
-5.26237 -9.369 14.8328 0.507297 -0.303168 0 0.78746 9.27869 -0.00494616 2.57841 0.932581 0.232313 -0.276268
-6.2165 -2.099 11.352 -0.0479317 0.155421 0 -0.2 9.29755 0.734313 5.51076 -0.0671779 0.99727 0.0306544
-7.5915 -4.8935 5.11925 -0.00991547 -0.214433 0.514298 -0.866667 9.38622 -0.813618 0.922811 0.355514 0.720587 -0.595285
-0.04025 -0.651 6.15987 0.19916 0.0947907 0 -1 9.39624 0.193422 6.23162 -0.333882 0.706318 0.62421
-1.62603 -12.0646 16.4171 0.82776 -0.152888 0 -0.155556 9.53895 -0.320341 3.31537 -0.241147 0.799142 -0.550654
-4.7185 -11.2759 15.6766 0.578807 -0.236538 0 0.933333 9.57157 -0.73533 2.94521 0.793706 0.608294 -0.00312074
-7.58725 -5.17525 4.094 -0.0551233 0.169049 0.672859 -1 9.57204 0.185181 0.660027 -0.109349 0.717811 -0.687598
-1.63806 -0.748062 12.9071 0.207123 0.178903 0 0.0257813 9.58703 0.00689755 5.62001 -0.00624998 0.683988 -0.729466
0.94725 -0.8885 9.82619 0.196768 0.140741 0.025898 -0.0888889 9.60571 0.0536257 5.99331 -0.162998 0.986589 -0.00857057
1.572 -0.953875 7.497 0.332302 0.15753 0.197939 -0.676238 9.67528 0.159922 5.99331 0.0473165 0.987682 -0.149147
-4.4885 -6.99975 16.5465 0.454337 -0.246208 0 0.0897651 9.72849 -0.999917 4.54245 0.437605 -0.720127 -0.538441
-6.187 -2.8705 7.317 0.785327 -0.255444 0.122961 -0.866667 9.79461 0.873616 0.922811 0.76518 0.638045 -0.0860097
-2.31381 -1.10175 4.2515 0.100769 0.0528418 0 -1 9.81615 0.465965 0.185411 -0.672386 0.636115 0.37849
0.578125 -10.3691 16.4349 0.671563 -0.142265 0.772204 -0.777778 9.81856 -0.790541 3.4557 -0.656737 0.0802966 -0.749832
-1.70119 -8.70938 17.1994 0.389983 -0.184654 -0.101352 -0.270878 9.83558 -0.548145 4.54245 -0.367204 -0.522871 -0.769264
-3.23534 -8.48941 17.304 0.459237 -0.214713 0 1 9.85087 -0.219011 4.54245 0.0843109 -0.374124 -0.923538
1.475 -1.086 6.477 0.206609 0.141837 0 -1 9.86381 -0.482249 5.99331 0.0342105 0.968835 0.245335
-6.4485 -3.06988 6.36562 0.82373 -0.242664 0.232478 -0.866667 9.91419 0.999867 0.922811 0.581447 0.599726 -0.549771
-5.04875 -7.88225 16.3645 0.37142 -0.263968 0 -0.0888889 9.92168 -0.724377 4.54245 0.850945 -0.254382 -0.459545
-4.30062 -7.94225 17.1379 0.42654 -0.226563 0 1 9.9597 -0.999876 4.54245 0.324397 -0.263037 -0.908613
1.37888 -0.50825 8.64587 0.109163 0.148551 0.781538 -0.0888889 10.0206 0.999862 5.99331 0.0043209 0.99807 -0.0619493
-7.69875 -3.17213 5.98338 0.781853 0.20167 0.112886 -0.866667 10.023 0.118032 0.922811 0.299425 0.616534 -0.728169
0.656875 -0.954625 11.0969 0.257629 0.133103 0 -0.0888889 10.0584 0.407777 5.62001 -0.172353 0.969797 0.17259
-0.125625 -11.4201 16.4508 0.673607 -0.140433 0.224245 -0.755853 10.0927 -0.666246 3.4557 -0.505807 0.513905 -0.692864
-4.561 -3.0465 2.529 0.146464 0.0320682 0.0175719 -1 10.1357 0.268546 0.185411 -0.805122 0.509933 0.302898
-0.27 -0.883 13.3573 0.187824 0.204904 0 -0.2 10.1775 -0.074031 5.62001 0.52276 0.654727 -0.545943
-6.11369 -4.90406 2.41894 0.0869857 0.0686084 0 -1 10.2116 0.106526 0.470966 -0.720725 0.693096 -0.0131379
-3.69738 -1.33834 13.9881 0.059151 -0.104843 0.407209 0.4 10.2392 -0.414425 5.62001 -0.730711 0.470451 -0.494709
-3.709 -1.9195 3.02475 -0.0954547 0.0398184 0 -1 10.2552 0.676436 0.185411 -0.766861 0.573532 0.288072
-1.46512 -0.271688 4.48956 0.241391 0.0550508 0 -1 10.2665 0.332596 0.185411 -0.643815 0.680922 0.349067
-7.16125 -2.234 7.76575 0.524633 -0.209182 0.104137 -0.866667 10.2972 0.213785 5.51076 0.557123 0.812604 -0.171138
-5.72906 -2.47112 12.6509 -0.209615 0.15205 0 -0.2 10.3087 -0.310485 5.51076 -0.0788777 0.986902 0.140719
-4.765 -2.518 14.248 -0.200502 0.126047 0 -0.2 10.3102 -0.84256 5.51076 -0.364464 0.919285 -0.148599
-7.99203 -2.64528 11.2072 0.106454 -0.14432 0 -0.2 10.3327 -0.397675 5.51076 -0.0144315 0.992396 0.122235
-8.08497 -1.88934 9.36447 0.207993 -0.178333 0 -0.866667 10.3952 -0.139227 5.51076 0.524179 0.786561 0.326433
-3.116 -12.246 16.7978 0.290008 -0.175937 0 0.844444 10.4246 -0.684144 3.12658 0.255258 0.896528 -0.36205
-8.35437 -4.16412 4.94775 -0.453847 -0.205159 -0.475452 -0.816929 10.4555 -0.0223487 0.922811 0.570471 0.599126 -0.561793
0.721 -1.61625 13.153 0.124071 0.199958 0 -0.2 10.6478 -0.13008 5.62001 0.550536 0.834086 0.034786
-1.22113 0.0809375 13.5485 0.0400333 -0.185468 0 0.4 10.7151 -0.0746796 5.62001 0.27894 0.353428 -0.892906
0.959188 -0.337687 5.328 0.221576 0.143981 0 -1 10.7338 0.471389 6.23162 0.259281 0.892907 0.368089
-0.8 0.19875 5.3555 0.085571 0.101851 0 -1 10.7913 0.999928 6.23162 -0.210525 0.880777 0.42416
-4.66625 -11.0845 16.892 0.400423 -0.224687 0 0.924591 10.8031 -0.999824 2.94521 0.873862 0.373752 -0.310925
-7.01625 -5.99675 3.2625 0.0142378 0.105941 -0.13483 -0.961342 10.8729 -0.678956 0.660027 -0.752426 0.433991 -0.495487
1.33506 -1.27988 11.9929 0.171192 0.162849 0 -0.184761 10.8791 0.187838 5.62001 0.263704 0.797677 0.542376
-5.76875 -4.03025 1.206 -0.335113 -0.0431205 0.547276 -1 10.9498 -0.502144 0.470966 -0.659128 0.428587 0.617951
-1.74025 -0.45925 3.509 0.184182 0.0713009 0 -1 10.9533 0.0285848 0.185411 -0.563464 0.812844 0.147625
-5.19125 -3.15313 1.31638 -0.263014 -0.0485665 0 -0.777778 10.9666 -0.201481 0.470966 -0.612573 0.506803 0.606552
-8.94312 -4.58262 4.06213 -0.560117 -0.199691 -0.0572364 -0.777778 11.0521 0.0691205 0.660027 0.560501 0.160938 -0.812366
2.43925 -0.98075 5.77775 0.0355903 0.163077 0 -1 11.0596 0.262274 5.99331 0.418149 0.902916 0.0994703
-4.86794 -9.33075 16.6371 0.158079 -0.250883 0 0.933333 11.126 -0.363641 4.54245 0.851016 0.0549026 -0.522261
-7.96863 -6.67513 3.78638 -0.661683 0.151166 -0.306906 -0.777778 11.1499 -0.999901 0.660027 -0.299107 0.692448 -0.656544
-1.69675 -10.2355 17.6903 0.185506 -0.152404 -0.96332 -0.155556 11.2569 -0.618305 4.54245 -0.451623 0.102526 -0.886298
2.11538 -0.606875 10.9895 0.0126506 0.149525 0 -0.0888889 11.2782 0.999888 5.62001 0.181246 0.959523 0.21556
-2.90569 0.68025 13.7451 0.049932 -0.143713 0 0.4 11.2847 0.0684272 5.62001 -0.312653 0.115108 -0.942867
-8.9555 -3.102 5.67 -0.219211 -0.178114 -0.300687 -0.821164 11.3201 -0.278896 0.922811 0.401153 0.74822 -0.528435
-9.01975 -6.191 4.01325 -0.53754 0.192125 0 -0.777778 11.33 -0.871548 0.660027 0.243692 0.223039 -0.943858
3.03312 -1.56288 8.17488 0.181967 0.193328 0 -0.227267 11.3973 0.0566503 5.99331 0.589905 0.806294 0.0436145
-6.46925 -5.10881 1.25181 -0.019668 -0.026255 0 -0.880138 11.4488 -0.259342 0.470966 -0.779521 0.411465 0.472275
-2.77225 -11.4105 17.805 0.318332 -0.155788 -0.902352 -0.0792444 11.4541 -0.999855 3.31537 -0.18764 0.469214 -0.862919
-5.90675 -2.65587 14.3011 -0.117535 -0.153251 0 -0.2 11.4615 -0.7564 5.51076 0.000315313 0.991663 -0.12886
-3.83075 -0.304 14.6757 -0.026281 -0.12516 -0.0434052 0.446411 11.4883 -0.560929 5.62001 -0.607594 -0.0369576 -0.793388
2.82544 -1.15769 9.54619 0.00558137 0.192738 0 -0.0888889 11.5236 0.459066 5.99331 0.599762 0.800153 -0.00639302
-5.15737 -2.20863 15.3814 -0.0770677 -0.140737 -0.423582 0.4 11.5489 -0.999859 5.51076 -0.285748 0.688131 -0.666951
-8.17025 -1.88312 7.04 0.270622 -0.180314 0.232979 -0.866667 11.5886 0.677647 5.51076 0.329029 0.739171 -0.587679
-8.982 -2.2765 6.4235 0.0985167 -0.166723 0 -0.866667 11.6486 0.225585 0.922811 0.208589 0.693139 -0.689962
-4.00506 -2.0625 1.51047 -0.0901213 0.0416256 0.0411343 -0.905249 11.6571 -0.520918 0.185411 -0.716805 0.620311 0.318442
-2.68175 -10.0616 18.0147 0.35608 -0.176898 -0.163447 0.805938 11.6629 -0.999815 4.54245 -0.147886 -0.169386 -0.974391
-9.14338 -2.21881 10.6134 0.047993 -0.163907 0 -0.866667 11.6966 -0.594547 5.51076 0.525658 0.686227 0.502768
-3.862 -11.6217 17.6195 0.456137 -0.187265 0 0.844444 11.6979 -0.999908 2.94521 0.410813 0.59085 -0.694355
3 137 178 167
3 167 185 152
3 152 195 194
3 194 161 152
3 96 124 164
3 177 155 196
3 157 103 129
3 129 103 105
3 129 105 117
3 105 103 91
3 105 91 79
3 117 105 79
3 108 109 148
3 152 148 109
3 109 133 152
3 108 148 142
3 142 161 121
3 75 121 96
3 75 67 47
3 67 96 66
3 66 132 127
3 132 162 127
3 162 132 164
3 163 162 190
3 196 155 159
3 159 117 123
3 117 99 123
3 68 74 99
3 24 39 22
3 22 31 14
3 31 64 42
3 64 31 70
3 70 31 73
3 98 108 75
3 75 47 29
3 9 19 37
3 47 66 50
3 80 50 77
3 66 47 67
3 93 127 125
3 176 143 160
3 143 123 114
3 37 44 24
3 24 12 9
3 12 14 3
3 12 3 9
3 31 42 25
3 52 75 29
3 29 27 69
3 9 5 19
3 5 1 15
3 15 1 7
3 3 0 5
3 1 6 7
3 8 23 18
3 2 11 8
3 11 23 8
3 42 21 25
3 65 41 40
3 23 41 33
3 33 18 23
3 60 84 41
3 33 41 84
3 78 27 43
3 27 15 28
3 28 43 27
3 45 20 49
3 17 49 20
3 30 17 16
3 17 7 6
3 33 82 54
3 84 119 82
3 78 43 88
3 88 43 53
3 53 83 102
3 102 88 53
3 102 116 145
3 146 102 145
3 145 116 128
3 87 51 85
3 32 16 26
3 32 26 48
3 56 48 76
3 76 35 71
3 76 104 89
3 126 104 97
3 71 97 104
3 97 119 131
3 119 118 149
3 119 78 118
3 88 118 78
3 119 149 180
3 119 180 131
3 182 128 154
3 182 154 135
3 72 87 106
3 81 112 85
3 81 85 55
3 136 104 126
3 126 180 172
3 95 61 101
3 80 100 61
3 61 100 101
3 100 139 151
3 115 120 77
3 77 107 115
3 138 115 107
3 138 107 125
3 138 184 169
3 184 158 191
3 147 134 101
3 134 95 101
3 160 114 95
3 160 143 114
3 147 101 140
3 140 101 151
3 187 179 140
3 192 151 139
3 192 139 183
3 153 139 120
3 183 153 174
3 168 174 115
3 115 156 168
3 153 183 139
3 186 178 137
3 103 137 109
3 109 137 133
3 137 167 133
3 152 133 167
3 152 185 195
3 121 124 96
3 124 121 165
3 161 165 121
3 164 124 165
3 198 164 165
3 188 157 175
3 173 181 137
3 137 181 186
3 79 91 62
3 62 91 63
3 70 73 108
3 103 63 91
3 63 103 31
3 31 103 73
3 108 73 109
3 109 73 103
3 75 108 121
3 121 108 142
3 163 127 162
3 74 123 99
3 24 46 39
3 39 46 68
3 68 46 74
3 22 39 38
3 38 39 62
3 38 62 63
3 62 39 79
3 68 79 39
3 22 38 31
3 63 31 38
3 31 25 14
3 42 64 57
3 64 70 98
3 92 65 57
3 92 57 98
3 64 98 57
3 98 75 92
3 29 47 19
3 80 37 50
3 50 19 47
3 19 50 37
3 77 50 93
3 77 93 107
3 93 50 66
3 125 107 93
3 158 125 127
3 163 158 127
3 193 158 163
3 193 163 190
3 95 114 74
3 58 95 74
3 44 58 74
3 46 24 44
3 46 44 74
3 4 3 14
3 0 3 4
3 0 4 2
3 10 2 4
3 10 4 14
3 10 14 25
3 11 2 10
3 21 11 25
3 25 11 10
3 42 57 40
3 40 57 65
3 60 65 90
3 90 65 92
3 90 92 52
3 75 52 92
3 52 69 90
3 27 29 13
3 27 13 15
3 19 5 13
3 19 13 29
3 13 5 15
3 6 1 0
3 6 0 2
3 0 1 5
3 21 23 11
3 23 21 42
3 23 42 40
3 23 40 41
3 90 84 60
3 84 90 94
3 94 90 69
3 94 69 78
3 28 15 20
3 53 45 83
3 28 45 53
3 45 28 20
3 36 49 17
3 36 17 30
3 6 16 17
3 6 26 16
3 18 35 26
3 35 18 33
3 35 33 54
3 97 71 54
3 97 54 82
3 97 82 119
3 94 119 84
3 78 119 94
3 53 43 28
3 88 102 118
3 118 102 141
3 118 141 149
3 102 146 150
3 102 150 141
3 141 150 149
3 113 86 106
3 86 113 128
3 86 128 116
3 72 106 86
3 72 86 49
3 49 86 45
3 45 86 83
3 83 86 116
3 87 59 51
3 51 59 36
3 59 49 36
3 30 51 36
3 72 49 59
3 72 59 87
3 55 85 51
3 55 51 34
3 34 51 30
3 32 55 34
3 32 34 16
3 16 34 30
3 55 32 56
3 48 56 32
3 35 76 48
3 35 48 26
3 54 71 35
3 146 180 150
3 150 180 149
3 172 199 166
3 166 199 189
3 166 189 135
3 182 189 197
3 128 182 145
3 145 182 197
3 145 197 146
3 144 154 128
3 122 154 144
3 122 144 106
3 106 144 113
3 113 144 128
3 112 154 122
3 112 122 87
3 87 122 106
3 56 81 55
3 135 111 110
3 110 111 56
3 110 56 89
3 56 111 81
3 135 130 166
3 130 110 89
3 110 130 135
3 136 166 130
3 136 130 104
3 104 130 89
3 172 166 136
3 126 172 136
3 111 135 154
3 111 112 81
3 112 111 154
3 61 58 44
3 61 44 37
3 61 37 80
3 95 58 61
3 151 101 100
3 120 139 100
3 170 134 147
3 179 147 140
3 169 156 138
3 138 156 115
3 170 147 179
3 175 157 129
3 175 129 177
3 177 129 155
3 103 157 137
3 173 137 157
3 148 152 161
3 148 161 142
3 96 67 75
3 164 132 96
3 66 96 132
3 159 155 117
3 155 129 117
3 79 68 117
3 99 117 68
3 70 108 98
3 127 93 66
3 143 159 123
3 24 22 12
3 14 12 22
3 52 29 69
3 3 5 9
3 37 24 9
3 100 80 120
3 120 80 77
3 158 184 125
3 138 125 184
3 171 134 170
3 134 171 160
3 134 160 95
3 123 74 114
3 60 41 65
3 69 27 78
3 7 20 15
3 7 17 20
3 6 18 26
3 33 84 82
3 83 116 102
3 71 104 76
3 87 85 112
3 76 89 56
3 97 131 126
3 126 131 180
3 182 135 189
3 140 151 187
3 187 151 192
3 153 120 115
3 174 153 115
3 6 2 8
3 6 8 18
