ply
format ascii 1.0
comment Generated by PyMesh
element vertex 200
property float x
property float y
property float z
property float charge
property float ddc
property float hbond
property float hphob
property float rho
property float si
property float theta
property float nx
property float ny
property float nz
element face 332
property list uchar int vertex_indices
end_header
-0.8 0.19875 5.3555 0.085571 0 0 -1 1e-08 0.999928 2.22045e-16 -0.210525 0.880777 0.42416
-1.46512 -0.271688 4.48956 0.241391 0.319014 0 -1 1.18893 0.332596 3.97762 -0.643815 0.680922 0.349067
-0.04025 -0.651 6.15987 0.19916 0.236909 0 -1 1.3951 0.193422 2.22045e-16 -0.333882 0.706318 0.62421
-0.033125 0.231 4.12725 0.321074 0.441737 0 -1 1.44836 0.559973 2.46362 0.120133 0.987108 -0.105764
0.959188 -0.337687 5.328 0.221576 0.31642 0 -1 1.83936 0.471389 1.01092 0.259281 0.892907 0.368089
-1.74025 -0.45925 3.509 0.184182 0.146694 0 -1 2.22448 0.0285848 3.70965 -0.563464 0.812844 0.147625
-2.31381 -1.10175 4.2515 0.100769 0.188182 0 -1 2.39969 0.465965 4.21754 -0.672386 0.636115 0.37849
-0.718125 0.07225 3.22962 0.185243 0.19328 0.0196117 -1 2.5886 0.40985 3.08522 -0.184456 0.982365 -0.0305915
-0.030375 -1.28225 7.4885 0.122921 -0.134999 0.00467234 -0.980047 2.8661 0.180699 6.22289 -0.531229 0.845946 0.0465979
-0.945625 -1.96769 6.20687 0.41249 0.31545 0 -1 2.99372 0.0726819 5.50566 -0.792355 0.33976 0.506693
1.475 -1.086 6.477 0.206609 0.133637 0 -1 3.00314 -0.482249 0.635726 0.0342105 0.968835 0.245335
-1.8625 -1.868 5.281 0.414427 0.300312 0 -1 3.01444 0.454107 4.85161 -0.642916 0.358324 0.676951
1.19456 -0.592 3.51119 0.232144 0.481911 0 -1 3.04963 0.293775 2.10674 0.551665 0.532234 -0.642178
2.086 -0.48375 4.345 0.0228864 0.304135 0 -1 3.34181 0.65583 1.56577 0.497996 0.855802 -0.140014
2.43925 -0.98075 5.77775 0.0355903 0.224597 0 -1 3.51459 0.262274 1.05447 0.418149 0.902916 0.0994703
-0.191813 -0.267 2.11812 0.0607867 0.374753 0.659205 -1 3.52436 0.662065 2.77659 0.49384 0.656019 -0.570755
-1.72213 0.01675 1.9555 0.108835 0.177696 0.0848011 -1 3.84937 0.64803 3.24834 -0.115851 0.963367 -0.241872
-3.2065 -2.32675 4.27975 0.130018 0.186971 0 -1 3.91571 0.539275 4.4617 -0.661631 0.374437 0.649648
1.572 -0.953875 7.497 0.332302 -0.184131 0.197939 -0.676238 4.03622 0.159922 0.487324 0.0473165 0.987682 -0.149147
-0.7125 -3.14287 6.77037 0.40072 0.253047 0 -1 4.3177 -0.786713 5.46088 -0.909629 0.176453 0.376085
-1.476 -3.1625 5.95813 0.62033 0.259235 0.397828 -1 4.32441 0.0432137 5.19969 -0.693237 0.143144 0.706351
-0.620125 -2.47038 8.16737 0.103473 0.254237 -0.60344 -0.38732 4.35617 -0.131727 5.8995 -0.933496 0.310793 -0.178866
-3.709 -1.9195 3.02475 -0.0954547 0.126896 0 -1 4.42952 0.676436 4.16164 -0.766861 0.573532 0.288072
2.8865 -1.308 4.4665 -0.0228323 0.339412 0 -1 4.49721 0.87811 1.48782 0.783732 0.484477 -0.388647
-0.47025 -1.53 9.122 -0.106855 -0.14101 -0.47734 -0.0888889 4.57583 0.17356 6.148 -0.559631 0.807507 -0.186402
2.24275 -1.929 3.53975 0.0433147 0.386001 0 -1 4.74877 0.604271 1.82311 0.6933 0.212984 -0.688457
1.37888 -0.50825 8.64587 0.109163 -0.133204 0.781538 -0.0888889 4.84715 0.999862 0.319551 0.0043209 0.99807 -0.0619493
-3.12075 -3.278 4.64725 0.334693 0.223173 0 -1 4.93908 0.461773 4.65969 -0.612575 0.0962018 0.784536
-2.21075 -0.4225 1.029 -0.00208364 0.19997 0 -1 4.98519 0.59718 3.31593 0.0284243 0.863057 -0.504307
3.51962 -1.40988 6.73475 -0.0179534 0.184778 0 -1 5.02032 0.492425 1.05304 0.511254 0.858688 0.0357044
-0.79975 -1.2305 1.11688 0.0412627 0.323628 0 -1 5.04107 0.551999 2.94542 0.507433 0.424111 -0.750095
3.3575 -2.14669 5.14825 -0.036672 0.290199 -0.0594659 -0.569476 5.12669 -0.208989 1.35257 0.717591 0.496725 -0.488187
0.797 -2.31962 2.351 -0.0210074 0.329257 0 -1 5.1683 -0.218159 2.39681 0.561588 0.496239 -0.662092
-4.05363 -3.21913 3.93375 0.0999057 0.154237 0 -1 5.19387 0.525863 4.45431 -0.710511 0.29783 0.637551
-3.356 -0.991 0.877 -0.00981507 0.0619373 0.581518 -1 5.3583 0.31769 3.59751 -0.552038 0.825476 0.117657
-0.949313 -4.12856 7.11919 0.359443 0.172159 0 -0.584002 5.38978 -0.611672 5.4457 -0.913709 0.35722 0.193727
-0.231688 -2.14738 1.6635 -0.134305 0.340902 0 -1 5.45933 -0.471375 2.70579 0.59426 0.351451 -0.723421
1.93 -2.83469 3.00187 -0.0310662 0.289083 0 -1 5.46415 -0.431676 2.04318 0.642221 0.532358 -0.551496
3.03312 -1.56288 8.17488 0.181967 0.189858 0 -0.227267 5.75822 0.0566503 0.81942 0.589905 0.806294 0.0436145
-1.03 -3.787 8.5425 0.191599 0.218281 -0.000550657 -0.0888889 5.78523 -0.66072 5.76199 -0.841293 0.29785 -0.451123
-1.81662 -4.56588 5.56887 0.41354 0.168869 0.340609 -1 5.82008 -0.672701 5.12802 -0.783066 0.239221 0.574091
-1.62925 -2.0845 9.506 -0.3736 -0.190586 -0.239979 -0.0888889 5.9168 0.693731 5.90603 -0.672234 0.587866 -0.450016
-4.561 -3.0465 2.529 0.146464 0.1069 0.0175719 -1 5.92678 0.268546 4.17721 -0.805122 0.509933 0.302898
-4.00506 -2.0625 1.51047 -0.0901213 0.0863241 0.0411343 -0.905249 5.97908 -0.520918 3.89186 -0.716805 0.620311 0.318442
-2.459 -0.96725 0.22375 -0.103466 0.227381 0.228537 -1 5.98859 0.116399 3.32055 0.479699 0.647816 -0.591796
-0.426 -1.17206 10.6077 -0.082501 -0.0836628 0 -0.0888889 6.10468 0.701762 6.148 -0.363504 0.925447 -0.106831
-2.817 -4.43525 4.809 0.438413 0.194443 0.745353 -1 6.14642 -0.632374 4.65969 -0.582432 0.0504241 0.811314
0.94725 -0.8885 9.82619 0.196768 -0.0814991 0.025898 -0.0888889 6.16018 0.0536257 0.319551 -0.162998 0.986589 -0.00857057
0.46425 -2.99225 1.5145 -0.251264 0.225865 0 -0.711111 6.29208 -0.809341 2.70579 0.421954 0.7304 -0.537095
4.56938 -2.1575 7.145 -0.258245 0.131958 -0.840588 -0.0888889 6.37281 0.365915 1.05304 0.477344 0.777147 0.410104
4.58988 -2.194 5.96825 -0.29524 0.179154 -0.031074 -0.0888889 6.55258 0.528813 1.35257 0.446627 0.807744 -0.384803
-4.75725 -4.3725 3.745 0.240903 0.0875243 0 -1 6.55804 0.137715 4.45431 -0.31198 0.546455 0.77721
3.2995 -3.28081 4.22056 -0.0171617 0.212786 -0.081763 -0.27626 6.59305 -0.705001 1.35257 0.431314 0.725613 -0.536147
2.82544 -1.15769 9.54619 0.00558137 0.173494 0 -0.0888889 6.67058 0.459066 0.81942 0.599762 0.800153 -0.00639302
-3.26675 -0.6875 -0.423 -0.190921 -0.113136 0.722465 -0.983376 6.69624 0.282955 3.32055 0.350569 0.931317 0.0987386
2.12 -3.379 1.85 -0.0173511 0.188274 0 -0.711111 6.75224 0.441136 2.04318 0.473772 0.786326 -0.396523
-1.69987 -5.249 6.81862 0.450617 0.110466 0.09057 -0.79922 6.77146 -0.615685 5.4457 -0.818807 0.560268 0.125122
2.9005 -3.68187 2.7575 -0.311577 0.176534 -0.0161175 -0.711111 6.77537 -0.667032 2.04318 0.500525 0.809439 -0.307056
-0.271 -3.04275 0.64975 -0.37428 0.208787 0.0291624 -0.711111 6.81244 0.25987 2.70579 0.384615 0.696939 -0.605266
-4.98606 -4.13831 2.75444 0.0453553 0.0701404 0 -1 6.956 -0.448578 4.17721 -0.707196 0.630495 0.319921
-3.95025 -4.98125 4.1915 0.403797 0.140146 0.703378 -1 6.97774 -0.439848 4.45431 -0.364018 0.223478 0.904184
-4.0535 -1.33875 -0.59325 -0.5297 -0.0414722 0.271773 -0.877113 7.02236 -0.834148 3.59751 -0.436978 0.713172 0.548121
-4.77881 -2.13075 0.714437 -0.363993 -0.041585 0 -0.777778 7.09129 -0.109836 3.89186 -0.286221 0.75919 0.584558
3.951 -2.715 8.351 0.00131711 0.18862 0 -1 7.14203 -0.112759 0.81942 0.766733 0.415315 0.489524
-5.19125 -3.15313 1.31638 -0.263014 0.0791939 0 -0.777778 7.29756 -0.201481 4.17721 -0.612573 0.506803 0.606552
0.656875 -0.954625 11.0969 0.257629 -0.0404865 0 -0.0888889 7.31266 0.407777 0.319551 -0.172353 0.969797 0.17259
3.34275 -2.1375 9.62875 -0.085986 0.214108 0 -0.0888889 7.35189 0.296307 0.81942 0.924517 0.35699 0.133518
-2.55194 -2.87169 10.2829 0.0562423 -0.180505 -0.338533 -0.154071 7.35715 -0.147396 5.90603 -0.412992 0.578452 -0.703442
-2.69287 -5.83144 5.22319 0.455863 0.0942408 0.425143 -1 7.39772 -0.739062 5.12802 -0.654214 0.459018 0.601088
-1.991 -1.967 11.037 -0.109312 -0.108234 0 -0.2 7.49434 0.0152856 5.90603 -0.456314 0.833743 -0.310886
-0.977813 -1.33644 11.9819 0.0576827 -0.0873142 0 -0.155669 7.59463 -0.143982 6.148 -0.0664935 0.980925 -0.18266
5.789 -2.766 7.347 -0.314824 0.144616 -0.107915 -0.0888889 7.75069 0.999906 1.05304 0.725753 0.605547 0.326489
-3.848 -0.135 -1.112 -0.47056 -0.134221 -0 -0.777778 7.75351 0.162781 3.32055 0.267886 0.359465 0.89388
2.11538 -0.606875 10.9895 0.0126506 0.0821621 0 -0.0888889 7.83265 0.999888 0.319551 0.181246 0.959523 0.21556
-5.116 -5.535 4.308 0.53344 0.11598 0.132085 -1 7.89859 -0.573461 4.45431 0.188106 0.463336 0.865988
4.801 -3.417 7.9905 -0.255546 0.191123 -0.0430202 -0.207648 7.90736 0.395068 0.81942 0.640606 0.00382163 0.76786
4.55513 -3.31725 4.62625 0.0671633 0.168322 0 -0.0888889 7.91309 -0.0338406 1.35257 0.275363 0.784037 -0.556292
1.44806 -3.82606 0.425438 -0.0395763 0.195827 0 -0.711111 7.98003 0.663188 2.70579 0.426409 0.572631 -0.700192
5.7045 -3.07 5.55463 -0.45736 0.172692 -0.172694 -0.0888889 8.02934 0.573495 1.35257 0.719507 0.621293 -0.31033
3.12713 -4.20775 1.61263 -0.246179 0.184146 -0.469256 -0.711111 8.05547 0.428704 2.04318 0.517714 0.615862 -0.593874
-4.09312 -6.05037 4.4095 0.490923 0.086558 0 -1 8.07817 -0.999878 4.45431 -0.137521 0.544987 0.827089
-1.51519 -3.31188 -0.343688 -0.615773 0.227013 -0.637992 -0.769004 8.11116 -0.0481116 3.32055 0.552474 0.313317 -0.772402
-2.3525 -6.17938 7.56938 0.610377 0.121842 0.281908 -0.506213 8.13351 0.253721 5.4457 -0.928894 0.314033 0.196315
-2.61469 -4.94441 9.86416 0.323553 0.214075 0 -0.0888889 8.15116 0.0684234 5.76199 -0.775368 -0.219062 -0.592297
0.1535 -4.1105 -0.1085 -0.317708 0.210393 0 -0.711111 8.18912 0.419117 2.70579 0.224701 0.335214 -0.914954
-6.183 -5.011 4.536 0.226191 -0.0833876 0.967173 -1 8.30908 0.0722563 4.45431 0.30348 0.907268 0.291145
-5.76875 -4.03025 1.206 -0.335113 0.0811576 0.547276 -1 8.35351 -0.502144 4.17721 -0.659128 0.428587 0.617951
-6.11369 -4.90406 2.41894 0.0869857 0.0715853 0 -1 8.35974 0.106526 4.17721 -0.720725 0.693096 -0.0131379
-5.08962 -0.708 -1.25075 -0.420573 -0.058139 0 -0.777778 8.4021 -0.212369 3.59751 -0.202241 0.655467 0.727642
4.43038 -4.26412 2.94825 -0.266973 0.165293 -0.311906 -0.402171 8.42338 0.259001 2.04318 0.492359 0.69592 -0.522761
-6.1225 -2.22088 0.649594 -0.113871 -0.0838703 0 -0.777778 8.43956 0.61095 3.89186 -0.336361 0.46711 0.817722
1.33506 -1.27988 11.9929 0.171192 0.0875628 0 -0.184761 8.48251 0.187838 0.319551 0.263704 0.797677 0.542376
-5.4955 -1.4115 -0.29125 -0.232636 -0.0464767 0 -0.777778 8.52041 0.709193 3.89186 -0.0858229 0.803203 0.58949
-2.309 -6.189 8.945 0.43995 0.145345 0 -0.0888889 8.53613 0.159897 5.76199 -0.990824 0.123307 -0.0553434
-3.3405 -0.993 -2.2375 -0.62862 0.182386 -0.839383 -0.777778 8.53776 -0.15661 3.32055 0.971253 0.231919 0.0536805
-2.88225 -6.48225 6.32975 0.59626 0.0551001 0.800479 -1 8.54852 0.105173 5.12802 -0.654714 0.679947 0.330186
3.03731 -1.60906 11.3639 0.0088269 0.167302 0 -0.0888889 8.55544 0.999849 0.81942 0.822196 0.430406 0.372484
-2.9805 -2.35 -1.91 -0.58718 0.192672 -0.581509 -0.777778 8.58414 -0.0849309 3.32055 0.87559 0.263953 -0.404562
-3.648 -2.5685 10.791 0.102482 -0.131305 0 -0.2 8.60272 0.243116 5.90603 0.0512143 0.888126 -0.456737
-3.67 -3.37725 10.0363 0.238417 -0.231527 0 -0.2 8.60874 0.259178 5.90603 0.0528347 0.22804 -0.972217
-2.33325 -1.6125 12.1005 0.0651217 -0.117681 0.0357752 -0.134356 8.66645 -0.221343 5.90603 -0.27871 0.82363 -0.493918
3.38225 -3.56625 9.8885 -0.149365 0.216677 0 -0.0888889 8.8046 -0.133335 0.81942 0.981964 0.029861 0.186693
-3.716 -6.85975 5.448 0.579937 -0.0133173 0.268141 -1 8.86563 -0.999864 5.12802 -0.263335 0.865654 0.425791
-1.63806 -0.748062 12.9071 0.207123 -0.148459 0 0.0257813 8.87452 0.00689755 5.90603 -0.00624998 0.683988 -0.729466
-5.07044 -6.35375 5.00331 0.6309 -0.0922763 0.265465 -0.957747 8.97371 -0.625621 4.45431 0.358455 0.754102 0.55031
-3.47725 -2.18625 11.8475 0.0116938 -0.102588 0 -0.2 9.20136 -0.07272 5.90603 -0.3464 0.841313 -0.414969
-0.27 -0.883 13.3573 0.187824 -0.154258 0 -0.2 9.20656 -0.074031 6.148 0.52276 0.654727 -0.545943
-4.378 1.20725 -1.419 -0.689753 -0.0843787 -0.684071 -0.777778 9.22891 0.903658 3.32055 -0.00825931 0.568714 0.822494
4.131 -4.5865 8.162 -0.181636 0.231132 -0.081085 -0.963871 9.26605 -0.204549 0.81942 0.692427 -0.488939 0.53055
-3.155 0.989 -1.892 -0.615977 -0.166041 -0.367727 -0.777778 9.28715 0.999893 3.32055 0.806638 0.316079 0.499429
6.10675 -4.163 5.05475 -0.00255543 0.179594 0 -0.0888889 9.29675 0.682375 1.35257 0.941025 0.309323 -0.13708
4.1085 -4.9645 1.6875 -0.38191 0.194589 -0.0392315 -0.711111 9.29698 0.999844 2.04318 0.686923 0.269967 -0.674726
-2.3095 -3.191 -1.331 -0.780727 0.234744 0 -0.777778 9.38408 0.480397 3.32055 0.714555 -0.166744 -0.679417
0.732 -5.20875 -0.257 -0.216062 0.198748 0 -0.711111 9.43926 0.728898 2.70579 0.212587 0.174177 -0.961493
6.1595 -4.17625 6.47725 -0.279388 0.179774 -0.612511 -0.0888889 9.44849 0.468503 1.05304 0.935132 0.079417 0.345284
-2.18438 -7.15963 8.50113 0.52569 0.143351 0 -0.0888889 9.49634 -0.211752 5.76199 -0.97819 -0.0684411 0.19611
5.075 -4.83475 7.323 -0.039832 0.192616 0 -0.0888889 9.49816 0.179471 0.81942 0.483645 -0.344107 0.804784
3.4745 -5.5555 1.177 -0.216711 0.182382 -0.505928 -0.711111 9.51385 0.090209 2.04318 0.594443 0.33777 -0.72976
-2.81013 -7.37475 7.02338 0.598937 0.0931275 0.0306396 -1 9.52508 -0.310992 5.12802 -0.632572 0.310152 0.709689
2.555 -5.26075 0.74925 -0.0775773 0.18886 0 -0.711111 9.53248 -0.713711 2.04318 0.556512 0.368567 -0.744616
-6.624 -4.5115 5.5635 0.468287 -0.168593 0 -0.866667 9.53372 0.1465 4.45431 0.517749 0.639978 -0.567772
-6.46925 -5.10881 1.25181 -0.019668 0.0760992 0 -0.880138 9.59688 -0.259342 4.17721 -0.779521 0.411465 0.472275
-3.0865 -3.384 -2.202 -0.471853 0.201151 -0.0270624 -0.777778 9.66379 -0.207393 3.32055 0.949757 -0.133184 -0.283239
0.721 -1.61625 13.153 0.124071 -0.113779 0 -0.2 9.67687 -0.13008 6.148 0.550536 0.834086 0.034786
3.53444 -5.20062 8.8055 -0.491873 0.221047 -0.276743 -1 9.70297 -0.0669946 0.81942 0.903262 -0.309875 0.296809
5.8545 -4.31975 3.87075 -0.0325339 0.175678 0 -0.0888889 9.71979 0.737804 1.35257 0.697412 0.439195 -0.566325
-3.67925 -5.23994 10.9784 0.37313 0.234724 0 -0.2 9.72029 -0.054301 5.76199 -0.0577555 -0.859388 -0.508052
-4.73887 -2.95038 10.0363 0.168411 -0.197391 0 -0.2 9.75969 0.440618 5.90603 0.215907 0.495566 -0.841308
-2.011 -5.875 11.0615 0.37523 0.198111 -0.0252554 -0.253553 9.78336 -0.495688 5.76199 -0.733903 -0.671001 -0.105567
-7.58725 -5.17525 4.094 -0.0551233 0.121893 0.672859 -1 9.79038 0.185181 4.45431 -0.109349 0.717811 -0.687598
-3.15875 -1.42963 12.8542 0.0612547 -0.117114 0.542764 0.4 9.79913 0.166984 5.90603 -0.499533 0.666475 -0.553423
-3.2205 -1.95 -3.059 -0.40365 0.172472 -0.0983638 -0.777778 9.80469 -0.527029 3.32055 0.974372 0.0321083 0.222639
2.98381 -2.79806 11.9629 -0.0177105 0.15202 0 -0.0888889 9.88787 0.0389693 0.81942 0.843361 0.450121 0.293484
-2.37387 -4.86662 -0.62175 -0.396827 0.215638 0 -0.732196 9.9089 -0.739436 3.32055 0.607962 -0.0176716 -0.793769
-5.43231 1.03325 -1.99637 -0.784353 -0.0838957 -0.0505004 -0.777778 9.91151 0.10826 3.32055 -0.348452 0.365504 0.863127
-0.5085 -5.6925 -0.432 -0.326527 0.188554 0 -0.711111 9.93429 -0.123075 2.70579 0.229423 0.212243 -0.949904
-6.111 -5.624 6.089 0.57352 -0.174681 0.517632 -0.801127 9.98024 -0.586464 4.45431 0.902457 0.418943 -0.100291
-1.384 -5.18913 -0.499875 -0.291826 0.197233 0 -0.711111 9.99946 -0.45959 3.32055 0.185115 0.175227 -0.966968
-1.22113 0.0809375 13.5485 0.0400333 -0.179602 0 0.4 10.0026 -0.0746796 5.90603 0.27894 0.353428 -0.892906
-7.01625 -5.99675 3.2625 0.0142378 0.115772 -0.13483 -0.961342 10.009 -0.678956 4.17721 -0.752426 0.433991 -0.495487
-7.02675 -3.451 0.24375 -0.00575907 0.0995378 0 -0.777778 10.0193 -0.510175 3.89186 -0.433467 0.192387 0.880394
-2.97831 -0.11725 -3.39812 -0.588107 0.169928 0 -0.777778 10.0361 -0.0838444 3.32055 0.986663 0.11596 0.114233
-1.90625 -6.818 10.2917 0.36039 0.144878 -0.276012 -0.372184 10.0761 -0.273895 5.76199 -0.962724 -0.18519 0.197148
-6.23525 -0.18375 -2.40925 -0.563093 -0.081736 0 -0.600144 10.1137 -0.999877 3.59751 -0.181898 0.37108 0.910611
5.26075 -5.76 3.307 -0.040806 0.203902 0 -0.0888889 10.1715 0.27067 2.04318 0.797038 -0.14804 -0.585504
-3.665 1.752 -2.3 -0.70351 -0.0919527 -0.719077 -0.777778 10.2915 0.417711 3.32055 0.41392 0.754312 0.509591
2.18325 -6.05725 0.0105 -0.04692 0.176843 0 -0.711111 10.3656 0.48508 2.70579 0.393143 0.26329 -0.880975
-4.69228 -7.21006 6.58134 0.7131 -0.0939667 0.096704 -0.777778 10.402 -0.0381626 5.12802 0.412367 0.69768 0.585829
-2.80512 -4.0735 -1.22063 -0.847523 0.226618 0 -0.777778 10.4022 -0.683774 3.32055 0.7557 -0.263598 -0.599527
-7.87075 -2.471 -0.24225 -0.0111764 -0.0853958 -7.6934e-05 0.477402 10.418 0.0453187 3.89186 -0.0733341 0.381608 0.921411
3.832 -5.48088 7.36075 0.108934 0.229932 -0.378924 -0.502949 10.5035 -0.435702 0.81942 0.520322 -0.631237 0.575156
-3.1025 1.275 -3.07825 -0.61767 0.156913 -0.0503088 -0.777778 10.5085 0.600162 3.32055 0.9173 0.39716 -0.0287272
3.295 -5.288 10.0361 -0.0684253 0.192775 0 -1 10.5349 -0.371073 0.81942 0.995543 0.0721233 -0.0607706
-7.35575 -6.70587 2.56169 -0.151647 0.0628241 0 -0.485396 10.5528 -0.712272 4.17721 -0.706322 0.699094 -0.111252
-5.271 -4.34734 9.45378 0.429117 -0.236766 0 -0.2 10.5692 0.0790899 5.90603 0.716884 -0.165769 -0.677199
-2.162 -8.0945 7.9165 0.50133 0.0946504 0 -0.0888889 10.5992 -0.999892 5.76199 -0.909633 0.295624 0.291845
0.946 -6.35213 -0.294625 -0.201321 0.18551 0 -0.711111 10.6031 0.556382 2.70579 0.162025 0.0581331 -0.985073
-7.5915 -4.8935 5.11925 -0.00991547 -0.137745 0.514298 -0.866667 10.6648 -0.813618 4.45431 0.355514 0.720587 -0.595285
3.376 -4.46012 11.5696 -0.191809 0.177274 0 -0.819122 10.7086 -0.278033 0.81942 0.97427 0.16452 -0.154046
6.31625 -5.45787 4.4545 -0.0067211 0.191624 0 -0.0888889 10.7393 0.999823 1.35257 0.927894 -0.127666 -0.350306
5.9565 -5.4905 6.71725 -0.00323546 0.16635 0 -0.0888889 10.7527 0.624057 0.81942 0.534816 -0.240216 0.810104
2.2445 -2.9305 13.324 -0.0321753 0.0944046 -0.242896 -0.0993964 10.7898 -0.199769 0.319551 0.529716 0.796814 0.29067
-2.13225 -8.094 9.39625 0.419197 0.10093 0 0.107925 10.7913 -0.0980801 5.76199 -0.947777 0.184363 0.260248
3.96025 -6.643 1.70275 0.0598807 0.19069 -0.0112347 -0.711111 10.8158 -0.0276253 2.04318 0.861054 -0.0617167 -0.504754
-3.38256 -4.52719 -2.17512 -0.284046 0.17795 0 -0.573527 10.845 -0.826511 3.32055 0.997101 -0.0113461 -0.0752327
-7.0405 -6.171 0.85725 -0.132005 0.0589759 0.00973336 -0.850191 10.8658 -0.999867 4.17721 -0.60925 0.463412 0.643478
-5.82725 -2.50425 9.9965 0.16658 -0.133113 0 -0.2 10.9232 0.279194 5.90603 0.185066 0.85031 -0.49267
-7.654 -1.03075 -1.2925 -0.123922 -0.0747477 0 -0.202515 10.9301 -0.20787 3.89186 0.112016 0.560975 0.820219
-0.118719 0.483594 14.4014 -0.026709 -0.17862 0 0.4 10.933 0.265661 6.148 0.788998 0.16338 -0.592275
-1.7585 -6.495 11.9974 0.3505 0.152191 0 -1 10.934 0.0230992 5.76199 -0.875271 -0.44215 0.195971
-2.90569 0.68025 13.7451 0.049932 -0.172953 0 0.4 10.96 0.0684272 5.90603 -0.312653 0.115108 -0.942867
3.61663 -6.80125 0.4125 0.0031475 0.177267 0 -0.711111 10.9824 0.999887 2.04318 0.729197 0.0116746 -0.684205
-4.69075 -2.53175 13.1115 -0.183255 -0.0490196 0 -0.2 10.9873 -0.383292 5.90603 -0.350228 0.931539 -0.0978508
-7.47038 -4.79637 0.310625 -0.0074969 0.0917271 0.103803 -0.00718982 11.006 -0.545855 4.17721 -0.358296 0.193719 0.913289
3.19675 -6.351 9.321 0.00861873 0.197936 -0.0916526 -1 11.008 -0.160782 0.81942 0.938843 -0.0469551 -0.341129
-4.92338 -5.55363 11.0901 0.315841 0.218867 0 -0.2 11.0082 0.080399 5.76199 0.467586 -0.821285 -0.326885
-7.93925 -3.85125 0.11075 0.212988 -0.106718 0.0293317 0.688447 11.0246 -0.337917 3.89186 -0.00853468 0.131053 0.991339
-3.69738 -1.33834 13.9881 0.059151 -0.110445 0.407209 0.4 11.0578 -0.414425 5.90603 -0.730711 0.470451 -0.494709
-1.71375 -7.84975 10.351 0.248422 0.116918 -0.236758 -0.347251 11.1273 -0.791293 5.76199 -0.959066 -0.0283712 0.281756
1.41825 -2.4965 14.165 -0.0174466 0.121019 -0.188425 -0.2 11.1885 -0.577821 6.148 0.754722 0.655694 0.021473
-6.4485 -3.06988 6.36562 0.82373 -0.197182 0.232478 -0.866667 11.1928 0.999867 4.45431 0.581447 0.599726 -0.549771
-2.9135 -3.98231 -3.61944 -0.682563 0.1394 0 -0.777778 11.212 -0.524068 3.32055 0.863735 0.130045 0.486877
-2.32625 -6.14625 -0.999 -0.10054 0.158997 0 -0.372947 11.2438 -0.622644 3.32055 0.500125 0.422636 -0.755813
-2.68963 -5.70463 12.3524 0.373157 0.203792 0 -0.2 11.2517 -0.389516 5.76199 -0.260663 -0.948494 -0.180039
-5.79563 -5.69025 7.32412 0.66977 -0.193048 0.297821 -0.863844 11.2567 0.225146 4.45431 0.957859 0.0303151 0.285636
-8.94312 -4.58262 4.06213 -0.560117 -0.170369 -0.0572364 -0.777778 11.2705 0.0691205 4.45431 0.560501 0.160938 -0.812366
-6.2165 -2.099 11.352 -0.0479317 -0.0500462 0 -0.2 11.2734 0.734313 5.90603 -0.0671779 0.99727 0.0306544
-2.46525 -0.733312 -4.35563 -0.263078 -0.124836 0 -0.777778 11.285 0.260005 3.32055 0.815482 0.404913 0.413563
-7.96863 -6.67513 3.78638 -0.661683 0.101339 -0.306906 -0.777778 11.2903 -0.999901 4.17721 -0.299107 0.692448 -0.656544
-7.69875 -3.17213 5.98338 0.781853 -0.164556 0.112886 -0.866667 11.3016 0.118032 4.45431 0.299425 0.616534 -0.728169
5.2735 -6.67125 3.984 -0.0313823 0.20586 0 -0.0888889 11.3068 0.504643 2.04318 0.757562 -0.483683 -0.438349
-8.35437 -4.16412 4.94775 -0.453847 -0.149202 -0.475452 -0.816929 11.32 -0.0223487 4.45431 0.570471 0.599126 -0.561793
6.5185 -5.706 5.429 -0.00252306 0.187369 0 -0.0888889 11.3374 0.763723 1.05304 0.967118 -0.235466 -0.0961161
-4.2395 -8.5735 7.08169 0.515497 0.0690963 0 -0.918367 11.3915 -0.999835 5.12802 0.129076 0.635443 0.761282
-6.90462 0.9615 -2.46444 -0.30026 -0.103799 0 -0.661351 11.4413 -0.328281 3.32055 0.290027 0.277456 0.915916
0.461 -0.8215 15.4971 -0.179853 0.133515 -0.262187 -0.00454918 11.4686 0.0375989 6.148 0.923269 0.377674 0.0702589
3.73475 -3.857 12.9416 -0.590933 0.138157 -0.122123 -0.0888889 11.5136 0.40094 0.81942 0.852845 0.491264 -0.17696
-9.01975 -6.191 4.01325 -0.53754 0.148002 0 -0.777778 11.5483 -0.871548 4.45431 0.243692 0.223039 -0.943858
-8.44675 -1.73325 -0.95075 -0.044929 -0.091133 0 0.686873 11.5919 -0.999883 3.89186 0.355633 0.467696 0.809188
-3.304 -5.581 -1.83975 -0.170968 0.158459 0 -0.0888889 11.5998 -0.789904 3.32055 0.902447 0.287158 -0.321137
3 129 185 191
3 145 134 107
3 141 72 94
3 94 72 54
3 94 54 97
3 34 44 54
3 62 88 92
3 72 134 88
3 92 88 167
3 92 90 62
3 34 62 43
3 62 90 64
3 62 64 43
3 64 42 43
3 87 85 59
3 59 85 51
3 59 51 33
3 51 85 74
3 51 74 60
3 33 51 60
3 189 180 120
3 120 157 189
3 154 127 99
3 127 166 98
3 98 186 172
3 141 131 187
3 122 164 181
3 148 112 133
3 133 112 81
3 133 81 137
3 43 42 22
3 22 33 17
3 33 27 17
3 46 20 27
3 56 68 95
3 95 147 118
3 184 147 136
3 154 99 126
3 93 83 39
3 99 98 67
3 41 67 69
3 98 99 127
3 105 172 130
3 113 135 84
3 135 137 84
3 84 58 77
3 58 48 77
3 30 36 44
3 44 28 30
3 30 28 16
3 5 34 6
3 6 34 22
3 5 6 1
3 6 17 11
3 39 35 56
3 56 82 93
3 82 118 115
3 82 115 93
3 175 154 126
3 93 142 83
3 142 178 169
3 115 162 142
3 9 21 8
3 41 24 21
3 21 24 8
3 24 47 26
3 70 45 69
3 69 100 70
3 103 70 100
3 103 100 130
3 103 170 138
3 138 168 106
3 106 168 195
3 146 119 117
3 77 48 55
3 15 36 30
3 32 36 15
3 16 7 15
3 16 5 7
3 7 5 1
3 10 2 8
3 2 9 8
3 1 11 9
3 1 6 11
3 10 8 18
3 18 8 26
3 38 14 18
3 38 29 14
3 53 26 47
3 53 47 73
3 65 47 45
3 73 65 91
3 123 91 70
3 70 106 123
3 106 195 123
3 163 171 117
3 163 117 111
3 111 117 79
3 79 55 57
3 37 32 12
3 25 23 31
3 76 52 50
3 31 50 52
3 31 23 14
3 14 29 31
3 50 29 49
3 53 66 38
3 38 66 63
3 196 132 161
3 96 91 132
3 132 91 161
3 161 91 123
3 161 123 179
3 144 163 111
3 144 111 89
3 89 125 144
3 31 37 25
3 89 76 125
3 78 125 76
3 76 50 78
3 125 78 110
3 78 114 110
3 114 116 160
3 116 75 108
3 108 75 124
3 49 63 75
3 101 63 66
3 132 196 158
3 116 108 150
3 108 124 150
3 174 124 152
3 65 73 47
3 87 121 153
3 167 198 149
3 167 149 90
3 197 185 129
3 85 129 120
3 120 129 157
3 129 191 157
3 189 157 191
3 131 141 94
3 131 94 97
3 34 61 62
3 62 61 88
3 88 61 72
3 54 72 61
3 54 61 34
3 167 88 143
3 194 167 143
3 194 143 134
3 134 143 88
3 90 86 64
3 121 87 86
3 173 121 140
3 86 140 121
3 140 86 90
3 176 173 140
3 149 140 90
3 140 149 176
3 153 121 165
3 173 165 121
3 139 188 129
3 129 188 197
3 139 153 188
3 87 153 139
3 60 74 80
3 80 74 104
3 85 104 74
3 104 85 147
3 147 85 136
3 120 136 85
3 122 97 112
3 97 122 131
3 181 131 122
3 164 122 148
3 84 137 81
3 36 58 81
3 36 81 44
3 22 34 43
3 20 17 27
3 56 40 68
3 68 40 46
3 46 40 20
3 95 68 102
3 102 68 80
3 102 80 104
3 80 68 60
3 46 60 68
3 95 102 147
3 104 147 102
3 147 193 118
3 126 99 83
3 41 39 67
3 67 83 99
3 83 67 39
3 69 67 105
3 69 105 100
3 105 67 98
3 130 100 105
3 177 130 172
3 133 182 199
3 182 133 137
3 148 133 164
3 164 133 199
3 48 58 36
3 9 11 20
3 19 9 20
3 35 19 20
3 40 56 35
3 40 35 20
3 155 115 118
3 162 115 155
3 183 126 128
3 183 128 169
3 83 142 128
3 83 128 126
3 128 142 169
3 162 178 142
3 21 19 35
3 21 35 39
3 21 39 41
3 9 19 21
3 26 8 24
3 45 47 24
3 135 113 156
3 32 55 48
3 32 48 36
3 4 2 10
3 14 10 18
3 138 106 103
3 103 106 70
3 179 123 195
3 79 117 119
3 37 57 55
3 32 37 55
3 50 31 29
3 4 10 14
3 63 49 29
3 63 29 38
3 76 89 52
3 52 37 31
3 37 52 57
3 57 52 89
3 63 124 75
3 101 124 63
3 158 152 101
3 101 152 124
3 86 87 59
3 86 59 64
3 64 59 42
3 109 107 72
3 109 72 141
3 109 141 151
3 109 151 145
3 109 145 107
3 134 72 107
3 90 92 167
3 85 87 129
3 139 129 87
3 166 127 154
3 98 166 186
3 54 44 97
3 97 44 81
3 97 81 112
3 122 112 148
3 28 44 34
3 22 42 33
3 42 59 33
3 60 46 33
3 27 33 46
3 172 105 98
3 135 182 137
3 81 58 84
3 34 16 28
3 16 34 5
3 6 22 17
3 56 95 82
3 118 82 95
3 115 142 93
3 39 56 93
3 24 41 45
3 45 41 69
3 177 170 130
3 103 130 170
3 84 77 113
3 113 77 146
3 119 146 77
3 30 16 15
3 7 1 3
3 12 3 13
3 4 13 3
3 0 2 4
3 0 4 3
3 0 3 1
3 2 0 1
3 2 1 9
3 17 20 11
3 18 26 38
3 38 26 53
3 65 45 70
3 91 65 70
3 113 146 156
3 171 146 117
3 77 79 119
3 79 77 55
3 3 12 15
3 3 15 7
3 15 12 32
3 13 4 14
3 12 13 23
3 12 23 25
3 14 23 13
3 73 91 96
3 96 53 73
3 79 89 111
3 57 89 79
3 37 12 25
3 114 78 71
3 114 71 75
3 71 78 50
3 71 50 49
3 75 71 49
3 75 116 114
3 132 101 96
3 96 101 66
3 96 66 53
3 159 110 114
3 159 114 192
3 159 190 144
3 125 110 159
3 125 159 144
3 132 158 101
