ply
format ascii 1.0
comment Generated by PyMesh
element vertex 200
property float x
property float y
property float z
property float charge
property float ddc
property float hbond
property float hphob
property float rho
property float si
property float theta
property float nx
property float ny
property float nz
element face 335
property list uchar int vertex_indices
end_header
-6.2165 -2.099 11.352 -0.0479317 0 0 -0.2 1e-08 0.734313 2.22045e-16 -0.0671779 0.99727 0.0306544
-5.72906 -2.47112 12.6509 -0.209615 0.141554 0 -0.2 1.43639 -0.310485 4.64097 -0.0788777 0.986902 0.140719
-5.82725 -2.50425 9.9965 0.16658 0.35453 0 -0.2 1.46735 0.279194 1.18815 0.185066 0.85031 -0.49267
-7.99203 -2.64528 11.2072 0.106454 -0.103075 0 -0.2 1.8633 -0.397675 2.87501 -0.0144315 0.992396 0.122235
-4.69075 -2.53175 13.1115 -0.183255 -0.123057 0 -0.2 2.36876 -0.383292 5.15423 -0.350228 0.931539 -0.0978508
-6.951 -2.5145 9.9525 0.198646 -0.178848 0 -0.2 2.59201 -0.0955885 1.87213 0.21621 0.976343 0.00262576
-4.73887 -2.95038 10.0363 0.168411 0.449644 0 -0.2 2.64429 0.440618 0.612714 0.215907 0.495566 -0.841308
-3.648 -2.5685 10.791 0.102482 0.15954 0 -0.2 2.67064 0.243116 2.22045e-16 0.0512143 0.888126 -0.456737
-6.351 -2.99425 8.68025 0.534287 0.272693 0 -0.533636 2.96633 -0.0896829 1.52377 0.659098 0.746601 -0.0904267
-5.90675 -2.65587 14.3011 -0.117535 -0.0317145 0 -0.2 3.10638 -0.7564 4.48409 0.000315313 0.991663 -0.12886
-9.14338 -2.21881 10.6134 0.047993 -0.289995 0 -0.866667 3.22715 -0.594547 2.756 0.525658 0.686227 0.502768
-4.765 -2.518 14.248 -0.200502 -0.0973569 0 -0.2 3.30249 -0.84256 4.85671 -0.364464 0.919285 -0.148599
-7.47087 -2.52638 13.4104 -0.0864843 -0.109608 0 -0.2 3.33739 -0.109034 3.90018 0.181217 0.970668 -0.157999
-5.271 -4.34734 9.45378 0.429117 0.495332 0 -0.2 3.46759 0.0790899 0.919761 0.716884 -0.165769 -0.677199
-9.42325 -2.72775 11.9522 -0.069941 -0.215888 0 -0.779522 3.47892 -0.999869 3.14134 0.61736 0.784708 -0.0556738
-8.49575 -2.5645 12.975 -0.0942213 -0.136898 -0.18369 -0.368789 3.70324 -0.54535 3.54044 0.186533 0.919786 -0.345252
-3.67 -3.37725 10.0363 0.238417 0.381329 0 -0.2 3.77705 0.259178 0.31482 0.0528347 0.22804 -0.972217
-3.47725 -2.18625 11.8475 0.0116938 -0.170606 0 -0.2 3.80707 -0.07272 5.84577 -0.3464 0.841313 -0.414969
-8.08497 -1.88934 9.36447 0.207993 -0.269975 0 -0.866667 3.85723 -0.139227 2.20351 0.524179 0.786561 0.326433
-2.55194 -2.87169 10.2829 0.0562423 0.215481 -0.338533 -0.154071 3.91621 -0.147396 0.0137026 -0.412992 0.578452 -0.703442
-3.69738 -1.33834 13.9881 0.059151 -0.254988 0.407209 0.4 4.15186 -0.414425 5.19147 -0.730711 0.470451 -0.494709
-3.15875 -1.42963 12.8542 0.0612547 -0.210843 0.542764 0.4 4.27346 0.166984 5.53722 -0.499533 0.666475 -0.553423
-7.06962 -2.47638 14.4404 -0.0257032 -0.170922 0.0962312 -0.376944 4.29124 -0.731081 4.13459 0.328211 0.848099 -0.415938
-6.187 -2.8705 7.317 0.785327 0.220818 0.122961 -0.866667 4.34497 0.873616 1.57923 0.76518 0.638045 -0.0860097
-7.16125 -2.234 7.76575 0.524633 0.178006 0.104137 -0.866667 4.40535 0.213785 1.78893 0.557123 0.812604 -0.171138
-9.64669 -1.105 10.3852 -0.036121 -0.36049 0 -0.866667 4.47052 -0.146609 2.66981 0.861516 0.199114 0.467058
-5.15737 -2.20863 15.3814 -0.0770677 -0.170978 -0.423582 0.4 4.49513 -0.999859 4.68854 -0.285748 0.688131 -0.666951
-5.61875 -4.25737 7.6965 1 0.319509 0.473898 -0.866667 4.72685 0.429686 1.27567 0.978629 0.118664 -0.167943
-10.237 -1.322 11.2058 -0.214441 -0.328138 -0.238289 -0.866667 4.76052 -0.926325 2.87903 0.927756 0.180387 0.326696
-9.30481 -1.76231 13.5004 -0.51173 -0.263556 -0.615631 -0.777778 4.95789 -0.45824 3.53372 0.595097 0.508562 -0.622273
-9.06 -0.9825 9.4 0.0107298 -0.260375 0 -0.866667 4.96144 0.0899438 2.3893 0.709073 0.625695 0.325148
-2.33325 -1.6125 12.1005 0.0651217 -0.128068 0.0357752 -0.134356 5.11165 -0.221343 5.76387 -0.27871 0.82363 -0.493918
-6.17556 -5.75075 9.81419 0.51025 0.430091 0 -0.0888889 5.17571 -0.485206 0.853678 0.879245 -0.409227 -0.243849
-1.991 -1.967 11.037 -0.109312 -0.115272 0 -0.2 5.22074 0.0152856 6.00167 -0.456314 0.833743 -0.310886
-10.1517 -1.443 12.8884 -0.57693 -0.300819 -0.0908054 -0.810518 5.22754 -0.920442 3.34764 0.884903 0.208359 -0.416574
-8.26437 -1.01525 8.31125 0.0134116 -0.169348 0 -0.866667 5.23762 0.802344 2.15441 0.555904 0.831173 -0.0110874
-6.4485 -3.06988 6.36562 0.82373 0.177698 0.232478 -0.866667 5.35158 0.999867 1.57429 0.581447 0.599726 -0.549771
-1.62925 -2.0845 9.506 -0.3736 -0.166979 -0.239979 -0.0888889 5.35656 0.693731 6.21899 -0.672234 0.587866 -0.450016
-3.83075 -0.304 14.6757 -0.026281 -0.307889 -0.0434052 0.446411 5.40103 -0.560929 5.14867 -0.607594 -0.0369576 -0.793388
-6.2445 -5.67425 8.35825 0.839817 0.357147 0.48189 -0.866667 5.4446 -0.593974 1.01114 0.940384 -0.316391 0.124801
-7.49125 -1.47625 15.2793 0.247017 -0.223885 0.704737 -0.777778 5.48121 -0.569798 4.08865 0.469884 0.554722 -0.686653
-9.65375 -0.18225 9.868 -0.0384657 -0.290722 0 -0.866667 5.52835 0.035881 2.53699 0.944339 0.32223 0.066263
-4.92338 -5.55363 11.0901 0.315841 0.517243 0 -0.2 5.52999 0.080399 0.692747 0.467586 -0.821285 -0.326885
-2.61469 -4.94441 9.86416 0.323553 0.311346 0 -0.0888889 5.67423 0.0684234 0.289257 -0.775368 -0.219062 -0.592297
-8.17025 -1.88312 7.04 0.270622 0.14918 0.232979 -0.866667 5.69683 0.677647 1.91208 0.329029 0.739171 -0.587679
-5.79569 -1.33506 16.1006 -0.0309629 -0.234885 0 0.4 5.7943 -0.999871 4.55486 -0.124208 0.290816 -0.948682
-3.67925 -5.23994 10.9784 0.37313 0.470534 0 -0.2 5.84558 -0.054301 0.537915 -0.0577555 -0.859388 -0.508052
-1.63806 -0.748062 12.9071 0.207123 -0.147228 0 0.0257813 5.94075 0.00689755 5.62717 -0.00624998 0.683988 -0.729466
-10.1956 -0.223 12.1319 -0.318546 -0.366976 -0.563898 -0.758511 6.1062 -0.999829 3.34764 0.948219 -0.288896 -0.131983
-9.76156 0.291438 11.3061 -0.0964303 -0.392489 0 0.4 6.14721 -0.15531 2.53699 0.936059 -0.348835 -0.0459032
-9.39925 -0.69575 8.29525 0.0114345 -0.155942 0 -0.866667 6.15215 0.0238771 2.15441 0.516402 0.75225 -0.409204
-5.79563 -5.69025 7.32412 0.66977 0.268087 0.297821 -0.863844 6.21785 0.225146 1.01114 0.957859 0.0303151 0.285636
-8.64675 -1.3 14.493 -0.307199 -0.319589 -0.805512 -0.777778 6.23539 -0.640637 3.53372 0.694924 0.166547 -0.69953
-2.90569 0.68025 13.7451 0.049932 -0.256885 0 0.4 6.33372 0.0684272 5.14867 -0.312653 0.115108 -0.942867
-4.75675 0.05125 15.3105 -0.106209 -0.329115 -0.141506 0.669609 6.3432 -0.407501 5.14867 -0.547288 -0.301542 -0.780735
-1.03 -3.787 8.5425 0.191599 -0.181214 -0.000550657 -0.0888889 6.40279 -0.66072 6.21899 -0.841293 0.29785 -0.451123
-7.69875 -3.17213 5.98338 0.781853 0.149862 0.112886 -0.866667 6.49002 0.118032 1.57429 0.299425 0.616534 -0.728169
-0.977813 -1.33644 11.9819 0.0576827 -0.0227802 0 -0.155669 6.49999 -0.143982 5.62717 -0.0664935 0.980925 -0.18266
-9.96212 0.7785 9.82487 -0.0460157 -0.285745 0 -0.866667 6.5383 -0.429738 2.53699 0.984476 0.0508648 -0.167988
-6.27887 -7.16625 9.82987 0.573587 0.254065 0 -0.0888889 6.59506 -0.176118 0.853678 0.968248 0.150609 -0.199533
-9.43606 -0.117812 13.4581 -0.329975 -0.359918 -0.0503273 0.201144 6.60816 -0.30643 3.34764 0.804556 -0.193789 -0.561369
-0.47025 -1.53 9.122 -0.106855 -0.0873621 -0.47734 -0.0888889 6.69753 0.17356 6.21899 -0.559631 0.807507 -0.186402
-4.18175 0.935375 14.1839 -0.0221448 -0.379952 0 0.924198 6.77985 -0.18944 5.14867 -0.205217 -0.606615 -0.768052
-8.982 -2.2765 6.4235 0.0985167 0.132624 0 -0.866667 6.78942 0.225585 1.91208 0.208589 0.693139 -0.689962
-5.308 -5.77575 12.31 0.303794 0.504531 0 -0.2 6.82823 -0.624294 0.692747 0.323934 -0.933786 -0.152023
-6.111 -5.624 6.089 0.57352 0.178318 0.517632 -0.801127 6.89342 -0.586464 1.27567 0.902457 0.418943 -0.100291
-6.8605 -0.341 15.9435 0.0436187 -0.307003 0.47085 -0.777778 6.93991 -0.759795 4.08865 0.396037 -0.188333 -0.898713
-6.22325 -6.96025 7.58225 0.517227 0.231366 0 -0.777778 6.94674 -0.999844 1.01114 0.827747 0.0783912 0.555599
-10.1615 0.4705 8.58675 -0.04119 -0.218478 0 -0.866667 6.95791 -0.215396 2.53699 0.911713 0.337515 -0.234228
-5.719 -0.127 16.1567 -0.0384123 -0.313537 0 0.798507 7.00609 -0.999911 4.55486 -0.158741 -0.406461 -0.899773
-6.624 -4.5115 5.5635 0.468287 0.135538 0 -0.866667 7.01064 0.1465 1.57429 0.517749 0.639978 -0.567772
-0.426 -1.17206 10.6077 -0.082501 -0.0519146 0 -0.0888889 7.02779 0.701762 6.00167 -0.363504 0.925447 -0.106831
-1.22113 0.0809375 13.5485 0.0400333 -0.188213 0 0.4 7.06878 -0.0746796 5.62717 0.27894 0.353428 -0.892906
-0.620125 -2.47038 8.16737 0.103473 -0.172066 -0.60344 -0.38732 7.07678 -0.131727 6.21899 -0.933496 0.310793 -0.178866
-6.60156 -7.33588 8.79594 0.630253 0.238527 0 -0.256651 7.10728 -0.999867 1.01114 0.994857 0.0992303 0.0203263
-8.03256 0.0735625 15.0258 -0.074313 -0.350649 0 0.317122 7.14229 -0.424753 4.08865 0.517041 -0.337749 -0.786508
-2.309 -6.189 8.945 0.43995 0.206568 0 -0.0888889 7.25135 0.159897 0.289257 -0.990824 0.123307 -0.0553434
-6.14825 -6.61194 11.79 0.412833 0.370429 0 -0.120257 7.29357 -0.444363 0.692747 0.929507 -0.355159 -0.0993885
-2.011 -5.875 11.0615 0.37523 0.317226 -0.0252554 -0.253553 7.30643 -0.495688 0.289257 -0.733903 -0.671001 -0.105567
-0.27 -0.883 13.3573 0.187824 0.130843 0 -0.2 7.38729 -0.074031 5.62717 0.52276 0.654727 -0.545943
-8.74413 1.04475 11.6525 -0.0659547 -0.460785 0 0.4 7.4597 0.178468 2.53699 0.462599 -0.739102 -0.489623
-5.345 0.7695 14.552 -0.0206934 -0.421063 0 0.933333 7.54205 0.669516 5.14867 -0.203801 -0.759961 -0.617191
-2.68963 -5.70463 12.3524 0.373157 0.380649 0 -0.2 7.60148 -0.389516 0.537915 -0.260663 -0.948494 -0.180039
-6.10838 -7.2915 10.8197 0.50502 0.251046 0 -0.0888889 7.60725 0.0510481 0.853678 0.978062 0.207388 -0.01962
-10.5411 0.020375 7.60388 -0.0416343 -0.179221 0 -0.866667 7.66696 0.287834 2.53699 0.449597 0.384052 -0.806453
-9.66938 1.7765 10.3371 -0.0597057 -0.336167 0 0.4 7.69765 -0.672893 2.53699 0.732011 -0.557361 -0.391801
-10.148 -1.38462 7.12813 0.016896 0.145896 0 -0.866667 7.70048 -0.219836 1.91208 0.229914 0.611414 -0.757174
-8.909 0.4065 14.286 -0.223873 -0.370063 -0.102703 -0.210171 7.72086 -0.729122 3.34764 0.73117 -0.497013 -0.4673
-1.90625 -6.818 10.2917 0.36039 0.232155 -0.276012 -0.372184 7.72241 -0.273895 0.289257 -0.962724 -0.18519 0.197148
-8.9555 -3.102 5.67 -0.219211 0.110594 -0.300687 -0.821164 7.78715 -0.278896 1.91208 0.401153 0.74822 -0.528435
-5.725 -6.1115 13.164 0.28495 0.399608 0 -0.199861 7.83617 -0.999881 0.692747 0.778413 -0.53643 -0.326062
-0.949313 -4.12856 7.11919 0.359443 -0.154494 0 -0.584002 7.86873 -0.611672 6.21899 -0.913709 0.35722 0.193727
-8.84081 0.750188 12.7536 -0.0905627 -0.461009 0 0.4 7.87467 -0.0673089 3.34764 0.626112 -0.771068 -0.115926
-9.886 -2.553 5.83125 -0.130164 0.0836697 0 -0.84122 7.90496 -0.205416 1.91208 0.231542 0.833637 -0.501436
-6.14975 -8.38775 9.2365 0.642467 0.159438 0 0.597371 7.95918 -0.682244 0.853678 0.864514 0.496605 -0.0774548
-3.42144 2.20444 13.4284 -0.243935 -0.310072 -0.116342 0.9093 7.97368 -0.172714 5.14867 0.306256 -0.504535 -0.80725
-8.35437 -4.16412 4.94775 -0.453847 0.127848 -0.475452 -0.816929 8.06686 -0.0223487 1.57429 0.570471 0.599126 -0.561793
-6.381 0.66075 15.2494 0.00722077 -0.390932 0 0.933333 8.07912 -0.597313 4.55486 -0.00666402 -0.786907 -0.617035
-7.5915 -4.8935 5.11925 -0.00991547 0.105413 0.514298 -0.866667 8.14171 -0.813618 1.57429 0.355514 0.720587 -0.595285
-5.77 -8.44 10.563 0.568423 0.192498 0 -0.0888889 8.15033 0.23855 0.853678 0.951713 0.306736 0.0124313
-10.2965 1.40625 7.82575 -0.117352 -0.277056 0 -0.777778 8.17157 -0.0680291 2.53699 0.562055 -0.588037 -0.581642
-6.109 -8.09013 8.2005 0.609747 0.152086 0.0100599 -0.777778 8.18712 -0.999782 1.01114 0.704026 0.548252 0.451407
-6.183 -5.011 4.536 0.226191 -0.0701995 0.967173 -1 8.23527 0.0722563 1.57429 0.30348 0.907268 0.291145
0.656875 -0.954625 11.0969 0.257629 -0.037019 0 -0.0888889 8.23577 0.407777 6.00167 -0.172353 0.969797 0.17259
-4.69228 -7.21006 6.58134 0.7131 -0.120181 0.096704 -0.777778 8.23749 -0.0381626 1.01114 0.412367 0.69768 0.585829
-1.30175 1.72675 13.5933 -0.0387437 -0.166036 0 0.4 8.25488 0.635166 5.62717 0.251486 0.358882 -0.898865
-2.06519 2.4575 13.891 -0.0912767 -0.161535 0 0.4 8.3051 0.0798758 5.14867 0.582739 0.418386 -0.696684
-5.53575 1.5295 13.741 -0.000628653 -0.42218 0 0.933333 8.32337 -0.198105 5.14867 -0.121869 -0.773495 -0.621975
-2.18438 -7.15963 8.50113 0.52569 0.201372 0 -0.0888889 8.32591 -0.211752 0.289257 -0.97819 -0.0684411 0.19611
0.94725 -0.8885 9.82619 0.196768 -0.0147249 0.025898 -0.0888889 8.40537 0.0536257 6.21899 -0.162998 0.986589 -0.00857057
-0.030375 -1.28225 7.4885 0.122921 -0.0679522 0.00467234 -0.980047 8.40727 0.180699 6.21899 -0.531229 0.845946 0.0465979
-1.7585 -6.495 11.9974 0.3505 0.265172 0 -1 8.45711 0.0230992 0.289257 -0.875271 -0.44215 0.195971
-0.118719 0.483594 14.4014 -0.026709 0.179291 0 0.4 8.5196 0.265661 5.62717 0.788998 0.16338 -0.592275
-4.70913 2.10713 12.9949 -0.0695653 -0.408496 0 0.112684 8.53052 -0.234144 5.14867 0.223145 -0.9024 -0.368619
0.721 -1.61625 13.153 0.124071 0.0900307 0 -0.2 8.58223 -0.13008 5.62717 0.550536 0.834086 0.034786
-2.3525 -6.17938 7.56938 0.610377 -0.166518 0.281908 -0.506213 8.62769 0.253721 0.289257 -0.928894 0.314033 0.196315
-0.7125 -3.14287 6.77037 0.40072 -0.173211 0 -1 8.62997 -0.786713 6.21899 -0.909629 0.176453 0.376085
-4.83238 -6.22475 14.045 0.203985 0.376884 0 -0.172968 8.68243 -0.343419 0.692747 0.337459 -0.863933 -0.373821
-2.78744 -5.99862 13.4154 0.311591 0.35428 0 -0.2 8.70871 -0.106675 0.537915 -0.0566234 -0.97951 -0.193273
-1.69987 -5.249 6.81862 0.450617 -0.124471 0.09057 -0.79922 8.76032 -0.615685 0.289257 -0.818807 0.560268 0.125122
-1.71375 -7.84975 10.351 0.248422 0.189944 -0.236758 -0.347251 8.77363 -0.791293 0.289257 -0.959066 -0.0283712 0.281756
1.33506 -1.27988 11.9929 0.171192 0.0941227 0 -0.184761 8.81358 0.187838 5.62717 0.263704 0.797677 0.542376
-8.04775 1.27894 13.8454 -0.0537283 -0.415151 0 0.652107 8.82945 -0.659816 4.08865 0.402317 -0.81053 -0.425655
1.37888 -0.50825 8.64587 0.109163 0.008822 0.781538 -0.0888889 8.86316 0.999862 6.21899 0.0043209 0.99807 -0.0619493
-11.189 -0.84225 7.053 -0.0315099 0.151726 0 -0.866667 8.8767 0.617094 1.91208 0.0537119 0.434125 -0.89925
-7.58725 -5.17525 4.094 -0.0551233 0.0856954 0.672859 -1 8.88889 0.185181 1.57429 -0.109349 0.717811 -0.687598
-10.4152 -2.56775 4.9595 -0.10965 -0.0747035 -0.00293626 -0.85504 8.92487 -0.197551 1.91208 0.427255 0.881527 0.200905
-11.8252 -0.017625 7.72687 -0.0253071 0.155081 0 -0.866667 8.95749 -0.496865 2.53699 0.0271841 0.356959 -0.933724
-8.25669 2.225 10.649 -0.118063 -0.403572 0 0.4 9.08377 -0.654195 2.53699 0.102 -0.921986 -0.373547
-9.33762 2.37037 9.08325 0.0137652 -0.334192 -0.193176 -0.777778 9.12414 -0.78017 2.53699 0.361501 -0.930176 -0.0639541
-0.945625 -1.96769 6.20687 0.41249 -0.153475 0 -1 9.12671 0.0726819 6.21899 -0.792355 0.33976 0.506693
-1.52013 -6.21325 13.1946 0.52676 0.291851 0 -0.2 9.12979 -0.524356 0.537915 -0.53448 -0.837967 0.110193
-8.94312 -4.58262 4.06213 -0.560117 0.157464 -0.0572364 -0.777778 9.2097 0.0691205 1.57429 0.560501 0.160938 -0.812366
-5.27969 -9.23044 9.6165 0.54384 0.0981495 0 1 9.22864 -0.152386 0.853678 0.552825 0.793218 0.255323
-10.5476 1.928 6.92238 -0.116807 -0.256668 0 -0.777778 9.24458 0.595931 2.53699 -0.197212 -0.846173 -0.495074
-2.13225 -8.094 9.39625 0.419197 0.164961 0 0.107925 9.29755 -0.0980801 0.289257 -0.947777 0.184363 0.260248
-6.14838 -8.3445 12.8004 0.305386 0.22439 0 -0.0888889 9.29923 -0.577007 0.692747 0.998638 0.0306221 -0.0422442
-7.03288 1.72438 11.6827 -0.088661 -0.506118 0 -0.777778 9.30122 0.110981 2.53699 0.166318 -0.974006 -0.15379
-11.3241 -2.33512 5.93962 -0.0451153 -0.0558296 0 -0.866667 9.36351 -0.709798 1.91208 0.252521 0.915196 -0.314085
-2.162 -8.0945 7.9165 0.50133 0.143597 0 -0.0888889 9.42876 -0.999892 0.289257 -0.909633 0.295624 0.291845
-7.6435 1.70875 13.037 -0.0383143 -0.445448 0 0.173561 9.43439 -0.768098 4.08865 0.439389 -0.897843 -0.0285534
-5.116 -5.535 4.308 0.53344 -0.13902 0.132085 -1 9.44567 -0.573461 1.57429 0.188106 0.463336 0.865988
-0.2655 1.9445 14.1663 -0.044284 0.141864 0 0.4 9.45885 0.999923 5.62717 0.782728 0.426397 -0.453346
-3.53912 2.96525 12.1566 -0.429103 -0.300606 -0.08843 0.764851 9.46034 0.402783 5.14867 0.718337 -0.495399 -0.488439
-1.476 -3.1625 5.95813 0.62033 -0.180044 0.397828 -1 9.46834 0.0432137 6.21899 -0.693237 0.143144 0.706351
-6.464 1.99188 13.131 0.00731747 -0.439767 0 0.0184685 9.52651 -0.596023 5.14867 0.114109 -0.94543 -0.305189
-5.6675 -9.7635 11.0267 0.39355 0.14804 0 0.661547 9.55645 -0.536952 0.853678 0.829797 0.432144 0.353113
-9.5915 -3.258 3.9775 -0.310933 -0.130806 -0.124325 -0.777778 9.60192 0.126382 1.91208 0.845598 0.469669 -0.25372
0.461 -0.8215 15.4971 -0.179853 0.147662 -0.262187 -0.00454918 9.64934 0.0375989 5.62717 0.923269 0.377674 0.0702589
-2.66225 3.6205 14.2621 -0.273342 0.150433 -0.58913 0.933333 9.66406 -0.527157 5.14867 0.891561 0.452106 -0.0268244
-5.05225 -9.12525 8.24525 0.259349 0.0897052 0.0785852 0.778944 9.66705 -0.999817 1.01114 0.439157 0.814084 0.380011
-1.81662 -4.56588 5.56887 0.41354 -0.15897 0.340609 -1 9.6982 -0.672701 6.21899 -0.783066 0.239221 0.574091
0.17625 0.576688 15.5509 -0.020969 0.153365 0 0.4 9.70999 0.545594 5.62717 0.950339 0.299197 0.0856599
-11.772 1.0155 8.0525 -0.120183 0.203961 0 -0.777813 9.71468 -0.688054 2.53699 -0.0128847 -0.133187 -0.991007
-2.55225 3.71012 13.1695 -0.505203 -0.192367 -0.724129 0.933333 9.7314 0.504424 5.14867 0.925513 0.107021 -0.36328
2.11538 -0.606875 10.9895 0.0126506 0.0442616 0 -0.0888889 9.739 0.999888 6.00167 0.181246 0.959523 0.21556
-4.2395 -8.5735 7.08169 0.515497 -0.114965 0 -0.918367 9.75878 -0.999835 1.01114 0.129076 0.635443 0.761282
-3.716 -6.85975 5.448 0.579937 -0.0677917 0.268141 -1 9.77381 -0.999864 1.01114 -0.263335 0.865654 0.425791
-12.2112 -1.32056 6.83494 -0.0297725 0.100483 0 -0.464164 9.78539 -0.41028 1.91208 0.212442 0.686723 -0.695183
-0.950875 -7.54581 12.4346 0.0322214 0.228932 -0.245019 -1 9.85267 0.0521168 0.289257 -0.632297 -0.545991 0.549632
-0.04025 -0.651 6.15987 0.19916 -0.0964732 0 -1 9.87826 0.193422 6.21899 -0.333882 0.706318 0.62421
-1.463 -8.376 11.3333 0.176508 0.199399 -0.105314 -1 9.91588 0.32598 0.289257 -0.806276 -0.255371 0.533577
-2.81013 -7.37475 7.02338 0.598937 -0.15426 0.0306396 -1 9.94504 -0.310992 0.289257 -0.632572 0.310152 0.709689
-5.70131 -7.94219 14.2342 0.465197 0.231013 0 -0.0888889 9.95686 -0.359134 0.692747 0.924738 -0.100025 -0.367226
-4.75725 -4.3725 3.745 0.240903 -0.121742 0 -1 9.98631 0.137715 1.57429 -0.31198 0.546455 0.77721
-2.88225 -6.48225 6.32975 0.59626 -0.103726 0.800479 -1 10.0094 0.105173 0.289257 -0.654714 0.679947 0.330186
-0.5245 2.303 15.0765 -0.041517 0.0873972 0 0.4 10.0258 0.563277 5.62717 0.599448 0.783212 -0.165048
-5.07044 -6.35375 5.00331 0.6309 -0.101515 0.265465 -0.957747 10.0406 -0.625621 1.57429 0.358455 0.754102 0.55031
1.572 -0.953875 7.497 0.332302 0.0165198 0.197939 -0.676238 10.043 0.159922 6.21899 0.0473165 0.987682 -0.149147
-8.7625 2.4195 8.222 -0.157419 -0.32759 0 -0.777778 10.0522 0.0662672 2.53699 0.280303 -0.957877 -0.062466
1.41825 -2.4965 14.165 -0.0174466 0.109778 -0.188425 -0.2 10.0939 -0.577821 5.62717 0.754722 0.655694 0.021473
-7.01625 -5.99675 3.2625 0.0142378 0.109338 -0.13483 -0.961342 10.1898 -0.678956 1.57429 -0.752426 0.433991 -0.495487
-1.88644 -9.22363 10.6494 0.397807 0.128219 0 0.844444 10.1901 -0.0799102 0.289257 -0.616614 0.425512 0.662365
-5.77275 1.7585 11.7533 -0.103253 -0.511686 0 -0.777778 10.2022 0.612708 5.14867 0.118718 -0.992596 -0.0256668
-1.91937 -6.21275 14.6142 0.51438 0.283339 0.0700813 -0.50916 10.2042 -0.761247 0.537915 -0.314087 -0.892927 -0.322539
1.475 -1.086 6.477 0.206609 -0.0354894 0 -1 10.2315 -0.482249 6.21899 0.0342105 0.968835 0.245335
-2.197 3.26238 15.6433 -0.0775123 0.11945 0 0.615136 10.2379 -0.0857681 5.14867 0.795622 0.605712 0.00992048
-7.16862 2.01875 10.3194 -0.231346 -0.45366 0 -0.777778 10.2392 0.403521 2.53699 -0.1478 -0.973047 -0.177015
-4.76137 2.07962 11.2802 -0.115962 -0.433054 0 -0.777778 10.2462 0.343031 5.14867 0.554042 -0.813106 -0.178594
-8.85525 2.47675 6.7845 -0.14394 -0.268318 0 -0.777778 10.247 0.66176 2.53699 0.496342 -0.751685 -0.434297
-4.87 -7.05025 15.4299 0.42535 0.284556 0 -0.0888889 10.2951 -0.21173 0.692747 0.602014 -0.722362 -0.340253
-3.731 -6.37675 15.2506 0.378683 0.308226 0 -0.2 10.3224 -0.78274 0.692747 0.146035 -0.903592 -0.402736
2.82544 -1.15769 9.54619 0.00558137 0.0753293 0 -0.0888889 10.3233 0.459066 6.21899 0.599762 0.800153 -0.00639302
-6.11369 -4.90406 2.41894 0.0869857 0.0770006 0 -1 10.3562 0.106526 1.57429 -0.720725 0.693096 -0.0131379
-1.8625 -1.868 5.281 0.414427 -0.151536 0 -1 10.4336 0.454107 6.21899 -0.642916 0.358324 0.676951
-8.029 2.4285 9.085 -0.602413 -0.369759 -0.00413286 -0.777778 10.4341 -0.728005 2.53699 -0.0963041 -0.992581 -0.0742225
-10.4847 2.58538 5.91437 -0.144598 -0.218857 0 -0.777778 10.4496 0.999835 2.53699 -0.122722 -0.723589 -0.679234
-13.1676 -0.608 7.422 -0.051514 -0.116386 0 0.191585 10.4553 -0.999878 1.91208 0.357549 0.532034 -0.767528
-7.96863 -6.67513 3.78638 -0.661683 0.0783411 -0.306906 -0.777778 10.4668 -0.999901 1.57429 -0.299107 0.692448 -0.656544
-10.2933 -1.5525 3.79225 0.2774 -0.119651 0.732195 -0.866667 10.4767 0.441177 1.91208 0.67929 0.548711 0.487321
-2.77375 -9.09387 9.28175 0.433723 -0.081035 0 0.844444 10.491 -0.218317 0.289257 -0.625672 0.758327 0.182961
-11.926 -2.06175 4.8235 0.08382 -0.0584649 0 0.844444 10.524 -0.421432 1.91208 0.214942 0.911725 0.350082
-4.98606 -4.13831 2.75444 0.0453553 -0.0929576 0 -1 10.5522 -0.448578 1.57429 -0.707196 0.630495 0.319921
-6.0635 -9.55275 13.222 0.51936 0.167474 0 -0.0888889 10.5817 -0.999827 0.692747 0.961183 0.228341 -0.154877
-4.09312 -6.05037 4.4095 0.490923 -0.120905 0 -1 10.5955 -0.999878 1.57429 -0.137521 0.544987 0.827089
2.2445 -2.9305 13.324 -0.0321753 0.0827427 -0.242896 -0.0993964 10.6015 -0.199769 5.62717 0.529716 0.796814 0.29067
-11.8441 3.039 6.80875 -0.203605 -0.186008 0 -0.777778 10.6404 -0.129084 2.53699 -0.620274 -0.445901 -0.645316
-11.3206 -1.394 4.09538 0.428673 -0.0935521 0.301046 -0.866667 10.6407 0.406092 1.91208 0.0982185 0.706631 0.700733
-9.01975 -6.191 4.01325 -0.53754 0.13696 0 -0.777778 10.6468 -0.871548 1.57429 0.243692 0.223039 -0.943858
3.03731 -1.60906 11.3639 0.0088269 0.123096 0 -0.0888889 10.6579 0.999849 5.62717 0.822196 0.430406 0.372484
3 124 158 127
3 147 189 126
3 126 89 147
3 86 84 50
3 86 50 44
3 44 50 35
3 125 132 96
3 96 89 56
3 89 93 63
3 56 63 44
3 63 86 44
3 44 35 24
3 44 24 56
3 35 18 24
3 2 5 3
3 30 18 35
3 25 30 41
3 30 35 50
3 41 30 68
3 50 68 30
3 68 50 84
3 179 169 100
3 179 100 134
3 183 102 192
3 192 102 164
3 164 102 141
3 27 70 36
3 56 36 70
3 70 98 56
3 27 36 23
3 23 24 8
3 13 8 2
3 13 6 16
3 6 2 7
3 7 0 4
3 0 1 4
3 1 0 3
3 11 1 9
3 3 15 12
3 25 41 49
3 58 49 41
3 165 104 162
3 104 67 101
3 67 104 51
3 51 104 65
3 39 27 13
3 13 16 46
3 76 43 55
3 16 7 19
3 37 19 33
3 7 16 6
3 17 4 21
3 54 26 45
3 12 22 9
3 66 40 75
3 66 75 97
3 52 29 60
3 75 122 145
3 92 80 137
3 137 80 128
3 137 128 177
3 143 95 113
3 143 113 178
3 95 106 53
3 53 106 105
3 143 154 95
3 95 154 106
3 154 149 106
3 105 106 166
3 166 106 176
3 55 91 119
3 119 115 76
3 115 162 108
3 115 108 76
3 104 101 156
3 42 13 46
3 46 82 64
3 76 88 43
3 88 120 111
3 111 120 161
3 108 135 88
3 120 172 161
3 101 150 156
3 59 99 94
3 133 99 146
3 83 136 99
3 146 99 136
3 117 82 118
3 82 111 131
3 131 118 82
3 136 163 193
3 117 118 181
3 181 118 174
3 163 117 180
3 181 180 117
3 130 73 110
3 37 61 73
3 73 61 110
3 61 109 123
3 57 71 33
3 33 31 57
3 47 57 31
3 47 31 21
3 47 53 72
3 53 20 38
3 53 38 62
3 113 62 107
3 113 107 145
3 178 113 173
3 145 173 113
3 145 107 97
3 81 97 107
3 173 145 137
3 105 112 72
3 72 112 79
3 79 112 148
3 175 160 110
3 160 130 110
3 175 110 168
3 168 110 123
3 182 123 109
3 182 109 155
3 103 109 71
3 155 103 121
3 114 121 57
3 57 79 114
3 79 148 114
3 195 121 114
3 195 114 170
3 103 155 109
3 126 93 89
3 86 138 158
3 86 158 124
3 197 191 126
3 197 126 189
3 126 138 93
3 93 138 86
3 126 191 138
3 68 84 100
3 127 100 84
3 100 196 134
3 100 153 196
3 153 100 127
3 158 187 127
3 198 132 125
3 102 125 70
3 70 125 98
3 125 96 98
3 56 98 96
3 56 89 63
3 8 5 2
3 5 8 18
3 24 18 8
3 3 5 18
3 10 3 18
3 10 30 25
3 10 18 30
3 41 68 58
3 58 68 100
3 58 100 85
3 85 100 129
3 185 129 169
3 169 129 100
3 171 188 125
3 125 188 198
3 194 141 167
3 51 65 27
3 102 167 141
3 167 102 104
3 104 102 65
3 27 65 70
3 70 65 102
3 13 27 8
3 8 27 23
3 11 4 1
3 52 40 29
3 29 40 15
3 40 12 15
3 12 40 22
3 28 10 25
3 48 49 92
3 49 48 28
3 49 28 25
3 80 92 49
3 49 58 85
3 49 85 80
3 85 129 128
3 128 129 185
3 85 128 80
3 177 128 185
3 157 194 167
3 165 157 104
3 167 104 157
3 104 156 162
3 101 67 74
3 67 51 39
3 32 59 74
3 32 74 39
3 67 39 74
3 39 13 32
3 46 16 43
3 37 55 19
3 19 43 16
3 43 19 55
3 33 19 17
3 33 17 31
3 17 19 7
3 21 31 17
3 20 21 4
3 11 20 4
3 54 20 26
3 26 20 11
3 26 11 9
3 45 26 40
3 26 22 40
3 9 22 26
3 54 69 97
3 66 69 45
3 54 45 69
3 81 54 97
3 66 45 40
3 66 97 69
3 75 40 52
3 122 75 87
3 122 87 92
3 92 87 60
3 60 87 75
3 60 75 52
3 34 48 60
3 34 60 29
3 60 48 92
3 28 48 14
3 10 28 14
3 48 34 14
3 10 14 3
3 3 14 15
3 15 14 29
3 34 29 14
3 140 122 92
3 145 122 140
3 145 140 137
3 137 140 92
3 176 106 149
3 130 184 144
3 116 130 144
3 91 116 144
3 151 119 91
3 151 91 144
3 139 108 162
3 135 108 139
3 135 139 190
3 101 74 94
3 94 74 59
3 83 59 77
3 77 59 32
3 77 32 42
3 13 42 32
3 42 64 77
3 82 46 78
3 82 78 111
3 43 88 78
3 43 78 46
3 78 88 111
3 172 120 135
3 172 135 190
3 135 120 88
3 133 150 101
3 133 101 94
3 133 94 99
3 77 136 83
3 136 77 90
3 90 77 64
3 90 64 117
3 131 111 159
3 90 163 136
3 117 163 90
3 174 118 131
3 73 116 91
3 73 91 55
3 73 55 37
3 130 116 73
3 123 110 61
3 71 109 61
3 54 81 62
3 54 62 38
3 54 38 20
3 95 53 62
3 62 113 95
3 72 79 47
3 47 79 57
3 170 114 148
3 112 152 148
3 84 124 127
3 124 84 86
3 196 186 134
3 96 147 89
3 96 132 147
3 93 86 63
3 186 179 134
3 102 183 125
3 171 125 183
3 36 56 24
3 36 24 23
3 2 6 13
3 3 0 2
3 7 2 0
3 1 3 12
3 51 27 39
3 4 17 7
3 12 9 1
3 119 165 115
3 162 115 165
3 42 46 64
3 108 88 76
3 55 119 76
3 61 37 71
3 71 37 33
3 20 53 21
3 47 21 53
3 81 107 62
3 145 97 75
3 173 137 178
3 105 72 53
3 142 166 152
3 142 152 112
3 142 112 105
3 142 105 166
3 83 99 59
3 64 82 117
3 161 159 111
3 146 136 193
3 103 71 57
3 121 103 57
3 155 121 199
3 199 182 155
