ply
format ascii 1.0
comment Generated by PyMesh
element vertex 200
property float x
property float y
property float z
property float charge
property float ddc
property float hbond
property float hphob
property float rho
property float si
property float theta
property float nx
property float ny
property float nz
element face 365
property list uchar int vertex_indices
end_header
-1.71375 -7.84975 10.351 0.248422 0 -0.236758 -0.347251 1e-08 -0.791293 2.22045e-16 -0.959066 -0.0283712 0.281756
-1.90625 -6.818 10.2917 0.36039 -0.209971 -0.276012 -0.372184 1.05123 -0.273895 2.22045e-16 -0.962724 -0.18519 0.197148
-2.13225 -8.094 9.39625 0.419197 0.258518 0 0.107925 1.07068 -0.0980801 1.49304 -0.947777 0.184363 0.260248
-1.463 -8.376 11.3333 0.176508 0.238478 -0.105314 -1 1.14225 0.32598 3.83066 -0.806276 -0.255371 0.533577
-1.88644 -9.22363 10.6494 0.397807 -0.455103 0 0.844444 1.41648 -0.0799102 2.88675 -0.616614 0.425512 0.662365
-1.7585 -6.495 11.9974 0.3505 -0.197704 0 -1 2.1326 0.0230992 5.26432 -0.875271 -0.44215 0.195971
-2.77375 -9.09387 9.28175 0.433723 -0.459237 0 0.844444 2.26415 -0.218317 1.98078 -0.625672 0.758327 0.182961
-2.011 -5.875 11.0615 0.37523 -0.376582 -0.0252554 -0.253553 2.27304 -0.495688 5.78433 -0.733903 -0.671001 -0.105567
-0.571625 -9.07475 11.6154 0.316279 0.335447 -0.00596384 -0.972213 2.30946 -0.150563 3.71815 -0.446835 -0.276825 0.850709
-2.18438 -7.15963 8.50113 0.52569 0.0936088 0 -0.0888889 2.36567 -0.211752 0.861081 -0.97819 -0.0684411 0.19611
-2.162 -8.0945 7.9165 0.50133 0.149137 0 -0.0888889 2.55073 -0.999892 1.25762 -0.909633 0.295624 0.291845
-2.309 -6.189 8.945 0.43995 0.211561 0 -0.0888889 2.59118 0.159897 0.424954 -0.990824 0.123307 -0.0553434
-0.950875 -7.54581 12.4346 0.0322214 0.262519 -0.245019 -1 2.61342 0.0521168 4.54866 -0.632297 -0.545991 0.549632
-1.33125 -10.4866 11.3071 0.442793 -0.325944 0 0.844444 2.94484 -0.463431 3.22363 -0.287108 0.373615 0.882032
-2.61469 -4.94441 9.86416 0.323553 0.322543 0 -0.0888889 3.0994 0.0684234 6.20931 -0.775368 -0.219062 -0.592297
-3.57711 -9.55381 9.77205 0.436577 -0.473435 0 0.913024 3.31168 0.132051 2.18056 -0.197054 0.922204 0.33273
-1.52013 -6.21325 13.1946 0.52676 -0.275637 0 -0.2 3.38539 -0.524356 5.07295 -0.53448 -0.837967 0.110193
-2.68963 -5.70463 12.3524 0.373157 -0.400258 0 -0.2 3.40449 -0.389516 5.43605 -0.260663 -0.948494 -0.180039
-3.04312 -9.22025 8.00725 0.43946 -0.313103 0 0.844444 3.57292 -0.999875 1.65331 -0.450346 0.747347 0.488529
-3.82663 -9.5445 8.57913 0.41984 -0.42666 0 0.913713 3.60776 -0.8139 1.86625 -0.0289599 0.975135 0.219709
-2.3525 -6.17938 7.56938 0.610377 0.127104 0.281908 -0.506213 3.7285 0.253721 0.789999 -0.928894 0.314033 0.196315
-2.81013 -7.37475 7.02338 0.598937 -0.163782 0.0306396 -1 3.86821 -0.310992 1.12783 -0.632572 0.310152 0.709689
-0.02625 -10.5835 11.7972 0.48142 0.249171 0 0.844444 3.92402 -0.487368 3.55529 -0.321326 0.311059 0.894423
-3.302 -11.1471 11.4605 0.51537 -0.313225 0 0.844444 3.93867 -0.374138 2.78412 -0.0613465 0.694598 0.716778
1.0125 -9.58212 11.8576 0.541577 0.166148 0 0.844444 3.99039 -0.999884 3.82685 -0.547629 -0.0482876 0.835327
-3.67925 -5.23994 10.9784 0.37313 -0.442365 0 -0.2 4.06001 -0.054301 5.93093 -0.0577555 -0.859388 -0.508052
-4.34269 -10.1756 10.3532 0.501757 -0.3732 0 0.960233 4.06735 -0.382665 2.35542 0.0574804 0.76062 0.646648
0.031 -7.35913 13.8882 0.636333 -0.219327 0.318217 -0.960587 4.37747 -0.484615 4.60557 -0.612271 -0.790601 0.00867966
-2.78744 -5.99862 13.4154 0.311591 -0.370178 0 -0.2 4.51173 -0.106675 5.26643 -0.0566234 -0.97951 -0.193273
1.14525 -8.562 12.9073 0.701093 0.163066 0.394016 -1 4.51843 -0.868068 4.16863 -0.669011 -0.647723 0.364526
-1.37625 -11.8694 12.1976 0.44997 -0.27894 0 0.172882 4.59019 -0.701319 3.18052 -0.0962332 0.842831 0.529505
-0.359 -11.5591 12.3024 0.46941 -0.224586 0 0.0556884 4.70159 -0.631845 3.38389 -0.345776 0.698796 0.626197
-1.91937 -6.21275 14.6142 0.51438 -0.272153 0.0700813 -0.50916 4.86007 -0.761247 5.02984 -0.314087 -0.892927 -0.322539
-5.05225 -9.12525 8.24525 0.259349 -0.390923 0.0785852 0.778944 4.94544 -0.999817 1.79579 0.439157 0.814084 0.380011
-4.3105 -11.2565 11.5763 0.575097 -0.352522 0 -0.0888889 4.95967 -0.758212 2.61438 0.336622 0.872277 0.354709
-1.69987 -5.249 6.81862 0.450617 0.155589 0.09057 -0.79922 4.99454 -0.615685 0.680192 -0.818807 0.560268 0.125122
-3.67 -3.37725 10.0363 0.238417 0.345853 0 -0.2 4.99658 0.259178 6.20197 0.0528347 0.22804 -0.972217
-2.88225 -6.48225 6.32975 0.59626 0.180091 0.800479 -1 5.00086 0.105173 0.975536 -0.654714 0.679947 0.330186
-5.27969 -9.23044 9.6165 0.54384 -0.439681 0 1 5.05166 -0.152386 2.05627 0.552825 0.793218 0.255323
0.863875 -10.9526 12.4683 0.536653 -0.180311 0 -0.405929 5.0983 -0.802259 3.63509 -0.584743 0.680737 0.441217
-2.55194 -2.87169 10.2829 0.0562423 0.268987 -0.338533 -0.154071 5.21493 -0.147396 6.13322 -0.412992 0.578452 -0.703442
-4.2395 -8.5735 7.08169 0.515497 -0.314983 0 -0.918367 5.21799 -0.999835 1.528 0.129076 0.635443 0.761282
-2.527 -11.704 12.3365 0.47286 -0.336 0 0.377778 5.2341 -0.344293 2.95522 0.176489 0.927301 0.330096
-1.03 -3.787 8.5425 0.191599 0.20198 -0.000550657 -0.0888889 5.34208 -0.66072 0.125811 -0.841293 0.29785 -0.451123
-4.92338 -5.55363 11.0901 0.315841 -0.431693 0 -0.2 5.34793 0.080399 0.165105 0.467586 -0.821285 -0.326885
1.891 -9.97425 13.0087 0.663363 -0.0426281 0 -0.795671 5.49058 -0.999902 3.92988 -0.975146 0.0577273 0.213912
-5.6675 -9.7635 11.0267 0.39355 -0.4101 0 0.661547 5.60961 -0.536952 2.24082 0.829797 0.432144 0.353113
-4.69228 -7.21006 6.58134 0.7131 -0.320255 0.096704 -0.777778 5.80858 -0.0381626 1.21907 0.412367 0.69768 0.585829
1.367 -8.79813 14.2028 0.718097 -0.118472 0.843431 -0.613031 5.85382 -0.559924 4.15865 -0.938835 -0.300511 -0.168172
-0.595 -12.0105 13.363 0.571243 -0.211527 0 -0.777778 5.87816 -0.55804 3.35868 -0.371538 0.892576 0.255475
-5.308 -5.77575 12.31 0.303794 -0.350841 0 -0.2 6.02417 -0.624294 0.165105 0.323934 -0.933786 -0.152023
-3.648 -2.5685 10.791 0.102482 0.28335 0 -0.2 6.10299 0.243116 6.20197 0.0512143 0.888126 -0.456737
-1.30838 -7.12044 15.2753 0.716963 -0.245836 0.477581 -0.777778 6.13845 -0.300777 5.02984 -0.452784 -0.683757 -0.572243
-1.66 -12.3445 13.6494 0.337317 -0.258426 0 -0.213366 6.14388 -0.547249 3.35868 0.0749592 0.965726 0.248506
-4.73887 -2.95038 10.0363 0.168411 0.305284 0 -0.2 6.14754 0.440618 6.20197 0.215907 0.495566 -0.841308
-4.83238 -6.22475 14.045 0.203985 -0.327721 0 -0.172968 6.18421 -0.343419 5.26643 0.337459 -0.863933 -0.373821
-3.716 -6.85975 5.448 0.579937 0.211955 0.268141 -1 6.27173 -0.999864 0.975536 -0.263335 0.865654 0.425791
-2.69287 -5.83144 5.22319 0.455863 -0.112545 0.425143 -1 6.29851 -0.739062 0.975536 -0.654214 0.459018 0.601088
-6.14975 -8.38775 9.2365 0.642467 -0.418789 0 0.597371 6.32113 -0.682244 2.05627 0.864514 0.496605 -0.0774548
0.717875 -8.19975 15.5052 0.615783 -0.183205 0.45129 -0.784236 6.32507 -0.999819 4.15865 -0.62321 -0.649262 -0.435968
-0.949313 -4.12856 7.11919 0.359443 0.0923769 0 -0.584002 6.37623 -0.611672 0.680192 -0.913709 0.35722 0.193727
-5.77 -8.44 10.563 0.568423 -0.474204 0 -0.0888889 6.37871 0.23855 2.05627 0.951713 0.306736 0.0124313
-1.81662 -4.56588 5.56887 0.41354 0.0669019 0.340609 -1 6.42358 -0.672701 0.680192 -0.783066 0.239221 0.574091
-6.109 -8.09013 8.2005 0.609747 -0.355327 0.0100599 -0.777778 6.42537 -0.999782 1.79579 0.704026 0.548252 0.451407
-5.271 -4.34734 9.45378 0.429117 -0.385069 0 -0.2 6.438 0.0790899 6.20197 0.716884 -0.165769 -0.677199
-1.991 -1.967 11.037 -0.109312 0.2066 0 -0.2 6.51945 0.0152856 6.13322 -0.456314 0.833743 -0.310886
-5.65947 -10.4865 12.0315 0.227417 -0.36641 -0.128585 -0.0888889 6.57826 -0.867021 2.24082 0.739189 0.670298 0.0655765
0.35525 -11.5347 13.7522 0.667707 -0.177678 0 -0.777778 6.59695 -0.291285 3.35868 -0.562823 0.806709 0.18014
-3.731 -6.37675 15.2506 0.378683 -0.285013 0 -0.2 6.60964 -0.78274 5.02984 0.146035 -0.903592 -0.402736
-1.62925 -2.0845 9.506 -0.3736 0.186008 -0.239979 -0.0888889 6.65527 0.693731 6.13322 -0.672234 0.587866 -0.450016
-3.58612 -11.5753 13.3752 0.592123 -0.319048 0 -0.0888889 6.72312 -0.179518 2.95522 0.367699 0.920854 0.129709
1.3825 -10.685 14.0083 0.679477 -0.123621 0 -0.777778 6.74517 -0.469737 3.92988 -0.884948 0.461274 -0.0639818
-4.754 -10.953 13.301 0.49652 -0.336559 0 -0.0888889 6.76616 -0.214181 2.61438 0.543967 0.839005 -0.01308
-0.620125 -2.47038 8.16737 0.103473 0.113727 -0.60344 -0.38732 6.77114 -0.131727 0.125811 -0.933496 0.310793 -0.178866
-0.731875 -12.3286 14.3022 0.31214 -0.189977 0 -0.777778 6.87917 -0.760783 3.35868 -0.356289 0.916199 0.183404
-2.83406 -7.02481 16.3614 0.508743 -0.229272 0.125341 -0.777778 6.99286 -0.497239 5.02984 -0.213924 -0.73017 -0.648913
-5.725 -6.1115 13.164 0.28495 -0.365722 0 -0.199861 7.03211 -0.999881 0.165105 0.778413 -0.53643 -0.326062
-6.14825 -6.61194 11.79 0.412833 -0.401234 0 -0.120257 7.1115 -0.444363 0.165105 0.929507 -0.355159 -0.0993885
-6.17556 -5.75075 9.81419 0.51025 -0.390692 0 -0.0888889 7.14647 -0.485206 0.165105 0.879245 -0.409227 -0.243849
1.30375 -9.7405 15.091 0.842973 -0.113524 0.804214 -0.177778 7.15034 -0.763863 4.15865 -0.953067 -0.0709761 -0.294322
-3.47725 -2.18625 11.8475 0.0116938 0.218284 0 -0.2 7.15761 -0.07272 6.13322 -0.3464 0.841313 -0.414969
-2.7135 -12.04 14.0715 0.477123 -0.28171 0 -0.0888889 7.31893 0.363528 3.35868 0.366581 0.883477 0.291696
-5.82725 -2.50425 9.9965 0.16658 0.248833 0 -0.2 7.32448 0.279194 6.20197 0.185066 0.85031 -0.49267
0.859375 -9.032 16.0446 0.606747 -0.168072 0.111683 -0.67574 7.32687 -0.952634 4.15865 -0.710914 -0.271388 -0.648807
-0.7125 -3.14287 6.77037 0.40072 0.0403112 0 -1 7.4483 -0.786713 0.680192 -0.909629 0.176453 0.376085
-6.60156 -7.33588 8.79594 0.630253 -0.379896 0 -0.256651 7.50521 -0.999867 2.05627 0.994857 0.0992303 0.0203263
-1.40675 -8.23525 16.089 0.725003 -0.223487 0.431927 -0.777778 7.52213 0.999761 5.02984 -0.400395 -0.658658 -0.637066
-6.10838 -7.2915 10.8197 0.50502 -0.440369 0 -0.0888889 7.60323 0.0510481 2.05627 0.978062 0.207388 -0.01962
-4.09312 -6.05037 4.4095 0.490923 -0.16418 0 -1 7.64133 -0.999878 0.975536 -0.137521 0.544987 0.827089
-5.07044 -6.35375 5.00331 0.6309 -0.235947 0.265465 -0.957747 7.64337 -0.625621 1.21907 0.358455 0.754102 0.55031
-6.22325 -6.96025 7.58225 0.517227 -0.329127 0 -0.777778 7.65468 -0.999844 1.21907 0.827747 0.0783912 0.555599
-6.27887 -7.16625 9.82987 0.573587 -0.428317 0 -0.0888889 7.68524 -0.176118 2.05627 0.968248 0.150609 -0.199533
-2.817 -4.43525 4.809 0.438413 -0.0853278 0.745353 -1 7.6866 -0.632374 0.680192 -0.582432 0.0504241 0.811314
-2.33325 -1.6125 12.1005 0.0651217 0.215444 0.0357752 -0.134356 7.69156 -0.221343 6.13322 -0.27871 0.82363 -0.493918
0.243813 -11.8969 14.8194 0.741507 -0.159336 0 -0.777778 7.72943 -0.780262 3.35868 -0.612517 0.78779 -0.0648907
-4.87 -7.05025 15.4299 0.42535 -0.299987 0 -0.0888889 7.79691 -0.21173 5.02984 0.602014 -0.722362 -0.340253
-5.41463 -10.342 13.8094 0.499113 -0.344446 0 0.271149 7.79971 -0.471593 2.61438 0.814785 0.508942 -0.277674
-5.79563 -5.69025 7.32412 0.66977 -0.34158 0.297821 -0.863844 7.82821 0.225146 1.21907 0.957859 0.0303151 0.285636
-6.0635 -9.55275 13.222 0.51936 -0.361194 0 -0.0888889 7.85027 -0.999827 2.24082 0.961183 0.228341 -0.154877
-4.07681 -11.5229 14.4209 0.577033 -0.295944 0 -0.0320473 7.87941 -0.205529 2.95522 0.611204 0.778348 0.143542
-1.476 -3.1625 5.95813 0.62033 -0.07028 0.397828 -1 7.91925 0.0432137 0.680192 -0.693237 0.143144 0.706351
-6.14838 -8.3445 12.8004 0.305386 -0.386993 0 -0.0888889 7.93142 -0.577007 2.24082 0.998638 0.0306221 -0.0422442
-2.44412 -12.6461 15.2684 0.373663 -0.220874 0.245125 -0.124628 7.96787 -0.577566 3.35868 0.108394 0.994106 0.00173444
-6.111 -5.624 6.089 0.57352 -0.299064 0.517632 -0.801127 7.99278 -0.586464 1.21907 0.902457 0.418943 -0.100291
-0.47025 -1.53 9.122 -0.106855 0.167906 -0.47734 -0.0888889 7.99625 0.17356 0.125811 -0.559631 0.807507 -0.186402
-0.977813 -1.33644 11.9819 0.0576827 0.21671 0 -0.155669 8.04162 -0.143982 6.13322 -0.0664935 0.980925 -0.18266
-1.08025 -12.5326 15.4539 0.558363 -0.191189 -0.201973 -0.583904 8.04853 -0.999834 3.35868 -0.267539 0.945742 -0.184376
-0.464 -8.9755 16.604 0.345343 -0.211082 -0.748025 -0.777778 8.11559 -0.275687 4.15865 -0.386586 -0.387961 -0.836683
-5.70131 -7.94219 14.2342 0.465197 -0.358048 0 -0.0888889 8.11823 -0.359134 2.24082 0.924738 -0.100025 -0.367226
-3.95025 -4.98125 4.1915 0.403797 -0.114687 0.703378 -1 8.13377 -0.439848 0.975536 -0.364018 0.223478 0.904184
1.146 -10.677 15.4235 0.742833 -0.13371 0.919687 -0.770309 8.15656 -0.870795 4.15865 -0.849498 0.391589 -0.353568
-5.61875 -4.25737 7.6965 1 -0.334981 0.473898 -0.866667 8.23162 0.429686 1.21907 0.978629 0.118664 -0.167943
-0.030375 -1.28225 7.4885 0.122921 0.142089 0.00467234 -0.980047 8.26121 0.180699 0.125811 -0.531229 0.845946 0.0465979
-0.426 -1.17206 10.6077 -0.082501 0.181727 0 -0.0888889 8.32651 0.701762 6.13322 -0.363504 0.925447 -0.106831
-6.351 -2.99425 8.68025 0.534287 -0.265824 0 -0.533636 8.33421 -0.0896829 6.20197 0.659098 0.746601 -0.0904267
-6.2445 -5.67425 8.35825 0.839817 -0.351005 0.48189 -0.866667 8.41502 -0.593974 1.21907 0.940384 -0.316391 0.124801
-6.951 -2.5145 9.9525 0.198646 0.212207 0 -0.2 8.44914 -0.0955885 6.20197 0.21621 0.976343 0.00262576
-3.15875 -1.42963 12.8542 0.0612547 0.178662 0.542764 0.4 8.45659 0.166984 6.13322 -0.499533 0.666475 -0.553423
-4.69075 -2.53175 13.1115 -0.183255 0.185965 0 -0.2 8.64728 -0.383292 6.20197 -0.350228 0.931539 -0.0978508
-4.4885 -6.99975 16.5465 0.454337 -0.258259 0 0.0897651 8.65781 -0.999917 5.02984 0.437605 -0.720127 -0.538441
-5.116 -5.535 4.308 0.53344 -0.18109 0.132085 -1 8.71849 -0.573461 1.21907 0.188106 0.463336 0.865988
0.578125 -10.3691 16.4349 0.671563 -0.167527 0.772204 -0.777778 8.74788 -0.790541 4.15865 -0.656737 0.0802966 -0.749832
-1.70119 -8.70938 17.1994 0.389983 -0.196287 -0.101352 -0.270878 8.76491 -0.548145 5.02984 -0.367204 -0.522871 -0.769264
-0.945625 -1.96769 6.20687 0.41249 0.0614197 0 -1 8.77228 0.0726819 0.125811 -0.792355 0.33976 0.506693
-6.2165 -2.099 11.352 -0.0479317 0.19098 0 -0.2 8.77363 0.734313 6.20197 -0.0671779 0.99727 0.0306544
-3.23534 -8.48941 17.304 0.459237 -0.23438 0 1 8.7802 -0.219011 5.02984 0.0843109 -0.374124 -0.923538
-4.30062 -7.94225 17.1379 0.42654 -0.248263 0 1 8.88902 -0.999876 5.02984 0.324397 -0.263037 -0.908613
-3.12075 -3.278 4.64725 0.334693 -0.0720781 0 -1 8.89394 0.461773 0.680192 -0.612575 0.0962018 0.784536
-3.354 -12.5258 15.707 0.242015 -0.226604 0 0.844444 8.98509 -0.99985 3.35868 0.334248 0.942454 0.00765007
-5.04875 -7.88225 16.3645 0.37142 -0.286678 0 -0.0888889 9.06089 -0.724377 5.02984 0.850945 -0.254382 -0.459545
-1.63806 -0.748062 12.9071 0.207123 0.214805 0 0.0257813 9.06311 0.00689755 6.13322 -0.00624998 0.683988 -0.729466
-4.8805 -10.495 14.9487 0.529893 -0.317757 0 0.933333 9.06727 0.0710405 2.95522 0.932964 0.341581 -0.11358
-6.183 -5.011 4.536 0.226191 -0.199367 0.967173 -1 9.16142 0.0722563 1.21907 0.30348 0.907268 0.291145
-5.26237 -9.369 14.8328 0.507297 -0.336494 0 0.78746 9.22001 -0.00494616 2.61438 0.932581 0.232313 -0.276268
-4.75725 -4.3725 3.745 0.240903 -0.118139 0 -1 9.23885 0.137715 0.975536 -0.31198 0.546455 0.77721
-1.62603 -12.0646 16.4171 0.82776 -0.194985 0 -0.155556 9.25047 -0.320341 3.35868 -0.241147 0.799142 -0.550654
-4.7185 -11.2759 15.6766 0.578807 -0.268709 0 0.933333 9.31104 -0.73533 2.95522 0.793706 0.608294 -0.00312074
-6.624 -4.5115 5.5635 0.468287 0.244183 0 -0.866667 9.32582 0.1465 1.21907 0.517749 0.639978 -0.567772
-1.8625 -1.868 5.281 0.414427 0.0751348 0 -1 9.43041 0.454107 0.680192 -0.642916 0.358324 0.676951
-0.125625 -11.4201 16.4508 0.673607 -0.177661 0.224245 -0.755853 9.46877 -0.666246 3.35868 -0.505807 0.513905 -0.692864
0.656875 -0.954625 11.0969 0.257629 0.176692 0 -0.0888889 9.53449 0.407777 6.13322 -0.172353 0.969797 0.17259
-4.05363 -3.21913 3.93375 0.0999057 -0.0598969 0 -1 9.62935 0.525863 0.680192 -0.710511 0.29783 0.637551
-0.27 -0.883 13.3573 0.187824 0.240943 0 -0.2 9.65355 -0.074031 6.13322 0.52276 0.654727 -0.545943
0.94725 -0.8885 9.82619 0.196768 0.181246 0.025898 -0.0888889 9.70409 0.0536257 0.125811 -0.162998 0.986589 -0.00857057
-6.187 -2.8705 7.317 0.785327 -0.256784 0.122961 -0.866667 9.71286 0.873616 1.21907 0.76518 0.638045 -0.0860097
-3.69738 -1.33834 13.9881 0.059151 0.134999 0.407209 0.4 9.71524 -0.414425 6.13322 -0.730711 0.470451 -0.494709
-0.04025 -0.651 6.15987 0.19916 0.117879 0 -1 9.73221 0.193422 0.125811 -0.333882 0.706318 0.62421
-7.16125 -2.234 7.76575 0.524633 -0.219256 0.104137 -0.866667 9.77324 0.213785 6.20197 0.557123 0.812604 -0.171138
-5.72906 -2.47112 12.6509 -0.209615 0.193046 0 -0.2 9.78478 -0.310485 6.20197 -0.0788777 0.986902 0.140719
-4.765 -2.518 14.248 -0.200502 0.171607 0 -0.2 9.78628 -0.84256 6.20197 -0.364464 0.919285 -0.148599
-7.99203 -2.64528 11.2072 0.106454 0.172892 0 -0.2 9.80882 -0.397675 6.20197 -0.0144315 0.992396 0.122235
-8.08497 -1.88934 9.36447 0.207993 -0.191377 0 -0.866667 9.87128 -0.139227 6.20197 0.524179 0.786561 0.326433
1.572 -0.953875 7.497 0.332302 0.187128 0.197939 -0.676238 9.89691 0.159922 0.125811 0.0473165 0.987682 -0.149147
-3.2065 -2.32675 4.27975 0.130018 0.0694228 0 -1 9.9173 0.539275 0.680192 -0.661631 0.374437 0.649648
1.475 -1.086 6.477 0.206609 0.168073 0 -1 10.0854 -0.482249 0.125811 0.0342105 0.968835 0.245335
0.721 -1.61625 13.153 0.124071 0.242639 0 -0.2 10.1239 -0.13008 6.13322 0.550536 0.834086 0.034786
-3.116 -12.246 16.7978 0.290008 -0.213373 0 0.844444 10.1361 -0.684144 3.35868 0.255258 0.896528 -0.36205
1.37888 -0.50825 8.64587 0.109163 0.18142 0.781538 -0.0888889 10.1619 0.999862 0.125811 0.0043209 0.99807 -0.0619493
-1.69675 -10.2355 17.6903 0.185506 -0.17621 -0.96332 -0.155556 10.1862 -0.618305 4.15865 -0.451623 0.102526 -0.886298
-1.22113 0.0809375 13.5485 0.0400333 0.21003 0 0.4 10.1911 -0.0746796 6.13322 0.27894 0.353428 -0.892906
-6.4485 -3.06988 6.36562 0.82373 0.24154 0.232478 -0.866667 10.1988 0.999867 1.21907 0.581447 0.599726 -0.549771
-4.98606 -4.13831 2.75444 0.0453553 0.0805888 0 -1 10.2821 -0.448578 0.975536 -0.707196 0.630495 0.319921
1.33506 -1.27988 11.9929 0.171192 0.198837 0 -0.184761 10.3552 0.187838 6.13322 0.263704 0.797677 0.542376
-7.5915 -4.8935 5.11925 -0.00991547 0.21282 0.514298 -0.866667 10.4569 -0.813618 1.21907 0.355514 0.720587 -0.595285
-4.86794 -9.33075 16.6371 0.158079 -0.277357 0 0.933333 10.4703 -0.363641 5.02984 0.851016 0.0549026 -0.522261
-4.66625 -11.0845 16.892 0.400423 -0.2508 0 0.924591 10.5425 -0.999824 2.95522 0.873862 0.373752 -0.310925
-2.68175 -10.0616 18.0147 0.35608 -0.194468 -0.163447 0.805938 10.5922 -0.999815 5.02984 -0.147886 -0.169386 -0.974391
-7.58725 -5.17525 4.094 -0.0551233 0.172744 0.672859 -1 10.6427 0.185181 1.21907 -0.109349 0.717811 -0.687598
-3.79075 -10.2222 18.0065 0.518913 -0.223951 0 1 10.7307 -0.999869 5.02984 0.409482 -0.0532152 -0.910765
-2.90569 0.68025 13.7451 0.049932 -0.158402 0 0.4 10.7608 0.0684272 6.13322 -0.312653 0.115108 -0.942867
-2.31381 -1.10175 4.2515 0.100769 0.0816892 0 -1 10.7908 0.465965 0.680192 -0.672386 0.636115 0.37849
-5.90675 -2.65587 14.3011 -0.117535 0.19239 0 -0.2 10.9376 -0.7564 6.20197 0.000315313 0.991663 -0.12886
-3.83075 -0.304 14.6757 -0.026281 -0.13558 -0.0434052 0.446411 10.9644 -0.560929 6.13322 -0.607594 -0.0369576 -0.793388
-5.15737 -2.20863 15.3814 -0.0770677 -0.173049 -0.423582 0.4 11.0249 -0.999859 6.20197 -0.285748 0.688131 -0.666951
2.11538 -0.606875 10.9895 0.0126506 0.184407 0 -0.0888889 11.0377 0.999888 6.13322 0.181246 0.959523 0.21556
-8.17025 -1.88312 7.04 0.270622 0.18887 0.232979 -0.866667 11.0647 0.677647 6.20197 0.329029 0.739171 -0.587679
0.959188 -0.337687 5.328 0.221576 0.16151 0 -1 11.0698 0.471389 0.125811 0.259281 0.892907 0.368089
-7.69875 -3.17213 5.98338 0.781853 0.203634 0.112886 -0.866667 11.0937 0.118032 1.21907 0.299425 0.616534 -0.728169
-0.8 0.19875 5.3555 0.085571 0.124545 0 -1 11.1273 0.999928 0.125811 -0.210525 0.880777 0.42416
-4.561 -3.0465 2.529 0.146464 0.0615703 0.0175719 -1 11.1329 0.268546 0.680192 -0.805122 0.509933 0.302898
-2.77225 -11.4105 17.805 0.318332 -0.184723 -0.902352 -0.0792444 11.1657 -0.999855 3.35868 -0.18764 0.469214 -0.862919
-9.14338 -2.21881 10.6134 0.047993 -0.175533 0 -0.866667 11.1727 -0.594547 6.20197 0.525658 0.686227 0.502768
-9.06 -0.9825 9.4 0.0107298 -0.17557 0 -0.866667 11.2033 0.0899438 6.20197 0.709073 0.625695 0.325148
-1.46512 -0.271688 4.48956 0.241391 0.0831735 0 -1 11.2412 0.332596 0.125811 -0.643815 0.680922 0.349067
-8.26437 -1.01525 8.31125 0.0134116 -0.183071 0 -0.866667 11.2517 0.802344 6.20197 0.555904 0.831173 -0.0110874
-3.709 -1.9195 3.02475 -0.0954547 0.0688705 0 -1 11.2523 0.676436 0.680192 -0.766861 0.573532 0.288072
2.43925 -0.98075 5.77775 0.0355903 0.181594 0 -1 11.2812 0.262274 0.125811 0.418149 0.902916 0.0994703
-6.11369 -4.90406 2.41894 0.0869857 0.0919351 0 -1 11.2823 0.106526 1.21907 -0.720725 0.693096 -0.0131379
-0.118719 0.483594 14.4014 -0.026709 0.210756 0 0.4 11.38 0.265661 6.13322 0.788998 0.16338 -0.592275
-3.862 -11.6217 17.6195 0.456137 -0.216532 0 0.844444 11.4094 -0.999908 3.35868 0.410813 0.59085 -0.694355
-9.42325 -2.72775 11.9522 -0.069941 -0.19293 0 -0.779522 11.4244 -0.999869 6.20197 0.61736 0.784708 -0.0556738
-8.35437 -4.16412 4.94775 -0.453847 -0.202322 -0.475452 -0.816929 11.5262 -0.0223487 1.21907 0.570471 0.599126 -0.561793
3.03312 -1.56288 8.17488 0.181967 0.217554 0 -0.227267 11.6189 0.0566503 0.125811 0.589905 0.806294 0.0436145
2.82544 -1.15769 9.54619 0.00558137 0.220701 0 -0.0888889 11.622 0.459066 0.125811 0.599762 0.800153 -0.00639302
1.41825 -2.4965 14.165 -0.0174466 0.255581 -0.188425 -0.2 11.6355 -0.577821 6.13322 0.754722 0.655694 0.021473
-8.49575 -2.5645 12.975 -0.0942213 -0.183628 -0.18369 -0.368789 11.6488 -0.54535 6.20197 0.186533 0.919786 -0.345252
-7.47087 -2.52638 13.4104 -0.0864843 -0.190845 0 -0.2 11.6858 -0.109034 6.20197 0.181217 0.970668 -0.157999
-1.30175 1.72675 13.5933 -0.0387437 0.176527 0 0.4 11.8395 0.635166 6.13322 0.251486 0.358882 -0.898865
-4.75675 0.05125 15.3105 -0.106209 -0.126481 -0.141506 0.669609 11.9066 -0.407501 6.13322 -0.547288 -0.301542 -0.780735
0.461 -0.8215 15.4971 -0.179853 0.214281 -0.262187 -0.00454918 11.9156 0.0375989 6.13322 0.923269 0.377674 0.0702589
3 175 184 147
3 175 147 177
3 184 151 147
3 82 116 150
3 182 151 184
3 187 132 161
3 161 132 134
3 161 134 141
3 134 132 120
3 134 120 109
3 141 134 109
3 111 137 160
3 177 160 137
3 137 163 177
3 111 160 144
3 144 147 114
3 64 114 82
3 64 54 36
3 54 82 51
3 51 124 118
3 124 148 118
3 148 124 150
3 149 148 171
3 150 195 196
3 185 141 153
3 141 127 153
3 92 100 127
3 35 57 37
3 37 47 21
3 47 90 63
3 90 47 97
3 97 47 103
3 115 111 64
3 64 36 25
3 11 14 43
3 36 51 40
3 69 40 65
3 51 36 54
3 80 118 117
3 170 153 138
3 43 60 35
3 35 20 11
3 20 21 9
3 20 9 11
3 47 63 41
3 44 64 25
3 25 17 50
3 11 1 14
3 1 0 5
3 5 0 3
3 9 2 1
3 0 4 3
3 15 38 26
3 6 19 15
3 19 38 15
3 63 33 41
3 91 61 58
3 38 61 46
3 46 26 38
3 87 101 61
3 46 61 101
3 55 17 28
3 17 5 16
3 16 28 17
3 27 12 29
3 8 29 12
3 22 8 13
3 8 3 4
3 46 98 66
3 101 108 98
3 55 28 68
3 68 28 32
3 32 52 75
3 75 68 32
3 75 86 122
3 125 75 122
3 122 86 107
3 71 39 67
3 30 13 23
3 30 23 42
3 53 42 70
3 70 34 72
3 70 99 81
3 131 99 96
3 72 96 99
3 96 108 133
3 108 95 129
3 108 55 95
3 68 95 55
3 108 129 164
3 108 164 133
3 168 125 166
3 158 107 139
3 158 139 135
3 48 71 79
3 74 94 67
3 74 67 49
3 136 99 131
3 131 164 165
3 123 73 112
3 69 104 73
3 73 104 112
3 104 143 157
3 105 113 65
3 65 93 105
3 130 105 93
3 130 93 117
3 130 169 159
3 169 145 172
3 197 188 159
3 159 188 142
3 142 188 199
3 154 146 112
3 146 123 112
3 183 138 123
3 183 170 138
3 154 112 152
3 152 112 157
3 192 186 152
3 193 157 143
3 193 143 174
3 140 143 113
3 174 140 162
3 155 162 105
3 105 142 155
3 142 199 155
3 140 174 143
3 132 167 137
3 137 167 163
3 167 191 163
3 177 163 191
3 114 116 82
3 116 114 151
3 147 151 114
3 150 116 151
3 181 150 151
3 181 151 182
3 109 120 88
3 88 120 89
3 97 103 111
3 132 89 120
3 89 132 47
3 47 132 103
3 111 103 137
3 137 103 132
3 64 111 114
3 114 111 144
3 149 118 148
3 100 153 127
3 35 62 57
3 57 62 92
3 92 62 100
3 37 57 56
3 56 57 88
3 56 88 89
3 88 57 109
3 92 109 57
3 37 56 47
3 89 47 56
3 47 41 21
3 63 90 85
3 90 97 115
3 78 91 85
3 78 85 115
3 90 115 85
3 115 64 78
3 25 36 14
3 69 43 40
3 40 14 36
3 14 40 43
3 65 40 80
3 65 80 93
3 80 40 51
3 117 93 80
3 145 117 118
3 149 145 118
3 198 145 173
3 173 145 149
3 173 149 171
3 181 190 150
3 150 190 195
3 123 138 100
3 84 123 100
3 60 84 100
3 62 35 60
3 62 60 100
3 10 9 21
3 2 9 10
3 2 10 6
3 18 6 10
3 18 10 21
3 18 21 41
3 19 6 18
3 33 19 41
3 41 19 18
3 63 85 58
3 58 85 91
3 87 91 77
3 77 91 78
3 77 78 44
3 64 44 78
3 44 50 77
3 17 25 7
3 17 7 5
3 14 1 7
3 14 7 25
3 7 1 5
3 4 0 2
3 4 2 6
3 2 0 1
3 33 38 19
3 38 33 63
3 38 63 58
3 38 58 61
3 77 101 87
3 101 77 76
3 76 77 50
3 76 50 55
3 16 5 12
3 32 27 52
3 16 27 32
3 27 16 12
3 24 29 8
3 24 8 22
3 4 13 8
3 4 23 13
3 26 34 23
3 34 26 46
3 34 46 66
3 96 72 66
3 96 66 98
3 96 98 108
3 76 108 101
3 55 108 76
3 32 28 16
3 68 75 95
3 95 75 119
3 95 119 129
3 75 125 126
3 75 126 119
3 119 126 129
3 83 59 79
3 59 83 107
3 59 107 86
3 48 79 59
3 48 59 29
3 29 59 27
3 27 59 52
3 52 59 86
3 71 45 39
3 39 45 24
3 45 29 24
3 22 39 24
3 48 29 45
3 48 45 71
3 49 67 39
3 49 39 31
3 31 39 22
3 30 49 31
3 30 31 13
3 13 31 22
3 49 30 53
3 42 53 30
3 34 70 42
3 34 42 23
3 66 72 34
3 125 164 126
3 126 164 129
3 165 189 156
3 189 165 168
3 125 168 164
3 164 168 165
3 166 180 168
3 168 180 189
3 156 189 180
3 156 180 135
3 158 180 166
3 107 158 122
3 122 158 166
3 122 166 125
3 121 139 107
3 110 139 121
3 110 121 79
3 79 121 83
3 83 121 107
3 94 139 110
3 94 110 71
3 71 110 79
3 53 74 49
3 135 106 102
3 102 106 53
3 102 53 81
3 53 106 74
3 135 128 156
3 128 102 81
3 102 128 135
3 136 156 128
3 136 128 99
3 99 128 81
3 165 156 136
3 131 165 136
3 106 135 139
3 106 94 74
3 94 106 139
3 73 84 60
3 73 60 43
3 73 43 69
3 123 84 73
3 157 112 104
3 113 143 104
3 198 172 145
3 176 146 154
3 186 154 152
3 159 142 130
3 130 142 105
3 194 155 199
3 176 154 186
3 132 187 167
3 160 177 147
3 160 147 144
3 82 54 64
3 150 124 82
3 51 82 124
3 148 150 196
3 185 179 141
3 179 161 141
3 109 92 141
3 127 141 92
3 97 111 115
3 118 80 51
3 196 171 148
3 170 185 153
3 35 37 20
3 21 20 37
3 44 25 50
3 9 1 11
3 43 35 11
3 104 69 113
3 113 69 65
3 145 169 117
3 130 117 169
3 197 159 169
3 178 146 176
3 146 178 183
3 146 183 123
3 153 100 138
3 87 61 91
3 50 17 55
3 3 12 5
3 3 8 12
3 4 26 23
3 46 101 98
3 52 86 75
3 72 99 70
3 71 67 94
3 70 81 53
3 96 133 131
3 131 133 164
3 158 135 180
3 152 157 192
3 192 157 193
3 140 113 105
3 162 140 105
3 4 6 15
3 4 15 26
