ply
format ascii 1.0
comment Generated by PyMesh
element vertex 200
property float x
property float y
property float z
property float charge
property float ddc
property float hbond
property float hphob
property float rho
property float si
property float theta
property float nx
property float ny
property float nz
element face 348
property list uchar int vertex_indices
end_header
-7.6435 1.70875 13.037 -0.0383143 0 0 0.173561 1e-08 -0.768098 2.22045e-16 0.439389 -0.897843 -0.0285534
-8.04775 1.27894 13.8454 -0.0537283 -0.123732 0 0.652107 1.00083 -0.659816 2.22045e-16 0.402317 -0.81053 -0.425655
-6.464 1.99188 13.131 0.00731747 -0.213761 0 0.0184685 1.21664 -0.596023 3.76476 0.114109 -0.94543 -0.305189
-7.03288 1.72438 11.6827 -0.088661 -0.188718 0 -0.777778 1.48567 0.110981 3.21685 0.166318 -0.974006 -0.15379
-8.84081 0.750188 12.7536 -0.0905627 -0.225587 0 0.4 1.55971 -0.0673089 0.329441 0.626112 -0.771068 -0.115926
-8.909 0.4065 14.286 -0.223873 -0.247173 -0.102703 -0.210171 2.30353 -0.729122 0.294582 0.73117 -0.497013 -0.4673
-5.53575 1.5295 13.741 -0.000628653 -0.258626 0 0.933333 2.41978 -0.198105 4.00362 -0.121869 -0.773495 -0.621975
-8.03256 0.0735625 15.0258 -0.074313 -0.277465 0 0.317122 2.68799 -0.424753 0.0343201 0.517041 -0.337749 -0.786508
-8.74413 1.04475 11.6525 -0.0659547 0.123618 0 0.4 2.70363 0.178468 0.749816 0.462599 -0.739102 -0.489623
-5.77275 1.7585 11.7533 -0.103253 -0.178604 0 -0.777778 2.74824 0.612708 3.43021 0.118718 -0.992596 -0.0256668
-9.43606 -0.117812 13.4581 -0.329975 -0.325213 -0.0503273 0.201144 2.82623 -0.30643 0.277516 0.804556 -0.193789 -0.561369
-7.16862 2.01875 10.3194 -0.231346 -0.195035 0 -0.777778 2.88698 0.403521 3.06055 -0.1478 -0.973047 -0.177015
-4.70913 2.10713 12.9949 -0.0695653 -0.0503403 0 0.112684 2.98055 -0.234144 3.67511 0.223145 -0.9024 -0.368619
-8.25669 2.225 10.649 -0.118063 0.107088 0 0.4 3.16403 -0.654195 2.64806 0.102 -0.921986 -0.373547
-9.76156 0.291438 11.3061 -0.0964303 -0.267979 0 0.4 3.33552 -0.15531 6.16427 0.936059 -0.348835 -0.0459032
-10.1956 -0.223 12.1319 -0.318546 -0.255317 -0.563898 -0.758511 3.3399 -0.999829 0.262725 0.948219 -0.288896 -0.131983
-5.345 0.7695 14.552 -0.0206934 -0.222455 0 0.933333 3.54748 0.669516 4.46637 -0.203801 -0.759961 -0.617191
-6.381 0.66075 15.2494 0.00722077 -0.173594 0 0.933333 3.71992 -0.597313 5.02586 -0.00666402 -0.786907 -0.617035
-4.76137 2.07962 11.2802 -0.115962 0.0732403 0 -0.777778 3.81976 0.343031 3.45365 0.554042 -0.813106 -0.178594
-4.18175 0.935375 14.1839 -0.0221448 -0.20587 0 0.924198 3.9633 -0.18944 4.06713 -0.205217 -0.606615 -0.768052
-5.243 2.07262 9.748 -0.325034 -0.0564401 0 -0.777778 4.14425 0.477433 3.3028 0.239633 -0.959016 -0.151212
-6.8605 -0.341 15.9435 0.0436187 -0.24522 0.47085 -0.777778 4.23323 -0.759795 1.05312 0.396037 -0.188333 -0.898713
-8.64675 -1.3 14.493 -0.307199 -0.330457 -0.805512 -0.777778 4.28417 -0.640637 6.22738 0.694924 0.166547 -0.69953
-3.42144 2.20444 13.4284 -0.243935 -0.142551 -0.116342 0.9093 4.34273 -0.172714 2.64431 0.306256 -0.504535 -0.80725
-7.49125 -1.47625 15.2793 0.247017 -0.378714 0.704737 -0.777778 4.34908 -0.569798 5.98124 0.469884 0.554722 -0.686653
-10.1517 -1.443 12.8884 -0.57693 -0.298707 -0.0908054 -0.810518 4.43646 -0.920442 0.266267 0.884903 0.208359 -0.416574
-8.029 2.4285 9.085 -0.602413 -0.133154 -0.00413286 -0.777778 4.44644 -0.728005 2.97265 -0.0963041 -0.992581 -0.0742225
-9.66938 1.7765 10.3371 -0.0597057 -0.145119 0 0.4 4.47049 -0.672893 5.37769 0.732011 -0.557361 -0.391801
-9.30481 -1.76231 13.5004 -0.51173 -0.369393 -0.615631 -0.777778 4.4765 -0.45824 0.206386 0.595097 0.508562 -0.622273
-7.07212 2.2745 8.75 -0.65835 0.0816794 0 -0.777778 4.48001 0.371183 3.09494 0.0164395 -0.918462 -0.395167
-3.53912 2.96525 12.1566 -0.429103 0.123976 -0.08843 0.764851 4.65627 0.402783 3.63712 0.718337 -0.495399 -0.488439
-4.75675 0.05125 15.3105 -0.106209 -0.289473 -0.141506 0.669609 4.74633 -0.407501 1.97897 -0.547288 -0.301542 -0.780735
-10.237 -1.322 11.2058 -0.214441 -0.310264 -0.238289 -0.866667 4.77767 -0.926325 0.1675 0.927756 0.180387 0.326696
-9.65375 -0.18225 9.868 -0.0384657 -0.32975 0 -0.866667 4.85346 0.035881 0.838638 0.944339 0.32223 0.066263
-9.96212 0.7785 9.82487 -0.0460157 -0.276344 0 -0.866667 4.90762 -0.429738 5.64098 0.984476 0.0508648 -0.167988
-9.64669 -1.105 10.3852 -0.036121 -0.326941 0 -0.866667 5.01221 -0.146609 0.71124 0.861516 0.199114 0.467058
-9.33762 2.37037 9.08325 0.0137652 -0.0616702 -0.193176 -0.777778 5.0722 -0.78017 4.68674 0.361501 -0.930176 -0.0639541
-5.719 -0.127 16.1567 -0.0384123 -0.22072 0 0.798507 5.09178 -0.999911 1.59706 -0.158741 -0.406461 -0.899773
-2.90569 0.68025 13.7451 0.049932 -0.274805 0 0.4 5.33661 0.0684272 2.34567 -0.312653 0.115108 -0.942867
-3.83075 -0.304 14.6757 -0.026281 -0.295613 -0.0434052 0.446411 5.34211 -0.560929 2.11657 -0.607594 -0.0369576 -0.793388
-4.11125 3.07125 10.2505 -0.46734 0.196527 -0.675989 -0.700584 5.3902 0.336372 3.41102 0.957848 -0.280915 0.0601128
-5.0945 2.38025 8.52125 -0.57556 0.0569781 -0.0940975 -0.777778 5.41767 0.999876 3.20745 0.251057 -0.772446 -0.583351
-6.0835 2.4585 8.3595 -0.411577 0.100627 0 -0.777778 5.55877 0.629984 3.13337 0.00776644 -0.751767 -0.659383
-8.7625 2.4195 8.222 -0.157419 -0.0578914 0 -0.777778 5.57908 0.0662672 4.31867 0.280303 -0.957877 -0.062466
-5.79569 -1.33506 16.1006 -0.0309629 -0.299486 0 0.4 5.69838 -0.999871 5.47707 -0.124208 0.290816 -0.948682
-7.06962 -2.47638 14.4404 -0.0257032 -0.387223 0.0962312 -0.376944 5.72086 -0.731081 6.13891 0.328211 0.848099 -0.415938
-8.49575 -2.5645 12.975 -0.0942213 -0.413371 -0.18369 -0.368789 5.73115 -0.54535 0.28539 0.186533 0.919786 -0.345252
-2.06519 2.4575 13.891 -0.0912767 0.239114 0 0.4 5.79788 0.0798758 4.03517 0.582739 0.418386 -0.696684
-4.036 3.906 11.0367 -0.250796 0.225767 -0.968542 0.866969 5.79994 0.119188 3.49589 0.922986 0.0195298 -0.384338
-3.975 2.80675 8.89725 -0.39338 0.0846337 -0.127209 -0.777778 5.83852 0.999908 3.17517 0.737058 -0.577521 -0.351019
-9.06 -0.9825 9.4 0.0107298 -0.352293 0 -0.866667 5.95435 0.0899438 0.8207 0.709073 0.625695 0.325148
-9.42325 -2.72775 11.9522 -0.069941 -0.346541 0 -0.779522 5.96718 -0.999869 0.25989 0.61736 0.784708 -0.0556738
-7.8825 2.953 7.627 -0.35799 0.0525911 -0.320025 -0.777778 6.02215 0.118567 4.31867 0.482397 -0.698784 -0.528199
-2.55225 3.71012 13.1695 -0.505203 0.206591 -0.724129 0.933333 6.10046 0.504424 4.03517 0.925513 0.107021 -0.36328
-10.1615 0.4705 8.58675 -0.04119 -0.253208 0 -0.866667 6.19896 -0.215396 5.64098 0.911713 0.337515 -0.234228
-9.14338 -2.21881 10.6134 0.047993 -0.365405 0 -0.866667 6.25558 -0.594547 0.71124 0.525658 0.686227 0.502768
-7.07575 3.65275 7.62 -0.740467 0.123471 -0.904836 -0.777778 6.26228 0.119565 3.13337 0.364177 -0.385337 -0.847874
-3.25887 4.56738 12.2809 -0.43913 0.255965 -0.328631 0.933333 6.28747 0.662804 3.49589 0.800686 0.402702 -0.443545
-7.47087 -2.52638 13.4104 -0.0864843 -0.437145 0 -0.2 6.4929 -0.109034 6.13891 0.181217 0.970668 -0.157999
-3.69738 -1.33834 13.9881 0.059151 -0.342901 0.407209 0.4 6.59129 -0.414425 2.11657 -0.730711 0.470451 -0.494709
-5.118 3.48338 7.91625 -0.76351 0.177354 -0.83427 -0.777778 6.67603 0.703956 3.20745 0.3476 -0.00663432 -0.937619
-5.15737 -2.20863 15.3814 -0.0770677 -0.331726 -0.423582 0.4 6.7973 -0.999859 5.47707 -0.285748 0.688131 -0.666951
-4.20325 4.8255 11.4265 -0.220652 0.280047 -0.405314 0.0119865 6.81256 -0.206258 3.49589 0.840367 0.417559 -0.345583
-1.30175 1.72675 13.5933 -0.0387437 -0.214093 0 0.4 6.89581 0.635166 4.03517 0.251486 0.358882 -0.898865
-5.90675 -2.65587 14.3011 -0.117535 -0.392568 0 -0.2 6.90572 -0.7564 6.13891 0.000315313 0.991663 -0.12886
-10.2965 1.40625 7.82575 -0.117352 0.0736604 0 -0.777778 6.9243 -0.0680291 4.68674 0.562055 -0.588037 -0.581642
-3.84325 3.8935 8.8005 -0.580343 0.20243 -0.0671802 -0.777778 6.93749 0.999899 3.17517 0.93407 0.220152 -0.281153
-4.4855 4.7605 10.415 -0.342483 0.258729 -0.01597 -0.777778 6.9483 -0.396687 3.49589 0.953016 0.288411 -0.0926233
-8.85525 2.47675 6.7845 -0.14394 0.0327612 0 -0.777778 7.0207 0.66176 4.31867 0.496342 -0.751685 -0.434297
-1.22113 0.0809375 13.5485 0.0400333 -0.203687 0 0.4 7.13538 -0.0746796 2.34567 0.27894 0.353428 -0.892906
-9.39925 -0.69575 8.29525 0.0114345 -0.291919 0 -0.866667 7.14506 0.0238771 0.8207 0.516402 0.75225 -0.409204
-2.66225 3.6205 14.2621 -0.273342 0.266256 -0.58913 0.933333 7.15684 -0.527157 4.03517 0.891561 0.452106 -0.0268244
-8.08497 -1.88934 9.36447 0.207993 -0.346957 0 -0.866667 7.28638 -0.139227 0.8207 0.524179 0.786561 0.326433
-6.316 4.25462 7.96925 -0.486033 0.187857 -0.309796 -0.777778 7.29254 -0.437401 3.20745 0.432233 0.0561925 -0.900009
-8.26437 -1.01525 8.31125 0.0134116 -0.317608 0 -0.866667 7.30323 0.802344 0.8207 0.555904 0.831173 -0.0110874
-10.5411 0.020375 7.60388 -0.0416343 0.21118 0 -0.866667 7.34471 0.287834 5.64098 0.449597 0.384052 -0.806453
-8.06475 3.8725 6.61625 -0.538687 0.0786515 -0.346584 -0.777778 7.40067 -0.224496 4.31867 0.721615 -0.50556 -0.472948
-3.95775 5.3385 12.688 -0.27018 0.321245 -0.1101 0.636236 7.40496 0.263018 3.49589 0.646367 0.75457 -0.113288
-1.63806 -0.748062 12.9071 0.207123 -0.254255 0 0.0257813 7.42208 0.00689755 2.34567 -0.00624998 0.683988 -0.729466
-7.99203 -2.64528 11.2072 0.106454 -0.412852 0 -0.2 7.57108 -0.397675 0.25989 -0.0144315 0.992396 0.122235
-3.15875 -1.42963 12.8542 0.0612547 -0.324836 0.542764 0.4 7.64081 0.166984 2.34567 -0.499533 0.666475 -0.553423
-2.197 3.26238 15.6433 -0.0775123 0.252909 0 0.615136 7.73069 -0.0857681 4.03517 0.795622 0.605712 0.00992048
-0.5245 2.303 15.0765 -0.041517 0.226217 0 0.4 7.74801 0.563277 4.03517 0.599448 0.783212 -0.165048
-3.34713 4.98025 13.9406 -0.22497 0.301933 -0.00143782 0.933333 7.78558 0.474327 4.03517 0.690626 0.722087 -0.0403192
-7.23431 5.14437 6.95969 -0.428093 0.114168 -0.71813 -0.709978 7.90121 -0.250998 3.13337 0.767064 -0.239082 -0.595359
-10.5476 1.928 6.92238 -0.116807 0.0864793 0 -0.777778 7.99731 0.595931 4.68674 -0.197212 -0.846173 -0.495074
-4.765 -2.518 14.248 -0.200502 -0.369589 0 -0.2 8.03595 -0.84256 6.13891 -0.364464 0.919285 -0.148599
-0.2655 1.9445 14.1663 -0.044284 0.183631 0 0.4 8.09979 0.999923 4.03517 0.782728 0.426397 -0.453346
-4.487 4.90325 9.013 -0.565527 0.217804 0 -0.492269 8.1537 0.272477 3.17517 0.825406 0.350902 -0.442236
-4.608 6.026 11.9055 -0.0887107 0.311079 0 -0.777778 8.16699 0.451738 3.49589 0.68848 0.718403 0.0994643
-5.429 4.95425 8.40075 -0.562883 0.196004 -0.0550604 -0.437804 8.25556 -0.0837108 3.20745 0.475472 0.186093 -0.859823
-4.69075 -2.53175 13.1115 -0.183255 -0.378037 0 -0.2 8.37439 -0.383292 2.11657 -0.350228 0.931539 -0.0978508
-5.72906 -2.47112 12.6509 -0.209615 -0.426501 0 -0.2 8.3939 -0.310485 6.13891 -0.0788777 0.986902 0.140719
-4.76788 6.18337 10.7781 -0.0368843 0.235109 0 -0.777778 8.41975 0.0710087 3.49589 0.95694 0.275616 0.0911152
-11.772 1.0155 8.0525 -0.120183 0.163338 0 -0.777813 8.46741 -0.688054 4.68674 -0.0128847 -0.133187 -0.991007
-0.27 -0.883 13.3573 0.187824 -0.198352 0 -0.2 8.503 -0.074031 2.34567 0.52276 0.654727 -0.545943
-11.189 -0.84225 7.053 -0.0315099 0.197102 0 -0.866667 8.55606 0.617094 5.64098 0.0537119 0.434125 -0.89925
-8.757 3.626 5.702 -0.359417 0.0500572 -0.0132736 -0.777778 8.57363 0.402406 4.31867 0.435516 -0.646049 -0.626855
-0.118719 0.483594 14.4014 -0.026709 0.148686 0 0.4 8.5862 0.265661 4.03517 0.788998 0.16338 -0.592275
-11.8252 -0.017625 7.72687 -0.0253071 0.202439 0 -0.866667 8.63524 -0.496865 5.64098 0.0271841 0.356959 -0.933724
-10.148 -1.38462 7.12813 0.016896 -0.217747 0 -0.866667 8.69339 -0.219836 0.8207 0.229914 0.611414 -0.757174
-0.977813 -1.33644 11.9819 0.0576827 -0.25774 0 -0.155669 8.70197 -0.143982 2.34567 -0.0664935 0.980925 -0.18266
-6.951 -2.5145 9.9525 0.198646 -0.357117 0 -0.2 8.70852 -0.0955885 0.8207 0.21621 0.976343 0.00262576
-5.1055 5.892 13.079 -0.0616007 0.372006 0 -0.648622 8.73785 -0.306029 3.49589 0.455329 0.8685 0.195915
-2.33325 -1.6125 12.1005 0.0651217 -0.287627 0.0357752 -0.134356 8.77348 -0.221343 2.34567 -0.27871 0.82363 -0.493918
-0.72125 2.289 16.1483 -0.0342737 0.220397 0 0.4 8.83781 0.999841 4.03517 0.68701 0.597577 0.413423
-8.17025 -1.88312 7.04 0.270622 -0.233012 0.232979 -0.866667 8.84535 0.677647 0.8207 0.329029 0.739171 -0.587679
-10.4847 2.58538 5.91437 -0.144598 0.0801657 0 -0.777778 8.87112 0.999835 4.31867 -0.122722 -0.723589 -0.679234
-3.47725 -2.18625 11.8475 0.0116938 -0.318785 0 -0.2 8.93979 -0.07272 2.34567 -0.3464 0.841313 -0.414969
-8.35363 4.39925 5.14475 -0.531723 0.0711531 0 -0.777778 8.99008 0.851259 4.31867 0.553966 -0.450632 -0.700037
-7.16125 -2.234 7.76575 0.524633 -0.258121 0.104137 -0.866667 9.03522 0.213785 0.8207 0.557123 0.812604 -0.171138
-5.69325 5.91012 8.27106 -0.0838067 0.134838 0 -0.355556 9.08687 -0.401032 3.20745 0.664743 -0.134648 -0.734838
-2.635 4.1795 16.67 -0.279625 0.192773 -0.821095 -0.703502 9.17536 -0.0520369 4.03517 0.976227 0.215117 -0.0265578
-7.404 5.35675 5.69225 -0.672713 0.120207 0 -0.777778 9.19747 0.945768 4.31867 0.866794 -0.042413 -0.49686
-2.38525 3.11525 17.1514 -0.092415 0.200388 -0.0187242 0.352111 9.2576 0.273169 4.03517 0.907728 0.15737 0.388928
-7.367 6.4385 6.487 -0.3572 0.153177 0 -0.355556 9.28534 0.148679 3.13337 0.623885 0.266605 -0.734635
-11.8441 3.039 6.80875 -0.203605 0.1466 0 -0.777778 9.39315 -0.129084 4.68674 -0.620274 -0.445901 -0.645316
-6.2165 -2.099 11.352 -0.0479317 -0.443436 0 -0.2 9.43439 0.734313 0.25989 -0.0671779 0.99727 0.0306544
-6.351 -2.99425 8.68025 0.534287 -0.254302 0 -0.533636 9.45332 -0.0896829 0.8207 0.659098 0.746601 -0.0904267
-4.19763 5.60075 15.3389 0.0318166 0.299671 0 0.0206054 9.5359 -0.0974179 4.03517 0.500062 0.824202 -0.265761
-5.77775 6.86275 11.781 -0.0168982 0.322031 0 -0.777778 9.61058 -0.105577 3.49589 0.440652 0.711641 0.547168
-12.7525 1.6205 7.86925 -0.21949 0.102043 0 -0.789078 9.63403 -0.999865 4.68674 0.455324 -0.33272 -0.825819
-3.2905 5.03075 15.7904 -0.174915 0.243223 -0.0880181 0.570087 9.63694 0.0588696 4.03517 0.787444 0.554987 -0.26818
0.17625 0.576688 15.5509 -0.020969 0.16573 0 0.4 9.67057 0.545594 4.03517 0.950339 0.299197 0.0856599
-12.2112 -1.32056 6.83494 -0.0297725 -0.194483 0 -0.464164 9.7055 -0.41028 5.64098 0.212442 0.686723 -0.695183
0.721 -1.61625 13.153 0.124071 -0.19493 0 -0.2 9.75259 -0.13008 2.34567 0.550536 0.834086 0.034786
-6.276 6.75625 7.29 -0.0832723 0.111401 0 -0.355556 9.80531 0.424057 3.20745 0.643872 -0.169955 -0.746019
-4.7865 6.549 9.07625 0.0548013 0.158896 0 -0.355556 9.82767 0.395053 3.17517 0.87788 0.0796129 -0.472216
-5.82725 -2.50425 9.9965 0.16658 -0.316197 0 -0.2 9.83318 0.279194 0.8207 0.185066 0.85031 -0.49267
-2.09125 1.976 17.3424 -0.0178084 0.24165 0 0.480791 9.86444 -0.304671 4.03517 0.608348 0.545546 0.576448
-8.982 -2.2765 6.4235 0.0985167 -0.206097 0 -0.866667 9.93794 0.225585 0.8207 0.208589 0.693139 -0.689962
-1.991 -1.967 11.037 -0.109312 -0.269182 0 -0.2 9.94559 0.0152856 2.34567 -0.456314 0.833743 -0.310886
-6.11206 6.23981 13.6939 0.0527213 0.368629 0 -0.719131 9.96758 -0.455294 3.49589 0.492597 0.870215 0.00860477
-5.20937 7.63662 11.2535 -0.0282129 0.255642 0 -0.355556 10.0112 0.999887 3.49589 0.574562 0.510636 0.639632
-10.4535 3.562 5.2365 -0.40259 0.0809575 -0.020679 -0.777778 10.0603 0.339339 4.31867 -0.0918272 -0.622429 -0.77727
-3.648 -2.5685 10.791 0.102482 -0.28602 0 -0.2 10.0762 0.243116 2.34567 0.0512143 0.888126 -0.456737
-13.1676 -0.608 7.422 -0.051514 0.179358 0 0.191585 10.1331 -0.999878 5.64098 0.357549 0.532034 -0.767528
-0.3905 1.08862 16.5249 0.0325132 0.200814 0 0.4 10.1386 0.16957 4.03517 0.735052 0.490011 0.468602
-0.426 -1.17206 10.6077 -0.082501 -0.239726 0 -0.0888889 10.1919 0.701762 2.34567 -0.363504 0.925447 -0.106831
-8.154 5.62925 4.9585 -0.6357 0.136724 -0.589474 -0.777778 10.25 0.773757 4.31867 0.487731 0.237295 -0.840124
-6.187 -2.8705 7.317 0.785327 -0.211745 0.122961 -0.866667 10.2825 0.873616 0.8207 0.76518 0.638045 -0.0860097
-11.5653 3.48875 5.81225 -0.266687 0.122471 -0.304965 -0.777778 10.2833 0.449653 4.31867 -0.579591 -0.556343 -0.595447
-8.00813 7.16913 6.77863 -0.261378 0.187282 0 -0.40282 10.3002 -0.257784 3.13337 0.0891756 0.582075 -0.80823
-9.9465 4.2475 4.6095 -0.413987 0.0700161 0 -0.777778 10.3042 0.720842 4.31867 0.189179 -0.524338 -0.83023
-8.1755 6.5375 5.8575 -0.752853 0.186979 -0.522422 -0.777778 10.3148 0.561442 3.13337 0.223966 0.704156 -0.673798
-9.3315 5.115 4.558 -0.495773 0.139929 -0.00951552 -0.777778 10.3365 0.356181 4.31867 0.245796 0.272585 -0.930205
-4.85875 7.80931 9.67869 0.0841923 0.186602 0 -0.355556 10.3846 0.662315 3.49589 0.929939 0.367517 -0.0120459
0.461 -0.8215 15.4971 -0.179853 0.161378 -0.262187 -0.00454918 10.3862 0.0375989 4.03517 0.923269 0.377674 0.0702589
-5.27513 7.20762 8.28475 0.0623973 0.124023 0 -0.355556 10.4501 0.401603 3.17517 0.841788 -0.0813768 -0.533639
-9.886 -2.553 5.83125 -0.130164 -0.198515 0 -0.84122 10.4585 -0.205416 0.8207 0.231542 0.833637 -0.501436
-2.41925 5.115 17.606 -0.458127 0.175899 -0.0345117 -0.777778 10.5162 0.999897 4.03517 0.946864 0.319901 -0.0333402
-12.902 2.5225 6.736 -0.14208 0.180919 -0.151781 -0.647524 10.5727 0.302932 4.68674 0.196229 0.5215 -0.83038
-7.69875 -3.17213 5.98338 0.781853 -0.179999 0.112886 -0.866667 10.5775 0.118032 0.8207 0.299425 0.616534 -0.728169
0.656875 -0.954625 11.0969 0.257629 -0.222003 0 -0.0888889 10.5997 0.407777 2.34567 -0.172353 0.969797 0.17259
-11.3241 -2.33512 5.93962 -0.0451153 -0.199956 0 -0.866667 10.6167 -0.709798 0.8207 0.252521 0.915196 -0.314085
-3.36337 2.64575 18.0592 -0.108321 0.196391 0 0.933333 10.6723 -0.99988 4.03517 0.902201 0.0508714 0.428306
-6.839 7.65975 6.9485 -0.0894253 0.156043 0 -0.355556 10.6936 0.53836 3.13337 0.198143 0.304855 -0.931559
-13.9104 0.437875 7.28562 -0.00133665 -0.114959 -0.107561 -0.515387 10.8147 -0.886426 5.64098 0.703222 -0.0278299 -0.710425
-6.4485 -3.06988 6.36562 0.82373 -0.181532 0.232478 -0.866667 10.8148 0.999867 0.8207 0.581447 0.599726 -0.549771
-2.55194 -2.87169 10.2829 0.0562423 -0.228731 -0.338533 -0.154071 10.8825 -0.147396 2.34567 -0.412992 0.578452 -0.703442
-5.84188 7.74475 7.4035 -0.0515327 0.126663 0 -0.355556 10.8909 0.968831 3.17517 0.638548 0.0627964 -0.767016
-5.46769 6.15487 15.12 0.198913 0.290631 0 0.933333 10.9388 -0.611145 4.03517 0.580072 0.666175 -0.46875
-6.9995 6.861 12.373 -0.0282467 0.351719 0 -0.777778 10.9682 -0.645666 3.49589 0.417845 0.848023 0.32598
-1.338 1.19181 17.6868 0.0735857 0.225065 -0.0216339 0.4 11.005 -0.18988 4.03517 0.566838 0.78206 0.258992
-4.73887 -2.95038 10.0363 0.168411 -0.234871 0 -0.2 11.0101 0.440618 0.8207 0.215907 0.495566 -0.841308
1.33506 -1.27988 11.9929 0.171192 -0.198043 0 -0.184761 11.0156 0.187838 2.34567 0.263704 0.797677 0.542376
-11.8689 4.45662 6.01137 -0.555843 0.177928 -0.669681 -0.777778 11.0198 0.190311 4.31867 -0.97975 -0.146072 -0.136939
-2.90875 4.09081 18.5298 -0.48005 0.167271 0 -0.777778 11.0256 0.149452 4.03517 0.93335 0.0431182 0.356369
-8.9555 -3.102 5.67 -0.219211 -0.183691 -0.300687 -0.821164 11.0559 -0.278896 0.8207 0.401153 0.74822 -0.528435
-3.367 6.027 16.8283 -0.213069 0.21057 0 -0.777778 11.0776 0.41346 4.03517 0.674356 0.599216 -0.431491
-6.98825 7.71238 11.3588 -0.196842 0.293718 0 -0.355556 11.1486 -0.560098 3.49589 0.284614 0.651543 0.703197
-3.67 -3.37725 10.0363 0.238417 -0.184558 0 -0.2 11.1826 0.259178 2.34567 0.0528347 0.22804 -0.972217
-5.61875 -4.25737 7.6965 1 -0.142602 0.473898 -0.866667 11.2138 0.429686 0.8207 0.978629 0.118664 -0.167943
1.41825 -2.4965 14.165 -0.0174466 -0.16072 -0.188425 -0.2 11.2643 -0.577821 2.34567 0.754722 0.655694 0.021473
-10.6316 4.90987 4.26475 -0.710273 0.0984723 0 -0.777778 11.3175 0.999848 4.31867 -0.153342 -0.327044 -0.932485
-8.01325 8.09675 7.26675 -0.0740473 0.173661 0 -0.355556 11.3484 -0.00927678 3.13337 -0.110508 0.426356 -0.89778
-5.271 -4.34734 9.45378 0.429117 -0.116503 0 -0.2 11.3495 0.0790899 0.8207 0.716884 -0.165769 -0.677199
-0.048625 -0.01975 17.1349 0.090348 0.163515 0.17214 0.4 11.378 0.315266 4.03517 0.914035 0.335831 0.227503
-2.85106 1.43381 18.5451 0.00659263 0.239834 0 0.663833 11.3869 -0.999878 4.03517 0.570784 0.815801 0.0931418
-12.9301 -1.75412 5.27763 0.055192 -0.179193 0 0.844444 11.4747 -0.491279 0.8207 0.392603 0.909855 -0.134266
-12.064 5.0585 7.27075 -0.250833 0.218082 -0.213023 -0.777778 11.4765 0.274147 4.68674 -0.952995 0.260046 -0.155489
-10.4152 -2.56775 4.9595 -0.10965 -0.191919 -0.00293626 -0.85504 11.4784 -0.197551 0.8207 0.427255 0.881527 0.200905
-1.62925 -2.0845 9.506 -0.3736 -0.226052 -0.239979 -0.0888889 11.5231 0.693731 2.34567 -0.672234 0.587866 -0.450016
1.0885 -1.792 15.59 -0.344987 0.164575 -0.1352 -0.2 11.5456 0.485408 4.03517 0.785731 0.548415 0.286124
-11.603 4.374 4.8655 -0.544517 0.122032 -0.294271 -0.777778 11.58 0.623084 4.31867 -0.684768 -0.45324 -0.570672
-7.47188 7.151 13.6548 -0.41565 0.310167 0 -0.355556 11.6049 -0.503205 3.49589 0.544142 0.812959 -0.207381
-6.00637 8.64087 10.2828 0.076254 0.234094 0 -0.355556 11.6193 0.401828 3.49589 0.523481 0.755728 0.3935
-12.7896 3.62538 8.75081 -0.293787 0.26598 0 -0.777778 11.6313 -0.241884 4.68674 -0.765524 0.594507 -0.246039
-5.3165 8.4395 8.21025 -0.0381233 0.167394 0 -0.355556 11.685 0.756306 3.49589 0.854661 0.47559 -0.208251
-9.16069 7.77887 7.31219 -0.130427 0.19285 0 -0.355556 11.709 0.181219 3.13337 -0.293187 0.555426 -0.778167
-13.8658 1.50719 6.11602 -0.169738 0.0949252 -0.703426 -0.0888889 11.714 0.499377 4.68674 0.630547 -0.151743 -0.761173
-6.46075 7.34425 15.0022 -0.115643 0.217023 0 -0.747262 11.7149 -0.37165 3.49589 0.612647 0.369034 -0.698912
-0.47025 -1.53 9.122 -0.106855 -0.218654 -0.47734 -0.0888889 11.7208 0.17356 2.34567 -0.559631 0.807507 -0.186402
-14.1081 -0.705312 6.13575 -0.0413883 -0.155508 0 0.844444 11.7295 -0.618693 5.64098 0.681977 0.608786 -0.405324
2.2445 -2.9305 13.324 -0.0321753 -0.163624 -0.242896 -0.0993964 11.7719 -0.199769 2.34567 0.529716 0.796814 0.29067
0.94725 -0.8885 9.82619 0.196768 -0.205451 0.025898 -0.0888889 11.7972 0.0536257 2.34567 -0.162998 0.986589 -0.00857057
-10.645 5.9255 4.375 -0.724443 0.16053 -0.811839 -0.777778 11.8907 0.999881 4.31867 -0.0344231 0.632272 -0.773982
-11.926 -2.06175 4.8235 0.08382 -0.191397 0 0.844444 11.9139 -0.421432 0.8207 0.214942 0.911725 0.350082
-3.4755 2.266 19.2905 0.0129609 0.175556 0 0.148012 11.9657 -0.977855 4.03517 0.908354 0.330436 -0.256329
-3.33737 6.21163 17.9622 -0.33678 0.189919 -0.0362327 -0.777778 11.9901 0.350165 4.03517 0.871393 0.435716 0.225446
3 96 124 99
3 100 75 70
3 100 70 106
3 106 70 74
3 136 124 193
3 107 141 134
3 141 166 184
3 141 116 166
3 168 149 130
3 152 130 106
3 130 100 106
3 106 74 110
3 106 110 152
3 74 72 110
3 128 102 79
3 50 72 74
3 35 50 33
3 50 74 70
3 33 50 54
3 70 54 50
3 54 70 75
3 68 43 65
3 68 52 43
3 26 43 29
3 52 29 43
3 29 52 56
3 68 65 85
3 68 107 97
3 97 107 134
3 97 109 76
3 109 145 139
3 196 145 174
3 145 143 174
3 143 134 174
3 174 134 141
3 132 162 185
3 185 191 132
3 172 158 140
3 140 110 118
3 176 118 128
3 176 164 171
3 164 128 135
3 135 117 91
3 117 92 91
3 92 117 79
3 86 92 64
3 79 46 58
3 35 33 14
3 34 14 33
3 26 29 11
3 29 56 42
3 42 56 60
3 56 73 60
3 84 56 76
3 113 115 84
3 115 126 84
3 144 115 113
3 126 115 156
3 115 144 142
3 156 115 142
3 175 156 142
3 160 126 156
3 148 111 126
3 148 160 188
3 188 146 148
3 127 148 146
3 146 188 186
3 93 133 120
3 93 120 89
3 120 133 170
3 120 170 162
3 103 77 89
3 122 83 119
3 83 132 119
3 119 132 161
3 119 161 169
3 119 169 122
3 171 135 159
3 182 159 131
3 135 171 164
3 108 91 80
3 31 61 44
3 58 45 64
3 21 24 7
3 21 7 17
3 22 28 10
3 7 1 2
3 4 8 3
3 3 8 13
3 3 13 11
3 11 20 3
3 3 20 18
3 42 41 20
3 41 42 60
3 18 20 40
3 40 67 48
3 57 30 48
3 62 67 93
3 88 90 127
3 127 90 111
3 88 60 90
3 127 111 148
3 62 89 77
3 77 57 62
3 30 23 12
3 30 12 18
3 23 47 38
3 38 47 63
3 30 53 23
3 23 53 47
3 53 71 47
3 63 47 82
3 82 47 81
3 53 83 71
3 71 83 81
3 81 83 122
3 112 81 122
3 150 112 122
3 150 167 112
3 112 167 114
3 81 114 129
3 101 138 131
3 131 104 101
3 78 101 104
3 78 104 80
3 78 38 69
3 38 59 39
3 38 39 19
3 12 19 6
3 12 6 2
3 18 12 9
3 2 9 12
3 2 6 17
3 16 17 6
3 9 2 3
3 63 98 69
3 69 98 95
3 95 98 147
3 123 137 177
3 129 163 137
3 153 195 138
3 125 165 101
3 101 95 125
3 95 147 125
3 194 165 125
3 194 125 173
3 124 179 193
3 136 157 99
3 193 157 136
3 190 121 157
3 157 121 99
3 116 121 151
3 151 121 190
3 116 187 180
3 151 187 116
3 181 149 168
3 100 154 124
3 100 124 96
3 181 154 149
3 149 154 100
3 181 197 154
3 124 154 179
3 179 154 197
3 54 75 65
3 99 65 75
3 65 116 85
3 121 116 94
3 65 94 116
3 94 65 99
3 121 94 99
3 124 136 99
3 166 116 180
3 152 168 130
3 118 102 128
3 102 118 72
3 110 72 118
3 79 102 72
3 55 79 72
3 55 50 35
3 55 72 50
3 33 54 34
3 34 54 65
3 34 65 27
3 27 65 36
3 26 36 43
3 43 36 65
3 56 52 76
3 68 76 52
3 97 76 68
3 142 144 189
3 142 189 175
3 170 133 186
3 161 132 191
3 176 172 118
3 118 172 140
3 86 91 92
3 22 24 28
3 28 24 46
3 24 58 46
3 58 24 45
3 32 55 35
3 15 14 4
3 14 15 32
3 14 32 35
3 8 4 14
3 14 34 27
3 14 27 8
3 27 36 13
3 13 36 26
3 27 13 8
3 11 13 26
3 60 73 90
3 90 73 111
3 111 73 84
3 111 84 126
3 84 73 56
3 132 89 120
3 162 132 120
3 89 132 103
3 131 159 108
3 131 108 104
3 108 159 135
3 80 104 108
3 59 80 91
3 86 59 91
3 31 59 61
3 61 59 86
3 61 86 64
3 44 61 24
3 61 45 24
3 64 45 61
3 31 37 17
3 21 37 44
3 31 44 37
3 16 31 17
3 21 44 24
3 21 17 37
3 7 24 22
3 1 7 5
3 1 5 4
3 4 5 10
3 10 5 7
3 10 7 22
3 25 15 10
3 25 10 28
3 10 15 4
3 32 15 51
3 55 32 51
3 15 25 51
3 55 51 79
3 79 51 46
3 46 51 28
3 25 28 51
3 0 1 4
3 2 1 0
3 2 0 3
3 3 0 4
3 30 18 48
3 48 18 40
3 62 57 48
3 67 62 48
3 93 67 88
3 93 88 127
3 81 47 71
3 114 81 112
3 155 129 114
3 155 114 167
3 178 155 198
3 138 195 192
3 31 16 19
3 31 19 39
3 31 39 59
3 23 38 19
3 19 12 23
3 177 137 163
3 178 129 155
3 163 129 178
3 69 95 78
3 78 95 101
3 173 125 147
3 98 123 147
3 75 96 99
3 96 75 100
3 141 107 116
3 116 107 85
3 149 100 130
3 107 68 85
3 143 145 109
3 134 143 97
3 109 97 143
3 174 141 184
3 158 152 110
3 158 110 140
3 128 164 176
3 79 117 128
3 135 128 117
3 92 79 58
3 113 109 139
3 139 144 113
3 76 113 84
3 76 109 113
3 139 145 144
3 126 160 148
3 133 93 146
3 186 133 146
3 132 83 103
3 103 83 77
3 91 108 135
3 58 64 92
3 29 42 20
3 11 29 20
3 49 41 60
3 66 49 60
3 66 60 88
3 66 88 67
3 40 66 67
3 40 49 66
3 20 49 40
3 49 20 41
3 127 146 93
3 62 93 89
3 53 57 83
3 57 53 30
3 57 77 83
3 150 169 199
3 199 167 150
3 169 150 122
3 192 182 138
3 138 182 131
3 59 38 80
3 78 80 38
3 16 6 19
3 2 17 7
3 9 3 18
3 63 69 38
3 87 82 123
3 87 123 98
3 87 98 63
3 87 63 82
3 82 81 105
3 82 105 123
3 137 123 105
3 81 129 105
3 129 137 105
3 153 138 101
3 165 153 101
3 177 147 123
3 173 147 183
