ply
format ascii 1.0
comment Generated by PyMesh
element vertex 90
property float x
property float y
property float z
property float nx
property float ny
property float nz
element face 166
property list uchar int vertex_indices
end_header
-2.77225 -11.4105 17.805 -0.18764 0.469214 -0.862919
-3.862 -11.6217 17.6195 0.410813 0.59085 -0.694355
-3.116 -12.246 16.7978 0.255258 0.896528 -0.36205
-2.68175 -10.0616 18.0147 -0.147886 -0.169386 -0.974391
-3.79075 -10.2222 18.0065 0.409482 -0.0532152 -0.910765
-1.69675 -10.2355 17.6903 -0.451623 0.102526 -0.886298
-1.62603 -12.0646 16.4171 -0.241147 0.799142 -0.550654
-4.66625 -11.0845 16.892 0.873862 0.373752 -0.310925
-3.354 -12.5258 15.707 0.334248 0.942454 0.00765007
-1.08025 -12.5326 15.4539 -0.267539 0.945742 -0.184376
-3.23534 -8.48941 17.304 0.0843109 -0.374124 -0.923538
-1.70119 -8.70938 17.1994 -0.367204 -0.522871 -0.769264
-2.44412 -12.6461 15.2684 0.108394 0.994106 0.00173444
-4.86794 -9.33075 16.6371 0.851016 0.0549026 -0.522261
-4.7185 -11.2759 15.6766 0.793706 0.608294 -0.00312074
-0.125625 -11.4201 16.4508 -0.505807 0.513905 -0.692864
-0.464 -8.9755 16.604 -0.386586 -0.387961 -0.836683
-4.07681 -11.5229 14.4209 0.611204 0.778348 0.143542
-2.7135 -12.04 14.0715 0.366581 0.883477 0.291696
-0.731875 -12.3286 14.3022 -0.356289 0.916199 0.183404
-4.8805 -10.495 14.9487 0.932964 0.341581 -0.11358
-4.30062 -7.94225 17.1379 0.324397 -0.263037 -0.908613
-1.40675 -8.23525 16.089 -0.400395 -0.658658 -0.637066
0.243813 -11.8969 14.8194 -0.612517 0.78779 -0.0648907
0.578125 -10.3691 16.4349 -0.656737 0.0802966 -0.749832
-2.83406 -7.02481 16.3614 -0.213924 -0.73017 -0.648913
-5.04875 -7.88225 16.3645 0.850945 -0.254382 -0.459545
-1.66 -12.3445 13.6494 0.0749592 0.965726 0.248506
0.859375 -9.032 16.0446 -0.710914 -0.271388 -0.648807
-0.595 -12.0105 13.363 -0.371538 0.892576 0.255475
1.146 -10.677 15.4235 -0.849498 0.391589 -0.353568
-5.26237 -9.369 14.8328 0.932581 0.232313 -0.276268
-3.58612 -11.5753 13.3752 0.367699 0.920854 0.129709
0.717875 -8.19975 15.5052 -0.62321 -0.649262 -0.435968
-4.4885 -6.99975 16.5465 0.437605 -0.720127 -0.538441
-5.41463 -10.342 13.8094 0.814785 0.508942 -0.277674
-4.754 -10.953 13.301 0.543967 0.839005 -0.01308
0.35525 -11.5347 13.7522 -0.562823 0.806709 0.18014
-1.30838 -7.12044 15.2753 -0.452784 -0.683757 -0.572243
-4.87 -7.05025 15.4299 0.602014 -0.722362 -0.340253
1.30375 -9.7405 15.091 -0.953067 -0.0709761 -0.294322
-5.70131 -7.94219 14.2342 0.924738 -0.100025 -0.367226
-0.359 -11.5591 12.3024 -0.345776 0.698796 0.626197
-3.731 -6.37675 15.2506 0.146035 -0.903592 -0.402736
1.3825 -10.685 14.0083 -0.884948 0.461274 -0.0639818
-1.37625 -11.8694 12.1976 -0.0962332 0.842831 0.529505
-2.527 -11.704 12.3365 0.176489 0.927301 0.330096
-6.0635 -9.55275 13.222 0.961183 0.228341 -0.154877
1.367 -8.79813 14.2028 -0.938835 -0.300511 -0.168172
-1.91937 -6.21275 14.6142 -0.314087 -0.892927 -0.322539
0.863875 -10.9526 12.4683 -0.584743 0.680737 0.441217
-5.65947 -10.4865 12.0315 0.739189 0.670298 0.0655765
0.031 -7.35913 13.8882 -0.612271 -0.790601 0.00867966
-4.3105 -11.2565 11.5763 0.336622 0.872277 0.354709
-0.02625 -10.5835 11.7972 -0.321326 0.311059 0.894423
1.891 -9.97425 13.0087 -0.975146 0.0577273 0.213912
-4.83238 -6.22475 14.045 0.337459 -0.863933 -0.373821
-6.14838 -8.3445 12.8004 0.998638 0.0306221 -0.0422442
-3.302 -11.1471 11.4605 -0.0613465 0.694598 0.716778
1.14525 -8.562 12.9073 -0.669011 -0.647723 0.364526
-1.33125 -10.4866 11.3071 -0.287108 0.373615 0.882032
-5.725 -6.1115 13.164 0.778413 -0.53643 -0.326062
-1.52013 -6.21325 13.1946 -0.53448 -0.837967 0.110193
-5.6675 -9.7635 11.0267 0.829797 0.432144 0.353113
-2.78744 -5.99862 13.4154 -0.0566234 -0.97951 -0.193273
1.0125 -9.58212 11.8576 -0.547629 -0.0482876 0.835327
-4.34269 -10.1756 10.3532 0.0574804 0.76062 0.646648
-0.950875 -7.54581 12.4346 -0.632297 -0.545991 0.549632
-0.571625 -9.07475 11.6154 -0.446835 -0.276825 0.850709
-5.308 -5.77575 12.31 0.323934 -0.933786 -0.152023
-2.68963 -5.70463 12.3524 -0.260663 -0.948494 -0.180039
-1.88644 -9.22363 10.6494 -0.616614 0.425512 0.662365
-1.7585 -6.495 11.9974 -0.875271 -0.44215 0.195971
-5.77 -8.44 10.563 0.951713 0.306736 0.0124313
-6.14825 -6.61194 11.79 0.929507 -0.355159 -0.0993885
-5.27969 -9.23044 9.6165 0.552825 0.793218 0.255323
-3.57711 -9.55381 9.77205 -0.197054 0.922204 0.33273
-6.10838 -7.2915 10.8197 0.978062 0.207388 -0.01962
-1.463 -8.376 11.3333 -0.806276 -0.255371 0.533577
-4.92338 -5.55363 11.0901 0.467586 -0.821285 -0.326885
-2.011 -5.875 11.0615 -0.733903 -0.671001 -0.105567
-1.71375 -7.84975 10.351 -0.959066 -0.0283712 0.281756
-2.77375 -9.09387 9.28175 -0.625672 0.758327 0.182961
-6.27887 -7.16625 9.82987 0.968248 0.150609 -0.199533
-6.14975 -8.38775 9.2365 0.864514 0.496605 -0.0774548
-3.82663 -9.5445 8.57913 -0.0289599 0.975135 0.219709
-2.13225 -8.094 9.39625 -0.947777 0.184363 0.260248
-3.67925 -5.23994 10.9784 -0.0577555 -0.859388 -0.508052
-5.05225 -9.12525 8.24525 0.439157 0.814084 0.380011
-1.90625 -6.818 10.2917 -0.962724 -0.18519 0.197148
3 87 70 69
3 89 81 72
3 72 81 78
3 81 71 78
3 76 75 66
3 82 85 76
3 85 75 76
3 83 73 84
3 75 73 63
3 63 66 75
3 77 57 73
3 63 73 57
3 56 70 64
3 70 72 62
3 62 64 70
3 52 67 59
3 68 59 67
3 54 68 60
3 68 78 71
3 63 47 51
3 57 41 47
3 56 64 43
3 43 64 49
3 49 38 25
3 25 43 49
3 25 22 11
3 10 25 11
3 11 22 16
3 44 50 37
3 45 60 58
3 45 58 46
3 27 46 32
3 32 53 36
3 32 17 18
3 20 17 35
3 36 35 17
3 35 41 31
3 41 39 26
3 41 56 39
3 43 39 56
3 41 26 13
3 41 13 31
3 4 10 3
3 5 16 15
3 5 15 6
3 48 44 40
3 19 23 37
3 19 37 29
3 14 17 20
3 20 13 7
3 77 83 74
3 79 69 74
3 70 87 80
3 70 80 72
3 80 89 72
3 71 81 86
3 71 86 82
3 86 81 89
3 88 75 85
3 75 84 73
3 74 57 77
3 57 74 61
3 61 74 69
3 61 69 56
3 62 72 67
3 49 52 38
3 62 52 49
3 52 62 67
3 65 59 68
3 65 68 54
3 71 60 68
3 71 58 60
3 66 53 58
3 53 66 63
3 53 63 51
3 35 36 51
3 35 51 47
3 35 47 41
3 61 41 57
3 56 41 61
3 49 64 62
3 43 25 39
3 39 25 34
3 39 34 26
3 25 10 21
3 25 21 34
3 34 21 26
3 28 33 40
3 33 28 16
3 33 16 22
3 48 40 33
3 48 33 59
3 59 33 52
3 52 33 38
3 38 33 22
3 44 55 50
3 50 55 65
3 55 59 65
3 54 50 65
3 48 59 55
3 48 55 44
3 29 37 50
3 29 50 42
3 42 50 54
3 45 29 42
3 45 42 60
3 60 42 54
3 29 45 27
3 46 27 45
3 53 32 46
3 53 46 58
3 51 36 53
3 10 13 21
3 21 13 26
3 7 1 2
3 1 7 4
3 10 4 13
3 13 4 7
3 3 0 4
3 4 0 1
3 2 1 0
3 2 0 6
3 5 0 3
3 16 5 11
3 11 5 3
3 11 3 10
3 24 15 16
3 30 15 24
3 30 24 40
3 40 24 28
3 28 24 16
3 23 15 30
3 23 30 44
3 44 30 40
3 27 19 29
3 6 9 12
3 12 9 27
3 12 27 18
3 27 9 19
3 6 8 2
3 8 12 18
3 12 8 6
3 14 2 8
3 14 8 17
3 17 8 18
3 7 2 14
3 20 7 14
3 9 6 15
3 9 23 19
3 23 9 15
3 79 87 69
3 77 73 83
3 69 70 56
3 78 67 72
3 78 68 67
3 71 66 58
3 63 57 47
3 38 22 25
3 36 17 32
3 44 37 23
3 32 18 27
3 35 31 20
3 20 31 13
3 5 6 0
3 71 82 76
3 71 76 66
