ply
format ascii 1.0
comment Generated by PyMesh
element vertex 192
property float x
property float y
property float z
property float nx
property float ny
property float nz
element face 327
property list uchar int vertex_indices
end_header
-36.6226 -0.83575 3.69537 0.20358 -0.500822 0.841268
-37.097 0.353 3.8695 0.176704 -0.136258 0.974787
-35.9363 -1.14137 2.40313 0.578249 -0.734484 0.355191
-35.5675 0.14675 2.96625 0.750801 -0.123764 0.64883
-37.4189 -1.511 2.14619 0.361916 -0.871285 0.331481
-38.5714 -0.836875 3.46025 0.391656 -0.137736 0.909744
-36.4315 1.14775 3.6145 0.566569 -0.0350329 0.823269
-38.7046 0.434438 3.35763 -0.017559 -0.0932078 0.995492
-35.245 -0.365 1.9245 0.927783 -0.160929 0.33663
-38.1974 -2.14069 1.66594 0.787496 -0.564312 0.247794
-37.558 1.975 4.17487 0.0352649 0.0157289 0.999254
-36.1942 -1.52581 0.898938 0.200794 -0.884774 0.420543
-35.5944 1.77725 2.64581 0.858202 0.155366 0.489234
-38.8596 -2.3095 3.33262 0.836238 -0.206014 0.508196
-36.4515 2.298 3.7275 0.582346 0.298106 0.756311
-34.925 -0.822125 0.624313 0.691245 -0.250309 0.677883
-39.6213 1.29762 3.55437 0.233579 -0.0350575 0.971706
-37.416 -1.8825 0.155 0.413356 -0.677452 0.608436
-40.5229 -1.05625 4.39113 0.0563963 0.254513 0.965423
-38.6023 -3.22781 1.86181 0.954505 0.0227215 0.297327
-37.587 3.07075 3.68775 0.226641 0.577705 0.78415
-35.0541 1.07375 1.07763 0.90533 -0.0469999 0.4221
-36.4637 -2.113 -0.2115 -0.0157937 -0.645112 0.763924
-40.2346 -1.98538 4.73763 0.295184 0.348033 0.889797
-38.1285 -2.969 0.269125 0.843178 -0.22809 0.486853
-35.0124 -2.15687 0.0776875 -0.132374 -0.269482 0.953864
-36.215 3.1935 2.472 0.601827 0.538145 0.590088
-35.019 2.274 1.26 0.859955 0.0943554 0.501572
-39.0421 3.00738 3.62512 0.235222 0.228087 0.9448
-39.0392 -4.08825 3.2905 0.866152 0.13306 0.481742
-33.3881 -0.907 -0.127625 0.358553 0.40405 0.841536
-35.6632 3.54737 1.66925 0.694694 0.329017 0.639647
-40.6965 0.08 4.0655 0.230056 0.0183663 0.973004
-34.3894 0.790625 0.009625 0.660308 -0.00013185 0.750995
-37.3666 -3.35194 -0.498563 0.371797 0.0310102 0.927796
-40.1156 -3.0305 5.21513 0.613754 0.0165811 0.789323
-41.5761 -1.9345 4.50787 -0.463942 0.467623 0.752388
-36.2704 -3.198 -0.585813 -0.0350476 -0.118894 0.992288
-41.7721 -1.25794 3.68622 -0.822648 0.114956 0.556808
-38.3061 -4.64156 1.7885 0.772696 0.573598 0.271893
-38.0385 -4.1545 0.1545 0.715193 0.39173 0.578832
-37.5692 4.24862 2.59262 0.374094 0.371871 0.849568
-35.2925 -3.2405 -0.350875 -0.367442 0.0947415 0.925208
-41.0505 2.48775 4.56675 0.203024 -0.106568 0.973357
-41.4772 1.22775 4.66525 -0.00352843 -0.115298 0.993325
-33.0566 0.118375 -0.5665 0.338264 0.0327202 0.940482
-39.8445 3.57888 4.13925 0.552164 0.149121 0.820291
-42.1297 0.21025 4.2505 -0.463454 -0.274326 0.842589
-41.2697 -3.31787 5.51263 -0.228896 0.144192 0.962713
-34.2067 2.36244 -0.0304375 0.602862 -0.012522 0.797747
-34.8864 3.69462 0.610563 0.697698 0.177179 0.694136
-39.5793 -4.5735 4.28075 0.666708 0.0707343 0.741955
-38.6125 -5.23581 3.59262 0.552816 0.670072 0.495377
-32.8725 -1.9635 0.789 -0.481363 0.641157 0.597668
-33.4766 -3.51219 0.695625 -0.65061 0.291893 0.701075
-37.6309 -4.894 0.760625 0.35599 0.853998 0.379419
-39.1658 4.87844 2.96075 0.379436 0.357608 0.853314
-37.5618 -5.33744 2.60069 0.116432 0.978917 0.167823
-42.217 2.568 4.372 -0.421686 -0.00642154 0.906719
-31.8857 -1.60984 -0.784625 0.51838 0.297852 0.801603
-42.0901 -3.38044 4.73325 -0.827295 0.00828891 0.561706
-42.4468 -2.0485 2.633 -0.822443 0.0439963 0.567143
-35.9878 -4.63312 -0.051875 -0.0681136 0.630653 0.77307
-36.7305 5.051 2.075 0.619813 0.41907 0.663485
-34.7426 -4.191 0.26325 -0.340167 0.668509 0.661349
-40.8904 -4.4085 5.07013 -0.0705653 -0.348085 0.934803
-31.8854 0.152375 -0.856125 0.0564411 -0.15471 0.986346
-35.4398 5.106 0.462875 0.568192 0.661566 0.489376
-42.0288 3.59275 4.5445 -0.480291 0.13937 0.865966
-32.9215 1.461 -0.2985 0.183105 -0.0688322 0.980681
-40.2899 4.84462 3.888 0.428523 0.453485 0.781486
-33.4614 3.28387 -0.543375 0.431141 0.229098 0.872715
-41.0871 4.13737 4.7885 -0.0134583 0.342001 0.939603
-37.6167 -5.52175 3.63175 -0.0906204 0.930519 0.354856
-42.4011 -3.13925 3.435 -0.95444 0.108251 0.278077
-42.7577 -0.231688 2.256 -0.776429 -0.137096 0.615112
-31.7221 -2.39494 0.657188 0.407498 0.899155 -0.159577
-40.337 -5.247 4.9125 -0.235348 0.233348 0.943483
-37.853 6.161 2.52325 0.485835 0.491831 0.722542
-43.0871 1.57525 3.7945 -0.765179 -0.186942 0.61608
-33.8745 -4.44375 0.85425 -0.610094 0.669089 0.424388
-34.08 4.646 -0.2085 0.694678 0.54295 0.471834
-32.6063 -2.82525 1.547 -0.950184 0.265308 0.16359
-36.8985 5.6195 1.235 0.577129 0.803528 0.145822
-43.0135 2.919 3.737 -0.797274 0.168796 0.579536
-43.2521 -1.776 2.00638 -0.520021 -0.0834216 0.85007
-32.1995 -1.76988 1.95131 -0.237383 0.93881 -0.249569
-36.3025 -5.19994 1.31463 -0.135275 0.967282 0.214632
-31.87 1.445 -0.4295 0.0845076 -0.0101996 0.996371
-30.6003 -0.275 -0.702 0.29752 -0.343281 0.890865
-41.4459 5.14194 3.975 -0.247794 0.510356 0.823489
-42.7841 -3.36331 1.97894 -0.787829 -0.144723 0.598649
-36.4033 -5.22025 3.798 -0.192443 0.937573 0.289695
-33.2643 4.08875 -1.24125 0.454571 0.739756 0.49611
-42.5649 4.24325 3.52925 -0.666223 0.382737 0.640046
-36.5909 5.66354 -0.0681541 0.192136 0.924412 0.329462
-31.0072 -2.9275 -0.510875 0.507971 0.830996 0.22674
-37.0402 -5.822 4.5435 -0.347204 0.810193 0.472268
-39.8805 6.407 2.3535 0.0555998 0.834161 0.548712
-33.0858 -3.63425 2.55325 -0.882026 0.453282 0.128706
-32.7163 -2.2705 2.6995 -0.91507 0.393282 0.0893089
-30.606 -2.2485 -1.8515 0.546423 0.113876 0.829731
-43.4664 0.37225 1.41225 -0.876384 -0.0627596 0.477507
-34.0807 -4.81025 1.82325 -0.396356 0.895647 0.201787
-40.8469 6.1535 3.4435 0.128493 0.729327 0.671991
-42.1951 -4.93669 3.83363 -0.882318 -0.162969 0.441538
-38.9025 6.7615 2.2985 0.000183148 0.796149 0.605101
-31.183 -1.832 1.72525 0.249647 0.832173 -0.49514
-35.5205 -4.9905 2.8695 -0.102899 0.986652 0.126215
-39.3888 -6.33588 5.80237 -0.0383378 0.914225 0.403388
-31.8743 3.232 -0.751375 0.287089 0.611263 0.737521
-30.376 -3.0025 0.469 0.243404 0.888192 -0.389705
-37.9227 6.81687 1.29125 0.375133 0.923679 -0.0780551
-43.381 3.104 2.787 -0.901441 0.172538 0.397031
-37.0859 -6.42944 5.42169 -0.133285 0.924278 0.357694
-43.7072 2.09175 2.51425 -0.958642 0.0444668 0.281118
-41.806 -6.0655 4.664 -0.668142 -0.13767 0.731186
-35.4403 6.199 -1.359 0.397987 0.795831 0.456354
-44.2265 -1.16675 1.407 -0.739751 0.220711 0.635654
-44.481 -2.173 1.411 -0.771995 -0.0660557 0.632187
-32.0185 -1.359 3.388 -0.474648 0.844896 0.246697
-31.08 -1.29131 2.85188 0.226045 0.97141 0.072571
-33.7136 4.56025 -2.15162 0.493744 0.799678 0.341661
-40.7697 -7.24625 4.67725 -0.714739 -0.526074 0.460863
-29.7279 0.5895 -0.70275 0.440474 -0.169191 0.881678
-40.3257 -7.13325 6.0125 -0.902043 0.354241 0.246639
-33.3517 -4.48987 3.43613 -0.704637 0.708257 0.0431058
-30.0037 -1.3065 -1.902 0.440059 -0.203184 0.87468
-43.7235 -4.16962 1.3335 -0.368419 -0.150679 0.917368
-41.1557 6.58269 1.94638 -0.281334 0.942512 0.18034
-39.406 6.85775 1.17025 -0.0527962 0.998553 -0.0101789
-44.243 -3.201 1.1145 -0.699789 -0.0724048 0.710671
-35.9019 -5.79362 5.36525 -0.443094 0.872622 0.205424
-37.0251 6.31684 -1.27375 -0.110117 0.900605 0.420458
-34.1722 -4.98475 3.09775 -0.287157 0.953252 0.0940841
-32.271 -2.29513 4.08075 -0.588367 0.642445 0.491007
-43.9055 1.411 0.7435 -0.874578 -0.0774757 0.478656
-29.4058 -2.83725 -1.95275 0.418062 0.552882 0.720795
-43.3775 4.48887 2.2265 -0.917421 0.322008 0.233773
-37.878 -6.53662 6.06738 0.0806288 0.996742 0.00230739
-42.4618 5.8275 2.869 -0.637805 0.660288 0.396517
-38.1272 6.00931 -0.45575 0.135601 0.983445 -0.120204
-42.3643 -4.956 2.285 -0.933146 -0.299697 0.198547
-42.846 -4.95762 1.38975 -0.49883 -0.472741 0.726419
-34.5864 5.55737 -2.37337 0.655781 0.638033 0.403565
-29.8686 -2.227 2.542 0.363008 0.900369 -0.239917
-39.8204 -6.49412 6.95056 -0.617739 0.785837 0.0292997
-29.097 -2.62 1.232 -0.0665671 0.910376 -0.408392
-29.9776 2.01312 -0.830625 0.295472 0.380909 0.876131
-40.336 -8.1225 5.43937 -0.944471 -0.323984 -0.0548503
-44.4607 0.274063 -0.0676875 -0.919826 0.0610784 0.387543
-31.2518 3.80475 -2.079 0.355292 0.782052 0.512017
-36.7781 -6.53188 6.914 -0.216885 0.972193 0.0883307
-33.4975 5.05875 -3.01275 0.306894 0.629665 0.71368
-33.0223 -3.958 4.60862 -0.676776 0.735773 0.0247489
-31.7789 4.47612 -2.80687 0.325863 0.754509 0.569675
-41.8543 -6.81925 3.45994 -0.776072 -0.630333 -0.0198401
-44.7566 -1.61137 0.203125 -0.987101 0.0879635 0.133767
-28.9322 -3.57475 -0.422312 0.177193 0.948521 -0.26251
-34.769 -5.28237 4.57438 -0.440406 0.895197 -0.0683023
-29.0264 -0.8405 -2.34175 0.559273 -0.22417 0.798099
-36.1656 7.14062 -2.26456 0.226194 0.925586 0.303524
-39.3445 6.4515 0.2445 0.119377 0.921142 -0.370468
-40.3124 -7.47781 3.41987 -0.570349 -0.785454 -0.240342
-44.2975 -5.0985 0.976 -0.335261 -0.363691 0.869096
-30.534 -2.024 4.2795 -0.0501962 0.987192 0.151435
-44.6104 1.5565 -0.18625 -0.833737 -0.134689 0.535483
-28.9252 1.9085 -1.19237 0.640734 0.386869 0.663168
-40.3073 -8.2845 7.0405 -0.983741 -0.144484 0.106671
-41.311 6.67963 0.528 -0.299234 0.940641 -0.160169
-41.9191 -5.97325 1.76713 -0.650974 -0.758477 0.0307479
-45.1165 -4.48737 0.769 -0.726908 -0.0429006 0.685394
-43.3685 3.93012 1.05087 -0.912182 0.392837 0.116634
-35.753 -6.076 6.7845 -0.619832 0.760206 0.194666
-44.0106 3.05763 0.46325 -0.815712 0.336265 0.47068
-29.779 3.11438 -2.143 0.436958 0.725056 0.532317
-38.7724 5.88963 -1.7045 -0.242102 0.970251 -0.000338608
-40.364 -7.339 7.8165 -0.928574 0.228913 0.292146
-35.0695 6.84575 -2.92475 0.406296 0.869166 0.281912
-35.2217 -5.19338 6.81475 -0.691483 0.696105 0.193104
-42.5382 -6.08794 0.34725 0.030004 -0.835853 0.548133
-27.8848 -3.35856 -2.33444 0.404983 0.764178 0.502016
-28.2756 0.54275 -2.18088 0.653411 -0.0426828 0.755799
-39.7048 5.94025 -0.8125 0.187615 0.944322 -0.27029
-33.317 5.9805 -3.6345 0.237444 0.751846 0.615101
-45.0146 -2.96869 -0.523188 -0.936592 0.267243 0.226664
-38.5578 -5.97625 7.695 -0.022914 0.993538 0.111163
-44.443 -1.03013 -0.71425 -0.997938 0.0640563 0.00417257
-28.3189 -2.3435 3.09025 -0.130167 0.986324 -0.101103
-27.5492 -2.51375 0.8025 -0.263077 0.713557 -0.649328
-42.5642 5.45039 0.951609 -0.738568 0.662869 -0.12297
-39.72 -9.3495 5.1955 -0.880232 -0.386669 -0.275096
3 125 168 146
3 163 149 123
3 123 156 163
3 123 149 77
3 125 77 149
3 77 116 123
3 156 123 116
3 77 65 105
3 65 60 105
3 65 48 60
3 65 77 51
3 142 91 143
3 91 105 74
3 91 74 61
3 91 61 85
3 131 91 85
3 74 60 38
3 60 36 38
3 23 18 36
3 38 36 18
3 29 52 19
3 19 52 39
3 57 52 73
3 29 51 52
3 92 73 97
3 52 51 77
3 109 146 139
3 171 131 185
3 131 157 185
3 131 119 157
3 128 131 171
3 185 157 187
3 187 157 150
3 150 118 102
3 118 85 75
3 79 44 58
3 58 44 43
3 58 43 68
3 10 16 7
3 32 44 47
3 47 18 32
3 47 38 18
3 5 18 23
3 7 5 0
3 5 13 4
3 5 4 0
3 73 92 57
3 108 57 92
3 92 132 108
3 108 103 87
3 103 108 134
3 99 135 100
3 150 136 166
3 174 136 115
3 115 138 172
3 115 102 79
3 79 102 75
3 113 84 138
3 138 84 94
3 94 84 68
3 68 84 58
3 72 90 94
3 90 72 70
3 90 70 104
3 72 46 70
3 70 46 56
3 20 28 10
3 46 43 28
3 41 20 26
3 26 31 41
3 12 14 6
3 6 10 1
3 6 1 3
3 10 7 1
3 42 62 64
3 87 103 64
3 42 64 54
3 25 53 30
3 53 100 86
3 86 107 76
3 107 145 76
3 145 121 165
3 145 165 188
3 135 165 121
3 190 172 138
3 140 138 94
3 169 190 129
3 98 129 104
3 130 98 106
3 98 104 56
3 106 98 56
3 129 130 169
3 130 112 162
3 130 162 169
3 83 141 112
3 78 63 83
3 63 78 41
3 31 50 67
3 31 26 12
3 27 12 21
3 8 12 3
3 6 3 12
3 2 4 11
3 45 15 30
3 8 2 15
3 2 11 15
3 11 25 15
3 42 54 25
3 69 45 66
3 124 88 89
3 66 89 88
3 88 124 148
3 160 89 127
3 160 127 137
3 158 111 147
3 133 141 95
3 133 95 117
3 161 133 117
3 117 67 144
3 93 71 110
3 81 71 93
3 71 50 49
3 49 50 27
3 27 21 49
3 49 21 33
3 69 88 71
3 151 155 110
3 151 110 175
3 175 110 148
3 110 71 88
3 132 97 114
3 109 77 125
3 109 125 146
3 143 180 170
3 143 170 142
3 142 170 156
3 105 142 156
3 128 164 143
3 128 143 91
3 131 128 91
3 38 61 74
3 19 13 29
3 39 52 57
3 114 73 52
3 114 52 109
3 114 109 139
3 109 52 77
3 97 73 114
3 152 132 114
3 179 132 173
3 173 132 152
3 139 152 114
3 108 132 159
3 159 126 134
3 134 108 159
3 154 126 159
3 136 150 102
3 136 102 115
3 75 102 118
3 47 75 38
3 61 38 75
3 61 75 85
3 28 43 16
3 28 16 10
3 16 43 44
3 7 16 18
3 18 16 32
3 32 16 44
3 5 7 18
3 9 4 13
3 9 13 19
3 87 57 108
3 126 99 103
3 126 103 134
3 113 138 115
3 104 70 56
3 28 56 46
3 41 56 28
3 41 28 20
3 11 4 17
3 11 17 22
3 22 17 37
3 37 17 34
3 34 17 24
3 19 24 9
3 9 24 17
3 9 17 4
3 55 62 40
3 40 62 34
3 62 55 87
3 39 55 40
3 39 40 19
3 19 40 24
3 24 40 34
3 34 62 37
3 57 87 55
3 57 55 39
3 42 37 62
3 64 62 87
3 54 64 80
3 54 80 99
3 99 80 103
3 103 80 64
3 53 54 82
3 82 99 100
3 99 82 54
3 25 54 53
3 100 53 82
3 30 76 59
3 76 53 86
3 53 76 30
3 96 59 76
3 96 76 111
3 145 147 76
3 76 147 111
3 188 147 145
3 130 129 98
3 141 162 112
3 63 67 83
3 27 31 12
3 21 12 8
3 33 21 15
3 33 15 45
3 15 21 8
3 22 25 11
3 25 22 37
3 25 37 42
3 49 33 45
3 49 45 69
3 30 59 45
3 45 59 66
3 66 59 89
3 137 101 96
3 101 127 89
3 96 101 59
3 158 137 96
3 111 158 96
3 59 101 89
3 137 127 101
3 141 176 183
3 141 183 162
3 133 176 141
3 153 144 122
3 122 144 81
3 155 153 122
3 110 155 93
3 93 155 122
3 93 122 81
3 31 27 50
3 69 71 49
3 88 148 110
3 149 168 125
3 168 177 146
3 116 77 105
3 116 105 156
3 105 91 142
3 60 74 105
3 48 65 35
3 48 35 23
3 23 36 48
3 48 36 60
3 29 13 35
3 29 35 51
3 51 35 65
3 35 13 23
3 186 139 146
3 171 164 128
3 131 85 119
3 119 85 118
3 118 150 157
3 118 157 119
3 44 79 47
3 79 75 47
3 13 5 23
3 97 132 92
3 154 135 99
3 154 99 126
3 172 174 115
3 58 84 79
3 115 79 84
3 115 84 113
3 72 68 43
3 72 43 46
3 72 94 68
3 14 20 10
3 14 10 6
3 12 26 14
3 26 20 14
3 2 0 4
3 0 2 3
3 0 3 1
3 0 1 7
3 120 100 135
3 120 135 121
3 121 145 107
3 121 107 86
3 121 86 120
3 120 86 100
3 138 140 190
3 140 129 190
3 90 140 94
3 104 129 140
3 104 140 90
3 112 130 106
3 106 78 112
3 78 106 56
3 78 56 41
3 112 78 83
3 41 31 63
3 63 31 67
3 2 8 3
3 30 15 25
3 124 89 160
3 158 147 189
3 95 67 117
3 50 71 81
3 50 81 67
3 144 67 81
3 69 66 88
3 160 182 124
3 124 182 167
3 124 167 148
3 178 161 144
3 117 144 161
3 167 175 148
3 83 67 95
3 83 95 141
