ply
format ascii 1.0
comment Generated by PyMesh
element vertex 200
property float x
property float y
property float z
property float charge
property float ddc
property float hbond
property float hphob
property float rho
property float si
property float theta
property float nx
property float ny
property float nz
element face 346
property list uchar int vertex_indices
end_header
-35.245 -0.365 1.9245 -0.229509 0 0 -0.777778 1e-08 0.601351 2.22045e-16 0.927783 -0.160929 0.33663
-35.9363 -1.14137 2.40313 -0.153274 0.531972 0 -0.777778 1.14444 0.632526 2.04676 0.578249 -0.734484 0.355191
-35.5675 0.14675 2.96625 -0.263036 0.144856 0 -0.777778 1.20463 0.740087 0.888908 0.750801 -0.123764 0.64883
-34.925 -0.822125 0.624313 -0.166115 -0.154167 0.237653 -0.54934 1.41487 -0.056821 3.80215 0.691245 -0.250309 0.677883
-35.0541 1.07375 1.07763 -0.100963 0.118111 0 -0.777778 1.68037 -0.538262 5.30841 0.90533 -0.0469999 0.4221
-35.5944 1.77725 2.64581 -0.096858 0.158386 0 -0.777778 2.28727 0.473408 2.22045e-16 0.858202 0.155366 0.489234
-36.6226 -0.83575 3.69537 -0.0266754 0.334135 0.742941 -0.777778 2.63919 0.999884 1.44603 0.20358 -0.500822 0.841268
-36.4315 1.14775 3.6145 -0.328163 0.17151 -0.0427102 -0.777778 2.67729 0.396665 0.55655 0.566569 -0.0350329 0.823269
-37.4189 -1.511 2.14619 -0.198334 0.338775 0 -0.777778 2.69387 -0.105665 2.11516 0.361916 -0.871285 0.331481
-36.1942 -1.52581 0.898938 -0.03695 0.513141 0.335718 -0.777778 2.71825 -0.0563223 2.91229 0.200794 -0.884774 0.420543
-35.0124 -2.15687 0.0776875 -0.360413 -0.410262 0 -0.288889 2.85985 -0.12048 3.44624 -0.132374 -0.269482 0.953864
-35.019 2.274 1.26 -0.0941137 0.110212 0 -0.777778 2.8949 0.270744 5.67387 0.859955 0.0943554 0.501572
-34.3894 0.790625 0.009625 -0.159551 -0.148187 0 -0.676371 2.96979 -0.595087 4.78836 0.660308 -0.00013185 0.750995
-37.097 0.353 3.8695 -0.191528 0.288386 0.168642 -0.777778 2.99286 0.457865 0.953141 0.176704 -0.136258 0.974787
-33.3881 -0.907 -0.127625 -0.204074 -0.296579 0 -0.288889 3.12796 -0.143303 4.07403 0.358553 0.40405 0.841536
-34.2067 2.36244 -0.0304375 -0.260987 -0.116691 0 -0.777778 3.57948 -0.37688 5.19653 0.602862 -0.012522 0.797747
-36.4515 2.298 3.7275 -0.528223 0.177619 -0.0184521 -0.777778 3.76235 0.999873 0.333999 0.582346 0.298106 0.756311
-38.1974 -2.14069 1.66594 -0.293067 0.13058 0 -0.486149 3.80437 -0.508741 2.21775 0.787496 -0.564312 0.247794
-33.0566 0.118375 -0.5665 -0.173941 -0.206518 0 0.698222 3.82184 -0.529628 4.45591 0.338264 0.0327202 0.940482
-36.215 3.1935 2.472 -0.199528 0.209459 0 -0.777778 3.84326 0.213337 6.24743 0.601827 0.538145 0.590088
-36.4637 -2.113 -0.2115 -0.292134 0.32681 0 -0.288889 4.00297 -0.688259 2.96305 -0.0157937 -0.645112 0.763924
-35.2925 -3.2405 -0.350875 -0.381477 -0.354835 0 -0.288889 4.05834 -0.680327 3.28561 -0.367442 0.0947415 0.925208
-37.558 1.975 4.17487 -0.629307 0.239948 -0.614733 -0.777778 4.18307 0.779585 0.646504 0.0352649 0.0157289 0.999254
-37.416 -1.8825 0.155 -0.18782 0.200111 0.00899123 -0.546584 4.19252 -0.999882 2.67164 0.413356 -0.677452 0.608436
-35.6632 3.54737 1.66925 -0.096065 0.143178 0 -0.777778 4.31007 0.156373 5.95997 0.694694 0.329017 0.639647
-34.8864 3.69462 0.610563 -0.44281 0.103175 -0.428971 -0.777778 4.46255 -0.056273 5.60241 0.697698 0.177179 0.694136
-38.5714 -0.836875 3.46025 -0.218405 0.160619 0.173197 -0.641544 4.56722 0.0855594 1.6201 0.391656 -0.137736 0.909744
-32.8725 -1.9635 0.789 -0.277471 -0.508034 -0.134529 -0.354247 4.61867 0.199251 3.8772 -0.481363 0.641157 0.597668
-36.2704 -3.198 -0.585813 -0.436477 -0.252922 0 -0.288889 4.62245 -0.999819 3.06016 -0.0350476 -0.118894 0.992288
-38.7046 0.434438 3.35763 -0.294465 0.25614 -0.248894 -0.777778 4.68195 -0.684717 1.21315 -0.017559 -0.0932078 0.995492
-38.8596 -2.3095 3.33262 -0.32831 -0.00232815 0 -0.288889 4.72385 0.128489 1.91768 0.836238 -0.206014 0.508196
-33.4614 3.28387 -0.543375 -0.298216 0.145015 -0.360736 -0.0590029 4.87084 -0.05795 5.22229 0.431141 0.229098 0.872715
-31.8857 -1.60984 -0.784625 -0.38807 -0.146271 -0.860595 -0.153048 4.91201 -0.327131 4.18606 0.51838 0.297852 0.801603
-38.6023 -3.22781 1.86181 -0.417577 -0.0769146 0 -0.288889 4.98087 -0.384238 2.22307 0.954505 0.0227215 0.297327
-33.4766 -3.51219 0.695625 -0.283369 -0.412665 0 -0.288889 4.99934 -0.508533 3.5652 -0.65061 0.291893 0.701075
-31.8854 0.152375 -0.856125 -0.221894 -0.206594 0 0.933333 5.02879 -0.802112 4.50562 0.0564411 -0.15471 0.986346
-37.587 3.07075 3.68775 -0.610613 0.226804 -0.50762 -0.777778 5.13642 0.734447 0.38152 0.226641 0.577705 0.78415
-32.9215 1.461 -0.2985 -0.189702 -0.21863 0 0.933333 5.17202 0.366122 4.81348 0.183105 -0.0688322 0.980681
-34.7426 -4.191 0.26325 -0.267609 -0.349475 0 -0.288889 5.31651 -0.354833 3.33204 -0.340167 0.668509 0.661349
-38.1285 -2.969 0.269125 -0.204382 0.00942778 0 -0.288889 5.42977 -0.999833 2.57578 0.843178 -0.22809 0.486853
-31.7221 -2.39494 0.657188 -0.30844 -0.319881 -0.295931 -0.340147 5.49554 -0.259311 4.00282 0.407498 0.899155 -0.159577
-37.5692 4.24862 2.59262 -0.242175 0.15504 -0.269377 -0.777778 5.56422 -0.287186 0.091825 0.374094 0.371871 0.849568
-35.9878 -4.63312 -0.051875 -0.273015 -0.26334 0 -0.241207 5.64334 -0.999864 3.11959 -0.0681136 0.630653 0.77307
-37.3666 -3.35194 -0.498563 -0.268494 -0.150244 0 -0.288889 5.73284 -0.999877 2.82669 0.371797 0.0310102 0.927796
-32.6063 -2.82525 1.547 -0.460887 -0.517158 -0.466372 -0.777778 5.79682 -0.999882 3.78881 -0.950184 0.265308 0.16359
-33.2643 4.08875 -1.24125 -0.260982 0.174999 -0.169393 0.0899142 5.95422 0.0919547 5.24728 0.454571 0.739756 0.49611
-34.08 4.646 -0.2085 -0.47229 0.136728 -0.0836404 -0.777778 5.95461 0.868088 5.50201 0.694678 0.54295 0.471834
-39.6213 1.29762 3.55437 -0.37439 0.155326 -0.00867916 -0.777778 5.95636 -0.440129 1.04817 0.233579 -0.0350575 0.971706
-32.1995 -1.76988 1.95131 -0.450837 -0.519603 -0.485475 -0.777778 5.97565 0.346242 3.94264 -0.237383 0.93881 -0.249569
-35.4398 5.106 0.462875 -0.140973 0.15987 -0.00747202 -0.777778 5.98572 0.314164 5.73561 0.568192 0.661566 0.489376
-33.8745 -4.44375 0.85425 -0.229711 -0.380717 0 -0.777778 6.02467 -0.863753 3.5652 -0.610094 0.669089 0.424388
-39.0421 3.00738 3.62512 -0.371083 0.159065 0 -0.777778 6.07267 -0.189517 0.38152 0.235222 0.228087 0.9448
-36.7305 5.051 2.075 -0.170514 0.120124 0 -0.777778 6.1981 0.48802 0.091825 0.619813 0.41907 0.663485
-31.87 1.445 -0.4295 -0.183959 -0.202095 0 0.933333 6.23177 0.424064 4.81348 0.0845076 -0.0101996 0.996371
-30.6003 -0.275 -0.702 -0.222745 -0.124838 0 0.933333 6.39184 0.47541 4.50562 0.29752 -0.343281 0.890865
-38.3061 -4.64156 1.7885 -0.317875 -0.155517 0 -0.288889 6.42717 -0.469338 2.22307 0.772696 0.573598 0.271893
-31.8743 3.232 -0.751375 -0.141749 0.179243 0 0.933333 6.47235 0.642239 5.22229 0.287089 0.611263 0.737521
-39.0392 -4.08825 3.2905 -0.343817 -0.0622225 0 -0.288889 6.51214 -0.319476 2.22307 0.866152 0.13306 0.481742
-31.0072 -2.9275 -0.510875 -0.260717 -0.203527 0 -0.777778 6.51916 -0.75846 4.00282 0.507971 0.830996 0.22674
-32.7163 -2.2705 2.6995 -0.821407 -0.581252 -0.0655108 -0.777778 6.55998 0.455057 3.94264 -0.91507 0.393282 0.0893089
-38.0385 -4.1545 0.1545 -0.237094 -0.121459 0 -0.288889 6.6242 -0.999886 2.57578 0.715193 0.39173 0.578832
-30.606 -2.2485 -1.8515 -0.350867 -0.0844635 0 0.372242 6.69631 -0.861368 4.18606 0.546423 0.113876 0.829731
-40.2346 -1.98538 4.73763 -0.207328 0.143731 0 -0.288889 6.71627 0.366468 1.91768 0.295184 0.348033 0.889797
-40.5229 -1.05625 4.39113 -0.126121 0.171517 0 -0.288889 6.74047 0.257831 1.6201 0.0563963 0.254513 0.965423
-31.183 -1.832 1.72525 -0.651407 -0.361137 -0.619464 -0.777778 6.81777 0.576835 3.94264 0.249647 0.832173 -0.49514
-33.0858 -3.63425 2.55325 -0.39717 -0.472745 -0.0935159 -0.777778 6.90155 -0.153587 3.78881 -0.882026 0.453282 0.128706
-30.376 -3.0025 0.469 -0.231141 -0.26843 0 -0.777778 6.98434 -0.624391 4.00282 0.243404 0.888192 -0.389705
-33.7136 4.56025 -2.15162 -0.225908 0.16338 -0.529218 -0.0488816 7.07357 -0.99979 5.24728 0.493744 0.799678 0.341661
-34.0807 -4.81025 1.82325 -0.262563 -0.365175 0 -0.165003 7.08098 -0.505076 3.33204 -0.396356 0.895647 0.201787
-40.1156 -3.0305 5.21513 -0.166004 0.0639841 0 -0.288889 7.09898 0.999861 1.91768 0.613754 0.0165811 0.789323
-36.3025 -5.19994 1.31463 -0.396933 -0.31062 0 0.622222 7.15584 -0.650046 3.11959 -0.135275 0.967282 0.214632
-39.8445 3.57888 4.13925 -0.23738 0.0842251 0 -0.777778 7.18388 0.617063 0.38152 0.552164 0.149121 0.820291
-36.8985 5.6195 1.235 -0.315665 0.176743 -0.430746 -0.777778 7.22622 -0.0759726 5.73561 0.577129 0.803528 0.145822
-39.1658 4.87844 2.96075 -0.131707 0.120084 0 -0.777778 7.31959 -0.264272 0.091825 0.379436 0.357608 0.853314
-36.5909 5.66354 -0.0681541 0.165558 0.201991 0 -0.777778 7.37059 -0.277079 5.73561 0.192136 0.924412 0.329462
-32.0185 -1.359 3.388 -0.66804 -0.461208 -0.457025 -0.777778 7.48086 0.999935 3.94264 -0.474648 0.844896 0.246697
-31.08 -1.29131 2.85188 -0.839707 -0.31958 -0.502738 -0.777778 7.49003 0.87458 3.94264 0.226045 0.97141 0.072571
-37.6309 -4.894 0.760625 -0.305554 -0.222623 0 0.4401 7.49483 -0.78656 3.11959 0.35599 0.853998 0.379419
-37.853 6.161 2.52325 -0.42339 0.114034 -0.114686 -0.777778 7.49879 0.999865 0.091825 0.485835 0.491831 0.722542
-29.7279 0.5895 -0.70275 -0.179654 -0.086622 0 0.933333 7.62002 0.977569 4.50562 0.440474 -0.169191 0.881678
-38.6125 -5.23581 3.59262 -0.300241 -0.149281 0 0.184466 7.63188 -0.290688 2.22307 0.552816 0.670072 0.495377
-40.6965 0.08 4.0655 -0.4047 0.133973 0 -0.288889 7.65928 -0.309121 1.04817 0.230056 0.0183663 0.973004
-37.5618 -5.33744 2.60069 -0.375937 -0.25803 0 0.622222 7.7302 -0.432898 2.22307 0.116432 0.978917 0.167823
-39.5793 -4.5735 4.28075 -0.400967 0.0604503 0 -0.288889 7.74006 0.160798 2.22307 0.666708 0.0707343 0.741955
-30.0037 -1.3065 -1.902 -0.33766 -0.0808415 0 0.754404 7.81554 -0.424233 4.18606 0.440059 -0.203184 0.87468
-32.271 -2.29513 4.08075 -0.67468 -0.398443 -0.14244 -0.777778 8.01144 0.336268 3.94264 -0.588367 0.642445 0.491007
-29.4058 -2.83725 -1.95275 -0.33613 -0.119314 0 0.422222 8.03697 -0.388537 4.18606 0.418062 0.552882 0.720795
-31.2518 3.80475 -2.079 -0.107372 0.15595 0 0.933333 8.04656 0.414665 5.22229 0.355292 0.782052 0.512017
-41.0505 2.48775 4.56675 -0.473897 0.112018 0 -0.777778 8.07389 0.363515 1.04817 0.203024 -0.106568 0.973357
-41.5761 -1.9345 4.50787 -0.204578 0.210698 0 -0.288889 8.07826 0.544704 1.91768 -0.463942 0.467623 0.752388
-33.4975 5.05875 -3.01275 -0.096876 0.133294 0 0.933333 8.09178 -0.684934 5.24728 0.306894 0.629665 0.71368
-35.4403 6.199 -1.359 -0.120619 0.148745 0 -0.0888889 8.11031 0.508466 5.73561 0.397987 0.795831 0.456354
-41.4772 1.22775 4.66525 -0.871217 0.138056 -0.649649 -0.777778 8.12046 0.916865 1.04817 -0.00352843 -0.115298 0.993325
-29.8686 -2.227 2.542 -0.454337 -0.247933 0 -0.7391 8.14435 -0.240152 3.94264 0.363008 0.900369 -0.239917
-31.7789 4.47612 -2.80687 -0.230314 0.142746 -0.225921 0.933333 8.14685 -0.140764 5.24728 0.325863 0.754509 0.569675
-33.3517 -4.48987 3.43613 -0.318732 -0.386415 0 -0.777778 8.15943 -0.678108 3.78881 -0.704637 0.708257 0.0431058
-41.7721 -1.25794 3.68622 -0.246846 0.247083 -0.0967526 -0.40594 8.18895 -0.126123 1.6201 -0.822648 0.114956 0.556808
-29.097 -2.62 1.232 -0.0443953 -0.258866 0.708644 -0.155556 8.19224 0.0901163 4.00282 -0.0665671 0.910376 -0.408392
-29.9776 2.01312 -0.830625 -0.131788 -0.136088 0 0.933333 8.24791 0.515179 4.81348 0.295472 0.380909 0.876131
-41.2697 -3.31787 5.51263 -0.0587577 0.157956 0 -0.288889 8.32496 0.99991 1.91768 -0.228896 0.144192 0.962713
-34.5864 5.55737 -2.37337 -0.085381 0.11819 -0.411631 0.194682 8.35747 -0.441475 5.50201 0.655781 0.638033 0.403565
-34.1722 -4.98475 3.09775 -0.222041 -0.340697 0 0.622222 8.37062 -0.5295 3.33204 -0.287157 0.953252 0.0940841
-40.2899 4.84462 3.888 -0.154787 0.108586 0 -0.777778 8.54902 0.409007 0.091825 0.428523 0.453485 0.781486
-37.6167 -5.52175 3.63175 -0.326966 -0.248246 0 0.622222 8.66866 -0.309424 2.22307 -0.0906204 0.930519 0.354856
-40.8904 -4.4085 5.07013 -0.258394 0.131723 0 -0.288889 8.6865 0.345272 1.91768 -0.0705653 -0.348085 0.934803
-41.0871 4.13737 4.7885 -0.180523 0.137939 0 -0.777778 8.69301 0.999891 1.04817 -0.0134583 0.342001 0.939603
-28.9322 -3.57475 -0.422312 -0.259733 -0.206146 0.0518446 -0.157184 8.69457 -0.429332 4.00282 0.177193 0.948521 -0.26251
-38.9025 6.7615 2.2985 -0.396377 0.16261 -0.723265 -0.777778 8.72865 0.999884 0.091825 0.000183148 0.796149 0.605101
-29.0264 -0.8405 -2.34175 -0.41057 -0.0518334 0 0.666653 8.734 -0.298712 4.50562 0.559273 -0.22417 0.798099
-42.1297 0.21025 4.2505 -0.556203 0.183381 -0.251309 -0.777778 8.79123 0.496907 1.04817 -0.463454 -0.274326 0.842589
-37.9227 6.81687 1.29125 -0.52478 0.176156 -0.0116655 -0.777778 8.80287 0.999877 5.73561 0.375133 0.923679 -0.0780551
-37.0251 6.31684 -1.27375 -0.104952 0.190993 0 -0.0888889 8.80892 0.0979277 5.73561 -0.110117 0.900605 0.420458
-35.5205 -4.9905 2.8695 -0.362307 -0.330632 0 0.622222 8.86988 0.475207 3.11959 -0.102899 0.986652 0.126215
-40.337 -5.247 4.9125 -0.54352 0.160481 -0.475689 -0.288889 8.93455 -0.0814939 2.22307 -0.235348 0.233348 0.943483
-33.0223 -3.958 4.60862 -0.405587 -0.36843 0 -0.777778 8.98323 -0.0475736 3.78881 -0.676776 0.735773 0.0247489
-29.779 3.11438 -2.143 -0.0635323 0.132037 0 0.933333 8.99043 0.462161 5.22229 0.436958 0.725056 0.532317
-38.1272 6.00931 -0.45575 0.108842 0.205311 0 -0.0888889 8.99232 -0.187533 5.73561 0.135601 0.983445 -0.120204
-39.8805 6.407 2.3535 -0.216176 0.157823 -0.596574 -0.777778 9.11292 0.0722123 0.091825 0.0555998 0.834161 0.548712
-30.534 -2.024 4.2795 -0.706847 -0.27651 -0.563177 -0.777778 9.18503 -0.0403753 3.94264 -0.0501962 0.987192 0.151435
-33.317 5.9805 -3.6345 -0.06924 0.130609 -0.372553 0.933333 9.21818 0.243371 5.24728 0.237444 0.751846 0.615101
-28.9252 1.9085 -1.19237 -0.121453 -0.0862458 0 0.933333 9.23984 0.999869 4.81348 0.640734 0.386869 0.663168
-42.217 2.568 4.372 -0.524177 0.166926 0 -0.777778 9.25926 0.39463 1.04817 -0.421686 -0.00642154 0.906719
-36.4033 -5.22025 3.798 -0.307738 -0.290848 0 0.622222 9.40035 0.63504 2.22307 -0.192443 0.937573 0.289695
-42.0901 -3.38044 4.73325 -0.0941403 0.209357 0 -0.288889 9.45828 0.747616 1.91768 -0.827295 0.00828891 0.561706
-40.8469 6.1535 3.4435 -0.125914 0.135104 0 -0.777778 9.48406 0.999874 0.091825 0.128493 0.729327 0.671991
-42.0288 3.59275 4.5445 -0.22957 0.16911 0 -0.777778 9.5499 0.742546 1.04817 -0.480291 0.13937 0.865966
-36.1656 7.14062 -2.26456 -0.04501 0.150355 0 -0.0888889 9.60455 0.999845 5.73561 0.226194 0.925586 0.303524
-42.4468 -2.0485 2.633 -0.41063 0.225176 0 -0.288889 9.66864 -0.391789 1.6201 -0.822443 0.0439963 0.567143
-27.8848 -3.35856 -2.33444 -0.236243 -0.117437 0 0.422222 9.68951 -0.19103 4.18606 0.404983 0.764178 0.502016
-28.2756 0.54275 -2.18088 -0.234184 -0.0416612 0 0.933333 9.69276 0.141038 4.50562 0.653411 -0.0426828 0.755799
-30.0975 4.0525 -3.2405 -0.0346543 0.124436 0 0.933333 9.70272 0.165923 5.24728 0.401478 0.765056 0.503492
-41.4459 5.14194 3.975 -0.152148 0.155721 0 -0.777778 9.7458 0.444238 0.091825 -0.247794 0.510356 0.823489
-37.0402 -5.822 4.5435 -0.244789 -0.246443 0 0.622222 9.78839 0.436613 2.22307 -0.347204 0.810193 0.472268
-28.3189 -2.3435 3.09025 0.0556827 -0.226227 0.50114 -0.777778 9.79229 -0.482234 3.94264 -0.130167 0.986324 -0.101103
-27.5492 -2.51375 0.8025 -0.0619087 -0.228561 0.0113925 -0.155556 9.80204 -0.120599 4.00282 -0.263077 0.713557 -0.649328
-35.0695 6.84575 -2.92475 -0.0080558 0.135611 0 -0.0888889 9.83981 0.507997 5.50201 0.406296 0.869166 0.281912
-31.6414 5.8905 -3.73125 -0.6529 0.116843 -0.212067 0.933333 9.84209 0.999875 5.24728 0.401986 0.77649 0.485253
-27.9172 -2.3765 -2.96 -0.376537 -0.0642848 0 0.422222 9.89244 -0.233177 4.18606 0.581996 0.252982 0.77284
-39.406 6.85775 1.17025 -0.289068 0.189192 -0.444541 -0.777778 9.96789 0.505985 0.091825 -0.0527962 0.998553 -0.0101789
-43.0871 1.57525 3.7945 -0.784183 0.192899 -0.0612437 -0.777778 9.98345 0.837786 1.04817 -0.765179 -0.186942 0.61608
-34.769 -5.28237 4.57438 -0.310572 -0.317562 0 0.472631 9.99087 -0.489743 3.78881 -0.440406 0.895197 -0.0683023
-27.897 -4.00575 -1.309 -0.584057 -0.163092 0 0.422222 10.051 -0.999884 4.00282 0.113007 0.983211 0.143266
-30.7458 5.03088 -4.33475 -0.248914 0.104263 -0.773256 0.933333 10.0728 -0.077099 5.24728 0.558047 0.729552 0.395395
-42.4011 -3.13925 3.435 -0.35095 0.23376 0 -0.288889 10.1885 0.415678 1.6201 -0.95444 0.108251 0.278077
-42.7577 -0.231688 2.256 -0.441463 0.214334 -0.829375 -0.777778 10.2064 -0.49933 1.04817 -0.776429 -0.137096 0.615112
-34.3316 6.79838 -3.889 0.165188 0.127503 0.786218 0.933333 10.2107 0.476155 5.24728 0.363371 0.866528 0.342184
-39.3888 -6.33588 5.80237 -0.163987 -0.172585 0 0.622222 10.2195 -0.0663983 2.22307 -0.0383378 0.914225 0.403388
-28.8137 2.85 -2.93937 0.00363343 0.0916897 0.11007 0.0420589 10.2695 -0.159635 5.22229 0.588063 0.549134 0.59383
-27.3611 -1.5905 1.81975 -0.126052 -0.221713 0 -0.155556 10.2943 0.603516 4.00282 -0.363097 0.920535 -0.144137
-37.0859 -6.42944 5.42169 -0.218864 -0.206322 0 0.622222 10.2966 -0.812193 2.22307 -0.133285 0.924278 0.357694
-32.5255 -4.007 5.828 -0.40946 -0.280913 0 -0.149668 10.3008 -0.415664 3.78881 -0.477079 0.829495 0.290403
-29.9763 -1.939 5.25131 -0.205173 -0.289162 0 -0.777778 10.3087 -0.0916818 3.94264 -0.52254 0.817588 -0.24187
-43.0135 2.919 3.737 -0.383727 0.193813 0 -0.777778 10.3367 0.600167 1.04817 -0.797274 0.168796 0.579536
-31.387 -3.21175 6.058 -0.489047 -0.284584 -0.551445 -0.777778 10.3633 -0.370034 3.94264 -0.675592 0.718291 0.166235
-27.7307 -1.12587 -3.318 -0.4584 -0.0556393 -0.130805 0.160383 10.3812 -0.665309 4.50562 0.465009 -0.158384 0.871023
-38.7724 5.88963 -1.7045 0.193682 0.207989 0.133126 -0.139282 10.403 -0.220296 5.73561 -0.242102 0.970251 -0.000338608
-27.1951 -3.55075 -0.111125 -0.455073 -0.205944 -0.648432 -0.155556 10.4595 -0.999858 4.00282 -0.268874 0.776091 -0.57043
-41.1557 6.58269 1.94638 -0.0897697 0.179045 0 -0.777778 10.463 0.538958 0.091825 -0.281334 0.942512 0.18034
-39.3445 6.4515 0.2445 -0.0457873 0.19688 0 -0.777778 10.4646 -0.136658 5.73561 0.119377 0.921142 -0.370468
-42.1951 -4.93669 3.83363 -0.405833 0.201013 -0.0483396 -0.288889 10.56 0.27189 1.91768 -0.882318 -0.162969 0.441538
-39.7048 5.94025 -0.8125 -0.0112037 0.187265 -0.73905 -0.44964 10.6112 -0.706463 5.73561 0.187615 0.944322 -0.27029
-41.806 -6.0655 4.664 -0.339903 0.166362 -0.444224 -0.288889 10.6345 0.999887 2.22307 -0.668142 -0.13767 0.731186
-42.5649 4.24325 3.52925 -0.236719 0.183384 0 -0.777778 10.6374 0.230999 1.04817 -0.666223 0.382737 0.640046
-43.2521 -1.776 2.00638 -0.546803 0.171811 -0.1622 -0.777778 10.7248 -0.0637241 1.6201 -0.520021 -0.0834216 0.85007
-37.5041 6.96919 -3.05225 -0.0189734 0.192719 0 -0.0888889 10.7629 0.999833 5.73561 -0.377607 0.920658 -0.0990016
-34.4007 -4.5955 5.6 -0.490827 -0.323712 0 0.422222 10.7969 0.629453 3.78881 -0.54596 0.829982 -0.114273
-32.8503 6.353 -5.11163 -0.101404 0.125613 -0.125295 0.933333 10.8114 0.176075 5.24728 0.398683 0.908971 0.121753
-26.6472 -2.07825 0.52075 -0.210839 -0.213248 0 -0.155556 10.8425 0.487619 4.00282 -0.429878 0.707136 -0.561395
-28.0018 1.56387 -2.80487 -0.21852 -0.0876158 -0.509495 -0.238453 10.9204 0.0538795 4.50562 0.454166 0.41808 0.786729
-40.7697 -7.24625 4.67725 -0.16182 0.170916 0 0.20411 10.9936 0.187267 2.22307 -0.714739 -0.526074 0.460863
-28.7354 -1.89062 4.48138 0.131733 -0.242278 0.537714 -0.777778 10.9998 -0.190685 3.94264 -0.134073 0.9067 -0.399899
-40.3257 -7.13325 6.0125 -0.106588 0.195892 0 0.622222 11.1181 0.364511 2.22307 -0.902043 0.354241 0.246639
-35.9019 -5.79362 5.36525 -0.244153 -0.262754 0 0.622222 11.1429 -0.18642 3.11959 -0.443094 0.872622 0.205424
-27.1737 -2.05825 3.749 0.145123 -0.201112 0 -0.777778 11.1439 -0.513511 3.94264 -0.225108 0.967995 -0.110962
-26.9942 0.754 -2.8785 -0.631113 -0.0683858 -0.255596 -0.777778 11.167 0.425699 4.50562 0.409941 0.118383 0.904397
-42.7841 -3.36331 1.97894 -0.300786 0.199936 0 -0.661549 11.1754 -0.38162 1.6201 -0.787829 -0.144723 0.598649
-35.6842 6.7385 -4.14463 0.214431 0.17586 0.0447778 0.771664 11.21 0.260044 5.50201 -0.0679961 0.980429 -0.184757
-42.4618 5.8275 2.869 -0.120945 0.178843 0 -0.777778 11.2288 0.999857 0.091825 -0.637805 0.660288 0.396517
-28.719 3.87881 -3.90337 0.302781 -0.107858 0.645963 -0.777778 11.2421 0.0596054 5.24728 0.262472 0.655406 0.708203
-26.9059 -3.06125 -3.65313 -0.182421 -0.0713375 0 0.422222 11.2967 -0.885491 4.18606 0.443126 0.344826 0.827487
-31.368 5.66087 -5.18412 -0.41508 0.127063 -0.0285411 0.933333 11.2998 0.353382 5.24728 0.520316 0.838713 -0.160721
-26.5276 -4.14087 -2.73962 -0.302821 -0.122919 0 0.422222 11.3076 -0.93533 4.18606 0.296119 0.935602 0.192256
-37.878 -6.53662 6.06738 -0.320401 -0.191141 0 0.622222 11.3241 -0.406608 2.22307 0.0806288 0.996742 0.00230739
-43.381 3.104 2.787 -0.50053 0.199997 0 -0.777778 11.372 -0.581702 1.04817 -0.901441 0.172538 0.397031
-39.8204 -6.49412 6.95056 -0.113353 -0.199046 0 0.622222 11.4563 0.438333 2.22307 -0.617739 0.785837 0.0292997
-43.4664 0.37225 1.41225 -0.43811 0.20724 -0.949832 -0.777778 11.463 -0.265443 1.04817 -0.876384 -0.0627596 0.477507
-43.7072 2.09175 2.51425 -0.662943 0.20636 -0.0961542 -0.777778 11.4968 0.594798 1.04817 -0.958642 0.0444668 0.281118
-26.4788 -3.63587 -1.1685 -0.308203 -0.180563 -0.0359081 -0.155556 11.5233 -0.117488 4.00282 -0.206981 0.868101 -0.451177
-29.5845 4.83375 -5.30675 0.0030705 0.142954 -0.0432855 -0.595916 11.6 0.0839384 5.24728 -0.0745364 0.968644 0.237007
-40.514 6.117 -1.481 -0.244728 0.185073 -0.50191 -0.355556 11.6756 0.421098 5.73561 -0.0380038 0.944558 -0.326137
-40.4695 6.58025 -0.303 -0.061669 0.180676 0 -0.777778 11.7224 0.566356 5.73561 0.0639368 0.939037 -0.337818
-33.7808 -4.35275 7.259 -0.49901 -0.232414 0 0.422222 11.7681 0.711429 3.78881 -0.30399 0.887822 0.345489
-31.2589 -2.88775 7.42325 -0.124684 -0.256385 0.645326 -0.777778 11.7723 0.0729631 3.94264 -0.944353 0.24938 0.214491
-26.4485 -0.59525 -3.5235 -0.37216 -0.0425466 -0.894432 -0.777778 11.784 0.34537 4.50562 0.516476 -0.235326 0.823331
-34.301 6.70875 -5.48475 0.0713683 0.147528 0.0221205 0.933333 11.8093 -0.0239482 5.24728 -0.0146838 0.992236 0.123496
-26.3416 -1.54663 2.94225 -0.0907273 -0.182287 0 -0.155556 11.8113 0.2302 4.00282 -0.292567 0.943917 0.153052
-36.7781 -6.53188 6.914 -0.274894 -0.202152 0 0.564384 11.8238 -0.548748 2.22307 -0.216885 0.972193 0.0883307
-30.886 -2.0955 6.865 -0.052242 -0.287138 0.559849 -0.777778 11.829 0.422174 3.94264 -0.812348 0.52618 -0.251447
-39.7295 5.75619 -2.7725 -0.41846 0.195805 -0.119324 -0.355556 11.8433 0.328243 5.73561 -0.107908 0.855482 -0.506464
-40.336 -8.1225 5.43937 -0.0817083 0.188388 0 0.622222 11.8579 0.164308 2.22307 -0.944471 -0.323984 -0.0548503
3 169 199 113
3 171 113 199
3 113 161 169
3 113 104 159
3 104 123 159
3 104 99 123
3 104 113 83
3 175 159 143
3 175 143 127
3 175 127 163
3 143 123 96
3 123 89 96
3 62 63 89
3 96 89 63
3 57 80 33
3 33 80 55
3 82 80 103
3 57 83 80
3 122 103 132
3 80 83 113
3 146 184 182
3 172 165 140
3 165 191 114
3 114 191 150
3 139 92 121
3 121 92 88
3 121 88 125
3 22 47 29
3 81 92 109
3 109 63 81
3 109 96 63
3 26 63 62
3 29 26 6
3 26 30 8
3 26 8 6
3 103 122 82
3 112 82 122
3 122 172 112
3 112 68 70
3 68 112 101
3 65 85 59
3 197 153 192
3 186 185 139
3 139 185 144
3 162 152 125
3 125 152 121
3 105 131 162
3 131 105 102
3 131 102 124
3 105 71 102
3 102 71 73
3 36 51 22
3 71 88 51
3 41 36 19
3 19 24 41
3 5 16 7
3 7 22 13
3 7 13 2
3 22 29 13
3 21 42 38
3 70 68 38
3 21 38 34
3 10 27 14
3 27 59 48
3 48 64 40
3 64 93 40
3 93 76 118
3 93 118 133
3 133 118 170
3 85 118 76
3 117 157 124
3 138 117 107
3 117 124 73
3 107 117 73
3 138 110 158
3 72 116 110
3 78 52 72
3 52 78 41
3 24 25 49
3 24 19 5
3 11 5 4
3 0 5 2
3 7 2 5
3 1 8 9
3 18 3 14
3 0 1 3
3 1 9 3
3 9 10 3
3 21 34 10
3 37 18 35
3 79 53 54
3 35 54 53
3 53 79 98
3 108 54 84
3 108 84 86
3 106 66 97
3 167 134 148
3 134 97 148
3 133 173 148
3 148 173 195
3 86 128 137
3 189 190 160
3 160 198 189
3 111 164 155
3 164 126 176
3 111 116 74
3 111 74 91
3 126 111 91
3 91 49 100
3 45 31 56
3 46 31 45
3 31 25 15
3 15 25 11
3 11 4 15
3 15 4 12
3 37 53 31
3 168 129 174
3 108 137 154
3 129 168 147
3 145 166 194
3 145 119 166
3 119 136 166
3 136 119 90
3 180 142 188
3 142 136 94
3 142 94 130
3 90 94 136
3 87 94 56
3 87 56 115
3 115 56 98
3 56 31 53
3 130 178 188
3 100 145 135
3 145 176 135
3 135 176 126
3 172 132 149
3 146 113 171
3 146 171 184
3 96 127 143
3 33 30 57
3 55 80 82
3 149 103 80
3 149 80 146
3 149 146 182
3 146 80 113
3 132 103 149
3 196 172 149
3 182 196 149
3 112 172 140
3 140 95 101
3 101 112 140
3 114 95 140
3 114 140 165
3 85 114 150
3 109 144 96
3 127 96 144
3 127 144 163
3 51 88 47
3 51 47 22
3 47 88 92
3 29 47 63
3 63 47 81
3 81 47 92
3 26 29 63
3 17 8 30
3 17 30 33
3 70 82 112
3 95 65 68
3 95 68 101
3 118 85 153
3 153 151 118
3 197 151 153
3 124 102 73
3 51 73 71
3 41 73 51
3 41 51 36
3 9 8 23
3 9 23 20
3 20 23 28
3 28 23 43
3 43 23 39
3 33 39 17
3 17 39 23
3 17 23 8
3 77 42 60
3 60 42 43
3 42 77 70
3 55 77 60
3 55 60 33
3 33 60 39
3 39 60 43
3 43 42 28
3 82 70 77
3 82 77 55
3 21 28 42
3 38 42 70
3 34 38 50
3 34 50 65
3 65 50 68
3 68 50 38
3 27 34 44
3 44 65 59
3 65 44 34
3 10 34 27
3 59 27 44
3 14 40 32
3 40 27 48
3 27 40 14
3 58 32 40
3 58 40 66
3 93 97 40
3 40 97 66
3 133 97 93
3 151 170 118
3 128 187 181
3 138 157 117
3 116 158 110
3 52 49 72
3 11 24 5
3 4 5 0
3 12 4 3
3 12 3 18
3 3 4 0
3 20 10 9
3 10 20 28
3 10 28 21
3 15 12 18
3 15 18 37
3 14 32 18
3 18 32 35
3 35 32 54
3 86 61 58
3 61 84 54
3 58 61 32
3 106 86 58
3 66 106 58
3 32 61 54
3 86 84 61
3 128 86 141
3 141 86 106
3 106 156 141
3 128 141 187
3 187 141 156
3 156 106 134
3 167 187 156
3 167 156 134
3 133 148 97
3 154 137 179
3 128 179 137
3 181 179 128
3 158 160 190
3 116 155 160
3 116 160 158
3 160 155 198
3 111 155 116
3 119 145 90
3 90 100 67
3 67 100 46
3 100 90 145
3 94 90 67
3 56 94 45
3 45 94 67
3 45 67 46
3 24 11 25
3 37 31 15
3 154 174 129
3 129 108 154
3 193 174 154
3 130 188 142
3 87 130 94
3 115 130 87
3 53 98 56
3 130 147 178
3 115 147 130
3 161 113 159
3 123 143 159
3 99 104 69
3 99 69 62
3 62 89 99
3 99 89 123
3 57 30 69
3 57 69 83
3 83 69 104
3 69 30 62
3 92 139 109
3 139 144 109
3 30 26 62
3 132 172 122
3 114 85 65
3 114 65 95
3 121 152 139
3 186 139 152
3 186 152 183
3 105 125 88
3 105 88 71
3 105 162 125
3 16 36 22
3 16 22 7
3 5 19 16
3 19 36 16
3 1 6 8
3 6 1 2
3 6 2 13
3 6 13 29
3 75 59 85
3 75 85 76
3 76 93 64
3 76 64 48
3 76 48 75
3 75 48 59
3 131 177 162
3 124 157 177
3 124 177 131
3 110 138 107
3 107 78 110
3 78 107 73
3 78 73 41
3 110 78 72
3 41 24 52
3 52 24 49
3 1 0 2
3 14 3 10
3 79 54 108
3 106 97 134
3 133 170 173
3 111 126 164
3 74 49 91
3 25 31 46
3 25 46 49
3 100 49 46
3 37 35 53
3 108 129 79
3 79 129 120
3 79 120 98
3 108 86 137
3 176 145 194
3 135 126 100
3 91 100 126
3 136 142 180
3 136 180 166
3 120 129 147
3 147 115 120
3 120 115 98
3 150 153 85
3 72 49 74
3 72 74 116
