ply
format ascii 1.0
comment Generated by PyMesh
element vertex 200
property float x
property float y
property float z
property float charge
property float ddc
property float hbond
property float hphob
property float rho
property float si
property float theta
property float nx
property float ny
property float nz
element face 342
property list uchar int vertex_indices
end_header
-41.2697 -3.31787 5.51263 -0.0587577 0 0 -0.288889 1e-08 0.99991 2.22045e-16 -0.228896 0.144192 0.962713
-42.0901 -3.38044 4.73325 -0.0941403 0.596376 0 -0.288889 1.13332 0.747616 4.58374 -0.827295 0.00828891 0.561706
-40.1156 -3.0305 5.21513 -0.166004 0 0 -0.288889 1.22598 0.999861 1.6786 0.613754 0.0165811 0.789323
-40.8904 -4.4085 5.07013 -0.258394 0.440974 0 -0.288889 1.23659 0.345272 2.22045e-16 -0.0705653 -0.348085 0.934803
-41.5761 -1.9345 4.50787 -0.204578 0.235766 0 -0.288889 1.73699 0.544704 3.27989 -0.463942 0.467623 0.752388
-40.2346 -1.98538 4.73763 -0.207328 0.333536 0 -0.288889 1.85677 0.366468 2.43793 0.295184 0.348033 0.889797
-40.337 -5.247 4.9125 -0.54352 -0.0441738 -0.475689 -0.288889 2.25353 -0.0814939 0.0911059 -0.235348 0.233348 0.943483
-42.4011 -3.13925 3.435 -0.35095 0.397455 0 -0.288889 2.48991 0.415678 4.3926 -0.95444 0.108251 0.278077
-39.5793 -4.5735 4.28075 -0.400967 0.40203 0 -0.288889 2.77585 0.160798 0.716813 0.666708 0.0707343 0.741955
-41.7721 -1.25794 3.68622 -0.246846 0.236084 -0.0967526 -0.40594 2.81924 -0.126123 3.5682 -0.822648 0.114956 0.556808
-40.5229 -1.05625 4.39113 -0.126121 0.137301 0 -0.288889 2.88946 0.257831 2.91926 0.0563963 0.254513 0.965423
-42.1951 -4.93669 3.83363 -0.405833 0.334377 -0.0483396 -0.288889 2.93394 0.27189 5.26555 -0.882318 -0.162969 0.441538
-38.8596 -2.3095 3.33262 -0.32831 0.370079 0 -0.288889 3.60111 0.128489 1.84023 0.836238 -0.206014 0.508196
-39.0392 -4.08825 3.2905 -0.343817 0.384146 0 -0.288889 3.67173 -0.319476 1.16003 0.866152 0.13306 0.481742
-42.4468 -2.0485 2.633 -0.41063 0.197095 0 -0.288889 3.84454 -0.391789 4.06134 -0.822443 0.0439963 0.567143
-39.3888 -6.33588 5.80237 -0.163987 -0.271544 0 0.622222 3.94959 -0.0663983 0.225193 -0.0383378 0.914225 0.403388
-41.806 -6.0655 4.664 -0.339903 0.178521 -0.444224 -0.288889 3.95343 0.999887 5.72668 -0.668142 -0.13767 0.731186
-42.7841 -3.36331 1.97894 -0.300786 0.175657 0 -0.661549 4.01208 -0.38162 4.51817 -0.787829 -0.144723 0.598649
-40.6965 0.08 4.0655 -0.4047 -0.14366 0 -0.288889 4.08413 -0.309121 2.9625 0.230056 0.0183663 0.973004
-38.6125 -5.23581 3.59262 -0.300241 0.286104 0 0.184466 4.13485 -0.290688 0.844769 0.552816 0.670072 0.495377
-38.5714 -0.836875 3.46025 -0.218405 0.176314 0.173197 -0.641544 4.24779 0.0855594 2.28876 0.391656 -0.137736 0.909744
-40.7697 -7.24625 4.67725 -0.16182 0.231027 0 0.20411 4.31256 0.187267 5.93565 -0.714739 -0.526074 0.460863
-42.1297 0.21025 4.2505 -0.556203 -0.122542 -0.251309 -0.777778 4.43227 0.496907 3.32067 -0.463454 -0.274326 0.842589
-40.3257 -7.13325 6.0125 -0.106588 -0.240035 0 0.622222 4.43712 0.364511 0.0574385 -0.902043 0.354241 0.246639
-42.3643 -4.956 2.285 -0.295219 0.286685 0 -0.288889 4.49191 -0.112129 5.01914 -0.933146 -0.299697 0.198547
-42.7577 -0.231688 2.256 -0.441463 0.138609 -0.829375 -0.777778 4.83669 -0.49933 3.71504 -0.776429 -0.137096 0.615112
-41.8543 -6.81925 3.45994 -0.00523467 0.325267 0.00167843 -0.288889 4.88326 0.999855 5.50423 -0.776072 -0.630333 -0.0198401
-43.2521 -1.776 2.00638 -0.546803 0.0794135 -0.1622 -0.777778 4.90067 -0.0637241 4.10981 -0.520021 -0.0834216 0.85007
-37.6167 -5.52175 3.63175 -0.326966 0.213963 0 0.622222 5.17163 -0.309424 0.865269 -0.0906204 0.930519 0.354856
-40.336 -8.1225 5.43937 -0.0817083 0.262812 0 0.622222 5.1769 0.164308 6.1276 -0.944471 -0.323984 -0.0548503
-39.8204 -6.49412 6.95056 -0.113353 -0.307643 0 0.622222 5.18639 0.438333 0.164794 -0.617739 0.785837 0.0292997
-38.6023 -3.22781 1.86181 -0.417577 0.311428 0 -0.288889 5.35404 -0.384238 1.48006 0.954505 0.0227215 0.297327
-38.1974 -2.14069 1.66594 -0.293067 0.290224 0 -0.486149 5.40245 -0.508741 1.69289 0.787496 -0.564312 0.247794
-43.7235 -4.16962 1.3335 -0.250244 0.0636823 0 -0.777778 5.40822 0.236156 4.61496 -0.368419 -0.150679 0.917368
-38.7046 0.434438 3.35763 -0.294465 -0.0733671 -0.248894 -0.777778 5.45783 -0.684717 2.54857 -0.017559 -0.0932078 0.995492
-37.878 -6.53662 6.06738 -0.320401 -0.280201 0 0.622222 5.49654 -0.406608 0.345235 0.0806288 0.996742 0.00230739
-42.846 -4.95762 1.38975 -0.253507 0.147306 0 -0.539807 5.50852 -0.210694 4.85395 -0.49883 -0.472741 0.726419
-39.6213 1.29762 3.55437 -0.37439 0.105314 -0.00867916 -0.777778 5.54535 -0.440129 2.70978 0.233579 -0.0350575 0.971706
-37.5618 -5.33744 2.60069 -0.375937 0.235097 0 0.622222 5.58337 -0.432898 0.924344 0.116432 0.978917 0.167823
-41.4772 1.22775 4.66525 -0.871217 -0.0850869 -0.649649 -0.777778 5.59626 0.916865 3.1608 -0.00352843 -0.115298 0.993325
-37.4189 -1.511 2.14619 -0.198334 0.250497 0 -0.777778 5.63109 -0.105665 1.95378 0.361916 -0.871285 0.331481
-40.3124 -7.47781 3.41987 -0.112871 0.323265 0.240844 -0.288889 5.6704 -0.0424891 5.80007 -0.570349 -0.785454 -0.240342
-44.243 -3.201 1.1145 -0.36229 0.0984739 -0.518956 -0.777778 5.7156 -0.0519475 4.44267 -0.699789 -0.0724048 0.710671
-41.9191 -5.97325 1.76713 -0.196 0.288897 0 -0.288889 5.71714 0.163624 5.12353 -0.650974 -0.758477 0.0307479
-40.3073 -8.2845 7.0405 -0.250848 0.21347 0 0.622222 5.98066 0.503443 6.14461 -0.983741 -0.144484 0.106671
-38.3061 -4.64156 1.7885 -0.317875 0.268529 0 -0.288889 6.05887 -0.469338 0.924344 0.772696 0.573598 0.271893
-43.4664 0.37225 1.41225 -0.43811 0.131437 -0.949832 -0.777778 6.09324 -0.265443 3.71504 -0.876384 -0.0627596 0.477507
-43.0871 1.57525 3.7945 -0.784183 -0.121944 -0.0612437 -0.777778 6.16079 0.837786 3.32067 -0.765179 -0.186942 0.61608
-44.2265 -1.16675 1.407 -0.580857 0.100194 -0.14629 -0.777778 6.19678 0.57672 4.10981 -0.739751 0.220711 0.635654
-36.6226 -0.83575 3.69537 -0.0266754 0.147863 0.742941 -0.777778 6.21072 0.999884 1.95378 0.20358 -0.500822 0.841268
-37.0859 -6.42944 5.42169 -0.218864 -0.188576 0 0.622222 6.28562 -0.812193 0.345235 -0.133285 0.924278 0.357694
-37.0402 -5.822 4.5435 -0.244789 -0.162304 0 0.622222 6.29136 0.436613 0.865269 -0.347204 0.810193 0.472268
-44.481 -2.173 1.411 -0.471517 0.115287 -0.634344 -0.777778 6.32274 0.942526 4.44267 -0.771995 -0.0660557 0.632187
-36.4033 -5.22025 3.798 -0.307738 0.186986 0 0.622222 6.43293 0.63504 0.865269 -0.192443 0.937573 0.289695
-40.364 -7.339 7.8165 -0.106214 -0.19421 0 0.622222 6.51272 0.999892 6.14461 -0.928574 0.228913 0.292146
-44.2975 -5.0985 0.976 -0.259578 0.0910786 0 -0.777778 6.55717 0.698935 4.61496 -0.335261 -0.363691 0.869096
-39.72 -9.3495 5.1955 -0.207814 0.233915 0 0.622222 6.57134 0.545022 6.1276 -0.880232 -0.386669 -0.275096
-38.5578 -5.97625 7.695 -0.145536 -0.27738 0 0.622222 6.74091 0.999874 0.164794 -0.022914 0.993538 0.111163
-40.957 -6.576 1.7615 -0.102189 0.319038 0 -0.288889 6.81949 -0.106948 5.12353 -0.459778 -0.841891 -0.28253
-36.7781 -6.53188 6.914 -0.274894 -0.20864 0 0.564384 6.88455 -0.548748 0.345235 -0.216885 0.972193 0.0883307
-41.3828 -6.0725 0.728 -0.199989 0.267842 0 -0.288889 6.89071 -0.516383 5.12353 -0.266816 -0.963376 -0.0267447
-41.0505 2.48775 4.56675 -0.473897 -0.0945532 0 -0.777778 6.93019 0.363515 3.1608 0.203024 -0.106568 0.973357
-45.1165 -4.48737 0.769 -0.22781 0.0875808 0 -0.777778 6.94447 0.999883 4.61496 -0.726908 -0.0429006 0.685394
-39.2227 -8.85181 4.25631 -0.15133 0.272534 0 0.622222 6.95762 -0.2882 6.1276 -0.697007 -0.510394 -0.503666
-38.1285 -2.969 0.269125 -0.204382 0.208963 0 -0.288889 7.02785 -0.999833 1.69289 0.843178 -0.22809 0.486853
-42.5382 -6.08794 0.34725 -0.289453 0.185242 -0.705661 -0.760553 7.0767 -0.142745 5.12353 0.030004 -0.835853 0.548133
-39.757 -9.28 6.953 -0.319286 0.181884 0 0.622222 7.1215 0.22262 6.14461 -0.878225 -0.449744 0.162637
-37.416 -1.8825 0.155 -0.18782 0.16843 0.00899123 -0.546584 7.12297 -0.999882 1.69289 0.413356 -0.677452 0.608436
-37.097 0.353 3.8695 -0.191528 0.0946373 0.168642 -0.777778 7.14692 0.457865 2.54857 0.176704 -0.136258 0.974787
-42.217 2.568 4.372 -0.524177 -0.0344968 0 -0.777778 7.15497 0.39463 3.1608 -0.421686 -0.00642154 0.906719
-39.2218 -6.73138 8.81181 -0.051944 -0.125801 0 0.622222 7.15587 0.864378 0.164794 -0.384019 0.697497 0.605002
-35.9363 -1.14137 2.40313 -0.153274 0.209763 0 -0.777778 7.18053 0.632526 1.95378 0.578249 -0.734484 0.355191
-37.6309 -4.894 0.760625 -0.305554 0.179223 0 0.4401 7.31432 -0.78656 0.924344 0.35599 0.853998 0.379419
-39.8947 -7.20087 1.83025 -0.162095 0.267265 0.0702385 0.535553 7.33715 -0.439735 5.80007 -0.630199 -0.758222 -0.167178
-39.0421 3.00738 3.62512 -0.371083 0.0761093 0 -0.777778 7.35194 -0.189517 2.70978 0.235222 0.228087 0.9448
-38.0385 -4.1545 0.1545 -0.237094 0.173621 0 -0.288889 7.3768 -0.999886 1.48006 0.715193 0.39173 0.578832
-36.1942 -1.52581 0.898938 -0.03695 0.177807 0.335718 -0.777778 7.37916 -0.0563223 1.95378 0.200794 -0.884774 0.420543
-36.3025 -5.19994 1.31463 -0.396933 0.163364 0 0.622222 7.38856 -0.650046 0.924344 -0.135275 0.967282 0.214632
-43.9055 1.411 0.7435 -0.38372 0.108464 -0.647603 -0.731169 7.40436 -0.263171 3.71504 -0.874578 -0.0774757 0.478656
-38.9986 -7.99137 2.27875 -0.178566 0.235678 0 0.622222 7.48478 -0.466468 5.80007 -0.620734 -0.776492 -0.1084
-43.0135 2.919 3.737 -0.383727 0.0932294 0 -0.777778 7.50778 0.600167 3.1608 -0.797274 0.168796 0.579536
-45.0146 -2.96869 -0.523188 -0.217412 0.136948 0 -0.777778 7.5408 -0.0283598 4.44267 -0.936592 0.267243 0.226664
-37.558 1.975 4.17487 -0.629307 0.0539206 -0.614733 -0.777778 7.54491 0.779585 2.54857 0.0352649 0.0157289 0.999254
-44.7566 -1.61137 0.203125 -0.688753 0.162983 -0.199359 -0.777778 7.58531 0.453965 4.44267 -0.987101 0.0879635 0.133767
-35.9019 -5.79362 5.36525 -0.244153 -0.176661 0 0.622222 7.63072 -0.18642 0.345235 -0.443094 0.872622 0.205424
-35.5205 -4.9905 2.8695 -0.362307 0.180998 0 0.622222 7.67132 0.475207 0.924344 -0.102899 0.986652 0.126215
-43.7072 2.09175 2.51425 -0.662943 0.142723 -0.0961542 -0.777778 7.67417 0.594798 3.32067 -0.958642 0.0444668 0.281118
-37.5353 -6.48425 8.23575 -0.233165 -0.200901 0 0.622222 7.69245 0.0901899 0.345235 0.0970878 0.959624 0.263998
-44.3374 -6.106 0.246625 -0.4368 0.1026 0 -0.777778 7.71075 0.258696 4.85395 -0.271294 -0.522365 0.808415
-39.669 -8.315 8.716 -0.222349 -0.115937 0 0.622222 7.77388 0.722866 6.14461 -0.795708 -0.188115 0.575727
-35.5675 0.14675 2.96625 -0.263036 0.15627 0 -0.777778 7.82632 0.740087 1.95378 0.750801 -0.123764 0.64883
-44.4607 0.274063 -0.0676875 -0.16303 0.114952 0 -0.355556 7.87887 0.105417 3.71504 -0.919826 0.0610784 0.387543
-40.555 -6.288 0.1665 -0.209884 0.213177 0 -0.288889 7.91392 -0.999823 5.12353 -0.418926 -0.893581 0.161291
-35.753 -6.076 6.7845 -0.291349 -0.16219 0 0.422222 8.0139 -0.522238 0.345235 -0.619832 0.760206 0.194666
-39.4165 -10.2591 6.43469 -0.253513 0.169199 0 0.622222 8.13821 -0.220215 6.14461 -0.996475 -0.0786897 -0.029075
-45.2798 -3.96525 -0.29375 -0.306163 0.136026 0 -0.777778 8.13976 0.519383 4.61496 -0.947872 0.205734 0.243338
-36.4637 -2.113 -0.2115 -0.292134 0.113776 0 -0.288889 8.16907 -0.688259 1.69289 -0.0157937 -0.645112 0.763924
-37.3666 -3.35194 -0.498563 -0.268494 0.0937982 0 -0.288889 8.17523 -0.999877 1.69289 0.371797 0.0310102 0.927796
-42.0288 3.59275 4.5445 -0.22957 0.0294914 0 -0.777778 8.21104 0.742546 3.1608 -0.480291 0.13937 0.865966
-36.4315 1.14775 3.6145 -0.328163 0.129076 -0.0427102 -0.777778 8.21441 0.396665 2.54857 0.566569 -0.0350329 0.823269
-45.3942 -5.45975 -0.0795 -0.330384 0.109993 0 -0.777778 8.26454 0.562911 4.61496 -0.849055 -0.195259 0.490897
-42.882 -7.097 -0.217 -0.539707 0.12215 -0.943446 -0.777778 8.28284 0.438927 5.12353 0.236199 -0.51959 0.821119
-35.245 -0.365 1.9245 -0.229509 0.183501 0 -0.777778 8.32496 0.601351 1.95378 0.927783 -0.160929 0.33663
-39.1034 -9.88912 7.8795 -0.307649 -0.147166 0 0.622222 8.40859 -0.530008 6.14461 -0.983972 -0.0837317 0.157441
-38.4269 -7.34469 9.6155 -0.0803503 -0.0139066 0 0.622222 8.44192 0.776417 0.164794 -0.347538 0.211085 0.913597
-39.8445 3.57888 4.13925 -0.23738 0.118575 0 -0.777778 8.46315 0.617063 2.70978 0.552164 0.149121 0.820291
-38.3525 -8.72563 2.94537 -0.203228 0.23498 0 0.622222 8.53615 -0.794965 5.80007 -0.694445 -0.62912 -0.34922
-43.381 3.104 2.787 -0.50053 0.11276 0 -0.777778 8.54305 -0.581702 3.1608 -0.901441 0.172538 0.397031
-36.2115 -6.49013 8.4785 -0.151679 -0.12153 0 0.422222 8.54901 0.188495 0.345235 -0.198481 0.832854 0.516681
-44.6104 1.5565 -0.18625 -0.0721433 0.09 0 -0.355556 8.58015 -0.0678536 3.71504 -0.833737 -0.134689 0.535483
-38.5904 -10.7269 4.25181 -0.149889 0.195468 0 0.622222 8.58722 -0.120345 6.1276 -0.861603 0.0665513 -0.503201
-41.0871 4.13737 4.7885 -0.180523 0.0447773 0 -0.777778 8.59505 0.999891 3.1608 -0.0134583 0.342001 0.939603
-38.5112 -8.4565 1.32337 -0.195325 0.179449 0 0.622222 8.65382 -0.582015 5.80007 -0.580219 -0.803921 0.130607
-39.3829 -7.738 0.670625 -0.174077 0.197818 0 0.622222 8.71381 0.48588 5.80007 -0.759828 -0.649223 -0.034218
-44.443 -1.03013 -0.71425 -0.180242 0.160619 0 -0.777778 8.71569 -0.424717 4.44267 -0.997938 0.0640563 0.00417257
-41.5855 -6.44225 -0.952 -0.26962 0.118254 -0.498341 -0.719533 8.72631 -0.999888 5.12353 0.0180575 -0.623922 0.781278
-37.587 3.07075 3.68775 -0.610613 0.0906387 -0.50762 -0.777778 8.7444 0.734447 2.70978 0.226641 0.577705 0.78415
-37.947 -9.83925 3.46025 -0.175008 0.201383 0 0.622222 8.75656 -0.343596 6.1276 -0.870984 -0.280418 -0.403427
-44.7152 -6.921 -0.29425 -0.606323 0.0986802 0 -0.777778 8.75932 0.677769 4.85395 -0.474003 -0.537798 0.697205
-36.4515 2.298 3.7275 -0.528223 0.118761 -0.0184521 -0.777778 8.78136 0.999873 2.54857 0.582346 0.298106 0.756311
-34.925 -0.822125 0.624313 -0.166115 0.130272 0.237653 -0.54934 8.85614 -0.056821 1.95378 0.691245 -0.250309 0.677883
-35.9878 -4.63312 -0.051875 -0.273015 0.0713428 0 -0.241207 8.90106 -0.999864 0.924344 -0.0681136 0.630653 0.77307
-42.5649 4.24325 3.52925 -0.236719 0.0678087 0 -0.777778 8.9213 0.230999 3.1608 -0.666223 0.382737 0.640046
-35.0124 -2.15687 0.0776875 -0.360413 0.0536724 0 -0.288889 8.95058 -0.12048 1.95378 -0.132374 -0.269482 0.953864
-42.2945 -7.369 -1.02575 -0.505033 0.124123 -0.568088 -0.777778 8.97028 -0.436373 5.12353 0.449305 -0.443087 0.775757
-36.2704 -3.198 -0.585813 -0.436477 0.0474275 0 -0.288889 9.01816 -0.999819 1.69289 -0.0350476 -0.118894 0.992288
-34.1722 -4.98475 3.09775 -0.222041 0.152265 0 0.622222 9.03882 -0.5295 0.924344 -0.287157 0.953252 0.0940841
-35.2217 -5.19338 6.81475 -0.528 -0.156543 0 0.422222 9.04453 0.763676 0.345235 -0.691483 0.696105 0.193104
-44.0106 3.05763 0.46325 -0.200324 0.0853351 -0.0539261 -0.433438 9.07797 0.117234 3.71504 -0.815712 0.336265 0.47068
-39.7342 -7.0765 -0.14 -0.219667 0.171606 0 -0.114654 9.09265 -0.61831 5.12353 -0.746758 -0.641011 0.177364
-34.769 -5.28237 4.57438 -0.310572 -0.184703 0 0.472631 9.10392 -0.489743 0.345235 -0.440406 0.895197 -0.0683023
-45.5929 -4.47756 -1.0975 -0.661837 0.115022 0 -0.777778 9.14301 0.074797 4.44267 -0.930147 0.223379 0.291425
-38.9468 -9.482 9.05175 -0.187323 0.069285 0 0.622222 9.18675 0.265325 6.14461 -0.680577 -0.107266 0.724782
-39.7103 -11.2475 6.627 -0.285025 -0.152038 -0.0163221 -0.0592464 9.18713 0.268709 6.14461 -0.881759 0.461065 -0.0995947
-45.2485 -2.65225 -2.18575 -0.254407 0.133826 0 -0.777778 9.2493 0.614042 4.44267 -0.933218 0.35931 -0.000907542
-36.9893 -7.27563 9.55737 -0.096239 -0.0938717 0 0.622222 9.32679 0.752194 0.345235 0.139151 0.628387 0.765354
-43.689 -7.74575 -0.37375 -0.569803 0.117738 -0.135995 -0.777778 9.33007 0.830297 5.12353 -0.0978061 -0.706998 0.70042
-39.1658 4.87844 2.96075 -0.131707 0.0798728 0 -0.777778 9.3413 -0.264272 2.70978 0.379436 0.357608 0.853314
-34.0807 -4.81025 1.82325 -0.262563 0.128687 0 -0.165003 9.46022 -0.505076 0.924344 -0.396356 0.895647 0.201787
-35.5944 1.77725 2.64581 -0.096858 0.151558 0 -0.777778 9.48823 0.473408 2.54857 0.858202 0.155366 0.489234
-34.7426 -4.191 0.26325 -0.267609 0.0703172 0 -0.288889 9.52319 -0.354833 0.924344 -0.340167 0.668509 0.661349
-37.5692 4.24862 2.59262 -0.242175 0.0791636 -0.269377 -0.777778 9.53739 -0.287186 2.70978 0.374094 0.371871 0.849568
-45.1515 1.23088 -1.26688 0.0780067 0.115874 0 -0.355556 9.56136 0.37999 3.71504 -0.918143 -0.310541 0.246125
-34.4007 -4.5955 5.6 -0.490827 -0.183774 0 0.422222 9.56572 0.629453 0.345235 -0.54596 0.829982 -0.114273
-39.2836 -11.0393 7.63112 -0.129898 -0.128253 0 -0.0888889 9.57272 -0.620587 6.14461 -0.867189 0.482527 0.123084
-37.5008 -9.25106 1.43956 -0.292148 0.161509 -0.0249432 0.487644 9.61421 -0.787238 5.80007 -0.825626 -0.564013 -0.0152332
-43.0252 -8.12325 -1.07925 -0.580357 0.123964 -0.149984 -0.777778 9.63087 0.366016 5.12353 0.20579 -0.713953 0.66927
-45.2233 2.5905 -0.699 -0.0731803 0.0764444 0 -0.355556 9.6866 0.751852 3.71504 -0.854323 0.00757809 0.519687
-43.3775 4.48887 2.2265 -0.189991 0.110464 0 -0.777778 9.71653 0.66019 3.1608 -0.917421 0.322008 0.233773
-34.8674 -5.60225 8.20088 -0.217975 -0.0910955 0 0.422222 9.75023 0.444236 0.345235 -0.382486 0.708639 0.592904
-44.4426 -1.00762 -1.76612 -0.0676747 0.149071 0 -0.672669 9.7678 -0.386614 4.44267 -0.9829 0.16868 -0.0738507
-38.5976 -8.63981 0.120937 -0.258586 0.128178 0 0.622222 9.77333 -0.274886 5.80007 -0.685058 -0.617682 0.386219
-45.4999 -6.559 -1.1705 -0.592183 0.139038 0 -0.777778 9.8169 0.349206 4.61496 -0.767073 -0.617302 0.174747
-40.2899 4.84462 3.888 -0.154787 0.0949826 0 -0.777778 9.82829 0.409007 2.70978 0.428523 0.453485 0.781486
-37.589 -10.795 3.053 -0.160888 0.152252 0 0.622222 9.85541 -0.820723 6.1276 -0.964927 0.179044 -0.191989
-39.405 -11.8045 5.651 -0.30288 -0.176379 -0.140277 0.443238 9.871 -0.35332 6.14461 -0.802782 0.345569 -0.485925
-39.9895 -7.745 -1.015 -0.259982 0.0618283 0 -0.777778 9.87315 -0.714444 5.12353 -0.494046 -0.281379 0.822645
-41.4459 5.14194 3.975 -0.152148 0.0443503 0 -0.777778 9.93657 0.444238 3.1608 -0.247794 0.510356 0.823489
-35.0541 1.07375 1.07763 -0.100963 0.149766 0 -0.777778 10.0053 -0.538262 1.95378 0.90533 -0.0469999 0.4221
-35.2925 -3.2405 -0.350875 -0.381477 -0.0117521 0 -0.288889 10.0248 -0.680327 1.95378 -0.367442 0.0947415 0.925208
-43.3685 3.93012 1.05087 -0.203347 0.121407 -0.11808 -0.777778 10.0482 -0.332833 3.71504 -0.912182 0.392837 0.116634
-33.3517 -4.48987 3.43613 -0.318732 -0.13769 0 -0.777778 10.055 -0.678108 0.924344 -0.704637 0.708257 0.0431058
-34.8695 -6.857 9.14087 0.0581217 0.0194204 0 0.422222 10.0899 0.660127 0.345235 -0.190404 0.275077 0.942379
-35.5774 -7.80863 9.09609 -0.055958 0.0569418 0 0.424333 10.1371 -0.166127 0.345235 0.168083 0.200091 0.965252
-38.046 -9.741 9.4805 -0.140535 0.0273677 0 0.622222 10.2175 0.263676 6.14461 -0.263405 -0.0712523 0.96205
-39.4077 -11.2451 9.05275 -0.107421 -0.107937 0 -0.0888889 10.2273 0.143189 6.14461 -0.813013 0.531322 0.238132
-37.1741 -8.64888 9.92513 -0.0694003 0.046922 0 0.622222 10.2767 0.916692 0.164794 0.048268 -0.00831849 0.9988
-41.5755 -8.42838 -1.43763 -0.46172 0.0439886 -0.0938401 -0.777778 10.3152 -0.346441 5.12353 -0.191627 -0.215441 0.95753
-36.215 3.1935 2.472 -0.199528 0.117737 0 -0.777778 10.3415 0.213337 2.54857 0.601827 0.538145 0.590088
-44.6172 -1.679 -2.545 -0.293033 0.135763 0 -0.777778 10.4637 -0.669912 4.44267 -0.908637 0.413954 -0.0549558
-45.102 -2.63063 -3.40712 -0.57533 0.127209 -0.298257 -0.777778 10.4796 0.440961 4.44267 -0.940728 0.326141 -0.0930783
-37.1915 -10.3042 1.967 -0.230269 0.157168 0 0.176704 10.4934 -0.820196 5.80007 -0.957623 0.0990272 -0.270467
-33.8745 -4.44375 0.85425 -0.229711 -0.0909377 0 -0.777778 10.5165 -0.863753 0.924344 -0.610094 0.669089 0.424388
-46.0965 -5.724 -1.525 -0.657353 0.103336 0 -0.777778 10.5537 0.822094 4.44267 -0.912852 -0.184942 0.364002
-40.442 -12.2665 6.05475 -0.511037 -0.156736 -0.183078 -0.0888889 10.566 0.511469 6.14461 -0.727332 0.609407 -0.315612
-33.3881 -0.907 -0.127625 -0.204074 0.0704102 0 -0.288889 10.5692 -0.143303 1.95378 0.358553 0.40405 0.841536
-43.7822 4.1075 -0.58025 -0.0319993 0.0987929 0 -0.355556 10.5757 0.110676 3.71504 -0.586886 0.771424 0.245906
-39.0405 -12.7078 4.02331 -0.144994 -0.118982 0 -0.0304756 10.6314 -0.552667 6.1276 -0.784594 0.619995 0.00440853
-43.7103 -8.37375 -1.76775 -0.422553 0.154289 -0.68474 -0.777778 10.6339 0.338428 5.12353 -0.695415 -0.710814 -0.105547
-42.4618 5.8275 2.869 -0.120945 0.0860457 0 -0.777778 10.6407 0.999857 3.1608 -0.637805 0.660288 0.396517
-34.3894 0.790625 0.009625 -0.159551 0.100926 0 -0.676371 10.6633 -0.595087 1.95378 0.660308 -0.00013185 0.750995
-38.0469 -11.3901 2.27731 -0.188333 -0.136884 0 -0.2 10.7096 -0.108017 6.1276 -0.775768 0.617291 -0.130902
-45.544 -3.998 -2.73175 -0.566603 0.141555 -0.630233 -0.777778 10.7314 0.0658668 4.44267 -0.931115 0.307953 -0.195424
-38.4216 -10.9028 9.40738 -0.0848407 -0.0324871 0 0.161005 10.7427 -0.165295 6.14461 -0.198247 0.422036 0.884638
-44.6425 0.157 -2.35 0.0200668 0.152089 0 -0.355556 10.7466 0.0276966 4.44267 -0.933368 -0.27829 -0.226669
-33.7808 -4.35275 7.259 -0.49901 -0.122426 0 0.422222 10.7709 0.711429 0.345235 -0.30399 0.887822 0.345489
-36.7305 5.051 2.075 -0.170514 0.0976872 0 -0.777778 10.8083 0.48802 2.70978 0.619813 0.41907 0.663485
-46.306 -4.9115 -2.578 -0.660747 0.140904 -0.0361348 -0.777778 10.8426 0.999904 4.44267 -0.955729 0.167401 -0.241991
-45.1035 3.70712 -1.10675 -0.072571 0.0856075 0 -0.355556 10.8814 0.999871 3.71504 -0.694974 0.641736 0.324323
-45.1365 1.15562 -2.5915 -0.00976217 0.152489 0 -0.355556 10.8882 0.420846 3.71504 -0.776114 -0.536258 -0.331776
-33.4766 -3.51219 0.695625 -0.283369 -0.0499873 0 -0.288889 11.0234 -0.508533 0.924344 -0.65061 0.291893 0.701075
-45.8291 2.104 -2.2745 -0.0853037 0.122553 0 -0.355556 11.0569 0.999898 3.71504 -0.980544 -0.17162 -0.0952876
-40.1118 -8.89744 -0.759 -0.583787 0.0231425 -0.100951 -0.777778 11.06 0.215933 5.12353 -0.282703 -0.0442896 0.958184
-35.019 2.274 1.26 -0.0941137 0.131155 0 -0.777778 11.0688 0.270744 1.95378 0.859955 0.0943554 0.501572
-37.1655 -10.5795 0.94625 -0.493713 0.125649 -0.432203 -0.2 11.0704 -0.678808 5.80007 -0.981711 0.188311 -0.027959
-39.5575 -12.9215 5.1585 -0.249104 -0.161456 -0.8998 -0.0873027 11.1012 -0.794622 6.14461 -0.580497 0.616135 -0.532353
-44.341 -0.7925 -3.08525 -0.220859 0.144659 -0.203317 -0.500029 11.1082 0.0749868 4.44267 -0.926763 0.269023 -0.262177
-45.7837 -6.502 -2.43925 -0.770453 0.152586 -0.664385 -0.777778 11.1183 0.99991 4.61496 -0.703856 -0.680656 -0.20321
-45.6284 3.087 -1.97987 -0.067446 0.106898 0 -0.355556 11.1188 0.999845 3.71504 -0.912954 0.407915 0.0110058
-39.8805 6.407 2.3535 -0.216176 0.0835073 -0.596574 -0.777778 11.1346 0.0722123 2.70978 0.0555998 0.834161 0.548712
3 155 174 133
3 155 133 94
3 56 94 66
3 23 44 30
3 165 183 132
3 132 183 164
3 145 106 79
3 106 117 63
3 106 63 79
3 41 63 29
3 41 29 21
3 21 26 41
3 21 29 6
3 23 6 29
3 6 16 21
3 26 21 16
3 70 89 104
3 89 66 132
3 132 66 103
3 146 167 124
3 112 151 145
3 79 151 112
3 79 63 41
3 41 58 73
3 79 73 113
3 6 3 11
3 3 1 11
3 3 0 1
3 3 6 8
3 57 70 87
3 104 135 70
3 135 163 108
3 108 163 162
3 135 166 163
3 178 118 152
3 118 101 88
3 24 17 36
3 17 11 7
3 17 7 14
3 17 14 27
3 42 17 27
3 7 1 9
3 1 4 9
3 5 10 4
3 9 4 10
3 13 19 31
3 31 19 45
3 38 19 28
3 13 8 19
3 53 28 51
3 19 8 6
3 15 30 35
3 87 59 35
3 59 87 108
3 59 108 93
3 87 135 108
3 149 127 93
3 84 127 143
3 84 143 130
3 131 134 182
3 131 81 134
3 131 173 152
3 173 197 152
3 95 131 100
3 95 100 62
3 62 100 88
3 62 88 55
3 62 81 95
3 62 42 81
3 42 83 81
3 42 52 83
3 33 42 62
3 81 83 114
3 184 114 142
3 114 83 91
3 91 48 46
3 48 27 25
3 47 39 69
3 69 39 61
3 69 61 98
3 82 37 34
3 18 39 22
3 22 10 18
3 22 9 10
3 20 10 5
3 34 20 49
3 20 12 40
3 20 40 49
3 28 53 38
3 85 38 53
3 53 84 85
3 85 138 77
3 138 85 126
3 169 170 134
3 169 134 150
3 134 114 150
3 189 184 142
3 189 142 191
3 142 91 109
3 142 109 147
3 91 78 109
3 128 78 86
3 86 148 160
3 86 46 47
3 47 46 25
3 107 80 148
3 148 80 122
3 122 80 98
3 98 80 69
3 111 157 122
3 157 111 153
3 111 105 153
3 153 105 137
3 116 74 82
3 105 61 74
3 141 116 168
3 139 119 99
3 99 82 68
3 99 68 90
3 82 34 68
3 159 121 140
3 77 138 140
3 159 140 190
3 198 147 188
3 176 128 160
3 179 148 122
3 193 139 158
3 102 139 90
3 99 90 139
3 71 40 76
3 102 71 120
3 71 76 120
3 76 123 120
3 159 190 123
3 131 95 81
3 84 51 50
3 101 124 65
3 58 92 73
3 177 195 155
3 155 195 174
3 94 110 155
3 144 94 133
3 144 133 174
3 181 177 110
3 155 110 177
3 103 66 94
3 103 94 144
3 132 103 165
3 144 165 103
3 171 145 194
3 171 194 181
3 145 171 117
3 154 117 181
3 106 145 117
3 110 117 154
3 110 154 181
3 171 181 117
3 15 6 23
3 15 23 30
3 178 167 146
3 156 92 115
3 167 156 115
3 65 124 115
3 65 115 92
3 65 92 60
3 129 92 156
3 192 156 167
3 167 115 124
3 73 92 129
3 73 129 113
3 113 129 151
3 151 129 156
3 151 156 192
3 41 73 79
3 65 60 43
3 58 43 60
3 88 101 65
3 36 65 43
3 36 43 24
3 24 43 26
3 11 24 26
3 33 55 36
3 33 36 17
3 42 33 17
3 9 14 7
3 31 12 13
3 45 19 38
3 50 28 19
3 50 19 15
3 50 15 35
3 15 19 6
3 51 28 50
3 59 84 50
3 127 84 93
3 93 84 59
3 35 59 50
3 85 84 130
3 130 161 126
3 126 85 130
3 170 182 134
3 91 142 114
3 78 91 46
3 78 46 86
3 25 46 48
3 22 25 9
3 14 9 25
3 14 25 27
3 74 61 37
3 74 37 82
3 37 61 39
3 34 37 10
3 10 37 18
3 18 37 39
3 20 34 10
3 32 40 12
3 32 12 31
3 77 38 85
3 161 138 126
3 150 184 196
3 150 196 169
3 170 169 196
3 114 184 150
3 109 78 147
3 147 78 128
3 107 148 86
3 74 137 105
3 141 137 74
3 141 74 116
3 76 40 67
3 76 67 96
3 96 67 125
3 125 67 97
3 97 67 64
3 31 64 32
3 32 64 67
3 32 67 40
3 72 121 75
3 75 121 97
3 121 72 77
3 45 72 75
3 45 75 31
3 31 75 64
3 64 75 97
3 97 121 125
3 38 77 72
3 38 72 45
3 159 125 121
3 140 121 77
3 190 140 172
3 138 172 140
3 158 139 102
3 180 158 120
3 120 158 102
3 96 123 76
3 123 96 125
3 123 125 159
3 110 56 63
3 56 110 94
3 44 29 66
3 66 29 56
3 56 29 63
3 29 44 23
3 110 63 117
3 44 66 89
3 44 89 54
3 44 54 30
3 70 54 89
3 132 164 166
3 132 166 104
3 132 104 89
3 79 112 145
3 26 43 58
3 26 58 41
3 16 6 11
3 16 11 26
3 70 57 30
3 70 30 54
3 166 135 104
3 124 101 146
3 136 146 101
3 136 101 118
3 136 118 178
3 146 136 178
3 92 58 60
3 151 79 113
3 88 36 55
3 36 88 65
3 11 17 24
3 1 7 11
3 0 3 2
3 0 2 5
3 5 4 0
3 0 4 1
3 13 12 2
3 13 2 8
3 8 2 3
3 2 12 5
3 35 57 87
3 57 35 30
3 70 135 87
3 162 149 108
3 108 149 93
3 149 185 127
3 185 143 127
3 187 197 173
3 173 131 187
3 131 182 187
3 131 152 100
3 100 152 118
3 100 118 88
3 62 55 33
3 42 27 52
3 52 27 48
3 48 91 83
3 48 83 52
3 39 47 22
3 47 25 22
3 12 20 5
3 51 84 53
3 114 134 81
3 160 128 86
3 69 80 47
3 86 47 80
3 86 80 107
3 111 98 61
3 111 61 105
3 111 122 98
3 119 116 82
3 119 82 99
3 139 168 119
3 168 116 119
3 71 49 40
3 49 71 90
3 49 90 68
3 49 68 34
3 142 147 191
3 191 147 198
3 188 147 128
3 176 188 128
3 157 179 122
3 71 102 90
3 175 120 123
