ply
format ascii 1.0
comment Generated by PyMesh
element vertex 200
property float x
property float y
property float z
property float charge
property float ddc
property float hbond
property float hphob
property float rho
property float si
property float theta
property float nx
property float ny
property float nz
element face 338
property list uchar int vertex_indices
end_header
-37.0402 -5.822 4.5435 -0.244789 0 0 0.622222 1e-08 0.436613 2.22045e-16 -0.347204 0.810193 0.472268
-37.0859 -6.42944 5.42169 -0.218864 0.0931187 0 0.622222 1.06878 -0.812193 3.37021 -0.133285 0.924278 0.357694
-37.6167 -5.52175 3.63175 -0.326966 -0.064806 0 0.622222 1.11973 -0.309424 1.09923 -0.0906204 0.930519 0.354856
-36.4033 -5.22025 3.798 -0.307738 -0.110987 0 0.622222 1.15044 0.63504 2.22045e-16 -0.192443 0.937573 0.289695
-35.9019 -5.79362 5.36525 -0.244153 -0.281546 0 0.622222 1.40421 -0.18642 4.62947 -0.443094 0.872622 0.205424
-37.878 -6.53662 6.06738 -0.320401 -0.173645 0 0.622222 2.09631 -0.406608 3.20727 0.0806288 0.996742 0.00230739
-38.6125 -5.23581 3.59262 -0.300241 -0.368614 0 0.184466 2.15651 -0.290688 1.5282 0.552816 0.670072 0.495377
-37.5618 -5.33744 2.60069 -0.375937 0.106986 0 0.622222 2.16857 -0.432898 0.740546 0.116432 0.978917 0.167823
-35.5205 -4.9905 2.8695 -0.362307 0.0713612 0 0.622222 2.45207 0.475207 6.04489 -0.102899 0.986652 0.126215
-36.7781 -6.53188 6.914 -0.274894 -0.101809 0 0.564384 2.59594 -0.548748 3.77379 -0.216885 0.972193 0.0883307
-35.753 -6.076 6.7845 -0.291349 -0.229075 0 0.422222 2.85892 -0.522238 4.23183 -0.619832 0.760206 0.194666
-34.769 -5.28237 4.57438 -0.310572 -0.223743 0 0.472631 2.87741 -0.489743 5.28736 -0.440406 0.895197 -0.0683023
-35.2217 -5.19338 6.81475 -0.528 -0.229746 0 0.422222 3.11418 0.763676 4.5147 -0.691483 0.696105 0.193104
-34.4007 -4.5955 5.6 -0.490827 -0.206843 0 0.422222 3.3392 0.629453 4.98383 -0.54596 0.829982 -0.114273
-39.3888 -6.33588 5.80237 -0.163987 0.0451519 0 0.622222 3.40481 -0.0663983 2.58898 -0.0383378 0.914225 0.403388
-39.0392 -4.08825 3.2905 -0.343817 -0.4293 0 -0.288889 3.41756 -0.319476 1.48058 0.866152 0.13306 0.481742
-38.3061 -4.64156 1.7885 -0.317875 -0.283137 0 -0.288889 3.4716 -0.469338 0.857747 0.772696 0.573598 0.271893
-39.5793 -4.5735 4.28075 -0.400967 -0.434015 0 -0.288889 3.51551 0.160798 1.72797 0.666708 0.0707343 0.741955
-34.1722 -4.98475 3.09775 -0.222041 -0.089237 0 0.622222 3.81956 -0.5295 5.75664 -0.287157 0.953252 0.0940841
-38.5578 -5.97625 7.695 -0.145536 -0.0539692 0 0.622222 3.94707 0.999874 3.27304 -0.022914 0.993538 0.111163
-36.3025 -5.19994 1.31463 -0.396933 0.0308484 0 0.622222 3.97375 -0.650046 0.21668 -0.135275 0.967282 0.214632
-37.6309 -4.894 0.760625 -0.305554 -0.112347 0 0.4401 4.06257 -0.78656 0.522991 0.35599 0.853998 0.379419
-37.5353 -6.48425 8.23575 -0.233165 -0.0436802 0 0.622222 4.11996 0.0901899 3.58689 0.0970878 0.959624 0.263998
-39.8204 -6.49412 6.95056 -0.113353 0.169487 0 0.622222 4.23049 0.438333 2.84399 -0.617739 0.785837 0.0292997
-34.0807 -4.81025 1.82325 -0.262563 -0.0837873 0 -0.165003 4.24097 -0.505076 5.97353 -0.396356 0.895647 0.201787
-36.2115 -6.49013 8.4785 -0.151679 0.0708066 0 0.422222 4.26041 0.188495 3.89125 -0.198481 0.832854 0.516681
-40.337 -5.247 4.9125 -0.54352 0.2932 -0.475689 -0.288889 4.32817 -0.0814939 2.103 -0.235348 0.233348 0.943483
-34.8674 -5.60225 8.20088 -0.217975 0.117804 0 0.422222 4.59525 0.444236 4.27955 -0.382486 0.708639 0.592904
-40.3257 -7.13325 6.0125 -0.106588 0.268964 0 0.622222 4.6529 0.364511 2.60337 -0.902043 0.354241 0.246639
-38.6023 -3.22781 1.86181 -0.417577 -0.341613 0 -0.288889 4.80752 -0.384238 1.06749 0.954505 0.0227215 0.297327
-33.3517 -4.48987 3.43613 -0.318732 -0.178661 0 -0.777778 4.83575 -0.678108 5.60337 -0.704637 0.708257 0.0431058
-33.7808 -4.35275 7.259 -0.49901 -0.0563952 0 0.422222 4.84051 0.711429 4.70719 -0.30399 0.887822 0.345489
-40.8904 -4.4085 5.07013 -0.258394 -0.351375 0 -0.288889 5.05477 0.345272 1.99039 -0.0705653 -0.348085 0.934803
-33.0223 -3.958 4.60862 -0.405587 -0.158328 0 -0.777778 5.06969 -0.0475736 5.26903 -0.676776 0.735773 0.0247489
-38.0385 -4.1545 0.1545 -0.237094 -0.20933 0 -0.288889 5.10199 -0.999886 0.641701 0.715193 0.39173 0.578832
-38.8596 -2.3095 3.33262 -0.32831 -0.359165 0 -0.288889 5.20585 0.128489 1.31762 0.836238 -0.206014 0.508196
-33.8745 -4.44375 0.85425 -0.229711 -0.124445 0 -0.777778 5.29728 -0.863753 6.05098 -0.610094 0.669089 0.424388
-40.1156 -3.0305 5.21513 -0.166004 -0.299692 0 -0.288889 5.3974 0.999861 1.71524 0.613754 0.0165811 0.789323
-39.2218 -6.73138 8.81181 -0.051944 0.105678 0 0.622222 5.44986 0.864378 3.24349 -0.384019 0.697497 0.605002
-35.9878 -4.63312 -0.051875 -0.273015 -0.119448 0 -0.241207 5.48625 -0.999864 0.243129 -0.0681136 0.630653 0.77307
-40.364 -7.339 7.8165 -0.106214 0.229801 0 0.622222 5.55683 0.999892 2.93381 -0.928574 0.228913 0.292146
-36.9893 -7.27563 9.55737 -0.096239 0.117049 0 0.622222 5.75431 0.752194 3.7175 0.139151 0.628387 0.765354
-40.336 -8.1225 5.43937 -0.0817083 0.385952 0 0.622222 5.79623 0.164308 2.56927 -0.944471 -0.323984 -0.0548503
-34.8695 -6.857 9.14087 0.0581217 0.18299 0 0.422222 5.80128 0.660127 4.06204 -0.190404 0.275077 0.942379
-35.5774 -7.80863 9.09609 -0.055958 0.200555 0 0.424333 5.84847 -0.166127 3.93873 0.168083 0.200091 0.965252
-33.0858 -3.63425 2.55325 -0.39717 -0.196714 -0.0935159 -0.777778 5.94558 -0.153587 0.272195 -0.882026 0.453282 0.128706
-38.1974 -2.14069 1.66594 -0.293067 -0.362018 0 -0.486149 5.98401 -0.508741 1.04293 0.787496 -0.564312 0.247794
-41.806 -6.0655 4.664 -0.339903 0.277067 -0.444224 -0.288889 6.02807 0.999887 2.103 -0.668142 -0.13767 0.731186
-34.7426 -4.191 0.26325 -0.267609 -0.105842 0 -0.288889 6.04518 -0.354833 6.05098 -0.340167 0.668509 0.661349
-40.3073 -8.2845 7.0405 -0.250848 0.301198 0 0.622222 6.08808 0.503443 2.93381 -0.983741 -0.144484 0.106671
-41.2697 -3.31787 5.51263 -0.0587577 -0.212592 0 -0.288889 6.29136 0.99991 1.71524 -0.228896 0.144192 0.962713
-38.1285 -2.969 0.269125 -0.204382 -0.286385 0 -0.288889 6.29641 -0.999833 0.641701 0.843178 -0.22809 0.486853
-33.4766 -3.51219 0.695625 -0.283369 -0.169999 0 -0.288889 6.32261 -0.508533 6.05098 -0.65061 0.291893 0.701075
-37.3666 -3.35194 -0.498563 -0.268494 -0.214098 0 -0.288889 6.3357 -0.999877 0.641701 0.371797 0.0310102 0.927796
-33.1136 -5.69175 8.441 -0.25574 0.126605 0 0.422222 6.36768 -0.0800373 4.27955 -0.0804986 0.527094 0.845986
-40.7697 -7.24625 4.67725 -0.16182 0.40691 0 0.20411 6.38719 0.187267 2.56927 -0.714739 -0.526074 0.460863
-32.5255 -4.007 5.828 -0.40946 -0.0853963 0 -0.149668 6.3873 -0.415664 5.26903 -0.477079 0.829495 0.290403
-32.1635 -4.18888 7.43363 -0.193905 -0.0908645 0.0533052 0.256529 6.47545 -0.0331682 4.70719 -0.494985 0.710564 0.500088
-33.6727 -6.60225 9.258 -0.056536 0.162556 0 0.422222 6.47802 0.812888 4.06204 0.0702203 0.288359 0.954944
-42.1951 -4.93669 3.83363 -0.405833 0.263735 -0.0483396 -0.288889 6.49906 0.27189 1.99039 -0.882318 -0.162969 0.441538
-40.2346 -1.98538 4.73763 -0.207328 -0.18526 0 -0.288889 6.55258 0.366468 1.71524 0.295184 0.348033 0.889797
-42.0901 -3.38044 4.73325 -0.0941403 0.221706 0 -0.288889 6.67022 0.747616 1.99039 -0.827295 0.00828891 0.561706
-38.5714 -0.836875 3.46025 -0.218405 -0.250846 0.173197 -0.641544 6.71182 0.0855594 1.31762 0.391656 -0.137736 0.909744
-38.4269 -7.34469 9.6155 -0.0803503 0.184456 0 0.622222 6.73591 0.776417 3.24349 -0.347538 0.211085 0.913597
-32.271 -2.29513 4.08075 -0.67468 -0.107668 -0.14244 -0.777778 6.96922 0.336268 5.26903 -0.588367 0.642445 0.491007
-36.2704 -3.198 -0.585813 -0.436477 -0.220641 0 -0.288889 7.04334 -0.999819 0.243129 -0.0350476 -0.118894 0.992288
-39.669 -8.315 8.716 -0.222349 0.250702 0 0.622222 7.05507 0.722866 2.93381 -0.795708 -0.188115 0.575727
-35.2925 -3.2405 -0.350875 -0.381477 -0.1913 0 -0.288889 7.07126 -0.680327 0.243129 -0.367442 0.0947415 0.925208
-37.4189 -1.511 2.14619 -0.198334 -0.379127 0 -0.777778 7.09451 -0.105665 1.04293 0.361916 -0.871285 0.331481
-35.8405 -9.07938 9.28952 -0.0548477 0.181498 0 0.622222 7.1605 -0.447668 3.93873 0.16897 0.166588 0.971441
-37.1741 -8.64888 9.92513 -0.0694003 0.197424 0 0.622222 7.18791 0.916692 3.7175 0.048268 -0.00831849 0.9988
-39.72 -9.3495 5.1955 -0.207814 0.372513 0 0.622222 7.19066 0.545022 2.56927 -0.880232 -0.386669 -0.275096
-39.757 -9.28 6.953 -0.319286 0.324527 0 0.622222 7.22892 0.22262 2.56927 -0.878225 -0.449744 0.162637
-32.6063 -2.82525 1.547 -0.460887 -0.183965 -0.466372 -0.777778 7.32287 -0.999882 0.272195 -0.950184 0.265308 0.16359
-32.7163 -2.2705 2.6995 -0.821407 -0.176126 -0.0655108 -0.777778 7.36605 0.455057 0.272195 -0.91507 0.393282 0.0893089
-41.8543 -6.81925 3.45994 -0.00523467 0.350444 0.00167843 -0.288889 7.44941 0.999855 2.56927 -0.776072 -0.630333 -0.0198401
-39.2227 -8.85181 4.25631 -0.15133 0.475829 0 0.622222 7.57695 -0.2882 2.56927 -0.697007 -0.510394 -0.503666
-40.5229 -1.05625 4.39113 -0.126121 -0.165916 0 -0.288889 7.58528 0.257831 1.71524 0.0563963 0.254513 0.965423
-37.416 -1.8825 0.155 -0.18782 -0.292793 0.00899123 -0.546584 7.6007 -0.999882 1.04293 0.413356 -0.677452 0.608436
-40.3124 -7.47781 3.41987 -0.112871 0.492203 0.240844 -0.288889 7.74504 -0.0424891 2.56927 -0.570349 -0.785454 -0.240342
-31.387 -3.21175 6.058 -0.489047 -0.103872 -0.551445 -0.777778 7.79496 -0.370034 5.26903 -0.675592 0.718291 0.166235
-32.0638 -6.682 8.86012 -0.0991797 0.167457 0 0.422222 7.87045 0.287433 4.06204 0.125745 0.107356 0.986237
-41.5761 -1.9345 4.50787 -0.204578 0.130562 0 -0.288889 7.91457 0.544704 1.71524 -0.463942 0.467623 0.752388
-33.7349 -8.84456 9.08519 -0.0849763 0.160895 -0.0317813 0.329156 7.96225 -0.161722 3.93873 0.115588 0.207804 0.971317
-32.8725 -1.9635 0.789 -0.277471 -0.0887171 -0.134529 -0.354247 7.98757 0.199251 0.272195 -0.481363 0.641157 0.597668
-38.7046 0.434438 3.35763 -0.294465 -0.191961 -0.248894 -0.777778 7.99421 -0.684717 1.31762 -0.017559 -0.0932078 0.995492
-42.4011 -3.13925 3.435 -0.35095 0.201284 0 -0.288889 8.02681 0.415678 1.99039 -0.95444 0.108251 0.278077
-31.5397 -5.06975 8.558 -0.139835 0.133472 0 0.422222 8.03406 0.408564 4.70719 -0.181328 0.312937 0.932304
-42.3643 -4.956 2.285 -0.295219 0.261228 0 -0.288889 8.05703 -0.112129 1.99039 -0.933146 -0.299697 0.198547
-31.2589 -2.88775 7.42325 -0.124684 -0.159149 0.645326 -0.777778 8.06017 0.0729631 4.70719 -0.944353 0.24938 0.214491
-30.8317 -4.04781 8.4385 -0.125715 -0.150088 0 -0.0862804 8.14977 0.0295254 4.70719 -0.540475 0.0841614 0.83714
-32.0185 -1.359 3.388 -0.66804 -0.0624178 -0.457025 -0.777778 8.16086 0.999935 0.272195 -0.474648 0.844896 0.246697
-36.4637 -2.113 -0.2115 -0.292134 -0.275468 0 -0.288889 8.20726 -0.688259 0.243129 -0.0157937 -0.645112 0.763924
-32.587 -7.96 8.83225 -0.106065 0.201844 0 0.422222 8.26785 -0.0724657 4.06204 0.225255 -0.143861 0.96362
-35.0124 -2.15687 0.0776875 -0.360413 -0.227594 0 -0.288889 8.26975 -0.12048 0.243129 -0.132374 -0.269482 0.953864
-39.4165 -10.2591 6.43469 -0.253513 0.265361 0 0.622222 8.38789 -0.220215 2.56927 -0.996475 -0.0786897 -0.029075
-32.1995 -1.76988 1.95131 -0.450837 0.0831309 -0.485475 -0.777778 8.40407 0.346242 0.272195 -0.237383 0.93881 -0.249569
-36.6522 -10.0513 9.55838 -0.0579147 0.180954 0 0.622222 8.45502 -0.0597039 3.93873 -0.0113421 0.00129904 0.999935
-38.9468 -9.482 9.05175 -0.187323 0.212908 0 0.622222 8.46793 0.265325 2.93381 -0.680577 -0.107266 0.724782
-39.1034 -9.88912 7.8795 -0.307649 0.24641 0 0.622222 8.51601 -0.530008 2.56927 -0.983972 -0.0837317 0.157441
-35.6166 -10.4596 9.67712 -0.0511477 0.131619 0.0974745 0.445784 8.6115 -0.0366741 3.93873 -0.132272 0.297605 0.945481
-35.9363 -1.14137 2.40313 -0.153274 -0.343617 0 -0.777778 8.64395 0.632526 1.04293 0.578249 -0.734484 0.355191
-38.046 -9.741 9.4805 -0.140535 0.194505 0 0.622222 8.65441 0.263676 3.7175 -0.263405 -0.0712523 0.96205
-36.6226 -0.83575 3.69537 -0.0266754 -0.311131 0.742941 -0.777778 8.67476 0.999884 1.04293 0.20358 -0.500822 0.841268
-30.534 -2.024 4.2795 -0.706847 0.019127 -0.563177 -0.777778 8.73846 -0.0403753 5.26903 -0.0501962 0.987192 0.151435
-30.7165 -5.80762 8.67513 -0.0886017 0.142797 0 0.422222 8.77897 0.192612 4.27955 -0.00172286 0.136058 0.990699
-40.6965 0.08 4.0655 -0.4047 -0.171774 0 -0.288889 8.77995 -0.309121 1.71524 0.230056 0.0183663 0.973004
-36.1942 -1.52581 0.898938 -0.03695 -0.32701 0.335718 -0.777778 8.84258 -0.0563223 1.04293 0.200794 -0.884774 0.420543
-31.08 -1.29131 2.85188 -0.839707 0.0475518 -0.502738 -0.777778 8.95322 0.87458 0.272195 0.226045 0.97141 0.072571
-41.7721 -1.25794 3.68622 -0.246846 0.175127 -0.0967526 -0.40594 8.99681 -0.126123 1.71524 -0.822648 0.114956 0.556808
-42.7841 -3.36331 1.97894 -0.300786 0.199972 0 -0.661549 9.00153 -0.38162 1.99039 -0.787829 -0.144723 0.598649
-42.846 -4.95762 1.38975 -0.253507 0.233169 0 -0.539807 9.07365 -0.210694 1.99039 -0.49883 -0.472741 0.726419
-30.886 -2.0955 6.865 -0.052242 -0.134564 0.559849 -0.777778 9.09861 0.422174 5.26903 -0.812348 0.52618 -0.251447
-34.2253 -10.122 9.57225 0.0698043 0.101501 0.0916115 -0.288889 9.10366 -0.64127 3.93873 -0.101175 0.499376 0.860458
-38.3525 -8.72563 2.94537 -0.203228 0.510579 0 0.622222 9.15547 -0.794965 2.56927 -0.694445 -0.62912 -0.34922
-38.5904 -10.7269 4.25181 -0.149889 0.278045 0 0.622222 9.20655 -0.120345 2.56927 -0.861603 0.0665513 -0.503201
-31.7221 -2.39494 0.657188 -0.30844 0.0883311 -0.295931 -0.340147 9.22326 -0.259311 0.272195 0.407498 0.899155 -0.159577
-31.1874 -7.7385 8.66362 -0.113658 0.187778 0 0.422222 9.25713 0.556874 4.06204 0.213163 -0.24042 0.946974
-39.6213 1.29762 3.55437 -0.37439 -0.162075 -0.00867916 -0.777778 9.26862 -0.440129 1.31762 0.233579 -0.0350575 0.971706
-41.9191 -5.97325 1.76713 -0.196 0.32565 0 -0.288889 9.28226 0.163624 1.99039 -0.650974 -0.758477 0.0307479
-37.947 -9.83925 3.46025 -0.175008 0.382657 0 0.622222 9.37588 -0.343596 2.56927 -0.870984 -0.280418 -0.403427
-42.4468 -2.0485 2.633 -0.41063 0.177081 0 -0.288889 9.38144 -0.391789 1.99039 -0.822443 0.0439963 0.567143
-40.957 -6.576 1.7615 -0.102189 0.396125 0 -0.288889 9.38565 -0.106948 2.56927 -0.459778 -0.841891 -0.28253
-31.284 -1.93062 8.35487 -0.044033 -0.148323 0.15067 -0.777778 9.39607 0.999873 4.70719 -0.967646 0.251675 0.0178941
-39.8947 -7.20087 1.83025 -0.162095 0.445888 0.0702385 0.535553 9.41179 -0.439735 2.56927 -0.630199 -0.758222 -0.167178
-39.7103 -11.2475 6.627 -0.285025 0.161098 -0.0163221 -0.0592464 9.43681 0.268709 2.56927 -0.881759 0.461065 -0.0995947
-31.183 -1.832 1.72525 -0.651407 0.112216 -0.619464 -0.777778 9.44725 0.576835 0.272195 0.249647 0.832173 -0.49514
-33.3881 -0.907 -0.127625 -0.204074 -0.115131 0 -0.288889 9.47828 -0.143303 0.272195 0.358553 0.40405 0.841536
-30.3359 -3.20906 9.39494 -0.128608 -0.183173 0 -0.777778 9.51509 0.415428 4.70719 -0.518284 -0.519009 0.679714
-30.4287 -7.0005 8.672 -0.0796337 0.170214 0 0.422222 9.54687 0.2299 4.06204 0.0960066 -0.186931 0.97767
-38.9986 -7.99137 2.27875 -0.178566 0.503346 0 0.622222 9.55941 -0.466468 2.56927 -0.620734 -0.776492 -0.1084
-31.7621 -8.94063 8.38975 -0.234182 0.167747 -0.658366 -0.0698936 9.62354 -0.451789 3.93873 0.343047 0.0129698 0.939229
-42.1297 0.21025 4.2505 -0.556203 -0.177815 -0.251309 -0.777778 9.63604 0.496907 1.71524 -0.463454 -0.274326 0.842589
-35.9349 -11.4358 9.692 -0.0355487 0.095664 0 -0.0703309 9.63838 -0.879546 3.93873 -0.260957 0.492579 0.830221
-29.5184 -4.752 8.38488 -0.0921843 0.148025 0 -0.622476 9.64091 -0.599892 4.70719 -0.0909488 -0.0927838 0.991524
-37.097 0.353 3.8695 -0.191528 -0.210885 0.168642 -0.777778 9.6833 0.457865 1.04293 0.176704 -0.136258 0.974787
-39.2836 -11.0393 7.63112 -0.129898 0.146186 0 -0.0888889 9.70642 -0.620587 2.56927 -0.867189 0.482527 0.123084
-34.925 -0.822125 0.624313 -0.166115 -0.220228 0.237653 -0.54934 9.71473 -0.056821 0.243129 0.691245 -0.250309 0.677883
-32.2695 -9.8335 9.2325 -0.455943 0.0971417 -0.465912 -0.288889 9.73626 0.0385149 3.93873 0.424748 0.559253 0.711917
-34.6855 -10.849 10.1925 -0.00933493 0.0629787 0.469916 -0.307082 9.74472 -0.175696 3.93873 -0.405149 0.716163 0.5683
-35.245 -0.365 1.9245 -0.229509 -0.236715 0 -0.777778 9.78839 0.601351 1.04293 0.927783 -0.160929 0.33663
-29.9763 -1.939 5.25131 -0.205173 -0.0883579 0 -0.777778 9.85911 -0.0916818 5.26903 -0.52254 0.817588 -0.24187
-38.4216 -10.9028 9.40738 -0.0848407 0.112772 0 0.161005 9.8776 -0.165295 3.7175 -0.198247 0.422036 0.884638
-37.133 -11.4148 9.588 -0.0434883 0.0751044 0 0.622222 9.90111 -0.540624 3.93873 0.0618202 0.654656 0.753395
-37.558 1.975 4.17487 -0.629307 -0.150878 -0.614733 -0.777778 10.0813 0.779585 1.31762 0.0352649 0.0157289 0.999254
-35.5675 0.14675 2.96625 -0.263036 -0.220447 0 -0.777778 10.0973 0.740087 1.04293 0.750801 -0.123764 0.64883
-39.405 -11.8045 5.651 -0.30288 0.188708 -0.140277 0.443238 10.1207 -0.35332 2.56927 -0.802782 0.345569 -0.485925
-30.2841 -1.28112 7.27375 0.00153567 -0.0866231 0.0142818 -0.777778 10.1907 0.466831 5.26903 -0.515091 0.80885 -0.283626
-33.0234 -10.6089 10.2657 -0.057632 0.0317458 -0.0218802 -0.299364 10.2012 -0.147224 3.93873 0.0632105 0.859597 0.507047
-29.3855 -6.38375 8.73913 -0.150886 0.140422 0 0.422222 10.2307 0.489601 4.27955 0.0195532 -0.0457732 0.99876
-43.7235 -4.16962 1.3335 -0.250244 -0.171909 0 -0.777778 10.2544 0.236156 1.99039 -0.368419 -0.150679 0.917368
-39.4077 -11.2451 9.05275 -0.107421 0.115631 0 -0.0888889 10.2903 0.143189 2.93381 -0.813013 0.531322 0.238132
-41.4772 1.22775 4.66525 -0.871217 -0.153797 -0.649649 -0.777778 10.2921 0.916865 1.71524 -0.00352843 -0.115298 0.993325
-30.332 -8.3075 8.105 -0.233008 0.164972 -0.690102 0.422222 10.4265 -0.730304 4.06204 0.0781791 -0.157487 0.984422
-43.2521 -1.776 2.00638 -0.546803 -0.161233 -0.1622 -0.777778 10.4376 -0.0637241 1.99039 -0.520021 -0.0834216 0.85007
-41.3828 -6.0725 0.728 -0.199989 0.337763 0 -0.288889 10.4558 -0.516383 2.56927 -0.266816 -0.963376 -0.0267447
-37.589 -10.795 3.053 -0.160888 0.245517 0 0.622222 10.4747 -0.820723 2.56927 -0.964927 0.179044 -0.191989
-29.8686 -2.227 2.542 -0.454337 0.0828039 0 -0.7391 10.515 -0.240152 0.272195 0.363008 0.900369 -0.239917
-28.7354 -1.89062 4.48138 0.131733 -0.0757325 0.537714 -0.777778 10.5533 -0.190685 5.26903 -0.134073 0.9067 -0.399899
-30.5637 -1.03225 8.513 -0.154523 -0.0544861 0 -0.777778 10.5584 0.999838 4.70719 -0.50348 0.858874 0.0940354
-44.2975 -5.0985 0.976 -0.259578 0.180359 0 -0.777778 10.5895 0.698935 1.99039 -0.335261 -0.363691 0.869096
-30.897 -2.10525 9.48612 0.07727 -0.129564 0 -0.777778 10.6044 0.854998 4.70719 -0.822547 0.156029 0.546874
-42.5382 -6.08794 0.34725 -0.289453 0.261681 -0.705661 -0.760553 10.6418 -0.142745 1.99039 0.030004 -0.835853 0.548133
-33.0566 0.118375 -0.5665 -0.173941 -0.136268 0 0.698222 10.6419 -0.529628 0.272195 0.338264 0.0327202 0.940482
-31.0072 -2.9275 -0.510875 -0.260717 0.0704157 0 -0.777778 10.6926 -0.75846 0.272195 0.507971 0.830996 0.22674
-44.243 -3.201 1.1145 -0.36229 0.152159 -0.518956 -0.777778 10.705 -0.0519475 1.99039 -0.699789 -0.0724048 0.710671
-30.376 -3.0025 0.469 -0.231141 0.0903842 0 -0.777778 10.7121 -0.624391 0.272195 0.243404 0.888192 -0.389705
-38.5112 -8.4565 1.32337 -0.195325 0.416747 0 0.622222 10.7285 -0.582015 2.56927 -0.580219 -0.803921 0.130607
-36.4315 1.14775 3.6145 -0.328163 -0.182688 -0.0427102 -0.777778 10.7508 0.396665 1.04293 0.566569 -0.0350329 0.823269
-39.3829 -7.738 0.670625 -0.174077 0.361616 0 0.622222 10.7884 0.48588 2.56927 -0.759828 -0.649223 -0.034218
-40.442 -12.2665 6.05475 -0.511037 0.129197 -0.183078 -0.0888889 10.8157 0.511469 2.56927 -0.727332 0.609407 -0.315612
-28.6159 -4.103 8.78575 -0.0962353 0.156797 0 -0.777778 10.8226 -0.468396 4.70719 -0.127365 -0.419006 0.899006
-31.8857 -1.60984 -0.784625 -0.38807 -0.119216 -0.860595 -0.153048 10.8731 -0.327131 0.272195 0.51838 0.297852 0.801603
-30.8837 -9.88225 8.15225 -0.280124 0.0844824 -0.243292 0.287953 10.933 -0.999836 3.93873 0.24749 0.575023 0.779806
-37.5008 -9.25106 1.43956 -0.292148 0.371186 -0.0249432 0.487644 10.9635 -0.787238 2.56927 -0.825626 -0.564013 -0.0152332
-42.7577 -0.231688 2.256 -0.441463 -0.161375 -0.829375 -0.777778 11.0143 -0.49933 1.71524 -0.776429 -0.137096 0.615112
-40.555 -6.288 0.1665 -0.209884 0.334808 0 -0.288889 11.0556 -0.999823 2.56927 -0.418926 -0.893581 0.161291
-39.0421 3.00738 3.62512 -0.371083 -0.112378 0 -0.777778 11.0752 -0.189517 1.31762 0.235222 0.228087 0.9448
-37.1915 -10.3042 1.967 -0.230269 0.262417 0 0.176704 11.1128 -0.820196 2.56927 -0.957623 0.0990272 -0.270467
-35.4852 -12.0276 10.9904 0.018628 -0.0538642 0 -0.474158 11.1345 -0.999878 3.93873 -0.505969 0.856617 0.10101
-29.6869 -2.135 10.464 0.237966 0.111061 0.932632 -0.777778 11.1636 0.999898 4.70719 -0.135996 0.0734229 0.987985
-29.0284 -7.79625 8.346 -0.16033 0.145367 0 0.422222 11.1901 -0.206977 4.06204 -0.0886754 -0.171318 0.981217
-36.7253 -12.2281 10.7773 -0.06689 -0.0146604 0 -0.777778 11.1973 -0.999863 3.93873 0.0235737 0.979813 0.198521
-31.1244 -10.7653 9.34475 -0.237991 0.0375692 -0.00842829 0.358551 11.2168 -0.638997 3.93873 0.166343 0.841513 0.513989
-39.0405 -12.7078 4.02331 -0.144994 0.117248 0 -0.0304756 11.2507 -0.552667 2.56927 -0.784594 0.619995 0.00440853
-34.6963 -11.0377 11.6884 -0.022532 -0.0518914 0 -0.355556 11.2525 0.253035 3.93873 -0.380493 0.922615 -0.0633071
-38.6406 -11.7924 10.4327 -0.104061 0.0185846 0 -0.0888889 11.2526 -0.46685 3.7175 0.0885346 0.941537 0.325068
-28.1798 -5.60975 8.74925 -0.462583 0.127762 -0.18751 -0.777778 11.272 0.203509 4.70719 -0.0910693 -0.0840283 0.992293
-28.3189 -2.3435 3.09025 0.0556827 0.0419513 0.50114 -0.777778 11.2728 -0.482234 5.26903 -0.130167 0.986324 -0.101103
-44.3374 -6.106 0.246625 -0.4368 0.186269 0 -0.777778 11.2759 0.258696 1.99039 -0.271294 -0.522365 0.808415
-29.6915 -0.818 8.0575 -0.261749 -0.0340209 0 -0.777778 11.2769 0.585759 5.26903 -0.18737 0.982244 -0.00943878
-37.587 3.07075 3.68775 -0.610613 -0.0766549 -0.50762 -0.777778 11.2808 0.734447 1.31762 0.226641 0.577705 0.78415
-36.4515 2.298 3.7275 -0.528223 -0.126278 -0.0184521 -0.777778 11.3177 0.999873 1.31762 0.582346 0.298106 0.756311
-38.0469 -11.3901 2.27731 -0.188333 0.146336 0 -0.2 11.3289 -0.108017 2.56927 -0.775768 0.617291 -0.130902
-40.49 -12.13 7.679 -0.38662 0.102432 -0.191915 -0.0888889 11.3335 0.83373 2.56927 -0.767545 0.638138 0.0604524
-39.5575 -12.9215 5.1585 -0.249104 0.136045 -0.8998 -0.0873027 11.3509 -0.794622 2.56927 -0.580497 0.616135 -0.532353
-43.0871 1.57525 3.7945 -0.784183 -0.143735 -0.0612437 -0.777778 11.3646 0.837786 1.71524 -0.765179 -0.186942 0.61608
-41.0505 2.48775 4.56675 -0.473897 -0.139794 0 -0.777778 11.3862 0.363515 1.31762 0.203024 -0.106568 0.973357
-39.7342 -7.0765 -0.14 -0.219667 0.313407 0 -0.114654 11.3925 -0.61831 2.56927 -0.746758 -0.641011 0.177364
-28.4487 -3.04075 9.69425 -0.255832 0.152767 -0.0101865 -0.777778 11.4333 0.321439 4.70719 0.012919 -0.531035 0.847252
3 146 170 125
3 146 125 95
3 170 194 136
3 71 95 72
3 28 49 23
3 151 142 98
3 98 142 102
3 102 142 97
3 174 114 130
3 114 120 76
3 114 76 130
3 79 76 42
3 79 42 55
3 55 75 79
3 55 42 26
3 28 26 42
3 26 47 55
3 75 55 47
3 38 66 63
3 66 72 98
3 98 72 99
3 70 102 97
3 97 100 69
3 185 148 139
3 139 148 113
3 130 76 79
3 79 122 124
3 130 124 169
3 26 32 59
3 32 61 59
3 32 50 61
3 32 26 17
3 19 38 22
3 63 41 38
3 41 44 25
3 25 44 43
3 41 70 44
3 58 54 27
3 43 44 83
3 113 148 83
3 148 138 83
3 183 138 148
3 88 110 111
3 110 59 86
3 110 86 121
3 110 121 154
3 165 110 154
3 86 61 109
3 61 82 109
3 60 77 82
3 109 82 77
3 15 6 29
3 29 6 16
3 7 6 2
3 15 17 6
3 3 2 0
3 6 17 26
3 14 23 5
3 22 9 5
3 9 22 25
3 9 25 10
3 22 41 25
3 27 12 10
3 4 12 13
3 4 13 11
3 13 31 33
3 33 31 56
3 56 31 57
3 57 31 54
3 54 87 57
3 54 58 81
3 81 58 93
3 93 117 81
3 149 129 181
3 129 149 105
3 144 118 85
3 106 152 132
3 132 77 106
3 132 109 77
3 62 77 60
3 85 62 103
3 62 35 68
3 62 68 103
3 2 3 7
3 8 7 3
3 3 4 8
3 8 24 20
3 24 8 18
3 45 64 74
3 112 80 89
3 112 147 141
3 190 147 159
3 159 123 161
3 123 128 161
3 128 89 90
3 199 128 171
3 128 199 180
3 191 177 144
3 168 144 135
3 168 135 145
3 144 85 135
3 67 39 48
3 20 24 48
3 67 48 52
3 94 84 127
3 84 74 96
3 96 126 116
3 126 157 116
3 157 108 104
3 157 104 188
3 188 104 158
3 64 104 108
3 101 68 107
3 163 137 127
3 140 101 137
3 101 107 137
3 107 94 137
3 67 52 94
3 4 0 1
3 122 176 124
3 184 195 146
3 146 195 170
3 95 115 146
3 136 95 125
3 136 125 170
3 193 184 115
3 146 115 184
3 99 72 95
3 99 95 136
3 98 99 151
3 136 151 99
3 97 142 143
3 142 186 143
3 133 97 143
3 182 133 143
3 174 178 120
3 156 120 193
3 114 174 120
3 115 120 156
3 115 156 193
3 178 193 120
3 14 26 28
3 14 28 23
3 83 44 69
3 83 69 113
3 69 100 113
3 113 100 139
3 182 179 133
3 97 133 100
3 100 133 139
3 139 133 179
3 139 179 185
3 162 176 155
3 124 176 198
3 124 198 169
3 79 124 130
3 162 155 119
3 122 119 155
3 111 162 119
3 111 119 88
3 88 119 75
3 59 88 75
3 44 70 69
3 93 131 117
3 131 83 138
3 83 131 93
3 153 117 131
3 153 131 173
3 173 131 138
3 183 173 138
3 150 160 111
3 150 111 110
3 165 150 110
3 109 121 86
3 29 35 15
3 16 6 7
3 1 2 6
3 1 6 14
3 1 14 5
3 14 6 26
3 0 2 1
3 9 4 1
3 12 4 10
3 10 4 9
3 5 9 1
3 8 4 11
3 11 30 18
3 18 8 11
3 33 30 11
3 33 11 13
3 64 33 56
3 57 80 56
3 57 89 80
3 90 89 57
3 90 57 87
3 105 87 54
3 105 54 81
3 153 181 129
3 153 129 117
3 90 87 134
3 90 134 128
3 134 105 149
3 105 134 87
3 171 128 134
3 171 134 187
3 187 134 149
3 132 175 109
3 121 109 175
3 121 175 154
3 177 197 118
3 177 118 144
3 118 197 152
3 85 118 77
3 77 118 106
3 106 118 152
3 62 85 77
3 46 68 35
3 46 35 29
3 20 7 8
3 30 45 24
3 30 24 18
3 104 64 80
3 80 141 104
3 112 141 80
3 107 68 78
3 107 78 92
3 92 78 65
3 65 78 53
3 53 78 51
3 29 51 46
3 46 51 78
3 46 78 68
3 21 39 34
3 34 39 53
3 39 21 20
3 16 21 34
3 16 34 29
3 29 34 51
3 51 34 53
3 53 39 65
3 7 20 21
3 7 21 16
3 67 65 39
3 48 39 20
3 52 48 36
3 52 36 45
3 45 36 24
3 24 36 48
3 84 52 73
3 73 45 74
3 45 73 52
3 94 52 84
3 74 84 73
3 127 116 172
3 116 84 96
3 84 116 127
3 164 172 116
3 164 116 166
3 141 158 104
3 92 94 107
3 94 92 65
3 94 65 67
3 127 172 163
3 115 71 76
3 71 115 95
3 49 42 72
3 72 42 71
3 71 42 76
3 42 49 28
3 115 76 120
3 49 72 66
3 49 66 40
3 49 40 23
3 38 40 66
3 98 102 70
3 98 70 63
3 98 63 66
3 130 167 174
3 75 119 122
3 75 122 79
3 47 26 59
3 47 59 75
3 38 19 23
3 38 23 40
3 70 41 63
3 43 58 27
3 176 122 155
3 189 111 160
3 111 189 162
3 59 110 88
3 61 86 59
3 50 32 37
3 50 37 60
3 60 82 50
3 50 82 61
3 15 35 37
3 15 37 17
3 17 37 32
3 37 35 60
3 5 19 22
3 19 5 23
3 38 41 22
3 43 27 25
3 25 27 10
3 27 31 12
3 31 13 12
3 54 31 27
3 43 83 58
3 93 58 83
3 129 81 117
3 152 196 132
3 196 175 132
3 35 62 60
3 0 4 3
3 33 64 45
3 33 45 30
3 89 128 123
3 112 89 123
3 112 123 147
3 147 123 159
3 129 105 81
3 192 191 144
3 192 144 168
3 101 103 68
3 103 101 145
3 103 145 135
3 103 135 85
3 91 74 64
3 91 64 108
3 108 157 126
3 108 126 96
3 108 96 91
3 91 96 74
3 128 180 161
3 101 140 145
3 127 137 94
3 56 80 64
3 97 69 70
