ply
format ascii 1.0
comment Generated by PyMesh
element vertex 186
property float x
property float y
property float z
property float nx
property float ny
property float nz
element face 317
property list uchar int vertex_indices
end_header
-34.7426 -4.191 0.26325 -0.340167 0.668509 0.661349
-33.8745 -4.44375 0.85425 -0.610094 0.669089 0.424388
-35.2925 -3.2405 -0.350875 -0.367442 0.0947415 0.925208
-35.9878 -4.63312 -0.051875 -0.0681136 0.630653 0.77307
-33.4766 -3.51219 0.695625 -0.65061 0.291893 0.701075
-34.0807 -4.81025 1.82325 -0.396356 0.895647 0.201787
-36.3025 -5.19994 1.31463 -0.135275 0.967282 0.214632
-36.2704 -3.198 -0.585813 -0.0350476 -0.118894 0.992288
-35.0124 -2.15687 0.0776875 -0.132374 -0.269482 0.953864
-32.6063 -2.82525 1.547 -0.950184 0.265308 0.16359
-34.1722 -4.98475 3.09775 -0.287157 0.953252 0.0940841
-33.0858 -3.63425 2.55325 -0.882026 0.453282 0.128706
-32.8725 -1.9635 0.789 -0.481363 0.641157 0.597668
-37.6309 -4.894 0.760625 0.35599 0.853998 0.379419
-37.3666 -3.35194 -0.498563 0.371797 0.0310102 0.927796
-36.4637 -2.113 -0.2115 -0.0157937 -0.645112 0.763924
-38.0385 -4.1545 0.1545 0.715193 0.39173 0.578832
-35.5205 -4.9905 2.8695 -0.102899 0.986652 0.126215
-33.3517 -4.48987 3.43613 -0.704637 0.708257 0.0431058
-34.925 -0.822125 0.624313 0.691245 -0.250309 0.677883
-37.5618 -5.33744 2.60069 0.116432 0.978917 0.167823
-36.1942 -1.52581 0.898938 0.200794 -0.884774 0.420543
-37.416 -1.8825 0.155 0.413356 -0.677452 0.608436
-32.7163 -2.2705 2.6995 -0.91507 0.393282 0.0893089
-31.7221 -2.39494 0.657188 0.407498 0.899155 -0.159577
-38.1285 -2.969 0.269125 0.843178 -0.22809 0.486853
-38.3061 -4.64156 1.7885 0.772696 0.573598 0.271893
-33.3881 -0.907 -0.127625 0.358553 0.40405 0.841536
-32.1995 -1.76988 1.95131 -0.237383 0.93881 -0.249569
-34.769 -5.28237 4.57438 -0.440406 0.895197 -0.0683023
-36.4033 -5.22025 3.798 -0.192443 0.937573 0.289695
-33.0223 -3.958 4.60862 -0.676776 0.735773 0.0247489
-37.6167 -5.52175 3.63175 -0.0906204 0.930519 0.354856
-32.271 -2.29513 4.08075 -0.588367 0.642445 0.491007
-35.245 -0.365 1.9245 0.927783 -0.160929 0.33663
-38.6125 -5.23581 3.59262 0.552816 0.670072 0.495377
-38.6023 -3.22781 1.86181 0.954505 0.0227215 0.297327
-32.0185 -1.359 3.388 -0.474648 0.844896 0.246697
-31.183 -1.832 1.72525 0.249647 0.832173 -0.49514
-35.9363 -1.14137 2.40313 0.578249 -0.734484 0.355191
-33.0566 0.118375 -0.5665 0.338264 0.0327202 0.940482
-34.3894 0.790625 0.009625 0.660308 -0.00013185 0.750995
-37.4189 -1.511 2.14619 0.361916 -0.871285 0.331481
-35.0541 1.07375 1.07763 0.90533 -0.0469999 0.4221
-31.0072 -2.9275 -0.510875 0.507971 0.830996 0.22674
-38.1974 -2.14069 1.66594 0.787496 -0.564312 0.247794
-30.376 -3.0025 0.469 0.243404 0.888192 -0.389705
-34.4007 -4.5955 5.6 -0.54596 0.829982 -0.114273
-31.08 -1.29131 2.85188 0.226045 0.97141 0.072571
-37.0402 -5.822 4.5435 -0.347204 0.810193 0.472268
-31.8857 -1.60984 -0.784625 0.51838 0.297852 0.801603
-35.9019 -5.79362 5.36525 -0.443094 0.872622 0.205424
-32.5255 -4.007 5.828 -0.477079 0.829495 0.290403
-35.5675 0.14675 2.96625 0.750801 -0.123764 0.64883
-39.0392 -4.08825 3.2905 0.866152 0.13306 0.481742
-39.5793 -4.5735 4.28075 0.666708 0.0707343 0.741955
-31.8854 0.152375 -0.856125 0.0564411 -0.15471 0.986346
-29.8686 -2.227 2.542 0.363008 0.900369 -0.239917
-32.9215 1.461 -0.2985 0.183105 -0.0688322 0.980681
-37.0859 -6.42944 5.42169 -0.133285 0.924278 0.357694
-35.019 2.274 1.26 0.859955 0.0943554 0.501572
-30.534 -2.024 4.2795 -0.0501962 0.987192 0.151435
-36.6226 -0.83575 3.69537 0.20358 -0.500822 0.841268
-29.097 -2.62 1.232 -0.0665671 0.910376 -0.408392
-38.8596 -2.3095 3.33262 0.836238 -0.206014 0.508196
-34.2067 2.36244 -0.0304375 0.602862 -0.012522 0.797747
-30.606 -2.2485 -1.8515 0.546423 0.113876 0.829731
-40.337 -5.247 4.9125 -0.235348 0.233348 0.943483
-35.2217 -5.19338 6.81475 -0.691483 0.696105 0.193104
-35.5944 1.77725 2.64581 0.858202 0.155366 0.489234
-35.753 -6.076 6.7845 -0.619832 0.760206 0.194666
-38.5714 -0.836875 3.46025 0.391656 -0.137736 0.909744
-31.387 -3.21175 6.058 -0.675592 0.718291 0.166235
-28.9322 -3.57475 -0.422312 0.177193 0.948521 -0.26251
-33.7808 -4.35275 7.259 -0.30399 0.887822 0.345489
-32.1635 -4.18888 7.43363 -0.494985 0.710564 0.500088
-30.6003 -0.275 -0.702 0.29752 -0.343281 0.890865
-39.3888 -6.33588 5.80237 -0.0383378 0.914225 0.403388
-36.4315 1.14775 3.6145 0.566569 -0.0350329 0.823269
-29.4058 -2.83725 -1.95275 0.418062 0.552882 0.720795
-37.878 -6.53662 6.06738 0.0806288 0.996742 0.00230739
-36.7781 -6.53188 6.914 -0.216885 0.972193 0.0883307
-31.87 1.445 -0.4295 0.0845076 -0.0101996 0.996371
-29.9763 -1.939 5.25131 -0.52254 0.817588 -0.24187
-40.8904 -4.4085 5.07013 -0.0705653 -0.348085 0.934803
-37.097 0.353 3.8695 0.176704 -0.136258 0.974787
-30.0037 -1.3065 -1.902 0.440059 -0.203184 0.87468
-35.6632 3.54737 1.66925 0.694694 0.329017 0.639647
-33.4614 3.28387 -0.543375 0.431141 0.229098 0.872715
-40.1156 -3.0305 5.21513 0.613754 0.0165811 0.789323
-34.8864 3.69462 0.610563 0.697698 0.177179 0.694136
-28.3189 -2.3435 3.09025 -0.130167 0.986324 -0.101103
-27.5492 -2.51375 0.8025 -0.263077 0.713557 -0.649328
-28.7354 -1.89062 4.48138 -0.134073 0.9067 -0.399899
-38.7046 0.434438 3.35763 -0.017559 -0.0932078 0.995492
-31.2589 -2.88775 7.42325 -0.944353 0.24938 0.214491
-34.8674 -5.60225 8.20088 -0.382486 0.708639 0.592904
-36.4515 2.298 3.7275 0.582346 0.298106 0.756311
-27.897 -4.00575 -1.309 0.113007 0.983211 0.143266
-30.886 -2.0955 6.865 -0.812348 0.52618 -0.251447
-29.7279 0.5895 -0.70275 0.440474 -0.169191 0.881678
-36.215 3.1935 2.472 0.601827 0.538145 0.590088
-27.3611 -1.5905 1.81975 -0.363097 0.920535 -0.144137
-39.8204 -6.49412 6.95056 -0.617739 0.785837 0.0292997
-40.3257 -7.13325 6.0125 -0.902043 0.354241 0.246639
-40.2346 -1.98538 4.73763 0.295184 0.348033 0.889797
-41.806 -6.0655 4.664 -0.668142 -0.13767 0.731186
-36.2115 -6.49013 8.4785 -0.198481 0.832854 0.516681
-27.1951 -3.55075 -0.111125 -0.268874 0.776091 -0.57043
-31.5397 -5.06975 8.558 -0.181328 0.312937 0.932304
-37.558 1.975 4.17487 0.0352649 0.0157289 0.999254
-41.2697 -3.31787 5.51263 -0.228896 0.144192 0.962713
-30.8317 -4.04781 8.4385 -0.540475 0.0841614 0.83714
-40.7697 -7.24625 4.67725 -0.714739 -0.526074 0.460863
-33.1136 -5.69175 8.441 -0.0804986 0.527094 0.845986
-37.5353 -6.48425 8.23575 0.0970878 0.959624 0.263998
-33.2643 4.08875 -1.24125 0.454571 0.739756 0.49611
-27.8848 -3.35856 -2.33444 0.404983 0.764178 0.502016
-29.0264 -0.8405 -2.34175 0.559273 -0.22417 0.798099
-42.1951 -4.93669 3.83363 -0.882318 -0.162969 0.441538
-26.6472 -2.07825 0.52075 -0.429878 0.707136 -0.561395
-40.5229 -1.05625 4.39113 0.0563963 0.254513 0.965423
-28.8014 -0.948 5.80925 -0.23342 0.901253 -0.365046
-27.9172 -2.3765 -2.96 0.581996 0.252982 0.77284
-42.0901 -3.38044 4.73325 -0.827295 0.00828891 0.561706
-31.8743 3.232 -0.751375 0.287089 0.611263 0.737521
-38.5578 -5.97625 7.695 -0.022914 0.993538 0.111163
-27.1737 -2.05825 3.749 -0.225108 0.967995 -0.110962
-34.08 4.646 -0.2085 0.694678 0.54295 0.471834
-29.9776 2.01312 -0.830625 0.295472 0.380909 0.876131
-35.4398 5.106 0.462875 0.568192 0.661566 0.489376
-39.6213 1.29762 3.55437 0.233579 -0.0350575 0.971706
-30.2841 -1.28112 7.27375 -0.515091 0.80885 -0.283626
-27.589 -1.389 4.9675 0.112893 0.900328 -0.420314
-40.336 -8.1225 5.43937 -0.944471 -0.323984 -0.0548503
-31.284 -1.93062 8.35487 -0.967646 0.251675 0.0178941
-36.7305 5.051 2.075 0.619813 0.41907 0.663485
-37.587 3.07075 3.68775 0.226641 0.577705 0.78415
-40.364 -7.339 7.8165 -0.928574 0.228913 0.292146
-30.7165 -5.80762 8.67513 -0.00172286 0.136058 0.990699
-26.4788 -3.63587 -1.1685 -0.206981 0.868101 -0.451177
-41.5761 -1.9345 4.50787 -0.463942 0.467623 0.752388
-34.8695 -6.857 9.14087 -0.190404 0.275077 0.942379
-41.8543 -6.81925 3.45994 -0.776072 -0.630333 -0.0198401
-26.3416 -1.54663 2.94225 -0.292567 0.943917 0.153052
-28.9252 1.9085 -1.19237 0.640734 0.386869 0.663168
-40.3073 -8.2845 7.0405 -0.983741 -0.144484 0.106671
-37.5692 4.24862 2.59262 0.374094 0.371871 0.849568
-33.7136 4.56025 -2.15162 0.493744 0.799678 0.341661
-30.3359 -3.20906 9.39494 -0.518284 -0.519009 0.679714
-33.6727 -6.60225 9.258 0.0702203 0.288359 0.954944
-40.3124 -7.47781 3.41987 -0.570349 -0.785454 -0.240342
-36.9893 -7.27563 9.55737 0.139151 0.628387 0.765354
-25.9555 -2.4545 -0.441 -0.278493 0.730613 -0.623416
-40.6965 0.08 4.0655 0.230056 0.0183663 0.973004
-25.6098 -1.29875 1.40572 -0.198089 0.951686 -0.234635
-35.5774 -7.80863 9.09609 0.168083 0.200091 0.965252
-29.5184 -4.752 8.38488 -0.0909488 -0.0927838 0.991524
-26.2812 -1.79919 4.2275 0.0486875 0.978856 0.19867
-32.0638 -6.682 8.86012 0.125745 0.107356 0.986237
-39.2218 -6.73138 8.81181 -0.384019 0.697497 0.605002
-27.7307 -1.12587 -3.318 0.465009 -0.158384 0.871023
-28.2756 0.54275 -2.18088 0.653411 -0.0426828 0.755799
-42.4011 -3.13925 3.435 -0.95444 0.108251 0.278077
-41.7721 -1.25794 3.68622 -0.822648 0.114956 0.556808
-26.9059 -3.06125 -3.65313 0.443126 0.344826 0.827487
-42.3643 -4.956 2.285 -0.933146 -0.299697 0.198547
-26.5276 -4.14087 -2.73962 0.296119 0.935602 0.192256
-29.6915 -0.818 8.0575 -0.18737 0.982244 -0.00943878
-25.1295 -1.6415 0.5245 -0.0893641 0.890378 -0.446365
-26.7374 -1.6605 5.6375 0.636246 0.771467 -0.00537523
-39.0421 3.00738 3.62512 0.235222 0.228087 0.9448
-27.3608 -0.706375 6.498 0.486007 0.865123 -0.123934
-36.8985 5.6195 1.235 0.577129 0.803528 0.145822
-31.2518 3.80475 -2.079 0.355292 0.782052 0.512017
-30.5637 -1.03225 8.513 -0.50348 0.858874 0.0940354
-36.5909 5.66354 -0.0681541 0.192136 0.924412 0.329462
-30.897 -2.10525 9.48612 -0.822547 0.156029 0.546874
-39.72 -9.3495 5.1955 -0.880232 -0.386669 -0.275096
-30.4287 -7.0005 8.672 0.0960066 -0.186931 0.97767
-33.4975 5.05875 -3.01275 0.306894 0.629665 0.71368
-28.412 -0.64125 7.73375 0.0344408 0.999214 0.0196461
-29.779 3.11438 -2.143 0.436958 0.725056 0.532317
-31.7789 4.47612 -2.80687 0.325863 0.754509 0.569675
-42.1297 0.21025 4.2505 -0.463454 -0.274326 0.842589
-39.757 -9.28 6.953 -0.878225 -0.449744 0.162637
3 104 146 103
3 151 134 113
3 113 143 151
3 113 134 67
3 104 67 134
3 67 106 113
3 143 113 106
3 67 84 119
3 84 124 119
3 84 111 124
3 84 67 55
3 126 160 115
3 152 156 107
3 107 156 142
3 150 114 96
3 163 124 164
3 124 141 164
3 105 121 141
3 164 141 121
3 54 35 36
3 36 35 26
3 20 35 32
3 54 55 35
3 30 32 49
3 35 55 67
3 77 103 80
3 115 81 80
3 81 115 107
3 81 107 70
3 115 152 107
3 96 68 70
3 51 68 47
3 51 47 29
3 47 74 31
3 31 74 52
3 52 74 75
3 75 74 114
3 114 109 75
3 114 150 159
3 110 131 94
3 184 121 154
3 184 164 121
3 71 121 105
3 94 71 62
3 71 64 42
3 71 42 62
3 32 30 20
3 17 20 30
3 30 51 17
3 17 5 6
3 5 17 10
3 11 33 23
3 99 72 95
3 99 132 83
3 168 132 175
3 175 135 177
3 135 149 177
3 149 95 112
3 132 168 181
3 137 171 110
3 147 137 101
3 101 87 147
3 69 97 78
3 78 110 85
3 78 85 53
3 110 94 85
3 2 3 0
3 6 5 0
3 2 0 4
3 8 12 27
3 12 23 28
3 28 38 24
3 38 57 24
3 57 48 61
3 57 61 91
3 91 61 93
3 33 61 48
3 122 132 181
3 122 181 172
3 93 122 133
3 133 127 93
3 153 120 169
3 155 169 120
3 87 90 130
3 87 101 69
3 60 69 43
3 34 69 53
3 78 53 69
3 39 42 21
3 40 19 27
3 34 39 19
3 39 21 19
3 21 8 19
3 2 4 8
3 58 40 56
3 100 82 76
3 56 76 82
3 82 100 129
3 118 76 86
3 118 86 79
3 73 46 63
3 120 92 102
3 92 63 102
3 91 127 102
3 102 127 144
3 79 117 123
3 116 88 125
3 128 88 116
3 88 90 65
3 65 90 60
3 60 43 65
3 65 43 41
3 58 82 88
3 118 123 161
3 174 183 125
3 174 125 182
3 182 125 129
3 125 88 82
3 51 49 59
3 77 67 104
3 77 104 103
3 119 166 143
3 36 64 54
3 26 35 20
3 59 32 35
3 59 35 77
3 59 77 80
3 77 35 67
3 49 32 59
3 81 51 59
3 68 51 70
3 70 51 81
3 80 81 59
3 17 51 29
3 29 18 10
3 10 17 29
3 31 18 29
3 31 29 47
3 33 31 52
3 75 72 52
3 75 95 72
3 112 95 75
3 112 75 109
3 139 109 114
3 139 114 159
3 112 109 157
3 112 157 149
3 139 157 109
3 171 131 110
3 94 131 121
3 121 131 154
3 71 94 121
3 45 42 64
3 45 64 36
3 6 20 17
3 18 11 5
3 18 5 10
3 61 33 72
3 72 83 61
3 99 83 72
3 147 171 137
3 21 42 22
3 21 22 15
3 15 22 7
3 7 22 14
3 14 22 25
3 36 25 45
3 45 25 22
3 45 22 42
3 13 3 16
3 16 3 14
3 3 13 6
3 26 13 16
3 26 16 36
3 36 16 25
3 25 16 14
3 14 3 7
3 20 6 13
3 20 13 26
3 2 7 3
3 0 3 6
3 4 0 1
3 4 1 11
3 11 1 5
3 5 1 0
3 12 4 9
3 9 11 23
3 11 9 4
3 8 4 12
3 23 12 9
3 27 24 50
3 24 12 28
3 12 24 27
3 44 50 24
3 44 24 46
3 57 63 24
3 24 63 46
3 91 63 57
3 93 83 122
3 83 93 61
3 170 158 133
3 133 158 127
3 158 144 127
3 140 120 153
3 117 140 167
3 136 130 173
3 60 87 69
3 43 69 34
3 41 43 19
3 41 19 40
3 19 43 34
3 15 8 21
3 8 15 7
3 8 7 2
3 65 41 40
3 65 40 58
3 27 50 40
3 40 50 56
3 56 50 76
3 79 66 44
3 66 86 76
3 44 66 50
3 73 79 44
3 46 73 44
3 50 66 76
3 79 86 66
3 117 79 98
3 98 79 73
3 73 108 98
3 117 98 140
3 140 98 108
3 108 73 92
3 120 140 108
3 120 108 92
3 91 102 63
3 161 123 165
3 117 165 123
3 167 165 117
3 183 180 148
3 125 183 116
3 116 183 148
3 116 148 128
3 87 60 90
3 58 88 65
3 162 118 161
3 82 129 125
3 146 134 185
3 185 134 178
3 134 146 104
3 146 138 103
3 106 67 119
3 106 119 143
3 160 126 103
3 160 103 138
3 142 150 96
3 124 163 119
3 111 84 89
3 111 89 105
3 105 141 111
3 111 141 124
3 54 64 89
3 54 89 55
3 55 89 84
3 89 64 105
3 80 126 115
3 126 80 103
3 160 152 115
3 142 96 107
3 107 96 70
3 96 74 68
3 74 47 68
3 114 74 96
3 64 71 105
3 49 51 30
3 31 33 11
3 31 11 18
3 95 149 135
3 99 95 135
3 99 135 132
3 132 135 175
3 179 139 159
3 97 137 110
3 97 110 78
3 69 101 97
3 101 137 97
3 39 62 42
3 62 39 53
3 62 53 85
3 62 85 94
3 37 23 33
3 37 33 48
3 48 57 38
3 48 38 28
3 48 28 37
3 37 28 23
3 132 122 83
3 133 172 170
3 133 122 172
3 147 87 136
3 136 87 130
3 39 34 53
3 27 19 8
3 100 76 118
3 73 63 92
3 91 93 127
3 102 144 155
3 155 120 102
3 90 88 128
3 90 128 130
3 58 56 82
3 118 162 100
3 100 162 145
3 100 145 129
3 118 79 123
3 145 182 129
3 52 72 33
3 173 130 176
