ply
format ascii 1.0
comment Generated by PyMesh
element vertex 180
property float x
property float y
property float z
property float nx
property float ny
property float nz
element face 307
property list uchar int vertex_indices
end_header
-36.2704 -3.198 -0.585813 -0.0350476 -0.118894 0.992288
-35.2925 -3.2405 -0.350875 -0.367442 0.0947415 0.925208
-37.3666 -3.35194 -0.498563 0.371797 0.0310102 0.927796
-36.4637 -2.113 -0.2115 -0.0157937 -0.645112 0.763924
-35.9878 -4.63312 -0.051875 -0.0681136 0.630653 0.77307
-35.0124 -2.15687 0.0776875 -0.132374 -0.269482 0.953864
-37.416 -1.8825 0.155 0.413356 -0.677452 0.608436
-38.1285 -2.969 0.269125 0.843178 -0.22809 0.486853
-34.7426 -4.191 0.26325 -0.340167 0.668509 0.661349
-38.0385 -4.1545 0.1545 0.715193 0.39173 0.578832
-36.1942 -1.52581 0.898938 0.200794 -0.884774 0.420543
-36.3025 -5.19994 1.31463 -0.135275 0.967282 0.214632
-33.4766 -3.51219 0.695625 -0.65061 0.291893 0.701075
-34.925 -0.822125 0.624313 0.691245 -0.250309 0.677883
-33.8745 -4.44375 0.85425 -0.610094 0.669089 0.424388
-37.6309 -4.894 0.760625 0.35599 0.853998 0.379419
-38.1974 -2.14069 1.66594 0.787496 -0.564312 0.247794
-33.3881 -0.907 -0.127625 0.358553 0.40405 0.841536
-37.4189 -1.511 2.14619 0.361916 -0.871285 0.331481
-38.6023 -3.22781 1.86181 0.954505 0.0227215 0.297327
-35.9363 -1.14137 2.40313 0.578249 -0.734484 0.355191
-32.8725 -1.9635 0.789 -0.481363 0.641157 0.597668
-34.0807 -4.81025 1.82325 -0.396356 0.895647 0.201787
-38.3061 -4.64156 1.7885 0.772696 0.573598 0.271893
-32.6063 -2.82525 1.547 -0.950184 0.265308 0.16359
-35.245 -0.365 1.9245 0.927783 -0.160929 0.33663
-35.5205 -4.9905 2.8695 -0.102899 0.986652 0.126215
-37.5618 -5.33744 2.60069 0.116432 0.978917 0.167823
-33.0566 0.118375 -0.5665 0.338264 0.0327202 0.940482
-34.3894 0.790625 0.009625 0.660308 -0.00013185 0.750995
-33.0858 -3.63425 2.55325 -0.882026 0.453282 0.128706
-35.0541 1.07375 1.07763 0.90533 -0.0469999 0.4221
-31.7221 -2.39494 0.657188 0.407498 0.899155 -0.159577
-34.1722 -4.98475 3.09775 -0.287157 0.953252 0.0940841
-32.1995 -1.76988 1.95131 -0.237383 0.93881 -0.249569
-38.8596 -2.3095 3.33262 0.836238 -0.206014 0.508196
-35.5675 0.14675 2.96625 0.750801 -0.123764 0.64883
-36.6226 -0.83575 3.69537 0.20358 -0.500822 0.841268
-31.8857 -1.60984 -0.784625 0.51838 0.297852 0.801603
-39.0392 -4.08825 3.2905 0.866152 0.13306 0.481742
-38.5714 -0.836875 3.46025 0.391656 -0.137736 0.909744
-32.7163 -2.2705 2.6995 -0.91507 0.393282 0.0893089
-33.3517 -4.48987 3.43613 -0.704637 0.708257 0.0431058
-37.6167 -5.52175 3.63175 -0.0906204 0.930519 0.354856
-38.6125 -5.23581 3.59262 0.552816 0.670072 0.495377
-36.4033 -5.22025 3.798 -0.192443 0.937573 0.289695
-31.8854 0.152375 -0.856125 0.0564411 -0.15471 0.986346
-32.9215 1.461 -0.2985 0.183105 -0.0688322 0.980681
-35.019 2.274 1.26 0.859955 0.0943554 0.501572
-31.183 -1.832 1.72525 0.249647 0.832173 -0.49514
-34.2067 2.36244 -0.0304375 0.602862 -0.012522 0.797747
-34.769 -5.28237 4.57438 -0.440406 0.895197 -0.0683023
-31.0072 -2.9275 -0.510875 0.507971 0.830996 0.22674
-30.376 -3.0025 0.469 0.243404 0.888192 -0.389705
-37.097 0.353 3.8695 0.176704 -0.136258 0.974787
-32.0185 -1.359 3.388 -0.474648 0.844896 0.246697
-39.5793 -4.5735 4.28075 0.666708 0.0707343 0.741955
-31.08 -1.29131 2.85188 0.226045 0.97141 0.072571
-35.5944 1.77725 2.64581 0.858202 0.155366 0.489234
-36.4315 1.14775 3.6145 0.566569 -0.0350329 0.823269
-37.0402 -5.822 4.5435 -0.347204 0.810193 0.472268
-38.7046 0.434438 3.35763 -0.017559 -0.0932078 0.995492
-33.0223 -3.958 4.60862 -0.676776 0.735773 0.0247489
-32.271 -2.29513 4.08075 -0.588367 0.642445 0.491007
-30.606 -2.2485 -1.8515 0.546423 0.113876 0.829731
-40.2346 -1.98538 4.73763 0.295184 0.348033 0.889797
-31.87 1.445 -0.4295 0.0845076 -0.0101996 0.996371
-30.6003 -0.275 -0.702 0.29752 -0.343281 0.890865
-35.9019 -5.79362 5.36525 -0.443094 0.872622 0.205424
-40.1156 -3.0305 5.21513 0.613754 0.0165811 0.789323
-35.6632 3.54737 1.66925 0.694694 0.329017 0.639647
-33.4614 3.28387 -0.543375 0.431141 0.229098 0.872715
-29.8686 -2.227 2.542 0.363008 0.900369 -0.239917
-34.8864 3.69462 0.610563 0.697698 0.177179 0.694136
-29.097 -2.62 1.232 -0.0665671 0.910376 -0.408392
-40.5229 -1.05625 4.39113 0.0563963 0.254513 0.965423
-34.4007 -4.5955 5.6 -0.54596 0.829982 -0.114273
-37.0859 -6.42944 5.42169 -0.133285 0.924278 0.357694
-40.337 -5.247 4.9125 -0.235348 0.233348 0.943483
-36.4515 2.298 3.7275 0.582346 0.298106 0.756311
-39.6213 1.29762 3.55437 0.233579 -0.0350575 0.971706
-32.5255 -4.007 5.828 -0.477079 0.829495 0.290403
-40.8904 -4.4085 5.07013 -0.0705653 -0.348085 0.934803
-37.558 1.975 4.17487 0.0352649 0.0157289 0.999254
-36.215 3.1935 2.472 0.601827 0.538145 0.590088
-30.0037 -1.3065 -1.902 0.440059 -0.203184 0.87468
-28.9322 -3.57475 -0.422312 0.177193 0.948521 -0.26251
-39.3888 -6.33588 5.80237 -0.0383378 0.914225 0.403388
-30.534 -2.024 4.2795 -0.0501962 0.987192 0.151435
-29.7279 0.5895 -0.70275 0.440474 -0.169191 0.881678
-29.4058 -2.83725 -1.95275 0.418062 0.552882 0.720795
-41.5761 -1.9345 4.50787 -0.463942 0.467623 0.752388
-35.753 -6.076 6.7845 -0.619832 0.760206 0.194666
-33.2643 4.08875 -1.24125 0.454571 0.739756 0.49611
-41.2697 -3.31787 5.51263 -0.228896 0.144192 0.962713
-37.878 -6.53662 6.06738 0.0806288 0.996742 0.00230739
-40.6965 0.08 4.0655 0.230056 0.0183663 0.973004
-35.2217 -5.19338 6.81475 -0.691483 0.696105 0.193104
-31.8743 3.232 -0.751375 0.287089 0.611263 0.737521
-36.7781 -6.53188 6.914 -0.216885 0.972193 0.0883307
-41.7721 -1.25794 3.68622 -0.822648 0.114956 0.556808
-34.08 4.646 -0.2085 0.694678 0.54295 0.471834
-29.9776 2.01312 -0.830625 0.295472 0.380909 0.876131
-35.4398 5.106 0.462875 0.568192 0.661566 0.489376
-37.587 3.07075 3.68775 0.226641 0.577705 0.78415
-28.3189 -2.3435 3.09025 -0.130167 0.986324 -0.101103
-31.387 -3.21175 6.058 -0.675592 0.718291 0.166235
-27.5492 -2.51375 0.8025 -0.263077 0.713557 -0.649328
-29.0264 -0.8405 -2.34175 0.559273 -0.22417 0.798099
-29.9763 -1.939 5.25131 -0.52254 0.817588 -0.24187
-36.7305 5.051 2.075 0.619813 0.41907 0.663485
-33.7808 -4.35275 7.259 -0.30399 0.887822 0.345489
-41.806 -6.0655 4.664 -0.668142 -0.13767 0.731186
-39.8204 -6.49412 6.95056 -0.617739 0.785837 0.0292997
-40.3257 -7.13325 6.0125 -0.902043 0.354241 0.246639
-27.897 -4.00575 -1.309 0.113007 0.983211 0.143266
-42.1297 0.21025 4.2505 -0.463454 -0.274326 0.842589
-42.0901 -3.38044 4.73325 -0.827295 0.00828891 0.561706
-27.3611 -1.5905 1.81975 -0.363097 0.920535 -0.144137
-32.1635 -4.18888 7.43363 -0.494985 0.710564 0.500088
-37.5692 4.24862 2.59262 0.374094 0.371871 0.849568
-33.7136 4.56025 -2.15162 0.493744 0.799678 0.341661
-40.7697 -7.24625 4.67725 -0.714739 -0.526074 0.460863
-39.0421 3.00738 3.62512 0.235222 0.228087 0.9448
-42.1951 -4.93669 3.83363 -0.882318 -0.162969 0.441538
-27.1951 -3.55075 -0.111125 -0.268874 0.776091 -0.57043
-28.9252 1.9085 -1.19237 0.640734 0.386869 0.663168
-27.8848 -3.35856 -2.33444 0.404983 0.764178 0.502016
-28.7354 -1.89062 4.48138 -0.134073 0.9067 -0.399899
-41.0505 2.48775 4.56675 0.203024 -0.106568 0.973357
-41.4772 1.22775 4.66525 -0.00352843 -0.115298 0.993325
-27.9172 -2.3765 -2.96 0.581996 0.252982 0.77284
-26.6472 -2.07825 0.52075 -0.429878 0.707136 -0.561395
-34.8674 -5.60225 8.20088 -0.382486 0.708639 0.592904
-36.2115 -6.49013 8.4785 -0.198481 0.832854 0.516681
-28.2756 0.54275 -2.18088 0.653411 -0.0426828 0.755799
-36.8985 5.6195 1.235 0.577129 0.803528 0.145822
-31.2518 3.80475 -2.079 0.355292 0.782052 0.512017
-36.5909 5.66354 -0.0681541 0.192136 0.924412 0.329462
-38.5578 -5.97625 7.695 -0.022914 0.993538 0.111163
-42.4468 -2.0485 2.633 -0.822443 0.0439963 0.567143
-27.1737 -2.05825 3.749 -0.225108 0.967995 -0.110962
-37.5353 -6.48425 8.23575 0.0970878 0.959624 0.263998
-31.2589 -2.88775 7.42325 -0.944353 0.24938 0.214491
-40.336 -8.1225 5.43937 -0.944471 -0.323984 -0.0548503
-30.886 -2.0955 6.865 -0.812348 0.52618 -0.251447
-33.4975 5.05875 -3.01275 0.306894 0.629665 0.71368
-40.364 -7.339 7.8165 -0.928574 0.228913 0.292146
-29.779 3.11438 -2.143 0.436958 0.725056 0.532317
-31.7789 4.47612 -2.80687 0.325863 0.754509 0.569675
-41.8543 -6.81925 3.45994 -0.776072 -0.630333 -0.0198401
-39.8445 3.57888 4.13925 0.552164 0.149121 0.820291
-27.7307 -1.12587 -3.318 0.465009 -0.158384 0.871023
-28.8014 -0.948 5.80925 -0.23342 0.901253 -0.365046
-40.3073 -8.2845 7.0405 -0.983741 -0.144484 0.106671
-37.853 6.161 2.52325 0.485835 0.491831 0.722542
-42.4011 -3.13925 3.435 -0.95444 0.108251 0.278077
-42.7577 -0.231688 2.256 -0.776429 -0.137096 0.615112
-34.5864 5.55737 -2.37337 0.655781 0.638033 0.403565
-26.4788 -3.63587 -1.1685 -0.206981 0.868101 -0.451177
-40.3124 -7.47781 3.41987 -0.570349 -0.785454 -0.240342
-26.3416 -1.54663 2.94225 -0.292567 0.943917 0.153052
-35.4403 6.199 -1.359 0.397987 0.795831 0.456354
-31.5397 -5.06975 8.558 -0.181328 0.312937 0.932304
-42.217 2.568 4.372 -0.421686 -0.00642154 0.906719
-33.1136 -5.69175 8.441 -0.0804986 0.527094 0.845986
-43.0871 1.57525 3.7945 -0.765179 -0.186942 0.61608
-27.589 -1.389 4.9675 0.112893 0.900328 -0.420314
-30.8317 -4.04781 8.4385 -0.540475 0.0841614 0.83714
-39.2218 -6.73138 8.81181 -0.384019 0.697497 0.605002
-42.3643 -4.956 2.285 -0.933146 -0.299697 0.198547
-39.1658 4.87844 2.96075 0.379436 0.357608 0.853314
-25.9555 -2.4545 -0.441 -0.278493 0.730613 -0.623416
-30.2841 -1.28112 7.27375 -0.515091 0.80885 -0.283626
-25.6098 -1.29875 1.40572 -0.198089 0.951686 -0.234635
-42.0288 3.59275 4.5445 -0.480291 0.13937 0.865966
-43.2521 -1.776 2.00638 -0.520021 -0.0834216 0.85007
-26.2812 -1.79919 4.2275 0.0486875 0.978856 0.19867
-28.0018 1.56387 -2.80487 0.454166 0.41808 0.786729
-26.9059 -3.06125 -3.65313 0.443126 0.344826 0.827487
3 114 154 113
3 160 144 122
3 122 150 160
3 122 144 78
3 114 78 144
3 78 112 122
3 150 122 112
3 78 82 124
3 82 117 124
3 82 94 117
3 82 78 56
3 139 169 142
3 156 117 100
3 117 91 100
3 65 75 91
3 100 91 75
3 39 44 19
3 19 44 23
3 27 44 43
3 39 56 44
3 45 43 60
3 44 56 78
3 87 113 95
3 142 99 95
3 99 142 134
3 99 134 92
3 133 97 92
3 68 97 76
3 68 76 51
3 76 111 62
3 62 111 81
3 81 111 119
3 119 111 165
3 165 163 119
3 166 130 164
3 164 130 129
3 164 129 175
3 83 80 61
3 96 130 116
3 116 75 96
3 116 100 75
3 40 75 65
3 61 40 37
3 40 35 18
3 40 18 37
3 43 45 27
3 26 27 45
3 45 68 26
3 26 22 11
3 22 26 33
3 30 63 41
3 145 106 143
3 145 173 109
3 104 123 83
3 151 129 123
3 120 104 84
3 84 70 120
3 58 79 59
3 59 83 54
3 59 54 36
3 83 61 54
3 1 4 8
3 11 22 8
3 1 8 12
3 5 21 17
3 21 41 34
3 34 49 32
3 49 72 32
3 72 57 88
3 72 88 105
3 105 88 128
3 63 88 57
3 128 153 167
3 167 141 128
3 155 110 136
3 110 155 120
3 70 73 103
3 70 84 58
3 48 58 31
3 25 58 36
3 59 36 58
3 20 18 10
3 28 13 17
3 25 20 13
3 20 10 13
3 10 5 13
3 1 12 5
3 47 28 46
3 89 66 67
3 46 67 66
3 66 89 102
3 108 67 85
3 108 85 90
3 86 53 74
3 132 107 118
3 107 74 118
3 105 141 118
3 118 141 161
3 90 127 131
3 162 103 158
3 93 71 98
3 101 71 93
3 71 73 50
3 50 73 48
3 48 31 50
3 50 31 29
3 47 66 71
3 108 131 152
3 137 149 98
3 137 98 148
3 148 98 102
3 98 71 66
3 68 60 77
3 87 78 114
3 87 114 113
3 124 170 150
3 100 140 156
3 19 35 39
3 23 44 27
3 77 43 44
3 77 44 87
3 77 87 95
3 87 44 78
3 60 43 77
3 99 68 77
3 97 68 92
3 92 68 99
3 95 99 77
3 26 68 51
3 51 42 33
3 33 26 51
3 62 42 51
3 62 51 76
3 63 62 81
3 119 106 81
3 119 143 106
3 168 143 119
3 168 119 163
3 116 157 100
3 140 100 157
3 140 157 176
3 123 129 80
3 123 80 83
3 80 129 130
3 61 80 75
3 75 80 96
3 96 80 130
3 40 61 75
3 16 18 35
3 16 35 19
3 11 27 26
3 42 30 22
3 42 22 33
3 88 63 106
3 106 109 88
3 145 109 106
3 123 171 151
3 120 171 123
3 120 123 104
3 10 18 6
3 10 6 3
3 3 6 0
3 0 6 2
3 2 6 7
3 19 7 16
3 16 7 6
3 16 6 18
3 15 4 9
3 9 4 2
3 4 15 11
3 23 15 9
3 23 9 19
3 19 9 7
3 7 9 2
3 2 4 0
3 27 11 15
3 27 15 23
3 1 0 4
3 8 4 11
3 12 8 14
3 12 14 30
3 30 14 22
3 22 14 8
3 21 12 24
3 24 30 41
3 30 24 12
3 5 12 21
3 41 21 24
3 17 32 38
3 32 21 34
3 21 32 17
3 52 38 32
3 52 32 53
3 72 74 32
3 32 74 53
3 105 74 72
3 128 109 153
3 109 128 88
3 167 177 141
3 177 161 141
3 159 132 172
3 110 103 136
3 48 70 58
3 31 58 25
3 29 31 13
3 29 13 28
3 13 31 25
3 3 5 10
3 5 3 0
3 5 0 1
3 50 29 28
3 50 28 47
3 17 38 28
3 28 38 46
3 46 38 67
3 90 64 52
3 64 85 67
3 52 64 38
3 86 90 52
3 53 86 52
3 38 64 67
3 90 85 64
3 127 90 115
3 115 90 86
3 86 125 115
3 127 115 159
3 159 115 125
3 125 86 107
3 132 159 125
3 132 125 107
3 105 118 74
3 152 131 179
3 127 179 131
3 146 158 121
3 121 158 101
3 149 146 121
3 98 149 93
3 93 149 121
3 93 121 101
3 70 48 73
3 47 71 50
3 135 108 152
3 66 102 98
3 144 154 114
3 154 147 113
3 112 78 124
3 112 124 150
3 169 139 113
3 169 113 147
3 117 156 124
3 94 82 69
3 94 69 65
3 65 91 94
3 94 91 117
3 39 35 69
3 39 69 56
3 56 69 82
3 69 35 65
3 95 139 142
3 139 95 113
3 134 133 92
3 133 111 97
3 111 76 97
3 165 111 133
3 130 166 116
3 166 157 116
3 35 40 65
3 60 68 45
3 62 63 30
3 62 30 42
3 79 104 83
3 79 83 59
3 58 84 79
3 84 104 79
3 20 37 18
3 37 20 36
3 37 36 54
3 37 54 61
3 55 41 63
3 55 63 57
3 57 72 49
3 57 49 34
3 57 34 55
3 55 34 41
3 173 153 109
3 155 171 120
3 120 70 110
3 110 70 103
3 20 25 36
3 17 13 5
3 89 67 108
3 86 74 107
3 105 128 141
3 118 161 174
3 174 132 118
3 138 103 162
3 73 71 101
3 73 101 103
3 158 103 101
3 47 46 66
3 108 135 89
3 89 135 126
3 89 126 102
3 108 90 131
3 126 148 102
3 81 106 63
3 136 103 138
