ply
format ascii 1.0
comment Generated by PyMesh
element vertex 167
property float x
property float y
property float z
property float nx
property float ny
property float nz
element face 284
property list uchar int vertex_indices
end_header
-37.3666 -3.35194 -0.498563 0.371797 0.0310102 0.927796
-36.2704 -3.198 -0.585813 -0.0350476 -0.118894 0.992288
-38.1285 -2.969 0.269125 0.843178 -0.22809 0.486853
-38.0385 -4.1545 0.1545 0.715193 0.39173 0.578832
-37.416 -1.8825 0.155 0.413356 -0.677452 0.608436
-35.9878 -4.63312 -0.051875 -0.0681136 0.630653 0.77307
-35.2925 -3.2405 -0.350875 -0.367442 0.0947415 0.925208
-37.6309 -4.894 0.760625 0.35599 0.853998 0.379419
-36.4637 -2.113 -0.2115 -0.0157937 -0.645112 0.763924
-38.1974 -2.14069 1.66594 0.787496 -0.564312 0.247794
-38.6023 -3.22781 1.86181 0.954505 0.0227215 0.297327
-35.0124 -2.15687 0.0776875 -0.132374 -0.269482 0.953864
-38.3061 -4.64156 1.7885 0.772696 0.573598 0.271893
-36.1942 -1.52581 0.898938 0.200794 -0.884774 0.420543
-34.7426 -4.191 0.26325 -0.340167 0.668509 0.661349
-36.3025 -5.19994 1.31463 -0.135275 0.967282 0.214632
-37.4189 -1.511 2.14619 0.361916 -0.871285 0.331481
-37.5618 -5.33744 2.60069 0.116432 0.978917 0.167823
-33.4766 -3.51219 0.695625 -0.65061 0.291893 0.701075
-34.925 -0.822125 0.624313 0.691245 -0.250309 0.677883
-33.8745 -4.44375 0.85425 -0.610094 0.669089 0.424388
-39.0392 -4.08825 3.2905 0.866152 0.13306 0.481742
-38.8596 -2.3095 3.33262 0.836238 -0.206014 0.508196
-35.9363 -1.14137 2.40313 0.578249 -0.734484 0.355191
-38.6125 -5.23581 3.59262 0.552816 0.670072 0.495377
-33.3881 -0.907 -0.127625 0.358553 0.40405 0.841536
-34.0807 -4.81025 1.82325 -0.396356 0.895647 0.201787
-32.8725 -1.9635 0.789 -0.481363 0.641157 0.597668
-35.5205 -4.9905 2.8695 -0.102899 0.986652 0.126215
-37.6167 -5.52175 3.63175 -0.0906204 0.930519 0.354856
-36.6226 -0.83575 3.69537 0.20358 -0.500822 0.841268
-38.5714 -0.836875 3.46025 0.391656 -0.137736 0.909744
-32.6063 -2.82525 1.547 -0.950184 0.265308 0.16359
-35.245 -0.365 1.9245 0.927783 -0.160929 0.33663
-39.5793 -4.5735 4.28075 0.666708 0.0707343 0.741955
-36.4033 -5.22025 3.798 -0.192443 0.937573 0.289695
-33.0566 0.118375 -0.5665 0.338264 0.0327202 0.940482
-35.5675 0.14675 2.96625 0.750801 -0.123764 0.64883
-34.3894 0.790625 0.009625 0.660308 -0.00013185 0.750995
-33.0858 -3.63425 2.55325 -0.882026 0.453282 0.128706
-35.0541 1.07375 1.07763 0.90533 -0.0469999 0.4221
-37.0402 -5.822 4.5435 -0.347204 0.810193 0.472268
-31.7221 -2.39494 0.657188 0.407498 0.899155 -0.159577
-34.1722 -4.98475 3.09775 -0.287157 0.953252 0.0940841
-32.1995 -1.76988 1.95131 -0.237383 0.93881 -0.249569
-40.2346 -1.98538 4.73763 0.295184 0.348033 0.889797
-31.8857 -1.60984 -0.784625 0.51838 0.297852 0.801603
-38.7046 0.434438 3.35763 -0.017559 -0.0932078 0.995492
-37.097 0.353 3.8695 0.176704 -0.136258 0.974787
-33.3517 -4.48987 3.43613 -0.704637 0.708257 0.0431058
-32.7163 -2.2705 2.6995 -0.91507 0.393282 0.0893089
-40.1156 -3.0305 5.21513 0.613754 0.0165811 0.789323
-40.337 -5.247 4.9125 -0.235348 0.233348 0.943483
-34.769 -5.28237 4.57438 -0.440406 0.895197 -0.0683023
-37.0859 -6.42944 5.42169 -0.133285 0.924278 0.357694
-31.8854 0.152375 -0.856125 0.0564411 -0.15471 0.986346
-40.8904 -4.4085 5.07013 -0.0705653 -0.348085 0.934803
-39.3888 -6.33588 5.80237 -0.0383378 0.914225 0.403388
-32.9215 1.461 -0.2985 0.183105 -0.0688322 0.980681
-35.019 2.274 1.26 0.859955 0.0943554 0.501572
-31.183 -1.832 1.72525 0.249647 0.832173 -0.49514
-35.9019 -5.79362 5.36525 -0.443094 0.872622 0.205424
-36.4315 1.14775 3.6145 0.566569 -0.0350329 0.823269
-40.5229 -1.05625 4.39113 0.0563963 0.254513 0.965423
-34.2067 2.36244 -0.0304375 0.602862 -0.012522 0.797747
-35.5944 1.77725 2.64581 0.858202 0.155366 0.489234
-31.0072 -2.9275 -0.510875 0.507971 0.830996 0.22674
-30.376 -3.0025 0.469 0.243404 0.888192 -0.389705
-41.5761 -1.9345 4.50787 -0.463942 0.467623 0.752388
-32.0185 -1.359 3.388 -0.474648 0.844896 0.246697
-31.08 -1.29131 2.85188 0.226045 0.97141 0.072571
-39.6213 1.29762 3.55437 0.233579 -0.0350575 0.971706
-41.2697 -3.31787 5.51263 -0.228896 0.144192 0.962713
-33.0223 -3.958 4.60862 -0.676776 0.735773 0.0247489
-37.878 -6.53662 6.06738 0.0806288 0.996742 0.00230739
-32.271 -2.29513 4.08075 -0.588367 0.642445 0.491007
-34.4007 -4.5955 5.6 -0.54596 0.829982 -0.114273
-30.606 -2.2485 -1.8515 0.546423 0.113876 0.829731
-37.558 1.975 4.17487 0.0352649 0.0157289 0.999254
-31.87 1.445 -0.4295 0.0845076 -0.0101996 0.996371
-30.6003 -0.275 -0.702 0.29752 -0.343281 0.890865
-41.806 -6.0655 4.664 -0.668142 -0.13767 0.731186
-39.8204 -6.49412 6.95056 -0.617739 0.785837 0.0292997
-40.3257 -7.13325 6.0125 -0.902043 0.354241 0.246639
-36.4515 2.298 3.7275 0.582346 0.298106 0.756311
-40.6965 0.08 4.0655 0.230056 0.0183663 0.973004
-36.7781 -6.53188 6.914 -0.216885 0.972193 0.0883307
-42.0901 -3.38044 4.73325 -0.827295 0.00828891 0.561706
-35.6632 3.54737 1.66925 0.694694 0.329017 0.639647
-33.4614 3.28387 -0.543375 0.431141 0.229098 0.872715
-41.7721 -1.25794 3.68622 -0.822648 0.114956 0.556808
-29.8686 -2.227 2.542 0.363008 0.900369 -0.239917
-35.753 -6.076 6.7845 -0.619832 0.760206 0.194666
-40.7697 -7.24625 4.67725 -0.714739 -0.526074 0.460863
-34.8864 3.69462 0.610563 0.697698 0.177179 0.694136
-29.097 -2.62 1.232 -0.0665671 0.910376 -0.408392
-42.1951 -4.93669 3.83363 -0.882318 -0.162969 0.441538
-35.2217 -5.19338 6.81475 -0.691483 0.696105 0.193104
-36.215 3.1935 2.472 0.601827 0.538145 0.590088
-32.5255 -4.007 5.828 -0.477079 0.829495 0.290403
-30.0037 -1.3065 -1.902 0.440059 -0.203184 0.87468
-42.1297 0.21025 4.2505 -0.463454 -0.274326 0.842589
-28.9322 -3.57475 -0.422312 0.177193 0.948521 -0.26251
-30.534 -2.024 4.2795 -0.0501962 0.987192 0.151435
-37.587 3.07075 3.68775 0.226641 0.577705 0.78415
-29.7279 0.5895 -0.70275 0.440474 -0.169191 0.881678
-29.4058 -2.83725 -1.95275 0.418062 0.552882 0.720795
-40.336 -8.1225 5.43937 -0.944471 -0.323984 -0.0548503
-39.0421 3.00738 3.62512 0.235222 0.228087 0.9448
-40.364 -7.339 7.8165 -0.928574 0.228913 0.292146
-33.2643 4.08875 -1.24125 0.454571 0.739756 0.49611
-41.8543 -6.81925 3.45994 -0.776072 -0.630333 -0.0198401
-33.7808 -4.35275 7.259 -0.30399 0.887822 0.345489
-38.5578 -5.97625 7.695 -0.022914 0.993538 0.111163
-41.0505 2.48775 4.56675 0.203024 -0.106568 0.973357
-41.4772 1.22775 4.66525 -0.00352843 -0.115298 0.993325
-40.3073 -8.2845 7.0405 -0.983741 -0.144484 0.106671
-42.4011 -3.13925 3.435 -0.95444 0.108251 0.278077
-37.5353 -6.48425 8.23575 0.0970878 0.959624 0.263998
-31.8743 3.232 -0.751375 0.287089 0.611263 0.737521
-40.3124 -7.47781 3.41987 -0.570349 -0.785454 -0.240342
-36.2115 -6.49013 8.4785 -0.198481 0.832854 0.516681
-42.4468 -2.0485 2.633 -0.822443 0.0439963 0.567143
-34.08 4.646 -0.2085 0.694678 0.54295 0.471834
-29.9776 2.01312 -0.830625 0.295472 0.380909 0.876131
-35.4398 5.106 0.462875 0.568192 0.661566 0.489376
-28.3189 -2.3435 3.09025 -0.130167 0.986324 -0.101103
-31.387 -3.21175 6.058 -0.675592 0.718291 0.166235
-39.2218 -6.73138 8.81181 -0.384019 0.697497 0.605002
-27.5492 -2.51375 0.8025 -0.263077 0.713557 -0.649328
-42.3643 -4.956 2.285 -0.933146 -0.299697 0.198547
-34.8674 -5.60225 8.20088 -0.382486 0.708639 0.592904
-29.0264 -0.8405 -2.34175 0.559273 -0.22417 0.798099
-29.9763 -1.939 5.25131 -0.52254 0.817588 -0.24187
-36.7305 5.051 2.075 0.619813 0.41907 0.663485
-39.8445 3.57888 4.13925 0.552164 0.149121 0.820291
-42.7577 -0.231688 2.256 -0.776429 -0.137096 0.615112
-37.5692 4.24862 2.59262 0.374094 0.371871 0.849568
-27.897 -4.00575 -1.309 0.113007 0.983211 0.143266
-27.3611 -1.5905 1.81975 -0.363097 0.920535 -0.144137
-32.1635 -4.18888 7.43363 -0.494985 0.710564 0.500088
-33.7136 4.56025 -2.15162 0.493744 0.799678 0.341661
-39.72 -9.3495 5.1955 -0.880232 -0.386669 -0.275096
-42.217 2.568 4.372 -0.421686 -0.00642154 0.906719
-43.0871 1.57525 3.7945 -0.765179 -0.186942 0.61608
-39.757 -9.28 6.953 -0.878225 -0.449744 0.162637
-27.1951 -3.55075 -0.111125 -0.268874 0.776091 -0.57043
-28.9252 1.9085 -1.19237 0.640734 0.386869 0.663168
-27.8848 -3.35856 -2.33444 0.404983 0.764178 0.502016
-28.7354 -1.89062 4.48138 -0.134073 0.9067 -0.399899
-39.669 -8.315 8.716 -0.795708 -0.188115 0.575727
-43.2521 -1.776 2.00638 -0.520021 -0.0834216 0.85007
-39.2227 -8.85181 4.25631 -0.697007 -0.510394 -0.503666
-42.7841 -3.36331 1.97894 -0.787829 -0.144723 0.598649
-42.0288 3.59275 4.5445 -0.480291 0.13937 0.865966
-27.9172 -2.3765 -2.96 0.581996 0.252982 0.77284
-26.6472 -2.07825 0.52075 -0.429878 0.707136 -0.561395
-42.846 -4.95762 1.38975 -0.49883 -0.472741 0.726419
-41.0871 4.13737 4.7885 -0.0134583 0.342001 0.939603
-39.1658 4.87844 2.96075 0.379436 0.357608 0.853314
-28.2756 0.54275 -2.18088 0.653411 -0.0426828 0.755799
-36.8985 5.6195 1.235 0.577129 0.803528 0.145822
-31.2518 3.80475 -2.079 0.355292 0.782052 0.512017
-41.9191 -5.97325 1.76713 -0.650974 -0.758477 0.0307479
-36.5909 5.66354 -0.0681541 0.192136 0.924412 0.329462
-38.4269 -7.34469 9.6155 -0.347538 0.211085 0.913597
-36.9893 -7.27563 9.55737 0.139151 0.628387 0.765354
3 83 116 82
3 120 152 107
3 120 107 93
3 93 111 120
3 93 107 52
3 83 52 107
3 52 81 93
3 111 93 81
3 128 150 165
3 52 56 96
3 56 87 96
3 56 72 87
3 56 52 34
3 113 128 118
3 165 166 128
3 130 153 157
3 153 96 117
3 153 117 122
3 153 122 151
3 117 87 90
3 87 68 90
3 45 63 68
3 90 68 63
3 21 24 10
3 10 24 12
3 17 24 29
3 21 34 24
3 35 29 41
3 24 34 52
3 57 82 74
3 118 86 74
3 86 118 121
3 86 121 92
3 118 166 121
3 131 97 92
3 61 97 76
3 61 76 53
3 76 112 73
3 73 112 99
3 99 112 140
3 144 115 143
3 143 115 114
3 143 114 154
3 78 71 47
3 85 115 101
3 101 63 85
3 101 90 63
3 31 63 45
3 47 31 30
3 31 22 16
3 31 16 30
3 29 35 17
3 28 17 35
3 35 61 28
3 28 26 15
3 26 28 43
3 39 75 50
3 104 108 78
3 135 114 108
3 137 104 98
3 98 88 137
3 65 84 62
3 62 78 48
3 62 48 37
3 78 47 48
3 6 5 14
3 15 26 14
3 6 14 18
3 11 27 25
3 27 50 44
3 44 60 42
3 60 91 42
3 91 70 103
3 91 103 126
3 126 103 149
3 75 103 70
3 88 94 125
3 88 98 65
3 59 65 40
3 33 65 37
3 62 37 65
3 23 16 13
3 36 19 25
3 33 23 19
3 23 13 19
3 13 11 19
3 6 18 11
3 58 36 55
3 105 79 80
3 55 80 79
3 79 105 124
3 132 80 100
3 132 100 106
3 102 67 95
3 156 129 139
3 129 95 139
3 106 148 155
3 110 89 119
3 123 89 110
3 89 94 64
3 64 94 59
3 59 40 64
3 64 40 38
3 58 79 89
3 119 89 79
3 61 41 54
3 57 52 83
3 57 83 82
3 157 163 130
3 130 163 111
3 96 130 111
3 90 122 117
3 10 22 21
3 12 24 17
3 54 29 24
3 54 24 57
3 54 57 74
3 57 24 52
3 41 29 54
3 86 61 54
3 97 61 92
3 92 61 86
3 74 86 54
3 28 61 53
3 53 49 43
3 43 28 53
3 73 49 53
3 73 53 76
3 75 73 99
3 140 127 99
3 101 136 90
3 122 90 136
3 122 136 151
3 108 114 71
3 108 71 78
3 71 114 115
3 47 71 63
3 63 71 85
3 85 71 115
3 31 47 63
3 9 16 22
3 9 22 10
3 15 17 28
3 49 39 26
3 49 26 43
3 103 75 127
3 127 133 103
3 108 159 135
3 137 159 108
3 137 108 104
3 13 16 4
3 13 4 8
3 8 4 1
3 1 4 0
3 0 4 2
3 10 2 9
3 9 2 4
3 9 4 16
3 7 5 3
3 3 5 0
3 5 7 15
3 12 7 3
3 12 3 10
3 10 3 2
3 2 3 0
3 0 5 1
3 17 15 7
3 17 7 12
3 6 1 5
3 14 5 15
3 18 14 20
3 18 20 39
3 39 20 26
3 26 20 14
3 27 18 32
3 32 39 50
3 39 32 18
3 11 18 27
3 50 27 32
3 25 42 46
3 42 27 44
3 27 42 25
3 66 46 42
3 66 42 67
3 91 95 42
3 42 95 67
3 126 95 91
3 133 149 103
3 134 125 161
3 59 88 65
3 40 65 33
3 38 40 19
3 38 19 36
3 19 40 33
3 8 11 13
3 11 8 1
3 11 1 6
3 64 38 36
3 64 36 58
3 25 46 36
3 36 46 55
3 55 46 80
3 106 77 66
3 77 100 80
3 66 77 46
3 102 106 66
3 67 102 66
3 46 77 80
3 106 100 77
3 148 106 138
3 138 106 102
3 102 146 138
3 146 102 129
3 156 146 129
3 126 139 95
3 110 141 123
3 88 59 94
3 58 89 64
3 79 124 119
3 116 107 145
3 145 107 142
3 142 107 152
3 107 116 83
3 116 145 150
3 116 150 109
3 116 109 82
3 128 109 150
3 81 52 96
3 81 96 111
3 128 113 82
3 128 82 109
3 96 153 130
3 87 117 96
3 72 56 51
3 72 51 45
3 45 68 72
3 72 68 87
3 21 22 51
3 21 51 34
3 34 51 56
3 51 22 45
3 74 113 118
3 113 74 82
3 128 166 118
3 121 131 92
3 131 112 97
3 112 76 97
3 115 144 101
3 144 136 101
3 22 31 45
3 41 61 35
3 73 75 39
3 73 39 49
3 158 154 114
3 158 114 135
3 84 104 78
3 84 78 62
3 65 98 84
3 98 104 84
3 23 30 16
3 30 23 37
3 30 37 48
3 30 48 47
3 69 50 75
3 69 75 70
3 70 91 60
3 70 60 44
3 70 44 69
3 69 44 50
3 137 88 134
3 134 88 125
3 23 33 37
3 25 19 11
3 105 80 132
3 102 95 129
3 94 89 123
3 94 123 125
3 58 55 79
3 132 160 105
3 105 160 147
3 105 147 124
3 132 106 155
3 99 127 75
3 161 125 164
