ply
format ascii 1.0
comment Generated by PyMesh
element vertex 200
property float x
property float y
property float z
property float charge
property float ddc
property float hbond
property float hphob
property float rho
property float si
property float theta
property float nx
property float ny
property float nz
element face 344
property list uchar int vertex_indices
end_header
-32.6063 -2.82525 1.547 -0.460887 0 -0.466372 -0.777778 1e-08 -0.999882 2.22045e-16 -0.950184 0.265308 0.16359
-32.8725 -1.9635 0.789 -0.277471 -0.329253 -0.134529 -0.354247 1.17815 0.199251 2.22045e-16 -0.481363 0.641157 0.597668
-32.7163 -2.2705 2.6995 -0.821407 -0.336372 -0.0655108 -0.777778 1.28378 0.455057 4.43206 -0.91507 0.393282 0.0893089
-33.0858 -3.63425 2.55325 -0.39717 0.257523 -0.0935159 -0.777778 1.37729 -0.153587 3.2131 -0.882026 0.453282 0.128706
-33.4766 -3.51219 0.695625 -0.283369 0.429675 0 -0.288889 1.39791 -0.508533 1.64979 -0.65061 0.291893 0.701075
-32.1995 -1.76988 1.95131 -0.450837 0.588599 -0.485475 -0.777778 2.32181 0.346242 5.31201 -0.237383 0.93881 -0.249569
-31.7221 -2.39494 0.657188 -0.30844 0 -0.295931 -0.340147 2.41384 -0.259311 5.82177 0.407498 0.899155 -0.159577
-33.8745 -4.44375 0.85425 -0.229711 -0.0807206 0 -0.777778 2.42323 -0.863753 2.17353 -0.610094 0.669089 0.424388
-32.0185 -1.359 3.388 -0.66804 0.0985472 -0.457025 -0.777778 2.62236 0.999935 4.55999 -0.474648 0.844896 0.246697
-33.3517 -4.48987 3.43613 -0.318732 -0.0843761 0 -0.777778 2.63518 -0.678108 3.13065 -0.704637 0.708257 0.0431058
-33.3881 -0.907 -0.127625 -0.204074 -0.455412 0 -0.288889 2.66887 -0.143303 0.273985 0.358553 0.40405 0.841536
-32.271 -2.29513 4.08075 -0.67468 0.0954776 -0.14244 -0.777778 2.73525 0.336268 4.12127 -0.588367 0.642445 0.491007
-34.7426 -4.191 0.26325 -0.267609 -0.181674 0 -0.288889 2.89807 -0.354833 1.89072 -0.340167 0.668509 0.661349
-34.0807 -4.81025 1.82325 -0.262563 -0.135434 0 -0.165003 3.08191 -0.505076 2.58507 -0.396356 0.895647 0.201787
-31.183 -1.832 1.72525 -0.651407 0.684087 -0.619464 -0.777778 3.36499 0.576835 5.2686 0.249647 0.832173 -0.49514
-35.0124 -2.15687 0.0776875 -0.360413 -0.450515 0 -0.288889 3.44145 -0.12048 1.00396 -0.132374 -0.269482 0.953864
-33.0223 -3.958 4.60862 -0.405587 -0.0726481 0 -0.777778 3.45897 -0.0475736 3.51032 -0.676776 0.735773 0.0247489
-35.2925 -3.2405 -0.350875 -0.381477 -0.285578 0 -0.288889 3.51131 -0.680327 1.46541 -0.367442 0.0947415 0.925208
-34.1722 -4.98475 3.09775 -0.222041 -0.156837 0 0.622222 3.65136 -0.5295 2.86636 -0.287157 0.953252 0.0940841
-31.08 -1.29131 2.85188 -0.839707 0.37585 -0.502738 -0.777778 3.70532 0.87458 4.87436 0.226045 0.97141 0.072571
-33.0566 0.118375 -0.5665 -0.173941 -0.378769 0 0.698222 3.83244 -0.529628 0.233705 0.338264 0.0327202 0.940482
-31.0072 -2.9275 -0.510875 -0.260717 0.452511 0 -0.777778 3.88322 -0.75846 5.82444 0.507971 0.830996 0.22674
-30.376 -3.0025 0.469 -0.231141 0.456055 0 -0.777778 3.90264 -0.624391 5.64873 0.243404 0.888192 -0.389705
-31.8857 -1.60984 -0.784625 -0.38807 0.499367 -0.860595 -0.153048 4.06368 -0.327131 6.12853 0.51838 0.297852 0.801603
-35.9878 -4.63312 -0.051875 -0.273015 -0.189971 0 -0.241207 4.25649 -0.999864 1.79505 -0.0681136 0.630653 0.77307
-34.925 -0.822125 0.624313 -0.166115 -0.533589 0.237653 -0.54934 4.38196 -0.056821 0.730046 0.691245 -0.250309 0.677883
-30.534 -2.024 4.2795 -0.706847 0.195003 -0.563177 -0.777778 4.50448 -0.0403753 4.51305 -0.0501962 0.987192 0.151435
-36.2704 -3.198 -0.585813 -0.436477 -0.297417 0 -0.288889 4.51793 -0.999819 1.44448 -0.0350476 -0.118894 0.992288
-34.769 -5.28237 4.57438 -0.310572 -0.0994319 0 0.472631 4.61821 -0.489743 3.06424 -0.440406 0.895197 -0.0683023
-32.5255 -4.007 5.828 -0.40946 0.0516763 0 -0.149668 4.77659 -0.415664 3.67713 -0.477079 0.829495 0.290403
-35.5205 -4.9905 2.8695 -0.362307 -0.166826 0 0.622222 4.8708 0.475207 2.62407 -0.102899 0.986652 0.126215
-36.4637 -2.113 -0.2115 -0.292134 -0.366635 0 -0.288889 4.92193 -0.688259 1.20263 -0.0157937 -0.645112 0.763924
-29.8686 -2.227 2.542 -0.454337 0.390223 0 -0.7391 4.9621 -0.240152 5.04693 0.363008 0.900369 -0.239917
-36.1942 -1.52581 0.898938 -0.03695 -0.46838 0.335718 -0.777778 5.01287 -0.0563223 0.983078 0.200794 -0.884774 0.420543
-36.3025 -5.19994 1.31463 -0.396933 -0.135141 0 0.622222 5.0327 -0.650046 2.19051 -0.135275 0.967282 0.214632
-31.8854 0.152375 -0.856125 -0.221894 -0.342368 0 0.933333 5.0394 -0.802112 0.0732253 0.0564411 -0.15471 0.986346
-31.387 -3.21175 6.058 -0.489047 -0.0206779 -0.551445 -0.777778 5.08709 -0.370034 3.98507 -0.675592 0.718291 0.166235
-29.097 -2.62 1.232 -0.0443953 0.261151 0.708644 -0.155556 5.11055 0.0901163 5.32805 -0.0665671 0.910376 -0.408392
-32.9215 1.461 -0.2985 -0.189702 -0.289072 0 0.933333 5.2082 0.366122 0.430312 0.183105 -0.0688322 0.980681
-34.4007 -4.5955 5.6 -0.490827 -0.0867889 0 0.422222 5.2726 0.629453 3.90782 -0.54596 0.829982 -0.114273
-34.3894 0.790625 0.009625 -0.159551 -0.365411 0 -0.676371 5.4325 -0.595087 0.495079 0.660308 -0.00013185 0.750995
-30.606 -2.2485 -1.8515 -0.350867 0.366524 0 0.372242 5.43862 -0.861368 0.380498 0.546423 0.113876 0.829731
-29.9763 -1.939 5.25131 -0.205173 -0.115669 0 -0.777778 5.62817 -0.0916818 4.42713 -0.52254 0.817588 -0.24187
-37.3666 -3.35194 -0.498563 -0.268494 -0.269277 0 -0.288889 5.62832 -0.999877 1.52641 0.371797 0.0310102 0.927796
-28.9322 -3.57475 -0.422312 -0.259733 0.241236 0.0518446 -0.157184 5.69331 -0.429332 5.56654 0.177193 0.948521 -0.26251
-35.245 -0.365 1.9245 -0.229509 -0.499487 0 -0.777778 5.79682 0.601351 0.313452 0.927783 -0.160929 0.33663
-30.6003 -0.275 -0.702 -0.222745 -0.393343 0 0.933333 5.91864 0.47541 0.262927 0.29752 -0.343281 0.890865
-37.416 -1.8825 0.155 -0.18782 -0.350038 0.00899123 -0.546584 5.96803 -0.999882 0.875378 0.413356 -0.677452 0.608436
-29.4058 -2.83725 -1.95275 -0.33613 0.249952 0 0.422222 6.03999 -0.388537 0.380498 0.418062 0.552882 0.720795
-35.9019 -5.79362 5.36525 -0.244153 -0.048865 0 0.622222 6.0914 -0.18642 3.06424 -0.443094 0.872622 0.205424
-37.6309 -4.894 0.760625 -0.305554 -0.189198 0 0.4401 6.10797 -0.78656 2.19051 0.35599 0.853998 0.379419
-36.4033 -5.22025 3.798 -0.307738 -0.105359 0 0.622222 6.17243 0.63504 2.62407 -0.192443 0.937573 0.289695
-33.7808 -4.35275 7.259 -0.49901 -0.0688552 0 0.422222 6.24387 0.711429 3.90782 -0.30399 0.887822 0.345489
-31.87 1.445 -0.4295 -0.183959 -0.266146 0 0.933333 6.26795 0.424064 0.430312 0.0845076 -0.0101996 0.996371
-28.7354 -1.89062 4.48138 0.131733 0.176304 0.537714 -0.777778 6.31928 -0.190685 4.42713 -0.134073 0.9067 -0.399899
-35.0541 1.07375 1.07763 -0.100963 -0.377321 0 -0.777778 6.33555 -0.538262 0.495079 0.90533 -0.0469999 0.4221
-38.0385 -4.1545 0.1545 -0.237094 -0.251436 0 -0.288889 6.37239 -0.999886 1.52641 0.715193 0.39173 0.578832
-34.2067 2.36244 -0.0304375 -0.260987 -0.27417 0 -0.777778 6.41041 -0.37688 0.495079 0.602862 -0.012522 0.797747
-32.1635 -4.18888 7.43363 -0.193905 0.0484219 0.0533052 0.256529 6.43254 -0.0331682 3.67713 -0.494985 0.710564 0.500088
-35.9363 -1.14137 2.40313 -0.153274 -0.496409 0 -0.777778 6.45291 0.632526 0.313452 0.578249 -0.734484 0.355191
-31.2589 -2.88775 7.42325 -0.124684 -0.0883596 0.645326 -0.777778 6.4961 0.0729631 3.98507 -0.944353 0.24938 0.214491
-30.886 -2.0955 6.865 -0.052242 -0.0995113 0.559849 -0.777778 6.55279 0.422174 3.98507 -0.812348 0.52618 -0.251447
-30.0037 -1.3065 -1.902 -0.33766 0.339177 0 0.754404 6.55786 -0.424233 0.380498 0.440059 -0.203184 0.87468
-28.3189 -2.3435 3.09025 0.0556827 0.154061 0.50114 -0.777778 6.61004 -0.482234 5.04693 -0.130167 0.986324 -0.101103
-27.5492 -2.51375 0.8025 -0.0619087 0.194267 0.0113925 -0.155556 6.72034 -0.120599 5.32805 -0.263077 0.713557 -0.649328
-37.4189 -1.511 2.14619 -0.198334 -0.373833 0 -0.777778 6.76093 -0.105665 0.983078 0.361916 -0.871285 0.331481
-38.1285 -2.969 0.269125 -0.204382 -0.314808 0 -0.288889 6.7757 -0.999833 1.52641 0.843178 -0.22809 0.486853
-37.5618 -5.33744 2.60069 -0.375937 -0.147542 0 0.622222 6.83789 -0.432898 2.19051 0.116432 0.978917 0.167823
-35.2217 -5.19338 6.81475 -0.528 -0.0115222 0 0.422222 6.85599 0.763676 3.90782 -0.691483 0.696105 0.193104
-35.5675 0.14675 2.96625 -0.263036 -0.380008 0 -0.777778 7.00146 0.740087 0.313452 0.750801 -0.123764 0.64883
-27.897 -4.00575 -1.309 -0.584057 0.148362 0 0.422222 7.12286 -0.999884 5.56654 0.113007 0.983211 0.143266
-33.4614 3.28387 -0.543375 -0.298216 -0.205804 -0.360736 -0.0590029 7.12505 -0.05795 0.430312 0.431141 0.229098 0.872715
-29.7279 0.5895 -0.70275 -0.179654 -0.307356 0 0.933333 7.14683 0.977569 0.262927 0.440474 -0.169191 0.881678
-27.3611 -1.5905 1.81975 -0.126052 0.102082 0 -0.155556 7.21261 0.603516 5.32805 -0.363097 0.920535 -0.144137
-28.8014 -0.948 5.80925 -0.0396373 -0.130712 0 -0.777778 7.26333 0.99977 4.42713 -0.23342 0.901253 -0.365046
-37.0402 -5.822 4.5435 -0.244789 -0.0646928 0 0.622222 7.32287 0.436613 2.62407 -0.347204 0.810193 0.472268
-38.3061 -4.64156 1.7885 -0.317875 -0.240986 0 -0.288889 7.36342 -0.469338 2.19051 0.772696 0.573598 0.271893
-37.6167 -5.52175 3.63175 -0.326966 -0.103209 0 0.622222 7.43373 -0.309424 2.62407 -0.0906204 0.930519 0.354856
-37.0859 -6.42944 5.42169 -0.218864 -0.0843138 0 0.622222 7.43651 -0.812193 3.06424 -0.133285 0.924278 0.357694
-27.1951 -3.55075 -0.111125 -0.455073 0.161893 -0.648432 -0.155556 7.45822 -0.999858 5.56654 -0.268874 0.776091 -0.57043
-35.753 -6.076 6.7845 -0.291349 -0.0144232 0 0.422222 7.54611 -0.522238 3.90782 -0.619832 0.760206 0.194666
-35.019 2.274 1.26 -0.0941137 -0.293531 0 -0.777778 7.55008 0.270744 0.495079 0.859955 0.0943554 0.501572
-30.2841 -1.28112 7.27375 0.00153567 -0.0902634 0.0142818 -0.777778 7.64484 0.466831 4.42713 -0.515091 0.80885 -0.283626
-27.589 -1.389 4.9675 -0.0482867 0.168717 0.0116611 -0.777778 7.66173 0.374897 4.42713 0.112893 0.900328 -0.420314
-38.1974 -2.14069 1.66594 -0.293067 -0.341762 0 -0.486149 7.68855 -0.508741 0.875378 0.787496 -0.564312 0.247794
-27.8848 -3.35856 -2.33444 -0.236243 0.178993 0 0.422222 7.69253 -0.19103 5.56654 0.404983 0.764178 0.502016
-29.0264 -0.8405 -2.34175 -0.41057 0.287827 0 0.666653 7.72647 -0.298712 0.380498 0.559273 -0.22417 0.798099
-26.6472 -2.07825 0.52075 -0.210839 0.140345 0 -0.155556 7.76085 0.487619 5.32805 -0.429878 0.707136 -0.561395
-31.284 -1.93062 8.35487 -0.044033 -0.0848701 0.15067 -0.777778 7.832 0.999873 3.98507 -0.967646 0.251675 0.0178941
-27.9172 -2.3765 -2.96 -0.376537 0.217788 0 0.422222 7.89546 -0.233177 0.380498 0.581996 0.252982 0.77284
-36.6226 -0.83575 3.69537 -0.0266754 -0.320214 0.742941 -0.777778 7.94766 0.999884 0.313452 0.20358 -0.500822 0.841268
-27.1737 -2.05825 3.749 0.145123 0.107377 0 -0.777778 7.96164 -0.513511 5.04693 -0.225108 0.967995 -0.110962
-31.5397 -5.06975 8.558 -0.139835 0.122798 0 0.422222 7.99115 0.408564 3.67713 -0.181328 0.312937 0.932304
-36.7781 -6.53188 6.914 -0.274894 -0.0712165 0 0.564384 8.0179 -0.548748 3.06424 -0.216885 0.972193 0.0883307
-34.8864 3.69462 0.610563 -0.44281 -0.218377 -0.428971 -0.777778 8.03755 -0.056273 0.495079 0.697698 0.177179 0.694136
-31.8743 3.232 -0.751375 -0.141749 -0.163808 0 0.933333 8.08371 0.642239 0.430312 0.287089 0.611263 0.737521
-35.5944 1.77725 2.64581 -0.096858 -0.291852 0 -0.777778 8.0841 0.473408 0.313452 0.858202 0.155366 0.489234
-30.8317 -4.04781 8.4385 -0.125715 0.118093 0 -0.0862804 8.09578 0.0295254 3.98507 -0.540475 0.0841614 0.83714
-34.8674 -5.60225 8.20088 -0.217975 0.0576625 0 0.422222 8.14889 0.444236 3.90782 -0.382486 0.708639 0.592904
-33.1136 -5.69175 8.441 -0.25574 0.112868 0 0.422222 8.15049 -0.0800373 3.90782 -0.0804986 0.527094 0.845986
-33.2643 4.08875 -1.24125 -0.260982 -0.152886 -0.169393 0.0899142 8.20843 0.0919547 0.430312 0.454571 0.739756 0.49611
-29.9776 2.01312 -0.830625 -0.131788 0.197424 0 0.933333 8.28409 0.515179 0.262927 0.295472 0.380909 0.876131
-38.6125 -5.23581 3.59262 -0.300241 -0.182698 0 0.184466 8.28641 -0.290688 2.19051 0.552816 0.670072 0.495377
-38.6023 -3.22781 1.86181 -0.417577 -0.291711 0 -0.288889 8.39514 -0.384238 1.52641 0.954505 0.0227215 0.297327
-37.878 -6.53662 6.06738 -0.320401 -0.107008 0 0.622222 8.46404 -0.406608 3.06424 0.0806288 0.996742 0.00230739
-36.4315 1.14775 3.6145 -0.328163 -0.261513 -0.0427102 -0.777778 8.47412 0.396665 0.313452 0.566569 -0.0350329 0.823269
-26.4788 -3.63587 -1.1685 -0.308203 0.127805 -0.0359081 -0.155556 8.59521 -0.117488 5.56654 -0.206981 0.868101 -0.451177
-38.5714 -0.836875 3.46025 -0.218405 -0.227657 0.173197 -0.641544 8.63429 0.0855594 0.983078 0.391656 -0.137736 0.909744
-34.08 4.646 -0.2085 -0.47229 -0.17715 -0.0836404 -0.777778 8.65809 0.868088 0.430312 0.694678 0.54295 0.471834
-30.3359 -3.20906 9.39494 -0.128608 0.158643 0 -0.777778 8.69672 0.415428 3.98507 -0.518284 -0.519009 0.679714
-26.3416 -1.54663 2.94225 -0.0907273 0.0699068 0 -0.155556 8.72962 0.2302 5.32805 -0.292567 0.943917 0.153052
-29.6915 -0.818 8.0575 -0.261749 0.0832092 0 -0.777778 8.73108 0.585759 4.42713 -0.18737 0.982244 -0.00943878
-28.9252 1.9085 -1.19237 -0.121453 0.212558 0 0.933333 8.76665 0.999869 0.262927 0.640734 0.386869 0.663168
-26.7374 -1.6605 5.6375 -0.0813623 0.183446 0 -0.777778 8.7788 0.0407451 4.42713 0.636246 0.771467 -0.00537523
-37.097 0.353 3.8695 -0.191528 -0.231859 0.168642 -0.777778 8.78969 0.457865 0.313452 0.176704 -0.136258 0.974787
-38.8596 -2.3095 3.33262 -0.32831 -0.2714 0 -0.288889 8.79092 0.128489 0.875378 0.836238 -0.206014 0.508196
-27.3608 -0.706375 6.498 -0.0989817 0.162851 0 -0.777778 8.87829 0.999878 4.42713 0.486007 0.865123 -0.123934
-30.5637 -1.03225 8.513 -0.154523 -0.0375652 0 -0.777778 8.93939 0.999838 4.42713 -0.50348 0.858874 0.0940354
-25.9555 -2.4545 -0.441 -0.0252898 0.138866 -0.061524 -0.155556 9.00382 0.749932 5.32805 -0.278493 0.730613 -0.623416
-26.2812 -1.79919 4.2275 -0.069051 0.110594 0 -0.155556 9.00693 0.0459914 5.04693 0.0486875 0.978856 0.19867
-35.6632 3.54737 1.66925 -0.096065 -0.206397 0 -0.777778 9.03465 0.156373 0.495079 0.694694 0.329017 0.639647
-25.6098 -1.29875 1.40572 -0.130732 0.101281 0 -0.155556 9.03568 0.43465 5.32805 -0.198089 0.951686 -0.234635
-30.897 -2.10525 9.48612 0.07727 0.0778659 0 -0.777778 9.0403 0.854998 3.98507 -0.822547 0.156029 0.546874
-30.7165 -5.80762 8.67513 -0.0886017 0.142798 0 0.422222 9.10283 0.192612 3.67713 -0.00172286 0.136058 0.990699
-27.7307 -1.12587 -3.318 -0.4584 0.217709 -0.130805 0.160383 9.20962 -0.665309 0.380498 0.465009 -0.158384 0.871023
-28.2756 0.54275 -2.18088 -0.234184 0.239986 0 0.933333 9.21956 0.141038 0.262927 0.653411 -0.0426828 0.755799
-28.412 -0.64125 7.73375 0.0304957 0.102416 0 -0.777778 9.25065 0.563801 4.42713 0.0344408 0.999214 0.0196461
-26.9059 -3.06125 -3.65313 -0.182421 0.167616 0 0.422222 9.29975 -0.885491 5.56654 0.443126 0.344826 0.827487
-26.5276 -4.14087 -2.73962 -0.302821 0.131247 0 0.422222 9.3106 -0.93533 5.56654 0.296119 0.935602 0.192256
-33.7136 4.56025 -2.15162 -0.225908 -0.139828 -0.529218 -0.0488816 9.32778 -0.99979 0.430312 0.493744 0.799678 0.341661
-25.1295 -1.6415 0.5245 -0.014139 0.121901 0.164257 -0.155556 9.34014 0.670766 5.32805 -0.0893641 0.890378 -0.446365
-36.2115 -6.49013 8.4785 -0.151679 -0.0634874 0 0.422222 9.34927 0.188495 3.90782 -0.198481 0.832854 0.516681
-33.6727 -6.60225 9.258 -0.056536 0.126144 0 0.422222 9.49552 0.812888 3.90782 0.0702203 0.288359 0.954944
-37.5353 -6.48425 8.23575 -0.233165 -0.0886167 0 0.622222 9.54192 0.0901899 3.06424 0.0970878 0.959624 0.263998
-39.0392 -4.08825 3.2905 -0.343817 -0.242827 0 -0.288889 9.54746 -0.319476 2.19051 0.866152 0.13306 0.481742
-36.4515 2.298 3.7275 -0.528223 -0.206993 -0.0184521 -0.777778 9.55917 0.999873 0.313452 0.582346 0.298106 0.756311
-35.4398 5.106 0.462875 -0.140973 -0.147707 -0.00747202 -0.777778 9.56072 0.314164 0.495079 0.568192 0.661566 0.489376
-29.5184 -4.752 8.38488 -0.0921843 0.157675 0 -0.622476 9.58692 -0.599892 3.98507 -0.0909488 -0.0927838 0.991524
-36.215 3.1935 2.472 -0.199528 -0.18626 0 -0.777778 9.64009 0.213337 0.313452 0.601827 0.538145 0.590088
-39.5793 -4.5735 4.28075 -0.400967 -0.201423 0 -0.288889 9.64541 0.160798 2.19051 0.666708 0.0707343 0.741955
-32.0638 -6.682 8.86012 -0.0991797 0.147926 0 0.422222 9.65327 0.287433 3.90782 0.125745 0.107356 0.986237
-31.2518 3.80475 -2.079 -0.107372 0.137215 0 0.933333 9.65792 0.414665 0.430312 0.355292 0.782052 0.512017
-34.8695 -6.857 9.14087 0.0581217 0.104914 0 0.422222 9.71669 0.660127 3.90782 -0.190404 0.275077 0.942379
-39.3888 -6.33588 5.80237 -0.163987 -0.0774204 0 0.622222 9.77254 -0.0663983 3.06424 -0.0383378 0.914225 0.403388
-26.6357 -1.76762 6.632 -0.0814577 0.190331 0 -0.777778 9.78421 0.042955 4.42713 0.817263 0.575883 0.0209652
-38.7046 0.434438 3.35763 -0.294465 -0.176288 -0.248894 -0.777778 9.91667 -0.684717 0.313452 -0.017559 -0.0932078 0.995492
-37.558 1.975 4.17487 -0.629307 -0.166144 -0.614733 -0.777778 9.97989 0.779585 0.313452 0.0352649 0.0157289 0.999254
-29.779 3.11438 -2.143 -0.0635323 0.150438 0 0.933333 10.0088 0.462161 0.262927 0.436958 0.725056 0.532317
-30.1301 -1.08162 9.54225 -0.0335833 0.0487349 0 -0.777778 10.0573 0.999882 4.42713 -0.359144 0.763088 0.537319
-25.726 -2.298 5.1635 -0.132231 0.170375 0 -0.332438 10.0649 0.163526 4.42713 0.641728 0.601919 0.475267
-25.0425 -2.803 -1.033 0.0539167 0.162379 0.027485 -0.155556 10.1464 0.67714 5.56654 0.0149935 0.550712 -0.834561
-26.9067 -1.372 7.635 -0.292407 0.165808 0 -0.777778 10.2719 0.0830724 4.42713 0.710425 0.703444 -0.0215234
-38.5578 -5.97625 7.695 -0.145536 -0.0790834 0 0.622222 10.3148 0.999874 3.06424 -0.022914 0.993538 0.111163
-30.4287 -7.0005 8.672 -0.0796337 0.160516 0 0.422222 10.3299 0.2299 3.67713 0.0960066 -0.186931 0.97767
-24.9409 -1.16275 3.63575 -0.119261 0.0814633 0 -0.155556 10.339 0.924717 5.32805 -0.0539669 0.919924 0.388365
-29.6869 -2.135 10.464 0.237966 0.116484 0.932632 -0.777778 10.3453 0.999898 3.98507 -0.135996 0.0734229 0.987985
-33.4975 5.05875 -3.01275 -0.096876 -0.11737 0 0.933333 10.346 -0.684934 0.430312 0.306894 0.629665 0.71368
-24.6649 -2.05281 -0.285375 0.256965 0.189612 0.909826 -0.155556 10.3604 0.624023 5.32805 0.58449 0.500181 -0.638898
-31.7789 4.47612 -2.80687 -0.230314 0.121623 -0.225921 0.933333 10.4011 -0.140764 0.430312 0.325863 0.754509 0.569675
-24.6611 -3.82506 -1.36456 -0.269107 0.179677 0 -0.324982 10.4332 0.163335 5.56654 0.702507 0.57649 -0.417304
-28.0018 1.56387 -2.80487 -0.21852 0.164504 -0.509495 -0.238453 10.4472 0.0538795 0.262927 0.454166 0.41808 0.786729
-40.337 -5.247 4.9125 -0.54352 0.106215 -0.475689 -0.288889 10.4581 -0.0814939 2.19051 -0.235348 0.233348 0.943483
-24.0435 -1.629 0.927 -0.0836307 0.162091 0 -0.155556 10.4984 0.439031 5.32805 0.489399 0.684245 -0.540645
-25.8297 -2.79912 6.55681 -0.156984 0.19142 0 -0.777778 10.5009 0.448653 4.42713 0.906418 0.333431 0.259289
-29.3855 -6.38375 8.73913 -0.150886 0.144868 0 0.422222 10.5546 0.489601 3.67713 0.0195532 -0.0457732 0.99876
-25.6682 -3.83675 -3.6155 -0.239946 0.0920951 -0.742127 -0.553038 10.5748 -0.999877 5.56654 0.00324392 0.70944 0.704758
-39.8204 -6.49412 6.95056 -0.113353 -0.0258171 0 0.622222 10.5982 0.438333 3.06424 -0.617739 0.785837 0.0292997
-26.4485 -0.59525 -3.5235 -0.37216 0.194171 -0.894432 -0.777778 10.6124 0.34537 0.380498 0.516476 -0.235326 0.823331
-28.4487 -3.04075 9.69425 -0.255832 0.166439 -0.0101865 -0.777778 10.6149 0.321439 3.98507 0.012919 -0.531035 0.847252
-34.5864 5.55737 -2.37337 -0.085381 -0.140478 -0.411631 0.194682 10.6714 -0.441475 0.430312 0.655781 0.638033 0.403565
-26.9942 0.754 -2.8785 -0.631113 0.172771 -0.255596 -0.777778 10.6938 0.425699 0.262927 0.409941 0.118383 0.904397
-28.6159 -4.103 8.78575 -0.0962353 0.166896 0 -0.777778 10.7286 -0.468396 3.98507 -0.127365 -0.419006 0.899006
-28.8137 2.85 -2.93937 0.00363343 0.159746 0.11007 0.0420589 10.7543 -0.159635 0.262927 0.588063 0.549134 0.59383
-40.2346 -1.98538 4.73763 -0.207328 -0.144414 0 -0.288889 10.7833 0.366468 0.875378 0.295184 0.348033 0.889797
-24.549 -0.88875 2.7465 -0.117834 0.0879417 0 -0.155556 10.7938 0.685744 5.32805 0.0101314 0.98381 0.178927
-23.966 -0.858 1.88 -0.111327 0.134304 0 -0.155556 10.8024 0.999909 5.32805 0.404612 0.884993 -0.230385
-26.1044 -1.8295 -3.97225 -0.140846 0.164117 0 0.422222 10.8036 -0.101883 5.56654 0.411977 0.0624198 0.909054
-40.5229 -1.05625 4.39113 -0.126121 -0.128221 0 -0.288889 10.8075 0.257831 0.983078 0.0563963 0.254513 0.965423
-27.9135 -1.04075 9.16788 -0.36029 0.0903557 -0.0723017 -0.777778 10.8206 0.535071 4.42713 0.121379 0.90999 0.396466
-24.6807 -4.08625 -2.4855 -0.7825 0.104417 0.0300289 -0.777778 10.8691 -0.099219 5.56654 0.218656 0.970821 0.0984647
-24.4145 -2.04437 4.31025 -0.135929 0.150028 0 -0.155556 10.8915 0.566821 5.04693 0.490837 0.393162 0.777498
-36.9893 -7.27563 9.55737 -0.096239 0.0936799 0 0.622222 10.8939 0.752194 3.90782 0.139151 0.628387 0.765354
-35.5774 -7.80863 9.09609 -0.055958 0.126017 0 0.424333 10.9036 -0.166127 3.90782 0.168083 0.200091 0.965252
-36.7305 5.051 2.075 -0.170514 -0.154384 0 -0.777778 10.9227 0.48802 0.495079 0.619813 0.41907 0.663485
-37.587 3.07075 3.68775 -0.610613 -0.129927 -0.50762 -0.777778 10.9332 0.734447 0.313452 0.226641 0.577705 0.78415
-36.5909 5.66354 -0.0681541 0.165558 -0.0933327 0 -0.777778 10.9456 -0.277079 0.495079 0.192136 0.924412 0.329462
-26.222 -2.4765 7.5055 -0.271344 0.189244 0 -0.777778 10.9828 0.190262 4.42713 0.938088 0.339726 0.0676547
-40.3257 -7.13325 6.0125 -0.106588 0.0424057 0 0.622222 11.0206 0.364511 3.06424 -0.902043 0.354241 0.246639
-32.587 -7.96 8.83225 -0.106065 0.158595 0 0.422222 11.0345 -0.0724657 3.90782 0.225255 -0.143861 0.96362
-31.1874 -7.7385 8.66362 -0.113658 0.166379 0 0.422222 11.04 0.556874 3.90782 0.213163 -0.24042 0.946974
-40.1156 -3.0305 5.21513 -0.166004 -0.184565 0 -0.288889 11.166 0.999861 0.875378 0.613754 0.0165811 0.789323
-25.1187 -2.64844 -3.99975 -0.0390033 0.113721 0.862284 -0.745391 11.1665 -0.290301 5.56654 0.0875581 0.363532 0.927458
-40.8904 -4.4085 5.07013 -0.258394 0.151045 0 -0.288889 11.1847 0.345272 2.19051 -0.0705653 -0.348085 0.934803
-39.6213 1.29762 3.55437 -0.37439 -0.162406 -0.00867916 -0.777778 11.1911 -0.440129 0.313452 0.233579 -0.0350575 0.971706
-28.1798 -5.60975 8.74925 -0.462583 0.136635 -0.18751 -0.777778 11.218 0.203509 3.98507 -0.0910693 -0.0840283 0.992293
-24.8937 -2.988 4.70062 -0.153004 0.186844 0 -0.155556 11.2409 -0.0929929 4.42713 0.711052 0.112904 0.694016
-37.5692 4.24862 2.59262 -0.242175 -0.142251 -0.269377 -0.777778 11.2656 -0.287186 0.313452 0.374094 0.371871 0.849568
-36.8985 5.6195 1.235 -0.315665 -0.13201 -0.430746 -0.777778 11.2892 -0.0759726 0.495079 0.577129 0.803528 0.145822
-25.401 -3.46625 5.45875 -0.229023 0.196161 -0.0404887 -0.69034 11.3129 -0.209092 4.42713 0.856211 0.205895 0.473826
-30.0975 4.0525 -3.2405 -0.0346543 0.125196 0 0.933333 11.3141 0.165923 0.262927 0.401478 0.765056 0.503492
3 192 161 139
3 181 182 131
3 131 182 142
3 132 99 98
3 134 102 103
3 103 102 76
3 67 102 77
3 134 139 102
3 51 77 75
3 102 139 161
3 143 166 104
3 133 93 104
3 93 133 131
3 93 131 80
3 133 181 131
3 98 68 80
3 49 68 39
3 49 39 28
3 39 52 16
3 16 52 29
3 29 52 58
3 58 52 99
3 99 92 58
3 99 132 140
3 140 132 188
3 188 189 140
3 153 164 123
3 146 193 145
3 107 177 173
3 145 107 90
3 107 115 65
3 107 65 90
3 77 51 67
3 30 67 51
3 51 49 30
3 30 13 34
3 13 30 18
3 3 11 2
3 61 36 60
3 61 82 42
3 111 82 117
3 117 88 122
3 88 109 122
3 109 60 97
3 82 111 126
3 111 178 126
3 168 109 171
3 109 168 155
3 116 151 144
3 144 163 113
3 149 163 198
3 149 198 195
3 195 180 149
3 196 184 138
3 138 120 196
3 96 135 105
3 105 146 114
3 105 114 69
3 146 145 114
3 17 24 12
3 34 13 12
3 17 12 4
3 15 1 10
3 1 2 5
3 5 14 6
3 14 32 6
3 32 19 26
3 32 26 63
3 63 26 54
3 11 26 19
3 74 82 126
3 74 126 116
3 151 116 126
3 54 74 83
3 83 91 54
3 180 119 149
3 157 130 162
3 162 130 121
3 118 87 130
3 121 130 87
3 118 150 106
3 150 157 159
3 120 94 136
3 120 138 96
3 81 96 55
3 45 96 69
3 105 69 96
3 59 65 33
3 20 25 10
3 45 59 25
3 59 33 25
3 33 15 25
3 17 4 15
3 38 20 35
3 72 53 46
3 35 46 53
3 53 72 101
3 86 46 62
3 86 62 48
3 44 22 37
3 87 64 73
3 64 37 73
3 63 91 73
3 73 91 110
3 48 85 89
3 100 71 95
3 108 71 100
3 71 94 57
3 57 94 81
3 81 55 57
3 57 55 40
3 38 53 71
3 160 125 170
3 86 89 124
3 125 160 172
3 141 158 95
3 141 95 147
3 147 95 101
3 95 71 53
3 49 75 78
3 143 161 187
3 143 187 166
3 103 115 134
3 76 102 67
3 78 77 102
3 78 102 143
3 78 143 104
3 143 102 161
3 75 77 78
3 93 49 78
3 68 49 80
3 80 49 93
3 104 93 78
3 30 49 28
3 28 9 18
3 18 30 28
3 16 9 28
3 16 28 39
3 11 16 29
3 58 36 29
3 58 60 36
3 97 60 58
3 97 58 92
3 123 92 99
3 123 99 140
3 97 92 137
3 97 137 109
3 137 123 164
3 123 137 92
3 171 109 137
3 171 137 194
3 194 137 164
3 145 193 177
3 107 145 177
3 84 65 115
3 84 115 103
3 34 67 30
3 9 3 13
3 9 13 18
3 26 11 36
3 36 42 26
3 61 42 36
3 163 144 186
3 186 144 151
3 119 113 149
3 149 113 163
3 33 65 47
3 33 47 31
3 31 47 27
3 27 47 43
3 43 47 66
3 103 66 84
3 84 66 47
3 84 47 65
3 50 24 56
3 56 24 43
3 24 50 34
3 76 50 56
3 76 56 103
3 103 56 66
3 66 56 43
3 43 24 27
3 67 34 50
3 67 50 76
3 17 27 24
3 12 24 34
3 4 12 7
3 4 7 3
3 3 7 13
3 13 7 12
3 1 4 0
3 0 3 2
3 3 0 4
3 15 4 1
3 2 1 0
3 10 6 23
3 6 1 5
3 1 6 10
3 21 23 6
3 21 6 22
3 32 37 6
3 6 37 22
3 63 37 32
3 54 42 74
3 42 54 26
3 113 119 83
3 83 119 91
3 119 110 91
3 106 87 118
3 85 106 128
3 128 106 179
3 179 106 159
3 159 106 150
3 183 136 197
3 81 120 96
3 55 96 45
3 40 55 25
3 40 25 20
3 25 55 45
3 31 15 33
3 15 31 27
3 15 27 17
3 57 40 20
3 57 20 38
3 10 23 20
3 20 23 35
3 35 23 46
3 48 41 21
3 41 62 46
3 21 41 23
3 44 48 21
3 22 44 21
3 23 41 46
3 48 62 41
3 85 48 70
3 70 48 44
3 44 79 70
3 85 70 106
3 106 70 79
3 79 44 64
3 87 106 79
3 87 79 64
3 63 73 37
3 124 89 127
3 124 127 176
3 85 127 89
3 128 165 127
3 176 127 191
3 191 127 165
3 165 128 179
3 128 127 85
3 156 169 129
3 129 169 108
3 158 156 129
3 95 158 100
3 100 158 129
3 100 129 108
3 120 81 94
3 38 71 57
3 124 170 125
3 125 86 124
3 167 170 124
3 167 124 176
3 141 199 158
3 147 199 141
3 53 101 95
3 147 172 199
3 142 132 98
3 134 115 190
3 134 190 139
3 139 190 192
3 190 115 173
3 104 152 133
3 152 104 166
3 142 98 131
3 131 98 80
3 98 52 68
3 52 39 68
3 99 52 98
3 153 140 189
3 115 107 173
3 75 49 51
3 16 11 3
3 16 3 9
3 60 109 88
3 61 60 88
3 61 88 82
3 82 88 117
3 153 123 140
3 122 148 117
3 111 117 178
3 178 117 148
3 135 184 146
3 135 146 105
3 96 138 135
3 138 184 135
3 59 90 65
3 90 59 69
3 90 69 114
3 90 114 145
3 8 2 11
3 8 11 19
3 19 32 14
3 19 14 5
3 19 5 8
3 8 5 2
3 82 74 42
3 126 178 151
3 155 148 122
3 109 155 122
3 155 178 148
3 113 116 144
3 83 116 113
3 83 74 116
3 180 154 119
3 119 154 110
3 174 121 154
3 110 154 121
3 118 130 157
3 118 157 150
3 196 120 183
3 183 120 136
3 59 45 69
3 10 25 15
3 72 46 86
3 44 37 64
3 63 54 91
3 73 110 121
3 121 87 73
3 175 162 121
3 175 121 174
3 94 71 108
3 94 108 136
3 169 136 108
3 38 35 53
3 86 125 72
3 72 125 112
3 72 112 101
3 86 48 89
3 112 125 172
3 172 147 112
3 112 147 101
3 29 36 11
3 197 136 185
