ply
format ascii 1.0
comment Generated by PyMesh
element vertex 200
property float x
property float y
property float z
property float charge
property float ddc
property float hbond
property float hphob
property float rho
property float si
property float theta
property float nx
property float ny
property float nz
element face 343
property list uchar int vertex_indices
end_header
-40.337 -5.247 4.9125 -0.54352 0 -0.475689 -0.288889 1e-08 -0.0814939 2.22045e-16 -0.235348 0.233348 0.943483
-40.8904 -4.4085 5.07013 -0.258394 -0.550221 0 -0.288889 1.01695 0.345272 4.39028 -0.0705653 -0.348085 0.934803
-39.5793 -4.5735 4.28075 -0.400967 0 0 -0.288889 1.1945 0.160798 3.21041 0.666708 0.0707343 0.741955
-39.3888 -6.33588 5.80237 -0.163987 -0.549613 0 0.622222 1.69606 -0.0663983 1.39255 -0.0383378 0.914225 0.403388
-41.806 -6.0655 4.664 -0.339903 0.346547 -0.444224 -0.288889 1.6999 0.999887 5.69707 -0.668142 -0.13767 0.731186
-40.7697 -7.24625 4.67725 -0.16182 0.482611 0 0.20411 2.05902 0.187267 2.22045e-16 -0.714739 -0.526074 0.460863
-42.1951 -4.93669 3.83363 -0.405833 0.414758 -0.0483396 -0.288889 2.1709 0.27189 5.17457 -0.882318 -0.162969 0.441538
-38.6125 -5.23581 3.59262 -0.300241 0.47361 0 0.184466 2.17166 -0.290688 2.67072 0.552816 0.670072 0.495377
-40.3257 -7.13325 6.0125 -0.106588 -0.453279 0 0.622222 2.18359 0.364511 0.851308 -0.902043 0.354241 0.246639
-41.2697 -3.31787 5.51263 -0.0587577 -0.0198734 0 -0.288889 2.25353 0.99991 4.34013 -0.228896 0.144192 0.962713
-39.0392 -4.08825 3.2905 -0.343817 0.502753 0 -0.288889 2.42241 -0.319476 3.12904 0.866152 0.13306 0.481742
-40.1156 -3.0305 5.21513 -0.166004 0.390336 0 -0.288889 2.60447 0.999861 3.9542 0.613754 0.0165811 0.789323
-42.0901 -3.38044 4.73325 -0.0941403 0.286899 0 -0.288889 2.6324 0.747616 4.62365 -0.827295 0.00828891 0.561706
-40.336 -8.1225 5.43937 -0.0817083 0.457695 0 0.622222 2.92337 0.164308 0.443362 -0.944471 -0.323984 -0.0548503
-39.8204 -6.49412 6.95056 -0.113353 -0.477746 0 0.622222 2.93285 0.438333 1.14317 -0.617739 0.785837 0.0292997
-41.8543 -6.81925 3.45994 -0.00523467 0.527583 0.00167843 -0.288889 3.12125 0.999855 5.78574 -0.776072 -0.630333 -0.0198401
-37.6167 -5.52175 3.63175 -0.326966 0.319641 0 0.622222 3.20844 -0.309424 2.49384 -0.0906204 0.930519 0.354856
-37.878 -6.53662 6.06738 -0.320401 -0.428274 0 0.622222 3.243 -0.406608 1.64315 0.0806288 0.996742 0.00230739
-40.3124 -7.47781 3.41987 -0.112871 0.587914 0.240844 -0.288889 3.41687 -0.0424891 6.1779 -0.570349 -0.785454 -0.240342
-37.5618 -5.33744 2.60069 -0.375937 0.323471 0 0.622222 3.62019 -0.432898 2.62447 0.116432 0.978917 0.167823
-40.3073 -8.2845 7.0405 -0.250848 -0.31861 0 0.622222 3.72712 0.503443 0.74536 -0.983741 -0.144484 0.106671
-42.3643 -4.956 2.285 -0.295219 0.342583 0 -0.288889 3.72886 -0.112129 5.34595 -0.933146 -0.299697 0.198547
-40.2346 -1.98538 4.73763 -0.207328 0.169452 0 -0.288889 3.75965 0.366468 3.97218 0.295184 0.348033 0.889797
-42.4011 -3.13925 3.435 -0.35095 0.301223 0 -0.288889 3.98899 0.415678 4.82114 -0.95444 0.108251 0.278077
-41.5761 -1.9345 4.50787 -0.204578 0.117068 0 -0.288889 3.99053 0.544704 4.31975 -0.463942 0.467623 0.752388
-37.0859 -6.42944 5.42169 -0.218864 -0.272598 0 0.622222 4.03208 -0.812193 1.93242 -0.133285 0.924278 0.357694
-38.3061 -4.64156 1.7885 -0.317875 0.337405 0 -0.288889 4.09568 -0.469338 2.86472 0.772696 0.573598 0.271893
-38.6023 -3.22781 1.86181 -0.417577 0.337242 0 -0.288889 4.14647 -0.384238 3.17599 0.954505 0.0227215 0.297327
-38.8596 -2.3095 3.33262 -0.32831 0.334951 0 -0.288889 4.2107 0.128489 3.51221 0.836238 -0.206014 0.508196
-40.364 -7.339 7.8165 -0.106214 -0.269083 0 0.622222 4.25919 0.999892 1.00086 -0.928574 0.228913 0.292146
-39.72 -9.3495 5.1955 -0.207814 0.361847 0 0.622222 4.31781 0.545022 0.410676 -0.880232 -0.386669 -0.275096
-37.0402 -5.822 4.5435 -0.244789 -0.236471 0 0.622222 4.32817 0.436613 2.19093 -0.347204 0.810193 0.472268
-36.4033 -5.22025 3.798 -0.307738 0.24533 0 0.622222 4.46974 0.63504 2.36146 -0.192443 0.937573 0.289695
-38.5578 -5.97625 7.695 -0.145536 -0.350367 0 0.622222 4.48737 0.999874 1.33007 -0.022914 0.993538 0.111163
-36.7781 -6.53188 6.914 -0.274894 -0.273078 0 0.564384 4.63101 -0.548748 1.72604 -0.216885 0.972193 0.0883307
-42.7841 -3.36331 1.97894 -0.300786 0.173717 0 -0.661549 4.67336 -0.38162 5.0396 -0.787829 -0.144723 0.598649
-39.2227 -8.85181 4.25631 -0.15133 0.439377 0 0.622222 4.70409 -0.2882 0.256571 -0.697007 -0.510394 -0.503666
-42.846 -4.95762 1.38975 -0.253507 0.17265 0 -0.539807 4.74548 -0.210694 5.31088 -0.49883 -0.472741 0.726419
-40.5229 -1.05625 4.39113 -0.126121 0.0698134 0 -0.288889 4.79235 0.257831 4.13307 0.0563963 0.254513 0.965423
-39.757 -9.28 6.953 -0.319286 0.264504 0 0.622222 4.86796 0.22262 0.602811 -0.878225 -0.449744 0.162637
-39.2218 -6.73138 8.81181 -0.051944 -0.147487 0 0.622222 4.90234 0.864378 1.18424 -0.384019 0.697497 0.605002
-41.9191 -5.97325 1.76713 -0.196 0.385979 0 -0.288889 4.95409 0.163624 5.56708 -0.650974 -0.758477 0.0307479
-41.7721 -1.25794 3.68622 -0.246846 0.162433 -0.0967526 -0.40594 5.02037 -0.126123 4.46108 -0.822648 0.114956 0.556808
-40.957 -6.576 1.7615 -0.102189 0.467776 0 -0.288889 5.05749 -0.106948 5.81136 -0.459778 -0.841891 -0.28253
-39.8947 -7.20087 1.83025 -0.162095 0.413701 0.0702385 0.535553 5.08362 -0.439735 6.01449 -0.630199 -0.758222 -0.167178
-38.9986 -7.99137 2.27875 -0.178566 0.368825 0 0.622222 5.23125 -0.466468 6.1547 -0.620734 -0.776492 -0.1084
-38.1974 -2.14069 1.66594 -0.293067 0.291339 0 -0.486149 5.32297 -0.508741 3.30538 0.787496 -0.564312 0.247794
-42.4468 -2.0485 2.633 -0.41063 0.161872 0 -0.288889 5.34362 -0.391789 4.75718 -0.822443 0.0439963 0.567143
-37.6309 -4.894 0.760625 -0.305554 0.212944 0 0.4401 5.35113 -0.78656 2.81431 0.35599 0.853998 0.379419
-35.9019 -5.79362 5.36525 -0.244153 -0.230914 0 0.622222 5.37719 -0.18642 2.00348 -0.443094 0.872622 0.205424
-36.3025 -5.19994 1.31463 -0.396933 0.199636 0 0.622222 5.42537 -0.650046 2.62328 -0.135275 0.967282 0.214632
-37.5353 -6.48425 8.23575 -0.233165 -0.240424 0 0.622222 5.43891 0.0901899 1.43591 0.0970878 0.959624 0.263998
-39.669 -8.315 8.716 -0.222349 -0.157564 0 0.622222 5.52035 0.722866 0.865882 -0.795708 -0.188115 0.575727
-35.5205 -4.9905 2.8695 -0.362307 0.221091 0 0.622222 5.70813 0.475207 2.4211 -0.102899 0.986652 0.126215
-38.5714 -0.836875 3.46025 -0.218405 -0.141691 0.173197 -0.641544 5.71668 0.0855594 3.71234 0.391656 -0.137736 0.909744
-35.753 -6.076 6.7845 -0.291349 -0.204768 0 0.422222 5.76036 -0.522238 1.83964 -0.619832 0.760206 0.194666
-38.0385 -4.1545 0.1545 -0.237094 0.192413 0 -0.288889 5.8216 -0.999886 2.98521 0.715193 0.39173 0.578832
-38.1285 -2.969 0.269125 -0.204382 0.221038 0 -0.288889 5.82817 -0.999833 3.05265 0.843178 -0.22809 0.486853
-39.4165 -10.2591 6.43469 -0.253513 -0.239687 0 0.622222 5.88468 -0.220215 0.617807 -0.996475 -0.0786897 -0.029075
-43.7235 -4.16962 1.3335 -0.250244 0.072791 0 -0.777778 5.9262 0.236156 5.18361 -0.368419 -0.150679 0.917368
-40.6965 0.08 4.0655 -0.4047 -0.0908897 0 -0.288889 5.98702 -0.309121 4.14426 0.230056 0.0183663 0.973004
-41.3828 -6.0725 0.728 -0.199989 0.344549 0 -0.288889 6.12766 -0.516383 5.56708 -0.266816 -0.963376 -0.0267447
-39.1034 -9.88912 7.8795 -0.307649 -0.200122 0 0.622222 6.15506 -0.530008 0.602811 -0.983972 -0.0837317 0.157441
-38.4269 -7.34469 9.6155 -0.0803503 -0.0229286 0 0.622222 6.18839 0.776417 1.18424 -0.347538 0.211085 0.913597
-37.4189 -1.511 2.14619 -0.198334 0.248554 0 -0.777778 6.24068 -0.105665 3.30538 0.361916 -0.871285 0.331481
-44.2975 -5.0985 0.976 -0.259578 0.101617 0 -0.777778 6.26136 0.698935 5.18361 -0.335261 -0.363691 0.869096
-38.3525 -8.72563 2.94537 -0.203228 0.360149 0 0.622222 6.28261 -0.794965 6.1547 -0.694445 -0.62912 -0.34922
-36.2115 -6.49013 8.4785 -0.151679 -0.139555 0 0.422222 6.29548 0.188495 1.43591 -0.198481 0.832854 0.516681
-42.5382 -6.08794 0.34725 -0.289453 0.220296 -0.705661 -0.760553 6.31365 -0.142745 5.56708 0.030004 -0.835853 0.548133
-43.2521 -1.776 2.00638 -0.546803 0.0761365 -0.1622 -0.777778 6.32845 -0.0637241 4.75718 -0.520021 -0.0834216 0.85007
-38.5904 -10.7269 4.25181 -0.149889 0.275184 0 0.622222 6.33369 -0.120345 0.256571 -0.861603 0.0665513 -0.503201
-44.243 -3.201 1.1145 -0.36229 0.101236 -0.518956 -0.777778 6.37688 -0.0519475 5.18361 -0.699789 -0.0724048 0.710671
-38.5112 -8.4565 1.32337 -0.195325 0.259415 0 0.622222 6.40029 -0.582015 6.1547 -0.580219 -0.803921 0.130607
-39.3829 -7.738 0.670625 -0.174077 0.279263 0 0.622222 6.46028 0.48588 6.01449 -0.759828 -0.649223 -0.034218
-37.947 -9.83925 3.46025 -0.175008 0.292501 0 0.622222 6.50302 -0.343596 0.256571 -0.870984 -0.280418 -0.403427
-42.1297 0.21025 4.2505 -0.556203 -0.0915304 -0.251309 -0.777778 6.6334 0.496907 4.14426 -0.463454 -0.274326 0.842589
-40.555 -6.288 0.1665 -0.209884 0.278437 0 -0.288889 6.72739 -0.999823 5.81136 -0.418926 -0.893581 0.161291
-35.2217 -5.19338 6.81475 -0.528 -0.187819 0 0.422222 6.791 0.763676 1.83964 -0.691483 0.696105 0.193104
-34.769 -5.28237 4.57438 -0.310572 -0.226124 0 0.472631 6.85039 -0.489743 2.00348 -0.440406 0.895197 -0.0683023
-38.9468 -9.482 9.05175 -0.187323 -0.0961555 0 0.622222 6.93322 0.265325 0.865882 -0.680577 -0.107266 0.724782
-39.7103 -11.2475 6.627 -0.285025 -0.202307 -0.0163221 -0.0592464 6.9336 0.268709 0.617807 -0.881759 0.461065 -0.0995947
-35.9878 -4.63312 -0.051875 -0.273015 0.0762919 0 -0.241207 6.93787 -0.999864 2.62328 -0.0681136 0.630653 0.77307
-44.3374 -6.106 0.246625 -0.4368 0.116997 0 -0.777778 6.9477 0.258696 5.31088 -0.271294 -0.522365 0.808415
-37.3666 -3.35194 -0.498563 -0.268494 0.0965205 0 -0.288889 6.97555 -0.999877 3.05265 0.371797 0.0310102 0.927796
-38.7046 0.434438 3.35763 -0.294465 -0.0580797 -0.248894 -0.777778 6.99906 -0.684717 3.71234 -0.017559 -0.0932078 0.995492
-42.7577 -0.231688 2.256 -0.441463 0.116699 -0.829375 -0.777778 7.03782 -0.49933 4.75718 -0.776429 -0.137096 0.615112
-37.416 -1.8825 0.155 -0.18782 0.173797 0.00899123 -0.546584 7.04349 -0.999882 3.05265 0.413356 -0.677452 0.608436
-39.7342 -7.0765 -0.14 -0.219667 0.230774 0 -0.114654 7.06431 -0.61831 6.01449 -0.746758 -0.641011 0.177364
-36.9893 -7.27563 9.55737 -0.096239 -0.0997337 0 0.622222 7.07326 0.752194 1.43591 0.139151 0.628387 0.765354
-34.1722 -4.98475 3.09775 -0.222041 0.17931 0 0.622222 7.07563 -0.5295 2.4211 -0.287157 0.953252 0.0940841
-45.1165 -4.48737 0.769 -0.22781 0.0957049 0 -0.777778 7.30399 0.999883 5.18361 -0.726908 -0.0429006 0.685394
-34.4007 -4.5955 5.6 -0.490827 -0.213983 0 0.422222 7.31218 0.629453 2.00348 -0.54596 0.829982 -0.114273
-39.2836 -11.0393 7.63112 -0.129898 -0.167764 0 -0.0888889 7.31919 -0.620587 0.617807 -0.867189 0.482527 0.123084
-37.5008 -9.25106 1.43956 -0.292148 0.226844 -0.0249432 0.487644 7.36068 -0.787238 6.1547 -0.825626 -0.564013 -0.0152332
-39.6213 1.29762 3.55437 -0.37439 -0.0766609 -0.00867916 -0.777778 7.44824 -0.440129 4.14426 0.233579 -0.0350575 0.971706
-44.481 -2.173 1.411 -0.471517 0.108915 -0.634344 -0.777778 7.47294 0.942526 5.18361 -0.771995 -0.0660557 0.632187
-34.8674 -5.60225 8.20088 -0.217975 -0.102034 0 0.422222 7.4967 0.444236 1.83964 -0.382486 0.708639 0.592904
-34.0807 -4.81025 1.82325 -0.262563 0.149719 0 -0.165003 7.49703 -0.505076 2.4211 -0.396356 0.895647 0.201787
-41.4772 1.22775 4.66525 -0.871217 -0.0578661 -0.649649 -0.777778 7.49914 0.916865 4.14426 -0.00352843 -0.115298 0.993325
-38.5976 -8.63981 0.120937 -0.258586 0.177253 0 0.622222 7.51979 -0.274886 6.1547 -0.685058 -0.617682 0.386219
-42.882 -7.097 -0.217 -0.539707 0.142581 -0.943446 -0.777778 7.51979 0.438927 5.56708 0.236199 -0.51959 0.821119
-34.7426 -4.191 0.26325 -0.267609 0.0780649 0 -0.288889 7.56 -0.354833 2.62328 -0.340167 0.668509 0.661349
-37.589 -10.795 3.053 -0.160888 0.210625 0 0.622222 7.60187 -0.820723 0.256571 -0.964927 0.179044 -0.191989
-39.405 -11.8045 5.651 -0.30288 -0.233786 -0.140277 0.443238 7.61747 -0.35332 0.617807 -0.802782 0.345569 -0.485925
-44.2265 -1.16675 1.407 -0.580857 0.0906235 -0.14629 -0.777778 7.62456 0.57672 4.75718 -0.739751 0.220711 0.635654
-36.6226 -0.83575 3.69537 -0.0266754 -0.139457 0.742941 -0.777778 7.67961 0.999884 3.71234 0.20358 -0.500822 0.841268
-35.9363 -1.14137 2.40313 -0.153274 0.209399 0 -0.777778 7.79012 0.632526 3.30538 0.578249 -0.734484 0.355191
-34.8695 -6.857 9.14087 0.0581217 0.0136848 0 0.422222 7.83635 0.660127 1.43591 -0.190404 0.275077 0.942379
-35.5774 -7.80863 9.09609 -0.055958 0.0584129 0 0.424333 7.88354 -0.166127 1.43591 0.168083 0.200091 0.965252
-41.5855 -6.44225 -0.952 -0.26962 0.141712 -0.498341 -0.719533 7.96327 -0.999888 5.81136 0.0180575 -0.623922 0.781278
-38.046 -9.741 9.4805 -0.140535 0.0383585 0 0.622222 7.96392 0.263676 0.865882 -0.263405 -0.0712523 0.96205
-39.4077 -11.2451 9.05275 -0.107421 -0.134086 0 -0.0888889 7.97379 0.143189 0.617807 -0.813013 0.531322 0.238132
-36.1942 -1.52581 0.898938 -0.03695 0.185521 0.335718 -0.777778 7.98875 -0.0563223 3.05265 0.200794 -0.884774 0.420543
-44.7152 -6.921 -0.29425 -0.606323 0.115231 0 -0.777778 7.99627 0.677769 5.31088 -0.474003 -0.537798 0.697205
-37.1741 -8.64888 9.92513 -0.0694003 0.0503174 0 0.622222 8.02313 0.916692 1.43591 0.048268 -0.00831849 0.9988
-36.2704 -3.198 -0.585813 -0.436477 0.0512199 0 -0.288889 8.08594 -0.999819 3.05265 -0.0350476 -0.118894 0.992288
-36.4637 -2.113 -0.2115 -0.292134 -0.123266 0 -0.288889 8.08959 -0.688259 3.05265 -0.0157937 -0.645112 0.763924
-33.3517 -4.48987 3.43613 -0.318732 -0.160421 0 -0.777778 8.09181 -0.678108 2.4211 -0.704637 0.708257 0.0431058
-39.9895 -7.745 -1.015 -0.259982 0.0859721 0 -0.777778 8.19466 -0.714444 6.01449 -0.494046 -0.281379 0.822645
-45.0146 -2.96869 -0.523188 -0.217412 0.135173 0 -0.777778 8.20208 -0.0283598 5.18361 -0.936592 0.267243 0.226664
-42.2945 -7.369 -1.02575 -0.505033 0.143074 -0.568088 -0.777778 8.20723 -0.436373 5.56708 0.449305 -0.443087 0.775757
-45.3942 -5.45975 -0.0795 -0.330384 0.121325 0 -0.777778 8.22865 0.562911 5.18361 -0.849055 -0.195259 0.490897
-37.1915 -10.3042 1.967 -0.230269 0.214818 0 0.176704 8.2399 -0.820196 6.1547 -0.957623 0.0990272 -0.270467
-44.7566 -1.61137 0.203125 -0.688753 0.151205 -0.199359 -0.777778 8.27986 0.453965 5.18361 -0.987101 0.0879635 0.133767
-43.4664 0.37225 1.41225 -0.43811 0.11484 -0.949832 -0.777778 8.29437 -0.265443 4.75718 -0.876384 -0.0627596 0.477507
-40.442 -12.2665 6.05475 -0.511037 -0.200719 -0.183078 -0.0888889 8.31244 0.511469 0.617807 -0.727332 0.609407 -0.315612
-43.0871 1.57525 3.7945 -0.784183 -0.0988145 -0.0612437 -0.777778 8.36192 0.837786 4.14426 -0.765179 -0.186942 0.61608
-39.0405 -12.7078 4.02331 -0.144994 -0.154999 0 -0.0304756 8.37789 -0.552667 0.617807 -0.784594 0.619995 0.00440853
-38.0469 -11.3901 2.27731 -0.188333 -0.18235 0 -0.2 8.45609 -0.108017 0.256571 -0.775768 0.617291 -0.130902
-38.4216 -10.9028 9.40738 -0.0848407 -0.0330222 0 0.161005 8.48917 -0.165295 0.865882 -0.198247 0.422036 0.884638
-45.2798 -3.96525 -0.29375 -0.306163 0.13853 0 -0.777778 8.49928 0.519383 5.18361 -0.947872 0.205734 0.243338
-33.7808 -4.35275 7.259 -0.49901 -0.13261 0 0.422222 8.51733 0.711429 1.83964 -0.30399 0.887822 0.345489
-35.2925 -3.2405 -0.350875 -0.381477 -0.0221935 0 -0.288889 8.52287 -0.680327 2.62328 -0.367442 0.0947415 0.925208
-33.8745 -4.44375 0.85425 -0.229711 0.105625 0 -0.777778 8.55335 -0.863753 2.4211 -0.610094 0.669089 0.424388
-43.689 -7.74575 -0.37375 -0.569803 0.139405 -0.135995 -0.777778 8.56703 0.830297 5.56708 -0.0978061 -0.706998 0.70042
-37.097 0.353 3.8695 -0.191528 -0.0794973 0.168642 -0.777778 8.68815 0.457865 3.71234 0.176704 -0.136258 0.974787
-37.1655 -10.5795 0.94625 -0.493713 0.167947 -0.432203 -0.2 8.81688 -0.678808 6.1547 -0.981711 0.188311 -0.027959
-41.0505 2.48775 4.56675 -0.473897 -0.067463 0 -0.777778 8.83307 0.363515 4.14426 0.203024 -0.106568 0.973357
-39.5575 -12.9215 5.1585 -0.249104 -0.205573 -0.8998 -0.0873027 8.84771 -0.794622 0.617807 -0.580497 0.616135 -0.532353
-43.0252 -8.12325 -1.07925 -0.580357 0.145289 -0.149984 -0.777778 8.86782 0.366016 5.56708 0.20579 -0.713953 0.66927
-35.245 -0.365 1.9245 -0.229509 0.177348 0 -0.777778 8.93455 0.601351 3.30538 0.927783 -0.160929 0.33663
-40.49 -12.13 7.679 -0.38662 -0.153118 -0.191915 -0.0888889 8.94625 0.83373 0.617807 -0.767545 0.638138 0.0604524
-33.0223 -3.958 4.60862 -0.405587 -0.15712 0 -0.777778 9.04267 -0.0475736 2.00348 -0.676776 0.735773 0.0247489
-42.217 2.568 4.372 -0.524177 -0.0343075 0 -0.777778 9.05785 0.39463 4.14426 -0.421686 -0.00642154 0.906719
-33.4766 -3.51219 0.695625 -0.283369 -0.0608693 0 -0.288889 9.06016 -0.508533 2.62328 -0.65061 0.291893 0.701075
-33.6727 -6.60225 9.258 -0.056536 0.0393359 0 0.422222 9.06556 0.812888 1.83964 0.0702203 0.288359 0.954944
-37.558 1.975 4.17487 -0.629307 -0.0411564 -0.614733 -0.777778 9.08614 0.779585 3.71234 0.0352649 0.0157289 0.999254
-40.2147 -12.1182 8.68681 -0.101684 -0.144731 0 -0.0888889 9.09273 -0.31917 0.617807 -0.724912 0.685959 0.0629486
-35.8405 -9.07938 9.28952 -0.0548477 0.0544979 0 0.622222 9.19558 -0.447668 1.43591 0.16897 0.166588 0.971441
-33.0858 -3.63425 2.55325 -0.39717 -0.139191 -0.0935159 -0.777778 9.20164 -0.153587 2.4211 -0.882026 0.453282 0.128706
-45.4999 -6.559 -1.1705 -0.592183 0.153667 0 -0.777778 9.22697 0.349206 5.18361 -0.767073 -0.617302 0.174747
-35.5675 0.14675 2.96625 -0.263036 0.144041 0 -0.777778 9.24352 0.740087 3.71234 0.750801 -0.123764 0.64883
-39.0421 3.00738 3.62512 -0.371083 0.0553493 0 -0.777778 9.25482 -0.189517 4.14426 0.235222 0.228087 0.9448
-39.7052 -11.6827 10.2268 -0.143636 -0.137158 0 -0.0888889 9.26158 0.256964 0.617807 -0.393878 0.915497 0.0820099
-33.1136 -5.69175 8.441 -0.25574 0.0480474 0 0.422222 9.26912 -0.0800373 1.83964 -0.0804986 0.527094 0.845986
-37.3369 -10.2401 -0.195625 -0.55539 0.170378 -0.631292 0.0301647 9.27872 -0.176817 6.1547 -0.850087 -0.525629 0.0326564
-38.1895 -9.969 -0.9605 -0.34482 0.150771 -0.0443268 -0.693789 9.28127 0.147659 6.1547 -0.185562 -0.876664 0.443877
-40.1118 -8.89744 -0.759 -0.583787 0.0352206 -0.100951 -0.777778 9.28995 0.215933 6.1547 -0.282703 -0.0442896 0.958184
-36.6522 -10.0513 9.55838 -0.0579147 0.0381903 0 0.622222 9.39396 -0.0597039 0.865882 -0.0113421 0.00129904 0.999935
-44.443 -1.03013 -0.71425 -0.180242 0.150776 0 -0.777778 9.41024 -0.424717 5.18361 -0.997938 0.0640563 0.00417257
-34.925 -0.822125 0.624313 -0.166115 0.128968 0.237653 -0.54934 9.46573 -0.056821 3.05265 0.691245 -0.250309 0.677883
-45.5929 -4.47756 -1.0975 -0.661837 0.120248 0 -0.777778 9.50253 0.074797 5.18361 -0.930147 0.223379 0.291425
-41.5755 -8.42838 -1.43763 -0.46172 0.0561743 -0.0938401 -0.777778 9.55218 -0.346441 5.56708 -0.191627 -0.215441 0.95753
-35.0124 -2.15687 0.0776875 -0.360413 -0.0597367 0 -0.288889 9.56017 -0.12048 3.05265 -0.132374 -0.269482 0.953864
-43.9055 1.411 0.7435 -0.38372 0.0977511 -0.647603 -0.731169 9.60549 -0.263171 4.75718 -0.874578 -0.0774757 0.478656
-41.0713 -13.4177 6.42462 -0.290474 -0.172072 -0.534868 -0.0888889 9.67556 -0.194701 0.617807 -0.736586 0.592502 -0.326164
-44.4607 0.274063 -0.0676875 -0.16303 0.106011 0 -0.355556 9.69953 0.105417 4.75718 -0.919826 0.0610784 0.387543
-43.0135 2.919 3.737 -0.383727 0.0783636 0 -0.777778 9.70891 0.600167 4.14426 -0.797274 0.168796 0.579536
-36.4315 1.14775 3.6145 -0.328163 0.110234 -0.0427102 -0.777778 9.75564 0.396665 3.71234 0.566569 -0.0350329 0.823269
-39.3395 -12.2695 2.70438 -0.132536 -0.139155 0 -0.2 9.79954 0.559201 0.617807 -0.527689 0.826083 0.197817
-38.6406 -11.7924 10.4327 -0.104061 -0.118329 0 -0.0888889 9.86417 -0.46685 0.865882 0.0885346 0.941537 0.325068
-43.7103 -8.37375 -1.76775 -0.422553 0.180671 -0.68474 -0.777778 9.87089 0.338428 5.56708 -0.695415 -0.710814 -0.105547
-43.7072 2.09175 2.51425 -0.662943 0.118939 -0.0961542 -0.777778 9.8753 0.594798 4.14426 -0.958642 0.0444668 0.281118
-37.133 -11.4148 9.588 -0.0434883 -0.0700471 0 0.622222 9.88747 -0.540624 0.865882 0.0618202 0.654656 0.753395
-45.2485 -2.65225 -2.18575 -0.254407 0.132952 0 -0.777778 9.91058 0.614042 5.18361 -0.933218 0.35931 -0.000907542
-37.6992 -11.7405 0.84675 -0.327617 0.201903 0 -0.2 9.96942 0.1366 6.1547 -0.70792 0.374301 -0.598956
-33.7349 -8.84456 9.08519 -0.0849763 0.0404016 -0.0317813 0.329156 9.99732 -0.161722 1.43591 0.115588 0.207804 0.971317
-40.3124 -13.7774 4.16981 -0.085442 -0.143564 -0.067402 -0.268271 10.0462 -0.339711 0.617807 -0.683577 0.727998 -0.0523614
-41.0438 -13.0861 8.04025 -0.200323 -0.15015 -0.683697 -0.183925 10.1087 -0.433698 0.617807 -0.664936 0.739392 -0.10564
-42.0288 3.59275 4.5445 -0.22957 0.0298785 0 -0.777778 10.1139 0.742546 4.14426 -0.480291 0.13937 0.865966
-32.1635 -4.18888 7.43363 -0.193905 -0.0860411 0.0533052 0.256529 10.1523 -0.0331682 1.83964 -0.494985 0.710564 0.500088
-40.7028 -12.5025 9.682 -0.271279 -0.150532 0 -0.0888889 10.2659 -0.435801 0.617807 -0.559298 0.816274 -0.144508
-37.587 3.07075 3.68775 -0.610613 0.070647 -0.50762 -0.777778 10.2856 0.734447 3.71234 0.226641 0.577705 0.78415
-46.0965 -5.724 -1.525 -0.657353 0.112839 0 -0.777778 10.3127 0.822094 5.18361 -0.912852 -0.184942 0.364002
-36.4515 2.298 3.7275 -0.528223 0.0985292 -0.0184521 -0.777778 10.3226 0.999873 3.71234 0.582346 0.298106 0.756311
-32.5255 -4.007 5.828 -0.40946 -0.120068 0 -0.149668 10.3603 -0.415664 1.83964 -0.477079 0.829495 0.290403
-36.7277 -10.616 -1.01163 -0.608827 0.194652 0 0.0969396 10.3642 0.0618104 6.1547 -0.642247 -0.558481 -0.524993
-39.8445 3.57888 4.13925 -0.23738 0.0896384 0 -0.777778 10.366 0.617063 4.14426 0.552164 0.149121 0.820291
-39.5865 -12.4178 1.59925 -0.241682 0.175931 0 -0.2 10.4275 0.54917 0.256571 -0.545242 0.796439 -0.261526
-38.8097 -10.0794 -1.92338 -0.56338 0.16531 -0.209424 -0.777778 10.4319 -0.343076 6.1547 0.332587 -0.90386 0.269115
-39.3312 -9.78662 -0.867875 -0.62394 0.119502 -0.009734 -0.777778 10.4411 0.361568 6.1547 0.189139 -0.576538 0.794877
-32.6063 -2.82525 1.547 -0.460887 -0.122212 -0.466372 -0.777778 10.4581 -0.999882 2.4211 -0.950184 0.265308 0.16359
-44.4426 -1.00762 -1.76612 -0.0676747 0.142983 0 -0.672669 10.4623 -0.386614 5.18361 -0.9829 0.16868 -0.0738507
-40.736 -13.2581 2.8885 -0.0196102 -0.117399 0.25706 -0.2 10.491 0.832904 0.617807 -0.617017 0.743398 0.258165
-41.0871 4.13737 4.7885 -0.180523 0.0283628 0 -0.777778 10.4979 0.999891 4.14426 -0.0134583 0.342001 0.939603
-39.231 -11.645 11.368 -0.172933 -0.153904 0 -0.777778 10.498 0.0555941 0.617807 -0.0115187 0.982045 -0.188295
-35.6166 -10.4596 9.67712 -0.0511477 -0.0174187 0.0974745 0.445784 10.5135 -0.0366741 0.865882 -0.132272 0.297605 0.945481
-45.7837 -6.502 -2.43925 -0.770453 0.164875 -0.664385 -0.777778 10.5283 0.99991 5.18361 -0.703856 -0.680656 -0.20321
-35.0541 1.07375 1.07763 -0.100963 0.140489 0 -0.777778 10.6149 -0.538262 3.30538 0.90533 -0.0469999 0.4221
-32.7163 -2.2705 2.6995 -0.821407 -0.132411 -0.0655108 -0.777778 10.6221 0.455057 2.4211 -0.91507 0.393282 0.0893089
3 193 169 188
3 169 193 127
3 177 165 125
3 103 125 80
3 103 80 58
3 125 141 92
3 92 141 147
3 147 181 153
3 186 175 155
3 30 58 39
3 8 20 14
3 111 92 147
3 111 153 129
3 111 129 79
3 153 170 129
3 79 129 110
3 110 129 158
3 170 153 195
3 190 189 156
3 136 155 175
3 136 175 128
3 93 66 45
3 66 74 36
3 66 36 45
3 18 36 13
3 18 13 5
3 5 15 18
3 5 13 0
3 8 0 13
3 0 4 5
3 15 5 4
3 40 52 63
3 52 39 79
3 79 39 62
3 114 110 158
3 158 196 148
3 139 162 120
3 72 99 93
3 45 99 72
3 45 36 18
3 18 43 44
3 45 44 73
3 0 1 6
3 1 12 6
3 1 9 12
3 1 0 2
3 33 40 51
3 63 88 40
3 88 108 67
3 67 108 107
3 88 114 108
3 145 154 96
3 107 108 176
3 171 113 150
3 113 100 82
3 21 35 37
3 35 6 23
3 35 23 47
3 35 47 69
3 71 35 69
3 23 12 42
3 12 24 42
3 22 38 24
3 42 24 38
3 10 7 27
3 27 7 26
3 19 7 16
3 10 2 7
3 32 16 31
3 7 2 0
3 3 14 17
3 51 34 17
3 34 51 67
3 34 67 55
3 51 88 67
3 96 77 55
3 49 77 91
3 49 91 78
3 91 131 142
3 142 131 185
3 185 131 180
3 180 131 154
3 161 119 174
3 161 183 150
3 183 197 150
3 130 161 121
3 130 121 90
3 90 121 82
3 90 82 65
3 90 119 130
3 90 71 119
3 71 123 119
3 71 95 123
3 59 71 90
3 119 123 159
3 159 123 166
3 166 104 124
3 104 69 85
3 126 98 143
3 143 98 137
3 143 137 179
3 146 94 84
3 60 98 75
3 75 38 60
3 75 42 38
3 54 38 22
3 84 54 105
3 54 28 64
3 54 64 105
3 16 32 19
3 53 19 32
3 32 49 53
3 53 97 50
3 97 53 89
3 174 159 192
3 172 124 126
3 126 124 85
3 179 167 143
3 182 152 146
3 187 137 152
3 168 146 135
3 168 135 151
3 146 84 135
3 132 81 101
3 50 97 101
3 132 101 144
3 106 64 112
3 140 106 160
3 106 112 160
3 112 163 160
3 132 144 163
3 161 130 119
3 49 31 25
3 100 120 68
3 43 76 44
3 127 177 138
3 138 177 125
3 193 177 127
3 127 138 103
3 103 138 125
3 58 70 103
3 92 58 80
3 92 80 125
3 181 147 178
3 178 147 141
3 128 169 127
3 128 127 70
3 103 70 127
3 62 39 58
3 62 58 92
3 79 62 111
3 92 111 62
3 158 129 173
3 129 170 173
3 155 99 156
3 155 93 99
3 93 155 136
3 122 93 136
3 122 136 128
3 93 122 74
3 102 74 128
3 66 93 74
3 70 74 102
3 70 102 128
3 122 128 74
3 3 0 8
3 3 8 14
3 176 108 148
3 171 162 139
3 118 76 109
3 162 118 109
3 68 120 109
3 68 109 76
3 68 76 61
3 87 76 118
3 157 118 162
3 162 109 120
3 44 76 87
3 44 87 73
3 73 87 99
3 99 87 118
3 99 118 157
3 156 99 157
3 156 157 190
3 18 44 45
3 68 61 41
3 43 41 61
3 82 100 68
3 37 68 41
3 37 41 21
3 21 41 15
3 6 21 15
3 108 114 148
3 59 65 37
3 59 37 35
3 71 59 35
3 42 47 23
3 27 28 10
3 26 7 19
3 25 16 7
3 25 7 3
3 25 3 17
3 3 7 0
3 31 16 25
3 34 49 25
3 77 49 55
3 55 49 34
3 17 34 25
3 53 49 78
3 78 117 89
3 89 53 78
3 142 117 78
3 142 78 91
3 164 166 124
3 164 124 172
3 85 124 104
3 75 85 42
3 47 42 85
3 47 85 69
3 152 137 94
3 152 94 146
3 94 137 98
3 84 94 38
3 38 94 60
3 60 94 98
3 54 84 38
3 46 64 28
3 46 28 27
3 50 19 53
3 117 149 97
3 117 97 89
3 112 64 86
3 112 86 116
3 116 86 115
3 115 86 83
3 83 86 57
3 27 57 46
3 46 57 86
3 46 86 64
3 48 81 56
3 56 81 83
3 81 48 50
3 26 48 56
3 26 56 27
3 27 56 57
3 57 56 83
3 83 81 115
3 19 50 48
3 19 48 26
3 132 115 81
3 101 81 50
3 144 101 133
3 144 133 149
3 149 133 97
3 97 133 101
3 191 149 199
3 149 191 144
3 160 198 140
3 116 163 112
3 163 116 115
3 163 115 132
3 141 125 178
3 178 125 165
3 70 30 36
3 30 70 58
3 20 13 39
3 39 13 30
3 30 13 36
3 13 20 8
3 153 111 147
3 188 169 128
3 188 128 175
3 70 36 74
3 20 39 52
3 20 52 29
3 20 29 14
3 40 29 52
3 79 110 114
3 79 114 63
3 79 63 52
3 45 72 93
3 15 41 43
3 15 43 18
3 4 0 6
3 4 6 15
3 40 33 14
3 40 14 29
3 114 88 63
3 107 145 96
3 120 100 139
3 134 139 100
3 134 100 113
3 134 113 171
3 139 134 171
3 76 43 61
3 99 45 73
3 82 37 65
3 37 82 68
3 6 35 21
3 12 23 6
3 9 1 11
3 9 11 22
3 22 24 9
3 9 24 12
3 10 28 11
3 10 11 2
3 2 11 1
3 11 28 22
3 17 33 51
3 33 17 14
3 40 88 51
3 107 96 67
3 67 96 55
3 96 131 77
3 131 91 77
3 154 131 96
3 107 176 145
3 161 150 121
3 121 150 113
3 121 113 82
3 90 65 59
3 71 69 95
3 95 69 104
3 104 166 123
3 104 123 95
3 98 126 75
3 126 85 75
3 28 54 22
3 31 49 32
3 142 149 117
3 159 174 119
3 143 167 126
3 172 126 167
3 194 179 137
3 194 137 187
3 184 182 146
3 184 146 168
3 106 105 64
3 105 106 151
3 105 151 135
3 105 135 84
3 106 140 151
3 158 148 114
