ply
format ascii 1.0
comment Generated by PyMesh
element vertex 200
property float x
property float y
property float z
property float charge
property float ddc
property float hbond
property float hphob
property float rho
property float si
property float theta
property float nx
property float ny
property float nz
element face 341
property list uchar int vertex_indices
end_header
-37.5353 -6.48425 8.23575 -0.233165 0 0 0.622222 1e-08 0.0901899 2.22045e-16 0.0970878 0.959624 0.263998
-38.5578 -5.97625 7.695 -0.145536 0.207661 0 0.622222 1.26332 0.999874 2.22045e-16 -0.022914 0.993538 0.111163
-36.2115 -6.49013 8.4785 -0.151679 -0.163987 0 0.422222 1.34589 0.188495 3.25872 -0.198481 0.832854 0.516681
-36.7781 -6.53188 6.914 -0.274894 0.202204 0 0.564384 1.52402 -0.548748 4.65665 -0.216885 0.972193 0.0883307
-36.9893 -7.27563 9.55737 -0.096239 0.336364 0 0.622222 1.63434 0.752194 2.11572 0.139151 0.628387 0.765354
-39.2218 -6.73138 8.81181 -0.051944 0.253604 0 0.622222 1.79922 0.864378 0.749018 -0.384019 0.697497 0.605002
-37.878 -6.53662 6.06738 -0.320401 0.180555 0 0.622222 2.19591 -0.406608 5.42674 0.0806288 0.996742 0.00230739
-35.753 -6.076 6.7845 -0.291349 -0.253572 0 0.422222 2.65337 -0.522238 4.2076 -0.619832 0.760206 0.194666
-39.8204 -6.49412 6.95056 -0.113353 0.247792 0 0.622222 2.81784 0.438333 0.0158712 -0.617739 0.785837 0.0292997
-34.8695 -6.857 9.14087 0.0581217 0.31118 0 0.422222 2.88676 0.660127 3.0342 -0.190404 0.275077 0.942379
-35.5774 -7.80863 9.09609 -0.055958 0.389373 0 0.424333 2.93395 -0.166127 2.62101 0.168083 0.200091 0.965252
-34.8674 -5.60225 8.20088 -0.217975 -0.157713 0 0.422222 2.98051 0.444236 3.58009 -0.382486 0.708639 0.592904
-37.0859 -6.42944 5.42169 -0.218864 -0.0197568 0 0.622222 3.05118 -0.812193 5.12004 -0.133285 0.924278 0.357694
-37.1741 -8.64888 9.92513 -0.0694003 0.412362 0 0.622222 3.06795 0.916692 1.91769 0.048268 -0.00831849 0.9988
-38.4269 -7.34469 9.6155 -0.0803503 0.51053 0 0.622222 3.07477 0.776417 1.35325 -0.347538 0.211085 0.913597
-40.364 -7.339 7.8165 -0.106214 0.370161 0 0.622222 3.43154 0.999892 0.464467 -0.928574 0.228913 0.292146
-39.669 -8.315 8.716 -0.222349 0.47203 0 0.622222 3.44756 0.722866 0.919499 -0.795708 -0.188115 0.575727
-35.9019 -5.79362 5.36525 -0.244153 -0.118887 0 0.622222 3.45052 -0.18642 4.67351 -0.443094 0.872622 0.205424
-35.2217 -5.19338 6.81475 -0.528 -0.225511 0 0.422222 3.68401 0.763676 4.11834 -0.691483 0.696105 0.193104
-39.3888 -6.33588 5.80237 -0.163987 -0.0197614 0 0.622222 3.74286 -0.0663983 5.92007 -0.0383378 0.914225 0.403388
-40.3257 -7.13325 6.0125 -0.106588 0.279094 0 0.622222 4.06033 0.364511 6.24999 -0.902043 0.354241 0.246639
-33.6727 -6.60225 9.258 -0.056536 0.221997 0 0.422222 4.11597 0.812888 3.18064 0.0702203 0.288359 0.954944
-37.0402 -5.822 4.5435 -0.244789 -0.0835024 0 0.622222 4.11996 0.436613 5.02324 -0.347204 0.810193 0.472268
-35.8405 -9.07938 9.28952 -0.0548477 0.308093 0 0.622222 4.24599 -0.447668 2.3173 0.16897 0.166588 0.971441
-38.046 -9.741 9.4805 -0.140535 0.335731 0 0.622222 4.53445 0.263676 1.59175 -0.263405 -0.0712523 0.96205
-36.6522 -10.0513 9.55838 -0.0579147 0.289269 0 0.622222 4.60862 -0.0597039 1.95075 -0.0113421 0.00129904 0.999935
-40.3073 -8.2845 7.0405 -0.250848 0.406356 0 0.622222 4.65602 0.503443 0.40574 -0.983741 -0.144484 0.106671
-33.1136 -5.69175 8.441 -0.25574 -0.140399 0 0.422222 4.75294 -0.0800373 3.46662 -0.0804986 0.527094 0.845986
-38.9468 -9.482 9.05175 -0.187323 0.367508 0 0.622222 4.86043 0.265325 1.29884 -0.680577 -0.107266 0.724782
-33.7808 -4.35275 7.259 -0.49901 -0.0521873 0 0.422222 4.88553 0.711429 3.86544 -0.30399 0.887822 0.345489
-34.769 -5.28237 4.57438 -0.310572 0.11856 0 0.472631 4.92372 -0.489743 4.53174 -0.440406 0.895197 -0.0683023
-33.7349 -8.84456 9.08519 -0.0849763 0.212064 -0.0317813 0.329156 5.04773 -0.161722 2.71075 0.115588 0.207804 0.971317
-37.6167 -5.52175 3.63175 -0.326966 0.00302482 0 0.622222 5.12713 -0.309424 5.17185 -0.0906204 0.930519 0.354856
-36.4033 -5.22025 3.798 -0.307738 0.0284204 0 0.622222 5.19305 0.63504 4.9366 -0.192443 0.937573 0.289695
-40.336 -8.1225 5.43937 -0.0817083 0.368835 0 0.622222 5.20366 0.164308 0.245208 -0.944471 -0.323984 -0.0548503
-34.4007 -4.5955 5.6 -0.490827 -0.149457 0 0.422222 5.2674 0.629453 4.28719 -0.54596 0.829982 -0.114273
-40.337 -5.247 4.9125 -0.54352 -0.204097 -0.475689 -0.288889 5.43891 -0.0814939 5.87457 -0.235348 0.233348 0.943483
-39.757 -9.28 6.953 -0.319286 0.423611 0 0.622222 5.45931 0.22262 0.692528 -0.878225 -0.449744 0.162637
-35.6166 -10.4596 9.67712 -0.0511477 0.185977 0.0974745 0.445784 5.69698 -0.0366741 2.13172 -0.132272 0.297605 0.945481
-38.6125 -5.23581 3.59262 -0.300241 -0.141033 0 0.184466 5.71591 -0.290688 5.45598 0.552816 0.670072 0.495377
-38.4216 -10.9028 9.40738 -0.0848407 0.158975 0 0.161005 5.75764 -0.165295 1.53625 -0.198247 0.422036 0.884638
-32.0638 -6.682 8.86012 -0.0991797 0.191202 0 0.422222 5.77525 0.287433 3.24815 0.125745 0.107356 0.986237
-32.587 -7.96 8.83225 -0.106065 0.244027 0 0.422222 5.9058 -0.0724657 2.9781 0.225255 -0.143861 0.96362
-37.133 -11.4148 9.588 -0.0434883 0.0974974 0 0.622222 6.05471 -0.540624 1.53625 0.0618202 0.654656 0.753395
-35.5205 -4.9905 2.8695 -0.362307 0.0408097 0 0.622222 6.0999 0.475207 4.9366 -0.102899 0.986652 0.126215
-39.1034 -9.88912 7.8795 -0.307649 0.365129 0 0.622222 6.1112 -0.530008 1.29884 -0.983972 -0.0837317 0.157441
-35.9349 -11.4358 9.692 -0.0355487 0.123622 0 -0.0703309 6.17361 -0.879546 2.13172 -0.260957 0.492579 0.830221
-37.5618 -5.33744 2.60069 -0.375937 0.0481854 0 0.622222 6.17597 -0.432898 5.17185 0.116432 0.978917 0.167823
-34.2253 -10.122 9.57225 0.0698043 0.129638 0.0916115 -0.288889 6.18914 -0.64127 2.13172 -0.101175 0.499376 0.860458
-40.7697 -7.24625 4.67725 -0.16182 0.327096 0 0.20411 6.44331 0.187267 0.245208 -0.714739 -0.526074 0.460863
-31.5397 -5.06975 8.558 -0.139835 -0.137476 0 0.422222 6.44933 0.408564 3.46662 -0.181328 0.312937 0.932304
-40.8904 -4.4085 5.07013 -0.258394 -0.277038 0 -0.288889 6.45586 0.345272 5.87457 -0.0705653 -0.348085 0.934803
-32.1635 -4.18888 7.43363 -0.193905 -0.0834697 0.0533052 0.256529 6.52046 -0.0331682 3.86544 -0.494985 0.710564 0.500088
-34.1722 -4.98475 3.09775 -0.222041 0.0536907 0 0.622222 6.54396 -0.5295 4.53174 -0.287157 0.953252 0.0940841
-39.72 -9.3495 5.1955 -0.207814 0.353728 0 0.622222 6.5981 0.545022 0.245208 -0.880232 -0.386669 -0.275096
-39.4165 -10.2591 6.43469 -0.253513 0.309388 0 0.622222 6.61829 -0.220215 0.692528 -0.996475 -0.0786897 -0.029075
-39.5793 -4.5735 4.28075 -0.400967 -0.247491 0 -0.288889 6.63341 0.160798 5.87457 0.666708 0.0707343 0.741955
-39.4077 -11.2451 9.05275 -0.107421 0.163207 0 -0.0888889 6.68277 0.143189 1.53625 -0.813013 0.531322 0.238132
-32.5255 -4.007 5.828 -0.40946 -0.0686871 0 -0.149668 6.82023 -0.415664 3.86544 -0.477079 0.829495 0.290403
-32.2695 -9.8335 9.2325 -0.455943 0.113374 -0.465912 -0.288889 6.82174 0.0385149 2.71075 0.424748 0.559253 0.711917
-34.6855 -10.849 10.1925 -0.00933493 0.0796408 0.469916 -0.307082 6.8302 -0.175696 2.13172 -0.405149 0.716163 0.5683
-33.3517 -4.48987 3.43613 -0.318732 -0.110438 0 -0.777778 6.90675 -0.678108 4.53174 -0.704637 0.708257 0.0431058
-39.0392 -4.08825 3.2905 -0.343817 -0.217806 0 -0.288889 6.97696 -0.319476 5.45598 0.866152 0.13306 0.481742
-39.2227 -8.85181 4.25631 -0.15133 0.36319 0 0.622222 6.98438 -0.2882 0.245208 -0.697007 -0.510394 -0.503666
-33.0223 -3.958 4.60862 -0.405587 -0.112971 0 -0.777778 7.08102 -0.0475736 4.28719 -0.676776 0.735773 0.0247489
-38.6406 -11.7924 10.4327 -0.104061 -0.0290279 0 -0.0888889 7.13264 -0.46685 1.53625 0.0885346 0.941537 0.325068
-41.806 -6.0655 4.664 -0.339903 0.228435 -0.444224 -0.288889 7.13881 0.999887 5.87457 -0.668142 -0.13767 0.731186
-31.7621 -8.94063 8.38975 -0.234182 0.185346 -0.658366 -0.0698936 7.14172 -0.451789 2.9781 0.343047 0.0129698 0.939229
-31.1874 -7.7385 8.66362 -0.113658 0.206814 0 0.422222 7.16193 0.556874 3.24815 0.213163 -0.24042 0.946974
-30.7165 -5.80762 8.67513 -0.0886017 0.148082 0 0.422222 7.16423 0.192612 3.24815 -0.00172286 0.136058 0.990699
-33.0234 -10.6089 10.2657 -0.057632 0.0334273 -0.0218802 -0.299364 7.28664 -0.147224 2.71075 0.0632105 0.859597 0.507047
-39.2836 -11.0393 7.63112 -0.129898 0.190814 0 -0.0888889 7.30161 -0.620587 1.29884 -0.867189 0.482527 0.123084
-40.3124 -7.47781 3.41987 -0.112871 0.333422 0.240844 -0.288889 7.3237 -0.0424891 0.245208 -0.570349 -0.785454 -0.240342
-30.4287 -7.0005 8.672 -0.0796337 0.180428 0 0.422222 7.45167 0.2299 3.24815 0.0960066 -0.186931 0.97767
-39.7052 -11.6827 10.2268 -0.143636 0.0705335 0 -0.0888889 7.46858 0.256964 1.53625 -0.393878 0.915497 0.0820099
-38.3061 -4.64156 1.7885 -0.317875 -0.137164 0 -0.288889 7.479 -0.469338 5.45598 0.772696 0.573598 0.271893
-36.7253 -12.2281 10.7773 -0.06689 -0.0310527 0 -0.777778 7.55207 -0.999863 2.13172 0.0235737 0.979813 0.198521
-42.1951 -4.93669 3.83363 -0.405833 0.206198 -0.0483396 -0.288889 7.60981 0.27189 5.87457 -0.882318 -0.162969 0.441538
-39.7103 -11.2475 6.627 -0.285025 0.189533 -0.0163221 -0.0592464 7.66721 0.268709 0.692528 -0.881759 0.461065 -0.0995947
-35.4852 -12.0276 10.9904 0.018628 -0.0776069 0 -0.474158 7.66971 -0.999878 2.13172 -0.505969 0.856617 0.10101
-41.2697 -3.31787 5.51263 -0.0587577 -0.178829 0 -0.288889 7.69245 0.99991 5.87457 -0.228896 0.144192 0.962713
-30.8317 -4.04781 8.4385 -0.125715 -0.150782 0 -0.0862804 7.69829 0.0295254 3.46662 -0.540475 0.0841614 0.83714
-34.0807 -4.81025 1.82325 -0.262563 -0.0478582 0 -0.165003 7.8336 -0.505076 4.53174 -0.396356 0.895647 0.201787
-36.3025 -5.19994 1.31463 -0.396933 0.0224901 0 0.622222 7.8529 -0.650046 5.17185 -0.135275 0.967282 0.214632
-40.2147 -12.1182 8.68681 -0.101684 0.120384 0 -0.0888889 7.92675 -0.31917 1.53625 -0.724912 0.685959 0.0629486
-37.6586 -12.0024 11.3371 -0.042336 -0.0861469 0 -0.777778 7.97327 -0.386179 1.53625 0.1699 0.977623 -0.124048
-40.1156 -3.0305 5.21513 -0.166004 -0.232356 0 -0.288889 8.04338 0.999861 5.87457 0.613754 0.0165811 0.789323
-37.6309 -4.894 0.760625 -0.305554 -0.0576084 0 0.4401 8.06997 -0.78656 5.17185 0.35599 0.853998 0.379419
-42.0901 -3.38044 4.73325 -0.0941403 0.184551 0 -0.288889 8.07131 0.747616 5.87457 -0.827295 0.00828891 0.561706
-31.2589 -2.88775 7.42325 -0.124684 -0.152724 0.645326 -0.777778 8.10519 0.0729631 3.86544 -0.944353 0.24938 0.214491
-41.8543 -6.81925 3.45994 -0.00523467 0.271588 0.00167843 -0.288889 8.1287 0.999855 0.245208 -0.776072 -0.630333 -0.0198401
-33.0858 -3.63425 2.55325 -0.39717 -0.124153 -0.0935159 -0.777778 8.16463 -0.153587 4.53174 -0.882026 0.453282 0.128706
-31.387 -3.21175 6.058 -0.489047 -0.0909159 -0.551445 -0.777778 8.22789 -0.370034 3.86544 -0.675592 0.718291 0.166235
-39.231 -11.645 11.368 -0.172933 -0.0884241 0 -0.777778 8.24848 0.0555941 1.53625 -0.0115187 0.982045 -0.188295
-31.1244 -10.7653 9.34475 -0.237991 0.0387195 -0.00842829 0.358551 8.30231 -0.638997 2.71075 0.166343 0.841513 0.513989
-30.332 -8.3075 8.105 -0.233008 0.170027 -0.690102 0.422222 8.33134 -0.730304 3.24815 0.0781791 -0.157487 0.984422
-34.6963 -11.0377 11.6884 -0.022532 -0.0815827 0 -0.355556 8.33799 0.253035 2.13172 -0.380493 0.922615 -0.0633071
-39.405 -11.8045 5.651 -0.30288 0.202816 -0.140277 0.443238 8.35108 -0.35332 0.692528 -0.802782 0.345569 -0.485925
-38.6023 -3.22781 1.86181 -0.417577 -0.19004 0 -0.288889 8.36692 -0.384238 5.45598 0.954505 0.0227215 0.297327
-30.8837 -9.88225 8.15225 -0.280124 0.0854898 -0.243292 0.287953 8.45117 -0.999836 2.9781 0.24749 0.575023 0.779806
-29.5184 -4.752 8.38488 -0.0921843 -0.146539 0 -0.622476 8.50276 -0.599892 3.24815 -0.0909488 -0.0927838 0.991524
-38.3525 -8.72563 2.94537 -0.203228 0.313679 0 0.622222 8.5629 -0.794965 0.245208 -0.694445 -0.62912 -0.34922
-38.5904 -10.7269 4.25181 -0.149889 0.245301 0 0.622222 8.61398 -0.120345 0.245208 -0.861603 0.0665513 -0.503201
-29.3855 -6.38375 8.73913 -0.150886 0.143308 0 0.422222 8.61598 0.489601 3.24815 0.0195532 -0.0457732 0.99876
-38.8596 -2.3095 3.33262 -0.32831 -0.222858 0 -0.288889 8.76525 0.128489 5.45598 0.836238 -0.206014 0.508196
-37.947 -9.83925 3.46025 -0.175008 0.279657 0 0.622222 8.78331 -0.343596 0.245208 -0.870984 -0.280418 -0.403427
-40.7028 -12.5025 9.682 -0.271279 0.101651 0 -0.0888889 8.87004 -0.435801 1.53625 -0.559298 0.816274 -0.144508
-33.8745 -4.44375 0.85425 -0.229711 -0.070296 0 -0.777778 8.88991 -0.863753 4.53174 -0.610094 0.669089 0.424388
-32.4227 -10.9208 11.7502 -0.0459733 -0.0470278 0 -0.355556 8.91817 -0.121985 2.71075 0.113925 0.991513 0.0626406
-40.49 -12.13 7.679 -0.38662 0.126153 -0.191915 -0.0888889 8.92867 0.83373 1.53625 -0.767545 0.638138 0.0604524
-32.271 -2.29513 4.08075 -0.67468 -0.0759861 -0.14244 -0.777778 8.98055 0.336268 4.28719 -0.588367 0.642445 0.491007
-39.8947 -7.20087 1.83025 -0.162095 0.269943 0.0702385 0.535553 8.99045 -0.439735 0.245208 -0.630199 -0.758222 -0.167178
-35.906 -11.7725 12.2495 -0.106097 -0.099625 0 -0.374524 9.02155 -0.431602 2.13172 -0.163692 0.93462 -0.315736
-40.442 -12.2665 6.05475 -0.511037 0.145057 -0.183078 -0.0888889 9.04605 0.511469 0.692528 -0.727332 0.609407 -0.315612
-30.3359 -3.20906 9.39494 -0.128608 -0.193635 0 -0.777778 9.06361 0.415428 3.46662 -0.518284 -0.519009 0.679714
-29.0284 -7.79625 8.346 -0.16033 0.14689 0 0.422222 9.09494 -0.206977 3.24815 -0.0886754 -0.171318 0.981217
-38.0385 -4.1545 0.1545 -0.237094 -0.116627 0 -0.288889 9.10939 -0.999886 5.45598 0.715193 0.39173 0.578832
-38.9986 -7.99137 2.27875 -0.178566 0.293035 0 0.622222 9.13807 -0.466468 0.245208 -0.620734 -0.776492 -0.1084
-30.886 -2.0955 6.865 -0.052242 -0.128364 0.559849 -0.777778 9.14363 0.422174 3.86544 -0.812348 0.52618 -0.251447
-42.3643 -4.956 2.285 -0.295219 0.192812 0 -0.288889 9.16777 -0.112129 5.87457 -0.933146 -0.299697 0.198547
-40.2346 -1.98538 4.73763 -0.207328 -0.138082 0 -0.288889 9.19856 0.366468 5.87457 0.295184 0.348033 0.889797
-40.957 -6.576 1.7615 -0.102189 0.26258 0 -0.288889 9.31843 -0.106948 0.245208 -0.459778 -0.841891 -0.28253
-40.359 -11.8859 11.9531 -0.118509 0.0826804 -0.0849497 -0.81372 9.32569 0.198426 1.53625 -0.49503 0.867286 -0.052547
-41.0438 -13.0861 8.04025 -0.200323 0.103418 -0.683697 -0.183925 9.35583 -0.433698 1.53625 -0.664936 0.739392 -0.10564
-35.9878 -4.63312 -0.051875 -0.273015 -0.059119 0 -0.241207 9.3654 -0.999864 5.17185 -0.0681136 0.630653 0.77307
-42.4011 -3.13925 3.435 -0.35095 0.158292 0 -0.288889 9.4279 0.415678 5.87457 -0.95444 0.108251 0.278077
-41.5761 -1.9345 4.50787 -0.204578 -0.100785 0 -0.288889 9.42944 0.544704 5.87457 -0.463942 0.467623 0.752388
-31.284 -1.93062 8.35487 -0.044033 -0.151297 0.15067 -0.777778 9.44109 0.999873 3.86544 -0.967646 0.251675 0.0178941
-32.6063 -2.82525 1.547 -0.460887 -0.122756 -0.466372 -0.777778 9.54192 -0.999882 4.53174 -0.950184 0.265308 0.16359
-38.1974 -2.14069 1.66594 -0.293067 -0.218885 0 -0.486149 9.54342 -0.508741 5.45598 0.787496 -0.564312 0.247794
-29.849 -10.163 8.373 -0.27704 0.0727447 -0.550695 0.422222 9.54577 -0.634494 2.9781 -0.156744 0.534384 0.830581
-39.5575 -12.9215 5.1585 -0.249104 0.144448 -0.8998 -0.0873027 9.58132 -0.794622 0.692528 -0.580497 0.616135 -0.532353
-32.7163 -2.2705 2.6995 -0.821407 -0.121817 -0.0655108 -0.777778 9.5851 0.455057 4.53174 -0.91507 0.393282 0.0893089
-34.876 -11.308 12.9373 -0.027475 -0.101414 0.303753 -0.501658 9.62838 -0.999844 2.13172 -0.476612 0.842695 -0.250411
-34.7426 -4.191 0.26325 -0.267609 -0.0545915 0 -0.288889 9.63781 -0.354833 4.53174 -0.340167 0.668509 0.661349
-30.5935 -11.107 10.5345 -0.156987 0.0181981 0 0.844444 9.64921 -0.583936 2.71075 0.0221033 0.969451 0.244288
-33.7066 -10.8389 12.5293 -0.061342 -0.0947829 0 -0.355556 9.65182 -0.444811 2.13172 0.107503 0.948373 -0.298383
-41.333 -12.4433 11.5216 -0.62812 0.0777357 -0.138688 -1 9.68325 0.529305 1.53625 -0.585854 0.808632 0.0537554
-28.6159 -4.103 8.78575 -0.0962353 -0.157165 0 -0.777778 9.68445 -0.468396 3.24815 -0.127365 -0.419006 0.899006
-39.505 -10.9716 12.796 0.139402 -0.0926199 0.0785619 -0.777778 9.85089 0.737034 1.53625 -0.271887 0.934713 -0.228886
-37.589 -10.795 3.053 -0.160888 0.190891 0 0.622222 9.88216 -0.820723 0.245208 -0.964927 0.179044 -0.191989
-33.4766 -3.51219 0.695625 -0.283369 -0.101842 0 -0.288889 9.91524 -0.508533 4.53174 -0.65061 0.291893 0.701075
-28.8445 -8.89137 8.22925 -0.51711 0.102098 -0.595903 0.422222 9.93415 -0.645336 3.24815 -0.263077 0.235769 0.935523
-41.9191 -5.97325 1.76713 -0.196 0.231549 0 -0.288889 10.0222 0.163624 0.245208 -0.650974 -0.758477 0.0307479
-32.2246 -10.9397 12.8374 -0.0661413 -0.0787668 0 -0.355556 10.0234 -0.107616 2.71075 0.251704 0.945446 -0.206825
-38.1285 -2.969 0.269125 -0.204382 -0.170104 0 -0.288889 10.0486 -0.999833 5.45598 0.843178 -0.22809 0.486853
-28.1798 -5.60975 8.74925 -0.462583 0.126995 -0.18751 -0.777778 10.0488 0.203509 3.24815 -0.0910693 -0.0840283 0.992293
-42.7841 -3.36331 1.97894 -0.300786 -0.149858 0 -0.661549 10.1123 -0.38162 5.87457 -0.787829 -0.144723 0.598649
-37.91 -11.1103 13.2782 -0.26825 -0.100858 -0.367726 -0.777778 10.1243 0.173948 1.53625 0.07825 0.946358 -0.313502
-32.0185 -1.359 3.388 -0.66804 -0.0470963 -0.457025 -0.777778 10.1722 0.999935 4.28719 -0.474648 0.844896 0.246697
-42.846 -4.95762 1.38975 -0.253507 -0.171604 0 -0.539807 10.1844 -0.210694 5.87457 -0.49883 -0.472741 0.726419
-34.1357 -10.2885 13.3055 -0.127439 -0.138076 0.0211454 -0.713269 10.2063 0.23512 2.13172 -0.170059 0.769274 -0.615871
-40.5229 -1.05625 4.39113 -0.126121 -0.125747 0 -0.288889 10.2313 0.257831 5.87457 0.0563963 0.254513 0.965423
-30.2841 -1.28112 7.27375 0.00153567 -0.0877374 0.0142818 -0.777778 10.2357 0.466831 3.86544 -0.515091 0.80885 -0.283626
-39.0405 -12.7078 4.02331 -0.144994 0.110908 0 -0.0304756 10.248 -0.552667 0.692528 -0.784594 0.619995 0.00440853
-38.5714 -0.836875 3.46025 -0.218405 -0.172631 0.173197 -0.641544 10.2712 0.0855594 5.45598 0.391656 -0.137736 0.909744
-29.9763 -1.939 5.25131 -0.205173 -0.0812814 0 -0.777778 10.292 -0.0916818 3.86544 -0.52254 0.817588 -0.24187
-30.897 -2.10525 9.48612 0.07727 -0.135462 0 -0.777778 10.3052 0.854998 3.46662 -0.822547 0.156029 0.546874
-38.5112 -8.4565 1.32337 -0.195325 0.25085 0 0.622222 10.3071 -0.582015 0.245208 -0.580219 -0.803921 0.130607
-37.3666 -3.35194 -0.498563 -0.268494 -0.124369 0 -0.288889 10.3431 -0.999877 5.45598 0.371797 0.0310102 0.927796
-39.3829 -7.738 0.670625 -0.174077 0.223739 0 0.622222 10.3671 0.48588 0.245208 -0.759828 -0.649223 -0.034218
-37.5008 -9.25106 1.43956 -0.292148 0.23336 -0.0249432 0.487644 10.3709 -0.787238 0.245208 -0.825626 -0.564013 -0.0152332
-41.0713 -13.4177 6.42462 -0.290474 0.126323 -0.534868 -0.0888889 10.4092 -0.194701 0.692528 -0.736586 0.592502 -0.326164
-41.7721 -1.25794 3.68622 -0.246846 -0.138121 -0.0967526 -0.40594 10.4593 -0.126123 5.87457 -0.822648 0.114956 0.556808
-42.0221 -13.5451 8.39062 0.0168605 0.0646245 0 -1 10.4918 -0.553637 1.53625 -0.163188 0.971404 -0.172465
-37.1915 -10.3042 1.967 -0.230269 0.185701 0 0.176704 10.5202 -0.820196 0.245208 -0.957623 0.0990272 -0.270467
-30.534 -2.024 4.2795 -0.706847 0.0236829 -0.563177 -0.777778 10.5304 -0.0403753 4.28719 -0.0501962 0.987192 0.151435
-41.3828 -6.0725 0.728 -0.199989 0.229869 0 -0.288889 10.5444 -0.516383 0.245208 -0.266816 -0.963376 -0.0267447
-40.8008 -12.4318 12.956 -0.128194 0.0912833 0 -0.777778 10.55 -0.481091 1.53625 -0.709488 0.704557 0.0150472
-28.8573 -10.4392 9.39525 -0.167279 -0.0222144 0 0.844444 10.5933 -0.408119 2.9781 -0.251153 0.853269 0.457006
-30.5637 -1.03225 8.513 -0.154523 -0.0572855 0 -0.777778 10.6034 0.999838 3.86544 -0.50348 0.858874 0.0940354
-32.1995 -1.76988 1.95131 -0.450837 0.0663472 -0.485475 -0.777778 10.6231 0.346242 4.53174 -0.237383 0.93881 -0.249569
-42.289 -13.2255 9.89275 -0.111366 0.0689509 0 -1 10.6259 -0.0453319 1.53625 -0.359267 0.921563 -0.147135
-37.4189 -1.511 2.14619 -0.198334 -0.235797 0 -0.777778 10.6539 -0.105665 5.45598 0.361916 -0.871285 0.331481
-27.4319 -6.98681 8.43294 -0.307116 0.112804 -0.707551 -0.559198 10.6833 -0.553436 3.24815 -0.0944343 -0.0179938 0.995368
-29.6869 -2.135 10.464 0.237966 -0.115055 0.932632 -0.777778 10.7121 0.999898 3.46662 -0.135996 0.0734229 0.987985
-32.8725 -1.9635 0.789 -0.277471 -0.0557274 -0.134529 -0.354247 10.7201 0.199251 4.53174 -0.481363 0.641157 0.597668
-38.0469 -11.3901 2.27731 -0.188333 0.117519 0 -0.2 10.7364 -0.108017 0.245208 -0.775768 0.617291 -0.130902
-27.7274 -8.73825 8.725 0.0381423 -0.0825844 0.365919 -0.0888889 10.7453 -0.200083 3.24815 -0.363218 0.336862 0.868676
-42.4468 -2.0485 2.633 -0.41063 -0.135621 0 -0.288889 10.7825 -0.391789 5.87457 -0.822443 0.0439963 0.567143
-34.8875 -10.715 14.0465 0.0628927 -0.162305 0.740835 -0.777778 10.8862 -0.825239 2.13172 -0.500286 0.481241 -0.719807
-35.2925 -3.2405 -0.350875 -0.381477 -0.111062 0 -0.288889 10.896 -0.680327 5.17185 -0.367442 0.0947415 0.925208
-36.2704 -3.198 -0.585813 -0.436477 -0.129015 0 -0.288889 10.9225 -0.999819 5.17185 -0.0350476 -0.118894 0.992288
-42.1387 -13.7835 7.116 -0.0037128 0.0899618 0 -1 10.9494 -0.0477439 1.53625 -0.262337 0.878554 -0.399152
-31.08 -1.29131 2.85188 -0.839707 0.0424871 -0.502738 -0.777778 10.9646 0.87458 4.28719 0.226045 0.97141 0.072571
-39.7342 -7.0765 -0.14 -0.219667 0.197846 0 -0.114654 10.9711 -0.61831 0.245208 -0.746758 -0.641011 0.177364
-27.338 -4.10925 8.95088 -0.35194 0.134172 -0.0627266 -0.777778 10.973 0.0822992 3.24815 0.322271 -0.309991 0.894453
-28.4487 -3.04075 9.69425 -0.255832 -0.157 -0.0101865 -0.777778 10.9818 0.321439 3.24815 0.012919 -0.531035 0.847252
-40.555 -6.288 0.1665 -0.209884 0.216492 0 -0.288889 10.9883 -0.999823 0.245208 -0.418926 -0.893581 0.161291
-29.8476 -11.385 11.6593 -0.135991 0.0105343 0 0.414047 11.0272 -0.155001 2.71075 0.0154995 0.947395 0.319692
-28.3725 -9.695 8.804 -0.125212 -0.0615101 -0.0069312 0.836938 11.0291 -0.730093 3.24815 -0.424912 0.578205 0.696512
-40.3124 -13.7774 4.16981 -0.085442 0.0864104 -0.067402 -0.268271 11.0913 -0.339711 0.692528 -0.683577 0.727998 -0.0523614
-30.5075 -11.4341 12.7015 -0.0902637 0.0538703 0 -0.355556 11.1174 0.195519 2.71075 0.411917 0.89287 0.181954
-29.0865 -10.9665 10.752 -0.151858 -0.0197129 0 0.844444 11.1783 -0.600282 2.71075 -0.26057 0.919557 0.294141
-36.0872 -10.7869 14.1771 -0.132737 -0.122657 -0.0216059 -0.777778 11.1941 -0.316844 2.13172 -0.15955 0.821633 -0.547233
-37.416 -1.8825 0.155 -0.18782 -0.182668 0.00899123 -0.546584 11.2639 -0.999882 5.45598 0.413356 -0.677452 0.608436
-42.2025 -13.7065 12.063 -0.271135 0.068583 -0.876709 -0.985358 11.3095 -0.57697 1.53625 -0.660404 0.732424 0.165597
-42.569 -13.341 10.9475 -0.245091 0.0521483 -0.229797 -1 11.3152 0.206911 1.53625 -0.520322 0.795016 0.311792
-29.6915 -0.818 8.0575 -0.261749 -0.0401763 0 -0.777778 11.3219 0.585759 3.86544 -0.18737 0.982244 -0.00943878
-43.7235 -4.16962 1.3335 -0.250244 -0.130854 0 -0.777778 11.3651 0.236156 5.87457 -0.368419 -0.150679 0.917368
3 106 172 137
3 197 137 172
3 196 168 137
3 191 162 113
3 97 113 78
3 97 78 55
3 113 109 71
3 71 109 84
3 164 123 183
3 162 183 123
3 137 74 106
3 84 106 74
3 122 137 168
3 139 122 168
3 54 55 37
3 20 26 8
3 57 71 84
3 57 74 40
3 57 40 28
3 74 65 40
3 28 40 24
3 24 40 25
3 65 74 93
3 139 93 122
3 85 139 148
3 112 133 96
3 161 101 117
3 101 105 63
3 101 63 117
3 72 63 34
3 72 34 49
3 49 90 72
3 49 34 36
3 20 36 34
3 36 66 49
3 90 49 66
3 5 16 14
3 16 37 28
3 28 37 45
3 13 24 25
3 25 38 23
3 96 108 70
3 96 70 60
3 60 70 48
3 108 136 144
3 96 151 136
3 192 108 144
3 192 189 108
3 117 63 72
3 72 121 111
3 117 111 160
3 36 51 77
3 51 88 77
3 51 80 88
3 51 36 56
3 1 5 0
3 14 4 5
3 4 10 2
3 2 10 9
3 4 13 10
3 21 27 11
3 9 10 31
3 48 70 31
3 70 59 31
3 94 59 70
3 135 70 108
3 169 135 193
3 95 130 142
3 119 147 150
3 147 77 125
3 147 125 179
3 125 88 163
3 88 126 163
3 120 152 126
3 163 126 152
3 62 39 98
3 98 39 75
3 47 39 32
3 62 56 39
3 33 32 22
3 39 56 36
3 19 8 6
3 0 3 6
3 3 0 2
3 3 2 7
3 0 4 2
3 11 18 7
3 17 18 35
3 17 35 30
3 35 29 64
3 64 29 58
3 58 29 52
3 52 29 27
3 27 50 52
3 27 21 41
3 41 21 42
3 42 68 41
3 103 73 115
3 73 103 69
3 103 174 146
3 138 146 186
3 155 152 120
3 155 104 173
3 32 33 47
3 44 47 33
3 33 17 44
3 44 82 83
3 82 44 53
3 91 110 132
3 118 92 89
3 118 153 156
3 198 153 170
3 170 127 157
3 127 114 157
3 114 89 81
3 187 114 138
3 114 187 175
3 181 124 134
3 83 82 134
3 181 134 141
3 176 132 171
3 110 166 184
3 17 22 12
3 121 188 111
3 197 196 137
3 154 191 131
3 131 191 113
3 154 131 97
3 97 131 113
3 55 102 97
3 71 55 78
3 71 78 113
3 106 84 123
3 106 123 172
3 123 84 109
3 123 164 172
3 93 74 122
3 122 74 137
3 177 154 102
3 97 102 154
3 45 37 55
3 45 55 71
3 28 45 57
3 71 57 45
3 85 43 65
3 25 40 43
3 43 85 76
3 40 65 43
3 139 85 93
3 93 85 65
3 46 25 43
3 76 46 43
3 79 76 112
3 79 112 96
3 112 76 85
3 194 180 133
3 194 133 112
3 161 165 105
3 140 105 177
3 101 161 105
3 102 105 140
3 102 140 177
3 165 177 105
3 19 36 20
3 19 20 8
3 31 10 23
3 31 23 48
3 23 38 48
3 48 38 60
3 76 79 46
3 25 46 38
3 38 46 60
3 60 46 79
3 60 79 96
3 144 136 151
3 133 180 151
3 96 133 151
3 193 135 189
3 111 188 185
3 111 185 160
3 72 111 117
3 121 143 167
3 150 143 119
3 119 143 90
3 77 119 90
3 10 13 23
3 42 67 68
3 67 31 59
3 31 67 42
3 95 68 67
3 95 67 99
3 99 67 59
3 169 130 99
3 169 99 94
3 94 99 59
3 99 130 95
3 135 169 94
3 94 70 135
3 142 130 169
3 142 169 190
3 178 142 190
3 142 178 115
3 178 174 115
3 199 150 147
3 163 179 125
3 98 104 62
3 75 39 47
3 12 32 39
3 12 39 19
3 12 19 6
3 19 39 36
3 22 32 12
3 3 17 12
3 18 17 7
3 7 17 3
3 6 3 12
3 44 17 30
3 30 61 53
3 53 44 30
3 64 61 30
3 64 30 35
3 110 64 58
3 52 92 58
3 52 89 92
3 81 89 52
3 81 52 50
3 69 50 27
3 69 27 41
3 115 95 142
3 95 115 73
3 95 73 68
3 81 50 100
3 81 100 114
3 100 69 103
3 69 100 50
3 138 114 100
3 138 100 146
3 146 100 103
3 187 138 186
3 129 173 104
3 129 104 98
3 83 47 44
3 61 91 82
3 61 82 53
3 166 110 92
3 92 156 166
3 118 156 92
3 182 195 159
3 159 195 145
3 98 145 129
3 129 145 195
3 129 195 173
3 87 124 116
3 116 124 159
3 124 87 83
3 75 87 116
3 75 116 98
3 98 116 145
3 145 116 159
3 159 124 182
3 47 83 87
3 47 87 75
3 181 182 124
3 134 124 83
3 141 134 107
3 141 107 91
3 91 107 82
3 82 107 134
3 176 141 128
3 128 91 132
3 91 128 141
3 132 176 128
3 109 113 123
3 123 113 162
3 102 54 63
3 54 102 55
3 26 34 37
3 37 34 54
3 54 34 63
3 34 26 20
3 74 57 84
3 112 85 148
3 148 194 112
3 102 63 105
3 26 37 16
3 26 16 15
3 26 15 8
3 5 15 16
3 28 24 13
3 28 13 14
3 28 14 16
3 108 96 136
3 117 158 161
3 90 143 121
3 90 121 72
3 66 36 77
3 66 77 90
3 5 1 8
3 5 8 15
3 13 4 14
3 9 21 11
3 189 135 108
3 188 121 167
3 77 147 119
3 88 125 77
3 80 51 86
3 80 86 120
3 120 126 80
3 80 126 88
3 62 104 86
3 62 86 56
3 56 86 51
3 86 104 120
3 6 1 0
3 1 6 8
3 5 4 0
3 9 11 2
3 2 11 7
3 11 29 18
3 29 35 18
3 27 29 11
3 9 31 21
3 42 21 31
3 73 41 68
3 174 103 115
3 104 155 120
3 22 17 33
3 64 110 91
3 64 91 61
3 89 114 127
3 118 89 127
3 118 127 153
3 153 127 170
3 73 69 41
3 149 132 110
3 149 110 184
3 184 171 149
3 149 171 132
3 114 175 157
3 58 92 110
3 25 23 13
