ply
format ascii 1.0
comment Generated by PyMesh
element vertex 171
property float x
property float y
property float z
property float nx
property float ny
property float nz
element face 289
property list uchar int vertex_indices
end_header
-38.1285 -2.969 0.269125 0.843178 -0.22809 0.486853
-37.3666 -3.35194 -0.498563 0.371797 0.0310102 0.927796
-38.0385 -4.1545 0.1545 0.715193 0.39173 0.578832
-37.416 -1.8825 0.155 0.413356 -0.677452 0.608436
-38.1974 -2.14069 1.66594 0.787496 -0.564312 0.247794
-38.6023 -3.22781 1.86181 0.954505 0.0227215 0.297327
-37.6309 -4.894 0.760625 0.35599 0.853998 0.379419
-36.2704 -3.198 -0.585813 -0.0350476 -0.118894 0.992288
-36.4637 -2.113 -0.2115 -0.0157937 -0.645112 0.763924
-37.4189 -1.511 2.14619 0.361916 -0.871285 0.331481
-36.1942 -1.52581 0.898938 0.200794 -0.884774 0.420543
-38.3061 -4.64156 1.7885 0.772696 0.573598 0.271893
-35.9878 -4.63312 -0.051875 -0.0681136 0.630653 0.77307
-35.2925 -3.2405 -0.350875 -0.367442 0.0947415 0.925208
-39.0392 -4.08825 3.2905 0.866152 0.13306 0.481742
-38.8596 -2.3095 3.33262 0.836238 -0.206014 0.508196
-36.3025 -5.19994 1.31463 -0.135275 0.967282 0.214632
-35.0124 -2.15687 0.0776875 -0.132374 -0.269482 0.953864
-37.5618 -5.33744 2.60069 0.116432 0.978917 0.167823
-34.925 -0.822125 0.624313 0.691245 -0.250309 0.677883
-35.9363 -1.14137 2.40313 0.578249 -0.734484 0.355191
-38.6125 -5.23581 3.59262 0.552816 0.670072 0.495377
-34.7426 -4.191 0.26325 -0.340167 0.668509 0.661349
-36.6226 -0.83575 3.69537 0.20358 -0.500822 0.841268
-38.5714 -0.836875 3.46025 0.391656 -0.137736 0.909744
-39.5793 -4.5735 4.28075 0.666708 0.0707343 0.741955
-37.6167 -5.52175 3.63175 -0.0906204 0.930519 0.354856
-33.4766 -3.51219 0.695625 -0.65061 0.291893 0.701075
-40.2346 -1.98538 4.73763 0.295184 0.348033 0.889797
-35.245 -0.365 1.9245 0.927783 -0.160929 0.33663
-35.5205 -4.9905 2.8695 -0.102899 0.986652 0.126215
-33.8745 -4.44375 0.85425 -0.610094 0.669089 0.424388
-35.5675 0.14675 2.96625 0.750801 -0.123764 0.64883
-36.4033 -5.22025 3.798 -0.192443 0.937573 0.289695
-40.1156 -3.0305 5.21513 0.613754 0.0165811 0.789323
-40.337 -5.247 4.9125 -0.235348 0.233348 0.943483
-33.3881 -0.907 -0.127625 0.358553 0.40405 0.841536
-38.7046 0.434438 3.35763 -0.017559 -0.0932078 0.995492
-37.097 0.353 3.8695 0.176704 -0.136258 0.974787
-34.0807 -4.81025 1.82325 -0.396356 0.895647 0.201787
-34.3894 0.790625 0.009625 0.660308 -0.00013185 0.750995
-32.8725 -1.9635 0.789 -0.481363 0.641157 0.597668
-40.8904 -4.4085 5.07013 -0.0705653 -0.348085 0.934803
-35.0541 1.07375 1.07763 0.90533 -0.0469999 0.4221
-37.0402 -5.822 4.5435 -0.347204 0.810193 0.472268
-40.5229 -1.05625 4.39113 0.0563963 0.254513 0.965423
-33.0566 0.118375 -0.5665 0.338264 0.0327202 0.940482
-32.6063 -2.82525 1.547 -0.950184 0.265308 0.16359
-41.5761 -1.9345 4.50787 -0.463942 0.467623 0.752388
-34.1722 -4.98475 3.09775 -0.287157 0.953252 0.0940841
-39.3888 -6.33588 5.80237 -0.0383378 0.914225 0.403388
-36.4315 1.14775 3.6145 0.566569 -0.0350329 0.823269
-37.0859 -6.42944 5.42169 -0.133285 0.924278 0.357694
-41.2697 -3.31787 5.51263 -0.228896 0.144192 0.962713
-39.6213 1.29762 3.55437 0.233579 -0.0350575 0.971706
-33.0858 -3.63425 2.55325 -0.882026 0.453282 0.128706
-31.7221 -2.39494 0.657188 0.407498 0.899155 -0.159577
-34.769 -5.28237 4.57438 -0.440406 0.895197 -0.0683023
-35.5944 1.77725 2.64581 0.858202 0.155366 0.489234
-35.019 2.274 1.26 0.859955 0.0943554 0.501572
-32.1995 -1.76988 1.95131 -0.237383 0.93881 -0.249569
-41.806 -6.0655 4.664 -0.668142 -0.13767 0.731186
-35.9019 -5.79362 5.36525 -0.443094 0.872622 0.205424
-37.558 1.975 4.17487 0.0352649 0.0157289 0.999254
-34.2067 2.36244 -0.0304375 0.602862 -0.012522 0.797747
-40.6965 0.08 4.0655 0.230056 0.0183663 0.973004
-31.8857 -1.60984 -0.784625 0.51838 0.297852 0.801603
-42.0901 -3.38044 4.73325 -0.827295 0.00828891 0.561706
-33.3517 -4.48987 3.43613 -0.704637 0.708257 0.0431058
-41.7721 -1.25794 3.68622 -0.822648 0.114956 0.556808
-31.8854 0.152375 -0.856125 0.0564411 -0.15471 0.986346
-40.7697 -7.24625 4.67725 -0.714739 -0.526074 0.460863
-42.1951 -4.93669 3.83363 -0.882318 -0.162969 0.441538
-40.3257 -7.13325 6.0125 -0.902043 0.354241 0.246639
-37.878 -6.53662 6.06738 0.0806288 0.996742 0.00230739
-32.7163 -2.2705 2.6995 -0.91507 0.393282 0.0893089
-32.9215 1.461 -0.2985 0.183105 -0.0688322 0.980681
-36.4515 2.298 3.7275 0.582346 0.298106 0.756311
-39.8204 -6.49412 6.95056 -0.617739 0.785837 0.0292997
-31.183 -1.832 1.72525 0.249647 0.832173 -0.49514
-42.1297 0.21025 4.2505 -0.463454 -0.274326 0.842589
-36.7781 -6.53188 6.914 -0.216885 0.972193 0.0883307
-34.4007 -4.5955 5.6 -0.54596 0.829982 -0.114273
-40.336 -8.1225 5.43937 -0.944471 -0.323984 -0.0548503
-31.0072 -2.9275 -0.510875 0.507971 0.830996 0.22674
-37.587 3.07075 3.68775 0.226641 0.577705 0.78415
-30.376 -3.0025 0.469 0.243404 0.888192 -0.389705
-35.6632 3.54737 1.66925 0.694694 0.329017 0.639647
-33.4614 3.28387 -0.543375 0.431141 0.229098 0.872715
-41.8543 -6.81925 3.45994 -0.776072 -0.630333 -0.0198401
-32.0185 -1.359 3.388 -0.474648 0.844896 0.246697
-36.215 3.1935 2.472 0.601827 0.538145 0.590088
-31.08 -1.29131 2.85188 0.226045 0.97141 0.072571
-39.0421 3.00738 3.62512 0.235222 0.228087 0.9448
-34.8864 3.69462 0.610563 0.697698 0.177179 0.694136
-35.753 -6.076 6.7845 -0.619832 0.760206 0.194666
-31.87 1.445 -0.4295 0.0845076 -0.0101996 0.996371
-42.4011 -3.13925 3.435 -0.95444 0.108251 0.278077
-33.0223 -3.958 4.60862 -0.676776 0.735773 0.0247489
-41.4772 1.22775 4.66525 -0.00352843 -0.115298 0.993325
-30.6003 -0.275 -0.702 0.29752 -0.343281 0.890865
-40.3124 -7.47781 3.41987 -0.570349 -0.785454 -0.240342
-35.2217 -5.19338 6.81475 -0.691483 0.696105 0.193104
-41.0505 2.48775 4.56675 0.203024 -0.106568 0.973357
-42.4468 -2.0485 2.633 -0.822443 0.0439963 0.567143
-30.606 -2.2485 -1.8515 0.546423 0.113876 0.829731
-32.271 -2.29513 4.08075 -0.588367 0.642445 0.491007
-40.364 -7.339 7.8165 -0.928574 0.228913 0.292146
-40.3073 -8.2845 7.0405 -0.983741 -0.144484 0.106671
-42.3643 -4.956 2.285 -0.933146 -0.299697 0.198547
-38.5578 -5.97625 7.695 -0.022914 0.993538 0.111163
-42.7577 -0.231688 2.256 -0.776429 -0.137096 0.615112
-29.8686 -2.227 2.542 0.363008 0.900369 -0.239917
-33.2643 4.08875 -1.24125 0.454571 0.739756 0.49611
-29.097 -2.62 1.232 -0.0665671 0.910376 -0.408392
-37.5353 -6.48425 8.23575 0.0970878 0.959624 0.263998
-39.8445 3.57888 4.13925 0.552164 0.149121 0.820291
-39.2218 -6.73138 8.81181 -0.384019 0.697497 0.605002
-39.72 -9.3495 5.1955 -0.880232 -0.386669 -0.275096
-36.2115 -6.49013 8.4785 -0.198481 0.832854 0.516681
-43.0871 1.57525 3.7945 -0.765179 -0.186942 0.61608
-43.2521 -1.776 2.00638 -0.520021 -0.0834216 0.85007
-37.5692 4.24862 2.59262 0.374094 0.371871 0.849568
-33.7808 -4.35275 7.259 -0.30399 0.887822 0.345489
-29.7279 0.5895 -0.70275 0.440474 -0.169191 0.881678
-32.5255 -4.007 5.828 -0.477079 0.829495 0.290403
-42.217 2.568 4.372 -0.421686 -0.00642154 0.906719
-34.08 4.646 -0.2085 0.694678 0.54295 0.471834
-42.7841 -3.36331 1.97894 -0.787829 -0.144723 0.598649
-35.4398 5.106 0.462875 0.568192 0.661566 0.489376
-39.2227 -8.85181 4.25631 -0.697007 -0.510394 -0.503666
-31.8743 3.232 -0.751375 0.287089 0.611263 0.737521
-42.846 -4.95762 1.38975 -0.49883 -0.472741 0.726419
-30.0037 -1.3065 -1.902 0.440059 -0.203184 0.87468
-28.9322 -3.57475 -0.422312 0.177193 0.948521 -0.26251
-30.534 -2.024 4.2795 -0.0501962 0.987192 0.151435
-39.757 -9.28 6.953 -0.878225 -0.449744 0.162637
-34.8674 -5.60225 8.20088 -0.382486 0.708639 0.592904
-42.0288 3.59275 4.5445 -0.480291 0.13937 0.865966
-41.9191 -5.97325 1.76713 -0.650974 -0.758477 0.0307479
-36.7305 5.051 2.075 0.619813 0.41907 0.663485
-29.4058 -2.83725 -1.95275 0.418062 0.552882 0.720795
-40.957 -6.576 1.7615 -0.459778 -0.841891 -0.28253
-39.8947 -7.20087 1.83025 -0.630199 -0.758222 -0.167178
-41.0871 4.13737 4.7885 -0.0134583 0.342001 0.939603
-39.1658 4.87844 2.96075 0.379436 0.357608 0.853314
-39.669 -8.315 8.716 -0.795708 -0.188115 0.575727
-38.9986 -7.99137 2.27875 -0.620734 -0.776492 -0.1084
-29.9776 2.01312 -0.830625 0.295472 0.380909 0.876131
-43.4664 0.37225 1.41225 -0.876384 -0.0627596 0.477507
-33.7136 4.56025 -2.15162 0.493744 0.799678 0.341661
-38.4269 -7.34469 9.6155 -0.347538 0.211085 0.913597
-40.2899 4.84462 3.888 0.428523 0.453485 0.781486
-43.0135 2.919 3.737 -0.797274 0.168796 0.579536
-29.0264 -0.8405 -2.34175 0.559273 -0.22417 0.798099
-28.3189 -2.3435 3.09025 -0.130167 0.986324 -0.101103
-27.5492 -2.51375 0.8025 -0.263077 0.713557 -0.649328
-36.9893 -7.27563 9.55737 0.139151 0.628387 0.765354
-44.2265 -1.16675 1.407 -0.739751 0.220711 0.635654
-39.4165 -10.2591 6.43469 -0.996475 -0.0786897 -0.029075
-34.8695 -6.857 9.14087 -0.190404 0.275077 0.942379
-43.7072 2.09175 2.51425 -0.958642 0.0444668 0.281118
-43.7235 -4.16962 1.3335 -0.368419 -0.150679 0.917368
-35.5774 -7.80863 9.09609 0.168083 0.200091 0.965252
-29.9763 -1.939 5.25131 -0.52254 0.817588 -0.24187
-31.387 -3.21175 6.058 -0.675592 0.718291 0.166235
-44.481 -2.173 1.411 -0.771995 -0.0660557 0.632187
-36.8985 5.6195 1.235 0.577129 0.803528 0.145822
-36.5909 5.66354 -0.0681541 0.192136 0.924412 0.329462
-41.3828 -6.0725 0.728 -0.266816 -0.963376 -0.0267447
-39.1034 -9.88912 7.8795 -0.983972 -0.0837317 0.157441
3 118 159 136
3 73 108 78
3 101 130 83
3 101 83 71
3 71 89 101
3 71 83 35
3 73 35 83
3 35 61 71
3 89 71 61
3 117 146 151
3 147 130 101
3 101 142 143
3 35 42 72
3 42 67 72
3 42 53 67
3 42 35 25
3 110 117 115
3 151 157 117
3 157 163 119
3 119 163 160
3 109 128 132
3 128 72 97
3 128 97 104
3 128 104 121
3 97 67 69
3 67 48 69
3 28 45 48
3 69 48 45
3 14 21 5
3 5 21 11
3 18 21 26
3 14 25 21
3 33 26 44
3 21 25 35
3 50 78 74
3 115 81 74
3 81 115 119
3 81 119 95
3 115 157 119
3 137 102 95
3 62 102 82
3 62 82 57
3 82 123 98
3 98 123 125
3 158 121 111
3 120 99 126
3 126 99 103
3 126 103 138
3 63 54 37
3 65 99 80
3 80 45 65
3 80 69 45
3 24 45 28
3 37 24 23
3 24 15 9
3 24 9 23
3 26 33 18
3 30 18 33
3 33 62 30
3 30 39 16
3 39 30 49
3 55 106 75
3 161 149 120
3 120 149 111
3 138 153 126
3 144 116 152
3 152 116 145
3 85 93 63
3 116 103 93
3 122 85 91
3 91 87 122
3 58 77 51
3 51 63 38
3 51 38 32
3 63 37 38
3 13 12 22
3 16 39 22
3 13 22 27
3 17 41 36
3 41 75 60
3 60 79 56
3 79 112 56
3 112 92 135
3 112 135 155
3 106 135 92
3 87 94 129
3 87 91 58
3 59 58 43
3 29 58 32
3 51 32 58
3 20 9 10
3 46 19 36
3 29 20 19
3 20 10 19
3 10 17 19
3 13 27 17
3 76 46 70
3 124 96 100
3 70 100 96
3 96 124 148
3 154 100 133
3 154 133 141
3 134 86 114
3 113 88 131
3 127 88 113
3 88 94 64
3 64 94 59
3 59 43 64
3 64 43 40
3 76 96 88
3 131 88 96
3 62 44 52
3 170 136 159
3 50 35 73
3 50 73 78
3 101 143 147
3 142 139 169
3 132 139 109
3 109 139 89
3 72 109 89
3 162 132 128
3 69 104 97
3 5 15 14
3 11 21 18
3 52 26 21
3 52 21 50
3 52 50 74
3 50 21 35
3 44 26 52
3 81 62 52
3 102 62 95
3 95 62 81
3 74 81 52
3 30 62 57
3 57 68 49
3 49 30 57
3 98 68 57
3 98 57 82
3 106 98 125
3 111 149 158
3 80 111 69
3 104 69 111
3 104 111 121
3 93 103 54
3 93 54 63
3 54 103 99
3 37 54 45
3 45 54 65
3 65 54 99
3 24 37 45
3 4 9 15
3 4 15 5
3 16 18 30
3 68 55 39
3 68 39 49
3 135 106 165
3 165 164 135
3 93 145 116
3 122 145 93
3 122 93 85
3 10 9 3
3 10 3 8
3 8 3 7
3 7 3 1
3 1 3 0
3 5 0 4
3 4 0 3
3 4 3 9
3 6 12 2
3 2 12 1
3 12 6 16
3 11 6 2
3 11 2 5
3 5 2 0
3 0 2 1
3 1 12 7
3 18 16 6
3 18 6 11
3 13 7 12
3 22 12 16
3 27 22 31
3 27 31 55
3 55 31 39
3 39 31 22
3 41 27 47
3 47 55 75
3 55 47 27
3 17 27 41
3 75 41 47
3 36 56 66
3 56 41 60
3 41 56 36
3 84 66 56
3 84 56 86
3 112 114 56
3 56 114 86
3 155 114 112
3 140 129 167
3 59 87 58
3 43 58 29
3 40 43 19
3 40 19 46
3 19 43 29
3 8 17 10
3 17 8 7
3 17 7 13
3 64 40 46
3 64 46 76
3 36 66 46
3 46 66 70
3 70 66 100
3 141 105 84
3 105 133 100
3 84 105 66
3 134 141 84
3 86 134 84
3 66 105 100
3 141 133 105
3 113 150 127
3 87 59 94
3 76 88 64
3 96 148 131
3 108 83 136
3 136 83 118
3 118 83 130
3 83 108 73
3 108 136 146
3 108 146 107
3 108 107 78
3 117 107 146
3 89 139 142
3 89 142 101
3 61 35 72
3 61 72 89
3 117 110 78
3 117 78 107
3 72 128 109
3 67 97 72
3 53 42 34
3 53 34 28
3 28 48 53
3 53 48 67
3 14 15 34
3 14 34 25
3 25 34 42
3 34 15 28
3 74 110 115
3 110 74 78
3 117 157 115
3 160 137 119
3 119 137 95
3 137 123 102
3 123 82 102
3 166 121 158
3 99 120 80
3 120 111 80
3 15 24 28
3 44 62 33
3 98 106 55
3 98 55 68
3 126 153 120
3 161 120 153
3 144 138 103
3 144 103 116
3 77 85 63
3 77 63 51
3 58 91 77
3 91 85 77
3 20 23 9
3 23 20 32
3 23 32 38
3 23 38 37
3 90 75 106
3 90 106 92
3 92 112 79
3 92 79 60
3 92 60 90
3 90 60 75
3 122 87 140
3 140 87 129
3 20 29 32
3 36 19 17
3 124 100 154
3 134 114 156
3 94 88 127
3 94 127 129
3 76 70 96
3 125 165 106
3 167 129 168
