ply
format ascii 1.0
comment Generated by PyMesh
element vertex 200
property float x
property float y
property float z
property float charge
property float ddc
property float hbond
property float hphob
property float rho
property float si
property float theta
property float nx
property float ny
property float nz
element face 339
property list uchar int vertex_indices
end_header
-36.7781 -6.53188 6.914 -0.274894 0 0 0.564384 1e-08 -0.548748 2.22045e-16 -0.216885 0.972193 0.0883307
-35.753 -6.076 6.7845 -0.291349 -0.337312 0 0.422222 1.12935 -0.522238 2.07259 -0.619832 0.760206 0.194666
-37.878 -6.53662 6.06738 -0.320401 -0.316337 0 0.622222 1.38801 -0.406608 4.69478 0.0806288 0.996742 0.00230739
-37.5353 -6.48425 8.23575 -0.233165 -0.249621 0 0.622222 1.52402 0.0901899 2.22045e-16 0.0970878 0.959624 0.263998
-37.0859 -6.42944 5.42169 -0.218864 -0.123401 0 0.622222 1.52716 -0.812193 3.95741 -0.133285 0.924278 0.357694
-36.2115 -6.49013 8.4785 -0.151679 0.182158 0 0.422222 1.66446 0.188495 0.785327 -0.198481 0.832854 0.516681
-35.9019 -5.79362 5.36525 -0.244153 -0.0907723 0 0.622222 1.92649 -0.18642 3.11089 -0.443094 0.872622 0.205424
-35.2217 -5.19338 6.81475 -0.528 -0.230604 0 0.422222 2.15999 0.763676 2.17036 -0.691483 0.696105 0.193104
-37.0402 -5.822 4.5435 -0.244789 -0.107646 0 0.622222 2.59594 0.436613 3.69979 -0.347204 0.810193 0.472268
-38.5578 -5.97625 7.695 -0.145536 -0.146704 0 0.622222 2.78734 0.999874 5.6455 -0.022914 0.993538 0.111163
-34.8674 -5.60225 8.20088 -0.217975 0.171885 0 0.422222 2.86568 0.444236 1.50099 -0.382486 0.708639 0.592904
-39.3888 -6.33588 5.80237 -0.163987 -0.10285 0 0.622222 2.93496 -0.0663983 4.78563 -0.0383378 0.914225 0.403388
-36.9893 -7.27563 9.55737 -0.096239 0.267252 0 0.622222 3.15837 0.752194 0.324818 0.139151 0.628387 0.765354
-34.8695 -6.857 9.14087 0.0581217 0.326309 0 0.422222 3.20534 0.660127 1.04006 -0.190404 0.275077 0.942379
-35.5774 -7.80863 9.09609 -0.055958 0.400611 0 0.424333 3.25253 -0.166127 0.728519 0.168083 0.200091 0.965252
-39.2218 -6.73138 8.81181 -0.051944 0.142905 0 0.622222 3.32324 0.864378 5.85142 -0.384019 0.697497 0.605002
-34.769 -5.28237 4.57438 -0.310572 0.105076 0 0.472631 3.39969 -0.489743 2.86208 -0.440406 0.895197 -0.0683023
-39.8204 -6.49412 6.95056 -0.113353 0.138844 0 0.622222 3.52219 0.438333 5.19595 -0.617739 0.785837 0.0292997
-37.6167 -5.52175 3.63175 -0.326966 -0.0628118 0 0.622222 3.6031 -0.309424 3.84966 -0.0906204 0.930519 0.354856
-36.4033 -5.22025 3.798 -0.307738 -0.0298898 0 0.622222 3.66903 0.63504 3.53119 -0.192443 0.937573 0.289695
-34.4007 -4.5955 5.6 -0.490827 -0.136109 0 0.422222 3.74337 0.629453 2.5265 -0.54596 0.829982 -0.114273
-33.7808 -4.35275 7.259 -0.49901 -0.0306926 0 0.422222 3.88631 0.711429 2.01395 -0.30399 0.887822 0.345489
-40.3257 -7.13325 6.0125 -0.106588 0.228001 0 0.622222 4.18305 0.364511 5.01185 -0.902043 0.354241 0.246639
-38.6125 -5.23581 3.59262 -0.300241 -0.226865 0 0.184466 4.19189 -0.290688 4.11202 0.552816 0.670072 0.495377
-33.6727 -6.60225 9.258 -0.056536 0.262457 0 0.422222 4.43454 0.812888 1.28467 0.0702203 0.288359 0.954944
-35.8405 -9.07938 9.28952 -0.0548477 0.318131 0 0.622222 4.56456 -0.447668 0.603279 0.16897 0.166588 0.971441
-35.5205 -4.9905 2.8695 -0.362307 0.0488364 0 0.622222 4.57588 0.475207 3.27734 -0.102899 0.986652 0.126215
-37.1741 -8.64888 9.92513 -0.0694003 0.337449 0 0.622222 4.59197 0.916692 0.290454 0.048268 -0.00831849 0.9988
-38.4269 -7.34469 9.6155 -0.0803503 0.301636 0 0.622222 4.5988 0.776417 6.17807 -0.347538 0.211085 0.913597
-40.337 -5.247 4.9125 -0.54352 -0.231132 -0.475689 -0.288889 4.63101 -0.0814939 4.58218 -0.235348 0.233348 0.943483
-33.1136 -5.69175 8.441 -0.25574 0.185628 0 0.422222 4.63811 -0.0800373 1.61063 -0.0804986 0.527094 0.845986
-37.5618 -5.33744 2.60069 -0.375937 0.0897181 0 0.622222 4.65195 -0.432898 3.77745 0.116432 0.978917 0.167823
-40.364 -7.339 7.8165 -0.106214 0.252213 0 0.622222 4.84853 0.999892 5.49031 -0.928574 0.228913 0.292146
-39.669 -8.315 8.716 -0.222349 0.331412 0 0.622222 4.97158 0.722866 5.79818 -0.795708 -0.188115 0.575727
-34.1722 -4.98475 3.09775 -0.222041 0.0306405 0 0.622222 5.01994 -0.5295 3.02587 -0.287157 0.953252 0.0940841
-40.336 -8.1225 5.43937 -0.0817083 0.3475 0 0.622222 5.32638 0.164308 5.09711 -0.944471 -0.323984 -0.0548503
-33.7349 -8.84456 9.08519 -0.0849763 0.250272 -0.0317813 0.329156 5.36631 -0.161722 0.928047 0.115588 0.207804 0.971317
-40.3073 -8.2845 7.0405 -0.250848 0.327124 0 0.622222 5.37978 0.503443 5.35161 -0.983741 -0.144484 0.106671
-33.3517 -4.48987 3.43613 -0.318732 -0.0976444 0 -0.777778 5.38272 -0.678108 2.85159 -0.704637 0.708257 0.0431058
-39.0392 -4.08825 3.2905 -0.343817 -0.287963 0 -0.288889 5.45294 -0.319476 4.1568 0.866152 0.13306 0.481742
-32.1635 -4.18888 7.43363 -0.193905 -0.0769549 0.0533052 0.256529 5.52125 -0.0331682 2.05467 -0.494985 0.710564 0.500088
-39.5793 -4.5735 4.28075 -0.400967 -0.318278 0 -0.288889 5.55089 0.160798 4.31874 0.666708 0.0707343 0.741955
-33.0223 -3.958 4.60862 -0.405587 -0.0960815 0 -0.777778 5.557 -0.0475736 2.55281 -0.676776 0.735773 0.0247489
-40.8904 -4.4085 5.07013 -0.258394 -0.294717 0 -0.288889 5.64796 0.345272 4.5609 -0.0705653 -0.348085 0.934803
-32.5255 -4.007 5.828 -0.40946 -0.044406 0 -0.149668 5.82102 -0.415664 2.25531 -0.477079 0.829495 0.290403
-36.6522 -10.0513 9.55838 -0.0579147 0.278906 0 0.622222 5.85908 -0.0597039 0.346175 -0.0113421 0.00129904 0.999935
-38.3061 -4.64156 1.7885 -0.317875 -0.19616 0 -0.288889 5.95497 -0.469338 3.70777 0.772696 0.573598 0.271893
-35.6166 -10.4596 9.67712 -0.0511477 0.193767 0.0974745 0.445784 6.01555 -0.0366741 0.346175 -0.132272 0.297605 0.945481
-38.046 -9.741 9.4805 -0.140535 0.286683 0 0.622222 6.05847 0.263676 0.346175 -0.263405 -0.0712523 0.96205
-32.0638 -6.682 8.86012 -0.0991797 0.231518 0 0.422222 6.09383 0.287433 1.61063 0.125745 0.107356 0.986237
-32.587 -7.96 8.83225 -0.106065 0.287829 0 0.422222 6.22437 -0.0724657 0.928047 0.225255 -0.143861 0.96362
-34.0807 -4.81025 1.82325 -0.262563 -0.0209504 0 -0.165003 6.30958 -0.505076 3.02587 -0.396356 0.895647 0.201787
-36.3025 -5.19994 1.31463 -0.396933 0.0265703 0 0.622222 6.32888 -0.650046 3.27734 -0.135275 0.967282 0.214632
-41.806 -6.0655 4.664 -0.339903 0.223525 -0.444224 -0.288889 6.33091 0.999887 4.58218 -0.668142 -0.13767 0.731186
-31.5397 -5.06975 8.558 -0.139835 0.163863 0 0.422222 6.33449 0.408564 2.05467 -0.181328 0.312937 0.932304
-38.9468 -9.482 9.05175 -0.187323 0.285619 0 0.622222 6.38445 0.265325 5.79818 -0.680577 -0.107266 0.724782
-34.2253 -10.122 9.57225 0.0698043 0.150582 0.0916115 -0.288889 6.50772 -0.64127 0.928047 -0.101175 0.499376 0.860458
-39.757 -9.28 6.953 -0.319286 0.371128 0 0.622222 6.52061 0.22262 5.35161 -0.878225 -0.449744 0.162637
-37.6309 -4.894 0.760625 -0.305554 -0.102182 0 0.4401 6.54595 -0.78656 3.70777 0.35599 0.853998 0.379419
-40.7697 -7.24625 4.67725 -0.16182 0.331203 0 0.20411 6.56603 0.187267 5.09711 -0.714739 -0.526074 0.460863
-33.0858 -3.63425 2.55325 -0.39717 -0.120854 -0.0935159 -0.777778 6.6406 -0.153587 2.85159 -0.882026 0.453282 0.128706
-39.72 -9.3495 5.1955 -0.207814 0.347144 0 0.622222 6.72081 0.545022 5.09711 -0.880232 -0.386669 -0.275096
-42.1951 -4.93669 3.83363 -0.405833 0.196218 -0.0483396 -0.288889 6.80191 0.27189 4.5609 -0.882318 -0.162969 0.441538
-38.6023 -3.22781 1.86181 -0.417577 -0.243165 0 -0.288889 6.8429 -0.384238 3.70777 0.954505 0.0227215 0.297327
-41.2697 -3.31787 5.51263 -0.0587577 -0.187281 0 -0.288889 6.88455 0.99991 4.5609 -0.228896 0.144192 0.962713
-35.9349 -11.4358 9.692 -0.0355487 0.128653 0 -0.0703309 7.04244 -0.879546 0.346175 -0.260957 0.492579 0.830221
-30.7165 -5.80762 8.67513 -0.0886017 0.177247 0 0.422222 7.0494 0.192612 1.61063 -0.00172286 0.136058 0.990699
-31.2589 -2.88775 7.42325 -0.124684 -0.14316 0.645326 -0.777778 7.10597 0.0729631 2.05467 -0.944353 0.24938 0.214491
-39.2227 -8.85181 4.25631 -0.15133 0.389786 0 0.622222 7.1071 -0.2882 5.09711 -0.697007 -0.510394 -0.503666
-32.2695 -9.8335 9.2325 -0.455943 0.152986 -0.465912 -0.288889 7.14032 0.0385149 0.928047 0.424748 0.559253 0.711917
-34.6855 -10.849 10.1925 -0.00933493 0.0704247 0.469916 -0.307082 7.14878 -0.175696 0.346175 -0.405149 0.716163 0.5683
-30.8317 -4.04781 8.4385 -0.125715 -0.160914 0 -0.0862804 7.19557 0.0295254 2.05467 -0.540475 0.0841614 0.83714
-31.387 -3.21175 6.058 -0.489047 -0.0709205 -0.551445 -0.777778 7.22868 -0.370034 2.25531 -0.675592 0.718291 0.166235
-40.1156 -3.0305 5.21513 -0.166004 -0.271237 0 -0.288889 7.23548 0.999861 4.5609 0.613754 0.0165811 0.789323
-38.8596 -2.3095 3.33262 -0.32831 -0.273027 0 -0.288889 7.24123 0.128489 4.1568 0.836238 -0.206014 0.508196
-42.0901 -3.38044 4.73325 -0.0941403 -0.170548 0 -0.288889 7.26341 0.747616 4.5609 -0.827295 0.00828891 0.561706
-38.4216 -10.9028 9.40738 -0.0848407 0.155501 0 0.161005 7.28166 -0.165295 0.346175 -0.198247 0.422036 0.884638
-37.133 -11.4148 9.588 -0.0434883 0.120947 0 0.622222 7.30517 -0.540624 0.346175 0.0618202 0.654656 0.753395
-33.8745 -4.44375 0.85425 -0.229711 -0.0649711 0 -0.777778 7.36589 -0.863753 3.02587 -0.610094 0.669089 0.424388
-40.3124 -7.47781 3.41987 -0.112871 0.356558 0.240844 -0.288889 7.44641 -0.0424891 5.09711 -0.570349 -0.785454 -0.240342
-32.271 -2.29513 4.08075 -0.67468 -0.0717898 -0.14244 -0.777778 7.45653 0.336268 2.55281 -0.588367 0.642445 0.491007
-31.7621 -8.94063 8.38975 -0.234182 0.227537 -0.658366 -0.0698936 7.4603 -0.451789 0.928047 0.343047 0.0129698 0.939229
-31.1874 -7.7385 8.66362 -0.113658 0.242842 0 0.422222 7.48051 0.556874 1.61063 0.213163 -0.24042 0.946974
-38.0385 -4.1545 0.1545 -0.237094 -0.162374 0 -0.288889 7.58537 -0.999886 3.70777 0.715193 0.39173 0.578832
-33.0234 -10.6089 10.2657 -0.057632 0.0680329 -0.0218802 -0.299364 7.60522 -0.147224 0.928047 0.0632105 0.859597 0.507047
-39.1034 -9.88912 7.8795 -0.307649 0.294349 0 0.622222 7.63522 -0.530008 5.35161 -0.983972 -0.0837317 0.157441
-39.4165 -10.2591 6.43469 -0.253513 0.275428 0 0.622222 7.67959 -0.220215 5.35161 -0.996475 -0.0786897 -0.029075
-41.8543 -6.81925 3.45994 -0.00523467 0.269481 0.00167843 -0.288889 7.75226 0.999855 5.09711 -0.776072 -0.630333 -0.0198401
-30.4287 -7.0005 8.672 -0.0796337 0.210307 0 0.422222 7.77025 0.2299 1.61063 0.0960066 -0.186931 0.97767
-35.9878 -4.63312 -0.051875 -0.273015 -0.0889274 0 -0.241207 7.84138 -0.999864 3.70777 -0.0681136 0.630653 0.77307
-32.6063 -2.82525 1.547 -0.460887 -0.122083 -0.466372 -0.777778 8.0179 -0.999882 2.85159 -0.950184 0.265308 0.16359
-38.1974 -2.14069 1.66594 -0.293067 -0.262755 0 -0.486149 8.01939 -0.508741 3.70777 0.787496 -0.564312 0.247794
-32.7163 -2.2705 2.6995 -0.821407 -0.116493 -0.0655108 -0.777778 8.06107 0.455057 2.85159 -0.91507 0.393282 0.0893089
-34.7426 -4.191 0.26325 -0.267609 -0.0678123 0 -0.288889 8.11379 -0.354833 3.02587 -0.340167 0.668509 0.661349
-30.886 -2.0955 6.865 -0.052242 -0.112356 0.559849 -0.777778 8.14441 0.422174 2.05467 -0.812348 0.52618 -0.251447
-39.4077 -11.2451 9.05275 -0.107421 0.114334 0 -0.0888889 8.2068 0.143189 0.346175 -0.813013 0.531322 0.238132
-42.3643 -4.956 2.285 -0.295219 0.187404 0 -0.288889 8.35987 -0.112129 4.5609 -0.933146 -0.299697 0.198547
-29.5184 -4.752 8.38488 -0.0921843 0.168243 0 -0.622476 8.38793 -0.599892 2.05467 -0.0909488 -0.0927838 0.991524
-40.2346 -1.98538 4.73763 -0.207328 -0.170844 0 -0.288889 8.39066 0.366468 4.5609 0.295184 0.348033 0.889797
-33.4766 -3.51219 0.695625 -0.283369 -0.113299 0 -0.288889 8.39122 -0.508533 2.85159 -0.65061 0.291893 0.701075
-31.284 -1.93062 8.35487 -0.044033 -0.135378 0.15067 -0.777778 8.44188 0.999873 2.05467 -0.967646 0.251675 0.0178941
-29.3855 -6.38375 8.73913 -0.150886 0.166816 0 0.422222 8.50115 0.489601 1.61063 0.0195532 -0.0457732 0.99876
-38.1285 -2.969 0.269125 -0.204382 -0.213057 0 -0.288889 8.5246 -0.999833 3.70777 0.843178 -0.22809 0.486853
-35.4852 -12.0276 10.9904 0.018628 -0.0394079 0 -0.474158 8.53854 -0.999878 0.346175 -0.505969 0.856617 0.10101
-30.3359 -3.20906 9.39494 -0.128608 -0.19985 0 -0.777778 8.56089 0.415428 2.05467 -0.518284 -0.519009 0.679714
-36.7253 -12.2281 10.7773 -0.06689 -0.0453529 0 -0.777778 8.6014 -0.999863 0.346175 0.0235737 0.979813 0.198521
-42.4011 -3.13925 3.435 -0.35095 0.142882 0 -0.288889 8.62 0.415678 4.5609 -0.95444 0.108251 0.278077
-31.1244 -10.7653 9.34475 -0.237991 0.0711521 -0.00842829 0.358551 8.62089 -0.638997 0.928047 0.166343 0.841513 0.513989
-41.5761 -1.9345 4.50787 -0.204578 -0.100773 0 -0.288889 8.62154 0.544704 4.5609 -0.463942 0.467623 0.752388
-32.0185 -1.359 3.388 -0.66804 -0.0267961 -0.457025 -0.777778 8.64817 0.999935 2.55281 -0.474648 0.844896 0.246697
-30.332 -8.3075 8.105 -0.233008 0.200897 -0.690102 0.422222 8.64992 -0.730304 0.928047 0.0781791 -0.157487 0.984422
-34.6963 -11.0377 11.6884 -0.022532 -0.0465145 0 -0.355556 8.65657 0.253035 0.346175 -0.380493 0.922615 -0.0633071
-38.6406 -11.7924 10.4327 -0.104061 -0.0575283 0 -0.0888889 8.65666 -0.46685 0.346175 0.0885346 0.941537 0.325068
-38.3525 -8.72563 2.94537 -0.203228 0.357588 0 0.622222 8.68562 -0.794965 5.09711 -0.694445 -0.62912 -0.34922
-39.7103 -11.2475 6.627 -0.285025 0.14997 -0.0163221 -0.0592464 8.72851 0.268709 5.35161 -0.881759 0.461065 -0.0995947
-38.5904 -10.7269 4.25181 -0.149889 0.241723 0 0.622222 8.7367 -0.120345 5.09711 -0.861603 0.0665513 -0.503201
-38.5714 -0.836875 3.46025 -0.218405 -0.206931 0.173197 -0.641544 8.7472 0.0855594 4.1568 0.391656 -0.137736 0.909744
-30.8837 -9.88225 8.15225 -0.280124 0.120948 -0.243292 0.287953 8.76974 -0.999836 0.928047 0.24749 0.575023 0.779806
-37.3666 -3.35194 -0.498563 -0.268494 -0.161408 0 -0.288889 8.81908 -0.999877 3.70777 0.371797 0.0310102 0.927796
-39.2836 -11.0393 7.63112 -0.129898 0.143244 0 -0.0888889 8.82564 -0.620587 5.35161 -0.867189 0.482527 0.123084
-37.947 -9.83925 3.46025 -0.175008 0.303035 0 0.622222 8.90603 -0.343596 5.09711 -0.870984 -0.280418 -0.403427
-39.7052 -11.6827 10.2268 -0.143636 -0.0287902 0 -0.0888889 8.99261 0.256964 0.346175 -0.393878 0.915497 0.0820099
-32.1995 -1.76988 1.95131 -0.450837 0.0596563 -0.485475 -0.777778 9.0991 0.346242 2.85159 -0.237383 0.93881 -0.249569
-39.8947 -7.20087 1.83025 -0.162095 0.295049 0.0702385 0.535553 9.11317 -0.439735 5.09711 -0.630199 -0.758222 -0.167178
-37.4189 -1.511 2.14619 -0.198334 -0.275209 0 -0.777778 9.1299 -0.105665 3.70777 0.361916 -0.871285 0.331481
-32.8725 -1.9635 0.789 -0.277471 -0.0582336 -0.134529 -0.354247 9.19605 0.199251 2.85159 -0.481363 0.641157 0.597668
-37.6586 -12.0024 11.3371 -0.042336 -0.0821855 0 -0.777778 9.22373 -0.386179 0.346175 0.1699 0.977623 -0.124048
-30.534 -2.024 4.2795 -0.706847 0.0313086 -0.563177 -0.777778 9.22576 -0.0403753 2.55281 -0.0501962 0.987192 0.151435
-30.2841 -1.28112 7.27375 0.00153567 -0.0702173 0.0142818 -0.777778 9.23646 0.466831 2.05467 -0.515091 0.80885 -0.283626
-32.4227 -10.9208 11.7502 -0.0459733 0.0558384 0 -0.355556 9.23674 -0.121985 0.928047 0.113925 0.991513 0.0626406
-38.9986 -7.99137 2.27875 -0.178566 0.331938 0 0.622222 9.26079 -0.466468 5.09711 -0.620734 -0.776492 -0.1084
-29.9763 -1.939 5.25131 -0.205173 -0.0658345 0 -0.777778 9.29283 -0.0916818 2.25531 -0.52254 0.817588 -0.24187
-42.7841 -3.36331 1.97894 -0.300786 -0.147667 0 -0.661549 9.30437 -0.38162 4.5609 -0.787829 -0.144723 0.598649
-35.2925 -3.2405 -0.350875 -0.381477 -0.133371 0 -0.288889 9.37196 -0.680327 3.02587 -0.367442 0.0947415 0.925208
-42.846 -4.95762 1.38975 -0.253507 -0.179396 0 -0.539807 9.37649 -0.210694 4.5609 -0.49883 -0.472741 0.726419
-36.2704 -3.198 -0.585813 -0.436477 -0.159595 0 -0.288889 9.39847 -0.999819 3.70777 -0.0350476 -0.118894 0.992288
-39.405 -11.8045 5.651 -0.30288 0.177283 -0.140277 0.443238 9.41238 -0.35332 5.35161 -0.802782 0.345569 -0.485925
-29.0284 -7.79625 8.346 -0.16033 0.16785 0 0.422222 9.41352 -0.206977 1.61063 -0.0886754 -0.171318 0.981217
-40.5229 -1.05625 4.39113 -0.126121 -0.147314 0 -0.288889 9.42336 0.257831 4.5609 0.0563963 0.254513 0.965423
-31.08 -1.29131 2.85188 -0.839707 0.0613609 -0.502738 -0.777778 9.44053 0.87458 2.55281 0.226045 0.97141 0.072571
-40.957 -6.576 1.7615 -0.102189 0.279624 0 -0.288889 9.44115 -0.106948 5.09711 -0.459778 -0.841891 -0.28253
-40.2147 -12.1182 8.68681 -0.101684 0.0789131 0 -0.0888889 9.45077 -0.31917 0.346175 -0.724912 0.685959 0.0629486
-28.6159 -4.103 8.78575 -0.0962353 0.172905 0 -0.777778 9.56962 -0.468396 2.05467 -0.127365 -0.419006 0.899006
-41.9191 -5.97325 1.76713 -0.196 0.238489 0 -0.288889 9.5851 0.163624 4.5609 -0.650974 -0.758477 0.0307479
-30.5637 -1.03225 8.513 -0.154523 -0.0325948 0 -0.777778 9.60416 0.999838 2.05467 -0.50348 0.858874 0.0940354
-30.897 -2.10525 9.48612 0.07727 -0.127177 0 -0.777778 9.65018 0.854998 2.05467 -0.822547 0.156029 0.546874
-41.7721 -1.25794 3.68622 -0.246846 -0.129217 -0.0967526 -0.40594 9.65138 -0.126123 4.5609 -0.822648 0.114956 0.556808
-37.416 -1.8825 0.155 -0.18782 -0.217311 0.00899123 -0.546584 9.73991 -0.999882 3.70777 0.413356 -0.677452 0.608436
-39.231 -11.645 11.368 -0.172933 -0.0707387 0 -0.777778 9.7725 0.0555941 0.346175 -0.0115187 0.982045 -0.188295
-29.849 -10.163 8.373 -0.27704 0.0904746 -0.550695 0.422222 9.86435 -0.634494 0.928047 -0.156744 0.534384 0.830581
-35.906 -11.7725 12.2495 -0.106097 -0.0756147 0 -0.374524 9.89038 -0.431602 0.346175 -0.163692 0.93462 -0.315736
-28.1798 -5.60975 8.74925 -0.462583 0.144245 -0.18751 -0.777778 9.93394 0.203509 2.05467 -0.0910693 -0.0840283 0.992293
-34.876 -11.308 12.9373 -0.027475 -0.0676818 0.303753 -0.501658 9.94696 -0.999844 0.346175 -0.476612 0.842695 -0.250411
-30.5935 -11.107 10.5345 -0.156987 0.0360182 0 0.844444 9.96778 -0.583936 0.928047 0.0221033 0.969451 0.244288
-33.7066 -10.8389 12.5293 -0.061342 -0.0862608 0 -0.355556 9.9704 -0.444811 0.346175 0.107503 0.948373 -0.298383
-42.4468 -2.0485 2.633 -0.41063 -0.129412 0 -0.288889 9.97463 -0.391789 4.5609 -0.822443 0.0439963 0.567143
-37.589 -10.795 3.053 -0.160888 0.189923 0 0.622222 10.0049 -0.820723 5.09711 -0.964927 0.179044 -0.191989
-38.7046 0.434438 3.35763 -0.294465 -0.161044 -0.248894 -0.777778 10.0296 -0.684717 4.1568 -0.017559 -0.0932078 0.995492
-40.442 -12.2665 6.05475 -0.511037 0.113955 -0.183078 -0.0888889 10.1074 0.511469 5.35161 -0.727332 0.609407 -0.315612
-31.183 -1.832 1.72525 -0.651407 0.101879 -0.619464 -0.777778 10.1423 0.576835 2.85159 0.249647 0.832173 -0.49514
-29.6869 -2.135 10.464 0.237966 0.126242 0.932632 -0.777778 10.2094 0.999898 2.05467 -0.135996 0.0734229 0.987985
-28.8445 -8.89137 8.22925 -0.51711 0.117065 -0.595903 0.422222 10.2527 -0.645336 0.928047 -0.263077 0.235769 0.935523
-29.6915 -0.818 8.0575 -0.261749 0.029761 0 -0.777778 10.3227 0.585759 2.05467 -0.18737 0.982244 -0.00943878
-32.2246 -10.9397 12.8374 -0.0661413 -0.0803042 0 -0.355556 10.342 -0.107616 0.928047 0.251704 0.945446 -0.206825
-40.7028 -12.5025 9.682 -0.271279 0.0637616 0 -0.0888889 10.3941 -0.435801 0.346175 -0.559298 0.816274 -0.144508
-38.5112 -8.4565 1.32337 -0.195325 0.285932 0 0.622222 10.4298 -0.582015 5.09711 -0.580219 -0.803921 0.130607
-31.7221 -2.39494 0.657188 -0.30844 0.0881724 -0.295931 -0.340147 10.4317 -0.259311 2.85159 0.407498 0.899155 -0.159577
-40.49 -12.13 7.679 -0.38662 0.0879467 -0.191915 -0.0888889 10.4527 0.83373 5.35161 -0.767545 0.638138 0.0604524
-28.4487 -3.04075 9.69425 -0.255832 0.170138 -0.0101865 -0.777778 10.4791 0.321439 2.05467 0.012919 -0.531035 0.847252
-39.3829 -7.738 0.670625 -0.174077 0.243286 0 0.622222 10.4898 0.48588 5.09711 -0.759828 -0.649223 -0.034218
-37.5008 -9.25106 1.43956 -0.292148 0.261482 -0.0249432 0.487644 10.4936 -0.787238 5.09711 -0.825626 -0.564013 -0.0152332
-34.1357 -10.2885 13.3055 -0.127439 -0.111673 0.0211454 -0.713269 10.5249 0.23512 0.346175 -0.170059 0.769274 -0.615871
-35.0124 -2.15687 0.0776875 -0.360413 -0.168797 0 -0.288889 10.5307 -0.12048 2.85159 -0.132374 -0.269482 0.953864
-43.7235 -4.16962 1.3335 -0.250244 -0.138506 0 -0.777778 10.5572 0.236156 4.5609 -0.368419 -0.150679 0.917368
-36.4637 -2.113 -0.2115 -0.292134 -0.200173 0 -0.288889 10.5624 -0.688259 3.70777 -0.0157937 -0.645112 0.763924
-27.4319 -6.98681 8.43294 -0.307116 0.129195 -0.707551 -0.559198 10.5685 -0.553436 1.61063 -0.0944343 -0.0179938 0.995368
-40.6965 0.08 4.0655 -0.4047 -0.155563 0 -0.288889 10.618 -0.309121 4.5609 0.230056 0.0183663 0.973004
-39.5575 -12.9215 5.1585 -0.249104 0.123355 -0.8998 -0.0873027 10.6426 -0.794622 5.35161 -0.580497 0.616135 -0.532353
-37.1915 -10.3042 1.967 -0.230269 0.190288 0 0.176704 10.6429 -0.820196 5.09711 -0.957623 0.0990272 -0.270467
-41.3828 -6.0725 0.728 -0.199989 0.247378 0 -0.288889 10.6671 -0.516383 5.09711 -0.266816 -0.963376 -0.0267447
-35.9363 -1.14137 2.40313 -0.153274 -0.264966 0 -0.777778 10.6793 0.632526 3.70777 0.578249 -0.734484 0.355191
-33.3881 -0.907 -0.127625 -0.204074 -0.106175 0 -0.288889 10.6868 -0.143303 2.85159 0.358553 0.40405 0.841536
-36.6226 -0.83575 3.69537 -0.0266754 -0.248223 0.742941 -0.777778 10.7101 0.999884 4.1568 0.20358 -0.500822 0.841268
-30.1301 -1.08162 9.54225 -0.0335833 -0.0387179 0 -0.777778 10.7221 0.999882 2.05467 -0.359144 0.763088 0.537319
-28.7354 -1.89062 4.48138 0.131733 0.0685732 0.537714 -0.777778 10.754 -0.190685 2.25531 -0.134073 0.9067 -0.399899
-39.0405 -12.7078 4.02331 -0.144994 0.0885402 0 -0.0304756 10.7809 -0.552667 5.09711 -0.784594 0.619995 0.00440853
-40.359 -11.8859 11.9531 -0.118509 -0.0450512 -0.0849497 -0.81372 10.8497 0.198426 0.346175 -0.49503 0.867286 -0.052547
-27.338 -4.10925 8.95088 -0.35194 0.153164 -0.0627266 -0.777778 10.8582 0.0822992 2.05467 0.322271 -0.309991 0.894453
-38.0469 -11.3901 2.27731 -0.188333 0.101362 0 -0.2 10.8591 -0.108017 5.09711 -0.775768 0.617291 -0.130902
-36.1942 -1.52581 0.898938 -0.03695 -0.240217 0.335718 -0.777778 10.878 -0.0563223 3.70777 0.200794 -0.884774 0.420543
-41.0438 -13.0861 8.04025 -0.200323 0.0697057 -0.683697 -0.183925 10.8799 -0.433698 0.346175 -0.664936 0.739392 -0.10564
-44.2975 -5.0985 0.976 -0.259578 -0.14842 0 -0.777778 10.8924 0.698935 4.5609 -0.335261 -0.363691 0.869096
-28.8573 -10.4392 9.39525 -0.167279 0.0251318 0 0.844444 10.9119 -0.408119 0.928047 -0.251153 0.853269 0.457006
-28.8014 -0.948 5.80925 -0.0396373 0.0621295 0 -0.777778 10.928 0.99977 2.25531 -0.23342 0.901253 -0.365046
-42.5382 -6.08794 0.34725 -0.289453 -0.207855 -0.705661 -0.760553 10.9447 -0.142745 4.5609 0.030004 -0.835853 0.548133
-43.2521 -1.776 2.00638 -0.546803 -0.12801 -0.1622 -0.777778 10.9595 -0.0637241 4.5609 -0.520021 -0.0834216 0.85007
-29.8686 -2.227 2.542 -0.454337 0.0870883 0 -0.7391 11.0023 -0.240152 2.55281 0.363008 0.900369 -0.239917
-44.243 -3.201 1.1145 -0.36229 -0.117958 -0.518956 -0.777778 11.0079 -0.0519475 4.5609 -0.699789 -0.0724048 0.710671
-27.7274 -8.73825 8.725 0.0381423 0.0912967 0.365919 -0.0888889 11.0639 -0.200083 1.61063 -0.363218 0.336862 0.868676
-39.7342 -7.0765 -0.14 -0.219667 0.213694 0 -0.114654 11.0939 -0.61831 5.09711 -0.746758 -0.641011 0.177364
3 136 158 114
3 136 114 86
3 158 167 119
3 119 167 141
3 141 164 121
3 61 86 57
3 22 37 17
3 95 119 141
3 95 121 76
3 95 76 55
3 121 112 76
3 55 76 48
3 48 76 45
3 112 121 148
3 150 152 111
3 170 113 130
3 113 120 68
3 113 68 130
3 79 68 35
3 79 35 59
3 59 87 79
3 59 35 29
3 22 29 35
3 29 53 59
3 87 59 53
3 15 33 28
3 33 57 55
3 55 57 85
3 27 48 45
3 45 47 25
3 111 129 84
3 111 84 70
3 70 84 56
3 129 154 163
3 111 171 154
3 130 68 79
3 79 140 123
3 130 123 169
3 29 43 62
3 43 75 62
3 43 64 75
3 43 29 41
3 9 15 3
3 28 12 15
3 12 14 5
3 5 14 13
3 12 27 14
3 24 30 10
3 13 14 36
3 56 84 36
3 84 69 36
3 107 69 84
3 153 84 129
3 110 149 161
3 96 132 134
3 132 62 106
3 132 106 155
3 132 155 195
3 197 132 195
3 106 75 146
3 75 108 146
3 98 138 108
3 146 108 138
3 39 23 63
3 63 23 46
3 31 23 18
3 39 41 23
3 19 18 8
3 23 41 29
3 11 17 2
3 3 0 2
3 0 3 5
3 0 5 1
3 3 12 5
3 10 7 1
3 6 7 20
3 6 20 16
3 20 21 42
3 42 21 44
3 44 21 40
3 40 21 30
3 30 54 40
3 30 24 49
3 49 24 50
3 50 82 49
3 101 88 137
3 88 101 66
3 101 175 151
3 142 151 187
3 116 138 98
3 157 116 182
3 116 74 124
3 116 124 182
3 18 19 31
3 26 31 19
3 19 6 26
3 26 51 52
3 51 26 34
3 60 80 92
3 94 72 67
3 94 128 131
3 162 128 144
3 144 100 145
3 100 104 145
3 104 67 71
3 168 104 142
3 104 168 160
3 133 89 93
3 52 51 93
3 133 93 99
3 172 125 181
3 125 92 122
3 122 159 166
3 159 196 166
3 196 139 127
3 80 127 139
3 180 124 189
3 133 99 172
3 6 8 4
3 185 177 136
3 136 177 158
3 86 115 136
3 119 86 114
3 119 114 158
3 164 141 190
3 190 141 167
3 148 121 186
3 188 185 115
3 136 115 185
3 85 57 86
3 85 86 119
3 55 85 95
3 119 95 85
3 126 77 112
3 45 76 77
3 77 126 105
3 76 112 77
3 148 126 112
3 65 45 77
3 105 65 77
3 103 105 150
3 103 150 111
3 150 105 126
3 170 178 120
3 156 120 188
3 113 170 120
3 115 120 156
3 115 156 188
3 178 188 120
3 11 29 22
3 11 22 17
3 36 14 25
3 36 25 56
3 25 47 56
3 56 47 70
3 105 103 65
3 45 65 47
3 47 65 70
3 70 65 103
3 70 103 111
3 163 154 171
3 111 152 171
3 123 199 169
3 79 123 130
3 194 179 143
3 140 143 179
3 134 194 143
3 134 143 96
3 96 143 87
3 62 96 87
3 14 27 25
3 50 81 82
3 81 36 69
3 36 81 50
3 110 82 81
3 110 81 117
3 117 81 69
3 192 149 117
3 192 117 107
3 107 117 69
3 117 149 110
3 153 192 107
3 107 84 153
3 161 149 192
3 161 198 137
3 198 175 137
3 173 191 134
3 173 134 132
3 197 173 132
3 146 155 106
3 63 74 39
3 46 23 31
3 4 18 23
3 4 23 11
3 4 11 2
3 11 23 29
3 8 18 4
3 0 6 4
3 7 6 1
3 1 6 0
3 2 0 4
3 26 6 16
3 16 38 34
3 34 26 16
3 42 38 16
3 42 16 20
3 80 42 44
3 40 72 44
3 40 67 72
3 71 67 40
3 71 40 54
3 66 54 30
3 66 30 49
3 137 110 161
3 110 137 88
3 110 88 82
3 71 54 97
3 71 97 104
3 97 66 101
3 66 97 54
3 142 104 97
3 142 97 151
3 151 97 101
3 168 142 187
3 116 157 138
3 91 124 74
3 91 74 63
3 52 31 26
3 38 60 51
3 38 51 34
3 127 80 72
3 72 131 127
3 94 131 72
3 189 124 147
3 189 147 174
3 174 147 135
3 135 147 118
3 118 147 102
3 63 102 91
3 91 102 147
3 91 147 124
3 58 89 83
3 83 89 118
3 89 58 52
3 46 58 83
3 46 83 63
3 63 83 102
3 102 83 118
3 118 89 135
3 31 52 58
3 31 58 46
3 133 135 89
3 93 89 52
3 99 93 78
3 99 78 60
3 60 78 51
3 51 78 93
3 125 99 90
3 90 60 92
3 60 90 99
3 172 99 125
3 92 125 90
3 166 125 122
3 125 166 181
3 184 131 193
3 131 184 127
3 174 172 189
3 172 174 135
3 172 135 133
3 167 158 190
3 115 61 68
3 61 115 86
3 37 35 57
3 57 35 61
3 61 35 68
3 35 37 22
3 121 95 141
3 115 68 120
3 37 57 33
3 37 33 32
3 37 32 17
3 15 32 33
3 55 48 27
3 55 27 28
3 55 28 33
3 129 111 154
3 130 165 170
3 87 143 140
3 87 140 79
3 53 29 62
3 53 62 87
3 15 9 17
3 15 17 32
3 27 12 28
3 13 24 10
3 62 132 96
3 75 106 62
3 64 43 73
3 64 73 98
3 98 108 64
3 64 108 75
3 39 74 73
3 39 73 41
3 41 73 43
3 73 74 98
3 2 9 3
3 9 2 17
3 15 12 3
3 13 10 5
3 5 10 1
3 10 21 7
3 21 20 7
3 30 21 10
3 13 36 24
3 50 24 36
3 88 49 82
3 175 101 137
3 74 116 98
3 8 6 19
3 42 80 60
3 42 60 38
3 67 104 100
3 94 67 100
3 94 100 128
3 128 100 144
3 88 66 49
3 145 183 144
3 180 182 124
3 109 92 80
3 109 80 139
3 139 196 159
3 139 159 122
3 139 122 109
3 109 122 92
3 128 193 131
3 160 183 145
3 104 160 145
3 44 72 80
3 45 25 27
