ply
format ascii 1.0
comment Generated by PyMesh
element vertex 200
property float x
property float y
property float z
property float charge
property float ddc
property float hbond
property float hphob
property float rho
property float si
property float theta
property float nx
property float ny
property float nz
element face 348
property list uchar int vertex_indices
end_header
-39.5793 -4.5735 4.28075 -0.400967 0 0 -0.288889 1e-08 0.160798 2.22045e-16 0.666708 0.0707343 0.741955
-40.337 -5.247 4.9125 -0.54352 0.553456 -0.475689 -0.288889 1.1945 -0.0814939 0.770158 -0.235348 0.233348 0.943483
-39.0392 -4.08825 3.2905 -0.343817 0.497686 0 -0.288889 1.22791 -0.319476 3.79728 0.866152 0.13306 0.481742
-38.6125 -5.23581 3.59262 -0.300241 0.389261 0 0.184466 1.359 -0.290688 2.86737 0.552816 0.670072 0.495377
-40.8904 -4.4085 5.07013 -0.258394 0.532976 0 -0.288889 1.53926 0.345272 2.22045e-16 -0.0705653 -0.348085 0.934803
-40.1156 -3.0305 5.21513 -0.166004 -0.190531 0 -0.288889 1.8819 0.999861 5.2901 0.613754 0.0165811 0.789323
-37.6167 -5.52175 3.63175 -0.326966 -0.415945 0 0.622222 2.39578 -0.309424 2.76273 -0.0906204 0.930519 0.354856
-41.2697 -3.31787 5.51263 -0.0587577 0.276098 0 -0.288889 2.77585 0.99991 5.74141 -0.228896 0.144192 0.962713
-37.5618 -5.33744 2.60069 -0.375937 0.368097 0 0.622222 2.80752 -0.432898 3.01284 0.116432 0.978917 0.167823
-39.3888 -6.33588 5.80237 -0.163987 -0.377646 0 0.622222 2.89055 -0.0663983 1.52821 -0.0383378 0.914225 0.403388
-41.806 -6.0655 4.664 -0.339903 0.435233 -0.444224 -0.288889 2.89439 0.999887 0.456848 -0.668142 -0.13767 0.731186
-38.6023 -3.22781 1.86181 -0.417577 0.281668 0 -0.288889 2.95198 -0.384238 3.88411 0.954505 0.0227215 0.297327
-38.8596 -2.3095 3.33262 -0.32831 -0.293056 0 -0.288889 3.0162 0.128489 4.42019 0.836238 -0.206014 0.508196
-40.2346 -1.98538 4.73763 -0.207328 0.0485232 0 -0.288889 3.03708 0.366468 5.08932 0.295184 0.348033 0.889797
-42.0901 -3.38044 4.73325 -0.0941403 0.46582 0 -0.288889 3.15471 0.747616 5.90711 -0.827295 0.00828891 0.561706
-40.7697 -7.24625 4.67725 -0.16182 0.49422 0 0.20411 3.25352 0.187267 0.766607 -0.714739 -0.526074 0.460863
-38.3061 -4.64156 1.7885 -0.317875 0.262252 0 -0.288889 3.28302 -0.469338 3.40314 0.772696 0.573598 0.271893
-42.1951 -4.93669 3.83363 -0.405833 0.538203 -0.0483396 -0.288889 3.36539 0.27189 0.0822192 -0.882318 -0.162969 0.441538
-40.3257 -7.13325 6.0125 -0.106588 0.456828 0 0.622222 3.37809 0.364511 1.2804 -0.902043 0.354241 0.246639
-37.0402 -5.822 4.5435 -0.244789 -0.348603 0 0.622222 3.51551 0.436613 2.50555 -0.347204 0.810193 0.472268
-36.4033 -5.22025 3.798 -0.307738 -0.318113 0 0.622222 3.65708 0.63504 2.71911 -0.192443 0.937573 0.289695
-37.0859 -6.42944 5.42169 -0.218864 -0.291142 0 0.622222 4.02372 -0.812193 2.22939 -0.133285 0.924278 0.357694
-40.5229 -1.05625 4.39113 -0.126121 0.104134 0 -0.288889 4.06977 0.257831 5.1896 0.0563963 0.254513 0.965423
-40.336 -8.1225 5.43937 -0.0817083 0.460611 0 0.622222 4.11787 0.164308 1.05683 -0.944471 -0.323984 -0.0548503
-39.8204 -6.49412 6.95056 -0.113353 -0.426631 0 0.622222 4.12735 0.438333 1.52395 -0.617739 0.785837 0.0292997
-38.1974 -2.14069 1.66594 -0.293067 0.294136 0 -0.486149 4.12847 -0.508741 4.07486 0.787496 -0.564312 0.247794
-41.8543 -6.81925 3.45994 -0.00523467 0.530655 0.00167843 -0.288889 4.31574 0.999855 0.420165 -0.776072 -0.630333 -0.0198401
-41.5761 -1.9345 4.50787 -0.204578 0.2713 0 -0.288889 4.39906 0.544704 5.4488 -0.463942 0.467623 0.752388
-37.878 -6.53662 6.06738 -0.320401 -0.363732 0 0.622222 4.4375 -0.406608 1.91655 0.0806288 0.996742 0.00230739
-42.4011 -3.13925 3.435 -0.35095 0.457898 0 -0.288889 4.51131 0.415678 5.96138 -0.95444 0.108251 0.278077
-38.5714 -0.836875 3.46025 -0.218405 -0.113641 0.173197 -0.641544 4.52218 0.0855594 4.65355 0.391656 -0.137736 0.909744
-37.6309 -4.894 0.760625 -0.305554 0.180146 0 0.4401 4.53847 -0.78656 3.34956 0.35599 0.853998 0.379419
-40.3124 -7.47781 3.41987 -0.112871 0.588951 0.240844 -0.288889 4.61136 -0.0424891 0.702515 -0.570349 -0.785454 -0.240342
-36.3025 -5.19994 1.31463 -0.396933 0.240156 0 0.622222 4.61271 -0.650046 3.11417 -0.135275 0.967282 0.214632
-38.1285 -2.969 0.269125 -0.204382 0.170837 0 -0.288889 4.63368 -0.999833 3.81169 0.843178 -0.22809 0.486853
-35.5205 -4.9905 2.8695 -0.362307 -0.260185 0 0.622222 4.89547 0.475207 2.85236 -0.102899 0.986652 0.126215
-35.9019 -5.79362 5.36525 -0.244153 -0.302292 0 0.622222 4.91972 -0.18642 2.39896 -0.443094 0.872622 0.205424
-40.3073 -8.2845 7.0405 -0.250848 0.352551 0 0.622222 4.92162 0.503443 1.28194 -0.983741 -0.144484 0.106671
-42.3643 -4.956 2.285 -0.295219 0.469549 0 -0.288889 4.92336 -0.112129 0.0918362 -0.933146 -0.299697 0.198547
-38.0385 -4.1545 0.1545 -0.237094 0.094132 0 -0.288889 4.97473 -0.999886 3.57917 0.715193 0.39173 0.578832
-37.4189 -1.511 2.14619 -0.198334 -0.299478 0 -0.777778 5.04619 -0.105665 4.29353 0.361916 -0.871285 0.331481
-40.6965 0.08 4.0655 -0.4047 -0.0758532 0 -0.288889 5.26444 -0.309121 5.1745 0.230056 0.0183663 0.973004
-40.364 -7.339 7.8165 -0.106214 0.320341 0 0.622222 5.45369 0.999892 1.48172 -0.928574 0.228913 0.292146
-41.7721 -1.25794 3.68622 -0.246846 0.320559 -0.0967526 -0.40594 5.48131 -0.126123 5.51401 -0.822648 0.114956 0.556808
-39.72 -9.3495 5.1955 -0.207814 0.381292 0 0.622222 5.5123 0.545022 1.04066 -0.880232 -0.386669 -0.275096
-36.7781 -6.53188 6.914 -0.274894 -0.277188 0 0.564384 5.55089 -0.548748 2.09661 -0.216885 0.972193 0.0883307
-38.5578 -5.97625 7.695 -0.145536 -0.288024 0 0.622222 5.68187 0.999874 1.73839 -0.022914 0.993538 0.111163
-37.3666 -3.35194 -0.498563 -0.268494 -0.0535455 0 -0.288889 5.78106 -0.999877 3.67938 0.371797 0.0310102 0.927796
-38.7046 0.434438 3.35763 -0.294465 -0.117426 -0.248894 -0.777778 5.80457 -0.684717 4.75833 -0.017559 -0.0932078 0.995492
-37.416 -1.8825 0.155 -0.18782 -0.188849 0.00899123 -0.546584 5.84899 -0.999882 4.00097 0.413356 -0.677452 0.608436
-42.4468 -2.0485 2.633 -0.41063 0.312049 0 -0.288889 5.86594 -0.391789 5.78156 -0.822443 0.0439963 0.567143
-42.7841 -3.36331 1.97894 -0.300786 0.317714 0 -0.661549 5.86785 -0.38162 6.07651 -0.787829 -0.144723 0.598649
-39.2227 -8.85181 4.25631 -0.15133 0.451411 0 0.622222 5.89858 -0.2882 0.946128 -0.697007 -0.510394 -0.503666
-42.846 -4.95762 1.38975 -0.253507 0.27616 0 -0.539807 5.93997 -0.210694 0.261447 -0.49883 -0.472741 0.726419
-39.757 -9.28 6.953 -0.319286 0.305049 0 0.622222 6.06246 0.22262 1.28194 -0.878225 -0.449744 0.162637
-39.2218 -6.73138 8.81181 -0.051944 -0.183684 0 0.622222 6.09683 0.864378 1.73839 -0.384019 0.697497 0.605002
-42.1297 0.21025 4.2505 -0.556203 0.19452 -0.251309 -0.777778 6.12053 0.496907 5.1745 -0.463454 -0.274326 0.842589
-35.9878 -4.63312 -0.051875 -0.273015 -0.104366 0 -0.241207 6.12521 -0.999864 3.11417 -0.0681136 0.630653 0.77307
-41.9191 -5.97325 1.76713 -0.196 0.463599 0 -0.288889 6.14859 0.163624 0.0918362 -0.650974 -0.758477 0.0307479
-40.957 -6.576 1.7615 -0.102189 0.525515 0 -0.288889 6.25198 -0.106948 0.420165 -0.459778 -0.841891 -0.28253
-34.1722 -4.98475 3.09775 -0.222041 -0.219969 0 0.622222 6.26297 -0.5295 2.85236 -0.287157 0.953252 0.0940841
-39.8947 -7.20087 1.83025 -0.162095 0.50193 0.0702385 0.535553 6.27812 -0.439735 0.702515 -0.630199 -0.758222 -0.167178
-35.753 -6.076 6.7845 -0.291349 -0.27199 0 0.422222 6.37443 -0.522238 2.09661 -0.619832 0.760206 0.194666
-34.769 -5.28237 4.57438 -0.310572 -0.285323 0 0.472631 6.39291 -0.489743 2.39896 -0.440406 0.895197 -0.0683023
-38.9986 -7.99137 2.27875 -0.178566 0.445424 0 0.622222 6.42574 -0.466468 0.702515 -0.620734 -0.776492 -0.1084
-36.6226 -0.83575 3.69537 -0.0266754 -0.17416 0.742941 -0.777778 6.48512 0.999884 4.29353 0.20358 -0.500822 0.841268
-35.9363 -1.14137 2.40313 -0.153274 -0.218454 0 -0.777778 6.59562 0.632526 4.29353 0.578249 -0.734484 0.355191
-35.2217 -5.19338 6.81475 -0.528 -0.265306 0 0.422222 6.62969 0.763676 2.39896 -0.691483 0.696105 0.193104
-37.5353 -6.48425 8.23575 -0.233165 -0.193233 0 0.622222 6.63341 0.0901899 1.73839 0.0970878 0.959624 0.263998
-34.0807 -4.81025 1.82325 -0.262563 -0.198568 0 -0.165003 6.68437 -0.505076 2.85236 -0.396356 0.895647 0.201787
-39.669 -8.315 8.716 -0.222349 0.230666 0 0.622222 6.71485 0.722866 1.48172 -0.795708 -0.188115 0.575727
-39.6213 1.29762 3.55437 -0.37439 -0.0685036 -0.00867916 -0.777778 6.72566 -0.440129 4.75833 0.233579 -0.0350575 0.971706
-34.7426 -4.191 0.26325 -0.267609 -0.136476 0 -0.288889 6.74734 -0.354833 3.11417 -0.340167 0.668509 0.661349
-41.4772 1.22775 4.66525 -0.871217 -0.0999633 -0.649649 -0.777778 6.77657 0.916865 5.1745 -0.00352843 -0.115298 0.993325
-36.1942 -1.52581 0.898938 -0.03695 -0.226987 0.335718 -0.777778 6.79426 -0.0563223 4.00097 0.200794 -0.884774 0.420543
-34.4007 -4.5955 5.6 -0.490827 -0.273627 0 0.422222 6.85471 0.629453 2.39896 -0.54596 0.829982 -0.114273
-36.2704 -3.198 -0.585813 -0.436477 -0.105167 0 -0.288889 6.89145 -0.999819 3.67938 -0.0350476 -0.118894 0.992288
-36.4637 -2.113 -0.2115 -0.292134 -0.175177 0 -0.288889 6.89509 -0.688259 4.00097 -0.0157937 -0.645112 0.763924
-43.2521 -1.776 2.00638 -0.546803 0.197068 -0.1622 -0.777778 6.92207 -0.0637241 5.78156 -0.520021 -0.0834216 0.85007
-39.4165 -10.2591 6.43469 -0.253513 0.281273 0 0.622222 7.07917 -0.220215 1.04066 -0.996475 -0.0786897 -0.029075
-43.7235 -4.16962 1.3335 -0.250244 0.178471 0 -0.777778 7.1207 0.236156 0.261447 -0.368419 -0.150679 0.917368
-36.2115 -6.49013 8.4785 -0.151679 -0.153369 0 0.422222 7.21535 0.188495 2.09661 -0.198481 0.832854 0.516681
-33.3517 -4.48987 3.43613 -0.318732 -0.22923 0 -0.777778 7.27915 -0.678108 2.85236 -0.704637 0.708257 0.0431058
-41.3828 -6.0725 0.728 -0.199989 0.397334 0 -0.288889 7.32215 -0.516383 0.0918362 -0.266816 -0.963376 -0.0267447
-39.1034 -9.88912 7.8795 -0.307649 0.250506 0 0.622222 7.34956 -0.530008 1.28194 -0.983972 -0.0837317 0.157441
-38.4269 -7.34469 9.6155 -0.0803503 -0.126037 0 0.622222 7.38288 0.776417 1.73839 -0.347538 0.211085 0.913597
-44.2975 -5.0985 0.976 -0.259578 0.174186 0 -0.777778 7.45585 0.698935 0.261447 -0.335261 -0.363691 0.869096
-38.3525 -8.72563 2.94537 -0.203228 0.416581 0 0.622222 7.47711 -0.794965 0.946128 -0.694445 -0.62912 -0.34922
-37.097 0.353 3.8695 -0.191528 -0.0936844 0.168642 -0.777778 7.49366 0.457865 4.75833 0.176704 -0.136258 0.974787
-42.7577 -0.231688 2.256 -0.441463 0.225251 -0.829375 -0.777778 7.49876 -0.49933 5.78156 -0.776429 -0.137096 0.615112
-42.5382 -6.08794 0.34725 -0.289453 0.241884 -0.705661 -0.760553 7.50815 -0.142745 0.261447 0.030004 -0.835853 0.548133
-38.5904 -10.7269 4.25181 -0.149889 0.30174 0 0.622222 7.52819 -0.120345 0.946128 -0.861603 0.0665513 -0.503201
-44.243 -3.201 1.1145 -0.36229 0.204668 -0.518956 -0.777778 7.57138 -0.0519475 6.07651 -0.699789 -0.0724048 0.710671
-38.5112 -8.4565 1.32337 -0.195325 0.332135 0 0.622222 7.59478 -0.582015 0.702515 -0.580219 -0.803921 0.130607
-39.3829 -7.738 0.670625 -0.174077 0.365859 0 0.622222 7.65477 0.48588 0.702515 -0.759828 -0.649223 -0.034218
-37.947 -9.83925 3.46025 -0.175008 0.339814 0 0.622222 7.69752 -0.343596 0.946128 -0.870984 -0.280418 -0.403427
-35.2925 -3.2405 -0.350875 -0.381477 -0.126284 0 -0.288889 7.71021 -0.680327 3.67938 -0.367442 0.0947415 0.925208
-35.245 -0.365 1.9245 -0.229509 0.133701 0 -0.777778 7.74006 0.601351 4.29353 0.927783 -0.160929 0.33663
-33.8745 -4.44375 0.85425 -0.229711 -0.175767 0 -0.777778 7.74069 -0.863753 2.85236 -0.610094 0.669089 0.424388
-43.0871 1.57525 3.7945 -0.784183 0.183576 -0.0612437 -0.777778 7.84905 0.837786 5.1745 -0.765179 -0.186942 0.61608
-37.558 1.975 4.17487 -0.629307 -0.0730458 -0.614733 -0.777778 7.89165 0.779585 4.75833 0.0352649 0.0157289 0.999254
-40.555 -6.288 0.1665 -0.209884 0.354926 0 -0.288889 7.92188 -0.999823 0.0918362 -0.418926 -0.893581 0.161291
-35.5675 0.14675 2.96625 -0.263036 -0.092286 0 -0.777778 8.04902 0.740087 4.29353 0.750801 -0.123764 0.64883
-41.0505 2.48775 4.56675 -0.473897 -0.0665618 0 -0.777778 8.1105 0.363515 5.1745 0.203024 -0.106568 0.973357
-34.8674 -5.60225 8.20088 -0.217975 -0.149789 0 0.422222 8.11076 0.444236 2.09661 -0.382486 0.708639 0.592904
-38.9468 -9.482 9.05175 -0.187323 0.171586 0 0.622222 8.12771 0.265325 1.48172 -0.680577 -0.107266 0.724782
-39.7103 -11.2475 6.627 -0.285025 -0.228741 -0.0163221 -0.0592464 8.12809 0.268709 1.04066 -0.881759 0.461065 -0.0995947
-44.3374 -6.106 0.246625 -0.4368 0.167927 0 -0.777778 8.1422 0.258696 0.261447 -0.271294 -0.522365 0.808415
-44.2265 -1.16675 1.407 -0.580857 0.183168 -0.14629 -0.777778 8.21818 0.57672 5.78156 -0.739751 0.220711 0.635654
-33.4766 -3.51219 0.695625 -0.283369 -0.150559 0 -0.288889 8.2475 -0.508533 3.11417 -0.65061 0.291893 0.701075
-39.7342 -7.0765 -0.14 -0.219667 0.324016 0 -0.114654 8.2588 -0.61831 0.702515 -0.746758 -0.641011 0.177364
-36.9893 -7.27563 9.55737 -0.096239 -0.0668987 0 0.622222 8.26775 0.752194 1.73839 0.139151 0.628387 0.765354
-34.925 -0.822125 0.624313 -0.166115 0.0924026 0.237653 -0.54934 8.27123 -0.056821 4.00097 0.691245 -0.250309 0.677883
-42.217 2.568 4.372 -0.524177 0.117665 0 -0.777778 8.33528 0.39463 5.1745 -0.421686 -0.00642154 0.906719
-44.481 -2.173 1.411 -0.471517 0.205155 -0.634344 -0.777778 8.34414 0.942526 5.78156 -0.771995 -0.0660557 0.632187
-33.7808 -4.35275 7.259 -0.49901 -0.161861 0 0.422222 8.35602 0.711429 2.39896 -0.30399 0.887822 0.345489
-35.0124 -2.15687 0.0776875 -0.360413 -0.120428 0 -0.288889 8.36567 -0.12048 4.00097 -0.132374 -0.269482 0.953864
-33.0858 -3.63425 2.55325 -0.39717 -0.220286 -0.0935159 -0.777778 8.38898 -0.153587 2.85236 -0.882026 0.453282 0.128706
-45.1165 -4.48737 0.769 -0.22781 0.184111 0 -0.777778 8.49849 0.999883 0.261447 -0.726908 -0.0429006 0.685394
-39.2836 -11.0393 7.63112 -0.129898 -0.204112 0 -0.0888889 8.51368 -0.620587 1.04066 -0.867189 0.482527 0.123084
-39.0421 3.00738 3.62512 -0.371083 -0.0283765 0 -0.777778 8.53225 -0.189517 4.75833 0.235222 0.228087 0.9448
-37.5008 -9.25106 1.43956 -0.292148 0.298797 -0.0249432 0.487644 8.55517 -0.787238 0.946128 -0.825626 -0.564013 -0.0152332
-36.4315 1.14775 3.6145 -0.328163 -0.0573033 -0.0427102 -0.777778 8.56115 0.396665 4.75833 0.566569 -0.0350329 0.823269
-33.0223 -3.958 4.60862 -0.405587 -0.218037 0 -0.777778 8.58519 -0.0475736 2.39896 -0.676776 0.735773 0.0247489
-38.5976 -8.63981 0.120937 -0.258586 0.256451 0 0.622222 8.71429 -0.274886 0.702515 -0.685058 -0.617682 0.386219
-42.882 -7.097 -0.217 -0.539707 0.138384 -0.943446 -0.777778 8.71429 0.438927 0.261447 0.236199 -0.51959 0.821119
-43.4664 0.37225 1.41225 -0.43811 0.201976 -0.949832 -0.777778 8.75531 -0.265443 5.78156 -0.876384 -0.0627596 0.477507
-34.8695 -6.857 9.14087 0.0581217 -0.0858351 0 0.422222 8.75622 0.660127 2.09661 -0.190404 0.275077 0.942379
-37.589 -10.795 3.053 -0.160888 0.261485 0 0.622222 8.79637 -0.820723 0.946128 -0.964927 0.179044 -0.191989
-35.5774 -7.80863 9.09609 -0.055958 -0.041345 0 0.424333 8.80341 -0.166127 2.09661 0.168083 0.200091 0.965252
-39.405 -11.8045 5.651 -0.30288 -0.246245 -0.140277 0.443238 8.81196 -0.35332 1.04066 -0.802782 0.345569 -0.485925
-37.587 3.07075 3.68775 -0.610613 0.0425506 -0.50762 -0.777778 9.09114 0.734447 4.75833 0.226641 0.577705 0.78415
-36.4515 2.298 3.7275 -0.528223 0.025677 -0.0184521 -0.777778 9.1281 0.999873 4.75833 0.582346 0.298106 0.756311
-41.5855 -6.44225 -0.952 -0.26962 0.171966 -0.498341 -0.719533 9.15776 -0.999888 0.261447 0.0180575 -0.623922 0.781278
-38.046 -9.741 9.4805 -0.140535 0.104813 0 0.622222 9.15841 0.263676 1.48172 -0.263405 -0.0712523 0.96205
-39.4077 -11.2451 9.05275 -0.107421 -0.169813 0 -0.0888889 9.16829 0.143189 1.28194 -0.813013 0.531322 0.238132
-44.7152 -6.921 -0.29425 -0.606323 0.170305 0 -0.777778 9.19077 0.677769 0.261447 -0.474003 -0.537798 0.697205
-43.0135 2.919 3.737 -0.383727 0.151544 0 -0.777778 9.19604 0.600167 5.1745 -0.797274 0.168796 0.579536
-37.1741 -8.64888 9.92513 -0.0694003 0.0686185 0 0.622222 9.21763 0.916692 1.73839 0.048268 -0.00831849 0.9988
-43.7072 2.09175 2.51425 -0.662943 0.188233 -0.0961542 -0.777778 9.36243 0.594798 5.1745 -0.958642 0.0444668 0.281118
-39.9895 -7.745 -1.015 -0.259982 0.175291 0 -0.777778 9.38915 -0.714444 0.702515 -0.494046 -0.281379 0.822645
-42.0288 3.59275 4.5445 -0.22957 0.106887 0 -0.777778 9.39135 0.742546 5.1745 -0.480291 0.13937 0.865966
-45.0146 -2.96869 -0.523188 -0.217412 0.200823 0 -0.777778 9.39658 -0.0283598 6.07651 -0.936592 0.267243 0.226664
-42.2945 -7.369 -1.02575 -0.505033 0.114835 -0.568088 -0.777778 9.40172 -0.436373 0.261447 0.449305 -0.443087 0.775757
-35.0541 1.07375 1.07763 -0.100963 0.0940416 0 -0.777778 9.42042 -0.538262 4.29353 0.90533 -0.0469999 0.4221
-45.3942 -5.45975 -0.0795 -0.330384 0.192464 0 -0.777778 9.42314 0.562911 0.261447 -0.849055 -0.195259 0.490897
-37.1915 -10.3042 1.967 -0.230269 0.269916 0 0.176704 9.4344 -0.820196 0.946128 -0.957623 0.0990272 -0.270467
-44.7566 -1.61137 0.203125 -0.688753 0.220465 -0.199359 -0.777778 9.47435 0.453965 6.07651 -0.987101 0.0879635 0.133767
-40.442 -12.2665 6.05475 -0.511037 -0.209544 -0.183078 -0.0888889 9.50694 0.511469 1.04066 -0.727332 0.609407 -0.315612
-39.0405 -12.7078 4.02331 -0.144994 -0.184433 0 -0.0304756 9.57239 -0.552667 0.946128 -0.784594 0.619995 0.00440853
-39.8445 3.57888 4.13925 -0.23738 -0.0260396 0 -0.777778 9.64346 0.617063 4.75833 0.552164 0.149121 0.820291
-32.6063 -2.82525 1.547 -0.460887 -0.199169 -0.466372 -0.777778 9.64541 -0.999882 2.85236 -0.950184 0.265308 0.16359
-38.0469 -11.3901 2.27731 -0.188333 -0.217049 0 -0.2 9.65058 -0.108017 0.946128 -0.775768 0.617291 -0.130902
-38.4216 -10.9028 9.40738 -0.0848407 -0.0759787 0 0.161005 9.68366 -0.165295 1.48172 -0.198247 0.422036 0.884638
-45.2798 -3.96525 -0.29375 -0.306163 0.20428 0 -0.777778 9.69378 0.519383 0.261447 -0.947872 0.205734 0.243338
-35.5944 1.77725 2.64581 -0.096858 0.0774817 0 -0.777778 9.71093 0.473408 4.75833 0.858202 0.155366 0.489234
-43.689 -7.74575 -0.37375 -0.569803 0.164645 -0.135995 -0.777778 9.76152 0.830297 0.261447 -0.0978061 -0.706998 0.70042
-41.0871 4.13737 4.7885 -0.180523 0.0495245 0 -0.777778 9.77536 0.999891 5.1745 -0.0134583 0.342001 0.939603
-32.7163 -2.2705 2.6995 -0.821407 -0.207571 -0.0655108 -0.777778 9.80945 0.455057 2.85236 -0.91507 0.393282 0.0893089
-33.1136 -5.69175 8.441 -0.25574 -0.0698223 0 0.422222 9.88318 -0.0800373 2.09661 -0.0804986 0.527094 0.845986
-32.5255 -4.007 5.828 -0.40946 -0.162681 0 -0.149668 9.90281 -0.415664 2.39896 -0.477079 0.829495 0.290403
-32.8725 -1.9635 0.789 -0.277471 -0.123902 -0.134529 -0.354247 9.91246 0.199251 4.00097 -0.481363 0.641157 0.597668
-33.3881 -0.907 -0.127625 -0.204074 0.0133534 0 -0.288889 9.98432 -0.143303 4.00097 0.358553 0.40405 0.841536
-33.6727 -6.60225 9.258 -0.056536 -0.0450674 0 0.422222 9.98543 0.812888 2.09661 0.0702203 0.288359 0.954944
-32.1635 -4.18888 7.43363 -0.193905 -0.131058 0.0533052 0.256529 9.99095 -0.0331682 2.39896 -0.494985 0.710564 0.500088
-37.1655 -10.5795 0.94625 -0.493713 0.227665 -0.432203 -0.2 10.0114 -0.678808 0.946128 -0.981711 0.188311 -0.027959
-39.5575 -12.9215 5.1585 -0.249104 -0.206832 -0.8998 -0.0873027 10.0422 -0.794622 1.04066 -0.580497 0.616135 -0.532353
-43.0252 -8.12325 -1.07925 -0.580357 0.145292 -0.149984 -0.777778 10.0623 0.366016 0.261447 0.20579 -0.713953 0.66927
-43.9055 1.411 0.7435 -0.38372 0.170786 -0.647603 -0.731169 10.0664 -0.263171 5.78156 -0.874578 -0.0774757 0.478656
-34.3894 0.790625 0.009625 -0.159551 0.0473443 0 -0.676371 10.0784 -0.595087 4.00097 0.660308 -0.00013185 0.750995
-35.8405 -9.07938 9.28952 -0.0548477 0.039835 0 0.622222 10.1154 -0.447668 2.09661 0.16897 0.166588 0.971441
-40.49 -12.13 7.679 -0.38662 -0.175566 -0.191915 -0.0888889 10.1407 0.83373 1.04066 -0.767545 0.638138 0.0604524
-43.381 3.104 2.787 -0.50053 0.161131 0 -0.777778 10.2313 -0.581702 5.1745 -0.901441 0.172538 0.397031
-40.2147 -12.1182 8.68681 -0.101684 -0.164333 0 -0.0888889 10.2872 -0.31917 1.04066 -0.724912 0.685959 0.0629486
-44.4607 0.274063 -0.0676875 -0.16303 0.176514 0 -0.355556 10.2931 0.105417 5.78156 -0.919826 0.0610784 0.387543
-45.4999 -6.559 -1.1705 -0.592183 0.198917 0 -0.777778 10.4215 0.349206 0.261447 -0.767073 -0.617302 0.174747
-39.7052 -11.6827 10.2268 -0.143636 -0.137454 0 -0.0888889 10.4561 0.256964 1.28194 -0.393878 0.915497 0.0820099
-37.3369 -10.2401 -0.195625 -0.55539 0.228087 -0.631292 0.0301647 10.4732 -0.176817 0.946128 -0.850087 -0.525629 0.0326564
-38.1895 -9.969 -0.9605 -0.34482 0.181824 -0.0443268 -0.693789 10.4758 0.147659 0.702515 -0.185562 -0.876664 0.443877
-40.1118 -8.89744 -0.759 -0.583787 0.118412 -0.100951 -0.777778 10.4844 0.215933 0.702515 -0.282703 -0.0442896 0.958184
-32.271 -2.29513 4.08075 -0.67468 -0.146175 -0.14244 -0.777778 10.4847 0.336268 2.39896 -0.588367 0.642445 0.491007
-39.1658 4.87844 2.96075 -0.131707 0.0064385 0 -0.777778 10.5216 -0.264272 4.75833 0.379436 0.357608 0.853314
-36.6522 -10.0513 9.55838 -0.0579147 0.0668812 0 0.622222 10.5885 -0.0597039 1.48172 -0.0113421 0.00129904 0.999935
-44.443 -1.03013 -0.71425 -0.180242 0.213314 0 -0.777778 10.6047 -0.424717 6.07651 -0.997938 0.0640563 0.00417257
-42.5649 4.24325 3.52925 -0.236719 0.118399 0 -0.777778 10.6096 0.230999 5.1745 -0.666223 0.382737 0.640046
-35.019 2.274 1.26 -0.0941137 0.0692656 0 -0.777778 10.635 0.270744 4.29353 0.859955 0.0943554 0.501572
-33.0566 0.118375 -0.5665 -0.173941 -0.0317768 0 0.698222 10.6782 -0.529628 4.00097 0.338264 0.0327202 0.940482
-36.215 3.1935 2.472 -0.199528 0.0459606 0 -0.777778 10.6883 0.213337 4.75833 0.601827 0.538145 0.590088
-45.5929 -4.47756 -1.0975 -0.661837 0.181177 0 -0.777778 10.697 0.074797 0.261447 -0.930147 0.223379 0.291425
-37.5692 4.24862 2.59262 -0.242175 0.00831018 -0.269377 -0.777778 10.6996 -0.287186 4.75833 0.374094 0.371871 0.849568
-41.5755 -8.42838 -1.43763 -0.46172 0.112562 -0.0938401 -0.777778 10.7467 -0.346441 0.261447 -0.191627 -0.215441 0.95753
-32.1995 -1.76988 1.95131 -0.450837 0.173793 -0.485475 -0.777778 10.8475 0.346242 2.85236 -0.237383 0.93881 -0.249569
-41.0713 -13.4177 6.42462 -0.290474 -0.181635 -0.534868 -0.0888889 10.8701 -0.194701 1.04066 -0.736586 0.592502 -0.326164
-33.7349 -8.84456 9.08519 -0.0849763 -0.0387622 -0.0317813 0.329156 10.9172 -0.161722 2.09661 0.115588 0.207804 0.971317
-39.3395 -12.2695 2.70438 -0.132536 -0.160503 0 -0.2 10.994 0.559201 0.946128 -0.527689 0.826083 0.197817
-40.2899 4.84462 3.888 -0.154787 0.0173394 0 -0.777778 11.0086 0.409007 4.75833 0.428523 0.453485 0.781486
-38.6406 -11.7924 10.4327 -0.104061 -0.0932618 0 -0.0888889 11.0587 -0.46685 1.48172 0.0885346 0.941537 0.325068
-43.7103 -8.37375 -1.76775 -0.422553 0.216668 -0.68474 -0.777778 11.0654 0.338428 0.261447 -0.695415 -0.710814 -0.105547
-37.133 -11.4148 9.588 -0.0434883 -0.0562211 0 0.622222 11.082 -0.540624 1.48172 0.0618202 0.654656 0.753395
-45.2485 -2.65225 -2.18575 -0.254407 0.181435 0 -0.777778 11.1051 0.614042 6.07651 -0.933218 0.35931 -0.000907542
3 130 148 106
3 130 106 79
3 148 171 119
3 119 171 173
3 44 79 54
3 18 37 24
3 135 119 173
3 135 176 153
3 135 153 105
3 176 196 153
3 105 153 134
3 134 153 182
3 121 87 64
3 87 95 52
3 87 52 64
3 32 52 23
3 32 23 15
3 15 26 32
3 15 23 1
3 18 1 23
3 1 10 15
3 26 15 10
3 55 70 85
3 70 54 105
3 105 54 84
3 138 134 182
3 167 190 143
3 93 124 121
3 64 124 93
3 64 52 32
3 32 59 61
3 64 61 94
3 1 4 17
3 4 14 17
3 4 7 14
3 4 1 0
3 46 55 68
3 85 111 55
3 111 129 81
3 81 129 127
3 111 138 129
3 163 159 104
3 127 129 193
3 197 136 175
3 136 125 107
3 38 51 53
3 51 17 29
3 51 29 50
3 51 50 78
3 92 51 78
3 29 14 43
3 14 27 43
3 13 22 27
3 43 27 22
3 2 3 11
3 11 3 16
3 8 3 6
3 2 0 3
3 20 6 19
3 3 0 1
3 9 24 28
3 68 45 28
3 45 68 81
3 45 81 62
3 68 111 81
3 104 67 62
3 36 67 75
3 36 75 63
3 75 115 123
3 123 115 160
3 160 115 164
3 164 115 159
3 188 142 199
3 154 188 145
3 154 145 118
3 118 145 107
3 118 107 86
3 118 142 154
3 118 92 142
3 92 147 142
3 92 114 147
3 80 92 118
3 142 147 183
3 183 147 174
3 174 108 126
3 108 78 89
3 99 73 113
3 113 73 103
3 113 103 141
3 100 71 48
3 41 73 56
3 56 22 41
3 56 43 22
3 30 22 13
3 48 30 65
3 30 12 40
3 30 40 65
3 6 20 8
3 35 8 20
3 20 36 35
3 35 69 33
3 69 35 60
3 117 180 158
3 139 126 99
3 99 126 89
3 184 137 141
3 141 137 113
3 157 150 195
3 195 150 181
3 131 120 100
3 150 103 120
3 189 131 187
3 155 132 122
3 122 100 88
3 122 88 102
3 100 48 88
3 96 57 72
3 33 69 72
3 96 72 109
3 116 161 162
3 161 158 191
3 185 155 144
3 97 155 102
3 122 102 155
3 66 40 74
3 186 112 162
3 97 66 112
3 66 74 112
3 74 116 112
3 96 109 116
3 188 154 142
3 36 19 21
3 125 143 90
3 59 101 61
3 149 166 130
3 130 166 148
3 79 91 130
3 119 79 106
3 119 106 148
3 152 194 149
3 152 149 91
3 130 91 149
3 84 54 79
3 84 79 119
3 105 84 135
3 119 135 84
3 182 153 198
3 153 196 198
3 177 124 178
3 177 121 124
3 121 177 165
3 146 121 165
3 146 165 152
3 121 146 95
3 128 95 152
3 87 121 95
3 91 95 128
3 91 128 152
3 146 152 95
3 9 1 18
3 9 18 24
3 193 129 170
3 197 190 167
3 140 101 133
3 190 140 133
3 90 143 133
3 90 133 101
3 90 101 83
3 110 101 140
3 179 140 190
3 190 133 143
3 61 101 110
3 61 110 94
3 94 110 124
3 124 110 140
3 124 140 179
3 178 124 179
3 32 61 64
3 90 83 58
3 59 58 83
3 107 125 90
3 53 90 58
3 53 58 38
3 38 58 26
3 17 38 26
3 129 138 170
3 80 86 53
3 80 53 51
3 92 80 51
3 43 50 29
3 11 12 2
3 16 3 8
3 21 6 3
3 21 3 9
3 21 9 28
3 9 3 1
3 19 6 21
3 45 36 21
3 67 36 62
3 62 36 45
3 28 45 21
3 35 36 63
3 63 82 60
3 60 35 63
3 123 82 63
3 123 63 75
3 180 123 160
3 168 174 126
3 168 126 139
3 89 126 108
3 56 89 43
3 50 43 89
3 50 89 78
3 120 103 71
3 120 71 100
3 71 103 73
3 48 71 22
3 22 71 41
3 41 71 73
3 30 48 22
3 25 40 12
3 25 12 11
3 33 8 35
3 82 117 69
3 82 69 60
3 120 181 150
3 189 181 120
3 189 120 131
3 74 40 49
3 74 49 77
3 77 49 76
3 76 49 47
3 47 49 34
3 11 34 25
3 25 34 49
3 25 49 40
3 31 57 39
3 39 57 47
3 57 31 33
3 16 31 39
3 16 39 11
3 11 39 34
3 34 39 47
3 47 57 76
3 8 33 31
3 8 31 16
3 96 76 57
3 72 57 33
3 109 72 98
3 109 98 117
3 117 98 69
3 69 98 72
3 161 109 151
3 151 117 158
3 117 151 109
3 116 109 161
3 158 161 151
3 144 155 97
3 169 144 112
3 169 112 186
3 112 144 97
3 77 116 74
3 116 77 76
3 116 76 96
3 91 44 52
3 44 91 79
3 37 23 54
3 54 23 44
3 44 23 52
3 23 37 18
3 176 135 173
3 91 52 95
3 37 54 70
3 37 70 42
3 37 42 24
3 55 42 70
3 105 134 138
3 105 138 85
3 105 85 70
3 64 93 121
3 26 58 59
3 26 59 32
3 10 1 17
3 10 17 26
3 55 46 24
3 55 24 42
3 138 111 85
3 127 163 104
3 143 125 167
3 156 167 125
3 156 125 136
3 156 136 197
3 167 156 197
3 101 59 83
3 124 64 94
3 107 53 86
3 53 107 90
3 17 51 38
3 14 29 17
3 7 4 5
3 7 5 13
3 13 27 7
3 7 27 14
3 2 12 5
3 2 5 0
3 0 5 4
3 5 12 13
3 28 46 68
3 46 28 24
3 55 111 68
3 127 104 81
3 81 104 62
3 104 115 67
3 115 75 67
3 159 115 104
3 127 193 163
3 188 175 145
3 145 175 136
3 145 136 107
3 118 86 80
3 92 78 114
3 114 78 108
3 108 174 147
3 108 147 114
3 73 99 56
3 99 89 56
3 12 30 13
3 19 36 20
3 123 180 117
3 123 117 82
3 183 199 142
3 113 137 99
3 139 99 137
3 139 137 172
3 157 141 103
3 157 103 150
3 157 184 141
3 132 131 100
3 132 100 122
3 155 187 132
3 187 131 132
3 66 65 40
3 65 66 102
3 65 102 88
3 65 88 48
3 66 97 102
3 162 112 116
3 182 170 138
