ply
format ascii 1.0
comment Generated by PyMesh
element vertex 200
property float x
property float y
property float z
property float charge
property float ddc
property float hbond
property float hphob
property float rho
property float si
property float theta
property float nx
property float ny
property float nz
element face 341
property list uchar int vertex_indices
end_header
-34.8695 -6.857 9.14087 0.0581217 0 0 0.422222 1e-08 0.660127 2.22045e-16 -0.190404 0.275077 0.942379
-35.5774 -7.80863 9.09609 -0.055958 0.25366 0 0.424333 1.1869 -0.166127 1.30727 0.168083 0.200091 0.965252
-33.6727 -6.60225 9.258 -0.056536 0.138854 0 0.422222 1.22921 0.812888 3.79065 0.0702203 0.288359 0.954944
-36.2115 -6.49013 8.4785 -0.151679 0.387981 0 0.422222 1.54087 0.188495 2.22045e-16 -0.198481 0.832854 0.516681
-34.8674 -5.60225 8.20088 -0.217975 0.353411 0 0.422222 1.5678 0.444236 5.08341 -0.382486 0.708639 0.592904
-33.7349 -8.84456 9.08519 -0.0849763 0.11493 -0.0317813 0.329156 2.28928 -0.161722 2.59814 0.115588 0.207804 0.971317
-35.8405 -9.07938 9.28952 -0.0548477 0.134669 0 0.622222 2.49894 -0.447668 1.67517 0.16897 0.166588 0.971441
-33.1136 -5.69175 8.441 -0.25574 0.0622128 0 0.422222 2.57423 -0.0800373 4.2546 -0.0804986 0.527094 0.845986
-36.9893 -7.27563 9.55737 -0.096239 -0.143087 0 0.622222 2.76498 0.752194 0.700271 0.139151 0.628387 0.765354
-37.5353 -6.48425 8.23575 -0.233165 0.301987 0 0.622222 2.88676 0.0901899 0.132695 0.0970878 0.959624 0.263998
-32.0638 -6.682 8.86012 -0.0991797 0.125484 0 0.422222 2.88849 0.287433 3.69639 0.125745 0.107356 0.986237
-32.587 -7.96 8.83225 -0.106065 0.241903 0 0.422222 3.01904 -0.0724657 3.18011 0.225255 -0.143861 0.96362
-35.2217 -5.19338 6.81475 -0.528 0.350768 0 0.422222 3.05577 0.763676 5.3092 -0.691483 0.696105 0.193104
-37.1741 -8.64888 9.92513 -0.0694003 0.145062 0 0.622222 3.17254 0.916692 1.17633 0.048268 -0.00831849 0.9988
-36.7781 -6.53188 6.914 -0.274894 0.342408 0 0.564384 3.20534 -0.548748 5.98226 -0.216885 0.972193 0.0883307
-35.753 -6.076 6.7845 -0.291349 0.374027 0 0.422222 3.30413 -0.522238 5.63846 -0.619832 0.760206 0.194666
-33.7808 -4.35275 7.259 -0.49901 0.236598 0 0.422222 3.47281 0.711429 4.83258 -0.30399 0.887822 0.345489
-34.2253 -10.122 9.57225 0.0698043 -0.0352782 0.0916115 -0.288889 3.74172 -0.64127 2.22817 -0.101175 0.499376 0.860458
-36.6522 -10.0513 9.55838 -0.0579147 0.114498 0 0.622222 3.79345 -0.0597039 1.54279 -0.0113421 0.00129904 0.999935
-35.6166 -10.4596 9.67712 -0.0511477 0.0410057 0.0974745 0.445784 3.94993 -0.0366741 1.81042 -0.132272 0.297605 0.945481
-32.2695 -9.8335 9.2325 -0.455943 0.132719 -0.465912 -0.288889 4.06329 0.0385149 2.74981 0.424748 0.559253 0.711917
-38.5578 -5.97625 7.695 -0.145536 0.243502 0 0.622222 4.15008 0.999874 0.161903 -0.022914 0.993538 0.111163
-38.4269 -7.34469 9.6155 -0.0803503 0.101885 0 0.622222 4.20541 0.776417 0.759076 -0.347538 0.211085 0.913597
-31.5397 -5.06975 8.558 -0.139835 -0.0459256 0 0.422222 4.27062 0.408564 4.13995 -0.181328 0.312937 0.932304
-31.1874 -7.7385 8.66362 -0.113658 0.183552 0 0.422222 4.27517 0.556874 3.39379 0.213163 -0.24042 0.946974
-31.7621 -8.94063 8.38975 -0.234182 0.144894 -0.658366 -0.0698936 4.37473 -0.451789 3.04894 0.343047 0.0129698 0.939229
-30.7165 -5.80762 8.67513 -0.0886017 -0.0673181 0 0.422222 4.50527 0.192612 3.86058 -0.00172286 0.136058 0.990699
-33.0234 -10.6089 10.2657 -0.057632 -0.141025 -0.0218802 -0.299364 4.52819 -0.147224 2.43775 0.0632105 0.859597 0.507047
-30.4287 -7.0005 8.672 -0.0796337 0.13828 0 0.422222 4.56491 0.2299 3.59368 0.0960066 -0.186931 0.97767
-37.878 -6.53662 6.06738 -0.320401 0.251874 0 0.622222 4.59335 -0.406608 6.09705 0.0806288 0.996742 0.00230739
-32.1635 -4.18888 7.43363 -0.193905 0.163819 0.0533052 0.256529 4.61778 -0.0331682 4.47071 -0.494985 0.710564 0.500088
-38.046 -9.741 9.4805 -0.140535 0.124527 0 0.622222 4.63904 0.263676 1.26753 -0.263405 -0.0712523 0.96205
-34.4007 -4.5955 5.6 -0.490827 0.287947 0 0.422222 4.63916 0.629453 5.18148 -0.54596 0.829982 -0.114273
-39.2218 -6.73138 8.81181 -0.051944 0.124186 0 0.622222 4.68598 0.864378 0.46869 -0.384019 0.697497 0.605002
-37.0859 -6.42944 5.42169 -0.218864 0.174512 0 0.622222 4.7325 -0.812193 5.91214 -0.133285 0.924278 0.357694
-35.9019 -5.79362 5.36525 -0.244153 0.230294 0 0.622222 4.75884 -0.18642 5.62631 -0.443094 0.872622 0.205424
-34.6855 -10.849 10.1925 -0.00933493 -0.141904 0.469916 -0.307082 4.80239 -0.175696 2.09089 -0.405149 0.716163 0.5683
-35.9349 -11.4358 9.692 -0.0355487 -0.0527934 0 -0.0703309 4.97682 -0.879546 1.78661 -0.260957 0.492579 0.830221
-37.133 -11.4148 9.588 -0.0434883 -0.0598031 0 0.622222 5.23954 -0.540624 1.60478 0.0618202 0.654656 0.753395
-38.9468 -9.482 9.05175 -0.187323 0.174583 0 0.622222 5.31715 0.265325 1.10955 -0.680577 -0.107266 0.724782
-32.5255 -4.007 5.828 -0.40946 0.174729 0 -0.149668 5.40752 -0.415664 4.70918 -0.477079 0.829495 0.290403
-30.332 -8.3075 8.105 -0.233008 0.120266 -0.690102 0.422222 5.44458 -0.730304 3.32969 0.0781791 -0.157487 0.984422
-30.8317 -4.04781 8.4385 -0.125715 -0.121635 0 -0.0862804 5.51958 0.0295254 4.36265 -0.540475 0.0841614 0.83714
-31.1244 -10.7653 9.34475 -0.237991 -0.114259 -0.00842829 0.358551 5.54386 -0.638997 2.60895 0.166343 0.841513 0.513989
-30.8837 -9.88225 8.15225 -0.280124 0.0693504 -0.243292 0.287953 5.68417 -0.999836 3.02167 0.24749 0.575023 0.779806
-39.8204 -6.49412 6.95056 -0.113353 0.206167 0 0.622222 5.7046 0.438333 0.194281 -0.617739 0.785837 0.0292997
-38.4216 -10.9028 9.40738 -0.0848407 0.0301142 0 0.161005 5.76288 -0.165295 1.37625 -0.198247 0.422036 0.884638
-29.3855 -6.38375 8.73913 -0.150886 0.0851859 0 0.422222 5.77865 0.489601 3.70717 0.0195532 -0.0457732 0.99876
-37.0402 -5.822 4.5435 -0.244789 0.128655 0 0.622222 5.80128 0.436613 5.76689 -0.347204 0.810193 0.472268
-34.769 -5.28237 4.57438 -0.310572 0.240705 0 0.472631 5.92731 -0.489743 5.36711 -0.440406 0.895197 -0.0683023
-39.669 -8.315 8.716 -0.222349 0.203183 0 0.622222 6.02018 0.722866 1.10955 -0.795708 -0.188115 0.575727
-29.5184 -4.752 8.38488 -0.0921843 -0.0886799 0 -0.622476 6.12824 -0.599892 4.36265 -0.0909488 -0.0927838 0.991524
-39.3888 -6.33588 5.80237 -0.163987 0.126408 0 0.622222 6.14029 -0.0663983 0.194281 -0.0383378 0.914225 0.403388
-32.4227 -10.9208 11.7502 -0.0459733 -0.191692 0 -0.355556 6.15972 -0.121985 2.43775 0.113925 0.991513 0.0626406
-31.2589 -2.88775 7.42325 -0.124684 -0.204823 0.645326 -0.777778 6.20251 0.0729631 4.47071 -0.944353 0.24938 0.214491
-29.0284 -7.79625 8.346 -0.16033 0.0988569 0 0.422222 6.20818 -0.206977 3.32969 -0.0886754 -0.171318 0.981217
-33.0223 -3.958 4.60862 -0.405587 0.200163 0 -0.777778 6.25771 -0.0475736 4.70918 -0.676776 0.735773 0.0247489
-34.6963 -11.0377 11.6884 -0.022532 -0.235001 0 -0.355556 6.31018 0.253035 2.09089 -0.380493 0.922615 -0.0633071
-40.364 -7.339 7.8165 -0.106214 0.193791 0 0.622222 6.3183 0.999892 0.194281 -0.928574 0.228913 0.292146
-35.4852 -12.0276 10.9904 0.018628 -0.187282 0 -0.474158 6.43495 -0.999878 1.78661 -0.505969 0.856617 0.10101
-31.387 -3.21175 6.058 -0.489047 0.173681 -0.551445 -0.777778 6.47522 -0.370034 4.70918 -0.675592 0.718291 0.166235
-36.4033 -5.22025 3.798 -0.307738 0.142801 0 0.622222 6.50138 0.63504 5.76689 -0.192443 0.937573 0.289695
-36.7253 -12.2281 10.7773 -0.06689 -0.154281 0 -0.777778 6.53577 -0.999863 1.60478 0.0235737 0.979813 0.198521
-39.1034 -9.88912 7.8795 -0.307649 0.243847 0 0.622222 6.56793 -0.530008 1.10955 -0.983972 -0.0837317 0.157441
-29.849 -10.163 8.373 -0.27704 -0.0309965 -0.550695 0.422222 6.77877 -0.634494 3.02167 -0.156744 0.534384 0.830581
-37.6167 -5.52175 3.63175 -0.326966 0.120869 0 0.622222 6.80844 -0.309424 5.76689 -0.0906204 0.930519 0.354856
-39.4077 -11.2451 9.05275 -0.107421 0.163549 0 -0.0888889 6.86529 0.143189 1.37625 -0.813013 0.531322 0.238132
-30.3359 -3.20906 9.39494 -0.128608 -0.184191 0 -0.777778 6.8849 0.415428 4.36265 -0.518284 -0.519009 0.679714
-30.5935 -11.107 10.5345 -0.156987 -0.140656 0 0.844444 6.89076 -0.583936 2.60895 0.0221033 0.969451 0.244288
-40.3257 -7.13325 6.0125 -0.106588 0.17327 0 0.622222 6.94709 0.364511 0.194281 -0.902043 0.354241 0.246639
-38.6406 -11.7924 10.4327 -0.104061 -0.125958 0 -0.0888889 7.00843 -0.46685 1.37625 0.0885346 0.941537 0.325068
-28.8445 -8.89137 8.22925 -0.51711 -0.0446733 -0.595903 0.422222 7.04739 -0.645336 3.32969 -0.263077 0.235769 0.935523
-37.6586 -12.0024 11.3371 -0.042336 -0.19147 0 -0.777778 7.1581 -0.386179 1.60478 0.1699 0.977623 -0.124048
-28.1798 -5.60975 8.74925 -0.462583 -0.074214 -0.18751 -0.777778 7.21144 0.203509 3.70717 -0.0910693 -0.0840283 0.992293
-30.886 -2.0955 6.865 -0.052242 0.211825 0.559849 -0.777778 7.24095 0.422174 4.47071 -0.812348 0.52618 -0.251447
-32.2246 -10.9397 12.8374 -0.0661413 -0.208073 0 -0.355556 7.26498 -0.107616 2.43775 0.251704 0.945446 -0.206825
-28.6159 -4.103 8.78575 -0.0962353 -0.122205 0 -0.777778 7.30993 -0.468396 4.36265 -0.127365 -0.419006 0.899006
-38.6125 -5.23581 3.59262 -0.300241 0.111342 0 0.184466 7.39722 -0.290688 5.76689 0.552816 0.670072 0.495377
-35.5205 -4.9905 2.8695 -0.362307 0.148128 0 0.622222 7.40822 0.475207 5.36711 -0.102899 0.986652 0.126215
-39.7052 -11.6827 10.2268 -0.143636 -0.14923 0 -0.0888889 7.47382 0.256964 1.37625 -0.393878 0.915497 0.0820099
-31.284 -1.93062 8.35487 -0.044033 -0.211346 0.15067 -0.777778 7.53841 0.999873 4.47071 -0.967646 0.251675 0.0178941
-40.3073 -8.2845 7.0405 -0.250848 0.226614 0 0.622222 7.54278 0.503443 0.194281 -0.983741 -0.144484 0.106671
-34.1722 -4.98475 3.09775 -0.222041 0.158728 0 0.622222 7.54755 -0.5295 5.36711 -0.287157 0.953252 0.0940841
-39.757 -9.28 6.953 -0.319286 0.241073 0 0.622222 7.57591 0.22262 1.10955 -0.878225 -0.449744 0.162637
-33.3517 -4.48987 3.43613 -0.318732 0.178133 0 -0.777778 7.58667 -0.678108 5.36711 -0.704637 0.708257 0.0431058
-34.876 -11.308 12.9373 -0.027475 -0.224471 0.303753 -0.501658 7.60057 -0.999844 2.09089 -0.476612 0.842695 -0.250411
-33.7066 -10.8389 12.5293 -0.061342 -0.248339 0 -0.355556 7.62401 -0.444811 2.09089 0.107503 0.948373 -0.298383
-39.2836 -11.0393 7.63112 -0.129898 0.182795 0 -0.0888889 7.75834 -0.620587 1.10955 -0.867189 0.482527 0.123084
-35.906 -11.7725 12.2495 -0.106097 -0.226568 0 -0.374524 7.7868 -0.431602 1.78661 -0.163692 0.93462 -0.315736
-28.8573 -10.4392 9.39525 -0.167279 -0.095274 0 0.844444 7.83485 -0.408119 2.60895 -0.251153 0.853269 0.457006
-40.337 -5.247 4.9125 -0.54352 0.0378071 -0.475689 -0.288889 7.83635 -0.0814939 0.194281 -0.235348 0.233348 0.943483
-27.4319 -6.98681 8.43294 -0.307116 -0.0591845 -0.707551 -0.559198 7.84601 -0.553436 3.70717 -0.0944343 -0.0179938 0.995368
-37.5618 -5.33744 2.60069 -0.375937 0.130858 0 0.622222 7.85728 -0.432898 5.76689 0.116432 0.978917 0.167823
-27.7274 -8.73825 8.725 0.0381423 -0.0454485 0.365919 -0.0888889 7.85852 -0.200083 3.32969 -0.363218 0.336862 0.868676
-32.271 -2.29513 4.08075 -0.67468 0.0999684 -0.14244 -0.777778 7.86682 0.336268 4.70918 -0.588367 0.642445 0.491007
-40.336 -8.1225 5.43937 -0.0817083 0.225358 0 0.622222 8.09042 0.164308 0.194281 -0.944471 -0.323984 -0.0548503
-39.4165 -10.2591 6.43469 -0.253513 0.227137 0 0.622222 8.09187 -0.220215 1.10955 -0.996475 -0.0786897 -0.029075
-40.2147 -12.1182 8.68681 -0.101684 0.149644 0 -0.0888889 8.10926 -0.31917 1.37625 -0.724912 0.685959 0.0629486
-39.231 -11.645 11.368 -0.172933 -0.180724 0 -0.777778 8.12426 0.0555941 1.37625 -0.0115187 0.982045 -0.188295
-30.897 -2.10525 9.48612 0.07727 -0.145343 0 -0.777778 8.12649 0.854998 4.36265 -0.822547 0.156029 0.546874
-28.3725 -9.695 8.804 -0.125212 -0.0664877 -0.0069312 0.836938 8.14236 -0.730093 3.32969 -0.424912 0.578205 0.696512
-34.1357 -10.2885 13.3055 -0.127439 -0.288809 0.0211454 -0.713269 8.17849 0.23512 2.09089 -0.170059 0.769274 -0.615871
-29.8476 -11.385 11.6593 -0.135991 -0.110691 0 0.414047 8.26874 -0.155001 2.60895 0.0154995 0.947395 0.319692
-30.2841 -1.28112 7.27375 0.00153567 0.180419 0.0142818 -0.777778 8.333 0.466831 4.47071 -0.515091 0.80885 -0.283626
-33.0858 -3.63425 2.55325 -0.39717 0.15248 -0.0935159 -0.777778 8.33939 -0.153587 5.36711 -0.882026 0.453282 0.128706
-30.5075 -11.4341 12.7015 -0.0902637 -0.135303 0 -0.355556 8.35891 0.195519 2.43775 0.411917 0.89287 0.181954
-29.0865 -10.9665 10.752 -0.151858 -0.113871 0 0.844444 8.41984 -0.600282 2.60895 -0.26057 0.919557 0.294141
-29.6869 -2.135 10.464 0.237966 -0.0506227 0.932632 -0.777778 8.53344 0.999898 4.36265 -0.135996 0.0734229 0.987985
-29.9763 -1.939 5.25131 -0.205173 0.165187 0 -0.777778 8.53938 -0.0916818 4.70918 -0.52254 0.817588 -0.24187
-27.338 -4.10925 8.95088 -0.35194 0.100687 -0.0627266 -0.777778 8.59847 0.0822992 3.70717 0.322271 -0.309991 0.894453
-26.7895 -5.356 8.8235 -0.575657 0.0593188 -0.21397 -0.777778 8.62665 0.434192 3.70717 0.281302 0.0468549 0.958475
-39.0392 -4.08825 3.2905 -0.343817 -0.134948 0 -0.288889 8.65827 -0.319476 5.76689 0.866152 0.13306 0.481742
-31.4245 -11.0444 13.9904 -0.103361 -0.143984 0 -0.355556 8.67229 0.28518 2.43775 0.727977 0.64416 0.234749
-30.5637 -1.03225 8.513 -0.154523 0.14307 0 -0.777778 8.7007 0.999838 4.47071 -0.50348 0.858874 0.0940354
-28.4487 -3.04075 9.69425 -0.255832 -0.126419 -0.0101865 -0.777778 8.71766 0.321439 4.36265 0.012919 -0.531035 0.847252
-39.5793 -4.5735 4.28075 -0.400967 -0.112175 0 -0.288889 8.75622 0.160798 5.76689 0.666708 0.0707343 0.741955
-30.534 -2.024 4.2795 -0.706847 0.117378 -0.563177 -0.777778 8.77771 -0.0403753 4.70918 -0.0501962 0.987192 0.151435
-32.5274 -10.3728 14.2142 -0.161324 -0.238009 0 -0.355556 8.7844 -0.174377 2.43775 0.565289 0.637995 -0.522888
-34.0807 -4.81025 1.82325 -0.262563 0.121657 0 -0.165003 8.83719 -0.505076 5.36711 -0.396356 0.895647 0.201787
-40.8904 -4.4085 5.07013 -0.258394 -0.0992922 0 -0.288889 8.8533 0.345272 0.194281 -0.0705653 -0.348085 0.934803
-34.8875 -10.715 14.0465 0.0628927 -0.271698 0.740835 -0.777778 8.85839 -0.825239 2.09089 -0.500286 0.481241 -0.719807
-26.9533 -8.12138 8.86812 0.023154 -0.0214189 0.228777 -0.0888889 8.85864 0.227079 3.70717 -0.170677 0.306102 0.936574
-39.7103 -11.2475 6.627 -0.285025 0.188041 -0.0163221 -0.0592464 8.86905 0.268709 1.10955 -0.881759 0.461065 -0.0995947
-40.7028 -12.5025 9.682 -0.271279 0.152885 0 -0.0888889 8.87527 -0.435801 1.37625 -0.559298 0.816274 -0.144508
-32.0185 -1.359 3.388 -0.66804 0.106986 -0.457025 -0.777778 9.05845 0.999935 4.70918 -0.474648 0.844896 0.246697
-40.49 -12.13 7.679 -0.38662 0.145632 -0.191915 -0.0888889 9.15407 0.83373 1.37625 -0.767545 0.638138 0.0604524
-38.3061 -4.64156 1.7885 -0.317875 0.124163 0 -0.288889 9.16031 -0.469338 5.76689 0.772696 0.573598 0.271893
-36.3025 -5.19994 1.31463 -0.396933 0.110141 0 0.622222 9.16122 -0.650046 5.36711 -0.135275 0.967282 0.214632
-37.91 -11.1103 13.2782 -0.26825 -0.20102 -0.367726 -0.777778 9.30913 0.173948 1.60478 0.07825 0.946358 -0.313502
-32.7163 -2.2705 2.6995 -0.821407 0.146583 -0.0655108 -0.777778 9.31828 0.455057 4.70918 -0.91507 0.393282 0.0893089
-40.7697 -7.24625 4.67725 -0.16182 0.167513 0 0.20411 9.33007 0.187267 0.194281 -0.714739 -0.526074 0.460863
-40.359 -11.8859 11.9531 -0.118509 -0.145598 -0.0849497 -0.81372 9.33093 0.198426 1.37625 -0.49503 0.867286 -0.052547
-39.72 -9.3495 5.1955 -0.207814 0.246476 0 0.622222 9.33517 0.545022 0.194281 -0.880232 -0.386669 -0.275096
-30.1301 -1.08162 9.54225 -0.0335833 0.0807573 0 -0.777778 9.40676 0.999882 4.36265 -0.359144 0.763088 0.537319
-36.0872 -10.7869 14.1771 -0.132737 -0.233534 -0.0216059 -0.777778 9.41045 -0.316844 2.09089 -0.15955 0.821633 -0.547233
-29.6915 -0.818 8.0575 -0.261749 0.136039 0 -0.777778 9.41924 0.585759 4.47071 -0.18737 0.982244 -0.00943878
-27.5305 -9.8405 10.0405 -0.0968397 -0.0771678 0 0.844444 9.42708 0.326484 2.60895 -0.372278 0.76202 0.529843
-41.806 -6.0655 4.664 -0.339903 0.103113 -0.444224 -0.288889 9.53625 0.999887 0.194281 -0.668142 -0.13767 0.731186
-41.0438 -13.0861 8.04025 -0.200323 0.140012 -0.683697 -0.183925 9.53835 -0.433698 1.37625 -0.664936 0.739392 -0.10564
-26.5105 -9.54463 9.64053 0.165154 0.0294355 0.517439 -0.0888889 9.58168 0.0714656 3.32969 0.0954145 0.600885 0.79362
-30.4188 -12.048 13.8679 -0.043596 0.0879365 0 -0.355556 9.67998 0.448615 2.43775 0.598475 0.552858 0.579807
-41.333 -12.4433 11.5216 -0.62812 -0.123029 -0.138688 -1 9.68848 0.529305 1.37625 -0.585854 0.808632 0.0537554
-25.6009 -7.03156 8.74037 -0.12088 0.0408701 0 -0.0888889 9.70318 0.412714 3.70717 0.333288 0.343454 0.878042
-32.6063 -2.82525 1.547 -0.460887 0.133594 -0.466372 -0.777778 9.71669 -0.999882 5.36711 -0.950184 0.265308 0.16359
-39.505 -10.9716 12.796 0.139402 -0.177159 0.0785619 -0.777778 9.72668 0.737034 1.37625 -0.271887 0.934713 -0.228886
-34.8968 -9.2255 14.1401 -0.60122 -0.3342 -0.240331 -0.777778 9.72956 0.218452 2.09089 -0.451702 0.171394 -0.875551
-37.6309 -4.894 0.760625 -0.305554 0.0879662 0 0.4401 9.75129 -0.78656 5.76689 0.35599 0.853998 0.379419
-29.3435 -12.2166 12.8864 -0.103692 -0.0460795 0 0.405144 9.77361 -0.185775 2.60895 0.231882 0.639015 0.733411
-33.428 -9.19088 14.2506 -0.4872 -0.318467 0 -0.777778 9.79058 0.0458954 2.09089 0.403139 0.26184 -0.87688
-39.405 -11.8045 5.651 -0.30288 0.210602 -0.140277 0.443238 9.82466 -0.35332 1.10955 -0.802782 0.345569 -0.485925
-27.7755 -10.4904 11.0693 -0.126984 -0.0789225 0 0.844444 9.82868 0.351079 2.60895 -0.0678355 0.882133 0.46609
-31.08 -1.29131 2.85188 -0.839707 0.113008 -0.502738 -0.777778 9.85082 0.87458 4.70918 0.226045 0.97141 0.072571
-39.2227 -8.85181 4.25631 -0.15133 0.26495 0 0.622222 9.87114 -0.2882 0.194281 -0.697007 -0.510394 -0.503666
-33.8745 -4.44375 0.85425 -0.229711 0.0912849 0 -0.777778 9.8935 -0.863753 5.36711 -0.610094 0.669089 0.424388
-28.0758 -1.937 9.9535 -0.322628 -0.037216 -0.301005 -0.777778 9.9112 0.337707 4.36265 0.086668 0.135083 0.987037
-26.8768 -3.04725 9.7155 -0.551497 0.105624 -0.172312 -0.777778 9.98599 0.999881 3.70717 0.423572 -0.397478 0.814001
-28.7354 -1.89062 4.48138 0.131733 0.15314 0.537714 -0.777778 10.0005 -0.190685 4.70918 -0.134073 0.9067 -0.399899
-42.1951 -4.93669 3.83363 -0.405833 0.121532 -0.0483396 -0.288889 10.0072 0.27189 0.194281 -0.882318 -0.162969 0.441538
-32.1056 -10.1159 15.3395 -0.42847 -0.204226 0 -0.665489 10.0133 0.0998241 2.43775 0.957357 0.167265 -0.235565
-38.6023 -3.22781 1.86181 -0.417577 0.137446 0 -0.288889 10.0482 -0.384238 5.76689 0.954505 0.0227215 0.297327
-40.442 -12.2665 6.05475 -0.511037 0.169916 -0.183078 -0.0888889 10.0676 0.511469 1.10955 -0.727332 0.609407 -0.315612
-26.3368 -3.47775 8.07625 -0.314622 0.135717 -0.043412 -0.777778 10.0703 0.0642912 3.70717 0.900886 -0.221621 0.373214
-26.1284 -4.74762 7.674 -0.54403 0.109291 -0.682695 -0.777778 10.0856 -0.0399944 3.70717 0.843631 0.225336 0.487351
-41.2697 -3.31787 5.51263 -0.0587577 0.0408089 0 -0.288889 10.0899 0.99991 0.194281 -0.228896 0.144192 0.962713
-28.1881 -11.1187 12.3724 -0.134512 -0.0465848 0 0.844444 10.0945 0.874921 2.60895 -0.0755112 0.732897 0.676136
-31.5802 -12.1038 14.9738 0.104375 0.12062 0 -0.355556 10.1261 -0.535244 2.43775 0.858959 0.276041 0.431267
-28.8014 -0.948 5.80925 -0.0396373 0.151586 0 -0.777778 10.1745 0.99977 4.70918 -0.23342 0.901253 -0.365046
-40.3124 -7.47781 3.41987 -0.112871 0.220181 0.240844 -0.288889 10.2105 -0.0424891 0.194281 -0.570349 -0.785454 -0.240342
-33.4766 -3.51219 0.695625 -0.283369 0.0716254 0 -0.288889 10.2416 -0.508533 5.36711 -0.65061 0.291893 0.701075
-32.1995 -1.76988 1.95131 -0.450837 0.14008 -0.485475 -0.777778 10.3563 0.346242 4.70918 -0.237383 0.93881 -0.249569
-28.412 -0.64125 7.73375 0.0304957 0.117831 0 -0.777778 10.3642 0.563801 4.47071 0.0344408 0.999214 0.0196461
-40.1156 -3.0305 5.21513 -0.166004 -0.101772 0 -0.288889 10.4408 0.999861 5.76689 0.613754 0.0165811 0.789323
-38.8596 -2.3095 3.33262 -0.32831 -0.136405 0 -0.288889 10.4466 0.128489 5.76689 0.836238 -0.206014 0.508196
-42.0901 -3.38044 4.73325 -0.0941403 0.104147 0 -0.288889 10.4687 0.747616 0.194281 -0.827295 0.00828891 0.561706
-38.5904 -10.7269 4.25181 -0.149889 0.230254 0 0.622222 10.4723 -0.120345 1.10955 -0.861603 0.0665513 -0.503201
-40.8008 -12.4318 12.956 -0.128194 -0.12864 0 -0.777778 10.5553 -0.481091 1.37625 -0.709488 0.704557 0.0150472
-42.289 -13.2255 9.89275 -0.111366 -0.12407 0 -1 10.6312 -0.0453319 1.37625 -0.359267 0.921563 -0.147135
-34.7426 -4.191 0.26325 -0.267609 0.0504507 0 -0.288889 10.6414 -0.354833 5.36711 -0.340167 0.668509 0.661349
-29.8686 -2.227 2.542 -0.454337 0.138331 0 -0.7391 10.6493 -0.240152 4.70918 0.363008 0.900369 -0.239917
-35.9878 -4.63312 -0.051875 -0.273015 0.0272538 0 -0.241207 10.6737 -0.999864 5.36711 -0.0681136 0.630653 0.77307
-42.0221 -13.5451 8.39062 0.0168605 -0.124723 0 -1 10.6744 -0.553637 1.37625 -0.163188 0.971404 -0.172465
-25.2149 -8.74375 9.0155 0.0799803 0.0109173 0.0671644 -0.215154 10.711 -0.170803 3.70717 0.0383645 0.342632 0.938686
-38.1203 -10.8916 14.6794 -0.126485 -0.177084 0.123317 -0.777778 10.7428 -0.746528 1.60478 0.0215192 0.947063 -0.320325
-38.0385 -4.1545 0.1545 -0.237094 0.0831288 0 -0.288889 10.7907 -0.999886 5.76689 0.715193 0.39173 0.578832
-36.1675 -9.4825 15.0087 -0.202286 -0.250582 -0.237417 -0.777778 10.8791 0.209029 2.09089 -0.61758 0.475743 -0.626309
-32.8725 -1.9635 0.789 -0.277471 0.0595494 -0.134529 -0.354247 10.8948 0.199251 5.36711 -0.481363 0.641157 0.597668
-27.089 -1.7315 9.944 -0.397307 0.0502423 -0.620844 -0.777778 10.9192 0.999911 4.36265 0.421816 0.393945 0.816627
-32.143 -8.6655 15.446 -0.617043 -0.227416 -0.709346 -0.777778 10.9245 0.597635 2.43775 0.802889 0.368909 -0.468269
-31.1272 -13.0831 14.9406 0.11652 0.0980632 0 -0.355556 10.9411 -0.278607 2.43775 0.785536 0.316006 0.532047
-41.8543 -6.81925 3.45994 -0.00523467 0.175495 0.00167843 -0.288889 10.9576 0.999855 0.194281 -0.776072 -0.630333 -0.0198401
-27.9135 -1.04075 9.16788 -0.36029 0.0808261 -0.0723017 -0.777778 10.9875 0.535071 4.36265 0.121379 0.90999 0.396466
-32.3073 -11.1946 16.1602 -0.26152 0.141312 -0.0702043 -0.596816 11.0196 -0.212016 2.43775 0.945388 -0.0136529 0.325662
-28.0855 -12.2205 12.8802 -0.125943 0.0108178 0 0.844444 11.0316 0.65016 2.60895 0.0586968 0.383067 0.921854
-39.5575 -12.9215 5.1585 -0.249104 0.179967 -0.8998 -0.0873027 11.0549 -0.794622 1.10955 -0.580497 0.616135 -0.532353
-33.298 -7.9285 14.51 -0.6619 -0.2863 -0.779746 -0.777778 11.0859 0.713756 2.09089 0.591328 0.552316 -0.587604
-31.183 -1.832 1.72525 -0.651407 0.154307 -0.619464 -0.777778 11.1047 0.576835 4.70918 0.249647 0.832173 -0.49514
-42.1387 -13.7835 7.116 -0.0037128 0.137447 0 -1 11.1319 -0.0477439 1.37625 -0.262337 0.878554 -0.399152
-41.0713 -13.4177 6.42462 -0.290474 0.151825 -0.534868 -0.0888889 11.1879 -0.194701 1.37625 -0.736586 0.592502 -0.326164
-34.386 -7.8435 13.916 -0.55995 -0.374428 -0.152783 -0.777778 11.2199 0.999914 2.09089 -0.0668659 0.376864 -0.923852
-38.1974 -2.14069 1.66594 -0.293067 -0.152507 0 -0.486149 11.2247 -0.508741 5.76689 0.787496 -0.564312 0.247794
3 123 176 141
3 149 160 122
3 149 122 96
3 160 125 87
3 87 125 97
3 180 138 196
3 197 196 138
3 141 79 123
3 97 123 79
3 131 141 175
3 144 131 175
3 128 144 182
3 132 96 83
3 69 81 45
3 66 87 97
3 66 79 46
3 66 46 39
3 79 70 46
3 39 46 31
3 31 46 18
3 70 79 98
3 144 98 131
3 72 144 128
3 88 85 57
3 187 158 117
3 117 158 112
3 188 140 112
3 167 152 95
3 167 95 130
3 130 189 167
3 130 95 90
3 69 90 95
3 90 137 130
3 189 130 137
3 33 50 22
3 50 83 39
3 39 83 63
3 13 31 18
3 18 19 6
3 57 53 27
3 57 27 36
3 36 27 17
3 53 86 75
3 57 101 86
3 194 187 148
3 117 148 187
3 75 117 112
3 112 105 75
3 105 53 75
3 105 102 53
3 102 105 147
3 102 147 164
3 164 150 106
3 136 150 139
3 90 119 157
3 119 173 157
3 119 163 173
3 119 90 115
3 21 33 9
3 22 8 33
3 8 1 3
3 3 1 0
3 8 13 1
3 2 7 4
3 0 1 5
3 17 27 5
3 27 20 5
3 43 20 27
3 68 27 53
3 89 68 106
3 41 64 71
3 93 136 139
3 121 181 142
3 111 77 159
3 159 77 126
3 92 77 65
3 111 115 77
3 61 65 48
3 77 115 90
3 52 45 29
3 9 14 29
3 14 9 3
3 14 3 15
3 9 8 3
3 4 12 15
3 35 12 32
3 35 32 49
3 32 16 56
3 56 16 40
3 40 16 30
3 30 16 7
3 7 23 30
3 7 2 10
3 10 2 11
3 11 24 10
3 47 28 55
3 28 47 26
3 47 91 73
3 76 73 109
3 110 109 73
3 114 109 155
3 162 109 110
3 109 162 161
3 155 109 161
3 110 142 162
3 142 110 91
3 91 121 142
3 65 61 92
3 78 92 61
3 61 35 78
3 78 118 127
3 118 78 82
3 104 94 129
3 74 60 54
3 74 103 108
3 135 103 113
3 113 80 99
3 80 67 99
3 67 54 42
3 103 135 170
3 135 190 170
3 114 67 76
3 67 114 107
3 114 154 107
3 107 154 190
3 127 118 177
3 185 129 169
3 178 151 116
3 94 116 151
3 166 103 170
3 35 48 34
3 149 193 160
3 96 174 149
3 87 96 122
3 87 122 160
3 123 97 138
3 123 138 176
3 138 97 125
3 138 180 176
3 98 79 131
3 131 79 141
3 63 83 96
3 63 96 87
3 39 63 66
3 87 66 63
3 72 38 70
3 18 46 38
3 38 72 62
3 46 70 38
3 144 72 98
3 98 72 70
3 37 18 38
3 62 37 38
3 59 62 88
3 59 88 57
3 88 62 72
3 134 120 85
3 134 85 88
3 184 120 134
3 120 184 145
3 165 112 191
3 158 191 112
3 188 112 165
3 105 140 147
3 192 164 147
3 52 90 69
3 52 69 45
3 5 1 6
3 5 6 17
3 6 19 17
3 17 19 36
3 62 59 37
3 18 37 19
3 19 37 36
3 36 37 59
3 36 59 57
3 117 75 101
3 117 101 148
3 145 148 101
3 75 86 101
3 85 120 101
3 57 85 101
3 101 120 145
3 106 68 102
3 106 102 164
3 89 106 150
3 89 150 136
3 1 13 6
3 11 25 24
3 25 5 20
3 5 25 11
3 41 24 25
3 41 25 44
3 44 25 20
3 89 64 44
3 89 44 43
3 43 44 20
3 44 64 41
3 68 89 43
3 43 27 68
3 71 64 89
3 71 89 100
3 100 89 136
3 93 71 100
3 136 93 100
3 71 93 55
3 91 93 121
3 93 91 55
3 159 172 111
3 126 77 92
3 34 65 77
3 34 77 52
3 34 52 29
3 52 77 90
3 48 65 34
3 14 35 34
3 12 35 15
3 15 35 14
3 29 14 34
3 78 35 49
3 49 84 82
3 82 78 49
3 56 84 49
3 56 49 32
3 94 56 40
3 30 60 40
3 30 54 60
3 42 54 30
3 42 30 23
3 26 23 7
3 26 7 10
3 55 41 71
3 41 55 28
3 41 28 24
3 42 23 51
3 42 51 67
3 51 26 47
3 26 51 23
3 76 67 51
3 76 51 73
3 73 51 47
3 114 76 109
3 199 172 159
3 127 92 78
3 84 104 118
3 84 118 82
3 116 94 60
3 60 108 116
3 74 108 60
3 146 179 183
3 179 146 127
3 126 146 183
3 126 183 159
3 92 127 146
3 92 146 126
3 177 179 127
3 168 177 153
3 168 153 104
3 104 153 118
3 118 153 177
3 185 168 143
3 143 104 129
3 104 143 168
3 129 185 143
3 156 108 166
3 108 156 116
3 125 160 138
3 138 160 197
3 174 132 152
3 132 174 96
3 81 95 83
3 83 95 132
3 132 95 152
3 95 81 69
3 79 66 97
3 88 72 128
3 128 182 134
3 128 134 88
3 81 83 50
3 81 50 58
3 81 58 45
3 33 58 50
3 39 31 13
3 39 13 22
3 39 22 50
3 53 57 86
3 148 198 194
3 198 148 145
3 105 112 140
3 137 90 157
3 137 157 189
3 33 21 45
3 33 45 58
3 13 8 22
3 0 2 4
3 102 68 53
3 121 139 181
3 139 121 93
3 163 119 171
3 111 172 171
3 111 171 115
3 115 171 119
3 29 21 9
3 21 29 45
3 33 8 9
3 0 4 3
3 3 4 15
3 4 16 12
3 16 32 12
3 7 16 4
3 0 5 2
3 11 2 5
3 28 10 24
3 91 47 55
3 73 91 110
3 48 35 61
3 56 94 104
3 56 104 84
3 54 67 80
3 74 54 80
3 74 80 103
3 103 80 113
3 28 26 10
3 99 133 113
3 135 113 190
3 190 113 133
3 186 190 154
3 186 154 155
3 155 154 114
3 124 129 94
3 124 94 151
3 151 178 195
3 151 195 169
3 151 169 124
3 124 169 129
3 103 166 108
3 107 133 99
3 67 107 99
3 107 190 133
3 40 60 94
3 18 6 13
