ply
format ascii 1.0
comment Generated by PyMesh
element vertex 200
property float x
property float y
property float z
property float charge
property float ddc
property float hbond
property float hphob
property float rho
property float si
property float theta
property float nx
property float ny
property float nz
element face 343
property list uchar int vertex_indices
end_header
-36.1942 -1.52581 0.898938 -0.03695 0 0.335718 -0.777778 1e-08 -0.0563223 2.22045e-16 0.200794 -0.884774 0.420543
-36.4637 -2.113 -0.2115 -0.292134 0.241714 0 -0.288889 1.28472 -0.688259 2.70891 -0.0157937 -0.645112 0.763924
-37.416 -1.8825 0.155 -0.18782 -0.117304 0.00899123 -0.546584 1.47427 -0.999882 1.91805 0.413356 -0.677452 0.608436
-34.925 -0.822125 0.624313 -0.166115 0.373965 0.237653 -0.54934 1.47698 -0.056821 4.73999 0.691245 -0.250309 0.677883
-35.0124 -2.15687 0.0776875 -0.360413 -0.383365 0 -0.288889 1.57141 -0.12048 3.73299 -0.132374 -0.269482 0.953864
-35.9363 -1.14137 2.40313 -0.153274 -0.302893 0 -0.777778 1.57382 0.632526 2.22045e-16 0.578249 -0.734484 0.355191
-37.4189 -1.511 2.14619 -0.198334 -0.265511 0 -0.777778 1.74807 -0.105665 0.914176 0.361916 -0.871285 0.331481
-36.2704 -3.198 -0.585813 -0.436477 -0.296522 0 -0.288889 2.44863 -0.999819 2.77089 -0.0350476 -0.118894 0.992288
-35.245 -0.365 1.9245 -0.229509 0.48356 0 -0.777778 2.71825 0.601351 5.63176 0.927783 -0.160929 0.33663
-35.2925 -3.2405 -0.350875 -0.381477 -0.433588 0 -0.288889 2.7699 -0.680327 3.16542 -0.367442 0.0947415 0.925208
-38.1285 -2.969 0.269125 -0.204382 -0.289096 0 -0.288889 2.77855 -0.999833 1.93346 0.843178 -0.22809 0.486853
-38.1974 -2.14069 1.66594 -0.293067 -0.308602 0 -0.486149 2.85857 -0.508741 1.34673 0.787496 -0.564312 0.247794
-35.5675 0.14675 2.96625 -0.263036 0.251314 0 -0.777778 3.02722 0.740087 6.05271 0.750801 -0.123764 0.64883
-36.6226 -0.83575 3.69537 -0.0266754 0.0674437 0.742941 -0.777778 3.06857 0.999884 0.319341 0.20358 -0.500822 0.841268
-37.3666 -3.35194 -0.498563 -0.268494 -0.26972 0 -0.288889 3.08326 -0.999877 2.33096 0.371797 0.0310102 0.927796
-33.3881 -0.907 -0.127625 -0.204074 0.341509 0 -0.288889 3.19007 -0.143303 4.30917 0.358553 0.40405 0.841536
-34.3894 0.790625 0.009625 -0.159551 0.237794 0 -0.676371 3.28409 -0.595087 4.98457 0.660308 -0.00013185 0.750995
-35.0541 1.07375 1.07763 -0.100963 0.315422 0 -0.777778 3.43056 -0.538262 5.31837 0.90533 -0.0469999 0.4221
-38.5714 -0.836875 3.46025 -0.218405 0.150386 0.173197 -0.641544 3.62142 0.0855594 0.790305 0.391656 -0.137736 0.909744
-33.4766 -3.51219 0.695625 -0.283369 -0.390632 0 -0.288889 3.7109 -0.508533 3.48979 -0.65061 0.291893 0.701075
-38.8596 -2.3095 3.33262 -0.32831 -0.195423 0 -0.288889 3.77805 0.128489 1.14233 0.836238 -0.206014 0.508196
-32.8725 -1.9635 0.789 -0.277471 -0.444982 -0.134529 -0.354247 3.83471 0.199251 3.91335 -0.481363 0.641157 0.597668
-33.0566 0.118375 -0.5665 -0.173941 0.182243 0 0.698222 3.88394 -0.529628 4.59589 0.338264 0.0327202 0.940482
-38.0385 -4.1545 0.1545 -0.237094 -0.33801 0 -0.288889 3.97298 -0.999886 2.16428 0.715193 0.39173 0.578832
-35.9878 -4.63312 -0.051875 -0.273015 -0.402573 0 -0.241207 4.00572 -0.999864 2.7675 -0.0681136 0.630653 0.77307
-34.7426 -4.191 0.26325 -0.267609 -0.465729 0 -0.288889 4.02807 -0.354833 3.10725 -0.340167 0.668509 0.661349
-38.6023 -3.22781 1.86181 -0.417577 -0.329343 0 -0.288889 4.03506 -0.384238 1.56139 0.954505 0.0227215 0.297327
-37.097 0.353 3.8695 -0.191528 0.155936 0.168642 -0.777778 4.36028 0.457865 0.0969075 0.176704 -0.136258 0.974787
-36.4315 1.14775 3.6145 -0.328163 0.173499 -0.0427102 -0.777778 4.49988 0.396665 6.07543 0.566569 -0.0350329 0.823269
-35.019 2.274 1.26 -0.0941137 0.23681 0 -0.777778 4.6451 0.270744 5.44244 0.859955 0.0943554 0.501572
-35.5944 1.77725 2.64581 -0.096858 0.26292 0 -0.777778 4.68912 0.473408 5.77096 0.858202 0.155366 0.489234
-33.8745 -4.44375 0.85425 -0.229711 -0.43129 0 -0.777778 4.73623 -0.863753 3.27851 -0.610094 0.669089 0.424388
-34.2067 2.36244 -0.0304375 -0.260987 0.155635 0 -0.777778 4.867 -0.37688 5.12735 0.602862 -0.012522 0.797747
-38.7046 0.434438 3.35763 -0.294465 0.168138 -0.248894 -0.777778 4.90381 -0.684717 0.524293 -0.017559 -0.0932078 0.995492
-31.8857 -1.60984 -0.784625 -0.38807 0.206961 -0.860595 -0.153048 4.97412 -0.327131 4.3759 0.51838 0.297852 0.801603
-37.6309 -4.894 0.760625 -0.305554 -0.415624 0 0.4401 5.01239 -0.78656 2.32281 0.35599 0.853998 0.379419
-32.6063 -2.82525 1.547 -0.460887 -0.420688 -0.466372 -0.777778 5.01287 -0.999882 3.70465 -0.950184 0.265308 0.16359
-31.7221 -2.39494 0.657188 -0.30844 0.38739 -0.295931 -0.340147 5.07041 -0.259311 4.05046 0.407498 0.899155 -0.159577
-31.8854 0.152375 -0.856125 -0.221894 -0.119686 0 0.933333 5.0909 -0.802112 4.61933 0.0564411 -0.15471 0.986346
-32.1995 -1.76988 1.95131 -0.450837 -0.463494 -0.485475 -0.777778 5.19169 0.346242 3.91638 -0.237383 0.93881 -0.249569
-32.9215 1.461 -0.2985 -0.189702 0.136552 0 0.933333 5.25971 0.366122 4.78909 0.183105 -0.0688322 0.980681
-38.3061 -4.64156 1.7885 -0.317875 -0.354428 0 -0.288889 5.48137 -0.469338 1.94302 0.772696 0.573598 0.271893
-36.3025 -5.19994 1.31463 -0.396933 -0.467125 0 0.622222 5.51822 -0.650046 2.65741 -0.135275 0.967282 0.214632
-39.0392 -4.08825 3.2905 -0.343817 -0.217954 0 -0.288889 5.56634 -0.319476 1.47727 0.866152 0.13306 0.481742
-33.0858 -3.63425 2.55325 -0.39717 -0.414812 -0.0935159 -0.777778 5.61311 -0.153587 3.50033 -0.882026 0.453282 0.128706
-36.4515 2.298 3.7275 -0.528223 0.204104 -0.0184521 -0.777778 5.65584 0.999873 6.01887 0.582346 0.298106 0.756311
-40.2346 -1.98538 4.73763 -0.207328 0.17728 0 -0.288889 5.77047 0.366468 0.83011 0.295184 0.348033 0.889797
-32.7163 -2.2705 2.6995 -0.821407 -0.4271 -0.0655108 -0.777778 5.77602 0.455057 3.75518 -0.91507 0.393282 0.0893089
-34.0807 -4.81025 1.82325 -0.262563 -0.436299 0 -0.165003 5.79254 -0.505076 3.15866 -0.396356 0.895647 0.201787
-40.5229 -1.05625 4.39113 -0.126121 0.169522 0 -0.288889 5.79467 0.257831 0.597877 0.0563963 0.254513 0.965423
-37.558 1.975 4.17487 -0.629307 0.149924 -0.614733 -0.777778 6.00565 0.779585 6.01887 0.0352649 0.0157289 0.999254
-35.6632 3.54737 1.66925 -0.096065 0.202084 0 -0.777778 6.12967 0.156373 5.44244 0.694694 0.329017 0.639647
-40.1156 -3.0305 5.21513 -0.166004 -0.120333 0 -0.288889 6.15318 0.999861 0.83011 0.613754 0.0165811 0.789323
-33.4614 3.28387 -0.543375 -0.298216 0.154354 -0.360736 -0.0590029 6.15836 -0.05795 5.12735 0.431141 0.229098 0.872715
-39.6213 1.29762 3.55437 -0.37439 0.125083 -0.00867916 -0.777778 6.17822 -0.440129 0.524293 0.233579 -0.0350575 0.971706
-34.8864 3.69462 0.610563 -0.44281 0.16756 -0.428971 -0.777778 6.21274 -0.056273 5.44244 0.697698 0.177179 0.694136
-31.183 -1.832 1.72525 -0.651407 0.373682 -0.619464 -0.777778 6.23487 0.576835 3.91638 0.249647 0.832173 -0.49514
-36.215 3.1935 2.472 -0.199528 0.244169 0 -0.777778 6.24512 0.213337 5.77096 0.601827 0.538145 0.590088
-31.87 1.445 -0.4295 -0.183959 0.130834 0 0.933333 6.31946 0.424064 4.78909 0.0845076 -0.0101996 0.996371
-30.6003 -0.275 -0.702 -0.222745 0.0558461 0 0.933333 6.45395 0.47541 4.61933 0.29752 -0.343281 0.890865
-31.0072 -2.9275 -0.510875 -0.260717 0.280175 0 -0.777778 6.53978 -0.75846 4.05046 0.507971 0.830996 0.22674
-30.376 -3.0025 0.469 -0.231141 -0.312514 0 -0.777778 6.55921 -0.624391 4.05046 0.243404 0.888192 -0.389705
-38.6125 -5.23581 3.59262 -0.300241 -0.259291 0 0.184466 6.68608 -0.290688 1.47727 0.552816 0.670072 0.495377
-32.0185 -1.359 3.388 -0.66804 -0.355103 -0.457025 -0.777778 6.6969 0.999935 3.75518 -0.474648 0.844896 0.246697
-31.08 -1.29131 2.85188 -0.839707 0.31533 -0.502738 -0.777778 6.70607 0.87458 3.91638 0.226045 0.97141 0.072571
-30.606 -2.2485 -1.8515 -0.350867 0.126441 0 0.372242 6.75842 -0.861368 4.3759 0.546423 0.113876 0.829731
-37.5618 -5.33744 2.60069 -0.375937 -0.389109 0 0.622222 6.7844 -0.432898 1.94302 0.116432 0.978917 0.167823
-39.5793 -4.5735 4.28075 -0.400967 -0.139995 0 -0.288889 6.79426 0.160798 1.47727 0.666708 0.0707343 0.741955
-33.3517 -4.48987 3.43613 -0.318732 -0.37283 0 -0.777778 6.87099 -0.678108 3.50033 -0.704637 0.708257 0.0431058
-40.6965 0.08 4.0655 -0.4047 0.121606 0 -0.288889 6.98934 -0.309121 0.597877 0.230056 0.0183663 0.973004
-37.587 3.07075 3.68775 -0.610613 0.217852 -0.50762 -0.777778 7.02991 0.734447 6.01887 0.226641 0.577705 0.78415
-34.1722 -4.98475 3.09775 -0.222041 -0.393272 0 0.622222 7.08218 -0.5295 3.15866 -0.287157 0.953252 0.0940841
-41.5761 -1.9345 4.50787 -0.204578 0.205116 0 -0.288889 7.13246 0.544704 0.83011 -0.463942 0.467623 0.752388
-32.271 -2.29513 4.08075 -0.67468 -0.305891 -0.14244 -0.777778 7.22748 0.336268 3.75518 -0.588367 0.642445 0.491007
-33.2643 4.08875 -1.24125 -0.260982 0.208904 -0.169393 0.0899142 7.24174 0.0919547 5.12735 0.454571 0.739756 0.49611
-41.7721 -1.25794 3.68622 -0.246846 0.216216 -0.0967526 -0.40594 7.24315 -0.126123 0.597877 -0.822648 0.114956 0.556808
-35.5205 -4.9905 2.8695 -0.362307 -0.436875 0 0.622222 7.27122 0.475207 2.65741 -0.102899 0.986652 0.126215
-41.2697 -3.31787 5.51263 -0.0587577 0.135786 0 -0.288889 7.37916 0.99991 0.83011 -0.228896 0.144192 0.962713
-29.7279 0.5895 -0.70275 -0.179654 0.0728639 0 0.933333 7.68213 0.977569 4.61933 0.440474 -0.169191 0.881678
-34.08 4.646 -0.2085 -0.47229 0.191024 -0.0836404 -0.777778 7.6914 0.868088 5.12735 0.694678 0.54295 0.471834
-33.0223 -3.958 4.60862 -0.405587 -0.33231 0 -0.777778 7.69479 -0.0475736 3.50033 -0.676776 0.735773 0.0247489
-29.8686 -2.227 2.542 -0.454337 -0.274976 0 -0.7391 7.71921 -0.240152 3.91638 0.363008 0.900369 -0.239917
-37.6167 -5.52175 3.63175 -0.326966 -0.326345 0 0.622222 7.72286 -0.309424 1.47727 -0.0906204 0.930519 0.354856
-35.4398 5.106 0.462875 -0.140973 0.200323 -0.00747202 -0.777778 7.73592 0.314164 5.44244 0.568192 0.661566 0.489376
-40.8904 -4.4085 5.07013 -0.258394 0.0731432 0 -0.288889 7.7407 0.345272 0.83011 -0.0705653 -0.348085 0.934803
-31.8743 3.232 -0.751375 -0.141749 0.186923 0 0.933333 7.75987 0.642239 4.78909 0.287089 0.611263 0.737521
-29.097 -2.62 1.232 -0.0443953 -0.270186 0.708644 -0.155556 7.76711 0.0901163 4.05046 -0.0665671 0.910376 -0.408392
-42.1297 0.21025 4.2505 -0.556203 0.119805 -0.251309 -0.777778 7.84543 0.496907 0.597877 -0.463454 -0.274326 0.842589
-30.0037 -1.3065 -1.902 -0.33766 0.0700761 0 0.754404 7.87765 -0.424233 4.3759 0.440059 -0.203184 0.87468
-39.0421 3.00738 3.62512 -0.371083 0.147721 0 -0.777778 7.89525 -0.189517 6.01887 0.235222 0.228087 0.9448
-37.5692 4.24862 2.59262 -0.242175 0.163999 -0.269377 -0.777778 7.96607 -0.287186 6.01887 0.374094 0.371871 0.849568
-40.337 -5.247 4.9125 -0.54352 0.150713 -0.475689 -0.288889 7.98875 -0.0814939 1.47727 -0.235348 0.233348 0.943483
-36.7305 5.051 2.075 -0.170514 0.164068 0 -0.777778 8.0177 0.48802 5.44244 0.619813 0.41907 0.663485
-29.4058 -2.83725 -1.95275 -0.33613 0.158912 0 0.422222 8.09908 -0.388537 4.3759 0.418062 0.552882 0.720795
-41.0505 2.48775 4.56675 -0.473897 0.0804876 0 -0.777778 8.29575 0.363515 0.524293 0.203024 -0.106568 0.973357
-29.9776 2.01312 -0.830625 -0.131788 0.138816 0 0.933333 8.3356 0.515179 4.78909 0.295472 0.380909 0.876131
-41.4772 1.22775 4.66525 -0.871217 0.0924796 -0.649649 -0.777778 8.34231 0.916865 0.597877 -0.00352843 -0.115298 0.993325
-28.9322 -3.57475 -0.422312 -0.259733 -0.24311 0.0518446 -0.157184 8.34987 -0.429332 4.05046 0.177193 0.948521 -0.26251
-33.7136 4.56025 -2.15162 -0.225908 0.205888 -0.529218 -0.0488816 8.36109 -0.99979 5.12735 0.493744 0.799678 0.341661
-30.534 -2.024 4.2795 -0.706847 -0.264249 -0.563177 -0.777778 8.40107 -0.0403753 3.91638 -0.0501962 0.987192 0.151435
-36.4033 -5.22025 3.798 -0.307738 -0.360615 0 0.622222 8.45455 0.63504 1.94302 -0.192443 0.937573 0.289695
-42.0901 -3.38044 4.73325 -0.0941403 0.178338 0 -0.288889 8.51248 0.747616 0.83011 -0.827295 0.00828891 0.561706
-34.769 -5.28237 4.57438 -0.310572 -0.342627 0 0.472631 8.70243 -0.489743 3.15866 -0.440406 0.895197 -0.0683023
-42.4468 -2.0485 2.633 -0.41063 0.201281 0 -0.288889 8.72284 -0.391789 0.597877 -0.822443 0.0439963 0.567143
-29.0264 -0.8405 -2.34175 -0.41057 0.062238 0 0.666653 8.79611 -0.298712 4.61933 0.559273 -0.22417 0.798099
-37.0402 -5.822 4.5435 -0.244789 -0.279768 0 0.622222 8.84258 0.436613 1.47727 -0.347204 0.810193 0.472268
-39.8445 3.57888 4.13925 -0.23738 0.117025 0 -0.777778 9.00646 0.617063 6.01887 0.552164 0.149121 0.820291
-32.5255 -4.007 5.828 -0.40946 -0.257097 0 -0.149668 9.0124 -0.415664 3.50033 -0.477079 0.829495 0.290403
-36.8985 5.6195 1.235 -0.315665 0.218389 -0.430746 -0.777778 9.04581 -0.0759726 5.44244 0.577129 0.803528 0.145822
-36.5909 5.66354 -0.0681541 0.165558 0.220907 0 -0.777778 9.12079 -0.277079 5.44244 0.192136 0.924412 0.329462
-42.4011 -3.13925 3.435 -0.35095 0.219491 0 -0.288889 9.24267 0.415678 0.597877 -0.95444 0.108251 0.278077
-42.7577 -0.231688 2.256 -0.441463 0.172907 -0.829375 -0.777778 9.2606 -0.49933 0.597877 -0.776429 -0.137096 0.615112
-39.3888 -6.33588 5.80237 -0.163987 -0.212467 0 0.622222 9.2737 -0.0663983 1.47727 -0.0383378 0.914225 0.403388
-28.9252 1.9085 -1.19237 -0.121453 0.12949 0 0.933333 9.30195 0.999869 4.78909 0.640734 0.386869 0.663168
-31.2518 3.80475 -2.079 -0.107372 0.181743 0 0.933333 9.33408 0.414665 4.78909 0.355292 0.782052 0.512017
-37.0859 -6.42944 5.42169 -0.218864 -0.245246 0 0.622222 9.3508 -0.812193 1.47727 -0.133285 0.924278 0.357694
-28.3189 -2.3435 3.09025 0.0556827 -0.226488 0.50114 -0.777778 9.36716 -0.482234 3.91638 -0.130167 0.986324 -0.101103
-27.5492 -2.51375 0.8025 -0.0619087 -0.229461 0.0113925 -0.155556 9.37691 -0.120599 4.05046 -0.263077 0.713557 -0.649328
-33.4975 5.05875 -3.01275 -0.096876 0.155007 0 0.933333 9.3793 -0.684934 5.12735 0.306894 0.629665 0.71368
-31.7789 4.47612 -2.80687 -0.230314 0.167275 -0.225921 0.933333 9.43437 -0.140764 5.12735 0.325863 0.754509 0.569675
-42.217 2.568 4.372 -0.524177 0.119546 0 -0.777778 9.48112 0.39463 0.597877 -0.421686 -0.00642154 0.906719
-34.4007 -4.5955 5.6 -0.490827 -0.318619 0 0.422222 9.50841 0.629453 3.50033 -0.54596 0.829982 -0.114273
-29.9763 -1.939 5.25131 -0.205173 -0.252426 0 -0.777778 9.52476 -0.0916818 3.91638 -0.52254 0.817588 -0.24187
-43.0871 1.57525 3.7945 -0.784183 0.142077 -0.0612437 -0.777778 9.57395 0.837786 0.597877 -0.765179 -0.186942 0.61608
-31.387 -3.21175 6.058 -0.489047 -0.241163 -0.551445 -0.777778 9.57932 -0.370034 3.75518 -0.675592 0.718291 0.166235
-42.1951 -4.93669 3.83363 -0.405833 0.172422 -0.0483396 -0.288889 9.61424 0.27189 1.47727 -0.882318 -0.162969 0.441538
-37.853 6.161 2.52325 -0.42339 0.141651 -0.114686 -0.777778 9.65875 0.999865 6.01887 0.485835 0.491831 0.722542
-41.806 -6.0655 4.664 -0.339903 0.132405 -0.444224 -0.288889 9.68865 0.999887 1.47727 -0.668142 -0.13767 0.731186
-34.5864 5.55737 -2.37337 -0.085381 0.170202 -0.411631 0.194682 9.70467 -0.441475 5.12735 0.655781 0.638033 0.403565
-39.1658 4.87844 2.96075 -0.131707 0.135851 0 -0.777778 9.72144 -0.264272 6.01887 0.379436 0.357608 0.853314
-27.8848 -3.35856 -2.33444 -0.236243 0.155412 0 0.422222 9.75162 -0.19103 4.3759 0.404983 0.764178 0.502016
-28.2756 0.54275 -2.18088 -0.234184 0.0788894 0 0.933333 9.75487 0.141038 4.61933 0.653411 -0.0426828 0.755799
-42.0288 3.59275 4.5445 -0.22957 0.128096 0 -0.777778 9.77176 0.742546 0.524293 -0.480291 0.13937 0.865966
-43.2521 -1.776 2.00638 -0.546803 0.137945 -0.1622 -0.777778 9.77897 -0.0637241 0.597877 -0.520021 -0.0834216 0.85007
-27.897 -4.00575 -1.309 -0.584057 -0.192647 0 0.422222 9.77942 -0.999884 4.05046 0.113007 0.983211 0.143266
-35.4403 6.199 -1.359 -0.120619 0.179746 0 -0.0888889 9.86051 0.508466 5.44244 0.397987 0.795831 0.456354
-27.3611 -1.5905 1.81975 -0.126052 -0.212958 0 -0.155556 9.86917 0.603516 4.05046 -0.363097 0.920535 -0.144137
-35.9019 -5.79362 5.36525 -0.244153 -0.282826 0 0.622222 9.9206 -0.18642 3.15866 -0.443094 0.872622 0.205424
-27.9172 -2.3765 -2.96 -0.376537 0.10139 0 0.422222 9.95455 -0.233177 4.3759 0.581996 0.252982 0.77284
-41.0871 4.13737 4.7885 -0.180523 0.123396 0 -0.777778 9.96061 0.999891 0.524293 -0.0134583 0.342001 0.939603
-40.7697 -7.24625 4.67725 -0.16182 0.126687 0 0.20411 10.0478 0.187267 1.47727 -0.714739 -0.526074 0.460863
-29.779 3.11438 -2.143 -0.0635323 0.162078 0 0.933333 10.0603 0.462161 4.78909 0.436958 0.725056 0.532317
-27.1951 -3.55075 -0.111125 -0.455073 -0.214324 -0.648432 -0.155556 10.1148 -0.999858 4.05046 -0.268874 0.776091 -0.57043
-40.3257 -7.13325 6.0125 -0.106588 -0.187166 0 0.622222 10.1723 0.364511 1.47727 -0.902043 0.354241 0.246639
-28.7354 -1.89062 4.48138 0.131733 -0.235203 0.537714 -0.777778 10.2159 -0.190685 3.91638 -0.134073 0.9067 -0.399899
-42.7841 -3.36331 1.97894 -0.300786 0.17168 0 -0.661549 10.2296 -0.38162 0.597877 -0.787829 -0.144723 0.598649
-40.2899 4.84462 3.888 -0.154787 0.134201 0 -0.777778 10.3716 0.409007 6.01887 0.428523 0.453485 0.781486
-37.878 -6.53662 6.06738 -0.320401 -0.24209 0 0.622222 10.3783 -0.406608 1.47727 0.0806288 0.996742 0.00230739
-26.6472 -2.07825 0.52075 -0.210839 -0.207646 0 -0.155556 10.4174 0.487619 4.05046 -0.429878 0.707136 -0.561395
-27.7307 -1.12587 -3.318 -0.4584 0.0553105 -0.130805 0.160383 10.4433 -0.665309 4.61933 0.465009 -0.158384 0.871023
-33.7808 -4.35275 7.259 -0.49901 -0.22697 0 0.422222 10.4797 0.711429 3.50033 -0.30399 0.887822 0.345489
-33.317 5.9805 -3.6345 -0.06924 0.150154 -0.372553 0.933333 10.5057 0.243371 5.12735 0.237444 0.751846 0.615101
-39.8204 -6.49412 6.95056 -0.113353 -0.210718 0 0.622222 10.5105 0.438333 1.47727 -0.617739 0.785837 0.0292997
-43.4664 0.37225 1.41225 -0.43811 0.175262 -0.949832 -0.777778 10.5172 -0.265443 0.597877 -0.876384 -0.0627596 0.477507
-43.0135 2.919 3.737 -0.383727 0.157405 0 -0.777778 10.5585 0.600167 0.597877 -0.797274 0.168796 0.579536
-37.0251 6.31684 -1.27375 -0.104952 0.196756 0 -0.0888889 10.5591 0.0979277 5.44244 -0.110117 0.900605 0.420458
-37.9227 6.81687 1.29125 -0.52478 0.204956 -0.0116655 -0.777778 10.6225 0.999877 5.44244 0.375133 0.923679 -0.0780551
-32.1635 -4.18888 7.43363 -0.193905 -0.193042 0.0533052 0.256529 10.6684 -0.0331682 3.50033 -0.494985 0.710564 0.500088
-27.1737 -2.05825 3.749 0.145123 -0.19769 0 -0.777778 10.7188 -0.513511 3.91638 -0.225108 0.967995 -0.110962
-38.1272 6.00931 -0.45575 0.108842 0.231143 0 -0.0888889 10.7425 -0.187533 5.44244 0.135601 0.983445 -0.120204
-36.7781 -6.53188 6.914 -0.274894 -0.228725 0 0.564384 10.878 -0.548748 1.47727 -0.216885 0.972193 0.0883307
-38.9025 6.7615 2.2985 -0.396377 0.16523 -0.723265 -0.777778 10.8886 0.999884 6.01887 0.000183148 0.796149 0.605101
-40.336 -8.1225 5.43937 -0.0817083 0.165331 0 0.622222 10.9121 0.164308 1.47727 -0.944471 -0.323984 -0.0548503
-28.0018 1.56387 -2.80487 -0.21852 0.111662 -0.509495 -0.238453 10.9825 0.0538795 4.61933 0.454166 0.41808 0.786729
-31.2589 -2.88775 7.42325 -0.124684 -0.192723 0.645326 -0.777778 10.9883 0.0729631 3.75518 -0.944353 0.24938 0.214491
-30.0975 4.0525 -3.2405 -0.0346543 0.153103 0 0.933333 10.9902 0.165923 4.78909 0.401478 0.765056 0.503492
-30.886 -2.0955 6.865 -0.052242 -0.233599 0.559849 -0.777778 11.045 0.422174 3.75518 -0.812348 0.52618 -0.251447
-44.2265 -1.16675 1.407 -0.580857 0.166166 -0.14629 -0.777778 11.0751 0.57672 0.597877 -0.739751 0.220711 0.635654
-43.7072 2.09175 2.51425 -0.662943 0.174993 -0.0961542 -0.777778 11.0873 0.594798 0.597877 -0.958642 0.0444668 0.281118
-42.5649 4.24325 3.52925 -0.236719 0.155231 0 -0.777778 11.0913 0.230999 0.524293 -0.666223 0.382737 0.640046
-35.2217 -5.19338 6.81475 -0.528 -0.246445 0 0.422222 11.0918 0.763676 3.50033 -0.691483 0.696105 0.193104
-41.8543 -6.81925 3.45994 -0.00523467 0.159184 0.00167843 -0.288889 11.11 0.999855 1.47727 -0.776072 -0.630333 -0.0198401
-31.6414 5.8905 -3.73125 -0.6529 0.144991 -0.212067 0.933333 11.1296 0.999875 5.12735 0.401986 0.77649 0.485253
-28.8014 -0.948 5.80925 -0.0396373 -0.219062 0 -0.777778 11.1599 0.99977 3.91638 -0.23342 0.901253 -0.365046
-42.3643 -4.956 2.285 -0.295219 0.190612 0 -0.288889 11.1722 -0.112129 0.597877 -0.933146 -0.299697 0.198547
-35.0695 6.84575 -2.92475 -0.0080558 0.168814 0 -0.0888889 11.187 0.507997 5.12735 0.406296 0.869166 0.281912
-44.481 -2.173 1.411 -0.471517 0.144855 -0.634344 -0.777778 11.201 0.942526 0.597877 -0.771995 -0.0660557 0.632187
-26.9942 0.754 -2.8785 -0.631113 0.0762999 -0.255596 -0.777778 11.2291 0.425699 4.61933 0.409941 0.118383 0.904397
-26.4788 -3.63587 -1.1685 -0.308203 -0.19355 -0.0359081 -0.155556 11.2518 -0.117488 4.05046 -0.206981 0.868101 -0.451177
-28.8137 2.85 -2.93937 0.00363343 0.129942 0.11007 0.0420589 11.2896 -0.159635 4.78909 0.588063 0.549134 0.59383
-41.4459 5.14194 3.975 -0.152148 0.140065 0 -0.777778 11.3021 0.444238 0.524293 -0.247794 0.510356 0.823489
-36.1656 7.14062 -2.26456 -0.04501 0.174597 0 -0.0888889 11.3547 0.999845 5.44244 0.226194 0.925586 0.303524
-26.9059 -3.06125 -3.65313 -0.182421 -0.0947843 0 0.422222 11.3588 -0.885491 4.3759 0.443126 0.344826 0.827487
-30.7458 5.03088 -4.33475 -0.248914 0.142161 -0.773256 0.933333 11.3604 -0.077099 5.12735 0.558047 0.729552 0.395395
-26.5276 -4.14087 -2.73962 -0.302821 -0.154989 0 0.422222 11.3697 -0.93533 4.3759 0.296119 0.935602 0.192256
-35.753 -6.076 6.7845 -0.291349 -0.233826 0 0.422222 11.3753 -0.522238 3.15866 -0.619832 0.760206 0.194666
-26.3416 -1.54663 2.94225 -0.0907273 -0.176017 0 -0.155556 11.3862 0.2302 4.05046 -0.292567 0.943917 0.153052
-40.3124 -7.47781 3.41987 -0.112871 0.169668 0.240844 -0.288889 11.4056 -0.0424891 1.47727 -0.570349 -0.785454 -0.240342
-34.3316 6.79838 -3.889 0.165188 0.157869 0.786218 0.933333 11.4982 0.476155 5.12735 0.363371 0.866528 0.342184
-39.8805 6.407 2.3535 -0.216176 0.168234 -0.596574 -0.777778 11.5148 0.0722123 6.01887 0.0555998 0.834161 0.548712
-27.589 -1.389 4.9675 -0.0482867 -0.201311 0.0116611 -0.777778 11.5583 0.374897 3.91638 0.112893 0.900328 -0.420314
-43.381 3.104 2.787 -0.50053 0.168248 0 -0.777778 11.5938 -0.581702 0.597877 -0.901441 0.172538 0.397031
-43.7235 -4.16962 1.3335 -0.250244 0.104875 0 -0.777778 11.6257 0.236156 0.597877 -0.368419 -0.150679 0.917368
-25.9555 -2.4545 -0.441 -0.0252898 -0.192424 -0.061524 -0.155556 11.6604 0.749932 4.05046 -0.278493 0.730613 -0.623416
-30.2841 -1.28112 7.27375 0.00153567 -0.221973 0.0142818 -0.777778 11.6737 0.466831 3.75518 -0.515091 0.80885 -0.283626
-25.6098 -1.29875 1.40572 -0.130732 -0.180268 0 -0.155556 11.6922 0.43465 4.05046 -0.198089 0.951686 -0.234635
-40.3073 -8.2845 7.0405 -0.250848 -0.149352 0 0.622222 11.7159 0.503443 1.47727 -0.983741 -0.144484 0.106671
-44.243 -3.201 1.1145 -0.36229 0.138211 -0.518956 -0.777778 11.7304 -0.0519475 0.597877 -0.699789 -0.0724048 0.710671
-26.2812 -1.79919 4.2275 -0.069051 -0.163253 0 -0.155556 11.764 0.0459914 3.91638 0.0486875 0.978856 0.19867
-43.9055 1.411 0.7435 -0.38372 0.159001 -0.647603 -0.731169 11.8283 -0.263171 0.597877 -0.874578 -0.0774757 0.478656
3 143 196 152
3 187 162 140
3 140 171 187
3 140 162 91
3 143 91 162
3 91 127 140
3 171 140 127
3 91 84 125
3 84 101 125
3 84 77 101
3 84 91 67
3 145 125 110
3 145 110 103
3 145 103 133
3 197 145 133
3 110 101 75
3 101 72 75
3 46 49 72
3 75 72 49
3 43 62 26
3 26 62 41
3 66 62 82
3 43 67 62
3 100 82 105
3 62 67 91
3 112 152 147
3 137 170 121
3 137 121 102
3 121 150 80
3 80 150 107
3 107 150 157
3 167 133 111
3 123 96 120
3 120 96 94
3 120 94 132
3 50 54 33
3 69 96 87
3 87 49 69
3 87 75 49
3 18 49 46
3 33 18 13
3 18 20 6
3 18 6 13
3 82 100 66
3 76 66 100
3 100 137 76
3 76 48 42
3 48 76 71
3 44 73 47
3 166 124 164
3 166 194 122
3 168 153 123
3 123 153 111
3 169 154 132
3 132 154 120
3 139 180 169
3 180 139 146
3 139 106 146
3 146 106 129
3 70 89 50
3 106 94 89
3 90 70 57
3 57 51 90
3 30 45 28
3 28 50 27
3 28 27 12
3 50 33 27
3 9 24 25
3 42 48 25
3 9 25 19
3 4 21 15
3 21 47 39
3 39 56 37
3 56 81 37
3 81 64 99
3 81 99 116
3 116 99 144
3 73 99 64
3 144 173 190
3 190 158 144
3 161 189 129
3 108 159 156
3 126 92 108
3 92 126 90
3 51 55 83
3 51 57 30
3 29 30 17
3 8 30 12
3 28 12 30
3 5 6 0
3 22 3 15
3 8 5 3
3 5 0 3
3 0 4 3
3 9 19 4
3 40 22 38
3 78 58 59
3 38 59 58
3 58 78 95
3 104 59 88
3 104 88 93
3 97 61 86
3 148 117 136
3 117 86 136
3 116 158 136
3 136 158 186
3 93 130 138
3 155 159 109
3 155 109 135
3 181 155 135
3 135 83 128
3 74 53 85
3 79 53 74
3 53 55 32
3 32 55 29
3 29 17 32
3 32 17 16
3 40 58 53
3 163 131 177
3 104 138 149
3 131 163 179
3 172 151 118
3 183 172 119
3 183 119 165
3 118 119 172
3 114 119 85
3 114 85 141
3 141 85 95
3 85 53 58
3 128 188 175
3 137 105 115
3 112 91 143
3 112 143 152
3 125 174 171
3 197 192 145
3 75 103 110
3 26 20 43
3 41 62 66
3 115 82 62
3 115 62 112
3 115 112 147
3 112 62 91
3 105 82 115
3 160 137 115
3 170 137 185
3 185 137 160
3 147 160 115
3 76 137 102
3 102 68 71
3 71 76 102
3 80 68 102
3 80 102 121
3 73 80 107
3 157 124 107
3 157 164 124
3 199 153 168
3 111 153 167
3 87 111 75
3 103 75 111
3 103 111 133
3 89 94 54
3 89 54 50
3 54 94 96
3 33 54 49
3 49 54 69
3 69 54 96
3 18 33 49
3 11 6 20
3 11 20 26
3 42 66 76
3 68 44 48
3 68 48 71
3 99 73 124
3 124 122 99
3 166 122 124
3 89 129 106
3 90 129 89
3 90 89 70
3 0 6 2
3 0 2 1
3 1 2 7
3 7 2 14
3 14 2 10
3 26 10 11
3 11 10 2
3 11 2 6
3 35 24 23
3 23 24 14
3 24 35 42
3 41 35 23
3 41 23 26
3 26 23 10
3 10 23 14
3 14 24 7
3 66 42 35
3 66 35 41
3 9 7 24
3 25 24 42
3 19 25 31
3 19 31 44
3 44 31 48
3 48 31 25
3 21 19 36
3 36 44 47
3 44 36 19
3 4 19 21
3 47 21 36
3 15 37 34
3 37 21 39
3 21 37 15
3 60 34 37
3 60 37 61
3 81 86 37
3 37 86 61
3 116 86 81
3 144 122 173
3 122 144 99
3 190 198 158
3 198 186 158
3 178 148 193
3 130 178 184
3 92 83 108
3 29 51 30
3 17 30 8
3 16 17 3
3 16 3 22
3 3 17 8
3 1 4 0
3 4 1 7
3 4 7 9
3 32 16 22
3 32 22 40
3 15 34 22
3 22 34 38
3 38 34 59
3 93 65 60
3 65 88 59
3 60 65 34
3 97 93 60
3 61 97 60
3 34 65 59
3 93 88 65
3 130 93 134
3 134 93 97
3 97 142 134
3 130 134 178
3 178 134 142
3 142 97 117
3 148 178 142
3 148 142 117
3 116 136 86
3 149 138 182
3 130 182 138
3 184 182 130
3 151 188 118
3 118 128 98
3 98 128 79
3 128 118 188
3 119 118 98
3 85 119 74
3 74 119 98
3 74 98 79
3 51 29 55
3 40 53 32
3 149 177 131
3 131 104 149
3 114 165 119
3 141 165 114
3 58 95 85
3 141 179 165
3 162 196 143
3 127 91 125
3 127 125 171
3 125 145 174
3 101 110 125
3 77 84 52
3 77 52 46
3 46 72 77
3 77 72 101
3 43 20 52
3 43 52 67
3 67 52 84
3 52 20 46
3 150 121 170
3 197 133 176
3 176 133 167
3 96 123 87
3 123 111 87
3 20 18 46
3 105 137 100
3 80 73 44
3 80 44 68
3 120 154 123
3 168 123 154
3 168 154 191
3 139 132 94
3 139 94 106
3 139 169 132
3 45 70 50
3 45 50 28
3 30 57 45
3 57 70 45
3 5 13 6
3 13 5 12
3 13 12 27
3 13 27 33
3 63 47 73
3 63 73 64
3 64 81 56
3 64 56 39
3 64 39 63
3 63 39 47
3 194 173 122
3 161 126 156
3 126 161 129
3 126 129 90
3 156 126 108
3 90 51 92
3 92 51 83
3 5 8 12
3 15 3 4
3 78 59 104
3 97 86 117
3 116 144 158
3 136 186 195
3 195 148 136
3 109 83 135
3 55 53 79
3 55 79 83
3 128 83 79
3 40 38 58
3 104 131 78
3 78 131 113
3 78 113 95
3 104 93 138
3 175 181 128
3 135 128 181
3 113 131 179
3 179 141 113
3 113 141 95
3 107 124 73
3 108 83 109
3 108 109 159
