ply
format ascii 1.0
comment Generated by PyMesh
element vertex 199
property float x
property float y
property float z
property float nx
property float ny
property float nz
element face 341
property list uchar int vertex_indices
end_header
-34.0807 -4.81025 1.82325 -0.396356 0.895647 0.201787
-33.8745 -4.44375 0.85425 -0.610094 0.669089 0.424388
-34.1722 -4.98475 3.09775 -0.287157 0.953252 0.0940841
-33.0858 -3.63425 2.55325 -0.882026 0.453282 0.128706
-35.5205 -4.9905 2.8695 -0.102899 0.986652 0.126215
-33.3517 -4.48987 3.43613 -0.704637 0.708257 0.0431058
-34.7426 -4.191 0.26325 -0.340167 0.668509 0.661349
-33.4766 -3.51219 0.695625 -0.65061 0.291893 0.701075
-36.3025 -5.19994 1.31463 -0.135275 0.967282 0.214632
-34.769 -5.28237 4.57438 -0.440406 0.895197 -0.0683023
-35.2925 -3.2405 -0.350875 -0.367442 0.0947415 0.925208
-32.6063 -2.82525 1.547 -0.950184 0.265308 0.16359
-36.4033 -5.22025 3.798 -0.192443 0.937573 0.289695
-32.7163 -2.2705 2.6995 -0.91507 0.393282 0.0893089
-33.0223 -3.958 4.60862 -0.676776 0.735773 0.0247489
-35.9878 -4.63312 -0.051875 -0.0681136 0.630653 0.77307
-32.8725 -1.9635 0.789 -0.481363 0.641157 0.597668
-37.6309 -4.894 0.760625 0.35599 0.853998 0.379419
-37.5618 -5.33744 2.60069 0.116432 0.978917 0.167823
-32.271 -2.29513 4.08075 -0.588367 0.642445 0.491007
-36.2704 -3.198 -0.585813 -0.0350476 -0.118894 0.992288
-32.1995 -1.76988 1.95131 -0.237383 0.93881 -0.249569
-34.4007 -4.5955 5.6 -0.54596 0.829982 -0.114273
-35.0124 -2.15687 0.0776875 -0.132374 -0.269482 0.953864
-37.0402 -5.822 4.5435 -0.347204 0.810193 0.472268
-37.6167 -5.52175 3.63175 -0.0906204 0.930519 0.354856
-35.9019 -5.79362 5.36525 -0.443094 0.872622 0.205424
-32.5255 -4.007 5.828 -0.477079 0.829495 0.290403
-32.0185 -1.359 3.388 -0.474648 0.844896 0.246697
-38.0385 -4.1545 0.1545 0.715193 0.39173 0.578832
-31.7221 -2.39494 0.657188 0.407498 0.899155 -0.159577
-38.3061 -4.64156 1.7885 0.772696 0.573598 0.271893
-37.3666 -3.35194 -0.498563 0.371797 0.0310102 0.927796
-31.183 -1.832 1.72525 0.249647 0.832173 -0.49514
-36.4637 -2.113 -0.2115 -0.0157937 -0.645112 0.763924
-33.3881 -0.907 -0.127625 0.358553 0.40405 0.841536
-37.0859 -6.42944 5.42169 -0.133285 0.924278 0.357694
-38.6125 -5.23581 3.59262 0.552816 0.670072 0.495377
-31.08 -1.29131 2.85188 0.226045 0.97141 0.072571
-30.534 -2.024 4.2795 -0.0501962 0.987192 0.151435
-34.925 -0.822125 0.624313 0.691245 -0.250309 0.677883
-35.2217 -5.19338 6.81475 -0.691483 0.696105 0.193104
-36.1942 -1.52581 0.898938 0.200794 -0.884774 0.420543
-35.753 -6.076 6.7845 -0.619832 0.760206 0.194666
-31.387 -3.21175 6.058 -0.675592 0.718291 0.166235
-33.7808 -4.35275 7.259 -0.30399 0.887822 0.345489
-37.416 -1.8825 0.155 0.413356 -0.677452 0.608436
-38.1285 -2.969 0.269125 0.843178 -0.22809 0.486853
-32.1635 -4.18888 7.43363 -0.494985 0.710564 0.500088
-36.7781 -6.53188 6.914 -0.216885 0.972193 0.0883307
-37.878 -6.53662 6.06738 0.0806288 0.996742 0.00230739
-33.0566 0.118375 -0.5665 0.338264 0.0327202 0.940482
-31.0072 -2.9275 -0.510875 0.507971 0.830996 0.22674
-30.376 -3.0025 0.469 0.243404 0.888192 -0.389705
-38.6023 -3.22781 1.86181 0.954505 0.0227215 0.297327
-39.0392 -4.08825 3.2905 0.866152 0.13306 0.481742
-31.8857 -1.60984 -0.784625 0.51838 0.297852 0.801603
-39.5793 -4.5735 4.28075 0.666708 0.0707343 0.741955
-29.9763 -1.939 5.25131 -0.52254 0.817588 -0.24187
-29.8686 -2.227 2.542 0.363008 0.900369 -0.239917
-35.245 -0.365 1.9245 0.927783 -0.160929 0.33663
-31.2589 -2.88775 7.42325 -0.944353 0.24938 0.214491
-34.8674 -5.60225 8.20088 -0.382486 0.708639 0.592904
-30.886 -2.0955 6.865 -0.812348 0.52618 -0.251447
-35.9363 -1.14137 2.40313 0.578249 -0.734484 0.355191
-34.3894 0.790625 0.009625 0.660308 -0.00013185 0.750995
-28.7354 -1.89062 4.48138 -0.134073 0.9067 -0.399899
-40.337 -5.247 4.9125 -0.235348 0.233348 0.943483
-37.4189 -1.511 2.14619 0.361916 -0.871285 0.331481
-31.8854 0.152375 -0.856125 0.0564411 -0.15471 0.986346
-35.0541 1.07375 1.07763 0.90533 -0.0469999 0.4221
-36.2115 -6.49013 8.4785 -0.198481 0.832854 0.516681
-38.1974 -2.14069 1.66594 0.787496 -0.564312 0.247794
-39.3888 -6.33588 5.80237 -0.0383378 0.914225 0.403388
-31.5397 -5.06975 8.558 -0.181328 0.312937 0.932304
-29.097 -2.62 1.232 -0.0665671 0.910376 -0.408392
-30.8317 -4.04781 8.4385 -0.540475 0.0841614 0.83714
-32.9215 1.461 -0.2985 0.183105 -0.0688322 0.980681
-33.1136 -5.69175 8.441 -0.0804986 0.527094 0.845986
-37.5353 -6.48425 8.23575 0.0970878 0.959624 0.263998
-30.606 -2.2485 -1.8515 0.546423 0.113876 0.829731
-38.5578 -5.97625 7.695 -0.022914 0.993538 0.111163
-28.3189 -2.3435 3.09025 -0.130167 0.986324 -0.101103
-40.8904 -4.4085 5.07013 -0.0705653 -0.348085 0.934803
-38.8596 -2.3095 3.33262 0.836238 -0.206014 0.508196
-28.9322 -3.57475 -0.422312 0.177193 0.948521 -0.26251
-35.5675 0.14675 2.96625 0.750801 -0.123764 0.64883
-30.2841 -1.28112 7.27375 -0.515091 0.80885 -0.283626
-28.8014 -0.948 5.80925 -0.23342 0.901253 -0.365046
-39.8204 -6.49412 6.95056 -0.617739 0.785837 0.0292997
-30.6003 -0.275 -0.702 0.29752 -0.343281 0.890865
-40.1156 -3.0305 5.21513 0.613754 0.0165811 0.789323
-31.284 -1.93062 8.35487 -0.967646 0.251675 0.0178941
-29.4058 -2.83725 -1.95275 0.418062 0.552882 0.720795
-30.7165 -5.80762 8.67513 -0.00172286 0.136058 0.990699
-27.589 -1.389 4.9675 0.112893 0.900328 -0.420314
-35.019 2.274 1.26 0.859955 0.0943554 0.501572
-31.87 1.445 -0.4295 0.0845076 -0.0101996 0.996371
-34.8695 -6.857 9.14087 -0.190404 0.275077 0.942379
-36.6226 -0.83575 3.69537 0.20358 -0.500822 0.841268
-40.3257 -7.13325 6.0125 -0.902043 0.354241 0.246639
-34.2067 2.36244 -0.0304375 0.602862 -0.012522 0.797747
-30.0037 -1.3065 -1.902 0.440059 -0.203184 0.87468
-30.3359 -3.20906 9.39494 -0.518284 -0.519009 0.679714
-33.6727 -6.60225 9.258 0.0702203 0.288359 0.954944
-36.9893 -7.27563 9.55737 0.139151 0.628387 0.765354
-41.806 -6.0655 4.664 -0.668142 -0.13767 0.731186
-27.1737 -2.05825 3.749 -0.225108 0.967995 -0.110962
-35.5774 -7.80863 9.09609 0.168083 0.200091 0.965252
-29.5184 -4.752 8.38488 -0.0909488 -0.0927838 0.991524
-27.5492 -2.51375 0.8025 -0.263077 0.713557 -0.649328
-32.0638 -6.682 8.86012 0.125745 0.107356 0.986237
-35.5944 1.77725 2.64581 0.858202 0.155366 0.489234
-38.5714 -0.836875 3.46025 0.391656 -0.137736 0.909744
-41.2697 -3.31787 5.51263 -0.228896 0.144192 0.962713
-29.6915 -0.818 8.0575 -0.18737 0.982244 -0.00943878
-40.7697 -7.24625 4.67725 -0.714739 -0.526074 0.460863
-39.2218 -6.73138 8.81181 -0.384019 0.697497 0.605002
-42.1951 -4.93669 3.83363 -0.882318 -0.162969 0.441538
-27.897 -4.00575 -1.309 0.113007 0.983211 0.143266
-33.4614 3.28387 -0.543375 0.431141 0.229098 0.872715
-30.5637 -1.03225 8.513 -0.50348 0.858874 0.0940354
-29.7279 0.5895 -0.70275 0.440474 -0.169191 0.881678
-40.2346 -1.98538 4.73763 0.295184 0.348033 0.889797
-36.4315 1.14775 3.6145 0.566569 -0.0350329 0.823269
-27.3611 -1.5905 1.81975 -0.363097 0.920535 -0.144137
-40.364 -7.339 7.8165 -0.928574 0.228913 0.292146
-30.897 -2.10525 9.48612 -0.822547 0.156029 0.546874
-42.0901 -3.38044 4.73325 -0.827295 0.00828891 0.561706
-26.7374 -1.6605 5.6375 0.636246 0.771467 -0.00537523
-30.4287 -7.0005 8.672 0.0960066 -0.186931 0.97767
-27.1951 -3.55075 -0.111125 -0.268874 0.776091 -0.57043
-27.3608 -0.706375 6.498 0.486007 0.865123 -0.123934
-40.336 -8.1225 5.43937 -0.944471 -0.323984 -0.0548503
-37.097 0.353 3.8695 0.176704 -0.136258 0.974787
-29.3855 -6.38375 8.73913 0.0195532 -0.0457732 0.99876
-26.2812 -1.79919 4.2275 0.0486875 0.978856 0.19867
-27.8848 -3.35856 -2.33444 0.404983 0.764178 0.502016
-29.0264 -0.8405 -2.34175 0.559273 -0.22417 0.798099
-35.6632 3.54737 1.66925 0.694694 0.329017 0.639647
-40.3073 -8.2845 7.0405 -0.983741 -0.144484 0.106671
-26.6472 -2.07825 0.52075 -0.429878 0.707136 -0.561395
-34.8864 3.69462 0.610563 0.697698 0.177179 0.694136
-28.412 -0.64125 7.73375 0.0344408 0.999214 0.0196461
-28.6159 -4.103 8.78575 -0.127365 -0.419006 0.899006
-27.9172 -2.3765 -2.96 0.581996 0.252982 0.77284
-26.3416 -1.54663 2.94225 -0.292567 0.943917 0.153052
-35.8405 -9.07938 9.28952 0.16897 0.166588 0.971441
-41.8543 -6.81925 3.45994 -0.776072 -0.630333 -0.0198401
-37.1741 -8.64888 9.92513 0.048268 -0.00831849 0.9988
-38.4269 -7.34469 9.6155 -0.347538 0.211085 0.913597
-31.8743 3.232 -0.751375 0.287089 0.611263 0.737521
-38.7046 0.434438 3.35763 -0.017559 -0.0932078 0.995492
-32.587 -7.96 8.83225 0.225255 -0.143861 0.96362
-31.1874 -7.7385 8.66362 0.213163 -0.24042 0.946974
-40.5229 -1.05625 4.39113 0.0563963 0.254513 0.965423
-33.2643 4.08875 -1.24125 0.454571 0.739756 0.49611
-29.6869 -2.135 10.464 -0.135996 0.0734229 0.987985
-30.1301 -1.08162 9.54225 -0.359144 0.763088 0.537319
-36.4515 2.298 3.7275 0.582346 0.298106 0.756311
-29.9776 2.01312 -0.830625 0.295472 0.380909 0.876131
-28.1798 -5.60975 8.74925 -0.0910693 -0.0840283 0.992293
-40.3124 -7.47781 3.41987 -0.570349 -0.785454 -0.240342
-36.215 3.1935 2.472 0.601827 0.538145 0.590088
-26.6357 -1.76762 6.632 0.817263 0.575883 0.0209652
-28.4487 -3.04075 9.69425 0.012919 -0.531035 0.847252
-41.5761 -1.9345 4.50787 -0.463942 0.467623 0.752388
-33.7349 -8.84456 9.08519 0.115588 0.207804 0.971317
-26.4788 -3.63587 -1.1685 -0.206981 0.868101 -0.451177
-42.4011 -3.13925 3.435 -0.95444 0.108251 0.278077
-25.726 -2.298 5.1635 0.641728 0.601919 0.475267
-42.3643 -4.956 2.285 -0.933146 -0.299697 0.198547
-34.08 4.646 -0.2085 0.694678 0.54295 0.471834
-37.558 1.975 4.17487 0.0352649 0.0157289 0.999254
-39.669 -8.315 8.716 -0.795708 -0.188115 0.575727
-28.9252 1.9085 -1.19237 0.640734 0.386869 0.663168
-30.332 -8.3075 8.105 0.0781791 -0.157487 0.984422
-26.9067 -1.372 7.635 0.710425 0.703444 -0.0215234
-39.72 -9.3495 5.1955 -0.880232 -0.386669 -0.275096
-39.757 -9.28 6.953 -0.878225 -0.449744 0.162637
-25.9555 -2.4545 -0.441 -0.278493 0.730613 -0.623416
-25.6098 -1.29875 1.40572 -0.198089 0.951686 -0.234635
-27.9135 -1.04075 9.16788 0.121379 0.90999 0.396466
-29.0284 -7.79625 8.346 -0.0886754 -0.171318 0.981217
-25.8297 -2.79912 6.55681 0.906418 0.333431 0.259289
-27.338 -4.10925 8.95088 0.322271 -0.309991 0.894453
-27.7307 -1.12587 -3.318 0.465009 -0.158384 0.871023
-28.2756 0.54275 -2.18088 0.653411 -0.0426828 0.755799
-39.2227 -8.85181 4.25631 -0.697007 -0.510394 -0.503666
-36.6522 -10.0513 9.55838 -0.0113421 0.00129904 0.999935
-24.9409 -1.16275 3.63575 -0.0539669 0.919924 0.388365
-26.9059 -3.06125 -3.65313 0.443126 0.344826 0.827487
-26.5276 -4.14087 -2.73962 0.296119 0.935602 0.192256
-33.7136 4.56025 -2.15162 0.493744 0.799678 0.341661
-25.1295 -1.6415 0.5245 -0.0893641 0.890378 -0.446365
-35.4398 5.106 0.462875 0.568192 0.661566 0.489376
-40.6965 0.08 4.0655 0.230056 0.0183663 0.973004
-39.6213 1.29762 3.55437 0.233579 -0.0350575 0.971706
-35.6166 -10.4596 9.67712 -0.132272 0.297605 0.945481
3 100 140 89
3 162 188 133
3 162 133 116
3 116 148 162
3 116 133 67
3 100 67 133
3 67 106 116
3 148 116 106
3 117 174 150
3 189 198 147
3 67 83 118
3 83 128 118
3 83 114 128
3 83 67 57
3 81 117 79
3 150 105 117
3 105 108 71
3 71 108 98
3 105 149 108
3 104 78 62
3 98 108 167
3 123 155 166
3 55 37 54
3 54 37 31
3 18 37 25
3 55 57 37
3 12 25 24
3 37 57 67
3 73 89 50
3 79 49 50
3 49 79 71
3 49 71 43
3 79 105 71
3 62 41 43
3 26 41 22
3 26 22 9
3 22 45 14
3 14 45 27
3 27 45 48
3 48 45 78
3 78 74 48
3 78 104 111
3 111 104 153
3 153 154 111
3 135 130 183
3 130 135 94
3 144 161 185
3 173 197 152
3 113 155 123
3 152 113 99
3 113 84 68
3 113 68 99
3 25 12 18
3 4 18 12
3 12 26 4
3 4 0 8
3 0 4 2
3 3 19 13
3 63 44 61
3 63 87 58
3 115 87 121
3 121 92 127
3 92 103 127
3 103 61 76
3 87 115 143
3 115 182 143
3 165 103 144
3 103 165 157
3 132 177 164
3 164 184 129
3 112 159 124
3 124 173 134
3 124 134 86
3 173 152 134
3 10 15 6
3 8 0 6
3 10 6 7
3 23 16 35
3 16 13 21
3 21 33 30
3 33 59 30
3 59 38 39
3 59 39 82
3 82 39 66
3 19 39 38
3 88 87 143
3 88 143 132
3 177 132 143
3 66 88 95
3 95 107 66
3 180 141 194
3 181 194 141
3 139 142 195
3 139 163 112
3 96 112 70
3 60 112 86
3 124 86 112
3 64 68 42
3 51 40 35
3 60 64 40
3 64 42 40
3 42 23 40
3 10 7 23
3 77 51 69
3 122 97 90
3 69 90 97
3 97 122 160
3 138 90 102
3 138 102 93
3 85 53 75
3 141 110 125
3 110 75 125
3 82 107 125
3 125 107 146
3 93 137 145
3 156 120 151
3 172 120 156
3 120 142 101
3 101 142 96
3 96 70 101
3 101 70 65
3 77 97 120
3 138 145 186
3 151 120 97
3 26 24 36
3 73 67 100
3 73 100 89
3 167 108 147
3 118 171 148
3 108 149 147
3 54 84 55
3 31 37 18
3 36 25 37
3 36 37 73
3 36 73 50
3 73 37 67
3 24 25 36
3 49 26 36
3 41 26 43
3 43 26 49
3 50 49 36
3 4 26 9
3 9 5 2
3 2 4 9
3 14 5 9
3 14 9 22
3 19 14 27
3 48 44 27
3 48 61 44
3 76 61 48
3 76 48 74
3 94 74 78
3 94 78 111
3 176 183 130
3 176 130 154
3 76 74 109
3 76 109 103
3 109 94 135
3 94 109 74
3 144 103 109
3 144 109 161
3 161 109 135
3 165 144 185
3 152 197 155
3 155 197 196
3 113 152 155
3 72 68 84
3 72 84 54
3 8 18 4
3 5 3 0
3 5 0 2
3 39 19 44
3 44 58 39
3 63 58 44
3 136 129 170
3 170 129 184
3 42 68 46
3 42 46 34
3 34 46 20
3 20 46 32
3 32 46 47
3 54 47 72
3 72 47 46
3 72 46 68
3 17 15 29
3 29 15 32
3 15 17 8
3 31 17 29
3 31 29 54
3 54 29 47
3 47 29 32
3 32 15 20
3 18 8 17
3 18 17 31
3 10 20 15
3 6 15 8
3 7 6 1
3 7 1 3
3 3 1 0
3 0 1 6
3 16 7 11
3 11 3 13
3 3 11 7
3 23 7 16
3 13 16 11
3 35 30 56
3 30 16 21
3 16 30 35
3 52 56 30
3 52 30 53
3 59 75 30
3 30 75 53
3 82 75 59
3 66 58 88
3 58 66 39
3 129 136 95
3 95 136 107
3 136 146 107
3 168 141 180
3 137 168 192
3 96 139 112
3 70 112 60
3 65 70 40
3 65 40 51
3 40 70 60
3 34 23 42
3 23 34 20
3 23 20 10
3 101 65 51
3 101 51 77
3 35 56 51
3 51 56 69
3 69 56 90
3 93 80 52
3 80 102 90
3 52 80 56
3 85 93 52
3 53 85 52
3 56 80 90
3 93 102 80
3 137 93 119
3 119 93 85
3 85 131 119
3 137 119 168
3 168 119 131
3 131 85 110
3 141 168 131
3 141 131 110
3 82 125 75
3 186 145 191
3 137 191 145
3 192 191 137
3 156 193 172
3 139 96 142
3 77 120 101
3 187 138 186
3 97 160 151
3 140 133 179
3 179 133 178
3 178 133 188
3 133 140 100
3 140 179 174
3 140 174 126
3 140 126 89
3 117 126 174
3 106 67 118
3 106 118 148
3 117 81 89
3 117 89 126
3 149 105 150
3 98 104 62
3 128 169 118
3 114 83 91
3 114 91 123
3 123 166 114
3 114 166 128
3 55 84 91
3 55 91 57
3 57 91 83
3 91 84 123
3 50 81 79
3 81 50 89
3 117 105 79
3 98 62 71
3 71 62 43
3 62 45 41
3 45 22 41
3 78 45 62
3 98 167 104
3 153 104 167
3 130 111 154
3 84 113 123
3 24 26 12
3 14 19 3
3 14 3 5
3 61 103 92
3 63 61 92
3 63 92 87
3 87 92 121
3 130 94 111
3 127 158 121
3 115 121 182
3 182 121 158
3 159 173 124
3 112 163 159
3 64 99 68
3 99 64 86
3 99 86 134
3 99 134 152
3 28 13 19
3 28 19 38
3 38 59 33
3 38 33 21
3 38 21 28
3 28 21 13
3 87 88 58
3 143 182 177
3 157 158 127
3 103 157 127
3 157 182 158
3 129 132 164
3 95 132 129
3 95 88 132
3 136 190 146
3 146 190 181
3 64 60 86
3 35 40 23
3 122 90 138
3 85 75 110
3 82 66 107
3 125 146 181
3 181 141 125
3 142 120 172
3 142 172 195
3 77 69 97
3 138 187 122
3 122 187 175
3 122 175 160
3 138 93 145
3 27 44 19
3 189 147 149
