ply
format ascii 1.0
comment Generated by PyMesh
element vertex 200
property float x
property float y
property float z
property float charge
property float ddc
property float hbond
property float hphob
property float rho
property float si
property float theta
property float nx
property float ny
property float nz
element face 346
property list uchar int vertex_indices
end_header
-38.6125 -5.23581 3.59262 -0.300241 0 0 0.184466 1e-08 -0.290688 2.22045e-16 0.552816 0.670072 0.495377
-37.6167 -5.52175 3.63175 -0.326966 -0.471273 0 0.622222 1.03678 -0.309424 3.74779 -0.0906204 0.930519 0.354856
-39.0392 -4.08825 3.2905 -0.343817 -0.671477 0 -0.288889 1.26105 -0.319476 2.22045e-16 0.866152 0.13306 0.481742
-39.5793 -4.5735 4.28075 -0.400967 -0.579532 0 -0.288889 1.359 0.160798 0.836679 0.666708 0.0707343 0.741955
-37.5618 -5.33744 2.60069 -0.375937 0.355477 0 0.622222 1.44852 -0.432898 4.35845 0.116432 0.978917 0.167823
-38.3061 -4.64156 1.7885 -0.317875 0.312146 0 -0.288889 1.92402 -0.469338 5.04292 0.772696 0.573598 0.271893
-37.0402 -5.822 4.5435 -0.244789 -0.340754 0 0.622222 2.15651 0.436613 3.37694 -0.347204 0.810193 0.472268
-40.337 -5.247 4.9125 -0.54352 0.377488 -0.475689 -0.288889 2.17166 -0.0814939 1.38077 -0.235348 0.233348 0.943483
-36.4033 -5.22025 3.798 -0.307738 -0.272532 0 0.622222 2.29808 0.63504 3.75916 -0.192443 0.937573 0.289695
-39.3888 -6.33588 5.80237 -0.163987 -0.161529 0 0.622222 2.58762 -0.0663983 2.12889 -0.0383378 0.914225 0.403388
-38.6023 -3.22781 1.86181 -0.417577 -0.386254 0 -0.288889 2.65101 -0.384238 5.61466 0.954505 0.0227215 0.297327
-37.0859 -6.42944 5.42169 -0.218864 -0.194995 0 0.622222 2.66472 -0.812193 3.02788 -0.133285 0.924278 0.357694
-40.8904 -4.4085 5.07013 -0.258394 0.425141 0 -0.288889 2.89826 0.345272 1.03139 -0.0705653 -0.348085 0.934803
-38.8596 -2.3095 3.33262 -0.32831 -0.373348 0 -0.288889 3.04934 0.128489 6.09448 0.836238 -0.206014 0.508196
-37.6309 -4.894 0.760625 -0.305554 0.0810943 0 0.4401 3.17947 -0.78656 4.81925 0.35599 0.853998 0.379419
-40.1156 -3.0305 5.21513 -0.166004 -0.263377 0 -0.288889 3.2409 0.999861 0.501341 0.613754 0.0165811 0.789323
-36.3025 -5.19994 1.31463 -0.396933 0.189041 0 0.622222 3.25371 -0.650046 4.46245 -0.135275 0.967282 0.214632
-35.5205 -4.9905 2.8695 -0.362307 -0.206542 0 0.622222 3.53647 0.475207 4.02076 -0.102899 0.986652 0.126215
-35.9019 -5.79362 5.36525 -0.244153 -0.256616 0 0.622222 3.56072 -0.18642 3.35217 -0.443094 0.872622 0.205424
-38.0385 -4.1545 0.1545 -0.237094 0.151007 0 -0.288889 3.64994 -0.999886 5.09165 0.715193 0.39173 0.578832
-37.878 -6.53662 6.06738 -0.320401 -0.233526 0 0.622222 3.69226 -0.406608 2.67924 0.0806288 0.996742 0.00230739
-39.8204 -6.49412 6.95056 -0.113353 -0.283818 0 0.622222 3.82442 0.438333 2.23058 -0.617739 0.785837 0.0292997
-38.1974 -2.14069 1.66594 -0.293067 -0.393599 0 -0.486149 3.82751 -0.508741 5.67295 0.787496 -0.564312 0.247794
-40.3257 -7.13325 6.0125 -0.106588 0.371606 0 0.622222 3.83572 0.364511 1.98316 -0.902043 0.354241 0.246639
-41.806 -6.0655 4.664 -0.339903 0.379786 -0.444224 -0.288889 3.87156 0.999887 1.34016 -0.668142 -0.13767 0.731186
-41.2697 -3.31787 5.51263 -0.0587577 0.232389 0 -0.288889 4.13485 0.99991 0.743794 -0.228896 0.144192 0.962713
-36.7781 -6.53188 6.914 -0.274894 -0.187762 0 0.564384 4.19189 -0.548748 2.93399 -0.216885 0.972193 0.0883307
-40.7697 -7.24625 4.67725 -0.16182 0.519652 0 0.20411 4.23068 0.187267 1.54013 -0.714739 -0.526074 0.460863
-38.1285 -2.969 0.269125 -0.204382 -0.277666 0 -0.288889 4.33271 -0.999833 5.34605 0.843178 -0.22809 0.486853
-42.1951 -4.93669 3.83363 -0.405833 0.415721 -0.0483396 -0.288889 4.34256 0.27189 1.1341 -0.882318 -0.162969 0.441538
-40.2346 -1.98538 4.73763 -0.207328 -0.131161 0 -0.288889 4.39608 0.366468 0.273883 0.295184 0.348033 0.889797
-42.0901 -3.38044 4.73325 -0.0941403 0.328064 0 -0.288889 4.51371 0.747616 0.842604 -0.827295 0.00828891 0.561706
-38.5714 -0.836875 3.46025 -0.218405 -0.215177 0.173197 -0.641544 4.55532 0.0855594 6.11068 0.391656 -0.137736 0.909744
-35.9878 -4.63312 -0.051875 -0.273015 -0.0934741 0 -0.241207 4.76621 -0.999864 4.7207 -0.0681136 0.630653 0.77307
-37.3666 -3.35194 -0.498563 -0.268494 -0.170427 0 -0.288889 4.88365 -0.999877 5.11859 0.371797 0.0310102 0.927796
-34.1722 -4.98475 3.09775 -0.222041 -0.177368 0 0.622222 4.90397 -0.5295 3.9658 -0.287157 0.953252 0.0940841
-37.4189 -1.511 2.14619 -0.198334 -0.393935 0 -0.777778 4.93801 -0.105665 5.76008 0.361916 -0.871285 0.331481
-40.336 -8.1225 5.43937 -0.0817083 0.459731 0 0.622222 4.97904 0.164308 1.83386 -0.944471 -0.323984 -0.0548503
-35.753 -6.076 6.7845 -0.291349 -0.228661 0 0.422222 5.01543 -0.522238 3.1466 -0.619832 0.760206 0.194666
-34.769 -5.28237 4.57438 -0.310572 -0.252077 0 0.472631 5.03392 -0.489743 3.65369 -0.440406 0.895197 -0.0683023
-40.364 -7.339 7.8165 -0.106214 0.271023 0 0.622222 5.15076 0.999892 2.17439 -0.928574 0.228913 0.292146
-35.2217 -5.19338 6.81475 -0.528 -0.227999 0 0.422222 5.27069 0.763676 3.28765 -0.691483 0.696105 0.193104
-41.8543 -6.81925 3.45994 -0.00523467 0.512819 0.00167843 -0.288889 5.29291 0.999855 1.38402 -0.776072 -0.630333 -0.0198401
-34.0807 -4.81025 1.82325 -0.262563 -0.165518 0 -0.165003 5.32537 -0.505076 4.19929 -0.396356 0.895647 0.201787
-38.5578 -5.97625 7.695 -0.145536 -0.150344 0 0.622222 5.37894 0.999874 2.52149 -0.022914 0.993538 0.111163
-40.3073 -8.2845 7.0405 -0.250848 0.333332 0 0.622222 5.37925 0.503443 2.03571 -0.983741 -0.144484 0.106671
-34.7426 -4.191 0.26325 -0.267609 -0.123797 0 -0.288889 5.38834 -0.354833 4.5861 -0.340167 0.668509 0.661349
-40.5229 -1.05625 4.39113 -0.126121 -0.142464 0 -0.288889 5.42877 0.257831 0.269069 0.0563963 0.254513 0.965423
-34.4007 -4.5955 5.6 -0.490827 -0.234033 0 0.422222 5.49571 0.629453 3.55864 -0.54596 0.829982 -0.114273
-37.416 -1.8825 0.155 -0.18782 -0.289287 0.00899123 -0.546584 5.54803 -0.999882 5.39363 0.413356 -0.677452 0.608436
-40.3124 -7.47781 3.41987 -0.112871 0.691503 0.240844 -0.288889 5.58853 -0.0424891 1.60931 -0.570349 -0.785454 -0.240342
-37.5353 -6.48425 8.23575 -0.233165 -0.0888335 0 0.622222 5.71591 0.0901899 2.72953 0.0970878 0.959624 0.263998
-41.5761 -1.9345 4.50787 -0.204578 0.182398 0 -0.288889 5.75806 0.544704 0.498559 -0.463942 0.467623 0.752388
-39.2218 -6.73138 8.81181 -0.051944 0.124869 0 0.622222 5.7939 0.864378 2.38815 -0.384019 0.697497 0.605002
-38.7046 0.434438 3.35763 -0.294465 -0.173599 -0.248894 -0.777778 5.8377 -0.684717 6.1605 -0.017559 -0.0932078 0.995492
-36.2115 -6.49013 8.4785 -0.151679 -0.0907952 0 0.422222 5.85635 0.188495 2.90973 -0.198481 0.832854 0.516681
-42.4011 -3.13925 3.435 -0.35095 0.332339 0 -0.288889 5.8703 0.415678 0.874046 -0.95444 0.108251 0.278077
-42.3643 -4.956 2.285 -0.295219 0.417601 0 -0.288889 5.90052 -0.112129 1.12117 -0.933146 -0.299697 0.198547
-33.3517 -4.48987 3.43613 -0.318732 -0.214881 0 -0.777778 5.92015 -0.678108 3.98153 -0.704637 0.708257 0.0431058
-36.2704 -3.198 -0.585813 -0.436477 -0.19435 0 -0.288889 5.99404 -0.999819 4.98252 -0.0350476 -0.118894 0.992288
-35.2925 -3.2405 -0.350875 -0.381477 -0.179057 0 -0.288889 6.35121 -0.680327 4.98252 -0.367442 0.0947415 0.925208
-39.72 -9.3495 5.1955 -0.207814 0.406684 0 0.622222 6.37348 0.545022 1.83386 -0.880232 -0.386669 -0.275096
-33.8745 -4.44375 0.85425 -0.229711 -0.167304 0 -0.777778 6.38169 -0.863753 4.19929 -0.610094 0.669089 0.424388
-35.9363 -1.14137 2.40313 -0.153274 -0.303718 0 -0.777778 6.48744 0.632526 5.76008 0.578249 -0.734484 0.355191
-36.6226 -0.83575 3.69537 -0.0266754 -0.264603 0.742941 -0.777778 6.51825 0.999884 5.76008 0.20358 -0.500822 0.841268
-39.757 -9.28 6.953 -0.319286 0.321947 0 0.622222 6.52009 0.22262 2.03571 -0.878225 -0.449744 0.162637
-36.4637 -2.113 -0.2115 -0.292134 -0.267989 0 -0.288889 6.59413 -0.688259 5.39363 -0.0157937 -0.645112 0.763924
-40.6965 0.08 4.0655 -0.4047 -0.144318 0 -0.288889 6.62344 -0.309121 0.269069 0.230056 0.0183663 0.973004
-39.669 -8.315 8.716 -0.222349 0.237086 0 0.622222 6.64899 0.722866 2.17439 -0.795708 -0.188115 0.575727
-36.1942 -1.52581 0.898938 -0.03695 -0.317528 0.335718 -0.777778 6.68608 -0.0563223 5.39363 0.200794 -0.884774 0.420543
-34.8674 -5.60225 8.20088 -0.217975 -0.114262 0 0.422222 6.75176 0.444236 3.28765 -0.382486 0.708639 0.592904
-39.2227 -8.85181 4.25631 -0.15133 0.521308 0 0.622222 6.75976 -0.2882 1.83386 -0.697007 -0.510394 -0.503666
-41.7721 -1.25794 3.68622 -0.246846 0.253221 -0.0967526 -0.40594 6.84031 -0.126123 0.498559 -0.822648 0.114956 0.556808
-42.7841 -3.36331 1.97894 -0.300786 0.289773 0 -0.661549 6.84502 -0.38162 0.874046 -0.787829 -0.144723 0.598649
-33.4766 -3.51219 0.695625 -0.283369 -0.172063 0 -0.288889 6.8885 -0.508533 4.5861 -0.65061 0.291893 0.701075
-42.846 -4.95762 1.38975 -0.253507 0.306257 0 -0.539807 6.91714 -0.210694 1.12117 -0.49883 -0.472741 0.726419
-33.7808 -4.35275 7.259 -0.49901 -0.108245 0 0.422222 6.99702 0.711429 3.28765 -0.30399 0.887822 0.345489
-33.0858 -3.63425 2.55325 -0.39717 -0.222363 -0.0935159 -0.777778 7.02998 -0.153587 3.98153 -0.882026 0.453282 0.128706
-38.4269 -7.34469 9.6155 -0.0803503 0.140734 0 0.622222 7.07995 0.776417 2.38815 -0.347538 0.211085 0.913597
-39.6213 1.29762 3.55437 -0.37439 -0.132144 -0.00867916 -0.777778 7.11212 -0.440129 6.1605 0.233579 -0.0350575 0.971706
-41.9191 -5.97325 1.76713 -0.196 0.485151 0 -0.288889 7.12575 0.163624 1.12117 -0.650974 -0.758477 0.0307479
-42.4468 -2.0485 2.633 -0.41063 0.26048 0 -0.288889 7.22494 -0.391789 0.874046 -0.822443 0.0439963 0.567143
-33.0223 -3.958 4.60862 -0.405587 -0.193414 0 -0.777778 7.22619 -0.0475736 3.98153 -0.676776 0.735773 0.0247489
-40.957 -6.576 1.7615 -0.102189 0.602828 0 -0.288889 7.22915 -0.106948 1.38402 -0.459778 -0.841891 -0.28253
-39.8947 -7.20087 1.83025 -0.162095 0.656156 0.0702385 0.535553 7.25528 -0.439735 1.60931 -0.630199 -0.758222 -0.167178
-36.9893 -7.27563 9.55737 -0.096239 0.0404166 0 0.622222 7.35025 0.752194 2.90973 0.139151 0.628387 0.765354
-34.8695 -6.857 9.14087 0.0581217 0.110991 0 0.422222 7.39722 0.660127 2.90973 -0.190404 0.275077 0.942379
-38.9986 -7.99137 2.27875 -0.178566 0.621707 0 0.622222 7.40291 -0.466468 1.60931 -0.620734 -0.776492 -0.1084
-35.5774 -7.80863 9.09609 -0.055958 0.0995645 0 0.424333 7.44441 -0.166127 2.90973 0.168083 0.200091 0.965252
-42.1297 0.21025 4.2505 -0.556203 -0.199349 -0.251309 -0.777778 7.47953 0.496907 0.269069 -0.463454 -0.274326 0.842589
-37.097 0.353 3.8695 -0.191528 -0.167674 0.168642 -0.777778 7.52679 0.457865 6.1605 0.176704 -0.136258 0.974787
-35.0124 -2.15687 0.0776875 -0.360413 -0.197145 0 -0.288889 7.5497 -0.12048 4.98252 -0.132374 -0.269482 0.953864
-35.245 -0.365 1.9245 -0.229509 -0.184834 0 -0.777778 7.63188 0.601351 5.76008 0.927783 -0.160929 0.33663
-39.4165 -10.2591 6.43469 -0.253513 0.284187 0 0.622222 7.67906 -0.220215 2.03571 -0.996475 -0.0786897 -0.029075
-39.1034 -9.88912 7.8795 -0.307649 0.250233 0 0.622222 7.80718 -0.530008 2.03571 -0.983972 -0.0837317 0.157441
-37.558 1.975 4.17487 -0.629307 -0.120174 -0.614733 -0.777778 7.92478 0.779585 6.1605 0.0352649 0.0157289 0.999254
-35.5675 0.14675 2.96625 -0.263036 -0.158636 0 -0.777778 7.94084 0.740087 5.76008 0.750801 -0.123764 0.64883
-38.9468 -9.482 9.05175 -0.187323 0.188593 0 0.622222 8.06185 0.265325 2.17439 -0.680577 -0.107266 0.724782
-43.7235 -4.16962 1.3335 -0.250244 0.204794 0 -0.777778 8.09787 0.236156 1.12117 -0.368419 -0.150679 0.917368
-41.4772 1.22775 4.66525 -0.871217 -0.13972 -0.649649 -0.777778 8.13557 0.916865 0.269069 -0.00352843 -0.115298 0.993325
-34.925 -0.822125 0.624313 -0.166115 -0.166611 0.237653 -0.54934 8.16305 -0.056821 5.39363 0.691245 -0.250309 0.677883
-43.2521 -1.776 2.00638 -0.546803 0.198992 -0.1622 -0.777778 8.28107 -0.0637241 0.874046 -0.520021 -0.0834216 0.85007
-32.6063 -2.82525 1.547 -0.460887 -0.206855 -0.466372 -0.777778 8.28641 -0.999882 3.98153 -0.950184 0.265308 0.16359
-41.3828 -6.0725 0.728 -0.199989 0.468125 0 -0.288889 8.29932 -0.516383 1.12117 -0.266816 -0.963376 -0.0267447
-38.3525 -8.72563 2.94537 -0.203228 0.545423 0 0.622222 8.33829 -0.794965 1.60931 -0.694445 -0.62912 -0.34922
-38.5904 -10.7269 4.25181 -0.149889 0.31352 0 0.622222 8.38936 -0.120345 1.83386 -0.861603 0.0665513 -0.503201
-44.2975 -5.0985 0.976 -0.259578 0.209151 0 -0.777778 8.43302 0.698935 1.12117 -0.335261 -0.363691 0.869096
-32.7163 -2.2705 2.6995 -0.821407 -0.204042 -0.0655108 -0.777778 8.45045 0.455057 3.98153 -0.91507 0.393282 0.0893089
-42.5382 -6.08794 0.34725 -0.289453 0.311369 -0.705661 -0.760553 8.48531 -0.142745 1.12117 0.030004 -0.835853 0.548133
-33.1136 -5.69175 8.441 -0.25574 -0.0688276 0 0.422222 8.52418 -0.0800373 3.28765 -0.0804986 0.527094 0.845986
-32.5255 -4.007 5.828 -0.40946 -0.126346 0 -0.149668 8.54381 -0.415664 3.98153 -0.477079 0.829495 0.290403
-44.243 -3.201 1.1145 -0.36229 0.200102 -0.518956 -0.777778 8.54854 -0.0519475 0.874046 -0.699789 -0.0724048 0.710671
-32.8725 -1.9635 0.789 -0.277471 -0.109365 -0.134529 -0.354247 8.55346 0.199251 4.5861 -0.481363 0.641157 0.597668
-37.947 -9.83925 3.46025 -0.175008 0.39708 0 0.622222 8.5587 -0.343596 1.83386 -0.870984 -0.280418 -0.403427
-38.5112 -8.4565 1.32337 -0.195325 0.46743 0 0.622222 8.57195 -0.582015 1.60931 -0.580219 -0.803921 0.130607
-36.4315 1.14775 3.6145 -0.328163 -0.127673 -0.0427102 -0.777778 8.59429 0.396665 6.1605 0.566569 -0.0350329 0.823269
-33.6727 -6.60225 9.258 -0.056536 0.0822724 0 0.422222 8.62643 0.812888 2.90973 0.0702203 0.288359 0.954944
-39.3829 -7.738 0.670625 -0.174077 0.474353 0 0.622222 8.63194 0.48588 1.60931 -0.759828 -0.649223 -0.034218
-32.1635 -4.18888 7.43363 -0.193905 -0.10521 0.0533052 0.256529 8.63195 -0.0331682 3.28765 -0.494985 0.710564 0.500088
-39.7103 -11.2475 6.627 -0.285025 0.204619 -0.0163221 -0.0592464 8.72798 0.268709 2.03571 -0.881759 0.461065 -0.0995947
-35.8405 -9.07938 9.28952 -0.0548477 0.0953791 0 0.622222 8.75645 -0.447668 2.90973 0.16897 0.166588 0.971441
-37.1741 -8.64888 9.92513 -0.0694003 0.121978 0 0.622222 8.78385 0.916692 2.90973 0.048268 -0.00831849 0.9988
-42.7577 -0.231688 2.256 -0.441463 0.20977 -0.829375 -0.777778 8.85776 -0.49933 0.498559 -0.776429 -0.137096 0.615112
-40.555 -6.288 0.1665 -0.209884 0.452065 0 -0.288889 8.89905 -0.999823 1.12117 -0.418926 -0.893581 0.161291
-39.0421 3.00738 3.62512 -0.371083 -0.0765909 0 -0.777778 8.9187 -0.189517 6.1605 0.235222 0.228087 0.9448
-39.2836 -11.0393 7.63112 -0.129898 0.180566 0 -0.0888889 8.9976 -0.620587 2.03571 -0.867189 0.482527 0.123084
-38.046 -9.741 9.4805 -0.140535 0.142534 0 0.622222 9.09256 0.263676 2.17439 -0.263405 -0.0712523 0.96205
-44.3374 -6.106 0.246625 -0.4368 0.210714 0 -0.777778 9.11936 0.258696 1.12117 -0.271294 -0.522365 0.808415
-37.587 3.07075 3.68775 -0.610613 -0.031857 -0.50762 -0.777778 9.12428 0.734447 6.1605 0.226641 0.577705 0.78415
-32.271 -2.29513 4.08075 -0.67468 -0.127959 -0.14244 -0.777778 9.12573 0.336268 3.98153 -0.588367 0.642445 0.491007
-36.4515 2.298 3.7275 -0.528223 -0.0713115 -0.0184521 -0.777778 9.16123 0.999873 6.1605 0.582346 0.298106 0.756311
-43.0871 1.57525 3.7945 -0.784183 -0.173635 -0.0612437 -0.777778 9.20805 0.837786 0.269069 -0.765179 -0.186942 0.61608
-41.0505 2.48775 4.56675 -0.473897 -0.115418 0 -0.777778 9.22965 0.363515 6.1605 0.203024 -0.106568 0.973357
-39.7342 -7.0765 -0.14 -0.219667 0.414551 0 -0.114654 9.23597 -0.61831 1.60931 -0.746758 -0.641011 0.177364
-35.0541 1.07375 1.07763 -0.100963 -0.132631 0 -0.777778 9.31225 -0.538262 5.76008 0.90533 -0.0469999 0.4221
-39.405 -11.8045 5.651 -0.30288 0.229693 -0.140277 0.443238 9.41185 -0.35332 2.03571 -0.802782 0.345569 -0.485925
-45.1165 -4.48737 0.769 -0.22781 0.181946 0 -0.777778 9.47565 0.999883 1.12117 -0.726908 -0.0429006 0.685394
-32.1995 -1.76988 1.95131 -0.450837 -0.13577 -0.485475 -0.777778 9.48847 0.346242 3.98153 -0.237383 0.93881 -0.249569
-37.5008 -9.25106 1.43956 -0.292148 0.390408 -0.0249432 0.487644 9.53234 -0.787238 1.60931 -0.825626 -0.564013 -0.0152332
-33.7349 -8.84456 9.08519 -0.0849763 0.0837241 -0.0317813 0.329156 9.5582 -0.161722 2.90973 0.115588 0.207804 0.971317
-44.2265 -1.16675 1.407 -0.580857 0.160078 -0.14629 -0.777778 9.57718 0.57672 0.874046 -0.739751 0.220711 0.635654
-35.5944 1.77725 2.64581 -0.096858 -0.107139 0 -0.777778 9.60275 0.473408 6.1605 0.858202 0.155366 0.489234
-33.3881 -0.907 -0.127625 -0.204074 -0.0556265 0 -0.288889 9.60948 -0.143303 4.98252 0.358553 0.40405 0.841536
-38.4216 -10.9028 9.40738 -0.0848407 0.081392 0 0.161005 9.6178 -0.165295 2.17439 -0.198247 0.422036 0.884638
-39.4077 -11.2451 9.05275 -0.107421 0.145192 0 -0.0888889 9.62592 0.143189 2.03571 -0.813013 0.531322 0.238132
-44.481 -2.173 1.411 -0.471517 0.19288 -0.634344 -0.777778 9.6446 0.942526 0.874046 -0.771995 -0.0660557 0.632187
-37.589 -10.795 3.053 -0.160888 0.280145 0 0.622222 9.65755 -0.820723 1.83386 -0.964927 0.179044 -0.191989
-38.5976 -8.63981 0.120937 -0.258586 0.348668 0 0.622222 9.69145 -0.274886 1.60931 -0.685058 -0.617682 0.386219
-42.882 -7.097 -0.217 -0.539707 0.214522 -0.943446 -0.777778 9.69145 0.438927 1.12117 0.236199 -0.51959 0.821119
-42.217 2.568 4.372 -0.524177 -0.126134 0 -0.777778 9.69428 0.39463 0.269069 -0.421686 -0.00642154 0.906719
-32.0185 -1.359 3.388 -0.66804 -0.11109 -0.457025 -0.777778 9.78903 0.999935 3.98153 -0.474648 0.844896 0.246697
-31.7221 -2.39494 0.657188 -0.30844 0.0967115 -0.295931 -0.340147 9.78916 -0.259311 4.5861 0.407498 0.899155 -0.159577
-31.387 -3.21175 6.058 -0.489047 -0.134388 -0.551445 -0.777778 9.95146 -0.370034 3.98153 -0.675592 0.718291 0.166235
-34.3894 0.790625 0.009625 -0.159551 -0.103641 0 -0.676371 9.97017 -0.595087 5.39363 0.660308 -0.00013185 0.750995
-32.0638 -6.682 8.86012 -0.0991797 0.0905577 0 0.422222 10.027 0.287433 2.90973 0.125745 0.107356 0.986237
-39.8445 3.57888 4.13925 -0.23738 -0.0775207 0 -0.777778 10.0299 0.617063 6.1605 0.552164 0.149121 0.820291
-36.6522 -10.0513 9.55838 -0.0579147 0.114451 0 0.622222 10.051 -0.0597039 2.90973 -0.0113421 0.00129904 0.999935
-40.442 -12.2665 6.05475 -0.511037 0.179283 -0.183078 -0.0888889 10.1068 0.511469 2.03571 -0.727332 0.609407 -0.315612
-43.4664 0.37225 1.41225 -0.43811 0.185088 -0.949832 -0.777778 10.1143 -0.265443 0.498559 -0.876384 -0.0627596 0.477507
-41.5855 -6.44225 -0.952 -0.26962 0.254145 -0.498341 -0.719533 10.1349 -0.999888 1.12117 0.0180575 -0.623922 0.781278
-44.7152 -6.921 -0.29425 -0.606323 0.202395 0 -0.777778 10.1679 0.677769 1.12117 -0.474003 -0.537798 0.697205
-31.5397 -5.06975 8.558 -0.139835 -0.0845458 0 0.422222 10.1906 0.408564 3.28765 -0.181328 0.312937 0.932304
-35.6166 -10.4596 9.67712 -0.0511477 0.0836115 0.0974745 0.445784 10.2074 -0.0366741 2.90973 -0.132272 0.297605 0.945481
-31.2589 -2.88775 7.42325 -0.124684 -0.161269 0.645326 -0.777778 10.2167 0.0729631 3.28765 -0.944353 0.24938 0.214491
-37.1915 -10.3042 1.967 -0.230269 0.300412 0 0.176704 10.2956 -0.820196 1.60931 -0.957623 0.0990272 -0.270467
-30.8317 -4.04781 8.4385 -0.125715 -0.118628 0 -0.0862804 10.3063 0.0295254 3.28765 -0.540475 0.0841614 0.83714
-39.9895 -7.745 -1.015 -0.259982 0.24317 0 -0.777778 10.3663 -0.714444 1.60931 -0.494046 -0.281379 0.822645
-45.0146 -2.96869 -0.523188 -0.217412 0.172913 0 -0.777778 10.3737 -0.0283598 0.874046 -0.936592 0.267243 0.226664
-42.2945 -7.369 -1.02575 -0.505033 0.19366 -0.568088 -0.777778 10.3789 -0.436373 1.12117 0.449305 -0.443087 0.775757
-45.3942 -5.45975 -0.0795 -0.330384 0.192854 0 -0.777778 10.4003 0.562911 1.12117 -0.849055 -0.195259 0.490897
-32.587 -7.96 8.83225 -0.106065 0.114962 0 0.422222 10.4163 -0.0724657 2.90973 0.225255 -0.143861 0.96362
-39.0405 -12.7078 4.02331 -0.144994 0.16501 0 -0.0304756 10.4336 -0.552667 1.83386 -0.784594 0.619995 0.00440853
-44.7566 -1.61137 0.203125 -0.688753 0.191785 -0.199359 -0.777778 10.4515 0.453965 0.874046 -0.987101 0.0879635 0.133767
-38.0469 -11.3901 2.27731 -0.188333 0.205699 0 -0.2 10.5118 -0.108017 1.83386 -0.775768 0.617291 -0.130902
-35.019 2.274 1.26 -0.0941137 -0.100512 0 -0.777778 10.5268 0.270744 5.76008 0.859955 0.0943554 0.501572
-31.183 -1.832 1.72525 -0.651407 0.130215 -0.619464 -0.777778 10.5317 0.576835 3.98153 0.249647 0.832173 -0.49514
-43.0135 2.919 3.737 -0.383727 0.133583 0 -0.777778 10.555 0.600167 0.269069 -0.797274 0.168796 0.579536
-33.0566 0.118375 -0.5665 -0.173941 -0.0910236 0 0.698222 10.57 -0.529628 4.98252 0.338264 0.0327202 0.940482
-40.49 -12.13 7.679 -0.38662 0.145103 -0.191915 -0.0888889 10.6247 0.83373 2.03571 -0.767545 0.638138 0.0604524
-39.5575 -12.9215 5.1585 -0.249104 0.181273 -0.8998 -0.0873027 10.6421 -0.794622 2.03571 -0.580497 0.616135 -0.532353
-45.2798 -3.96525 -0.29375 -0.306163 0.179217 0 -0.777778 10.6709 0.519383 1.12117 -0.947872 0.205734 0.243338
-34.2253 -10.122 9.57225 0.0698043 0.0608671 0.0916115 -0.288889 10.6996 -0.64127 2.90973 -0.101175 0.499376 0.860458
-42.0288 3.59275 4.5445 -0.22957 -0.107689 0 -0.777778 10.7057 0.742546 6.1605 -0.480291 0.13937 0.865966
-36.215 3.1935 2.472 -0.199528 -0.0420606 0 -0.777778 10.7214 0.213337 6.1605 0.601827 0.538145 0.590088
-43.7072 2.09175 2.51425 -0.662943 0.163793 -0.0961542 -0.777778 10.7214 0.594798 0.269069 -0.958642 0.0444668 0.281118
-37.5692 4.24862 2.59262 -0.242175 -0.0483057 -0.269377 -0.777778 10.7327 -0.287186 6.1605 0.374094 0.371871 0.849568
-43.689 -7.74575 -0.37375 -0.569803 0.218768 -0.135995 -0.777778 10.7387 0.830297 1.12117 -0.0978061 -0.706998 0.70042
-40.2147 -12.1182 8.68681 -0.101684 0.132221 0 -0.0888889 10.7711 -0.31917 2.03571 -0.724912 0.685959 0.0629486
-31.08 -1.29131 2.85188 -0.839707 0.0667234 -0.502738 -0.777778 10.872 0.87458 3.98153 0.226045 0.97141 0.072571
-41.0871 4.13737 4.7885 -0.180523 -0.0633077 0 -0.777778 10.8945 0.999891 6.1605 -0.0134583 0.342001 0.939603
-30.534 -2.024 4.2795 -0.706847 -0.069829 -0.563177 -0.777778 10.895 -0.0403753 3.98153 -0.0501962 0.987192 0.151435
-39.1658 4.87844 2.96075 -0.131707 -0.0471049 0 -0.777778 10.9081 -0.264272 6.1605 0.379436 0.357608 0.853314
-39.7052 -11.6827 10.2268 -0.143636 -0.0938372 0 -0.0888889 10.9137 0.256964 2.03571 -0.393878 0.915497 0.0820099
-30.7165 -5.80762 8.67513 -0.0886017 0.0839373 0 0.422222 10.9355 0.192612 3.28765 -0.00172286 0.136058 0.990699
-37.1655 -10.5795 0.94625 -0.493713 0.248881 -0.432203 -0.2 10.9885 -0.678808 1.60931 -0.981711 0.188311 -0.027959
-38.6406 -11.7924 10.4327 -0.104061 -0.041068 0 -0.0888889 10.9928 -0.46685 2.17439 0.0885346 0.941537 0.325068
-37.133 -11.4148 9.588 -0.0434883 0.034305 0 0.622222 11.0161 -0.540624 2.90973 0.0618202 0.654656 0.753395
-43.0252 -8.12325 -1.07925 -0.580357 0.208383 -0.149984 -0.777778 11.0395 0.366016 1.12117 0.20579 -0.713953 0.66927
-34.2067 2.36244 -0.0304375 -0.260987 -0.0891086 0 -0.777778 11.2114 -0.37688 5.76008 0.602862 -0.012522 0.797747
-35.9349 -11.4358 9.692 -0.0355487 0.0722975 0 -0.0703309 11.2343 -0.879546 2.90973 -0.260957 0.492579 0.830221
3 135 157 119
3 135 119 93
3 157 178 125
3 125 178 187
3 61 93 65
3 23 45 21
3 144 125 187
3 144 192 143
3 144 143 97
3 192 195 143
3 97 143 126
3 126 143 156
3 138 104 87
3 104 113 71
3 104 71 87
3 50 71 37
3 50 37 27
3 27 42 50
3 27 37 7
3 23 7 37
3 7 24 27
3 42 27 24
3 53 68 78
3 68 65 97
3 97 65 94
3 121 126 156
3 156 162 120
3 114 147 138
3 87 147 114
3 87 71 50
3 50 83 84
3 87 84 117
3 7 12 29
3 12 31 29
3 12 25 31
3 12 7 3
3 44 53 51
3 78 85 53
3 85 88 55
3 55 88 86
3 85 121 88
3 116 109 70
3 86 88 139
3 160 148 127
3 57 73 75
3 73 29 56
3 73 56 81
3 73 81 101
3 111 73 101
3 56 31 72
3 31 52 72
3 30 47 52
3 72 52 47
3 2 0 10
3 10 0 5
3 4 0 1
3 2 3 0
3 8 1 6
3 0 3 7
3 9 21 20
3 51 26 20
3 26 51 55
3 26 55 38
3 51 85 55
3 70 41 38
3 18 41 48
3 18 48 39
3 48 76 82
3 82 76 110
3 110 76 118
3 118 76 109
3 109 161 118
3 109 116 154
3 154 116 170
3 180 169 136
3 136 169 127
3 136 127 106
3 136 167 180
3 136 111 167
3 111 172 167
3 111 145 172
3 98 111 136
3 140 101 122
3 131 99 149
3 149 99 132
3 149 132 182
3 95 79 54
3 67 99 89
3 89 47 67
3 89 72 47
3 32 47 30
3 54 32 64
3 32 13 36
3 32 36 64
3 1 8 4
3 17 4 8
3 8 18 17
3 17 43 16
3 43 17 35
3 77 129 107
3 184 158 131
3 131 158 122
3 182 176 149
3 128 124 95
3 155 132 124
3 185 128 183
3 141 130 115
3 115 95 90
3 115 90 96
3 95 54 90
3 60 33 46
3 16 43 46
3 60 46 74
3 91 112 142
3 112 107 137
3 137 175 151
3 129 190 188
3 174 141 134
3 92 141 96
3 115 96 141
3 63 36 69
3 177 100 142
3 92 63 100
3 63 69 100
3 69 91 100
3 60 74 91
3 174 134 198
3 198 134 153
3 18 6 11
3 148 168 108
3 83 123 84
3 171 179 135
3 135 179 157
3 93 105 135
3 125 93 119
3 125 119 157
3 173 171 105
3 135 105 171
3 94 65 93
3 94 93 125
3 97 94 144
3 125 144 94
3 156 143 196
3 143 195 196
3 199 156 196
3 164 138 194
3 164 194 173
3 138 164 113
3 146 113 173
3 104 138 113
3 105 113 146
3 105 146 173
3 164 173 113
3 9 7 23
3 9 23 21
3 139 88 120
3 139 120 181
3 120 162 181
3 156 199 162
3 166 123 159
3 108 168 159
3 108 159 123
3 108 123 103
3 133 123 166
3 84 123 133
3 84 133 117
3 117 133 147
3 147 133 166
3 50 84 87
3 108 103 80
3 83 80 103
3 127 148 108
3 75 108 80
3 75 80 57
3 57 80 42
3 29 57 42
3 88 121 120
3 98 106 75
3 98 75 73
3 111 98 73
3 72 81 56
3 10 13 2
3 5 0 4
3 11 1 0
3 11 0 9
3 11 9 20
3 9 0 7
3 6 1 11
3 26 18 11
3 41 18 38
3 38 18 26
3 20 26 11
3 17 18 39
3 39 58 35
3 35 17 39
3 82 58 39
3 82 39 48
3 129 82 110
3 118 152 110
3 118 163 152
3 165 163 118
3 165 118 161
3 193 161 109
3 193 109 154
3 122 158 140
3 89 122 72
3 81 72 122
3 81 122 101
3 124 132 79
3 124 79 95
3 79 132 99
3 54 79 47
3 47 79 67
3 67 79 99
3 32 54 47
3 22 36 13
3 22 13 10
3 16 4 17
3 58 77 43
3 58 43 35
3 190 129 152
3 124 191 155
3 185 191 124
3 185 124 128
3 69 36 49
3 69 49 66
3 66 49 59
3 59 49 34
3 34 49 28
3 10 28 22
3 22 28 49
3 22 49 36
3 14 33 19
3 19 33 34
3 33 14 16
3 5 14 19
3 5 19 10
3 10 19 28
3 28 19 34
3 34 33 59
3 4 16 14
3 4 14 5
3 60 59 33
3 46 33 16
3 74 46 62
3 74 62 77
3 77 62 43
3 43 62 46
3 112 74 102
3 102 77 107
3 77 102 74
3 91 74 112
3 107 112 102
3 151 112 137
3 112 151 142
3 134 141 92
3 153 134 100
3 153 100 177
3 100 134 92
3 66 91 69
3 91 66 59
3 91 59 60
3 198 153 177
3 105 61 71
3 61 105 93
3 45 37 65
3 65 37 61
3 61 37 71
3 37 45 23
3 192 144 187
3 105 71 113
3 45 65 68
3 45 68 40
3 45 40 21
3 53 40 68
3 97 126 121
3 97 121 78
3 97 78 68
3 87 114 138
3 42 80 83
3 42 83 50
3 24 7 29
3 24 29 42
3 53 44 21
3 53 21 40
3 121 85 78
3 86 116 70
3 168 148 197
3 186 197 148
3 186 148 160
3 123 83 103
3 147 87 117
3 127 75 106
3 75 127 108
3 29 73 57
3 31 56 29
3 25 12 15
3 25 15 30
3 30 52 25
3 25 52 31
3 2 13 15
3 2 15 3
3 3 15 12
3 15 13 30
3 20 44 51
3 44 20 21
3 53 85 51
3 86 70 55
3 55 70 38
3 70 76 41
3 76 48 41
3 109 76 70
3 86 139 116
3 170 116 139
3 169 160 127
3 136 106 98
3 111 101 145
3 145 101 140
3 140 172 145
3 99 131 89
3 131 122 89
3 13 32 30
3 6 18 8
3 82 129 77
3 82 77 58
3 149 176 131
3 184 131 176
3 189 182 132
3 189 132 155
3 130 128 95
3 130 95 115
3 141 183 130
3 183 128 130
3 63 64 36
3 64 63 96
3 64 96 90
3 64 90 54
3 150 107 129
3 150 129 188
3 188 175 137
3 188 137 150
3 150 137 107
3 63 92 96
3 142 100 91
3 110 152 129
3 156 120 121
