ply
format ascii 1.0
comment Generated by PyMesh
element vertex 200
property float x
property float y
property float z
property float charge
property float ddc
property float hbond
property float hphob
property float rho
property float si
property float theta
property float nx
property float ny
property float nz
element face 345
property list uchar int vertex_indices
end_header
-38.8596 -2.3095 3.33262 -0.32831 0 0 -0.288889 1e-08 0.128489 2.22045e-16 0.836238 -0.206014 0.508196
-38.5714 -0.836875 3.46025 -0.218405 0.291971 0.173197 -0.641544 1.50598 0.0855594 2.22045e-16 0.391656 -0.137736 0.909744
-38.6023 -3.22781 1.86181 -0.417577 0.261194 0 -0.288889 1.75293 -0.384238 3.81404 0.954505 0.0227215 0.297327
-39.0392 -4.08825 3.2905 -0.343817 -0.211059 0 -0.288889 1.78829 -0.319476 2.86066 0.866152 0.13306 0.481742
-38.1974 -2.14069 1.66594 -0.293067 0.307439 0 -0.486149 1.80134 -0.508741 4.53904 0.787496 -0.564312 0.247794
-40.2346 -1.98538 4.73763 -0.207328 0.368653 0 -0.288889 1.99242 0.366468 1.23933 0.295184 0.348033 0.889797
-37.4189 -1.511 2.14619 -0.198334 -0.417119 0 -0.777778 2.02998 -0.105665 5.18369 0.361916 -0.871285 0.331481
-40.1156 -3.0305 5.21513 -0.166004 0.116288 0 -0.288889 2.37513 0.999861 1.80001 0.613754 0.0165811 0.789323
-38.7046 0.434438 3.35763 -0.294465 0.305521 -0.248894 -0.777778 2.78836 -0.684717 0.0835325 -0.017559 -0.0932078 0.995492
-39.5793 -4.5735 4.28075 -0.400967 -0.109771 0 -0.288889 3.0162 0.160798 2.51575 0.666708 0.0707343 0.741955
-40.5229 -1.05625 4.39113 -0.126121 0.373512 0 -0.288889 3.02512 0.257831 0.898415 0.0563963 0.254513 0.965423
-38.6125 -5.23581 3.59262 -0.300241 -0.300573 0 0.184466 3.04934 -0.290688 2.93221 0.552816 0.670072 0.495377
-38.3061 -4.64156 1.7885 -0.317875 -0.296182 0 -0.288889 3.19924 -0.469338 3.53379 0.772696 0.573598 0.271893
-41.5761 -1.9345 4.50787 -0.204578 0.460261 0 -0.288889 3.3544 0.544704 1.25185 -0.463942 0.467623 0.752388
-38.1285 -2.969 0.269125 -0.204382 0.0605587 0 -0.288889 3.42674 -0.999833 4.23231 0.843178 -0.22809 0.486853
-36.6226 -0.83575 3.69537 -0.0266754 -0.241983 0.742941 -0.777778 3.46891 0.999884 5.71904 0.20358 -0.500822 0.841268
-37.416 -1.8825 0.155 -0.18782 -0.169101 0.00899123 -0.546584 3.52186 -0.999882 4.62923 0.413356 -0.677452 0.608436
-35.9363 -1.14137 2.40313 -0.153274 -0.196438 0 -0.777778 3.57942 0.632526 5.30244 0.578249 -0.734484 0.355191
-41.2697 -3.31787 5.51263 -0.0587577 0.314798 0 -0.288889 3.60111 0.99991 1.73768 -0.228896 0.144192 0.962713
-38.0385 -4.1545 0.1545 -0.237094 -0.153737 0 -0.288889 3.77569 -0.999886 3.94936 0.715193 0.39173 0.578832
-36.1942 -1.52581 0.898938 -0.03695 -0.247506 0.335718 -0.777778 3.77805 -0.0563223 4.96526 0.200794 -0.884774 0.420543
-40.8904 -4.4085 5.07013 -0.258394 0.258042 0 -0.288889 3.96265 0.345272 2.10163 -0.0705653 -0.348085 0.934803
-39.6213 1.29762 3.55437 -0.37439 0.167995 -0.00867916 -0.777778 4.06278 -0.440129 0.316536 0.233579 -0.0350575 0.971706
-37.6167 -5.52175 3.63175 -0.326966 -0.41063 0 0.622222 4.08612 -0.309424 3.05639 -0.0906204 0.930519 0.354856
-40.337 -5.247 4.9125 -0.54352 0.302076 -0.475689 -0.288889 4.2107 -0.0814939 2.35841 -0.235348 0.233348 0.943483
-40.6965 0.08 4.0655 -0.4047 0.205937 0 -0.288889 4.21978 -0.309121 0.744729 0.230056 0.0183663 0.973004
-41.7721 -1.25794 3.68622 -0.246846 0.511479 -0.0967526 -0.40594 4.43665 -0.126123 1.09438 -0.822648 0.114956 0.556808
-37.6309 -4.894 0.760625 -0.305554 -0.295644 0 0.4401 4.45469 -0.78656 3.72848 0.35599 0.853998 0.379419
-37.097 0.353 3.8695 -0.191528 -0.202121 0.168642 -0.777778 4.47745 0.457865 5.95525 0.176704 -0.136258 0.974787
-37.5618 -5.33744 2.60069 -0.375937 -0.415712 0 0.622222 4.49786 -0.432898 3.2936 0.116432 0.978917 0.167823
-36.4637 -2.113 -0.2115 -0.292134 -0.208887 0 -0.288889 4.56796 -0.688259 4.65848 -0.0157937 -0.645112 0.763924
-37.3666 -3.35194 -0.498563 -0.268494 -0.120452 0 -0.288889 4.57412 -0.999877 4.23025 0.371797 0.0310102 0.927796
-35.245 -0.365 1.9245 -0.229509 0.0835173 0 -0.777778 4.72385 0.601351 5.33772 0.927783 -0.160929 0.33663
-42.0901 -3.38044 4.73325 -0.0941403 0.429854 0 -0.288889 4.73442 0.747616 1.68801 -0.827295 0.00828891 0.561706
-37.558 1.975 4.17487 -0.629307 0.178538 -0.614733 -0.777778 4.87544 0.779585 6.19331 0.0352649 0.0157289 0.999254
-35.5675 0.14675 2.96625 -0.263036 0.0144911 0 -0.777778 5.03282 0.740087 5.58154 0.750801 -0.123764 0.64883
-42.1297 0.21025 4.2505 -0.556203 0.289339 -0.251309 -0.777778 5.07587 0.496907 0.889342 -0.463454 -0.274326 0.842589
-37.0402 -5.822 4.5435 -0.244789 -0.358529 0 0.622222 5.20585 0.436613 3.03509 -0.347204 0.810193 0.472268
-34.925 -0.822125 0.624313 -0.166115 -0.0179183 0.237653 -0.54934 5.25503 -0.056821 5.05502 0.691245 -0.250309 0.677883
-36.4033 -5.22025 3.798 -0.307738 -0.391204 0 0.622222 5.34742 0.63504 3.17356 -0.192443 0.937573 0.289695
-35.0124 -2.15687 0.0776875 -0.360413 -0.184434 0 -0.288889 5.34947 -0.12048 4.7573 -0.132374 -0.269482 0.953864
-36.2704 -3.198 -0.585813 -0.436477 -0.17823 0 -0.288889 5.41705 -0.999819 4.39817 -0.0350476 -0.118894 0.992288
-36.4315 1.14775 3.6145 -0.328163 0.0682326 -0.0427102 -0.777778 5.54495 0.396665 5.87696 0.566569 -0.0350329 0.823269
-39.3888 -6.33588 5.80237 -0.163987 -0.287651 0 0.622222 5.63696 -0.0663983 2.55311 -0.0383378 0.914225 0.403388
-37.0859 -6.42944 5.42169 -0.218864 -0.290956 0 0.622222 5.71406 -0.812193 2.88991 -0.133285 0.924278 0.357694
-41.4772 1.22775 4.66525 -0.871217 0.179225 -0.649649 -0.777778 5.73191 0.916865 0.876716 -0.00352843 -0.115298 0.993325
-42.1951 -4.93669 3.83363 -0.405833 0.382697 -0.0483396 -0.288889 5.83619 0.27189 1.9559 -0.882318 -0.162969 0.441538
-39.0421 3.00738 3.62512 -0.371083 0.134486 0 -0.777778 5.86936 -0.189517 0.189867 0.235222 0.228087 0.9448
-35.9878 -4.63312 -0.051875 -0.273015 -0.230353 0 -0.241207 5.89159 -0.999864 4.04147 -0.0681136 0.630653 0.77307
-41.806 -6.0655 4.664 -0.339903 0.284965 -0.444224 -0.288889 5.9106 0.999887 2.20241 -0.668142 -0.13767 0.731186
-42.4468 -2.0485 2.633 -0.41063 0.431657 0 -0.288889 5.91634 -0.391789 1.27957 -0.822443 0.0439963 0.567143
-36.3025 -5.19994 1.31463 -0.396933 -0.346443 0 0.622222 5.92614 -0.650046 3.66693 -0.135275 0.967282 0.214632
-37.587 3.07075 3.68775 -0.610613 0.16754 -0.50762 -0.777778 6.07494 0.734447 6.19331 0.226641 0.577705 0.78415
-42.4011 -3.13925 3.435 -0.35095 0.483411 0 -0.288889 6.09102 0.415678 1.27957 -0.95444 0.108251 0.278077
-36.4515 2.298 3.7275 -0.528223 0.099353 -0.0184521 -0.777778 6.11189 0.999873 5.87696 0.582346 0.298106 0.756311
-41.0505 2.48775 4.56675 -0.473897 0.117058 0 -0.777778 6.18031 0.363515 0.876716 0.203024 -0.106568 0.973357
-40.7697 -7.24625 4.67725 -0.16182 0.275936 0 0.20411 6.26972 0.187267 2.20241 -0.714739 -0.526074 0.460863
-40.3257 -7.13325 6.0125 -0.106588 0.310707 0 0.622222 6.39429 0.364511 2.55311 -0.902043 0.354241 0.246639
-35.0541 1.07375 1.07763 -0.100963 0.0555599 0 -0.777778 6.40422 -0.538262 5.33772 0.90533 -0.0469999 0.4221
-35.2925 -3.2405 -0.350875 -0.381477 -0.225663 0 -0.288889 6.42367 -0.680327 4.39817 -0.367442 0.0947415 0.925208
-42.7577 -0.231688 2.256 -0.441463 0.333941 -0.829375 -0.777778 6.45411 -0.49933 1.27957 -0.776429 -0.137096 0.615112
-35.5205 -4.9905 2.8695 -0.362307 -0.355888 0 0.622222 6.58581 0.475207 3.17356 -0.102899 0.986652 0.126215
-35.9019 -5.79362 5.36525 -0.244153 -0.329103 0 0.622222 6.61006 -0.18642 2.88991 -0.443094 0.872622 0.205424
-35.5944 1.77725 2.64581 -0.096858 0.0740671 0 -0.777778 6.69473 0.473408 5.87696 0.858202 0.155366 0.489234
-37.878 -6.53662 6.06738 -0.320401 -0.291886 0 0.622222 6.7416 -0.406608 2.88991 0.0806288 0.996742 0.00230739
-43.0871 1.57525 3.7945 -0.784183 0.261524 -0.0612437 -0.777778 6.80439 0.837786 0.889342 -0.765179 -0.186942 0.61608
-39.8204 -6.49412 6.95056 -0.113353 -0.316835 0 0.622222 6.87375 0.438333 2.55311 -0.617739 0.785837 0.0292997
-33.3881 -0.907 -0.127625 -0.204074 -0.109745 0 -0.288889 6.96812 -0.143303 5.05502 0.358553 0.40405 0.841536
-43.2521 -1.776 2.00638 -0.546803 0.277335 -0.1622 -0.777778 6.97247 -0.0637241 1.27957 -0.520021 -0.0834216 0.85007
-39.8445 3.57888 4.13925 -0.23738 0.0696225 0 -0.777778 6.98057 0.617063 0.189867 0.552164 0.149121 0.820291
-34.3894 0.790625 0.009625 -0.159551 -0.0353391 0 -0.676371 7.06215 -0.595087 5.05502 0.660308 -0.00013185 0.750995
-40.336 -8.1225 5.43937 -0.0817083 0.288013 0 0.622222 7.13407 0.164308 2.55311 -0.944471 -0.323984 -0.0548503
-36.7781 -6.53188 6.914 -0.274894 -0.270619 0 0.564384 7.24123 -0.548748 2.88991 -0.216885 0.972193 0.0883307
-34.7426 -4.191 0.26325 -0.267609 -0.251591 0 -0.288889 7.25001 -0.354833 4.04147 -0.340167 0.668509 0.661349
-42.217 2.568 4.372 -0.524177 0.200322 0 -0.777778 7.29062 0.39463 0.876716 -0.421686 -0.00642154 0.906719
-41.8543 -6.81925 3.45994 -0.00523467 0.316933 0.00167843 -0.288889 7.33195 0.999855 2.20241 -0.776072 -0.630333 -0.0198401
-42.3643 -4.956 2.285 -0.295219 0.384685 0 -0.288889 7.39415 -0.112129 1.9559 -0.933146 -0.299697 0.198547
-42.7841 -3.36331 1.97894 -0.300786 0.357198 0 -0.661549 7.42309 -0.38162 1.27957 -0.787829 -0.144723 0.598649
-33.4766 -3.51219 0.695625 -0.283369 -0.240638 0 -0.288889 7.48896 -0.508533 4.7573 -0.65061 0.291893 0.701075
-32.8725 -1.9635 0.789 -0.277471 -0.226387 -0.134529 -0.354247 7.61277 0.199251 4.7573 -0.481363 0.641157 0.597668
-35.019 2.274 1.26 -0.0941137 0.052848 0 -0.777778 7.61875 0.270744 5.33772 0.859955 0.0943554 0.501572
-40.3124 -7.47781 3.41987 -0.112871 0.315454 0.240844 -0.288889 7.62757 -0.0424891 2.20241 -0.570349 -0.785454 -0.240342
-42.0288 3.59275 4.5445 -0.22957 0.188285 0 -0.777778 7.65631 0.742546 0.876716 -0.480291 0.13937 0.865966
-33.0566 0.118375 -0.5665 -0.173941 -0.0733861 0 0.698222 7.662 -0.529628 5.05502 0.338264 0.0327202 0.940482
-36.215 3.1935 2.472 -0.199528 0.119403 0 -0.777778 7.67207 0.213337 5.87696 0.601827 0.538145 0.590088
-37.5692 4.24862 2.59262 -0.242175 0.103379 -0.269377 -0.777778 7.68336 -0.287186 0.189867 0.374094 0.371871 0.849568
-43.4664 0.37225 1.41225 -0.43811 0.287766 -0.949832 -0.777778 7.71065 -0.265443 1.27957 -0.876384 -0.0627596 0.477507
-41.0871 4.13737 4.7885 -0.180523 0.138288 0 -0.777778 7.84517 0.999891 0.189867 -0.0134583 0.342001 0.939603
-39.1658 4.87844 2.96075 -0.131707 0.0946896 0 -0.777778 7.85872 -0.264272 0.189867 0.379436 0.357608 0.853314
-40.3073 -8.2845 7.0405 -0.250848 0.251756 0 0.622222 7.93782 0.503443 2.55311 -0.983741 -0.144484 0.106671
-34.1722 -4.98475 3.09775 -0.222041 -0.301454 0 0.622222 7.95331 -0.5295 3.17356 -0.287157 0.953252 0.0940841
-35.753 -6.076 6.7845 -0.291349 -0.286977 0 0.422222 8.06476 -0.522238 2.88991 -0.619832 0.760206 0.194666
-34.769 -5.28237 4.57438 -0.310572 -0.336379 0 0.472631 8.08325 -0.489743 2.88991 -0.440406 0.895197 -0.0683023
-43.0135 2.919 3.737 -0.383727 0.236053 0 -0.777778 8.15138 0.600167 0.876716 -0.797274 0.168796 0.579536
-40.364 -7.339 7.8165 -0.106214 0.254278 0 0.622222 8.20009 0.999892 2.55311 -0.928574 0.228913 0.292146
-34.0807 -4.81025 1.82325 -0.262563 -0.290845 0 -0.165003 8.23848 -0.505076 3.66693 -0.396356 0.895647 0.201787
-44.2265 -1.16675 1.407 -0.580857 0.263892 -0.14629 -0.777778 8.26858 0.57672 1.27957 -0.739751 0.220711 0.635654
-34.2067 2.36244 -0.0304375 -0.260987 -0.0359749 0 -0.777778 8.30333 -0.37688 5.05502 0.602862 -0.012522 0.797747
-43.7072 2.09175 2.51425 -0.662943 0.265679 -0.0961542 -0.777778 8.31778 0.594798 0.889342 -0.958642 0.0444668 0.281118
-35.2217 -5.19338 6.81475 -0.528 -0.299919 0 0.422222 8.32003 0.763676 2.88991 -0.691483 0.696105 0.193104
-33.8745 -4.44375 0.85425 -0.229711 -0.270432 0 -0.777778 8.33017 -0.863753 4.04147 -0.610094 0.669089 0.424388
-40.2899 4.84462 3.888 -0.154787 0.0985998 0 -0.777778 8.34571 0.409007 0.189867 0.428523 0.453485 0.781486
-44.481 -2.173 1.411 -0.471517 0.255355 -0.634344 -0.777778 8.39454 0.942526 1.27957 -0.771995 -0.0660557 0.632187
-42.846 -4.95762 1.38975 -0.253507 0.246982 0 -0.539807 8.41077 -0.210694 1.9559 -0.49883 -0.472741 0.726419
-38.5578 -5.97625 7.695 -0.145536 -0.263033 0 0.622222 8.42828 0.999874 2.55311 -0.022914 0.993538 0.111163
-39.72 -9.3495 5.1955 -0.207814 0.255805 0 0.622222 8.52851 0.545022 2.55311 -0.880232 -0.386669 -0.275096
-34.4007 -4.5955 5.6 -0.490827 -0.328282 0 0.422222 8.54505 0.629453 2.88991 -0.54596 0.829982 -0.114273
-41.9191 -5.97325 1.76713 -0.196 0.323924 0 -0.288889 8.61938 0.163624 1.9559 -0.650974 -0.758477 0.0307479
-35.6632 3.54737 1.66925 -0.096065 0.0747145 0 -0.777778 8.70846 0.156373 5.87696 0.694694 0.329017 0.639647
-31.8857 -1.60984 -0.784625 -0.38807 -0.0678813 -0.860595 -0.153048 8.75217 -0.327131 5.05502 0.51838 0.297852 0.801603
-37.5353 -6.48425 8.23575 -0.233165 -0.207744 0 0.622222 8.76525 0.0901899 2.88991 0.0970878 0.959624 0.263998
-32.6063 -2.82525 1.547 -0.460887 -0.278181 -0.466372 -0.777778 8.79092 -0.999882 4.7573 -0.950184 0.265308 0.16359
-43.7235 -4.16962 1.3335 -0.250244 0.204797 0 -0.777778 8.81922 0.236156 1.27957 -0.368419 -0.150679 0.917368
-39.2218 -6.73138 8.81181 -0.051944 -0.202672 0 0.622222 8.84324 0.864378 2.55311 -0.384019 0.697497 0.605002
-31.7221 -2.39494 0.657188 -0.30844 0.182289 -0.295931 -0.340147 8.84846 -0.259311 4.7573 0.407498 0.899155 -0.159577
-31.8854 0.152375 -0.856125 -0.221894 -0.0899707 0 0.933333 8.86896 -0.802112 5.05502 0.0564411 -0.15471 0.986346
-36.2115 -6.49013 8.4785 -0.151679 -0.19461 0 0.422222 8.90569 0.188495 2.88991 -0.198481 0.832854 0.516681
-39.2227 -8.85181 4.25631 -0.15133 0.28262 0 0.622222 8.91479 -0.2882 2.55311 -0.697007 -0.510394 -0.503666
-44.243 -3.201 1.1145 -0.36229 0.245537 -0.518956 -0.777778 8.92387 -0.0519475 1.27957 -0.699789 -0.0724048 0.710671
-36.7305 5.051 2.075 -0.170514 0.0790753 0 -0.777778 8.95425 0.48802 0.189867 0.619813 0.41907 0.663485
-33.3517 -4.48987 3.43613 -0.318732 -0.304145 0 -0.777778 8.96949 -0.678108 3.17356 -0.704637 0.708257 0.0431058
-32.1995 -1.76988 1.95131 -0.450837 -0.254577 -0.485475 -0.777778 8.96974 0.346242 4.7573 -0.237383 0.93881 -0.249569
-42.5649 4.24325 3.52925 -0.236719 0.201376 0 -0.777778 8.97589 0.230999 0.876716 -0.666223 0.382737 0.640046
-43.9055 1.411 0.7435 -0.38372 0.239947 -0.647603 -0.731169 9.02177 -0.263171 1.27957 -0.874578 -0.0774757 0.478656
-32.9215 1.461 -0.2985 -0.189702 -0.0833969 0 0.933333 9.03776 0.366122 5.05502 0.183105 -0.0688322 0.980681
-39.757 -9.28 6.953 -0.319286 0.216398 0 0.622222 9.07866 0.22262 2.55311 -0.878225 -0.449744 0.162637
-34.8864 3.69462 0.610563 -0.44281 0.0474897 -0.428971 -0.777778 9.1864 -0.056273 5.33772 0.697698 0.177179 0.694136
-43.381 3.104 2.787 -0.50053 0.240116 0 -0.777778 9.18665 -0.581702 0.876716 -0.901441 0.172538 0.397031
-41.4459 5.14194 3.975 -0.152148 0.154198 0 -0.777778 9.18669 0.444238 0.189867 -0.247794 0.510356 0.823489
-40.957 -6.576 1.7615 -0.102189 0.330531 0 -0.288889 9.26818 -0.106948 2.20241 -0.459778 -0.841891 -0.28253
-39.8947 -7.20087 1.83025 -0.162095 0.324674 0.0702385 0.535553 9.29432 -0.439735 2.20241 -0.630199 -0.758222 -0.167178
-33.0858 -3.63425 2.55325 -0.39717 -0.30432 -0.0935159 -0.777778 9.39117 -0.153587 3.66693 -0.882026 0.453282 0.128706
-38.9986 -7.99137 2.27875 -0.178566 0.288249 0 0.622222 9.44195 -0.466468 2.20241 -0.620734 -0.776492 -0.1084
-44.4607 0.274063 -0.0676875 -0.16303 0.241122 0 -0.355556 9.49629 0.105417 1.27957 -0.919826 0.0610784 0.387543
-32.7163 -2.2705 2.6995 -0.821407 -0.297863 -0.0655108 -0.777778 9.55407 0.455057 4.7573 -0.91507 0.393282 0.0893089
-33.4614 3.28387 -0.543375 -0.298216 -0.0647876 -0.360736 -0.0590029 9.59469 -0.05795 5.05502 0.431141 0.229098 0.872715
-37.853 6.161 2.52325 -0.42339 0.0846233 -0.114686 -0.777778 9.61793 0.999865 0.189867 0.485835 0.491831 0.722542
-39.8805 6.407 2.3535 -0.216176 0.139294 -0.596574 -0.777778 9.65206 0.0722123 0.189867 0.0555998 0.834161 0.548712
-44.7566 -1.61137 0.203125 -0.688753 0.271527 -0.199359 -0.777778 9.65711 0.453965 1.27957 -0.987101 0.0879635 0.133767
-39.669 -8.315 8.716 -0.222349 0.189769 0 0.622222 9.69833 0.722866 2.55311 -0.795708 -0.188115 0.575727
-41.3828 -6.0725 0.728 -0.199989 0.275841 0 -0.288889 9.79295 -0.516383 1.9559 -0.266816 -0.963376 -0.0267447
-34.8674 -5.60225 8.20088 -0.217975 -0.201969 0 0.422222 9.8011 0.444236 2.88991 -0.382486 0.708639 0.592904
-40.8469 6.1535 3.4435 -0.125914 0.126386 0 -0.777778 9.83601 0.999874 0.189867 0.128493 0.729327 0.671991
-38.9025 6.7615 2.2985 -0.396377 0.134519 -0.723265 -0.777778 9.87213 0.999884 0.189867 0.000183148 0.796149 0.605101
-44.2975 -5.0985 0.976 -0.259578 0.170037 0 -0.777778 9.92665 0.698935 1.27957 -0.335261 -0.363691 0.869096
-42.5382 -6.08794 0.34725 -0.289453 0.160136 -0.705661 -0.760553 9.97895 -0.142745 1.9559 0.030004 -0.835853 0.548133
-36.8985 5.6195 1.235 -0.315665 0.132571 -0.430746 -0.777778 9.98236 -0.0759726 0.189867 0.577129 0.803528 0.145822
-31.183 -1.832 1.72525 -0.651407 -0.204186 -0.619464 -0.777778 10.0129 0.576835 4.7573 0.249647 0.832173 -0.49514
-33.7808 -4.35275 7.259 -0.49901 -0.226487 0 0.422222 10.0464 0.711429 2.88991 -0.30399 0.887822 0.345489
-39.4165 -10.2591 6.43469 -0.253513 -0.218312 0 0.622222 10.0954 -0.220215 2.55311 -0.996475 -0.0786897 -0.029075
-31.87 1.445 -0.4295 -0.183959 -0.0869589 0 0.933333 10.0975 0.424064 5.05502 0.0845076 -0.0101996 0.996371
-38.4269 -7.34469 9.6155 -0.0803503 -0.147321 0 0.622222 10.1293 0.776417 2.55311 -0.347538 0.211085 0.913597
-44.6104 1.5565 -0.18625 -0.0721433 0.203201 0 -0.355556 10.1976 -0.0678536 1.27957 -0.833737 -0.134689 0.535483
-30.6003 -0.275 -0.702 -0.222745 -0.0564208 0 0.933333 10.232 0.47541 5.05502 0.29752 -0.343281 0.890865
-33.0223 -3.958 4.60862 -0.405587 -0.290379 0 -0.777778 10.2755 -0.0475736 2.88991 -0.676776 0.735773 0.0247489
-31.0072 -2.9275 -0.510875 -0.260717 -0.127961 0 -0.777778 10.3178 -0.75846 4.7573 0.507971 0.830996 0.22674
-30.376 -3.0025 0.469 -0.231141 -0.174914 0 -0.777778 10.3373 -0.624391 4.7573 0.243404 0.888192 -0.389705
-45.1165 -4.48737 0.769 -0.22781 0.207624 0 -0.777778 10.3555 0.999883 1.27957 -0.726908 -0.0429006 0.685394
-43.3775 4.48887 2.2265 -0.189991 0.216309 0 -0.777778 10.3601 0.66019 0.876716 -0.917421 0.322008 0.233773
-39.1034 -9.88912 7.8795 -0.307649 -0.203062 0 0.622222 10.3658 -0.530008 2.55311 -0.983972 -0.0837317 0.157441
-36.9893 -7.27563 9.55737 -0.096239 -0.124313 0 0.622222 10.3996 0.752194 2.88991 0.139151 0.628387 0.765354
-34.8695 -6.857 9.14087 0.0581217 -0.128665 0 0.422222 10.4466 0.660127 2.88991 -0.190404 0.275077 0.942379
-32.0185 -1.359 3.388 -0.66804 -0.237589 -0.457025 -0.777778 10.475 0.999935 4.7573 -0.474648 0.844896 0.246697
-31.08 -1.29131 2.85188 -0.839707 -0.176554 -0.502738 -0.777778 10.4841 0.87458 4.7573 0.226045 0.97141 0.072571
-38.3525 -8.72563 2.94537 -0.203228 0.279623 0 0.622222 10.4933 -0.794965 2.55311 -0.694445 -0.62912 -0.34922
-35.5774 -7.80863 9.09609 -0.055958 -0.088108 0 0.424333 10.4938 -0.166127 2.88991 0.168083 0.200091 0.965252
-30.606 -2.2485 -1.8515 -0.350867 -0.0409562 0 0.372242 10.5365 -0.861368 5.05502 0.546423 0.113876 0.829731
-38.5904 -10.7269 4.25181 -0.149889 -0.234643 0 0.622222 10.5444 -0.120345 2.55311 -0.861603 0.0665513 -0.503201
-44.0106 3.05763 0.46325 -0.200324 0.206963 -0.0539261 -0.433438 10.605 0.117234 0.889342 -0.815712 0.336265 0.47068
-38.5112 -8.4565 1.32337 -0.195325 0.239067 0 0.622222 10.611 -0.582015 2.20241 -0.580219 -0.803921 0.130607
-44.3374 -6.106 0.246625 -0.4368 0.147031 0 -0.777778 10.613 0.258696 1.9559 -0.271294 -0.522365 0.808415
-39.3829 -7.738 0.670625 -0.174077 0.282201 0 0.622222 10.671 0.48588 2.20241 -0.759828 -0.649223 -0.034218
-33.2643 4.08875 -1.24125 -0.260982 0.101263 -0.169393 0.0899142 10.6781 0.0919547 5.05502 0.454571 0.739756 0.49611
-34.08 4.646 -0.2085 -0.47229 0.0816968 -0.0836404 -0.777778 10.6785 0.868088 5.33772 0.694678 0.54295 0.471834
-43.3685 3.93012 1.05087 -0.203347 0.22776 -0.11808 -0.777778 10.6918 -0.332833 0.889342 -0.912182 0.392837 0.116634
-35.4398 5.106 0.462875 -0.140973 0.10119 -0.00747202 -0.777778 10.692 0.314164 5.87696 0.568192 0.661566 0.489376
-42.4618 5.8275 2.869 -0.120945 0.183501 0 -0.777778 10.6953 0.999857 0.189867 -0.637805 0.660288 0.396517
-37.947 -9.83925 3.46025 -0.175008 0.253897 0 0.622222 10.7137 -0.343596 2.55311 -0.870984 -0.280418 -0.403427
-45.0146 -2.96869 -0.523188 -0.217412 0.244996 0 -0.777778 10.7491 -0.0283598 1.27957 -0.936592 0.267243 0.226664
-44.443 -1.03013 -0.71425 -0.180242 0.266622 0 -0.777778 10.7875 -0.424717 1.27957 -0.997938 0.0640563 0.00417257
-40.555 -6.288 0.1665 -0.209884 0.269459 0 -0.288889 10.8162 -0.999823 1.9559 -0.418926 -0.893581 0.161291
-41.1557 6.58269 1.94638 -0.0897697 0.171188 0 -0.777778 11.0021 0.538958 0.189867 -0.281334 0.942512 0.18034
-39.406 6.85775 1.17025 -0.289068 0.166111 -0.444541 -0.777778 11.0042 0.505985 0.189867 -0.0527962 0.998553 -0.0101789
-32.271 -2.29513 4.08075 -0.67468 -0.237097 -0.14244 -0.777778 11.0055 0.336268 4.7573 -0.588367 0.642445 0.491007
-37.9227 6.81687 1.29125 -0.52478 0.14598 -0.0116655 -0.777778 11.0154 0.999877 0.189867 0.375133 0.923679 -0.0780551
-38.9468 -9.482 9.05175 -0.187323 0.155397 0 0.622222 11.1112 0.265325 2.55311 -0.680577 -0.107266 0.724782
-39.7103 -11.2475 6.627 -0.285025 -0.198494 -0.0163221 -0.0592464 11.1443 0.268709 2.55311 -0.881759 0.461065 -0.0995947
-45.1515 1.23088 -1.26688 0.0780067 0.199923 0 -0.355556 11.1788 0.37999 1.27957 -0.918143 -0.310541 0.246125
-42.882 -7.097 -0.217 -0.539707 0.0878245 -0.943446 -0.777778 11.1851 0.438927 1.9559 0.236199 -0.51959 0.821119
-31.8743 3.232 -0.751375 -0.141749 0.093703 0 0.933333 11.1962 0.642239 5.05502 0.287089 0.611263 0.737521
-39.7342 -7.0765 -0.14 -0.219667 0.272675 0 -0.114654 11.275 -0.61831 1.9559 -0.746758 -0.641011 0.177364
-45.2233 2.5905 -0.699 -0.0731803 0.179318 0 -0.355556 11.304 0.751852 1.27957 -0.854323 0.00757809 0.519687
-36.5909 5.66354 -0.0681541 0.165558 0.142363 0 -0.777778 11.3221 -0.277079 0.189867 0.192136 0.924412 0.329462
-29.7279 0.5895 -0.70275 -0.179654 -0.0367286 0 0.933333 11.4602 0.977569 5.05502 0.440474 -0.169191 0.881678
-29.8686 -2.227 2.542 -0.454337 -0.160594 0 -0.7391 11.4973 -0.240152 4.7573 0.363008 0.900369 -0.239917
-39.2836 -11.0393 7.63112 -0.129898 -0.186568 0 -0.0888889 11.5299 -0.620587 2.55311 -0.867189 0.482527 0.123084
-29.097 -2.62 1.232 -0.0443953 -0.172178 0.708644 -0.155556 11.5452 0.0901163 4.7573 -0.0665671 0.910376 -0.408392
-45.2798 -3.96525 -0.29375 -0.306163 0.235414 0 -0.777778 11.5508 0.519383 1.27957 -0.947872 0.205734 0.243338
-37.5008 -9.25106 1.43956 -0.292148 0.238002 -0.0249432 0.487644 11.5714 -0.787238 2.20241 -0.825626 -0.564013 -0.0152332
-33.1136 -5.69175 8.441 -0.25574 -0.131403 0 0.422222 11.5735 -0.0800373 2.88991 -0.0804986 0.527094 0.845986
3 105 149 125
3 57 89 66
3 198 164 132
3 164 177 117
3 164 117 132
3 81 117 71
3 81 71 56
3 56 75 81
3 56 71 24
3 57 24 71
3 24 49 56
3 75 56 49
3 113 139 151
3 139 125 185
3 185 125 159
3 132 117 81
3 81 129 130
3 132 130 171
3 24 21 46
3 21 33 46
3 21 18 33
3 21 24 9
3 104 113 110
3 151 160 113
3 160 165 116
3 116 165 161
3 76 77 103
3 77 46 53
3 77 53 50
3 77 50 68
3 118 77 68
3 53 33 26
3 33 13 26
3 5 10 13
3 26 13 10
3 3 11 2
3 2 11 12
3 29 11 23
3 3 9 11
3 39 23 37
3 11 9 24
3 43 66 64
3 110 72 64
3 72 110 116
3 72 116 91
3 110 160 116
3 141 99 91
3 62 99 106
3 62 106 92
3 106 148 154
3 157 170 144
3 157 178 197
3 157 118 178
3 118 138 178
3 118 102 138
3 112 118 157
3 178 138 179
3 179 138 133
3 133 96 86
3 96 68 60
3 65 45 74
3 74 45 55
3 74 55 82
3 34 22 8
3 25 45 36
3 36 10 25
3 36 26 10
3 1 10 5
3 8 1 15
3 1 0 6
3 1 6 15
3 23 39 29
3 61 29 39
3 39 62 61
3 61 95 51
3 95 61 90
3 131 183 134
3 187 133 152
3 187 152 191
3 133 123 152
3 168 123 98
3 98 158 174
3 98 86 65
3 65 86 60
3 127 93 158
3 158 93 122
3 122 93 82
3 82 93 74
3 87 128 122
3 128 87 101
3 128 101 142
3 87 69 101
3 101 69 88
3 52 47 34
3 69 55 47
3 85 52 84
3 84 108 85
3 63 54 42
3 42 34 28
3 42 28 35
3 34 8 28
3 59 48 73
3 51 95 73
3 59 73 78
3 40 79 67
3 79 134 121
3 121 147 114
3 147 194 114
3 176 158 122
3 137 181 142
3 182 137 143
3 137 142 88
3 143 137 88
3 136 119 146
3 119 136 85
3 108 126 175
3 108 84 63
3 80 63 58
3 32 63 35
3 42 35 63
3 17 6 20
3 83 38 67
3 32 17 38
3 17 20 38
3 20 40 38
3 59 78 40
3 124 83 115
3 193 150 153
3 115 153 150
3 172 135 189
3 173 135 172
3 135 126 97
3 97 126 80
3 80 58 97
3 97 58 70
3 124 150 135
3 189 135 150
3 62 37 44
3 129 180 130
3 195 149 186
3 159 125 149
3 159 149 195
3 164 198 177
3 43 24 57
3 43 57 66
3 145 180 140
3 130 180 190
3 130 190 171
3 81 130 132
3 145 140 107
3 129 107 140
3 170 188 145
3 103 145 107
3 103 107 76
3 76 107 75
3 46 76 75
3 112 144 103
3 112 103 77
3 118 112 77
3 26 50 53
3 2 0 3
3 12 11 29
3 44 23 11
3 44 11 43
3 44 43 64
3 43 11 24
3 37 23 44
3 72 62 44
3 99 62 91
3 91 62 72
3 64 72 44
3 61 62 92
3 92 120 90
3 90 61 92
3 154 120 92
3 154 92 106
3 133 187 179
3 123 133 86
3 123 86 98
3 60 86 96
3 36 60 26
3 50 26 60
3 50 60 68
3 47 55 22
3 47 22 34
3 22 55 45
3 8 22 10
3 10 22 25
3 25 22 45
3 1 8 10
3 4 6 0
3 4 0 2
3 51 29 61
3 120 131 95
3 120 95 90
3 152 123 191
3 191 123 168
3 127 158 98
3 142 101 88
3 47 88 69
3 85 88 47
3 85 47 52
3 20 6 16
3 20 16 30
3 30 16 41
3 41 16 31
3 31 16 14
3 2 14 4
3 4 14 16
3 4 16 6
3 27 48 19
3 19 48 31
3 48 27 51
3 12 27 19
3 12 19 2
3 2 19 14
3 14 19 31
3 31 48 41
3 29 51 27
3 29 27 12
3 59 41 48
3 73 48 51
3 78 73 100
3 78 100 131
3 131 100 95
3 95 100 73
3 79 78 111
3 111 131 134
3 131 111 78
3 40 78 79
3 134 79 111
3 67 114 109
3 114 79 121
3 79 114 67
3 155 109 114
3 155 114 156
3 194 196 114
3 114 196 156
3 182 181 137
3 119 175 146
3 80 108 63
3 58 63 32
3 70 58 38
3 70 38 83
3 38 58 32
3 30 40 20
3 40 30 41
3 40 41 59
3 97 70 83
3 97 83 124
3 67 109 83
3 83 109 115
3 115 109 153
3 155 166 109
3 109 166 153
3 108 80 126
3 124 135 97
3 167 105 117
3 105 167 149
3 89 71 125
3 125 71 105
3 105 71 117
3 71 89 57
3 167 117 177
3 89 125 139
3 89 139 94
3 89 94 66
3 113 94 139
3 185 151 139
3 132 169 198
3 75 107 129
3 75 129 81
3 49 24 46
3 49 46 75
3 113 104 66
3 113 66 94
3 180 129 140
3 170 103 144
3 103 170 145
3 46 77 76
3 33 53 46
3 18 21 7
3 18 7 5
3 5 13 18
3 18 13 33
3 3 0 7
3 3 7 9
3 9 7 21
3 7 0 5
3 64 104 110
3 104 64 66
3 113 160 110
3 161 141 116
3 116 141 91
3 141 148 99
3 148 106 99
3 199 148 141
3 157 144 112
3 118 68 102
3 102 68 96
3 96 133 138
3 96 138 102
3 45 65 36
3 65 60 36
3 0 1 5
3 37 62 39
3 154 183 131
3 154 131 120
3 174 168 98
3 74 93 65
3 98 65 93
3 98 93 127
3 87 82 55
3 87 55 69
3 87 122 82
3 54 52 34
3 54 34 42
3 63 84 54
3 84 52 54
3 17 15 6
3 15 17 35
3 15 35 28
3 15 28 8
3 162 134 183
3 162 183 163
3 163 194 147
3 163 147 121
3 163 121 162
3 162 121 134
3 128 176 122
3 142 181 176
3 142 176 128
3 184 182 143
3 143 136 184
3 136 143 88
3 136 88 85
3 184 136 146
3 85 108 119
3 119 108 175
3 17 32 35
3 67 38 40
3 126 135 173
3 126 173 175
3 124 115 150
3 146 175 192
