ply
format ascii 1.0
comment Generated by PyMesh
element vertex 183
property float x
property float y
property float z
property float nx
property float ny
property float nz
element face 310
property list uchar int vertex_indices
end_header
-37.416 -1.8825 0.155 0.413356 -0.677452 0.608436
-36.4637 -2.113 -0.2115 -0.0157937 -0.645112 0.763924
-38.1285 -2.969 0.269125 0.843178 -0.22809 0.486853
-36.1942 -1.52581 0.898938 0.200794 -0.884774 0.420543
-37.3666 -3.35194 -0.498563 0.371797 0.0310102 0.927796
-38.1974 -2.14069 1.66594 0.787496 -0.564312 0.247794
-36.2704 -3.198 -0.585813 -0.0350476 -0.118894 0.992288
-37.4189 -1.511 2.14619 0.361916 -0.871285 0.331481
-38.0385 -4.1545 0.1545 0.715193 0.39173 0.578832
-35.0124 -2.15687 0.0776875 -0.132374 -0.269482 0.953864
-38.6023 -3.22781 1.86181 0.954505 0.0227215 0.297327
-35.2925 -3.2405 -0.350875 -0.367442 0.0947415 0.925208
-34.925 -0.822125 0.624313 0.691245 -0.250309 0.677883
-35.9363 -1.14137 2.40313 0.578249 -0.734484 0.355191
-35.9878 -4.63312 -0.051875 -0.0681136 0.630653 0.77307
-38.8596 -2.3095 3.33262 0.836238 -0.206014 0.508196
-37.6309 -4.894 0.760625 0.35599 0.853998 0.379419
-36.6226 -0.83575 3.69537 0.20358 -0.500822 0.841268
-38.5714 -0.836875 3.46025 0.391656 -0.137736 0.909744
-34.7426 -4.191 0.26325 -0.340167 0.668509 0.661349
-35.245 -0.365 1.9245 0.927783 -0.160929 0.33663
-38.3061 -4.64156 1.7885 0.772696 0.573598 0.271893
-35.5675 0.14675 2.96625 0.750801 -0.123764 0.64883
-33.3881 -0.907 -0.127625 0.358553 0.40405 0.841536
-39.0392 -4.08825 3.2905 0.866152 0.13306 0.481742
-33.4766 -3.51219 0.695625 -0.65061 0.291893 0.701075
-34.3894 0.790625 0.009625 0.660308 -0.00013185 0.750995
-32.8725 -1.9635 0.789 -0.481363 0.641157 0.597668
-35.0541 1.07375 1.07763 0.90533 -0.0469999 0.4221
-36.3025 -5.19994 1.31463 -0.135275 0.967282 0.214632
-38.7046 0.434438 3.35763 -0.017559 -0.0932078 0.995492
-37.097 0.353 3.8695 0.176704 -0.136258 0.974787
-33.8745 -4.44375 0.85425 -0.610094 0.669089 0.424388
-33.0566 0.118375 -0.5665 0.338264 0.0327202 0.940482
-37.5618 -5.33744 2.60069 0.116432 0.978917 0.167823
-40.2346 -1.98538 4.73763 0.295184 0.348033 0.889797
-38.6125 -5.23581 3.59262 0.552816 0.670072 0.495377
-39.5793 -4.5735 4.28075 0.666708 0.0707343 0.741955
-40.1156 -3.0305 5.21513 0.613754 0.0165811 0.789323
-34.0807 -4.81025 1.82325 -0.396356 0.895647 0.201787
-32.6063 -2.82525 1.547 -0.950184 0.265308 0.16359
-36.4315 1.14775 3.6145 0.566569 -0.0350329 0.823269
-31.7221 -2.39494 0.657188 0.407498 0.899155 -0.159577
-40.5229 -1.05625 4.39113 0.0563963 0.254513 0.965423
-35.019 2.274 1.26 0.859955 0.0943554 0.501572
-32.1995 -1.76988 1.95131 -0.237383 0.93881 -0.249569
-35.5944 1.77725 2.64581 0.858202 0.155366 0.489234
-34.2067 2.36244 -0.0304375 0.602862 -0.012522 0.797747
-31.8857 -1.60984 -0.784625 0.51838 0.297852 0.801603
-39.6213 1.29762 3.55437 0.233579 -0.0350575 0.971706
-37.6167 -5.52175 3.63175 -0.0906204 0.930519 0.354856
-31.8854 0.152375 -0.856125 0.0564411 -0.15471 0.986346
-33.0858 -3.63425 2.55325 -0.882026 0.453282 0.128706
-35.5205 -4.9905 2.8695 -0.102899 0.986652 0.126215
-32.7163 -2.2705 2.6995 -0.91507 0.393282 0.0893089
-32.9215 1.461 -0.2985 0.183105 -0.0688322 0.980681
-41.5761 -1.9345 4.50787 -0.463942 0.467623 0.752388
-37.558 1.975 4.17487 0.0352649 0.0157289 0.999254
-40.337 -5.247 4.9125 -0.235348 0.233348 0.943483
-36.4033 -5.22025 3.798 -0.192443 0.937573 0.289695
-41.2697 -3.31787 5.51263 -0.228896 0.144192 0.962713
-36.4515 2.298 3.7275 0.582346 0.298106 0.756311
-31.183 -1.832 1.72525 0.249647 0.832173 -0.49514
-34.1722 -4.98475 3.09775 -0.287157 0.953252 0.0940841
-40.6965 0.08 4.0655 0.230056 0.0183663 0.973004
-40.8904 -4.4085 5.07013 -0.0705653 -0.348085 0.934803
-31.0072 -2.9275 -0.510875 0.507971 0.830996 0.22674
-30.376 -3.0025 0.469 0.243404 0.888192 -0.389705
-41.7721 -1.25794 3.68622 -0.822648 0.114956 0.556808
-37.0402 -5.822 4.5435 -0.347204 0.810193 0.472268
-35.6632 3.54737 1.66925 0.694694 0.329017 0.639647
-33.4614 3.28387 -0.543375 0.431141 0.229098 0.872715
-32.0185 -1.359 3.388 -0.474648 0.844896 0.246697
-31.08 -1.29131 2.85188 0.226045 0.97141 0.072571
-34.8864 3.69462 0.610563 0.697698 0.177179 0.694136
-36.215 3.1935 2.472 0.601827 0.538145 0.590088
-33.3517 -4.48987 3.43613 -0.704637 0.708257 0.0431058
-31.87 1.445 -0.4295 0.0845076 -0.0101996 0.996371
-30.6003 -0.275 -0.702 0.29752 -0.343281 0.890865
-37.587 3.07075 3.68775 0.226641 0.577705 0.78415
-42.1297 0.21025 4.2505 -0.463454 -0.274326 0.842589
-39.3888 -6.33588 5.80237 -0.0383378 0.914225 0.403388
-30.606 -2.2485 -1.8515 0.546423 0.113876 0.829731
-32.271 -2.29513 4.08075 -0.588367 0.642445 0.491007
-37.0859 -6.42944 5.42169 -0.133285 0.924278 0.357694
-42.0901 -3.38044 4.73325 -0.827295 0.00828891 0.561706
-39.0421 3.00738 3.62512 0.235222 0.228087 0.9448
-41.0505 2.48775 4.56675 0.203024 -0.106568 0.973357
-34.769 -5.28237 4.57438 -0.440406 0.895197 -0.0683023
-41.4772 1.22775 4.66525 -0.00352843 -0.115298 0.993325
-33.0223 -3.958 4.60862 -0.676776 0.735773 0.0247489
-29.8686 -2.227 2.542 0.363008 0.900369 -0.239917
-33.2643 4.08875 -1.24125 0.454571 0.739756 0.49611
-29.097 -2.62 1.232 -0.0665671 0.910376 -0.408392
-41.806 -6.0655 4.664 -0.668142 -0.13767 0.731186
-35.9019 -5.79362 5.36525 -0.443094 0.872622 0.205424
-42.4468 -2.0485 2.633 -0.822443 0.0439963 0.567143
-40.7697 -7.24625 4.67725 -0.714739 -0.526074 0.460863
-29.7279 0.5895 -0.70275 0.440474 -0.169191 0.881678
-34.08 4.646 -0.2085 0.694678 0.54295 0.471834
-35.4398 5.106 0.462875 0.568192 0.661566 0.489376
-42.1951 -4.93669 3.83363 -0.882318 -0.162969 0.441538
-40.3257 -7.13325 6.0125 -0.902043 0.354241 0.246639
-31.8743 3.232 -0.751375 0.287089 0.611263 0.737521
-37.878 -6.53662 6.06738 0.0806288 0.996742 0.00230739
-30.0037 -1.3065 -1.902 0.440059 -0.203184 0.87468
-28.9322 -3.57475 -0.422312 0.177193 0.948521 -0.26251
-30.534 -2.024 4.2795 -0.0501962 0.987192 0.151435
-39.8204 -6.49412 6.95056 -0.617739 0.785837 0.0292997
-39.8445 3.57888 4.13925 0.552164 0.149121 0.820291
-37.5692 4.24862 2.59262 0.374094 0.371871 0.849568
-36.7305 5.051 2.075 0.619813 0.41907 0.663485
-29.4058 -2.83725 -1.95275 0.418062 0.552882 0.720795
-42.4011 -3.13925 3.435 -0.95444 0.108251 0.278077
-42.7577 -0.231688 2.256 -0.776429 -0.137096 0.615112
-36.7781 -6.53188 6.914 -0.216885 0.972193 0.0883307
-42.217 2.568 4.372 -0.421686 -0.00642154 0.906719
-29.9776 2.01312 -0.830625 0.295472 0.380909 0.876131
-33.7136 4.56025 -2.15162 0.493744 0.799678 0.341661
-43.0871 1.57525 3.7945 -0.765179 -0.186942 0.61608
-34.4007 -4.5955 5.6 -0.54596 0.829982 -0.114273
-40.336 -8.1225 5.43937 -0.944471 -0.323984 -0.0548503
-32.5255 -4.007 5.828 -0.477079 0.829495 0.290403
-42.0288 3.59275 4.5445 -0.480291 0.13937 0.865966
-43.2521 -1.776 2.00638 -0.520021 -0.0834216 0.85007
-41.8543 -6.81925 3.45994 -0.776072 -0.630333 -0.0198401
-41.0871 4.13737 4.7885 -0.0134583 0.342001 0.939603
-39.1658 4.87844 2.96075 0.379436 0.357608 0.853314
-29.0264 -0.8405 -2.34175 0.559273 -0.22417 0.798099
-35.753 -6.076 6.7845 -0.619832 0.760206 0.194666
-28.3189 -2.3435 3.09025 -0.130167 0.986324 -0.101103
-27.5492 -2.51375 0.8025 -0.263077 0.713557 -0.649328
-40.3124 -7.47781 3.41987 -0.570349 -0.785454 -0.240342
-29.9763 -1.939 5.25131 -0.52254 0.817588 -0.24187
-42.7841 -3.36331 1.97894 -0.787829 -0.144723 0.598649
-36.8985 5.6195 1.235 0.577129 0.803528 0.145822
-31.387 -3.21175 6.058 -0.675592 0.718291 0.166235
-35.2217 -5.19338 6.81475 -0.691483 0.696105 0.193104
-36.5909 5.66354 -0.0681541 0.192136 0.924412 0.329462
-40.364 -7.339 7.8165 -0.928574 0.228913 0.292146
-27.897 -4.00575 -1.309 0.113007 0.983211 0.143266
-40.2899 4.84462 3.888 0.428523 0.453485 0.781486
-40.3073 -8.2845 7.0405 -0.983741 -0.144484 0.106671
-42.3643 -4.956 2.285 -0.933146 -0.299697 0.198547
-28.9252 1.9085 -1.19237 0.640734 0.386869 0.663168
-43.4664 0.37225 1.41225 -0.876384 -0.0627596 0.477507
-31.2518 3.80475 -2.079 0.355292 0.782052 0.512017
-27.3611 -1.5905 1.81975 -0.363097 0.920535 -0.144137
-43.0135 2.919 3.737 -0.797274 0.168796 0.579536
-33.4975 5.05875 -3.01275 0.306894 0.629665 0.71368
-31.7789 4.47612 -2.80687 0.325863 0.754509 0.569675
-38.5578 -5.97625 7.695 -0.022914 0.993538 0.111163
-27.1951 -3.55075 -0.111125 -0.268874 0.776091 -0.57043
-37.853 6.161 2.52325 0.485835 0.491831 0.722542
-27.8848 -3.35856 -2.33444 0.404983 0.764178 0.502016
-28.7354 -1.89062 4.48138 -0.134073 0.9067 -0.399899
-34.5864 5.55737 -2.37337 0.655781 0.638033 0.403565
-28.2756 0.54275 -2.18088 0.653411 -0.0426828 0.755799
-37.5353 -6.48425 8.23575 0.0970878 0.959624 0.263998
-35.4403 6.199 -1.359 0.397987 0.795831 0.456354
-39.2218 -6.73138 8.81181 -0.384019 0.697497 0.605002
-27.9172 -2.3765 -2.96 0.581996 0.252982 0.77284
-44.2265 -1.16675 1.407 -0.739751 0.220711 0.635654
-39.72 -9.3495 5.1955 -0.880232 -0.386669 -0.275096
-43.7072 2.09175 2.51425 -0.958642 0.0444668 0.281118
-42.5649 4.24325 3.52925 -0.666223 0.382737 0.640046
-26.6472 -2.07825 0.52075 -0.429878 0.707136 -0.561395
-36.2115 -6.49013 8.4785 -0.198481 0.832854 0.516681
-33.7808 -4.35275 7.259 -0.30399 0.887822 0.345489
-44.481 -2.173 1.411 -0.771995 -0.0660557 0.632187
-29.779 3.11438 -2.143 0.436958 0.725056 0.532317
-41.4459 5.14194 3.975 -0.247794 0.510356 0.823489
-32.1635 -4.18888 7.43363 -0.494985 0.710564 0.500088
-27.1737 -2.05825 3.749 -0.225108 0.967995 -0.110962
-39.2227 -8.85181 4.25631 -0.697007 -0.510394 -0.503666
-42.846 -4.95762 1.38975 -0.49883 -0.472741 0.726419
-43.381 3.104 2.787 -0.901441 0.172538 0.397031
-43.7235 -4.16962 1.3335 -0.368419 -0.150679 0.917368
-39.757 -9.28 6.953 -0.878225 -0.449744 0.162637
-27.7307 -1.12587 -3.318 0.465009 -0.158384 0.871023
-31.2589 -2.88775 7.42325 -0.944353 0.24938 0.214491
-33.317 5.9805 -3.6345 0.237444 0.751846 0.615101
-41.9191 -5.97325 1.76713 -0.650974 -0.758477 0.0307479
3 102 142 108
3 132 174 121
3 132 121 97
3 97 125 132
3 97 121 58
3 102 58 121
3 58 94 97
3 125 97 94
3 58 65 101
3 65 85 101
3 65 60 85
3 65 58 37
3 151 160 158
3 143 134 175
3 134 101 113
3 134 113 96
3 134 96 124
3 113 85 68
3 85 56 68
3 35 43 56
3 68 56 43
3 24 36 10
3 10 36 21
3 34 36 50
3 24 37 36
3 59 50 69
3 36 37 58
3 81 108 104
3 158 115 104
3 115 158 167
3 115 167 129
3 95 137 120
3 95 120 88
3 120 168 90
3 90 168 122
3 122 168 172
3 162 124 114
3 119 89 116
3 116 89 87
3 116 87 123
3 57 49 30
3 64 89 80
3 80 43 64
3 80 68 43
3 18 43 35
3 30 18 17
3 18 15 7
3 18 7 17
3 50 59 34
3 53 34 59
3 59 95 53
3 53 39 29
3 39 53 63
3 52 83 54
3 164 145 119
3 119 145 114
3 165 148 123
3 123 148 116
3 126 171 165
3 171 126 141
3 126 109 141
3 141 109 127
3 79 86 57
3 109 87 86
3 110 79 75
3 75 70 110
3 46 61 41
3 41 57 31
3 41 31 22
3 57 30 31
3 11 14 19
3 29 39 19
3 11 19 25
3 9 27 23
3 27 54 45
3 45 62 42
3 62 91 42
3 91 73 107
3 91 107 130
3 130 107 155
3 83 107 73
3 153 111 135
3 111 153 110
3 70 74 100
3 70 75 46
3 44 46 28
3 20 46 22
3 41 22 46
3 13 7 3
3 33 12 23
3 20 13 12
3 13 3 12
3 3 9 12
3 11 25 9
3 55 33 51
3 98 77 78
3 51 78 77
3 77 98 117
3 128 78 105
3 128 105 112
3 106 67 93
3 166 131 147
3 131 93 147
3 130 173 147
3 112 154 161
3 159 100 156
3 92 71 103
3 99 71 92
3 71 74 47
3 47 74 44
3 44 28 47
3 47 28 26
3 55 77 71
3 128 161 179
3 146 150 103
3 146 103 170
3 170 103 117
3 103 71 77
3 95 69 84
3 81 58 102
3 81 102 108
3 175 182 143
3 143 182 125
3 101 143 125
3 177 175 134
3 68 96 113
3 10 15 24
3 21 36 34
3 84 50 36
3 84 36 81
3 84 81 104
3 81 36 58
3 69 50 84
3 115 95 84
3 137 95 129
3 129 95 115
3 104 115 84
3 53 95 88
3 88 76 63
3 63 53 88
3 90 76 88
3 90 88 120
3 83 90 122
3 172 136 122
3 172 180 136
3 114 145 162
3 80 114 68
3 96 68 114
3 96 114 124
3 86 87 49
3 86 49 57
3 49 87 89
3 30 49 43
3 43 49 64
3 64 49 89
3 18 30 43
3 5 7 15
3 5 15 10
3 29 34 53
3 76 52 39
3 76 39 63
3 107 83 136
3 136 133 107
3 86 127 109
3 110 127 86
3 110 86 79
3 3 7 0
3 3 0 1
3 1 0 6
3 6 0 4
3 4 0 2
3 10 2 5
3 5 2 0
3 5 0 7
3 16 14 8
3 8 14 4
3 14 16 29
3 21 16 8
3 21 8 10
3 10 8 2
3 2 8 4
3 4 14 6
3 34 29 16
3 34 16 21
3 11 6 14
3 19 14 29
3 25 19 32
3 25 32 52
3 52 32 39
3 39 32 19
3 27 25 40
3 40 52 54
3 52 40 25
3 9 25 27
3 54 27 40
3 23 42 48
3 42 27 45
3 27 42 23
3 66 48 42
3 66 42 67
3 91 93 42
3 42 93 67
3 130 93 91
3 133 155 107
3 111 100 135
3 44 70 46
3 28 46 20
3 26 28 12
3 26 12 33
3 12 28 20
3 1 9 3
3 9 1 6
3 9 6 11
3 47 26 33
3 47 33 55
3 23 48 33
3 33 48 51
3 51 48 78
3 112 82 66
3 82 105 78
3 66 82 48
3 106 112 66
3 67 106 66
3 48 82 78
3 112 105 82
3 154 112 140
3 140 112 106
3 106 152 140
3 152 106 131
3 166 152 131
3 130 147 93
3 149 156 118
3 118 156 99
3 150 149 118
3 103 150 92
3 92 150 118
3 92 118 99
3 70 44 74
3 55 71 47
3 157 128 179
3 77 117 103
3 142 121 178
3 178 121 163
3 163 121 174
3 121 142 102
3 142 139 108
3 94 58 101
3 94 101 125
3 160 151 108
3 160 108 139
3 101 134 143
3 85 113 101
3 60 65 38
3 60 38 35
3 35 56 60
3 60 56 85
3 24 15 38
3 24 38 37
3 37 38 65
3 38 15 35
3 104 151 158
3 151 104 108
3 168 120 137
3 169 124 162
3 89 119 80
3 119 114 80
3 15 18 35
3 69 95 59
3 90 83 52
3 90 52 76
3 116 148 119
3 164 119 148
3 164 148 176
3 126 123 87
3 126 87 109
3 126 165 123
3 61 79 57
3 61 57 41
3 46 75 61
3 75 79 61
3 13 17 7
3 17 13 22
3 17 22 31
3 17 31 30
3 72 54 83
3 72 83 73
3 73 91 62
3 73 62 45
3 73 45 72
3 72 45 54
3 153 127 110
3 110 70 111
3 111 70 100
3 13 20 22
3 23 12 9
3 98 78 128
3 106 93 131
3 130 155 173
3 138 100 159
3 74 71 99
3 74 99 100
3 156 100 99
3 55 51 77
3 128 157 98
3 98 157 144
3 98 144 117
3 128 112 161
3 144 170 117
3 122 136 83
3 135 100 138
