ply
format ascii 1.0
comment Generated by PyMesh
element vertex 200
property float x
property float y
property float z
property float charge
property float ddc
property float hbond
property float hphob
property float rho
property float si
property float theta
property float nx
property float ny
property float nz
element face 351
property list uchar int vertex_indices
end_header
-33.7808 -4.35275 7.259 -0.49901 0 0 0.422222 1e-08 0.711429 2.22045e-16 -0.30399 0.887822 0.345489
-32.1635 -4.18888 7.43363 -0.193905 -0.0805808 0.0533052 0.256529 1.63493 -0.0331682 3.96501 -0.494985 0.710564 0.500088
-35.2217 -5.19338 6.81475 -0.528 0.192558 0 0.422222 1.72633 0.763676 0.829416 -0.691483 0.696105 0.193104
-34.4007 -4.5955 5.6 -0.490827 0.295914 0 0.422222 1.78759 0.629453 2.22045e-16 -0.54596 0.829982 -0.114273
-34.8674 -5.60225 8.20088 -0.217975 0.114367 0 0.422222 1.90502 0.444236 1.691 -0.382486 0.708639 0.592904
-33.1136 -5.69175 8.441 -0.25574 0.333711 0 0.422222 1.90662 -0.0800373 2.69945 -0.0804986 0.527094 0.845986
-32.5255 -4.007 5.828 -0.40946 0.0634562 0 -0.149668 1.9347 -0.415664 4.87615 -0.477079 0.829495 0.290403
-35.753 -6.076 6.7845 -0.291349 0.101336 0 0.422222 2.75697 -0.522238 0.971968 -0.619832 0.760206 0.194666
-33.0223 -3.958 4.60862 -0.405587 0.159576 0 -0.777778 2.7849 -0.0475736 5.46308 -0.676776 0.735773 0.0247489
-34.769 -5.28237 4.57438 -0.310572 0.161201 0 0.472631 3.07574 -0.489743 6.26447 -0.440406 0.895197 -0.0683023
-31.5397 -5.06975 8.558 -0.139835 0.284021 0 0.422222 3.19354 0.408564 3.35458 -0.181328 0.312937 0.932304
-31.2589 -2.88775 7.42325 -0.124684 -0.258819 0.645326 -0.777778 3.21966 0.0729631 4.15955 -0.944353 0.24938 0.214491
-33.6727 -6.60225 9.258 -0.056536 0.302936 0 0.422222 3.25165 0.812888 2.28463 0.0702203 0.288359 0.954944
-30.8317 -4.04781 8.4385 -0.125715 0.261469 0 -0.0862804 3.30926 0.0295254 3.72575 -0.540475 0.0841614 0.83714
-31.387 -3.21175 6.058 -0.489047 -0.114736 -0.551445 -0.777778 3.34236 -0.370034 4.54152 -0.675592 0.718291 0.166235
-32.0638 -6.682 8.86012 -0.0991797 0.323466 0 0.422222 3.4094 0.287433 2.66594 0.125745 0.107356 0.986237
-35.9019 -5.79362 5.36525 -0.244153 0.067648 0 0.622222 3.4363 -0.18642 0.483257 -0.443094 0.872622 0.205424
-34.8695 -6.857 9.14087 0.0581217 0.238648 0 0.422222 3.47281 0.660127 1.88853 -0.190404 0.275077 0.942379
-36.2115 -6.49013 8.4785 -0.151679 -0.0815952 0 0.422222 3.53964 0.188495 1.45215 -0.198481 0.832854 0.516681
-36.7781 -6.53188 6.914 -0.274894 -0.116904 0 0.564384 3.88631 -0.548748 0.985348 -0.216885 0.972193 0.0883307
-33.3517 -4.48987 3.43613 -0.318732 0.116442 0 -0.777778 4.11385 -0.678108 5.75805 -0.704637 0.708257 0.0431058
-30.886 -2.0955 6.865 -0.052242 -0.215084 0.559849 -0.777778 4.2581 0.422174 4.32633 -0.812348 0.52618 -0.251447
-30.7165 -5.80762 8.67513 -0.0886017 0.26921 0 0.422222 4.30522 0.192612 3.11927 -0.00172286 0.136058 0.990699
-32.271 -2.29513 4.08075 -0.67468 -0.0536448 -0.14244 -0.777778 4.394 0.336268 5.14075 -0.588367 0.642445 0.491007
-31.284 -1.93062 8.35487 -0.044033 -0.230418 0.15067 -0.777778 4.55556 0.999873 4.1252 -0.967646 0.251675 0.0178941
-35.5774 -7.80863 9.09609 -0.055958 0.23826 0 0.424333 4.65971 -0.166127 1.76297 0.168083 0.200091 0.965252
-30.3359 -3.20906 9.39494 -0.128608 -0.3186 0 -0.777778 4.67458 0.415428 3.81059 -0.518284 -0.519009 0.679714
-34.1722 -4.98475 3.09775 -0.222041 0.0918524 0 0.622222 4.69598 -0.5295 6.00763 -0.287157 0.953252 0.0940841
-37.0859 -6.42944 5.42169 -0.218864 -0.0812577 0 0.622222 4.78141 -0.812193 0.652204 -0.133285 0.924278 0.357694
-32.587 -7.96 8.83225 -0.106065 0.312499 0 0.422222 4.79063 -0.0724657 2.44775 0.225255 -0.143861 0.96362
-31.1874 -7.7385 8.66362 -0.113658 0.299392 0 0.422222 4.79608 0.556874 2.69714 0.213163 -0.24042 0.946974
-29.5184 -4.752 8.38488 -0.0921843 0.253615 0 -0.622476 4.8004 -0.599892 3.45479 -0.0909488 -0.0927838 0.991524
-37.0402 -5.822 4.5435 -0.244789 -0.0284665 0 0.622222 4.84051 0.436613 0.488973 -0.347204 0.810193 0.472268
-33.0858 -3.63425 2.55325 -0.39717 0.127208 -0.0935159 -0.777778 4.86658 -0.153587 5.59303 -0.882026 0.453282 0.128706
-37.5353 -6.48425 8.23575 -0.233165 -0.134102 0 0.622222 4.88553 0.0901899 1.2635 0.0970878 0.959624 0.263998
-35.5205 -4.9905 2.8695 -0.362307 0.102677 0 0.622222 4.96163 0.475207 0.00592142 -0.102899 0.986652 0.126215
-36.9893 -7.27563 9.55737 -0.096239 -0.145319 0 0.622222 5.08429 0.752194 1.51875 0.139151 0.628387 0.765354
-30.4287 -7.0005 8.672 -0.0796337 0.280339 0 0.422222 5.08582 0.2299 2.92379 0.0960066 -0.186931 0.97767
-36.4033 -5.22025 3.798 -0.307738 -0.0725263 0 0.622222 5.17884 0.63504 0.304297 -0.192443 0.937573 0.289695
-37.878 -6.53662 6.06738 -0.320401 -0.146145 0 0.622222 5.27432 -0.406608 0.842126 0.0806288 0.996742 0.00230739
-30.2841 -1.28112 7.27375 0.00153567 0.148662 0.0142818 -0.777778 5.35015 0.466831 4.30658 -0.515091 0.80885 -0.283626
-29.9763 -1.939 5.25131 -0.205173 0.132046 0 -0.777778 5.40651 -0.0916818 4.59397 -0.52254 0.817588 -0.24187
-33.7349 -8.84456 9.08519 -0.0849763 0.204975 -0.0317813 0.329156 5.50146 -0.161722 2.19797 0.115588 0.207804 0.971317
-32.0185 -1.359 3.388 -0.66804 0.0323439 -0.457025 -0.777778 5.58564 0.999935 5.18668 -0.474648 0.844896 0.246697
-30.534 -2.024 4.2795 -0.706847 0.103469 -0.563177 -0.777778 5.64485 -0.0403753 4.82069 -0.0501962 0.987192 0.151435
-30.5637 -1.03225 8.513 -0.154523 -0.067225 0 -0.777778 5.71785 0.999838 3.94055 -0.50348 0.858874 0.0940354
-29.3855 -6.38375 8.73913 -0.150886 0.223496 0 0.422222 5.75697 0.489601 3.14461 0.0195532 -0.0457732 0.99876
-30.897 -2.10525 9.48612 0.07727 -0.174942 0 -0.777778 5.76386 0.854998 3.92908 -0.822547 0.156029 0.546874
-32.7163 -2.2705 2.6995 -0.821407 0.134009 -0.0655108 -0.777778 5.84547 0.455057 5.34503 -0.91507 0.393282 0.0893089
-34.0807 -4.81025 1.82325 -0.262563 0.0431011 0 -0.165003 5.91259 -0.505076 5.90044 -0.396356 0.895647 0.201787
-37.6167 -5.52175 3.63175 -0.326966 -0.0725996 0 0.622222 5.96024 -0.309424 0.42876 -0.0906204 0.930519 0.354856
-30.332 -8.3075 8.105 -0.233008 0.232156 -0.690102 0.422222 5.96549 -0.730304 2.79265 0.0781791 -0.157487 0.984422
-35.8405 -9.07938 9.28952 -0.0548477 0.189418 0 0.622222 5.97175 -0.447668 1.85113 0.16897 0.166588 0.971441
-28.6159 -4.103 8.78575 -0.0962353 0.250191 0 -0.777778 5.9821 -0.468396 3.50325 -0.127365 -0.419006 0.899006
-31.7621 -8.94063 8.38975 -0.234182 0.240711 -0.658366 -0.0698936 6.14632 -0.451789 2.44775 0.343047 0.0129698 0.939229
-38.5578 -5.97625 7.695 -0.145536 -0.11054 0 0.622222 6.14885 0.999874 1.2635 -0.022914 0.993538 0.111163
-32.6063 -2.82525 1.547 -0.460887 0.126588 -0.466372 -0.777778 6.24387 -0.999882 5.34503 -0.950184 0.265308 0.16359
-29.6869 -2.135 10.464 0.237966 0.173219 0.932632 -0.777778 6.32312 0.999898 3.92908 -0.135996 0.0734229 0.987985
-31.08 -1.29131 2.85188 -0.839707 0.129604 -0.502738 -0.777778 6.378 0.87458 5.18668 0.226045 0.97141 0.072571
-28.1798 -5.60975 8.74925 -0.462583 0.188198 -0.18751 -0.777778 6.43146 0.203509 3.14461 -0.0910693 -0.0840283 0.992293
-29.6915 -0.818 8.0575 -0.261749 0.0967561 0 -0.777778 6.43639 0.585759 3.94055 -0.18737 0.982244 -0.00943878
-37.1741 -8.64888 9.92513 -0.0694003 0.183396 0 0.622222 6.5179 0.916692 1.51875 0.048268 -0.00831849 0.9988
-38.4269 -7.34469 9.6155 -0.0803503 0.129821 0 0.622222 6.52473 0.776417 1.51875 -0.347538 0.211085 0.913597
-28.4487 -3.04075 9.69425 -0.255832 0.245055 -0.0101865 -0.777778 6.59276 0.321439 3.50325 0.012919 -0.531035 0.847252
-39.2218 -6.73138 8.81181 -0.051944 0.0378364 0 0.622222 6.68475 0.864378 1.2635 -0.384019 0.697497 0.605002
-36.3025 -5.19994 1.31463 -0.396933 0.0631051 0 0.622222 6.71463 -0.650046 0.00592142 -0.135275 0.967282 0.214632
-29.0284 -7.79625 8.346 -0.16033 0.197909 0 0.422222 6.72909 -0.206977 2.79265 -0.0886754 -0.171318 0.981217
-33.4766 -3.51219 0.695625 -0.283369 -0.0926682 0 -0.288889 6.76879 -0.508533 5.59303 -0.65061 0.291893 0.701075
-39.3888 -6.33588 5.80237 -0.163987 -0.0708273 0 0.622222 6.82127 -0.0663983 0.842126 -0.0383378 0.914225 0.403388
-30.1301 -1.08162 9.54225 -0.0335833 0.0306244 0 -0.777778 6.83579 0.999882 3.94055 -0.359144 0.763088 0.537319
-37.5618 -5.33744 2.60069 -0.375937 -0.106255 0 0.622222 6.84899 -0.432898 0.42876 0.116432 0.978917 0.167823
-28.7354 -1.89062 4.48138 0.131733 0.139584 0.537714 -0.777778 6.86767 -0.190685 4.59397 -0.134073 0.9067 -0.399899
-32.1995 -1.76988 1.95131 -0.450837 0.115435 -0.485475 -0.777778 6.88349 0.346242 5.34503 -0.237383 0.93881 -0.249569
-33.8745 -4.44375 0.85425 -0.229711 -0.0311501 0 -0.777778 6.90715 -0.863753 5.90044 -0.610094 0.669089 0.424388
-34.2253 -10.122 9.57225 0.0698043 0.10378 0.0916115 -0.288889 6.9539 -0.64127 2.19797 -0.101175 0.499376 0.860458
-38.6125 -5.23581 3.59262 -0.300241 -0.166259 0 0.184466 6.99702 -0.290688 0.42876 0.552816 0.670072 0.495377
-28.8014 -0.948 5.80925 -0.0396373 0.130396 0 -0.777778 7.04168 0.99977 4.59397 -0.23342 0.901253 -0.365046
-36.6522 -10.0513 9.55838 -0.0579147 0.159932 0 0.622222 7.26626 -0.0597039 1.85113 -0.0113421 0.00129904 0.999935
-27.338 -4.10925 8.95088 -0.35194 0.215291 -0.0627266 -0.777778 7.27064 0.0822992 3.50325 0.322271 -0.309991 0.894453
-32.2695 -9.8335 9.2325 -0.455943 0.159563 -0.465912 -0.288889 7.27547 0.0385149 2.19797 0.424748 0.559253 0.711917
-28.412 -0.64125 7.73375 0.0304957 0.100291 0 -0.777778 7.38135 0.563801 4.30658 0.0344408 0.999214 0.0196461
-39.8204 -6.49412 6.95056 -0.113353 0.0639098 0 0.622222 7.4085 0.438333 0.842126 -0.617739 0.785837 0.0292997
-32.8725 -1.9635 0.789 -0.277471 -0.0354125 -0.134529 -0.354247 7.42202 0.199251 5.34503 -0.481363 0.641157 0.597668
-35.6166 -10.4596 9.67712 -0.0511477 0.117395 0.0974745 0.445784 7.42274 -0.0366741 1.85113 -0.132272 0.297605 0.945481
-30.8837 -9.88225 8.15225 -0.280124 0.130844 -0.243292 0.287953 7.45576 -0.999836 2.79265 0.24749 0.575023 0.779806
-29.8686 -2.227 2.542 -0.454337 0.16146 0 -0.7391 7.51644 -0.240152 4.82069 0.363008 0.900369 -0.239917
-28.8445 -8.89137 8.22925 -0.51711 0.116975 -0.595903 0.422222 7.5683 -0.645336 2.79265 -0.263077 0.235769 0.935523
-31.183 -1.832 1.72525 -0.651407 0.173014 -0.619464 -0.777778 7.6319 0.576835 5.34503 0.249647 0.832173 -0.49514
-34.7426 -4.191 0.26325 -0.267609 -0.0434287 0 -0.288889 7.71681 -0.354833 5.90044 -0.340167 0.668509 0.661349
-33.0234 -10.6089 10.2657 -0.057632 0.0761995 -0.0218802 -0.299364 7.74038 -0.147224 2.19797 0.0632105 0.859597 0.507047
-28.0758 -1.937 9.9535 -0.322628 0.152693 -0.301005 -0.777778 7.7863 0.337707 3.50325 0.086668 0.135083 0.987037
-27.4319 -6.98681 8.43294 -0.307116 0.152812 -0.707551 -0.559198 7.82434 -0.553436 3.14461 -0.0944343 -0.0179938 0.995368
-26.7895 -5.356 8.8235 -0.575657 0.163811 -0.21397 -0.777778 7.84668 0.434192 3.50325 0.281302 0.0468549 0.958475
-29.849 -10.163 8.373 -0.27704 0.0816512 -0.550695 0.422222 7.90146 -0.634494 2.79265 -0.156744 0.534384 0.830581
-38.046 -9.741 9.4805 -0.140535 0.144774 0 0.622222 7.9844 0.263676 1.85113 -0.263405 -0.0712523 0.96205
-34.6855 -10.849 10.1925 -0.00933493 0.025991 0.469916 -0.307082 8.01457 -0.175696 2.19797 -0.405149 0.716163 0.5683
-40.3257 -7.13325 6.0125 -0.106588 0.0895248 0 0.622222 8.06936 0.364511 0.842126 -0.902043 0.354241 0.246639
-38.3061 -4.64156 1.7885 -0.317875 -0.176491 0 -0.288889 8.15202 -0.469338 0.42876 0.772696 0.573598 0.271893
-26.8768 -3.04725 9.7155 -0.551497 0.206193 -0.172312 -0.777778 8.16482 0.999881 3.50325 0.423572 -0.397478 0.814001
-28.3189 -2.3435 3.09025 0.0556827 0.0882789 0.50114 -0.777778 8.17922 -0.482234 4.82069 -0.130167 0.986324 -0.101103
-37.6309 -4.894 0.760625 -0.305554 -0.107424 0 0.4401 8.18608 -0.78656 0.42876 0.35599 0.853998 0.379419
-27.589 -1.389 4.9675 -0.0482867 0.139261 0.0116611 -0.777778 8.21011 0.374897 4.59397 0.112893 0.900328 -0.420314
-35.9878 -4.63312 -0.051875 -0.273015 -0.0729745 0 -0.241207 8.22713 -0.999864 5.90044 -0.0681136 0.630653 0.77307
-39.0392 -4.08825 3.2905 -0.343817 -0.224257 0 -0.288889 8.25807 -0.319476 0.42876 0.866152 0.13306 0.481742
-40.364 -7.339 7.8165 -0.106214 0.102794 0 0.622222 8.31707 0.999892 1.2635 -0.928574 0.228913 0.292146
-39.669 -8.315 8.716 -0.222349 0.145265 0 0.622222 8.33309 0.722866 1.51875 -0.795708 -0.188115 0.575727
-39.5793 -4.5735 4.28075 -0.400967 -0.210921 0 -0.288889 8.35602 0.160798 0.42876 0.666708 0.0707343 0.741955
-27.7274 -8.73825 8.725 0.0381423 0.0861809 0.365919 -0.0888889 8.37942 -0.200083 2.79265 -0.363218 0.336862 0.868676
-31.7221 -2.39494 0.657188 -0.30844 0.144199 -0.295931 -0.340147 8.39788 -0.259311 5.34503 0.407498 0.899155 -0.159577
-27.9135 -1.04075 9.16788 -0.36029 0.0839672 -0.0723017 -0.777778 8.44777 0.535071 3.94055 0.121379 0.90999 0.396466
-35.9349 -11.4358 9.692 -0.0355487 0.0712398 0 -0.0703309 8.44963 -0.879546 1.85113 -0.260957 0.492579 0.830221
-40.337 -5.247 4.9125 -0.54352 -0.114904 -0.475689 -0.288889 8.51733 -0.0814939 0.42876 -0.235348 0.233348 0.943483
-27.1737 -2.05825 3.749 0.145123 0.0756097 0 -0.777778 8.60069 -0.513511 4.59397 -0.225108 0.967995 -0.110962
-27.3608 -0.706375 6.498 -0.0989817 0.145766 0 -0.777778 8.65664 0.999878 4.59397 0.486007 0.865123 -0.123934
-38.9468 -9.482 9.05175 -0.187323 0.130912 0 0.622222 8.66251 0.265325 1.51875 -0.680577 -0.107266 0.724782
-28.3725 -9.695 8.804 -0.125212 0.0467848 -0.0069312 0.836938 8.66326 -0.730093 2.79265 -0.424912 0.578205 0.696512
-37.133 -11.4148 9.588 -0.0434883 0.0782181 0 0.622222 8.71235 -0.540624 1.85113 0.0618202 0.654656 0.753395
-26.3368 -3.47775 8.07625 -0.314622 0.224623 -0.043412 -0.777778 8.74243 0.0642912 3.50325 0.900886 -0.221621 0.373214
-31.1244 -10.7653 9.34475 -0.237991 0.0872572 -0.00842829 0.358551 8.75605 -0.638997 2.79265 0.166343 0.841513 0.513989
-27.089 -1.7315 9.944 -0.397307 0.136499 -0.620844 -0.777778 8.79431 0.999911 3.50325 0.421816 0.393945 0.816627
-35.2925 -3.2405 -0.350875 -0.381477 -0.11161 0 -0.288889 8.88219 -0.680327 5.90044 -0.367442 0.0947415 0.925208
-35.0124 -2.15687 0.0776875 -0.360413 -0.162726 0 -0.288889 8.90828 -0.12048 5.59303 -0.132374 -0.269482 0.953864
-33.3881 -0.907 -0.127625 -0.204074 -0.122724 0 -0.288889 8.91274 -0.143303 5.34503 0.358553 0.40405 0.841536
-26.9067 -1.372 7.635 -0.292407 0.16585 0 -0.777778 9.05756 0.0830724 4.30658 0.710425 0.703444 -0.0215234
-29.097 -2.62 1.232 -0.0443953 0.116175 0.708644 -0.155556 9.08677 0.0901163 4.82069 -0.0665671 0.910376 -0.408392
-26.9533 -8.12138 8.86812 0.023154 0.0972614 0.228777 -0.0888889 9.13036 0.227079 3.14461 -0.170677 0.306102 0.936574
-26.1284 -4.74762 7.674 -0.54403 0.18497 -0.682695 -0.777778 9.14175 -0.0399944 3.50325 0.843631 0.225336 0.487351
-38.4216 -10.9028 9.40738 -0.0848407 0.0791846 0 0.161005 9.20759 -0.165295 1.85113 -0.198247 0.422036 0.884638
-40.336 -8.1225 5.43937 -0.0817083 0.1676 0 0.622222 9.21269 0.164308 0.842126 -0.944471 -0.323984 -0.0548503
-38.0385 -4.1545 0.1545 -0.237094 -0.150749 0 -0.288889 9.22549 -0.999886 0.42876 0.715193 0.39173 0.578832
-40.3073 -8.2845 7.0405 -0.250848 0.146551 0 0.622222 9.26609 0.503443 0.842126 -0.983741 -0.144484 0.106671
-26.7374 -1.6605 5.6375 -0.0813623 0.15118 0 -0.777778 9.32718 0.0407451 4.59397 0.636246 0.771467 -0.00537523
-28.8573 -10.4392 9.39525 -0.167279 0.0269315 0 0.844444 9.35224 -0.408119 2.79265 -0.251153 0.853269 0.457006
-32.4227 -10.9208 11.7502 -0.0459733 -0.0858665 0 -0.355556 9.3719 -0.121985 2.19797 0.113925 0.991513 0.0626406
-26.0858 -2.4735 8.90675 -0.671297 0.200908 -0.621386 -0.777778 9.43326 0.999878 3.50325 0.978281 0.053751 0.20019
-34.6963 -11.0377 11.6884 -0.022532 -0.0609587 0 -0.355556 9.52237 0.253035 2.19797 -0.380493 0.922615 -0.0633071
-40.8904 -4.4085 5.07013 -0.258394 -0.176796 0 -0.288889 9.53427 0.345272 0.42876 -0.0705653 -0.348085 0.934803
-38.6023 -3.22781 1.86181 -0.417577 -0.219778 0 -0.288889 9.59832 -0.384238 0.42876 0.954505 0.0227215 0.297327
-26.2812 -1.79919 4.2275 -0.069051 0.0678048 0 -0.155556 9.64598 0.0459914 4.59397 0.0486875 0.978856 0.19867
-35.4852 -12.0276 10.9904 0.018628 -0.0362228 0 -0.474158 9.64714 -0.999878 1.85113 -0.505969 0.856617 0.10101
-25.6009 -7.03156 8.74037 -0.12088 0.117124 0 -0.0888889 9.68151 0.412714 3.14461 0.333288 0.343454 0.878042
-36.2704 -3.198 -0.585813 -0.436477 -0.139905 0 -0.288889 9.78421 -0.999819 5.90044 -0.0350476 -0.118894 0.992288
-31.0072 -2.9275 -0.510875 -0.260717 0.117046 0 -0.777778 9.86726 -0.75846 5.34503 0.507971 0.830996 0.22674
-26.3416 -1.54663 2.94225 -0.0907273 0.0371262 0 -0.155556 9.86758 0.2302 4.59397 -0.292567 0.943917 0.153052
-30.376 -3.0025 0.469 -0.231141 0.137716 0 -0.777778 9.88668 -0.624391 5.34503 0.243404 0.888192 -0.389705
-26.222 -2.4765 7.5055 -0.271344 0.192914 0 -0.777778 9.90063 0.190262 3.50325 0.938088 0.339726 0.0676547
-39.1034 -9.88912 7.8795 -0.307649 0.136746 0 0.622222 9.91328 -0.530008 1.51875 -0.983972 -0.0837317 0.157441
-27.3611 -1.5905 1.81975 -0.126052 0.0645463 0 -0.155556 9.9395 0.603516 4.82069 -0.363097 0.920535 -0.144137
-26.6357 -1.76762 6.632 -0.0814577 0.176609 0 -0.777778 9.94891 0.042955 4.59397 0.817263 0.575883 0.0209652
-36.7253 -12.2281 10.7773 -0.06689 -0.0607498 0 -0.777778 10.0086 -0.999863 1.85113 0.0235737 0.979813 0.198521
-38.8596 -2.3095 3.33262 -0.32831 -0.242785 0 -0.288889 10.0464 0.128489 0.42876 0.836238 -0.206014 0.508196
-31.8857 -1.60984 -0.784625 -0.38807 -0.133396 -0.860595 -0.153048 10.0477 -0.327131 5.34503 0.51838 0.297852 0.801603
-33.0566 0.118375 -0.5665 -0.173941 -0.135143 0 0.698222 10.0763 -0.529628 5.34503 0.338264 0.0327202 0.940482
-26.5105 -9.54463 9.64053 0.165154 0.0757311 0.517439 -0.0888889 10.1026 0.0714656 2.79265 0.0954145 0.600885 0.79362
-30.5935 -11.107 10.5345 -0.156987 -0.0654103 0 0.844444 10.1029 -0.583936 2.79265 0.0221033 0.969451 0.244288
-27.5305 -9.8405 10.0405 -0.0968397 0.0173797 0 0.844444 10.1069 0.326484 2.79265 -0.372278 0.76202 0.529843
-26.334 -1.458 8.745 -0.43018 0.145989 -0.165353 -0.777778 10.1353 0.999914 3.94055 0.699001 0.700221 0.145216
-37.3666 -3.35194 -0.498563 -0.268494 -0.144063 0 -0.288889 10.1616 -0.999877 5.90044 0.371797 0.0310102 0.927796
-41.806 -6.0655 4.664 -0.339903 0.117213 -0.444224 -0.288889 10.2172 0.999887 0.42876 -0.668142 -0.13767 0.731186
-40.1156 -3.0305 5.21513 -0.166004 -0.202677 0 -0.288889 10.2379 0.999861 0.42876 0.613754 0.0165811 0.789323
-39.4077 -11.2451 9.05275 -0.107421 0.0522341 0 -0.0888889 10.31 0.143189 1.85113 -0.813013 0.531322 0.238132
-39.757 -9.28 6.953 -0.319286 0.17224 0 0.622222 10.3448 0.22262 0.842126 -0.878225 -0.449744 0.162637
-34.925 -0.822125 0.624313 -0.166115 -0.206983 0.237653 -0.54934 10.3533 -0.056821 5.34503 0.691245 -0.250309 0.677883
-36.4637 -2.113 -0.2115 -0.292134 -0.187414 0 -0.288889 10.3888 -0.688259 5.90044 -0.0157937 -0.645112 0.763924
-38.1285 -2.969 0.269125 -0.204382 -0.198083 0 -0.288889 10.4199 -0.999833 0.42876 0.843178 -0.22809 0.486853
-40.7697 -7.24625 4.67725 -0.16182 0.168347 0 0.20411 10.4523 0.187267 0.842126 -0.714739 -0.526074 0.460863
-32.2246 -10.9397 12.8374 -0.0661413 -0.108 0 -0.355556 10.4772 -0.107616 2.19797 0.251704 0.945446 -0.206825
-36.1942 -1.52581 0.898938 -0.03695 -0.244526 0.335718 -0.777778 10.4797 -0.0563223 5.59303 0.200794 -0.884774 0.420543
-38.6406 -11.7924 10.4327 -0.104061 -0.0602988 0 -0.0888889 10.4812 -0.46685 1.85113 0.0885346 0.941537 0.325068
-25.8297 -2.79912 6.55681 -0.156984 0.177585 0 -0.777778 10.4821 0.448653 3.50325 0.906418 0.333431 0.259289
-39.72 -9.3495 5.1955 -0.207814 0.177654 0 0.622222 10.6071 0.545022 0.842126 -0.880232 -0.386669 -0.275096
-25.726 -2.298 5.1635 -0.132231 0.130088 0 -0.332438 10.6133 0.163526 4.59397 0.641728 0.601919 0.475267
-37.6586 -12.0024 11.3371 -0.042336 -0.0883976 0 -0.777778 10.6309 -0.386179 1.85113 0.1699 0.977623 -0.124048
-25.5781 -4.95775 6.24988 -0.41037 0.169792 -0.326245 -0.427322 10.6829 -0.797954 3.50325 0.85727 0.285354 0.428557
-25.4036 -6.10031 7.48338 -0.28004 0.136283 -0.0250713 -0.27096 10.6882 -0.253655 3.50325 0.69473 0.593768 0.405942
-42.1951 -4.93669 3.83363 -0.405833 0.115097 -0.0483396 -0.288889 10.6882 0.27189 0.42876 -0.882318 -0.162969 0.441538
-27.5492 -2.51375 0.8025 -0.0619087 0.117362 0.0113925 -0.155556 10.6966 -0.120599 4.82069 -0.263077 0.713557 -0.649328
-41.2697 -3.31787 5.51263 -0.0587577 -0.114001 0 -0.288889 10.7709 0.99991 0.42876 -0.228896 0.144192 0.962713
-38.1974 -2.14069 1.66594 -0.293067 -0.247479 0 -0.486149 10.7748 -0.508741 0.42876 0.787496 -0.564312 0.247794
-34.876 -11.308 12.9373 -0.027475 -0.0727583 0.303753 -0.501658 10.8128 -0.999844 2.19797 -0.476612 0.842695 -0.250411
-29.0865 -10.9665 10.752 -0.151858 -0.029124 0 0.844444 10.8258 -0.600282 2.79265 -0.26057 0.919557 0.294141
-33.7066 -10.8389 12.5293 -0.061342 -0.109382 0 -0.355556 10.8362 -0.444811 2.19797 0.107503 0.948373 -0.298383
-39.7052 -11.6827 10.2268 -0.143636 -0.0355444 0 -0.0888889 10.9185 0.256964 1.85113 -0.393878 0.915497 0.0820099
-25.2149 -8.74375 9.0155 0.0799803 0.0873381 0.0671644 -0.215154 10.9827 -0.170803 3.14461 0.0383645 0.342632 0.938686
-39.2227 -8.85181 4.25631 -0.15133 0.2095 0 0.622222 10.9934 -0.2882 0.842126 -0.697007 -0.510394 -0.503666
-35.906 -11.7725 12.2495 -0.106097 -0.0860115 0 -0.374524 10.999 -0.431602 1.85113 -0.163692 0.93462 -0.315736
-28.9322 -3.57475 -0.422312 -0.259733 0.102297 0.0518446 -0.157184 11.0039 -0.429332 4.82069 0.177193 0.948521 -0.26251
-39.2836 -11.0393 7.63112 -0.129898 0.0678806 0 -0.0888889 11.1037 -0.620587 1.85113 -0.867189 0.482527 0.123084
-42.0901 -3.38044 4.73325 -0.0941403 0.100989 0 -0.288889 11.1497 0.747616 0.42876 -0.827295 0.00828891 0.561706
-24.9409 -1.16275 3.63575 -0.119261 0.0417783 0 -0.155556 11.2434 0.924717 4.59397 -0.0539669 0.919924 0.388365
-31.8854 0.152375 -0.856125 -0.221894 -0.129147 0 0.933333 11.2833 -0.802112 5.34503 0.0564411 -0.15471 0.986346
-40.3124 -7.47781 3.41987 -0.112871 0.208567 0.240844 -0.288889 11.3327 -0.0424891 0.842126 -0.570349 -0.785454 -0.240342
-27.7755 -10.4904 11.0693 -0.126984 0.0427595 0 0.844444 11.3461 0.351079 2.79265 -0.0678355 0.882133 0.46609
-34.1357 -10.2885 13.3055 -0.127439 -0.125057 0.0211454 -0.713269 11.3907 0.23512 2.19797 -0.170059 0.769274 -0.615871
-40.2346 -1.98538 4.73763 -0.207328 -0.136229 0 -0.288889 11.3931 0.366468 0.42876 0.295184 0.348033 0.889797
-24.1817 -6.89541 7.74766 0.101271 0.0656129 0 -0.143662 11.4188 -0.133003 3.14461 0.178567 0.808381 0.560923
-30.606 -2.2485 -1.8515 -0.350867 -0.129829 0 0.372242 11.4227 -0.861368 5.34503 0.546423 0.113876 0.829731
-37.416 -1.8825 0.155 -0.18782 -0.205847 0.00899123 -0.546584 11.4349 -0.999882 5.90044 0.413356 -0.677452 0.608436
-39.4165 -10.2591 6.43469 -0.253513 0.135823 0 0.622222 11.4372 -0.220215 0.842126 -0.996475 -0.0786897 -0.029075
-32.9215 1.461 -0.2985 -0.189702 -0.127093 0 0.933333 11.4521 0.366122 5.34503 0.183105 -0.0688322 0.980681
3 170 198 161
3 96 130 81
3 160 182 127
3 160 127 114
3 182 168 127
3 114 127 94
3 94 127 77
3 185 179 135
3 191 184 128
3 191 128 165
3 165 128 111
3 96 111 128
3 111 158 165
3 64 105 62
3 105 161 114
3 114 161 146
3 61 94 77
3 77 83 52
3 135 133 89
3 135 89 95
3 95 89 74
3 133 181 166
3 135 193 181
3 155 192 153
3 111 136 175
3 136 188 175
3 136 177 188
3 136 111 106
3 55 64 34
3 62 36 64
3 36 25 18
3 18 25 17
3 36 61 25
3 12 5 4
3 17 25 42
3 74 89 42
3 89 79 42
3 118 79 89
3 154 89 133
3 132 154 180
3 51 93 86
3 107 155 153
3 125 183 140
3 195 140 183
3 103 75 137
3 137 75 97
3 70 75 50
3 103 106 75
3 38 50 32
3 75 106 111
3 68 81 39
3 34 19 39
3 19 34 18
3 19 18 7
3 34 36 18
3 4 2 7
3 16 2 3
3 16 3 9
3 3 0 8
3 8 0 6
3 6 0 1
3 1 0 5
3 5 10 1
3 5 12 15
3 15 12 29
3 29 30 15
3 46 37 66
3 37 46 22
3 46 91 59
3 53 59 78
3 92 78 59
3 63 78 98
3 126 78 92
3 78 126 117
3 98 78 117
3 174 126 140
3 92 140 126
3 140 92 91
3 91 125 140
3 140 195 174
3 50 38 70
3 35 70 38
3 38 16 35
3 35 49 65
3 49 35 27
3 33 23 48
3 21 14 11
3 21 40 41
3 60 40 45
3 45 24 47
3 24 26 47
3 26 11 13
3 40 60 80
3 60 109 80
3 63 26 53
3 26 63 57
3 63 90 57
3 57 90 109
3 109 156 123
3 113 123 148
3 134 145 123
3 145 134 117
3 117 169 145
3 117 126 169
3 148 169 131
3 120 102 88
3 65 49 88
3 120 88 67
3 121 82 122
3 82 48 72
3 72 87 108
3 87 85 108
3 85 58 44
3 85 44 99
3 99 44 71
3 23 44 58
3 76 40 80
3 76 80 113
3 123 113 80
3 71 76 101
3 101 112 71
3 152 162 122
3 167 121 162
3 120 67 121
3 199 152 190
3 186 144 124
3 176 124 147
3 99 112 147
3 147 112 143
3 16 32 28
3 146 161 198
3 146 198 187
3 114 146 160
3 187 160 146
3 172 116 168
3 77 127 116
3 116 172 149
3 127 168 116
3 110 77 116
3 149 110 116
3 139 149 185
3 139 185 135
3 185 149 172
3 68 111 96
3 68 96 81
3 42 25 52
3 42 52 74
3 52 83 74
3 74 83 95
3 149 139 110
3 77 110 83
3 83 110 95
3 95 110 139
3 95 139 135
3 166 181 193
3 135 179 193
3 132 180 192
3 132 192 155
3 25 61 52
3 29 54 30
3 54 42 79
3 42 54 29
3 51 30 54
3 51 54 84
3 84 54 79
3 132 93 84
3 132 84 118
3 118 84 79
3 84 93 51
3 154 132 118
3 118 89 154
3 86 93 132
3 86 132 115
3 115 132 155
3 107 86 115
3 155 107 115
3 86 107 66
3 91 107 125
3 107 91 66
3 137 150 103
3 97 75 70
3 28 50 75
3 28 75 68
3 28 68 39
3 68 75 111
3 32 50 28
3 19 16 28
3 2 16 7
3 7 16 19
3 39 19 28
3 35 16 9
3 9 20 27
3 27 35 9
3 8 20 9
3 8 9 3
3 23 8 6
3 1 14 6
3 1 11 14
3 13 11 1
3 13 1 10
3 22 10 5
3 22 5 15
3 66 51 86
3 51 66 37
3 51 37 30
3 13 10 31
3 13 31 26
3 31 22 46
3 22 31 10
3 53 26 31
3 53 31 59
3 59 31 46
3 63 53 78
3 174 173 126
3 178 150 137
3 65 70 35
3 20 33 49
3 20 49 27
3 44 23 14
3 14 41 44
3 21 41 14
3 169 148 145
3 145 148 123
3 138 131 171
3 171 131 169
3 167 197 163
3 163 197 141
3 141 197 157
3 157 197 164
3 137 164 178
3 178 164 197
3 100 102 129
3 129 102 157
3 102 100 65
3 97 100 129
3 97 129 137
3 137 129 164
3 164 129 157
3 157 102 141
3 70 65 100
3 70 100 97
3 120 141 102
3 88 102 65
3 67 88 73
3 67 73 33
3 33 73 49
3 49 73 88
3 82 67 56
3 56 33 48
3 33 56 67
3 121 67 82
3 48 82 56
3 122 108 151
3 108 82 72
3 82 108 122
3 142 151 108
3 142 108 144
3 85 124 108
3 108 124 144
3 99 124 85
3 71 41 76
3 41 71 44
3 131 138 101
3 101 138 112
3 138 143 112
3 163 121 167
3 121 163 141
3 121 141 120
3 122 151 152
3 152 151 190
3 142 196 151
3 144 186 142
3 99 147 124
3 130 128 161
3 161 128 170
3 170 128 184
3 128 130 96
3 130 161 105
3 130 105 104
3 130 104 81
3 64 104 105
3 114 94 61
3 114 61 62
3 114 62 105
3 133 135 181
3 158 111 175
3 64 55 81
3 64 81 104
3 61 36 62
3 17 12 4
3 125 153 183
3 153 125 107
3 177 136 159
3 177 159 194
3 103 150 159
3 103 159 106
3 106 159 136
3 159 150 194
3 39 55 34
3 55 39 81
3 64 36 34
3 17 4 18
3 18 4 7
3 4 0 2
3 0 3 2
3 5 0 4
3 17 42 12
3 29 12 42
3 37 15 30
3 91 46 66
3 59 91 92
3 32 16 38
3 8 23 33
3 8 33 20
3 11 26 24
3 21 11 24
3 21 24 40
3 40 24 45
3 37 22 15
3 47 69 45
3 60 45 109
3 109 45 69
3 156 119 134
3 119 156 109
3 134 119 98
3 98 117 134
3 156 134 123
3 119 109 90
3 119 90 98
3 98 90 63
3 173 169 126
3 43 48 23
3 43 23 58
3 58 85 87
3 58 87 72
3 58 72 43
3 43 72 48
3 40 76 41
3 80 109 123
3 57 69 47
3 26 57 47
3 57 109 69
3 131 113 148
3 101 113 131
3 101 76 113
3 138 189 143
3 122 162 121
3 186 124 176
3 99 71 112
3 6 14 23
3 77 52 61
