ply
format ascii 1.0
comment Generated by PyMesh
element vertex 198
property float x
property float y
property float z
property float nx
property float ny
property float nz
element face 339
property list uchar int vertex_indices
end_header
-38.6023 -3.22781 1.86181 0.954505 0.0227215 0.297327
-38.1974 -2.14069 1.66594 0.787496 -0.564312 0.247794
-38.3061 -4.64156 1.7885 0.772696 0.573598 0.271893
-38.1285 -2.969 0.269125 0.843178 -0.22809 0.486853
-39.0392 -4.08825 3.2905 0.866152 0.13306 0.481742
-38.8596 -2.3095 3.33262 0.836238 -0.206014 0.508196
-38.0385 -4.1545 0.1545 0.715193 0.39173 0.578832
-37.4189 -1.511 2.14619 0.361916 -0.871285 0.331481
-38.6125 -5.23581 3.59262 0.552816 0.670072 0.495377
-37.6309 -4.894 0.760625 0.35599 0.853998 0.379419
-37.5618 -5.33744 2.60069 0.116432 0.978917 0.167823
-37.3666 -3.35194 -0.498563 0.371797 0.0310102 0.927796
-37.416 -1.8825 0.155 0.413356 -0.677452 0.608436
-39.5793 -4.5735 4.28075 0.666708 0.0707343 0.741955
-38.5714 -0.836875 3.46025 0.391656 -0.137736 0.909744
-37.6167 -5.52175 3.63175 -0.0906204 0.930519 0.354856
-40.2346 -1.98538 4.73763 0.295184 0.348033 0.889797
-35.9363 -1.14137 2.40313 0.578249 -0.734484 0.355191
-36.2704 -3.198 -0.585813 -0.0350476 -0.118894 0.992288
-36.4637 -2.113 -0.2115 -0.0157937 -0.645112 0.763924
-36.1942 -1.52581 0.898938 0.200794 -0.884774 0.420543
-40.1156 -3.0305 5.21513 0.613754 0.0165811 0.789323
-35.9878 -4.63312 -0.051875 -0.0681136 0.630653 0.77307
-40.337 -5.247 4.9125 -0.235348 0.233348 0.943483
-36.6226 -0.83575 3.69537 0.20358 -0.500822 0.841268
-36.3025 -5.19994 1.31463 -0.135275 0.967282 0.214632
-36.4033 -5.22025 3.798 -0.192443 0.937573 0.289695
-40.8904 -4.4085 5.07013 -0.0705653 -0.348085 0.934803
-38.7046 0.434438 3.35763 -0.017559 -0.0932078 0.995492
-40.5229 -1.05625 4.39113 0.0563963 0.254513 0.965423
-37.0402 -5.822 4.5435 -0.347204 0.810193 0.472268
-35.5205 -4.9905 2.8695 -0.102899 0.986652 0.126215
-35.2925 -3.2405 -0.350875 -0.367442 0.0947415 0.925208
-35.245 -0.365 1.9245 0.927783 -0.160929 0.33663
-41.5761 -1.9345 4.50787 -0.463942 0.467623 0.752388
-39.3888 -6.33588 5.80237 -0.0383378 0.914225 0.403388
-35.5675 0.14675 2.96625 0.750801 -0.123764 0.64883
-37.0859 -6.42944 5.42169 -0.133285 0.924278 0.357694
-41.2697 -3.31787 5.51263 -0.228896 0.144192 0.962713
-35.0124 -2.15687 0.0776875 -0.132374 -0.269482 0.953864
-37.097 0.353 3.8695 0.176704 -0.136258 0.974787
-34.7426 -4.191 0.26325 -0.340167 0.668509 0.661349
-34.925 -0.822125 0.624313 0.691245 -0.250309 0.677883
-39.6213 1.29762 3.55437 0.233579 -0.0350575 0.971706
-41.806 -6.0655 4.664 -0.668142 -0.13767 0.731186
-40.6965 0.08 4.0655 0.230056 0.0183663 0.973004
-42.0901 -3.38044 4.73325 -0.827295 0.00828891 0.561706
-35.9019 -5.79362 5.36525 -0.443094 0.872622 0.205424
-41.7721 -1.25794 3.68622 -0.822648 0.114956 0.556808
-34.1722 -4.98475 3.09775 -0.287157 0.953252 0.0940841
-40.7697 -7.24625 4.67725 -0.714739 -0.526074 0.460863
-42.1951 -4.93669 3.83363 -0.882318 -0.162969 0.441538
-40.3257 -7.13325 6.0125 -0.902043 0.354241 0.246639
-37.878 -6.53662 6.06738 0.0806288 0.996742 0.00230739
-39.8204 -6.49412 6.95056 -0.617739 0.785837 0.0292997
-34.0807 -4.81025 1.82325 -0.396356 0.895647 0.201787
-36.4315 1.14775 3.6145 0.566569 -0.0350329 0.823269
-33.8745 -4.44375 0.85425 -0.610094 0.669089 0.424388
-37.558 1.975 4.17487 0.0352649 0.0157289 0.999254
-35.0541 1.07375 1.07763 0.90533 -0.0469999 0.4221
-34.769 -5.28237 4.57438 -0.440406 0.895197 -0.0683023
-42.1297 0.21025 4.2505 -0.463454 -0.274326 0.842589
-36.7781 -6.53188 6.914 -0.216885 0.972193 0.0883307
-35.5944 1.77725 2.64581 0.858202 0.155366 0.489234
-33.4766 -3.51219 0.695625 -0.65061 0.291893 0.701075
-40.336 -8.1225 5.43937 -0.944471 -0.323984 -0.0548503
-33.3517 -4.48987 3.43613 -0.704637 0.708257 0.0431058
-33.3881 -0.907 -0.127625 0.358553 0.40405 0.841536
-41.8543 -6.81925 3.45994 -0.776072 -0.630333 -0.0198401
-34.3894 0.790625 0.009625 0.660308 -0.00013185 0.750995
-42.4011 -3.13925 3.435 -0.95444 0.108251 0.278077
-41.4772 1.22775 4.66525 -0.00352843 -0.115298 0.993325
-40.3124 -7.47781 3.41987 -0.570349 -0.785454 -0.240342
-35.753 -6.076 6.7845 -0.619832 0.760206 0.194666
-39.0421 3.00738 3.62512 0.235222 0.228087 0.9448
-42.4468 -2.0485 2.633 -0.822443 0.0439963 0.567143
-36.4515 2.298 3.7275 0.582346 0.298106 0.756311
-32.8725 -1.9635 0.789 -0.481363 0.641157 0.597668
-40.364 -7.339 7.8165 -0.928574 0.228913 0.292146
-37.587 3.07075 3.68775 0.226641 0.577705 0.78415
-35.2217 -5.19338 6.81475 -0.691483 0.696105 0.193104
-40.3073 -8.2845 7.0405 -0.983741 -0.144484 0.106671
-42.3643 -4.956 2.285 -0.933146 -0.299697 0.198547
-35.019 2.274 1.26 0.859955 0.0943554 0.501572
-33.0566 0.118375 -0.5665 0.338264 0.0327202 0.940482
-41.0505 2.48775 4.56675 0.203024 -0.106568 0.973357
-34.4007 -4.5955 5.6 -0.54596 0.829982 -0.114273
-38.5578 -5.97625 7.695 -0.022914 0.993538 0.111163
-33.0858 -3.63425 2.55325 -0.882026 0.453282 0.128706
-42.7577 -0.231688 2.256 -0.776429 -0.137096 0.615112
-37.5353 -6.48425 8.23575 0.0970878 0.959624 0.263998
-32.6063 -2.82525 1.547 -0.950184 0.265308 0.16359
-39.2218 -6.73138 8.81181 -0.384019 0.697497 0.605002
-39.72 -9.3495 5.1955 -0.880232 -0.386669 -0.275096
-36.2115 -6.49013 8.4785 -0.198481 0.832854 0.516681
-36.215 3.1935 2.472 0.601827 0.538145 0.590088
-33.0223 -3.958 4.60862 -0.676776 0.735773 0.0247489
-43.0871 1.57525 3.7945 -0.765179 -0.186942 0.61608
-34.2067 2.36244 -0.0304375 0.602862 -0.012522 0.797747
-43.2521 -1.776 2.00638 -0.520021 -0.0834216 0.85007
-39.8445 3.57888 4.13925 0.552164 0.149121 0.820291
-42.7841 -3.36331 1.97894 -0.787829 -0.144723 0.598649
-39.2227 -8.85181 4.25631 -0.697007 -0.510394 -0.503666
-42.846 -4.95762 1.38975 -0.49883 -0.472741 0.726419
-31.7221 -2.39494 0.657188 0.407498 0.899155 -0.159577
-35.6632 3.54737 1.66925 0.694694 0.329017 0.639647
-31.8857 -1.60984 -0.784625 0.51838 0.297852 0.801603
-39.757 -9.28 6.953 -0.878225 -0.449744 0.162637
-42.217 2.568 4.372 -0.421686 -0.00642154 0.906719
-32.1995 -1.76988 1.95131 -0.237383 0.93881 -0.249569
-41.9191 -5.97325 1.76713 -0.650974 -0.758477 0.0307479
-31.8854 0.152375 -0.856125 0.0564411 -0.15471 0.986346
-40.957 -6.576 1.7615 -0.459778 -0.841891 -0.28253
-39.8947 -7.20087 1.83025 -0.630199 -0.758222 -0.167178
-32.9215 1.461 -0.2985 0.183105 -0.0688322 0.980681
-39.669 -8.315 8.716 -0.795708 -0.188115 0.575727
-34.8674 -5.60225 8.20088 -0.382486 0.708639 0.592904
-38.9986 -7.99137 2.27875 -0.620734 -0.776492 -0.1084
-42.0288 3.59275 4.5445 -0.480291 0.13937 0.865966
-37.5692 4.24862 2.59262 0.374094 0.371871 0.849568
-34.8864 3.69462 0.610563 0.697698 0.177179 0.694136
-43.4664 0.37225 1.41225 -0.876384 -0.0627596 0.477507
-41.0871 4.13737 4.7885 -0.0134583 0.342001 0.939603
-33.7808 -4.35275 7.259 -0.30399 0.887822 0.345489
-32.7163 -2.2705 2.6995 -0.91507 0.393282 0.0893089
-39.1658 4.87844 2.96075 0.379436 0.357608 0.853314
-38.4269 -7.34469 9.6155 -0.347538 0.211085 0.913597
-33.4614 3.28387 -0.543375 0.431141 0.229098 0.872715
-32.5255 -4.007 5.828 -0.477079 0.829495 0.290403
-43.0135 2.919 3.737 -0.797274 0.168796 0.579536
-36.9893 -7.27563 9.55737 0.139151 0.628387 0.765354
-44.2265 -1.16675 1.407 -0.739751 0.220711 0.635654
-39.4165 -10.2591 6.43469 -0.996475 -0.0786897 -0.029075
-34.8695 -6.857 9.14087 -0.190404 0.275077 0.942379
-43.7072 2.09175 2.51425 -0.958642 0.0444668 0.281118
-43.7235 -4.16962 1.3335 -0.368419 -0.150679 0.917368
-31.183 -1.832 1.72525 0.249647 0.832173 -0.49514
-35.5774 -7.80863 9.09609 0.168083 0.200091 0.965252
-40.2899 4.84462 3.888 0.428523 0.453485 0.781486
-44.481 -2.173 1.411 -0.771995 -0.0660557 0.632187
-41.3828 -6.0725 0.728 -0.266816 -0.963376 -0.0267447
-39.1034 -9.88912 7.8795 -0.983972 -0.0837317 0.157441
-31.87 1.445 -0.4295 0.0845076 -0.0101996 0.996371
-32.271 -2.29513 4.08075 -0.588367 0.642445 0.491007
-31.0072 -2.9275 -0.510875 0.507971 0.830996 0.22674
-44.2975 -5.0985 0.976 -0.335261 -0.363691 0.869096
-30.376 -3.0025 0.469 0.243404 0.888192 -0.389705
-38.3525 -8.72563 2.94537 -0.694445 -0.62912 -0.34922
-42.5382 -6.08794 0.34725 0.030004 -0.835853 0.548133
-38.5904 -10.7269 4.25181 -0.861603 0.0665513 -0.503201
-30.6003 -0.275 -0.702 0.29752 -0.343281 0.890865
-44.243 -3.201 1.1145 -0.699789 -0.0724048 0.710671
-38.5112 -8.4565 1.32337 -0.580219 -0.803921 0.130607
-32.0185 -1.359 3.388 -0.474648 0.844896 0.246697
-31.08 -1.29131 2.85188 0.226045 0.97141 0.072571
-39.3829 -7.738 0.670625 -0.759828 -0.649223 -0.034218
-37.947 -9.83925 3.46025 -0.870984 -0.280418 -0.403427
-36.7305 5.051 2.075 0.619813 0.41907 0.663485
-38.9468 -9.482 9.05175 -0.680577 -0.107266 0.724782
-42.5649 4.24325 3.52925 -0.666223 0.382737 0.640046
-43.9055 1.411 0.7435 -0.874578 -0.0774757 0.478656
-30.606 -2.2485 -1.8515 0.546423 0.113876 0.829731
-40.555 -6.288 0.1665 -0.418926 -0.893581 0.161291
-33.2643 4.08875 -1.24125 0.454571 0.739756 0.49611
-34.08 4.646 -0.2085 0.694678 0.54295 0.471834
-43.381 3.104 2.787 -0.901441 0.172538 0.397031
-41.4459 5.14194 3.975 -0.247794 0.510356 0.823489
-35.4398 5.106 0.462875 0.568192 0.661566 0.489376
-39.7103 -11.2475 6.627 -0.881759 0.461065 -0.0995947
-44.3374 -6.106 0.246625 -0.271294 -0.522365 0.808415
-33.1136 -5.69175 8.441 -0.0804986 0.527094 0.845986
-39.7342 -7.0765 -0.14 -0.746758 -0.641011 0.177364
-32.1635 -4.18888 7.43363 -0.494985 0.710564 0.500088
-33.6727 -6.60225 9.258 0.0702203 0.288359 0.954944
-44.4607 0.274063 -0.0676875 -0.919826 0.0610784 0.387543
-31.387 -3.21175 6.058 -0.675592 0.718291 0.166235
-37.853 6.161 2.52325 0.485835 0.491831 0.722542
-39.8805 6.407 2.3535 0.0555998 0.834161 0.548712
-35.8405 -9.07938 9.28952 0.16897 0.166588 0.971441
-44.7566 -1.61137 0.203125 -0.987101 0.0879635 0.133767
-37.1741 -8.64888 9.92513 0.048268 -0.00831849 0.9988
-45.1165 -4.48737 0.769 -0.726908 -0.0429006 0.685394
-31.8743 3.232 -0.751375 0.287089 0.611263 0.737521
-39.2836 -11.0393 7.63112 -0.867189 0.482527 0.123084
-37.5008 -9.25106 1.43956 -0.825626 -0.564013 -0.0152332
-29.8686 -2.227 2.542 0.363008 0.900369 -0.239917
-40.8469 6.1535 3.4435 0.128493 0.729327 0.671991
-29.097 -2.62 1.232 -0.0665671 0.910376 -0.408392
-38.9025 6.7615 2.2985 0.000183148 0.796149 0.605101
-38.5976 -8.63981 0.120937 -0.685058 -0.617682 0.386219
-42.882 -7.097 -0.217 0.236199 -0.51959 0.821119
-29.7279 0.5895 -0.70275 0.440474 -0.169191 0.881678
-36.8985 5.6195 1.235 0.577129 0.803528 0.145822
-38.046 -9.741 9.4805 -0.263405 -0.0712523 0.96205
-37.589 -10.795 3.053 -0.964927 0.179044 -0.191989
-39.405 -11.8045 5.651 -0.802782 0.345569 -0.485925
-30.0037 -1.3065 -1.902 0.440059 -0.203184 0.87468
-44.6104 1.5565 -0.18625 -0.833737 -0.134689 0.535483
3 195 168 132
3 93 132 107
3 52 81 54
3 184 147 117
3 147 156 102
3 147 102 117
3 72 102 65
3 72 65 50
3 50 68 72
3 50 65 23
3 52 23 65
3 23 44 50
3 68 50 44
3 92 115 126
3 115 107 158
3 158 107 141
3 152 189 184
3 117 189 152
3 117 102 72
3 72 112 113
3 117 113 155
3 23 27 51
3 27 46 51
3 27 38 46
3 27 23 13
3 87 92 90
3 126 130 92
3 130 137 94
3 94 137 133
3 130 180 137
3 173 170 116
3 82 101 103
3 101 51 70
3 101 70 75
3 101 75 99
3 151 101 99
3 70 46 48
3 46 34 48
3 16 29 34
3 48 34 29
3 4 8 0
3 0 8 2
3 10 8 15
3 4 13 8
3 26 15 30
3 8 13 23
3 35 54 53
3 90 62 53
3 62 90 94
3 62 94 73
3 90 130 94
3 116 80 73
3 47 80 86
3 47 86 60
3 86 123 96
3 96 123 128
3 128 123 172
3 172 123 170
3 181 169 145
3 151 139 179
3 135 151 181
3 174 131 121
3 131 99 89
3 97 71 108
3 108 71 85
3 108 85 118
3 58 43 28
3 45 71 61
3 61 29 45
3 61 48 29
3 14 29 16
3 28 14 24
3 14 5 7
3 14 7 24
3 15 26 10
3 31 10 26
3 26 47 31
3 31 55 25
3 55 31 49
3 88 143 124
3 174 160 197
3 134 121 97
3 97 121 89
3 159 129 118
3 118 129 108
3 122 166 159
3 166 122 138
3 166 138 186
3 122 100 138
3 138 100 125
3 79 74 58
3 100 85 74
3 119 79 95
3 95 105 119
3 63 76 56
3 56 58 40
3 56 40 36
3 58 28 40
3 32 22 41
3 25 55 41
3 32 41 64
3 39 77 67
3 77 124 109
3 109 136 104
3 136 185 104
3 177 186 125
3 188 177 125
3 176 157 192
3 157 176 119
3 105 120 167
3 105 95 63
3 83 63 59
3 33 63 36
3 56 36 63
3 17 7 20
3 84 42 67
3 33 17 42
3 17 20 42
3 20 39 42
3 32 64 39
3 114 84 111
3 191 142 150
3 111 150 142
3 163 127 182
3 164 127 163
3 127 120 98
3 98 120 83
3 83 59 98
3 98 59 69
3 114 142 127
3 182 127 142
3 47 30 37
3 112 162 113
3 132 149 195
3 183 132 168
3 141 107 132
3 141 132 183
3 147 184 156
3 149 156 194
3 35 23 52
3 35 52 54
3 148 162 140
3 113 162 171
3 113 171 155
3 155 171 189
3 72 113 117
3 148 140 110
3 112 110 140
3 169 190 148
3 103 148 110
3 103 110 82
3 82 110 68
3 51 82 68
3 137 180 178
3 135 145 103
3 135 103 101
3 151 135 101
3 48 75 70
3 0 5 4
3 2 8 10
3 37 15 8
3 37 8 35
3 37 35 53
3 35 8 23
3 30 15 37
3 62 47 37
3 80 47 73
3 73 47 62
3 53 62 37
3 31 47 60
3 60 66 49
3 49 31 60
3 96 66 60
3 96 60 86
3 143 96 128
3 172 175 128
3 160 174 121
3 160 121 134
3 89 121 131
3 61 89 48
3 75 48 89
3 75 89 99
3 74 85 43
3 74 43 58
3 43 85 71
3 28 43 29
3 29 43 45
3 45 43 71
3 14 28 29
3 1 7 5
3 1 5 0
3 25 10 31
3 66 88 55
3 66 55 49
3 186 138 125
3 74 125 100
3 119 125 74
3 119 74 79
3 20 7 12
3 20 12 19
3 19 12 18
3 18 12 11
3 11 12 3
3 0 3 1
3 1 3 12
3 1 12 7
3 9 22 6
3 6 22 11
3 22 9 25
3 2 9 6
3 2 6 0
3 0 6 3
3 3 6 11
3 11 22 18
3 10 25 9
3 10 9 2
3 32 18 22
3 41 22 25
3 64 41 57
3 64 57 88
3 88 57 55
3 55 57 41
3 77 64 91
3 91 88 124
3 88 91 64
3 39 64 77
3 124 77 91
3 67 104 106
3 104 77 109
3 77 104 67
3 144 106 104
3 144 104 146
3 185 187 104
3 104 187 146
3 157 167 192
3 83 105 63
3 59 63 33
3 69 59 42
3 69 42 84
3 42 59 33
3 19 39 20
3 39 19 18
3 39 18 32
3 98 69 84
3 98 84 114
3 67 106 84
3 84 106 111
3 111 106 150
3 161 196 150
3 144 161 106
3 106 161 150
3 105 83 120
3 114 127 98
3 149 93 102
3 93 149 132
3 81 65 107
3 107 65 93
3 93 65 102
3 65 81 52
3 149 102 156
3 81 107 115
3 81 115 78
3 81 78 54
3 92 78 115
3 158 193 180
3 158 180 126
3 158 126 115
3 117 152 184
3 68 110 112
3 68 112 72
3 44 23 51
3 44 51 68
3 92 87 54
3 92 54 78
3 180 130 126
3 133 173 116
3 162 112 140
3 189 117 155
3 169 103 145
3 103 169 148
3 51 101 82
3 46 70 51
3 38 27 21
3 38 21 16
3 16 34 38
3 38 34 46
3 4 5 21
3 4 21 13
3 13 21 27
3 21 5 16
3 53 87 90
3 87 53 54
3 92 130 90
3 133 116 94
3 94 116 73
3 116 123 80
3 123 86 80
3 170 123 116
3 181 145 135
3 151 99 139
3 139 99 131
3 131 174 179
3 131 179 139
3 71 97 61
3 97 89 61
3 5 14 16
3 30 47 26
3 96 143 88
3 96 88 66
3 108 129 97
3 134 97 129
3 134 129 165
3 122 118 85
3 122 85 100
3 122 159 118
3 76 79 58
3 76 58 56
3 63 95 76
3 95 79 76
3 17 24 7
3 24 17 36
3 24 36 40
3 24 40 28
3 153 124 143
3 153 143 154
3 154 185 136
3 154 136 109
3 154 109 153
3 153 109 124
3 176 188 125
3 176 125 119
3 119 105 157
3 157 105 167
3 17 33 36
3 67 42 39
3 120 127 164
3 120 164 167
3 114 111 142
3 128 175 143
